<?xml version="1.0" encoding="utf-8" standalone="no"?>
<!DOCTYPE svg PUBLIC "-//W3C//DTD SVG 1.1//EN"
  "http://www.w3.org/Graphics/SVG/1.1/DTD/svg11.dtd">
<!-- Created with matplotlib (https://matplotlib.org/) -->
<svg height="345.6pt" version="1.1" viewBox="0 0 460.8 345.6" width="460.8pt" xmlns="http://www.w3.org/2000/svg" xmlns:xlink="http://www.w3.org/1999/xlink">
 <metadata>
  <rdf:RDF xmlns:cc="http://creativecommons.org/ns#" xmlns:dc="http://purl.org/dc/elements/1.1/" xmlns:rdf="http://www.w3.org/1999/02/22-rdf-syntax-ns#">
   <cc:Work>
    <dc:type rdf:resource="http://purl.org/dc/dcmitype/StillImage"/>
    <dc:date>2021-01-25T13:26:19.264836</dc:date>
    <dc:format>image/svg+xml</dc:format>
    <dc:creator>
     <cc:Agent>
      <dc:title>Matplotlib v3.3.3, https://matplotlib.org/</dc:title>
     </cc:Agent>
    </dc:creator>
   </cc:Work>
  </rdf:RDF>
 </metadata>
 <defs>
  <style type="text/css">*{stroke-linecap:butt;stroke-linejoin:round;}</style>
 </defs>
 <g id="figure_1">
  <g id="patch_1">
   <path d="M 0 345.6 
L 460.8 345.6 
L 460.8 0 
L 0 0 
z
" style="fill:none;"/>
  </g>
  <g id="axes_1">
   <g id="patch_2">
    <path clip-path="url(#pcc5d4bec8f)" d="M 73.832727 307.584 
L 80.976715 307.584 
L 80.976715 265.840941 
L 73.832727 265.840941 
z
" style="fill:#fa9ba4;opacity:0.2;"/>
   </g>
   <g id="patch_3">
    <path clip-path="url(#pcc5d4bec8f)" d="M 81.770491 307.584 
L 88.914479 307.584 
L 88.914479 265.840941 
L 81.770491 265.840941 
z
" style="fill:#fa9ba4;opacity:0.2;"/>
   </g>
   <g id="patch_4">
    <path clip-path="url(#pcc5d4bec8f)" d="M 89.708255 307.584 
L 96.852243 307.584 
L 96.852243 250.187294 
L 89.708255 250.187294 
z
" style="fill:#fa9ba4;opacity:0.2;"/>
   </g>
   <g id="patch_5">
    <path clip-path="url(#pcc5d4bec8f)" d="M 97.646019 307.584 
L 104.790007 307.584 
L 104.790007 276.276706 
L 97.646019 276.276706 
z
" style="fill:#fa9ba4;opacity:0.2;"/>
   </g>
   <g id="patch_6">
    <path clip-path="url(#pcc5d4bec8f)" d="M 105.583783 307.584 
L 112.727771 307.584 
L 112.727771 224.097882 
L 105.583783 224.097882 
z
" style="fill:#fa9ba4;opacity:0.2;"/>
   </g>
   <g id="patch_7">
    <path clip-path="url(#pcc5d4bec8f)" d="M 113.521547 307.584 
L 120.665535 307.584 
L 120.665535 276.276706 
L 113.521547 276.276706 
z
" style="fill:#fa9ba4;opacity:0.2;"/>
   </g>
   <g id="patch_8">
    <path clip-path="url(#pcc5d4bec8f)" d="M 121.459311 307.584 
L 128.603299 307.584 
L 128.603299 286.712471 
L 121.459311 286.712471 
z
" style="fill:#fa9ba4;opacity:0.2;"/>
   </g>
   <g id="patch_9">
    <path clip-path="url(#pcc5d4bec8f)" d="M 129.397075 307.584 
L 136.541062 307.584 
L 136.541062 250.187294 
L 129.397075 250.187294 
z
" style="fill:#fa9ba4;opacity:0.2;"/>
   </g>
   <g id="patch_10">
    <path clip-path="url(#pcc5d4bec8f)" d="M 137.334839 307.584 
L 144.478826 307.584 
L 144.478826 244.969412 
L 137.334839 244.969412 
z
" style="fill:#fa9ba4;opacity:0.2;"/>
   </g>
   <g id="patch_11">
    <path clip-path="url(#pcc5d4bec8f)" d="M 145.272603 307.584 
L 152.41659 307.584 
L 152.41659 213.662118 
L 145.272603 213.662118 
z
" style="fill:#fa9ba4;opacity:0.2;"/>
   </g>
   <g id="patch_12">
    <path clip-path="url(#pcc5d4bec8f)" d="M 153.210367 307.584 
L 160.354354 307.584 
L 160.354354 250.187294 
L 153.210367 250.187294 
z
" style="fill:#fa9ba4;opacity:0.2;"/>
   </g>
   <g id="patch_13">
    <path clip-path="url(#pcc5d4bec8f)" d="M 161.148131 307.584 
L 168.292118 307.584 
L 168.292118 182.354824 
L 161.148131 182.354824 
z
" style="fill:#fa9ba4;opacity:0.2;"/>
   </g>
   <g id="patch_14">
    <path clip-path="url(#pcc5d4bec8f)" d="M 169.085895 307.584 
L 176.229882 307.584 
L 176.229882 208.444235 
L 169.085895 208.444235 
z
" style="fill:#fa9ba4;opacity:0.2;"/>
   </g>
   <g id="patch_15">
    <path clip-path="url(#pcc5d4bec8f)" d="M 177.023659 307.584 
L 184.167646 307.584 
L 184.167646 156.265412 
L 177.023659 156.265412 
z
" style="fill:#fa9ba4;opacity:0.2;"/>
   </g>
   <g id="patch_16">
    <path clip-path="url(#pcc5d4bec8f)" d="M 184.961423 307.584 
L 192.10541 307.584 
L 192.10541 198.008471 
L 184.961423 198.008471 
z
" style="fill:#fa9ba4;opacity:0.2;"/>
   </g>
   <g id="patch_17">
    <path clip-path="url(#pcc5d4bec8f)" d="M 192.899186 307.584 
L 200.043174 307.584 
L 200.043174 177.136941 
L 192.899186 177.136941 
z
" style="fill:#fa9ba4;opacity:0.2;"/>
   </g>
   <g id="patch_18">
    <path clip-path="url(#pcc5d4bec8f)" d="M 200.83695 307.584 
L 207.980938 307.584 
L 207.980938 145.829647 
L 200.83695 145.829647 
z
" style="fill:#fa9ba4;opacity:0.2;"/>
   </g>
   <g id="patch_19">
    <path clip-path="url(#pcc5d4bec8f)" d="M 208.774714 307.584 
L 215.918702 307.584 
L 215.918702 171.919059 
L 208.774714 171.919059 
z
" style="fill:#fa9ba4;opacity:0.2;"/>
   </g>
   <g id="patch_20">
    <path clip-path="url(#pcc5d4bec8f)" d="M 216.712478 307.584 
L 223.856466 307.584 
L 223.856466 203.226353 
L 216.712478 203.226353 
z
" style="fill:#fa9ba4;opacity:0.2;"/>
   </g>
   <g id="patch_21">
    <path clip-path="url(#pcc5d4bec8f)" d="M 224.650242 307.584 
L 231.79423 307.584 
L 231.79423 187.572706 
L 224.650242 187.572706 
z
" style="fill:#fa9ba4;opacity:0.2;"/>
   </g>
   <g id="patch_22">
    <path clip-path="url(#pcc5d4bec8f)" d="M 232.588006 307.584 
L 239.731994 307.584 
L 239.731994 130.176 
L 232.588006 130.176 
z
" style="fill:#fa9ba4;opacity:0.2;"/>
   </g>
   <g id="patch_23">
    <path clip-path="url(#pcc5d4bec8f)" d="M 240.52577 307.584 
L 247.669758 307.584 
L 247.669758 203.226353 
L 240.52577 203.226353 
z
" style="fill:#fa9ba4;opacity:0.2;"/>
   </g>
   <g id="patch_24">
    <path clip-path="url(#pcc5d4bec8f)" d="M 248.463534 307.584 
L 255.607522 307.584 
L 255.607522 104.086588 
L 248.463534 104.086588 
z
" style="fill:#fa9ba4;opacity:0.2;"/>
   </g>
   <g id="patch_25">
    <path clip-path="url(#pcc5d4bec8f)" d="M 256.401298 307.584 
L 263.545286 307.584 
L 263.545286 41.472 
L 256.401298 41.472 
z
" style="fill:#fa9ba4;opacity:0.2;"/>
   </g>
   <g id="patch_26">
    <path clip-path="url(#pcc5d4bec8f)" d="M 264.339062 307.584 
L 271.48305 307.584 
L 271.48305 67.561412 
L 264.339062 67.561412 
z
" style="fill:#fa9ba4;opacity:0.2;"/>
   </g>
   <g id="patch_27">
    <path clip-path="url(#pcc5d4bec8f)" d="M 272.276826 307.584 
L 279.420814 307.584 
L 279.420814 119.740235 
L 272.276826 119.740235 
z
" style="fill:#fa9ba4;opacity:0.2;"/>
   </g>
   <g id="patch_28">
    <path clip-path="url(#pcc5d4bec8f)" d="M 280.21459 307.584 
L 287.358577 307.584 
L 287.358577 177.136941 
L 280.21459 177.136941 
z
" style="fill:#fa9ba4;opacity:0.2;"/>
   </g>
   <g id="patch_29">
    <path clip-path="url(#pcc5d4bec8f)" d="M 288.152354 307.584 
L 295.296341 307.584 
L 295.296341 67.561412 
L 288.152354 67.561412 
z
" style="fill:#fa9ba4;opacity:0.2;"/>
   </g>
   <g id="patch_30">
    <path clip-path="url(#pcc5d4bec8f)" d="M 296.090118 307.584 
L 303.234105 307.584 
L 303.234105 104.086588 
L 296.090118 104.086588 
z
" style="fill:#fa9ba4;opacity:0.2;"/>
   </g>
   <g id="patch_31">
    <path clip-path="url(#pcc5d4bec8f)" d="M 304.027882 307.584 
L 311.171869 307.584 
L 311.171869 161.483294 
L 304.027882 161.483294 
z
" style="fill:#fa9ba4;opacity:0.2;"/>
   </g>
   <g id="patch_32">
    <path clip-path="url(#pcc5d4bec8f)" d="M 311.965646 307.584 
L 319.109633 307.584 
L 319.109633 198.008471 
L 311.965646 198.008471 
z
" style="fill:#fa9ba4;opacity:0.2;"/>
   </g>
   <g id="patch_33">
    <path clip-path="url(#pcc5d4bec8f)" d="M 319.90341 307.584 
L 327.047397 307.584 
L 327.047397 119.740235 
L 319.90341 119.740235 
z
" style="fill:#fa9ba4;opacity:0.2;"/>
   </g>
   <g id="patch_34">
    <path clip-path="url(#pcc5d4bec8f)" d="M 327.841174 307.584 
L 334.985161 307.584 
L 334.985161 192.790588 
L 327.841174 192.790588 
z
" style="fill:#fa9ba4;opacity:0.2;"/>
   </g>
   <g id="patch_35">
    <path clip-path="url(#pcc5d4bec8f)" d="M 335.778938 307.584 
L 342.922925 307.584 
L 342.922925 224.097882 
L 335.778938 224.097882 
z
" style="fill:#fa9ba4;opacity:0.2;"/>
   </g>
   <g id="patch_36">
    <path clip-path="url(#pcc5d4bec8f)" d="M 343.716701 307.584 
L 350.860689 307.584 
L 350.860689 182.354824 
L 343.716701 182.354824 
z
" style="fill:#fa9ba4;opacity:0.2;"/>
   </g>
   <g id="patch_37">
    <path clip-path="url(#pcc5d4bec8f)" d="M 351.654465 307.584 
L 358.798453 307.584 
L 358.798453 192.790588 
L 351.654465 192.790588 
z
" style="fill:#fa9ba4;opacity:0.2;"/>
   </g>
   <g id="patch_38">
    <path clip-path="url(#pcc5d4bec8f)" d="M 359.592229 307.584 
L 366.736217 307.584 
L 366.736217 213.662118 
L 359.592229 213.662118 
z
" style="fill:#fa9ba4;opacity:0.2;"/>
   </g>
   <g id="patch_39">
    <path clip-path="url(#pcc5d4bec8f)" d="M 367.529993 307.584 
L 374.673981 307.584 
L 374.673981 187.572706 
L 367.529993 187.572706 
z
" style="fill:#fa9ba4;opacity:0.2;"/>
   </g>
   <g id="patch_40">
    <path clip-path="url(#pcc5d4bec8f)" d="M 375.467757 307.584 
L 382.611745 307.584 
L 382.611745 192.790588 
L 375.467757 192.790588 
z
" style="fill:#fa9ba4;opacity:0.2;"/>
   </g>
   <g id="patch_41">
    <path clip-path="url(#pcc5d4bec8f)" d="M 383.405521 307.584 
L 390.549509 307.584 
L 390.549509 234.533647 
L 383.405521 234.533647 
z
" style="fill:#fa9ba4;opacity:0.2;"/>
   </g>
   <g id="patch_42">
    <path clip-path="url(#pcc5d4bec8f)" d="M 391.343285 307.584 
L 398.487273 307.584 
L 398.487273 177.136941 
L 391.343285 177.136941 
z
" style="fill:#fa9ba4;opacity:0.2;"/>
   </g>
   <g id="matplotlib.axis_1"/>
   <g id="matplotlib.axis_2"/>
   <g id="PolyCollection_1">
    <defs>
     <path d="M 291.724348 -234.059294 
L 291.724348 -38.016 
L 299.662112 -38.016 
L 307.599876 -38.016 
L 315.537639 -38.016 
L 323.475403 -38.016 
L 331.413167 -38.016 
L 339.350931 -38.016 
L 347.288695 -38.016 
L 355.226459 -38.016 
L 363.164223 -38.016 
L 371.101987 -38.016 
L 379.039751 -38.016 
L 386.977515 -38.016 
L 394.915279 -38.016 
L 394.915279 -148.336941 
L 394.915279 -148.336941 
L 386.977515 -141.628235 
L 379.039751 -147.591529 
L 371.101987 -158.027294 
L 363.164223 -156.536471 
L 355.226459 -163.990588 
L 347.288695 -176.662588 
L 339.350931 -193.061647 
L 331.413167 -199.770353 
L 323.475403 -210.206118 
L 315.537639 -217.660235 
L 307.599876 -240.022588 
L 299.662112 -248.222118 
L 291.724348 -234.059294 
z
" id="m55dfc1a16f" style="stroke:#dc3545;stroke-opacity:0.5;"/>
    </defs>
    <g clip-path="url(#pcc5d4bec8f)">
     <use style="fill:#dc3545;fill-opacity:0.5;stroke:#dc3545;stroke-opacity:0.5;" x="0" xlink:href="#m55dfc1a16f" y="345.6"/>
    </g>
   </g>
   <g id="PolyCollection_2">
    <defs>
     <path d="M 125.031305 -81.995294 
L 125.031305 -38.016 
L 132.969069 -38.016 
L 140.906833 -38.016 
L 148.844597 -38.016 
L 156.782361 -38.016 
L 164.720124 -38.016 
L 172.657888 -38.016 
L 180.595652 -38.016 
L 188.533416 -38.016 
L 196.47118 -38.016 
L 204.408944 -38.016 
L 212.346708 -38.016 
L 220.284472 -38.016 
L 228.222236 -38.016 
L 236.16 -38.016 
L 244.097764 -38.016 
L 252.035528 -38.016 
L 259.973292 -38.016 
L 267.911056 -38.016 
L 275.84882 -38.016 
L 283.786584 -38.016 
L 291.724348 -38.016 
L 291.724348 -234.059294 
L 291.724348 -234.059294 
L 283.786584 -225.114353 
L 275.84882 -223.623529 
L 267.911056 -211.696941 
L 259.973292 -196.788706 
L 252.035528 -181.880471 
L 244.097764 -171.444706 
L 236.16 -172.190118 
L 228.222236 -168.463059 
L 220.284472 -165.481412 
L 212.346708 -168.463059 
L 204.408944 -157.281882 
L 196.47118 -147.591529 
L 188.533416 -137.901176 
L 180.595652 -130.447059 
L 172.657888 -111.811765 
L 164.720124 -102.121412 
L 156.782361 -96.158118 
L 148.844597 -92.431059 
L 140.906833 -87.213176 
L 132.969069 -84.231529 
L 125.031305 -81.995294 
z
" id="m8b137f5b15" style="stroke:#fa9ba4;stroke-opacity:0.3;"/>
    </defs>
    <g clip-path="url(#pcc5d4bec8f)">
     <use style="fill:#fa9ba4;fill-opacity:0.3;stroke:#fa9ba4;stroke-opacity:0.3;" x="0" xlink:href="#m8b137f5b15" y="345.6"/>
    </g>
   </g>
   <g id="line2d_1">
    <path clip-path="url(#pcc5d4bec8f)" d="M 125.031305 263.604706 
L 132.969069 261.368471 
L 140.906833 258.386824 
L 148.844597 253.168941 
L 156.782361 249.441882 
L 164.720124 243.478588 
L 172.657888 233.788235 
L 180.595652 215.152941 
L 188.533416 207.698824 
L 196.47118 198.008471 
L 204.408944 188.318118 
L 212.346708 177.136941 
L 220.284472 180.118588 
L 228.222236 177.136941 
L 236.16 173.409882 
L 244.097764 174.155294 
L 252.035528 163.719529 
L 259.973292 148.811294 
L 267.911056 133.903059 
L 275.84882 121.976471 
L 283.786584 120.485647 
L 291.724348 111.540706 
L 299.662112 97.377882 
L 307.599876 105.577412 
L 315.537639 127.939765 
L 323.475403 135.393882 
L 331.413167 145.829647 
L 339.350931 152.538353 
L 347.288695 168.937412 
L 355.226459 181.609412 
L 363.164223 189.063529 
L 371.101987 187.572706 
L 379.039751 198.008471 
L 386.977515 203.971765 
L 394.915279 197.263059 
" style="fill:none;stroke:#fa9ba4;stroke-linecap:square;stroke-width:2;"/>
   </g>
   <g id="line2d_2">
    <path clip-path="url(#pcc5d4bec8f)" d="M 291.724348 111.540706 
L 299.662112 97.377882 
L 307.599876 105.577412 
L 315.537639 127.939765 
L 323.475403 135.393882 
L 331.413167 145.829647 
L 339.350931 152.538353 
L 347.288695 168.937412 
L 355.226459 181.609412 
L 363.164223 189.063529 
L 371.101987 187.572706 
L 379.039751 198.008471 
L 386.977515 203.971765 
L 394.915279 197.263059 
" style="fill:none;stroke:#dc3545;stroke-linecap:square;stroke-width:2;"/>
   </g>
  </g>
 </g>
 <defs>
  <clipPath id="pcc5d4bec8f">
   <rect height="266.112" width="357.12" x="57.6" y="41.472"/>
  </clipPath>
 </defs>
</svg>
