<?xml version="1.0" encoding="utf-8" standalone="no"?>
<!DOCTYPE svg PUBLIC "-//W3C//DTD SVG 1.1//EN"
  "http://www.w3.org/Graphics/SVG/1.1/DTD/svg11.dtd">
<svg height="345.6pt" version="1.1" viewBox="0 0 460.8 345.6" width="460.8pt" xmlns="http://www.w3.org/2000/svg" xmlns:xlink="http://www.w3.org/1999/xlink">
 <metadata>
  <rdf:RDF xmlns:cc="http://creativecommons.org/ns#" xmlns:dc="http://purl.org/dc/elements/1.1/" xmlns:rdf="http://www.w3.org/1999/02/22-rdf-syntax-ns#">
   <cc:Work>
    <dc:type rdf:resource="http://purl.org/dc/dcmitype/StillImage"/>
    <dc:date>2021-04-29T08:02:53.194760</dc:date>
    <dc:format>image/svg+xml</dc:format>
    <dc:creator>
     <cc:Agent>
      <dc:title>Matplotlib v3.4.1, https://matplotlib.org/</dc:title>
     </cc:Agent>
    </dc:creator>
   </cc:Work>
  </rdf:RDF>
 </metadata>
 <defs>
  <style type="text/css">*{stroke-linecap:butt;stroke-linejoin:round;}</style>
 </defs>
 <g id="figure_1">
  <g id="patch_1">
   <path d="M 0 345.6 
L 460.8 345.6 
L 460.8 0 
L 0 0 
z
" style="fill:none;"/>
  </g>
  <g id="axes_1">
   <g id="patch_2">
    <path clip-path="url(#pb0dbf4d592)" d="M 73.832727 307.584 
L 75.998695 307.584 
L 75.998695 306.240848 
L 73.832727 306.240848 
z
" style="fill:#fa9ba4;opacity:0.2;"/>
   </g>
   <g id="patch_3">
    <path clip-path="url(#pb0dbf4d592)" d="M 76.239358 307.584 
L 78.405327 307.584 
L 78.405327 306.240848 
L 76.239358 306.240848 
z
" style="fill:#fa9ba4;opacity:0.2;"/>
   </g>
   <g id="patch_4">
    <path clip-path="url(#pb0dbf4d592)" d="M 78.64599 307.584 
L 80.811958 307.584 
L 80.811958 305.737166 
L 78.64599 305.737166 
z
" style="fill:#fa9ba4;opacity:0.2;"/>
   </g>
   <g id="patch_5">
    <path clip-path="url(#pb0dbf4d592)" d="M 81.052621 307.584 
L 83.218589 307.584 
L 83.218589 306.576636 
L 81.052621 306.576636 
z
" style="fill:#fa9ba4;opacity:0.2;"/>
   </g>
   <g id="patch_6">
    <path clip-path="url(#pb0dbf4d592)" d="M 83.459252 307.584 
L 85.62522 307.584 
L 85.62522 304.897696 
L 83.459252 304.897696 
z
" style="fill:#fa9ba4;opacity:0.2;"/>
   </g>
   <g id="patch_7">
    <path clip-path="url(#pb0dbf4d592)" d="M 85.865883 307.584 
L 88.031851 307.584 
L 88.031851 306.576636 
L 85.865883 306.576636 
z
" style="fill:#fa9ba4;opacity:0.2;"/>
   </g>
   <g id="patch_8">
    <path clip-path="url(#pb0dbf4d592)" d="M 88.272514 307.584 
L 90.438482 307.584 
L 90.438482 306.912424 
L 88.272514 306.912424 
z
" style="fill:#fa9ba4;opacity:0.2;"/>
   </g>
   <g id="patch_9">
    <path clip-path="url(#pb0dbf4d592)" d="M 90.679145 307.584 
L 92.845114 307.584 
L 92.845114 305.737166 
L 90.679145 305.737166 
z
" style="fill:#fa9ba4;opacity:0.2;"/>
   </g>
   <g id="patch_10">
    <path clip-path="url(#pb0dbf4d592)" d="M 93.085777 307.584 
L 95.251745 307.584 
L 95.251745 305.569272 
L 93.085777 305.569272 
z
" style="fill:#fa9ba4;opacity:0.2;"/>
   </g>
   <g id="patch_11">
    <path clip-path="url(#pb0dbf4d592)" d="M 95.492408 307.584 
L 97.658376 307.584 
L 97.658376 304.561908 
L 95.492408 304.561908 
z
" style="fill:#fa9ba4;opacity:0.2;"/>
   </g>
   <g id="patch_12">
    <path clip-path="url(#pb0dbf4d592)" d="M 97.899039 307.584 
L 100.065007 307.584 
L 100.065007 305.737166 
L 97.899039 305.737166 
z
" style="fill:#fa9ba4;opacity:0.2;"/>
   </g>
   <g id="patch_13">
    <path clip-path="url(#pb0dbf4d592)" d="M 100.30567 307.584 
L 102.471638 307.584 
L 102.471638 303.554544 
L 100.30567 303.554544 
z
" style="fill:#fa9ba4;opacity:0.2;"/>
   </g>
   <g id="patch_14">
    <path clip-path="url(#pb0dbf4d592)" d="M 102.712301 307.584 
L 104.878269 307.584 
L 104.878269 304.394014 
L 102.712301 304.394014 
z
" style="fill:#fa9ba4;opacity:0.2;"/>
   </g>
   <g id="patch_15">
    <path clip-path="url(#pb0dbf4d592)" d="M 105.118933 307.584 
L 107.284901 307.584 
L 107.284901 302.715074 
L 105.118933 302.715074 
z
" style="fill:#fa9ba4;opacity:0.2;"/>
   </g>
   <g id="patch_16">
    <path clip-path="url(#pb0dbf4d592)" d="M 107.525564 307.584 
L 109.691532 307.584 
L 109.691532 304.058226 
L 107.525564 304.058226 
z
" style="fill:#fa9ba4;opacity:0.2;"/>
   </g>
   <g id="patch_17">
    <path clip-path="url(#pb0dbf4d592)" d="M 109.932195 307.584 
L 112.098163 307.584 
L 112.098163 303.38665 
L 109.932195 303.38665 
z
" style="fill:#fa9ba4;opacity:0.2;"/>
   </g>
   <g id="patch_18">
    <path clip-path="url(#pb0dbf4d592)" d="M 112.338826 307.584 
L 114.504794 307.584 
L 114.504794 302.379286 
L 112.338826 302.379286 
z
" style="fill:#fa9ba4;opacity:0.2;"/>
   </g>
   <g id="patch_19">
    <path clip-path="url(#pb0dbf4d592)" d="M 114.745457 307.584 
L 116.911425 307.584 
L 116.911425 303.218756 
L 114.745457 303.218756 
z
" style="fill:#fa9ba4;opacity:0.2;"/>
   </g>
   <g id="patch_20">
    <path clip-path="url(#pb0dbf4d592)" d="M 117.152088 307.584 
L 119.318056 307.584 
L 119.318056 304.22612 
L 117.152088 304.22612 
z
" style="fill:#fa9ba4;opacity:0.2;"/>
   </g>
   <g id="patch_21">
    <path clip-path="url(#pb0dbf4d592)" d="M 119.55872 307.584 
L 121.724688 307.584 
L 121.724688 303.722438 
L 119.55872 303.722438 
z
" style="fill:#fa9ba4;opacity:0.2;"/>
   </g>
   <g id="patch_22">
    <path clip-path="url(#pb0dbf4d592)" d="M 121.965351 307.584 
L 124.131319 307.584 
L 124.131319 301.875604 
L 121.965351 301.875604 
z
" style="fill:#fa9ba4;opacity:0.2;"/>
   </g>
   <g id="patch_23">
    <path clip-path="url(#pb0dbf4d592)" d="M 124.371982 307.584 
L 126.53795 307.584 
L 126.53795 304.22612 
L 124.371982 304.22612 
z
" style="fill:#fa9ba4;opacity:0.2;"/>
   </g>
   <g id="patch_24">
    <path clip-path="url(#pb0dbf4d592)" d="M 126.778613 307.584 
L 128.944581 307.584 
L 128.944581 301.036134 
L 126.778613 301.036134 
z
" style="fill:#fa9ba4;opacity:0.2;"/>
   </g>
   <g id="patch_25">
    <path clip-path="url(#pb0dbf4d592)" d="M 129.185244 307.584 
L 131.351212 307.584 
L 131.351212 299.021406 
L 129.185244 299.021406 
z
" style="fill:#fa9ba4;opacity:0.2;"/>
   </g>
   <g id="patch_26">
    <path clip-path="url(#pb0dbf4d592)" d="M 131.591875 307.584 
L 133.757844 307.584 
L 133.757844 299.860876 
L 131.591875 299.860876 
z
" style="fill:#fa9ba4;opacity:0.2;"/>
   </g>
   <g id="patch_27">
    <path clip-path="url(#pb0dbf4d592)" d="M 133.998507 307.584 
L 136.164475 307.584 
L 136.164475 301.539816 
L 133.998507 301.539816 
z
" style="fill:#fa9ba4;opacity:0.2;"/>
   </g>
   <g id="patch_28">
    <path clip-path="url(#pb0dbf4d592)" d="M 136.405138 307.584 
L 138.571106 307.584 
L 138.571106 303.38665 
L 136.405138 303.38665 
z
" style="fill:#fa9ba4;opacity:0.2;"/>
   </g>
   <g id="patch_29">
    <path clip-path="url(#pb0dbf4d592)" d="M 138.811769 307.584 
L 140.977737 307.584 
L 140.977737 299.860876 
L 138.811769 299.860876 
z
" style="fill:#fa9ba4;opacity:0.2;"/>
   </g>
   <g id="patch_30">
    <path clip-path="url(#pb0dbf4d592)" d="M 141.2184 307.584 
L 143.384368 307.584 
L 143.384368 301.036134 
L 141.2184 301.036134 
z
" style="fill:#fa9ba4;opacity:0.2;"/>
   </g>
   <g id="patch_31">
    <path clip-path="url(#pb0dbf4d592)" d="M 143.625031 307.584 
L 145.790999 307.584 
L 145.790999 302.882968 
L 143.625031 302.882968 
z
" style="fill:#fa9ba4;opacity:0.2;"/>
   </g>
   <g id="patch_32">
    <path clip-path="url(#pb0dbf4d592)" d="M 146.031663 307.584 
L 148.197631 307.584 
L 148.197631 304.058226 
L 146.031663 304.058226 
z
" style="fill:#fa9ba4;opacity:0.2;"/>
   </g>
   <g id="patch_33">
    <path clip-path="url(#pb0dbf4d592)" d="M 148.438294 307.584 
L 150.604262 307.584 
L 150.604262 301.539816 
L 148.438294 301.539816 
z
" style="fill:#fa9ba4;opacity:0.2;"/>
   </g>
   <g id="patch_34">
    <path clip-path="url(#pb0dbf4d592)" d="M 150.844925 307.584 
L 153.010893 307.584 
L 153.010893 303.890332 
L 150.844925 303.890332 
z
" style="fill:#fa9ba4;opacity:0.2;"/>
   </g>
   <g id="patch_35">
    <path clip-path="url(#pb0dbf4d592)" d="M 153.251556 307.584 
L 155.417524 307.584 
L 155.417524 304.897696 
L 153.251556 304.897696 
z
" style="fill:#fa9ba4;opacity:0.2;"/>
   </g>
   <g id="patch_36">
    <path clip-path="url(#pb0dbf4d592)" d="M 155.658187 307.584 
L 157.824155 307.584 
L 157.824155 303.554544 
L 155.658187 303.554544 
z
" style="fill:#fa9ba4;opacity:0.2;"/>
   </g>
   <g id="patch_37">
    <path clip-path="url(#pb0dbf4d592)" d="M 158.064818 307.584 
L 160.230786 307.584 
L 160.230786 304.058226 
L 158.064818 304.058226 
z
" style="fill:#fa9ba4;opacity:0.2;"/>
   </g>
   <g id="patch_38">
    <path clip-path="url(#pb0dbf4d592)" d="M 160.47145 307.584 
L 162.637418 307.584 
L 162.637418 304.561908 
L 160.47145 304.561908 
z
" style="fill:#fa9ba4;opacity:0.2;"/>
   </g>
   <g id="patch_39">
    <path clip-path="url(#pb0dbf4d592)" d="M 162.878081 307.584 
L 165.044049 307.584 
L 165.044049 303.722438 
L 162.878081 303.722438 
z
" style="fill:#fa9ba4;opacity:0.2;"/>
   </g>
   <g id="patch_40">
    <path clip-path="url(#pb0dbf4d592)" d="M 165.284712 307.584 
L 167.45068 307.584 
L 167.45068 303.890332 
L 165.284712 303.890332 
z
" style="fill:#fa9ba4;opacity:0.2;"/>
   </g>
   <g id="patch_41">
    <path clip-path="url(#pb0dbf4d592)" d="M 167.691343 307.584 
L 169.857311 307.584 
L 169.857311 305.233484 
L 167.691343 305.233484 
z
" style="fill:#fa9ba4;opacity:0.2;"/>
   </g>
   <g id="patch_42">
    <path clip-path="url(#pb0dbf4d592)" d="M 170.097974 307.584 
L 172.263942 307.584 
L 172.263942 303.38665 
L 170.097974 303.38665 
z
" style="fill:#fa9ba4;opacity:0.2;"/>
   </g>
   <g id="patch_43">
    <path clip-path="url(#pb0dbf4d592)" d="M 172.504605 307.584 
L 174.670573 307.584 
L 174.670573 303.218756 
L 172.504605 303.218756 
z
" style="fill:#fa9ba4;opacity:0.2;"/>
   </g>
   <g id="patch_44">
    <path clip-path="url(#pb0dbf4d592)" d="M 174.911237 307.584 
L 177.077205 307.584 
L 177.077205 301.875604 
L 174.911237 301.875604 
z
" style="fill:#fa9ba4;opacity:0.2;"/>
   </g>
   <g id="patch_45">
    <path clip-path="url(#pb0dbf4d592)" d="M 177.317868 307.584 
L 179.483836 307.584 
L 179.483836 305.569272 
L 177.317868 305.569272 
z
" style="fill:#fa9ba4;opacity:0.2;"/>
   </g>
   <g id="patch_46">
    <path clip-path="url(#pb0dbf4d592)" d="M 179.724499 307.584 
L 181.890467 307.584 
L 181.890467 305.233484 
L 179.724499 305.233484 
z
" style="fill:#fa9ba4;opacity:0.2;"/>
   </g>
   <g id="patch_47">
    <path clip-path="url(#pb0dbf4d592)" d="M 182.13113 307.584 
L 184.297098 307.584 
L 184.297098 303.722438 
L 182.13113 303.722438 
z
" style="fill:#fa9ba4;opacity:0.2;"/>
   </g>
   <g id="patch_48">
    <path clip-path="url(#pb0dbf4d592)" d="M 184.537761 307.584 
L 186.703729 307.584 
L 186.703729 305.401378 
L 184.537761 305.401378 
z
" style="fill:#fa9ba4;opacity:0.2;"/>
   </g>
   <g id="patch_49">
    <path clip-path="url(#pb0dbf4d592)" d="M 186.944392 307.584 
L 189.110361 307.584 
L 189.110361 306.240848 
L 186.944392 306.240848 
z
" style="fill:#fa9ba4;opacity:0.2;"/>
   </g>
   <g id="patch_50">
    <path clip-path="url(#pb0dbf4d592)" d="M 189.351024 307.584 
L 191.516992 307.584 
L 191.516992 305.401378 
L 189.351024 305.401378 
z
" style="fill:#fa9ba4;opacity:0.2;"/>
   </g>
   <g id="patch_51">
    <path clip-path="url(#pb0dbf4d592)" d="M 191.757655 307.584 
L 193.923623 307.584 
L 193.923623 301.539816 
L 191.757655 301.539816 
z
" style="fill:#fa9ba4;opacity:0.2;"/>
   </g>
   <g id="patch_52">
    <path clip-path="url(#pb0dbf4d592)" d="M 194.164286 307.584 
L 196.330254 307.584 
L 196.330254 305.737166 
L 194.164286 305.737166 
z
" style="fill:#fa9ba4;opacity:0.2;"/>
   </g>
   <g id="patch_53">
    <path clip-path="url(#pb0dbf4d592)" d="M 196.570917 307.584 
L 198.736885 307.584 
L 198.736885 306.408742 
L 196.570917 306.408742 
z
" style="fill:#fa9ba4;opacity:0.2;"/>
   </g>
   <g id="patch_54">
    <path clip-path="url(#pb0dbf4d592)" d="M 198.977548 307.584 
L 201.143516 307.584 
L 201.143516 304.394014 
L 198.977548 304.394014 
z
" style="fill:#fa9ba4;opacity:0.2;"/>
   </g>
   <g id="patch_55">
    <path clip-path="url(#pb0dbf4d592)" d="M 201.38418 307.584 
L 203.550148 307.584 
L 203.550148 303.218756 
L 201.38418 303.218756 
z
" style="fill:#fa9ba4;opacity:0.2;"/>
   </g>
   <g id="patch_56">
    <path clip-path="url(#pb0dbf4d592)" d="M 203.790811 307.584 
L 205.956779 307.584 
L 205.956779 303.38665 
L 203.790811 303.38665 
z
" style="fill:#fa9ba4;opacity:0.2;"/>
   </g>
   <g id="patch_57">
    <path clip-path="url(#pb0dbf4d592)" d="M 206.197442 307.584 
L 208.36341 307.584 
L 208.36341 306.240848 
L 206.197442 306.240848 
z
" style="fill:#fa9ba4;opacity:0.2;"/>
   </g>
   <g id="patch_58">
    <path clip-path="url(#pb0dbf4d592)" d="M 208.604073 307.584 
L 210.770041 307.584 
L 210.770041 305.06559 
L 208.604073 305.06559 
z
" style="fill:#fa9ba4;opacity:0.2;"/>
   </g>
   <g id="patch_59">
    <path clip-path="url(#pb0dbf4d592)" d="M 211.010704 307.584 
L 213.176672 307.584 
L 213.176672 305.569272 
L 211.010704 305.569272 
z
" style="fill:#fa9ba4;opacity:0.2;"/>
   </g>
   <g id="patch_60">
    <path clip-path="url(#pb0dbf4d592)" d="M 213.417335 307.584 
L 215.583303 307.584 
L 215.583303 303.722438 
L 213.417335 303.722438 
z
" style="fill:#fa9ba4;opacity:0.2;"/>
   </g>
   <g id="patch_61">
    <path clip-path="url(#pb0dbf4d592)" d="M 215.823967 307.584 
L 217.989935 307.584 
L 217.989935 305.06559 
L 215.823967 305.06559 
z
" style="fill:#fa9ba4;opacity:0.2;"/>
   </g>
   <g id="patch_62">
    <path clip-path="url(#pb0dbf4d592)" d="M 218.230598 307.584 
L 220.396566 307.584 
L 220.396566 305.233484 
L 218.230598 305.233484 
z
" style="fill:#fa9ba4;opacity:0.2;"/>
   </g>
   <g id="patch_63">
    <path clip-path="url(#pb0dbf4d592)" d="M 220.637229 307.584 
L 222.803197 307.584 
L 222.803197 304.22612 
L 220.637229 304.22612 
z
" style="fill:#fa9ba4;opacity:0.2;"/>
   </g>
   <g id="patch_64">
    <path clip-path="url(#pb0dbf4d592)" d="M 223.04386 307.584 
L 225.209828 307.584 
L 225.209828 306.072954 
L 223.04386 306.072954 
z
" style="fill:#fa9ba4;opacity:0.2;"/>
   </g>
   <g id="patch_65">
    <path clip-path="url(#pb0dbf4d592)" d="M 225.450491 307.584 
L 227.616459 307.584 
L 227.616459 307.080318 
L 225.450491 307.080318 
z
" style="fill:#fa9ba4;opacity:0.2;"/>
   </g>
   <g id="patch_66">
    <path clip-path="url(#pb0dbf4d592)" d="M 227.857122 307.584 
L 230.023091 307.584 
L 230.023091 306.240848 
L 227.857122 306.240848 
z
" style="fill:#fa9ba4;opacity:0.2;"/>
   </g>
   <g id="patch_67">
    <path clip-path="url(#pb0dbf4d592)" d="M 230.263754 307.584 
L 232.429722 307.584 
L 232.429722 306.408742 
L 230.263754 306.408742 
z
" style="fill:#fa9ba4;opacity:0.2;"/>
   </g>
   <g id="patch_68">
    <path clip-path="url(#pb0dbf4d592)" d="M 232.670385 307.584 
L 234.836353 307.584 
L 234.836353 305.06559 
L 232.670385 305.06559 
z
" style="fill:#fa9ba4;opacity:0.2;"/>
   </g>
   <g id="patch_69">
    <path clip-path="url(#pb0dbf4d592)" d="M 235.077016 307.584 
L 237.242984 307.584 
L 237.242984 305.06559 
L 235.077016 305.06559 
z
" style="fill:#fa9ba4;opacity:0.2;"/>
   </g>
   <g id="patch_70">
    <path clip-path="url(#pb0dbf4d592)" d="M 237.483647 307.584 
L 239.649615 307.584 
L 239.649615 306.240848 
L 237.483647 306.240848 
z
" style="fill:#fa9ba4;opacity:0.2;"/>
   </g>
   <g id="patch_71">
    <path clip-path="url(#pb0dbf4d592)" d="M 239.890278 307.584 
L 242.056246 307.584 
L 242.056246 306.576636 
L 239.890278 306.576636 
z
" style="fill:#fa9ba4;opacity:0.2;"/>
   </g>
   <g id="patch_72">
    <path clip-path="url(#pb0dbf4d592)" d="M 242.296909 307.584 
L 244.462878 307.584 
L 244.462878 306.912424 
L 242.296909 306.912424 
z
" style="fill:#fa9ba4;opacity:0.2;"/>
   </g>
   <g id="patch_73">
    <path clip-path="url(#pb0dbf4d592)" d="M 244.703541 307.584 
L 246.869509 307.584 
L 246.869509 305.90506 
L 244.703541 305.90506 
z
" style="fill:#fa9ba4;opacity:0.2;"/>
   </g>
   <g id="patch_74">
    <path clip-path="url(#pb0dbf4d592)" d="M 247.110172 307.584 
L 249.27614 307.584 
L 249.27614 305.737166 
L 247.110172 305.737166 
z
" style="fill:#fa9ba4;opacity:0.2;"/>
   </g>
   <g id="patch_75">
    <path clip-path="url(#pb0dbf4d592)" d="M 249.516803 307.584 
L 251.682771 307.584 
L 251.682771 306.072954 
L 249.516803 306.072954 
z
" style="fill:#fa9ba4;opacity:0.2;"/>
   </g>
   <g id="patch_76">
    <path clip-path="url(#pb0dbf4d592)" d="M 251.923434 307.584 
L 254.089402 307.584 
L 254.089402 306.072954 
L 251.923434 306.072954 
z
" style="fill:#fa9ba4;opacity:0.2;"/>
   </g>
   <g id="patch_77">
    <path clip-path="url(#pb0dbf4d592)" d="M 254.330065 307.584 
L 256.496033 307.584 
L 256.496033 306.912424 
L 254.330065 306.912424 
z
" style="fill:#fa9ba4;opacity:0.2;"/>
   </g>
   <g id="patch_78">
    <path clip-path="url(#pb0dbf4d592)" d="M 256.736697 307.584 
L 258.902665 307.584 
L 258.902665 306.240848 
L 256.736697 306.240848 
z
" style="fill:#fa9ba4;opacity:0.2;"/>
   </g>
   <g id="patch_79">
    <path clip-path="url(#pb0dbf4d592)" d="M 259.143328 307.584 
L 261.309296 307.584 
L 261.309296 307.080318 
L 259.143328 307.080318 
z
" style="fill:#fa9ba4;opacity:0.2;"/>
   </g>
   <g id="patch_80">
    <path clip-path="url(#pb0dbf4d592)" d="M 261.549959 307.584 
L 263.715927 307.584 
L 263.715927 306.912424 
L 261.549959 306.912424 
z
" style="fill:#fa9ba4;opacity:0.2;"/>
   </g>
   <g id="patch_81">
    <path clip-path="url(#pb0dbf4d592)" d="M 263.95659 307.584 
L 266.122558 307.584 
L 266.122558 306.408742 
L 263.95659 306.408742 
z
" style="fill:#fa9ba4;opacity:0.2;"/>
   </g>
   <g id="patch_82">
    <path clip-path="url(#pb0dbf4d592)" d="M 266.363221 307.584 
L 268.529189 307.584 
L 268.529189 305.569272 
L 266.363221 305.569272 
z
" style="fill:#fa9ba4;opacity:0.2;"/>
   </g>
   <g id="patch_83">
    <path clip-path="url(#pb0dbf4d592)" d="M 268.769852 307.584 
L 270.93582 307.584 
L 270.93582 305.233484 
L 268.769852 305.233484 
z
" style="fill:#fa9ba4;opacity:0.2;"/>
   </g>
   <g id="patch_84">
    <path clip-path="url(#pb0dbf4d592)" d="M 271.176484 307.584 
L 273.342452 307.584 
L 273.342452 306.912424 
L 271.176484 306.912424 
z
" style="fill:#fa9ba4;opacity:0.2;"/>
   </g>
   <g id="patch_85">
    <path clip-path="url(#pb0dbf4d592)" d="M 273.583115 307.584 
L 275.749083 307.584 
L 275.749083 306.576636 
L 273.583115 306.576636 
z
" style="fill:#fa9ba4;opacity:0.2;"/>
   </g>
   <g id="patch_86">
    <path clip-path="url(#pb0dbf4d592)" d="M 275.989746 307.584 
L 278.155714 307.584 
L 278.155714 305.569272 
L 275.989746 305.569272 
z
" style="fill:#fa9ba4;opacity:0.2;"/>
   </g>
   <g id="patch_87">
    <path clip-path="url(#pb0dbf4d592)" d="M 278.396377 307.584 
L 280.562345 307.584 
L 280.562345 306.74453 
L 278.396377 306.74453 
z
" style="fill:#fa9ba4;opacity:0.2;"/>
   </g>
   <g id="patch_88">
    <path clip-path="url(#pb0dbf4d592)" d="M 280.803008 307.584 
L 282.968976 307.584 
L 282.968976 305.233484 
L 280.803008 305.233484 
z
" style="fill:#fa9ba4;opacity:0.2;"/>
   </g>
   <g id="patch_89">
    <path clip-path="url(#pb0dbf4d592)" d="M 283.209639 307.584 
L 285.375608 307.584 
L 285.375608 306.072954 
L 283.209639 306.072954 
z
" style="fill:#fa9ba4;opacity:0.2;"/>
   </g>
   <g id="patch_90">
    <path clip-path="url(#pb0dbf4d592)" d="M 285.616271 307.584 
L 287.782239 307.584 
L 287.782239 304.058226 
L 285.616271 304.058226 
z
" style="fill:#fa9ba4;opacity:0.2;"/>
   </g>
   <g id="patch_91">
    <path clip-path="url(#pb0dbf4d592)" d="M 288.022902 307.584 
L 290.18887 307.584 
L 290.18887 291.298281 
L 288.022902 291.298281 
z
" style="fill:#fa9ba4;opacity:0.2;"/>
   </g>
   <g id="patch_92">
    <path clip-path="url(#pb0dbf4d592)" d="M 290.429533 307.584 
L 292.595501 307.584 
L 292.595501 303.38665 
L 290.429533 303.38665 
z
" style="fill:#fa9ba4;opacity:0.2;"/>
   </g>
   <g id="patch_93">
    <path clip-path="url(#pb0dbf4d592)" d="M 292.836164 307.584 
L 295.002132 307.584 
L 295.002132 290.123023 
L 292.836164 290.123023 
z
" style="fill:#fa9ba4;opacity:0.2;"/>
   </g>
   <g id="patch_94">
    <path clip-path="url(#pb0dbf4d592)" d="M 295.242795 307.584 
L 297.408763 307.584 
L 297.408763 278.706231 
L 295.242795 278.706231 
z
" style="fill:#fa9ba4;opacity:0.2;"/>
   </g>
   <g id="patch_95">
    <path clip-path="url(#pb0dbf4d592)" d="M 297.649427 307.584 
L 299.815395 307.584 
L 299.815395 302.211392 
L 297.649427 302.211392 
z
" style="fill:#fa9ba4;opacity:0.2;"/>
   </g>
   <g id="patch_96">
    <path clip-path="url(#pb0dbf4d592)" d="M 300.056058 307.584 
L 302.222026 307.584 
L 302.222026 303.890332 
L 300.056058 303.890332 
z
" style="fill:#fa9ba4;opacity:0.2;"/>
   </g>
   <g id="patch_97">
    <path clip-path="url(#pb0dbf4d592)" d="M 302.462689 307.584 
L 304.628657 307.584 
L 304.628657 300.700346 
L 302.462689 300.700346 
z
" style="fill:#fa9ba4;opacity:0.2;"/>
   </g>
   <g id="patch_98">
    <path clip-path="url(#pb0dbf4d592)" d="M 304.86932 307.584 
L 307.035288 307.584 
L 307.035288 303.554544 
L 304.86932 303.554544 
z
" style="fill:#fa9ba4;opacity:0.2;"/>
   </g>
   <g id="patch_99">
    <path clip-path="url(#pb0dbf4d592)" d="M 307.275951 307.584 
L 309.441919 307.584 
L 309.441919 303.722438 
L 307.275951 303.722438 
z
" style="fill:#fa9ba4;opacity:0.2;"/>
   </g>
   <g id="patch_100">
    <path clip-path="url(#pb0dbf4d592)" d="M 309.682582 307.584 
L 311.84855 307.584 
L 311.84855 246.470582 
L 309.682582 246.470582 
z
" style="fill:#fa9ba4;opacity:0.2;"/>
   </g>
   <g id="patch_101">
    <path clip-path="url(#pb0dbf4d592)" d="M 312.089214 307.584 
L 314.255182 307.584 
L 314.255182 299.692982 
L 312.089214 299.692982 
z
" style="fill:#fa9ba4;opacity:0.2;"/>
   </g>
   <g id="patch_102">
    <path clip-path="url(#pb0dbf4d592)" d="M 314.495845 307.584 
L 316.661813 307.584 
L 316.661813 295.999314 
L 314.495845 295.999314 
z
" style="fill:#fa9ba4;opacity:0.2;"/>
   </g>
   <g id="patch_103">
    <path clip-path="url(#pb0dbf4d592)" d="M 316.902476 307.584 
L 319.068444 307.584 
L 319.068444 290.794599 
L 316.902476 290.794599 
z
" style="fill:#fa9ba4;opacity:0.2;"/>
   </g>
   <g id="patch_104">
    <path clip-path="url(#pb0dbf4d592)" d="M 319.309107 307.584 
L 321.475075 307.584 
L 321.475075 298.853512 
L 319.309107 298.853512 
z
" style="fill:#fa9ba4;opacity:0.2;"/>
   </g>
   <g id="patch_105">
    <path clip-path="url(#pb0dbf4d592)" d="M 321.715738 307.584 
L 323.881706 307.584 
L 323.881706 300.86824 
L 321.715738 300.86824 
z
" style="fill:#fa9ba4;opacity:0.2;"/>
   </g>
   <g id="patch_106">
    <path clip-path="url(#pb0dbf4d592)" d="M 324.122369 307.584 
L 326.288337 307.584 
L 326.288337 304.729802 
L 324.122369 304.729802 
z
" style="fill:#fa9ba4;opacity:0.2;"/>
   </g>
   <g id="patch_107">
    <path clip-path="url(#pb0dbf4d592)" d="M 326.529001 307.584 
L 328.694969 307.584 
L 328.694969 303.38665 
L 326.529001 303.38665 
z
" style="fill:#fa9ba4;opacity:0.2;"/>
   </g>
   <g id="patch_108">
    <path clip-path="url(#pb0dbf4d592)" d="M 328.935632 307.584 
L 331.1016 307.584 
L 331.1016 304.394014 
L 328.935632 304.394014 
z
" style="fill:#fa9ba4;opacity:0.2;"/>
   </g>
   <g id="patch_109">
    <path clip-path="url(#pb0dbf4d592)" d="M 331.342263 307.584 
L 333.508231 307.584 
L 333.508231 305.737166 
L 331.342263 305.737166 
z
" style="fill:#fa9ba4;opacity:0.2;"/>
   </g>
   <g id="patch_110">
    <path clip-path="url(#pb0dbf4d592)" d="M 333.748894 307.584 
L 335.914862 307.584 
L 335.914862 303.554544 
L 333.748894 303.554544 
z
" style="fill:#fa9ba4;opacity:0.2;"/>
   </g>
   <g id="patch_111">
    <path clip-path="url(#pb0dbf4d592)" d="M 336.155525 307.584 
L 338.321493 307.584 
L 338.321493 300.700346 
L 336.155525 300.700346 
z
" style="fill:#fa9ba4;opacity:0.2;"/>
   </g>
   <g id="patch_112">
    <path clip-path="url(#pb0dbf4d592)" d="M 338.562156 307.584 
L 340.728125 307.584 
L 340.728125 300.700346 
L 338.562156 300.700346 
z
" style="fill:#fa9ba4;opacity:0.2;"/>
   </g>
   <g id="patch_113">
    <path clip-path="url(#pb0dbf4d592)" d="M 340.968788 307.584 
L 343.134756 307.584 
L 343.134756 298.34983 
L 340.968788 298.34983 
z
" style="fill:#fa9ba4;opacity:0.2;"/>
   </g>
   <g id="patch_114">
    <path clip-path="url(#pb0dbf4d592)" d="M 343.375419 307.584 
L 345.541387 307.584 
L 345.541387 281.224641 
L 343.375419 281.224641 
z
" style="fill:#fa9ba4;opacity:0.2;"/>
   </g>
   <g id="patch_115">
    <path clip-path="url(#pb0dbf4d592)" d="M 345.78205 307.584 
L 347.948018 307.584 
L 347.948018 270.479425 
L 345.78205 270.479425 
z
" style="fill:#fa9ba4;opacity:0.2;"/>
   </g>
   <g id="patch_116">
    <path clip-path="url(#pb0dbf4d592)" d="M 348.188681 307.584 
L 350.354649 307.584 
L 350.354649 290.123023 
L 348.188681 290.123023 
z
" style="fill:#fa9ba4;opacity:0.2;"/>
   </g>
   <g id="patch_117">
    <path clip-path="url(#pb0dbf4d592)" d="M 350.595312 307.584 
L 352.76128 307.584 
L 352.76128 261.91683 
L 350.595312 261.91683 
z
" style="fill:#fa9ba4;opacity:0.2;"/>
   </g>
   <g id="patch_118">
    <path clip-path="url(#pb0dbf4d592)" d="M 353.001944 307.584 
L 355.167912 307.584 
L 355.167912 276.019927 
L 353.001944 276.019927 
z
" style="fill:#fa9ba4;opacity:0.2;"/>
   </g>
   <g id="patch_119">
    <path clip-path="url(#pb0dbf4d592)" d="M 355.408575 307.584 
L 357.574543 307.584 
L 357.574543 267.961015 
L 355.408575 267.961015 
z
" style="fill:#fa9ba4;opacity:0.2;"/>
   </g>
   <g id="patch_120">
    <path clip-path="url(#pb0dbf4d592)" d="M 357.815206 307.584 
L 359.981174 307.584 
L 359.981174 283.743051 
L 357.815206 283.743051 
z
" style="fill:#fa9ba4;opacity:0.2;"/>
   </g>
   <g id="patch_121">
    <path clip-path="url(#pb0dbf4d592)" d="M 360.221837 307.584 
L 362.387805 307.584 
L 362.387805 274.844669 
L 360.221837 274.844669 
z
" style="fill:#fa9ba4;opacity:0.2;"/>
   </g>
   <g id="patch_122">
    <path clip-path="url(#pb0dbf4d592)" d="M 362.628468 307.584 
L 364.794436 307.584 
L 364.794436 247.477946 
L 362.628468 247.477946 
z
" style="fill:#fa9ba4;opacity:0.2;"/>
   </g>
   <g id="patch_123">
    <path clip-path="url(#pb0dbf4d592)" d="M 365.035099 307.584 
L 367.201067 307.584 
L 367.201067 238.243775 
L 365.035099 238.243775 
z
" style="fill:#fa9ba4;opacity:0.2;"/>
   </g>
   <g id="patch_124">
    <path clip-path="url(#pb0dbf4d592)" d="M 367.441731 307.584 
L 369.607699 307.584 
L 369.607699 254.865282 
L 367.441731 254.865282 
z
" style="fill:#fa9ba4;opacity:0.2;"/>
   </g>
   <g id="patch_125">
    <path clip-path="url(#pb0dbf4d592)" d="M 369.848362 307.584 
L 372.01433 307.584 
L 372.01433 260.741572 
L 369.848362 260.741572 
z
" style="fill:#fa9ba4;opacity:0.2;"/>
   </g>
   <g id="patch_126">
    <path clip-path="url(#pb0dbf4d592)" d="M 372.254993 307.584 
L 374.420961 307.584 
L 374.420961 248.988992 
L 372.254993 248.988992 
z
" style="fill:#fa9ba4;opacity:0.2;"/>
   </g>
   <g id="patch_127">
    <path clip-path="url(#pb0dbf4d592)" d="M 374.661624 307.584 
L 376.827592 307.584 
L 376.827592 258.055268 
L 374.661624 258.055268 
z
" style="fill:#fa9ba4;opacity:0.2;"/>
   </g>
   <g id="patch_128">
    <path clip-path="url(#pb0dbf4d592)" d="M 377.068255 307.584 
L 379.234223 307.584 
L 379.234223 248.653204 
L 377.068255 248.653204 
z
" style="fill:#fa9ba4;opacity:0.2;"/>
   </g>
   <g id="patch_129">
    <path clip-path="url(#pb0dbf4d592)" d="M 379.474886 307.584 
L 381.640855 307.584 
L 381.640855 245.799006 
L 379.474886 245.799006 
z
" style="fill:#fa9ba4;opacity:0.2;"/>
   </g>
   <g id="patch_130">
    <path clip-path="url(#pb0dbf4d592)" d="M 381.881518 307.584 
L 384.047486 307.584 
L 384.047486 232.703273 
L 381.881518 232.703273 
z
" style="fill:#fa9ba4;opacity:0.2;"/>
   </g>
   <g id="patch_131">
    <path clip-path="url(#pb0dbf4d592)" d="M 384.288149 307.584 
L 386.454117 307.584 
L 386.454117 183.174541 
L 384.288149 183.174541 
z
" style="fill:#fa9ba4;opacity:0.2;"/>
   </g>
   <g id="patch_132">
    <path clip-path="url(#pb0dbf4d592)" d="M 386.69478 307.584 
L 388.860748 307.584 
L 388.860748 41.472 
L 386.69478 41.472 
z
" style="fill:#fa9ba4;opacity:0.2;"/>
   </g>
   <g id="patch_133">
    <path clip-path="url(#pb0dbf4d592)" d="M 389.101411 307.584 
L 391.267379 307.584 
L 391.267379 126.426367 
L 389.101411 126.426367 
z
" style="fill:#fa9ba4;opacity:0.2;"/>
   </g>
   <g id="patch_134">
    <path clip-path="url(#pb0dbf4d592)" d="M 391.508042 307.584 
L 393.67401 307.584 
L 393.67401 155.136242 
L 391.508042 155.136242 
z
" style="fill:#fa9ba4;opacity:0.2;"/>
   </g>
   <g id="patch_135">
    <path clip-path="url(#pb0dbf4d592)" d="M 393.914673 307.584 
L 396.080642 307.584 
L 396.080642 307.584 
L 393.914673 307.584 
z
" style="fill:#fa9ba4;opacity:0.2;"/>
   </g>
   <g id="patch_136">
    <path clip-path="url(#pb0dbf4d592)" d="M 396.321305 307.584 
L 398.487273 307.584 
L 398.487273 307.584 
L 396.321305 307.584 
z
" style="fill:#fa9ba4;opacity:0.2;"/>
   </g>
   <g id="matplotlib.axis_1"/>
   <g id="matplotlib.axis_2"/>
   <g id="PolyCollection_1">
    <defs>
     <path d="M 366.118083 -81.284684 
L 366.118083 -38.016 
L 368.524715 -38.016 
L 370.931346 -38.016 
L 373.337977 -38.016 
L 375.744608 -38.016 
L 378.151239 -38.016 
L 380.55787 -38.016 
L 382.964502 -38.016 
L 385.371133 -38.016 
L 387.777764 -38.016 
L 390.184395 -38.016 
L 392.591026 -38.016 
L 394.997658 -38.016 
L 397.404289 -38.016 
L 397.404289 -152.159939 
L 397.404289 -152.159939 
L 394.997658 -160.986367 
L 392.591026 -169.405052 
L 390.184395 -154.702334 
L 387.777764 -137.193388 
L 385.371133 -105.869163 
L 382.964502 -95.627629 
L 380.55787 -94.836129 
L 378.151239 -94.59628 
L 375.744608 -90.854642 
L 373.337977 -87.184959 
L 370.931346 -84.47467 
L 368.524715 -82.292048 
L 366.118083 -81.284684 
z
" id="m16ac665a96" style="stroke:#dc3545;stroke-opacity:0.5;"/>
    </defs>
    <g clip-path="url(#pb0dbf4d592)">
     <use style="fill:#dc3545;fill-opacity:0.5;stroke:#dc3545;stroke-opacity:0.5;" x="0" xlink:href="#m16ac665a96" y="345.6"/>
    </g>
   </g>
   <g id="PolyCollection_2">
    <defs>
     <path d="M 89.355498 -39.431107 
L 89.355498 -38.016 
L 91.76213 -38.016 
L 94.168761 -38.016 
L 96.575392 -38.016 
L 98.982023 -38.016 
L 101.388654 -38.016 
L 103.795285 -38.016 
L 106.201917 -38.016 
L 108.608548 -38.016 
L 111.015179 -38.016 
L 113.42181 -38.016 
L 115.828441 -38.016 
L 118.235072 -38.016 
L 120.641704 -38.016 
L 123.048335 -38.016 
L 125.454966 -38.016 
L 127.861597 -38.016 
L 130.268228 -38.016 
L 132.674859 -38.016 
L 135.081491 -38.016 
L 137.488122 -38.016 
L 139.894753 -38.016 
L 142.301384 -38.016 
L 144.708015 -38.016 
L 147.114647 -38.016 
L 149.521278 -38.016 
L 151.927909 -38.016 
L 154.33454 -38.016 
L 156.741171 -38.016 
L 159.147802 -38.016 
L 161.554434 -38.016 
L 163.961065 -38.016 
L 166.367696 -38.016 
L 168.774327 -38.016 
L 171.180958 -38.016 
L 173.587589 -38.016 
L 175.994221 -38.016 
L 178.400852 -38.016 
L 180.807483 -38.016 
L 183.214114 -38.016 
L 185.620745 -38.016 
L 188.027377 -38.016 
L 190.434008 -38.016 
L 192.840639 -38.016 
L 195.24727 -38.016 
L 197.653901 -38.016 
L 200.060532 -38.016 
L 202.467164 -38.016 
L 204.873795 -38.016 
L 207.280426 -38.016 
L 209.687057 -38.016 
L 212.093688 -38.016 
L 214.500319 -38.016 
L 216.906951 -38.016 
L 219.313582 -38.016 
L 221.720213 -38.016 
L 224.126844 -38.016 
L 226.533475 -38.016 
L 228.940106 -38.016 
L 231.346738 -38.016 
L 233.753369 -38.016 
L 236.16 -38.016 
L 238.566631 -38.016 
L 240.973262 -38.016 
L 243.379894 -38.016 
L 245.786525 -38.016 
L 248.193156 -38.016 
L 250.599787 -38.016 
L 253.006418 -38.016 
L 255.413049 -38.016 
L 257.819681 -38.016 
L 260.226312 -38.016 
L 262.632943 -38.016 
L 265.039574 -38.016 
L 267.446205 -38.016 
L 269.852836 -38.016 
L 272.259468 -38.016 
L 274.666099 -38.016 
L 277.07273 -38.016 
L 279.479361 -38.016 
L 281.885992 -38.016 
L 284.292623 -38.016 
L 286.699255 -38.016 
L 289.105886 -38.016 
L 291.512517 -38.016 
L 293.919148 -38.016 
L 296.325779 -38.016 
L 298.732411 -38.016 
L 301.139042 -38.016 
L 303.545673 -38.016 
L 305.952304 -38.016 
L 308.358935 -38.016 
L 310.765566 -38.016 
L 313.172198 -38.016 
L 315.578829 -38.016 
L 317.98546 -38.016 
L 320.392091 -38.016 
L 322.798722 -38.016 
L 325.205353 -38.016 
L 327.611985 -38.016 
L 330.018616 -38.016 
L 332.425247 -38.016 
L 334.831878 -38.016 
L 337.238509 -38.016 
L 339.645141 -38.016 
L 342.051772 -38.016 
L 344.458403 -38.016 
L 346.865034 -38.016 
L 349.271665 -38.016 
L 351.678296 -38.016 
L 354.084928 -38.016 
L 356.491559 -38.016 
L 358.89819 -38.016 
L 361.304821 -38.016 
L 363.711452 -38.016 
L 366.118083 -38.016 
L 366.118083 -81.284684 
L 366.118083 -81.284684 
L 363.711452 -73.873363 
L 361.304821 -70.587437 
L 358.89819 -69.676013 
L 356.491559 -67.58933 
L 354.084928 -62.912283 
L 351.678296 -59.386509 
L 349.271665 -53.438264 
L 346.865034 -51.207672 
L 344.458403 -46.362731 
L 342.051772 -43.196729 
L 339.645141 -42.285305 
L 337.238509 -42.26132 
L 334.831878 -42.525153 
L 332.425247 -44.348003 
L 330.018616 -45.739124 
L 327.611985 -46.4107 
L 325.205353 -54.541567 
L 322.798722 -54.685476 
L 320.392091 -54.301719 
L 317.98546 -54.037885 
L 315.578829 -52.167066 
L 313.172198 -51.279626 
L 310.765566 -54.277734 
L 308.358935 -48.041671 
L 305.952304 -48.08964 
L 303.545673 -49.840535 
L 301.139042 -49.360838 
L 298.732411 -49.049035 
L 296.325779 -48.617307 
L 293.919148 -44.611836 
L 291.512517 -42.405229 
L 289.105886 -41.949517 
L 286.699255 -39.718925 
L 284.292623 -39.551031 
L 281.885992 -39.622985 
L 279.479361 -39.455091 
L 277.07273 -39.431107 
L 274.666099 -39.215243 
L 272.259468 -39.263213 
L 269.852836 -39.263213 
L 267.446205 -39.143288 
L 265.039574 -39.071334 
L 262.632943 -39.167273 
L 260.226312 -39.311182 
L 257.819681 -39.335167 
L 255.413049 -39.287197 
L 253.006418 -39.383137 
L 250.599787 -39.527046 
L 248.193156 -39.670955 
L 245.786525 -39.575016 
L 243.379894 -39.527046 
L 240.973262 -39.503061 
L 238.566631 -39.575016 
L 236.16 -39.862834 
L 233.753369 -39.838849 
L 231.346738 -39.838849 
L 228.940106 -40.222607 
L 226.533475 -40.318546 
L 224.126844 -40.606365 
L 221.720213 -40.58238 
L 219.313582 -40.702304 
L 216.906951 -40.990122 
L 214.500319 -41.086062 
L 212.093688 -40.702304 
L 209.687057 -40.678319 
L 207.280426 -41.182001 
L 204.873795 -41.301926 
L 202.467164 -40.894183 
L 200.060532 -40.58238 
L 197.653901 -40.678319 
L 195.24727 -40.846213 
L 192.840639 -40.870198 
L 190.434008 -40.822228 
L 188.027377 -41.134032 
L 185.620745 -41.541774 
L 183.214114 -41.565759 
L 180.807483 -41.541774 
L 178.400852 -41.757638 
L 175.994221 -41.901547 
L 173.587589 -41.589744 
L 171.180958 -41.541774 
L 168.774327 -41.32591 
L 166.367696 -41.517789 
L 163.961065 -41.853577 
L 161.554434 -41.805608 
L 159.147802 -42.045456 
L 156.741171 -42.477184 
L 154.33454 -43.00485 
L 151.927909 -43.220714 
L 149.521278 -43.556502 
L 147.114647 -43.796351 
L 144.708015 -44.515897 
L 142.301384 -44.77973 
L 139.894753 -44.324018 
L 137.488122 -44.036199 
L 135.081491 -43.98823 
L 132.674859 -43.604472 
L 130.268228 -43.124775 
L 127.861597 -42.645078 
L 125.454966 -42.30929 
L 123.048335 -42.333274 
L 120.641704 -42.21335 
L 118.235072 -42.117411 
L 115.828441 -42.21335 
L 113.42181 -41.853577 
L 111.015179 -41.541774 
L 108.608548 -41.229971 
L 106.201917 -40.990122 
L 103.795285 -40.390501 
L 101.388654 -40.078698 
L 98.982023 -39.886819 
L 96.575392 -39.766895 
L 94.168761 -39.599001 
L 91.76213 -39.503061 
L 89.355498 -39.431107 
z
" id="m2bde0c9f98" style="stroke:#fa9ba4;stroke-opacity:0.3;"/>
    </defs>
    <g clip-path="url(#pb0dbf4d592)">
     <use style="fill:#fa9ba4;fill-opacity:0.3;stroke:#fa9ba4;stroke-opacity:0.3;" x="0" xlink:href="#m2bde0c9f98" y="345.6"/>
    </g>
   </g>
   <g id="line2d_1">
    <path clip-path="url(#pb0dbf4d592)" d="M 89.355498 306.168893 
L 94.168761 306.000999 
L 101.388654 305.521302 
L 103.795285 305.209499 
L 106.201917 304.609878 
L 111.015179 304.058226 
L 115.828441 303.38665 
L 118.235072 303.482589 
L 125.454966 303.29071 
L 127.861597 302.954922 
L 135.081491 301.61177 
L 137.488122 301.563801 
L 139.894753 301.275982 
L 142.301384 300.82027 
L 144.708015 301.084103 
L 147.114647 301.803649 
L 154.33454 302.59515 
L 159.147802 303.554544 
L 161.554434 303.794392 
L 163.961065 303.746423 
L 166.367696 304.082211 
L 168.774327 304.27409 
L 171.180958 304.058226 
L 173.587589 304.010256 
L 175.994221 303.698453 
L 183.214114 304.034241 
L 185.620745 304.058226 
L 190.434008 304.777772 
L 195.24727 304.753787 
L 200.060532 305.01762 
L 204.873795 304.298074 
L 207.280426 304.417999 
L 209.687057 304.921681 
L 212.093688 304.897696 
L 214.500319 304.513938 
L 216.906951 304.609878 
L 219.313582 304.897696 
L 221.720213 305.01762 
L 224.126844 304.993635 
L 226.533475 305.281454 
L 228.940106 305.377393 
L 231.346738 305.761151 
L 236.16 305.737166 
L 238.566631 306.024984 
L 243.379894 306.072954 
L 248.193156 305.929045 
L 255.413049 306.312803 
L 260.226312 306.288818 
L 265.039574 306.528666 
L 272.259468 306.336787 
L 274.666099 306.384757 
L 277.07273 306.168893 
L 279.479361 306.144909 
L 281.885992 305.977015 
L 284.292623 306.048969 
L 286.699255 305.881075 
L 289.105886 303.650483 
L 291.512517 303.194771 
L 293.919148 300.988164 
L 296.325779 296.982693 
L 298.732411 296.550965 
L 301.139042 296.239162 
L 303.545673 295.759465 
L 305.952304 297.51036 
L 308.358935 297.558329 
L 310.765566 291.322266 
L 313.172198 294.320374 
L 315.578829 293.432934 
L 317.98546 291.562115 
L 320.392091 291.298281 
L 322.798722 290.914524 
L 325.205353 291.058433 
L 327.611985 299.1893 
L 330.018616 299.860876 
L 332.425247 301.251997 
L 334.831878 303.074847 
L 337.238509 303.33868 
L 339.645141 303.314695 
L 342.051772 302.403271 
L 344.458403 299.237269 
L 346.865034 294.392328 
L 349.271665 292.161736 
L 351.678296 286.213491 
L 354.084928 282.687717 
L 356.491559 278.01067 
L 358.89819 275.923987 
L 361.304821 275.012563 
L 363.711452 271.726637 
L 366.118083 264.315316 
L 368.524715 263.307952 
L 370.931346 261.12533 
L 373.337977 258.415041 
L 378.151239 251.00372 
L 380.55787 250.763871 
L 382.964502 249.972371 
L 385.371133 239.730837 
L 387.777764 208.406612 
L 390.184395 190.897666 
L 392.591026 176.194948 
L 394.997658 184.613633 
L 397.404289 193.440061 
L 397.404289 193.440061 
" style="fill:none;stroke:#fa9ba4;stroke-linecap:square;stroke-width:2;"/>
   </g>
   <g id="line2d_2">
    <path clip-path="url(#pb0dbf4d592)" d="M 366.118083 264.315316 
L 368.524715 263.307952 
L 370.931346 261.12533 
L 373.337977 258.415041 
L 375.744608 254.745358 
L 378.151239 251.00372 
L 380.55787 250.763871 
L 382.964502 249.972371 
L 385.371133 239.730837 
L 387.777764 208.406612 
L 390.184395 190.897666 
L 392.591026 176.194948 
L 394.997658 184.613633 
L 397.404289 193.440061 
" style="fill:none;stroke:#dc3545;stroke-linecap:square;stroke-width:2;"/>
   </g>
  </g>
 </g>
 <defs>
  <clipPath id="pb0dbf4d592">
   <rect height="266.112" width="357.12" x="57.6" y="41.472"/>
  </clipPath>
 </defs>
</svg>
