<?xml version="1.0" encoding="utf-8" standalone="no"?>
<!DOCTYPE svg PUBLIC "-//W3C//DTD SVG 1.1//EN"
  "http://www.w3.org/Graphics/SVG/1.1/DTD/svg11.dtd">
<!-- Created with matplotlib (https://matplotlib.org/) -->
<svg height="345.6pt" version="1.1" viewBox="0 0 460.8 345.6" width="460.8pt" xmlns="http://www.w3.org/2000/svg" xmlns:xlink="http://www.w3.org/1999/xlink">
 <metadata>
  <rdf:RDF xmlns:cc="http://creativecommons.org/ns#" xmlns:dc="http://purl.org/dc/elements/1.1/" xmlns:rdf="http://www.w3.org/1999/02/22-rdf-syntax-ns#">
   <cc:Work>
    <dc:type rdf:resource="http://purl.org/dc/dcmitype/StillImage"/>
    <dc:date>2021-01-28T14:57:07.192112</dc:date>
    <dc:format>image/svg+xml</dc:format>
    <dc:creator>
     <cc:Agent>
      <dc:title>Matplotlib v3.3.3, https://matplotlib.org/</dc:title>
     </cc:Agent>
    </dc:creator>
   </cc:Work>
  </rdf:RDF>
 </metadata>
 <defs>
  <style type="text/css">*{stroke-linecap:butt;stroke-linejoin:round;}</style>
 </defs>
 <g id="figure_1">
  <g id="patch_1">
   <path d="M 0 345.6 
L 460.8 345.6 
L 460.8 0 
L 0 0 
z
" style="fill:none;"/>
  </g>
  <g id="axes_1">
   <g id="patch_2">
    <path clip-path="url(#pba82a26479)" d="M 73.832727 307.584 
L 80.488515 307.584 
L 80.488515 265.840941 
L 73.832727 265.840941 
z
" style="fill:#fa9ba4;opacity:0.2;"/>
   </g>
   <g id="patch_3">
    <path clip-path="url(#pba82a26479)" d="M 81.228047 307.584 
L 87.883835 307.584 
L 87.883835 265.840941 
L 81.228047 265.840941 
z
" style="fill:#fa9ba4;opacity:0.2;"/>
   </g>
   <g id="patch_4">
    <path clip-path="url(#pba82a26479)" d="M 88.623367 307.584 
L 95.279155 307.584 
L 95.279155 250.187294 
L 88.623367 250.187294 
z
" style="fill:#fa9ba4;opacity:0.2;"/>
   </g>
   <g id="patch_5">
    <path clip-path="url(#pba82a26479)" d="M 96.018687 307.584 
L 102.674475 307.584 
L 102.674475 276.276706 
L 96.018687 276.276706 
z
" style="fill:#fa9ba4;opacity:0.2;"/>
   </g>
   <g id="patch_6">
    <path clip-path="url(#pba82a26479)" d="M 103.414007 307.584 
L 110.069795 307.584 
L 110.069795 224.097882 
L 103.414007 224.097882 
z
" style="fill:#fa9ba4;opacity:0.2;"/>
   </g>
   <g id="patch_7">
    <path clip-path="url(#pba82a26479)" d="M 110.809327 307.584 
L 117.465115 307.584 
L 117.465115 276.276706 
L 110.809327 276.276706 
z
" style="fill:#fa9ba4;opacity:0.2;"/>
   </g>
   <g id="patch_8">
    <path clip-path="url(#pba82a26479)" d="M 118.204647 307.584 
L 124.860435 307.584 
L 124.860435 286.712471 
L 118.204647 286.712471 
z
" style="fill:#fa9ba4;opacity:0.2;"/>
   </g>
   <g id="patch_9">
    <path clip-path="url(#pba82a26479)" d="M 125.599967 307.584 
L 132.255755 307.584 
L 132.255755 250.187294 
L 125.599967 250.187294 
z
" style="fill:#fa9ba4;opacity:0.2;"/>
   </g>
   <g id="patch_10">
    <path clip-path="url(#pba82a26479)" d="M 132.995287 307.584 
L 139.651075 307.584 
L 139.651075 244.969412 
L 132.995287 244.969412 
z
" style="fill:#fa9ba4;opacity:0.2;"/>
   </g>
   <g id="patch_11">
    <path clip-path="url(#pba82a26479)" d="M 140.390607 307.584 
L 147.046395 307.584 
L 147.046395 213.662118 
L 140.390607 213.662118 
z
" style="fill:#fa9ba4;opacity:0.2;"/>
   </g>
   <g id="patch_12">
    <path clip-path="url(#pba82a26479)" d="M 147.785927 307.584 
L 154.441715 307.584 
L 154.441715 250.187294 
L 147.785927 250.187294 
z
" style="fill:#fa9ba4;opacity:0.2;"/>
   </g>
   <g id="patch_13">
    <path clip-path="url(#pba82a26479)" d="M 155.181247 307.584 
L 161.837035 307.584 
L 161.837035 182.354824 
L 155.181247 182.354824 
z
" style="fill:#fa9ba4;opacity:0.2;"/>
   </g>
   <g id="patch_14">
    <path clip-path="url(#pba82a26479)" d="M 162.576567 307.584 
L 169.232355 307.584 
L 169.232355 208.444235 
L 162.576567 208.444235 
z
" style="fill:#fa9ba4;opacity:0.2;"/>
   </g>
   <g id="patch_15">
    <path clip-path="url(#pba82a26479)" d="M 169.971887 307.584 
L 176.627674 307.584 
L 176.627674 156.265412 
L 169.971887 156.265412 
z
" style="fill:#fa9ba4;opacity:0.2;"/>
   </g>
   <g id="patch_16">
    <path clip-path="url(#pba82a26479)" d="M 177.367206 307.584 
L 184.022994 307.584 
L 184.022994 198.008471 
L 177.367206 198.008471 
z
" style="fill:#fa9ba4;opacity:0.2;"/>
   </g>
   <g id="patch_17">
    <path clip-path="url(#pba82a26479)" d="M 184.762526 307.584 
L 191.418314 307.584 
L 191.418314 177.136941 
L 184.762526 177.136941 
z
" style="fill:#fa9ba4;opacity:0.2;"/>
   </g>
   <g id="patch_18">
    <path clip-path="url(#pba82a26479)" d="M 192.157846 307.584 
L 198.813634 307.584 
L 198.813634 145.829647 
L 192.157846 145.829647 
z
" style="fill:#fa9ba4;opacity:0.2;"/>
   </g>
   <g id="patch_19">
    <path clip-path="url(#pba82a26479)" d="M 199.553166 307.584 
L 206.208954 307.584 
L 206.208954 171.919059 
L 199.553166 171.919059 
z
" style="fill:#fa9ba4;opacity:0.2;"/>
   </g>
   <g id="patch_20">
    <path clip-path="url(#pba82a26479)" d="M 206.948486 307.584 
L 213.604274 307.584 
L 213.604274 203.226353 
L 206.948486 203.226353 
z
" style="fill:#fa9ba4;opacity:0.2;"/>
   </g>
   <g id="patch_21">
    <path clip-path="url(#pba82a26479)" d="M 214.343806 307.584 
L 220.999594 307.584 
L 220.999594 187.572706 
L 214.343806 187.572706 
z
" style="fill:#fa9ba4;opacity:0.2;"/>
   </g>
   <g id="patch_22">
    <path clip-path="url(#pba82a26479)" d="M 221.739126 307.584 
L 228.394914 307.584 
L 228.394914 130.176 
L 221.739126 130.176 
z
" style="fill:#fa9ba4;opacity:0.2;"/>
   </g>
   <g id="patch_23">
    <path clip-path="url(#pba82a26479)" d="M 229.134446 307.584 
L 235.790234 307.584 
L 235.790234 203.226353 
L 229.134446 203.226353 
z
" style="fill:#fa9ba4;opacity:0.2;"/>
   </g>
   <g id="patch_24">
    <path clip-path="url(#pba82a26479)" d="M 236.529766 307.584 
L 243.185554 307.584 
L 243.185554 104.086588 
L 236.529766 104.086588 
z
" style="fill:#fa9ba4;opacity:0.2;"/>
   </g>
   <g id="patch_25">
    <path clip-path="url(#pba82a26479)" d="M 243.925086 307.584 
L 250.580874 307.584 
L 250.580874 41.472 
L 243.925086 41.472 
z
" style="fill:#fa9ba4;opacity:0.2;"/>
   </g>
   <g id="patch_26">
    <path clip-path="url(#pba82a26479)" d="M 251.320406 307.584 
L 257.976194 307.584 
L 257.976194 67.561412 
L 251.320406 67.561412 
z
" style="fill:#fa9ba4;opacity:0.2;"/>
   </g>
   <g id="patch_27">
    <path clip-path="url(#pba82a26479)" d="M 258.715726 307.584 
L 265.371514 307.584 
L 265.371514 119.740235 
L 258.715726 119.740235 
z
" style="fill:#fa9ba4;opacity:0.2;"/>
   </g>
   <g id="patch_28">
    <path clip-path="url(#pba82a26479)" d="M 266.111046 307.584 
L 272.766834 307.584 
L 272.766834 177.136941 
L 266.111046 177.136941 
z
" style="fill:#fa9ba4;opacity:0.2;"/>
   </g>
   <g id="patch_29">
    <path clip-path="url(#pba82a26479)" d="M 273.506366 307.584 
L 280.162154 307.584 
L 280.162154 67.561412 
L 273.506366 67.561412 
z
" style="fill:#fa9ba4;opacity:0.2;"/>
   </g>
   <g id="patch_30">
    <path clip-path="url(#pba82a26479)" d="M 280.901686 307.584 
L 287.557474 307.584 
L 287.557474 104.086588 
L 280.901686 104.086588 
z
" style="fill:#fa9ba4;opacity:0.2;"/>
   </g>
   <g id="patch_31">
    <path clip-path="url(#pba82a26479)" d="M 288.297006 307.584 
L 294.952794 307.584 
L 294.952794 161.483294 
L 288.297006 161.483294 
z
" style="fill:#fa9ba4;opacity:0.2;"/>
   </g>
   <g id="patch_32">
    <path clip-path="url(#pba82a26479)" d="M 295.692326 307.584 
L 302.348113 307.584 
L 302.348113 198.008471 
L 295.692326 198.008471 
z
" style="fill:#fa9ba4;opacity:0.2;"/>
   </g>
   <g id="patch_33">
    <path clip-path="url(#pba82a26479)" d="M 303.087645 307.584 
L 309.743433 307.584 
L 309.743433 119.740235 
L 303.087645 119.740235 
z
" style="fill:#fa9ba4;opacity:0.2;"/>
   </g>
   <g id="patch_34">
    <path clip-path="url(#pba82a26479)" d="M 310.482965 307.584 
L 317.138753 307.584 
L 317.138753 192.790588 
L 310.482965 192.790588 
z
" style="fill:#fa9ba4;opacity:0.2;"/>
   </g>
   <g id="patch_35">
    <path clip-path="url(#pba82a26479)" d="M 317.878285 307.584 
L 324.534073 307.584 
L 324.534073 224.097882 
L 317.878285 224.097882 
z
" style="fill:#fa9ba4;opacity:0.2;"/>
   </g>
   <g id="patch_36">
    <path clip-path="url(#pba82a26479)" d="M 325.273605 307.584 
L 331.929393 307.584 
L 331.929393 182.354824 
L 325.273605 182.354824 
z
" style="fill:#fa9ba4;opacity:0.2;"/>
   </g>
   <g id="patch_37">
    <path clip-path="url(#pba82a26479)" d="M 332.668925 307.584 
L 339.324713 307.584 
L 339.324713 192.790588 
L 332.668925 192.790588 
z
" style="fill:#fa9ba4;opacity:0.2;"/>
   </g>
   <g id="patch_38">
    <path clip-path="url(#pba82a26479)" d="M 340.064245 307.584 
L 346.720033 307.584 
L 346.720033 213.662118 
L 340.064245 213.662118 
z
" style="fill:#fa9ba4;opacity:0.2;"/>
   </g>
   <g id="patch_39">
    <path clip-path="url(#pba82a26479)" d="M 347.459565 307.584 
L 354.115353 307.584 
L 354.115353 187.572706 
L 347.459565 187.572706 
z
" style="fill:#fa9ba4;opacity:0.2;"/>
   </g>
   <g id="patch_40">
    <path clip-path="url(#pba82a26479)" d="M 354.854885 307.584 
L 361.510673 307.584 
L 361.510673 192.790588 
L 354.854885 192.790588 
z
" style="fill:#fa9ba4;opacity:0.2;"/>
   </g>
   <g id="patch_41">
    <path clip-path="url(#pba82a26479)" d="M 362.250205 307.584 
L 368.905993 307.584 
L 368.905993 234.533647 
L 362.250205 234.533647 
z
" style="fill:#fa9ba4;opacity:0.2;"/>
   </g>
   <g id="patch_42">
    <path clip-path="url(#pba82a26479)" d="M 369.645525 307.584 
L 376.301313 307.584 
L 376.301313 177.136941 
L 369.645525 177.136941 
z
" style="fill:#fa9ba4;opacity:0.2;"/>
   </g>
   <g id="patch_43">
    <path clip-path="url(#pba82a26479)" d="M 377.040845 307.584 
L 383.696633 307.584 
L 383.696633 307.584 
L 377.040845 307.584 
z
" style="fill:#fa9ba4;opacity:0.2;"/>
   </g>
   <g id="patch_44">
    <path clip-path="url(#pba82a26479)" d="M 384.436165 307.584 
L 391.091953 307.584 
L 391.091953 307.584 
L 384.436165 307.584 
z
" style="fill:#fa9ba4;opacity:0.2;"/>
   </g>
   <g id="patch_45">
    <path clip-path="url(#pba82a26479)" d="M 391.831485 307.584 
L 398.487273 307.584 
L 398.487273 307.584 
L 391.831485 307.584 
z
" style="fill:#fa9ba4;opacity:0.2;"/>
   </g>
   <g id="matplotlib.axis_1"/>
   <g id="matplotlib.axis_2"/>
   <g id="PolyCollection_1">
    <defs>
     <path d="M 299.02022 -217.660235 
L 299.02022 -38.016 
L 306.415539 -38.016 
L 313.810859 -38.016 
L 321.206179 -38.016 
L 328.601499 -38.016 
L 335.996819 -38.016 
L 343.392139 -38.016 
L 350.787459 -38.016 
L 358.182779 -38.016 
L 365.578099 -38.016 
L 372.973419 -38.016 
L 380.368739 -38.016 
L 387.764059 -38.016 
L 395.159379 -38.016 
L 395.159379 -100.630588 
L 395.159379 -100.630588 
L 387.764059 -114.048 
L 380.368739 -130.447059 
L 372.973419 -148.336941 
L 365.578099 -141.628235 
L 358.182779 -147.591529 
L 350.787459 -158.027294 
L 343.392139 -156.536471 
L 335.996819 -163.990588 
L 328.601499 -176.662588 
L 321.206179 -193.061647 
L 313.810859 -199.770353 
L 306.415539 -210.206118 
L 299.02022 -217.660235 
z
" id="maa001e10da" style="stroke:#dc3545;stroke-opacity:0.5;"/>
    </defs>
    <g clip-path="url(#pba82a26479)">
     <use style="fill:#dc3545;fill-opacity:0.5;stroke:#dc3545;stroke-opacity:0.5;" x="0" xlink:href="#maa001e10da" y="345.6"/>
    </g>
   </g>
   <g id="PolyCollection_2">
    <defs>
     <path d="M 121.532541 -81.995294 
L 121.532541 -38.016 
L 128.927861 -38.016 
L 136.323181 -38.016 
L 143.718501 -38.016 
L 151.113821 -38.016 
L 158.509141 -38.016 
L 165.904461 -38.016 
L 173.29978 -38.016 
L 180.6951 -38.016 
L 188.09042 -38.016 
L 195.48574 -38.016 
L 202.88106 -38.016 
L 210.27638 -38.016 
L 217.6717 -38.016 
L 225.06702 -38.016 
L 232.46234 -38.016 
L 239.85766 -38.016 
L 247.25298 -38.016 
L 254.6483 -38.016 
L 262.04362 -38.016 
L 269.43894 -38.016 
L 276.83426 -38.016 
L 284.22958 -38.016 
L 291.6249 -38.016 
L 299.02022 -38.016 
L 299.02022 -217.660235 
L 299.02022 -217.660235 
L 291.6249 -240.022588 
L 284.22958 -248.222118 
L 276.83426 -234.059294 
L 269.43894 -225.114353 
L 262.04362 -223.623529 
L 254.6483 -211.696941 
L 247.25298 -196.788706 
L 239.85766 -181.880471 
L 232.46234 -171.444706 
L 225.06702 -172.190118 
L 217.6717 -168.463059 
L 210.27638 -165.481412 
L 202.88106 -168.463059 
L 195.48574 -157.281882 
L 188.09042 -147.591529 
L 180.6951 -137.901176 
L 173.29978 -130.447059 
L 165.904461 -111.811765 
L 158.509141 -102.121412 
L 151.113821 -96.158118 
L 143.718501 -92.431059 
L 136.323181 -87.213176 
L 128.927861 -84.231529 
L 121.532541 -81.995294 
z
" id="m197f204400" style="stroke:#fa9ba4;stroke-opacity:0.3;"/>
    </defs>
    <g clip-path="url(#pba82a26479)">
     <use style="fill:#fa9ba4;fill-opacity:0.3;stroke:#fa9ba4;stroke-opacity:0.3;" x="0" xlink:href="#m197f204400" y="345.6"/>
    </g>
   </g>
   <g id="line2d_1">
    <path clip-path="url(#pba82a26479)" d="M 121.532541 263.604706 
L 128.927861 261.368471 
L 136.323181 258.386824 
L 143.718501 253.168941 
L 151.113821 249.441882 
L 158.509141 243.478588 
L 165.904461 233.788235 
L 173.29978 215.152941 
L 180.6951 207.698824 
L 188.09042 198.008471 
L 195.48574 188.318118 
L 202.88106 177.136941 
L 210.27638 180.118588 
L 217.6717 177.136941 
L 225.06702 173.409882 
L 232.46234 174.155294 
L 239.85766 163.719529 
L 247.25298 148.811294 
L 254.6483 133.903059 
L 262.04362 121.976471 
L 269.43894 120.485647 
L 276.83426 111.540706 
L 284.22958 97.377882 
L 291.6249 105.577412 
L 299.02022 127.939765 
L 306.415539 135.393882 
L 313.810859 145.829647 
L 321.206179 152.538353 
L 328.601499 168.937412 
L 335.996819 181.609412 
L 343.392139 189.063529 
L 350.787459 187.572706 
L 358.182779 198.008471 
L 365.578099 203.971765 
L 372.973419 197.263059 
L 380.368739 215.152941 
L 387.764059 231.552 
L 395.159379 244.969412 
" style="fill:none;stroke:#fa9ba4;stroke-linecap:square;stroke-width:2;"/>
   </g>
   <g id="line2d_2">
    <path clip-path="url(#pba82a26479)" d="M 299.02022 127.939765 
L 306.415539 135.393882 
L 313.810859 145.829647 
L 321.206179 152.538353 
L 328.601499 168.937412 
L 335.996819 181.609412 
L 343.392139 189.063529 
L 350.787459 187.572706 
L 358.182779 198.008471 
L 365.578099 203.971765 
L 372.973419 197.263059 
L 380.368739 215.152941 
L 387.764059 231.552 
L 395.159379 244.969412 
" style="fill:none;stroke:#dc3545;stroke-linecap:square;stroke-width:2;"/>
   </g>
  </g>
 </g>
 <defs>
  <clipPath id="pba82a26479">
   <rect height="266.112" width="357.12" x="57.6" y="41.472"/>
  </clipPath>
 </defs>
</svg>
