<?xml version="1.0" encoding="utf-8" standalone="no"?>
<!DOCTYPE svg PUBLIC "-//W3C//DTD SVG 1.1//EN"
  "http://www.w3.org/Graphics/SVG/1.1/DTD/svg11.dtd">
<svg height="345.6pt" version="1.1" viewBox="0 0 460.8 345.6" width="460.8pt" xmlns="http://www.w3.org/2000/svg" xmlns:xlink="http://www.w3.org/1999/xlink">
 <metadata>
  <rdf:RDF xmlns:cc="http://creativecommons.org/ns#" xmlns:dc="http://purl.org/dc/elements/1.1/" xmlns:rdf="http://www.w3.org/1999/02/22-rdf-syntax-ns#">
   <cc:Work>
    <dc:type rdf:resource="http://purl.org/dc/dcmitype/StillImage"/>
    <dc:date>2021-05-13T13:24:49.935579</dc:date>
    <dc:format>image/svg+xml</dc:format>
    <dc:creator>
     <cc:Agent>
      <dc:title>Matplotlib v3.4.2, https://matplotlib.org/</dc:title>
     </cc:Agent>
    </dc:creator>
   </cc:Work>
  </rdf:RDF>
 </metadata>
 <defs>
  <style type="text/css">*{stroke-linecap:butt;stroke-linejoin:round;}</style>
 </defs>
 <g id="figure_1">
  <g id="patch_1">
   <path d="M 0 345.6 
L 460.8 345.6 
L 460.8 0 
L 0 0 
z
" style="fill:none;"/>
  </g>
  <g id="axes_1">
   <g id="patch_2">
    <path clip-path="url(#p3c12e71fb9)" d="M 73.832727 307.584 
L 75.795045 307.584 
L 75.795045 306.240848 
L 73.832727 306.240848 
z
" style="fill:#fa9ba4;opacity:0.2;"/>
   </g>
   <g id="patch_3">
    <path clip-path="url(#p3c12e71fb9)" d="M 76.01308 307.584 
L 77.975398 307.584 
L 77.975398 306.240848 
L 76.01308 306.240848 
z
" style="fill:#fa9ba4;opacity:0.2;"/>
   </g>
   <g id="patch_4">
    <path clip-path="url(#p3c12e71fb9)" d="M 78.193433 307.584 
L 80.155751 307.584 
L 80.155751 305.737166 
L 78.193433 305.737166 
z
" style="fill:#fa9ba4;opacity:0.2;"/>
   </g>
   <g id="patch_5">
    <path clip-path="url(#p3c12e71fb9)" d="M 80.373786 307.584 
L 82.336104 307.584 
L 82.336104 306.576636 
L 80.373786 306.576636 
z
" style="fill:#fa9ba4;opacity:0.2;"/>
   </g>
   <g id="patch_6">
    <path clip-path="url(#p3c12e71fb9)" d="M 82.554139 307.584 
L 84.516456 307.584 
L 84.516456 304.897696 
L 82.554139 304.897696 
z
" style="fill:#fa9ba4;opacity:0.2;"/>
   </g>
   <g id="patch_7">
    <path clip-path="url(#p3c12e71fb9)" d="M 84.734492 307.584 
L 86.696809 307.584 
L 86.696809 306.576636 
L 84.734492 306.576636 
z
" style="fill:#fa9ba4;opacity:0.2;"/>
   </g>
   <g id="patch_8">
    <path clip-path="url(#p3c12e71fb9)" d="M 86.914845 307.584 
L 88.877162 307.584 
L 88.877162 306.912424 
L 86.914845 306.912424 
z
" style="fill:#fa9ba4;opacity:0.2;"/>
   </g>
   <g id="patch_9">
    <path clip-path="url(#p3c12e71fb9)" d="M 89.095198 307.584 
L 91.057515 307.584 
L 91.057515 305.737166 
L 89.095198 305.737166 
z
" style="fill:#fa9ba4;opacity:0.2;"/>
   </g>
   <g id="patch_10">
    <path clip-path="url(#p3c12e71fb9)" d="M 91.27555 307.584 
L 93.237868 307.584 
L 93.237868 305.569272 
L 91.27555 305.569272 
z
" style="fill:#fa9ba4;opacity:0.2;"/>
   </g>
   <g id="patch_11">
    <path clip-path="url(#p3c12e71fb9)" d="M 93.455903 307.584 
L 95.418221 307.584 
L 95.418221 304.561908 
L 93.455903 304.561908 
z
" style="fill:#fa9ba4;opacity:0.2;"/>
   </g>
   <g id="patch_12">
    <path clip-path="url(#p3c12e71fb9)" d="M 95.636256 307.584 
L 97.598574 307.584 
L 97.598574 305.737166 
L 95.636256 305.737166 
z
" style="fill:#fa9ba4;opacity:0.2;"/>
   </g>
   <g id="patch_13">
    <path clip-path="url(#p3c12e71fb9)" d="M 97.816609 307.584 
L 99.778927 307.584 
L 99.778927 303.554544 
L 97.816609 303.554544 
z
" style="fill:#fa9ba4;opacity:0.2;"/>
   </g>
   <g id="patch_14">
    <path clip-path="url(#p3c12e71fb9)" d="M 99.996962 307.584 
L 101.95928 307.584 
L 101.95928 304.394014 
L 99.996962 304.394014 
z
" style="fill:#fa9ba4;opacity:0.2;"/>
   </g>
   <g id="patch_15">
    <path clip-path="url(#p3c12e71fb9)" d="M 102.177315 307.584 
L 104.139632 307.584 
L 104.139632 302.715074 
L 102.177315 302.715074 
z
" style="fill:#fa9ba4;opacity:0.2;"/>
   </g>
   <g id="patch_16">
    <path clip-path="url(#p3c12e71fb9)" d="M 104.357668 307.584 
L 106.319985 307.584 
L 106.319985 304.058226 
L 104.357668 304.058226 
z
" style="fill:#fa9ba4;opacity:0.2;"/>
   </g>
   <g id="patch_17">
    <path clip-path="url(#p3c12e71fb9)" d="M 106.538021 307.584 
L 108.500338 307.584 
L 108.500338 303.38665 
L 106.538021 303.38665 
z
" style="fill:#fa9ba4;opacity:0.2;"/>
   </g>
   <g id="patch_18">
    <path clip-path="url(#p3c12e71fb9)" d="M 108.718374 307.584 
L 110.680691 307.584 
L 110.680691 302.379286 
L 108.718374 302.379286 
z
" style="fill:#fa9ba4;opacity:0.2;"/>
   </g>
   <g id="patch_19">
    <path clip-path="url(#p3c12e71fb9)" d="M 110.898726 307.584 
L 112.861044 307.584 
L 112.861044 303.218756 
L 110.898726 303.218756 
z
" style="fill:#fa9ba4;opacity:0.2;"/>
   </g>
   <g id="patch_20">
    <path clip-path="url(#p3c12e71fb9)" d="M 113.079079 307.584 
L 115.041397 307.584 
L 115.041397 304.22612 
L 113.079079 304.22612 
z
" style="fill:#fa9ba4;opacity:0.2;"/>
   </g>
   <g id="patch_21">
    <path clip-path="url(#p3c12e71fb9)" d="M 115.259432 307.584 
L 117.22175 307.584 
L 117.22175 303.722438 
L 115.259432 303.722438 
z
" style="fill:#fa9ba4;opacity:0.2;"/>
   </g>
   <g id="patch_22">
    <path clip-path="url(#p3c12e71fb9)" d="M 117.439785 307.584 
L 119.402103 307.584 
L 119.402103 301.875604 
L 117.439785 301.875604 
z
" style="fill:#fa9ba4;opacity:0.2;"/>
   </g>
   <g id="patch_23">
    <path clip-path="url(#p3c12e71fb9)" d="M 119.620138 307.584 
L 121.582456 307.584 
L 121.582456 304.22612 
L 119.620138 304.22612 
z
" style="fill:#fa9ba4;opacity:0.2;"/>
   </g>
   <g id="patch_24">
    <path clip-path="url(#p3c12e71fb9)" d="M 121.800491 307.584 
L 123.762808 307.584 
L 123.762808 301.036134 
L 121.800491 301.036134 
z
" style="fill:#fa9ba4;opacity:0.2;"/>
   </g>
   <g id="patch_25">
    <path clip-path="url(#p3c12e71fb9)" d="M 123.980844 307.584 
L 125.943161 307.584 
L 125.943161 299.021406 
L 123.980844 299.021406 
z
" style="fill:#fa9ba4;opacity:0.2;"/>
   </g>
   <g id="patch_26">
    <path clip-path="url(#p3c12e71fb9)" d="M 126.161197 307.584 
L 128.123514 307.584 
L 128.123514 299.860876 
L 126.161197 299.860876 
z
" style="fill:#fa9ba4;opacity:0.2;"/>
   </g>
   <g id="patch_27">
    <path clip-path="url(#p3c12e71fb9)" d="M 128.34155 307.584 
L 130.303867 307.584 
L 130.303867 301.539816 
L 128.34155 301.539816 
z
" style="fill:#fa9ba4;opacity:0.2;"/>
   </g>
   <g id="patch_28">
    <path clip-path="url(#p3c12e71fb9)" d="M 130.521902 307.584 
L 132.48422 307.584 
L 132.48422 303.38665 
L 130.521902 303.38665 
z
" style="fill:#fa9ba4;opacity:0.2;"/>
   </g>
   <g id="patch_29">
    <path clip-path="url(#p3c12e71fb9)" d="M 132.702255 307.584 
L 134.664573 307.584 
L 134.664573 299.860876 
L 132.702255 299.860876 
z
" style="fill:#fa9ba4;opacity:0.2;"/>
   </g>
   <g id="patch_30">
    <path clip-path="url(#p3c12e71fb9)" d="M 134.882608 307.584 
L 136.844926 307.584 
L 136.844926 301.036134 
L 134.882608 301.036134 
z
" style="fill:#fa9ba4;opacity:0.2;"/>
   </g>
   <g id="patch_31">
    <path clip-path="url(#p3c12e71fb9)" d="M 137.062961 307.584 
L 139.025279 307.584 
L 139.025279 302.882968 
L 137.062961 302.882968 
z
" style="fill:#fa9ba4;opacity:0.2;"/>
   </g>
   <g id="patch_32">
    <path clip-path="url(#p3c12e71fb9)" d="M 139.243314 307.584 
L 141.205632 307.584 
L 141.205632 304.058226 
L 139.243314 304.058226 
z
" style="fill:#fa9ba4;opacity:0.2;"/>
   </g>
   <g id="patch_33">
    <path clip-path="url(#p3c12e71fb9)" d="M 141.423667 307.584 
L 143.385984 307.584 
L 143.385984 301.539816 
L 141.423667 301.539816 
z
" style="fill:#fa9ba4;opacity:0.2;"/>
   </g>
   <g id="patch_34">
    <path clip-path="url(#p3c12e71fb9)" d="M 143.60402 307.584 
L 145.566337 307.584 
L 145.566337 303.890332 
L 143.60402 303.890332 
z
" style="fill:#fa9ba4;opacity:0.2;"/>
   </g>
   <g id="patch_35">
    <path clip-path="url(#p3c12e71fb9)" d="M 145.784373 307.584 
L 147.74669 307.584 
L 147.74669 304.897696 
L 145.784373 304.897696 
z
" style="fill:#fa9ba4;opacity:0.2;"/>
   </g>
   <g id="patch_36">
    <path clip-path="url(#p3c12e71fb9)" d="M 147.964726 307.584 
L 149.927043 307.584 
L 149.927043 303.554544 
L 147.964726 303.554544 
z
" style="fill:#fa9ba4;opacity:0.2;"/>
   </g>
   <g id="patch_37">
    <path clip-path="url(#p3c12e71fb9)" d="M 150.145078 307.584 
L 152.107396 307.584 
L 152.107396 304.058226 
L 150.145078 304.058226 
z
" style="fill:#fa9ba4;opacity:0.2;"/>
   </g>
   <g id="patch_38">
    <path clip-path="url(#p3c12e71fb9)" d="M 152.325431 307.584 
L 154.287749 307.584 
L 154.287749 304.561908 
L 152.325431 304.561908 
z
" style="fill:#fa9ba4;opacity:0.2;"/>
   </g>
   <g id="patch_39">
    <path clip-path="url(#p3c12e71fb9)" d="M 154.505784 307.584 
L 156.468102 307.584 
L 156.468102 303.722438 
L 154.505784 303.722438 
z
" style="fill:#fa9ba4;opacity:0.2;"/>
   </g>
   <g id="patch_40">
    <path clip-path="url(#p3c12e71fb9)" d="M 156.686137 307.584 
L 158.648455 307.584 
L 158.648455 303.890332 
L 156.686137 303.890332 
z
" style="fill:#fa9ba4;opacity:0.2;"/>
   </g>
   <g id="patch_41">
    <path clip-path="url(#p3c12e71fb9)" d="M 158.86649 307.584 
L 160.828808 307.584 
L 160.828808 305.233484 
L 158.86649 305.233484 
z
" style="fill:#fa9ba4;opacity:0.2;"/>
   </g>
   <g id="patch_42">
    <path clip-path="url(#p3c12e71fb9)" d="M 161.046843 307.584 
L 163.009161 307.584 
L 163.009161 303.38665 
L 161.046843 303.38665 
z
" style="fill:#fa9ba4;opacity:0.2;"/>
   </g>
   <g id="patch_43">
    <path clip-path="url(#p3c12e71fb9)" d="M 163.227196 307.584 
L 165.189513 307.584 
L 165.189513 303.218756 
L 163.227196 303.218756 
z
" style="fill:#fa9ba4;opacity:0.2;"/>
   </g>
   <g id="patch_44">
    <path clip-path="url(#p3c12e71fb9)" d="M 165.407549 307.584 
L 167.369866 307.584 
L 167.369866 301.875604 
L 165.407549 301.875604 
z
" style="fill:#fa9ba4;opacity:0.2;"/>
   </g>
   <g id="patch_45">
    <path clip-path="url(#p3c12e71fb9)" d="M 167.587902 307.584 
L 169.550219 307.584 
L 169.550219 305.569272 
L 167.587902 305.569272 
z
" style="fill:#fa9ba4;opacity:0.2;"/>
   </g>
   <g id="patch_46">
    <path clip-path="url(#p3c12e71fb9)" d="M 169.768254 307.584 
L 171.730572 307.584 
L 171.730572 305.233484 
L 169.768254 305.233484 
z
" style="fill:#fa9ba4;opacity:0.2;"/>
   </g>
   <g id="patch_47">
    <path clip-path="url(#p3c12e71fb9)" d="M 171.948607 307.584 
L 173.910925 307.584 
L 173.910925 303.722438 
L 171.948607 303.722438 
z
" style="fill:#fa9ba4;opacity:0.2;"/>
   </g>
   <g id="patch_48">
    <path clip-path="url(#p3c12e71fb9)" d="M 174.12896 307.584 
L 176.091278 307.584 
L 176.091278 305.401378 
L 174.12896 305.401378 
z
" style="fill:#fa9ba4;opacity:0.2;"/>
   </g>
   <g id="patch_49">
    <path clip-path="url(#p3c12e71fb9)" d="M 176.309313 307.584 
L 178.271631 307.584 
L 178.271631 306.240848 
L 176.309313 306.240848 
z
" style="fill:#fa9ba4;opacity:0.2;"/>
   </g>
   <g id="patch_50">
    <path clip-path="url(#p3c12e71fb9)" d="M 178.489666 307.584 
L 180.451984 307.584 
L 180.451984 305.401378 
L 178.489666 305.401378 
z
" style="fill:#fa9ba4;opacity:0.2;"/>
   </g>
   <g id="patch_51">
    <path clip-path="url(#p3c12e71fb9)" d="M 180.670019 307.584 
L 182.632337 307.584 
L 182.632337 301.539816 
L 180.670019 301.539816 
z
" style="fill:#fa9ba4;opacity:0.2;"/>
   </g>
   <g id="patch_52">
    <path clip-path="url(#p3c12e71fb9)" d="M 182.850372 307.584 
L 184.812689 307.584 
L 184.812689 305.737166 
L 182.850372 305.737166 
z
" style="fill:#fa9ba4;opacity:0.2;"/>
   </g>
   <g id="patch_53">
    <path clip-path="url(#p3c12e71fb9)" d="M 185.030725 307.584 
L 186.993042 307.584 
L 186.993042 306.408742 
L 185.030725 306.408742 
z
" style="fill:#fa9ba4;opacity:0.2;"/>
   </g>
   <g id="patch_54">
    <path clip-path="url(#p3c12e71fb9)" d="M 187.211078 307.584 
L 189.173395 307.584 
L 189.173395 304.394014 
L 187.211078 304.394014 
z
" style="fill:#fa9ba4;opacity:0.2;"/>
   </g>
   <g id="patch_55">
    <path clip-path="url(#p3c12e71fb9)" d="M 189.39143 307.584 
L 191.353748 307.584 
L 191.353748 303.218756 
L 189.39143 303.218756 
z
" style="fill:#fa9ba4;opacity:0.2;"/>
   </g>
   <g id="patch_56">
    <path clip-path="url(#p3c12e71fb9)" d="M 191.571783 307.584 
L 193.534101 307.584 
L 193.534101 303.38665 
L 191.571783 303.38665 
z
" style="fill:#fa9ba4;opacity:0.2;"/>
   </g>
   <g id="patch_57">
    <path clip-path="url(#p3c12e71fb9)" d="M 193.752136 307.584 
L 195.714454 307.584 
L 195.714454 306.240848 
L 193.752136 306.240848 
z
" style="fill:#fa9ba4;opacity:0.2;"/>
   </g>
   <g id="patch_58">
    <path clip-path="url(#p3c12e71fb9)" d="M 195.932489 307.584 
L 197.894807 307.584 
L 197.894807 305.06559 
L 195.932489 305.06559 
z
" style="fill:#fa9ba4;opacity:0.2;"/>
   </g>
   <g id="patch_59">
    <path clip-path="url(#p3c12e71fb9)" d="M 198.112842 307.584 
L 200.07516 307.584 
L 200.07516 305.569272 
L 198.112842 305.569272 
z
" style="fill:#fa9ba4;opacity:0.2;"/>
   </g>
   <g id="patch_60">
    <path clip-path="url(#p3c12e71fb9)" d="M 200.293195 307.584 
L 202.255513 307.584 
L 202.255513 303.722438 
L 200.293195 303.722438 
z
" style="fill:#fa9ba4;opacity:0.2;"/>
   </g>
   <g id="patch_61">
    <path clip-path="url(#p3c12e71fb9)" d="M 202.473548 307.584 
L 204.435865 307.584 
L 204.435865 305.06559 
L 202.473548 305.06559 
z
" style="fill:#fa9ba4;opacity:0.2;"/>
   </g>
   <g id="patch_62">
    <path clip-path="url(#p3c12e71fb9)" d="M 204.653901 307.584 
L 206.616218 307.584 
L 206.616218 305.233484 
L 204.653901 305.233484 
z
" style="fill:#fa9ba4;opacity:0.2;"/>
   </g>
   <g id="patch_63">
    <path clip-path="url(#p3c12e71fb9)" d="M 206.834254 307.584 
L 208.796571 307.584 
L 208.796571 304.22612 
L 206.834254 304.22612 
z
" style="fill:#fa9ba4;opacity:0.2;"/>
   </g>
   <g id="patch_64">
    <path clip-path="url(#p3c12e71fb9)" d="M 209.014607 307.584 
L 210.976924 307.584 
L 210.976924 306.072954 
L 209.014607 306.072954 
z
" style="fill:#fa9ba4;opacity:0.2;"/>
   </g>
   <g id="patch_65">
    <path clip-path="url(#p3c12e71fb9)" d="M 211.194959 307.584 
L 213.157277 307.584 
L 213.157277 307.080318 
L 211.194959 307.080318 
z
" style="fill:#fa9ba4;opacity:0.2;"/>
   </g>
   <g id="patch_66">
    <path clip-path="url(#p3c12e71fb9)" d="M 213.375312 307.584 
L 215.33763 307.584 
L 215.33763 306.240848 
L 213.375312 306.240848 
z
" style="fill:#fa9ba4;opacity:0.2;"/>
   </g>
   <g id="patch_67">
    <path clip-path="url(#p3c12e71fb9)" d="M 215.555665 307.584 
L 217.517983 307.584 
L 217.517983 306.408742 
L 215.555665 306.408742 
z
" style="fill:#fa9ba4;opacity:0.2;"/>
   </g>
   <g id="patch_68">
    <path clip-path="url(#p3c12e71fb9)" d="M 217.736018 307.584 
L 219.698336 307.584 
L 219.698336 305.06559 
L 217.736018 305.06559 
z
" style="fill:#fa9ba4;opacity:0.2;"/>
   </g>
   <g id="patch_69">
    <path clip-path="url(#p3c12e71fb9)" d="M 219.916371 307.584 
L 221.878689 307.584 
L 221.878689 305.06559 
L 219.916371 305.06559 
z
" style="fill:#fa9ba4;opacity:0.2;"/>
   </g>
   <g id="patch_70">
    <path clip-path="url(#p3c12e71fb9)" d="M 222.096724 307.584 
L 224.059041 307.584 
L 224.059041 306.240848 
L 222.096724 306.240848 
z
" style="fill:#fa9ba4;opacity:0.2;"/>
   </g>
   <g id="patch_71">
    <path clip-path="url(#p3c12e71fb9)" d="M 224.277077 307.584 
L 226.239394 307.584 
L 226.239394 306.576636 
L 224.277077 306.576636 
z
" style="fill:#fa9ba4;opacity:0.2;"/>
   </g>
   <g id="patch_72">
    <path clip-path="url(#p3c12e71fb9)" d="M 226.45743 307.584 
L 228.419747 307.584 
L 228.419747 306.912424 
L 226.45743 306.912424 
z
" style="fill:#fa9ba4;opacity:0.2;"/>
   </g>
   <g id="patch_73">
    <path clip-path="url(#p3c12e71fb9)" d="M 228.637783 307.584 
L 230.6001 307.584 
L 230.6001 305.90506 
L 228.637783 305.90506 
z
" style="fill:#fa9ba4;opacity:0.2;"/>
   </g>
   <g id="patch_74">
    <path clip-path="url(#p3c12e71fb9)" d="M 230.818135 307.584 
L 232.780453 307.584 
L 232.780453 305.737166 
L 230.818135 305.737166 
z
" style="fill:#fa9ba4;opacity:0.2;"/>
   </g>
   <g id="patch_75">
    <path clip-path="url(#p3c12e71fb9)" d="M 232.998488 307.584 
L 234.960806 307.584 
L 234.960806 306.072954 
L 232.998488 306.072954 
z
" style="fill:#fa9ba4;opacity:0.2;"/>
   </g>
   <g id="patch_76">
    <path clip-path="url(#p3c12e71fb9)" d="M 235.178841 307.584 
L 237.141159 307.584 
L 237.141159 306.072954 
L 235.178841 306.072954 
z
" style="fill:#fa9ba4;opacity:0.2;"/>
   </g>
   <g id="patch_77">
    <path clip-path="url(#p3c12e71fb9)" d="M 237.359194 307.584 
L 239.321512 307.584 
L 239.321512 306.912424 
L 237.359194 306.912424 
z
" style="fill:#fa9ba4;opacity:0.2;"/>
   </g>
   <g id="patch_78">
    <path clip-path="url(#p3c12e71fb9)" d="M 239.539547 307.584 
L 241.501865 307.584 
L 241.501865 306.240848 
L 239.539547 306.240848 
z
" style="fill:#fa9ba4;opacity:0.2;"/>
   </g>
   <g id="patch_79">
    <path clip-path="url(#p3c12e71fb9)" d="M 241.7199 307.584 
L 243.682217 307.584 
L 243.682217 307.080318 
L 241.7199 307.080318 
z
" style="fill:#fa9ba4;opacity:0.2;"/>
   </g>
   <g id="patch_80">
    <path clip-path="url(#p3c12e71fb9)" d="M 243.900253 307.584 
L 245.86257 307.584 
L 245.86257 306.912424 
L 243.900253 306.912424 
z
" style="fill:#fa9ba4;opacity:0.2;"/>
   </g>
   <g id="patch_81">
    <path clip-path="url(#p3c12e71fb9)" d="M 246.080606 307.584 
L 248.042923 307.584 
L 248.042923 306.408742 
L 246.080606 306.408742 
z
" style="fill:#fa9ba4;opacity:0.2;"/>
   </g>
   <g id="patch_82">
    <path clip-path="url(#p3c12e71fb9)" d="M 248.260959 307.584 
L 250.223276 307.584 
L 250.223276 305.569272 
L 248.260959 305.569272 
z
" style="fill:#fa9ba4;opacity:0.2;"/>
   </g>
   <g id="patch_83">
    <path clip-path="url(#p3c12e71fb9)" d="M 250.441311 307.584 
L 252.403629 307.584 
L 252.403629 305.233484 
L 250.441311 305.233484 
z
" style="fill:#fa9ba4;opacity:0.2;"/>
   </g>
   <g id="patch_84">
    <path clip-path="url(#p3c12e71fb9)" d="M 252.621664 307.584 
L 254.583982 307.584 
L 254.583982 306.912424 
L 252.621664 306.912424 
z
" style="fill:#fa9ba4;opacity:0.2;"/>
   </g>
   <g id="patch_85">
    <path clip-path="url(#p3c12e71fb9)" d="M 254.802017 307.584 
L 256.764335 307.584 
L 256.764335 306.576636 
L 254.802017 306.576636 
z
" style="fill:#fa9ba4;opacity:0.2;"/>
   </g>
   <g id="patch_86">
    <path clip-path="url(#p3c12e71fb9)" d="M 256.98237 307.584 
L 258.944688 307.584 
L 258.944688 305.569272 
L 256.98237 305.569272 
z
" style="fill:#fa9ba4;opacity:0.2;"/>
   </g>
   <g id="patch_87">
    <path clip-path="url(#p3c12e71fb9)" d="M 259.162723 307.584 
L 261.125041 307.584 
L 261.125041 306.74453 
L 259.162723 306.74453 
z
" style="fill:#fa9ba4;opacity:0.2;"/>
   </g>
   <g id="patch_88">
    <path clip-path="url(#p3c12e71fb9)" d="M 261.343076 307.584 
L 263.305393 307.584 
L 263.305393 305.233484 
L 261.343076 305.233484 
z
" style="fill:#fa9ba4;opacity:0.2;"/>
   </g>
   <g id="patch_89">
    <path clip-path="url(#p3c12e71fb9)" d="M 263.523429 307.584 
L 265.485746 307.584 
L 265.485746 306.072954 
L 263.523429 306.072954 
z
" style="fill:#fa9ba4;opacity:0.2;"/>
   </g>
   <g id="patch_90">
    <path clip-path="url(#p3c12e71fb9)" d="M 265.703782 307.584 
L 267.666099 307.584 
L 267.666099 304.058226 
L 265.703782 304.058226 
z
" style="fill:#fa9ba4;opacity:0.2;"/>
   </g>
   <g id="patch_91">
    <path clip-path="url(#p3c12e71fb9)" d="M 267.884135 307.584 
L 269.846452 307.584 
L 269.846452 291.298281 
L 267.884135 291.298281 
z
" style="fill:#fa9ba4;opacity:0.2;"/>
   </g>
   <g id="patch_92">
    <path clip-path="url(#p3c12e71fb9)" d="M 270.064487 307.584 
L 272.026805 307.584 
L 272.026805 303.38665 
L 270.064487 303.38665 
z
" style="fill:#fa9ba4;opacity:0.2;"/>
   </g>
   <g id="patch_93">
    <path clip-path="url(#p3c12e71fb9)" d="M 272.24484 307.584 
L 274.207158 307.584 
L 274.207158 290.123023 
L 272.24484 290.123023 
z
" style="fill:#fa9ba4;opacity:0.2;"/>
   </g>
   <g id="patch_94">
    <path clip-path="url(#p3c12e71fb9)" d="M 274.425193 307.584 
L 276.387511 307.584 
L 276.387511 278.706231 
L 274.425193 278.706231 
z
" style="fill:#fa9ba4;opacity:0.2;"/>
   </g>
   <g id="patch_95">
    <path clip-path="url(#p3c12e71fb9)" d="M 276.605546 307.584 
L 278.567864 307.584 
L 278.567864 302.211392 
L 276.605546 302.211392 
z
" style="fill:#fa9ba4;opacity:0.2;"/>
   </g>
   <g id="patch_96">
    <path clip-path="url(#p3c12e71fb9)" d="M 278.785899 307.584 
L 280.748217 307.584 
L 280.748217 303.890332 
L 278.785899 303.890332 
z
" style="fill:#fa9ba4;opacity:0.2;"/>
   </g>
   <g id="patch_97">
    <path clip-path="url(#p3c12e71fb9)" d="M 280.966252 307.584 
L 282.92857 307.584 
L 282.92857 300.700346 
L 280.966252 300.700346 
z
" style="fill:#fa9ba4;opacity:0.2;"/>
   </g>
   <g id="patch_98">
    <path clip-path="url(#p3c12e71fb9)" d="M 283.146605 307.584 
L 285.108922 307.584 
L 285.108922 303.554544 
L 283.146605 303.554544 
z
" style="fill:#fa9ba4;opacity:0.2;"/>
   </g>
   <g id="patch_99">
    <path clip-path="url(#p3c12e71fb9)" d="M 285.326958 307.584 
L 287.289275 307.584 
L 287.289275 303.722438 
L 285.326958 303.722438 
z
" style="fill:#fa9ba4;opacity:0.2;"/>
   </g>
   <g id="patch_100">
    <path clip-path="url(#p3c12e71fb9)" d="M 287.507311 307.584 
L 289.469628 307.584 
L 289.469628 246.470582 
L 287.507311 246.470582 
z
" style="fill:#fa9ba4;opacity:0.2;"/>
   </g>
   <g id="patch_101">
    <path clip-path="url(#p3c12e71fb9)" d="M 289.687663 307.584 
L 291.649981 307.584 
L 291.649981 299.692982 
L 289.687663 299.692982 
z
" style="fill:#fa9ba4;opacity:0.2;"/>
   </g>
   <g id="patch_102">
    <path clip-path="url(#p3c12e71fb9)" d="M 291.868016 307.584 
L 293.830334 307.584 
L 293.830334 295.999314 
L 291.868016 295.999314 
z
" style="fill:#fa9ba4;opacity:0.2;"/>
   </g>
   <g id="patch_103">
    <path clip-path="url(#p3c12e71fb9)" d="M 294.048369 307.584 
L 296.010687 307.584 
L 296.010687 290.794599 
L 294.048369 290.794599 
z
" style="fill:#fa9ba4;opacity:0.2;"/>
   </g>
   <g id="patch_104">
    <path clip-path="url(#p3c12e71fb9)" d="M 296.228722 307.584 
L 298.19104 307.584 
L 298.19104 298.853512 
L 296.228722 298.853512 
z
" style="fill:#fa9ba4;opacity:0.2;"/>
   </g>
   <g id="patch_105">
    <path clip-path="url(#p3c12e71fb9)" d="M 298.409075 307.584 
L 300.371393 307.584 
L 300.371393 300.86824 
L 298.409075 300.86824 
z
" style="fill:#fa9ba4;opacity:0.2;"/>
   </g>
   <g id="patch_106">
    <path clip-path="url(#p3c12e71fb9)" d="M 300.589428 307.584 
L 302.551746 307.584 
L 302.551746 304.729802 
L 300.589428 304.729802 
z
" style="fill:#fa9ba4;opacity:0.2;"/>
   </g>
   <g id="patch_107">
    <path clip-path="url(#p3c12e71fb9)" d="M 302.769781 307.584 
L 304.732098 307.584 
L 304.732098 303.38665 
L 302.769781 303.38665 
z
" style="fill:#fa9ba4;opacity:0.2;"/>
   </g>
   <g id="patch_108">
    <path clip-path="url(#p3c12e71fb9)" d="M 304.950134 307.584 
L 306.912451 307.584 
L 306.912451 304.394014 
L 304.950134 304.394014 
z
" style="fill:#fa9ba4;opacity:0.2;"/>
   </g>
   <g id="patch_109">
    <path clip-path="url(#p3c12e71fb9)" d="M 307.130487 307.584 
L 309.092804 307.584 
L 309.092804 305.737166 
L 307.130487 305.737166 
z
" style="fill:#fa9ba4;opacity:0.2;"/>
   </g>
   <g id="patch_110">
    <path clip-path="url(#p3c12e71fb9)" d="M 309.310839 307.584 
L 311.273157 307.584 
L 311.273157 303.554544 
L 309.310839 303.554544 
z
" style="fill:#fa9ba4;opacity:0.2;"/>
   </g>
   <g id="patch_111">
    <path clip-path="url(#p3c12e71fb9)" d="M 311.491192 307.584 
L 313.45351 307.584 
L 313.45351 300.700346 
L 311.491192 300.700346 
z
" style="fill:#fa9ba4;opacity:0.2;"/>
   </g>
   <g id="patch_112">
    <path clip-path="url(#p3c12e71fb9)" d="M 313.671545 307.584 
L 315.633863 307.584 
L 315.633863 300.700346 
L 313.671545 300.700346 
z
" style="fill:#fa9ba4;opacity:0.2;"/>
   </g>
   <g id="patch_113">
    <path clip-path="url(#p3c12e71fb9)" d="M 315.851898 307.584 
L 317.814216 307.584 
L 317.814216 298.34983 
L 315.851898 298.34983 
z
" style="fill:#fa9ba4;opacity:0.2;"/>
   </g>
   <g id="patch_114">
    <path clip-path="url(#p3c12e71fb9)" d="M 318.032251 307.584 
L 319.994569 307.584 
L 319.994569 281.224641 
L 318.032251 281.224641 
z
" style="fill:#fa9ba4;opacity:0.2;"/>
   </g>
   <g id="patch_115">
    <path clip-path="url(#p3c12e71fb9)" d="M 320.212604 307.584 
L 322.174922 307.584 
L 322.174922 270.479425 
L 320.212604 270.479425 
z
" style="fill:#fa9ba4;opacity:0.2;"/>
   </g>
   <g id="patch_116">
    <path clip-path="url(#p3c12e71fb9)" d="M 322.392957 307.584 
L 324.355274 307.584 
L 324.355274 290.123023 
L 322.392957 290.123023 
z
" style="fill:#fa9ba4;opacity:0.2;"/>
   </g>
   <g id="patch_117">
    <path clip-path="url(#p3c12e71fb9)" d="M 324.57331 307.584 
L 326.535627 307.584 
L 326.535627 261.91683 
L 324.57331 261.91683 
z
" style="fill:#fa9ba4;opacity:0.2;"/>
   </g>
   <g id="patch_118">
    <path clip-path="url(#p3c12e71fb9)" d="M 326.753663 307.584 
L 328.71598 307.584 
L 328.71598 276.019927 
L 326.753663 276.019927 
z
" style="fill:#fa9ba4;opacity:0.2;"/>
   </g>
   <g id="patch_119">
    <path clip-path="url(#p3c12e71fb9)" d="M 328.934016 307.584 
L 330.896333 307.584 
L 330.896333 267.961015 
L 328.934016 267.961015 
z
" style="fill:#fa9ba4;opacity:0.2;"/>
   </g>
   <g id="patch_120">
    <path clip-path="url(#p3c12e71fb9)" d="M 331.114368 307.584 
L 333.076686 307.584 
L 333.076686 283.743051 
L 331.114368 283.743051 
z
" style="fill:#fa9ba4;opacity:0.2;"/>
   </g>
   <g id="patch_121">
    <path clip-path="url(#p3c12e71fb9)" d="M 333.294721 307.584 
L 335.257039 307.584 
L 335.257039 274.844669 
L 333.294721 274.844669 
z
" style="fill:#fa9ba4;opacity:0.2;"/>
   </g>
   <g id="patch_122">
    <path clip-path="url(#p3c12e71fb9)" d="M 335.475074 307.584 
L 337.437392 307.584 
L 337.437392 247.477946 
L 335.475074 247.477946 
z
" style="fill:#fa9ba4;opacity:0.2;"/>
   </g>
   <g id="patch_123">
    <path clip-path="url(#p3c12e71fb9)" d="M 337.655427 307.584 
L 339.617745 307.584 
L 339.617745 238.243775 
L 337.655427 238.243775 
z
" style="fill:#fa9ba4;opacity:0.2;"/>
   </g>
   <g id="patch_124">
    <path clip-path="url(#p3c12e71fb9)" d="M 339.83578 307.584 
L 341.798098 307.584 
L 341.798098 254.865282 
L 339.83578 254.865282 
z
" style="fill:#fa9ba4;opacity:0.2;"/>
   </g>
   <g id="patch_125">
    <path clip-path="url(#p3c12e71fb9)" d="M 342.016133 307.584 
L 343.97845 307.584 
L 343.97845 260.741572 
L 342.016133 260.741572 
z
" style="fill:#fa9ba4;opacity:0.2;"/>
   </g>
   <g id="patch_126">
    <path clip-path="url(#p3c12e71fb9)" d="M 344.196486 307.584 
L 346.158803 307.584 
L 346.158803 248.988992 
L 344.196486 248.988992 
z
" style="fill:#fa9ba4;opacity:0.2;"/>
   </g>
   <g id="patch_127">
    <path clip-path="url(#p3c12e71fb9)" d="M 346.376839 307.584 
L 348.339156 307.584 
L 348.339156 258.055268 
L 346.376839 258.055268 
z
" style="fill:#fa9ba4;opacity:0.2;"/>
   </g>
   <g id="patch_128">
    <path clip-path="url(#p3c12e71fb9)" d="M 348.557192 307.584 
L 350.519509 307.584 
L 350.519509 248.653204 
L 348.557192 248.653204 
z
" style="fill:#fa9ba4;opacity:0.2;"/>
   </g>
   <g id="patch_129">
    <path clip-path="url(#p3c12e71fb9)" d="M 350.737544 307.584 
L 352.699862 307.584 
L 352.699862 245.799006 
L 350.737544 245.799006 
z
" style="fill:#fa9ba4;opacity:0.2;"/>
   </g>
   <g id="patch_130">
    <path clip-path="url(#p3c12e71fb9)" d="M 352.917897 307.584 
L 354.880215 307.584 
L 354.880215 232.703273 
L 352.917897 232.703273 
z
" style="fill:#fa9ba4;opacity:0.2;"/>
   </g>
   <g id="patch_131">
    <path clip-path="url(#p3c12e71fb9)" d="M 355.09825 307.584 
L 357.060568 307.584 
L 357.060568 183.174541 
L 355.09825 183.174541 
z
" style="fill:#fa9ba4;opacity:0.2;"/>
   </g>
   <g id="patch_132">
    <path clip-path="url(#p3c12e71fb9)" d="M 357.278603 307.584 
L 359.240921 307.584 
L 359.240921 41.472 
L 357.278603 41.472 
z
" style="fill:#fa9ba4;opacity:0.2;"/>
   </g>
   <g id="patch_133">
    <path clip-path="url(#p3c12e71fb9)" d="M 359.458956 307.584 
L 361.421274 307.584 
L 361.421274 126.426367 
L 359.458956 126.426367 
z
" style="fill:#fa9ba4;opacity:0.2;"/>
   </g>
   <g id="patch_134">
    <path clip-path="url(#p3c12e71fb9)" d="M 361.639309 307.584 
L 363.601626 307.584 
L 363.601626 155.136242 
L 361.639309 155.136242 
z
" style="fill:#fa9ba4;opacity:0.2;"/>
   </g>
   <g id="patch_135">
    <path clip-path="url(#p3c12e71fb9)" d="M 363.819662 307.584 
L 365.781979 307.584 
L 365.781979 140.697358 
L 363.819662 140.697358 
z
" style="fill:#fa9ba4;opacity:0.2;"/>
   </g>
   <g id="patch_136">
    <path clip-path="url(#p3c12e71fb9)" d="M 366.000015 307.584 
L 367.962332 307.584 
L 367.962332 167.560399 
L 366.000015 167.560399 
z
" style="fill:#fa9ba4;opacity:0.2;"/>
   </g>
   <g id="patch_137">
    <path clip-path="url(#p3c12e71fb9)" d="M 368.180368 307.584 
L 370.142685 307.584 
L 370.142685 191.233454 
L 368.180368 191.233454 
z
" style="fill:#fa9ba4;opacity:0.2;"/>
   </g>
   <g id="patch_138">
    <path clip-path="url(#p3c12e71fb9)" d="M 370.36072 307.584 
L 372.323038 307.584 
L 372.323038 237.068517 
L 370.36072 237.068517 
z
" style="fill:#fa9ba4;opacity:0.2;"/>
   </g>
   <g id="patch_139">
    <path clip-path="url(#p3c12e71fb9)" d="M 372.541073 307.584 
L 374.503391 307.584 
L 374.503391 182.838753 
L 372.541073 182.838753 
z
" style="fill:#fa9ba4;opacity:0.2;"/>
   </g>
   <g id="patch_140">
    <path clip-path="url(#p3c12e71fb9)" d="M 374.721426 307.584 
L 376.683744 307.584 
L 376.683744 216.249661 
L 374.721426 216.249661 
z
" style="fill:#fa9ba4;opacity:0.2;"/>
   </g>
   <g id="patch_141">
    <path clip-path="url(#p3c12e71fb9)" d="M 376.901779 307.584 
L 378.864097 307.584 
L 378.864097 194.255546 
L 376.901779 194.255546 
z
" style="fill:#fa9ba4;opacity:0.2;"/>
   </g>
   <g id="patch_142">
    <path clip-path="url(#p3c12e71fb9)" d="M 379.082132 307.584 
L 381.04445 307.584 
L 381.04445 212.555992 
L 379.082132 212.555992 
z
" style="fill:#fa9ba4;opacity:0.2;"/>
   </g>
   <g id="patch_143">
    <path clip-path="url(#p3c12e71fb9)" d="M 381.262485 307.584 
L 383.224802 307.584 
L 383.224802 174.779841 
L 381.262485 174.779841 
z
" style="fill:#fa9ba4;opacity:0.2;"/>
   </g>
   <g id="patch_144">
    <path clip-path="url(#p3c12e71fb9)" d="M 383.442838 307.584 
L 385.405155 307.584 
L 385.405155 183.342435 
L 383.442838 183.342435 
z
" style="fill:#fa9ba4;opacity:0.2;"/>
   </g>
   <g id="patch_145">
    <path clip-path="url(#p3c12e71fb9)" d="M 385.623191 307.584 
L 387.585508 307.584 
L 387.585508 161.684109 
L 385.623191 161.684109 
z
" style="fill:#fa9ba4;opacity:0.2;"/>
   </g>
   <g id="patch_146">
    <path clip-path="url(#p3c12e71fb9)" d="M 387.803544 307.584 
L 389.765861 307.584 
L 389.765861 120.214289 
L 387.803544 120.214289 
z
" style="fill:#fa9ba4;opacity:0.2;"/>
   </g>
   <g id="patch_147">
    <path clip-path="url(#p3c12e71fb9)" d="M 389.983896 307.584 
L 391.946214 307.584 
L 391.946214 142.544192 
L 389.983896 142.544192 
z
" style="fill:#fa9ba4;opacity:0.2;"/>
   </g>
   <g id="patch_148">
    <path clip-path="url(#p3c12e71fb9)" d="M 392.164249 307.584 
L 394.126567 307.584 
L 394.126567 212.05231 
L 392.164249 212.05231 
z
" style="fill:#fa9ba4;opacity:0.2;"/>
   </g>
   <g id="patch_149">
    <path clip-path="url(#p3c12e71fb9)" d="M 394.344602 307.584 
L 396.30692 307.584 
L 396.30692 162.859367 
L 394.344602 162.859367 
z
" style="fill:#fa9ba4;opacity:0.2;"/>
   </g>
   <g id="patch_150">
    <path clip-path="url(#p3c12e71fb9)" d="M 396.524955 307.584 
L 398.487273 307.584 
L 398.487273 143.047874 
L 396.524955 143.047874 
z
" style="fill:#fa9ba4;opacity:0.2;"/>
   </g>
   <g id="matplotlib.axis_1"/>
   <g id="matplotlib.axis_2"/>
   <g id="PolyCollection_1">
    <defs>
     <path d="M 369.161526 -201.92852 
L 369.161526 -38.016 
L 371.341879 -38.016 
L 373.522232 -38.016 
L 375.702585 -38.016 
L 377.882938 -38.016 
L 380.063291 -38.016 
L 382.243644 -38.016 
L 384.423997 -38.016 
L 386.604349 -38.016 
L 388.784702 -38.016 
L 390.965055 -38.016 
L 393.145408 -38.016 
L 395.325761 -38.016 
L 397.506114 -38.016 
L 397.506114 -184.779346 
L 397.506114 -184.779346 
L 395.325761 -180.246208 
L 393.145408 -173.14669 
L 390.965055 -175.689085 
L 388.784702 -165.159732 
L 386.604349 -156.21338 
L 384.423997 -145.444179 
L 382.243644 -144.316891 
L 380.063291 -145.34824 
L 377.882938 -155.613759 
L 375.702585 -161.202231 
L 373.522232 -174.03413 
L 371.341879 -194.22938 
L 369.161526 -201.92852 
z
" id="m481ffae9df" style="stroke:#dc3545;stroke-opacity:0.5;"/>
    </defs>
    <g clip-path="url(#p3c12e71fb9)">
     <use style="fill:#dc3545;fill-opacity:0.5;stroke:#dc3545;stroke-opacity:0.5;" x="0" xlink:href="#m481ffae9df" y="345.6"/>
    </g>
   </g>
   <g id="PolyCollection_2">
    <defs>
     <path d="M 87.896003 -39.431107 
L 87.896003 -38.016 
L 90.076356 -38.016 
L 92.256709 -38.016 
L 94.437062 -38.016 
L 96.617415 -38.016 
L 98.797768 -38.016 
L 100.978121 -38.016 
L 103.158474 -38.016 
L 105.338827 -38.016 
L 107.519179 -38.016 
L 109.699532 -38.016 
L 111.879885 -38.016 
L 114.060238 -38.016 
L 116.240591 -38.016 
L 118.420944 -38.016 
L 120.601297 -38.016 
L 122.78165 -38.016 
L 124.962003 -38.016 
L 127.142355 -38.016 
L 129.322708 -38.016 
L 131.503061 -38.016 
L 133.683414 -38.016 
L 135.863767 -38.016 
L 138.04412 -38.016 
L 140.224473 -38.016 
L 142.404826 -38.016 
L 144.585179 -38.016 
L 146.765531 -38.016 
L 148.945884 -38.016 
L 151.126237 -38.016 
L 153.30659 -38.016 
L 155.486943 -38.016 
L 157.667296 -38.016 
L 159.847649 -38.016 
L 162.028002 -38.016 
L 164.208355 -38.016 
L 166.388707 -38.016 
L 168.56906 -38.016 
L 170.749413 -38.016 
L 172.929766 -38.016 
L 175.110119 -38.016 
L 177.290472 -38.016 
L 179.470825 -38.016 
L 181.651178 -38.016 
L 183.831531 -38.016 
L 186.011884 -38.016 
L 188.192236 -38.016 
L 190.372589 -38.016 
L 192.552942 -38.016 
L 194.733295 -38.016 
L 196.913648 -38.016 
L 199.094001 -38.016 
L 201.274354 -38.016 
L 203.454707 -38.016 
L 205.63506 -38.016 
L 207.815412 -38.016 
L 209.995765 -38.016 
L 212.176118 -38.016 
L 214.356471 -38.016 
L 216.536824 -38.016 
L 218.717177 -38.016 
L 220.89753 -38.016 
L 223.077883 -38.016 
L 225.258236 -38.016 
L 227.438588 -38.016 
L 229.618941 -38.016 
L 231.799294 -38.016 
L 233.979647 -38.016 
L 236.16 -38.016 
L 238.340353 -38.016 
L 240.520706 -38.016 
L 242.701059 -38.016 
L 244.881412 -38.016 
L 247.061764 -38.016 
L 249.242117 -38.016 
L 251.42247 -38.016 
L 253.602823 -38.016 
L 255.783176 -38.016 
L 257.963529 -38.016 
L 260.143882 -38.016 
L 262.324235 -38.016 
L 264.504588 -38.016 
L 266.68494 -38.016 
L 268.865293 -38.016 
L 271.045646 -38.016 
L 273.225999 -38.016 
L 275.406352 -38.016 
L 277.586705 -38.016 
L 279.767058 -38.016 
L 281.947411 -38.016 
L 284.127764 -38.016 
L 286.308116 -38.016 
L 288.488469 -38.016 
L 290.668822 -38.016 
L 292.849175 -38.016 
L 295.029528 -38.016 
L 297.209881 -38.016 
L 299.390234 -38.016 
L 301.570587 -38.016 
L 303.75094 -38.016 
L 305.931293 -38.016 
L 308.111645 -38.016 
L 310.291998 -38.016 
L 312.472351 -38.016 
L 314.652704 -38.016 
L 316.833057 -38.016 
L 319.01341 -38.016 
L 321.193763 -38.016 
L 323.374116 -38.016 
L 325.554469 -38.016 
L 327.734821 -38.016 
L 329.915174 -38.016 
L 332.095527 -38.016 
L 334.27588 -38.016 
L 336.456233 -38.016 
L 338.636586 -38.016 
L 340.816939 -38.016 
L 342.997292 -38.016 
L 345.177645 -38.016 
L 347.357997 -38.016 
L 349.53835 -38.016 
L 351.718703 -38.016 
L 353.899056 -38.016 
L 356.079409 -38.016 
L 358.259762 -38.016 
L 360.440115 -38.016 
L 362.620468 -38.016 
L 364.800821 -38.016 
L 366.981173 -38.016 
L 369.161526 -38.016 
L 369.161526 -201.92852 
L 369.161526 -201.92852 
L 366.981173 -196.00426 
L 364.800821 -184.827316 
L 362.620468 -169.405052 
L 360.440115 -154.702334 
L 358.259762 -137.193388 
L 356.079409 -105.869163 
L 353.899056 -95.627629 
L 351.718703 -94.836129 
L 349.53835 -94.59628 
L 347.357997 -90.854642 
L 345.177645 -87.184959 
L 342.997292 -84.47467 
L 340.816939 -82.292048 
L 338.636586 -81.284684 
L 336.456233 -73.873363 
L 334.27588 -70.587437 
L 332.095527 -69.676013 
L 329.915174 -67.58933 
L 327.734821 -62.912283 
L 325.554469 -59.386509 
L 323.374116 -53.438264 
L 321.193763 -51.207672 
L 319.01341 -46.362731 
L 316.833057 -43.196729 
L 314.652704 -42.285305 
L 312.472351 -42.26132 
L 310.291998 -42.525153 
L 308.111645 -44.348003 
L 305.931293 -45.739124 
L 303.75094 -46.4107 
L 301.570587 -54.541567 
L 299.390234 -54.685476 
L 297.209881 -54.301719 
L 295.029528 -54.037885 
L 292.849175 -52.167066 
L 290.668822 -51.279626 
L 288.488469 -54.277734 
L 286.308116 -48.041671 
L 284.127764 -48.08964 
L 281.947411 -49.840535 
L 279.767058 -49.360838 
L 277.586705 -49.049035 
L 275.406352 -48.617307 
L 273.225999 -44.611836 
L 271.045646 -42.405229 
L 268.865293 -41.949517 
L 266.68494 -39.718925 
L 264.504588 -39.551031 
L 262.324235 -39.622985 
L 260.143882 -39.455091 
L 257.963529 -39.431107 
L 255.783176 -39.215243 
L 253.602823 -39.263213 
L 251.42247 -39.263213 
L 249.242117 -39.143288 
L 247.061764 -39.071334 
L 244.881412 -39.167273 
L 242.701059 -39.311182 
L 240.520706 -39.335167 
L 238.340353 -39.287197 
L 236.16 -39.383137 
L 233.979647 -39.527046 
L 231.799294 -39.670955 
L 229.618941 -39.575016 
L 227.438588 -39.527046 
L 225.258236 -39.503061 
L 223.077883 -39.575016 
L 220.89753 -39.862834 
L 218.717177 -39.838849 
L 216.536824 -39.838849 
L 214.356471 -40.222607 
L 212.176118 -40.318546 
L 209.995765 -40.606365 
L 207.815412 -40.58238 
L 205.63506 -40.702304 
L 203.454707 -40.990122 
L 201.274354 -41.086062 
L 199.094001 -40.702304 
L 196.913648 -40.678319 
L 194.733295 -41.182001 
L 192.552942 -41.301926 
L 190.372589 -40.894183 
L 188.192236 -40.58238 
L 186.011884 -40.678319 
L 183.831531 -40.846213 
L 181.651178 -40.870198 
L 179.470825 -40.822228 
L 177.290472 -41.134032 
L 175.110119 -41.541774 
L 172.929766 -41.565759 
L 170.749413 -41.541774 
L 168.56906 -41.757638 
L 166.388707 -41.901547 
L 164.208355 -41.589744 
L 162.028002 -41.541774 
L 159.847649 -41.32591 
L 157.667296 -41.517789 
L 155.486943 -41.853577 
L 153.30659 -41.805608 
L 151.126237 -42.045456 
L 148.945884 -42.477184 
L 146.765531 -43.00485 
L 144.585179 -43.220714 
L 142.404826 -43.556502 
L 140.224473 -43.796351 
L 138.04412 -44.515897 
L 135.863767 -44.77973 
L 133.683414 -44.324018 
L 131.503061 -44.036199 
L 129.322708 -43.98823 
L 127.142355 -43.604472 
L 124.962003 -43.124775 
L 122.78165 -42.645078 
L 120.601297 -42.30929 
L 118.420944 -42.333274 
L 116.240591 -42.21335 
L 114.060238 -42.117411 
L 111.879885 -42.21335 
L 109.699532 -41.853577 
L 107.519179 -41.541774 
L 105.338827 -41.229971 
L 103.158474 -40.990122 
L 100.978121 -40.390501 
L 98.797768 -40.078698 
L 96.617415 -39.886819 
L 94.437062 -39.766895 
L 92.256709 -39.599001 
L 90.076356 -39.503061 
L 87.896003 -39.431107 
z
" id="mcc9e66dd09" style="stroke:#fa9ba4;stroke-opacity:0.3;"/>
    </defs>
    <g clip-path="url(#p3c12e71fb9)">
     <use style="fill:#fa9ba4;fill-opacity:0.3;stroke:#fa9ba4;stroke-opacity:0.3;" x="0" xlink:href="#mcc9e66dd09" y="345.6"/>
    </g>
   </g>
   <g id="line2d_1">
    <path clip-path="url(#p3c12e71fb9)" d="M 87.896003 306.168893 
L 92.256709 306.000999 
L 98.797768 305.521302 
L 100.978121 305.209499 
L 103.158474 304.609878 
L 107.519179 304.058226 
L 111.879885 303.38665 
L 114.060238 303.482589 
L 120.601297 303.29071 
L 122.78165 302.954922 
L 129.322708 301.61177 
L 131.503061 301.563801 
L 133.683414 301.275982 
L 135.863767 300.82027 
L 138.04412 301.084103 
L 140.224473 301.803649 
L 146.765531 302.59515 
L 151.126237 303.554544 
L 153.30659 303.794392 
L 155.486943 303.746423 
L 157.667296 304.082211 
L 159.847649 304.27409 
L 162.028002 304.058226 
L 164.208355 304.010256 
L 166.388707 303.698453 
L 172.929766 304.034241 
L 175.110119 304.058226 
L 179.470825 304.777772 
L 183.831531 304.753787 
L 188.192236 305.01762 
L 192.552942 304.298074 
L 194.733295 304.417999 
L 196.913648 304.921681 
L 199.094001 304.897696 
L 201.274354 304.513938 
L 203.454707 304.609878 
L 205.63506 304.897696 
L 207.815412 305.01762 
L 209.995765 304.993635 
L 212.176118 305.281454 
L 214.356471 305.377393 
L 216.536824 305.761151 
L 220.89753 305.737166 
L 223.077883 306.024984 
L 227.438588 306.072954 
L 231.799294 305.929045 
L 238.340353 306.312803 
L 242.701059 306.288818 
L 247.061764 306.528666 
L 253.602823 306.336787 
L 255.783176 306.384757 
L 257.963529 306.168893 
L 260.143882 306.144909 
L 262.324235 305.977015 
L 264.504588 306.048969 
L 266.68494 305.881075 
L 268.865293 303.650483 
L 271.045646 303.194771 
L 273.225999 300.988164 
L 275.406352 296.982693 
L 277.586705 296.550965 
L 279.767058 296.239162 
L 281.947411 295.759465 
L 284.127764 297.51036 
L 286.308116 297.558329 
L 288.488469 291.322266 
L 290.668822 294.320374 
L 292.849175 293.432934 
L 295.029528 291.562115 
L 297.209881 291.298281 
L 299.390234 290.914524 
L 301.570587 291.058433 
L 303.75094 299.1893 
L 305.931293 299.860876 
L 308.111645 301.251997 
L 310.291998 303.074847 
L 312.472351 303.33868 
L 314.652704 303.314695 
L 316.833057 302.403271 
L 319.01341 299.237269 
L 321.193763 294.392328 
L 323.374116 292.161736 
L 325.554469 286.213491 
L 327.734821 282.687717 
L 329.915174 278.01067 
L 332.095527 275.923987 
L 334.27588 275.012563 
L 336.456233 271.726637 
L 338.636586 264.315316 
L 340.816939 263.307952 
L 342.997292 261.12533 
L 345.177645 258.415041 
L 349.53835 251.00372 
L 351.718703 250.763871 
L 353.899056 249.972371 
L 356.079409 239.730837 
L 358.259762 208.406612 
L 360.440115 190.897666 
L 364.800821 160.772684 
L 366.981173 149.59574 
L 369.161526 143.67148 
L 371.341879 151.37062 
L 373.522232 171.56587 
L 375.702585 184.397769 
L 377.882938 189.986241 
L 380.063291 200.25176 
L 382.243644 201.283109 
L 384.423997 200.155821 
L 386.604349 189.38662 
L 388.784702 180.440268 
L 390.965055 169.910915 
L 393.145408 172.45331 
L 395.325761 165.353792 
L 397.506114 160.820654 
L 397.506114 160.820654 
" style="fill:none;stroke:#fa9ba4;stroke-linecap:square;stroke-width:2;"/>
   </g>
   <g id="line2d_2">
    <path clip-path="url(#p3c12e71fb9)" d="M 369.161526 143.67148 
L 371.341879 151.37062 
L 373.522232 171.56587 
L 375.702585 184.397769 
L 377.882938 189.986241 
L 380.063291 200.25176 
L 382.243644 201.283109 
L 384.423997 200.155821 
L 386.604349 189.38662 
L 388.784702 180.440268 
L 390.965055 169.910915 
L 393.145408 172.45331 
L 395.325761 165.353792 
L 397.506114 160.820654 
" style="fill:none;stroke:#dc3545;stroke-linecap:square;stroke-width:2;"/>
   </g>
  </g>
 </g>
 <defs>
  <clipPath id="p3c12e71fb9">
   <rect height="266.112" width="357.12" x="57.6" y="41.472"/>
  </clipPath>
 </defs>
</svg>
