<?xml version="1.0" encoding="utf-8" standalone="no"?>
<!DOCTYPE svg PUBLIC "-//W3C//DTD SVG 1.1//EN"
  "http://www.w3.org/Graphics/SVG/1.1/DTD/svg11.dtd">
<!-- Created with matplotlib (https://matplotlib.org/) -->
<svg height="345.6pt" version="1.1" viewBox="0 0 460.8 345.6" width="460.8pt" xmlns="http://www.w3.org/2000/svg" xmlns:xlink="http://www.w3.org/1999/xlink">
 <metadata>
  <rdf:RDF xmlns:cc="http://creativecommons.org/ns#" xmlns:dc="http://purl.org/dc/elements/1.1/" xmlns:rdf="http://www.w3.org/1999/02/22-rdf-syntax-ns#">
   <cc:Work>
    <dc:type rdf:resource="http://purl.org/dc/dcmitype/StillImage"/>
    <dc:date>2021-01-29T13:02:12.592809</dc:date>
    <dc:format>image/svg+xml</dc:format>
    <dc:creator>
     <cc:Agent>
      <dc:title>Matplotlib v3.3.4, https://matplotlib.org/</dc:title>
     </cc:Agent>
    </dc:creator>
   </cc:Work>
  </rdf:RDF>
 </metadata>
 <defs>
  <style type="text/css">*{stroke-linecap:butt;stroke-linejoin:round;}</style>
 </defs>
 <g id="figure_1">
  <g id="patch_1">
   <path d="M 0 345.6 
L 460.8 345.6 
L 460.8 0 
L 0 0 
z
" style="fill:none;"/>
  </g>
  <g id="axes_1">
   <g id="patch_2">
    <path clip-path="url(#pf7f4bb5186)" d="M 73.832727 307.584 
L 80.340279 307.584 
L 80.340279 265.840941 
L 73.832727 265.840941 
z
" style="fill:#fa9ba4;opacity:0.2;"/>
   </g>
   <g id="patch_3">
    <path clip-path="url(#pf7f4bb5186)" d="M 81.063341 307.584 
L 87.570893 307.584 
L 87.570893 265.840941 
L 81.063341 265.840941 
z
" style="fill:#fa9ba4;opacity:0.2;"/>
   </g>
   <g id="patch_4">
    <path clip-path="url(#pf7f4bb5186)" d="M 88.293954 307.584 
L 94.801506 307.584 
L 94.801506 250.187294 
L 88.293954 250.187294 
z
" style="fill:#fa9ba4;opacity:0.2;"/>
   </g>
   <g id="patch_5">
    <path clip-path="url(#pf7f4bb5186)" d="M 95.524568 307.584 
L 102.03212 307.584 
L 102.03212 276.276706 
L 95.524568 276.276706 
z
" style="fill:#fa9ba4;opacity:0.2;"/>
   </g>
   <g id="patch_6">
    <path clip-path="url(#pf7f4bb5186)" d="M 102.755181 307.584 
L 109.262733 307.584 
L 109.262733 224.097882 
L 102.755181 224.097882 
z
" style="fill:#fa9ba4;opacity:0.2;"/>
   </g>
   <g id="patch_7">
    <path clip-path="url(#pf7f4bb5186)" d="M 109.985795 307.584 
L 116.493347 307.584 
L 116.493347 276.276706 
L 109.985795 276.276706 
z
" style="fill:#fa9ba4;opacity:0.2;"/>
   </g>
   <g id="patch_8">
    <path clip-path="url(#pf7f4bb5186)" d="M 117.216408 307.584 
L 123.72396 307.584 
L 123.72396 286.712471 
L 117.216408 286.712471 
z
" style="fill:#fa9ba4;opacity:0.2;"/>
   </g>
   <g id="patch_9">
    <path clip-path="url(#pf7f4bb5186)" d="M 124.447022 307.584 
L 130.954574 307.584 
L 130.954574 250.187294 
L 124.447022 250.187294 
z
" style="fill:#fa9ba4;opacity:0.2;"/>
   </g>
   <g id="patch_10">
    <path clip-path="url(#pf7f4bb5186)" d="M 131.677635 307.584 
L 138.185187 307.584 
L 138.185187 244.969412 
L 131.677635 244.969412 
z
" style="fill:#fa9ba4;opacity:0.2;"/>
   </g>
   <g id="patch_11">
    <path clip-path="url(#pf7f4bb5186)" d="M 138.908249 307.584 
L 145.415801 307.584 
L 145.415801 213.662118 
L 138.908249 213.662118 
z
" style="fill:#fa9ba4;opacity:0.2;"/>
   </g>
   <g id="patch_12">
    <path clip-path="url(#pf7f4bb5186)" d="M 146.138862 307.584 
L 152.646414 307.584 
L 152.646414 250.187294 
L 146.138862 250.187294 
z
" style="fill:#fa9ba4;opacity:0.2;"/>
   </g>
   <g id="patch_13">
    <path clip-path="url(#pf7f4bb5186)" d="M 153.369476 307.584 
L 159.877028 307.584 
L 159.877028 182.354824 
L 153.369476 182.354824 
z
" style="fill:#fa9ba4;opacity:0.2;"/>
   </g>
   <g id="patch_14">
    <path clip-path="url(#pf7f4bb5186)" d="M 160.600089 307.584 
L 167.107641 307.584 
L 167.107641 208.444235 
L 160.600089 208.444235 
z
" style="fill:#fa9ba4;opacity:0.2;"/>
   </g>
   <g id="patch_15">
    <path clip-path="url(#pf7f4bb5186)" d="M 167.830703 307.584 
L 174.338255 307.584 
L 174.338255 156.265412 
L 167.830703 156.265412 
z
" style="fill:#fa9ba4;opacity:0.2;"/>
   </g>
   <g id="patch_16">
    <path clip-path="url(#pf7f4bb5186)" d="M 175.061316 307.584 
L 181.568868 307.584 
L 181.568868 198.008471 
L 175.061316 198.008471 
z
" style="fill:#fa9ba4;opacity:0.2;"/>
   </g>
   <g id="patch_17">
    <path clip-path="url(#pf7f4bb5186)" d="M 182.29193 307.584 
L 188.799482 307.584 
L 188.799482 177.136941 
L 182.29193 177.136941 
z
" style="fill:#fa9ba4;opacity:0.2;"/>
   </g>
   <g id="patch_18">
    <path clip-path="url(#pf7f4bb5186)" d="M 189.522543 307.584 
L 196.030095 307.584 
L 196.030095 145.829647 
L 189.522543 145.829647 
z
" style="fill:#fa9ba4;opacity:0.2;"/>
   </g>
   <g id="patch_19">
    <path clip-path="url(#pf7f4bb5186)" d="M 196.753157 307.584 
L 203.260709 307.584 
L 203.260709 171.919059 
L 196.753157 171.919059 
z
" style="fill:#fa9ba4;opacity:0.2;"/>
   </g>
   <g id="patch_20">
    <path clip-path="url(#pf7f4bb5186)" d="M 203.98377 307.584 
L 210.491322 307.584 
L 210.491322 203.226353 
L 203.98377 203.226353 
z
" style="fill:#fa9ba4;opacity:0.2;"/>
   </g>
   <g id="patch_21">
    <path clip-path="url(#pf7f4bb5186)" d="M 211.214383 307.584 
L 217.721936 307.584 
L 217.721936 187.572706 
L 211.214383 187.572706 
z
" style="fill:#fa9ba4;opacity:0.2;"/>
   </g>
   <g id="patch_22">
    <path clip-path="url(#pf7f4bb5186)" d="M 218.444997 307.584 
L 224.952549 307.584 
L 224.952549 130.176 
L 218.444997 130.176 
z
" style="fill:#fa9ba4;opacity:0.2;"/>
   </g>
   <g id="patch_23">
    <path clip-path="url(#pf7f4bb5186)" d="M 225.67561 307.584 
L 232.183163 307.584 
L 232.183163 203.226353 
L 225.67561 203.226353 
z
" style="fill:#fa9ba4;opacity:0.2;"/>
   </g>
   <g id="patch_24">
    <path clip-path="url(#pf7f4bb5186)" d="M 232.906224 307.584 
L 239.413776 307.584 
L 239.413776 104.086588 
L 232.906224 104.086588 
z
" style="fill:#fa9ba4;opacity:0.2;"/>
   </g>
   <g id="patch_25">
    <path clip-path="url(#pf7f4bb5186)" d="M 240.136837 307.584 
L 246.64439 307.584 
L 246.64439 41.472 
L 240.136837 41.472 
z
" style="fill:#fa9ba4;opacity:0.2;"/>
   </g>
   <g id="patch_26">
    <path clip-path="url(#pf7f4bb5186)" d="M 247.367451 307.584 
L 253.875003 307.584 
L 253.875003 67.561412 
L 247.367451 67.561412 
z
" style="fill:#fa9ba4;opacity:0.2;"/>
   </g>
   <g id="patch_27">
    <path clip-path="url(#pf7f4bb5186)" d="M 254.598064 307.584 
L 261.105617 307.584 
L 261.105617 119.740235 
L 254.598064 119.740235 
z
" style="fill:#fa9ba4;opacity:0.2;"/>
   </g>
   <g id="patch_28">
    <path clip-path="url(#pf7f4bb5186)" d="M 261.828678 307.584 
L 268.33623 307.584 
L 268.33623 177.136941 
L 261.828678 177.136941 
z
" style="fill:#fa9ba4;opacity:0.2;"/>
   </g>
   <g id="patch_29">
    <path clip-path="url(#pf7f4bb5186)" d="M 269.059291 307.584 
L 275.566843 307.584 
L 275.566843 67.561412 
L 269.059291 67.561412 
z
" style="fill:#fa9ba4;opacity:0.2;"/>
   </g>
   <g id="patch_30">
    <path clip-path="url(#pf7f4bb5186)" d="M 276.289905 307.584 
L 282.797457 307.584 
L 282.797457 104.086588 
L 276.289905 104.086588 
z
" style="fill:#fa9ba4;opacity:0.2;"/>
   </g>
   <g id="patch_31">
    <path clip-path="url(#pf7f4bb5186)" d="M 283.520518 307.584 
L 290.02807 307.584 
L 290.02807 161.483294 
L 283.520518 161.483294 
z
" style="fill:#fa9ba4;opacity:0.2;"/>
   </g>
   <g id="patch_32">
    <path clip-path="url(#pf7f4bb5186)" d="M 290.751132 307.584 
L 297.258684 307.584 
L 297.258684 198.008471 
L 290.751132 198.008471 
z
" style="fill:#fa9ba4;opacity:0.2;"/>
   </g>
   <g id="patch_33">
    <path clip-path="url(#pf7f4bb5186)" d="M 297.981745 307.584 
L 304.489297 307.584 
L 304.489297 119.740235 
L 297.981745 119.740235 
z
" style="fill:#fa9ba4;opacity:0.2;"/>
   </g>
   <g id="patch_34">
    <path clip-path="url(#pf7f4bb5186)" d="M 305.212359 307.584 
L 311.719911 307.584 
L 311.719911 192.790588 
L 305.212359 192.790588 
z
" style="fill:#fa9ba4;opacity:0.2;"/>
   </g>
   <g id="patch_35">
    <path clip-path="url(#pf7f4bb5186)" d="M 312.442972 307.584 
L 318.950524 307.584 
L 318.950524 224.097882 
L 312.442972 224.097882 
z
" style="fill:#fa9ba4;opacity:0.2;"/>
   </g>
   <g id="patch_36">
    <path clip-path="url(#pf7f4bb5186)" d="M 319.673586 307.584 
L 326.181138 307.584 
L 326.181138 182.354824 
L 319.673586 182.354824 
z
" style="fill:#fa9ba4;opacity:0.2;"/>
   </g>
   <g id="patch_37">
    <path clip-path="url(#pf7f4bb5186)" d="M 326.904199 307.584 
L 333.411751 307.584 
L 333.411751 192.790588 
L 326.904199 192.790588 
z
" style="fill:#fa9ba4;opacity:0.2;"/>
   </g>
   <g id="patch_38">
    <path clip-path="url(#pf7f4bb5186)" d="M 334.134813 307.584 
L 340.642365 307.584 
L 340.642365 213.662118 
L 334.134813 213.662118 
z
" style="fill:#fa9ba4;opacity:0.2;"/>
   </g>
   <g id="patch_39">
    <path clip-path="url(#pf7f4bb5186)" d="M 341.365426 307.584 
L 347.872978 307.584 
L 347.872978 187.572706 
L 341.365426 187.572706 
z
" style="fill:#fa9ba4;opacity:0.2;"/>
   </g>
   <g id="patch_40">
    <path clip-path="url(#pf7f4bb5186)" d="M 348.59604 307.584 
L 355.103592 307.584 
L 355.103592 192.790588 
L 348.59604 192.790588 
z
" style="fill:#fa9ba4;opacity:0.2;"/>
   </g>
   <g id="patch_41">
    <path clip-path="url(#pf7f4bb5186)" d="M 355.826653 307.584 
L 362.334205 307.584 
L 362.334205 234.533647 
L 355.826653 234.533647 
z
" style="fill:#fa9ba4;opacity:0.2;"/>
   </g>
   <g id="patch_42">
    <path clip-path="url(#pf7f4bb5186)" d="M 363.057267 307.584 
L 369.564819 307.584 
L 369.564819 177.136941 
L 363.057267 177.136941 
z
" style="fill:#fa9ba4;opacity:0.2;"/>
   </g>
   <g id="patch_43">
    <path clip-path="url(#pf7f4bb5186)" d="M 370.28788 307.584 
L 376.795432 307.584 
L 376.795432 307.584 
L 370.28788 307.584 
z
" style="fill:#fa9ba4;opacity:0.2;"/>
   </g>
   <g id="patch_44">
    <path clip-path="url(#pf7f4bb5186)" d="M 377.518494 307.584 
L 384.026046 307.584 
L 384.026046 307.584 
L 377.518494 307.584 
z
" style="fill:#fa9ba4;opacity:0.2;"/>
   </g>
   <g id="patch_45">
    <path clip-path="url(#pf7f4bb5186)" d="M 384.749107 307.584 
L 391.256659 307.584 
L 391.256659 307.584 
L 384.749107 307.584 
z
" style="fill:#fa9ba4;opacity:0.2;"/>
   </g>
   <g id="patch_46">
    <path clip-path="url(#pf7f4bb5186)" d="M 391.979721 307.584 
L 398.487273 307.584 
L 398.487273 307.584 
L 391.979721 307.584 
z
" style="fill:#fa9ba4;opacity:0.2;"/>
   </g>
   <g id="matplotlib.axis_1"/>
   <g id="matplotlib.axis_2"/>
   <g id="PolyCollection_1">
    <defs>
     <path d="M 301.235521 -210.206118 
L 301.235521 -38.016 
L 308.466135 -38.016 
L 315.696748 -38.016 
L 322.927362 -38.016 
L 330.157975 -38.016 
L 337.388589 -38.016 
L 344.619202 -38.016 
L 351.849816 -38.016 
L 359.080429 -38.016 
L 366.311043 -38.016 
L 373.541656 -38.016 
L 380.77227 -38.016 
L 388.002883 -38.016 
L 395.233497 -38.016 
L 395.233497 -83.486118 
L 395.233497 -83.486118 
L 388.002883 -100.630588 
L 380.77227 -114.048 
L 373.541656 -130.447059 
L 366.311043 -148.336941 
L 359.080429 -141.628235 
L 351.849816 -147.591529 
L 344.619202 -158.027294 
L 337.388589 -156.536471 
L 330.157975 -163.990588 
L 322.927362 -176.662588 
L 315.696748 -193.061647 
L 308.466135 -199.770353 
L 301.235521 -210.206118 
z
" id="md37c300f16" style="stroke:#dc3545;stroke-opacity:0.5;"/>
    </defs>
    <g clip-path="url(#pf7f4bb5186)">
     <use style="fill:#dc3545;fill-opacity:0.5;stroke:#dc3545;stroke-opacity:0.5;" x="0" xlink:href="#md37c300f16" y="345.6"/>
    </g>
   </g>
   <g id="PolyCollection_2">
    <defs>
     <path d="M 120.470184 -81.995294 
L 120.470184 -38.016 
L 127.700798 -38.016 
L 134.931411 -38.016 
L 142.162025 -38.016 
L 149.392638 -38.016 
L 156.623252 -38.016 
L 163.853865 -38.016 
L 171.084479 -38.016 
L 178.315092 -38.016 
L 185.545706 -38.016 
L 192.776319 -38.016 
L 200.006933 -38.016 
L 207.237546 -38.016 
L 214.46816 -38.016 
L 221.698773 -38.016 
L 228.929387 -38.016 
L 236.16 -38.016 
L 243.390613 -38.016 
L 250.621227 -38.016 
L 257.85184 -38.016 
L 265.082454 -38.016 
L 272.313067 -38.016 
L 279.543681 -38.016 
L 286.774294 -38.016 
L 294.004908 -38.016 
L 301.235521 -38.016 
L 301.235521 -210.206118 
L 301.235521 -210.206118 
L 294.004908 -217.660235 
L 286.774294 -240.022588 
L 279.543681 -248.222118 
L 272.313067 -234.059294 
L 265.082454 -225.114353 
L 257.85184 -223.623529 
L 250.621227 -211.696941 
L 243.390613 -196.788706 
L 236.16 -181.880471 
L 228.929387 -171.444706 
L 221.698773 -172.190118 
L 214.46816 -168.463059 
L 207.237546 -165.481412 
L 200.006933 -168.463059 
L 192.776319 -157.281882 
L 185.545706 -147.591529 
L 178.315092 -137.901176 
L 171.084479 -130.447059 
L 163.853865 -111.811765 
L 156.623252 -102.121412 
L 149.392638 -96.158118 
L 142.162025 -92.431059 
L 134.931411 -87.213176 
L 127.700798 -84.231529 
L 120.470184 -81.995294 
z
" id="m9b7de9f81f" style="stroke:#fa9ba4;stroke-opacity:0.3;"/>
    </defs>
    <g clip-path="url(#pf7f4bb5186)">
     <use style="fill:#fa9ba4;fill-opacity:0.3;stroke:#fa9ba4;stroke-opacity:0.3;" x="0" xlink:href="#m9b7de9f81f" y="345.6"/>
    </g>
   </g>
   <g id="line2d_1">
    <path clip-path="url(#pf7f4bb5186)" d="M 120.470184 263.604706 
L 127.700798 261.368471 
L 134.931411 258.386824 
L 142.162025 253.168941 
L 149.392638 249.441882 
L 156.623252 243.478588 
L 163.853865 233.788235 
L 171.084479 215.152941 
L 178.315092 207.698824 
L 185.545706 198.008471 
L 192.776319 188.318118 
L 200.006933 177.136941 
L 207.237546 180.118588 
L 214.46816 177.136941 
L 221.698773 173.409882 
L 228.929387 174.155294 
L 236.16 163.719529 
L 243.390613 148.811294 
L 250.621227 133.903059 
L 257.85184 121.976471 
L 265.082454 120.485647 
L 272.313067 111.540706 
L 279.543681 97.377882 
L 286.774294 105.577412 
L 294.004908 127.939765 
L 301.235521 135.393882 
L 308.466135 145.829647 
L 315.696748 152.538353 
L 322.927362 168.937412 
L 330.157975 181.609412 
L 337.388589 189.063529 
L 344.619202 187.572706 
L 351.849816 198.008471 
L 359.080429 203.971765 
L 366.311043 197.263059 
L 373.541656 215.152941 
L 380.77227 231.552 
L 388.002883 244.969412 
L 395.233497 262.113882 
" style="fill:none;stroke:#fa9ba4;stroke-linecap:square;stroke-width:2;"/>
   </g>
   <g id="line2d_2">
    <path clip-path="url(#pf7f4bb5186)" d="M 301.235521 135.393882 
L 308.466135 145.829647 
L 315.696748 152.538353 
L 322.927362 168.937412 
L 330.157975 181.609412 
L 337.388589 189.063529 
L 344.619202 187.572706 
L 351.849816 198.008471 
L 359.080429 203.971765 
L 366.311043 197.263059 
L 373.541656 215.152941 
L 380.77227 231.552 
L 388.002883 244.969412 
L 395.233497 262.113882 
" style="fill:none;stroke:#dc3545;stroke-linecap:square;stroke-width:2;"/>
   </g>
  </g>
 </g>
 <defs>
  <clipPath id="pf7f4bb5186">
   <rect height="266.112" width="357.12" x="57.6" y="41.472"/>
  </clipPath>
 </defs>
</svg>
