<?xml version="1.0" encoding="utf-8" standalone="no"?>
<!DOCTYPE svg PUBLIC "-//W3C//DTD SVG 1.1//EN"
  "http://www.w3.org/Graphics/SVG/1.1/DTD/svg11.dtd">
<svg height="345.6pt" version="1.1" viewBox="0 0 460.8 345.6" width="460.8pt" xmlns="http://www.w3.org/2000/svg" xmlns:xlink="http://www.w3.org/1999/xlink">
 <metadata>
  <rdf:RDF xmlns:cc="http://creativecommons.org/ns#" xmlns:dc="http://purl.org/dc/elements/1.1/" xmlns:rdf="http://www.w3.org/1999/02/22-rdf-syntax-ns#">
   <cc:Work>
    <dc:type rdf:resource="http://purl.org/dc/dcmitype/StillImage"/>
    <dc:date>2021-05-11T13:23:22.377093</dc:date>
    <dc:format>image/svg+xml</dc:format>
    <dc:creator>
     <cc:Agent>
      <dc:title>Matplotlib v3.4.2, https://matplotlib.org/</dc:title>
     </cc:Agent>
    </dc:creator>
   </cc:Work>
  </rdf:RDF>
 </metadata>
 <defs>
  <style type="text/css">*{stroke-linecap:butt;stroke-linejoin:round;}</style>
 </defs>
 <g id="figure_1">
  <g id="patch_1">
   <path d="M 0 345.6 
L 460.8 345.6 
L 460.8 0 
L 0 0 
z
" style="fill:none;"/>
  </g>
  <g id="axes_1">
   <g id="patch_2">
    <path clip-path="url(#p5910df6a33)" d="M 73.832727 307.584 
L 75.821761 307.584 
L 75.821761 306.240848 
L 73.832727 306.240848 
z
" style="fill:#fa9ba4;opacity:0.2;"/>
   </g>
   <g id="patch_3">
    <path clip-path="url(#p5910df6a33)" d="M 76.042765 307.584 
L 78.031799 307.584 
L 78.031799 306.240848 
L 76.042765 306.240848 
z
" style="fill:#fa9ba4;opacity:0.2;"/>
   </g>
   <g id="patch_4">
    <path clip-path="url(#p5910df6a33)" d="M 78.252803 307.584 
L 80.241837 307.584 
L 80.241837 305.737166 
L 78.252803 305.737166 
z
" style="fill:#fa9ba4;opacity:0.2;"/>
   </g>
   <g id="patch_5">
    <path clip-path="url(#p5910df6a33)" d="M 80.462841 307.584 
L 82.451874 307.584 
L 82.451874 306.576636 
L 80.462841 306.576636 
z
" style="fill:#fa9ba4;opacity:0.2;"/>
   </g>
   <g id="patch_6">
    <path clip-path="url(#p5910df6a33)" d="M 82.672878 307.584 
L 84.661912 307.584 
L 84.661912 304.897696 
L 82.672878 304.897696 
z
" style="fill:#fa9ba4;opacity:0.2;"/>
   </g>
   <g id="patch_7">
    <path clip-path="url(#p5910df6a33)" d="M 84.882916 307.584 
L 86.87195 307.584 
L 86.87195 306.576636 
L 84.882916 306.576636 
z
" style="fill:#fa9ba4;opacity:0.2;"/>
   </g>
   <g id="patch_8">
    <path clip-path="url(#p5910df6a33)" d="M 87.092954 307.584 
L 89.081988 307.584 
L 89.081988 306.912424 
L 87.092954 306.912424 
z
" style="fill:#fa9ba4;opacity:0.2;"/>
   </g>
   <g id="patch_9">
    <path clip-path="url(#p5910df6a33)" d="M 89.302992 307.584 
L 91.292025 307.584 
L 91.292025 305.737166 
L 89.302992 305.737166 
z
" style="fill:#fa9ba4;opacity:0.2;"/>
   </g>
   <g id="patch_10">
    <path clip-path="url(#p5910df6a33)" d="M 91.513029 307.584 
L 93.502063 307.584 
L 93.502063 305.569272 
L 91.513029 305.569272 
z
" style="fill:#fa9ba4;opacity:0.2;"/>
   </g>
   <g id="patch_11">
    <path clip-path="url(#p5910df6a33)" d="M 93.723067 307.584 
L 95.712101 307.584 
L 95.712101 304.561908 
L 93.723067 304.561908 
z
" style="fill:#fa9ba4;opacity:0.2;"/>
   </g>
   <g id="patch_12">
    <path clip-path="url(#p5910df6a33)" d="M 95.933105 307.584 
L 97.922139 307.584 
L 97.922139 305.737166 
L 95.933105 305.737166 
z
" style="fill:#fa9ba4;opacity:0.2;"/>
   </g>
   <g id="patch_13">
    <path clip-path="url(#p5910df6a33)" d="M 98.143143 307.584 
L 100.132176 307.584 
L 100.132176 303.554544 
L 98.143143 303.554544 
z
" style="fill:#fa9ba4;opacity:0.2;"/>
   </g>
   <g id="patch_14">
    <path clip-path="url(#p5910df6a33)" d="M 100.35318 307.584 
L 102.342214 307.584 
L 102.342214 304.394014 
L 100.35318 304.394014 
z
" style="fill:#fa9ba4;opacity:0.2;"/>
   </g>
   <g id="patch_15">
    <path clip-path="url(#p5910df6a33)" d="M 102.563218 307.584 
L 104.552252 307.584 
L 104.552252 302.715074 
L 102.563218 302.715074 
z
" style="fill:#fa9ba4;opacity:0.2;"/>
   </g>
   <g id="patch_16">
    <path clip-path="url(#p5910df6a33)" d="M 104.773256 307.584 
L 106.76229 307.584 
L 106.76229 304.058226 
L 104.773256 304.058226 
z
" style="fill:#fa9ba4;opacity:0.2;"/>
   </g>
   <g id="patch_17">
    <path clip-path="url(#p5910df6a33)" d="M 106.983294 307.584 
L 108.972327 307.584 
L 108.972327 303.38665 
L 106.983294 303.38665 
z
" style="fill:#fa9ba4;opacity:0.2;"/>
   </g>
   <g id="patch_18">
    <path clip-path="url(#p5910df6a33)" d="M 109.193331 307.584 
L 111.182365 307.584 
L 111.182365 302.379286 
L 109.193331 302.379286 
z
" style="fill:#fa9ba4;opacity:0.2;"/>
   </g>
   <g id="patch_19">
    <path clip-path="url(#p5910df6a33)" d="M 111.403369 307.584 
L 113.392403 307.584 
L 113.392403 303.218756 
L 111.403369 303.218756 
z
" style="fill:#fa9ba4;opacity:0.2;"/>
   </g>
   <g id="patch_20">
    <path clip-path="url(#p5910df6a33)" d="M 113.613407 307.584 
L 115.602441 307.584 
L 115.602441 304.22612 
L 113.613407 304.22612 
z
" style="fill:#fa9ba4;opacity:0.2;"/>
   </g>
   <g id="patch_21">
    <path clip-path="url(#p5910df6a33)" d="M 115.823445 307.584 
L 117.812478 307.584 
L 117.812478 303.722438 
L 115.823445 303.722438 
z
" style="fill:#fa9ba4;opacity:0.2;"/>
   </g>
   <g id="patch_22">
    <path clip-path="url(#p5910df6a33)" d="M 118.033482 307.584 
L 120.022516 307.584 
L 120.022516 301.875604 
L 118.033482 301.875604 
z
" style="fill:#fa9ba4;opacity:0.2;"/>
   </g>
   <g id="patch_23">
    <path clip-path="url(#p5910df6a33)" d="M 120.24352 307.584 
L 122.232554 307.584 
L 122.232554 304.22612 
L 120.24352 304.22612 
z
" style="fill:#fa9ba4;opacity:0.2;"/>
   </g>
   <g id="patch_24">
    <path clip-path="url(#p5910df6a33)" d="M 122.453558 307.584 
L 124.442592 307.584 
L 124.442592 301.036134 
L 122.453558 301.036134 
z
" style="fill:#fa9ba4;opacity:0.2;"/>
   </g>
   <g id="patch_25">
    <path clip-path="url(#p5910df6a33)" d="M 124.663596 307.584 
L 126.652629 307.584 
L 126.652629 299.021406 
L 124.663596 299.021406 
z
" style="fill:#fa9ba4;opacity:0.2;"/>
   </g>
   <g id="patch_26">
    <path clip-path="url(#p5910df6a33)" d="M 126.873633 307.584 
L 128.862667 307.584 
L 128.862667 299.860876 
L 126.873633 299.860876 
z
" style="fill:#fa9ba4;opacity:0.2;"/>
   </g>
   <g id="patch_27">
    <path clip-path="url(#p5910df6a33)" d="M 129.083671 307.584 
L 131.072705 307.584 
L 131.072705 301.539816 
L 129.083671 301.539816 
z
" style="fill:#fa9ba4;opacity:0.2;"/>
   </g>
   <g id="patch_28">
    <path clip-path="url(#p5910df6a33)" d="M 131.293709 307.584 
L 133.282743 307.584 
L 133.282743 303.38665 
L 131.293709 303.38665 
z
" style="fill:#fa9ba4;opacity:0.2;"/>
   </g>
   <g id="patch_29">
    <path clip-path="url(#p5910df6a33)" d="M 133.503747 307.584 
L 135.49278 307.584 
L 135.49278 299.860876 
L 133.503747 299.860876 
z
" style="fill:#fa9ba4;opacity:0.2;"/>
   </g>
   <g id="patch_30">
    <path clip-path="url(#p5910df6a33)" d="M 135.713784 307.584 
L 137.702818 307.584 
L 137.702818 301.036134 
L 135.713784 301.036134 
z
" style="fill:#fa9ba4;opacity:0.2;"/>
   </g>
   <g id="patch_31">
    <path clip-path="url(#p5910df6a33)" d="M 137.923822 307.584 
L 139.912856 307.584 
L 139.912856 302.882968 
L 137.923822 302.882968 
z
" style="fill:#fa9ba4;opacity:0.2;"/>
   </g>
   <g id="patch_32">
    <path clip-path="url(#p5910df6a33)" d="M 140.13386 307.584 
L 142.122894 307.584 
L 142.122894 304.058226 
L 140.13386 304.058226 
z
" style="fill:#fa9ba4;opacity:0.2;"/>
   </g>
   <g id="patch_33">
    <path clip-path="url(#p5910df6a33)" d="M 142.343898 307.584 
L 144.332931 307.584 
L 144.332931 301.539816 
L 142.343898 301.539816 
z
" style="fill:#fa9ba4;opacity:0.2;"/>
   </g>
   <g id="patch_34">
    <path clip-path="url(#p5910df6a33)" d="M 144.553935 307.584 
L 146.542969 307.584 
L 146.542969 303.890332 
L 144.553935 303.890332 
z
" style="fill:#fa9ba4;opacity:0.2;"/>
   </g>
   <g id="patch_35">
    <path clip-path="url(#p5910df6a33)" d="M 146.763973 307.584 
L 148.753007 307.584 
L 148.753007 304.897696 
L 146.763973 304.897696 
z
" style="fill:#fa9ba4;opacity:0.2;"/>
   </g>
   <g id="patch_36">
    <path clip-path="url(#p5910df6a33)" d="M 148.974011 307.584 
L 150.963045 307.584 
L 150.963045 303.554544 
L 148.974011 303.554544 
z
" style="fill:#fa9ba4;opacity:0.2;"/>
   </g>
   <g id="patch_37">
    <path clip-path="url(#p5910df6a33)" d="M 151.184049 307.584 
L 153.173082 307.584 
L 153.173082 304.058226 
L 151.184049 304.058226 
z
" style="fill:#fa9ba4;opacity:0.2;"/>
   </g>
   <g id="patch_38">
    <path clip-path="url(#p5910df6a33)" d="M 153.394086 307.584 
L 155.38312 307.584 
L 155.38312 304.561908 
L 153.394086 304.561908 
z
" style="fill:#fa9ba4;opacity:0.2;"/>
   </g>
   <g id="patch_39">
    <path clip-path="url(#p5910df6a33)" d="M 155.604124 307.584 
L 157.593158 307.584 
L 157.593158 303.722438 
L 155.604124 303.722438 
z
" style="fill:#fa9ba4;opacity:0.2;"/>
   </g>
   <g id="patch_40">
    <path clip-path="url(#p5910df6a33)" d="M 157.814162 307.584 
L 159.803196 307.584 
L 159.803196 303.890332 
L 157.814162 303.890332 
z
" style="fill:#fa9ba4;opacity:0.2;"/>
   </g>
   <g id="patch_41">
    <path clip-path="url(#p5910df6a33)" d="M 160.0242 307.584 
L 162.013233 307.584 
L 162.013233 305.233484 
L 160.0242 305.233484 
z
" style="fill:#fa9ba4;opacity:0.2;"/>
   </g>
   <g id="patch_42">
    <path clip-path="url(#p5910df6a33)" d="M 162.234237 307.584 
L 164.223271 307.584 
L 164.223271 303.38665 
L 162.234237 303.38665 
z
" style="fill:#fa9ba4;opacity:0.2;"/>
   </g>
   <g id="patch_43">
    <path clip-path="url(#p5910df6a33)" d="M 164.444275 307.584 
L 166.433309 307.584 
L 166.433309 303.218756 
L 164.444275 303.218756 
z
" style="fill:#fa9ba4;opacity:0.2;"/>
   </g>
   <g id="patch_44">
    <path clip-path="url(#p5910df6a33)" d="M 166.654313 307.584 
L 168.643347 307.584 
L 168.643347 301.875604 
L 166.654313 301.875604 
z
" style="fill:#fa9ba4;opacity:0.2;"/>
   </g>
   <g id="patch_45">
    <path clip-path="url(#p5910df6a33)" d="M 168.864351 307.584 
L 170.853384 307.584 
L 170.853384 305.569272 
L 168.864351 305.569272 
z
" style="fill:#fa9ba4;opacity:0.2;"/>
   </g>
   <g id="patch_46">
    <path clip-path="url(#p5910df6a33)" d="M 171.074388 307.584 
L 173.063422 307.584 
L 173.063422 305.233484 
L 171.074388 305.233484 
z
" style="fill:#fa9ba4;opacity:0.2;"/>
   </g>
   <g id="patch_47">
    <path clip-path="url(#p5910df6a33)" d="M 173.284426 307.584 
L 175.27346 307.584 
L 175.27346 303.722438 
L 173.284426 303.722438 
z
" style="fill:#fa9ba4;opacity:0.2;"/>
   </g>
   <g id="patch_48">
    <path clip-path="url(#p5910df6a33)" d="M 175.494464 307.584 
L 177.483498 307.584 
L 177.483498 305.401378 
L 175.494464 305.401378 
z
" style="fill:#fa9ba4;opacity:0.2;"/>
   </g>
   <g id="patch_49">
    <path clip-path="url(#p5910df6a33)" d="M 177.704502 307.584 
L 179.693535 307.584 
L 179.693535 306.240848 
L 177.704502 306.240848 
z
" style="fill:#fa9ba4;opacity:0.2;"/>
   </g>
   <g id="patch_50">
    <path clip-path="url(#p5910df6a33)" d="M 179.914539 307.584 
L 181.903573 307.584 
L 181.903573 305.401378 
L 179.914539 305.401378 
z
" style="fill:#fa9ba4;opacity:0.2;"/>
   </g>
   <g id="patch_51">
    <path clip-path="url(#p5910df6a33)" d="M 182.124577 307.584 
L 184.113611 307.584 
L 184.113611 301.539816 
L 182.124577 301.539816 
z
" style="fill:#fa9ba4;opacity:0.2;"/>
   </g>
   <g id="patch_52">
    <path clip-path="url(#p5910df6a33)" d="M 184.334615 307.584 
L 186.323649 307.584 
L 186.323649 305.737166 
L 184.334615 305.737166 
z
" style="fill:#fa9ba4;opacity:0.2;"/>
   </g>
   <g id="patch_53">
    <path clip-path="url(#p5910df6a33)" d="M 186.544653 307.584 
L 188.533686 307.584 
L 188.533686 306.408742 
L 186.544653 306.408742 
z
" style="fill:#fa9ba4;opacity:0.2;"/>
   </g>
   <g id="patch_54">
    <path clip-path="url(#p5910df6a33)" d="M 188.75469 307.584 
L 190.743724 307.584 
L 190.743724 304.394014 
L 188.75469 304.394014 
z
" style="fill:#fa9ba4;opacity:0.2;"/>
   </g>
   <g id="patch_55">
    <path clip-path="url(#p5910df6a33)" d="M 190.964728 307.584 
L 192.953762 307.584 
L 192.953762 303.218756 
L 190.964728 303.218756 
z
" style="fill:#fa9ba4;opacity:0.2;"/>
   </g>
   <g id="patch_56">
    <path clip-path="url(#p5910df6a33)" d="M 193.174766 307.584 
L 195.1638 307.584 
L 195.1638 303.38665 
L 193.174766 303.38665 
z
" style="fill:#fa9ba4;opacity:0.2;"/>
   </g>
   <g id="patch_57">
    <path clip-path="url(#p5910df6a33)" d="M 195.384804 307.584 
L 197.373837 307.584 
L 197.373837 306.240848 
L 195.384804 306.240848 
z
" style="fill:#fa9ba4;opacity:0.2;"/>
   </g>
   <g id="patch_58">
    <path clip-path="url(#p5910df6a33)" d="M 197.594841 307.584 
L 199.583875 307.584 
L 199.583875 305.06559 
L 197.594841 305.06559 
z
" style="fill:#fa9ba4;opacity:0.2;"/>
   </g>
   <g id="patch_59">
    <path clip-path="url(#p5910df6a33)" d="M 199.804879 307.584 
L 201.793913 307.584 
L 201.793913 305.569272 
L 199.804879 305.569272 
z
" style="fill:#fa9ba4;opacity:0.2;"/>
   </g>
   <g id="patch_60">
    <path clip-path="url(#p5910df6a33)" d="M 202.014917 307.584 
L 204.003951 307.584 
L 204.003951 303.722438 
L 202.014917 303.722438 
z
" style="fill:#fa9ba4;opacity:0.2;"/>
   </g>
   <g id="patch_61">
    <path clip-path="url(#p5910df6a33)" d="M 204.224955 307.584 
L 206.213988 307.584 
L 206.213988 305.06559 
L 204.224955 305.06559 
z
" style="fill:#fa9ba4;opacity:0.2;"/>
   </g>
   <g id="patch_62">
    <path clip-path="url(#p5910df6a33)" d="M 206.434992 307.584 
L 208.424026 307.584 
L 208.424026 305.233484 
L 206.434992 305.233484 
z
" style="fill:#fa9ba4;opacity:0.2;"/>
   </g>
   <g id="patch_63">
    <path clip-path="url(#p5910df6a33)" d="M 208.64503 307.584 
L 210.634064 307.584 
L 210.634064 304.22612 
L 208.64503 304.22612 
z
" style="fill:#fa9ba4;opacity:0.2;"/>
   </g>
   <g id="patch_64">
    <path clip-path="url(#p5910df6a33)" d="M 210.855068 307.584 
L 212.844102 307.584 
L 212.844102 306.072954 
L 210.855068 306.072954 
z
" style="fill:#fa9ba4;opacity:0.2;"/>
   </g>
   <g id="patch_65">
    <path clip-path="url(#p5910df6a33)" d="M 213.065106 307.584 
L 215.054139 307.584 
L 215.054139 307.080318 
L 213.065106 307.080318 
z
" style="fill:#fa9ba4;opacity:0.2;"/>
   </g>
   <g id="patch_66">
    <path clip-path="url(#p5910df6a33)" d="M 215.275143 307.584 
L 217.264177 307.584 
L 217.264177 306.240848 
L 215.275143 306.240848 
z
" style="fill:#fa9ba4;opacity:0.2;"/>
   </g>
   <g id="patch_67">
    <path clip-path="url(#p5910df6a33)" d="M 217.485181 307.584 
L 219.474215 307.584 
L 219.474215 306.408742 
L 217.485181 306.408742 
z
" style="fill:#fa9ba4;opacity:0.2;"/>
   </g>
   <g id="patch_68">
    <path clip-path="url(#p5910df6a33)" d="M 219.695219 307.584 
L 221.684253 307.584 
L 221.684253 305.06559 
L 219.695219 305.06559 
z
" style="fill:#fa9ba4;opacity:0.2;"/>
   </g>
   <g id="patch_69">
    <path clip-path="url(#p5910df6a33)" d="M 221.905257 307.584 
L 223.89429 307.584 
L 223.89429 305.06559 
L 221.905257 305.06559 
z
" style="fill:#fa9ba4;opacity:0.2;"/>
   </g>
   <g id="patch_70">
    <path clip-path="url(#p5910df6a33)" d="M 224.115294 307.584 
L 226.104328 307.584 
L 226.104328 306.240848 
L 224.115294 306.240848 
z
" style="fill:#fa9ba4;opacity:0.2;"/>
   </g>
   <g id="patch_71">
    <path clip-path="url(#p5910df6a33)" d="M 226.325332 307.584 
L 228.314366 307.584 
L 228.314366 306.576636 
L 226.325332 306.576636 
z
" style="fill:#fa9ba4;opacity:0.2;"/>
   </g>
   <g id="patch_72">
    <path clip-path="url(#p5910df6a33)" d="M 228.53537 307.584 
L 230.524404 307.584 
L 230.524404 306.912424 
L 228.53537 306.912424 
z
" style="fill:#fa9ba4;opacity:0.2;"/>
   </g>
   <g id="patch_73">
    <path clip-path="url(#p5910df6a33)" d="M 230.745408 307.584 
L 232.734441 307.584 
L 232.734441 305.90506 
L 230.745408 305.90506 
z
" style="fill:#fa9ba4;opacity:0.2;"/>
   </g>
   <g id="patch_74">
    <path clip-path="url(#p5910df6a33)" d="M 232.955445 307.584 
L 234.944479 307.584 
L 234.944479 305.737166 
L 232.955445 305.737166 
z
" style="fill:#fa9ba4;opacity:0.2;"/>
   </g>
   <g id="patch_75">
    <path clip-path="url(#p5910df6a33)" d="M 235.165483 307.584 
L 237.154517 307.584 
L 237.154517 306.072954 
L 235.165483 306.072954 
z
" style="fill:#fa9ba4;opacity:0.2;"/>
   </g>
   <g id="patch_76">
    <path clip-path="url(#p5910df6a33)" d="M 237.375521 307.584 
L 239.364555 307.584 
L 239.364555 306.072954 
L 237.375521 306.072954 
z
" style="fill:#fa9ba4;opacity:0.2;"/>
   </g>
   <g id="patch_77">
    <path clip-path="url(#p5910df6a33)" d="M 239.585559 307.584 
L 241.574592 307.584 
L 241.574592 306.912424 
L 239.585559 306.912424 
z
" style="fill:#fa9ba4;opacity:0.2;"/>
   </g>
   <g id="patch_78">
    <path clip-path="url(#p5910df6a33)" d="M 241.795596 307.584 
L 243.78463 307.584 
L 243.78463 306.240848 
L 241.795596 306.240848 
z
" style="fill:#fa9ba4;opacity:0.2;"/>
   </g>
   <g id="patch_79">
    <path clip-path="url(#p5910df6a33)" d="M 244.005634 307.584 
L 245.994668 307.584 
L 245.994668 307.080318 
L 244.005634 307.080318 
z
" style="fill:#fa9ba4;opacity:0.2;"/>
   </g>
   <g id="patch_80">
    <path clip-path="url(#p5910df6a33)" d="M 246.215672 307.584 
L 248.204706 307.584 
L 248.204706 306.912424 
L 246.215672 306.912424 
z
" style="fill:#fa9ba4;opacity:0.2;"/>
   </g>
   <g id="patch_81">
    <path clip-path="url(#p5910df6a33)" d="M 248.42571 307.584 
L 250.414743 307.584 
L 250.414743 306.408742 
L 248.42571 306.408742 
z
" style="fill:#fa9ba4;opacity:0.2;"/>
   </g>
   <g id="patch_82">
    <path clip-path="url(#p5910df6a33)" d="M 250.635747 307.584 
L 252.624781 307.584 
L 252.624781 305.569272 
L 250.635747 305.569272 
z
" style="fill:#fa9ba4;opacity:0.2;"/>
   </g>
   <g id="patch_83">
    <path clip-path="url(#p5910df6a33)" d="M 252.845785 307.584 
L 254.834819 307.584 
L 254.834819 305.233484 
L 252.845785 305.233484 
z
" style="fill:#fa9ba4;opacity:0.2;"/>
   </g>
   <g id="patch_84">
    <path clip-path="url(#p5910df6a33)" d="M 255.055823 307.584 
L 257.044857 307.584 
L 257.044857 306.912424 
L 255.055823 306.912424 
z
" style="fill:#fa9ba4;opacity:0.2;"/>
   </g>
   <g id="patch_85">
    <path clip-path="url(#p5910df6a33)" d="M 257.265861 307.584 
L 259.254894 307.584 
L 259.254894 306.576636 
L 257.265861 306.576636 
z
" style="fill:#fa9ba4;opacity:0.2;"/>
   </g>
   <g id="patch_86">
    <path clip-path="url(#p5910df6a33)" d="M 259.475898 307.584 
L 261.464932 307.584 
L 261.464932 305.569272 
L 259.475898 305.569272 
z
" style="fill:#fa9ba4;opacity:0.2;"/>
   </g>
   <g id="patch_87">
    <path clip-path="url(#p5910df6a33)" d="M 261.685936 307.584 
L 263.67497 307.584 
L 263.67497 306.74453 
L 261.685936 306.74453 
z
" style="fill:#fa9ba4;opacity:0.2;"/>
   </g>
   <g id="patch_88">
    <path clip-path="url(#p5910df6a33)" d="M 263.895974 307.584 
L 265.885008 307.584 
L 265.885008 305.233484 
L 263.895974 305.233484 
z
" style="fill:#fa9ba4;opacity:0.2;"/>
   </g>
   <g id="patch_89">
    <path clip-path="url(#p5910df6a33)" d="M 266.106012 307.584 
L 268.095045 307.584 
L 268.095045 306.072954 
L 266.106012 306.072954 
z
" style="fill:#fa9ba4;opacity:0.2;"/>
   </g>
   <g id="patch_90">
    <path clip-path="url(#p5910df6a33)" d="M 268.316049 307.584 
L 270.305083 307.584 
L 270.305083 304.058226 
L 268.316049 304.058226 
z
" style="fill:#fa9ba4;opacity:0.2;"/>
   </g>
   <g id="patch_91">
    <path clip-path="url(#p5910df6a33)" d="M 270.526087 307.584 
L 272.515121 307.584 
L 272.515121 291.298281 
L 270.526087 291.298281 
z
" style="fill:#fa9ba4;opacity:0.2;"/>
   </g>
   <g id="patch_92">
    <path clip-path="url(#p5910df6a33)" d="M 272.736125 307.584 
L 274.725159 307.584 
L 274.725159 303.38665 
L 272.736125 303.38665 
z
" style="fill:#fa9ba4;opacity:0.2;"/>
   </g>
   <g id="patch_93">
    <path clip-path="url(#p5910df6a33)" d="M 274.946163 307.584 
L 276.935196 307.584 
L 276.935196 290.123023 
L 274.946163 290.123023 
z
" style="fill:#fa9ba4;opacity:0.2;"/>
   </g>
   <g id="patch_94">
    <path clip-path="url(#p5910df6a33)" d="M 277.1562 307.584 
L 279.145234 307.584 
L 279.145234 278.706231 
L 277.1562 278.706231 
z
" style="fill:#fa9ba4;opacity:0.2;"/>
   </g>
   <g id="patch_95">
    <path clip-path="url(#p5910df6a33)" d="M 279.366238 307.584 
L 281.355272 307.584 
L 281.355272 302.211392 
L 279.366238 302.211392 
z
" style="fill:#fa9ba4;opacity:0.2;"/>
   </g>
   <g id="patch_96">
    <path clip-path="url(#p5910df6a33)" d="M 281.576276 307.584 
L 283.56531 307.584 
L 283.56531 303.890332 
L 281.576276 303.890332 
z
" style="fill:#fa9ba4;opacity:0.2;"/>
   </g>
   <g id="patch_97">
    <path clip-path="url(#p5910df6a33)" d="M 283.786314 307.584 
L 285.775347 307.584 
L 285.775347 300.700346 
L 283.786314 300.700346 
z
" style="fill:#fa9ba4;opacity:0.2;"/>
   </g>
   <g id="patch_98">
    <path clip-path="url(#p5910df6a33)" d="M 285.996351 307.584 
L 287.985385 307.584 
L 287.985385 303.554544 
L 285.996351 303.554544 
z
" style="fill:#fa9ba4;opacity:0.2;"/>
   </g>
   <g id="patch_99">
    <path clip-path="url(#p5910df6a33)" d="M 288.206389 307.584 
L 290.195423 307.584 
L 290.195423 303.722438 
L 288.206389 303.722438 
z
" style="fill:#fa9ba4;opacity:0.2;"/>
   </g>
   <g id="patch_100">
    <path clip-path="url(#p5910df6a33)" d="M 290.416427 307.584 
L 292.405461 307.584 
L 292.405461 246.470582 
L 290.416427 246.470582 
z
" style="fill:#fa9ba4;opacity:0.2;"/>
   </g>
   <g id="patch_101">
    <path clip-path="url(#p5910df6a33)" d="M 292.626465 307.584 
L 294.615498 307.584 
L 294.615498 299.692982 
L 292.626465 299.692982 
z
" style="fill:#fa9ba4;opacity:0.2;"/>
   </g>
   <g id="patch_102">
    <path clip-path="url(#p5910df6a33)" d="M 294.836502 307.584 
L 296.825536 307.584 
L 296.825536 295.999314 
L 294.836502 295.999314 
z
" style="fill:#fa9ba4;opacity:0.2;"/>
   </g>
   <g id="patch_103">
    <path clip-path="url(#p5910df6a33)" d="M 297.04654 307.584 
L 299.035574 307.584 
L 299.035574 290.794599 
L 297.04654 290.794599 
z
" style="fill:#fa9ba4;opacity:0.2;"/>
   </g>
   <g id="patch_104">
    <path clip-path="url(#p5910df6a33)" d="M 299.256578 307.584 
L 301.245612 307.584 
L 301.245612 298.853512 
L 299.256578 298.853512 
z
" style="fill:#fa9ba4;opacity:0.2;"/>
   </g>
   <g id="patch_105">
    <path clip-path="url(#p5910df6a33)" d="M 301.466616 307.584 
L 303.455649 307.584 
L 303.455649 300.86824 
L 301.466616 300.86824 
z
" style="fill:#fa9ba4;opacity:0.2;"/>
   </g>
   <g id="patch_106">
    <path clip-path="url(#p5910df6a33)" d="M 303.676653 307.584 
L 305.665687 307.584 
L 305.665687 304.729802 
L 303.676653 304.729802 
z
" style="fill:#fa9ba4;opacity:0.2;"/>
   </g>
   <g id="patch_107">
    <path clip-path="url(#p5910df6a33)" d="M 305.886691 307.584 
L 307.875725 307.584 
L 307.875725 303.38665 
L 305.886691 303.38665 
z
" style="fill:#fa9ba4;opacity:0.2;"/>
   </g>
   <g id="patch_108">
    <path clip-path="url(#p5910df6a33)" d="M 308.096729 307.584 
L 310.085763 307.584 
L 310.085763 304.394014 
L 308.096729 304.394014 
z
" style="fill:#fa9ba4;opacity:0.2;"/>
   </g>
   <g id="patch_109">
    <path clip-path="url(#p5910df6a33)" d="M 310.306767 307.584 
L 312.2958 307.584 
L 312.2958 305.737166 
L 310.306767 305.737166 
z
" style="fill:#fa9ba4;opacity:0.2;"/>
   </g>
   <g id="patch_110">
    <path clip-path="url(#p5910df6a33)" d="M 312.516804 307.584 
L 314.505838 307.584 
L 314.505838 303.554544 
L 312.516804 303.554544 
z
" style="fill:#fa9ba4;opacity:0.2;"/>
   </g>
   <g id="patch_111">
    <path clip-path="url(#p5910df6a33)" d="M 314.726842 307.584 
L 316.715876 307.584 
L 316.715876 300.700346 
L 314.726842 300.700346 
z
" style="fill:#fa9ba4;opacity:0.2;"/>
   </g>
   <g id="patch_112">
    <path clip-path="url(#p5910df6a33)" d="M 316.93688 307.584 
L 318.925914 307.584 
L 318.925914 300.700346 
L 316.93688 300.700346 
z
" style="fill:#fa9ba4;opacity:0.2;"/>
   </g>
   <g id="patch_113">
    <path clip-path="url(#p5910df6a33)" d="M 319.146918 307.584 
L 321.135951 307.584 
L 321.135951 298.34983 
L 319.146918 298.34983 
z
" style="fill:#fa9ba4;opacity:0.2;"/>
   </g>
   <g id="patch_114">
    <path clip-path="url(#p5910df6a33)" d="M 321.356955 307.584 
L 323.345989 307.584 
L 323.345989 281.224641 
L 321.356955 281.224641 
z
" style="fill:#fa9ba4;opacity:0.2;"/>
   </g>
   <g id="patch_115">
    <path clip-path="url(#p5910df6a33)" d="M 323.566993 307.584 
L 325.556027 307.584 
L 325.556027 270.479425 
L 323.566993 270.479425 
z
" style="fill:#fa9ba4;opacity:0.2;"/>
   </g>
   <g id="patch_116">
    <path clip-path="url(#p5910df6a33)" d="M 325.777031 307.584 
L 327.766065 307.584 
L 327.766065 290.123023 
L 325.777031 290.123023 
z
" style="fill:#fa9ba4;opacity:0.2;"/>
   </g>
   <g id="patch_117">
    <path clip-path="url(#p5910df6a33)" d="M 327.987069 307.584 
L 329.976102 307.584 
L 329.976102 261.91683 
L 327.987069 261.91683 
z
" style="fill:#fa9ba4;opacity:0.2;"/>
   </g>
   <g id="patch_118">
    <path clip-path="url(#p5910df6a33)" d="M 330.197106 307.584 
L 332.18614 307.584 
L 332.18614 276.019927 
L 330.197106 276.019927 
z
" style="fill:#fa9ba4;opacity:0.2;"/>
   </g>
   <g id="patch_119">
    <path clip-path="url(#p5910df6a33)" d="M 332.407144 307.584 
L 334.396178 307.584 
L 334.396178 267.961015 
L 332.407144 267.961015 
z
" style="fill:#fa9ba4;opacity:0.2;"/>
   </g>
   <g id="patch_120">
    <path clip-path="url(#p5910df6a33)" d="M 334.617182 307.584 
L 336.606216 307.584 
L 336.606216 283.743051 
L 334.617182 283.743051 
z
" style="fill:#fa9ba4;opacity:0.2;"/>
   </g>
   <g id="patch_121">
    <path clip-path="url(#p5910df6a33)" d="M 336.82722 307.584 
L 338.816253 307.584 
L 338.816253 274.844669 
L 336.82722 274.844669 
z
" style="fill:#fa9ba4;opacity:0.2;"/>
   </g>
   <g id="patch_122">
    <path clip-path="url(#p5910df6a33)" d="M 339.037257 307.584 
L 341.026291 307.584 
L 341.026291 247.477946 
L 339.037257 247.477946 
z
" style="fill:#fa9ba4;opacity:0.2;"/>
   </g>
   <g id="patch_123">
    <path clip-path="url(#p5910df6a33)" d="M 341.247295 307.584 
L 343.236329 307.584 
L 343.236329 238.243775 
L 341.247295 238.243775 
z
" style="fill:#fa9ba4;opacity:0.2;"/>
   </g>
   <g id="patch_124">
    <path clip-path="url(#p5910df6a33)" d="M 343.457333 307.584 
L 345.446367 307.584 
L 345.446367 254.865282 
L 343.457333 254.865282 
z
" style="fill:#fa9ba4;opacity:0.2;"/>
   </g>
   <g id="patch_125">
    <path clip-path="url(#p5910df6a33)" d="M 345.667371 307.584 
L 347.656404 307.584 
L 347.656404 260.741572 
L 345.667371 260.741572 
z
" style="fill:#fa9ba4;opacity:0.2;"/>
   </g>
   <g id="patch_126">
    <path clip-path="url(#p5910df6a33)" d="M 347.877408 307.584 
L 349.866442 307.584 
L 349.866442 248.988992 
L 347.877408 248.988992 
z
" style="fill:#fa9ba4;opacity:0.2;"/>
   </g>
   <g id="patch_127">
    <path clip-path="url(#p5910df6a33)" d="M 350.087446 307.584 
L 352.07648 307.584 
L 352.07648 258.055268 
L 350.087446 258.055268 
z
" style="fill:#fa9ba4;opacity:0.2;"/>
   </g>
   <g id="patch_128">
    <path clip-path="url(#p5910df6a33)" d="M 352.297484 307.584 
L 354.286518 307.584 
L 354.286518 248.653204 
L 352.297484 248.653204 
z
" style="fill:#fa9ba4;opacity:0.2;"/>
   </g>
   <g id="patch_129">
    <path clip-path="url(#p5910df6a33)" d="M 354.507522 307.584 
L 356.496555 307.584 
L 356.496555 245.799006 
L 354.507522 245.799006 
z
" style="fill:#fa9ba4;opacity:0.2;"/>
   </g>
   <g id="patch_130">
    <path clip-path="url(#p5910df6a33)" d="M 356.717559 307.584 
L 358.706593 307.584 
L 358.706593 232.703273 
L 356.717559 232.703273 
z
" style="fill:#fa9ba4;opacity:0.2;"/>
   </g>
   <g id="patch_131">
    <path clip-path="url(#p5910df6a33)" d="M 358.927597 307.584 
L 360.916631 307.584 
L 360.916631 183.174541 
L 358.927597 183.174541 
z
" style="fill:#fa9ba4;opacity:0.2;"/>
   </g>
   <g id="patch_132">
    <path clip-path="url(#p5910df6a33)" d="M 361.137635 307.584 
L 363.126669 307.584 
L 363.126669 41.472 
L 361.137635 41.472 
z
" style="fill:#fa9ba4;opacity:0.2;"/>
   </g>
   <g id="patch_133">
    <path clip-path="url(#p5910df6a33)" d="M 363.347673 307.584 
L 365.336706 307.584 
L 365.336706 126.426367 
L 363.347673 126.426367 
z
" style="fill:#fa9ba4;opacity:0.2;"/>
   </g>
   <g id="patch_134">
    <path clip-path="url(#p5910df6a33)" d="M 365.55771 307.584 
L 367.546744 307.584 
L 367.546744 155.136242 
L 365.55771 155.136242 
z
" style="fill:#fa9ba4;opacity:0.2;"/>
   </g>
   <g id="patch_135">
    <path clip-path="url(#p5910df6a33)" d="M 367.767748 307.584 
L 369.756782 307.584 
L 369.756782 140.697358 
L 367.767748 140.697358 
z
" style="fill:#fa9ba4;opacity:0.2;"/>
   </g>
   <g id="patch_136">
    <path clip-path="url(#p5910df6a33)" d="M 369.977786 307.584 
L 371.96682 307.584 
L 371.96682 167.560399 
L 369.977786 167.560399 
z
" style="fill:#fa9ba4;opacity:0.2;"/>
   </g>
   <g id="patch_137">
    <path clip-path="url(#p5910df6a33)" d="M 372.187824 307.584 
L 374.176857 307.584 
L 374.176857 191.233454 
L 372.187824 191.233454 
z
" style="fill:#fa9ba4;opacity:0.2;"/>
   </g>
   <g id="patch_138">
    <path clip-path="url(#p5910df6a33)" d="M 374.397861 307.584 
L 376.386895 307.584 
L 376.386895 237.068517 
L 374.397861 237.068517 
z
" style="fill:#fa9ba4;opacity:0.2;"/>
   </g>
   <g id="patch_139">
    <path clip-path="url(#p5910df6a33)" d="M 376.607899 307.584 
L 378.596933 307.584 
L 378.596933 182.838753 
L 376.607899 182.838753 
z
" style="fill:#fa9ba4;opacity:0.2;"/>
   </g>
   <g id="patch_140">
    <path clip-path="url(#p5910df6a33)" d="M 378.817937 307.584 
L 380.806971 307.584 
L 380.806971 216.249661 
L 378.817937 216.249661 
z
" style="fill:#fa9ba4;opacity:0.2;"/>
   </g>
   <g id="patch_141">
    <path clip-path="url(#p5910df6a33)" d="M 381.027975 307.584 
L 383.017008 307.584 
L 383.017008 194.255546 
L 381.027975 194.255546 
z
" style="fill:#fa9ba4;opacity:0.2;"/>
   </g>
   <g id="patch_142">
    <path clip-path="url(#p5910df6a33)" d="M 383.238012 307.584 
L 385.227046 307.584 
L 385.227046 212.555992 
L 383.238012 212.555992 
z
" style="fill:#fa9ba4;opacity:0.2;"/>
   </g>
   <g id="patch_143">
    <path clip-path="url(#p5910df6a33)" d="M 385.44805 307.584 
L 387.437084 307.584 
L 387.437084 174.779841 
L 385.44805 174.779841 
z
" style="fill:#fa9ba4;opacity:0.2;"/>
   </g>
   <g id="patch_144">
    <path clip-path="url(#p5910df6a33)" d="M 387.658088 307.584 
L 389.647122 307.584 
L 389.647122 183.342435 
L 387.658088 183.342435 
z
" style="fill:#fa9ba4;opacity:0.2;"/>
   </g>
   <g id="patch_145">
    <path clip-path="url(#p5910df6a33)" d="M 389.868126 307.584 
L 391.857159 307.584 
L 391.857159 161.684109 
L 389.868126 161.684109 
z
" style="fill:#fa9ba4;opacity:0.2;"/>
   </g>
   <g id="patch_146">
    <path clip-path="url(#p5910df6a33)" d="M 392.078163 307.584 
L 394.067197 307.584 
L 394.067197 120.214289 
L 392.078163 120.214289 
z
" style="fill:#fa9ba4;opacity:0.2;"/>
   </g>
   <g id="patch_147">
    <path clip-path="url(#p5910df6a33)" d="M 394.288201 307.584 
L 396.277235 307.584 
L 396.277235 142.544192 
L 394.288201 142.544192 
z
" style="fill:#fa9ba4;opacity:0.2;"/>
   </g>
   <g id="patch_148">
    <path clip-path="url(#p5910df6a33)" d="M 396.498239 307.584 
L 398.487273 307.584 
L 398.487273 212.05231 
L 396.498239 212.05231 
z
" style="fill:#fa9ba4;opacity:0.2;"/>
   </g>
   <g id="matplotlib.axis_1"/>
   <g id="matplotlib.axis_2"/>
   <g id="PolyCollection_1">
    <defs>
     <path d="M 368.762265 -184.827316 
L 368.762265 -38.016 
L 370.972303 -38.016 
L 373.18234 -38.016 
L 375.392378 -38.016 
L 377.602416 -38.016 
L 379.812454 -38.016 
L 382.022491 -38.016 
L 384.232529 -38.016 
L 386.442567 -38.016 
L 388.652605 -38.016 
L 390.862642 -38.016 
L 393.07268 -38.016 
L 395.282718 -38.016 
L 397.492756 -38.016 
L 397.492756 -173.14669 
L 397.492756 -173.14669 
L 395.282718 -175.689085 
L 393.07268 -165.159732 
L 390.862642 -156.21338 
L 388.652605 -145.444179 
L 386.442567 -144.316891 
L 384.232529 -145.34824 
L 382.022491 -155.613759 
L 379.812454 -161.202231 
L 377.602416 -174.03413 
L 375.392378 -194.22938 
L 373.18234 -201.92852 
L 370.972303 -196.00426 
L 368.762265 -184.827316 
z
" id="m46f8fc6b6f" style="stroke:#dc3545;stroke-opacity:0.5;"/>
    </defs>
    <g clip-path="url(#p5910df6a33)">
     <use style="fill:#dc3545;fill-opacity:0.5;stroke:#dc3545;stroke-opacity:0.5;" x="0" xlink:href="#m46f8fc6b6f" y="345.6"/>
    </g>
   </g>
   <g id="PolyCollection_2">
    <defs>
     <path d="M 88.087471 -39.431107 
L 88.087471 -38.016 
L 90.297509 -38.016 
L 92.507546 -38.016 
L 94.717584 -38.016 
L 96.927622 -38.016 
L 99.13766 -38.016 
L 101.347697 -38.016 
L 103.557735 -38.016 
L 105.767773 -38.016 
L 107.977811 -38.016 
L 110.187848 -38.016 
L 112.397886 -38.016 
L 114.607924 -38.016 
L 116.817962 -38.016 
L 119.027999 -38.016 
L 121.238037 -38.016 
L 123.448075 -38.016 
L 125.658113 -38.016 
L 127.86815 -38.016 
L 130.078188 -38.016 
L 132.288226 -38.016 
L 134.498264 -38.016 
L 136.708301 -38.016 
L 138.918339 -38.016 
L 141.128377 -38.016 
L 143.338415 -38.016 
L 145.548452 -38.016 
L 147.75849 -38.016 
L 149.968528 -38.016 
L 152.178566 -38.016 
L 154.388603 -38.016 
L 156.598641 -38.016 
L 158.808679 -38.016 
L 161.018717 -38.016 
L 163.228754 -38.016 
L 165.438792 -38.016 
L 167.64883 -38.016 
L 169.858868 -38.016 
L 172.068905 -38.016 
L 174.278943 -38.016 
L 176.488981 -38.016 
L 178.699019 -38.016 
L 180.909056 -38.016 
L 183.119094 -38.016 
L 185.329132 -38.016 
L 187.53917 -38.016 
L 189.749207 -38.016 
L 191.959245 -38.016 
L 194.169283 -38.016 
L 196.379321 -38.016 
L 198.589358 -38.016 
L 200.799396 -38.016 
L 203.009434 -38.016 
L 205.219472 -38.016 
L 207.429509 -38.016 
L 209.639547 -38.016 
L 211.849585 -38.016 
L 214.059623 -38.016 
L 216.26966 -38.016 
L 218.479698 -38.016 
L 220.689736 -38.016 
L 222.899774 -38.016 
L 225.109811 -38.016 
L 227.319849 -38.016 
L 229.529887 -38.016 
L 231.739925 -38.016 
L 233.949962 -38.016 
L 236.16 -38.016 
L 238.370038 -38.016 
L 240.580075 -38.016 
L 242.790113 -38.016 
L 245.000151 -38.016 
L 247.210189 -38.016 
L 249.420226 -38.016 
L 251.630264 -38.016 
L 253.840302 -38.016 
L 256.05034 -38.016 
L 258.260377 -38.016 
L 260.470415 -38.016 
L 262.680453 -38.016 
L 264.890491 -38.016 
L 267.100528 -38.016 
L 269.310566 -38.016 
L 271.520604 -38.016 
L 273.730642 -38.016 
L 275.940679 -38.016 
L 278.150717 -38.016 
L 280.360755 -38.016 
L 282.570793 -38.016 
L 284.78083 -38.016 
L 286.990868 -38.016 
L 289.200906 -38.016 
L 291.410944 -38.016 
L 293.620981 -38.016 
L 295.831019 -38.016 
L 298.041057 -38.016 
L 300.251095 -38.016 
L 302.461132 -38.016 
L 304.67117 -38.016 
L 306.881208 -38.016 
L 309.091246 -38.016 
L 311.301283 -38.016 
L 313.511321 -38.016 
L 315.721359 -38.016 
L 317.931397 -38.016 
L 320.141434 -38.016 
L 322.351472 -38.016 
L 324.56151 -38.016 
L 326.771548 -38.016 
L 328.981585 -38.016 
L 331.191623 -38.016 
L 333.401661 -38.016 
L 335.611699 -38.016 
L 337.821736 -38.016 
L 340.031774 -38.016 
L 342.241812 -38.016 
L 344.45185 -38.016 
L 346.661887 -38.016 
L 348.871925 -38.016 
L 351.081963 -38.016 
L 353.292001 -38.016 
L 355.502038 -38.016 
L 357.712076 -38.016 
L 359.922114 -38.016 
L 362.132152 -38.016 
L 364.342189 -38.016 
L 366.552227 -38.016 
L 368.762265 -38.016 
L 368.762265 -184.827316 
L 368.762265 -184.827316 
L 366.552227 -169.405052 
L 364.342189 -154.702334 
L 362.132152 -137.193388 
L 359.922114 -105.869163 
L 357.712076 -95.627629 
L 355.502038 -94.836129 
L 353.292001 -94.59628 
L 351.081963 -90.854642 
L 348.871925 -87.184959 
L 346.661887 -84.47467 
L 344.45185 -82.292048 
L 342.241812 -81.284684 
L 340.031774 -73.873363 
L 337.821736 -70.587437 
L 335.611699 -69.676013 
L 333.401661 -67.58933 
L 331.191623 -62.912283 
L 328.981585 -59.386509 
L 326.771548 -53.438264 
L 324.56151 -51.207672 
L 322.351472 -46.362731 
L 320.141434 -43.196729 
L 317.931397 -42.285305 
L 315.721359 -42.26132 
L 313.511321 -42.525153 
L 311.301283 -44.348003 
L 309.091246 -45.739124 
L 306.881208 -46.4107 
L 304.67117 -54.541567 
L 302.461132 -54.685476 
L 300.251095 -54.301719 
L 298.041057 -54.037885 
L 295.831019 -52.167066 
L 293.620981 -51.279626 
L 291.410944 -54.277734 
L 289.200906 -48.041671 
L 286.990868 -48.08964 
L 284.78083 -49.840535 
L 282.570793 -49.360838 
L 280.360755 -49.049035 
L 278.150717 -48.617307 
L 275.940679 -44.611836 
L 273.730642 -42.405229 
L 271.520604 -41.949517 
L 269.310566 -39.718925 
L 267.100528 -39.551031 
L 264.890491 -39.622985 
L 262.680453 -39.455091 
L 260.470415 -39.431107 
L 258.260377 -39.215243 
L 256.05034 -39.263213 
L 253.840302 -39.263213 
L 251.630264 -39.143288 
L 249.420226 -39.071334 
L 247.210189 -39.167273 
L 245.000151 -39.311182 
L 242.790113 -39.335167 
L 240.580075 -39.287197 
L 238.370038 -39.383137 
L 236.16 -39.527046 
L 233.949962 -39.670955 
L 231.739925 -39.575016 
L 229.529887 -39.527046 
L 227.319849 -39.503061 
L 225.109811 -39.575016 
L 222.899774 -39.862834 
L 220.689736 -39.838849 
L 218.479698 -39.838849 
L 216.26966 -40.222607 
L 214.059623 -40.318546 
L 211.849585 -40.606365 
L 209.639547 -40.58238 
L 207.429509 -40.702304 
L 205.219472 -40.990122 
L 203.009434 -41.086062 
L 200.799396 -40.702304 
L 198.589358 -40.678319 
L 196.379321 -41.182001 
L 194.169283 -41.301926 
L 191.959245 -40.894183 
L 189.749207 -40.58238 
L 187.53917 -40.678319 
L 185.329132 -40.846213 
L 183.119094 -40.870198 
L 180.909056 -40.822228 
L 178.699019 -41.134032 
L 176.488981 -41.541774 
L 174.278943 -41.565759 
L 172.068905 -41.541774 
L 169.858868 -41.757638 
L 167.64883 -41.901547 
L 165.438792 -41.589744 
L 163.228754 -41.541774 
L 161.018717 -41.32591 
L 158.808679 -41.517789 
L 156.598641 -41.853577 
L 154.388603 -41.805608 
L 152.178566 -42.045456 
L 149.968528 -42.477184 
L 147.75849 -43.00485 
L 145.548452 -43.220714 
L 143.338415 -43.556502 
L 141.128377 -43.796351 
L 138.918339 -44.515897 
L 136.708301 -44.77973 
L 134.498264 -44.324018 
L 132.288226 -44.036199 
L 130.078188 -43.98823 
L 127.86815 -43.604472 
L 125.658113 -43.124775 
L 123.448075 -42.645078 
L 121.238037 -42.30929 
L 119.027999 -42.333274 
L 116.817962 -42.21335 
L 114.607924 -42.117411 
L 112.397886 -42.21335 
L 110.187848 -41.853577 
L 107.977811 -41.541774 
L 105.767773 -41.229971 
L 103.557735 -40.990122 
L 101.347697 -40.390501 
L 99.13766 -40.078698 
L 96.927622 -39.886819 
L 94.717584 -39.766895 
L 92.507546 -39.599001 
L 90.297509 -39.503061 
L 88.087471 -39.431107 
z
" id="m966c83dcb9" style="stroke:#fa9ba4;stroke-opacity:0.3;"/>
    </defs>
    <g clip-path="url(#p5910df6a33)">
     <use style="fill:#fa9ba4;fill-opacity:0.3;stroke:#fa9ba4;stroke-opacity:0.3;" x="0" xlink:href="#m966c83dcb9" y="345.6"/>
    </g>
   </g>
   <g id="line2d_1">
    <path clip-path="url(#p5910df6a33)" d="M 88.087471 306.168893 
L 92.507546 306.000999 
L 99.13766 305.521302 
L 101.347697 305.209499 
L 103.557735 304.609878 
L 107.977811 304.058226 
L 112.397886 303.38665 
L 114.607924 303.482589 
L 121.238037 303.29071 
L 123.448075 302.954922 
L 130.078188 301.61177 
L 132.288226 301.563801 
L 134.498264 301.275982 
L 136.708301 300.82027 
L 138.918339 301.084103 
L 141.128377 301.803649 
L 147.75849 302.59515 
L 152.178566 303.554544 
L 154.388603 303.794392 
L 156.598641 303.746423 
L 158.808679 304.082211 
L 161.018717 304.27409 
L 163.228754 304.058226 
L 165.438792 304.010256 
L 167.64883 303.698453 
L 174.278943 304.034241 
L 176.488981 304.058226 
L 180.909056 304.777772 
L 185.329132 304.753787 
L 189.749207 305.01762 
L 194.169283 304.298074 
L 196.379321 304.417999 
L 198.589358 304.921681 
L 200.799396 304.897696 
L 203.009434 304.513938 
L 205.219472 304.609878 
L 207.429509 304.897696 
L 209.639547 305.01762 
L 211.849585 304.993635 
L 214.059623 305.281454 
L 216.26966 305.377393 
L 218.479698 305.761151 
L 222.899774 305.737166 
L 225.109811 306.024984 
L 229.529887 306.072954 
L 233.949962 305.929045 
L 240.580075 306.312803 
L 245.000151 306.288818 
L 249.420226 306.528666 
L 256.05034 306.336787 
L 258.260377 306.384757 
L 260.470415 306.168893 
L 262.680453 306.144909 
L 264.890491 305.977015 
L 267.100528 306.048969 
L 269.310566 305.881075 
L 271.520604 303.650483 
L 273.730642 303.194771 
L 275.940679 300.988164 
L 278.150717 296.982693 
L 280.360755 296.550965 
L 282.570793 296.239162 
L 284.78083 295.759465 
L 286.990868 297.51036 
L 289.200906 297.558329 
L 291.410944 291.322266 
L 293.620981 294.320374 
L 295.831019 293.432934 
L 298.041057 291.562115 
L 300.251095 291.298281 
L 302.461132 290.914524 
L 304.67117 291.058433 
L 306.881208 299.1893 
L 309.091246 299.860876 
L 311.301283 301.251997 
L 313.511321 303.074847 
L 315.721359 303.33868 
L 317.931397 303.314695 
L 320.141434 302.403271 
L 322.351472 299.237269 
L 324.56151 294.392328 
L 326.771548 292.161736 
L 328.981585 286.213491 
L 331.191623 282.687717 
L 333.401661 278.01067 
L 335.611699 275.923987 
L 337.821736 275.012563 
L 340.031774 271.726637 
L 342.241812 264.315316 
L 344.45185 263.307952 
L 346.661887 261.12533 
L 348.871925 258.415041 
L 353.292001 251.00372 
L 355.502038 250.763871 
L 357.712076 249.972371 
L 359.922114 239.730837 
L 362.132152 208.406612 
L 364.342189 190.897666 
L 368.762265 160.772684 
L 370.972303 149.59574 
L 373.18234 143.67148 
L 375.392378 151.37062 
L 377.602416 171.56587 
L 379.812454 184.397769 
L 382.022491 189.986241 
L 384.232529 200.25176 
L 386.442567 201.283109 
L 388.652605 200.155821 
L 390.862642 189.38662 
L 393.07268 180.440268 
L 395.282718 169.910915 
L 397.492756 172.45331 
L 397.492756 172.45331 
" style="fill:none;stroke:#fa9ba4;stroke-linecap:square;stroke-width:2;"/>
   </g>
   <g id="line2d_2">
    <path clip-path="url(#p5910df6a33)" d="M 368.762265 160.772684 
L 370.972303 149.59574 
L 373.18234 143.67148 
L 375.392378 151.37062 
L 377.602416 171.56587 
L 379.812454 184.397769 
L 382.022491 189.986241 
L 384.232529 200.25176 
L 386.442567 201.283109 
L 388.652605 200.155821 
L 390.862642 189.38662 
L 393.07268 180.440268 
L 395.282718 169.910915 
L 397.492756 172.45331 
" style="fill:none;stroke:#dc3545;stroke-linecap:square;stroke-width:2;"/>
   </g>
  </g>
 </g>
 <defs>
  <clipPath id="p5910df6a33">
   <rect height="266.112" width="357.12" x="57.6" y="41.472"/>
  </clipPath>
 </defs>
</svg>
