<?xml version="1.0" encoding="utf-8" standalone="no"?>
<!DOCTYPE svg PUBLIC "-//W3C//DTD SVG 1.1//EN"
  "http://www.w3.org/Graphics/SVG/1.1/DTD/svg11.dtd">
<svg height="345.6pt" version="1.1" viewBox="0 0 460.8 345.6" width="460.8pt" xmlns="http://www.w3.org/2000/svg" xmlns:xlink="http://www.w3.org/1999/xlink">
 <metadata>
  <rdf:RDF xmlns:cc="http://creativecommons.org/ns#" xmlns:dc="http://purl.org/dc/elements/1.1/" xmlns:rdf="http://www.w3.org/1999/02/22-rdf-syntax-ns#">
   <cc:Work>
    <dc:type rdf:resource="http://purl.org/dc/dcmitype/StillImage"/>
    <dc:date>2021-05-03T13:24:33.895175</dc:date>
    <dc:format>image/svg+xml</dc:format>
    <dc:creator>
     <cc:Agent>
      <dc:title>Matplotlib v3.4.1, https://matplotlib.org/</dc:title>
     </cc:Agent>
    </dc:creator>
   </cc:Work>
  </rdf:RDF>
 </metadata>
 <defs>
  <style type="text/css">*{stroke-linecap:butt;stroke-linejoin:round;}</style>
 </defs>
 <g id="figure_1">
  <g id="patch_1">
   <path d="M 0 345.6 
L 460.8 345.6 
L 460.8 0 
L 0 0 
z
" style="fill:none;"/>
  </g>
  <g id="axes_1">
   <g id="patch_2">
    <path clip-path="url(#pbefad25663)" d="M 73.832727 307.584 
L 75.93632 307.584 
L 75.93632 307.584 
L 73.832727 307.584 
z
" style="fill:#fa9ba4;opacity:0.2;"/>
   </g>
   <g id="patch_3">
    <path clip-path="url(#pbefad25663)" d="M 76.170053 307.584 
L 78.273646 307.584 
L 78.273646 302.935755 
L 76.170053 302.935755 
z
" style="fill:#fa9ba4;opacity:0.2;"/>
   </g>
   <g id="patch_4">
    <path clip-path="url(#pbefad25663)" d="M 78.507379 307.584 
L 80.610972 307.584 
L 80.610972 298.287511 
L 78.507379 298.287511 
z
" style="fill:#fa9ba4;opacity:0.2;"/>
   </g>
   <g id="patch_5">
    <path clip-path="url(#pbefad25663)" d="M 80.844704 307.584 
L 82.948298 307.584 
L 82.948298 301.773694 
L 80.844704 301.773694 
z
" style="fill:#fa9ba4;opacity:0.2;"/>
   </g>
   <g id="patch_6">
    <path clip-path="url(#pbefad25663)" d="M 83.18203 307.584 
L 85.285623 307.584 
L 85.285623 302.935755 
L 83.18203 302.935755 
z
" style="fill:#fa9ba4;opacity:0.2;"/>
   </g>
   <g id="patch_7">
    <path clip-path="url(#pbefad25663)" d="M 85.519356 307.584 
L 87.622949 307.584 
L 87.622949 268.073921 
L 85.519356 268.073921 
z
" style="fill:#fa9ba4;opacity:0.2;"/>
   </g>
   <g id="patch_8">
    <path clip-path="url(#pbefad25663)" d="M 87.856682 307.584 
L 89.960275 307.584 
L 89.960275 305.259878 
L 87.856682 305.259878 
z
" style="fill:#fa9ba4;opacity:0.2;"/>
   </g>
   <g id="patch_9">
    <path clip-path="url(#pbefad25663)" d="M 90.194007 307.584 
L 92.297601 307.584 
L 92.297601 298.287511 
L 90.194007 298.287511 
z
" style="fill:#fa9ba4;opacity:0.2;"/>
   </g>
   <g id="patch_10">
    <path clip-path="url(#pbefad25663)" d="M 92.531333 307.584 
L 94.634926 307.584 
L 94.634926 302.935755 
L 92.531333 302.935755 
z
" style="fill:#fa9ba4;opacity:0.2;"/>
   </g>
   <g id="patch_11">
    <path clip-path="url(#pbefad25663)" d="M 94.868659 307.584 
L 96.972252 307.584 
L 96.972252 305.259878 
L 94.868659 305.259878 
z
" style="fill:#fa9ba4;opacity:0.2;"/>
   </g>
   <g id="patch_12">
    <path clip-path="url(#pbefad25663)" d="M 97.205985 307.584 
L 99.309578 307.584 
L 99.309578 301.773694 
L 97.205985 301.773694 
z
" style="fill:#fa9ba4;opacity:0.2;"/>
   </g>
   <g id="patch_13">
    <path clip-path="url(#pbefad25663)" d="M 99.54331 307.584 
L 101.646904 307.584 
L 101.646904 298.287511 
L 99.54331 298.287511 
z
" style="fill:#fa9ba4;opacity:0.2;"/>
   </g>
   <g id="patch_14">
    <path clip-path="url(#pbefad25663)" d="M 101.880636 307.584 
L 103.984229 307.584 
L 103.984229 302.935755 
L 101.880636 302.935755 
z
" style="fill:#fa9ba4;opacity:0.2;"/>
   </g>
   <g id="patch_15">
    <path clip-path="url(#pbefad25663)" d="M 104.217962 307.584 
L 106.321555 307.584 
L 106.321555 294.801328 
L 104.217962 294.801328 
z
" style="fill:#fa9ba4;opacity:0.2;"/>
   </g>
   <g id="patch_16">
    <path clip-path="url(#pbefad25663)" d="M 106.555288 307.584 
L 108.658881 307.584 
L 108.658881 270.398044 
L 106.555288 270.398044 
z
" style="fill:#fa9ba4;opacity:0.2;"/>
   </g>
   <g id="patch_17">
    <path clip-path="url(#pbefad25663)" d="M 108.892613 307.584 
L 110.996207 307.584 
L 110.996207 182.081397 
L 108.892613 182.081397 
z
" style="fill:#fa9ba4;opacity:0.2;"/>
   </g>
   <g id="patch_18">
    <path clip-path="url(#pbefad25663)" d="M 111.229939 307.584 
L 113.333532 307.584 
L 113.333532 288.991022 
L 111.229939 288.991022 
z
" style="fill:#fa9ba4;opacity:0.2;"/>
   </g>
   <g id="patch_19">
    <path clip-path="url(#pbefad25663)" d="M 113.567265 307.584 
L 115.670858 307.584 
L 115.670858 248.318882 
L 113.567265 248.318882 
z
" style="fill:#fa9ba4;opacity:0.2;"/>
   </g>
   <g id="patch_20">
    <path clip-path="url(#pbefad25663)" d="M 115.904591 307.584 
L 118.008184 307.584 
L 118.008184 270.398044 
L 115.904591 270.398044 
z
" style="fill:#fa9ba4;opacity:0.2;"/>
   </g>
   <g id="patch_21">
    <path clip-path="url(#pbefad25663)" d="M 118.241916 307.584 
L 120.34551 307.584 
L 120.34551 218.105293 
L 118.241916 218.105293 
z
" style="fill:#fa9ba4;opacity:0.2;"/>
   </g>
   <g id="patch_22">
    <path clip-path="url(#pbefad25663)" d="M 120.579242 307.584 
L 122.682835 307.584 
L 122.682835 259.939493 
L 120.579242 259.939493 
z
" style="fill:#fa9ba4;opacity:0.2;"/>
   </g>
   <g id="patch_23">
    <path clip-path="url(#pbefad25663)" d="M 122.916568 307.584 
L 125.020161 307.584 
L 125.020161 306.421939 
L 122.916568 306.421939 
z
" style="fill:#fa9ba4;opacity:0.2;"/>
   </g>
   <g id="patch_24">
    <path clip-path="url(#pbefad25663)" d="M 125.253894 307.584 
L 127.357487 307.584 
L 127.357487 206.484681 
L 125.253894 206.484681 
z
" style="fill:#fa9ba4;opacity:0.2;"/>
   </g>
   <g id="patch_25">
    <path clip-path="url(#pbefad25663)" d="M 127.591219 307.584 
L 129.694812 307.584 
L 129.694812 276.208349 
L 127.591219 276.208349 
z
" style="fill:#fa9ba4;opacity:0.2;"/>
   </g>
   <g id="patch_26">
    <path clip-path="url(#pbefad25663)" d="M 129.928545 307.584 
L 132.032138 307.584 
L 132.032138 269.235983 
L 129.928545 269.235983 
z
" style="fill:#fa9ba4;opacity:0.2;"/>
   </g>
   <g id="patch_27">
    <path clip-path="url(#pbefad25663)" d="M 132.265871 307.584 
L 134.369464 307.584 
L 134.369464 256.45331 
L 132.265871 256.45331 
z
" style="fill:#fa9ba4;opacity:0.2;"/>
   </g>
   <g id="patch_28">
    <path clip-path="url(#pbefad25663)" d="M 134.603197 307.584 
L 136.70679 307.584 
L 136.70679 249.480943 
L 134.603197 249.480943 
z
" style="fill:#fa9ba4;opacity:0.2;"/>
   </g>
   <g id="patch_29">
    <path clip-path="url(#pbefad25663)" d="M 136.940522 307.584 
L 139.044115 307.584 
L 139.044115 283.180716 
L 136.940522 283.180716 
z
" style="fill:#fa9ba4;opacity:0.2;"/>
   </g>
   <g id="patch_30">
    <path clip-path="url(#pbefad25663)" d="M 139.277848 307.584 
L 141.381441 307.584 
L 141.381441 285.504838 
L 139.277848 285.504838 
z
" style="fill:#fa9ba4;opacity:0.2;"/>
   </g>
   <g id="patch_31">
    <path clip-path="url(#pbefad25663)" d="M 141.615174 307.584 
L 143.718767 307.584 
L 143.718767 291.315144 
L 141.615174 291.315144 
z
" style="fill:#fa9ba4;opacity:0.2;"/>
   </g>
   <g id="patch_32">
    <path clip-path="url(#pbefad25663)" d="M 143.9525 307.584 
L 146.056093 307.584 
L 146.056093 293.639266 
L 143.9525 293.639266 
z
" style="fill:#fa9ba4;opacity:0.2;"/>
   </g>
   <g id="patch_33">
    <path clip-path="url(#pbefad25663)" d="M 146.289825 307.584 
L 148.393418 307.584 
L 148.393418 300.611633 
L 146.289825 300.611633 
z
" style="fill:#fa9ba4;opacity:0.2;"/>
   </g>
   <g id="patch_34">
    <path clip-path="url(#pbefad25663)" d="M 148.627151 307.584 
L 150.730744 307.584 
L 150.730744 285.504838 
L 148.627151 285.504838 
z
" style="fill:#fa9ba4;opacity:0.2;"/>
   </g>
   <g id="patch_35">
    <path clip-path="url(#pbefad25663)" d="M 150.964477 307.584 
L 153.06807 307.584 
L 153.06807 305.259878 
L 150.964477 305.259878 
z
" style="fill:#fa9ba4;opacity:0.2;"/>
   </g>
   <g id="patch_36">
    <path clip-path="url(#pbefad25663)" d="M 153.301802 307.584 
L 155.405396 307.584 
L 155.405396 305.259878 
L 153.301802 305.259878 
z
" style="fill:#fa9ba4;opacity:0.2;"/>
   </g>
   <g id="patch_37">
    <path clip-path="url(#pbefad25663)" d="M 155.639128 307.584 
L 157.742721 307.584 
L 157.742721 305.259878 
L 155.639128 305.259878 
z
" style="fill:#fa9ba4;opacity:0.2;"/>
   </g>
   <g id="patch_38">
    <path clip-path="url(#pbefad25663)" d="M 157.976454 307.584 
L 160.080047 307.584 
L 160.080047 305.259878 
L 157.976454 305.259878 
z
" style="fill:#fa9ba4;opacity:0.2;"/>
   </g>
   <g id="patch_39">
    <path clip-path="url(#pbefad25663)" d="M 160.31378 307.584 
L 162.417373 307.584 
L 162.417373 306.421939 
L 160.31378 306.421939 
z
" style="fill:#fa9ba4;opacity:0.2;"/>
   </g>
   <g id="patch_40">
    <path clip-path="url(#pbefad25663)" d="M 162.651105 307.584 
L 164.754699 307.584 
L 164.754699 307.584 
L 162.651105 307.584 
z
" style="fill:#fa9ba4;opacity:0.2;"/>
   </g>
   <g id="patch_41">
    <path clip-path="url(#pbefad25663)" d="M 164.988431 307.584 
L 167.092024 307.584 
L 167.092024 294.801328 
L 164.988431 294.801328 
z
" style="fill:#fa9ba4;opacity:0.2;"/>
   </g>
   <g id="patch_42">
    <path clip-path="url(#pbefad25663)" d="M 167.325757 307.584 
L 169.42935 307.584 
L 169.42935 306.421939 
L 167.325757 306.421939 
z
" style="fill:#fa9ba4;opacity:0.2;"/>
   </g>
   <g id="patch_43">
    <path clip-path="url(#pbefad25663)" d="M 169.663083 307.584 
L 171.766676 307.584 
L 171.766676 302.935755 
L 169.663083 302.935755 
z
" style="fill:#fa9ba4;opacity:0.2;"/>
   </g>
   <g id="patch_44">
    <path clip-path="url(#pbefad25663)" d="M 172.000408 307.584 
L 174.104002 307.584 
L 174.104002 304.097817 
L 172.000408 304.097817 
z
" style="fill:#fa9ba4;opacity:0.2;"/>
   </g>
   <g id="patch_45">
    <path clip-path="url(#pbefad25663)" d="M 174.337734 307.584 
L 176.441327 307.584 
L 176.441327 302.935755 
L 174.337734 302.935755 
z
" style="fill:#fa9ba4;opacity:0.2;"/>
   </g>
   <g id="patch_46">
    <path clip-path="url(#pbefad25663)" d="M 176.67506 307.584 
L 178.778653 307.584 
L 178.778653 302.935755 
L 176.67506 302.935755 
z
" style="fill:#fa9ba4;opacity:0.2;"/>
   </g>
   <g id="patch_47">
    <path clip-path="url(#pbefad25663)" d="M 179.012386 307.584 
L 181.115979 307.584 
L 181.115979 300.611633 
L 179.012386 300.611633 
z
" style="fill:#fa9ba4;opacity:0.2;"/>
   </g>
   <g id="patch_48">
    <path clip-path="url(#pbefad25663)" d="M 181.349711 307.584 
L 183.453305 307.584 
L 183.453305 305.259878 
L 181.349711 305.259878 
z
" style="fill:#fa9ba4;opacity:0.2;"/>
   </g>
   <g id="patch_49">
    <path clip-path="url(#pbefad25663)" d="M 183.687037 307.584 
L 185.79063 307.584 
L 185.79063 300.611633 
L 183.687037 300.611633 
z
" style="fill:#fa9ba4;opacity:0.2;"/>
   </g>
   <g id="patch_50">
    <path clip-path="url(#pbefad25663)" d="M 186.024363 307.584 
L 188.127956 307.584 
L 188.127956 307.584 
L 186.024363 307.584 
z
" style="fill:#fa9ba4;opacity:0.2;"/>
   </g>
   <g id="patch_51">
    <path clip-path="url(#pbefad25663)" d="M 188.361689 307.584 
L 190.465282 307.584 
L 190.465282 304.097817 
L 188.361689 304.097817 
z
" style="fill:#fa9ba4;opacity:0.2;"/>
   </g>
   <g id="patch_52">
    <path clip-path="url(#pbefad25663)" d="M 190.699014 307.584 
L 192.802608 307.584 
L 192.802608 306.421939 
L 190.699014 306.421939 
z
" style="fill:#fa9ba4;opacity:0.2;"/>
   </g>
   <g id="patch_53">
    <path clip-path="url(#pbefad25663)" d="M 193.03634 307.584 
L 195.139933 307.584 
L 195.139933 304.097817 
L 193.03634 304.097817 
z
" style="fill:#fa9ba4;opacity:0.2;"/>
   </g>
   <g id="patch_54">
    <path clip-path="url(#pbefad25663)" d="M 195.373666 307.584 
L 197.477259 307.584 
L 197.477259 295.963389 
L 195.373666 295.963389 
z
" style="fill:#fa9ba4;opacity:0.2;"/>
   </g>
   <g id="patch_55">
    <path clip-path="url(#pbefad25663)" d="M 197.710992 307.584 
L 199.814585 307.584 
L 199.814585 304.097817 
L 197.710992 304.097817 
z
" style="fill:#fa9ba4;opacity:0.2;"/>
   </g>
   <g id="patch_56">
    <path clip-path="url(#pbefad25663)" d="M 200.048317 307.584 
L 202.15191 307.584 
L 202.15191 307.584 
L 200.048317 307.584 
z
" style="fill:#fa9ba4;opacity:0.2;"/>
   </g>
   <g id="patch_57">
    <path clip-path="url(#pbefad25663)" d="M 202.385643 307.584 
L 204.489236 307.584 
L 204.489236 304.097817 
L 202.385643 304.097817 
z
" style="fill:#fa9ba4;opacity:0.2;"/>
   </g>
   <g id="patch_58">
    <path clip-path="url(#pbefad25663)" d="M 204.722969 307.584 
L 206.826562 307.584 
L 206.826562 305.259878 
L 204.722969 305.259878 
z
" style="fill:#fa9ba4;opacity:0.2;"/>
   </g>
   <g id="patch_59">
    <path clip-path="url(#pbefad25663)" d="M 207.060295 307.584 
L 209.163888 307.584 
L 209.163888 301.773694 
L 207.060295 301.773694 
z
" style="fill:#fa9ba4;opacity:0.2;"/>
   </g>
   <g id="patch_60">
    <path clip-path="url(#pbefad25663)" d="M 209.39762 307.584 
L 211.501213 307.584 
L 211.501213 297.12545 
L 209.39762 297.12545 
z
" style="fill:#fa9ba4;opacity:0.2;"/>
   </g>
   <g id="patch_61">
    <path clip-path="url(#pbefad25663)" d="M 211.734946 307.584 
L 213.838539 307.584 
L 213.838539 306.421939 
L 211.734946 306.421939 
z
" style="fill:#fa9ba4;opacity:0.2;"/>
   </g>
   <g id="patch_62">
    <path clip-path="url(#pbefad25663)" d="M 214.072272 307.584 
L 216.175865 307.584 
L 216.175865 306.421939 
L 214.072272 306.421939 
z
" style="fill:#fa9ba4;opacity:0.2;"/>
   </g>
   <g id="patch_63">
    <path clip-path="url(#pbefad25663)" d="M 216.409597 307.584 
L 218.513191 307.584 
L 218.513191 295.963389 
L 216.409597 295.963389 
z
" style="fill:#fa9ba4;opacity:0.2;"/>
   </g>
   <g id="patch_64">
    <path clip-path="url(#pbefad25663)" d="M 218.746923 307.584 
L 220.850516 307.584 
L 220.850516 302.935755 
L 218.746923 302.935755 
z
" style="fill:#fa9ba4;opacity:0.2;"/>
   </g>
   <g id="patch_65">
    <path clip-path="url(#pbefad25663)" d="M 221.084249 307.584 
L 223.187842 307.584 
L 223.187842 307.584 
L 221.084249 307.584 
z
" style="fill:#fa9ba4;opacity:0.2;"/>
   </g>
   <g id="patch_66">
    <path clip-path="url(#pbefad25663)" d="M 223.421575 307.584 
L 225.525168 307.584 
L 225.525168 304.097817 
L 223.421575 304.097817 
z
" style="fill:#fa9ba4;opacity:0.2;"/>
   </g>
   <g id="patch_67">
    <path clip-path="url(#pbefad25663)" d="M 225.7589 307.584 
L 227.862494 307.584 
L 227.862494 304.097817 
L 225.7589 304.097817 
z
" style="fill:#fa9ba4;opacity:0.2;"/>
   </g>
   <g id="patch_68">
    <path clip-path="url(#pbefad25663)" d="M 228.096226 307.584 
L 230.199819 307.584 
L 230.199819 302.935755 
L 228.096226 302.935755 
z
" style="fill:#fa9ba4;opacity:0.2;"/>
   </g>
   <g id="patch_69">
    <path clip-path="url(#pbefad25663)" d="M 230.433552 307.584 
L 232.537145 307.584 
L 232.537145 307.584 
L 230.433552 307.584 
z
" style="fill:#fa9ba4;opacity:0.2;"/>
   </g>
   <g id="patch_70">
    <path clip-path="url(#pbefad25663)" d="M 232.770878 307.584 
L 234.874471 307.584 
L 234.874471 306.421939 
L 232.770878 306.421939 
z
" style="fill:#fa9ba4;opacity:0.2;"/>
   </g>
   <g id="patch_71">
    <path clip-path="url(#pbefad25663)" d="M 235.108203 307.584 
L 237.211797 307.584 
L 237.211797 298.287511 
L 235.108203 298.287511 
z
" style="fill:#fa9ba4;opacity:0.2;"/>
   </g>
   <g id="patch_72">
    <path clip-path="url(#pbefad25663)" d="M 237.445529 307.584 
L 239.549122 307.584 
L 239.549122 307.584 
L 237.445529 307.584 
z
" style="fill:#fa9ba4;opacity:0.2;"/>
   </g>
   <g id="patch_73">
    <path clip-path="url(#pbefad25663)" d="M 239.782855 307.584 
L 241.886448 307.584 
L 241.886448 292.477205 
L 239.782855 292.477205 
z
" style="fill:#fa9ba4;opacity:0.2;"/>
   </g>
   <g id="patch_74">
    <path clip-path="url(#pbefad25663)" d="M 242.120181 307.584 
L 244.223774 307.584 
L 244.223774 305.259878 
L 242.120181 305.259878 
z
" style="fill:#fa9ba4;opacity:0.2;"/>
   </g>
   <g id="patch_75">
    <path clip-path="url(#pbefad25663)" d="M 244.457506 307.584 
L 246.5611 307.584 
L 246.5611 306.421939 
L 244.457506 306.421939 
z
" style="fill:#fa9ba4;opacity:0.2;"/>
   </g>
   <g id="patch_76">
    <path clip-path="url(#pbefad25663)" d="M 246.794832 307.584 
L 248.898425 307.584 
L 248.898425 304.097817 
L 246.794832 304.097817 
z
" style="fill:#fa9ba4;opacity:0.2;"/>
   </g>
   <g id="patch_77">
    <path clip-path="url(#pbefad25663)" d="M 249.132158 307.584 
L 251.235751 307.584 
L 251.235751 306.421939 
L 249.132158 306.421939 
z
" style="fill:#fa9ba4;opacity:0.2;"/>
   </g>
   <g id="patch_78">
    <path clip-path="url(#pbefad25663)" d="M 251.469484 307.584 
L 253.573077 307.584 
L 253.573077 299.449572 
L 251.469484 299.449572 
z
" style="fill:#fa9ba4;opacity:0.2;"/>
   </g>
   <g id="patch_79">
    <path clip-path="url(#pbefad25663)" d="M 253.806809 307.584 
L 255.910403 307.584 
L 255.910403 307.584 
L 253.806809 307.584 
z
" style="fill:#fa9ba4;opacity:0.2;"/>
   </g>
   <g id="patch_80">
    <path clip-path="url(#pbefad25663)" d="M 256.144135 307.584 
L 258.247728 307.584 
L 258.247728 301.773694 
L 256.144135 301.773694 
z
" style="fill:#fa9ba4;opacity:0.2;"/>
   </g>
   <g id="patch_81">
    <path clip-path="url(#pbefad25663)" d="M 258.481461 307.584 
L 260.585054 307.584 
L 260.585054 305.259878 
L 258.481461 305.259878 
z
" style="fill:#fa9ba4;opacity:0.2;"/>
   </g>
   <g id="patch_82">
    <path clip-path="url(#pbefad25663)" d="M 260.818787 307.584 
L 262.92238 307.584 
L 262.92238 301.773694 
L 260.818787 301.773694 
z
" style="fill:#fa9ba4;opacity:0.2;"/>
   </g>
   <g id="patch_83">
    <path clip-path="url(#pbefad25663)" d="M 263.156112 307.584 
L 265.259705 307.584 
L 265.259705 307.584 
L 263.156112 307.584 
z
" style="fill:#fa9ba4;opacity:0.2;"/>
   </g>
   <g id="patch_84">
    <path clip-path="url(#pbefad25663)" d="M 265.493438 307.584 
L 267.597031 307.584 
L 267.597031 306.421939 
L 265.493438 306.421939 
z
" style="fill:#fa9ba4;opacity:0.2;"/>
   </g>
   <g id="patch_85">
    <path clip-path="url(#pbefad25663)" d="M 267.830764 307.584 
L 269.934357 307.584 
L 269.934357 291.315144 
L 267.830764 291.315144 
z
" style="fill:#fa9ba4;opacity:0.2;"/>
   </g>
   <g id="patch_86">
    <path clip-path="url(#pbefad25663)" d="M 270.16809 307.584 
L 272.271683 307.584 
L 272.271683 302.935755 
L 270.16809 302.935755 
z
" style="fill:#fa9ba4;opacity:0.2;"/>
   </g>
   <g id="patch_87">
    <path clip-path="url(#pbefad25663)" d="M 272.505415 307.584 
L 274.609008 307.584 
L 274.609008 307.584 
L 272.505415 307.584 
z
" style="fill:#fa9ba4;opacity:0.2;"/>
   </g>
   <g id="patch_88">
    <path clip-path="url(#pbefad25663)" d="M 274.842741 307.584 
L 276.946334 307.584 
L 276.946334 305.259878 
L 274.842741 305.259878 
z
" style="fill:#fa9ba4;opacity:0.2;"/>
   </g>
   <g id="patch_89">
    <path clip-path="url(#pbefad25663)" d="M 277.180067 307.584 
L 279.28366 307.584 
L 279.28366 304.097817 
L 277.180067 304.097817 
z
" style="fill:#fa9ba4;opacity:0.2;"/>
   </g>
   <g id="patch_90">
    <path clip-path="url(#pbefad25663)" d="M 279.517392 307.584 
L 281.620986 307.584 
L 281.620986 307.584 
L 279.517392 307.584 
z
" style="fill:#fa9ba4;opacity:0.2;"/>
   </g>
   <g id="patch_91">
    <path clip-path="url(#pbefad25663)" d="M 281.854718 307.584 
L 283.958311 307.584 
L 283.958311 300.611633 
L 281.854718 300.611633 
z
" style="fill:#fa9ba4;opacity:0.2;"/>
   </g>
   <g id="patch_92">
    <path clip-path="url(#pbefad25663)" d="M 284.192044 307.584 
L 286.295637 307.584 
L 286.295637 306.421939 
L 284.192044 306.421939 
z
" style="fill:#fa9ba4;opacity:0.2;"/>
   </g>
   <g id="patch_93">
    <path clip-path="url(#pbefad25663)" d="M 286.52937 307.584 
L 288.632963 307.584 
L 288.632963 307.584 
L 286.52937 307.584 
z
" style="fill:#fa9ba4;opacity:0.2;"/>
   </g>
   <g id="patch_94">
    <path clip-path="url(#pbefad25663)" d="M 288.866695 307.584 
L 290.970289 307.584 
L 290.970289 307.584 
L 288.866695 307.584 
z
" style="fill:#fa9ba4;opacity:0.2;"/>
   </g>
   <g id="patch_95">
    <path clip-path="url(#pbefad25663)" d="M 291.204021 307.584 
L 293.307614 307.584 
L 293.307614 307.584 
L 291.204021 307.584 
z
" style="fill:#fa9ba4;opacity:0.2;"/>
   </g>
   <g id="patch_96">
    <path clip-path="url(#pbefad25663)" d="M 293.541347 307.584 
L 295.64494 307.584 
L 295.64494 306.421939 
L 293.541347 306.421939 
z
" style="fill:#fa9ba4;opacity:0.2;"/>
   </g>
   <g id="patch_97">
    <path clip-path="url(#pbefad25663)" d="M 295.878673 307.584 
L 297.982266 307.584 
L 297.982266 307.584 
L 295.878673 307.584 
z
" style="fill:#fa9ba4;opacity:0.2;"/>
   </g>
   <g id="patch_98">
    <path clip-path="url(#pbefad25663)" d="M 298.215998 307.584 
L 300.319592 307.584 
L 300.319592 306.421939 
L 298.215998 306.421939 
z
" style="fill:#fa9ba4;opacity:0.2;"/>
   </g>
   <g id="patch_99">
    <path clip-path="url(#pbefad25663)" d="M 300.553324 307.584 
L 302.656917 307.584 
L 302.656917 305.259878 
L 300.553324 305.259878 
z
" style="fill:#fa9ba4;opacity:0.2;"/>
   </g>
   <g id="patch_100">
    <path clip-path="url(#pbefad25663)" d="M 302.89065 307.584 
L 304.994243 307.584 
L 304.994243 306.421939 
L 302.89065 306.421939 
z
" style="fill:#fa9ba4;opacity:0.2;"/>
   </g>
   <g id="patch_101">
    <path clip-path="url(#pbefad25663)" d="M 305.227976 307.584 
L 307.331569 307.584 
L 307.331569 305.259878 
L 305.227976 305.259878 
z
" style="fill:#fa9ba4;opacity:0.2;"/>
   </g>
   <g id="patch_102">
    <path clip-path="url(#pbefad25663)" d="M 307.565301 307.584 
L 309.668895 307.584 
L 309.668895 307.584 
L 307.565301 307.584 
z
" style="fill:#fa9ba4;opacity:0.2;"/>
   </g>
   <g id="patch_103">
    <path clip-path="url(#pbefad25663)" d="M 309.902627 307.584 
L 312.00622 307.584 
L 312.00622 306.421939 
L 309.902627 306.421939 
z
" style="fill:#fa9ba4;opacity:0.2;"/>
   </g>
   <g id="patch_104">
    <path clip-path="url(#pbefad25663)" d="M 312.239953 307.584 
L 314.343546 307.584 
L 314.343546 306.421939 
L 312.239953 306.421939 
z
" style="fill:#fa9ba4;opacity:0.2;"/>
   </g>
   <g id="patch_105">
    <path clip-path="url(#pbefad25663)" d="M 314.577279 307.584 
L 316.680872 307.584 
L 316.680872 300.611633 
L 314.577279 300.611633 
z
" style="fill:#fa9ba4;opacity:0.2;"/>
   </g>
   <g id="patch_106">
    <path clip-path="url(#pbefad25663)" d="M 316.914604 307.584 
L 319.018198 307.584 
L 319.018198 304.097817 
L 316.914604 304.097817 
z
" style="fill:#fa9ba4;opacity:0.2;"/>
   </g>
   <g id="patch_107">
    <path clip-path="url(#pbefad25663)" d="M 319.25193 307.584 
L 321.355523 307.584 
L 321.355523 295.963389 
L 319.25193 295.963389 
z
" style="fill:#fa9ba4;opacity:0.2;"/>
   </g>
   <g id="patch_108">
    <path clip-path="url(#pbefad25663)" d="M 321.589256 307.584 
L 323.692849 307.584 
L 323.692849 302.935755 
L 321.589256 302.935755 
z
" style="fill:#fa9ba4;opacity:0.2;"/>
   </g>
   <g id="patch_109">
    <path clip-path="url(#pbefad25663)" d="M 323.926582 307.584 
L 326.030175 307.584 
L 326.030175 306.421939 
L 323.926582 306.421939 
z
" style="fill:#fa9ba4;opacity:0.2;"/>
   </g>
   <g id="patch_110">
    <path clip-path="url(#pbefad25663)" d="M 326.263907 307.584 
L 328.3675 307.584 
L 328.3675 300.611633 
L 326.263907 300.611633 
z
" style="fill:#fa9ba4;opacity:0.2;"/>
   </g>
   <g id="patch_111">
    <path clip-path="url(#pbefad25663)" d="M 328.601233 307.584 
L 330.704826 307.584 
L 330.704826 306.421939 
L 328.601233 306.421939 
z
" style="fill:#fa9ba4;opacity:0.2;"/>
   </g>
   <g id="patch_112">
    <path clip-path="url(#pbefad25663)" d="M 330.938559 307.584 
L 333.042152 307.584 
L 333.042152 298.287511 
L 330.938559 298.287511 
z
" style="fill:#fa9ba4;opacity:0.2;"/>
   </g>
   <g id="patch_113">
    <path clip-path="url(#pbefad25663)" d="M 333.275885 307.584 
L 335.379478 307.584 
L 335.379478 298.287511 
L 333.275885 298.287511 
z
" style="fill:#fa9ba4;opacity:0.2;"/>
   </g>
   <g id="patch_114">
    <path clip-path="url(#pbefad25663)" d="M 335.61321 307.584 
L 337.716803 307.584 
L 337.716803 283.180716 
L 335.61321 283.180716 
z
" style="fill:#fa9ba4;opacity:0.2;"/>
   </g>
   <g id="patch_115">
    <path clip-path="url(#pbefad25663)" d="M 337.950536 307.584 
L 340.054129 307.584 
L 340.054129 293.639266 
L 337.950536 293.639266 
z
" style="fill:#fa9ba4;opacity:0.2;"/>
   </g>
   <g id="patch_116">
    <path clip-path="url(#pbefad25663)" d="M 340.287862 307.584 
L 342.391455 307.584 
L 342.391455 288.991022 
L 340.287862 288.991022 
z
" style="fill:#fa9ba4;opacity:0.2;"/>
   </g>
   <g id="patch_117">
    <path clip-path="url(#pbefad25663)" d="M 342.625188 307.584 
L 344.728781 307.584 
L 344.728781 251.805066 
L 342.625188 251.805066 
z
" style="fill:#fa9ba4;opacity:0.2;"/>
   </g>
   <g id="patch_118">
    <path clip-path="url(#pbefad25663)" d="M 344.962513 307.584 
L 347.066106 307.584 
L 347.066106 187.891703 
L 344.962513 187.891703 
z
" style="fill:#fa9ba4;opacity:0.2;"/>
   </g>
   <g id="patch_119">
    <path clip-path="url(#pbefad25663)" d="M 347.299839 307.584 
L 349.403432 307.584 
L 349.403432 97.250934 
L 347.299839 97.250934 
z
" style="fill:#fa9ba4;opacity:0.2;"/>
   </g>
   <g id="patch_120">
    <path clip-path="url(#pbefad25663)" d="M 349.637165 307.584 
L 351.740758 307.584 
L 351.740758 200.674376 
L 349.637165 200.674376 
z
" style="fill:#fa9ba4;opacity:0.2;"/>
   </g>
   <g id="patch_121">
    <path clip-path="url(#pbefad25663)" d="M 351.97449 307.584 
L 354.078084 307.584 
L 354.078084 194.86407 
L 351.97449 194.86407 
z
" style="fill:#fa9ba4;opacity:0.2;"/>
   </g>
   <g id="patch_122">
    <path clip-path="url(#pbefad25663)" d="M 354.311816 307.584 
L 356.415409 307.584 
L 356.415409 223.915598 
L 354.311816 223.915598 
z
" style="fill:#fa9ba4;opacity:0.2;"/>
   </g>
   <g id="patch_123">
    <path clip-path="url(#pbefad25663)" d="M 356.649142 307.584 
L 358.752735 307.584 
L 358.752735 193.702009 
L 356.649142 193.702009 
z
" style="fill:#fa9ba4;opacity:0.2;"/>
   </g>
   <g id="patch_124">
    <path clip-path="url(#pbefad25663)" d="M 358.986468 307.584 
L 361.090061 307.584 
L 361.090061 178.595214 
L 358.986468 178.595214 
z
" style="fill:#fa9ba4;opacity:0.2;"/>
   </g>
   <g id="patch_125">
    <path clip-path="url(#pbefad25663)" d="M 361.323793 307.584 
L 363.427387 307.584 
L 363.427387 190.215825 
L 361.323793 190.215825 
z
" style="fill:#fa9ba4;opacity:0.2;"/>
   </g>
   <g id="patch_126">
    <path clip-path="url(#pbefad25663)" d="M 363.661119 307.584 
L 365.764712 307.584 
L 365.764712 41.472 
L 363.661119 41.472 
z
" style="fill:#fa9ba4;opacity:0.2;"/>
   </g>
   <g id="patch_127">
    <path clip-path="url(#pbefad25663)" d="M 365.998445 307.584 
L 368.102038 307.584 
L 368.102038 191.377886 
L 365.998445 191.377886 
z
" style="fill:#fa9ba4;opacity:0.2;"/>
   </g>
   <g id="patch_128">
    <path clip-path="url(#pbefad25663)" d="M 368.335771 307.584 
L 370.439364 307.584 
L 370.439364 211.132926 
L 368.335771 211.132926 
z
" style="fill:#fa9ba4;opacity:0.2;"/>
   </g>
   <g id="patch_129">
    <path clip-path="url(#pbefad25663)" d="M 370.673096 307.584 
L 372.77669 307.584 
L 372.77669 214.619109 
L 370.673096 214.619109 
z
" style="fill:#fa9ba4;opacity:0.2;"/>
   </g>
   <g id="patch_130">
    <path clip-path="url(#pbefad25663)" d="M 373.010422 307.584 
L 375.114015 307.584 
L 375.114015 194.86407 
L 373.010422 194.86407 
z
" style="fill:#fa9ba4;opacity:0.2;"/>
   </g>
   <g id="patch_131">
    <path clip-path="url(#pbefad25663)" d="M 375.347748 307.584 
L 377.451341 307.584 
L 377.451341 161.164297 
L 375.347748 161.164297 
z
" style="fill:#fa9ba4;opacity:0.2;"/>
   </g>
   <g id="patch_132">
    <path clip-path="url(#pbefad25663)" d="M 377.685074 307.584 
L 379.788667 307.584 
L 379.788667 165.812541 
L 377.685074 165.812541 
z
" style="fill:#fa9ba4;opacity:0.2;"/>
   </g>
   <g id="patch_133">
    <path clip-path="url(#pbefad25663)" d="M 380.022399 307.584 
L 382.125993 307.584 
L 382.125993 215.78117 
L 380.022399 215.78117 
z
" style="fill:#fa9ba4;opacity:0.2;"/>
   </g>
   <g id="patch_134">
    <path clip-path="url(#pbefad25663)" d="M 382.359725 307.584 
L 384.463318 307.584 
L 384.463318 185.567581 
L 382.359725 185.567581 
z
" style="fill:#fa9ba4;opacity:0.2;"/>
   </g>
   <g id="patch_135">
    <path clip-path="url(#pbefad25663)" d="M 384.697051 307.584 
L 386.800644 307.584 
L 386.800644 211.132926 
L 384.697051 211.132926 
z
" style="fill:#fa9ba4;opacity:0.2;"/>
   </g>
   <g id="patch_136">
    <path clip-path="url(#pbefad25663)" d="M 387.034377 307.584 
L 389.13797 307.584 
L 389.13797 177.433153 
L 387.034377 177.433153 
z
" style="fill:#fa9ba4;opacity:0.2;"/>
   </g>
   <g id="patch_137">
    <path clip-path="url(#pbefad25663)" d="M 389.371702 307.584 
L 391.475296 307.584 
L 391.475296 175.109031 
L 389.371702 175.109031 
z
" style="fill:#fa9ba4;opacity:0.2;"/>
   </g>
   <g id="patch_138">
    <path clip-path="url(#pbefad25663)" d="M 391.709028 307.584 
L 393.812621 307.584 
L 393.812621 154.19193 
L 391.709028 154.19193 
z
" style="fill:#fa9ba4;opacity:0.2;"/>
   </g>
   <g id="patch_139">
    <path clip-path="url(#pbefad25663)" d="M 394.046354 307.584 
L 396.149947 307.584 
L 396.149947 307.584 
L 394.046354 307.584 
z
" style="fill:#fa9ba4;opacity:0.2;"/>
   </g>
   <g id="patch_140">
    <path clip-path="url(#pbefad25663)" d="M 396.38368 307.584 
L 398.487273 307.584 
L 398.487273 307.584 
L 396.38368 307.584 
z
" style="fill:#fa9ba4;opacity:0.2;"/>
   </g>
   <g id="matplotlib.axis_1"/>
   <g id="matplotlib.axis_2"/>
   <g id="PolyCollection_1">
    <defs>
     <path d="M 367.050242 -172.151057 
L 367.050242 -38.016 
L 369.387567 -38.016 
L 371.724893 -38.016 
L 374.062219 -38.016 
L 376.399544 -38.016 
L 378.73687 -38.016 
L 381.074196 -38.016 
L 383.411522 -38.016 
L 385.748847 -38.016 
L 388.086173 -38.016 
L 390.423499 -38.016 
L 392.760825 -38.016 
L 395.09815 -38.016 
L 397.435476 -38.016 
L 397.435476 -128.656769 
L 397.435476 -128.656769 
L 395.09815 -141.771459 
L 392.760825 -162.024524 
L 390.423499 -161.028472 
L 388.086173 -158.206323 
L 385.748847 -152.894044 
L 383.411522 -152.894044 
L 381.074196 -152.064 
L 378.73687 -176.96531 
L 376.399544 -173.479127 
L 374.062219 -170.988996 
L 371.724893 -171.155004 
L 369.387567 -169.826934 
L 367.050242 -172.151057 
z
" id="m589cb0950f" style="stroke:#dc3545;stroke-opacity:0.5;"/>
    </defs>
    <g clip-path="url(#pbefad25663)">
     <use style="fill:#dc3545;fill-opacity:0.5;stroke:#dc3545;stroke-opacity:0.5;" x="0" xlink:href="#m589cb0950f" y="345.6"/>
    </g>
   </g>
   <g id="PolyCollection_2">
    <defs>
     <path d="M 88.908478 -47.478498 
L 88.908478 -38.016 
L 91.245804 -38.016 
L 93.58313 -38.016 
L 95.920456 -38.016 
L 98.257781 -38.016 
L 100.595107 -38.016 
L 102.932433 -38.016 
L 105.269758 -38.016 
L 107.607084 -38.016 
L 109.94441 -38.016 
L 112.281736 -38.016 
L 114.619061 -38.016 
L 116.956387 -38.016 
L 119.293713 -38.016 
L 121.631039 -38.016 
L 123.968364 -38.016 
L 126.30569 -38.016 
L 128.643016 -38.016 
L 130.980342 -38.016 
L 133.317667 -38.016 
L 135.654993 -38.016 
L 137.992319 -38.016 
L 140.329645 -38.016 
L 142.66697 -38.016 
L 145.004296 -38.016 
L 147.341622 -38.016 
L 149.678948 -38.016 
L 152.016273 -38.016 
L 154.353599 -38.016 
L 156.690925 -38.016 
L 159.028251 -38.016 
L 161.365576 -38.016 
L 163.702902 -38.016 
L 166.040228 -38.016 
L 168.377554 -38.016 
L 170.714879 -38.016 
L 173.052205 -38.016 
L 175.389531 -38.016 
L 177.726856 -38.016 
L 180.064182 -38.016 
L 182.401508 -38.016 
L 184.738834 -38.016 
L 187.076159 -38.016 
L 189.413485 -38.016 
L 191.750811 -38.016 
L 194.088137 -38.016 
L 196.425462 -38.016 
L 198.762788 -38.016 
L 201.100114 -38.016 
L 203.43744 -38.016 
L 205.774765 -38.016 
L 208.112091 -38.016 
L 210.449417 -38.016 
L 212.786743 -38.016 
L 215.124068 -38.016 
L 217.461394 -38.016 
L 219.79872 -38.016 
L 222.136046 -38.016 
L 224.473371 -38.016 
L 226.810697 -38.016 
L 229.148023 -38.016 
L 231.485349 -38.016 
L 233.822674 -38.016 
L 236.16 -38.016 
L 238.497326 -38.016 
L 240.834651 -38.016 
L 243.171977 -38.016 
L 245.509303 -38.016 
L 247.846629 -38.016 
L 250.183954 -38.016 
L 252.52128 -38.016 
L 254.858606 -38.016 
L 257.195932 -38.016 
L 259.533257 -38.016 
L 261.870583 -38.016 
L 264.207909 -38.016 
L 266.545235 -38.016 
L 268.88256 -38.016 
L 271.219886 -38.016 
L 273.557212 -38.016 
L 275.894538 -38.016 
L 278.231863 -38.016 
L 280.569189 -38.016 
L 282.906515 -38.016 
L 285.243841 -38.016 
L 287.581166 -38.016 
L 289.918492 -38.016 
L 292.255818 -38.016 
L 294.593144 -38.016 
L 296.930469 -38.016 
L 299.267795 -38.016 
L 301.605121 -38.016 
L 303.942446 -38.016 
L 306.279772 -38.016 
L 308.617098 -38.016 
L 310.954424 -38.016 
L 313.291749 -38.016 
L 315.629075 -38.016 
L 317.966401 -38.016 
L 320.303727 -38.016 
L 322.641052 -38.016 
L 324.978378 -38.016 
L 327.315704 -38.016 
L 329.65303 -38.016 
L 331.990355 -38.016 
L 334.327681 -38.016 
L 336.665007 -38.016 
L 339.002333 -38.016 
L 341.339658 -38.016 
L 343.676984 -38.016 
L 346.01431 -38.016 
L 348.351636 -38.016 
L 350.688961 -38.016 
L 353.026287 -38.016 
L 355.363613 -38.016 
L 357.700939 -38.016 
L 360.038264 -38.016 
L 362.37559 -38.016 
L 364.712916 -38.016 
L 367.050242 -38.016 
L 367.050242 -172.151057 
L 367.050242 -172.151057 
L 364.712916 -170.822987 
L 362.37559 -162.854568 
L 360.038264 -163.186585 
L 357.700939 -152.728035 
L 355.363613 -139.115319 
L 353.026287 -129.154795 
L 350.688961 -116.538131 
L 348.351636 -102.593397 
L 346.01431 -73.873886 
L 343.676984 -56.940996 
L 341.339658 -49.968629 
L 339.002333 -47.478498 
L 336.665007 -46.150428 
L 334.327681 -44.324332 
L 331.990355 -43.494288 
L 329.65303 -43.162271 
L 327.315704 -43.162271 
L 324.978378 -42.332227 
L 322.641052 -42.166218 
L 320.303727 -41.834201 
L 317.966401 -40.340122 
L 315.629075 -40.174114 
L 313.291749 -39.34407 
L 310.954424 -39.178061 
L 308.617098 -39.178061 
L 306.279772 -39.178061 
L 303.942446 -38.846044 
L 301.605121 -38.680035 
L 299.267795 -38.514026 
L 296.930469 -39.34407 
L 294.593144 -39.34407 
L 292.255818 -39.676087 
L 289.918492 -40.008105 
L 287.581166 -40.008105 
L 285.243841 -40.67214 
L 282.906515 -42.830253 
L 280.569189 -42.00021 
L 278.231863 -42.00021 
L 275.894538 -42.332227 
L 273.557212 -42.332227 
L 271.219886 -43.162271 
L 268.88256 -42.498236 
L 266.545235 -41.336175 
L 264.207909 -41.336175 
L 261.870583 -41.834201 
L 259.533257 -41.170166 
L 257.195932 -41.170166 
L 254.858606 -42.498236 
L 252.52128 -42.498236 
L 250.183954 -42.664245 
L 247.846629 -42.664245 
L 245.509303 -42.166218 
L 243.171977 -42.664245 
L 240.834651 -42.830253 
L 238.497326 -41.170166 
L 236.16 -41.170166 
L 233.822674 -40.506131 
L 231.485349 -42.00021 
L 229.148023 -42.166218 
L 226.810697 -41.668192 
L 224.473371 -42.664245 
L 222.136046 -42.996262 
L 219.79872 -43.328279 
L 217.461394 -43.162271 
L 215.124068 -41.502183 
L 212.786743 -41.834201 
L 210.449417 -43.328279 
L 208.112091 -42.332227 
L 205.774765 -41.668192 
L 203.43744 -41.834201 
L 201.100114 -41.336175 
L 198.762788 -42.332227 
L 196.425462 -42.166218 
L 194.088137 -41.502183 
L 191.750811 -41.668192 
L 189.413485 -42.166218 
L 187.076159 -42.166218 
L 184.738834 -42.830253 
L 182.401508 -42.00021 
L 180.064182 -43.494288 
L 177.726856 -42.498236 
L 175.389531 -42.00021 
L 173.052205 -41.668192 
L 170.714879 -41.502183 
L 168.377554 -41.170166 
L 166.040228 -41.336175 
L 163.702902 -42.664245 
L 161.365576 -43.660297 
L 159.028251 -45.486393 
L 156.690925 -47.478498 
L 154.353599 -50.300646 
L 152.016273 -53.454812 
L 149.678948 -61.423231 
L 147.341622 -65.57345 
L 145.004296 -70.055686 
L 142.66697 -72.545817 
L 140.329645 -84.664454 
L 137.992319 -81.676297 
L 135.654993 -84.996472 
L 133.317667 -89.478707 
L 130.980342 -87.486603 
L 128.643016 -90.47476 
L 126.30569 -88.648664 
L 123.968364 -92.134847 
L 121.631039 -97.281118 
L 119.293713 -92.300856 
L 116.956387 -80.182218 
L 114.619061 -76.198009 
L 112.281736 -68.561607 
L 109.94441 -66.237485 
L 107.607084 -48.972576 
L 105.269758 -44.988367 
L 102.932433 -43.494288 
L 100.595107 -48.47455 
L 98.257781 -47.810515 
L 95.920456 -47.810515 
L 93.58313 -48.806568 
L 91.245804 -48.806568 
L 88.908478 -47.478498 
z
" id="mb4909fba67" style="stroke:#fa9ba4;stroke-opacity:0.3;"/>
    </defs>
    <g clip-path="url(#pbefad25663)">
     <use style="fill:#fa9ba4;fill-opacity:0.3;stroke:#fa9ba4;stroke-opacity:0.3;" x="0" xlink:href="#mb4909fba67" y="345.6"/>
    </g>
   </g>
   <g id="line2d_1">
    <path clip-path="url(#pbefad25663)" d="M 88.908478 298.121502 
L 91.245804 296.793432 
L 93.58313 296.793432 
L 95.920456 297.789485 
L 98.257781 297.789485 
L 100.595107 297.12545 
L 102.932433 302.105712 
L 105.269758 300.611633 
L 107.607084 296.627424 
L 109.94441 279.362515 
L 112.281736 277.038393 
L 114.619061 269.401991 
L 116.956387 265.417782 
L 119.293713 253.299144 
L 121.631039 248.318882 
L 123.968364 253.465153 
L 126.30569 256.951336 
L 128.643016 255.12524 
L 130.980342 258.113397 
L 133.317667 256.121293 
L 135.654993 260.603528 
L 137.992319 263.923703 
L 140.329645 260.935546 
L 142.66697 273.054183 
L 145.004296 275.544314 
L 147.341622 280.02655 
L 149.678948 284.176769 
L 152.016273 292.145188 
L 154.353599 295.299354 
L 156.690925 298.121502 
L 159.028251 300.113607 
L 161.365576 301.939703 
L 163.702902 302.935755 
L 166.040228 304.263825 
L 168.377554 304.429834 
L 170.714879 304.097817 
L 173.052205 303.931808 
L 175.389531 303.59979 
L 177.726856 303.101764 
L 180.064182 302.105712 
L 182.401508 303.59979 
L 184.738834 302.769747 
L 187.076159 303.433782 
L 189.413485 303.433782 
L 191.750811 303.931808 
L 194.088137 304.097817 
L 196.425462 303.433782 
L 198.762788 303.267773 
L 201.100114 304.263825 
L 203.43744 303.765799 
L 205.774765 303.931808 
L 208.112091 303.267773 
L 210.449417 302.271721 
L 212.786743 303.765799 
L 215.124068 304.097817 
L 217.461394 302.437729 
L 219.79872 302.271721 
L 224.473371 302.935755 
L 226.810697 303.931808 
L 229.148023 303.433782 
L 231.485349 303.59979 
L 233.822674 305.093869 
L 236.16 304.429834 
L 238.497326 304.429834 
L 240.834651 302.769747 
L 243.171977 302.935755 
L 245.509303 303.433782 
L 247.846629 302.935755 
L 250.183954 302.935755 
L 252.52128 303.101764 
L 254.858606 303.101764 
L 257.195932 304.429834 
L 259.533257 304.429834 
L 261.870583 303.765799 
L 264.207909 304.263825 
L 266.545235 304.263825 
L 268.88256 303.101764 
L 271.219886 302.437729 
L 273.557212 303.267773 
L 275.894538 303.267773 
L 278.231863 303.59979 
L 280.569189 303.59979 
L 282.906515 302.769747 
L 285.243841 304.92786 
L 287.581166 305.591895 
L 289.918492 305.591895 
L 294.593144 306.25593 
L 296.930469 306.25593 
L 299.267795 307.085974 
L 303.942446 306.753956 
L 306.279772 306.421939 
L 310.954424 306.421939 
L 313.291749 306.25593 
L 315.629075 305.425886 
L 317.966401 305.259878 
L 320.303727 303.765799 
L 322.641052 303.433782 
L 324.978378 303.267773 
L 327.315704 302.437729 
L 329.65303 302.437729 
L 331.990355 302.105712 
L 334.327681 301.275668 
L 336.665007 299.449572 
L 339.002333 298.121502 
L 341.339658 295.631371 
L 343.676984 288.659004 
L 346.01431 271.726114 
L 348.351636 243.006603 
L 350.688961 229.061869 
L 353.026287 216.445205 
L 355.363613 206.484681 
L 357.700939 192.871965 
L 360.038264 182.413415 
L 362.37559 182.745432 
L 364.712916 174.777013 
L 367.050242 173.448943 
L 369.387567 175.773066 
L 371.724893 174.444996 
L 374.062219 174.611004 
L 376.399544 172.120873 
L 378.73687 168.63469 
L 381.074196 193.536 
L 383.411522 192.705956 
L 385.748847 192.705956 
L 388.086173 187.393677 
L 390.423499 184.571528 
L 392.760825 183.575476 
L 395.09815 203.828541 
L 397.435476 216.943231 
L 397.435476 216.943231 
" style="fill:none;stroke:#fa9ba4;stroke-linecap:square;stroke-width:2;"/>
   </g>
   <g id="line2d_2">
    <path clip-path="url(#pbefad25663)" d="M 367.050242 173.448943 
L 369.387567 175.773066 
L 371.724893 174.444996 
L 374.062219 174.611004 
L 376.399544 172.120873 
L 378.73687 168.63469 
L 381.074196 193.536 
L 383.411522 192.705956 
L 385.748847 192.705956 
L 388.086173 187.393677 
L 390.423499 184.571528 
L 392.760825 183.575476 
L 395.09815 203.828541 
L 397.435476 216.943231 
" style="fill:none;stroke:#dc3545;stroke-linecap:square;stroke-width:2;"/>
   </g>
  </g>
 </g>
 <defs>
  <clipPath id="pbefad25663">
   <rect height="266.112" width="357.12" x="57.6" y="41.472"/>
  </clipPath>
 </defs>
</svg>
