<?xml version="1.0" encoding="utf-8" standalone="no"?>
<!DOCTYPE svg PUBLIC "-//W3C//DTD SVG 1.1//EN"
  "http://www.w3.org/Graphics/SVG/1.1/DTD/svg11.dtd">
<!-- Created with matplotlib (https://matplotlib.org/) -->
<svg height="345.6pt" version="1.1" viewBox="0 0 460.8 345.6" width="460.8pt" xmlns="http://www.w3.org/2000/svg" xmlns:xlink="http://www.w3.org/1999/xlink">
 <metadata>
  <rdf:RDF xmlns:cc="http://creativecommons.org/ns#" xmlns:dc="http://purl.org/dc/elements/1.1/" xmlns:rdf="http://www.w3.org/1999/02/22-rdf-syntax-ns#">
   <cc:Work>
    <dc:type rdf:resource="http://purl.org/dc/dcmitype/StillImage"/>
    <dc:date>2021-01-19T13:25:53.166822</dc:date>
    <dc:format>image/svg+xml</dc:format>
    <dc:creator>
     <cc:Agent>
      <dc:title>Matplotlib v3.3.3, https://matplotlib.org/</dc:title>
     </cc:Agent>
    </dc:creator>
   </cc:Work>
  </rdf:RDF>
 </metadata>
 <defs>
  <style type="text/css">*{stroke-linecap:butt;stroke-linejoin:round;}</style>
 </defs>
 <g id="figure_1">
  <g id="patch_1">
   <path d="M 0 345.6 
L 460.8 345.6 
L 460.8 0 
L 0 0 
z
" style="fill:none;"/>
  </g>
  <g id="axes_1">
   <g id="patch_2">
    <path clip-path="url(#pafadc382ea)" d="M 73.832727 307.584 
L 82.204908 307.584 
L 82.204908 307.584 
L 73.832727 307.584 
z
" style="fill:#fa9ba4;opacity:0.2;"/>
   </g>
   <g id="patch_3">
    <path clip-path="url(#pafadc382ea)" d="M 83.13515 307.584 
L 91.50733 307.584 
L 91.50733 297.728 
L 83.13515 297.728 
z
" style="fill:#fa9ba4;opacity:0.2;"/>
   </g>
   <g id="patch_4">
    <path clip-path="url(#pafadc382ea)" d="M 92.437572 307.584 
L 100.809753 307.584 
L 100.809753 287.872 
L 92.437572 287.872 
z
" style="fill:#fa9ba4;opacity:0.2;"/>
   </g>
   <g id="patch_5">
    <path clip-path="url(#pafadc382ea)" d="M 101.739995 307.584 
L 110.112175 307.584 
L 110.112175 295.264 
L 101.739995 295.264 
z
" style="fill:#fa9ba4;opacity:0.2;"/>
   </g>
   <g id="patch_6">
    <path clip-path="url(#pafadc382ea)" d="M 111.042417 307.584 
L 119.414598 307.584 
L 119.414598 297.728 
L 111.042417 297.728 
z
" style="fill:#fa9ba4;opacity:0.2;"/>
   </g>
   <g id="patch_7">
    <path clip-path="url(#pafadc382ea)" d="M 120.34484 307.584 
L 128.71702 307.584 
L 128.71702 223.808 
L 120.34484 223.808 
z
" style="fill:#fa9ba4;opacity:0.2;"/>
   </g>
   <g id="patch_8">
    <path clip-path="url(#pafadc382ea)" d="M 129.647262 307.584 
L 138.019443 307.584 
L 138.019443 302.656 
L 129.647262 302.656 
z
" style="fill:#fa9ba4;opacity:0.2;"/>
   </g>
   <g id="patch_9">
    <path clip-path="url(#pafadc382ea)" d="M 138.949685 307.584 
L 147.321865 307.584 
L 147.321865 287.872 
L 138.949685 287.872 
z
" style="fill:#fa9ba4;opacity:0.2;"/>
   </g>
   <g id="patch_10">
    <path clip-path="url(#pafadc382ea)" d="M 148.252107 307.584 
L 156.624288 307.584 
L 156.624288 297.728 
L 148.252107 297.728 
z
" style="fill:#fa9ba4;opacity:0.2;"/>
   </g>
   <g id="patch_11">
    <path clip-path="url(#pafadc382ea)" d="M 157.55453 307.584 
L 165.92671 307.584 
L 165.92671 302.656 
L 157.55453 302.656 
z
" style="fill:#fa9ba4;opacity:0.2;"/>
   </g>
   <g id="patch_12">
    <path clip-path="url(#pafadc382ea)" d="M 166.856952 307.584 
L 175.229133 307.584 
L 175.229133 295.264 
L 166.856952 295.264 
z
" style="fill:#fa9ba4;opacity:0.2;"/>
   </g>
   <g id="patch_13">
    <path clip-path="url(#pafadc382ea)" d="M 176.159375 307.584 
L 184.531555 307.584 
L 184.531555 287.872 
L 176.159375 287.872 
z
" style="fill:#fa9ba4;opacity:0.2;"/>
   </g>
   <g id="patch_14">
    <path clip-path="url(#pafadc382ea)" d="M 185.461797 307.584 
L 193.833978 307.584 
L 193.833978 297.728 
L 185.461797 297.728 
z
" style="fill:#fa9ba4;opacity:0.2;"/>
   </g>
   <g id="patch_15">
    <path clip-path="url(#pafadc382ea)" d="M 194.76422 307.584 
L 203.1364 307.584 
L 203.1364 280.48 
L 194.76422 280.48 
z
" style="fill:#fa9ba4;opacity:0.2;"/>
   </g>
   <g id="patch_16">
    <path clip-path="url(#pafadc382ea)" d="M 204.066642 307.584 
L 212.438823 307.584 
L 212.438823 228.736 
L 204.066642 228.736 
z
" style="fill:#fa9ba4;opacity:0.2;"/>
   </g>
   <g id="patch_17">
    <path clip-path="url(#pafadc382ea)" d="M 213.369065 307.584 
L 221.741245 307.584 
L 221.741245 41.472 
L 213.369065 41.472 
z
" style="fill:#fa9ba4;opacity:0.2;"/>
   </g>
   <g id="patch_18">
    <path clip-path="url(#pafadc382ea)" d="M 222.671487 307.584 
L 231.043668 307.584 
L 231.043668 268.16 
L 222.671487 268.16 
z
" style="fill:#fa9ba4;opacity:0.2;"/>
   </g>
   <g id="patch_19">
    <path clip-path="url(#pafadc382ea)" d="M 231.97391 307.584 
L 240.34609 307.584 
L 240.34609 181.92 
L 231.97391 181.92 
z
" style="fill:#fa9ba4;opacity:0.2;"/>
   </g>
   <g id="patch_20">
    <path clip-path="url(#pafadc382ea)" d="M 241.276332 307.584 
L 249.648513 307.584 
L 249.648513 228.736 
L 241.276332 228.736 
z
" style="fill:#fa9ba4;opacity:0.2;"/>
   </g>
   <g id="patch_21">
    <path clip-path="url(#pafadc382ea)" d="M 250.578755 307.584 
L 258.950935 307.584 
L 258.950935 117.856 
L 250.578755 117.856 
z
" style="fill:#fa9ba4;opacity:0.2;"/>
   </g>
   <g id="patch_22">
    <path clip-path="url(#pafadc382ea)" d="M 259.881177 307.584 
L 268.253358 307.584 
L 268.253358 206.56 
L 259.881177 206.56 
z
" style="fill:#fa9ba4;opacity:0.2;"/>
   </g>
   <g id="patch_23">
    <path clip-path="url(#pafadc382ea)" d="M 269.1836 307.584 
L 277.55578 307.584 
L 277.55578 305.12 
L 269.1836 305.12 
z
" style="fill:#fa9ba4;opacity:0.2;"/>
   </g>
   <g id="patch_24">
    <path clip-path="url(#pafadc382ea)" d="M 278.486022 307.584 
L 286.858203 307.584 
L 286.858203 93.216 
L 278.486022 93.216 
z
" style="fill:#fa9ba4;opacity:0.2;"/>
   </g>
   <g id="patch_25">
    <path clip-path="url(#pafadc382ea)" d="M 287.788445 307.584 
L 296.160625 307.584 
L 296.160625 241.056 
L 287.788445 241.056 
z
" style="fill:#fa9ba4;opacity:0.2;"/>
   </g>
   <g id="patch_26">
    <path clip-path="url(#pafadc382ea)" d="M 297.090867 307.584 
L 305.463048 307.584 
L 305.463048 226.272 
L 297.090867 226.272 
z
" style="fill:#fa9ba4;opacity:0.2;"/>
   </g>
   <g id="patch_27">
    <path clip-path="url(#pafadc382ea)" d="M 306.39329 307.584 
L 314.76547 307.584 
L 314.76547 199.168 
L 306.39329 199.168 
z
" style="fill:#fa9ba4;opacity:0.2;"/>
   </g>
   <g id="patch_28">
    <path clip-path="url(#pafadc382ea)" d="M 315.695712 307.584 
L 324.067893 307.584 
L 324.067893 184.384 
L 315.695712 184.384 
z
" style="fill:#fa9ba4;opacity:0.2;"/>
   </g>
   <g id="patch_29">
    <path clip-path="url(#pafadc382ea)" d="M 324.998135 307.584 
L 333.370315 307.584 
L 333.370315 255.84 
L 324.998135 255.84 
z
" style="fill:#fa9ba4;opacity:0.2;"/>
   </g>
   <g id="patch_30">
    <path clip-path="url(#pafadc382ea)" d="M 334.300557 307.584 
L 342.672738 307.584 
L 342.672738 260.768 
L 334.300557 260.768 
z
" style="fill:#fa9ba4;opacity:0.2;"/>
   </g>
   <g id="patch_31">
    <path clip-path="url(#pafadc382ea)" d="M 343.60298 307.584 
L 351.97516 307.584 
L 351.97516 273.088 
L 343.60298 273.088 
z
" style="fill:#fa9ba4;opacity:0.2;"/>
   </g>
   <g id="patch_32">
    <path clip-path="url(#pafadc382ea)" d="M 352.905402 307.584 
L 361.277583 307.584 
L 361.277583 278.016 
L 352.905402 278.016 
z
" style="fill:#fa9ba4;opacity:0.2;"/>
   </g>
   <g id="patch_33">
    <path clip-path="url(#pafadc382ea)" d="M 362.207825 307.584 
L 370.580005 307.584 
L 370.580005 292.8 
L 362.207825 292.8 
z
" style="fill:#fa9ba4;opacity:0.2;"/>
   </g>
   <g id="patch_34">
    <path clip-path="url(#pafadc382ea)" d="M 371.510247 307.584 
L 379.882428 307.584 
L 379.882428 260.768 
L 371.510247 260.768 
z
" style="fill:#fa9ba4;opacity:0.2;"/>
   </g>
   <g id="patch_35">
    <path clip-path="url(#pafadc382ea)" d="M 380.81267 307.584 
L 389.18485 307.584 
L 389.18485 302.656 
L 380.81267 302.656 
z
" style="fill:#fa9ba4;opacity:0.2;"/>
   </g>
   <g id="patch_36">
    <path clip-path="url(#pafadc382ea)" d="M 390.115092 307.584 
L 398.487273 307.584 
L 398.487273 302.656 
L 390.115092 302.656 
z
" style="fill:#fa9ba4;opacity:0.2;"/>
   </g>
   <g id="matplotlib.axis_1"/>
   <g id="matplotlib.axis_2"/>
   <g id="PolyCollection_1">
    <defs>
     <path d="M 273.36969 -152.768 
L 273.36969 -38.016 
L 282.672113 -38.016 
L 291.974535 -38.016 
L 301.276958 -38.016 
L 310.57938 -38.016 
L 319.881803 -38.016 
L 329.184225 -38.016 
L 338.486648 -38.016 
L 347.78907 -38.016 
L 357.091493 -38.016 
L 366.393915 -38.016 
L 375.696338 -38.016 
L 384.99876 -38.016 
L 394.301183 -38.016 
L 394.301183 -64.064 
L 394.301183 -64.064 
L 384.99876 -70.752 
L 375.696338 -87.648 
L 366.393915 -96.448 
L 357.091493 -105.952 
L 347.78907 -111.232 
L 338.486648 -136.928 
L 329.184225 -130.592 
L 319.881803 -137.632 
L 310.57938 -147.136 
L 301.276958 -142.912 
L 291.974535 -149.248 
L 282.672113 -145.376 
L 273.36969 -152.768 
z
" id="m25c012db46" style="stroke:#dc3545;stroke-opacity:0.5;"/>
    </defs>
    <g clip-path="url(#pafadc382ea)">
     <use style="fill:#dc3545;fill-opacity:0.5;stroke:#dc3545;stroke-opacity:0.5;" x="0" xlink:href="#m25c012db46" y="345.6"/>
    </g>
   </g>
   <g id="PolyCollection_2">
    <defs>
     <path d="M 133.833352 -58.08 
L 133.833352 -38.016 
L 143.135775 -38.016 
L 152.438197 -38.016 
L 161.74062 -38.016 
L 171.043042 -38.016 
L 180.345465 -38.016 
L 189.647887 -38.016 
L 198.95031 -38.016 
L 208.252732 -38.016 
L 217.555155 -38.016 
L 226.857577 -38.016 
L 236.16 -38.016 
L 245.462423 -38.016 
L 254.764845 -38.016 
L 264.067268 -38.016 
L 273.36969 -38.016 
L 273.36969 -152.768 
L 273.36969 -152.768 
L 264.067268 -163.68 
L 254.764845 -153.12 
L 245.462423 -127.424 
L 236.16 -118.976 
L 226.857577 -102.784 
L 217.555155 -97.856 
L 208.252732 -61.248 
L 198.95031 -52.8 
L 189.647887 -49.632 
L 180.345465 -60.192 
L 171.043042 -58.784 
L 161.74062 -58.784 
L 152.438197 -60.896 
L 143.135775 -60.896 
L 133.833352 -58.08 
z
" id="mffa543b231" style="stroke:#fa9ba4;stroke-opacity:0.3;"/>
    </defs>
    <g clip-path="url(#pafadc382ea)">
     <use style="fill:#fa9ba4;fill-opacity:0.3;stroke:#fa9ba4;stroke-opacity:0.3;" x="0" xlink:href="#mffa543b231" y="345.6"/>
    </g>
   </g>
   <g id="line2d_1">
    <path clip-path="url(#pafadc382ea)" d="M 133.833352 287.52 
L 143.135775 284.704 
L 152.438197 284.704 
L 161.74062 286.816 
L 171.043042 286.816 
L 180.345465 285.408 
L 189.647887 295.968 
L 198.95031 292.8 
L 208.252732 284.352 
L 217.555155 247.744 
L 226.857577 242.816 
L 236.16 226.624 
L 245.462423 218.176 
L 254.764845 192.48 
L 264.067268 181.92 
L 273.36969 192.832 
L 282.672113 200.224 
L 291.974535 196.352 
L 301.276958 202.688 
L 310.57938 198.464 
L 319.881803 207.968 
L 329.184225 215.008 
L 338.486648 208.672 
L 347.78907 234.368 
L 357.091493 239.648 
L 366.393915 249.152 
L 375.696338 257.952 
L 384.99876 274.848 
L 394.301183 281.536 
" style="fill:none;stroke:#fa9ba4;stroke-linecap:square;stroke-width:2;"/>
   </g>
   <g id="line2d_2">
    <path clip-path="url(#pafadc382ea)" d="M 273.36969 192.832 
L 282.672113 200.224 
L 291.974535 196.352 
L 301.276958 202.688 
L 310.57938 198.464 
L 319.881803 207.968 
L 329.184225 215.008 
L 338.486648 208.672 
L 347.78907 234.368 
L 357.091493 239.648 
L 366.393915 249.152 
L 375.696338 257.952 
L 384.99876 274.848 
L 394.301183 281.536 
" style="fill:none;stroke:#dc3545;stroke-linecap:square;stroke-width:2;"/>
   </g>
  </g>
 </g>
 <defs>
  <clipPath id="pafadc382ea">
   <rect height="266.112" width="357.12" x="57.6" y="41.472"/>
  </clipPath>
 </defs>
</svg>
