<?xml version="1.0" encoding="utf-8" standalone="no"?>
<!DOCTYPE svg PUBLIC "-//W3C//DTD SVG 1.1//EN"
  "http://www.w3.org/Graphics/SVG/1.1/DTD/svg11.dtd">
<!-- Created with matplotlib (https://matplotlib.org/) -->
<svg height="345.6pt" version="1.1" viewBox="0 0 460.8 345.6" width="460.8pt" xmlns="http://www.w3.org/2000/svg" xmlns:xlink="http://www.w3.org/1999/xlink">
 <metadata>
  <rdf:RDF xmlns:cc="http://creativecommons.org/ns#" xmlns:dc="http://purl.org/dc/elements/1.1/" xmlns:rdf="http://www.w3.org/1999/02/22-rdf-syntax-ns#">
   <cc:Work>
    <dc:type rdf:resource="http://purl.org/dc/dcmitype/StillImage"/>
    <dc:date>2021-01-27T13:01:52.439113</dc:date>
    <dc:format>image/svg+xml</dc:format>
    <dc:creator>
     <cc:Agent>
      <dc:title>Matplotlib v3.3.3, https://matplotlib.org/</dc:title>
     </cc:Agent>
    </dc:creator>
   </cc:Work>
  </rdf:RDF>
 </metadata>
 <defs>
  <style type="text/css">*{stroke-linecap:butt;stroke-linejoin:round;}</style>
 </defs>
 <g id="figure_1">
  <g id="patch_1">
   <path d="M 0 345.6 
L 460.8 345.6 
L 460.8 0 
L 0 0 
z
" style="fill:none;"/>
  </g>
  <g id="axes_1">
   <g id="patch_2">
    <path clip-path="url(#p0c088d0ba4)" d="M 73.832727 307.584 
L 80.643662 307.584 
L 80.643662 307.584 
L 73.832727 307.584 
z
" style="fill:#fa9ba4;opacity:0.2;"/>
   </g>
   <g id="patch_3">
    <path clip-path="url(#p0c088d0ba4)" d="M 81.400432 307.584 
L 88.211367 307.584 
L 88.211367 297.728 
L 81.400432 297.728 
z
" style="fill:#fa9ba4;opacity:0.2;"/>
   </g>
   <g id="patch_4">
    <path clip-path="url(#p0c088d0ba4)" d="M 88.968137 307.584 
L 95.779072 307.584 
L 95.779072 287.872 
L 88.968137 287.872 
z
" style="fill:#fa9ba4;opacity:0.2;"/>
   </g>
   <g id="patch_5">
    <path clip-path="url(#p0c088d0ba4)" d="M 96.535842 307.584 
L 103.346777 307.584 
L 103.346777 295.264 
L 96.535842 295.264 
z
" style="fill:#fa9ba4;opacity:0.2;"/>
   </g>
   <g id="patch_6">
    <path clip-path="url(#p0c088d0ba4)" d="M 104.103547 307.584 
L 110.914482 307.584 
L 110.914482 297.728 
L 104.103547 297.728 
z
" style="fill:#fa9ba4;opacity:0.2;"/>
   </g>
   <g id="patch_7">
    <path clip-path="url(#p0c088d0ba4)" d="M 111.671252 307.584 
L 118.482187 307.584 
L 118.482187 223.808 
L 111.671252 223.808 
z
" style="fill:#fa9ba4;opacity:0.2;"/>
   </g>
   <g id="patch_8">
    <path clip-path="url(#p0c088d0ba4)" d="M 119.238957 307.584 
L 126.049892 307.584 
L 126.049892 302.656 
L 119.238957 302.656 
z
" style="fill:#fa9ba4;opacity:0.2;"/>
   </g>
   <g id="patch_9">
    <path clip-path="url(#p0c088d0ba4)" d="M 126.806662 307.584 
L 133.617597 307.584 
L 133.617597 287.872 
L 126.806662 287.872 
z
" style="fill:#fa9ba4;opacity:0.2;"/>
   </g>
   <g id="patch_10">
    <path clip-path="url(#p0c088d0ba4)" d="M 134.374367 307.584 
L 141.185302 307.584 
L 141.185302 297.728 
L 134.374367 297.728 
z
" style="fill:#fa9ba4;opacity:0.2;"/>
   </g>
   <g id="patch_11">
    <path clip-path="url(#p0c088d0ba4)" d="M 141.942072 307.584 
L 148.753007 307.584 
L 148.753007 302.656 
L 141.942072 302.656 
z
" style="fill:#fa9ba4;opacity:0.2;"/>
   </g>
   <g id="patch_12">
    <path clip-path="url(#p0c088d0ba4)" d="M 149.509777 307.584 
L 156.320712 307.584 
L 156.320712 295.264 
L 149.509777 295.264 
z
" style="fill:#fa9ba4;opacity:0.2;"/>
   </g>
   <g id="patch_13">
    <path clip-path="url(#p0c088d0ba4)" d="M 157.077483 307.584 
L 163.888417 307.584 
L 163.888417 287.872 
L 157.077483 287.872 
z
" style="fill:#fa9ba4;opacity:0.2;"/>
   </g>
   <g id="patch_14">
    <path clip-path="url(#p0c088d0ba4)" d="M 164.645188 307.584 
L 171.456122 307.584 
L 171.456122 297.728 
L 164.645188 297.728 
z
" style="fill:#fa9ba4;opacity:0.2;"/>
   </g>
   <g id="patch_15">
    <path clip-path="url(#p0c088d0ba4)" d="M 172.212893 307.584 
L 179.023827 307.584 
L 179.023827 280.48 
L 172.212893 280.48 
z
" style="fill:#fa9ba4;opacity:0.2;"/>
   </g>
   <g id="patch_16">
    <path clip-path="url(#p0c088d0ba4)" d="M 179.780598 307.584 
L 186.591532 307.584 
L 186.591532 228.736 
L 179.780598 228.736 
z
" style="fill:#fa9ba4;opacity:0.2;"/>
   </g>
   <g id="patch_17">
    <path clip-path="url(#p0c088d0ba4)" d="M 187.348303 307.584 
L 194.159237 307.584 
L 194.159237 41.472 
L 187.348303 41.472 
z
" style="fill:#fa9ba4;opacity:0.2;"/>
   </g>
   <g id="patch_18">
    <path clip-path="url(#p0c088d0ba4)" d="M 194.916008 307.584 
L 201.726942 307.584 
L 201.726942 268.16 
L 194.916008 268.16 
z
" style="fill:#fa9ba4;opacity:0.2;"/>
   </g>
   <g id="patch_19">
    <path clip-path="url(#p0c088d0ba4)" d="M 202.483713 307.584 
L 209.294647 307.584 
L 209.294647 181.92 
L 202.483713 181.92 
z
" style="fill:#fa9ba4;opacity:0.2;"/>
   </g>
   <g id="patch_20">
    <path clip-path="url(#p0c088d0ba4)" d="M 210.051418 307.584 
L 216.862352 307.584 
L 216.862352 228.736 
L 210.051418 228.736 
z
" style="fill:#fa9ba4;opacity:0.2;"/>
   </g>
   <g id="patch_21">
    <path clip-path="url(#p0c088d0ba4)" d="M 217.619123 307.584 
L 224.430057 307.584 
L 224.430057 117.856 
L 217.619123 117.856 
z
" style="fill:#fa9ba4;opacity:0.2;"/>
   </g>
   <g id="patch_22">
    <path clip-path="url(#p0c088d0ba4)" d="M 225.186828 307.584 
L 231.997762 307.584 
L 231.997762 206.56 
L 225.186828 206.56 
z
" style="fill:#fa9ba4;opacity:0.2;"/>
   </g>
   <g id="patch_23">
    <path clip-path="url(#p0c088d0ba4)" d="M 232.754533 307.584 
L 239.565467 307.584 
L 239.565467 305.12 
L 232.754533 305.12 
z
" style="fill:#fa9ba4;opacity:0.2;"/>
   </g>
   <g id="patch_24">
    <path clip-path="url(#p0c088d0ba4)" d="M 240.322238 307.584 
L 247.133172 307.584 
L 247.133172 93.216 
L 240.322238 93.216 
z
" style="fill:#fa9ba4;opacity:0.2;"/>
   </g>
   <g id="patch_25">
    <path clip-path="url(#p0c088d0ba4)" d="M 247.889943 307.584 
L 254.700877 307.584 
L 254.700877 241.056 
L 247.889943 241.056 
z
" style="fill:#fa9ba4;opacity:0.2;"/>
   </g>
   <g id="patch_26">
    <path clip-path="url(#p0c088d0ba4)" d="M 255.457648 307.584 
L 262.268582 307.584 
L 262.268582 226.272 
L 255.457648 226.272 
z
" style="fill:#fa9ba4;opacity:0.2;"/>
   </g>
   <g id="patch_27">
    <path clip-path="url(#p0c088d0ba4)" d="M 263.025353 307.584 
L 269.836287 307.584 
L 269.836287 199.168 
L 263.025353 199.168 
z
" style="fill:#fa9ba4;opacity:0.2;"/>
   </g>
   <g id="patch_28">
    <path clip-path="url(#p0c088d0ba4)" d="M 270.593058 307.584 
L 277.403992 307.584 
L 277.403992 184.384 
L 270.593058 184.384 
z
" style="fill:#fa9ba4;opacity:0.2;"/>
   </g>
   <g id="patch_29">
    <path clip-path="url(#p0c088d0ba4)" d="M 278.160763 307.584 
L 284.971697 307.584 
L 284.971697 255.84 
L 278.160763 255.84 
z
" style="fill:#fa9ba4;opacity:0.2;"/>
   </g>
   <g id="patch_30">
    <path clip-path="url(#p0c088d0ba4)" d="M 285.728468 307.584 
L 292.539402 307.584 
L 292.539402 260.768 
L 285.728468 260.768 
z
" style="fill:#fa9ba4;opacity:0.2;"/>
   </g>
   <g id="patch_31">
    <path clip-path="url(#p0c088d0ba4)" d="M 293.296173 307.584 
L 300.107107 307.584 
L 300.107107 273.088 
L 293.296173 273.088 
z
" style="fill:#fa9ba4;opacity:0.2;"/>
   </g>
   <g id="patch_32">
    <path clip-path="url(#p0c088d0ba4)" d="M 300.863878 307.584 
L 307.674812 307.584 
L 307.674812 278.016 
L 300.863878 278.016 
z
" style="fill:#fa9ba4;opacity:0.2;"/>
   </g>
   <g id="patch_33">
    <path clip-path="url(#p0c088d0ba4)" d="M 308.431583 307.584 
L 315.242517 307.584 
L 315.242517 292.8 
L 308.431583 292.8 
z
" style="fill:#fa9ba4;opacity:0.2;"/>
   </g>
   <g id="patch_34">
    <path clip-path="url(#p0c088d0ba4)" d="M 315.999288 307.584 
L 322.810223 307.584 
L 322.810223 260.768 
L 315.999288 260.768 
z
" style="fill:#fa9ba4;opacity:0.2;"/>
   </g>
   <g id="patch_35">
    <path clip-path="url(#p0c088d0ba4)" d="M 323.566993 307.584 
L 330.377928 307.584 
L 330.377928 302.656 
L 323.566993 302.656 
z
" style="fill:#fa9ba4;opacity:0.2;"/>
   </g>
   <g id="patch_36">
    <path clip-path="url(#p0c088d0ba4)" d="M 331.134698 307.584 
L 337.945633 307.584 
L 337.945633 302.656 
L 331.134698 302.656 
z
" style="fill:#fa9ba4;opacity:0.2;"/>
   </g>
   <g id="patch_37">
    <path clip-path="url(#p0c088d0ba4)" d="M 338.702403 307.584 
L 345.513338 307.584 
L 345.513338 302.656 
L 338.702403 302.656 
z
" style="fill:#fa9ba4;opacity:0.2;"/>
   </g>
   <g id="patch_38">
    <path clip-path="url(#p0c088d0ba4)" d="M 346.270108 307.584 
L 353.081043 307.584 
L 353.081043 302.656 
L 346.270108 302.656 
z
" style="fill:#fa9ba4;opacity:0.2;"/>
   </g>
   <g id="patch_39">
    <path clip-path="url(#p0c088d0ba4)" d="M 353.837813 307.584 
L 360.648748 307.584 
L 360.648748 305.12 
L 353.837813 305.12 
z
" style="fill:#fa9ba4;opacity:0.2;"/>
   </g>
   <g id="patch_40">
    <path clip-path="url(#p0c088d0ba4)" d="M 361.405518 307.584 
L 368.216453 307.584 
L 368.216453 307.584 
L 361.405518 307.584 
z
" style="fill:#fa9ba4;opacity:0.2;"/>
   </g>
   <g id="patch_41">
    <path clip-path="url(#p0c088d0ba4)" d="M 368.973223 307.584 
L 375.784158 307.584 
L 375.784158 280.48 
L 368.973223 280.48 
z
" style="fill:#fa9ba4;opacity:0.2;"/>
   </g>
   <g id="patch_42">
    <path clip-path="url(#p0c088d0ba4)" d="M 376.540928 307.584 
L 383.351863 307.584 
L 383.351863 305.12 
L 376.540928 305.12 
z
" style="fill:#fa9ba4;opacity:0.2;"/>
   </g>
   <g id="patch_43">
    <path clip-path="url(#p0c088d0ba4)" d="M 384.108633 307.584 
L 390.919568 307.584 
L 390.919568 307.584 
L 384.108633 307.584 
z
" style="fill:#fa9ba4;opacity:0.2;"/>
   </g>
   <g id="patch_44">
    <path clip-path="url(#p0c088d0ba4)" d="M 391.676338 307.584 
L 398.487273 307.584 
L 398.487273 307.584 
L 391.676338 307.584 
z
" style="fill:#fa9ba4;opacity:0.2;"/>
   </g>
   <g id="matplotlib.axis_1"/>
   <g id="matplotlib.axis_2"/>
   <g id="PolyCollection_1">
    <defs>
     <path d="M 296.70164 -111.232 
L 296.70164 -38.016 
L 304.269345 -38.016 
L 311.83705 -38.016 
L 319.404755 -38.016 
L 326.97246 -38.016 
L 334.540165 -38.016 
L 342.10787 -38.016 
L 349.675575 -38.016 
L 357.24328 -38.016 
L 364.810985 -38.016 
L 372.37869 -38.016 
L 379.946395 -38.016 
L 387.5141 -38.016 
L 395.081805 -38.016 
L 395.081805 -43.296 
L 395.081805 -43.296 
L 387.5141 -44 
L 379.946395 -44.704 
L 372.37869 -45.056 
L 364.810985 -47.872 
L 357.24328 -49.984 
L 349.675575 -53.856 
L 342.10787 -58.08 
L 334.540165 -64.064 
L 326.97246 -70.752 
L 319.404755 -87.648 
L 311.83705 -96.448 
L 304.269345 -105.952 
L 296.70164 -111.232 
z
" id="m26b79fb9f8" style="stroke:#dc3545;stroke-opacity:0.5;"/>
    </defs>
    <g clip-path="url(#p0c088d0ba4)">
     <use style="fill:#dc3545;fill-opacity:0.5;stroke:#dc3545;stroke-opacity:0.5;" x="0" xlink:href="#m26b79fb9f8" y="345.6"/>
    </g>
   </g>
   <g id="PolyCollection_2">
    <defs>
     <path d="M 122.644425 -58.08 
L 122.644425 -38.016 
L 130.21213 -38.016 
L 137.779835 -38.016 
L 145.34754 -38.016 
L 152.915245 -38.016 
L 160.48295 -38.016 
L 168.050655 -38.016 
L 175.61836 -38.016 
L 183.186065 -38.016 
L 190.75377 -38.016 
L 198.321475 -38.016 
L 205.88918 -38.016 
L 213.456885 -38.016 
L 221.02459 -38.016 
L 228.592295 -38.016 
L 236.16 -38.016 
L 243.727705 -38.016 
L 251.29541 -38.016 
L 258.863115 -38.016 
L 266.43082 -38.016 
L 273.998525 -38.016 
L 281.56623 -38.016 
L 289.133935 -38.016 
L 296.70164 -38.016 
L 296.70164 -111.232 
L 296.70164 -111.232 
L 289.133935 -136.928 
L 281.56623 -130.592 
L 273.998525 -137.632 
L 266.43082 -147.136 
L 258.863115 -142.912 
L 251.29541 -149.248 
L 243.727705 -145.376 
L 236.16 -152.768 
L 228.592295 -163.68 
L 221.02459 -153.12 
L 213.456885 -127.424 
L 205.88918 -118.976 
L 198.321475 -102.784 
L 190.75377 -97.856 
L 183.186065 -61.248 
L 175.61836 -52.8 
L 168.050655 -49.632 
L 160.48295 -60.192 
L 152.915245 -58.784 
L 145.34754 -58.784 
L 137.779835 -60.896 
L 130.21213 -60.896 
L 122.644425 -58.08 
z
" id="mbe03c0419a" style="stroke:#fa9ba4;stroke-opacity:0.3;"/>
    </defs>
    <g clip-path="url(#p0c088d0ba4)">
     <use style="fill:#fa9ba4;fill-opacity:0.3;stroke:#fa9ba4;stroke-opacity:0.3;" x="0" xlink:href="#mbe03c0419a" y="345.6"/>
    </g>
   </g>
   <g id="line2d_1">
    <path clip-path="url(#p0c088d0ba4)" d="M 122.644425 287.52 
L 130.21213 284.704 
L 137.779835 284.704 
L 145.34754 286.816 
L 152.915245 286.816 
L 160.48295 285.408 
L 168.050655 295.968 
L 175.61836 292.8 
L 183.186065 284.352 
L 190.75377 247.744 
L 198.321475 242.816 
L 205.88918 226.624 
L 213.456885 218.176 
L 221.02459 192.48 
L 228.592295 181.92 
L 236.16 192.832 
L 243.727705 200.224 
L 251.29541 196.352 
L 258.863115 202.688 
L 266.43082 198.464 
L 273.998525 207.968 
L 281.56623 215.008 
L 289.133935 208.672 
L 296.70164 234.368 
L 304.269345 239.648 
L 311.83705 249.152 
L 319.404755 257.952 
L 326.97246 274.848 
L 334.540165 281.536 
L 342.10787 287.52 
L 349.675575 291.744 
L 357.24328 295.616 
L 364.810985 297.728 
L 372.37869 300.544 
L 379.946395 300.896 
L 387.5141 301.6 
L 395.081805 302.304 
" style="fill:none;stroke:#fa9ba4;stroke-linecap:square;stroke-width:2;"/>
   </g>
   <g id="line2d_2">
    <path clip-path="url(#p0c088d0ba4)" d="M 296.70164 234.368 
L 304.269345 239.648 
L 311.83705 249.152 
L 319.404755 257.952 
L 326.97246 274.848 
L 334.540165 281.536 
L 342.10787 287.52 
L 349.675575 291.744 
L 357.24328 295.616 
L 364.810985 297.728 
L 372.37869 300.544 
L 379.946395 300.896 
L 387.5141 301.6 
L 395.081805 302.304 
" style="fill:none;stroke:#dc3545;stroke-linecap:square;stroke-width:2;"/>
   </g>
  </g>
 </g>
 <defs>
  <clipPath id="p0c088d0ba4">
   <rect height="266.112" width="357.12" x="57.6" y="41.472"/>
  </clipPath>
 </defs>
</svg>
