<?xml version="1.0" encoding="utf-8" standalone="no"?>
<!DOCTYPE svg PUBLIC "-//W3C//DTD SVG 1.1//EN"
  "http://www.w3.org/Graphics/SVG/1.1/DTD/svg11.dtd">
<svg height="345.6pt" version="1.1" viewBox="0 0 460.8 345.6" width="460.8pt" xmlns="http://www.w3.org/2000/svg" xmlns:xlink="http://www.w3.org/1999/xlink">
 <metadata>
  <rdf:RDF xmlns:cc="http://creativecommons.org/ns#" xmlns:dc="http://purl.org/dc/elements/1.1/" xmlns:rdf="http://www.w3.org/1999/02/22-rdf-syntax-ns#">
   <cc:Work>
    <dc:type rdf:resource="http://purl.org/dc/dcmitype/StillImage"/>
    <dc:date>2021-05-06T13:22:52.545440</dc:date>
    <dc:format>image/svg+xml</dc:format>
    <dc:creator>
     <cc:Agent>
      <dc:title>Matplotlib v3.4.1, https://matplotlib.org/</dc:title>
     </cc:Agent>
    </dc:creator>
   </cc:Work>
  </rdf:RDF>
 </metadata>
 <defs>
  <style type="text/css">*{stroke-linecap:butt;stroke-linejoin:round;}</style>
 </defs>
 <g id="figure_1">
  <g id="patch_1">
   <path d="M 0 345.6 
L 460.8 345.6 
L 460.8 0 
L 0 0 
z
" style="fill:none;"/>
  </g>
  <g id="axes_1">
   <g id="patch_2">
    <path clip-path="url(#p9818fb7359)" d="M 73.832727 307.584 
L 75.891847 307.584 
L 75.891847 307.584 
L 73.832727 307.584 
z
" style="fill:#fa9ba4;opacity:0.2;"/>
   </g>
   <g id="patch_3">
    <path clip-path="url(#p9818fb7359)" d="M 76.120638 307.584 
L 78.179758 307.584 
L 78.179758 302.935755 
L 76.120638 302.935755 
z
" style="fill:#fa9ba4;opacity:0.2;"/>
   </g>
   <g id="patch_4">
    <path clip-path="url(#p9818fb7359)" d="M 78.408549 307.584 
L 80.467669 307.584 
L 80.467669 298.287511 
L 78.408549 298.287511 
z
" style="fill:#fa9ba4;opacity:0.2;"/>
   </g>
   <g id="patch_5">
    <path clip-path="url(#p9818fb7359)" d="M 80.69646 307.584 
L 82.755579 307.584 
L 82.755579 301.773694 
L 80.69646 301.773694 
z
" style="fill:#fa9ba4;opacity:0.2;"/>
   </g>
   <g id="patch_6">
    <path clip-path="url(#p9818fb7359)" d="M 82.984371 307.584 
L 85.04349 307.584 
L 85.04349 302.935755 
L 82.984371 302.935755 
z
" style="fill:#fa9ba4;opacity:0.2;"/>
   </g>
   <g id="patch_7">
    <path clip-path="url(#p9818fb7359)" d="M 85.272281 307.584 
L 87.331401 307.584 
L 87.331401 268.073921 
L 85.272281 268.073921 
z
" style="fill:#fa9ba4;opacity:0.2;"/>
   </g>
   <g id="patch_8">
    <path clip-path="url(#p9818fb7359)" d="M 87.560192 307.584 
L 89.619312 307.584 
L 89.619312 305.259878 
L 87.560192 305.259878 
z
" style="fill:#fa9ba4;opacity:0.2;"/>
   </g>
   <g id="patch_9">
    <path clip-path="url(#p9818fb7359)" d="M 89.848103 307.584 
L 91.907223 307.584 
L 91.907223 298.287511 
L 89.848103 298.287511 
z
" style="fill:#fa9ba4;opacity:0.2;"/>
   </g>
   <g id="patch_10">
    <path clip-path="url(#p9818fb7359)" d="M 92.136014 307.584 
L 94.195134 307.584 
L 94.195134 302.935755 
L 92.136014 302.935755 
z
" style="fill:#fa9ba4;opacity:0.2;"/>
   </g>
   <g id="patch_11">
    <path clip-path="url(#p9818fb7359)" d="M 94.423925 307.584 
L 96.483044 307.584 
L 96.483044 305.259878 
L 94.423925 305.259878 
z
" style="fill:#fa9ba4;opacity:0.2;"/>
   </g>
   <g id="patch_12">
    <path clip-path="url(#p9818fb7359)" d="M 96.711835 307.584 
L 98.770955 307.584 
L 98.770955 301.773694 
L 96.711835 301.773694 
z
" style="fill:#fa9ba4;opacity:0.2;"/>
   </g>
   <g id="patch_13">
    <path clip-path="url(#p9818fb7359)" d="M 98.999746 307.584 
L 101.058866 307.584 
L 101.058866 298.287511 
L 98.999746 298.287511 
z
" style="fill:#fa9ba4;opacity:0.2;"/>
   </g>
   <g id="patch_14">
    <path clip-path="url(#p9818fb7359)" d="M 101.287657 307.584 
L 103.346777 307.584 
L 103.346777 302.935755 
L 101.287657 302.935755 
z
" style="fill:#fa9ba4;opacity:0.2;"/>
   </g>
   <g id="patch_15">
    <path clip-path="url(#p9818fb7359)" d="M 103.575568 307.584 
L 105.634688 307.584 
L 105.634688 294.801328 
L 103.575568 294.801328 
z
" style="fill:#fa9ba4;opacity:0.2;"/>
   </g>
   <g id="patch_16">
    <path clip-path="url(#p9818fb7359)" d="M 105.863479 307.584 
L 107.922599 307.584 
L 107.922599 270.398044 
L 105.863479 270.398044 
z
" style="fill:#fa9ba4;opacity:0.2;"/>
   </g>
   <g id="patch_17">
    <path clip-path="url(#p9818fb7359)" d="M 108.15139 307.584 
L 110.210509 307.584 
L 110.210509 182.081397 
L 108.15139 182.081397 
z
" style="fill:#fa9ba4;opacity:0.2;"/>
   </g>
   <g id="patch_18">
    <path clip-path="url(#p9818fb7359)" d="M 110.4393 307.584 
L 112.49842 307.584 
L 112.49842 288.991022 
L 110.4393 288.991022 
z
" style="fill:#fa9ba4;opacity:0.2;"/>
   </g>
   <g id="patch_19">
    <path clip-path="url(#p9818fb7359)" d="M 112.727211 307.584 
L 114.786331 307.584 
L 114.786331 248.318882 
L 112.727211 248.318882 
z
" style="fill:#fa9ba4;opacity:0.2;"/>
   </g>
   <g id="patch_20">
    <path clip-path="url(#p9818fb7359)" d="M 115.015122 307.584 
L 117.074242 307.584 
L 117.074242 270.398044 
L 115.015122 270.398044 
z
" style="fill:#fa9ba4;opacity:0.2;"/>
   </g>
   <g id="patch_21">
    <path clip-path="url(#p9818fb7359)" d="M 117.303033 307.584 
L 119.362153 307.584 
L 119.362153 218.105293 
L 117.303033 218.105293 
z
" style="fill:#fa9ba4;opacity:0.2;"/>
   </g>
   <g id="patch_22">
    <path clip-path="url(#p9818fb7359)" d="M 119.590944 307.584 
L 121.650063 307.584 
L 121.650063 259.939493 
L 119.590944 259.939493 
z
" style="fill:#fa9ba4;opacity:0.2;"/>
   </g>
   <g id="patch_23">
    <path clip-path="url(#p9818fb7359)" d="M 121.878855 307.584 
L 123.937974 307.584 
L 123.937974 306.421939 
L 121.878855 306.421939 
z
" style="fill:#fa9ba4;opacity:0.2;"/>
   </g>
   <g id="patch_24">
    <path clip-path="url(#p9818fb7359)" d="M 124.166765 307.584 
L 126.225885 307.584 
L 126.225885 206.484681 
L 124.166765 206.484681 
z
" style="fill:#fa9ba4;opacity:0.2;"/>
   </g>
   <g id="patch_25">
    <path clip-path="url(#p9818fb7359)" d="M 126.454676 307.584 
L 128.513796 307.584 
L 128.513796 276.208349 
L 126.454676 276.208349 
z
" style="fill:#fa9ba4;opacity:0.2;"/>
   </g>
   <g id="patch_26">
    <path clip-path="url(#p9818fb7359)" d="M 128.742587 307.584 
L 130.801707 307.584 
L 130.801707 269.235983 
L 128.742587 269.235983 
z
" style="fill:#fa9ba4;opacity:0.2;"/>
   </g>
   <g id="patch_27">
    <path clip-path="url(#p9818fb7359)" d="M 131.030498 307.584 
L 133.089618 307.584 
L 133.089618 256.45331 
L 131.030498 256.45331 
z
" style="fill:#fa9ba4;opacity:0.2;"/>
   </g>
   <g id="patch_28">
    <path clip-path="url(#p9818fb7359)" d="M 133.318409 307.584 
L 135.377528 307.584 
L 135.377528 249.480943 
L 133.318409 249.480943 
z
" style="fill:#fa9ba4;opacity:0.2;"/>
   </g>
   <g id="patch_29">
    <path clip-path="url(#p9818fb7359)" d="M 135.606319 307.584 
L 137.665439 307.584 
L 137.665439 283.180716 
L 135.606319 283.180716 
z
" style="fill:#fa9ba4;opacity:0.2;"/>
   </g>
   <g id="patch_30">
    <path clip-path="url(#p9818fb7359)" d="M 137.89423 307.584 
L 139.95335 307.584 
L 139.95335 285.504838 
L 137.89423 285.504838 
z
" style="fill:#fa9ba4;opacity:0.2;"/>
   </g>
   <g id="patch_31">
    <path clip-path="url(#p9818fb7359)" d="M 140.182141 307.584 
L 142.241261 307.584 
L 142.241261 291.315144 
L 140.182141 291.315144 
z
" style="fill:#fa9ba4;opacity:0.2;"/>
   </g>
   <g id="patch_32">
    <path clip-path="url(#p9818fb7359)" d="M 142.470052 307.584 
L 144.529172 307.584 
L 144.529172 293.639266 
L 142.470052 293.639266 
z
" style="fill:#fa9ba4;opacity:0.2;"/>
   </g>
   <g id="patch_33">
    <path clip-path="url(#p9818fb7359)" d="M 144.757963 307.584 
L 146.817082 307.584 
L 146.817082 300.611633 
L 144.757963 300.611633 
z
" style="fill:#fa9ba4;opacity:0.2;"/>
   </g>
   <g id="patch_34">
    <path clip-path="url(#p9818fb7359)" d="M 147.045874 307.584 
L 149.104993 307.584 
L 149.104993 285.504838 
L 147.045874 285.504838 
z
" style="fill:#fa9ba4;opacity:0.2;"/>
   </g>
   <g id="patch_35">
    <path clip-path="url(#p9818fb7359)" d="M 149.333784 307.584 
L 151.392904 307.584 
L 151.392904 305.259878 
L 149.333784 305.259878 
z
" style="fill:#fa9ba4;opacity:0.2;"/>
   </g>
   <g id="patch_36">
    <path clip-path="url(#p9818fb7359)" d="M 151.621695 307.584 
L 153.680815 307.584 
L 153.680815 305.259878 
L 151.621695 305.259878 
z
" style="fill:#fa9ba4;opacity:0.2;"/>
   </g>
   <g id="patch_37">
    <path clip-path="url(#p9818fb7359)" d="M 153.909606 307.584 
L 155.968726 307.584 
L 155.968726 305.259878 
L 153.909606 305.259878 
z
" style="fill:#fa9ba4;opacity:0.2;"/>
   </g>
   <g id="patch_38">
    <path clip-path="url(#p9818fb7359)" d="M 156.197517 307.584 
L 158.256637 307.584 
L 158.256637 305.259878 
L 156.197517 305.259878 
z
" style="fill:#fa9ba4;opacity:0.2;"/>
   </g>
   <g id="patch_39">
    <path clip-path="url(#p9818fb7359)" d="M 158.485428 307.584 
L 160.544547 307.584 
L 160.544547 306.421939 
L 158.485428 306.421939 
z
" style="fill:#fa9ba4;opacity:0.2;"/>
   </g>
   <g id="patch_40">
    <path clip-path="url(#p9818fb7359)" d="M 160.773338 307.584 
L 162.832458 307.584 
L 162.832458 307.584 
L 160.773338 307.584 
z
" style="fill:#fa9ba4;opacity:0.2;"/>
   </g>
   <g id="patch_41">
    <path clip-path="url(#p9818fb7359)" d="M 163.061249 307.584 
L 165.120369 307.584 
L 165.120369 294.801328 
L 163.061249 294.801328 
z
" style="fill:#fa9ba4;opacity:0.2;"/>
   </g>
   <g id="patch_42">
    <path clip-path="url(#p9818fb7359)" d="M 165.34916 307.584 
L 167.40828 307.584 
L 167.40828 306.421939 
L 165.34916 306.421939 
z
" style="fill:#fa9ba4;opacity:0.2;"/>
   </g>
   <g id="patch_43">
    <path clip-path="url(#p9818fb7359)" d="M 167.637071 307.584 
L 169.696191 307.584 
L 169.696191 302.935755 
L 167.637071 302.935755 
z
" style="fill:#fa9ba4;opacity:0.2;"/>
   </g>
   <g id="patch_44">
    <path clip-path="url(#p9818fb7359)" d="M 169.924982 307.584 
L 171.984101 307.584 
L 171.984101 304.097817 
L 169.924982 304.097817 
z
" style="fill:#fa9ba4;opacity:0.2;"/>
   </g>
   <g id="patch_45">
    <path clip-path="url(#p9818fb7359)" d="M 172.212893 307.584 
L 174.272012 307.584 
L 174.272012 302.935755 
L 172.212893 302.935755 
z
" style="fill:#fa9ba4;opacity:0.2;"/>
   </g>
   <g id="patch_46">
    <path clip-path="url(#p9818fb7359)" d="M 174.500803 307.584 
L 176.559923 307.584 
L 176.559923 302.935755 
L 174.500803 302.935755 
z
" style="fill:#fa9ba4;opacity:0.2;"/>
   </g>
   <g id="patch_47">
    <path clip-path="url(#p9818fb7359)" d="M 176.788714 307.584 
L 178.847834 307.584 
L 178.847834 300.611633 
L 176.788714 300.611633 
z
" style="fill:#fa9ba4;opacity:0.2;"/>
   </g>
   <g id="patch_48">
    <path clip-path="url(#p9818fb7359)" d="M 179.076625 307.584 
L 181.135745 307.584 
L 181.135745 305.259878 
L 179.076625 305.259878 
z
" style="fill:#fa9ba4;opacity:0.2;"/>
   </g>
   <g id="patch_49">
    <path clip-path="url(#p9818fb7359)" d="M 181.364536 307.584 
L 183.423656 307.584 
L 183.423656 300.611633 
L 181.364536 300.611633 
z
" style="fill:#fa9ba4;opacity:0.2;"/>
   </g>
   <g id="patch_50">
    <path clip-path="url(#p9818fb7359)" d="M 183.652447 307.584 
L 185.711566 307.584 
L 185.711566 307.584 
L 183.652447 307.584 
z
" style="fill:#fa9ba4;opacity:0.2;"/>
   </g>
   <g id="patch_51">
    <path clip-path="url(#p9818fb7359)" d="M 185.940357 307.584 
L 187.999477 307.584 
L 187.999477 304.097817 
L 185.940357 304.097817 
z
" style="fill:#fa9ba4;opacity:0.2;"/>
   </g>
   <g id="patch_52">
    <path clip-path="url(#p9818fb7359)" d="M 188.228268 307.584 
L 190.287388 307.584 
L 190.287388 306.421939 
L 188.228268 306.421939 
z
" style="fill:#fa9ba4;opacity:0.2;"/>
   </g>
   <g id="patch_53">
    <path clip-path="url(#p9818fb7359)" d="M 190.516179 307.584 
L 192.575299 307.584 
L 192.575299 304.097817 
L 190.516179 304.097817 
z
" style="fill:#fa9ba4;opacity:0.2;"/>
   </g>
   <g id="patch_54">
    <path clip-path="url(#p9818fb7359)" d="M 192.80409 307.584 
L 194.86321 307.584 
L 194.86321 295.963389 
L 192.80409 295.963389 
z
" style="fill:#fa9ba4;opacity:0.2;"/>
   </g>
   <g id="patch_55">
    <path clip-path="url(#p9818fb7359)" d="M 195.092001 307.584 
L 197.151121 307.584 
L 197.151121 304.097817 
L 195.092001 304.097817 
z
" style="fill:#fa9ba4;opacity:0.2;"/>
   </g>
   <g id="patch_56">
    <path clip-path="url(#p9818fb7359)" d="M 197.379912 307.584 
L 199.439031 307.584 
L 199.439031 307.584 
L 197.379912 307.584 
z
" style="fill:#fa9ba4;opacity:0.2;"/>
   </g>
   <g id="patch_57">
    <path clip-path="url(#p9818fb7359)" d="M 199.667822 307.584 
L 201.726942 307.584 
L 201.726942 304.097817 
L 199.667822 304.097817 
z
" style="fill:#fa9ba4;opacity:0.2;"/>
   </g>
   <g id="patch_58">
    <path clip-path="url(#p9818fb7359)" d="M 201.955733 307.584 
L 204.014853 307.584 
L 204.014853 305.259878 
L 201.955733 305.259878 
z
" style="fill:#fa9ba4;opacity:0.2;"/>
   </g>
   <g id="patch_59">
    <path clip-path="url(#p9818fb7359)" d="M 204.243644 307.584 
L 206.302764 307.584 
L 206.302764 301.773694 
L 204.243644 301.773694 
z
" style="fill:#fa9ba4;opacity:0.2;"/>
   </g>
   <g id="patch_60">
    <path clip-path="url(#p9818fb7359)" d="M 206.531555 307.584 
L 208.590675 307.584 
L 208.590675 297.12545 
L 206.531555 297.12545 
z
" style="fill:#fa9ba4;opacity:0.2;"/>
   </g>
   <g id="patch_61">
    <path clip-path="url(#p9818fb7359)" d="M 208.819466 307.584 
L 210.878585 307.584 
L 210.878585 306.421939 
L 208.819466 306.421939 
z
" style="fill:#fa9ba4;opacity:0.2;"/>
   </g>
   <g id="patch_62">
    <path clip-path="url(#p9818fb7359)" d="M 211.107377 307.584 
L 213.166496 307.584 
L 213.166496 306.421939 
L 211.107377 306.421939 
z
" style="fill:#fa9ba4;opacity:0.2;"/>
   </g>
   <g id="patch_63">
    <path clip-path="url(#p9818fb7359)" d="M 213.395287 307.584 
L 215.454407 307.584 
L 215.454407 295.963389 
L 213.395287 295.963389 
z
" style="fill:#fa9ba4;opacity:0.2;"/>
   </g>
   <g id="patch_64">
    <path clip-path="url(#p9818fb7359)" d="M 215.683198 307.584 
L 217.742318 307.584 
L 217.742318 302.935755 
L 215.683198 302.935755 
z
" style="fill:#fa9ba4;opacity:0.2;"/>
   </g>
   <g id="patch_65">
    <path clip-path="url(#p9818fb7359)" d="M 217.971109 307.584 
L 220.030229 307.584 
L 220.030229 307.584 
L 217.971109 307.584 
z
" style="fill:#fa9ba4;opacity:0.2;"/>
   </g>
   <g id="patch_66">
    <path clip-path="url(#p9818fb7359)" d="M 220.25902 307.584 
L 222.31814 307.584 
L 222.31814 304.097817 
L 220.25902 304.097817 
z
" style="fill:#fa9ba4;opacity:0.2;"/>
   </g>
   <g id="patch_67">
    <path clip-path="url(#p9818fb7359)" d="M 222.546931 307.584 
L 224.60605 307.584 
L 224.60605 304.097817 
L 222.546931 304.097817 
z
" style="fill:#fa9ba4;opacity:0.2;"/>
   </g>
   <g id="patch_68">
    <path clip-path="url(#p9818fb7359)" d="M 224.834841 307.584 
L 226.893961 307.584 
L 226.893961 302.935755 
L 224.834841 302.935755 
z
" style="fill:#fa9ba4;opacity:0.2;"/>
   </g>
   <g id="patch_69">
    <path clip-path="url(#p9818fb7359)" d="M 227.122752 307.584 
L 229.181872 307.584 
L 229.181872 307.584 
L 227.122752 307.584 
z
" style="fill:#fa9ba4;opacity:0.2;"/>
   </g>
   <g id="patch_70">
    <path clip-path="url(#p9818fb7359)" d="M 229.410663 307.584 
L 231.469783 307.584 
L 231.469783 306.421939 
L 229.410663 306.421939 
z
" style="fill:#fa9ba4;opacity:0.2;"/>
   </g>
   <g id="patch_71">
    <path clip-path="url(#p9818fb7359)" d="M 231.698574 307.584 
L 233.757694 307.584 
L 233.757694 298.287511 
L 231.698574 298.287511 
z
" style="fill:#fa9ba4;opacity:0.2;"/>
   </g>
   <g id="patch_72">
    <path clip-path="url(#p9818fb7359)" d="M 233.986485 307.584 
L 236.045604 307.584 
L 236.045604 307.584 
L 233.986485 307.584 
z
" style="fill:#fa9ba4;opacity:0.2;"/>
   </g>
   <g id="patch_73">
    <path clip-path="url(#p9818fb7359)" d="M 236.274396 307.584 
L 238.333515 307.584 
L 238.333515 292.477205 
L 236.274396 292.477205 
z
" style="fill:#fa9ba4;opacity:0.2;"/>
   </g>
   <g id="patch_74">
    <path clip-path="url(#p9818fb7359)" d="M 238.562306 307.584 
L 240.621426 307.584 
L 240.621426 305.259878 
L 238.562306 305.259878 
z
" style="fill:#fa9ba4;opacity:0.2;"/>
   </g>
   <g id="patch_75">
    <path clip-path="url(#p9818fb7359)" d="M 240.850217 307.584 
L 242.909337 307.584 
L 242.909337 306.421939 
L 240.850217 306.421939 
z
" style="fill:#fa9ba4;opacity:0.2;"/>
   </g>
   <g id="patch_76">
    <path clip-path="url(#p9818fb7359)" d="M 243.138128 307.584 
L 245.197248 307.584 
L 245.197248 304.097817 
L 243.138128 304.097817 
z
" style="fill:#fa9ba4;opacity:0.2;"/>
   </g>
   <g id="patch_77">
    <path clip-path="url(#p9818fb7359)" d="M 245.426039 307.584 
L 247.485159 307.584 
L 247.485159 306.421939 
L 245.426039 306.421939 
z
" style="fill:#fa9ba4;opacity:0.2;"/>
   </g>
   <g id="patch_78">
    <path clip-path="url(#p9818fb7359)" d="M 247.71395 307.584 
L 249.773069 307.584 
L 249.773069 299.449572 
L 247.71395 299.449572 
z
" style="fill:#fa9ba4;opacity:0.2;"/>
   </g>
   <g id="patch_79">
    <path clip-path="url(#p9818fb7359)" d="M 250.00186 307.584 
L 252.06098 307.584 
L 252.06098 307.584 
L 250.00186 307.584 
z
" style="fill:#fa9ba4;opacity:0.2;"/>
   </g>
   <g id="patch_80">
    <path clip-path="url(#p9818fb7359)" d="M 252.289771 307.584 
L 254.348891 307.584 
L 254.348891 301.773694 
L 252.289771 301.773694 
z
" style="fill:#fa9ba4;opacity:0.2;"/>
   </g>
   <g id="patch_81">
    <path clip-path="url(#p9818fb7359)" d="M 254.577682 307.584 
L 256.636802 307.584 
L 256.636802 305.259878 
L 254.577682 305.259878 
z
" style="fill:#fa9ba4;opacity:0.2;"/>
   </g>
   <g id="patch_82">
    <path clip-path="url(#p9818fb7359)" d="M 256.865593 307.584 
L 258.924713 307.584 
L 258.924713 301.773694 
L 256.865593 301.773694 
z
" style="fill:#fa9ba4;opacity:0.2;"/>
   </g>
   <g id="patch_83">
    <path clip-path="url(#p9818fb7359)" d="M 259.153504 307.584 
L 261.212623 307.584 
L 261.212623 307.584 
L 259.153504 307.584 
z
" style="fill:#fa9ba4;opacity:0.2;"/>
   </g>
   <g id="patch_84">
    <path clip-path="url(#p9818fb7359)" d="M 261.441415 307.584 
L 263.500534 307.584 
L 263.500534 306.421939 
L 261.441415 306.421939 
z
" style="fill:#fa9ba4;opacity:0.2;"/>
   </g>
   <g id="patch_85">
    <path clip-path="url(#p9818fb7359)" d="M 263.729325 307.584 
L 265.788445 307.584 
L 265.788445 291.315144 
L 263.729325 291.315144 
z
" style="fill:#fa9ba4;opacity:0.2;"/>
   </g>
   <g id="patch_86">
    <path clip-path="url(#p9818fb7359)" d="M 266.017236 307.584 
L 268.076356 307.584 
L 268.076356 302.935755 
L 266.017236 302.935755 
z
" style="fill:#fa9ba4;opacity:0.2;"/>
   </g>
   <g id="patch_87">
    <path clip-path="url(#p9818fb7359)" d="M 268.305147 307.584 
L 270.364267 307.584 
L 270.364267 307.584 
L 268.305147 307.584 
z
" style="fill:#fa9ba4;opacity:0.2;"/>
   </g>
   <g id="patch_88">
    <path clip-path="url(#p9818fb7359)" d="M 270.593058 307.584 
L 272.652178 307.584 
L 272.652178 305.259878 
L 270.593058 305.259878 
z
" style="fill:#fa9ba4;opacity:0.2;"/>
   </g>
   <g id="patch_89">
    <path clip-path="url(#p9818fb7359)" d="M 272.880969 307.584 
L 274.940088 307.584 
L 274.940088 304.097817 
L 272.880969 304.097817 
z
" style="fill:#fa9ba4;opacity:0.2;"/>
   </g>
   <g id="patch_90">
    <path clip-path="url(#p9818fb7359)" d="M 275.168879 307.584 
L 277.227999 307.584 
L 277.227999 307.584 
L 275.168879 307.584 
z
" style="fill:#fa9ba4;opacity:0.2;"/>
   </g>
   <g id="patch_91">
    <path clip-path="url(#p9818fb7359)" d="M 277.45679 307.584 
L 279.51591 307.584 
L 279.51591 300.611633 
L 277.45679 300.611633 
z
" style="fill:#fa9ba4;opacity:0.2;"/>
   </g>
   <g id="patch_92">
    <path clip-path="url(#p9818fb7359)" d="M 279.744701 307.584 
L 281.803821 307.584 
L 281.803821 306.421939 
L 279.744701 306.421939 
z
" style="fill:#fa9ba4;opacity:0.2;"/>
   </g>
   <g id="patch_93">
    <path clip-path="url(#p9818fb7359)" d="M 282.032612 307.584 
L 284.091732 307.584 
L 284.091732 307.584 
L 282.032612 307.584 
z
" style="fill:#fa9ba4;opacity:0.2;"/>
   </g>
   <g id="patch_94">
    <path clip-path="url(#p9818fb7359)" d="M 284.320523 307.584 
L 286.379643 307.584 
L 286.379643 307.584 
L 284.320523 307.584 
z
" style="fill:#fa9ba4;opacity:0.2;"/>
   </g>
   <g id="patch_95">
    <path clip-path="url(#p9818fb7359)" d="M 286.608434 307.584 
L 288.667553 307.584 
L 288.667553 307.584 
L 286.608434 307.584 
z
" style="fill:#fa9ba4;opacity:0.2;"/>
   </g>
   <g id="patch_96">
    <path clip-path="url(#p9818fb7359)" d="M 288.896344 307.584 
L 290.955464 307.584 
L 290.955464 306.421939 
L 288.896344 306.421939 
z
" style="fill:#fa9ba4;opacity:0.2;"/>
   </g>
   <g id="patch_97">
    <path clip-path="url(#p9818fb7359)" d="M 291.184255 307.584 
L 293.243375 307.584 
L 293.243375 307.584 
L 291.184255 307.584 
z
" style="fill:#fa9ba4;opacity:0.2;"/>
   </g>
   <g id="patch_98">
    <path clip-path="url(#p9818fb7359)" d="M 293.472166 307.584 
L 295.531286 307.584 
L 295.531286 306.421939 
L 293.472166 306.421939 
z
" style="fill:#fa9ba4;opacity:0.2;"/>
   </g>
   <g id="patch_99">
    <path clip-path="url(#p9818fb7359)" d="M 295.760077 307.584 
L 297.819197 307.584 
L 297.819197 305.259878 
L 295.760077 305.259878 
z
" style="fill:#fa9ba4;opacity:0.2;"/>
   </g>
   <g id="patch_100">
    <path clip-path="url(#p9818fb7359)" d="M 298.047988 307.584 
L 300.107107 307.584 
L 300.107107 306.421939 
L 298.047988 306.421939 
z
" style="fill:#fa9ba4;opacity:0.2;"/>
   </g>
   <g id="patch_101">
    <path clip-path="url(#p9818fb7359)" d="M 300.335899 307.584 
L 302.395018 307.584 
L 302.395018 305.259878 
L 300.335899 305.259878 
z
" style="fill:#fa9ba4;opacity:0.2;"/>
   </g>
   <g id="patch_102">
    <path clip-path="url(#p9818fb7359)" d="M 302.623809 307.584 
L 304.682929 307.584 
L 304.682929 307.584 
L 302.623809 307.584 
z
" style="fill:#fa9ba4;opacity:0.2;"/>
   </g>
   <g id="patch_103">
    <path clip-path="url(#p9818fb7359)" d="M 304.91172 307.584 
L 306.97084 307.584 
L 306.97084 306.421939 
L 304.91172 306.421939 
z
" style="fill:#fa9ba4;opacity:0.2;"/>
   </g>
   <g id="patch_104">
    <path clip-path="url(#p9818fb7359)" d="M 307.199631 307.584 
L 309.258751 307.584 
L 309.258751 306.421939 
L 307.199631 306.421939 
z
" style="fill:#fa9ba4;opacity:0.2;"/>
   </g>
   <g id="patch_105">
    <path clip-path="url(#p9818fb7359)" d="M 309.487542 307.584 
L 311.546662 307.584 
L 311.546662 300.611633 
L 309.487542 300.611633 
z
" style="fill:#fa9ba4;opacity:0.2;"/>
   </g>
   <g id="patch_106">
    <path clip-path="url(#p9818fb7359)" d="M 311.775453 307.584 
L 313.834572 307.584 
L 313.834572 304.097817 
L 311.775453 304.097817 
z
" style="fill:#fa9ba4;opacity:0.2;"/>
   </g>
   <g id="patch_107">
    <path clip-path="url(#p9818fb7359)" d="M 314.063363 307.584 
L 316.122483 307.584 
L 316.122483 295.963389 
L 314.063363 295.963389 
z
" style="fill:#fa9ba4;opacity:0.2;"/>
   </g>
   <g id="patch_108">
    <path clip-path="url(#p9818fb7359)" d="M 316.351274 307.584 
L 318.410394 307.584 
L 318.410394 302.935755 
L 316.351274 302.935755 
z
" style="fill:#fa9ba4;opacity:0.2;"/>
   </g>
   <g id="patch_109">
    <path clip-path="url(#p9818fb7359)" d="M 318.639185 307.584 
L 320.698305 307.584 
L 320.698305 306.421939 
L 318.639185 306.421939 
z
" style="fill:#fa9ba4;opacity:0.2;"/>
   </g>
   <g id="patch_110">
    <path clip-path="url(#p9818fb7359)" d="M 320.927096 307.584 
L 322.986216 307.584 
L 322.986216 300.611633 
L 320.927096 300.611633 
z
" style="fill:#fa9ba4;opacity:0.2;"/>
   </g>
   <g id="patch_111">
    <path clip-path="url(#p9818fb7359)" d="M 323.215007 307.584 
L 325.274126 307.584 
L 325.274126 306.421939 
L 323.215007 306.421939 
z
" style="fill:#fa9ba4;opacity:0.2;"/>
   </g>
   <g id="patch_112">
    <path clip-path="url(#p9818fb7359)" d="M 325.502918 307.584 
L 327.562037 307.584 
L 327.562037 298.287511 
L 325.502918 298.287511 
z
" style="fill:#fa9ba4;opacity:0.2;"/>
   </g>
   <g id="patch_113">
    <path clip-path="url(#p9818fb7359)" d="M 327.790828 307.584 
L 329.849948 307.584 
L 329.849948 298.287511 
L 327.790828 298.287511 
z
" style="fill:#fa9ba4;opacity:0.2;"/>
   </g>
   <g id="patch_114">
    <path clip-path="url(#p9818fb7359)" d="M 330.078739 307.584 
L 332.137859 307.584 
L 332.137859 283.180716 
L 330.078739 283.180716 
z
" style="fill:#fa9ba4;opacity:0.2;"/>
   </g>
   <g id="patch_115">
    <path clip-path="url(#p9818fb7359)" d="M 332.36665 307.584 
L 334.42577 307.584 
L 334.42577 293.639266 
L 332.36665 293.639266 
z
" style="fill:#fa9ba4;opacity:0.2;"/>
   </g>
   <g id="patch_116">
    <path clip-path="url(#p9818fb7359)" d="M 334.654561 307.584 
L 336.713681 307.584 
L 336.713681 288.991022 
L 334.654561 288.991022 
z
" style="fill:#fa9ba4;opacity:0.2;"/>
   </g>
   <g id="patch_117">
    <path clip-path="url(#p9818fb7359)" d="M 336.942472 307.584 
L 339.001591 307.584 
L 339.001591 251.805066 
L 336.942472 251.805066 
z
" style="fill:#fa9ba4;opacity:0.2;"/>
   </g>
   <g id="patch_118">
    <path clip-path="url(#p9818fb7359)" d="M 339.230382 307.584 
L 341.289502 307.584 
L 341.289502 187.891703 
L 339.230382 187.891703 
z
" style="fill:#fa9ba4;opacity:0.2;"/>
   </g>
   <g id="patch_119">
    <path clip-path="url(#p9818fb7359)" d="M 341.518293 307.584 
L 343.577413 307.584 
L 343.577413 97.250934 
L 341.518293 97.250934 
z
" style="fill:#fa9ba4;opacity:0.2;"/>
   </g>
   <g id="patch_120">
    <path clip-path="url(#p9818fb7359)" d="M 343.806204 307.584 
L 345.865324 307.584 
L 345.865324 200.674376 
L 343.806204 200.674376 
z
" style="fill:#fa9ba4;opacity:0.2;"/>
   </g>
   <g id="patch_121">
    <path clip-path="url(#p9818fb7359)" d="M 346.094115 307.584 
L 348.153235 307.584 
L 348.153235 194.86407 
L 346.094115 194.86407 
z
" style="fill:#fa9ba4;opacity:0.2;"/>
   </g>
   <g id="patch_122">
    <path clip-path="url(#p9818fb7359)" d="M 348.382026 307.584 
L 350.441145 307.584 
L 350.441145 223.915598 
L 348.382026 223.915598 
z
" style="fill:#fa9ba4;opacity:0.2;"/>
   </g>
   <g id="patch_123">
    <path clip-path="url(#p9818fb7359)" d="M 350.669937 307.584 
L 352.729056 307.584 
L 352.729056 193.702009 
L 350.669937 193.702009 
z
" style="fill:#fa9ba4;opacity:0.2;"/>
   </g>
   <g id="patch_124">
    <path clip-path="url(#p9818fb7359)" d="M 352.957847 307.584 
L 355.016967 307.584 
L 355.016967 178.595214 
L 352.957847 178.595214 
z
" style="fill:#fa9ba4;opacity:0.2;"/>
   </g>
   <g id="patch_125">
    <path clip-path="url(#p9818fb7359)" d="M 355.245758 307.584 
L 357.304878 307.584 
L 357.304878 190.215825 
L 355.245758 190.215825 
z
" style="fill:#fa9ba4;opacity:0.2;"/>
   </g>
   <g id="patch_126">
    <path clip-path="url(#p9818fb7359)" d="M 357.533669 307.584 
L 359.592789 307.584 
L 359.592789 41.472 
L 357.533669 41.472 
z
" style="fill:#fa9ba4;opacity:0.2;"/>
   </g>
   <g id="patch_127">
    <path clip-path="url(#p9818fb7359)" d="M 359.82158 307.584 
L 361.8807 307.584 
L 361.8807 191.377886 
L 359.82158 191.377886 
z
" style="fill:#fa9ba4;opacity:0.2;"/>
   </g>
   <g id="patch_128">
    <path clip-path="url(#p9818fb7359)" d="M 362.109491 307.584 
L 364.16861 307.584 
L 364.16861 211.132926 
L 362.109491 211.132926 
z
" style="fill:#fa9ba4;opacity:0.2;"/>
   </g>
   <g id="patch_129">
    <path clip-path="url(#p9818fb7359)" d="M 364.397401 307.584 
L 366.456521 307.584 
L 366.456521 214.619109 
L 364.397401 214.619109 
z
" style="fill:#fa9ba4;opacity:0.2;"/>
   </g>
   <g id="patch_130">
    <path clip-path="url(#p9818fb7359)" d="M 366.685312 307.584 
L 368.744432 307.584 
L 368.744432 194.86407 
L 366.685312 194.86407 
z
" style="fill:#fa9ba4;opacity:0.2;"/>
   </g>
   <g id="patch_131">
    <path clip-path="url(#p9818fb7359)" d="M 368.973223 307.584 
L 371.032343 307.584 
L 371.032343 161.164297 
L 368.973223 161.164297 
z
" style="fill:#fa9ba4;opacity:0.2;"/>
   </g>
   <g id="patch_132">
    <path clip-path="url(#p9818fb7359)" d="M 371.261134 307.584 
L 373.320254 307.584 
L 373.320254 165.812541 
L 371.261134 165.812541 
z
" style="fill:#fa9ba4;opacity:0.2;"/>
   </g>
   <g id="patch_133">
    <path clip-path="url(#p9818fb7359)" d="M 373.549045 307.584 
L 375.608165 307.584 
L 375.608165 215.78117 
L 373.549045 215.78117 
z
" style="fill:#fa9ba4;opacity:0.2;"/>
   </g>
   <g id="patch_134">
    <path clip-path="url(#p9818fb7359)" d="M 375.836956 307.584 
L 377.896075 307.584 
L 377.896075 185.567581 
L 375.836956 185.567581 
z
" style="fill:#fa9ba4;opacity:0.2;"/>
   </g>
   <g id="patch_135">
    <path clip-path="url(#p9818fb7359)" d="M 378.124866 307.584 
L 380.183986 307.584 
L 380.183986 211.132926 
L 378.124866 211.132926 
z
" style="fill:#fa9ba4;opacity:0.2;"/>
   </g>
   <g id="patch_136">
    <path clip-path="url(#p9818fb7359)" d="M 380.412777 307.584 
L 382.471897 307.584 
L 382.471897 177.433153 
L 380.412777 177.433153 
z
" style="fill:#fa9ba4;opacity:0.2;"/>
   </g>
   <g id="patch_137">
    <path clip-path="url(#p9818fb7359)" d="M 382.700688 307.584 
L 384.759808 307.584 
L 384.759808 175.109031 
L 382.700688 175.109031 
z
" style="fill:#fa9ba4;opacity:0.2;"/>
   </g>
   <g id="patch_138">
    <path clip-path="url(#p9818fb7359)" d="M 384.988599 307.584 
L 387.047719 307.584 
L 387.047719 154.19193 
L 384.988599 154.19193 
z
" style="fill:#fa9ba4;opacity:0.2;"/>
   </g>
   <g id="patch_139">
    <path clip-path="url(#p9818fb7359)" d="M 387.27651 307.584 
L 389.335629 307.584 
L 389.335629 160.002236 
L 387.27651 160.002236 
z
" style="fill:#fa9ba4;opacity:0.2;"/>
   </g>
   <g id="patch_140">
    <path clip-path="url(#p9818fb7359)" d="M 389.564421 307.584 
L 391.62354 307.584 
L 391.62354 198.350253 
L 389.564421 198.350253 
z
" style="fill:#fa9ba4;opacity:0.2;"/>
   </g>
   <g id="patch_141">
    <path clip-path="url(#p9818fb7359)" d="M 391.852331 307.584 
L 393.911451 307.584 
L 393.911451 129.788646 
L 391.852331 129.788646 
z
" style="fill:#fa9ba4;opacity:0.2;"/>
   </g>
   <g id="patch_142">
    <path clip-path="url(#p9818fb7359)" d="M 394.140242 307.584 
L 396.199362 307.584 
L 396.199362 307.584 
L 394.140242 307.584 
z
" style="fill:#fa9ba4;opacity:0.2;"/>
   </g>
   <g id="patch_143">
    <path clip-path="url(#p9818fb7359)" d="M 396.428153 307.584 
L 398.487273 307.584 
L 398.487273 307.584 
L 396.428153 307.584 
z
" style="fill:#fa9ba4;opacity:0.2;"/>
   </g>
   <g id="matplotlib.axis_1"/>
   <g id="matplotlib.axis_2"/>
   <g id="PolyCollection_1">
    <defs>
     <path d="M 367.714872 -170.988996 
L 367.714872 -38.016 
L 370.002783 -38.016 
L 372.290694 -38.016 
L 374.578605 -38.016 
L 376.866515 -38.016 
L 379.154426 -38.016 
L 381.442337 -38.016 
L 383.730248 -38.016 
L 386.018159 -38.016 
L 388.30607 -38.016 
L 390.59398 -38.016 
L 392.881891 -38.016 
L 395.169802 -38.016 
L 397.457713 -38.016 
L 397.457713 -140.941415 
L 397.457713 -140.941415 
L 395.169802 -159.534393 
L 392.881891 -173.313118 
L 390.59398 -165.344699 
L 388.30607 -162.854568 
L 386.018159 -162.024524 
L 383.730248 -161.028472 
L 381.442337 -158.206323 
L 379.154426 -152.894044 
L 376.866515 -152.894044 
L 374.578605 -152.064 
L 372.290694 -176.96531 
L 370.002783 -173.479127 
L 367.714872 -170.988996 
z
" id="ma1ba8f843f" style="stroke:#dc3545;stroke-opacity:0.5;"/>
    </defs>
    <g clip-path="url(#p9818fb7359)">
     <use style="fill:#dc3545;fill-opacity:0.5;stroke:#dc3545;stroke-opacity:0.5;" x="0" xlink:href="#ma1ba8f843f" y="345.6"/>
    </g>
   </g>
   <g id="PolyCollection_2">
    <defs>
     <path d="M 88.589752 -47.478498 
L 88.589752 -38.016 
L 90.877663 -38.016 
L 93.165574 -38.016 
L 95.453485 -38.016 
L 97.741395 -38.016 
L 100.029306 -38.016 
L 102.317217 -38.016 
L 104.605128 -38.016 
L 106.893039 -38.016 
L 109.180949 -38.016 
L 111.46886 -38.016 
L 113.756771 -38.016 
L 116.044682 -38.016 
L 118.332593 -38.016 
L 120.620504 -38.016 
L 122.908414 -38.016 
L 125.196325 -38.016 
L 127.484236 -38.016 
L 129.772147 -38.016 
L 132.060058 -38.016 
L 134.347968 -38.016 
L 136.635879 -38.016 
L 138.92379 -38.016 
L 141.211701 -38.016 
L 143.499612 -38.016 
L 145.787523 -38.016 
L 148.075433 -38.016 
L 150.363344 -38.016 
L 152.651255 -38.016 
L 154.939166 -38.016 
L 157.227077 -38.016 
L 159.514988 -38.016 
L 161.802898 -38.016 
L 164.090809 -38.016 
L 166.37872 -38.016 
L 168.666631 -38.016 
L 170.954542 -38.016 
L 173.242452 -38.016 
L 175.530363 -38.016 
L 177.818274 -38.016 
L 180.106185 -38.016 
L 182.394096 -38.016 
L 184.682007 -38.016 
L 186.969917 -38.016 
L 189.257828 -38.016 
L 191.545739 -38.016 
L 193.83365 -38.016 
L 196.121561 -38.016 
L 198.409471 -38.016 
L 200.697382 -38.016 
L 202.985293 -38.016 
L 205.273204 -38.016 
L 207.561115 -38.016 
L 209.849026 -38.016 
L 212.136936 -38.016 
L 214.424847 -38.016 
L 216.712758 -38.016 
L 219.000669 -38.016 
L 221.28858 -38.016 
L 223.57649 -38.016 
L 225.864401 -38.016 
L 228.152312 -38.016 
L 230.440223 -38.016 
L 232.728134 -38.016 
L 235.016045 -38.016 
L 237.303955 -38.016 
L 239.591866 -38.016 
L 241.879777 -38.016 
L 244.167688 -38.016 
L 246.455599 -38.016 
L 248.74351 -38.016 
L 251.03142 -38.016 
L 253.319331 -38.016 
L 255.607242 -38.016 
L 257.895153 -38.016 
L 260.183064 -38.016 
L 262.470974 -38.016 
L 264.758885 -38.016 
L 267.046796 -38.016 
L 269.334707 -38.016 
L 271.622618 -38.016 
L 273.910529 -38.016 
L 276.198439 -38.016 
L 278.48635 -38.016 
L 280.774261 -38.016 
L 283.062172 -38.016 
L 285.350083 -38.016 
L 287.637993 -38.016 
L 289.925904 -38.016 
L 292.213815 -38.016 
L 294.501726 -38.016 
L 296.789637 -38.016 
L 299.077548 -38.016 
L 301.365458 -38.016 
L 303.653369 -38.016 
L 305.94128 -38.016 
L 308.229191 -38.016 
L 310.517102 -38.016 
L 312.805012 -38.016 
L 315.092923 -38.016 
L 317.380834 -38.016 
L 319.668745 -38.016 
L 321.956656 -38.016 
L 324.244567 -38.016 
L 326.532477 -38.016 
L 328.820388 -38.016 
L 331.108299 -38.016 
L 333.39621 -38.016 
L 335.684121 -38.016 
L 337.972032 -38.016 
L 340.259942 -38.016 
L 342.547853 -38.016 
L 344.835764 -38.016 
L 347.123675 -38.016 
L 349.411586 -38.016 
L 351.699496 -38.016 
L 353.987407 -38.016 
L 356.275318 -38.016 
L 358.563229 -38.016 
L 360.85114 -38.016 
L 363.139051 -38.016 
L 365.426961 -38.016 
L 367.714872 -38.016 
L 367.714872 -170.988996 
L 367.714872 -170.988996 
L 365.426961 -171.155004 
L 363.139051 -169.826934 
L 360.85114 -172.151057 
L 358.563229 -170.822987 
L 356.275318 -162.854568 
L 353.987407 -163.186585 
L 351.699496 -152.728035 
L 349.411586 -139.115319 
L 347.123675 -129.154795 
L 344.835764 -116.538131 
L 342.547853 -102.593397 
L 340.259942 -73.873886 
L 337.972032 -56.940996 
L 335.684121 -49.968629 
L 333.39621 -47.478498 
L 331.108299 -46.150428 
L 328.820388 -44.324332 
L 326.532477 -43.494288 
L 324.244567 -43.162271 
L 321.956656 -43.162271 
L 319.668745 -42.332227 
L 317.380834 -42.166218 
L 315.092923 -41.834201 
L 312.805012 -40.340122 
L 310.517102 -40.174114 
L 308.229191 -39.34407 
L 305.94128 -39.178061 
L 303.653369 -39.178061 
L 301.365458 -39.178061 
L 299.077548 -38.846044 
L 296.789637 -38.680035 
L 294.501726 -38.514026 
L 292.213815 -39.34407 
L 289.925904 -39.34407 
L 287.637993 -39.676087 
L 285.350083 -40.008105 
L 283.062172 -40.008105 
L 280.774261 -40.67214 
L 278.48635 -42.830253 
L 276.198439 -42.00021 
L 273.910529 -42.00021 
L 271.622618 -42.332227 
L 269.334707 -42.332227 
L 267.046796 -43.162271 
L 264.758885 -42.498236 
L 262.470974 -41.336175 
L 260.183064 -41.336175 
L 257.895153 -41.834201 
L 255.607242 -41.170166 
L 253.319331 -41.170166 
L 251.03142 -42.498236 
L 248.74351 -42.498236 
L 246.455599 -42.664245 
L 244.167688 -42.664245 
L 241.879777 -42.166218 
L 239.591866 -42.664245 
L 237.303955 -42.830253 
L 235.016045 -41.170166 
L 232.728134 -41.170166 
L 230.440223 -40.506131 
L 228.152312 -42.00021 
L 225.864401 -42.166218 
L 223.57649 -41.668192 
L 221.28858 -42.664245 
L 219.000669 -42.996262 
L 216.712758 -43.328279 
L 214.424847 -43.162271 
L 212.136936 -41.502183 
L 209.849026 -41.834201 
L 207.561115 -43.328279 
L 205.273204 -42.332227 
L 202.985293 -41.668192 
L 200.697382 -41.834201 
L 198.409471 -41.336175 
L 196.121561 -42.332227 
L 193.83365 -42.166218 
L 191.545739 -41.502183 
L 189.257828 -41.668192 
L 186.969917 -42.166218 
L 184.682007 -42.166218 
L 182.394096 -42.830253 
L 180.106185 -42.00021 
L 177.818274 -43.494288 
L 175.530363 -42.498236 
L 173.242452 -42.00021 
L 170.954542 -41.668192 
L 168.666631 -41.502183 
L 166.37872 -41.170166 
L 164.090809 -41.336175 
L 161.802898 -42.664245 
L 159.514988 -43.660297 
L 157.227077 -45.486393 
L 154.939166 -47.478498 
L 152.651255 -50.300646 
L 150.363344 -53.454812 
L 148.075433 -61.423231 
L 145.787523 -65.57345 
L 143.499612 -70.055686 
L 141.211701 -72.545817 
L 138.92379 -84.664454 
L 136.635879 -81.676297 
L 134.347968 -84.996472 
L 132.060058 -89.478707 
L 129.772147 -87.486603 
L 127.484236 -90.47476 
L 125.196325 -88.648664 
L 122.908414 -92.134847 
L 120.620504 -97.281118 
L 118.332593 -92.300856 
L 116.044682 -80.182218 
L 113.756771 -76.198009 
L 111.46886 -68.561607 
L 109.180949 -66.237485 
L 106.893039 -48.972576 
L 104.605128 -44.988367 
L 102.317217 -43.494288 
L 100.029306 -48.47455 
L 97.741395 -47.810515 
L 95.453485 -47.810515 
L 93.165574 -48.806568 
L 90.877663 -48.806568 
L 88.589752 -47.478498 
z
" id="m4b6946323f" style="stroke:#fa9ba4;stroke-opacity:0.3;"/>
    </defs>
    <g clip-path="url(#p9818fb7359)">
     <use style="fill:#fa9ba4;fill-opacity:0.3;stroke:#fa9ba4;stroke-opacity:0.3;" x="0" xlink:href="#m4b6946323f" y="345.6"/>
    </g>
   </g>
   <g id="line2d_1">
    <path clip-path="url(#p9818fb7359)" d="M 88.589752 298.121502 
L 90.877663 296.793432 
L 93.165574 296.793432 
L 95.453485 297.789485 
L 97.741395 297.789485 
L 100.029306 297.12545 
L 102.317217 302.105712 
L 104.605128 300.611633 
L 106.893039 296.627424 
L 109.180949 279.362515 
L 111.46886 277.038393 
L 113.756771 269.401991 
L 116.044682 265.417782 
L 118.332593 253.299144 
L 120.620504 248.318882 
L 122.908414 253.465153 
L 125.196325 256.951336 
L 127.484236 255.12524 
L 129.772147 258.113397 
L 132.060058 256.121293 
L 134.347968 260.603528 
L 136.635879 263.923703 
L 138.92379 260.935546 
L 141.211701 273.054183 
L 143.499612 275.544314 
L 145.787523 280.02655 
L 148.075433 284.176769 
L 150.363344 292.145188 
L 152.651255 295.299354 
L 154.939166 298.121502 
L 157.227077 300.113607 
L 159.514988 301.939703 
L 161.802898 302.935755 
L 164.090809 304.263825 
L 166.37872 304.429834 
L 168.666631 304.097817 
L 170.954542 303.931808 
L 173.242452 303.59979 
L 175.530363 303.101764 
L 177.818274 302.105712 
L 180.106185 303.59979 
L 182.394096 302.769747 
L 184.682007 303.433782 
L 186.969917 303.433782 
L 189.257828 303.931808 
L 191.545739 304.097817 
L 193.83365 303.433782 
L 196.121561 303.267773 
L 198.409471 304.263825 
L 200.697382 303.765799 
L 202.985293 303.931808 
L 205.273204 303.267773 
L 207.561115 302.271721 
L 209.849026 303.765799 
L 212.136936 304.097817 
L 214.424847 302.437729 
L 216.712758 302.271721 
L 221.28858 302.935755 
L 223.57649 303.931808 
L 225.864401 303.433782 
L 228.152312 303.59979 
L 230.440223 305.093869 
L 232.728134 304.429834 
L 235.016045 304.429834 
L 237.303955 302.769747 
L 239.591866 302.935755 
L 241.879777 303.433782 
L 244.167688 302.935755 
L 246.455599 302.935755 
L 248.74351 303.101764 
L 251.03142 303.101764 
L 253.319331 304.429834 
L 255.607242 304.429834 
L 257.895153 303.765799 
L 260.183064 304.263825 
L 262.470974 304.263825 
L 264.758885 303.101764 
L 267.046796 302.437729 
L 269.334707 303.267773 
L 271.622618 303.267773 
L 273.910529 303.59979 
L 276.198439 303.59979 
L 278.48635 302.769747 
L 280.774261 304.92786 
L 283.062172 305.591895 
L 285.350083 305.591895 
L 289.925904 306.25593 
L 292.213815 306.25593 
L 294.501726 307.085974 
L 299.077548 306.753956 
L 301.365458 306.421939 
L 305.94128 306.421939 
L 308.229191 306.25593 
L 310.517102 305.425886 
L 312.805012 305.259878 
L 315.092923 303.765799 
L 317.380834 303.433782 
L 319.668745 303.267773 
L 321.956656 302.437729 
L 324.244567 302.437729 
L 326.532477 302.105712 
L 328.820388 301.275668 
L 331.108299 299.449572 
L 333.39621 298.121502 
L 335.684121 295.631371 
L 337.972032 288.659004 
L 340.259942 271.726114 
L 342.547853 243.006603 
L 344.835764 229.061869 
L 347.123675 216.445205 
L 349.411586 206.484681 
L 351.699496 192.871965 
L 353.987407 182.413415 
L 356.275318 182.745432 
L 358.563229 174.777013 
L 360.85114 173.448943 
L 363.139051 175.773066 
L 365.426961 174.444996 
L 367.714872 174.611004 
L 370.002783 172.120873 
L 372.290694 168.63469 
L 374.578605 193.536 
L 376.866515 192.705956 
L 379.154426 192.705956 
L 381.442337 187.393677 
L 383.730248 184.571528 
L 386.018159 183.575476 
L 388.30607 182.745432 
L 390.59398 180.255301 
L 392.881891 172.286882 
L 395.169802 186.065607 
L 397.457713 204.658585 
L 397.457713 204.658585 
" style="fill:none;stroke:#fa9ba4;stroke-linecap:square;stroke-width:2;"/>
   </g>
   <g id="line2d_2">
    <path clip-path="url(#p9818fb7359)" d="M 367.714872 174.611004 
L 370.002783 172.120873 
L 372.290694 168.63469 
L 374.578605 193.536 
L 376.866515 192.705956 
L 379.154426 192.705956 
L 381.442337 187.393677 
L 383.730248 184.571528 
L 386.018159 183.575476 
L 388.30607 182.745432 
L 390.59398 180.255301 
L 392.881891 172.286882 
L 395.169802 186.065607 
L 397.457713 204.658585 
" style="fill:none;stroke:#dc3545;stroke-linecap:square;stroke-width:2;"/>
   </g>
  </g>
 </g>
 <defs>
  <clipPath id="p9818fb7359">
   <rect height="266.112" width="357.12" x="57.6" y="41.472"/>
  </clipPath>
 </defs>
</svg>
