<?xml version="1.0" encoding="utf-8" standalone="no"?>
<!DOCTYPE svg PUBLIC "-//W3C//DTD SVG 1.1//EN"
  "http://www.w3.org/Graphics/SVG/1.1/DTD/svg11.dtd">
<!-- Created with matplotlib (https://matplotlib.org/) -->
<svg height="345.6pt" version="1.1" viewBox="0 0 460.8 345.6" width="460.8pt" xmlns="http://www.w3.org/2000/svg" xmlns:xlink="http://www.w3.org/1999/xlink">
 <metadata>
  <rdf:RDF xmlns:cc="http://creativecommons.org/ns#" xmlns:dc="http://purl.org/dc/elements/1.1/" xmlns:rdf="http://www.w3.org/1999/02/22-rdf-syntax-ns#">
   <cc:Work>
    <dc:type rdf:resource="http://purl.org/dc/dcmitype/StillImage"/>
    <dc:date>2021-01-29T13:02:13.377097</dc:date>
    <dc:format>image/svg+xml</dc:format>
    <dc:creator>
     <cc:Agent>
      <dc:title>Matplotlib v3.3.4, https://matplotlib.org/</dc:title>
     </cc:Agent>
    </dc:creator>
   </cc:Work>
  </rdf:RDF>
 </metadata>
 <defs>
  <style type="text/css">*{stroke-linecap:butt;stroke-linejoin:round;}</style>
 </defs>
 <g id="figure_1">
  <g id="patch_1">
   <path d="M 0 345.6 
L 460.8 345.6 
L 460.8 0 
L 0 0 
z
" style="fill:none;"/>
  </g>
  <g id="axes_1">
   <g id="patch_2">
    <path clip-path="url(#p2e455cc3a0)" d="M 73.832727 307.584 
L 80.340279 307.584 
L 80.340279 307.584 
L 73.832727 307.584 
z
" style="fill:#fa9ba4;opacity:0.2;"/>
   </g>
   <g id="patch_3">
    <path clip-path="url(#p2e455cc3a0)" d="M 81.063341 307.584 
L 87.570893 307.584 
L 87.570893 297.728 
L 81.063341 297.728 
z
" style="fill:#fa9ba4;opacity:0.2;"/>
   </g>
   <g id="patch_4">
    <path clip-path="url(#p2e455cc3a0)" d="M 88.293954 307.584 
L 94.801506 307.584 
L 94.801506 287.872 
L 88.293954 287.872 
z
" style="fill:#fa9ba4;opacity:0.2;"/>
   </g>
   <g id="patch_5">
    <path clip-path="url(#p2e455cc3a0)" d="M 95.524568 307.584 
L 102.03212 307.584 
L 102.03212 295.264 
L 95.524568 295.264 
z
" style="fill:#fa9ba4;opacity:0.2;"/>
   </g>
   <g id="patch_6">
    <path clip-path="url(#p2e455cc3a0)" d="M 102.755181 307.584 
L 109.262733 307.584 
L 109.262733 297.728 
L 102.755181 297.728 
z
" style="fill:#fa9ba4;opacity:0.2;"/>
   </g>
   <g id="patch_7">
    <path clip-path="url(#p2e455cc3a0)" d="M 109.985795 307.584 
L 116.493347 307.584 
L 116.493347 223.808 
L 109.985795 223.808 
z
" style="fill:#fa9ba4;opacity:0.2;"/>
   </g>
   <g id="patch_8">
    <path clip-path="url(#p2e455cc3a0)" d="M 117.216408 307.584 
L 123.72396 307.584 
L 123.72396 302.656 
L 117.216408 302.656 
z
" style="fill:#fa9ba4;opacity:0.2;"/>
   </g>
   <g id="patch_9">
    <path clip-path="url(#p2e455cc3a0)" d="M 124.447022 307.584 
L 130.954574 307.584 
L 130.954574 287.872 
L 124.447022 287.872 
z
" style="fill:#fa9ba4;opacity:0.2;"/>
   </g>
   <g id="patch_10">
    <path clip-path="url(#p2e455cc3a0)" d="M 131.677635 307.584 
L 138.185187 307.584 
L 138.185187 297.728 
L 131.677635 297.728 
z
" style="fill:#fa9ba4;opacity:0.2;"/>
   </g>
   <g id="patch_11">
    <path clip-path="url(#p2e455cc3a0)" d="M 138.908249 307.584 
L 145.415801 307.584 
L 145.415801 302.656 
L 138.908249 302.656 
z
" style="fill:#fa9ba4;opacity:0.2;"/>
   </g>
   <g id="patch_12">
    <path clip-path="url(#p2e455cc3a0)" d="M 146.138862 307.584 
L 152.646414 307.584 
L 152.646414 295.264 
L 146.138862 295.264 
z
" style="fill:#fa9ba4;opacity:0.2;"/>
   </g>
   <g id="patch_13">
    <path clip-path="url(#p2e455cc3a0)" d="M 153.369476 307.584 
L 159.877028 307.584 
L 159.877028 287.872 
L 153.369476 287.872 
z
" style="fill:#fa9ba4;opacity:0.2;"/>
   </g>
   <g id="patch_14">
    <path clip-path="url(#p2e455cc3a0)" d="M 160.600089 307.584 
L 167.107641 307.584 
L 167.107641 297.728 
L 160.600089 297.728 
z
" style="fill:#fa9ba4;opacity:0.2;"/>
   </g>
   <g id="patch_15">
    <path clip-path="url(#p2e455cc3a0)" d="M 167.830703 307.584 
L 174.338255 307.584 
L 174.338255 280.48 
L 167.830703 280.48 
z
" style="fill:#fa9ba4;opacity:0.2;"/>
   </g>
   <g id="patch_16">
    <path clip-path="url(#p2e455cc3a0)" d="M 175.061316 307.584 
L 181.568868 307.584 
L 181.568868 228.736 
L 175.061316 228.736 
z
" style="fill:#fa9ba4;opacity:0.2;"/>
   </g>
   <g id="patch_17">
    <path clip-path="url(#p2e455cc3a0)" d="M 182.29193 307.584 
L 188.799482 307.584 
L 188.799482 41.472 
L 182.29193 41.472 
z
" style="fill:#fa9ba4;opacity:0.2;"/>
   </g>
   <g id="patch_18">
    <path clip-path="url(#p2e455cc3a0)" d="M 189.522543 307.584 
L 196.030095 307.584 
L 196.030095 268.16 
L 189.522543 268.16 
z
" style="fill:#fa9ba4;opacity:0.2;"/>
   </g>
   <g id="patch_19">
    <path clip-path="url(#p2e455cc3a0)" d="M 196.753157 307.584 
L 203.260709 307.584 
L 203.260709 181.92 
L 196.753157 181.92 
z
" style="fill:#fa9ba4;opacity:0.2;"/>
   </g>
   <g id="patch_20">
    <path clip-path="url(#p2e455cc3a0)" d="M 203.98377 307.584 
L 210.491322 307.584 
L 210.491322 228.736 
L 203.98377 228.736 
z
" style="fill:#fa9ba4;opacity:0.2;"/>
   </g>
   <g id="patch_21">
    <path clip-path="url(#p2e455cc3a0)" d="M 211.214383 307.584 
L 217.721936 307.584 
L 217.721936 117.856 
L 211.214383 117.856 
z
" style="fill:#fa9ba4;opacity:0.2;"/>
   </g>
   <g id="patch_22">
    <path clip-path="url(#p2e455cc3a0)" d="M 218.444997 307.584 
L 224.952549 307.584 
L 224.952549 206.56 
L 218.444997 206.56 
z
" style="fill:#fa9ba4;opacity:0.2;"/>
   </g>
   <g id="patch_23">
    <path clip-path="url(#p2e455cc3a0)" d="M 225.67561 307.584 
L 232.183163 307.584 
L 232.183163 305.12 
L 225.67561 305.12 
z
" style="fill:#fa9ba4;opacity:0.2;"/>
   </g>
   <g id="patch_24">
    <path clip-path="url(#p2e455cc3a0)" d="M 232.906224 307.584 
L 239.413776 307.584 
L 239.413776 93.216 
L 232.906224 93.216 
z
" style="fill:#fa9ba4;opacity:0.2;"/>
   </g>
   <g id="patch_25">
    <path clip-path="url(#p2e455cc3a0)" d="M 240.136837 307.584 
L 246.64439 307.584 
L 246.64439 241.056 
L 240.136837 241.056 
z
" style="fill:#fa9ba4;opacity:0.2;"/>
   </g>
   <g id="patch_26">
    <path clip-path="url(#p2e455cc3a0)" d="M 247.367451 307.584 
L 253.875003 307.584 
L 253.875003 226.272 
L 247.367451 226.272 
z
" style="fill:#fa9ba4;opacity:0.2;"/>
   </g>
   <g id="patch_27">
    <path clip-path="url(#p2e455cc3a0)" d="M 254.598064 307.584 
L 261.105617 307.584 
L 261.105617 199.168 
L 254.598064 199.168 
z
" style="fill:#fa9ba4;opacity:0.2;"/>
   </g>
   <g id="patch_28">
    <path clip-path="url(#p2e455cc3a0)" d="M 261.828678 307.584 
L 268.33623 307.584 
L 268.33623 184.384 
L 261.828678 184.384 
z
" style="fill:#fa9ba4;opacity:0.2;"/>
   </g>
   <g id="patch_29">
    <path clip-path="url(#p2e455cc3a0)" d="M 269.059291 307.584 
L 275.566843 307.584 
L 275.566843 255.84 
L 269.059291 255.84 
z
" style="fill:#fa9ba4;opacity:0.2;"/>
   </g>
   <g id="patch_30">
    <path clip-path="url(#p2e455cc3a0)" d="M 276.289905 307.584 
L 282.797457 307.584 
L 282.797457 260.768 
L 276.289905 260.768 
z
" style="fill:#fa9ba4;opacity:0.2;"/>
   </g>
   <g id="patch_31">
    <path clip-path="url(#p2e455cc3a0)" d="M 283.520518 307.584 
L 290.02807 307.584 
L 290.02807 273.088 
L 283.520518 273.088 
z
" style="fill:#fa9ba4;opacity:0.2;"/>
   </g>
   <g id="patch_32">
    <path clip-path="url(#p2e455cc3a0)" d="M 290.751132 307.584 
L 297.258684 307.584 
L 297.258684 278.016 
L 290.751132 278.016 
z
" style="fill:#fa9ba4;opacity:0.2;"/>
   </g>
   <g id="patch_33">
    <path clip-path="url(#p2e455cc3a0)" d="M 297.981745 307.584 
L 304.489297 307.584 
L 304.489297 292.8 
L 297.981745 292.8 
z
" style="fill:#fa9ba4;opacity:0.2;"/>
   </g>
   <g id="patch_34">
    <path clip-path="url(#p2e455cc3a0)" d="M 305.212359 307.584 
L 311.719911 307.584 
L 311.719911 260.768 
L 305.212359 260.768 
z
" style="fill:#fa9ba4;opacity:0.2;"/>
   </g>
   <g id="patch_35">
    <path clip-path="url(#p2e455cc3a0)" d="M 312.442972 307.584 
L 318.950524 307.584 
L 318.950524 302.656 
L 312.442972 302.656 
z
" style="fill:#fa9ba4;opacity:0.2;"/>
   </g>
   <g id="patch_36">
    <path clip-path="url(#p2e455cc3a0)" d="M 319.673586 307.584 
L 326.181138 307.584 
L 326.181138 302.656 
L 319.673586 302.656 
z
" style="fill:#fa9ba4;opacity:0.2;"/>
   </g>
   <g id="patch_37">
    <path clip-path="url(#p2e455cc3a0)" d="M 326.904199 307.584 
L 333.411751 307.584 
L 333.411751 302.656 
L 326.904199 302.656 
z
" style="fill:#fa9ba4;opacity:0.2;"/>
   </g>
   <g id="patch_38">
    <path clip-path="url(#p2e455cc3a0)" d="M 334.134813 307.584 
L 340.642365 307.584 
L 340.642365 302.656 
L 334.134813 302.656 
z
" style="fill:#fa9ba4;opacity:0.2;"/>
   </g>
   <g id="patch_39">
    <path clip-path="url(#p2e455cc3a0)" d="M 341.365426 307.584 
L 347.872978 307.584 
L 347.872978 305.12 
L 341.365426 305.12 
z
" style="fill:#fa9ba4;opacity:0.2;"/>
   </g>
   <g id="patch_40">
    <path clip-path="url(#p2e455cc3a0)" d="M 348.59604 307.584 
L 355.103592 307.584 
L 355.103592 307.584 
L 348.59604 307.584 
z
" style="fill:#fa9ba4;opacity:0.2;"/>
   </g>
   <g id="patch_41">
    <path clip-path="url(#p2e455cc3a0)" d="M 355.826653 307.584 
L 362.334205 307.584 
L 362.334205 280.48 
L 355.826653 280.48 
z
" style="fill:#fa9ba4;opacity:0.2;"/>
   </g>
   <g id="patch_42">
    <path clip-path="url(#p2e455cc3a0)" d="M 363.057267 307.584 
L 369.564819 307.584 
L 369.564819 305.12 
L 363.057267 305.12 
z
" style="fill:#fa9ba4;opacity:0.2;"/>
   </g>
   <g id="patch_43">
    <path clip-path="url(#p2e455cc3a0)" d="M 370.28788 307.584 
L 376.795432 307.584 
L 376.795432 307.584 
L 370.28788 307.584 
z
" style="fill:#fa9ba4;opacity:0.2;"/>
   </g>
   <g id="patch_44">
    <path clip-path="url(#p2e455cc3a0)" d="M 377.518494 307.584 
L 384.026046 307.584 
L 384.026046 307.584 
L 377.518494 307.584 
z
" style="fill:#fa9ba4;opacity:0.2;"/>
   </g>
   <g id="patch_45">
    <path clip-path="url(#p2e455cc3a0)" d="M 384.749107 307.584 
L 391.256659 307.584 
L 391.256659 307.584 
L 384.749107 307.584 
z
" style="fill:#fa9ba4;opacity:0.2;"/>
   </g>
   <g id="patch_46">
    <path clip-path="url(#p2e455cc3a0)" d="M 391.979721 307.584 
L 398.487273 307.584 
L 398.487273 307.584 
L 391.979721 307.584 
z
" style="fill:#fa9ba4;opacity:0.2;"/>
   </g>
   <g id="matplotlib.axis_1"/>
   <g id="matplotlib.axis_2"/>
   <g id="PolyCollection_1">
    <defs>
     <path d="M 301.235521 -96.448 
L 301.235521 -38.016 
L 308.466135 -38.016 
L 315.696748 -38.016 
L 322.927362 -38.016 
L 330.157975 -38.016 
L 337.388589 -38.016 
L 344.619202 -38.016 
L 351.849816 -38.016 
L 359.080429 -38.016 
L 366.311043 -38.016 
L 373.541656 -38.016 
L 380.77227 -38.016 
L 388.002883 -38.016 
L 395.233497 -38.016 
L 395.233497 -42.24 
L 395.233497 -42.24 
L 388.002883 -42.592 
L 380.77227 -43.296 
L 373.541656 -44 
L 366.311043 -44.704 
L 359.080429 -45.056 
L 351.849816 -47.872 
L 344.619202 -49.984 
L 337.388589 -53.856 
L 330.157975 -58.08 
L 322.927362 -64.064 
L 315.696748 -70.752 
L 308.466135 -87.648 
L 301.235521 -96.448 
z
" id="mf36ef14497" style="stroke:#dc3545;stroke-opacity:0.5;"/>
    </defs>
    <g clip-path="url(#p2e455cc3a0)">
     <use style="fill:#dc3545;fill-opacity:0.5;stroke:#dc3545;stroke-opacity:0.5;" x="0" xlink:href="#mf36ef14497" y="345.6"/>
    </g>
   </g>
   <g id="PolyCollection_2">
    <defs>
     <path d="M 120.470184 -58.08 
L 120.470184 -38.016 
L 127.700798 -38.016 
L 134.931411 -38.016 
L 142.162025 -38.016 
L 149.392638 -38.016 
L 156.623252 -38.016 
L 163.853865 -38.016 
L 171.084479 -38.016 
L 178.315092 -38.016 
L 185.545706 -38.016 
L 192.776319 -38.016 
L 200.006933 -38.016 
L 207.237546 -38.016 
L 214.46816 -38.016 
L 221.698773 -38.016 
L 228.929387 -38.016 
L 236.16 -38.016 
L 243.390613 -38.016 
L 250.621227 -38.016 
L 257.85184 -38.016 
L 265.082454 -38.016 
L 272.313067 -38.016 
L 279.543681 -38.016 
L 286.774294 -38.016 
L 294.004908 -38.016 
L 301.235521 -38.016 
L 301.235521 -96.448 
L 301.235521 -96.448 
L 294.004908 -105.952 
L 286.774294 -111.232 
L 279.543681 -136.928 
L 272.313067 -130.592 
L 265.082454 -137.632 
L 257.85184 -147.136 
L 250.621227 -142.912 
L 243.390613 -149.248 
L 236.16 -145.376 
L 228.929387 -152.768 
L 221.698773 -163.68 
L 214.46816 -153.12 
L 207.237546 -127.424 
L 200.006933 -118.976 
L 192.776319 -102.784 
L 185.545706 -97.856 
L 178.315092 -61.248 
L 171.084479 -52.8 
L 163.853865 -49.632 
L 156.623252 -60.192 
L 149.392638 -58.784 
L 142.162025 -58.784 
L 134.931411 -60.896 
L 127.700798 -60.896 
L 120.470184 -58.08 
z
" id="m3817e0648f" style="stroke:#fa9ba4;stroke-opacity:0.3;"/>
    </defs>
    <g clip-path="url(#p2e455cc3a0)">
     <use style="fill:#fa9ba4;fill-opacity:0.3;stroke:#fa9ba4;stroke-opacity:0.3;" x="0" xlink:href="#m3817e0648f" y="345.6"/>
    </g>
   </g>
   <g id="line2d_1">
    <path clip-path="url(#p2e455cc3a0)" d="M 120.470184 287.52 
L 127.700798 284.704 
L 134.931411 284.704 
L 142.162025 286.816 
L 149.392638 286.816 
L 156.623252 285.408 
L 163.853865 295.968 
L 171.084479 292.8 
L 178.315092 284.352 
L 185.545706 247.744 
L 192.776319 242.816 
L 200.006933 226.624 
L 207.237546 218.176 
L 214.46816 192.48 
L 221.698773 181.92 
L 228.929387 192.832 
L 236.16 200.224 
L 243.390613 196.352 
L 250.621227 202.688 
L 257.85184 198.464 
L 265.082454 207.968 
L 272.313067 215.008 
L 279.543681 208.672 
L 286.774294 234.368 
L 294.004908 239.648 
L 301.235521 249.152 
L 308.466135 257.952 
L 315.696748 274.848 
L 322.927362 281.536 
L 330.157975 287.52 
L 337.388589 291.744 
L 344.619202 295.616 
L 351.849816 297.728 
L 359.080429 300.544 
L 366.311043 300.896 
L 373.541656 301.6 
L 380.77227 302.304 
L 388.002883 303.008 
L 395.233497 303.36 
" style="fill:none;stroke:#fa9ba4;stroke-linecap:square;stroke-width:2;"/>
   </g>
   <g id="line2d_2">
    <path clip-path="url(#p2e455cc3a0)" d="M 301.235521 249.152 
L 308.466135 257.952 
L 315.696748 274.848 
L 322.927362 281.536 
L 330.157975 287.52 
L 337.388589 291.744 
L 344.619202 295.616 
L 351.849816 297.728 
L 359.080429 300.544 
L 366.311043 300.896 
L 373.541656 301.6 
L 380.77227 302.304 
L 388.002883 303.008 
L 395.233497 303.36 
" style="fill:none;stroke:#dc3545;stroke-linecap:square;stroke-width:2;"/>
   </g>
  </g>
 </g>
 <defs>
  <clipPath id="p2e455cc3a0">
   <rect height="266.112" width="357.12" x="57.6" y="41.472"/>
  </clipPath>
 </defs>
</svg>
