<?xml version="1.0" encoding="utf-8" standalone="no"?>
<!DOCTYPE svg PUBLIC "-//W3C//DTD SVG 1.1//EN"
  "http://www.w3.org/Graphics/SVG/1.1/DTD/svg11.dtd">
<!-- Created with matplotlib (https://matplotlib.org/) -->
<svg height="345.6pt" version="1.1" viewBox="0 0 460.8 345.6" width="460.8pt" xmlns="http://www.w3.org/2000/svg" xmlns:xlink="http://www.w3.org/1999/xlink">
 <metadata>
  <rdf:RDF xmlns:cc="http://creativecommons.org/ns#" xmlns:dc="http://purl.org/dc/elements/1.1/" xmlns:rdf="http://www.w3.org/1999/02/22-rdf-syntax-ns#">
   <cc:Work>
    <dc:type rdf:resource="http://purl.org/dc/dcmitype/StillImage"/>
    <dc:date>2021-01-26T13:02:03.782053</dc:date>
    <dc:format>image/svg+xml</dc:format>
    <dc:creator>
     <cc:Agent>
      <dc:title>Matplotlib v3.3.3, https://matplotlib.org/</dc:title>
     </cc:Agent>
    </dc:creator>
   </cc:Work>
  </rdf:RDF>
 </metadata>
 <defs>
  <style type="text/css">*{stroke-linecap:butt;stroke-linejoin:round;}</style>
 </defs>
 <g id="figure_1">
  <g id="patch_1">
   <path d="M 0 345.6 
L 460.8 345.6 
L 460.8 0 
L 0 0 
z
" style="fill:none;"/>
  </g>
  <g id="axes_1">
   <g id="patch_2">
    <path clip-path="url(#pd5ad84076e)" d="M 73.832727 307.584 
L 80.806214 307.584 
L 80.806214 307.584 
L 73.832727 307.584 
z
" style="fill:#fa9ba4;opacity:0.2;"/>
   </g>
   <g id="patch_3">
    <path clip-path="url(#pd5ad84076e)" d="M 81.581046 307.584 
L 88.554532 307.584 
L 88.554532 307.584 
L 81.581046 307.584 
z
" style="fill:#fa9ba4;opacity:0.2;"/>
   </g>
   <g id="patch_4">
    <path clip-path="url(#pd5ad84076e)" d="M 89.329364 307.584 
L 96.302851 307.584 
L 96.302851 307.584 
L 89.329364 307.584 
z
" style="fill:#fa9ba4;opacity:0.2;"/>
   </g>
   <g id="patch_5">
    <path clip-path="url(#pd5ad84076e)" d="M 97.077683 307.584 
L 104.051169 307.584 
L 104.051169 307.584 
L 97.077683 307.584 
z
" style="fill:#fa9ba4;opacity:0.2;"/>
   </g>
   <g id="patch_6">
    <path clip-path="url(#pd5ad84076e)" d="M 104.826001 307.584 
L 111.799488 307.584 
L 111.799488 307.584 
L 104.826001 307.584 
z
" style="fill:#fa9ba4;opacity:0.2;"/>
   </g>
   <g id="patch_7">
    <path clip-path="url(#pd5ad84076e)" d="M 112.57432 307.584 
L 119.547806 307.584 
L 119.547806 307.584 
L 112.57432 307.584 
z
" style="fill:#fa9ba4;opacity:0.2;"/>
   </g>
   <g id="patch_8">
    <path clip-path="url(#pd5ad84076e)" d="M 120.322638 307.584 
L 127.296125 307.584 
L 127.296125 307.584 
L 120.322638 307.584 
z
" style="fill:#fa9ba4;opacity:0.2;"/>
   </g>
   <g id="patch_9">
    <path clip-path="url(#pd5ad84076e)" d="M 128.070957 307.584 
L 135.044443 307.584 
L 135.044443 307.584 
L 128.070957 307.584 
z
" style="fill:#fa9ba4;opacity:0.2;"/>
   </g>
   <g id="patch_10">
    <path clip-path="url(#pd5ad84076e)" d="M 135.819275 307.584 
L 142.792762 307.584 
L 142.792762 307.584 
L 135.819275 307.584 
z
" style="fill:#fa9ba4;opacity:0.2;"/>
   </g>
   <g id="patch_11">
    <path clip-path="url(#pd5ad84076e)" d="M 143.567594 307.584 
L 150.54108 307.584 
L 150.54108 307.584 
L 143.567594 307.584 
z
" style="fill:#fa9ba4;opacity:0.2;"/>
   </g>
   <g id="patch_12">
    <path clip-path="url(#pd5ad84076e)" d="M 151.315912 307.584 
L 158.289399 307.584 
L 158.289399 307.584 
L 151.315912 307.584 
z
" style="fill:#fa9ba4;opacity:0.2;"/>
   </g>
   <g id="patch_13">
    <path clip-path="url(#pd5ad84076e)" d="M 159.064231 307.584 
L 166.037718 307.584 
L 166.037718 304.128 
L 159.064231 304.128 
z
" style="fill:#fa9ba4;opacity:0.2;"/>
   </g>
   <g id="patch_14">
    <path clip-path="url(#pd5ad84076e)" d="M 166.812549 307.584 
L 173.786036 307.584 
L 173.786036 183.168 
L 166.812549 183.168 
z
" style="fill:#fa9ba4;opacity:0.2;"/>
   </g>
   <g id="patch_15">
    <path clip-path="url(#pd5ad84076e)" d="M 174.560868 307.584 
L 181.534355 307.584 
L 181.534355 114.048 
L 174.560868 114.048 
z
" style="fill:#fa9ba4;opacity:0.2;"/>
   </g>
   <g id="patch_16">
    <path clip-path="url(#pd5ad84076e)" d="M 182.309186 307.584 
L 189.282673 307.584 
L 189.282673 76.032 
L 182.309186 76.032 
z
" style="fill:#fa9ba4;opacity:0.2;"/>
   </g>
   <g id="patch_17">
    <path clip-path="url(#pd5ad84076e)" d="M 190.057505 307.584 
L 197.030992 307.584 
L 197.030992 120.96 
L 190.057505 120.96 
z
" style="fill:#fa9ba4;opacity:0.2;"/>
   </g>
   <g id="patch_18">
    <path clip-path="url(#pd5ad84076e)" d="M 197.805823 307.584 
L 204.77931 307.584 
L 204.77931 41.472 
L 197.805823 41.472 
z
" style="fill:#fa9ba4;opacity:0.2;"/>
   </g>
   <g id="patch_19">
    <path clip-path="url(#pd5ad84076e)" d="M 205.554142 307.584 
L 212.527629 307.584 
L 212.527629 179.712 
L 205.554142 179.712 
z
" style="fill:#fa9ba4;opacity:0.2;"/>
   </g>
   <g id="patch_20">
    <path clip-path="url(#pd5ad84076e)" d="M 213.30246 307.584 
L 220.275947 307.584 
L 220.275947 214.272 
L 213.30246 214.272 
z
" style="fill:#fa9ba4;opacity:0.2;"/>
   </g>
   <g id="patch_21">
    <path clip-path="url(#pd5ad84076e)" d="M 221.050779 307.584 
L 228.024266 307.584 
L 228.024266 158.976 
L 221.050779 158.976 
z
" style="fill:#fa9ba4;opacity:0.2;"/>
   </g>
   <g id="patch_22">
    <path clip-path="url(#pd5ad84076e)" d="M 228.799097 307.584 
L 235.772584 307.584 
L 235.772584 162.432 
L 228.799097 162.432 
z
" style="fill:#fa9ba4;opacity:0.2;"/>
   </g>
   <g id="patch_23">
    <path clip-path="url(#pd5ad84076e)" d="M 236.547416 307.584 
L 243.520903 307.584 
L 243.520903 307.584 
L 236.547416 307.584 
z
" style="fill:#fa9ba4;opacity:0.2;"/>
   </g>
   <g id="patch_24">
    <path clip-path="url(#pd5ad84076e)" d="M 244.295734 307.584 
L 251.269221 307.584 
L 251.269221 155.52 
L 244.295734 155.52 
z
" style="fill:#fa9ba4;opacity:0.2;"/>
   </g>
   <g id="patch_25">
    <path clip-path="url(#pd5ad84076e)" d="M 252.044053 307.584 
L 259.01754 307.584 
L 259.01754 262.656 
L 252.044053 262.656 
z
" style="fill:#fa9ba4;opacity:0.2;"/>
   </g>
   <g id="patch_26">
    <path clip-path="url(#pd5ad84076e)" d="M 259.792371 307.584 
L 266.765858 307.584 
L 266.765858 283.392 
L 259.792371 283.392 
z
" style="fill:#fa9ba4;opacity:0.2;"/>
   </g>
   <g id="patch_27">
    <path clip-path="url(#pd5ad84076e)" d="M 267.54069 307.584 
L 274.514177 307.584 
L 274.514177 300.672 
L 267.54069 300.672 
z
" style="fill:#fa9ba4;opacity:0.2;"/>
   </g>
   <g id="patch_28">
    <path clip-path="url(#pd5ad84076e)" d="M 275.289008 307.584 
L 282.262495 307.584 
L 282.262495 255.744 
L 275.289008 255.744 
z
" style="fill:#fa9ba4;opacity:0.2;"/>
   </g>
   <g id="patch_29">
    <path clip-path="url(#pd5ad84076e)" d="M 283.037327 307.584 
L 290.010814 307.584 
L 290.010814 269.568 
L 283.037327 269.568 
z
" style="fill:#fa9ba4;opacity:0.2;"/>
   </g>
   <g id="patch_30">
    <path clip-path="url(#pd5ad84076e)" d="M 290.785645 307.584 
L 297.759132 307.584 
L 297.759132 276.48 
L 290.785645 276.48 
z
" style="fill:#fa9ba4;opacity:0.2;"/>
   </g>
   <g id="patch_31">
    <path clip-path="url(#pd5ad84076e)" d="M 298.533964 307.584 
L 305.507451 307.584 
L 305.507451 266.112 
L 298.533964 266.112 
z
" style="fill:#fa9ba4;opacity:0.2;"/>
   </g>
   <g id="patch_32">
    <path clip-path="url(#pd5ad84076e)" d="M 306.282282 307.584 
L 313.255769 307.584 
L 313.255769 269.568 
L 306.282282 269.568 
z
" style="fill:#fa9ba4;opacity:0.2;"/>
   </g>
   <g id="patch_33">
    <path clip-path="url(#pd5ad84076e)" d="M 314.030601 307.584 
L 321.004088 307.584 
L 321.004088 286.848 
L 314.030601 286.848 
z
" style="fill:#fa9ba4;opacity:0.2;"/>
   </g>
   <g id="patch_34">
    <path clip-path="url(#pd5ad84076e)" d="M 321.77892 307.584 
L 328.752406 307.584 
L 328.752406 293.76 
L 321.77892 293.76 
z
" style="fill:#fa9ba4;opacity:0.2;"/>
   </g>
   <g id="patch_35">
    <path clip-path="url(#pd5ad84076e)" d="M 329.527238 307.584 
L 336.500725 307.584 
L 336.500725 300.672 
L 329.527238 300.672 
z
" style="fill:#fa9ba4;opacity:0.2;"/>
   </g>
   <g id="patch_36">
    <path clip-path="url(#pd5ad84076e)" d="M 337.275557 307.584 
L 344.249043 307.584 
L 344.249043 304.128 
L 337.275557 304.128 
z
" style="fill:#fa9ba4;opacity:0.2;"/>
   </g>
   <g id="patch_37">
    <path clip-path="url(#pd5ad84076e)" d="M 345.023875 307.584 
L 351.997362 307.584 
L 351.997362 297.216 
L 345.023875 297.216 
z
" style="fill:#fa9ba4;opacity:0.2;"/>
   </g>
   <g id="patch_38">
    <path clip-path="url(#pd5ad84076e)" d="M 352.772194 307.584 
L 359.74568 307.584 
L 359.74568 297.216 
L 352.772194 297.216 
z
" style="fill:#fa9ba4;opacity:0.2;"/>
   </g>
   <g id="patch_39">
    <path clip-path="url(#pd5ad84076e)" d="M 360.520512 307.584 
L 367.493999 307.584 
L 367.493999 304.128 
L 360.520512 304.128 
z
" style="fill:#fa9ba4;opacity:0.2;"/>
   </g>
   <g id="patch_40">
    <path clip-path="url(#pd5ad84076e)" d="M 368.268831 307.584 
L 375.242317 307.584 
L 375.242317 307.584 
L 368.268831 307.584 
z
" style="fill:#fa9ba4;opacity:0.2;"/>
   </g>
   <g id="patch_41">
    <path clip-path="url(#pd5ad84076e)" d="M 376.017149 307.584 
L 382.990636 307.584 
L 382.990636 304.128 
L 376.017149 304.128 
z
" style="fill:#fa9ba4;opacity:0.2;"/>
   </g>
   <g id="patch_42">
    <path clip-path="url(#pd5ad84076e)" d="M 383.765468 307.584 
L 390.738954 307.584 
L 390.738954 304.128 
L 383.765468 304.128 
z
" style="fill:#fa9ba4;opacity:0.2;"/>
   </g>
   <g id="patch_43">
    <path clip-path="url(#pd5ad84076e)" d="M 391.513786 307.584 
L 398.487273 307.584 
L 398.487273 307.584 
L 391.513786 307.584 
z
" style="fill:#fa9ba4;opacity:0.2;"/>
   </g>
   <g id="matplotlib.axis_1"/>
   <g id="matplotlib.axis_2"/>
   <g id="PolyCollection_1">
    <defs>
     <path d="M 294.272389 -87.881143 
L 294.272389 -38.016 
L 302.020707 -38.016 
L 309.769026 -38.016 
L 317.517344 -38.016 
L 325.265663 -38.016 
L 333.013981 -38.016 
L 340.7623 -38.016 
L 348.510618 -38.016 
L 356.258937 -38.016 
L 364.007255 -38.016 
L 371.755574 -38.016 
L 379.503892 -38.016 
L 387.252211 -38.016 
L 395.000529 -38.016 
L 395.000529 -42.459429 
L 395.000529 -42.459429 
L 387.252211 -42.953143 
L 379.503892 -43.446857 
L 371.755574 -44.928 
L 364.007255 -47.890286 
L 356.258937 -52.827429 
L 348.510618 -57.270857 
L 340.7623 -60.233143 
L 333.013981 -65.170286 
L 325.265663 -71.588571 
L 317.517344 -70.601143 
L 309.769026 -71.094857 
L 302.020707 -72.082286 
L 294.272389 -87.881143 
z
" id="ma4f0f85432" style="stroke:#dc3545;stroke-opacity:0.5;"/>
    </defs>
    <g clip-path="url(#pd5ad84076e)">
     <use style="fill:#dc3545;fill-opacity:0.5;stroke:#dc3545;stroke-opacity:0.5;" x="0" xlink:href="#ma4f0f85432" y="345.6"/>
    </g>
   </g>
   <g id="PolyCollection_2">
    <defs>
     <path d="M 123.809382 -38.016 
L 123.809382 -38.016 
L 131.5577 -38.016 
L 139.306019 -38.016 
L 147.054337 -38.016 
L 154.802656 -38.016 
L 162.550974 -38.016 
L 170.299293 -38.016 
L 178.047611 -38.016 
L 185.79593 -38.016 
L 193.544248 -38.016 
L 201.292567 -38.016 
L 209.040885 -38.016 
L 216.789204 -38.016 
L 224.537522 -38.016 
L 232.285841 -38.016 
L 240.034159 -38.016 
L 247.782478 -38.016 
L 255.530796 -38.016 
L 263.279115 -38.016 
L 271.027433 -38.016 
L 278.775752 -38.016 
L 286.52407 -38.016 
L 294.272389 -38.016 
L 294.272389 -87.881143 
L 294.272389 -87.881143 
L 286.52407 -83.437714 
L 278.775752 -98.742857 
L 271.027433 -112.566857 
L 263.279115 -124.909714 
L 255.530796 -139.721143 
L 247.782478 -171.318857 
L 240.034159 -176.256 
L 232.285841 -209.334857 
L 224.537522 -216.246857 
L 216.789204 -212.790857 
L 209.040885 -199.954286 
L 201.292567 -181.686857 
L 193.544248 -143.670857 
L 185.79593 -117.010286 
L 178.047611 -83.931429 
L 170.299293 -56.283429 
L 162.550974 -38.509714 
L 154.802656 -38.016 
L 147.054337 -38.016 
L 139.306019 -38.016 
L 131.5577 -38.016 
L 123.809382 -38.016 
z
" id="mf234798ed6" style="stroke:#fa9ba4;stroke-opacity:0.3;"/>
    </defs>
    <g clip-path="url(#pd5ad84076e)">
     <use style="fill:#fa9ba4;fill-opacity:0.3;stroke:#fa9ba4;stroke-opacity:0.3;" x="0" xlink:href="#mf234798ed6" y="345.6"/>
    </g>
   </g>
   <g id="line2d_1">
    <path clip-path="url(#pd5ad84076e)" d="M 123.809382 307.584 
L 131.5577 307.584 
L 139.306019 307.584 
L 147.054337 307.584 
L 154.802656 307.584 
L 162.550974 307.090286 
L 170.299293 289.316571 
L 178.047611 261.668571 
L 185.79593 228.589714 
L 193.544248 201.929143 
L 201.292567 163.913143 
L 209.040885 145.645714 
L 216.789204 132.809143 
L 224.537522 129.353143 
L 232.285841 136.265143 
L 240.034159 169.344 
L 247.782478 174.281143 
L 255.530796 205.878857 
L 263.279115 220.690286 
L 271.027433 233.033143 
L 278.775752 246.857143 
L 286.52407 262.162286 
L 294.272389 257.718857 
L 302.020707 273.517714 
L 309.769026 274.505143 
L 317.517344 274.998857 
L 325.265663 274.011429 
L 333.013981 280.429714 
L 340.7623 285.366857 
L 348.510618 288.329143 
L 356.258937 292.772571 
L 364.007255 297.709714 
L 371.755574 300.672 
L 379.503892 302.153143 
L 387.252211 302.646857 
L 395.000529 303.140571 
" style="fill:none;stroke:#fa9ba4;stroke-linecap:square;stroke-width:2;"/>
   </g>
   <g id="line2d_2">
    <path clip-path="url(#pd5ad84076e)" d="M 294.272389 257.718857 
L 302.020707 273.517714 
L 309.769026 274.505143 
L 317.517344 274.998857 
L 325.265663 274.011429 
L 333.013981 280.429714 
L 340.7623 285.366857 
L 348.510618 288.329143 
L 356.258937 292.772571 
L 364.007255 297.709714 
L 371.755574 300.672 
L 379.503892 302.153143 
L 387.252211 302.646857 
L 395.000529 303.140571 
" style="fill:none;stroke:#dc3545;stroke-linecap:square;stroke-width:2;"/>
   </g>
  </g>
 </g>
 <defs>
  <clipPath id="pd5ad84076e">
   <rect height="266.112" width="357.12" x="57.6" y="41.472"/>
  </clipPath>
 </defs>
</svg>
