<?xml version="1.0" encoding="utf-8" standalone="no"?>
<!DOCTYPE svg PUBLIC "-//W3C//DTD SVG 1.1//EN"
  "http://www.w3.org/Graphics/SVG/1.1/DTD/svg11.dtd">
<!-- Created with matplotlib (https://matplotlib.org/) -->
<svg height="345.6pt" version="1.1" viewBox="0 0 460.8 345.6" width="460.8pt" xmlns="http://www.w3.org/2000/svg" xmlns:xlink="http://www.w3.org/1999/xlink">
 <defs>
  <style type="text/css">
*{stroke-linecap:butt;stroke-linejoin:round;}
  </style>
 </defs>
 <g id="figure_1">
  <g id="patch_1">
   <path d="M 0 345.6 
L 460.8 345.6 
L 460.8 0 
L 0 0 
z
" style="fill:none;"/>
  </g>
  <g id="axes_1">
   <g id="patch_2">
    <path clip-path="url(#pe02b351bac)" d="M 73.832727 307.584 
L 83.604938 307.584 
L 83.604938 307.584 
L 73.832727 307.584 
z
" style="fill:#fa9ba4;opacity:0.6;"/>
   </g>
   <g id="patch_3">
    <path clip-path="url(#pe02b351bac)" d="M 84.690739 307.584 
L 94.462949 307.584 
L 94.462949 307.584 
L 84.690739 307.584 
z
" style="fill:#fa9ba4;opacity:0.6;"/>
   </g>
   <g id="patch_4">
    <path clip-path="url(#pe02b351bac)" d="M 95.54875 307.584 
L 105.320961 307.584 
L 105.320961 307.584 
L 95.54875 307.584 
z
" style="fill:#fa9ba4;opacity:0.6;"/>
   </g>
   <g id="patch_5">
    <path clip-path="url(#pe02b351bac)" d="M 106.406762 307.584 
L 116.178972 307.584 
L 116.178972 307.584 
L 106.406762 307.584 
z
" style="fill:#fa9ba4;opacity:0.6;"/>
   </g>
   <g id="patch_6">
    <path clip-path="url(#pe02b351bac)" d="M 117.264773 307.584 
L 127.036984 307.584 
L 127.036984 307.584 
L 117.264773 307.584 
z
" style="fill:#fa9ba4;opacity:0.6;"/>
   </g>
   <g id="patch_7">
    <path clip-path="url(#pe02b351bac)" d="M 128.122785 307.584 
L 137.894995 307.584 
L 137.894995 307.584 
L 128.122785 307.584 
z
" style="fill:#fa9ba4;opacity:0.6;"/>
   </g>
   <g id="patch_8">
    <path clip-path="url(#pe02b351bac)" d="M 138.980797 307.584 
L 148.753007 307.584 
L 148.753007 307.584 
L 138.980797 307.584 
z
" style="fill:#fa9ba4;opacity:0.6;"/>
   </g>
   <g id="patch_9">
    <path clip-path="url(#pe02b351bac)" d="M 149.838808 307.584 
L 159.611019 307.584 
L 159.611019 307.584 
L 149.838808 307.584 
z
" style="fill:#fa9ba4;opacity:0.6;"/>
   </g>
   <g id="patch_10">
    <path clip-path="url(#pe02b351bac)" d="M 160.69682 307.584 
L 170.46903 307.584 
L 170.46903 307.584 
L 160.69682 307.584 
z
" style="fill:#fa9ba4;opacity:0.6;"/>
   </g>
   <g id="patch_11">
    <path clip-path="url(#pe02b351bac)" d="M 171.554831 307.584 
L 181.327042 307.584 
L 181.327042 307.584 
L 171.554831 307.584 
z
" style="fill:#fa9ba4;opacity:0.6;"/>
   </g>
   <g id="patch_12">
    <path clip-path="url(#pe02b351bac)" d="M 182.412843 307.584 
L 192.185053 307.584 
L 192.185053 307.584 
L 182.412843 307.584 
z
" style="fill:#fa9ba4;opacity:0.6;"/>
   </g>
   <g id="patch_13">
    <path clip-path="url(#pe02b351bac)" d="M 193.270854 307.584 
L 203.043065 307.584 
L 203.043065 305.249684 
L 193.270854 305.249684 
z
" style="fill:#fa9ba4;opacity:0.6;"/>
   </g>
   <g id="patch_14">
    <path clip-path="url(#pe02b351bac)" d="M 204.128866 307.584 
L 213.901076 307.584 
L 213.901076 286.575158 
L 204.128866 286.575158 
z
" style="fill:#fa9ba4;opacity:0.6;"/>
   </g>
   <g id="patch_15">
    <path clip-path="url(#pe02b351bac)" d="M 214.986877 307.584 
L 224.759088 307.584 
L 224.759088 307.584 
L 214.986877 307.584 
z
" style="fill:#fa9ba4;opacity:0.6;"/>
   </g>
   <g id="patch_16">
    <path clip-path="url(#pe02b351bac)" d="M 225.844889 307.584 
L 235.617099 307.584 
L 235.617099 151.184842 
L 225.844889 151.184842 
z
" style="fill:#fa9ba4;opacity:0.6;"/>
   </g>
   <g id="patch_17">
    <path clip-path="url(#pe02b351bac)" d="M 236.702901 307.584 
L 246.475111 307.584 
L 246.475111 181.530947 
L 236.702901 181.530947 
z
" style="fill:#fa9ba4;opacity:0.6;"/>
   </g>
   <g id="patch_18">
    <path clip-path="url(#pe02b351bac)" d="M 247.560912 307.584 
L 257.333123 307.584 
L 257.333123 41.472 
L 247.560912 41.472 
z
" style="fill:#fa9ba4;opacity:0.6;"/>
   </g>
   <g id="patch_19">
    <path clip-path="url(#pe02b351bac)" d="M 258.418924 307.584 
L 268.191134 307.584 
L 268.191134 158.187789 
L 258.418924 158.187789 
z
" style="fill:#fa9ba4;opacity:0.6;"/>
   </g>
   <g id="patch_20">
    <path clip-path="url(#pe02b351bac)" d="M 269.276935 307.584 
L 279.049146 307.584 
L 279.049146 202.539789 
L 269.276935 202.539789 
z
" style="fill:#fa9ba4;opacity:0.6;"/>
   </g>
   <g id="patch_21">
    <path clip-path="url(#pe02b351bac)" d="M 280.134947 307.584 
L 289.907157 307.584 
L 289.907157 207.208421 
L 280.134947 207.208421 
z
" style="fill:#fa9ba4;opacity:0.6;"/>
   </g>
   <g id="patch_22">
    <path clip-path="url(#pe02b351bac)" d="M 290.992958 307.584 
L 300.765169 307.584 
L 300.765169 242.223158 
L 290.992958 242.223158 
z
" style="fill:#fa9ba4;opacity:0.6;"/>
   </g>
   <g id="patch_23">
    <path clip-path="url(#pe02b351bac)" d="M 301.85097 307.584 
L 311.62318 307.584 
L 311.62318 270.234947 
L 301.85097 270.234947 
z
" style="fill:#fa9ba4;opacity:0.6;"/>
   </g>
   <g id="patch_24">
    <path clip-path="url(#pe02b351bac)" d="M 312.708981 307.584 
L 322.481192 307.584 
L 322.481192 277.237895 
L 312.708981 277.237895 
z
" style="fill:#fa9ba4;opacity:0.6;"/>
   </g>
   <g id="patch_25">
    <path clip-path="url(#pe02b351bac)" d="M 323.566993 307.584 
L 333.339203 307.584 
L 333.339203 291.243789 
L 323.566993 291.243789 
z
" style="fill:#fa9ba4;opacity:0.6;"/>
   </g>
   <g id="patch_26">
    <path clip-path="url(#pe02b351bac)" d="M 334.425005 307.584 
L 344.197215 307.584 
L 344.197215 307.584 
L 334.425005 307.584 
z
" style="fill:#fa9ba4;opacity:0.6;"/>
   </g>
   <g id="patch_27">
    <path clip-path="url(#pe02b351bac)" d="M 345.283016 307.584 
L 355.055227 307.584 
L 355.055227 302.915368 
L 345.283016 302.915368 
z
" style="fill:#fa9ba4;opacity:0.6;"/>
   </g>
   <g id="patch_28">
    <path clip-path="url(#pe02b351bac)" d="M 356.141028 307.584 
L 365.913238 307.584 
L 365.913238 272.569263 
L 356.141028 272.569263 
z
" style="fill:#fa9ba4;opacity:0.6;"/>
   </g>
   <g id="patch_29">
    <path clip-path="url(#pe02b351bac)" d="M 366.999039 307.584 
L 376.77125 307.584 
L 376.77125 281.906526 
L 366.999039 281.906526 
z
" style="fill:#fa9ba4;opacity:0.6;"/>
   </g>
   <g id="patch_30">
    <path clip-path="url(#pe02b351bac)" d="M 377.857051 307.584 
L 387.629261 307.584 
L 387.629261 286.575158 
L 377.857051 286.575158 
z
" style="fill:#fa9ba4;opacity:0.6;"/>
   </g>
   <g id="patch_31">
    <path clip-path="url(#pe02b351bac)" d="M 388.715062 307.584 
L 398.487273 307.584 
L 398.487273 307.584 
L 388.715062 307.584 
z
" style="fill:#fa9ba4;opacity:0.6;"/>
   </g>
   <g id="matplotlib.axis_1"/>
   <g id="matplotlib.axis_2"/>
   <g id="PolyCollection_1">
    <defs>
     <path d="M 252.447017 -119.717053 
L 252.447017 -38.016 
L 263.305029 -38.016 
L 274.16304 -38.016 
L 285.021052 -38.016 
L 295.879064 -38.016 
L 306.737075 -38.016 
L 317.595087 -38.016 
L 328.453098 -38.016 
L 339.31111 -38.016 
L 350.169121 -38.016 
L 361.027133 -38.016 
L 371.885144 -38.016 
L 382.743156 -38.016 
L 393.601168 -38.016 
L 393.601168 -52.688842 
L 393.601168 -52.688842 
L 382.743156 -57.024 
L 371.885144 -59.358316 
L 361.027133 -65.027368 
L 350.169121 -74.364632 
L 339.31111 -88.704 
L 328.453098 -110.046316 
L 317.595087 -145.728 
L 306.737075 -159.400421 
L 295.879064 -176.407579 
L 285.021052 -167.070316 
L 274.16304 -155.732211 
L 263.305029 -141.059368 
L 252.447017 -119.717053 
z
" id="md0d2b001db" style="stroke:#dc3545;stroke-opacity:0.5;"/>
    </defs>
    <g clip-path="url(#pe02b351bac)">
     <use style="fill:#dc3545;fill-opacity:0.5;stroke:#dc3545;stroke-opacity:0.5;" x="0" xlink:href="#md0d2b001db" y="345.6"/>
    </g>
   </g>
   <g id="line2d_1">
    <path clip-path="url(#pe02b351bac)" d="M 143.866902 307.584 
L 154.724913 307.584 
L 165.582925 307.584 
L 176.440936 307.584 
L 187.298948 307.584 
L 198.15696 307.250526 
L 209.014971 304.249263 
L 219.872983 304.249263 
L 230.730994 281.906526 
L 241.589006 263.898947 
L 252.447017 225.882947 
L 263.305029 204.540632 
L 274.16304 189.867789 
L 285.021052 178.529684 
L 295.879064 169.192421 
L 306.737075 186.199579 
L 317.595087 199.872 
L 328.453098 235.553684 
L 339.31111 256.896 
L 350.169121 271.235368 
L 361.027133 280.572632 
L 371.885144 286.241684 
L 382.743156 288.576 
L 393.601168 292.911158 
" style="fill:none;stroke:#dc3545;stroke-linecap:square;stroke-opacity:0.6;stroke-width:2;"/>
   </g>
   <g id="line2d_2">
    <path clip-path="url(#pe02b351bac)" d="M 252.447017 225.882947 
L 263.305029 204.540632 
L 274.16304 189.867789 
L 285.021052 178.529684 
L 295.879064 169.192421 
L 306.737075 186.199579 
L 317.595087 199.872 
L 328.453098 235.553684 
L 339.31111 256.896 
L 350.169121 271.235368 
L 361.027133 280.572632 
L 371.885144 286.241684 
L 382.743156 288.576 
L 393.601168 292.911158 
" style="fill:none;stroke:#dc3545;stroke-linecap:square;stroke-width:2;"/>
   </g>
  </g>
 </g>
 <defs>
  <clipPath id="pe02b351bac">
   <rect height="266.112" width="357.12" x="57.6" y="41.472"/>
  </clipPath>
 </defs>
</svg>
