<?xml version="1.0" encoding="utf-8" standalone="no"?>
<!DOCTYPE svg PUBLIC "-//W3C//DTD SVG 1.1//EN"
  "http://www.w3.org/Graphics/SVG/1.1/DTD/svg11.dtd">
<!-- Created with matplotlib (https://matplotlib.org/) -->
<svg height="345.6pt" version="1.1" viewBox="0 0 460.8 345.6" width="460.8pt" xmlns="http://www.w3.org/2000/svg" xmlns:xlink="http://www.w3.org/1999/xlink">
 <defs>
  <style type="text/css">
*{stroke-linecap:butt;stroke-linejoin:round;}
  </style>
 </defs>
 <g id="figure_1">
  <g id="patch_1">
   <path d="M 0 345.6 
L 460.8 345.6 
L 460.8 0 
L 0 0 
z
" style="fill:none;"/>
  </g>
  <g id="axes_1">
   <g id="patch_2">
    <path clip-path="url(#pc271fcdf3c)" d="M 73.832727 307.584 
L 83.288685 307.584 
L 83.288685 307.584 
L 73.832727 307.584 
z
" style="fill:#fa9ba4;opacity:0.2;"/>
   </g>
   <g id="patch_3">
    <path clip-path="url(#pc271fcdf3c)" d="M 84.339347 307.584 
L 93.795305 307.584 
L 93.795305 307.584 
L 84.339347 307.584 
z
" style="fill:#fa9ba4;opacity:0.2;"/>
   </g>
   <g id="patch_4">
    <path clip-path="url(#pc271fcdf3c)" d="M 94.845966 307.584 
L 104.301924 307.584 
L 104.301924 307.584 
L 94.845966 307.584 
z
" style="fill:#fa9ba4;opacity:0.2;"/>
   </g>
   <g id="patch_5">
    <path clip-path="url(#pc271fcdf3c)" d="M 105.352586 307.584 
L 114.808544 307.584 
L 114.808544 307.584 
L 105.352586 307.584 
z
" style="fill:#fa9ba4;opacity:0.2;"/>
   </g>
   <g id="patch_6">
    <path clip-path="url(#pc271fcdf3c)" d="M 115.859206 307.584 
L 125.315163 307.584 
L 125.315163 307.584 
L 115.859206 307.584 
z
" style="fill:#fa9ba4;opacity:0.2;"/>
   </g>
   <g id="patch_7">
    <path clip-path="url(#pc271fcdf3c)" d="M 126.365825 307.584 
L 135.821783 307.584 
L 135.821783 307.584 
L 126.365825 307.584 
z
" style="fill:#fa9ba4;opacity:0.2;"/>
   </g>
   <g id="patch_8">
    <path clip-path="url(#pc271fcdf3c)" d="M 136.872445 307.584 
L 146.328402 307.584 
L 146.328402 307.584 
L 136.872445 307.584 
z
" style="fill:#fa9ba4;opacity:0.2;"/>
   </g>
   <g id="patch_9">
    <path clip-path="url(#pc271fcdf3c)" d="M 147.379064 307.584 
L 156.835022 307.584 
L 156.835022 307.584 
L 147.379064 307.584 
z
" style="fill:#fa9ba4;opacity:0.2;"/>
   </g>
   <g id="patch_10">
    <path clip-path="url(#pc271fcdf3c)" d="M 157.885684 307.584 
L 167.341642 307.584 
L 167.341642 307.584 
L 157.885684 307.584 
z
" style="fill:#fa9ba4;opacity:0.2;"/>
   </g>
   <g id="patch_11">
    <path clip-path="url(#pc271fcdf3c)" d="M 168.392304 307.584 
L 177.848261 307.584 
L 177.848261 307.584 
L 168.392304 307.584 
z
" style="fill:#fa9ba4;opacity:0.2;"/>
   </g>
   <g id="patch_12">
    <path clip-path="url(#pc271fcdf3c)" d="M 178.898923 307.584 
L 188.354881 307.584 
L 188.354881 307.584 
L 178.898923 307.584 
z
" style="fill:#fa9ba4;opacity:0.2;"/>
   </g>
   <g id="patch_13">
    <path clip-path="url(#pc271fcdf3c)" d="M 189.405543 307.584 
L 198.8615 307.584 
L 198.8615 305.249684 
L 189.405543 305.249684 
z
" style="fill:#fa9ba4;opacity:0.2;"/>
   </g>
   <g id="patch_14">
    <path clip-path="url(#pc271fcdf3c)" d="M 199.912162 307.584 
L 209.36812 307.584 
L 209.36812 286.575158 
L 199.912162 286.575158 
z
" style="fill:#fa9ba4;opacity:0.2;"/>
   </g>
   <g id="patch_15">
    <path clip-path="url(#pc271fcdf3c)" d="M 210.418782 307.584 
L 219.87474 307.584 
L 219.87474 307.584 
L 210.418782 307.584 
z
" style="fill:#fa9ba4;opacity:0.2;"/>
   </g>
   <g id="patch_16">
    <path clip-path="url(#pc271fcdf3c)" d="M 220.925402 307.584 
L 230.381359 307.584 
L 230.381359 151.184842 
L 220.925402 151.184842 
z
" style="fill:#fa9ba4;opacity:0.2;"/>
   </g>
   <g id="patch_17">
    <path clip-path="url(#pc271fcdf3c)" d="M 231.432021 307.584 
L 240.887979 307.584 
L 240.887979 181.530947 
L 231.432021 181.530947 
z
" style="fill:#fa9ba4;opacity:0.2;"/>
   </g>
   <g id="patch_18">
    <path clip-path="url(#pc271fcdf3c)" d="M 241.938641 307.584 
L 251.394598 307.584 
L 251.394598 41.472 
L 241.938641 41.472 
z
" style="fill:#fa9ba4;opacity:0.2;"/>
   </g>
   <g id="patch_19">
    <path clip-path="url(#pc271fcdf3c)" d="M 252.44526 307.584 
L 261.901218 307.584 
L 261.901218 158.187789 
L 252.44526 158.187789 
z
" style="fill:#fa9ba4;opacity:0.2;"/>
   </g>
   <g id="patch_20">
    <path clip-path="url(#pc271fcdf3c)" d="M 262.95188 307.584 
L 272.407838 307.584 
L 272.407838 202.539789 
L 262.95188 202.539789 
z
" style="fill:#fa9ba4;opacity:0.2;"/>
   </g>
   <g id="patch_21">
    <path clip-path="url(#pc271fcdf3c)" d="M 273.4585 307.584 
L 282.914457 307.584 
L 282.914457 207.208421 
L 273.4585 207.208421 
z
" style="fill:#fa9ba4;opacity:0.2;"/>
   </g>
   <g id="patch_22">
    <path clip-path="url(#pc271fcdf3c)" d="M 283.965119 307.584 
L 293.421077 307.584 
L 293.421077 242.223158 
L 283.965119 242.223158 
z
" style="fill:#fa9ba4;opacity:0.2;"/>
   </g>
   <g id="patch_23">
    <path clip-path="url(#pc271fcdf3c)" d="M 294.471739 307.584 
L 303.927696 307.584 
L 303.927696 270.234947 
L 294.471739 270.234947 
z
" style="fill:#fa9ba4;opacity:0.2;"/>
   </g>
   <g id="patch_24">
    <path clip-path="url(#pc271fcdf3c)" d="M 304.978358 307.584 
L 314.434316 307.584 
L 314.434316 277.237895 
L 304.978358 277.237895 
z
" style="fill:#fa9ba4;opacity:0.2;"/>
   </g>
   <g id="patch_25">
    <path clip-path="url(#pc271fcdf3c)" d="M 315.484978 307.584 
L 324.940936 307.584 
L 324.940936 291.243789 
L 315.484978 291.243789 
z
" style="fill:#fa9ba4;opacity:0.2;"/>
   </g>
   <g id="patch_26">
    <path clip-path="url(#pc271fcdf3c)" d="M 325.991598 307.584 
L 335.447555 307.584 
L 335.447555 307.584 
L 325.991598 307.584 
z
" style="fill:#fa9ba4;opacity:0.2;"/>
   </g>
   <g id="patch_27">
    <path clip-path="url(#pc271fcdf3c)" d="M 336.498217 307.584 
L 345.954175 307.584 
L 345.954175 302.915368 
L 336.498217 302.915368 
z
" style="fill:#fa9ba4;opacity:0.2;"/>
   </g>
   <g id="patch_28">
    <path clip-path="url(#pc271fcdf3c)" d="M 347.004837 307.584 
L 356.460794 307.584 
L 356.460794 272.569263 
L 347.004837 272.569263 
z
" style="fill:#fa9ba4;opacity:0.2;"/>
   </g>
   <g id="patch_29">
    <path clip-path="url(#pc271fcdf3c)" d="M 357.511456 307.584 
L 366.967414 307.584 
L 366.967414 281.906526 
L 357.511456 281.906526 
z
" style="fill:#fa9ba4;opacity:0.2;"/>
   </g>
   <g id="patch_30">
    <path clip-path="url(#pc271fcdf3c)" d="M 368.018076 307.584 
L 377.474034 307.584 
L 377.474034 286.575158 
L 368.018076 286.575158 
z
" style="fill:#fa9ba4;opacity:0.2;"/>
   </g>
   <g id="patch_31">
    <path clip-path="url(#pc271fcdf3c)" d="M 378.524695 307.584 
L 387.980653 307.584 
L 387.980653 279.572211 
L 378.524695 279.572211 
z
" style="fill:#fa9ba4;opacity:0.2;"/>
   </g>
   <g id="patch_32">
    <path clip-path="url(#pc271fcdf3c)" d="M 389.031315 307.584 
L 398.487273 307.584 
L 398.487273 281.906526 
L 389.031315 281.906526 
z
" style="fill:#fa9ba4;opacity:0.2;"/>
   </g>
   <g id="matplotlib.axis_1"/>
   <g id="matplotlib.axis_2"/>
   <g id="PolyCollection_1">
    <defs>
     <path d="M 257.173239 -141.059368 
L 257.173239 -38.016 
L 267.679859 -38.016 
L 278.186478 -38.016 
L 288.693098 -38.016 
L 299.199718 -38.016 
L 309.706337 -38.016 
L 320.212957 -38.016 
L 330.719576 -38.016 
L 341.226196 -38.016 
L 351.732816 -38.016 
L 362.239435 -38.016 
L 372.746055 -38.016 
L 383.252674 -38.016 
L 393.759294 -38.016 
L 393.759294 -58.024421 
L 393.759294 -58.024421 
L 383.252674 -56.690526 
L 372.746055 -57.024 
L 362.239435 -59.358316 
L 351.732816 -65.027368 
L 341.226196 -74.364632 
L 330.719576 -88.704 
L 320.212957 -110.046316 
L 309.706337 -145.728 
L 299.199718 -159.400421 
L 288.693098 -176.407579 
L 278.186478 -167.070316 
L 267.679859 -155.732211 
L 257.173239 -141.059368 
z
" id="m9ad2e54497" style="stroke:#dc3545;stroke-opacity:0.5;"/>
    </defs>
    <g clip-path="url(#pc271fcdf3c)">
     <use style="fill:#dc3545;fill-opacity:0.5;stroke:#dc3545;stroke-opacity:0.5;" x="0" xlink:href="#m9ad2e54497" y="345.6"/>
    </g>
   </g>
   <g id="PolyCollection_2">
    <defs>
     <path d="M 141.600424 -38.016 
L 141.600424 -38.016 
L 152.107043 -38.016 
L 162.613663 -38.016 
L 173.120282 -38.016 
L 183.626902 -38.016 
L 194.133522 -38.016 
L 204.640141 -38.016 
L 215.146761 -38.016 
L 225.65338 -38.016 
L 236.16 -38.016 
L 246.66662 -38.016 
L 257.173239 -38.016 
L 257.173239 -141.059368 
L 257.173239 -141.059368 
L 246.66662 -119.717053 
L 236.16 -81.701053 
L 225.65338 -63.693474 
L 215.146761 -41.350737 
L 204.640141 -41.350737 
L 194.133522 -38.349474 
L 183.626902 -38.016 
L 173.120282 -38.016 
L 162.613663 -38.016 
L 152.107043 -38.016 
L 141.600424 -38.016 
z
" id="m63716c13de" style="stroke:#fa9ba4;stroke-opacity:0.3;"/>
    </defs>
    <g clip-path="url(#pc271fcdf3c)">
     <use style="fill:#fa9ba4;fill-opacity:0.3;stroke:#fa9ba4;stroke-opacity:0.3;" x="0" xlink:href="#m63716c13de" y="345.6"/>
    </g>
   </g>
   <g id="line2d_1">
    <path clip-path="url(#pc271fcdf3c)" d="M 141.600424 307.584 
L 152.107043 307.584 
L 162.613663 307.584 
L 173.120282 307.584 
L 183.626902 307.584 
L 194.133522 307.250526 
L 204.640141 304.249263 
L 215.146761 304.249263 
L 225.65338 281.906526 
L 236.16 263.898947 
L 246.66662 225.882947 
L 257.173239 204.540632 
L 267.679859 189.867789 
L 278.186478 178.529684 
L 288.693098 169.192421 
L 299.199718 186.199579 
L 309.706337 199.872 
L 320.212957 235.553684 
L 330.719576 256.896 
L 341.226196 271.235368 
L 351.732816 280.572632 
L 362.239435 286.241684 
L 372.746055 288.576 
L 383.252674 288.909474 
L 393.759294 287.575579 
" style="fill:none;stroke:#fa9ba4;stroke-linecap:square;stroke-width:2;"/>
   </g>
   <g id="line2d_2">
    <path clip-path="url(#pc271fcdf3c)" d="M 257.173239 204.540632 
L 267.679859 189.867789 
L 278.186478 178.529684 
L 288.693098 169.192421 
L 299.199718 186.199579 
L 309.706337 199.872 
L 320.212957 235.553684 
L 330.719576 256.896 
L 341.226196 271.235368 
L 351.732816 280.572632 
L 362.239435 286.241684 
L 372.746055 288.576 
L 383.252674 288.909474 
L 393.759294 287.575579 
" style="fill:none;stroke:#dc3545;stroke-linecap:square;stroke-width:2;"/>
   </g>
  </g>
 </g>
 <defs>
  <clipPath id="pc271fcdf3c">
   <rect height="266.112" width="357.12" x="57.6" y="41.472"/>
  </clipPath>
 </defs>
</svg>
