<?xml version="1.0" encoding="utf-8" standalone="no"?>
<!DOCTYPE svg PUBLIC "-//W3C//DTD SVG 1.1//EN"
  "http://www.w3.org/Graphics/SVG/1.1/DTD/svg11.dtd">
<svg height="345.6pt" version="1.1" viewBox="0 0 460.8 345.6" width="460.8pt" xmlns="http://www.w3.org/2000/svg" xmlns:xlink="http://www.w3.org/1999/xlink">
 <metadata>
  <rdf:RDF xmlns:cc="http://creativecommons.org/ns#" xmlns:dc="http://purl.org/dc/elements/1.1/" xmlns:rdf="http://www.w3.org/1999/02/22-rdf-syntax-ns#">
   <cc:Work>
    <dc:type rdf:resource="http://purl.org/dc/dcmitype/StillImage"/>
    <dc:date>2021-04-30T13:23:44.038881</dc:date>
    <dc:format>image/svg+xml</dc:format>
    <dc:creator>
     <cc:Agent>
      <dc:title>Matplotlib v3.4.1, https://matplotlib.org/</dc:title>
     </cc:Agent>
    </dc:creator>
   </cc:Work>
  </rdf:RDF>
 </metadata>
 <defs>
  <style type="text/css">*{stroke-linecap:butt;stroke-linejoin:round;}</style>
 </defs>
 <g id="figure_1">
  <g id="patch_1">
   <path d="M 0 345.6 
L 460.8 345.6 
L 460.8 0 
L 0 0 
z
" style="fill:none;"/>
  </g>
  <g id="axes_1">
   <g id="patch_2">
    <path clip-path="url(#p955d297399)" d="M 73.832727 307.584 
L 75.967052 307.584 
L 75.967052 307.584 
L 73.832727 307.584 
z
" style="fill:#fa9ba4;opacity:0.2;"/>
   </g>
   <g id="patch_3">
    <path clip-path="url(#p955d297399)" d="M 76.204199 307.584 
L 78.338524 307.584 
L 78.338524 307.584 
L 76.204199 307.584 
z
" style="fill:#fa9ba4;opacity:0.2;"/>
   </g>
   <g id="patch_4">
    <path clip-path="url(#p955d297399)" d="M 78.575672 307.584 
L 80.709997 307.584 
L 80.709997 307.584 
L 78.575672 307.584 
z
" style="fill:#fa9ba4;opacity:0.2;"/>
   </g>
   <g id="patch_5">
    <path clip-path="url(#p955d297399)" d="M 80.947144 307.584 
L 83.081469 307.584 
L 83.081469 307.584 
L 80.947144 307.584 
z
" style="fill:#fa9ba4;opacity:0.2;"/>
   </g>
   <g id="patch_6">
    <path clip-path="url(#p955d297399)" d="M 83.318616 307.584 
L 85.452941 307.584 
L 85.452941 307.584 
L 83.318616 307.584 
z
" style="fill:#fa9ba4;opacity:0.2;"/>
   </g>
   <g id="patch_7">
    <path clip-path="url(#p955d297399)" d="M 85.690088 307.584 
L 87.824413 307.584 
L 87.824413 307.584 
L 85.690088 307.584 
z
" style="fill:#fa9ba4;opacity:0.2;"/>
   </g>
   <g id="patch_8">
    <path clip-path="url(#p955d297399)" d="M 88.061561 307.584 
L 90.195886 307.584 
L 90.195886 307.584 
L 88.061561 307.584 
z
" style="fill:#fa9ba4;opacity:0.2;"/>
   </g>
   <g id="patch_9">
    <path clip-path="url(#p955d297399)" d="M 90.433033 307.584 
L 92.567358 307.584 
L 92.567358 307.584 
L 90.433033 307.584 
z
" style="fill:#fa9ba4;opacity:0.2;"/>
   </g>
   <g id="patch_10">
    <path clip-path="url(#p955d297399)" d="M 92.804505 307.584 
L 94.93883 307.584 
L 94.93883 307.584 
L 92.804505 307.584 
z
" style="fill:#fa9ba4;opacity:0.2;"/>
   </g>
   <g id="patch_11">
    <path clip-path="url(#p955d297399)" d="M 95.175977 307.584 
L 97.310302 307.584 
L 97.310302 307.584 
L 95.175977 307.584 
z
" style="fill:#fa9ba4;opacity:0.2;"/>
   </g>
   <g id="patch_12">
    <path clip-path="url(#p955d297399)" d="M 97.547449 307.584 
L 99.681774 307.584 
L 99.681774 307.584 
L 97.547449 307.584 
z
" style="fill:#fa9ba4;opacity:0.2;"/>
   </g>
   <g id="patch_13">
    <path clip-path="url(#p955d297399)" d="M 99.918922 307.584 
L 102.053247 307.584 
L 102.053247 304.128 
L 99.918922 304.128 
z
" style="fill:#fa9ba4;opacity:0.2;"/>
   </g>
   <g id="patch_14">
    <path clip-path="url(#p955d297399)" d="M 102.290394 307.584 
L 104.424719 307.584 
L 104.424719 183.168 
L 102.290394 183.168 
z
" style="fill:#fa9ba4;opacity:0.2;"/>
   </g>
   <g id="patch_15">
    <path clip-path="url(#p955d297399)" d="M 104.661866 307.584 
L 106.796191 307.584 
L 106.796191 114.048 
L 104.661866 114.048 
z
" style="fill:#fa9ba4;opacity:0.2;"/>
   </g>
   <g id="patch_16">
    <path clip-path="url(#p955d297399)" d="M 107.033338 307.584 
L 109.167663 307.584 
L 109.167663 76.032 
L 107.033338 76.032 
z
" style="fill:#fa9ba4;opacity:0.2;"/>
   </g>
   <g id="patch_17">
    <path clip-path="url(#p955d297399)" d="M 109.40481 307.584 
L 111.539135 307.584 
L 111.539135 120.96 
L 109.40481 120.96 
z
" style="fill:#fa9ba4;opacity:0.2;"/>
   </g>
   <g id="patch_18">
    <path clip-path="url(#p955d297399)" d="M 111.776283 307.584 
L 113.910608 307.584 
L 113.910608 41.472 
L 111.776283 41.472 
z
" style="fill:#fa9ba4;opacity:0.2;"/>
   </g>
   <g id="patch_19">
    <path clip-path="url(#p955d297399)" d="M 114.147755 307.584 
L 116.28208 307.584 
L 116.28208 179.712 
L 114.147755 179.712 
z
" style="fill:#fa9ba4;opacity:0.2;"/>
   </g>
   <g id="patch_20">
    <path clip-path="url(#p955d297399)" d="M 116.519227 307.584 
L 118.653552 307.584 
L 118.653552 214.272 
L 116.519227 214.272 
z
" style="fill:#fa9ba4;opacity:0.2;"/>
   </g>
   <g id="patch_21">
    <path clip-path="url(#p955d297399)" d="M 118.890699 307.584 
L 121.025024 307.584 
L 121.025024 158.976 
L 118.890699 158.976 
z
" style="fill:#fa9ba4;opacity:0.2;"/>
   </g>
   <g id="patch_22">
    <path clip-path="url(#p955d297399)" d="M 121.262171 307.584 
L 123.396496 307.584 
L 123.396496 162.432 
L 121.262171 162.432 
z
" style="fill:#fa9ba4;opacity:0.2;"/>
   </g>
   <g id="patch_23">
    <path clip-path="url(#p955d297399)" d="M 123.633644 307.584 
L 125.767969 307.584 
L 125.767969 307.584 
L 123.633644 307.584 
z
" style="fill:#fa9ba4;opacity:0.2;"/>
   </g>
   <g id="patch_24">
    <path clip-path="url(#p955d297399)" d="M 126.005116 307.584 
L 128.139441 307.584 
L 128.139441 155.52 
L 126.005116 155.52 
z
" style="fill:#fa9ba4;opacity:0.2;"/>
   </g>
   <g id="patch_25">
    <path clip-path="url(#p955d297399)" d="M 128.376588 307.584 
L 130.510913 307.584 
L 130.510913 262.656 
L 128.376588 262.656 
z
" style="fill:#fa9ba4;opacity:0.2;"/>
   </g>
   <g id="patch_26">
    <path clip-path="url(#p955d297399)" d="M 130.74806 307.584 
L 132.882385 307.584 
L 132.882385 283.392 
L 130.74806 283.392 
z
" style="fill:#fa9ba4;opacity:0.2;"/>
   </g>
   <g id="patch_27">
    <path clip-path="url(#p955d297399)" d="M 133.119533 307.584 
L 135.253857 307.584 
L 135.253857 300.672 
L 133.119533 300.672 
z
" style="fill:#fa9ba4;opacity:0.2;"/>
   </g>
   <g id="patch_28">
    <path clip-path="url(#p955d297399)" d="M 135.491005 307.584 
L 137.62533 307.584 
L 137.62533 255.744 
L 135.491005 255.744 
z
" style="fill:#fa9ba4;opacity:0.2;"/>
   </g>
   <g id="patch_29">
    <path clip-path="url(#p955d297399)" d="M 137.862477 307.584 
L 139.996802 307.584 
L 139.996802 269.568 
L 137.862477 269.568 
z
" style="fill:#fa9ba4;opacity:0.2;"/>
   </g>
   <g id="patch_30">
    <path clip-path="url(#p955d297399)" d="M 140.233949 307.584 
L 142.368274 307.584 
L 142.368274 276.48 
L 140.233949 276.48 
z
" style="fill:#fa9ba4;opacity:0.2;"/>
   </g>
   <g id="patch_31">
    <path clip-path="url(#p955d297399)" d="M 142.605421 307.584 
L 144.739746 307.584 
L 144.739746 266.112 
L 142.605421 266.112 
z
" style="fill:#fa9ba4;opacity:0.2;"/>
   </g>
   <g id="patch_32">
    <path clip-path="url(#p955d297399)" d="M 144.976894 307.584 
L 147.111219 307.584 
L 147.111219 269.568 
L 144.976894 269.568 
z
" style="fill:#fa9ba4;opacity:0.2;"/>
   </g>
   <g id="patch_33">
    <path clip-path="url(#p955d297399)" d="M 147.348366 307.584 
L 149.482691 307.584 
L 149.482691 286.848 
L 147.348366 286.848 
z
" style="fill:#fa9ba4;opacity:0.2;"/>
   </g>
   <g id="patch_34">
    <path clip-path="url(#p955d297399)" d="M 149.719838 307.584 
L 151.854163 307.584 
L 151.854163 293.76 
L 149.719838 293.76 
z
" style="fill:#fa9ba4;opacity:0.2;"/>
   </g>
   <g id="patch_35">
    <path clip-path="url(#p955d297399)" d="M 152.09131 307.584 
L 154.225635 307.584 
L 154.225635 300.672 
L 152.09131 300.672 
z
" style="fill:#fa9ba4;opacity:0.2;"/>
   </g>
   <g id="patch_36">
    <path clip-path="url(#p955d297399)" d="M 154.462782 307.584 
L 156.597107 307.584 
L 156.597107 304.128 
L 154.462782 304.128 
z
" style="fill:#fa9ba4;opacity:0.2;"/>
   </g>
   <g id="patch_37">
    <path clip-path="url(#p955d297399)" d="M 156.834255 307.584 
L 158.96858 307.584 
L 158.96858 297.216 
L 156.834255 297.216 
z
" style="fill:#fa9ba4;opacity:0.2;"/>
   </g>
   <g id="patch_38">
    <path clip-path="url(#p955d297399)" d="M 159.205727 307.584 
L 161.340052 307.584 
L 161.340052 297.216 
L 159.205727 297.216 
z
" style="fill:#fa9ba4;opacity:0.2;"/>
   </g>
   <g id="patch_39">
    <path clip-path="url(#p955d297399)" d="M 161.577199 307.584 
L 163.711524 307.584 
L 163.711524 304.128 
L 161.577199 304.128 
z
" style="fill:#fa9ba4;opacity:0.2;"/>
   </g>
   <g id="patch_40">
    <path clip-path="url(#p955d297399)" d="M 163.948671 307.584 
L 166.082996 307.584 
L 166.082996 307.584 
L 163.948671 307.584 
z
" style="fill:#fa9ba4;opacity:0.2;"/>
   </g>
   <g id="patch_41">
    <path clip-path="url(#p955d297399)" d="M 166.320143 307.584 
L 168.454468 307.584 
L 168.454468 304.128 
L 166.320143 304.128 
z
" style="fill:#fa9ba4;opacity:0.2;"/>
   </g>
   <g id="patch_42">
    <path clip-path="url(#p955d297399)" d="M 168.691616 307.584 
L 170.825941 307.584 
L 170.825941 304.128 
L 168.691616 304.128 
z
" style="fill:#fa9ba4;opacity:0.2;"/>
   </g>
   <g id="patch_43">
    <path clip-path="url(#p955d297399)" d="M 171.063088 307.584 
L 173.197413 307.584 
L 173.197413 300.672 
L 171.063088 300.672 
z
" style="fill:#fa9ba4;opacity:0.2;"/>
   </g>
   <g id="patch_44">
    <path clip-path="url(#p955d297399)" d="M 173.43456 307.584 
L 175.568885 307.584 
L 175.568885 307.584 
L 173.43456 307.584 
z
" style="fill:#fa9ba4;opacity:0.2;"/>
   </g>
   <g id="patch_45">
    <path clip-path="url(#p955d297399)" d="M 175.806032 307.584 
L 177.940357 307.584 
L 177.940357 304.128 
L 175.806032 304.128 
z
" style="fill:#fa9ba4;opacity:0.2;"/>
   </g>
   <g id="patch_46">
    <path clip-path="url(#p955d297399)" d="M 178.177504 307.584 
L 180.311829 307.584 
L 180.311829 307.584 
L 178.177504 307.584 
z
" style="fill:#fa9ba4;opacity:0.2;"/>
   </g>
   <g id="patch_47">
    <path clip-path="url(#p955d297399)" d="M 180.548977 307.584 
L 182.683302 307.584 
L 182.683302 304.128 
L 180.548977 304.128 
z
" style="fill:#fa9ba4;opacity:0.2;"/>
   </g>
   <g id="patch_48">
    <path clip-path="url(#p955d297399)" d="M 182.920449 307.584 
L 185.054774 307.584 
L 185.054774 304.128 
L 182.920449 304.128 
z
" style="fill:#fa9ba4;opacity:0.2;"/>
   </g>
   <g id="patch_49">
    <path clip-path="url(#p955d297399)" d="M 185.291921 307.584 
L 187.426246 307.584 
L 187.426246 304.128 
L 185.291921 304.128 
z
" style="fill:#fa9ba4;opacity:0.2;"/>
   </g>
   <g id="patch_50">
    <path clip-path="url(#p955d297399)" d="M 187.663393 307.584 
L 189.797718 307.584 
L 189.797718 307.584 
L 187.663393 307.584 
z
" style="fill:#fa9ba4;opacity:0.2;"/>
   </g>
   <g id="patch_51">
    <path clip-path="url(#p955d297399)" d="M 190.034866 307.584 
L 192.169191 307.584 
L 192.169191 307.584 
L 190.034866 307.584 
z
" style="fill:#fa9ba4;opacity:0.2;"/>
   </g>
   <g id="patch_52">
    <path clip-path="url(#p955d297399)" d="M 192.406338 307.584 
L 194.540663 307.584 
L 194.540663 307.584 
L 192.406338 307.584 
z
" style="fill:#fa9ba4;opacity:0.2;"/>
   </g>
   <g id="patch_53">
    <path clip-path="url(#p955d297399)" d="M 194.77781 307.584 
L 196.912135 307.584 
L 196.912135 307.584 
L 194.77781 307.584 
z
" style="fill:#fa9ba4;opacity:0.2;"/>
   </g>
   <g id="patch_54">
    <path clip-path="url(#p955d297399)" d="M 197.149282 307.584 
L 199.283607 307.584 
L 199.283607 307.584 
L 197.149282 307.584 
z
" style="fill:#fa9ba4;opacity:0.2;"/>
   </g>
   <g id="patch_55">
    <path clip-path="url(#p955d297399)" d="M 199.520754 307.584 
L 201.655079 307.584 
L 201.655079 307.584 
L 199.520754 307.584 
z
" style="fill:#fa9ba4;opacity:0.2;"/>
   </g>
   <g id="patch_56">
    <path clip-path="url(#p955d297399)" d="M 201.892227 307.584 
L 204.026552 307.584 
L 204.026552 307.584 
L 201.892227 307.584 
z
" style="fill:#fa9ba4;opacity:0.2;"/>
   </g>
   <g id="patch_57">
    <path clip-path="url(#p955d297399)" d="M 204.263699 307.584 
L 206.398024 307.584 
L 206.398024 307.584 
L 204.263699 307.584 
z
" style="fill:#fa9ba4;opacity:0.2;"/>
   </g>
   <g id="patch_58">
    <path clip-path="url(#p955d297399)" d="M 206.635171 307.584 
L 208.769496 307.584 
L 208.769496 307.584 
L 206.635171 307.584 
z
" style="fill:#fa9ba4;opacity:0.2;"/>
   </g>
   <g id="patch_59">
    <path clip-path="url(#p955d297399)" d="M 209.006643 307.584 
L 211.140968 307.584 
L 211.140968 307.584 
L 209.006643 307.584 
z
" style="fill:#fa9ba4;opacity:0.2;"/>
   </g>
   <g id="patch_60">
    <path clip-path="url(#p955d297399)" d="M 211.378115 307.584 
L 213.51244 307.584 
L 213.51244 304.128 
L 211.378115 304.128 
z
" style="fill:#fa9ba4;opacity:0.2;"/>
   </g>
   <g id="patch_61">
    <path clip-path="url(#p955d297399)" d="M 213.749588 307.584 
L 215.883913 307.584 
L 215.883913 307.584 
L 213.749588 307.584 
z
" style="fill:#fa9ba4;opacity:0.2;"/>
   </g>
   <g id="patch_62">
    <path clip-path="url(#p955d297399)" d="M 216.12106 307.584 
L 218.255385 307.584 
L 218.255385 307.584 
L 216.12106 307.584 
z
" style="fill:#fa9ba4;opacity:0.2;"/>
   </g>
   <g id="patch_63">
    <path clip-path="url(#p955d297399)" d="M 218.492532 307.584 
L 220.626857 307.584 
L 220.626857 297.216 
L 218.492532 297.216 
z
" style="fill:#fa9ba4;opacity:0.2;"/>
   </g>
   <g id="patch_64">
    <path clip-path="url(#p955d297399)" d="M 220.864004 307.584 
L 222.998329 307.584 
L 222.998329 307.584 
L 220.864004 307.584 
z
" style="fill:#fa9ba4;opacity:0.2;"/>
   </g>
   <g id="patch_65">
    <path clip-path="url(#p955d297399)" d="M 223.235476 307.584 
L 225.369801 307.584 
L 225.369801 307.584 
L 223.235476 307.584 
z
" style="fill:#fa9ba4;opacity:0.2;"/>
   </g>
   <g id="patch_66">
    <path clip-path="url(#p955d297399)" d="M 225.606949 307.584 
L 227.741274 307.584 
L 227.741274 307.584 
L 225.606949 307.584 
z
" style="fill:#fa9ba4;opacity:0.2;"/>
   </g>
   <g id="patch_67">
    <path clip-path="url(#p955d297399)" d="M 227.978421 307.584 
L 230.112746 307.584 
L 230.112746 307.584 
L 227.978421 307.584 
z
" style="fill:#fa9ba4;opacity:0.2;"/>
   </g>
   <g id="patch_68">
    <path clip-path="url(#p955d297399)" d="M 230.349893 307.584 
L 232.484218 307.584 
L 232.484218 307.584 
L 230.349893 307.584 
z
" style="fill:#fa9ba4;opacity:0.2;"/>
   </g>
   <g id="patch_69">
    <path clip-path="url(#p955d297399)" d="M 232.721365 307.584 
L 234.85569 307.584 
L 234.85569 307.584 
L 232.721365 307.584 
z
" style="fill:#fa9ba4;opacity:0.2;"/>
   </g>
   <g id="patch_70">
    <path clip-path="url(#p955d297399)" d="M 235.092838 307.584 
L 237.227162 307.584 
L 237.227162 307.584 
L 235.092838 307.584 
z
" style="fill:#fa9ba4;opacity:0.2;"/>
   </g>
   <g id="patch_71">
    <path clip-path="url(#p955d297399)" d="M 237.46431 307.584 
L 239.598635 307.584 
L 239.598635 307.584 
L 237.46431 307.584 
z
" style="fill:#fa9ba4;opacity:0.2;"/>
   </g>
   <g id="patch_72">
    <path clip-path="url(#p955d297399)" d="M 239.835782 307.584 
L 241.970107 307.584 
L 241.970107 307.584 
L 239.835782 307.584 
z
" style="fill:#fa9ba4;opacity:0.2;"/>
   </g>
   <g id="patch_73">
    <path clip-path="url(#p955d297399)" d="M 242.207254 307.584 
L 244.341579 307.584 
L 244.341579 307.584 
L 242.207254 307.584 
z
" style="fill:#fa9ba4;opacity:0.2;"/>
   </g>
   <g id="patch_74">
    <path clip-path="url(#p955d297399)" d="M 244.578726 307.584 
L 246.713051 307.584 
L 246.713051 307.584 
L 244.578726 307.584 
z
" style="fill:#fa9ba4;opacity:0.2;"/>
   </g>
   <g id="patch_75">
    <path clip-path="url(#p955d297399)" d="M 246.950199 307.584 
L 249.084524 307.584 
L 249.084524 307.584 
L 246.950199 307.584 
z
" style="fill:#fa9ba4;opacity:0.2;"/>
   </g>
   <g id="patch_76">
    <path clip-path="url(#p955d297399)" d="M 249.321671 307.584 
L 251.455996 307.584 
L 251.455996 307.584 
L 249.321671 307.584 
z
" style="fill:#fa9ba4;opacity:0.2;"/>
   </g>
   <g id="patch_77">
    <path clip-path="url(#p955d297399)" d="M 251.693143 307.584 
L 253.827468 307.584 
L 253.827468 307.584 
L 251.693143 307.584 
z
" style="fill:#fa9ba4;opacity:0.2;"/>
   </g>
   <g id="patch_78">
    <path clip-path="url(#p955d297399)" d="M 254.064615 307.584 
L 256.19894 307.584 
L 256.19894 307.584 
L 254.064615 307.584 
z
" style="fill:#fa9ba4;opacity:0.2;"/>
   </g>
   <g id="patch_79">
    <path clip-path="url(#p955d297399)" d="M 256.436087 307.584 
L 258.570412 307.584 
L 258.570412 307.584 
L 256.436087 307.584 
z
" style="fill:#fa9ba4;opacity:0.2;"/>
   </g>
   <g id="patch_80">
    <path clip-path="url(#p955d297399)" d="M 258.80756 307.584 
L 260.941885 307.584 
L 260.941885 307.584 
L 258.80756 307.584 
z
" style="fill:#fa9ba4;opacity:0.2;"/>
   </g>
   <g id="patch_81">
    <path clip-path="url(#p955d297399)" d="M 261.179032 307.584 
L 263.313357 307.584 
L 263.313357 307.584 
L 261.179032 307.584 
z
" style="fill:#fa9ba4;opacity:0.2;"/>
   </g>
   <g id="patch_82">
    <path clip-path="url(#p955d297399)" d="M 263.550504 307.584 
L 265.684829 307.584 
L 265.684829 307.584 
L 263.550504 307.584 
z
" style="fill:#fa9ba4;opacity:0.2;"/>
   </g>
   <g id="patch_83">
    <path clip-path="url(#p955d297399)" d="M 265.921976 307.584 
L 268.056301 307.584 
L 268.056301 307.584 
L 265.921976 307.584 
z
" style="fill:#fa9ba4;opacity:0.2;"/>
   </g>
   <g id="patch_84">
    <path clip-path="url(#p955d297399)" d="M 268.293448 307.584 
L 270.427773 307.584 
L 270.427773 307.584 
L 268.293448 307.584 
z
" style="fill:#fa9ba4;opacity:0.2;"/>
   </g>
   <g id="patch_85">
    <path clip-path="url(#p955d297399)" d="M 270.664921 307.584 
L 272.799246 307.584 
L 272.799246 307.584 
L 270.664921 307.584 
z
" style="fill:#fa9ba4;opacity:0.2;"/>
   </g>
   <g id="patch_86">
    <path clip-path="url(#p955d297399)" d="M 273.036393 307.584 
L 275.170718 307.584 
L 275.170718 307.584 
L 273.036393 307.584 
z
" style="fill:#fa9ba4;opacity:0.2;"/>
   </g>
   <g id="patch_87">
    <path clip-path="url(#p955d297399)" d="M 275.407865 307.584 
L 277.54219 307.584 
L 277.54219 307.584 
L 275.407865 307.584 
z
" style="fill:#fa9ba4;opacity:0.2;"/>
   </g>
   <g id="patch_88">
    <path clip-path="url(#p955d297399)" d="M 277.779337 307.584 
L 279.913662 307.584 
L 279.913662 307.584 
L 277.779337 307.584 
z
" style="fill:#fa9ba4;opacity:0.2;"/>
   </g>
   <g id="patch_89">
    <path clip-path="url(#p955d297399)" d="M 280.150809 307.584 
L 282.285134 307.584 
L 282.285134 307.584 
L 280.150809 307.584 
z
" style="fill:#fa9ba4;opacity:0.2;"/>
   </g>
   <g id="patch_90">
    <path clip-path="url(#p955d297399)" d="M 282.522282 307.584 
L 284.656607 307.584 
L 284.656607 307.584 
L 282.522282 307.584 
z
" style="fill:#fa9ba4;opacity:0.2;"/>
   </g>
   <g id="patch_91">
    <path clip-path="url(#p955d297399)" d="M 284.893754 307.584 
L 287.028079 307.584 
L 287.028079 307.584 
L 284.893754 307.584 
z
" style="fill:#fa9ba4;opacity:0.2;"/>
   </g>
   <g id="patch_92">
    <path clip-path="url(#p955d297399)" d="M 287.265226 307.584 
L 289.399551 307.584 
L 289.399551 307.584 
L 287.265226 307.584 
z
" style="fill:#fa9ba4;opacity:0.2;"/>
   </g>
   <g id="patch_93">
    <path clip-path="url(#p955d297399)" d="M 289.636698 307.584 
L 291.771023 307.584 
L 291.771023 307.584 
L 289.636698 307.584 
z
" style="fill:#fa9ba4;opacity:0.2;"/>
   </g>
   <g id="patch_94">
    <path clip-path="url(#p955d297399)" d="M 292.008171 307.584 
L 294.142496 307.584 
L 294.142496 307.584 
L 292.008171 307.584 
z
" style="fill:#fa9ba4;opacity:0.2;"/>
   </g>
   <g id="patch_95">
    <path clip-path="url(#p955d297399)" d="M 294.379643 307.584 
L 296.513968 307.584 
L 296.513968 307.584 
L 294.379643 307.584 
z
" style="fill:#fa9ba4;opacity:0.2;"/>
   </g>
   <g id="patch_96">
    <path clip-path="url(#p955d297399)" d="M 296.751115 307.584 
L 298.88544 307.584 
L 298.88544 307.584 
L 296.751115 307.584 
z
" style="fill:#fa9ba4;opacity:0.2;"/>
   </g>
   <g id="patch_97">
    <path clip-path="url(#p955d297399)" d="M 299.122587 307.584 
L 301.256912 307.584 
L 301.256912 307.584 
L 299.122587 307.584 
z
" style="fill:#fa9ba4;opacity:0.2;"/>
   </g>
   <g id="patch_98">
    <path clip-path="url(#p955d297399)" d="M 301.494059 307.584 
L 303.628384 307.584 
L 303.628384 307.584 
L 301.494059 307.584 
z
" style="fill:#fa9ba4;opacity:0.2;"/>
   </g>
   <g id="patch_99">
    <path clip-path="url(#p955d297399)" d="M 303.865532 307.584 
L 305.999857 307.584 
L 305.999857 307.584 
L 303.865532 307.584 
z
" style="fill:#fa9ba4;opacity:0.2;"/>
   </g>
   <g id="patch_100">
    <path clip-path="url(#p955d297399)" d="M 306.237004 307.584 
L 308.371329 307.584 
L 308.371329 307.584 
L 306.237004 307.584 
z
" style="fill:#fa9ba4;opacity:0.2;"/>
   </g>
   <g id="patch_101">
    <path clip-path="url(#p955d297399)" d="M 308.608476 307.584 
L 310.742801 307.584 
L 310.742801 307.584 
L 308.608476 307.584 
z
" style="fill:#fa9ba4;opacity:0.2;"/>
   </g>
   <g id="patch_102">
    <path clip-path="url(#p955d297399)" d="M 310.979948 307.584 
L 313.114273 307.584 
L 313.114273 307.584 
L 310.979948 307.584 
z
" style="fill:#fa9ba4;opacity:0.2;"/>
   </g>
   <g id="patch_103">
    <path clip-path="url(#p955d297399)" d="M 313.35142 307.584 
L 315.485745 307.584 
L 315.485745 307.584 
L 313.35142 307.584 
z
" style="fill:#fa9ba4;opacity:0.2;"/>
   </g>
   <g id="patch_104">
    <path clip-path="url(#p955d297399)" d="M 315.722893 307.584 
L 317.857218 307.584 
L 317.857218 307.584 
L 315.722893 307.584 
z
" style="fill:#fa9ba4;opacity:0.2;"/>
   </g>
   <g id="patch_105">
    <path clip-path="url(#p955d297399)" d="M 318.094365 307.584 
L 320.22869 307.584 
L 320.22869 307.584 
L 318.094365 307.584 
z
" style="fill:#fa9ba4;opacity:0.2;"/>
   </g>
   <g id="patch_106">
    <path clip-path="url(#p955d297399)" d="M 320.465837 307.584 
L 322.600162 307.584 
L 322.600162 307.584 
L 320.465837 307.584 
z
" style="fill:#fa9ba4;opacity:0.2;"/>
   </g>
   <g id="patch_107">
    <path clip-path="url(#p955d297399)" d="M 322.837309 307.584 
L 324.971634 307.584 
L 324.971634 307.584 
L 322.837309 307.584 
z
" style="fill:#fa9ba4;opacity:0.2;"/>
   </g>
   <g id="patch_108">
    <path clip-path="url(#p955d297399)" d="M 325.208781 307.584 
L 327.343106 307.584 
L 327.343106 307.584 
L 325.208781 307.584 
z
" style="fill:#fa9ba4;opacity:0.2;"/>
   </g>
   <g id="patch_109">
    <path clip-path="url(#p955d297399)" d="M 327.580254 307.584 
L 329.714579 307.584 
L 329.714579 307.584 
L 327.580254 307.584 
z
" style="fill:#fa9ba4;opacity:0.2;"/>
   </g>
   <g id="patch_110">
    <path clip-path="url(#p955d297399)" d="M 329.951726 307.584 
L 332.086051 307.584 
L 332.086051 307.584 
L 329.951726 307.584 
z
" style="fill:#fa9ba4;opacity:0.2;"/>
   </g>
   <g id="patch_111">
    <path clip-path="url(#p955d297399)" d="M 332.323198 307.584 
L 334.457523 307.584 
L 334.457523 307.584 
L 332.323198 307.584 
z
" style="fill:#fa9ba4;opacity:0.2;"/>
   </g>
   <g id="patch_112">
    <path clip-path="url(#p955d297399)" d="M 334.69467 307.584 
L 336.828995 307.584 
L 336.828995 307.584 
L 334.69467 307.584 
z
" style="fill:#fa9ba4;opacity:0.2;"/>
   </g>
   <g id="patch_113">
    <path clip-path="url(#p955d297399)" d="M 337.066143 307.584 
L 339.200467 307.584 
L 339.200467 307.584 
L 337.066143 307.584 
z
" style="fill:#fa9ba4;opacity:0.2;"/>
   </g>
   <g id="patch_114">
    <path clip-path="url(#p955d297399)" d="M 339.437615 307.584 
L 341.57194 307.584 
L 341.57194 307.584 
L 339.437615 307.584 
z
" style="fill:#fa9ba4;opacity:0.2;"/>
   </g>
   <g id="patch_115">
    <path clip-path="url(#p955d297399)" d="M 341.809087 307.584 
L 343.943412 307.584 
L 343.943412 304.128 
L 341.809087 304.128 
z
" style="fill:#fa9ba4;opacity:0.2;"/>
   </g>
   <g id="patch_116">
    <path clip-path="url(#p955d297399)" d="M 344.180559 307.584 
L 346.314884 307.584 
L 346.314884 304.128 
L 344.180559 304.128 
z
" style="fill:#fa9ba4;opacity:0.2;"/>
   </g>
   <g id="patch_117">
    <path clip-path="url(#p955d297399)" d="M 346.552031 307.584 
L 348.686356 307.584 
L 348.686356 286.848 
L 346.552031 286.848 
z
" style="fill:#fa9ba4;opacity:0.2;"/>
   </g>
   <g id="patch_118">
    <path clip-path="url(#p955d297399)" d="M 348.923504 307.584 
L 351.057829 307.584 
L 351.057829 273.024 
L 348.923504 273.024 
z
" style="fill:#fa9ba4;opacity:0.2;"/>
   </g>
   <g id="patch_119">
    <path clip-path="url(#p955d297399)" d="M 351.294976 307.584 
L 353.429301 307.584 
L 353.429301 276.48 
L 351.294976 276.48 
z
" style="fill:#fa9ba4;opacity:0.2;"/>
   </g>
   <g id="patch_120">
    <path clip-path="url(#p955d297399)" d="M 353.666448 307.584 
L 355.800773 307.584 
L 355.800773 200.448 
L 353.666448 200.448 
z
" style="fill:#fa9ba4;opacity:0.2;"/>
   </g>
   <g id="patch_121">
    <path clip-path="url(#p955d297399)" d="M 356.03792 307.584 
L 358.172245 307.584 
L 358.172245 221.184 
L 356.03792 221.184 
z
" style="fill:#fa9ba4;opacity:0.2;"/>
   </g>
   <g id="patch_122">
    <path clip-path="url(#p955d297399)" d="M 358.409392 307.584 
L 360.543717 307.584 
L 360.543717 269.568 
L 358.409392 269.568 
z
" style="fill:#fa9ba4;opacity:0.2;"/>
   </g>
   <g id="patch_123">
    <path clip-path="url(#p955d297399)" d="M 360.780865 307.584 
L 362.91519 307.584 
L 362.91519 228.096 
L 360.780865 228.096 
z
" style="fill:#fa9ba4;opacity:0.2;"/>
   </g>
   <g id="patch_124">
    <path clip-path="url(#p955d297399)" d="M 363.152337 307.584 
L 365.286662 307.584 
L 365.286662 269.568 
L 363.152337 269.568 
z
" style="fill:#fa9ba4;opacity:0.2;"/>
   </g>
   <g id="patch_125">
    <path clip-path="url(#p955d297399)" d="M 365.523809 307.584 
L 367.658134 307.584 
L 367.658134 273.024 
L 365.523809 273.024 
z
" style="fill:#fa9ba4;opacity:0.2;"/>
   </g>
   <g id="patch_126">
    <path clip-path="url(#p955d297399)" d="M 367.895281 307.584 
L 370.029606 307.584 
L 370.029606 186.624 
L 367.895281 186.624 
z
" style="fill:#fa9ba4;opacity:0.2;"/>
   </g>
   <g id="patch_127">
    <path clip-path="url(#p955d297399)" d="M 370.266753 307.584 
L 372.401078 307.584 
L 372.401078 241.92 
L 370.266753 241.92 
z
" style="fill:#fa9ba4;opacity:0.2;"/>
   </g>
   <g id="patch_128">
    <path clip-path="url(#p955d297399)" d="M 372.638226 307.584 
L 374.772551 307.584 
L 374.772551 186.624 
L 372.638226 186.624 
z
" style="fill:#fa9ba4;opacity:0.2;"/>
   </g>
   <g id="patch_129">
    <path clip-path="url(#p955d297399)" d="M 375.009698 307.584 
L 377.144023 307.584 
L 377.144023 86.4 
L 375.009698 86.4 
z
" style="fill:#fa9ba4;opacity:0.2;"/>
   </g>
   <g id="patch_130">
    <path clip-path="url(#p955d297399)" d="M 377.38117 307.584 
L 379.515495 307.584 
L 379.515495 245.376 
L 377.38117 245.376 
z
" style="fill:#fa9ba4;opacity:0.2;"/>
   </g>
   <g id="patch_131">
    <path clip-path="url(#p955d297399)" d="M 379.752642 307.584 
L 381.886967 307.584 
L 381.886967 186.624 
L 379.752642 186.624 
z
" style="fill:#fa9ba4;opacity:0.2;"/>
   </g>
   <g id="patch_132">
    <path clip-path="url(#p955d297399)" d="M 382.124114 307.584 
L 384.258439 307.584 
L 384.258439 200.448 
L 382.124114 200.448 
z
" style="fill:#fa9ba4;opacity:0.2;"/>
   </g>
   <g id="patch_133">
    <path clip-path="url(#p955d297399)" d="M 384.495587 307.584 
L 386.629912 307.584 
L 386.629912 200.448 
L 384.495587 200.448 
z
" style="fill:#fa9ba4;opacity:0.2;"/>
   </g>
   <g id="patch_134">
    <path clip-path="url(#p955d297399)" d="M 386.867059 307.584 
L 389.001384 307.584 
L 389.001384 235.008 
L 386.867059 235.008 
z
" style="fill:#fa9ba4;opacity:0.2;"/>
   </g>
   <g id="patch_135">
    <path clip-path="url(#p955d297399)" d="M 389.238531 307.584 
L 391.372856 307.584 
L 391.372856 245.376 
L 389.238531 245.376 
z
" style="fill:#fa9ba4;opacity:0.2;"/>
   </g>
   <g id="patch_136">
    <path clip-path="url(#p955d297399)" d="M 391.610003 307.584 
L 393.744328 307.584 
L 393.744328 179.712 
L 391.610003 179.712 
z
" style="fill:#fa9ba4;opacity:0.2;"/>
   </g>
   <g id="patch_137">
    <path clip-path="url(#p955d297399)" d="M 393.981476 307.584 
L 396.115801 307.584 
L 396.115801 248.832 
L 393.981476 248.832 
z
" style="fill:#fa9ba4;opacity:0.2;"/>
   </g>
   <g id="patch_138">
    <path clip-path="url(#p955d297399)" d="M 396.352948 307.584 
L 398.487273 307.584 
L 398.487273 255.744 
L 396.352948 255.744 
z
" style="fill:#fa9ba4;opacity:0.2;"/>
   </g>
   <g id="matplotlib.axis_1"/>
   <g id="matplotlib.axis_2"/>
   <g id="PolyCollection_1">
    <defs>
     <path d="M 366.590972 -97.261714 
L 366.590972 -38.016 
L 368.962444 -38.016 
L 371.333916 -38.016 
L 373.705388 -38.016 
L 376.07686 -38.016 
L 378.448333 -38.016 
L 380.819805 -38.016 
L 383.191277 -38.016 
L 385.562749 -38.016 
L 387.934221 -38.016 
L 390.305694 -38.016 
L 392.677166 -38.016 
L 395.048638 -38.016 
L 397.42011 -38.016 
L 397.42011 -121.947429 
L 397.42011 -121.947429 
L 395.048638 -131.821714 
L 392.677166 -132.315429 
L 390.305694 -145.645714 
L 387.934221 -154.038857 
L 385.562749 -153.051429 
L 383.191277 -155.026286 
L 380.819805 -144.658286 
L 378.448333 -132.809143 
L 376.07686 -135.277714 
L 373.705388 -109.110857 
L 371.333916 -104.173714 
L 368.962444 -110.098286 
L 366.590972 -97.261714 
z
" id="me8d5b9a6d2" style="stroke:#dc3545;stroke-opacity:0.5;"/>
    </defs>
    <g clip-path="url(#p955d297399)">
     <use style="fill:#dc3545;fill-opacity:0.5;stroke:#dc3545;stroke-opacity:0.5;" x="0" xlink:href="#me8d5b9a6d2" y="345.6"/>
    </g>
   </g>
   <g id="PolyCollection_2">
    <defs>
     <path d="M 89.128723 -38.016 
L 89.128723 -38.016 
L 91.500195 -38.016 
L 93.871667 -38.016 
L 96.24314 -38.016 
L 98.614612 -38.016 
L 100.986084 -38.016 
L 103.357556 -38.016 
L 105.729028 -38.016 
L 108.100501 -38.016 
L 110.471973 -38.016 
L 112.843445 -38.016 
L 115.214917 -38.016 
L 117.58639 -38.016 
L 119.957862 -38.016 
L 122.329334 -38.016 
L 124.700806 -38.016 
L 127.072278 -38.016 
L 129.443751 -38.016 
L 131.815223 -38.016 
L 134.186695 -38.016 
L 136.558167 -38.016 
L 138.929639 -38.016 
L 141.301112 -38.016 
L 143.672584 -38.016 
L 146.044056 -38.016 
L 148.415528 -38.016 
L 150.787 -38.016 
L 153.158473 -38.016 
L 155.529945 -38.016 
L 157.901417 -38.016 
L 160.272889 -38.016 
L 162.644362 -38.016 
L 165.015834 -38.016 
L 167.387306 -38.016 
L 169.758778 -38.016 
L 172.13025 -38.016 
L 174.501723 -38.016 
L 176.873195 -38.016 
L 179.244667 -38.016 
L 181.616139 -38.016 
L 183.987611 -38.016 
L 186.359084 -38.016 
L 188.730556 -38.016 
L 191.102028 -38.016 
L 193.4735 -38.016 
L 195.844972 -38.016 
L 198.216445 -38.016 
L 200.587917 -38.016 
L 202.959389 -38.016 
L 205.330861 -38.016 
L 207.702333 -38.016 
L 210.073806 -38.016 
L 212.445278 -38.016 
L 214.81675 -38.016 
L 217.188222 -38.016 
L 219.559695 -38.016 
L 221.931167 -38.016 
L 224.302639 -38.016 
L 226.674111 -38.016 
L 229.045583 -38.016 
L 231.417056 -38.016 
L 233.788528 -38.016 
L 236.16 -38.016 
L 238.531472 -38.016 
L 240.902944 -38.016 
L 243.274417 -38.016 
L 245.645889 -38.016 
L 248.017361 -38.016 
L 250.388833 -38.016 
L 252.760305 -38.016 
L 255.131778 -38.016 
L 257.50325 -38.016 
L 259.874722 -38.016 
L 262.246194 -38.016 
L 264.617667 -38.016 
L 266.989139 -38.016 
L 269.360611 -38.016 
L 271.732083 -38.016 
L 274.103555 -38.016 
L 276.475028 -38.016 
L 278.8465 -38.016 
L 281.217972 -38.016 
L 283.589444 -38.016 
L 285.960916 -38.016 
L 288.332389 -38.016 
L 290.703861 -38.016 
L 293.075333 -38.016 
L 295.446805 -38.016 
L 297.818277 -38.016 
L 300.18975 -38.016 
L 302.561222 -38.016 
L 304.932694 -38.016 
L 307.304166 -38.016 
L 309.675638 -38.016 
L 312.047111 -38.016 
L 314.418583 -38.016 
L 316.790055 -38.016 
L 319.161527 -38.016 
L 321.533 -38.016 
L 323.904472 -38.016 
L 326.275944 -38.016 
L 328.647416 -38.016 
L 331.018888 -38.016 
L 333.390361 -38.016 
L 335.761833 -38.016 
L 338.133305 -38.016 
L 340.504777 -38.016 
L 342.876249 -38.016 
L 345.247722 -38.016 
L 347.619194 -38.016 
L 349.990666 -38.016 
L 352.362138 -38.016 
L 354.73361 -38.016 
L 357.105083 -38.016 
L 359.476555 -38.016 
L 361.848027 -38.016 
L 364.219499 -38.016 
L 366.590972 -38.016 
L 366.590972 -97.261714 
L 366.590972 -97.261714 
L 364.219499 -97.261714 
L 361.848027 -94.793143 
L 359.476555 -83.931429 
L 357.105083 -78.994286 
L 354.73361 -66.651429 
L 352.362138 -51.346286 
L 349.990666 -46.902857 
L 347.619194 -41.965714 
L 345.247722 -39.003429 
L 342.876249 -38.509714 
L 340.504777 -38.016 
L 338.133305 -38.016 
L 335.761833 -38.016 
L 333.390361 -38.016 
L 331.018888 -38.016 
L 328.647416 -38.016 
L 326.275944 -38.016 
L 323.904472 -38.016 
L 321.533 -38.016 
L 319.161527 -38.016 
L 316.790055 -38.016 
L 314.418583 -38.016 
L 312.047111 -38.016 
L 309.675638 -38.016 
L 307.304166 -38.016 
L 304.932694 -38.016 
L 302.561222 -38.016 
L 300.18975 -38.016 
L 297.818277 -38.016 
L 295.446805 -38.016 
L 293.075333 -38.016 
L 290.703861 -38.016 
L 288.332389 -38.016 
L 285.960916 -38.016 
L 283.589444 -38.016 
L 281.217972 -38.016 
L 278.8465 -38.016 
L 276.475028 -38.016 
L 274.103555 -38.016 
L 271.732083 -38.016 
L 269.360611 -38.016 
L 266.989139 -38.016 
L 264.617667 -38.016 
L 262.246194 -38.016 
L 259.874722 -38.016 
L 257.50325 -38.016 
L 255.131778 -38.016 
L 252.760305 -38.016 
L 250.388833 -38.016 
L 248.017361 -38.016 
L 245.645889 -38.016 
L 243.274417 -38.016 
L 240.902944 -38.016 
L 238.531472 -38.016 
L 236.16 -38.016 
L 233.788528 -39.497143 
L 231.417056 -39.497143 
L 229.045583 -39.497143 
L 226.674111 -39.990857 
L 224.302639 -39.990857 
L 221.931167 -39.990857 
L 219.559695 -39.990857 
L 217.188222 -38.509714 
L 214.81675 -38.509714 
L 212.445278 -38.509714 
L 210.073806 -38.016 
L 207.702333 -38.016 
L 205.330861 -38.016 
L 202.959389 -38.016 
L 200.587917 -38.509714 
L 198.216445 -39.003429 
L 195.844972 -39.497143 
L 193.4735 -39.497143 
L 191.102028 -39.990857 
L 188.730556 -39.990857 
L 186.359084 -40.978286 
L 183.987611 -40.978286 
L 181.616139 -40.978286 
L 179.244667 -40.484571 
L 176.873195 -40.978286 
L 174.501723 -41.965714 
L 172.13025 -43.446857 
L 169.758778 -42.953143 
L 167.387306 -43.446857 
L 165.015834 -44.928 
L 162.644362 -47.890286 
L 160.272889 -52.827429 
L 157.901417 -57.270857 
L 155.529945 -60.233143 
L 153.158473 -65.170286 
L 150.787 -71.588571 
L 148.415528 -70.601143 
L 146.044056 -71.094857 
L 143.672584 -72.082286 
L 141.301112 -87.881143 
L 138.929639 -83.437714 
L 136.558167 -98.742857 
L 134.186695 -112.566857 
L 131.815223 -124.909714 
L 129.443751 -139.721143 
L 127.072278 -171.318857 
L 124.700806 -176.256 
L 122.329334 -209.334857 
L 119.957862 -216.246857 
L 117.58639 -212.790857 
L 115.214917 -199.954286 
L 112.843445 -181.686857 
L 110.471973 -143.670857 
L 108.100501 -117.010286 
L 105.729028 -83.931429 
L 103.357556 -56.283429 
L 100.986084 -38.509714 
L 98.614612 -38.016 
L 96.24314 -38.016 
L 93.871667 -38.016 
L 91.500195 -38.016 
L 89.128723 -38.016 
z
" id="m31d74e6383" style="stroke:#fa9ba4;stroke-opacity:0.3;"/>
    </defs>
    <g clip-path="url(#p955d297399)">
     <use style="fill:#fa9ba4;fill-opacity:0.3;stroke:#fa9ba4;stroke-opacity:0.3;" x="0" xlink:href="#m31d74e6383" y="345.6"/>
    </g>
   </g>
   <g id="line2d_1">
    <path clip-path="url(#p955d297399)" d="M 89.128723 307.584 
L 98.614612 307.584 
L 100.986084 307.090286 
L 103.357556 289.316571 
L 105.729028 261.668571 
L 108.100501 228.589714 
L 110.471973 201.929143 
L 112.843445 163.913143 
L 115.214917 145.645714 
L 117.58639 132.809143 
L 119.957862 129.353143 
L 122.329334 136.265143 
L 124.700806 169.344 
L 127.072278 174.281143 
L 129.443751 205.878857 
L 131.815223 220.690286 
L 134.186695 233.033143 
L 136.558167 246.857143 
L 138.929639 262.162286 
L 141.301112 257.718857 
L 143.672584 273.517714 
L 146.044056 274.505143 
L 148.415528 274.998857 
L 150.787 274.011429 
L 153.158473 280.429714 
L 155.529945 285.366857 
L 157.901417 288.329143 
L 160.272889 292.772571 
L 162.644362 297.709714 
L 165.015834 300.672 
L 167.387306 302.153143 
L 169.758778 302.646857 
L 172.13025 302.153143 
L 174.501723 303.634286 
L 176.873195 304.621714 
L 179.244667 305.115429 
L 181.616139 304.621714 
L 186.359084 304.621714 
L 188.730556 305.609143 
L 191.102028 305.609143 
L 193.4735 306.102857 
L 195.844972 306.102857 
L 202.959389 307.584 
L 210.073806 307.584 
L 212.445278 307.090286 
L 217.188222 307.090286 
L 219.559695 305.609143 
L 226.674111 305.609143 
L 229.045583 306.102857 
L 233.788528 306.102857 
L 236.16 307.584 
L 340.504777 307.584 
L 345.247722 306.596571 
L 347.619194 303.634286 
L 349.990666 298.697143 
L 352.362138 294.253714 
L 354.73361 278.948571 
L 357.105083 266.605714 
L 359.476555 261.668571 
L 361.848027 250.806857 
L 364.219499 248.338286 
L 366.590972 248.338286 
L 368.962444 235.501714 
L 371.333916 241.426286 
L 373.705388 236.489143 
L 376.07686 210.322286 
L 378.448333 212.790857 
L 380.819805 200.941714 
L 383.191277 190.573714 
L 385.562749 192.548571 
L 387.934221 191.561143 
L 390.305694 199.954286 
L 392.677166 213.284571 
L 395.048638 213.778286 
L 397.42011 223.652571 
L 397.42011 223.652571 
" style="fill:none;stroke:#fa9ba4;stroke-linecap:square;stroke-width:2;"/>
   </g>
   <g id="line2d_2">
    <path clip-path="url(#p955d297399)" d="M 366.590972 248.338286 
L 368.962444 235.501714 
L 371.333916 241.426286 
L 373.705388 236.489143 
L 376.07686 210.322286 
L 378.448333 212.790857 
L 380.819805 200.941714 
L 383.191277 190.573714 
L 385.562749 192.548571 
L 387.934221 191.561143 
L 390.305694 199.954286 
L 392.677166 213.284571 
L 395.048638 213.778286 
L 397.42011 223.652571 
" style="fill:none;stroke:#dc3545;stroke-linecap:square;stroke-width:2;"/>
   </g>
  </g>
 </g>
 <defs>
  <clipPath id="p955d297399">
   <rect height="266.112" width="357.12" x="57.6" y="41.472"/>
  </clipPath>
 </defs>
</svg>
