<?xml version="1.0" encoding="utf-8" standalone="no"?>
<!DOCTYPE svg PUBLIC "-//W3C//DTD SVG 1.1//EN"
  "http://www.w3.org/Graphics/SVG/1.1/DTD/svg11.dtd">
<!-- Created with matplotlib (https://matplotlib.org/) -->
<svg height="345.6pt" version="1.1" viewBox="0 0 460.8 345.6" width="460.8pt" xmlns="http://www.w3.org/2000/svg" xmlns:xlink="http://www.w3.org/1999/xlink">
 <metadata>
  <rdf:RDF xmlns:cc="http://creativecommons.org/ns#" xmlns:dc="http://purl.org/dc/elements/1.1/" xmlns:rdf="http://www.w3.org/1999/02/22-rdf-syntax-ns#">
   <cc:Work>
    <dc:type rdf:resource="http://purl.org/dc/dcmitype/StillImage"/>
    <dc:date>2021-01-26T13:02:05.262489</dc:date>
    <dc:format>image/svg+xml</dc:format>
    <dc:creator>
     <cc:Agent>
      <dc:title>Matplotlib v3.3.3, https://matplotlib.org/</dc:title>
     </cc:Agent>
    </dc:creator>
   </cc:Work>
  </rdf:RDF>
 </metadata>
 <defs>
  <style type="text/css">*{stroke-linecap:butt;stroke-linejoin:round;}</style>
 </defs>
 <g id="figure_1">
  <g id="patch_1">
   <path d="M 0 345.6 
L 460.8 345.6 
L 460.8 0 
L 0 0 
z
" style="fill:none;"/>
  </g>
  <g id="axes_1">
   <g id="patch_2">
    <path clip-path="url(#p8ca78163c3)" d="M 73.832727 307.584 
L 80.806214 307.584 
L 80.806214 307.584 
L 73.832727 307.584 
z
" style="fill:#fa9ba4;opacity:0.2;"/>
   </g>
   <g id="patch_3">
    <path clip-path="url(#p8ca78163c3)" d="M 81.581046 307.584 
L 88.554532 307.584 
L 88.554532 307.584 
L 81.581046 307.584 
z
" style="fill:#fa9ba4;opacity:0.2;"/>
   </g>
   <g id="patch_4">
    <path clip-path="url(#p8ca78163c3)" d="M 89.329364 307.584 
L 96.302851 307.584 
L 96.302851 307.584 
L 89.329364 307.584 
z
" style="fill:#fa9ba4;opacity:0.2;"/>
   </g>
   <g id="patch_5">
    <path clip-path="url(#p8ca78163c3)" d="M 97.077683 307.584 
L 104.051169 307.584 
L 104.051169 307.584 
L 97.077683 307.584 
z
" style="fill:#fa9ba4;opacity:0.2;"/>
   </g>
   <g id="patch_6">
    <path clip-path="url(#p8ca78163c3)" d="M 104.826001 307.584 
L 111.799488 307.584 
L 111.799488 307.584 
L 104.826001 307.584 
z
" style="fill:#fa9ba4;opacity:0.2;"/>
   </g>
   <g id="patch_7">
    <path clip-path="url(#p8ca78163c3)" d="M 112.57432 307.584 
L 119.547806 307.584 
L 119.547806 307.584 
L 112.57432 307.584 
z
" style="fill:#fa9ba4;opacity:0.2;"/>
   </g>
   <g id="patch_8">
    <path clip-path="url(#p8ca78163c3)" d="M 120.322638 307.584 
L 127.296125 307.584 
L 127.296125 307.584 
L 120.322638 307.584 
z
" style="fill:#fa9ba4;opacity:0.2;"/>
   </g>
   <g id="patch_9">
    <path clip-path="url(#p8ca78163c3)" d="M 128.070957 307.584 
L 135.044443 307.584 
L 135.044443 307.584 
L 128.070957 307.584 
z
" style="fill:#fa9ba4;opacity:0.2;"/>
   </g>
   <g id="patch_10">
    <path clip-path="url(#p8ca78163c3)" d="M 135.819275 307.584 
L 142.792762 307.584 
L 142.792762 307.584 
L 135.819275 307.584 
z
" style="fill:#fa9ba4;opacity:0.2;"/>
   </g>
   <g id="patch_11">
    <path clip-path="url(#p8ca78163c3)" d="M 143.567594 307.584 
L 150.54108 307.584 
L 150.54108 307.584 
L 143.567594 307.584 
z
" style="fill:#fa9ba4;opacity:0.2;"/>
   </g>
   <g id="patch_12">
    <path clip-path="url(#p8ca78163c3)" d="M 151.315912 307.584 
L 158.289399 307.584 
L 158.289399 307.584 
L 151.315912 307.584 
z
" style="fill:#fa9ba4;opacity:0.2;"/>
   </g>
   <g id="patch_13">
    <path clip-path="url(#p8ca78163c3)" d="M 159.064231 307.584 
L 166.037718 307.584 
L 166.037718 307.584 
L 159.064231 307.584 
z
" style="fill:#fa9ba4;opacity:0.2;"/>
   </g>
   <g id="patch_14">
    <path clip-path="url(#p8ca78163c3)" d="M 166.812549 307.584 
L 173.786036 307.584 
L 173.786036 307.584 
L 166.812549 307.584 
z
" style="fill:#fa9ba4;opacity:0.2;"/>
   </g>
   <g id="patch_15">
    <path clip-path="url(#p8ca78163c3)" d="M 174.560868 307.584 
L 181.534355 307.584 
L 181.534355 307.584 
L 174.560868 307.584 
z
" style="fill:#fa9ba4;opacity:0.2;"/>
   </g>
   <g id="patch_16">
    <path clip-path="url(#p8ca78163c3)" d="M 182.309186 307.584 
L 189.282673 307.584 
L 189.282673 295.843765 
L 182.309186 295.843765 
z
" style="fill:#fa9ba4;opacity:0.2;"/>
   </g>
   <g id="patch_17">
    <path clip-path="url(#p8ca78163c3)" d="M 190.057505 307.584 
L 197.030992 307.584 
L 197.030992 280.190118 
L 190.057505 280.190118 
z
" style="fill:#fa9ba4;opacity:0.2;"/>
   </g>
   <g id="patch_18">
    <path clip-path="url(#p8ca78163c3)" d="M 197.805823 307.584 
L 204.77931 307.584 
L 204.77931 288.016941 
L 197.805823 288.016941 
z
" style="fill:#fa9ba4;opacity:0.2;"/>
   </g>
   <g id="patch_19">
    <path clip-path="url(#p8ca78163c3)" d="M 205.554142 307.584 
L 212.527629 307.584 
L 212.527629 194.095059 
L 205.554142 194.095059 
z
" style="fill:#fa9ba4;opacity:0.2;"/>
   </g>
   <g id="patch_20">
    <path clip-path="url(#p8ca78163c3)" d="M 213.30246 307.584 
L 220.275947 307.584 
L 220.275947 268.449882 
L 213.30246 268.449882 
z
" style="fill:#fa9ba4;opacity:0.2;"/>
   </g>
   <g id="patch_21">
    <path clip-path="url(#p8ca78163c3)" d="M 221.050779 307.584 
L 228.024266 307.584 
L 228.024266 41.472 
L 221.050779 41.472 
z
" style="fill:#fa9ba4;opacity:0.2;"/>
   </g>
   <g id="patch_22">
    <path clip-path="url(#p8ca78163c3)" d="M 228.799097 307.584 
L 235.772584 307.584 
L 235.772584 201.921882 
L 228.799097 201.921882 
z
" style="fill:#fa9ba4;opacity:0.2;"/>
   </g>
   <g id="patch_23">
    <path clip-path="url(#p8ca78163c3)" d="M 236.547416 307.584 
L 243.520903 307.584 
L 243.520903 307.584 
L 236.547416 307.584 
z
" style="fill:#fa9ba4;opacity:0.2;"/>
   </g>
   <g id="patch_24">
    <path clip-path="url(#p8ca78163c3)" d="M 244.295734 307.584 
L 251.269221 307.584 
L 251.269221 170.614588 
L 244.295734 170.614588 
z
" style="fill:#fa9ba4;opacity:0.2;"/>
   </g>
   <g id="patch_25">
    <path clip-path="url(#p8ca78163c3)" d="M 252.044053 307.584 
L 259.01754 307.584 
L 259.01754 276.276706 
L 252.044053 276.276706 
z
" style="fill:#fa9ba4;opacity:0.2;"/>
   </g>
   <g id="patch_26">
    <path clip-path="url(#p8ca78163c3)" d="M 259.792371 307.584 
L 266.765858 307.584 
L 266.765858 272.363294 
L 259.792371 272.363294 
z
" style="fill:#fa9ba4;opacity:0.2;"/>
   </g>
   <g id="patch_27">
    <path clip-path="url(#p8ca78163c3)" d="M 267.54069 307.584 
L 274.514177 307.584 
L 274.514177 295.843765 
L 267.54069 295.843765 
z
" style="fill:#fa9ba4;opacity:0.2;"/>
   </g>
   <g id="patch_28">
    <path clip-path="url(#p8ca78163c3)" d="M 275.289008 307.584 
L 282.262495 307.584 
L 282.262495 284.103529 
L 275.289008 284.103529 
z
" style="fill:#fa9ba4;opacity:0.2;"/>
   </g>
   <g id="patch_29">
    <path clip-path="url(#p8ca78163c3)" d="M 283.037327 307.584 
L 290.010814 307.584 
L 290.010814 299.757176 
L 283.037327 299.757176 
z
" style="fill:#fa9ba4;opacity:0.2;"/>
   </g>
   <g id="patch_30">
    <path clip-path="url(#p8ca78163c3)" d="M 290.785645 307.584 
L 297.759132 307.584 
L 297.759132 307.584 
L 290.785645 307.584 
z
" style="fill:#fa9ba4;opacity:0.2;"/>
   </g>
   <g id="patch_31">
    <path clip-path="url(#p8ca78163c3)" d="M 298.533964 307.584 
L 305.507451 307.584 
L 305.507451 307.584 
L 298.533964 307.584 
z
" style="fill:#fa9ba4;opacity:0.2;"/>
   </g>
   <g id="patch_32">
    <path clip-path="url(#p8ca78163c3)" d="M 306.282282 307.584 
L 313.255769 307.584 
L 313.255769 307.584 
L 306.282282 307.584 
z
" style="fill:#fa9ba4;opacity:0.2;"/>
   </g>
   <g id="patch_33">
    <path clip-path="url(#p8ca78163c3)" d="M 314.030601 307.584 
L 321.004088 307.584 
L 321.004088 299.757176 
L 314.030601 299.757176 
z
" style="fill:#fa9ba4;opacity:0.2;"/>
   </g>
   <g id="patch_34">
    <path clip-path="url(#p8ca78163c3)" d="M 321.77892 307.584 
L 328.752406 307.584 
L 328.752406 299.757176 
L 321.77892 299.757176 
z
" style="fill:#fa9ba4;opacity:0.2;"/>
   </g>
   <g id="patch_35">
    <path clip-path="url(#p8ca78163c3)" d="M 329.527238 307.584 
L 336.500725 307.584 
L 336.500725 307.584 
L 329.527238 307.584 
z
" style="fill:#fa9ba4;opacity:0.2;"/>
   </g>
   <g id="patch_36">
    <path clip-path="url(#p8ca78163c3)" d="M 337.275557 307.584 
L 344.249043 307.584 
L 344.249043 307.584 
L 337.275557 307.584 
z
" style="fill:#fa9ba4;opacity:0.2;"/>
   </g>
   <g id="patch_37">
    <path clip-path="url(#p8ca78163c3)" d="M 345.023875 307.584 
L 351.997362 307.584 
L 351.997362 307.584 
L 345.023875 307.584 
z
" style="fill:#fa9ba4;opacity:0.2;"/>
   </g>
   <g id="patch_38">
    <path clip-path="url(#p8ca78163c3)" d="M 352.772194 307.584 
L 359.74568 307.584 
L 359.74568 307.584 
L 352.772194 307.584 
z
" style="fill:#fa9ba4;opacity:0.2;"/>
   </g>
   <g id="patch_39">
    <path clip-path="url(#p8ca78163c3)" d="M 360.520512 307.584 
L 367.493999 307.584 
L 367.493999 291.930353 
L 360.520512 291.930353 
z
" style="fill:#fa9ba4;opacity:0.2;"/>
   </g>
   <g id="patch_40">
    <path clip-path="url(#p8ca78163c3)" d="M 368.268831 307.584 
L 375.242317 307.584 
L 375.242317 307.584 
L 368.268831 307.584 
z
" style="fill:#fa9ba4;opacity:0.2;"/>
   </g>
   <g id="patch_41">
    <path clip-path="url(#p8ca78163c3)" d="M 376.017149 307.584 
L 382.990636 307.584 
L 382.990636 307.584 
L 376.017149 307.584 
z
" style="fill:#fa9ba4;opacity:0.2;"/>
   </g>
   <g id="patch_42">
    <path clip-path="url(#p8ca78163c3)" d="M 383.765468 307.584 
L 390.738954 307.584 
L 390.738954 307.584 
L 383.765468 307.584 
z
" style="fill:#fa9ba4;opacity:0.2;"/>
   </g>
   <g id="patch_43">
    <path clip-path="url(#p8ca78163c3)" d="M 391.513786 307.584 
L 398.487273 307.584 
L 398.487273 307.584 
L 391.513786 307.584 
z
" style="fill:#fa9ba4;opacity:0.2;"/>
   </g>
   <g id="matplotlib.axis_1"/>
   <g id="matplotlib.axis_2"/>
   <g id="PolyCollection_1">
    <defs>
     <path d="M 294.272389 -73.236706 
L 294.272389 -38.016 
L 302.020707 -38.016 
L 309.769026 -38.016 
L 317.517344 -38.016 
L 325.265663 -38.016 
L 333.013981 -38.016 
L 340.7623 -38.016 
L 348.510618 -38.016 
L 356.258937 -38.016 
L 364.007255 -38.016 
L 371.755574 -38.016 
L 379.503892 -38.016 
L 387.252211 -38.016 
L 395.000529 -38.016 
L 395.000529 -40.252235 
L 395.000529 -40.252235 
L 387.252211 -40.252235 
L 379.503892 -40.252235 
L 371.755574 -41.370353 
L 364.007255 -42.488471 
L 356.258937 -40.252235 
L 348.510618 -40.252235 
L 340.7623 -40.252235 
L 333.013981 -41.370353 
L 325.265663 -44.724706 
L 317.517344 -45.283765 
L 309.769026 -49.197176 
L 302.020707 -53.669647 
L 294.272389 -73.236706 
z
" id="mc653c4ebec" style="stroke:#dc3545;stroke-opacity:0.5;"/>
    </defs>
    <g clip-path="url(#p8ca78163c3)">
     <use style="fill:#dc3545;fill-opacity:0.5;stroke:#dc3545;stroke-opacity:0.5;" x="0" xlink:href="#mc653c4ebec" y="345.6"/>
    </g>
   </g>
   <g id="PolyCollection_2">
    <defs>
     <path d="M 123.809382 -38.016 
L 123.809382 -38.016 
L 131.5577 -38.016 
L 139.306019 -38.016 
L 147.054337 -38.016 
L 154.802656 -38.016 
L 162.550974 -38.016 
L 170.299293 -38.016 
L 178.047611 -38.016 
L 185.79593 -38.016 
L 193.544248 -38.016 
L 201.292567 -38.016 
L 209.040885 -38.016 
L 216.789204 -38.016 
L 224.537522 -38.016 
L 232.285841 -38.016 
L 240.034159 -38.016 
L 247.782478 -38.016 
L 255.530796 -38.016 
L 263.279115 -38.016 
L 271.027433 -38.016 
L 278.775752 -38.016 
L 286.52407 -38.016 
L 294.272389 -38.016 
L 294.272389 -73.236706 
L 294.272389 -73.236706 
L 286.52407 -73.236706 
L 278.775752 -87.213176 
L 271.027433 -121.874824 
L 263.279115 -125.788235 
L 255.530796 -136.969412 
L 247.782478 -135.292235 
L 240.034159 -119.638588 
L 232.285841 -121.315765 
L 224.537522 -106.221176 
L 216.789204 -68.205176 
L 209.040885 -62.614588 
L 201.292567 -46.401882 
L 193.544248 -43.606588 
L 185.79593 -39.693176 
L 178.047611 -38.016 
L 170.299293 -38.016 
L 162.550974 -38.016 
L 154.802656 -38.016 
L 147.054337 -38.016 
L 139.306019 -38.016 
L 131.5577 -38.016 
L 123.809382 -38.016 
z
" id="m92ec93f675" style="stroke:#fa9ba4;stroke-opacity:0.3;"/>
    </defs>
    <g clip-path="url(#p8ca78163c3)">
     <use style="fill:#fa9ba4;fill-opacity:0.3;stroke:#fa9ba4;stroke-opacity:0.3;" x="0" xlink:href="#m92ec93f675" y="345.6"/>
    </g>
   </g>
   <g id="line2d_1">
    <path clip-path="url(#p8ca78163c3)" d="M 123.809382 307.584 
L 131.5577 307.584 
L 139.306019 307.584 
L 147.054337 307.584 
L 154.802656 307.584 
L 162.550974 307.584 
L 170.299293 307.584 
L 178.047611 307.584 
L 185.79593 305.906824 
L 193.544248 301.993412 
L 201.292567 299.198118 
L 209.040885 282.985412 
L 216.789204 277.394824 
L 224.537522 239.378824 
L 232.285841 224.284235 
L 240.034159 225.961412 
L 247.782478 210.307765 
L 255.530796 208.630588 
L 263.279115 219.811765 
L 271.027433 223.725176 
L 278.775752 258.386824 
L 286.52407 272.363294 
L 294.272389 272.363294 
L 302.020707 291.930353 
L 309.769026 296.402824 
L 317.517344 300.316235 
L 325.265663 300.875294 
L 333.013981 304.229647 
L 340.7623 305.347765 
L 348.510618 305.347765 
L 356.258937 305.347765 
L 364.007255 303.111529 
L 371.755574 304.229647 
L 379.503892 305.347765 
L 387.252211 305.347765 
L 395.000529 305.347765 
" style="fill:none;stroke:#fa9ba4;stroke-linecap:square;stroke-width:2;"/>
   </g>
   <g id="line2d_2">
    <path clip-path="url(#p8ca78163c3)" d="M 294.272389 272.363294 
L 302.020707 291.930353 
L 309.769026 296.402824 
L 317.517344 300.316235 
L 325.265663 300.875294 
L 333.013981 304.229647 
L 340.7623 305.347765 
L 348.510618 305.347765 
L 356.258937 305.347765 
L 364.007255 303.111529 
L 371.755574 304.229647 
L 379.503892 305.347765 
L 387.252211 305.347765 
L 395.000529 305.347765 
" style="fill:none;stroke:#dc3545;stroke-linecap:square;stroke-width:2;"/>
   </g>
  </g>
 </g>
 <defs>
  <clipPath id="p8ca78163c3">
   <rect height="266.112" width="357.12" x="57.6" y="41.472"/>
  </clipPath>
 </defs>
</svg>
