<?xml version="1.0" encoding="utf-8" standalone="no"?>
<!DOCTYPE svg PUBLIC "-//W3C//DTD SVG 1.1//EN"
  "http://www.w3.org/Graphics/SVG/1.1/DTD/svg11.dtd">
<svg height="345.6pt" version="1.1" viewBox="0 0 460.8 345.6" width="460.8pt" xmlns="http://www.w3.org/2000/svg" xmlns:xlink="http://www.w3.org/1999/xlink">
 <metadata>
  <rdf:RDF xmlns:cc="http://creativecommons.org/ns#" xmlns:dc="http://purl.org/dc/elements/1.1/" xmlns:rdf="http://www.w3.org/1999/02/22-rdf-syntax-ns#">
   <cc:Work>
    <dc:type rdf:resource="http://purl.org/dc/dcmitype/StillImage"/>
    <dc:date>2021-05-08T09:35:25.473268</dc:date>
    <dc:format>image/svg+xml</dc:format>
    <dc:creator>
     <cc:Agent>
      <dc:title>Matplotlib v3.4.1, https://matplotlib.org/</dc:title>
     </cc:Agent>
    </dc:creator>
   </cc:Work>
  </rdf:RDF>
 </metadata>
 <defs>
  <style type="text/css">*{stroke-linecap:butt;stroke-linejoin:round;}</style>
 </defs>
 <g id="figure_1">
  <g id="patch_1">
   <path d="M 0 345.6 
L 460.8 345.6 
L 460.8 0 
L 0 0 
z
" style="fill:none;"/>
  </g>
  <g id="axes_1">
   <g id="patch_2">
    <path clip-path="url(#p10d75d7e8f)" d="M 73.832727 307.584 
L 75.863228 307.584 
L 75.863228 307.584 
L 73.832727 307.584 
z
" style="fill:#fa9ba4;opacity:0.2;"/>
   </g>
   <g id="patch_3">
    <path clip-path="url(#p10d75d7e8f)" d="M 76.088839 307.584 
L 78.11934 307.584 
L 78.11934 307.584 
L 76.088839 307.584 
z
" style="fill:#fa9ba4;opacity:0.2;"/>
   </g>
   <g id="patch_4">
    <path clip-path="url(#p10d75d7e8f)" d="M 78.344952 307.584 
L 80.375453 307.584 
L 80.375453 307.584 
L 78.344952 307.584 
z
" style="fill:#fa9ba4;opacity:0.2;"/>
   </g>
   <g id="patch_5">
    <path clip-path="url(#p10d75d7e8f)" d="M 80.601064 307.584 
L 82.631565 307.584 
L 82.631565 307.584 
L 80.601064 307.584 
z
" style="fill:#fa9ba4;opacity:0.2;"/>
   </g>
   <g id="patch_6">
    <path clip-path="url(#p10d75d7e8f)" d="M 82.857176 307.584 
L 84.887677 307.584 
L 84.887677 307.584 
L 82.857176 307.584 
z
" style="fill:#fa9ba4;opacity:0.2;"/>
   </g>
   <g id="patch_7">
    <path clip-path="url(#p10d75d7e8f)" d="M 85.113288 307.584 
L 87.143789 307.584 
L 87.143789 307.584 
L 85.113288 307.584 
z
" style="fill:#fa9ba4;opacity:0.2;"/>
   </g>
   <g id="patch_8">
    <path clip-path="url(#p10d75d7e8f)" d="M 87.3694 307.584 
L 89.399901 307.584 
L 89.399901 307.584 
L 87.3694 307.584 
z
" style="fill:#fa9ba4;opacity:0.2;"/>
   </g>
   <g id="patch_9">
    <path clip-path="url(#p10d75d7e8f)" d="M 89.625513 307.584 
L 91.656014 307.584 
L 91.656014 307.584 
L 89.625513 307.584 
z
" style="fill:#fa9ba4;opacity:0.2;"/>
   </g>
   <g id="patch_10">
    <path clip-path="url(#p10d75d7e8f)" d="M 91.881625 307.584 
L 93.912126 307.584 
L 93.912126 307.584 
L 91.881625 307.584 
z
" style="fill:#fa9ba4;opacity:0.2;"/>
   </g>
   <g id="patch_11">
    <path clip-path="url(#p10d75d7e8f)" d="M 94.137737 307.584 
L 96.168238 307.584 
L 96.168238 307.584 
L 94.137737 307.584 
z
" style="fill:#fa9ba4;opacity:0.2;"/>
   </g>
   <g id="patch_12">
    <path clip-path="url(#p10d75d7e8f)" d="M 96.393849 307.584 
L 98.42435 307.584 
L 98.42435 307.584 
L 96.393849 307.584 
z
" style="fill:#fa9ba4;opacity:0.2;"/>
   </g>
   <g id="patch_13">
    <path clip-path="url(#p10d75d7e8f)" d="M 98.649961 307.584 
L 100.680462 307.584 
L 100.680462 307.584 
L 98.649961 307.584 
z
" style="fill:#fa9ba4;opacity:0.2;"/>
   </g>
   <g id="patch_14">
    <path clip-path="url(#p10d75d7e8f)" d="M 100.906074 307.584 
L 102.936575 307.584 
L 102.936575 307.584 
L 100.906074 307.584 
z
" style="fill:#fa9ba4;opacity:0.2;"/>
   </g>
   <g id="patch_15">
    <path clip-path="url(#p10d75d7e8f)" d="M 103.162186 307.584 
L 105.192687 307.584 
L 105.192687 307.584 
L 103.162186 307.584 
z
" style="fill:#fa9ba4;opacity:0.2;"/>
   </g>
   <g id="patch_16">
    <path clip-path="url(#p10d75d7e8f)" d="M 105.418298 307.584 
L 107.448799 307.584 
L 107.448799 295.843765 
L 105.418298 295.843765 
z
" style="fill:#fa9ba4;opacity:0.2;"/>
   </g>
   <g id="patch_17">
    <path clip-path="url(#p10d75d7e8f)" d="M 107.67441 307.584 
L 109.704911 307.584 
L 109.704911 280.190118 
L 107.67441 280.190118 
z
" style="fill:#fa9ba4;opacity:0.2;"/>
   </g>
   <g id="patch_18">
    <path clip-path="url(#p10d75d7e8f)" d="M 109.930522 307.584 
L 111.961023 307.584 
L 111.961023 288.016941 
L 109.930522 288.016941 
z
" style="fill:#fa9ba4;opacity:0.2;"/>
   </g>
   <g id="patch_19">
    <path clip-path="url(#p10d75d7e8f)" d="M 112.186635 307.584 
L 114.217136 307.584 
L 114.217136 194.095059 
L 112.186635 194.095059 
z
" style="fill:#fa9ba4;opacity:0.2;"/>
   </g>
   <g id="patch_20">
    <path clip-path="url(#p10d75d7e8f)" d="M 114.442747 307.584 
L 116.473248 307.584 
L 116.473248 268.449882 
L 114.442747 268.449882 
z
" style="fill:#fa9ba4;opacity:0.2;"/>
   </g>
   <g id="patch_21">
    <path clip-path="url(#p10d75d7e8f)" d="M 116.698859 307.584 
L 118.72936 307.584 
L 118.72936 41.472 
L 116.698859 41.472 
z
" style="fill:#fa9ba4;opacity:0.2;"/>
   </g>
   <g id="patch_22">
    <path clip-path="url(#p10d75d7e8f)" d="M 118.954971 307.584 
L 120.985472 307.584 
L 120.985472 201.921882 
L 118.954971 201.921882 
z
" style="fill:#fa9ba4;opacity:0.2;"/>
   </g>
   <g id="patch_23">
    <path clip-path="url(#p10d75d7e8f)" d="M 121.211083 307.584 
L 123.241584 307.584 
L 123.241584 307.584 
L 121.211083 307.584 
z
" style="fill:#fa9ba4;opacity:0.2;"/>
   </g>
   <g id="patch_24">
    <path clip-path="url(#p10d75d7e8f)" d="M 123.467196 307.584 
L 125.497697 307.584 
L 125.497697 170.614588 
L 123.467196 170.614588 
z
" style="fill:#fa9ba4;opacity:0.2;"/>
   </g>
   <g id="patch_25">
    <path clip-path="url(#p10d75d7e8f)" d="M 125.723308 307.584 
L 127.753809 307.584 
L 127.753809 276.276706 
L 125.723308 276.276706 
z
" style="fill:#fa9ba4;opacity:0.2;"/>
   </g>
   <g id="patch_26">
    <path clip-path="url(#p10d75d7e8f)" d="M 127.97942 307.584 
L 130.009921 307.584 
L 130.009921 272.363294 
L 127.97942 272.363294 
z
" style="fill:#fa9ba4;opacity:0.2;"/>
   </g>
   <g id="patch_27">
    <path clip-path="url(#p10d75d7e8f)" d="M 130.235532 307.584 
L 132.266033 307.584 
L 132.266033 295.843765 
L 130.235532 295.843765 
z
" style="fill:#fa9ba4;opacity:0.2;"/>
   </g>
   <g id="patch_28">
    <path clip-path="url(#p10d75d7e8f)" d="M 132.491644 307.584 
L 134.522145 307.584 
L 134.522145 284.103529 
L 132.491644 284.103529 
z
" style="fill:#fa9ba4;opacity:0.2;"/>
   </g>
   <g id="patch_29">
    <path clip-path="url(#p10d75d7e8f)" d="M 134.747757 307.584 
L 136.778258 307.584 
L 136.778258 299.757176 
L 134.747757 299.757176 
z
" style="fill:#fa9ba4;opacity:0.2;"/>
   </g>
   <g id="patch_30">
    <path clip-path="url(#p10d75d7e8f)" d="M 137.003869 307.584 
L 139.03437 307.584 
L 139.03437 307.584 
L 137.003869 307.584 
z
" style="fill:#fa9ba4;opacity:0.2;"/>
   </g>
   <g id="patch_31">
    <path clip-path="url(#p10d75d7e8f)" d="M 139.259981 307.584 
L 141.290482 307.584 
L 141.290482 307.584 
L 139.259981 307.584 
z
" style="fill:#fa9ba4;opacity:0.2;"/>
   </g>
   <g id="patch_32">
    <path clip-path="url(#p10d75d7e8f)" d="M 141.516093 307.584 
L 143.546594 307.584 
L 143.546594 307.584 
L 141.516093 307.584 
z
" style="fill:#fa9ba4;opacity:0.2;"/>
   </g>
   <g id="patch_33">
    <path clip-path="url(#p10d75d7e8f)" d="M 143.772205 307.584 
L 145.802706 307.584 
L 145.802706 299.757176 
L 143.772205 299.757176 
z
" style="fill:#fa9ba4;opacity:0.2;"/>
   </g>
   <g id="patch_34">
    <path clip-path="url(#p10d75d7e8f)" d="M 146.028318 307.584 
L 148.058819 307.584 
L 148.058819 299.757176 
L 146.028318 299.757176 
z
" style="fill:#fa9ba4;opacity:0.2;"/>
   </g>
   <g id="patch_35">
    <path clip-path="url(#p10d75d7e8f)" d="M 148.28443 307.584 
L 150.314931 307.584 
L 150.314931 307.584 
L 148.28443 307.584 
z
" style="fill:#fa9ba4;opacity:0.2;"/>
   </g>
   <g id="patch_36">
    <path clip-path="url(#p10d75d7e8f)" d="M 150.540542 307.584 
L 152.571043 307.584 
L 152.571043 307.584 
L 150.540542 307.584 
z
" style="fill:#fa9ba4;opacity:0.2;"/>
   </g>
   <g id="patch_37">
    <path clip-path="url(#p10d75d7e8f)" d="M 152.796654 307.584 
L 154.827155 307.584 
L 154.827155 307.584 
L 152.796654 307.584 
z
" style="fill:#fa9ba4;opacity:0.2;"/>
   </g>
   <g id="patch_38">
    <path clip-path="url(#p10d75d7e8f)" d="M 155.052766 307.584 
L 157.083267 307.584 
L 157.083267 307.584 
L 155.052766 307.584 
z
" style="fill:#fa9ba4;opacity:0.2;"/>
   </g>
   <g id="patch_39">
    <path clip-path="url(#p10d75d7e8f)" d="M 157.308879 307.584 
L 159.33938 307.584 
L 159.33938 291.930353 
L 157.308879 291.930353 
z
" style="fill:#fa9ba4;opacity:0.2;"/>
   </g>
   <g id="patch_40">
    <path clip-path="url(#p10d75d7e8f)" d="M 159.564991 307.584 
L 161.595492 307.584 
L 161.595492 307.584 
L 159.564991 307.584 
z
" style="fill:#fa9ba4;opacity:0.2;"/>
   </g>
   <g id="patch_41">
    <path clip-path="url(#p10d75d7e8f)" d="M 161.821103 307.584 
L 163.851604 307.584 
L 163.851604 307.584 
L 161.821103 307.584 
z
" style="fill:#fa9ba4;opacity:0.2;"/>
   </g>
   <g id="patch_42">
    <path clip-path="url(#p10d75d7e8f)" d="M 164.077215 307.584 
L 166.107716 307.584 
L 166.107716 307.584 
L 164.077215 307.584 
z
" style="fill:#fa9ba4;opacity:0.2;"/>
   </g>
   <g id="patch_43">
    <path clip-path="url(#p10d75d7e8f)" d="M 166.333327 307.584 
L 168.363828 307.584 
L 168.363828 307.584 
L 166.333327 307.584 
z
" style="fill:#fa9ba4;opacity:0.2;"/>
   </g>
   <g id="patch_44">
    <path clip-path="url(#p10d75d7e8f)" d="M 168.58944 307.584 
L 170.619941 307.584 
L 170.619941 307.584 
L 168.58944 307.584 
z
" style="fill:#fa9ba4;opacity:0.2;"/>
   </g>
   <g id="patch_45">
    <path clip-path="url(#p10d75d7e8f)" d="M 170.845552 307.584 
L 172.876053 307.584 
L 172.876053 303.670588 
L 170.845552 303.670588 
z
" style="fill:#fa9ba4;opacity:0.2;"/>
   </g>
   <g id="patch_46">
    <path clip-path="url(#p10d75d7e8f)" d="M 173.101664 307.584 
L 175.132165 307.584 
L 175.132165 307.584 
L 173.101664 307.584 
z
" style="fill:#fa9ba4;opacity:0.2;"/>
   </g>
   <g id="patch_47">
    <path clip-path="url(#p10d75d7e8f)" d="M 175.357776 307.584 
L 177.388277 307.584 
L 177.388277 307.584 
L 175.357776 307.584 
z
" style="fill:#fa9ba4;opacity:0.2;"/>
   </g>
   <g id="patch_48">
    <path clip-path="url(#p10d75d7e8f)" d="M 177.613888 307.584 
L 179.644389 307.584 
L 179.644389 307.584 
L 177.613888 307.584 
z
" style="fill:#fa9ba4;opacity:0.2;"/>
   </g>
   <g id="patch_49">
    <path clip-path="url(#p10d75d7e8f)" d="M 179.870001 307.584 
L 181.900502 307.584 
L 181.900502 307.584 
L 179.870001 307.584 
z
" style="fill:#fa9ba4;opacity:0.2;"/>
   </g>
   <g id="patch_50">
    <path clip-path="url(#p10d75d7e8f)" d="M 182.126113 307.584 
L 184.156614 307.584 
L 184.156614 307.584 
L 182.126113 307.584 
z
" style="fill:#fa9ba4;opacity:0.2;"/>
   </g>
   <g id="patch_51">
    <path clip-path="url(#p10d75d7e8f)" d="M 184.382225 307.584 
L 186.412726 307.584 
L 186.412726 307.584 
L 184.382225 307.584 
z
" style="fill:#fa9ba4;opacity:0.2;"/>
   </g>
   <g id="patch_52">
    <path clip-path="url(#p10d75d7e8f)" d="M 186.638337 307.584 
L 188.668838 307.584 
L 188.668838 307.584 
L 186.638337 307.584 
z
" style="fill:#fa9ba4;opacity:0.2;"/>
   </g>
   <g id="patch_53">
    <path clip-path="url(#p10d75d7e8f)" d="M 188.894449 307.584 
L 190.92495 307.584 
L 190.92495 307.584 
L 188.894449 307.584 
z
" style="fill:#fa9ba4;opacity:0.2;"/>
   </g>
   <g id="patch_54">
    <path clip-path="url(#p10d75d7e8f)" d="M 191.150562 307.584 
L 193.181063 307.584 
L 193.181063 307.584 
L 191.150562 307.584 
z
" style="fill:#fa9ba4;opacity:0.2;"/>
   </g>
   <g id="patch_55">
    <path clip-path="url(#p10d75d7e8f)" d="M 193.406674 307.584 
L 195.437175 307.584 
L 195.437175 307.584 
L 193.406674 307.584 
z
" style="fill:#fa9ba4;opacity:0.2;"/>
   </g>
   <g id="patch_56">
    <path clip-path="url(#p10d75d7e8f)" d="M 195.662786 307.584 
L 197.693287 307.584 
L 197.693287 307.584 
L 195.662786 307.584 
z
" style="fill:#fa9ba4;opacity:0.2;"/>
   </g>
   <g id="patch_57">
    <path clip-path="url(#p10d75d7e8f)" d="M 197.918898 307.584 
L 199.949399 307.584 
L 199.949399 307.584 
L 197.918898 307.584 
z
" style="fill:#fa9ba4;opacity:0.2;"/>
   </g>
   <g id="patch_58">
    <path clip-path="url(#p10d75d7e8f)" d="M 200.17501 307.584 
L 202.205511 307.584 
L 202.205511 307.584 
L 200.17501 307.584 
z
" style="fill:#fa9ba4;opacity:0.2;"/>
   </g>
   <g id="patch_59">
    <path clip-path="url(#p10d75d7e8f)" d="M 202.431123 307.584 
L 204.461624 307.584 
L 204.461624 307.584 
L 202.431123 307.584 
z
" style="fill:#fa9ba4;opacity:0.2;"/>
   </g>
   <g id="patch_60">
    <path clip-path="url(#p10d75d7e8f)" d="M 204.687235 307.584 
L 206.717736 307.584 
L 206.717736 307.584 
L 204.687235 307.584 
z
" style="fill:#fa9ba4;opacity:0.2;"/>
   </g>
   <g id="patch_61">
    <path clip-path="url(#p10d75d7e8f)" d="M 206.943347 307.584 
L 208.973848 307.584 
L 208.973848 307.584 
L 206.943347 307.584 
z
" style="fill:#fa9ba4;opacity:0.2;"/>
   </g>
   <g id="patch_62">
    <path clip-path="url(#p10d75d7e8f)" d="M 209.199459 307.584 
L 211.22996 307.584 
L 211.22996 307.584 
L 209.199459 307.584 
z
" style="fill:#fa9ba4;opacity:0.2;"/>
   </g>
   <g id="patch_63">
    <path clip-path="url(#p10d75d7e8f)" d="M 211.455571 307.584 
L 213.486072 307.584 
L 213.486072 307.584 
L 211.455571 307.584 
z
" style="fill:#fa9ba4;opacity:0.2;"/>
   </g>
   <g id="patch_64">
    <path clip-path="url(#p10d75d7e8f)" d="M 213.711684 307.584 
L 215.742185 307.584 
L 215.742185 307.584 
L 213.711684 307.584 
z
" style="fill:#fa9ba4;opacity:0.2;"/>
   </g>
   <g id="patch_65">
    <path clip-path="url(#p10d75d7e8f)" d="M 215.967796 307.584 
L 217.998297 307.584 
L 217.998297 307.584 
L 215.967796 307.584 
z
" style="fill:#fa9ba4;opacity:0.2;"/>
   </g>
   <g id="patch_66">
    <path clip-path="url(#p10d75d7e8f)" d="M 218.223908 307.584 
L 220.254409 307.584 
L 220.254409 307.584 
L 218.223908 307.584 
z
" style="fill:#fa9ba4;opacity:0.2;"/>
   </g>
   <g id="patch_67">
    <path clip-path="url(#p10d75d7e8f)" d="M 220.48002 307.584 
L 222.510521 307.584 
L 222.510521 307.584 
L 220.48002 307.584 
z
" style="fill:#fa9ba4;opacity:0.2;"/>
   </g>
   <g id="patch_68">
    <path clip-path="url(#p10d75d7e8f)" d="M 222.736132 307.584 
L 224.766633 307.584 
L 224.766633 307.584 
L 222.736132 307.584 
z
" style="fill:#fa9ba4;opacity:0.2;"/>
   </g>
   <g id="patch_69">
    <path clip-path="url(#p10d75d7e8f)" d="M 224.992245 307.584 
L 227.022746 307.584 
L 227.022746 307.584 
L 224.992245 307.584 
z
" style="fill:#fa9ba4;opacity:0.2;"/>
   </g>
   <g id="patch_70">
    <path clip-path="url(#p10d75d7e8f)" d="M 227.248357 307.584 
L 229.278858 307.584 
L 229.278858 307.584 
L 227.248357 307.584 
z
" style="fill:#fa9ba4;opacity:0.2;"/>
   </g>
   <g id="patch_71">
    <path clip-path="url(#p10d75d7e8f)" d="M 229.504469 307.584 
L 231.53497 307.584 
L 231.53497 307.584 
L 229.504469 307.584 
z
" style="fill:#fa9ba4;opacity:0.2;"/>
   </g>
   <g id="patch_72">
    <path clip-path="url(#p10d75d7e8f)" d="M 231.760581 307.584 
L 233.791082 307.584 
L 233.791082 307.584 
L 231.760581 307.584 
z
" style="fill:#fa9ba4;opacity:0.2;"/>
   </g>
   <g id="patch_73">
    <path clip-path="url(#p10d75d7e8f)" d="M 234.016693 307.584 
L 236.047194 307.584 
L 236.047194 307.584 
L 234.016693 307.584 
z
" style="fill:#fa9ba4;opacity:0.2;"/>
   </g>
   <g id="patch_74">
    <path clip-path="url(#p10d75d7e8f)" d="M 236.272806 307.584 
L 238.303307 307.584 
L 238.303307 307.584 
L 236.272806 307.584 
z
" style="fill:#fa9ba4;opacity:0.2;"/>
   </g>
   <g id="patch_75">
    <path clip-path="url(#p10d75d7e8f)" d="M 238.528918 307.584 
L 240.559419 307.584 
L 240.559419 307.584 
L 238.528918 307.584 
z
" style="fill:#fa9ba4;opacity:0.2;"/>
   </g>
   <g id="patch_76">
    <path clip-path="url(#p10d75d7e8f)" d="M 240.78503 307.584 
L 242.815531 307.584 
L 242.815531 307.584 
L 240.78503 307.584 
z
" style="fill:#fa9ba4;opacity:0.2;"/>
   </g>
   <g id="patch_77">
    <path clip-path="url(#p10d75d7e8f)" d="M 243.041142 307.584 
L 245.071643 307.584 
L 245.071643 307.584 
L 243.041142 307.584 
z
" style="fill:#fa9ba4;opacity:0.2;"/>
   </g>
   <g id="patch_78">
    <path clip-path="url(#p10d75d7e8f)" d="M 245.297254 307.584 
L 247.327755 307.584 
L 247.327755 307.584 
L 245.297254 307.584 
z
" style="fill:#fa9ba4;opacity:0.2;"/>
   </g>
   <g id="patch_79">
    <path clip-path="url(#p10d75d7e8f)" d="M 247.553367 307.584 
L 249.583868 307.584 
L 249.583868 307.584 
L 247.553367 307.584 
z
" style="fill:#fa9ba4;opacity:0.2;"/>
   </g>
   <g id="patch_80">
    <path clip-path="url(#p10d75d7e8f)" d="M 249.809479 307.584 
L 251.83998 307.584 
L 251.83998 307.584 
L 249.809479 307.584 
z
" style="fill:#fa9ba4;opacity:0.2;"/>
   </g>
   <g id="patch_81">
    <path clip-path="url(#p10d75d7e8f)" d="M 252.065591 307.584 
L 254.096092 307.584 
L 254.096092 307.584 
L 252.065591 307.584 
z
" style="fill:#fa9ba4;opacity:0.2;"/>
   </g>
   <g id="patch_82">
    <path clip-path="url(#p10d75d7e8f)" d="M 254.321703 307.584 
L 256.352204 307.584 
L 256.352204 307.584 
L 254.321703 307.584 
z
" style="fill:#fa9ba4;opacity:0.2;"/>
   </g>
   <g id="patch_83">
    <path clip-path="url(#p10d75d7e8f)" d="M 256.577815 307.584 
L 258.608316 307.584 
L 258.608316 307.584 
L 256.577815 307.584 
z
" style="fill:#fa9ba4;opacity:0.2;"/>
   </g>
   <g id="patch_84">
    <path clip-path="url(#p10d75d7e8f)" d="M 258.833928 307.584 
L 260.864429 307.584 
L 260.864429 307.584 
L 258.833928 307.584 
z
" style="fill:#fa9ba4;opacity:0.2;"/>
   </g>
   <g id="patch_85">
    <path clip-path="url(#p10d75d7e8f)" d="M 261.09004 307.584 
L 263.120541 307.584 
L 263.120541 307.584 
L 261.09004 307.584 
z
" style="fill:#fa9ba4;opacity:0.2;"/>
   </g>
   <g id="patch_86">
    <path clip-path="url(#p10d75d7e8f)" d="M 263.346152 307.584 
L 265.376653 307.584 
L 265.376653 307.584 
L 263.346152 307.584 
z
" style="fill:#fa9ba4;opacity:0.2;"/>
   </g>
   <g id="patch_87">
    <path clip-path="url(#p10d75d7e8f)" d="M 265.602264 307.584 
L 267.632765 307.584 
L 267.632765 307.584 
L 265.602264 307.584 
z
" style="fill:#fa9ba4;opacity:0.2;"/>
   </g>
   <g id="patch_88">
    <path clip-path="url(#p10d75d7e8f)" d="M 267.858376 307.584 
L 269.888877 307.584 
L 269.888877 307.584 
L 267.858376 307.584 
z
" style="fill:#fa9ba4;opacity:0.2;"/>
   </g>
   <g id="patch_89">
    <path clip-path="url(#p10d75d7e8f)" d="M 270.114489 307.584 
L 272.14499 307.584 
L 272.14499 307.584 
L 270.114489 307.584 
z
" style="fill:#fa9ba4;opacity:0.2;"/>
   </g>
   <g id="patch_90">
    <path clip-path="url(#p10d75d7e8f)" d="M 272.370601 307.584 
L 274.401102 307.584 
L 274.401102 307.584 
L 272.370601 307.584 
z
" style="fill:#fa9ba4;opacity:0.2;"/>
   </g>
   <g id="patch_91">
    <path clip-path="url(#p10d75d7e8f)" d="M 274.626713 307.584 
L 276.657214 307.584 
L 276.657214 307.584 
L 274.626713 307.584 
z
" style="fill:#fa9ba4;opacity:0.2;"/>
   </g>
   <g id="patch_92">
    <path clip-path="url(#p10d75d7e8f)" d="M 276.882825 307.584 
L 278.913326 307.584 
L 278.913326 307.584 
L 276.882825 307.584 
z
" style="fill:#fa9ba4;opacity:0.2;"/>
   </g>
   <g id="patch_93">
    <path clip-path="url(#p10d75d7e8f)" d="M 279.138937 307.584 
L 281.169438 307.584 
L 281.169438 307.584 
L 279.138937 307.584 
z
" style="fill:#fa9ba4;opacity:0.2;"/>
   </g>
   <g id="patch_94">
    <path clip-path="url(#p10d75d7e8f)" d="M 281.39505 307.584 
L 283.425551 307.584 
L 283.425551 307.584 
L 281.39505 307.584 
z
" style="fill:#fa9ba4;opacity:0.2;"/>
   </g>
   <g id="patch_95">
    <path clip-path="url(#p10d75d7e8f)" d="M 283.651162 307.584 
L 285.681663 307.584 
L 285.681663 307.584 
L 283.651162 307.584 
z
" style="fill:#fa9ba4;opacity:0.2;"/>
   </g>
   <g id="patch_96">
    <path clip-path="url(#p10d75d7e8f)" d="M 285.907274 307.584 
L 287.937775 307.584 
L 287.937775 307.584 
L 285.907274 307.584 
z
" style="fill:#fa9ba4;opacity:0.2;"/>
   </g>
   <g id="patch_97">
    <path clip-path="url(#p10d75d7e8f)" d="M 288.163386 307.584 
L 290.193887 307.584 
L 290.193887 307.584 
L 288.163386 307.584 
z
" style="fill:#fa9ba4;opacity:0.2;"/>
   </g>
   <g id="patch_98">
    <path clip-path="url(#p10d75d7e8f)" d="M 290.419498 307.584 
L 292.449999 307.584 
L 292.449999 307.584 
L 290.419498 307.584 
z
" style="fill:#fa9ba4;opacity:0.2;"/>
   </g>
   <g id="patch_99">
    <path clip-path="url(#p10d75d7e8f)" d="M 292.675611 307.584 
L 294.706112 307.584 
L 294.706112 307.584 
L 292.675611 307.584 
z
" style="fill:#fa9ba4;opacity:0.2;"/>
   </g>
   <g id="patch_100">
    <path clip-path="url(#p10d75d7e8f)" d="M 294.931723 307.584 
L 296.962224 307.584 
L 296.962224 307.584 
L 294.931723 307.584 
z
" style="fill:#fa9ba4;opacity:0.2;"/>
   </g>
   <g id="patch_101">
    <path clip-path="url(#p10d75d7e8f)" d="M 297.187835 307.584 
L 299.218336 307.584 
L 299.218336 307.584 
L 297.187835 307.584 
z
" style="fill:#fa9ba4;opacity:0.2;"/>
   </g>
   <g id="patch_102">
    <path clip-path="url(#p10d75d7e8f)" d="M 299.443947 307.584 
L 301.474448 307.584 
L 301.474448 307.584 
L 299.443947 307.584 
z
" style="fill:#fa9ba4;opacity:0.2;"/>
   </g>
   <g id="patch_103">
    <path clip-path="url(#p10d75d7e8f)" d="M 301.700059 307.584 
L 303.73056 307.584 
L 303.73056 307.584 
L 301.700059 307.584 
z
" style="fill:#fa9ba4;opacity:0.2;"/>
   </g>
   <g id="patch_104">
    <path clip-path="url(#p10d75d7e8f)" d="M 303.956172 307.584 
L 305.986673 307.584 
L 305.986673 307.584 
L 303.956172 307.584 
z
" style="fill:#fa9ba4;opacity:0.2;"/>
   </g>
   <g id="patch_105">
    <path clip-path="url(#p10d75d7e8f)" d="M 306.212284 307.584 
L 308.242785 307.584 
L 308.242785 307.584 
L 306.212284 307.584 
z
" style="fill:#fa9ba4;opacity:0.2;"/>
   </g>
   <g id="patch_106">
    <path clip-path="url(#p10d75d7e8f)" d="M 308.468396 307.584 
L 310.498897 307.584 
L 310.498897 307.584 
L 308.468396 307.584 
z
" style="fill:#fa9ba4;opacity:0.2;"/>
   </g>
   <g id="patch_107">
    <path clip-path="url(#p10d75d7e8f)" d="M 310.724508 307.584 
L 312.755009 307.584 
L 312.755009 307.584 
L 310.724508 307.584 
z
" style="fill:#fa9ba4;opacity:0.2;"/>
   </g>
   <g id="patch_108">
    <path clip-path="url(#p10d75d7e8f)" d="M 312.98062 307.584 
L 315.011121 307.584 
L 315.011121 307.584 
L 312.98062 307.584 
z
" style="fill:#fa9ba4;opacity:0.2;"/>
   </g>
   <g id="patch_109">
    <path clip-path="url(#p10d75d7e8f)" d="M 315.236733 307.584 
L 317.267234 307.584 
L 317.267234 307.584 
L 315.236733 307.584 
z
" style="fill:#fa9ba4;opacity:0.2;"/>
   </g>
   <g id="patch_110">
    <path clip-path="url(#p10d75d7e8f)" d="M 317.492845 307.584 
L 319.523346 307.584 
L 319.523346 307.584 
L 317.492845 307.584 
z
" style="fill:#fa9ba4;opacity:0.2;"/>
   </g>
   <g id="patch_111">
    <path clip-path="url(#p10d75d7e8f)" d="M 319.748957 307.584 
L 321.779458 307.584 
L 321.779458 307.584 
L 319.748957 307.584 
z
" style="fill:#fa9ba4;opacity:0.2;"/>
   </g>
   <g id="patch_112">
    <path clip-path="url(#p10d75d7e8f)" d="M 322.005069 307.584 
L 324.03557 307.584 
L 324.03557 307.584 
L 322.005069 307.584 
z
" style="fill:#fa9ba4;opacity:0.2;"/>
   </g>
   <g id="patch_113">
    <path clip-path="url(#p10d75d7e8f)" d="M 324.261181 307.584 
L 326.291682 307.584 
L 326.291682 307.584 
L 324.261181 307.584 
z
" style="fill:#fa9ba4;opacity:0.2;"/>
   </g>
   <g id="patch_114">
    <path clip-path="url(#p10d75d7e8f)" d="M 326.517294 307.584 
L 328.547795 307.584 
L 328.547795 307.584 
L 326.517294 307.584 
z
" style="fill:#fa9ba4;opacity:0.2;"/>
   </g>
   <g id="patch_115">
    <path clip-path="url(#p10d75d7e8f)" d="M 328.773406 307.584 
L 330.803907 307.584 
L 330.803907 303.670588 
L 328.773406 303.670588 
z
" style="fill:#fa9ba4;opacity:0.2;"/>
   </g>
   <g id="patch_116">
    <path clip-path="url(#p10d75d7e8f)" d="M 331.029518 307.584 
L 333.060019 307.584 
L 333.060019 307.584 
L 331.029518 307.584 
z
" style="fill:#fa9ba4;opacity:0.2;"/>
   </g>
   <g id="patch_117">
    <path clip-path="url(#p10d75d7e8f)" d="M 333.28563 307.584 
L 335.316131 307.584 
L 335.316131 288.016941 
L 333.28563 288.016941 
z
" style="fill:#fa9ba4;opacity:0.2;"/>
   </g>
   <g id="patch_118">
    <path clip-path="url(#p10d75d7e8f)" d="M 335.541742 307.584 
L 337.572243 307.584 
L 337.572243 295.843765 
L 335.541742 295.843765 
z
" style="fill:#fa9ba4;opacity:0.2;"/>
   </g>
   <g id="patch_119">
    <path clip-path="url(#p10d75d7e8f)" d="M 337.797855 307.584 
L 339.828356 307.584 
L 339.828356 303.670588 
L 337.797855 303.670588 
z
" style="fill:#fa9ba4;opacity:0.2;"/>
   </g>
   <g id="patch_120">
    <path clip-path="url(#p10d75d7e8f)" d="M 340.053967 307.584 
L 342.084468 307.584 
L 342.084468 276.276706 
L 340.053967 276.276706 
z
" style="fill:#fa9ba4;opacity:0.2;"/>
   </g>
   <g id="patch_121">
    <path clip-path="url(#p10d75d7e8f)" d="M 342.310079 307.584 
L 344.34058 307.584 
L 344.34058 272.363294 
L 342.310079 272.363294 
z
" style="fill:#fa9ba4;opacity:0.2;"/>
   </g>
   <g id="patch_122">
    <path clip-path="url(#p10d75d7e8f)" d="M 344.566191 307.584 
L 346.596692 307.584 
L 346.596692 288.016941 
L 344.566191 288.016941 
z
" style="fill:#fa9ba4;opacity:0.2;"/>
   </g>
   <g id="patch_123">
    <path clip-path="url(#p10d75d7e8f)" d="M 346.822303 307.584 
L 348.852804 307.584 
L 348.852804 284.103529 
L 346.822303 284.103529 
z
" style="fill:#fa9ba4;opacity:0.2;"/>
   </g>
   <g id="patch_124">
    <path clip-path="url(#p10d75d7e8f)" d="M 349.078416 307.584 
L 351.108917 307.584 
L 351.108917 299.757176 
L 349.078416 299.757176 
z
" style="fill:#fa9ba4;opacity:0.2;"/>
   </g>
   <g id="patch_125">
    <path clip-path="url(#p10d75d7e8f)" d="M 351.334528 307.584 
L 353.365029 307.584 
L 353.365029 299.757176 
L 351.334528 299.757176 
z
" style="fill:#fa9ba4;opacity:0.2;"/>
   </g>
   <g id="patch_126">
    <path clip-path="url(#p10d75d7e8f)" d="M 353.59064 307.584 
L 355.621141 307.584 
L 355.621141 299.757176 
L 353.59064 299.757176 
z
" style="fill:#fa9ba4;opacity:0.2;"/>
   </g>
   <g id="patch_127">
    <path clip-path="url(#p10d75d7e8f)" d="M 355.846752 307.584 
L 357.877253 307.584 
L 357.877253 272.363294 
L 355.846752 272.363294 
z
" style="fill:#fa9ba4;opacity:0.2;"/>
   </g>
   <g id="patch_128">
    <path clip-path="url(#p10d75d7e8f)" d="M 358.102864 307.584 
L 360.133365 307.584 
L 360.133365 291.930353 
L 358.102864 291.930353 
z
" style="fill:#fa9ba4;opacity:0.2;"/>
   </g>
   <g id="patch_129">
    <path clip-path="url(#p10d75d7e8f)" d="M 360.358977 307.584 
L 362.389478 307.584 
L 362.389478 272.363294 
L 360.358977 272.363294 
z
" style="fill:#fa9ba4;opacity:0.2;"/>
   </g>
   <g id="patch_130">
    <path clip-path="url(#p10d75d7e8f)" d="M 362.615089 307.584 
L 364.64559 307.584 
L 364.64559 280.190118 
L 362.615089 280.190118 
z
" style="fill:#fa9ba4;opacity:0.2;"/>
   </g>
   <g id="patch_131">
    <path clip-path="url(#p10d75d7e8f)" d="M 364.871201 307.584 
L 366.901702 307.584 
L 366.901702 225.402353 
L 364.871201 225.402353 
z
" style="fill:#fa9ba4;opacity:0.2;"/>
   </g>
   <g id="patch_132">
    <path clip-path="url(#p10d75d7e8f)" d="M 367.127313 307.584 
L 369.157814 307.584 
L 369.157814 276.276706 
L 367.127313 276.276706 
z
" style="fill:#fa9ba4;opacity:0.2;"/>
   </g>
   <g id="patch_133">
    <path clip-path="url(#p10d75d7e8f)" d="M 369.383425 307.584 
L 371.413926 307.584 
L 371.413926 252.796235 
L 369.383425 252.796235 
z
" style="fill:#fa9ba4;opacity:0.2;"/>
   </g>
   <g id="patch_134">
    <path clip-path="url(#p10d75d7e8f)" d="M 371.639538 307.584 
L 373.670039 307.584 
L 373.670039 252.796235 
L 371.639538 252.796235 
z
" style="fill:#fa9ba4;opacity:0.2;"/>
   </g>
   <g id="patch_135">
    <path clip-path="url(#p10d75d7e8f)" d="M 373.89565 307.584 
L 375.926151 307.584 
L 375.926151 225.402353 
L 373.89565 225.402353 
z
" style="fill:#fa9ba4;opacity:0.2;"/>
   </g>
   <g id="patch_136">
    <path clip-path="url(#p10d75d7e8f)" d="M 376.151762 307.584 
L 378.182263 307.584 
L 378.182263 217.575529 
L 376.151762 217.575529 
z
" style="fill:#fa9ba4;opacity:0.2;"/>
   </g>
   <g id="patch_137">
    <path clip-path="url(#p10d75d7e8f)" d="M 378.407874 307.584 
L 380.438375 307.584 
L 380.438375 272.363294 
L 378.407874 272.363294 
z
" style="fill:#fa9ba4;opacity:0.2;"/>
   </g>
   <g id="patch_138">
    <path clip-path="url(#p10d75d7e8f)" d="M 380.663986 307.584 
L 382.694487 307.584 
L 382.694487 237.142588 
L 380.663986 237.142588 
z
" style="fill:#fa9ba4;opacity:0.2;"/>
   </g>
   <g id="patch_139">
    <path clip-path="url(#p10d75d7e8f)" d="M 382.920099 307.584 
L 384.9506 307.584 
L 384.9506 182.354824 
L 382.920099 182.354824 
z
" style="fill:#fa9ba4;opacity:0.2;"/>
   </g>
   <g id="patch_140">
    <path clip-path="url(#p10d75d7e8f)" d="M 385.176211 307.584 
L 387.206712 307.584 
L 387.206712 209.748706 
L 385.176211 209.748706 
z
" style="fill:#fa9ba4;opacity:0.2;"/>
   </g>
   <g id="patch_141">
    <path clip-path="url(#p10d75d7e8f)" d="M 387.432323 307.584 
L 389.462824 307.584 
L 389.462824 233.229176 
L 387.432323 233.229176 
z
" style="fill:#fa9ba4;opacity:0.2;"/>
   </g>
   <g id="patch_142">
    <path clip-path="url(#p10d75d7e8f)" d="M 389.688435 307.584 
L 391.718936 307.584 
L 391.718936 248.882824 
L 389.688435 248.882824 
z
" style="fill:#fa9ba4;opacity:0.2;"/>
   </g>
   <g id="patch_143">
    <path clip-path="url(#p10d75d7e8f)" d="M 391.944547 307.584 
L 393.975048 307.584 
L 393.975048 244.969412 
L 391.944547 244.969412 
z
" style="fill:#fa9ba4;opacity:0.2;"/>
   </g>
   <g id="patch_144">
    <path clip-path="url(#p10d75d7e8f)" d="M 394.20066 307.584 
L 396.231161 307.584 
L 396.231161 280.190118 
L 394.20066 280.190118 
z
" style="fill:#fa9ba4;opacity:0.2;"/>
   </g>
   <g id="patch_145">
    <path clip-path="url(#p10d75d7e8f)" d="M 396.456772 307.584 
L 398.487273 307.584 
L 398.487273 209.748706 
L 396.456772 209.748706 
z
" style="fill:#fa9ba4;opacity:0.2;"/>
   </g>
   <g id="matplotlib.axis_1"/>
   <g id="matplotlib.axis_2"/>
   <g id="PolyCollection_1">
    <defs>
     <path d="M 368.142564 -71.559529 
L 368.142564 -38.016 
L 370.398676 -38.016 
L 372.654788 -38.016 
L 374.9109 -38.016 
L 377.167012 -38.016 
L 379.423125 -38.016 
L 381.679237 -38.016 
L 383.935349 -38.016 
L 386.191461 -38.016 
L 388.447573 -38.016 
L 390.703686 -38.016 
L 392.959798 -38.016 
L 395.21591 -38.016 
L 397.472022 -38.016 
L 397.472022 -115.725176 
L 397.472022 -115.725176 
L 395.21591 -111.811765 
L 392.959798 -112.929882 
L 390.703686 -116.843294 
L 388.447573 -120.197647 
L 386.191461 -117.402353 
L 383.935349 -111.252706 
L 381.679237 -97.835294 
L 379.423125 -99.512471 
L 377.167012 -98.394353 
L 374.9109 -90.567529 
L 372.654788 -81.063529 
L 370.398676 -78.268235 
L 368.142564 -71.559529 
z
" id="mcf9166bf87" style="stroke:#dc3545;stroke-opacity:0.5;"/>
    </defs>
    <g clip-path="url(#p10d75d7e8f)">
     <use style="fill:#dc3545;fill-opacity:0.5;stroke:#dc3545;stroke-opacity:0.5;" x="0" xlink:href="#mcf9166bf87" y="345.6"/>
    </g>
   </g>
   <g id="PolyCollection_2">
    <defs>
     <path d="M 88.384651 -38.016 
L 88.384651 -38.016 
L 90.640763 -38.016 
L 92.896875 -38.016 
L 95.152988 -38.016 
L 97.4091 -38.016 
L 99.665212 -38.016 
L 101.921324 -38.016 
L 104.177436 -38.016 
L 106.433549 -38.016 
L 108.689661 -38.016 
L 110.945773 -38.016 
L 113.201885 -38.016 
L 115.457997 -38.016 
L 117.71411 -38.016 
L 119.970222 -38.016 
L 122.226334 -38.016 
L 124.482446 -38.016 
L 126.738558 -38.016 
L 128.994671 -38.016 
L 131.250783 -38.016 
L 133.506895 -38.016 
L 135.763007 -38.016 
L 138.019119 -38.016 
L 140.275232 -38.016 
L 142.531344 -38.016 
L 144.787456 -38.016 
L 147.043568 -38.016 
L 149.29968 -38.016 
L 151.555793 -38.016 
L 153.811905 -38.016 
L 156.068017 -38.016 
L 158.324129 -38.016 
L 160.580241 -38.016 
L 162.836354 -38.016 
L 165.092466 -38.016 
L 167.348578 -38.016 
L 169.60469 -38.016 
L 171.860802 -38.016 
L 174.116915 -38.016 
L 176.373027 -38.016 
L 178.629139 -38.016 
L 180.885251 -38.016 
L 183.141363 -38.016 
L 185.397476 -38.016 
L 187.653588 -38.016 
L 189.9097 -38.016 
L 192.165812 -38.016 
L 194.421924 -38.016 
L 196.678037 -38.016 
L 198.934149 -38.016 
L 201.190261 -38.016 
L 203.446373 -38.016 
L 205.702485 -38.016 
L 207.958598 -38.016 
L 210.21471 -38.016 
L 212.470822 -38.016 
L 214.726934 -38.016 
L 216.983046 -38.016 
L 219.239159 -38.016 
L 221.495271 -38.016 
L 223.751383 -38.016 
L 226.007495 -38.016 
L 228.263607 -38.016 
L 230.51972 -38.016 
L 232.775832 -38.016 
L 235.031944 -38.016 
L 237.288056 -38.016 
L 239.544168 -38.016 
L 241.80028 -38.016 
L 244.056393 -38.016 
L 246.312505 -38.016 
L 248.568617 -38.016 
L 250.824729 -38.016 
L 253.080841 -38.016 
L 255.336954 -38.016 
L 257.593066 -38.016 
L 259.849178 -38.016 
L 262.10529 -38.016 
L 264.361402 -38.016 
L 266.617515 -38.016 
L 268.873627 -38.016 
L 271.129739 -38.016 
L 273.385851 -38.016 
L 275.641963 -38.016 
L 277.898076 -38.016 
L 280.154188 -38.016 
L 282.4103 -38.016 
L 284.666412 -38.016 
L 286.922524 -38.016 
L 289.178637 -38.016 
L 291.434749 -38.016 
L 293.690861 -38.016 
L 295.946973 -38.016 
L 298.203085 -38.016 
L 300.459198 -38.016 
L 302.71531 -38.016 
L 304.971422 -38.016 
L 307.227534 -38.016 
L 309.483646 -38.016 
L 311.739759 -38.016 
L 313.995871 -38.016 
L 316.251983 -38.016 
L 318.508095 -38.016 
L 320.764207 -38.016 
L 323.02032 -38.016 
L 325.276432 -38.016 
L 327.532544 -38.016 
L 329.788656 -38.016 
L 332.044768 -38.016 
L 334.300881 -38.016 
L 336.556993 -38.016 
L 338.813105 -38.016 
L 341.069217 -38.016 
L 343.325329 -38.016 
L 345.581442 -38.016 
L 347.837554 -38.016 
L 350.093666 -38.016 
L 352.349778 -38.016 
L 354.60589 -38.016 
L 356.862003 -38.016 
L 359.118115 -38.016 
L 361.374227 -38.016 
L 363.630339 -38.016 
L 365.886451 -38.016 
L 368.142564 -38.016 
L 368.142564 -71.559529 
L 368.142564 -71.559529 
L 365.886451 -68.205176 
L 363.630339 -57.583059 
L 361.374227 -57.024 
L 359.118115 -54.787765 
L 356.862003 -57.583059 
L 354.60589 -57.024 
L 352.349778 -56.464941 
L 350.093666 -57.024 
L 347.837554 -58.701176 
L 345.581442 -55.346824 
L 343.325329 -53.110588 
L 341.069217 -48.079059 
L 338.813105 -43.606588 
L 336.556993 -43.047529 
L 334.300881 -41.370353 
L 332.044768 -38.575059 
L 329.788656 -38.575059 
L 327.532544 -38.016 
L 325.276432 -38.016 
L 323.02032 -38.016 
L 320.764207 -38.016 
L 318.508095 -38.016 
L 316.251983 -38.016 
L 313.995871 -38.016 
L 311.739759 -38.016 
L 309.483646 -38.016 
L 307.227534 -38.016 
L 304.971422 -38.016 
L 302.71531 -38.016 
L 300.459198 -38.016 
L 298.203085 -38.016 
L 295.946973 -38.016 
L 293.690861 -38.016 
L 291.434749 -38.016 
L 289.178637 -38.016 
L 286.922524 -38.016 
L 284.666412 -38.016 
L 282.4103 -38.016 
L 280.154188 -38.016 
L 277.898076 -38.016 
L 275.641963 -38.016 
L 273.385851 -38.016 
L 271.129739 -38.016 
L 268.873627 -38.016 
L 266.617515 -38.016 
L 264.361402 -38.016 
L 262.10529 -38.016 
L 259.849178 -38.016 
L 257.593066 -38.016 
L 255.336954 -38.016 
L 253.080841 -38.016 
L 250.824729 -38.016 
L 248.568617 -38.016 
L 246.312505 -38.016 
L 244.056393 -38.016 
L 241.80028 -38.016 
L 239.544168 -38.016 
L 237.288056 -38.016 
L 235.031944 -38.016 
L 232.775832 -38.016 
L 230.51972 -38.016 
L 228.263607 -38.016 
L 226.007495 -38.016 
L 223.751383 -38.016 
L 221.495271 -38.016 
L 219.239159 -38.016 
L 216.983046 -38.016 
L 214.726934 -38.016 
L 212.470822 -38.016 
L 210.21471 -38.016 
L 207.958598 -38.016 
L 205.702485 -38.016 
L 203.446373 -38.016 
L 201.190261 -38.016 
L 198.934149 -38.016 
L 196.678037 -38.016 
L 194.421924 -38.016 
L 192.165812 -38.016 
L 189.9097 -38.016 
L 187.653588 -38.016 
L 185.397476 -38.575059 
L 183.141363 -38.575059 
L 180.885251 -38.575059 
L 178.629139 -38.575059 
L 176.373027 -38.575059 
L 174.116915 -38.575059 
L 171.860802 -40.811294 
L 169.60469 -40.252235 
L 167.348578 -40.252235 
L 165.092466 -40.252235 
L 162.836354 -40.252235 
L 160.580241 -41.370353 
L 158.324129 -42.488471 
L 156.068017 -40.252235 
L 153.811905 -40.252235 
L 151.555793 -40.252235 
L 149.29968 -41.370353 
L 147.043568 -44.724706 
L 144.787456 -45.283765 
L 142.531344 -49.197176 
L 140.275232 -53.669647 
L 138.019119 -73.236706 
L 135.763007 -73.236706 
L 133.506895 -87.213176 
L 131.250783 -121.874824 
L 128.994671 -125.788235 
L 126.738558 -136.969412 
L 124.482446 -135.292235 
L 122.226334 -119.638588 
L 119.970222 -121.315765 
L 117.71411 -106.221176 
L 115.457997 -68.205176 
L 113.201885 -62.614588 
L 110.945773 -46.401882 
L 108.689661 -43.606588 
L 106.433549 -39.693176 
L 104.177436 -38.016 
L 101.921324 -38.016 
L 99.665212 -38.016 
L 97.4091 -38.016 
L 95.152988 -38.016 
L 92.896875 -38.016 
L 90.640763 -38.016 
L 88.384651 -38.016 
z
" id="m721ca2b044" style="stroke:#fa9ba4;stroke-opacity:0.3;"/>
    </defs>
    <g clip-path="url(#p10d75d7e8f)">
     <use style="fill:#fa9ba4;fill-opacity:0.3;stroke:#fa9ba4;stroke-opacity:0.3;" x="0" xlink:href="#m721ca2b044" y="345.6"/>
    </g>
   </g>
   <g id="line2d_1">
    <path clip-path="url(#p10d75d7e8f)" d="M 88.384651 307.584 
L 104.177436 307.584 
L 106.433549 305.906824 
L 108.689661 301.993412 
L 110.945773 299.198118 
L 113.201885 282.985412 
L 115.457997 277.394824 
L 117.71411 239.378824 
L 119.970222 224.284235 
L 122.226334 225.961412 
L 124.482446 210.307765 
L 126.738558 208.630588 
L 128.994671 219.811765 
L 131.250783 223.725176 
L 133.506895 258.386824 
L 135.763007 272.363294 
L 138.019119 272.363294 
L 140.275232 291.930353 
L 142.531344 296.402824 
L 144.787456 300.316235 
L 147.043568 300.875294 
L 149.29968 304.229647 
L 151.555793 305.347765 
L 156.068017 305.347765 
L 158.324129 303.111529 
L 162.836354 305.347765 
L 169.60469 305.347765 
L 171.860802 304.788706 
L 174.116915 307.024941 
L 185.397476 307.024941 
L 187.653588 307.584 
L 327.532544 307.584 
L 329.788656 307.024941 
L 332.044768 307.024941 
L 334.300881 304.229647 
L 336.556993 302.552471 
L 338.813105 301.993412 
L 341.069217 297.520941 
L 343.325329 292.489412 
L 345.581442 290.253176 
L 347.837554 286.898824 
L 350.093666 288.576 
L 352.349778 289.135059 
L 356.862003 288.016941 
L 359.118115 290.812235 
L 361.374227 288.576 
L 363.630339 288.016941 
L 365.886451 277.394824 
L 368.142564 274.040471 
L 370.398676 267.331765 
L 372.654788 264.536471 
L 374.9109 255.032471 
L 377.167012 247.205647 
L 379.423125 246.087529 
L 381.679237 247.764706 
L 383.935349 234.347294 
L 386.191461 228.197647 
L 388.447573 225.402353 
L 390.703686 228.756706 
L 392.959798 232.670118 
L 395.21591 233.788235 
L 397.472022 229.874824 
L 397.472022 229.874824 
" style="fill:none;stroke:#fa9ba4;stroke-linecap:square;stroke-width:2;"/>
   </g>
   <g id="line2d_2">
    <path clip-path="url(#p10d75d7e8f)" d="M 368.142564 274.040471 
L 370.398676 267.331765 
L 372.654788 264.536471 
L 374.9109 255.032471 
L 377.167012 247.205647 
L 379.423125 246.087529 
L 381.679237 247.764706 
L 383.935349 234.347294 
L 386.191461 228.197647 
L 388.447573 225.402353 
L 390.703686 228.756706 
L 392.959798 232.670118 
L 395.21591 233.788235 
L 397.472022 229.874824 
" style="fill:none;stroke:#dc3545;stroke-linecap:square;stroke-width:2;"/>
   </g>
  </g>
 </g>
 <defs>
  <clipPath id="p10d75d7e8f">
   <rect height="266.112" width="357.12" x="57.6" y="41.472"/>
  </clipPath>
 </defs>
</svg>
