<?xml version="1.0" encoding="utf-8" standalone="no"?>
<!DOCTYPE svg PUBLIC "-//W3C//DTD SVG 1.1//EN"
  "http://www.w3.org/Graphics/SVG/1.1/DTD/svg11.dtd">
<!-- Created with matplotlib (https://matplotlib.org/) -->
<svg height="345.6pt" version="1.1" viewBox="0 0 460.8 345.6" width="460.8pt" xmlns="http://www.w3.org/2000/svg" xmlns:xlink="http://www.w3.org/1999/xlink">
 <defs>
  <style type="text/css">
*{stroke-linecap:butt;stroke-linejoin:round;}
  </style>
 </defs>
 <g id="figure_1">
  <g id="patch_1">
   <path d="M 0 345.6 
L 460.8 345.6 
L 460.8 0 
L 0 0 
z
" style="fill:none;"/>
  </g>
  <g id="axes_1">
   <g id="patch_2">
    <path clip-path="url(#pfc6c458cbc)" d="M 73.832727 307.584 
L 83.604938 307.584 
L 83.604938 307.584 
L 73.832727 307.584 
z
" style="fill:#fa9ba4;opacity:0.6;"/>
   </g>
   <g id="patch_3">
    <path clip-path="url(#pfc6c458cbc)" d="M 84.690739 307.584 
L 94.462949 307.584 
L 94.462949 307.584 
L 84.690739 307.584 
z
" style="fill:#fa9ba4;opacity:0.6;"/>
   </g>
   <g id="patch_4">
    <path clip-path="url(#pfc6c458cbc)" d="M 95.54875 307.584 
L 105.320961 307.584 
L 105.320961 301.6704 
L 95.54875 301.6704 
z
" style="fill:#fa9ba4;opacity:0.6;"/>
   </g>
   <g id="patch_5">
    <path clip-path="url(#pfc6c458cbc)" d="M 106.406762 307.584 
L 116.178972 307.584 
L 116.178972 307.584 
L 106.406762 307.584 
z
" style="fill:#fa9ba4;opacity:0.6;"/>
   </g>
   <g id="patch_6">
    <path clip-path="url(#pfc6c458cbc)" d="M 117.264773 307.584 
L 127.036984 307.584 
L 127.036984 295.7568 
L 117.264773 295.7568 
z
" style="fill:#fa9ba4;opacity:0.6;"/>
   </g>
   <g id="patch_7">
    <path clip-path="url(#pfc6c458cbc)" d="M 128.122785 307.584 
L 137.894995 307.584 
L 137.894995 301.6704 
L 128.122785 301.6704 
z
" style="fill:#fa9ba4;opacity:0.6;"/>
   </g>
   <g id="patch_8">
    <path clip-path="url(#pfc6c458cbc)" d="M 138.980797 307.584 
L 148.753007 307.584 
L 148.753007 283.9296 
L 138.980797 283.9296 
z
" style="fill:#fa9ba4;opacity:0.6;"/>
   </g>
   <g id="patch_9">
    <path clip-path="url(#pfc6c458cbc)" d="M 149.838808 307.584 
L 159.611019 307.584 
L 159.611019 307.584 
L 149.838808 307.584 
z
" style="fill:#fa9ba4;opacity:0.6;"/>
   </g>
   <g id="patch_10">
    <path clip-path="url(#pfc6c458cbc)" d="M 160.69682 307.584 
L 170.46903 307.584 
L 170.46903 289.8432 
L 160.69682 289.8432 
z
" style="fill:#fa9ba4;opacity:0.6;"/>
   </g>
   <g id="patch_11">
    <path clip-path="url(#pfc6c458cbc)" d="M 171.554831 307.584 
L 181.327042 307.584 
L 181.327042 283.9296 
L 171.554831 283.9296 
z
" style="fill:#fa9ba4;opacity:0.6;"/>
   </g>
   <g id="patch_12">
    <path clip-path="url(#pfc6c458cbc)" d="M 182.412843 307.584 
L 192.185053 307.584 
L 192.185053 289.8432 
L 182.412843 289.8432 
z
" style="fill:#fa9ba4;opacity:0.6;"/>
   </g>
   <g id="patch_13">
    <path clip-path="url(#pfc6c458cbc)" d="M 193.270854 307.584 
L 203.043065 307.584 
L 203.043065 242.5344 
L 193.270854 242.5344 
z
" style="fill:#fa9ba4;opacity:0.6;"/>
   </g>
   <g id="patch_14">
    <path clip-path="url(#pfc6c458cbc)" d="M 204.128866 307.584 
L 213.901076 307.584 
L 213.901076 283.9296 
L 204.128866 283.9296 
z
" style="fill:#fa9ba4;opacity:0.6;"/>
   </g>
   <g id="patch_15">
    <path clip-path="url(#pfc6c458cbc)" d="M 214.986877 307.584 
L 224.759088 307.584 
L 224.759088 307.584 
L 214.986877 307.584 
z
" style="fill:#fa9ba4;opacity:0.6;"/>
   </g>
   <g id="patch_16">
    <path clip-path="url(#pfc6c458cbc)" d="M 225.844889 307.584 
L 235.617099 307.584 
L 235.617099 266.1888 
L 225.844889 266.1888 
z
" style="fill:#fa9ba4;opacity:0.6;"/>
   </g>
   <g id="patch_17">
    <path clip-path="url(#pfc6c458cbc)" d="M 236.702901 307.584 
L 246.475111 307.584 
L 246.475111 301.6704 
L 236.702901 301.6704 
z
" style="fill:#fa9ba4;opacity:0.6;"/>
   </g>
   <g id="patch_18">
    <path clip-path="url(#pfc6c458cbc)" d="M 247.560912 307.584 
L 257.333123 307.584 
L 257.333123 260.2752 
L 247.560912 260.2752 
z
" style="fill:#fa9ba4;opacity:0.6;"/>
   </g>
   <g id="patch_19">
    <path clip-path="url(#pfc6c458cbc)" d="M 258.418924 307.584 
L 268.191134 307.584 
L 268.191134 171.5712 
L 258.418924 171.5712 
z
" style="fill:#fa9ba4;opacity:0.6;"/>
   </g>
   <g id="patch_20">
    <path clip-path="url(#pfc6c458cbc)" d="M 269.276935 307.584 
L 279.049146 307.584 
L 279.049146 171.5712 
L 269.276935 171.5712 
z
" style="fill:#fa9ba4;opacity:0.6;"/>
   </g>
   <g id="patch_21">
    <path clip-path="url(#pfc6c458cbc)" d="M 280.134947 307.584 
L 289.907157 307.584 
L 289.907157 218.88 
L 280.134947 218.88 
z
" style="fill:#fa9ba4;opacity:0.6;"/>
   </g>
   <g id="patch_22">
    <path clip-path="url(#pfc6c458cbc)" d="M 290.992958 307.584 
L 300.765169 307.584 
L 300.765169 41.472 
L 290.992958 41.472 
z
" style="fill:#fa9ba4;opacity:0.6;"/>
   </g>
   <g id="patch_23">
    <path clip-path="url(#pfc6c458cbc)" d="M 301.85097 307.584 
L 311.62318 307.584 
L 311.62318 106.5216 
L 301.85097 106.5216 
z
" style="fill:#fa9ba4;opacity:0.6;"/>
   </g>
   <g id="patch_24">
    <path clip-path="url(#pfc6c458cbc)" d="M 312.708981 307.584 
L 322.481192 307.584 
L 322.481192 283.9296 
L 312.708981 283.9296 
z
" style="fill:#fa9ba4;opacity:0.6;"/>
   </g>
   <g id="patch_25">
    <path clip-path="url(#pfc6c458cbc)" d="M 323.566993 307.584 
L 333.339203 307.584 
L 333.339203 159.744 
L 323.566993 159.744 
z
" style="fill:#fa9ba4;opacity:0.6;"/>
   </g>
   <g id="patch_26">
    <path clip-path="url(#pfc6c458cbc)" d="M 334.425005 307.584 
L 344.197215 307.584 
L 344.197215 307.584 
L 334.425005 307.584 
z
" style="fill:#fa9ba4;opacity:0.6;"/>
   </g>
   <g id="patch_27">
    <path clip-path="url(#pfc6c458cbc)" d="M 345.283016 307.584 
L 355.055227 307.584 
L 355.055227 106.5216 
L 345.283016 106.5216 
z
" style="fill:#fa9ba4;opacity:0.6;"/>
   </g>
   <g id="patch_28">
    <path clip-path="url(#pfc6c458cbc)" d="M 356.141028 307.584 
L 365.913238 307.584 
L 365.913238 171.5712 
L 356.141028 171.5712 
z
" style="fill:#fa9ba4;opacity:0.6;"/>
   </g>
   <g id="patch_29">
    <path clip-path="url(#pfc6c458cbc)" d="M 366.999039 307.584 
L 376.77125 307.584 
L 376.77125 254.3616 
L 366.999039 254.3616 
z
" style="fill:#fa9ba4;opacity:0.6;"/>
   </g>
   <g id="patch_30">
    <path clip-path="url(#pfc6c458cbc)" d="M 377.857051 307.584 
L 387.629261 307.584 
L 387.629261 230.7072 
L 377.857051 230.7072 
z
" style="fill:#fa9ba4;opacity:0.6;"/>
   </g>
   <g id="patch_31">
    <path clip-path="url(#pfc6c458cbc)" d="M 388.715062 307.584 
L 398.487273 307.584 
L 398.487273 307.584 
L 388.715062 307.584 
z
" style="fill:#fa9ba4;opacity:0.6;"/>
   </g>
   <g id="matplotlib.axis_1"/>
   <g id="matplotlib.axis_2">
    <g id="ytick_1">
     <g id="line2d_1">
      <defs>
       <path d="M 0 0 
L 16 0 
" id="m67609d5a83" style="stroke:#e0e0e0;stroke-width:2;"/>
      </defs>
      <g>
       <use style="fill:#e0e0e0;stroke:#e0e0e0;stroke-width:2;" x="57.6" xlink:href="#m67609d5a83" y="41.472"/>
      </g>
     </g>
     <g id="text_1">
      <!-- 45 -->
      <defs>
       <path d="M 37.796875 64.3125 
L 12.890625 25.390625 
L 37.796875 25.390625 
z
M 35.203125 72.90625 
L 47.609375 72.90625 
L 47.609375 25.390625 
L 58.015625 25.390625 
L 58.015625 17.1875 
L 47.609375 17.1875 
L 47.609375 0 
L 37.796875 0 
L 37.796875 17.1875 
L 4.890625 17.1875 
L 4.890625 26.703125 
z
" id="DejaVuSans-52"/>
       <path d="M 10.796875 72.90625 
L 49.515625 72.90625 
L 49.515625 64.59375 
L 19.828125 64.59375 
L 19.828125 46.734375 
Q 21.96875 47.46875 24.109375 47.828125 
Q 26.265625 48.1875 28.421875 48.1875 
Q 40.625 48.1875 47.75 41.5 
Q 54.890625 34.8125 54.890625 23.390625 
Q 54.890625 11.625 47.5625 5.09375 
Q 40.234375 -1.421875 26.90625 -1.421875 
Q 22.3125 -1.421875 17.546875 -0.640625 
Q 12.796875 0.140625 7.71875 1.703125 
L 7.71875 11.625 
Q 12.109375 9.234375 16.796875 8.0625 
Q 21.484375 6.890625 26.703125 6.890625 
Q 35.15625 6.890625 40.078125 11.328125 
Q 45.015625 15.765625 45.015625 23.390625 
Q 45.015625 31 40.078125 35.4375 
Q 35.15625 39.890625 26.703125 39.890625 
Q 22.75 39.890625 18.8125 39.015625 
Q 14.890625 38.140625 10.796875 36.28125 
z
" id="DejaVuSans-53"/>
      </defs>
      <g style="fill:#e0e0e0;" transform="translate(17.06 50.590125)scale(0.24 -0.24)">
       <use xlink:href="#DejaVuSans-52"/>
       <use x="63.623047" xlink:href="#DejaVuSans-53"/>
      </g>
     </g>
    </g>
   </g>
   <g id="PolyCollection_1">
    <defs>
     <path d="M 252.447017 -66.7392 
L 252.447017 -38.016 
L 263.305029 -38.016 
L 274.16304 -38.016 
L 285.021052 -38.016 
L 295.879064 -38.016 
L 306.737075 -38.016 
L 317.595087 -38.016 
L 328.453098 -38.016 
L 339.31111 -38.016 
L 350.169121 -38.016 
L 361.027133 -38.016 
L 371.885144 -38.016 
L 382.743156 -38.016 
L 393.601168 -38.016 
L 393.601168 -125.8752 
L 393.601168 -125.8752 
L 382.743156 -129.2544 
L 371.885144 -146.9952 
L 361.027133 -177.408 
L 350.169121 -170.6496 
L 339.31111 -161.3568 
L 328.453098 -180.7872 
L 317.595087 -166.4256 
L 306.737075 -163.8912 
L 295.879064 -141.0816 
L 285.021052 -103.0656 
L 274.16304 -93.7728 
L 263.305029 -83.6352 
L 252.447017 -66.7392 
z
" id="m82d75b060b" style="stroke:#dc3545;stroke-opacity:0.5;"/>
    </defs>
    <g clip-path="url(#pfc6c458cbc)">
     <use style="fill:#dc3545;fill-opacity:0.5;stroke:#dc3545;stroke-opacity:0.5;" x="0" xlink:href="#m82d75b060b" y="345.6"/>
    </g>
   </g>
   <g id="line2d_2">
    <path clip-path="url(#pfc6c458cbc)" d="M 143.866902 300.8256 
L 154.724913 300.8256 
L 165.582925 298.2912 
L 176.440936 295.7568 
L 187.298948 293.2224 
L 198.15696 285.6192 
L 209.014971 283.0848 
L 219.872983 286.464 
L 230.730994 280.5504 
L 241.589006 282.24 
L 252.447017 278.8608 
L 263.305029 261.9648 
L 274.16304 251.8272 
L 285.021052 242.5344 
L 295.879064 204.5184 
L 306.737075 181.7088 
L 317.595087 179.1744 
L 328.453098 164.8128 
L 339.31111 184.2432 
L 350.169121 174.9504 
L 361.027133 168.192 
L 371.885144 198.6048 
L 382.743156 216.3456 
L 393.601168 219.7248 
" style="fill:none;stroke:#dc3545;stroke-linecap:square;stroke-opacity:0.6;stroke-width:2;"/>
   </g>
   <g id="line2d_3">
    <path clip-path="url(#pfc6c458cbc)" d="M 252.447017 278.8608 
L 263.305029 261.9648 
L 274.16304 251.8272 
L 285.021052 242.5344 
L 295.879064 204.5184 
L 306.737075 181.7088 
L 317.595087 179.1744 
L 328.453098 164.8128 
L 339.31111 184.2432 
L 350.169121 174.9504 
L 361.027133 168.192 
L 371.885144 198.6048 
L 382.743156 216.3456 
L 393.601168 219.7248 
" style="fill:none;stroke:#dc3545;stroke-linecap:square;stroke-width:2;"/>
   </g>
  </g>
 </g>
 <defs>
  <clipPath id="pfc6c458cbc">
   <rect height="266.112" width="357.12" x="57.6" y="41.472"/>
  </clipPath>
 </defs>
</svg>
