<?xml version="1.0" encoding="utf-8" standalone="no"?>
<!DOCTYPE svg PUBLIC "-//W3C//DTD SVG 1.1//EN"
  "http://www.w3.org/Graphics/SVG/1.1/DTD/svg11.dtd">
<svg height="345.6pt" version="1.1" viewBox="0 0 460.8 345.6" width="460.8pt" xmlns="http://www.w3.org/2000/svg" xmlns:xlink="http://www.w3.org/1999/xlink">
 <metadata>
  <rdf:RDF xmlns:cc="http://creativecommons.org/ns#" xmlns:dc="http://purl.org/dc/elements/1.1/" xmlns:rdf="http://www.w3.org/1999/02/22-rdf-syntax-ns#">
   <cc:Work>
    <dc:type rdf:resource="http://purl.org/dc/dcmitype/StillImage"/>
    <dc:date>2021-04-29T08:02:55.008214</dc:date>
    <dc:format>image/svg+xml</dc:format>
    <dc:creator>
     <cc:Agent>
      <dc:title>Matplotlib v3.4.1, https://matplotlib.org/</dc:title>
     </cc:Agent>
    </dc:creator>
   </cc:Work>
  </rdf:RDF>
 </metadata>
 <defs>
  <style type="text/css">*{stroke-linecap:butt;stroke-linejoin:round;}</style>
 </defs>
 <g id="figure_1">
  <g id="patch_1">
   <path d="M 0 345.6 
L 460.8 345.6 
L 460.8 0 
L 0 0 
z
" style="fill:none;"/>
  </g>
  <g id="axes_1">
   <g id="patch_2">
    <path clip-path="url(#p48e0873222)" d="M 73.832727 307.584 
L 75.998695 307.584 
L 75.998695 307.584 
L 73.832727 307.584 
z
" style="fill:#fa9ba4;opacity:0.2;"/>
   </g>
   <g id="patch_3">
    <path clip-path="url(#p48e0873222)" d="M 76.239358 307.584 
L 78.405327 307.584 
L 78.405327 307.584 
L 76.239358 307.584 
z
" style="fill:#fa9ba4;opacity:0.2;"/>
   </g>
   <g id="patch_4">
    <path clip-path="url(#p48e0873222)" d="M 78.64599 307.584 
L 80.811958 307.584 
L 80.811958 305.1648 
L 78.64599 305.1648 
z
" style="fill:#fa9ba4;opacity:0.2;"/>
   </g>
   <g id="patch_5">
    <path clip-path="url(#p48e0873222)" d="M 81.052621 307.584 
L 83.218589 307.584 
L 83.218589 307.584 
L 81.052621 307.584 
z
" style="fill:#fa9ba4;opacity:0.2;"/>
   </g>
   <g id="patch_6">
    <path clip-path="url(#p48e0873222)" d="M 83.459252 307.584 
L 85.62522 307.584 
L 85.62522 302.7456 
L 83.459252 302.7456 
z
" style="fill:#fa9ba4;opacity:0.2;"/>
   </g>
   <g id="patch_7">
    <path clip-path="url(#p48e0873222)" d="M 85.865883 307.584 
L 88.031851 307.584 
L 88.031851 305.1648 
L 85.865883 305.1648 
z
" style="fill:#fa9ba4;opacity:0.2;"/>
   </g>
   <g id="patch_8">
    <path clip-path="url(#p48e0873222)" d="M 88.272514 307.584 
L 90.438482 307.584 
L 90.438482 297.9072 
L 88.272514 297.9072 
z
" style="fill:#fa9ba4;opacity:0.2;"/>
   </g>
   <g id="patch_9">
    <path clip-path="url(#p48e0873222)" d="M 90.679145 307.584 
L 92.845114 307.584 
L 92.845114 305.1648 
L 90.679145 305.1648 
z
" style="fill:#fa9ba4;opacity:0.2;"/>
   </g>
   <g id="patch_10">
    <path clip-path="url(#p48e0873222)" d="M 93.085777 307.584 
L 95.251745 307.584 
L 95.251745 300.3264 
L 93.085777 300.3264 
z
" style="fill:#fa9ba4;opacity:0.2;"/>
   </g>
   <g id="patch_11">
    <path clip-path="url(#p48e0873222)" d="M 95.492408 307.584 
L 97.658376 307.584 
L 97.658376 290.6496 
L 95.492408 290.6496 
z
" style="fill:#fa9ba4;opacity:0.2;"/>
   </g>
   <g id="patch_12">
    <path clip-path="url(#p48e0873222)" d="M 97.899039 307.584 
L 100.065007 307.584 
L 100.065007 300.3264 
L 97.899039 300.3264 
z
" style="fill:#fa9ba4;opacity:0.2;"/>
   </g>
   <g id="patch_13">
    <path clip-path="url(#p48e0873222)" d="M 100.30567 307.584 
L 102.471638 307.584 
L 102.471638 280.9728 
L 100.30567 280.9728 
z
" style="fill:#fa9ba4;opacity:0.2;"/>
   </g>
   <g id="patch_14">
    <path clip-path="url(#p48e0873222)" d="M 102.712301 307.584 
L 104.878269 307.584 
L 104.878269 297.9072 
L 102.712301 297.9072 
z
" style="fill:#fa9ba4;opacity:0.2;"/>
   </g>
   <g id="patch_15">
    <path clip-path="url(#p48e0873222)" d="M 105.118933 307.584 
L 107.284901 307.584 
L 107.284901 295.488 
L 105.118933 295.488 
z
" style="fill:#fa9ba4;opacity:0.2;"/>
   </g>
   <g id="patch_16">
    <path clip-path="url(#p48e0873222)" d="M 107.525564 307.584 
L 109.691532 307.584 
L 109.691532 290.6496 
L 107.525564 290.6496 
z
" style="fill:#fa9ba4;opacity:0.2;"/>
   </g>
   <g id="patch_17">
    <path clip-path="url(#p48e0873222)" d="M 109.932195 307.584 
L 112.098163 307.584 
L 112.098163 305.1648 
L 109.932195 305.1648 
z
" style="fill:#fa9ba4;opacity:0.2;"/>
   </g>
   <g id="patch_18">
    <path clip-path="url(#p48e0873222)" d="M 112.338826 307.584 
L 114.504794 307.584 
L 114.504794 288.2304 
L 112.338826 288.2304 
z
" style="fill:#fa9ba4;opacity:0.2;"/>
   </g>
   <g id="patch_19">
    <path clip-path="url(#p48e0873222)" d="M 114.745457 307.584 
L 116.911425 307.584 
L 116.911425 276.1344 
L 114.745457 276.1344 
z
" style="fill:#fa9ba4;opacity:0.2;"/>
   </g>
   <g id="patch_20">
    <path clip-path="url(#p48e0873222)" d="M 117.152088 307.584 
L 119.318056 307.584 
L 119.318056 249.5232 
L 117.152088 249.5232 
z
" style="fill:#fa9ba4;opacity:0.2;"/>
   </g>
   <g id="patch_21">
    <path clip-path="url(#p48e0873222)" d="M 119.55872 307.584 
L 121.724688 307.584 
L 121.724688 280.9728 
L 119.55872 280.9728 
z
" style="fill:#fa9ba4;opacity:0.2;"/>
   </g>
   <g id="patch_22">
    <path clip-path="url(#p48e0873222)" d="M 121.965351 307.584 
L 124.131319 307.584 
L 124.131319 251.9424 
L 121.965351 251.9424 
z
" style="fill:#fa9ba4;opacity:0.2;"/>
   </g>
   <g id="patch_23">
    <path clip-path="url(#p48e0873222)" d="M 124.371982 307.584 
L 126.53795 307.584 
L 126.53795 307.584 
L 124.371982 307.584 
z
" style="fill:#fa9ba4;opacity:0.2;"/>
   </g>
   <g id="patch_24">
    <path clip-path="url(#p48e0873222)" d="M 126.778613 307.584 
L 128.944581 307.584 
L 128.944581 198.72 
L 126.778613 198.72 
z
" style="fill:#fa9ba4;opacity:0.2;"/>
   </g>
   <g id="patch_25">
    <path clip-path="url(#p48e0873222)" d="M 129.185244 307.584 
L 131.351212 307.584 
L 131.351212 227.7504 
L 129.185244 227.7504 
z
" style="fill:#fa9ba4;opacity:0.2;"/>
   </g>
   <g id="patch_26">
    <path clip-path="url(#p48e0873222)" d="M 131.591875 307.584 
L 133.757844 307.584 
L 133.757844 247.104 
L 131.591875 247.104 
z
" style="fill:#fa9ba4;opacity:0.2;"/>
   </g>
   <g id="patch_27">
    <path clip-path="url(#p48e0873222)" d="M 133.998507 307.584 
L 136.164475 307.584 
L 136.164475 225.3312 
L 133.998507 225.3312 
z
" style="fill:#fa9ba4;opacity:0.2;"/>
   </g>
   <g id="patch_28">
    <path clip-path="url(#p48e0873222)" d="M 136.405138 307.584 
L 138.571106 307.584 
L 138.571106 251.9424 
L 136.405138 251.9424 
z
" style="fill:#fa9ba4;opacity:0.2;"/>
   </g>
   <g id="patch_29">
    <path clip-path="url(#p48e0873222)" d="M 138.811769 307.584 
L 140.977737 307.584 
L 140.977737 285.8112 
L 138.811769 285.8112 
z
" style="fill:#fa9ba4;opacity:0.2;"/>
   </g>
   <g id="patch_30">
    <path clip-path="url(#p48e0873222)" d="M 141.2184 307.584 
L 143.384368 307.584 
L 143.384368 276.1344 
L 141.2184 276.1344 
z
" style="fill:#fa9ba4;opacity:0.2;"/>
   </g>
   <g id="patch_31">
    <path clip-path="url(#p48e0873222)" d="M 143.625031 307.584 
L 145.790999 307.584 
L 145.790999 266.4576 
L 143.625031 266.4576 
z
" style="fill:#fa9ba4;opacity:0.2;"/>
   </g>
   <g id="patch_32">
    <path clip-path="url(#p48e0873222)" d="M 146.031663 307.584 
L 148.197631 307.584 
L 148.197631 293.0688 
L 146.031663 293.0688 
z
" style="fill:#fa9ba4;opacity:0.2;"/>
   </g>
   <g id="patch_33">
    <path clip-path="url(#p48e0873222)" d="M 148.438294 307.584 
L 150.604262 307.584 
L 150.604262 273.7152 
L 148.438294 273.7152 
z
" style="fill:#fa9ba4;opacity:0.2;"/>
   </g>
   <g id="patch_34">
    <path clip-path="url(#p48e0873222)" d="M 150.844925 307.584 
L 153.010893 307.584 
L 153.010893 300.3264 
L 150.844925 300.3264 
z
" style="fill:#fa9ba4;opacity:0.2;"/>
   </g>
   <g id="patch_35">
    <path clip-path="url(#p48e0873222)" d="M 153.251556 307.584 
L 155.417524 307.584 
L 155.417524 305.1648 
L 153.251556 305.1648 
z
" style="fill:#fa9ba4;opacity:0.2;"/>
   </g>
   <g id="patch_36">
    <path clip-path="url(#p48e0873222)" d="M 155.658187 307.584 
L 157.824155 307.584 
L 157.824155 300.3264 
L 155.658187 300.3264 
z
" style="fill:#fa9ba4;opacity:0.2;"/>
   </g>
   <g id="patch_37">
    <path clip-path="url(#p48e0873222)" d="M 158.064818 307.584 
L 160.230786 307.584 
L 160.230786 305.1648 
L 158.064818 305.1648 
z
" style="fill:#fa9ba4;opacity:0.2;"/>
   </g>
   <g id="patch_38">
    <path clip-path="url(#p48e0873222)" d="M 160.47145 307.584 
L 162.637418 307.584 
L 162.637418 300.3264 
L 160.47145 300.3264 
z
" style="fill:#fa9ba4;opacity:0.2;"/>
   </g>
   <g id="patch_39">
    <path clip-path="url(#p48e0873222)" d="M 162.878081 307.584 
L 165.044049 307.584 
L 165.044049 295.488 
L 162.878081 295.488 
z
" style="fill:#fa9ba4;opacity:0.2;"/>
   </g>
   <g id="patch_40">
    <path clip-path="url(#p48e0873222)" d="M 165.284712 307.584 
L 167.45068 307.584 
L 167.45068 300.3264 
L 165.284712 300.3264 
z
" style="fill:#fa9ba4;opacity:0.2;"/>
   </g>
   <g id="patch_41">
    <path clip-path="url(#p48e0873222)" d="M 167.691343 307.584 
L 169.857311 307.584 
L 169.857311 302.7456 
L 167.691343 302.7456 
z
" style="fill:#fa9ba4;opacity:0.2;"/>
   </g>
   <g id="patch_42">
    <path clip-path="url(#p48e0873222)" d="M 170.097974 307.584 
L 172.263942 307.584 
L 172.263942 278.5536 
L 170.097974 278.5536 
z
" style="fill:#fa9ba4;opacity:0.2;"/>
   </g>
   <g id="patch_43">
    <path clip-path="url(#p48e0873222)" d="M 172.504605 307.584 
L 174.670573 307.584 
L 174.670573 300.3264 
L 172.504605 300.3264 
z
" style="fill:#fa9ba4;opacity:0.2;"/>
   </g>
   <g id="patch_44">
    <path clip-path="url(#p48e0873222)" d="M 174.911237 307.584 
L 177.077205 307.584 
L 177.077205 307.584 
L 174.911237 307.584 
z
" style="fill:#fa9ba4;opacity:0.2;"/>
   </g>
   <g id="patch_45">
    <path clip-path="url(#p48e0873222)" d="M 177.317868 307.584 
L 179.483836 307.584 
L 179.483836 300.3264 
L 177.317868 300.3264 
z
" style="fill:#fa9ba4;opacity:0.2;"/>
   </g>
   <g id="patch_46">
    <path clip-path="url(#p48e0873222)" d="M 179.724499 307.584 
L 181.890467 307.584 
L 181.890467 300.3264 
L 179.724499 300.3264 
z
" style="fill:#fa9ba4;opacity:0.2;"/>
   </g>
   <g id="patch_47">
    <path clip-path="url(#p48e0873222)" d="M 182.13113 307.584 
L 184.297098 307.584 
L 184.297098 305.1648 
L 182.13113 305.1648 
z
" style="fill:#fa9ba4;opacity:0.2;"/>
   </g>
   <g id="patch_48">
    <path clip-path="url(#p48e0873222)" d="M 184.537761 307.584 
L 186.703729 307.584 
L 186.703729 259.2 
L 184.537761 259.2 
z
" style="fill:#fa9ba4;opacity:0.2;"/>
   </g>
   <g id="patch_49">
    <path clip-path="url(#p48e0873222)" d="M 186.944392 307.584 
L 189.110361 307.584 
L 189.110361 305.1648 
L 186.944392 305.1648 
z
" style="fill:#fa9ba4;opacity:0.2;"/>
   </g>
   <g id="patch_50">
    <path clip-path="url(#p48e0873222)" d="M 189.351024 307.584 
L 191.516992 307.584 
L 191.516992 307.584 
L 189.351024 307.584 
z
" style="fill:#fa9ba4;opacity:0.2;"/>
   </g>
   <g id="patch_51">
    <path clip-path="url(#p48e0873222)" d="M 191.757655 307.584 
L 193.923623 307.584 
L 193.923623 302.7456 
L 191.757655 302.7456 
z
" style="fill:#fa9ba4;opacity:0.2;"/>
   </g>
   <g id="patch_52">
    <path clip-path="url(#p48e0873222)" d="M 194.164286 307.584 
L 196.330254 307.584 
L 196.330254 302.7456 
L 194.164286 302.7456 
z
" style="fill:#fa9ba4;opacity:0.2;"/>
   </g>
   <g id="patch_53">
    <path clip-path="url(#p48e0873222)" d="M 196.570917 307.584 
L 198.736885 307.584 
L 198.736885 297.9072 
L 196.570917 297.9072 
z
" style="fill:#fa9ba4;opacity:0.2;"/>
   </g>
   <g id="patch_54">
    <path clip-path="url(#p48e0873222)" d="M 198.977548 307.584 
L 201.143516 307.584 
L 201.143516 305.1648 
L 198.977548 305.1648 
z
" style="fill:#fa9ba4;opacity:0.2;"/>
   </g>
   <g id="patch_55">
    <path clip-path="url(#p48e0873222)" d="M 201.38418 307.584 
L 203.550148 307.584 
L 203.550148 302.7456 
L 201.38418 302.7456 
z
" style="fill:#fa9ba4;opacity:0.2;"/>
   </g>
   <g id="patch_56">
    <path clip-path="url(#p48e0873222)" d="M 203.790811 307.584 
L 205.956779 307.584 
L 205.956779 307.584 
L 203.790811 307.584 
z
" style="fill:#fa9ba4;opacity:0.2;"/>
   </g>
   <g id="patch_57">
    <path clip-path="url(#p48e0873222)" d="M 206.197442 307.584 
L 208.36341 307.584 
L 208.36341 305.1648 
L 206.197442 305.1648 
z
" style="fill:#fa9ba4;opacity:0.2;"/>
   </g>
   <g id="patch_58">
    <path clip-path="url(#p48e0873222)" d="M 208.604073 307.584 
L 210.770041 307.584 
L 210.770041 302.7456 
L 208.604073 302.7456 
z
" style="fill:#fa9ba4;opacity:0.2;"/>
   </g>
   <g id="patch_59">
    <path clip-path="url(#p48e0873222)" d="M 211.010704 307.584 
L 213.176672 307.584 
L 213.176672 300.3264 
L 211.010704 300.3264 
z
" style="fill:#fa9ba4;opacity:0.2;"/>
   </g>
   <g id="patch_60">
    <path clip-path="url(#p48e0873222)" d="M 213.417335 307.584 
L 215.583303 307.584 
L 215.583303 305.1648 
L 213.417335 305.1648 
z
" style="fill:#fa9ba4;opacity:0.2;"/>
   </g>
   <g id="patch_61">
    <path clip-path="url(#p48e0873222)" d="M 215.823967 307.584 
L 217.989935 307.584 
L 217.989935 307.584 
L 215.823967 307.584 
z
" style="fill:#fa9ba4;opacity:0.2;"/>
   </g>
   <g id="patch_62">
    <path clip-path="url(#p48e0873222)" d="M 218.230598 307.584 
L 220.396566 307.584 
L 220.396566 307.584 
L 218.230598 307.584 
z
" style="fill:#fa9ba4;opacity:0.2;"/>
   </g>
   <g id="patch_63">
    <path clip-path="url(#p48e0873222)" d="M 220.637229 307.584 
L 222.803197 307.584 
L 222.803197 283.392 
L 220.637229 283.392 
z
" style="fill:#fa9ba4;opacity:0.2;"/>
   </g>
   <g id="patch_64">
    <path clip-path="url(#p48e0873222)" d="M 223.04386 307.584 
L 225.209828 307.584 
L 225.209828 305.1648 
L 223.04386 305.1648 
z
" style="fill:#fa9ba4;opacity:0.2;"/>
   </g>
   <g id="patch_65">
    <path clip-path="url(#p48e0873222)" d="M 225.450491 307.584 
L 227.616459 307.584 
L 227.616459 302.7456 
L 225.450491 302.7456 
z
" style="fill:#fa9ba4;opacity:0.2;"/>
   </g>
   <g id="patch_66">
    <path clip-path="url(#p48e0873222)" d="M 227.857122 307.584 
L 230.023091 307.584 
L 230.023091 307.584 
L 227.857122 307.584 
z
" style="fill:#fa9ba4;opacity:0.2;"/>
   </g>
   <g id="patch_67">
    <path clip-path="url(#p48e0873222)" d="M 230.263754 307.584 
L 232.429722 307.584 
L 232.429722 302.7456 
L 230.263754 302.7456 
z
" style="fill:#fa9ba4;opacity:0.2;"/>
   </g>
   <g id="patch_68">
    <path clip-path="url(#p48e0873222)" d="M 232.670385 307.584 
L 234.836353 307.584 
L 234.836353 305.1648 
L 232.670385 305.1648 
z
" style="fill:#fa9ba4;opacity:0.2;"/>
   </g>
   <g id="patch_69">
    <path clip-path="url(#p48e0873222)" d="M 235.077016 307.584 
L 237.242984 307.584 
L 237.242984 305.1648 
L 235.077016 305.1648 
z
" style="fill:#fa9ba4;opacity:0.2;"/>
   </g>
   <g id="patch_70">
    <path clip-path="url(#p48e0873222)" d="M 237.483647 307.584 
L 239.649615 307.584 
L 239.649615 305.1648 
L 237.483647 305.1648 
z
" style="fill:#fa9ba4;opacity:0.2;"/>
   </g>
   <g id="patch_71">
    <path clip-path="url(#p48e0873222)" d="M 239.890278 307.584 
L 242.056246 307.584 
L 242.056246 307.584 
L 239.890278 307.584 
z
" style="fill:#fa9ba4;opacity:0.2;"/>
   </g>
   <g id="patch_72">
    <path clip-path="url(#p48e0873222)" d="M 242.296909 307.584 
L 244.462878 307.584 
L 244.462878 307.584 
L 242.296909 307.584 
z
" style="fill:#fa9ba4;opacity:0.2;"/>
   </g>
   <g id="patch_73">
    <path clip-path="url(#p48e0873222)" d="M 244.703541 307.584 
L 246.869509 307.584 
L 246.869509 305.1648 
L 244.703541 305.1648 
z
" style="fill:#fa9ba4;opacity:0.2;"/>
   </g>
   <g id="patch_74">
    <path clip-path="url(#p48e0873222)" d="M 247.110172 307.584 
L 249.27614 307.584 
L 249.27614 302.7456 
L 247.110172 302.7456 
z
" style="fill:#fa9ba4;opacity:0.2;"/>
   </g>
   <g id="patch_75">
    <path clip-path="url(#p48e0873222)" d="M 249.516803 307.584 
L 251.682771 307.584 
L 251.682771 302.7456 
L 249.516803 302.7456 
z
" style="fill:#fa9ba4;opacity:0.2;"/>
   </g>
   <g id="patch_76">
    <path clip-path="url(#p48e0873222)" d="M 251.923434 307.584 
L 254.089402 307.584 
L 254.089402 305.1648 
L 251.923434 305.1648 
z
" style="fill:#fa9ba4;opacity:0.2;"/>
   </g>
   <g id="patch_77">
    <path clip-path="url(#p48e0873222)" d="M 254.330065 307.584 
L 256.496033 307.584 
L 256.496033 305.1648 
L 254.330065 305.1648 
z
" style="fill:#fa9ba4;opacity:0.2;"/>
   </g>
   <g id="patch_78">
    <path clip-path="url(#p48e0873222)" d="M 256.736697 307.584 
L 258.902665 307.584 
L 258.902665 305.1648 
L 256.736697 305.1648 
z
" style="fill:#fa9ba4;opacity:0.2;"/>
   </g>
   <g id="patch_79">
    <path clip-path="url(#p48e0873222)" d="M 259.143328 307.584 
L 261.309296 307.584 
L 261.309296 305.1648 
L 259.143328 305.1648 
z
" style="fill:#fa9ba4;opacity:0.2;"/>
   </g>
   <g id="patch_80">
    <path clip-path="url(#p48e0873222)" d="M 261.549959 307.584 
L 263.715927 307.584 
L 263.715927 307.584 
L 261.549959 307.584 
z
" style="fill:#fa9ba4;opacity:0.2;"/>
   </g>
   <g id="patch_81">
    <path clip-path="url(#p48e0873222)" d="M 263.95659 307.584 
L 266.122558 307.584 
L 266.122558 307.584 
L 263.95659 307.584 
z
" style="fill:#fa9ba4;opacity:0.2;"/>
   </g>
   <g id="patch_82">
    <path clip-path="url(#p48e0873222)" d="M 266.363221 307.584 
L 268.529189 307.584 
L 268.529189 305.1648 
L 266.363221 305.1648 
z
" style="fill:#fa9ba4;opacity:0.2;"/>
   </g>
   <g id="patch_83">
    <path clip-path="url(#p48e0873222)" d="M 268.769852 307.584 
L 270.93582 307.584 
L 270.93582 305.1648 
L 268.769852 305.1648 
z
" style="fill:#fa9ba4;opacity:0.2;"/>
   </g>
   <g id="patch_84">
    <path clip-path="url(#p48e0873222)" d="M 271.176484 307.584 
L 273.342452 307.584 
L 273.342452 307.584 
L 271.176484 307.584 
z
" style="fill:#fa9ba4;opacity:0.2;"/>
   </g>
   <g id="patch_85">
    <path clip-path="url(#p48e0873222)" d="M 273.583115 307.584 
L 275.749083 307.584 
L 275.749083 305.1648 
L 273.583115 305.1648 
z
" style="fill:#fa9ba4;opacity:0.2;"/>
   </g>
   <g id="patch_86">
    <path clip-path="url(#p48e0873222)" d="M 275.989746 307.584 
L 278.155714 307.584 
L 278.155714 307.584 
L 275.989746 307.584 
z
" style="fill:#fa9ba4;opacity:0.2;"/>
   </g>
   <g id="patch_87">
    <path clip-path="url(#p48e0873222)" d="M 278.396377 307.584 
L 280.562345 307.584 
L 280.562345 307.584 
L 278.396377 307.584 
z
" style="fill:#fa9ba4;opacity:0.2;"/>
   </g>
   <g id="patch_88">
    <path clip-path="url(#p48e0873222)" d="M 280.803008 307.584 
L 282.968976 307.584 
L 282.968976 307.584 
L 280.803008 307.584 
z
" style="fill:#fa9ba4;opacity:0.2;"/>
   </g>
   <g id="patch_89">
    <path clip-path="url(#p48e0873222)" d="M 283.209639 307.584 
L 285.375608 307.584 
L 285.375608 302.7456 
L 283.209639 302.7456 
z
" style="fill:#fa9ba4;opacity:0.2;"/>
   </g>
   <g id="patch_90">
    <path clip-path="url(#p48e0873222)" d="M 285.616271 307.584 
L 287.782239 307.584 
L 287.782239 307.584 
L 285.616271 307.584 
z
" style="fill:#fa9ba4;opacity:0.2;"/>
   </g>
   <g id="patch_91">
    <path clip-path="url(#p48e0873222)" d="M 288.022902 307.584 
L 290.18887 307.584 
L 290.18887 305.1648 
L 288.022902 305.1648 
z
" style="fill:#fa9ba4;opacity:0.2;"/>
   </g>
   <g id="patch_92">
    <path clip-path="url(#p48e0873222)" d="M 290.429533 307.584 
L 292.595501 307.584 
L 292.595501 305.1648 
L 290.429533 305.1648 
z
" style="fill:#fa9ba4;opacity:0.2;"/>
   </g>
   <g id="patch_93">
    <path clip-path="url(#p48e0873222)" d="M 292.836164 307.584 
L 295.002132 307.584 
L 295.002132 307.584 
L 292.836164 307.584 
z
" style="fill:#fa9ba4;opacity:0.2;"/>
   </g>
   <g id="patch_94">
    <path clip-path="url(#p48e0873222)" d="M 295.242795 307.584 
L 297.408763 307.584 
L 297.408763 300.3264 
L 295.242795 300.3264 
z
" style="fill:#fa9ba4;opacity:0.2;"/>
   </g>
   <g id="patch_95">
    <path clip-path="url(#p48e0873222)" d="M 297.649427 307.584 
L 299.815395 307.584 
L 299.815395 300.3264 
L 297.649427 300.3264 
z
" style="fill:#fa9ba4;opacity:0.2;"/>
   </g>
   <g id="patch_96">
    <path clip-path="url(#p48e0873222)" d="M 300.056058 307.584 
L 302.222026 307.584 
L 302.222026 297.9072 
L 300.056058 297.9072 
z
" style="fill:#fa9ba4;opacity:0.2;"/>
   </g>
   <g id="patch_97">
    <path clip-path="url(#p48e0873222)" d="M 302.462689 307.584 
L 304.628657 307.584 
L 304.628657 264.0384 
L 302.462689 264.0384 
z
" style="fill:#fa9ba4;opacity:0.2;"/>
   </g>
   <g id="patch_98">
    <path clip-path="url(#p48e0873222)" d="M 304.86932 307.584 
L 307.035288 307.584 
L 307.035288 302.7456 
L 304.86932 302.7456 
z
" style="fill:#fa9ba4;opacity:0.2;"/>
   </g>
   <g id="patch_99">
    <path clip-path="url(#p48e0873222)" d="M 307.275951 307.584 
L 309.441919 307.584 
L 309.441919 300.3264 
L 307.275951 300.3264 
z
" style="fill:#fa9ba4;opacity:0.2;"/>
   </g>
   <g id="patch_100">
    <path clip-path="url(#p48e0873222)" d="M 309.682582 307.584 
L 311.84855 307.584 
L 311.84855 302.7456 
L 309.682582 302.7456 
z
" style="fill:#fa9ba4;opacity:0.2;"/>
   </g>
   <g id="patch_101">
    <path clip-path="url(#p48e0873222)" d="M 312.089214 307.584 
L 314.255182 307.584 
L 314.255182 302.7456 
L 312.089214 302.7456 
z
" style="fill:#fa9ba4;opacity:0.2;"/>
   </g>
   <g id="patch_102">
    <path clip-path="url(#p48e0873222)" d="M 314.495845 307.584 
L 316.661813 307.584 
L 316.661813 295.488 
L 314.495845 295.488 
z
" style="fill:#fa9ba4;opacity:0.2;"/>
   </g>
   <g id="patch_103">
    <path clip-path="url(#p48e0873222)" d="M 316.902476 307.584 
L 319.068444 307.584 
L 319.068444 295.488 
L 316.902476 295.488 
z
" style="fill:#fa9ba4;opacity:0.2;"/>
   </g>
   <g id="patch_104">
    <path clip-path="url(#p48e0873222)" d="M 319.309107 307.584 
L 321.475075 307.584 
L 321.475075 297.9072 
L 319.309107 297.9072 
z
" style="fill:#fa9ba4;opacity:0.2;"/>
   </g>
   <g id="patch_105">
    <path clip-path="url(#p48e0873222)" d="M 321.715738 307.584 
L 323.881706 307.584 
L 323.881706 285.8112 
L 321.715738 285.8112 
z
" style="fill:#fa9ba4;opacity:0.2;"/>
   </g>
   <g id="patch_106">
    <path clip-path="url(#p48e0873222)" d="M 324.122369 307.584 
L 326.288337 307.584 
L 326.288337 302.7456 
L 324.122369 302.7456 
z
" style="fill:#fa9ba4;opacity:0.2;"/>
   </g>
   <g id="patch_107">
    <path clip-path="url(#p48e0873222)" d="M 326.529001 307.584 
L 328.694969 307.584 
L 328.694969 305.1648 
L 326.529001 305.1648 
z
" style="fill:#fa9ba4;opacity:0.2;"/>
   </g>
   <g id="patch_108">
    <path clip-path="url(#p48e0873222)" d="M 328.935632 307.584 
L 331.1016 307.584 
L 331.1016 295.488 
L 328.935632 295.488 
z
" style="fill:#fa9ba4;opacity:0.2;"/>
   </g>
   <g id="patch_109">
    <path clip-path="url(#p48e0873222)" d="M 331.342263 307.584 
L 333.508231 307.584 
L 333.508231 300.3264 
L 331.342263 300.3264 
z
" style="fill:#fa9ba4;opacity:0.2;"/>
   </g>
   <g id="patch_110">
    <path clip-path="url(#p48e0873222)" d="M 333.748894 307.584 
L 335.914862 307.584 
L 335.914862 293.0688 
L 333.748894 293.0688 
z
" style="fill:#fa9ba4;opacity:0.2;"/>
   </g>
   <g id="patch_111">
    <path clip-path="url(#p48e0873222)" d="M 336.155525 307.584 
L 338.321493 307.584 
L 338.321493 295.488 
L 336.155525 295.488 
z
" style="fill:#fa9ba4;opacity:0.2;"/>
   </g>
   <g id="patch_112">
    <path clip-path="url(#p48e0873222)" d="M 338.562156 307.584 
L 340.728125 307.584 
L 340.728125 285.8112 
L 338.562156 285.8112 
z
" style="fill:#fa9ba4;opacity:0.2;"/>
   </g>
   <g id="patch_113">
    <path clip-path="url(#p48e0873222)" d="M 340.968788 307.584 
L 343.134756 307.584 
L 343.134756 283.392 
L 340.968788 283.392 
z
" style="fill:#fa9ba4;opacity:0.2;"/>
   </g>
   <g id="patch_114">
    <path clip-path="url(#p48e0873222)" d="M 343.375419 307.584 
L 345.541387 307.584 
L 345.541387 256.7808 
L 343.375419 256.7808 
z
" style="fill:#fa9ba4;opacity:0.2;"/>
   </g>
   <g id="patch_115">
    <path clip-path="url(#p48e0873222)" d="M 345.78205 307.584 
L 347.948018 307.584 
L 347.948018 232.5888 
L 345.78205 232.5888 
z
" style="fill:#fa9ba4;opacity:0.2;"/>
   </g>
   <g id="patch_116">
    <path clip-path="url(#p48e0873222)" d="M 348.188681 307.584 
L 350.354649 307.584 
L 350.354649 249.5232 
L 348.188681 249.5232 
z
" style="fill:#fa9ba4;opacity:0.2;"/>
   </g>
   <g id="patch_117">
    <path clip-path="url(#p48e0873222)" d="M 350.595312 307.584 
L 352.76128 307.584 
L 352.76128 184.2048 
L 350.595312 184.2048 
z
" style="fill:#fa9ba4;opacity:0.2;"/>
   </g>
   <g id="patch_118">
    <path clip-path="url(#p48e0873222)" d="M 353.001944 307.584 
L 355.167912 307.584 
L 355.167912 126.144 
L 353.001944 126.144 
z
" style="fill:#fa9ba4;opacity:0.2;"/>
   </g>
   <g id="patch_119">
    <path clip-path="url(#p48e0873222)" d="M 355.408575 307.584 
L 357.574543 307.584 
L 357.574543 189.0432 
L 355.408575 189.0432 
z
" style="fill:#fa9ba4;opacity:0.2;"/>
   </g>
   <g id="patch_120">
    <path clip-path="url(#p48e0873222)" d="M 357.815206 307.584 
L 359.981174 307.584 
L 359.981174 106.7904 
L 357.815206 106.7904 
z
" style="fill:#fa9ba4;opacity:0.2;"/>
   </g>
   <g id="patch_121">
    <path clip-path="url(#p48e0873222)" d="M 360.221837 307.584 
L 362.387805 307.584 
L 362.387805 189.0432 
L 360.221837 189.0432 
z
" style="fill:#fa9ba4;opacity:0.2;"/>
   </g>
   <g id="patch_122">
    <path clip-path="url(#p48e0873222)" d="M 362.628468 307.584 
L 364.794436 307.584 
L 364.794436 201.1392 
L 362.628468 201.1392 
z
" style="fill:#fa9ba4;opacity:0.2;"/>
   </g>
   <g id="patch_123">
    <path clip-path="url(#p48e0873222)" d="M 365.035099 307.584 
L 367.201067 307.584 
L 367.201067 251.9424 
L 365.035099 251.9424 
z
" style="fill:#fa9ba4;opacity:0.2;"/>
   </g>
   <g id="patch_124">
    <path clip-path="url(#p48e0873222)" d="M 367.441731 307.584 
L 369.607699 307.584 
L 369.607699 208.3968 
L 367.441731 208.3968 
z
" style="fill:#fa9ba4;opacity:0.2;"/>
   </g>
   <g id="patch_125">
    <path clip-path="url(#p48e0873222)" d="M 369.848362 307.584 
L 372.01433 307.584 
L 372.01433 242.2656 
L 369.848362 242.2656 
z
" style="fill:#fa9ba4;opacity:0.2;"/>
   </g>
   <g id="patch_126">
    <path clip-path="url(#p48e0873222)" d="M 372.254993 307.584 
L 374.420961 307.584 
L 374.420961 152.7552 
L 372.254993 152.7552 
z
" style="fill:#fa9ba4;opacity:0.2;"/>
   </g>
   <g id="patch_127">
    <path clip-path="url(#p48e0873222)" d="M 374.661624 307.584 
L 376.827592 307.584 
L 376.827592 109.2096 
L 374.661624 109.2096 
z
" style="fill:#fa9ba4;opacity:0.2;"/>
   </g>
   <g id="patch_128">
    <path clip-path="url(#p48e0873222)" d="M 377.068255 307.584 
L 379.234223 307.584 
L 379.234223 162.432 
L 377.068255 162.432 
z
" style="fill:#fa9ba4;opacity:0.2;"/>
   </g>
   <g id="patch_129">
    <path clip-path="url(#p48e0873222)" d="M 379.474886 307.584 
L 381.640855 307.584 
L 381.640855 213.2352 
L 379.474886 213.2352 
z
" style="fill:#fa9ba4;opacity:0.2;"/>
   </g>
   <g id="patch_130">
    <path clip-path="url(#p48e0873222)" d="M 381.881518 307.584 
L 384.047486 307.584 
L 384.047486 213.2352 
L 381.881518 213.2352 
z
" style="fill:#fa9ba4;opacity:0.2;"/>
   </g>
   <g id="patch_131">
    <path clip-path="url(#p48e0873222)" d="M 384.288149 307.584 
L 386.454117 307.584 
L 386.454117 116.4672 
L 384.288149 116.4672 
z
" style="fill:#fa9ba4;opacity:0.2;"/>
   </g>
   <g id="patch_132">
    <path clip-path="url(#p48e0873222)" d="M 386.69478 307.584 
L 388.860748 307.584 
L 388.860748 104.3712 
L 386.69478 104.3712 
z
" style="fill:#fa9ba4;opacity:0.2;"/>
   </g>
   <g id="patch_133">
    <path clip-path="url(#p48e0873222)" d="M 389.101411 307.584 
L 391.267379 307.584 
L 391.267379 121.3056 
L 389.101411 121.3056 
z
" style="fill:#fa9ba4;opacity:0.2;"/>
   </g>
   <g id="patch_134">
    <path clip-path="url(#p48e0873222)" d="M 391.508042 307.584 
L 393.67401 307.584 
L 393.67401 41.472 
L 391.508042 41.472 
z
" style="fill:#fa9ba4;opacity:0.2;"/>
   </g>
   <g id="patch_135">
    <path clip-path="url(#p48e0873222)" d="M 393.914673 307.584 
L 396.080642 307.584 
L 396.080642 307.584 
L 393.914673 307.584 
z
" style="fill:#fa9ba4;opacity:0.2;"/>
   </g>
   <g id="patch_136">
    <path clip-path="url(#p48e0873222)" d="M 396.321305 307.584 
L 398.487273 307.584 
L 398.487273 307.584 
L 396.321305 307.584 
z
" style="fill:#fa9ba4;opacity:0.2;"/>
   </g>
   <g id="matplotlib.axis_1"/>
   <g id="matplotlib.axis_2"/>
   <g id="PolyCollection_1">
    <defs>
     <path d="M 366.118083 -167.2704 
L 366.118083 -38.016 
L 368.524715 -38.016 
L 370.931346 -38.016 
L 373.337977 -38.016 
L 375.744608 -38.016 
L 378.151239 -38.016 
L 380.55787 -38.016 
L 382.964502 -38.016 
L 385.371133 -38.016 
L 387.777764 -38.016 
L 390.184395 -38.016 
L 392.591026 -38.016 
L 394.997658 -38.016 
L 397.404289 -38.016 
L 397.404289 -172.4544 
L 397.404289 -172.4544 
L 394.997658 -185.9328 
L 392.591026 -206.6688 
L 390.184395 -196.992 
L 387.777764 -192.4992 
L 385.371133 -172.8 
L 382.964502 -159.6672 
L 380.55787 -154.1376 
L 378.151239 -155.8656 
L 375.744608 -152.064 
L 373.337977 -152.4096 
L 370.931346 -147.2256 
L 368.524715 -163.8144 
L 366.118083 -167.2704 
z
" id="m6b00352329" style="stroke:#dc3545;stroke-opacity:0.5;"/>
    </defs>
    <g clip-path="url(#p48e0873222)">
     <use style="fill:#dc3545;fill-opacity:0.5;stroke:#dc3545;stroke-opacity:0.5;" x="0" xlink:href="#m6b00352329" y="345.6"/>
    </g>
   </g>
   <g id="PolyCollection_2">
    <defs>
     <path d="M 89.355498 -40.7808 
L 89.355498 -38.016 
L 91.76213 -38.016 
L 94.168761 -38.016 
L 96.575392 -38.016 
L 98.982023 -38.016 
L 101.388654 -38.016 
L 103.795285 -38.016 
L 106.201917 -38.016 
L 108.608548 -38.016 
L 111.015179 -38.016 
L 113.42181 -38.016 
L 115.828441 -38.016 
L 118.235072 -38.016 
L 120.641704 -38.016 
L 123.048335 -38.016 
L 125.454966 -38.016 
L 127.861597 -38.016 
L 130.268228 -38.016 
L 132.674859 -38.016 
L 135.081491 -38.016 
L 137.488122 -38.016 
L 139.894753 -38.016 
L 142.301384 -38.016 
L 144.708015 -38.016 
L 147.114647 -38.016 
L 149.521278 -38.016 
L 151.927909 -38.016 
L 154.33454 -38.016 
L 156.741171 -38.016 
L 159.147802 -38.016 
L 161.554434 -38.016 
L 163.961065 -38.016 
L 166.367696 -38.016 
L 168.774327 -38.016 
L 171.180958 -38.016 
L 173.587589 -38.016 
L 175.994221 -38.016 
L 178.400852 -38.016 
L 180.807483 -38.016 
L 183.214114 -38.016 
L 185.620745 -38.016 
L 188.027377 -38.016 
L 190.434008 -38.016 
L 192.840639 -38.016 
L 195.24727 -38.016 
L 197.653901 -38.016 
L 200.060532 -38.016 
L 202.467164 -38.016 
L 204.873795 -38.016 
L 207.280426 -38.016 
L 209.687057 -38.016 
L 212.093688 -38.016 
L 214.500319 -38.016 
L 216.906951 -38.016 
L 219.313582 -38.016 
L 221.720213 -38.016 
L 224.126844 -38.016 
L 226.533475 -38.016 
L 228.940106 -38.016 
L 231.346738 -38.016 
L 233.753369 -38.016 
L 236.16 -38.016 
L 238.566631 -38.016 
L 240.973262 -38.016 
L 243.379894 -38.016 
L 245.786525 -38.016 
L 248.193156 -38.016 
L 250.599787 -38.016 
L 253.006418 -38.016 
L 255.413049 -38.016 
L 257.819681 -38.016 
L 260.226312 -38.016 
L 262.632943 -38.016 
L 265.039574 -38.016 
L 267.446205 -38.016 
L 269.852836 -38.016 
L 272.259468 -38.016 
L 274.666099 -38.016 
L 277.07273 -38.016 
L 279.479361 -38.016 
L 281.885992 -38.016 
L 284.292623 -38.016 
L 286.699255 -38.016 
L 289.105886 -38.016 
L 291.512517 -38.016 
L 293.919148 -38.016 
L 296.325779 -38.016 
L 298.732411 -38.016 
L 301.139042 -38.016 
L 303.545673 -38.016 
L 305.952304 -38.016 
L 308.358935 -38.016 
L 310.765566 -38.016 
L 313.172198 -38.016 
L 315.578829 -38.016 
L 317.98546 -38.016 
L 320.392091 -38.016 
L 322.798722 -38.016 
L 325.205353 -38.016 
L 327.611985 -38.016 
L 330.018616 -38.016 
L 332.425247 -38.016 
L 334.831878 -38.016 
L 337.238509 -38.016 
L 339.645141 -38.016 
L 342.051772 -38.016 
L 344.458403 -38.016 
L 346.865034 -38.016 
L 349.271665 -38.016 
L 351.678296 -38.016 
L 354.084928 -38.016 
L 356.491559 -38.016 
L 358.89819 -38.016 
L 361.304821 -38.016 
L 363.711452 -38.016 
L 366.118083 -38.016 
L 366.118083 -167.2704 
L 366.118083 -167.2704 
L 363.711452 -167.616 
L 361.304821 -163.1232 
L 358.89819 -153.4464 
L 356.491559 -128.2176 
L 354.084928 -114.3936 
L 351.678296 -90.2016 
L 349.271665 -74.6496 
L 346.865034 -67.392 
L 344.458403 -58.4064 
L 342.051772 -51.4944 
L 339.645141 -48.7296 
L 337.238509 -48.7296 
L 334.831878 -48.384 
L 332.425247 -48.0384 
L 330.018616 -48.7296 
L 327.611985 -47.6928 
L 325.205353 -48.0384 
L 322.798722 -48.384 
L 320.392091 -45.9648 
L 317.98546 -50.8032 
L 315.578829 -50.4576 
L 313.172198 -49.7664 
L 310.765566 -50.112 
L 308.358935 -49.4208 
L 305.952304 -48.7296 
L 303.545673 -48.384 
L 301.139042 -42.1632 
L 298.732411 -41.472 
L 296.325779 -40.4352 
L 293.919148 -39.3984 
L 291.512517 -39.3984 
L 289.105886 -39.3984 
L 286.699255 -39.0528 
L 284.292623 -39.3984 
L 281.885992 -39.0528 
L 279.479361 -39.0528 
L 277.07273 -39.0528 
L 274.666099 -39.3984 
L 272.259468 -39.3984 
L 269.852836 -39.744 
L 267.446205 -39.744 
L 265.039574 -40.0896 
L 262.632943 -40.7808 
L 260.226312 -41.1264 
L 257.819681 -40.7808 
L 255.413049 -40.4352 
L 253.006418 -40.4352 
L 250.599787 -40.4352 
L 248.193156 -40.0896 
L 245.786525 -40.0896 
L 243.379894 -39.744 
L 240.973262 -40.4352 
L 238.566631 -40.7808 
L 236.16 -43.8912 
L 233.753369 -43.5456 
L 231.346738 -43.2 
L 228.940106 -42.8544 
L 226.533475 -43.8912 
L 224.126844 -43.8912 
L 221.720213 -43.8912 
L 219.313582 -40.4352 
L 216.906951 -41.1264 
L 214.500319 -41.472 
L 212.093688 -42.5088 
L 209.687057 -42.1632 
L 207.280426 -42.1632 
L 204.873795 -41.8176 
L 202.467164 -42.1632 
L 200.060532 -48.384 
L 197.653901 -48.384 
L 195.24727 -48.0384 
L 192.840639 -48.384 
L 190.434008 -47.6928 
L 188.027377 -48.7296 
L 185.620745 -52.5312 
L 183.214114 -46.3104 
L 180.807483 -47.0016 
L 178.400852 -47.6928 
L 175.994221 -47.6928 
L 173.587589 -48.0384 
L 171.180958 -48.0384 
L 168.774327 -44.2368 
L 166.367696 -44.5824 
L 163.961065 -48.384 
L 161.554434 -48.7296 
L 159.147802 -53.568 
L 156.741171 -57.7152 
L 154.33454 -59.7888 
L 151.927909 -67.392 
L 149.521278 -78.1056 
L 147.114647 -81.9072 
L 144.708015 -91.2384 
L 142.301384 -100.9152 
L 139.894753 -96.4224 
L 137.488122 -101.2608 
L 135.081491 -97.1136 
L 132.674859 -93.6576 
L 130.268228 -89.5104 
L 127.861597 -80.8704 
L 125.454966 -65.664 
L 123.048335 -68.0832 
L 120.641704 -61.8624 
L 118.235072 -59.4432 
L 115.828441 -54.9504 
L 113.42181 -51.4944 
L 111.015179 -51.1488 
L 108.608548 -51.84 
L 106.201917 -49.7664 
L 103.795285 -49.4208 
L 101.388654 -48.384 
L 98.982023 -45.2736 
L 96.575392 -44.2368 
L 94.168761 -42.1632 
L 91.76213 -41.1264 
L 89.355498 -40.7808 
z
" id="mdde4420b17" style="stroke:#fa9ba4;stroke-opacity:0.3;"/>
    </defs>
    <g clip-path="url(#p48e0873222)">
     <use style="fill:#fa9ba4;fill-opacity:0.3;stroke:#fa9ba4;stroke-opacity:0.3;" x="0" xlink:href="#mdde4420b17" y="345.6"/>
    </g>
   </g>
   <g id="line2d_1">
    <path clip-path="url(#p48e0873222)" d="M 89.355498 304.8192 
L 91.76213 304.4736 
L 94.168761 303.4368 
L 96.575392 301.3632 
L 98.982023 300.3264 
L 101.388654 297.216 
L 103.795285 296.1792 
L 106.201917 295.8336 
L 108.608548 293.76 
L 111.015179 294.4512 
L 113.42181 294.1056 
L 115.828441 290.6496 
L 118.235072 286.1568 
L 120.641704 283.7376 
L 123.048335 277.5168 
L 125.454966 279.936 
L 127.861597 264.7296 
L 130.268228 256.0896 
L 132.674859 251.9424 
L 135.081491 248.4864 
L 137.488122 244.3392 
L 139.894753 249.1776 
L 142.301384 244.6848 
L 147.114647 263.6928 
L 149.521278 267.4944 
L 151.927909 278.208 
L 154.33454 285.8112 
L 156.741171 287.8848 
L 159.147802 292.032 
L 161.554434 296.8704 
L 163.961065 297.216 
L 166.367696 301.0176 
L 168.774327 301.3632 
L 171.180958 297.5616 
L 173.587589 297.5616 
L 175.994221 297.9072 
L 178.400852 297.9072 
L 183.214114 299.2896 
L 185.620745 293.0688 
L 188.027377 296.8704 
L 190.434008 297.9072 
L 192.840639 297.216 
L 195.24727 297.5616 
L 197.653901 297.216 
L 200.060532 297.216 
L 202.467164 303.4368 
L 204.873795 303.7824 
L 207.280426 303.4368 
L 209.687057 303.4368 
L 212.093688 303.0912 
L 214.500319 304.128 
L 216.906951 304.4736 
L 219.313582 305.1648 
L 221.720213 301.7088 
L 226.533475 301.7088 
L 228.940106 302.7456 
L 236.16 301.7088 
L 238.566631 304.8192 
L 240.973262 305.1648 
L 243.379894 305.856 
L 245.786525 305.5104 
L 248.193156 305.5104 
L 250.599787 305.1648 
L 255.413049 305.1648 
L 260.226312 304.4736 
L 262.632943 304.8192 
L 265.039574 305.5104 
L 267.446205 305.856 
L 269.852836 305.856 
L 272.259468 306.2016 
L 274.666099 306.2016 
L 277.07273 306.5472 
L 281.885992 306.5472 
L 284.292623 306.2016 
L 286.699255 306.5472 
L 289.105886 306.2016 
L 293.919148 306.2016 
L 298.732411 304.128 
L 301.139042 303.4368 
L 303.545673 297.216 
L 305.952304 296.8704 
L 310.765566 295.488 
L 313.172198 295.8336 
L 315.578829 295.1424 
L 317.98546 294.7968 
L 320.392091 299.6352 
L 322.798722 297.216 
L 327.611985 297.9072 
L 330.018616 296.8704 
L 332.425247 297.5616 
L 337.238509 296.8704 
L 339.645141 296.8704 
L 342.051772 294.1056 
L 344.458403 287.1936 
L 346.865034 278.208 
L 349.271665 270.9504 
L 351.678296 255.3984 
L 354.084928 231.2064 
L 356.491559 217.3824 
L 358.89819 192.1536 
L 361.304821 182.4768 
L 363.711452 177.984 
L 366.118083 178.3296 
L 368.524715 181.7856 
L 370.931346 198.3744 
L 373.337977 193.1904 
L 375.744608 193.536 
L 378.151239 189.7344 
L 380.55787 191.4624 
L 382.964502 185.9328 
L 385.371133 172.8 
L 387.777764 153.1008 
L 390.184395 148.608 
L 392.591026 138.9312 
L 394.997658 159.6672 
L 397.404289 173.1456 
L 397.404289 173.1456 
" style="fill:none;stroke:#fa9ba4;stroke-linecap:square;stroke-width:2;"/>
   </g>
   <g id="line2d_2">
    <path clip-path="url(#p48e0873222)" d="M 366.118083 178.3296 
L 368.524715 181.7856 
L 370.931346 198.3744 
L 373.337977 193.1904 
L 375.744608 193.536 
L 378.151239 189.7344 
L 380.55787 191.4624 
L 382.964502 185.9328 
L 385.371133 172.8 
L 387.777764 153.1008 
L 390.184395 148.608 
L 392.591026 138.9312 
L 394.997658 159.6672 
L 397.404289 173.1456 
" style="fill:none;stroke:#dc3545;stroke-linecap:square;stroke-width:2;"/>
   </g>
  </g>
 </g>
 <defs>
  <clipPath id="p48e0873222">
   <rect height="266.112" width="357.12" x="57.6" y="41.472"/>
  </clipPath>
 </defs>
</svg>
