<?xml version="1.0" encoding="utf-8" standalone="no"?>
<!DOCTYPE svg PUBLIC "-//W3C//DTD SVG 1.1//EN"
  "http://www.w3.org/Graphics/SVG/1.1/DTD/svg11.dtd">
<svg height="345.6pt" version="1.1" viewBox="0 0 460.8 345.6" width="460.8pt" xmlns="http://www.w3.org/2000/svg" xmlns:xlink="http://www.w3.org/1999/xlink">
 <metadata>
  <rdf:RDF xmlns:cc="http://creativecommons.org/ns#" xmlns:dc="http://purl.org/dc/elements/1.1/" xmlns:rdf="http://www.w3.org/1999/02/22-rdf-syntax-ns#">
   <cc:Work>
    <dc:type rdf:resource="http://purl.org/dc/dcmitype/StillImage"/>
    <dc:date>2021-05-07T13:22:54.603537</dc:date>
    <dc:format>image/svg+xml</dc:format>
    <dc:creator>
     <cc:Agent>
      <dc:title>Matplotlib v3.4.1, https://matplotlib.org/</dc:title>
     </cc:Agent>
    </dc:creator>
   </cc:Work>
  </rdf:RDF>
 </metadata>
 <defs>
  <style type="text/css">*{stroke-linecap:butt;stroke-linejoin:round;}</style>
 </defs>
 <g id="figure_1">
  <g id="patch_1">
   <path d="M 0 345.6 
L 460.8 345.6 
L 460.8 0 
L 0 0 
z
" style="fill:none;"/>
  </g>
  <g id="axes_1">
   <g id="patch_2">
    <path clip-path="url(#pf2a607c16a)" d="M 73.832727 307.584 
L 75.877437 307.584 
L 75.877437 307.584 
L 73.832727 307.584 
z
" style="fill:#fa9ba4;opacity:0.2;"/>
   </g>
   <g id="patch_3">
    <path clip-path="url(#pf2a607c16a)" d="M 76.104628 307.584 
L 78.149338 307.584 
L 78.149338 307.584 
L 76.104628 307.584 
z
" style="fill:#fa9ba4;opacity:0.2;"/>
   </g>
   <g id="patch_4">
    <path clip-path="url(#pf2a607c16a)" d="M 78.376528 307.584 
L 80.421238 307.584 
L 80.421238 305.93113 
L 78.376528 305.93113 
z
" style="fill:#fa9ba4;opacity:0.2;"/>
   </g>
   <g id="patch_5">
    <path clip-path="url(#pf2a607c16a)" d="M 80.648428 307.584 
L 82.693138 307.584 
L 82.693138 307.584 
L 80.648428 307.584 
z
" style="fill:#fa9ba4;opacity:0.2;"/>
   </g>
   <g id="patch_6">
    <path clip-path="url(#pf2a607c16a)" d="M 82.920328 307.584 
L 84.965038 307.584 
L 84.965038 304.278261 
L 82.920328 304.278261 
z
" style="fill:#fa9ba4;opacity:0.2;"/>
   </g>
   <g id="patch_7">
    <path clip-path="url(#pf2a607c16a)" d="M 85.192229 307.584 
L 87.236939 307.584 
L 87.236939 305.93113 
L 85.192229 305.93113 
z
" style="fill:#fa9ba4;opacity:0.2;"/>
   </g>
   <g id="patch_8">
    <path clip-path="url(#pf2a607c16a)" d="M 87.464129 307.584 
L 89.508839 307.584 
L 89.508839 300.972522 
L 87.464129 300.972522 
z
" style="fill:#fa9ba4;opacity:0.2;"/>
   </g>
   <g id="patch_9">
    <path clip-path="url(#pf2a607c16a)" d="M 89.736029 307.584 
L 91.780739 307.584 
L 91.780739 305.93113 
L 89.736029 305.93113 
z
" style="fill:#fa9ba4;opacity:0.2;"/>
   </g>
   <g id="patch_10">
    <path clip-path="url(#pf2a607c16a)" d="M 92.007929 307.584 
L 94.052639 307.584 
L 94.052639 302.625391 
L 92.007929 302.625391 
z
" style="fill:#fa9ba4;opacity:0.2;"/>
   </g>
   <g id="patch_11">
    <path clip-path="url(#pf2a607c16a)" d="M 94.27983 307.584 
L 96.32454 307.584 
L 96.32454 296.013913 
L 94.27983 296.013913 
z
" style="fill:#fa9ba4;opacity:0.2;"/>
   </g>
   <g id="patch_12">
    <path clip-path="url(#pf2a607c16a)" d="M 96.55173 307.584 
L 98.59644 307.584 
L 98.59644 302.625391 
L 96.55173 302.625391 
z
" style="fill:#fa9ba4;opacity:0.2;"/>
   </g>
   <g id="patch_13">
    <path clip-path="url(#pf2a607c16a)" d="M 98.82363 307.584 
L 100.86834 307.584 
L 100.86834 289.402435 
L 98.82363 289.402435 
z
" style="fill:#fa9ba4;opacity:0.2;"/>
   </g>
   <g id="patch_14">
    <path clip-path="url(#pf2a607c16a)" d="M 101.09553 307.584 
L 103.14024 307.584 
L 103.14024 300.972522 
L 101.09553 300.972522 
z
" style="fill:#fa9ba4;opacity:0.2;"/>
   </g>
   <g id="patch_15">
    <path clip-path="url(#pf2a607c16a)" d="M 103.36743 307.584 
L 105.412141 307.584 
L 105.412141 299.319652 
L 103.36743 299.319652 
z
" style="fill:#fa9ba4;opacity:0.2;"/>
   </g>
   <g id="patch_16">
    <path clip-path="url(#pf2a607c16a)" d="M 105.639331 307.584 
L 107.684041 307.584 
L 107.684041 296.013913 
L 105.639331 296.013913 
z
" style="fill:#fa9ba4;opacity:0.2;"/>
   </g>
   <g id="patch_17">
    <path clip-path="url(#pf2a607c16a)" d="M 107.911231 307.584 
L 109.955941 307.584 
L 109.955941 305.93113 
L 107.911231 305.93113 
z
" style="fill:#fa9ba4;opacity:0.2;"/>
   </g>
   <g id="patch_18">
    <path clip-path="url(#pf2a607c16a)" d="M 110.183131 307.584 
L 112.227841 307.584 
L 112.227841 294.361043 
L 110.183131 294.361043 
z
" style="fill:#fa9ba4;opacity:0.2;"/>
   </g>
   <g id="patch_19">
    <path clip-path="url(#pf2a607c16a)" d="M 112.455031 307.584 
L 114.499742 307.584 
L 114.499742 286.096696 
L 112.455031 286.096696 
z
" style="fill:#fa9ba4;opacity:0.2;"/>
   </g>
   <g id="patch_20">
    <path clip-path="url(#pf2a607c16a)" d="M 114.726932 307.584 
L 116.771642 307.584 
L 116.771642 267.91513 
L 114.726932 267.91513 
z
" style="fill:#fa9ba4;opacity:0.2;"/>
   </g>
   <g id="patch_21">
    <path clip-path="url(#pf2a607c16a)" d="M 116.998832 307.584 
L 119.043542 307.584 
L 119.043542 289.402435 
L 116.998832 289.402435 
z
" style="fill:#fa9ba4;opacity:0.2;"/>
   </g>
   <g id="patch_22">
    <path clip-path="url(#pf2a607c16a)" d="M 119.270732 307.584 
L 121.315442 307.584 
L 121.315442 269.568 
L 119.270732 269.568 
z
" style="fill:#fa9ba4;opacity:0.2;"/>
   </g>
   <g id="patch_23">
    <path clip-path="url(#pf2a607c16a)" d="M 121.542632 307.584 
L 123.587343 307.584 
L 123.587343 307.584 
L 121.542632 307.584 
z
" style="fill:#fa9ba4;opacity:0.2;"/>
   </g>
   <g id="patch_24">
    <path clip-path="url(#pf2a607c16a)" d="M 123.814533 307.584 
L 125.859243 307.584 
L 125.859243 233.20487 
L 123.814533 233.20487 
z
" style="fill:#fa9ba4;opacity:0.2;"/>
   </g>
   <g id="patch_25">
    <path clip-path="url(#pf2a607c16a)" d="M 126.086433 307.584 
L 128.131143 307.584 
L 128.131143 253.039304 
L 126.086433 253.039304 
z
" style="fill:#fa9ba4;opacity:0.2;"/>
   </g>
   <g id="patch_26">
    <path clip-path="url(#pf2a607c16a)" d="M 128.358333 307.584 
L 130.403043 307.584 
L 130.403043 266.262261 
L 128.358333 266.262261 
z
" style="fill:#fa9ba4;opacity:0.2;"/>
   </g>
   <g id="patch_27">
    <path clip-path="url(#pf2a607c16a)" d="M 130.630233 307.584 
L 132.674944 307.584 
L 132.674944 251.386435 
L 130.630233 251.386435 
z
" style="fill:#fa9ba4;opacity:0.2;"/>
   </g>
   <g id="patch_28">
    <path clip-path="url(#pf2a607c16a)" d="M 132.902134 307.584 
L 134.946844 307.584 
L 134.946844 269.568 
L 132.902134 269.568 
z
" style="fill:#fa9ba4;opacity:0.2;"/>
   </g>
   <g id="patch_29">
    <path clip-path="url(#pf2a607c16a)" d="M 135.174034 307.584 
L 137.218744 307.584 
L 137.218744 292.708174 
L 135.174034 292.708174 
z
" style="fill:#fa9ba4;opacity:0.2;"/>
   </g>
   <g id="patch_30">
    <path clip-path="url(#pf2a607c16a)" d="M 137.445934 307.584 
L 139.490644 307.584 
L 139.490644 286.096696 
L 137.445934 286.096696 
z
" style="fill:#fa9ba4;opacity:0.2;"/>
   </g>
   <g id="patch_31">
    <path clip-path="url(#pf2a607c16a)" d="M 139.717834 307.584 
L 141.762545 307.584 
L 141.762545 279.485217 
L 139.717834 279.485217 
z
" style="fill:#fa9ba4;opacity:0.2;"/>
   </g>
   <g id="patch_32">
    <path clip-path="url(#pf2a607c16a)" d="M 141.989735 307.584 
L 144.034445 307.584 
L 144.034445 297.666783 
L 141.989735 297.666783 
z
" style="fill:#fa9ba4;opacity:0.2;"/>
   </g>
   <g id="patch_33">
    <path clip-path="url(#pf2a607c16a)" d="M 144.261635 307.584 
L 146.306345 307.584 
L 146.306345 284.443826 
L 144.261635 284.443826 
z
" style="fill:#fa9ba4;opacity:0.2;"/>
   </g>
   <g id="patch_34">
    <path clip-path="url(#pf2a607c16a)" d="M 146.533535 307.584 
L 148.578245 307.584 
L 148.578245 302.625391 
L 146.533535 302.625391 
z
" style="fill:#fa9ba4;opacity:0.2;"/>
   </g>
   <g id="patch_35">
    <path clip-path="url(#pf2a607c16a)" d="M 148.805435 307.584 
L 150.850146 307.584 
L 150.850146 305.93113 
L 148.805435 305.93113 
z
" style="fill:#fa9ba4;opacity:0.2;"/>
   </g>
   <g id="patch_36">
    <path clip-path="url(#pf2a607c16a)" d="M 151.077336 307.584 
L 153.122046 307.584 
L 153.122046 302.625391 
L 151.077336 302.625391 
z
" style="fill:#fa9ba4;opacity:0.2;"/>
   </g>
   <g id="patch_37">
    <path clip-path="url(#pf2a607c16a)" d="M 153.349236 307.584 
L 155.393946 307.584 
L 155.393946 305.93113 
L 153.349236 305.93113 
z
" style="fill:#fa9ba4;opacity:0.2;"/>
   </g>
   <g id="patch_38">
    <path clip-path="url(#pf2a607c16a)" d="M 155.621136 307.584 
L 157.665846 307.584 
L 157.665846 302.625391 
L 155.621136 302.625391 
z
" style="fill:#fa9ba4;opacity:0.2;"/>
   </g>
   <g id="patch_39">
    <path clip-path="url(#pf2a607c16a)" d="M 157.893036 307.584 
L 159.937747 307.584 
L 159.937747 299.319652 
L 157.893036 299.319652 
z
" style="fill:#fa9ba4;opacity:0.2;"/>
   </g>
   <g id="patch_40">
    <path clip-path="url(#pf2a607c16a)" d="M 160.164937 307.584 
L 162.209647 307.584 
L 162.209647 302.625391 
L 160.164937 302.625391 
z
" style="fill:#fa9ba4;opacity:0.2;"/>
   </g>
   <g id="patch_41">
    <path clip-path="url(#pf2a607c16a)" d="M 162.436837 307.584 
L 164.481547 307.584 
L 164.481547 304.278261 
L 162.436837 304.278261 
z
" style="fill:#fa9ba4;opacity:0.2;"/>
   </g>
   <g id="patch_42">
    <path clip-path="url(#pf2a607c16a)" d="M 164.708737 307.584 
L 166.753447 307.584 
L 166.753447 287.749565 
L 164.708737 287.749565 
z
" style="fill:#fa9ba4;opacity:0.2;"/>
   </g>
   <g id="patch_43">
    <path clip-path="url(#pf2a607c16a)" d="M 166.980637 307.584 
L 169.025348 307.584 
L 169.025348 302.625391 
L 166.980637 302.625391 
z
" style="fill:#fa9ba4;opacity:0.2;"/>
   </g>
   <g id="patch_44">
    <path clip-path="url(#pf2a607c16a)" d="M 169.252538 307.584 
L 171.297248 307.584 
L 171.297248 307.584 
L 169.252538 307.584 
z
" style="fill:#fa9ba4;opacity:0.2;"/>
   </g>
   <g id="patch_45">
    <path clip-path="url(#pf2a607c16a)" d="M 171.524438 307.584 
L 173.569148 307.584 
L 173.569148 302.625391 
L 171.524438 302.625391 
z
" style="fill:#fa9ba4;opacity:0.2;"/>
   </g>
   <g id="patch_46">
    <path clip-path="url(#pf2a607c16a)" d="M 173.796338 307.584 
L 175.841048 307.584 
L 175.841048 302.625391 
L 173.796338 302.625391 
z
" style="fill:#fa9ba4;opacity:0.2;"/>
   </g>
   <g id="patch_47">
    <path clip-path="url(#pf2a607c16a)" d="M 176.068238 307.584 
L 178.112949 307.584 
L 178.112949 305.93113 
L 176.068238 305.93113 
z
" style="fill:#fa9ba4;opacity:0.2;"/>
   </g>
   <g id="patch_48">
    <path clip-path="url(#pf2a607c16a)" d="M 178.340139 307.584 
L 180.384849 307.584 
L 180.384849 274.526609 
L 178.340139 274.526609 
z
" style="fill:#fa9ba4;opacity:0.2;"/>
   </g>
   <g id="patch_49">
    <path clip-path="url(#pf2a607c16a)" d="M 180.612039 307.584 
L 182.656749 307.584 
L 182.656749 305.93113 
L 180.612039 305.93113 
z
" style="fill:#fa9ba4;opacity:0.2;"/>
   </g>
   <g id="patch_50">
    <path clip-path="url(#pf2a607c16a)" d="M 182.883939 307.584 
L 184.928649 307.584 
L 184.928649 307.584 
L 182.883939 307.584 
z
" style="fill:#fa9ba4;opacity:0.2;"/>
   </g>
   <g id="patch_51">
    <path clip-path="url(#pf2a607c16a)" d="M 185.155839 307.584 
L 187.20055 307.584 
L 187.20055 304.278261 
L 185.155839 304.278261 
z
" style="fill:#fa9ba4;opacity:0.2;"/>
   </g>
   <g id="patch_52">
    <path clip-path="url(#pf2a607c16a)" d="M 187.42774 307.584 
L 189.47245 307.584 
L 189.47245 304.278261 
L 187.42774 304.278261 
z
" style="fill:#fa9ba4;opacity:0.2;"/>
   </g>
   <g id="patch_53">
    <path clip-path="url(#pf2a607c16a)" d="M 189.69964 307.584 
L 191.74435 307.584 
L 191.74435 300.972522 
L 189.69964 300.972522 
z
" style="fill:#fa9ba4;opacity:0.2;"/>
   </g>
   <g id="patch_54">
    <path clip-path="url(#pf2a607c16a)" d="M 191.97154 307.584 
L 194.01625 307.584 
L 194.01625 305.93113 
L 191.97154 305.93113 
z
" style="fill:#fa9ba4;opacity:0.2;"/>
   </g>
   <g id="patch_55">
    <path clip-path="url(#pf2a607c16a)" d="M 194.24344 307.584 
L 196.288151 307.584 
L 196.288151 304.278261 
L 194.24344 304.278261 
z
" style="fill:#fa9ba4;opacity:0.2;"/>
   </g>
   <g id="patch_56">
    <path clip-path="url(#pf2a607c16a)" d="M 196.515341 307.584 
L 198.560051 307.584 
L 198.560051 307.584 
L 196.515341 307.584 
z
" style="fill:#fa9ba4;opacity:0.2;"/>
   </g>
   <g id="patch_57">
    <path clip-path="url(#pf2a607c16a)" d="M 198.787241 307.584 
L 200.831951 307.584 
L 200.831951 305.93113 
L 198.787241 305.93113 
z
" style="fill:#fa9ba4;opacity:0.2;"/>
   </g>
   <g id="patch_58">
    <path clip-path="url(#pf2a607c16a)" d="M 201.059141 307.584 
L 203.103851 307.584 
L 203.103851 304.278261 
L 201.059141 304.278261 
z
" style="fill:#fa9ba4;opacity:0.2;"/>
   </g>
   <g id="patch_59">
    <path clip-path="url(#pf2a607c16a)" d="M 203.331041 307.584 
L 205.375752 307.584 
L 205.375752 302.625391 
L 203.331041 302.625391 
z
" style="fill:#fa9ba4;opacity:0.2;"/>
   </g>
   <g id="patch_60">
    <path clip-path="url(#pf2a607c16a)" d="M 205.602942 307.584 
L 207.647652 307.584 
L 207.647652 305.93113 
L 205.602942 305.93113 
z
" style="fill:#fa9ba4;opacity:0.2;"/>
   </g>
   <g id="patch_61">
    <path clip-path="url(#pf2a607c16a)" d="M 207.874842 307.584 
L 209.919552 307.584 
L 209.919552 307.584 
L 207.874842 307.584 
z
" style="fill:#fa9ba4;opacity:0.2;"/>
   </g>
   <g id="patch_62">
    <path clip-path="url(#pf2a607c16a)" d="M 210.146742 307.584 
L 212.191452 307.584 
L 212.191452 307.584 
L 210.146742 307.584 
z
" style="fill:#fa9ba4;opacity:0.2;"/>
   </g>
   <g id="patch_63">
    <path clip-path="url(#pf2a607c16a)" d="M 212.418642 307.584 
L 214.463353 307.584 
L 214.463353 291.055304 
L 212.418642 291.055304 
z
" style="fill:#fa9ba4;opacity:0.2;"/>
   </g>
   <g id="patch_64">
    <path clip-path="url(#pf2a607c16a)" d="M 214.690543 307.584 
L 216.735253 307.584 
L 216.735253 305.93113 
L 214.690543 305.93113 
z
" style="fill:#fa9ba4;opacity:0.2;"/>
   </g>
   <g id="patch_65">
    <path clip-path="url(#pf2a607c16a)" d="M 216.962443 307.584 
L 219.007153 307.584 
L 219.007153 304.278261 
L 216.962443 304.278261 
z
" style="fill:#fa9ba4;opacity:0.2;"/>
   </g>
   <g id="patch_66">
    <path clip-path="url(#pf2a607c16a)" d="M 219.234343 307.584 
L 221.279053 307.584 
L 221.279053 307.584 
L 219.234343 307.584 
z
" style="fill:#fa9ba4;opacity:0.2;"/>
   </g>
   <g id="patch_67">
    <path clip-path="url(#pf2a607c16a)" d="M 221.506243 307.584 
L 223.550954 307.584 
L 223.550954 304.278261 
L 221.506243 304.278261 
z
" style="fill:#fa9ba4;opacity:0.2;"/>
   </g>
   <g id="patch_68">
    <path clip-path="url(#pf2a607c16a)" d="M 223.778144 307.584 
L 225.822854 307.584 
L 225.822854 305.93113 
L 223.778144 305.93113 
z
" style="fill:#fa9ba4;opacity:0.2;"/>
   </g>
   <g id="patch_69">
    <path clip-path="url(#pf2a607c16a)" d="M 226.050044 307.584 
L 228.094754 307.584 
L 228.094754 305.93113 
L 226.050044 305.93113 
z
" style="fill:#fa9ba4;opacity:0.2;"/>
   </g>
   <g id="patch_70">
    <path clip-path="url(#pf2a607c16a)" d="M 228.321944 307.584 
L 230.366654 307.584 
L 230.366654 305.93113 
L 228.321944 305.93113 
z
" style="fill:#fa9ba4;opacity:0.2;"/>
   </g>
   <g id="patch_71">
    <path clip-path="url(#pf2a607c16a)" d="M 230.593844 307.584 
L 232.638555 307.584 
L 232.638555 307.584 
L 230.593844 307.584 
z
" style="fill:#fa9ba4;opacity:0.2;"/>
   </g>
   <g id="patch_72">
    <path clip-path="url(#pf2a607c16a)" d="M 232.865745 307.584 
L 234.910455 307.584 
L 234.910455 307.584 
L 232.865745 307.584 
z
" style="fill:#fa9ba4;opacity:0.2;"/>
   </g>
   <g id="patch_73">
    <path clip-path="url(#pf2a607c16a)" d="M 235.137645 307.584 
L 237.182355 307.584 
L 237.182355 305.93113 
L 235.137645 305.93113 
z
" style="fill:#fa9ba4;opacity:0.2;"/>
   </g>
   <g id="patch_74">
    <path clip-path="url(#pf2a607c16a)" d="M 237.409545 307.584 
L 239.454255 307.584 
L 239.454255 304.278261 
L 237.409545 304.278261 
z
" style="fill:#fa9ba4;opacity:0.2;"/>
   </g>
   <g id="patch_75">
    <path clip-path="url(#pf2a607c16a)" d="M 239.681445 307.584 
L 241.726156 307.584 
L 241.726156 304.278261 
L 239.681445 304.278261 
z
" style="fill:#fa9ba4;opacity:0.2;"/>
   </g>
   <g id="patch_76">
    <path clip-path="url(#pf2a607c16a)" d="M 241.953346 307.584 
L 243.998056 307.584 
L 243.998056 305.93113 
L 241.953346 305.93113 
z
" style="fill:#fa9ba4;opacity:0.2;"/>
   </g>
   <g id="patch_77">
    <path clip-path="url(#pf2a607c16a)" d="M 244.225246 307.584 
L 246.269956 307.584 
L 246.269956 305.93113 
L 244.225246 305.93113 
z
" style="fill:#fa9ba4;opacity:0.2;"/>
   </g>
   <g id="patch_78">
    <path clip-path="url(#pf2a607c16a)" d="M 246.497146 307.584 
L 248.541856 307.584 
L 248.541856 305.93113 
L 246.497146 305.93113 
z
" style="fill:#fa9ba4;opacity:0.2;"/>
   </g>
   <g id="patch_79">
    <path clip-path="url(#pf2a607c16a)" d="M 248.769046 307.584 
L 250.813757 307.584 
L 250.813757 305.93113 
L 248.769046 305.93113 
z
" style="fill:#fa9ba4;opacity:0.2;"/>
   </g>
   <g id="patch_80">
    <path clip-path="url(#pf2a607c16a)" d="M 251.040947 307.584 
L 253.085657 307.584 
L 253.085657 307.584 
L 251.040947 307.584 
z
" style="fill:#fa9ba4;opacity:0.2;"/>
   </g>
   <g id="patch_81">
    <path clip-path="url(#pf2a607c16a)" d="M 253.312847 307.584 
L 255.357557 307.584 
L 255.357557 307.584 
L 253.312847 307.584 
z
" style="fill:#fa9ba4;opacity:0.2;"/>
   </g>
   <g id="patch_82">
    <path clip-path="url(#pf2a607c16a)" d="M 255.584747 307.584 
L 257.629457 307.584 
L 257.629457 305.93113 
L 255.584747 305.93113 
z
" style="fill:#fa9ba4;opacity:0.2;"/>
   </g>
   <g id="patch_83">
    <path clip-path="url(#pf2a607c16a)" d="M 257.856647 307.584 
L 259.901358 307.584 
L 259.901358 305.93113 
L 257.856647 305.93113 
z
" style="fill:#fa9ba4;opacity:0.2;"/>
   </g>
   <g id="patch_84">
    <path clip-path="url(#pf2a607c16a)" d="M 260.128548 307.584 
L 262.173258 307.584 
L 262.173258 307.584 
L 260.128548 307.584 
z
" style="fill:#fa9ba4;opacity:0.2;"/>
   </g>
   <g id="patch_85">
    <path clip-path="url(#pf2a607c16a)" d="M 262.400448 307.584 
L 264.445158 307.584 
L 264.445158 305.93113 
L 262.400448 305.93113 
z
" style="fill:#fa9ba4;opacity:0.2;"/>
   </g>
   <g id="patch_86">
    <path clip-path="url(#pf2a607c16a)" d="M 264.672348 307.584 
L 266.717058 307.584 
L 266.717058 307.584 
L 264.672348 307.584 
z
" style="fill:#fa9ba4;opacity:0.2;"/>
   </g>
   <g id="patch_87">
    <path clip-path="url(#pf2a607c16a)" d="M 266.944248 307.584 
L 268.988959 307.584 
L 268.988959 307.584 
L 266.944248 307.584 
z
" style="fill:#fa9ba4;opacity:0.2;"/>
   </g>
   <g id="patch_88">
    <path clip-path="url(#pf2a607c16a)" d="M 269.216149 307.584 
L 271.260859 307.584 
L 271.260859 307.584 
L 269.216149 307.584 
z
" style="fill:#fa9ba4;opacity:0.2;"/>
   </g>
   <g id="patch_89">
    <path clip-path="url(#pf2a607c16a)" d="M 271.488049 307.584 
L 273.532759 307.584 
L 273.532759 304.278261 
L 271.488049 304.278261 
z
" style="fill:#fa9ba4;opacity:0.2;"/>
   </g>
   <g id="patch_90">
    <path clip-path="url(#pf2a607c16a)" d="M 273.759949 307.584 
L 275.804659 307.584 
L 275.804659 307.584 
L 273.759949 307.584 
z
" style="fill:#fa9ba4;opacity:0.2;"/>
   </g>
   <g id="patch_91">
    <path clip-path="url(#pf2a607c16a)" d="M 276.031849 307.584 
L 278.07656 307.584 
L 278.07656 305.93113 
L 276.031849 305.93113 
z
" style="fill:#fa9ba4;opacity:0.2;"/>
   </g>
   <g id="patch_92">
    <path clip-path="url(#pf2a607c16a)" d="M 278.30375 307.584 
L 280.34846 307.584 
L 280.34846 305.93113 
L 278.30375 305.93113 
z
" style="fill:#fa9ba4;opacity:0.2;"/>
   </g>
   <g id="patch_93">
    <path clip-path="url(#pf2a607c16a)" d="M 280.57565 307.584 
L 282.62036 307.584 
L 282.62036 307.584 
L 280.57565 307.584 
z
" style="fill:#fa9ba4;opacity:0.2;"/>
   </g>
   <g id="patch_94">
    <path clip-path="url(#pf2a607c16a)" d="M 282.84755 307.584 
L 284.89226 307.584 
L 284.89226 302.625391 
L 282.84755 302.625391 
z
" style="fill:#fa9ba4;opacity:0.2;"/>
   </g>
   <g id="patch_95">
    <path clip-path="url(#pf2a607c16a)" d="M 285.11945 307.584 
L 287.164161 307.584 
L 287.164161 302.625391 
L 285.11945 302.625391 
z
" style="fill:#fa9ba4;opacity:0.2;"/>
   </g>
   <g id="patch_96">
    <path clip-path="url(#pf2a607c16a)" d="M 287.391351 307.584 
L 289.436061 307.584 
L 289.436061 300.972522 
L 287.391351 300.972522 
z
" style="fill:#fa9ba4;opacity:0.2;"/>
   </g>
   <g id="patch_97">
    <path clip-path="url(#pf2a607c16a)" d="M 289.663251 307.584 
L 291.707961 307.584 
L 291.707961 277.832348 
L 289.663251 277.832348 
z
" style="fill:#fa9ba4;opacity:0.2;"/>
   </g>
   <g id="patch_98">
    <path clip-path="url(#pf2a607c16a)" d="M 291.935151 307.584 
L 293.979861 307.584 
L 293.979861 304.278261 
L 291.935151 304.278261 
z
" style="fill:#fa9ba4;opacity:0.2;"/>
   </g>
   <g id="patch_99">
    <path clip-path="url(#pf2a607c16a)" d="M 294.207051 307.584 
L 296.251762 307.584 
L 296.251762 302.625391 
L 294.207051 302.625391 
z
" style="fill:#fa9ba4;opacity:0.2;"/>
   </g>
   <g id="patch_100">
    <path clip-path="url(#pf2a607c16a)" d="M 296.478952 307.584 
L 298.523662 307.584 
L 298.523662 304.278261 
L 296.478952 304.278261 
z
" style="fill:#fa9ba4;opacity:0.2;"/>
   </g>
   <g id="patch_101">
    <path clip-path="url(#pf2a607c16a)" d="M 298.750852 307.584 
L 300.795562 307.584 
L 300.795562 304.278261 
L 298.750852 304.278261 
z
" style="fill:#fa9ba4;opacity:0.2;"/>
   </g>
   <g id="patch_102">
    <path clip-path="url(#pf2a607c16a)" d="M 301.022752 307.584 
L 303.067462 307.584 
L 303.067462 299.319652 
L 301.022752 299.319652 
z
" style="fill:#fa9ba4;opacity:0.2;"/>
   </g>
   <g id="patch_103">
    <path clip-path="url(#pf2a607c16a)" d="M 303.294652 307.584 
L 305.339363 307.584 
L 305.339363 299.319652 
L 303.294652 299.319652 
z
" style="fill:#fa9ba4;opacity:0.2;"/>
   </g>
   <g id="patch_104">
    <path clip-path="url(#pf2a607c16a)" d="M 305.566553 307.584 
L 307.611263 307.584 
L 307.611263 300.972522 
L 305.566553 300.972522 
z
" style="fill:#fa9ba4;opacity:0.2;"/>
   </g>
   <g id="patch_105">
    <path clip-path="url(#pf2a607c16a)" d="M 307.838453 307.584 
L 309.883163 307.584 
L 309.883163 292.708174 
L 307.838453 292.708174 
z
" style="fill:#fa9ba4;opacity:0.2;"/>
   </g>
   <g id="patch_106">
    <path clip-path="url(#pf2a607c16a)" d="M 310.110353 307.584 
L 312.155063 307.584 
L 312.155063 304.278261 
L 310.110353 304.278261 
z
" style="fill:#fa9ba4;opacity:0.2;"/>
   </g>
   <g id="patch_107">
    <path clip-path="url(#pf2a607c16a)" d="M 312.382253 307.584 
L 314.426964 307.584 
L 314.426964 305.93113 
L 312.382253 305.93113 
z
" style="fill:#fa9ba4;opacity:0.2;"/>
   </g>
   <g id="patch_108">
    <path clip-path="url(#pf2a607c16a)" d="M 314.654154 307.584 
L 316.698864 307.584 
L 316.698864 299.319652 
L 314.654154 299.319652 
z
" style="fill:#fa9ba4;opacity:0.2;"/>
   </g>
   <g id="patch_109">
    <path clip-path="url(#pf2a607c16a)" d="M 316.926054 307.584 
L 318.970764 307.584 
L 318.970764 302.625391 
L 316.926054 302.625391 
z
" style="fill:#fa9ba4;opacity:0.2;"/>
   </g>
   <g id="patch_110">
    <path clip-path="url(#pf2a607c16a)" d="M 319.197954 307.584 
L 321.242664 307.584 
L 321.242664 297.666783 
L 319.197954 297.666783 
z
" style="fill:#fa9ba4;opacity:0.2;"/>
   </g>
   <g id="patch_111">
    <path clip-path="url(#pf2a607c16a)" d="M 321.469854 307.584 
L 323.514565 307.584 
L 323.514565 299.319652 
L 321.469854 299.319652 
z
" style="fill:#fa9ba4;opacity:0.2;"/>
   </g>
   <g id="patch_112">
    <path clip-path="url(#pf2a607c16a)" d="M 323.741755 307.584 
L 325.786465 307.584 
L 325.786465 292.708174 
L 323.741755 292.708174 
z
" style="fill:#fa9ba4;opacity:0.2;"/>
   </g>
   <g id="patch_113">
    <path clip-path="url(#pf2a607c16a)" d="M 326.013655 307.584 
L 328.058365 307.584 
L 328.058365 291.055304 
L 326.013655 291.055304 
z
" style="fill:#fa9ba4;opacity:0.2;"/>
   </g>
   <g id="patch_114">
    <path clip-path="url(#pf2a607c16a)" d="M 328.285555 307.584 
L 330.330265 307.584 
L 330.330265 272.873739 
L 328.285555 272.873739 
z
" style="fill:#fa9ba4;opacity:0.2;"/>
   </g>
   <g id="patch_115">
    <path clip-path="url(#pf2a607c16a)" d="M 330.557455 307.584 
L 332.602166 307.584 
L 332.602166 256.345043 
L 330.557455 256.345043 
z
" style="fill:#fa9ba4;opacity:0.2;"/>
   </g>
   <g id="patch_116">
    <path clip-path="url(#pf2a607c16a)" d="M 332.829356 307.584 
L 334.874066 307.584 
L 334.874066 267.91513 
L 332.829356 267.91513 
z
" style="fill:#fa9ba4;opacity:0.2;"/>
   </g>
   <g id="patch_117">
    <path clip-path="url(#pf2a607c16a)" d="M 335.101256 307.584 
L 337.145966 307.584 
L 337.145966 223.287652 
L 335.101256 223.287652 
z
" style="fill:#fa9ba4;opacity:0.2;"/>
   </g>
   <g id="patch_118">
    <path clip-path="url(#pf2a607c16a)" d="M 337.373156 307.584 
L 339.417866 307.584 
L 339.417866 183.618783 
L 337.373156 183.618783 
z
" style="fill:#fa9ba4;opacity:0.2;"/>
   </g>
   <g id="patch_119">
    <path clip-path="url(#pf2a607c16a)" d="M 339.645056 307.584 
L 341.689767 307.584 
L 341.689767 226.593391 
L 339.645056 226.593391 
z
" style="fill:#fa9ba4;opacity:0.2;"/>
   </g>
   <g id="patch_120">
    <path clip-path="url(#pf2a607c16a)" d="M 341.916957 307.584 
L 343.961667 307.584 
L 343.961667 170.395826 
L 341.916957 170.395826 
z
" style="fill:#fa9ba4;opacity:0.2;"/>
   </g>
   <g id="patch_121">
    <path clip-path="url(#pf2a607c16a)" d="M 344.188857 307.584 
L 346.233567 307.584 
L 346.233567 226.593391 
L 344.188857 226.593391 
z
" style="fill:#fa9ba4;opacity:0.2;"/>
   </g>
   <g id="patch_122">
    <path clip-path="url(#pf2a607c16a)" d="M 346.460757 307.584 
L 348.505467 307.584 
L 348.505467 234.857739 
L 346.460757 234.857739 
z
" style="fill:#fa9ba4;opacity:0.2;"/>
   </g>
   <g id="patch_123">
    <path clip-path="url(#pf2a607c16a)" d="M 348.732657 307.584 
L 350.777368 307.584 
L 350.777368 269.568 
L 348.732657 269.568 
z
" style="fill:#fa9ba4;opacity:0.2;"/>
   </g>
   <g id="patch_124">
    <path clip-path="url(#pf2a607c16a)" d="M 351.004558 307.584 
L 353.049268 307.584 
L 353.049268 239.816348 
L 351.004558 239.816348 
z
" style="fill:#fa9ba4;opacity:0.2;"/>
   </g>
   <g id="patch_125">
    <path clip-path="url(#pf2a607c16a)" d="M 353.276458 307.584 
L 355.321168 307.584 
L 355.321168 262.956522 
L 353.276458 262.956522 
z
" style="fill:#fa9ba4;opacity:0.2;"/>
   </g>
   <g id="patch_126">
    <path clip-path="url(#pf2a607c16a)" d="M 355.548358 307.584 
L 357.593068 307.584 
L 357.593068 201.800348 
L 355.548358 201.800348 
z
" style="fill:#fa9ba4;opacity:0.2;"/>
   </g>
   <g id="patch_127">
    <path clip-path="url(#pf2a607c16a)" d="M 357.820258 307.584 
L 359.864969 307.584 
L 359.864969 172.048696 
L 357.820258 172.048696 
z
" style="fill:#fa9ba4;opacity:0.2;"/>
   </g>
   <g id="patch_128">
    <path clip-path="url(#pf2a607c16a)" d="M 360.092159 307.584 
L 362.136869 307.584 
L 362.136869 208.411826 
L 360.092159 208.411826 
z
" style="fill:#fa9ba4;opacity:0.2;"/>
   </g>
   <g id="patch_129">
    <path clip-path="url(#pf2a607c16a)" d="M 362.364059 307.584 
L 364.408769 307.584 
L 364.408769 243.122087 
L 362.364059 243.122087 
z
" style="fill:#fa9ba4;opacity:0.2;"/>
   </g>
   <g id="patch_130">
    <path clip-path="url(#pf2a607c16a)" d="M 364.635959 307.584 
L 366.680669 307.584 
L 366.680669 243.122087 
L 364.635959 243.122087 
z
" style="fill:#fa9ba4;opacity:0.2;"/>
   </g>
   <g id="patch_131">
    <path clip-path="url(#pf2a607c16a)" d="M 366.907859 307.584 
L 368.95257 307.584 
L 368.95257 177.007304 
L 366.907859 177.007304 
z
" style="fill:#fa9ba4;opacity:0.2;"/>
   </g>
   <g id="patch_132">
    <path clip-path="url(#pf2a607c16a)" d="M 369.17976 307.584 
L 371.22447 307.584 
L 371.22447 168.742957 
L 369.17976 168.742957 
z
" style="fill:#fa9ba4;opacity:0.2;"/>
   </g>
   <g id="patch_133">
    <path clip-path="url(#pf2a607c16a)" d="M 371.45166 307.584 
L 373.49637 307.584 
L 373.49637 180.313043 
L 371.45166 180.313043 
z
" style="fill:#fa9ba4;opacity:0.2;"/>
   </g>
   <g id="patch_134">
    <path clip-path="url(#pf2a607c16a)" d="M 373.72356 307.584 
L 375.76827 307.584 
L 375.76827 125.768348 
L 373.72356 125.768348 
z
" style="fill:#fa9ba4;opacity:0.2;"/>
   </g>
   <g id="patch_135">
    <path clip-path="url(#pf2a607c16a)" d="M 375.99546 307.584 
L 378.04017 307.584 
L 378.04017 153.86713 
L 375.99546 153.86713 
z
" style="fill:#fa9ba4;opacity:0.2;"/>
   </g>
   <g id="patch_136">
    <path clip-path="url(#pf2a607c16a)" d="M 378.267361 307.584 
L 380.312071 307.584 
L 380.312071 41.472 
L 378.267361 41.472 
z
" style="fill:#fa9ba4;opacity:0.2;"/>
   </g>
   <g id="patch_137">
    <path clip-path="url(#pf2a607c16a)" d="M 380.539261 307.584 
L 382.583971 307.584 
L 382.583971 58.000696 
L 380.539261 58.000696 
z
" style="fill:#fa9ba4;opacity:0.2;"/>
   </g>
   <g id="patch_138">
    <path clip-path="url(#pf2a607c16a)" d="M 382.811161 307.584 
L 384.855871 307.584 
L 384.855871 79.488 
L 382.811161 79.488 
z
" style="fill:#fa9ba4;opacity:0.2;"/>
   </g>
   <g id="patch_139">
    <path clip-path="url(#pf2a607c16a)" d="M 385.083061 307.584 
L 387.127771 307.584 
L 387.127771 72.876522 
L 385.083061 72.876522 
z
" style="fill:#fa9ba4;opacity:0.2;"/>
   </g>
   <g id="patch_140">
    <path clip-path="url(#pf2a607c16a)" d="M 387.354962 307.584 
L 389.399672 307.584 
L 389.399672 67.917913 
L 387.354962 67.917913 
z
" style="fill:#fa9ba4;opacity:0.2;"/>
   </g>
   <g id="patch_141">
    <path clip-path="url(#pf2a607c16a)" d="M 389.626862 307.584 
L 391.671572 307.584 
L 391.671572 41.472 
L 389.626862 41.472 
z
" style="fill:#fa9ba4;opacity:0.2;"/>
   </g>
   <g id="patch_142">
    <path clip-path="url(#pf2a607c16a)" d="M 391.898762 307.584 
L 393.943472 307.584 
L 393.943472 307.584 
L 391.898762 307.584 
z
" style="fill:#fa9ba4;opacity:0.2;"/>
   </g>
   <g id="patch_143">
    <path clip-path="url(#pf2a607c16a)" d="M 394.170662 307.584 
L 396.215372 307.584 
L 396.215372 307.584 
L 394.170662 307.584 
z
" style="fill:#fa9ba4;opacity:0.2;"/>
   </g>
   <g id="patch_144">
    <path clip-path="url(#pf2a607c16a)" d="M 396.442563 307.584 
L 398.487273 307.584 
L 398.487273 307.584 
L 396.442563 307.584 
z
" style="fill:#fa9ba4;opacity:0.2;"/>
   </g>
   <g id="matplotlib.axis_1"/>
   <g id="matplotlib.axis_2"/>
   <g id="PolyCollection_1">
    <defs>
     <path d="M 367.930214 -130.104447 
L 367.930214 -38.016 
L 370.202115 -38.016 
L 372.474015 -38.016 
L 374.745915 -38.016 
L 377.017815 -38.016 
L 379.289716 -38.016 
L 381.561616 -38.016 
L 383.833516 -38.016 
L 386.105416 -38.016 
L 388.377317 -38.016 
L 390.649217 -38.016 
L 392.921117 -38.016 
L 395.193017 -38.016 
L 397.464918 -38.016 
L 397.464918 -176.384795 
L 397.464918 -176.384795 
L 395.193017 -212.039553 
L 392.921117 -250.055553 
L 390.649217 -272.015106 
L 388.377317 -259.97277 
L 386.105416 -243.916323 
L 383.833516 -230.221118 
L 381.561616 -216.289789 
L 379.289716 -189.843876 
L 377.017815 -161.03672 
L 374.745915 -153.244621 
L 372.474015 -146.633143 
L 370.202115 -143.563528 
L 367.930214 -130.104447 
z
" id="m385e97fc23" style="stroke:#dc3545;stroke-opacity:0.5;"/>
    </defs>
    <g clip-path="url(#pf2a607c16a)">
     <use style="fill:#dc3545;fill-opacity:0.5;stroke:#dc3545;stroke-opacity:0.5;" x="0" xlink:href="#m385e97fc23" y="345.6"/>
    </g>
   </g>
   <g id="PolyCollection_2">
    <defs>
     <path d="M 88.486484 -39.904994 
L 88.486484 -38.016 
L 90.758384 -38.016 
L 93.030284 -38.016 
L 95.302185 -38.016 
L 97.574085 -38.016 
L 99.845985 -38.016 
L 102.117885 -38.016 
L 104.389786 -38.016 
L 106.661686 -38.016 
L 108.933586 -38.016 
L 111.205486 -38.016 
L 113.477387 -38.016 
L 115.749287 -38.016 
L 118.021187 -38.016 
L 120.293087 -38.016 
L 122.564988 -38.016 
L 124.836888 -38.016 
L 127.108788 -38.016 
L 129.380688 -38.016 
L 131.652589 -38.016 
L 133.924489 -38.016 
L 136.196389 -38.016 
L 138.468289 -38.016 
L 140.74019 -38.016 
L 143.01209 -38.016 
L 145.28399 -38.016 
L 147.55589 -38.016 
L 149.827791 -38.016 
L 152.099691 -38.016 
L 154.371591 -38.016 
L 156.643491 -38.016 
L 158.915392 -38.016 
L 161.187292 -38.016 
L 163.459192 -38.016 
L 165.731092 -38.016 
L 168.002993 -38.016 
L 170.274893 -38.016 
L 172.546793 -38.016 
L 174.818693 -38.016 
L 177.090594 -38.016 
L 179.362494 -38.016 
L 181.634394 -38.016 
L 183.906294 -38.016 
L 186.178195 -38.016 
L 188.450095 -38.016 
L 190.721995 -38.016 
L 192.993895 -38.016 
L 195.265796 -38.016 
L 197.537696 -38.016 
L 199.809596 -38.016 
L 202.081496 -38.016 
L 204.353397 -38.016 
L 206.625297 -38.016 
L 208.897197 -38.016 
L 211.169097 -38.016 
L 213.440998 -38.016 
L 215.712898 -38.016 
L 217.984798 -38.016 
L 220.256698 -38.016 
L 222.528599 -38.016 
L 224.800499 -38.016 
L 227.072399 -38.016 
L 229.344299 -38.016 
L 231.6162 -38.016 
L 233.8881 -38.016 
L 236.16 -38.016 
L 238.4319 -38.016 
L 240.7038 -38.016 
L 242.975701 -38.016 
L 245.247601 -38.016 
L 247.519501 -38.016 
L 249.791401 -38.016 
L 252.063302 -38.016 
L 254.335202 -38.016 
L 256.607102 -38.016 
L 258.879002 -38.016 
L 261.150903 -38.016 
L 263.422803 -38.016 
L 265.694703 -38.016 
L 267.966603 -38.016 
L 270.238504 -38.016 
L 272.510404 -38.016 
L 274.782304 -38.016 
L 277.054204 -38.016 
L 279.326105 -38.016 
L 281.598005 -38.016 
L 283.869905 -38.016 
L 286.141805 -38.016 
L 288.413706 -38.016 
L 290.685606 -38.016 
L 292.957506 -38.016 
L 295.229406 -38.016 
L 297.501307 -38.016 
L 299.773207 -38.016 
L 302.045107 -38.016 
L 304.317007 -38.016 
L 306.588908 -38.016 
L 308.860808 -38.016 
L 311.132708 -38.016 
L 313.404608 -38.016 
L 315.676509 -38.016 
L 317.948409 -38.016 
L 320.220309 -38.016 
L 322.492209 -38.016 
L 324.76411 -38.016 
L 327.03601 -38.016 
L 329.30791 -38.016 
L 331.57981 -38.016 
L 333.851711 -38.016 
L 336.123611 -38.016 
L 338.395511 -38.016 
L 340.667411 -38.016 
L 342.939312 -38.016 
L 345.211212 -38.016 
L 347.483112 -38.016 
L 349.755012 -38.016 
L 352.026913 -38.016 
L 354.298813 -38.016 
L 356.570713 -38.016 
L 358.842613 -38.016 
L 361.114514 -38.016 
L 363.386414 -38.016 
L 365.658314 -38.016 
L 367.930214 -38.016 
L 367.930214 -130.104447 
L 367.930214 -130.104447 
L 365.658314 -121.131727 
L 363.386414 -117.353739 
L 361.114514 -118.53436 
L 358.842613 -115.936994 
L 356.570713 -116.173118 
L 354.298813 -112.631255 
L 352.026913 -123.965217 
L 349.755012 -126.32646 
L 347.483112 -126.562584 
L 345.211212 -123.492969 
L 342.939312 -116.881491 
L 340.667411 -99.644422 
L 338.395511 -90.199453 
L 336.123611 -73.670758 
L 333.851711 -63.045168 
L 331.57981 -58.086559 
L 329.30791 -51.947329 
L 327.03601 -47.224845 
L 324.76411 -45.335851 
L 322.492209 -45.335851 
L 320.220309 -45.099727 
L 317.948409 -44.863602 
L 315.676509 -45.335851 
L 313.404608 -44.627478 
L 311.132708 -44.863602 
L 308.860808 -45.099727 
L 306.588908 -43.446857 
L 304.317007 -46.752596 
L 302.045107 -46.516472 
L 299.773207 -46.044224 
L 297.501307 -46.280348 
L 295.229406 -45.808099 
L 292.957506 -45.335851 
L 290.685606 -45.099727 
L 288.413706 -40.849491 
L 286.141805 -40.377242 
L 283.869905 -39.66887 
L 281.598005 -38.960497 
L 279.326105 -38.960497 
L 277.054204 -38.960497 
L 274.782304 -38.724373 
L 272.510404 -38.960497 
L 270.238504 -38.724373 
L 267.966603 -38.724373 
L 265.694703 -38.724373 
L 263.422803 -38.960497 
L 261.150903 -38.960497 
L 258.879002 -39.196621 
L 256.607102 -39.196621 
L 254.335202 -39.432745 
L 252.063302 -39.904994 
L 249.791401 -40.141118 
L 247.519501 -39.904994 
L 245.247601 -39.66887 
L 242.975701 -39.66887 
L 240.7038 -39.66887 
L 238.4319 -39.432745 
L 236.16 -39.432745 
L 233.8881 -39.196621 
L 231.6162 -39.66887 
L 229.344299 -39.904994 
L 227.072399 -42.030112 
L 224.800499 -41.793988 
L 222.528599 -41.557863 
L 220.256698 -41.321739 
L 217.984798 -42.030112 
L 215.712898 -42.030112 
L 213.440998 -42.030112 
L 211.169097 -39.66887 
L 208.897197 -40.141118 
L 206.625297 -40.377242 
L 204.353397 -41.085615 
L 202.081496 -40.849491 
L 199.809596 -40.849491 
L 197.537696 -40.613366 
L 195.265796 -40.849491 
L 192.993895 -45.099727 
L 190.721995 -45.099727 
L 188.450095 -44.863602 
L 186.178195 -45.099727 
L 183.906294 -44.627478 
L 181.634394 -45.335851 
L 179.362494 -47.933217 
L 177.090594 -43.682981 
L 174.818693 -44.15523 
L 172.546793 -44.627478 
L 170.274893 -44.627478 
L 168.002993 -44.863602 
L 165.731092 -44.863602 
L 163.459192 -42.266236 
L 161.187292 -42.50236 
L 158.915392 -45.099727 
L 156.643491 -45.335851 
L 154.371591 -48.64159 
L 152.099691 -51.475081 
L 149.827791 -52.891826 
L 147.55589 -58.086559 
L 145.28399 -65.40641 
L 143.01209 -68.003776 
L 140.74019 -74.37913 
L 138.468289 -80.990609 
L 136.196389 -77.920994 
L 133.924489 -81.226733 
L 131.652589 -78.393242 
L 129.380688 -76.032 
L 127.108788 -73.198509 
L 124.836888 -67.295404 
L 122.564988 -56.905938 
L 120.293087 -58.558807 
L 118.021187 -54.308571 
L 115.749287 -52.655702 
L 113.477387 -49.586087 
L 111.205486 -47.224845 
L 108.933586 -46.98872 
L 106.661686 -47.460969 
L 104.389786 -46.044224 
L 102.117885 -45.808099 
L 99.845985 -45.099727 
L 97.574085 -42.974609 
L 95.302185 -42.266236 
L 93.030284 -40.849491 
L 90.758384 -40.141118 
L 88.486484 -39.904994 
z
" id="mb73635802d" style="stroke:#fa9ba4;stroke-opacity:0.3;"/>
    </defs>
    <g clip-path="url(#pf2a607c16a)">
     <use style="fill:#fa9ba4;fill-opacity:0.3;stroke:#fa9ba4;stroke-opacity:0.3;" x="0" xlink:href="#mb73635802d" y="345.6"/>
    </g>
   </g>
   <g id="line2d_1">
    <path clip-path="url(#pf2a607c16a)" d="M 88.486484 305.695006 
L 90.758384 305.458882 
L 93.030284 304.750509 
L 95.302185 303.333764 
L 97.574085 302.625391 
L 99.845985 300.500273 
L 102.117885 299.791901 
L 104.389786 299.555776 
L 106.661686 298.139031 
L 108.933586 298.61128 
L 111.205486 298.375155 
L 113.477387 296.013913 
L 115.749287 292.944298 
L 118.021187 291.291429 
L 120.293087 287.041193 
L 122.564988 288.694062 
L 124.836888 278.304596 
L 127.108788 272.401491 
L 129.380688 269.568 
L 131.652589 267.206758 
L 133.924489 264.373267 
L 136.196389 267.679006 
L 138.468289 264.609391 
L 143.01209 277.596224 
L 145.28399 280.19359 
L 147.55589 287.513441 
L 149.827791 292.708174 
L 152.099691 294.124919 
L 154.371591 296.95841 
L 156.643491 300.264149 
L 158.915392 300.500273 
L 161.187292 303.09764 
L 163.459192 303.333764 
L 165.731092 300.736398 
L 168.002993 300.736398 
L 170.274893 300.972522 
L 172.546793 300.972522 
L 177.090594 301.917019 
L 179.362494 297.666783 
L 181.634394 300.264149 
L 183.906294 300.972522 
L 186.178195 300.500273 
L 188.450095 300.736398 
L 190.721995 300.500273 
L 192.993895 300.500273 
L 195.265796 304.750509 
L 197.537696 304.986634 
L 199.809596 304.750509 
L 202.081496 304.750509 
L 204.353397 304.514385 
L 206.625297 305.222758 
L 208.897197 305.458882 
L 211.169097 305.93113 
L 213.440998 303.569888 
L 217.984798 303.569888 
L 220.256698 304.278261 
L 227.072399 303.569888 
L 229.344299 305.695006 
L 231.6162 305.93113 
L 233.8881 306.403379 
L 236.16 306.167255 
L 238.4319 306.167255 
L 240.7038 305.93113 
L 245.247601 305.93113 
L 249.791401 305.458882 
L 252.063302 305.695006 
L 254.335202 306.167255 
L 256.607102 306.403379 
L 258.879002 306.403379 
L 261.150903 306.639503 
L 263.422803 306.639503 
L 265.694703 306.875627 
L 270.238504 306.875627 
L 272.510404 306.639503 
L 274.782304 306.875627 
L 277.054204 306.639503 
L 281.598005 306.639503 
L 286.141805 305.222758 
L 288.413706 304.750509 
L 290.685606 300.500273 
L 292.957506 300.264149 
L 297.501307 299.319652 
L 299.773207 299.555776 
L 302.045107 299.083528 
L 304.317007 298.847404 
L 306.588908 302.153143 
L 308.860808 300.500273 
L 313.404608 300.972522 
L 315.676509 300.264149 
L 317.948409 300.736398 
L 322.492209 300.264149 
L 324.76411 300.264149 
L 327.03601 298.375155 
L 329.30791 293.652671 
L 331.57981 287.513441 
L 333.851711 282.554832 
L 336.123611 271.929242 
L 338.395511 255.400547 
L 340.667411 245.955578 
L 342.939312 228.718509 
L 345.211212 222.107031 
L 347.483112 219.037416 
L 349.755012 219.27354 
L 352.026913 221.634783 
L 354.298813 232.968745 
L 356.570713 229.426882 
L 358.842613 229.663006 
L 361.114514 227.06564 
L 363.386414 228.246261 
L 365.658314 224.468273 
L 367.930214 215.495553 
L 370.202115 202.036472 
L 372.474015 198.966857 
L 374.745915 192.355379 
L 377.017815 184.56328 
L 379.289716 155.756124 
L 381.561616 129.310211 
L 386.105416 101.683677 
L 388.377317 85.62723 
L 390.649217 73.584894 
L 392.921117 95.544447 
L 395.193017 133.560447 
L 397.464918 169.215205 
L 397.464918 169.215205 
" style="fill:none;stroke:#fa9ba4;stroke-linecap:square;stroke-width:2;"/>
   </g>
   <g id="line2d_2">
    <path clip-path="url(#pf2a607c16a)" d="M 367.930214 215.495553 
L 370.202115 202.036472 
L 372.474015 198.966857 
L 374.745915 192.355379 
L 377.017815 184.56328 
L 379.289716 155.756124 
L 381.561616 129.310211 
L 383.833516 115.378882 
L 386.105416 101.683677 
L 388.377317 85.62723 
L 390.649217 73.584894 
L 392.921117 95.544447 
L 395.193017 133.560447 
L 397.464918 169.215205 
" style="fill:none;stroke:#dc3545;stroke-linecap:square;stroke-width:2;"/>
   </g>
  </g>
 </g>
 <defs>
  <clipPath id="pf2a607c16a">
   <rect height="266.112" width="357.12" x="57.6" y="41.472"/>
  </clipPath>
 </defs>
</svg>
