<?xml version="1.0" encoding="utf-8" standalone="no"?>
<!DOCTYPE svg PUBLIC "-//W3C//DTD SVG 1.1//EN"
  "http://www.w3.org/Graphics/SVG/1.1/DTD/svg11.dtd">
<svg height="345.6pt" version="1.1" viewBox="0 0 460.8 345.6" width="460.8pt" xmlns="http://www.w3.org/2000/svg" xmlns:xlink="http://www.w3.org/1999/xlink">
 <metadata>
  <rdf:RDF xmlns:cc="http://creativecommons.org/ns#" xmlns:dc="http://purl.org/dc/elements/1.1/" xmlns:rdf="http://www.w3.org/1999/02/22-rdf-syntax-ns#">
   <cc:Work>
    <dc:type rdf:resource="http://purl.org/dc/dcmitype/StillImage"/>
    <dc:date>2021-05-06T13:22:52.259845</dc:date>
    <dc:format>image/svg+xml</dc:format>
    <dc:creator>
     <cc:Agent>
      <dc:title>Matplotlib v3.4.1, https://matplotlib.org/</dc:title>
     </cc:Agent>
    </dc:creator>
   </cc:Work>
  </rdf:RDF>
 </metadata>
 <defs>
  <style type="text/css">*{stroke-linecap:butt;stroke-linejoin:round;}</style>
 </defs>
 <g id="figure_1">
  <g id="patch_1">
   <path d="M 0 345.6 
L 460.8 345.6 
L 460.8 0 
L 0 0 
z
" style="fill:none;"/>
  </g>
  <g id="axes_1">
   <g id="patch_2">
    <path clip-path="url(#pc33045841c)" d="M 73.832727 307.584 
L 75.891847 307.584 
L 75.891847 307.584 
L 73.832727 307.584 
z
" style="fill:#fa9ba4;opacity:0.2;"/>
   </g>
   <g id="patch_3">
    <path clip-path="url(#pc33045841c)" d="M 76.120638 307.584 
L 78.179758 307.584 
L 78.179758 307.584 
L 76.120638 307.584 
z
" style="fill:#fa9ba4;opacity:0.2;"/>
   </g>
   <g id="patch_4">
    <path clip-path="url(#pc33045841c)" d="M 78.408549 307.584 
L 80.467669 307.584 
L 80.467669 305.93113 
L 78.408549 305.93113 
z
" style="fill:#fa9ba4;opacity:0.2;"/>
   </g>
   <g id="patch_5">
    <path clip-path="url(#pc33045841c)" d="M 80.69646 307.584 
L 82.755579 307.584 
L 82.755579 307.584 
L 80.69646 307.584 
z
" style="fill:#fa9ba4;opacity:0.2;"/>
   </g>
   <g id="patch_6">
    <path clip-path="url(#pc33045841c)" d="M 82.984371 307.584 
L 85.04349 307.584 
L 85.04349 304.278261 
L 82.984371 304.278261 
z
" style="fill:#fa9ba4;opacity:0.2;"/>
   </g>
   <g id="patch_7">
    <path clip-path="url(#pc33045841c)" d="M 85.272281 307.584 
L 87.331401 307.584 
L 87.331401 305.93113 
L 85.272281 305.93113 
z
" style="fill:#fa9ba4;opacity:0.2;"/>
   </g>
   <g id="patch_8">
    <path clip-path="url(#pc33045841c)" d="M 87.560192 307.584 
L 89.619312 307.584 
L 89.619312 300.972522 
L 87.560192 300.972522 
z
" style="fill:#fa9ba4;opacity:0.2;"/>
   </g>
   <g id="patch_9">
    <path clip-path="url(#pc33045841c)" d="M 89.848103 307.584 
L 91.907223 307.584 
L 91.907223 305.93113 
L 89.848103 305.93113 
z
" style="fill:#fa9ba4;opacity:0.2;"/>
   </g>
   <g id="patch_10">
    <path clip-path="url(#pc33045841c)" d="M 92.136014 307.584 
L 94.195134 307.584 
L 94.195134 302.625391 
L 92.136014 302.625391 
z
" style="fill:#fa9ba4;opacity:0.2;"/>
   </g>
   <g id="patch_11">
    <path clip-path="url(#pc33045841c)" d="M 94.423925 307.584 
L 96.483044 307.584 
L 96.483044 296.013913 
L 94.423925 296.013913 
z
" style="fill:#fa9ba4;opacity:0.2;"/>
   </g>
   <g id="patch_12">
    <path clip-path="url(#pc33045841c)" d="M 96.711835 307.584 
L 98.770955 307.584 
L 98.770955 302.625391 
L 96.711835 302.625391 
z
" style="fill:#fa9ba4;opacity:0.2;"/>
   </g>
   <g id="patch_13">
    <path clip-path="url(#pc33045841c)" d="M 98.999746 307.584 
L 101.058866 307.584 
L 101.058866 289.402435 
L 98.999746 289.402435 
z
" style="fill:#fa9ba4;opacity:0.2;"/>
   </g>
   <g id="patch_14">
    <path clip-path="url(#pc33045841c)" d="M 101.287657 307.584 
L 103.346777 307.584 
L 103.346777 300.972522 
L 101.287657 300.972522 
z
" style="fill:#fa9ba4;opacity:0.2;"/>
   </g>
   <g id="patch_15">
    <path clip-path="url(#pc33045841c)" d="M 103.575568 307.584 
L 105.634688 307.584 
L 105.634688 299.319652 
L 103.575568 299.319652 
z
" style="fill:#fa9ba4;opacity:0.2;"/>
   </g>
   <g id="patch_16">
    <path clip-path="url(#pc33045841c)" d="M 105.863479 307.584 
L 107.922599 307.584 
L 107.922599 296.013913 
L 105.863479 296.013913 
z
" style="fill:#fa9ba4;opacity:0.2;"/>
   </g>
   <g id="patch_17">
    <path clip-path="url(#pc33045841c)" d="M 108.15139 307.584 
L 110.210509 307.584 
L 110.210509 305.93113 
L 108.15139 305.93113 
z
" style="fill:#fa9ba4;opacity:0.2;"/>
   </g>
   <g id="patch_18">
    <path clip-path="url(#pc33045841c)" d="M 110.4393 307.584 
L 112.49842 307.584 
L 112.49842 294.361043 
L 110.4393 294.361043 
z
" style="fill:#fa9ba4;opacity:0.2;"/>
   </g>
   <g id="patch_19">
    <path clip-path="url(#pc33045841c)" d="M 112.727211 307.584 
L 114.786331 307.584 
L 114.786331 286.096696 
L 112.727211 286.096696 
z
" style="fill:#fa9ba4;opacity:0.2;"/>
   </g>
   <g id="patch_20">
    <path clip-path="url(#pc33045841c)" d="M 115.015122 307.584 
L 117.074242 307.584 
L 117.074242 267.91513 
L 115.015122 267.91513 
z
" style="fill:#fa9ba4;opacity:0.2;"/>
   </g>
   <g id="patch_21">
    <path clip-path="url(#pc33045841c)" d="M 117.303033 307.584 
L 119.362153 307.584 
L 119.362153 289.402435 
L 117.303033 289.402435 
z
" style="fill:#fa9ba4;opacity:0.2;"/>
   </g>
   <g id="patch_22">
    <path clip-path="url(#pc33045841c)" d="M 119.590944 307.584 
L 121.650063 307.584 
L 121.650063 269.568 
L 119.590944 269.568 
z
" style="fill:#fa9ba4;opacity:0.2;"/>
   </g>
   <g id="patch_23">
    <path clip-path="url(#pc33045841c)" d="M 121.878855 307.584 
L 123.937974 307.584 
L 123.937974 307.584 
L 121.878855 307.584 
z
" style="fill:#fa9ba4;opacity:0.2;"/>
   </g>
   <g id="patch_24">
    <path clip-path="url(#pc33045841c)" d="M 124.166765 307.584 
L 126.225885 307.584 
L 126.225885 233.20487 
L 124.166765 233.20487 
z
" style="fill:#fa9ba4;opacity:0.2;"/>
   </g>
   <g id="patch_25">
    <path clip-path="url(#pc33045841c)" d="M 126.454676 307.584 
L 128.513796 307.584 
L 128.513796 253.039304 
L 126.454676 253.039304 
z
" style="fill:#fa9ba4;opacity:0.2;"/>
   </g>
   <g id="patch_26">
    <path clip-path="url(#pc33045841c)" d="M 128.742587 307.584 
L 130.801707 307.584 
L 130.801707 266.262261 
L 128.742587 266.262261 
z
" style="fill:#fa9ba4;opacity:0.2;"/>
   </g>
   <g id="patch_27">
    <path clip-path="url(#pc33045841c)" d="M 131.030498 307.584 
L 133.089618 307.584 
L 133.089618 251.386435 
L 131.030498 251.386435 
z
" style="fill:#fa9ba4;opacity:0.2;"/>
   </g>
   <g id="patch_28">
    <path clip-path="url(#pc33045841c)" d="M 133.318409 307.584 
L 135.377528 307.584 
L 135.377528 269.568 
L 133.318409 269.568 
z
" style="fill:#fa9ba4;opacity:0.2;"/>
   </g>
   <g id="patch_29">
    <path clip-path="url(#pc33045841c)" d="M 135.606319 307.584 
L 137.665439 307.584 
L 137.665439 292.708174 
L 135.606319 292.708174 
z
" style="fill:#fa9ba4;opacity:0.2;"/>
   </g>
   <g id="patch_30">
    <path clip-path="url(#pc33045841c)" d="M 137.89423 307.584 
L 139.95335 307.584 
L 139.95335 286.096696 
L 137.89423 286.096696 
z
" style="fill:#fa9ba4;opacity:0.2;"/>
   </g>
   <g id="patch_31">
    <path clip-path="url(#pc33045841c)" d="M 140.182141 307.584 
L 142.241261 307.584 
L 142.241261 279.485217 
L 140.182141 279.485217 
z
" style="fill:#fa9ba4;opacity:0.2;"/>
   </g>
   <g id="patch_32">
    <path clip-path="url(#pc33045841c)" d="M 142.470052 307.584 
L 144.529172 307.584 
L 144.529172 297.666783 
L 142.470052 297.666783 
z
" style="fill:#fa9ba4;opacity:0.2;"/>
   </g>
   <g id="patch_33">
    <path clip-path="url(#pc33045841c)" d="M 144.757963 307.584 
L 146.817082 307.584 
L 146.817082 284.443826 
L 144.757963 284.443826 
z
" style="fill:#fa9ba4;opacity:0.2;"/>
   </g>
   <g id="patch_34">
    <path clip-path="url(#pc33045841c)" d="M 147.045874 307.584 
L 149.104993 307.584 
L 149.104993 302.625391 
L 147.045874 302.625391 
z
" style="fill:#fa9ba4;opacity:0.2;"/>
   </g>
   <g id="patch_35">
    <path clip-path="url(#pc33045841c)" d="M 149.333784 307.584 
L 151.392904 307.584 
L 151.392904 305.93113 
L 149.333784 305.93113 
z
" style="fill:#fa9ba4;opacity:0.2;"/>
   </g>
   <g id="patch_36">
    <path clip-path="url(#pc33045841c)" d="M 151.621695 307.584 
L 153.680815 307.584 
L 153.680815 302.625391 
L 151.621695 302.625391 
z
" style="fill:#fa9ba4;opacity:0.2;"/>
   </g>
   <g id="patch_37">
    <path clip-path="url(#pc33045841c)" d="M 153.909606 307.584 
L 155.968726 307.584 
L 155.968726 305.93113 
L 153.909606 305.93113 
z
" style="fill:#fa9ba4;opacity:0.2;"/>
   </g>
   <g id="patch_38">
    <path clip-path="url(#pc33045841c)" d="M 156.197517 307.584 
L 158.256637 307.584 
L 158.256637 302.625391 
L 156.197517 302.625391 
z
" style="fill:#fa9ba4;opacity:0.2;"/>
   </g>
   <g id="patch_39">
    <path clip-path="url(#pc33045841c)" d="M 158.485428 307.584 
L 160.544547 307.584 
L 160.544547 299.319652 
L 158.485428 299.319652 
z
" style="fill:#fa9ba4;opacity:0.2;"/>
   </g>
   <g id="patch_40">
    <path clip-path="url(#pc33045841c)" d="M 160.773338 307.584 
L 162.832458 307.584 
L 162.832458 302.625391 
L 160.773338 302.625391 
z
" style="fill:#fa9ba4;opacity:0.2;"/>
   </g>
   <g id="patch_41">
    <path clip-path="url(#pc33045841c)" d="M 163.061249 307.584 
L 165.120369 307.584 
L 165.120369 304.278261 
L 163.061249 304.278261 
z
" style="fill:#fa9ba4;opacity:0.2;"/>
   </g>
   <g id="patch_42">
    <path clip-path="url(#pc33045841c)" d="M 165.34916 307.584 
L 167.40828 307.584 
L 167.40828 287.749565 
L 165.34916 287.749565 
z
" style="fill:#fa9ba4;opacity:0.2;"/>
   </g>
   <g id="patch_43">
    <path clip-path="url(#pc33045841c)" d="M 167.637071 307.584 
L 169.696191 307.584 
L 169.696191 302.625391 
L 167.637071 302.625391 
z
" style="fill:#fa9ba4;opacity:0.2;"/>
   </g>
   <g id="patch_44">
    <path clip-path="url(#pc33045841c)" d="M 169.924982 307.584 
L 171.984101 307.584 
L 171.984101 307.584 
L 169.924982 307.584 
z
" style="fill:#fa9ba4;opacity:0.2;"/>
   </g>
   <g id="patch_45">
    <path clip-path="url(#pc33045841c)" d="M 172.212893 307.584 
L 174.272012 307.584 
L 174.272012 302.625391 
L 172.212893 302.625391 
z
" style="fill:#fa9ba4;opacity:0.2;"/>
   </g>
   <g id="patch_46">
    <path clip-path="url(#pc33045841c)" d="M 174.500803 307.584 
L 176.559923 307.584 
L 176.559923 302.625391 
L 174.500803 302.625391 
z
" style="fill:#fa9ba4;opacity:0.2;"/>
   </g>
   <g id="patch_47">
    <path clip-path="url(#pc33045841c)" d="M 176.788714 307.584 
L 178.847834 307.584 
L 178.847834 305.93113 
L 176.788714 305.93113 
z
" style="fill:#fa9ba4;opacity:0.2;"/>
   </g>
   <g id="patch_48">
    <path clip-path="url(#pc33045841c)" d="M 179.076625 307.584 
L 181.135745 307.584 
L 181.135745 274.526609 
L 179.076625 274.526609 
z
" style="fill:#fa9ba4;opacity:0.2;"/>
   </g>
   <g id="patch_49">
    <path clip-path="url(#pc33045841c)" d="M 181.364536 307.584 
L 183.423656 307.584 
L 183.423656 305.93113 
L 181.364536 305.93113 
z
" style="fill:#fa9ba4;opacity:0.2;"/>
   </g>
   <g id="patch_50">
    <path clip-path="url(#pc33045841c)" d="M 183.652447 307.584 
L 185.711566 307.584 
L 185.711566 307.584 
L 183.652447 307.584 
z
" style="fill:#fa9ba4;opacity:0.2;"/>
   </g>
   <g id="patch_51">
    <path clip-path="url(#pc33045841c)" d="M 185.940357 307.584 
L 187.999477 307.584 
L 187.999477 304.278261 
L 185.940357 304.278261 
z
" style="fill:#fa9ba4;opacity:0.2;"/>
   </g>
   <g id="patch_52">
    <path clip-path="url(#pc33045841c)" d="M 188.228268 307.584 
L 190.287388 307.584 
L 190.287388 304.278261 
L 188.228268 304.278261 
z
" style="fill:#fa9ba4;opacity:0.2;"/>
   </g>
   <g id="patch_53">
    <path clip-path="url(#pc33045841c)" d="M 190.516179 307.584 
L 192.575299 307.584 
L 192.575299 300.972522 
L 190.516179 300.972522 
z
" style="fill:#fa9ba4;opacity:0.2;"/>
   </g>
   <g id="patch_54">
    <path clip-path="url(#pc33045841c)" d="M 192.80409 307.584 
L 194.86321 307.584 
L 194.86321 305.93113 
L 192.80409 305.93113 
z
" style="fill:#fa9ba4;opacity:0.2;"/>
   </g>
   <g id="patch_55">
    <path clip-path="url(#pc33045841c)" d="M 195.092001 307.584 
L 197.151121 307.584 
L 197.151121 304.278261 
L 195.092001 304.278261 
z
" style="fill:#fa9ba4;opacity:0.2;"/>
   </g>
   <g id="patch_56">
    <path clip-path="url(#pc33045841c)" d="M 197.379912 307.584 
L 199.439031 307.584 
L 199.439031 307.584 
L 197.379912 307.584 
z
" style="fill:#fa9ba4;opacity:0.2;"/>
   </g>
   <g id="patch_57">
    <path clip-path="url(#pc33045841c)" d="M 199.667822 307.584 
L 201.726942 307.584 
L 201.726942 305.93113 
L 199.667822 305.93113 
z
" style="fill:#fa9ba4;opacity:0.2;"/>
   </g>
   <g id="patch_58">
    <path clip-path="url(#pc33045841c)" d="M 201.955733 307.584 
L 204.014853 307.584 
L 204.014853 304.278261 
L 201.955733 304.278261 
z
" style="fill:#fa9ba4;opacity:0.2;"/>
   </g>
   <g id="patch_59">
    <path clip-path="url(#pc33045841c)" d="M 204.243644 307.584 
L 206.302764 307.584 
L 206.302764 302.625391 
L 204.243644 302.625391 
z
" style="fill:#fa9ba4;opacity:0.2;"/>
   </g>
   <g id="patch_60">
    <path clip-path="url(#pc33045841c)" d="M 206.531555 307.584 
L 208.590675 307.584 
L 208.590675 305.93113 
L 206.531555 305.93113 
z
" style="fill:#fa9ba4;opacity:0.2;"/>
   </g>
   <g id="patch_61">
    <path clip-path="url(#pc33045841c)" d="M 208.819466 307.584 
L 210.878585 307.584 
L 210.878585 307.584 
L 208.819466 307.584 
z
" style="fill:#fa9ba4;opacity:0.2;"/>
   </g>
   <g id="patch_62">
    <path clip-path="url(#pc33045841c)" d="M 211.107377 307.584 
L 213.166496 307.584 
L 213.166496 307.584 
L 211.107377 307.584 
z
" style="fill:#fa9ba4;opacity:0.2;"/>
   </g>
   <g id="patch_63">
    <path clip-path="url(#pc33045841c)" d="M 213.395287 307.584 
L 215.454407 307.584 
L 215.454407 291.055304 
L 213.395287 291.055304 
z
" style="fill:#fa9ba4;opacity:0.2;"/>
   </g>
   <g id="patch_64">
    <path clip-path="url(#pc33045841c)" d="M 215.683198 307.584 
L 217.742318 307.584 
L 217.742318 305.93113 
L 215.683198 305.93113 
z
" style="fill:#fa9ba4;opacity:0.2;"/>
   </g>
   <g id="patch_65">
    <path clip-path="url(#pc33045841c)" d="M 217.971109 307.584 
L 220.030229 307.584 
L 220.030229 304.278261 
L 217.971109 304.278261 
z
" style="fill:#fa9ba4;opacity:0.2;"/>
   </g>
   <g id="patch_66">
    <path clip-path="url(#pc33045841c)" d="M 220.25902 307.584 
L 222.31814 307.584 
L 222.31814 307.584 
L 220.25902 307.584 
z
" style="fill:#fa9ba4;opacity:0.2;"/>
   </g>
   <g id="patch_67">
    <path clip-path="url(#pc33045841c)" d="M 222.546931 307.584 
L 224.60605 307.584 
L 224.60605 304.278261 
L 222.546931 304.278261 
z
" style="fill:#fa9ba4;opacity:0.2;"/>
   </g>
   <g id="patch_68">
    <path clip-path="url(#pc33045841c)" d="M 224.834841 307.584 
L 226.893961 307.584 
L 226.893961 305.93113 
L 224.834841 305.93113 
z
" style="fill:#fa9ba4;opacity:0.2;"/>
   </g>
   <g id="patch_69">
    <path clip-path="url(#pc33045841c)" d="M 227.122752 307.584 
L 229.181872 307.584 
L 229.181872 305.93113 
L 227.122752 305.93113 
z
" style="fill:#fa9ba4;opacity:0.2;"/>
   </g>
   <g id="patch_70">
    <path clip-path="url(#pc33045841c)" d="M 229.410663 307.584 
L 231.469783 307.584 
L 231.469783 305.93113 
L 229.410663 305.93113 
z
" style="fill:#fa9ba4;opacity:0.2;"/>
   </g>
   <g id="patch_71">
    <path clip-path="url(#pc33045841c)" d="M 231.698574 307.584 
L 233.757694 307.584 
L 233.757694 307.584 
L 231.698574 307.584 
z
" style="fill:#fa9ba4;opacity:0.2;"/>
   </g>
   <g id="patch_72">
    <path clip-path="url(#pc33045841c)" d="M 233.986485 307.584 
L 236.045604 307.584 
L 236.045604 307.584 
L 233.986485 307.584 
z
" style="fill:#fa9ba4;opacity:0.2;"/>
   </g>
   <g id="patch_73">
    <path clip-path="url(#pc33045841c)" d="M 236.274396 307.584 
L 238.333515 307.584 
L 238.333515 305.93113 
L 236.274396 305.93113 
z
" style="fill:#fa9ba4;opacity:0.2;"/>
   </g>
   <g id="patch_74">
    <path clip-path="url(#pc33045841c)" d="M 238.562306 307.584 
L 240.621426 307.584 
L 240.621426 304.278261 
L 238.562306 304.278261 
z
" style="fill:#fa9ba4;opacity:0.2;"/>
   </g>
   <g id="patch_75">
    <path clip-path="url(#pc33045841c)" d="M 240.850217 307.584 
L 242.909337 307.584 
L 242.909337 304.278261 
L 240.850217 304.278261 
z
" style="fill:#fa9ba4;opacity:0.2;"/>
   </g>
   <g id="patch_76">
    <path clip-path="url(#pc33045841c)" d="M 243.138128 307.584 
L 245.197248 307.584 
L 245.197248 305.93113 
L 243.138128 305.93113 
z
" style="fill:#fa9ba4;opacity:0.2;"/>
   </g>
   <g id="patch_77">
    <path clip-path="url(#pc33045841c)" d="M 245.426039 307.584 
L 247.485159 307.584 
L 247.485159 305.93113 
L 245.426039 305.93113 
z
" style="fill:#fa9ba4;opacity:0.2;"/>
   </g>
   <g id="patch_78">
    <path clip-path="url(#pc33045841c)" d="M 247.71395 307.584 
L 249.773069 307.584 
L 249.773069 305.93113 
L 247.71395 305.93113 
z
" style="fill:#fa9ba4;opacity:0.2;"/>
   </g>
   <g id="patch_79">
    <path clip-path="url(#pc33045841c)" d="M 250.00186 307.584 
L 252.06098 307.584 
L 252.06098 305.93113 
L 250.00186 305.93113 
z
" style="fill:#fa9ba4;opacity:0.2;"/>
   </g>
   <g id="patch_80">
    <path clip-path="url(#pc33045841c)" d="M 252.289771 307.584 
L 254.348891 307.584 
L 254.348891 307.584 
L 252.289771 307.584 
z
" style="fill:#fa9ba4;opacity:0.2;"/>
   </g>
   <g id="patch_81">
    <path clip-path="url(#pc33045841c)" d="M 254.577682 307.584 
L 256.636802 307.584 
L 256.636802 307.584 
L 254.577682 307.584 
z
" style="fill:#fa9ba4;opacity:0.2;"/>
   </g>
   <g id="patch_82">
    <path clip-path="url(#pc33045841c)" d="M 256.865593 307.584 
L 258.924713 307.584 
L 258.924713 305.93113 
L 256.865593 305.93113 
z
" style="fill:#fa9ba4;opacity:0.2;"/>
   </g>
   <g id="patch_83">
    <path clip-path="url(#pc33045841c)" d="M 259.153504 307.584 
L 261.212623 307.584 
L 261.212623 305.93113 
L 259.153504 305.93113 
z
" style="fill:#fa9ba4;opacity:0.2;"/>
   </g>
   <g id="patch_84">
    <path clip-path="url(#pc33045841c)" d="M 261.441415 307.584 
L 263.500534 307.584 
L 263.500534 307.584 
L 261.441415 307.584 
z
" style="fill:#fa9ba4;opacity:0.2;"/>
   </g>
   <g id="patch_85">
    <path clip-path="url(#pc33045841c)" d="M 263.729325 307.584 
L 265.788445 307.584 
L 265.788445 305.93113 
L 263.729325 305.93113 
z
" style="fill:#fa9ba4;opacity:0.2;"/>
   </g>
   <g id="patch_86">
    <path clip-path="url(#pc33045841c)" d="M 266.017236 307.584 
L 268.076356 307.584 
L 268.076356 307.584 
L 266.017236 307.584 
z
" style="fill:#fa9ba4;opacity:0.2;"/>
   </g>
   <g id="patch_87">
    <path clip-path="url(#pc33045841c)" d="M 268.305147 307.584 
L 270.364267 307.584 
L 270.364267 307.584 
L 268.305147 307.584 
z
" style="fill:#fa9ba4;opacity:0.2;"/>
   </g>
   <g id="patch_88">
    <path clip-path="url(#pc33045841c)" d="M 270.593058 307.584 
L 272.652178 307.584 
L 272.652178 307.584 
L 270.593058 307.584 
z
" style="fill:#fa9ba4;opacity:0.2;"/>
   </g>
   <g id="patch_89">
    <path clip-path="url(#pc33045841c)" d="M 272.880969 307.584 
L 274.940088 307.584 
L 274.940088 304.278261 
L 272.880969 304.278261 
z
" style="fill:#fa9ba4;opacity:0.2;"/>
   </g>
   <g id="patch_90">
    <path clip-path="url(#pc33045841c)" d="M 275.168879 307.584 
L 277.227999 307.584 
L 277.227999 307.584 
L 275.168879 307.584 
z
" style="fill:#fa9ba4;opacity:0.2;"/>
   </g>
   <g id="patch_91">
    <path clip-path="url(#pc33045841c)" d="M 277.45679 307.584 
L 279.51591 307.584 
L 279.51591 305.93113 
L 277.45679 305.93113 
z
" style="fill:#fa9ba4;opacity:0.2;"/>
   </g>
   <g id="patch_92">
    <path clip-path="url(#pc33045841c)" d="M 279.744701 307.584 
L 281.803821 307.584 
L 281.803821 305.93113 
L 279.744701 305.93113 
z
" style="fill:#fa9ba4;opacity:0.2;"/>
   </g>
   <g id="patch_93">
    <path clip-path="url(#pc33045841c)" d="M 282.032612 307.584 
L 284.091732 307.584 
L 284.091732 307.584 
L 282.032612 307.584 
z
" style="fill:#fa9ba4;opacity:0.2;"/>
   </g>
   <g id="patch_94">
    <path clip-path="url(#pc33045841c)" d="M 284.320523 307.584 
L 286.379643 307.584 
L 286.379643 302.625391 
L 284.320523 302.625391 
z
" style="fill:#fa9ba4;opacity:0.2;"/>
   </g>
   <g id="patch_95">
    <path clip-path="url(#pc33045841c)" d="M 286.608434 307.584 
L 288.667553 307.584 
L 288.667553 302.625391 
L 286.608434 302.625391 
z
" style="fill:#fa9ba4;opacity:0.2;"/>
   </g>
   <g id="patch_96">
    <path clip-path="url(#pc33045841c)" d="M 288.896344 307.584 
L 290.955464 307.584 
L 290.955464 300.972522 
L 288.896344 300.972522 
z
" style="fill:#fa9ba4;opacity:0.2;"/>
   </g>
   <g id="patch_97">
    <path clip-path="url(#pc33045841c)" d="M 291.184255 307.584 
L 293.243375 307.584 
L 293.243375 277.832348 
L 291.184255 277.832348 
z
" style="fill:#fa9ba4;opacity:0.2;"/>
   </g>
   <g id="patch_98">
    <path clip-path="url(#pc33045841c)" d="M 293.472166 307.584 
L 295.531286 307.584 
L 295.531286 304.278261 
L 293.472166 304.278261 
z
" style="fill:#fa9ba4;opacity:0.2;"/>
   </g>
   <g id="patch_99">
    <path clip-path="url(#pc33045841c)" d="M 295.760077 307.584 
L 297.819197 307.584 
L 297.819197 302.625391 
L 295.760077 302.625391 
z
" style="fill:#fa9ba4;opacity:0.2;"/>
   </g>
   <g id="patch_100">
    <path clip-path="url(#pc33045841c)" d="M 298.047988 307.584 
L 300.107107 307.584 
L 300.107107 304.278261 
L 298.047988 304.278261 
z
" style="fill:#fa9ba4;opacity:0.2;"/>
   </g>
   <g id="patch_101">
    <path clip-path="url(#pc33045841c)" d="M 300.335899 307.584 
L 302.395018 307.584 
L 302.395018 304.278261 
L 300.335899 304.278261 
z
" style="fill:#fa9ba4;opacity:0.2;"/>
   </g>
   <g id="patch_102">
    <path clip-path="url(#pc33045841c)" d="M 302.623809 307.584 
L 304.682929 307.584 
L 304.682929 299.319652 
L 302.623809 299.319652 
z
" style="fill:#fa9ba4;opacity:0.2;"/>
   </g>
   <g id="patch_103">
    <path clip-path="url(#pc33045841c)" d="M 304.91172 307.584 
L 306.97084 307.584 
L 306.97084 299.319652 
L 304.91172 299.319652 
z
" style="fill:#fa9ba4;opacity:0.2;"/>
   </g>
   <g id="patch_104">
    <path clip-path="url(#pc33045841c)" d="M 307.199631 307.584 
L 309.258751 307.584 
L 309.258751 300.972522 
L 307.199631 300.972522 
z
" style="fill:#fa9ba4;opacity:0.2;"/>
   </g>
   <g id="patch_105">
    <path clip-path="url(#pc33045841c)" d="M 309.487542 307.584 
L 311.546662 307.584 
L 311.546662 292.708174 
L 309.487542 292.708174 
z
" style="fill:#fa9ba4;opacity:0.2;"/>
   </g>
   <g id="patch_106">
    <path clip-path="url(#pc33045841c)" d="M 311.775453 307.584 
L 313.834572 307.584 
L 313.834572 304.278261 
L 311.775453 304.278261 
z
" style="fill:#fa9ba4;opacity:0.2;"/>
   </g>
   <g id="patch_107">
    <path clip-path="url(#pc33045841c)" d="M 314.063363 307.584 
L 316.122483 307.584 
L 316.122483 305.93113 
L 314.063363 305.93113 
z
" style="fill:#fa9ba4;opacity:0.2;"/>
   </g>
   <g id="patch_108">
    <path clip-path="url(#pc33045841c)" d="M 316.351274 307.584 
L 318.410394 307.584 
L 318.410394 299.319652 
L 316.351274 299.319652 
z
" style="fill:#fa9ba4;opacity:0.2;"/>
   </g>
   <g id="patch_109">
    <path clip-path="url(#pc33045841c)" d="M 318.639185 307.584 
L 320.698305 307.584 
L 320.698305 302.625391 
L 318.639185 302.625391 
z
" style="fill:#fa9ba4;opacity:0.2;"/>
   </g>
   <g id="patch_110">
    <path clip-path="url(#pc33045841c)" d="M 320.927096 307.584 
L 322.986216 307.584 
L 322.986216 297.666783 
L 320.927096 297.666783 
z
" style="fill:#fa9ba4;opacity:0.2;"/>
   </g>
   <g id="patch_111">
    <path clip-path="url(#pc33045841c)" d="M 323.215007 307.584 
L 325.274126 307.584 
L 325.274126 299.319652 
L 323.215007 299.319652 
z
" style="fill:#fa9ba4;opacity:0.2;"/>
   </g>
   <g id="patch_112">
    <path clip-path="url(#pc33045841c)" d="M 325.502918 307.584 
L 327.562037 307.584 
L 327.562037 292.708174 
L 325.502918 292.708174 
z
" style="fill:#fa9ba4;opacity:0.2;"/>
   </g>
   <g id="patch_113">
    <path clip-path="url(#pc33045841c)" d="M 327.790828 307.584 
L 329.849948 307.584 
L 329.849948 291.055304 
L 327.790828 291.055304 
z
" style="fill:#fa9ba4;opacity:0.2;"/>
   </g>
   <g id="patch_114">
    <path clip-path="url(#pc33045841c)" d="M 330.078739 307.584 
L 332.137859 307.584 
L 332.137859 272.873739 
L 330.078739 272.873739 
z
" style="fill:#fa9ba4;opacity:0.2;"/>
   </g>
   <g id="patch_115">
    <path clip-path="url(#pc33045841c)" d="M 332.36665 307.584 
L 334.42577 307.584 
L 334.42577 256.345043 
L 332.36665 256.345043 
z
" style="fill:#fa9ba4;opacity:0.2;"/>
   </g>
   <g id="patch_116">
    <path clip-path="url(#pc33045841c)" d="M 334.654561 307.584 
L 336.713681 307.584 
L 336.713681 267.91513 
L 334.654561 267.91513 
z
" style="fill:#fa9ba4;opacity:0.2;"/>
   </g>
   <g id="patch_117">
    <path clip-path="url(#pc33045841c)" d="M 336.942472 307.584 
L 339.001591 307.584 
L 339.001591 223.287652 
L 336.942472 223.287652 
z
" style="fill:#fa9ba4;opacity:0.2;"/>
   </g>
   <g id="patch_118">
    <path clip-path="url(#pc33045841c)" d="M 339.230382 307.584 
L 341.289502 307.584 
L 341.289502 183.618783 
L 339.230382 183.618783 
z
" style="fill:#fa9ba4;opacity:0.2;"/>
   </g>
   <g id="patch_119">
    <path clip-path="url(#pc33045841c)" d="M 341.518293 307.584 
L 343.577413 307.584 
L 343.577413 226.593391 
L 341.518293 226.593391 
z
" style="fill:#fa9ba4;opacity:0.2;"/>
   </g>
   <g id="patch_120">
    <path clip-path="url(#pc33045841c)" d="M 343.806204 307.584 
L 345.865324 307.584 
L 345.865324 170.395826 
L 343.806204 170.395826 
z
" style="fill:#fa9ba4;opacity:0.2;"/>
   </g>
   <g id="patch_121">
    <path clip-path="url(#pc33045841c)" d="M 346.094115 307.584 
L 348.153235 307.584 
L 348.153235 226.593391 
L 346.094115 226.593391 
z
" style="fill:#fa9ba4;opacity:0.2;"/>
   </g>
   <g id="patch_122">
    <path clip-path="url(#pc33045841c)" d="M 348.382026 307.584 
L 350.441145 307.584 
L 350.441145 234.857739 
L 348.382026 234.857739 
z
" style="fill:#fa9ba4;opacity:0.2;"/>
   </g>
   <g id="patch_123">
    <path clip-path="url(#pc33045841c)" d="M 350.669937 307.584 
L 352.729056 307.584 
L 352.729056 269.568 
L 350.669937 269.568 
z
" style="fill:#fa9ba4;opacity:0.2;"/>
   </g>
   <g id="patch_124">
    <path clip-path="url(#pc33045841c)" d="M 352.957847 307.584 
L 355.016967 307.584 
L 355.016967 239.816348 
L 352.957847 239.816348 
z
" style="fill:#fa9ba4;opacity:0.2;"/>
   </g>
   <g id="patch_125">
    <path clip-path="url(#pc33045841c)" d="M 355.245758 307.584 
L 357.304878 307.584 
L 357.304878 262.956522 
L 355.245758 262.956522 
z
" style="fill:#fa9ba4;opacity:0.2;"/>
   </g>
   <g id="patch_126">
    <path clip-path="url(#pc33045841c)" d="M 357.533669 307.584 
L 359.592789 307.584 
L 359.592789 201.800348 
L 357.533669 201.800348 
z
" style="fill:#fa9ba4;opacity:0.2;"/>
   </g>
   <g id="patch_127">
    <path clip-path="url(#pc33045841c)" d="M 359.82158 307.584 
L 361.8807 307.584 
L 361.8807 172.048696 
L 359.82158 172.048696 
z
" style="fill:#fa9ba4;opacity:0.2;"/>
   </g>
   <g id="patch_128">
    <path clip-path="url(#pc33045841c)" d="M 362.109491 307.584 
L 364.16861 307.584 
L 364.16861 208.411826 
L 362.109491 208.411826 
z
" style="fill:#fa9ba4;opacity:0.2;"/>
   </g>
   <g id="patch_129">
    <path clip-path="url(#pc33045841c)" d="M 364.397401 307.584 
L 366.456521 307.584 
L 366.456521 243.122087 
L 364.397401 243.122087 
z
" style="fill:#fa9ba4;opacity:0.2;"/>
   </g>
   <g id="patch_130">
    <path clip-path="url(#pc33045841c)" d="M 366.685312 307.584 
L 368.744432 307.584 
L 368.744432 243.122087 
L 366.685312 243.122087 
z
" style="fill:#fa9ba4;opacity:0.2;"/>
   </g>
   <g id="patch_131">
    <path clip-path="url(#pc33045841c)" d="M 368.973223 307.584 
L 371.032343 307.584 
L 371.032343 177.007304 
L 368.973223 177.007304 
z
" style="fill:#fa9ba4;opacity:0.2;"/>
   </g>
   <g id="patch_132">
    <path clip-path="url(#pc33045841c)" d="M 371.261134 307.584 
L 373.320254 307.584 
L 373.320254 168.742957 
L 371.261134 168.742957 
z
" style="fill:#fa9ba4;opacity:0.2;"/>
   </g>
   <g id="patch_133">
    <path clip-path="url(#pc33045841c)" d="M 373.549045 307.584 
L 375.608165 307.584 
L 375.608165 180.313043 
L 373.549045 180.313043 
z
" style="fill:#fa9ba4;opacity:0.2;"/>
   </g>
   <g id="patch_134">
    <path clip-path="url(#pc33045841c)" d="M 375.836956 307.584 
L 377.896075 307.584 
L 377.896075 125.768348 
L 375.836956 125.768348 
z
" style="fill:#fa9ba4;opacity:0.2;"/>
   </g>
   <g id="patch_135">
    <path clip-path="url(#pc33045841c)" d="M 378.124866 307.584 
L 380.183986 307.584 
L 380.183986 153.86713 
L 378.124866 153.86713 
z
" style="fill:#fa9ba4;opacity:0.2;"/>
   </g>
   <g id="patch_136">
    <path clip-path="url(#pc33045841c)" d="M 380.412777 307.584 
L 382.471897 307.584 
L 382.471897 41.472 
L 380.412777 41.472 
z
" style="fill:#fa9ba4;opacity:0.2;"/>
   </g>
   <g id="patch_137">
    <path clip-path="url(#pc33045841c)" d="M 382.700688 307.584 
L 384.759808 307.584 
L 384.759808 58.000696 
L 382.700688 58.000696 
z
" style="fill:#fa9ba4;opacity:0.2;"/>
   </g>
   <g id="patch_138">
    <path clip-path="url(#pc33045841c)" d="M 384.988599 307.584 
L 387.047719 307.584 
L 387.047719 79.488 
L 384.988599 79.488 
z
" style="fill:#fa9ba4;opacity:0.2;"/>
   </g>
   <g id="patch_139">
    <path clip-path="url(#pc33045841c)" d="M 387.27651 307.584 
L 389.335629 307.584 
L 389.335629 72.876522 
L 387.27651 72.876522 
z
" style="fill:#fa9ba4;opacity:0.2;"/>
   </g>
   <g id="patch_140">
    <path clip-path="url(#pc33045841c)" d="M 389.564421 307.584 
L 391.62354 307.584 
L 391.62354 67.917913 
L 389.564421 67.917913 
z
" style="fill:#fa9ba4;opacity:0.2;"/>
   </g>
   <g id="patch_141">
    <path clip-path="url(#pc33045841c)" d="M 391.852331 307.584 
L 393.911451 307.584 
L 393.911451 41.472 
L 391.852331 41.472 
z
" style="fill:#fa9ba4;opacity:0.2;"/>
   </g>
   <g id="patch_142">
    <path clip-path="url(#pc33045841c)" d="M 394.140242 307.584 
L 396.199362 307.584 
L 396.199362 307.584 
L 394.140242 307.584 
z
" style="fill:#fa9ba4;opacity:0.2;"/>
   </g>
   <g id="patch_143">
    <path clip-path="url(#pc33045841c)" d="M 396.428153 307.584 
L 398.487273 307.584 
L 398.487273 307.584 
L 396.428153 307.584 
z
" style="fill:#fa9ba4;opacity:0.2;"/>
   </g>
   <g id="matplotlib.axis_1"/>
   <g id="matplotlib.axis_2"/>
   <g id="PolyCollection_1">
    <defs>
     <path d="M 367.714872 -121.131727 
L 367.714872 -38.016 
L 370.002783 -38.016 
L 372.290694 -38.016 
L 374.578605 -38.016 
L 376.866515 -38.016 
L 379.154426 -38.016 
L 381.442337 -38.016 
L 383.730248 -38.016 
L 386.018159 -38.016 
L 388.30607 -38.016 
L 390.59398 -38.016 
L 392.881891 -38.016 
L 395.169802 -38.016 
L 397.457713 -38.016 
L 397.457713 -212.039553 
L 397.457713 -212.039553 
L 395.169802 -250.055553 
L 392.881891 -272.015106 
L 390.59398 -259.97277 
L 388.30607 -243.916323 
L 386.018159 -230.221118 
L 383.730248 -216.289789 
L 381.442337 -189.843876 
L 379.154426 -161.03672 
L 376.866515 -153.244621 
L 374.578605 -146.633143 
L 372.290694 -143.563528 
L 370.002783 -130.104447 
L 367.714872 -121.131727 
z
" id="md6fbbf9c96" style="stroke:#dc3545;stroke-opacity:0.5;"/>
    </defs>
    <g clip-path="url(#pc33045841c)">
     <use style="fill:#dc3545;fill-opacity:0.5;stroke:#dc3545;stroke-opacity:0.5;" x="0" xlink:href="#md6fbbf9c96" y="345.6"/>
    </g>
   </g>
   <g id="PolyCollection_2">
    <defs>
     <path d="M 88.589752 -39.904994 
L 88.589752 -38.016 
L 90.877663 -38.016 
L 93.165574 -38.016 
L 95.453485 -38.016 
L 97.741395 -38.016 
L 100.029306 -38.016 
L 102.317217 -38.016 
L 104.605128 -38.016 
L 106.893039 -38.016 
L 109.180949 -38.016 
L 111.46886 -38.016 
L 113.756771 -38.016 
L 116.044682 -38.016 
L 118.332593 -38.016 
L 120.620504 -38.016 
L 122.908414 -38.016 
L 125.196325 -38.016 
L 127.484236 -38.016 
L 129.772147 -38.016 
L 132.060058 -38.016 
L 134.347968 -38.016 
L 136.635879 -38.016 
L 138.92379 -38.016 
L 141.211701 -38.016 
L 143.499612 -38.016 
L 145.787523 -38.016 
L 148.075433 -38.016 
L 150.363344 -38.016 
L 152.651255 -38.016 
L 154.939166 -38.016 
L 157.227077 -38.016 
L 159.514988 -38.016 
L 161.802898 -38.016 
L 164.090809 -38.016 
L 166.37872 -38.016 
L 168.666631 -38.016 
L 170.954542 -38.016 
L 173.242452 -38.016 
L 175.530363 -38.016 
L 177.818274 -38.016 
L 180.106185 -38.016 
L 182.394096 -38.016 
L 184.682007 -38.016 
L 186.969917 -38.016 
L 189.257828 -38.016 
L 191.545739 -38.016 
L 193.83365 -38.016 
L 196.121561 -38.016 
L 198.409471 -38.016 
L 200.697382 -38.016 
L 202.985293 -38.016 
L 205.273204 -38.016 
L 207.561115 -38.016 
L 209.849026 -38.016 
L 212.136936 -38.016 
L 214.424847 -38.016 
L 216.712758 -38.016 
L 219.000669 -38.016 
L 221.28858 -38.016 
L 223.57649 -38.016 
L 225.864401 -38.016 
L 228.152312 -38.016 
L 230.440223 -38.016 
L 232.728134 -38.016 
L 235.016045 -38.016 
L 237.303955 -38.016 
L 239.591866 -38.016 
L 241.879777 -38.016 
L 244.167688 -38.016 
L 246.455599 -38.016 
L 248.74351 -38.016 
L 251.03142 -38.016 
L 253.319331 -38.016 
L 255.607242 -38.016 
L 257.895153 -38.016 
L 260.183064 -38.016 
L 262.470974 -38.016 
L 264.758885 -38.016 
L 267.046796 -38.016 
L 269.334707 -38.016 
L 271.622618 -38.016 
L 273.910529 -38.016 
L 276.198439 -38.016 
L 278.48635 -38.016 
L 280.774261 -38.016 
L 283.062172 -38.016 
L 285.350083 -38.016 
L 287.637993 -38.016 
L 289.925904 -38.016 
L 292.213815 -38.016 
L 294.501726 -38.016 
L 296.789637 -38.016 
L 299.077548 -38.016 
L 301.365458 -38.016 
L 303.653369 -38.016 
L 305.94128 -38.016 
L 308.229191 -38.016 
L 310.517102 -38.016 
L 312.805012 -38.016 
L 315.092923 -38.016 
L 317.380834 -38.016 
L 319.668745 -38.016 
L 321.956656 -38.016 
L 324.244567 -38.016 
L 326.532477 -38.016 
L 328.820388 -38.016 
L 331.108299 -38.016 
L 333.39621 -38.016 
L 335.684121 -38.016 
L 337.972032 -38.016 
L 340.259942 -38.016 
L 342.547853 -38.016 
L 344.835764 -38.016 
L 347.123675 -38.016 
L 349.411586 -38.016 
L 351.699496 -38.016 
L 353.987407 -38.016 
L 356.275318 -38.016 
L 358.563229 -38.016 
L 360.85114 -38.016 
L 363.139051 -38.016 
L 365.426961 -38.016 
L 367.714872 -38.016 
L 367.714872 -121.131727 
L 367.714872 -121.131727 
L 365.426961 -117.353739 
L 363.139051 -118.53436 
L 360.85114 -115.936994 
L 358.563229 -116.173118 
L 356.275318 -112.631255 
L 353.987407 -123.965217 
L 351.699496 -126.32646 
L 349.411586 -126.562584 
L 347.123675 -123.492969 
L 344.835764 -116.881491 
L 342.547853 -99.644422 
L 340.259942 -90.199453 
L 337.972032 -73.670758 
L 335.684121 -63.045168 
L 333.39621 -58.086559 
L 331.108299 -51.947329 
L 328.820388 -47.224845 
L 326.532477 -45.335851 
L 324.244567 -45.335851 
L 321.956656 -45.099727 
L 319.668745 -44.863602 
L 317.380834 -45.335851 
L 315.092923 -44.627478 
L 312.805012 -44.863602 
L 310.517102 -45.099727 
L 308.229191 -43.446857 
L 305.94128 -46.752596 
L 303.653369 -46.516472 
L 301.365458 -46.044224 
L 299.077548 -46.280348 
L 296.789637 -45.808099 
L 294.501726 -45.335851 
L 292.213815 -45.099727 
L 289.925904 -40.849491 
L 287.637993 -40.377242 
L 285.350083 -39.66887 
L 283.062172 -38.960497 
L 280.774261 -38.960497 
L 278.48635 -38.960497 
L 276.198439 -38.724373 
L 273.910529 -38.960497 
L 271.622618 -38.724373 
L 269.334707 -38.724373 
L 267.046796 -38.724373 
L 264.758885 -38.960497 
L 262.470974 -38.960497 
L 260.183064 -39.196621 
L 257.895153 -39.196621 
L 255.607242 -39.432745 
L 253.319331 -39.904994 
L 251.03142 -40.141118 
L 248.74351 -39.904994 
L 246.455599 -39.66887 
L 244.167688 -39.66887 
L 241.879777 -39.66887 
L 239.591866 -39.432745 
L 237.303955 -39.432745 
L 235.016045 -39.196621 
L 232.728134 -39.66887 
L 230.440223 -39.904994 
L 228.152312 -42.030112 
L 225.864401 -41.793988 
L 223.57649 -41.557863 
L 221.28858 -41.321739 
L 219.000669 -42.030112 
L 216.712758 -42.030112 
L 214.424847 -42.030112 
L 212.136936 -39.66887 
L 209.849026 -40.141118 
L 207.561115 -40.377242 
L 205.273204 -41.085615 
L 202.985293 -40.849491 
L 200.697382 -40.849491 
L 198.409471 -40.613366 
L 196.121561 -40.849491 
L 193.83365 -45.099727 
L 191.545739 -45.099727 
L 189.257828 -44.863602 
L 186.969917 -45.099727 
L 184.682007 -44.627478 
L 182.394096 -45.335851 
L 180.106185 -47.933217 
L 177.818274 -43.682981 
L 175.530363 -44.15523 
L 173.242452 -44.627478 
L 170.954542 -44.627478 
L 168.666631 -44.863602 
L 166.37872 -44.863602 
L 164.090809 -42.266236 
L 161.802898 -42.50236 
L 159.514988 -45.099727 
L 157.227077 -45.335851 
L 154.939166 -48.64159 
L 152.651255 -51.475081 
L 150.363344 -52.891826 
L 148.075433 -58.086559 
L 145.787523 -65.40641 
L 143.499612 -68.003776 
L 141.211701 -74.37913 
L 138.92379 -80.990609 
L 136.635879 -77.920994 
L 134.347968 -81.226733 
L 132.060058 -78.393242 
L 129.772147 -76.032 
L 127.484236 -73.198509 
L 125.196325 -67.295404 
L 122.908414 -56.905938 
L 120.620504 -58.558807 
L 118.332593 -54.308571 
L 116.044682 -52.655702 
L 113.756771 -49.586087 
L 111.46886 -47.224845 
L 109.180949 -46.98872 
L 106.893039 -47.460969 
L 104.605128 -46.044224 
L 102.317217 -45.808099 
L 100.029306 -45.099727 
L 97.741395 -42.974609 
L 95.453485 -42.266236 
L 93.165574 -40.849491 
L 90.877663 -40.141118 
L 88.589752 -39.904994 
z
" id="maa17261ffd" style="stroke:#fa9ba4;stroke-opacity:0.3;"/>
    </defs>
    <g clip-path="url(#pc33045841c)">
     <use style="fill:#fa9ba4;fill-opacity:0.3;stroke:#fa9ba4;stroke-opacity:0.3;" x="0" xlink:href="#maa17261ffd" y="345.6"/>
    </g>
   </g>
   <g id="line2d_1">
    <path clip-path="url(#pc33045841c)" d="M 88.589752 305.695006 
L 90.877663 305.458882 
L 93.165574 304.750509 
L 95.453485 303.333764 
L 97.741395 302.625391 
L 100.029306 300.500273 
L 102.317217 299.791901 
L 104.605128 299.555776 
L 106.893039 298.139031 
L 109.180949 298.61128 
L 111.46886 298.375155 
L 113.756771 296.013913 
L 116.044682 292.944298 
L 118.332593 291.291429 
L 120.620504 287.041193 
L 122.908414 288.694062 
L 125.196325 278.304596 
L 127.484236 272.401491 
L 129.772147 269.568 
L 132.060058 267.206758 
L 134.347968 264.373267 
L 136.635879 267.679006 
L 138.92379 264.609391 
L 143.499612 277.596224 
L 145.787523 280.19359 
L 148.075433 287.513441 
L 150.363344 292.708174 
L 152.651255 294.124919 
L 154.939166 296.95841 
L 157.227077 300.264149 
L 159.514988 300.500273 
L 161.802898 303.09764 
L 164.090809 303.333764 
L 166.37872 300.736398 
L 168.666631 300.736398 
L 170.954542 300.972522 
L 173.242452 300.972522 
L 177.818274 301.917019 
L 180.106185 297.666783 
L 182.394096 300.264149 
L 184.682007 300.972522 
L 186.969917 300.500273 
L 189.257828 300.736398 
L 191.545739 300.500273 
L 193.83365 300.500273 
L 196.121561 304.750509 
L 198.409471 304.986634 
L 200.697382 304.750509 
L 202.985293 304.750509 
L 205.273204 304.514385 
L 207.561115 305.222758 
L 209.849026 305.458882 
L 212.136936 305.93113 
L 214.424847 303.569888 
L 219.000669 303.569888 
L 221.28858 304.278261 
L 228.152312 303.569888 
L 230.440223 305.695006 
L 232.728134 305.93113 
L 235.016045 306.403379 
L 237.303955 306.167255 
L 239.591866 306.167255 
L 241.879777 305.93113 
L 246.455599 305.93113 
L 251.03142 305.458882 
L 253.319331 305.695006 
L 255.607242 306.167255 
L 257.895153 306.403379 
L 260.183064 306.403379 
L 262.470974 306.639503 
L 264.758885 306.639503 
L 267.046796 306.875627 
L 271.622618 306.875627 
L 273.910529 306.639503 
L 276.198439 306.875627 
L 278.48635 306.639503 
L 283.062172 306.639503 
L 287.637993 305.222758 
L 289.925904 304.750509 
L 292.213815 300.500273 
L 294.501726 300.264149 
L 299.077548 299.319652 
L 301.365458 299.555776 
L 303.653369 299.083528 
L 305.94128 298.847404 
L 308.229191 302.153143 
L 310.517102 300.500273 
L 315.092923 300.972522 
L 317.380834 300.264149 
L 319.668745 300.736398 
L 324.244567 300.264149 
L 326.532477 300.264149 
L 328.820388 298.375155 
L 331.108299 293.652671 
L 333.39621 287.513441 
L 335.684121 282.554832 
L 337.972032 271.929242 
L 340.259942 255.400547 
L 342.547853 245.955578 
L 344.835764 228.718509 
L 347.123675 222.107031 
L 349.411586 219.037416 
L 351.699496 219.27354 
L 353.987407 221.634783 
L 356.275318 232.968745 
L 358.563229 229.426882 
L 360.85114 229.663006 
L 363.139051 227.06564 
L 365.426961 228.246261 
L 367.714872 224.468273 
L 370.002783 215.495553 
L 372.290694 202.036472 
L 374.578605 198.966857 
L 376.866515 192.355379 
L 379.154426 184.56328 
L 381.442337 155.756124 
L 383.730248 129.310211 
L 388.30607 101.683677 
L 390.59398 85.62723 
L 392.881891 73.584894 
L 395.169802 95.544447 
L 397.457713 133.560447 
L 397.457713 133.560447 
" style="fill:none;stroke:#fa9ba4;stroke-linecap:square;stroke-width:2;"/>
   </g>
   <g id="line2d_2">
    <path clip-path="url(#pc33045841c)" d="M 367.714872 224.468273 
L 370.002783 215.495553 
L 372.290694 202.036472 
L 374.578605 198.966857 
L 376.866515 192.355379 
L 379.154426 184.56328 
L 381.442337 155.756124 
L 383.730248 129.310211 
L 386.018159 115.378882 
L 388.30607 101.683677 
L 390.59398 85.62723 
L 392.881891 73.584894 
L 395.169802 95.544447 
L 397.457713 133.560447 
" style="fill:none;stroke:#dc3545;stroke-linecap:square;stroke-width:2;"/>
   </g>
  </g>
 </g>
 <defs>
  <clipPath id="pc33045841c">
   <rect height="266.112" width="357.12" x="57.6" y="41.472"/>
  </clipPath>
 </defs>
</svg>
