<?xml version="1.0" encoding="utf-8" standalone="no"?>
<!DOCTYPE svg PUBLIC "-//W3C//DTD SVG 1.1//EN"
  "http://www.w3.org/Graphics/SVG/1.1/DTD/svg11.dtd">
<!-- Created with matplotlib (https://matplotlib.org/) -->
<svg height="345.6pt" version="1.1" viewBox="0 0 460.8 345.6" width="460.8pt" xmlns="http://www.w3.org/2000/svg" xmlns:xlink="http://www.w3.org/1999/xlink">
 <metadata>
  <rdf:RDF xmlns:cc="http://creativecommons.org/ns#" xmlns:dc="http://purl.org/dc/elements/1.1/" xmlns:rdf="http://www.w3.org/1999/02/22-rdf-syntax-ns#">
   <cc:Work>
    <dc:type rdf:resource="http://purl.org/dc/dcmitype/StillImage"/>
    <dc:date>2021-01-27T14:30:29.640206</dc:date>
    <dc:format>image/svg+xml</dc:format>
    <dc:creator>
     <cc:Agent>
      <dc:title>Matplotlib v3.3.3, https://matplotlib.org/</dc:title>
     </cc:Agent>
    </dc:creator>
   </cc:Work>
  </rdf:RDF>
 </metadata>
 <defs>
  <style type="text/css">*{stroke-linecap:butt;stroke-linejoin:round;}</style>
 </defs>
 <g id="figure_1">
  <g id="patch_1">
   <path d="M 0 345.6 
L 460.8 345.6 
L 460.8 0 
L 0 0 
z
" style="fill:none;"/>
  </g>
  <g id="axes_1">
   <g id="patch_2">
    <path clip-path="url(#p4c3462bb11)" d="M 73.832727 307.584 
L 80.643662 307.584 
L 80.643662 307.584 
L 73.832727 307.584 
z
" style="fill:#fa9ba4;opacity:0.2;"/>
   </g>
   <g id="patch_3">
    <path clip-path="url(#p4c3462bb11)" d="M 81.400432 307.584 
L 88.211367 307.584 
L 88.211367 307.584 
L 81.400432 307.584 
z
" style="fill:#fa9ba4;opacity:0.2;"/>
   </g>
   <g id="patch_4">
    <path clip-path="url(#p4c3462bb11)" d="M 88.968137 307.584 
L 95.779072 307.584 
L 95.779072 301.798957 
L 88.968137 301.798957 
z
" style="fill:#fa9ba4;opacity:0.2;"/>
   </g>
   <g id="patch_5">
    <path clip-path="url(#p4c3462bb11)" d="M 96.535842 307.584 
L 103.346777 307.584 
L 103.346777 307.584 
L 96.535842 307.584 
z
" style="fill:#fa9ba4;opacity:0.2;"/>
   </g>
   <g id="patch_6">
    <path clip-path="url(#p4c3462bb11)" d="M 104.103547 307.584 
L 110.914482 307.584 
L 110.914482 296.013913 
L 104.103547 296.013913 
z
" style="fill:#fa9ba4;opacity:0.2;"/>
   </g>
   <g id="patch_7">
    <path clip-path="url(#p4c3462bb11)" d="M 111.671252 307.584 
L 118.482187 307.584 
L 118.482187 301.798957 
L 111.671252 301.798957 
z
" style="fill:#fa9ba4;opacity:0.2;"/>
   </g>
   <g id="patch_8">
    <path clip-path="url(#p4c3462bb11)" d="M 119.238957 307.584 
L 126.049892 307.584 
L 126.049892 284.443826 
L 119.238957 284.443826 
z
" style="fill:#fa9ba4;opacity:0.2;"/>
   </g>
   <g id="patch_9">
    <path clip-path="url(#p4c3462bb11)" d="M 126.806662 307.584 
L 133.617597 307.584 
L 133.617597 301.798957 
L 126.806662 301.798957 
z
" style="fill:#fa9ba4;opacity:0.2;"/>
   </g>
   <g id="patch_10">
    <path clip-path="url(#p4c3462bb11)" d="M 134.374367 307.584 
L 141.185302 307.584 
L 141.185302 290.22887 
L 134.374367 290.22887 
z
" style="fill:#fa9ba4;opacity:0.2;"/>
   </g>
   <g id="patch_11">
    <path clip-path="url(#p4c3462bb11)" d="M 141.942072 307.584 
L 148.753007 307.584 
L 148.753007 267.088696 
L 141.942072 267.088696 
z
" style="fill:#fa9ba4;opacity:0.2;"/>
   </g>
   <g id="patch_12">
    <path clip-path="url(#p4c3462bb11)" d="M 149.509777 307.584 
L 156.320712 307.584 
L 156.320712 290.22887 
L 149.509777 290.22887 
z
" style="fill:#fa9ba4;opacity:0.2;"/>
   </g>
   <g id="patch_13">
    <path clip-path="url(#p4c3462bb11)" d="M 157.077483 307.584 
L 163.888417 307.584 
L 163.888417 243.948522 
L 157.077483 243.948522 
z
" style="fill:#fa9ba4;opacity:0.2;"/>
   </g>
   <g id="patch_14">
    <path clip-path="url(#p4c3462bb11)" d="M 164.645188 307.584 
L 171.456122 307.584 
L 171.456122 284.443826 
L 164.645188 284.443826 
z
" style="fill:#fa9ba4;opacity:0.2;"/>
   </g>
   <g id="patch_15">
    <path clip-path="url(#p4c3462bb11)" d="M 172.212893 307.584 
L 179.023827 307.584 
L 179.023827 278.658783 
L 172.212893 278.658783 
z
" style="fill:#fa9ba4;opacity:0.2;"/>
   </g>
   <g id="patch_16">
    <path clip-path="url(#p4c3462bb11)" d="M 179.780598 307.584 
L 186.591532 307.584 
L 186.591532 267.088696 
L 179.780598 267.088696 
z
" style="fill:#fa9ba4;opacity:0.2;"/>
   </g>
   <g id="patch_17">
    <path clip-path="url(#p4c3462bb11)" d="M 187.348303 307.584 
L 194.159237 307.584 
L 194.159237 301.798957 
L 187.348303 301.798957 
z
" style="fill:#fa9ba4;opacity:0.2;"/>
   </g>
   <g id="patch_18">
    <path clip-path="url(#p4c3462bb11)" d="M 194.916008 307.584 
L 201.726942 307.584 
L 201.726942 261.303652 
L 194.916008 261.303652 
z
" style="fill:#fa9ba4;opacity:0.2;"/>
   </g>
   <g id="patch_19">
    <path clip-path="url(#p4c3462bb11)" d="M 202.483713 307.584 
L 209.294647 307.584 
L 209.294647 238.163478 
L 202.483713 238.163478 
z
" style="fill:#fa9ba4;opacity:0.2;"/>
   </g>
   <g id="patch_20">
    <path clip-path="url(#p4c3462bb11)" d="M 210.051418 307.584 
L 216.862352 307.584 
L 216.862352 174.528 
L 210.051418 174.528 
z
" style="fill:#fa9ba4;opacity:0.2;"/>
   </g>
   <g id="patch_21">
    <path clip-path="url(#p4c3462bb11)" d="M 217.619123 307.584 
L 224.430057 307.584 
L 224.430057 243.948522 
L 217.619123 243.948522 
z
" style="fill:#fa9ba4;opacity:0.2;"/>
   </g>
   <g id="patch_22">
    <path clip-path="url(#p4c3462bb11)" d="M 225.186828 307.584 
L 231.997762 307.584 
L 231.997762 168.742957 
L 225.186828 168.742957 
z
" style="fill:#fa9ba4;opacity:0.2;"/>
   </g>
   <g id="patch_23">
    <path clip-path="url(#p4c3462bb11)" d="M 232.754533 307.584 
L 239.565467 307.584 
L 239.565467 307.584 
L 232.754533 307.584 
z
" style="fill:#fa9ba4;opacity:0.2;"/>
   </g>
   <g id="patch_24">
    <path clip-path="url(#p4c3462bb11)" d="M 240.322238 307.584 
L 247.133172 307.584 
L 247.133172 41.472 
L 240.322238 41.472 
z
" style="fill:#fa9ba4;opacity:0.2;"/>
   </g>
   <g id="patch_25">
    <path clip-path="url(#p4c3462bb11)" d="M 247.889943 307.584 
L 254.700877 307.584 
L 254.700877 116.677565 
L 247.889943 116.677565 
z
" style="fill:#fa9ba4;opacity:0.2;"/>
   </g>
   <g id="patch_26">
    <path clip-path="url(#p4c3462bb11)" d="M 255.457648 307.584 
L 262.268582 307.584 
L 262.268582 162.957913 
L 255.457648 162.957913 
z
" style="fill:#fa9ba4;opacity:0.2;"/>
   </g>
   <g id="patch_27">
    <path clip-path="url(#p4c3462bb11)" d="M 263.025353 307.584 
L 269.836287 307.584 
L 269.836287 110.892522 
L 263.025353 110.892522 
z
" style="fill:#fa9ba4;opacity:0.2;"/>
   </g>
   <g id="patch_28">
    <path clip-path="url(#p4c3462bb11)" d="M 270.593058 307.584 
L 277.403992 307.584 
L 277.403992 174.528 
L 270.593058 174.528 
z
" style="fill:#fa9ba4;opacity:0.2;"/>
   </g>
   <g id="patch_29">
    <path clip-path="url(#p4c3462bb11)" d="M 278.160763 307.584 
L 284.971697 307.584 
L 284.971697 255.518609 
L 278.160763 255.518609 
z
" style="fill:#fa9ba4;opacity:0.2;"/>
   </g>
   <g id="patch_30">
    <path clip-path="url(#p4c3462bb11)" d="M 285.728468 307.584 
L 292.539402 307.584 
L 292.539402 232.378435 
L 285.728468 232.378435 
z
" style="fill:#fa9ba4;opacity:0.2;"/>
   </g>
   <g id="patch_31">
    <path clip-path="url(#p4c3462bb11)" d="M 293.296173 307.584 
L 300.107107 307.584 
L 300.107107 209.238261 
L 293.296173 209.238261 
z
" style="fill:#fa9ba4;opacity:0.2;"/>
   </g>
   <g id="patch_32">
    <path clip-path="url(#p4c3462bb11)" d="M 300.863878 307.584 
L 307.674812 307.584 
L 307.674812 272.873739 
L 300.863878 272.873739 
z
" style="fill:#fa9ba4;opacity:0.2;"/>
   </g>
   <g id="patch_33">
    <path clip-path="url(#p4c3462bb11)" d="M 308.431583 307.584 
L 315.242517 307.584 
L 315.242517 226.593391 
L 308.431583 226.593391 
z
" style="fill:#fa9ba4;opacity:0.2;"/>
   </g>
   <g id="patch_34">
    <path clip-path="url(#p4c3462bb11)" d="M 315.999288 307.584 
L 322.810223 307.584 
L 322.810223 290.22887 
L 315.999288 290.22887 
z
" style="fill:#fa9ba4;opacity:0.2;"/>
   </g>
   <g id="patch_35">
    <path clip-path="url(#p4c3462bb11)" d="M 323.566993 307.584 
L 330.377928 307.584 
L 330.377928 301.798957 
L 323.566993 301.798957 
z
" style="fill:#fa9ba4;opacity:0.2;"/>
   </g>
   <g id="patch_36">
    <path clip-path="url(#p4c3462bb11)" d="M 331.134698 307.584 
L 337.945633 307.584 
L 337.945633 290.22887 
L 331.134698 290.22887 
z
" style="fill:#fa9ba4;opacity:0.2;"/>
   </g>
   <g id="patch_37">
    <path clip-path="url(#p4c3462bb11)" d="M 338.702403 307.584 
L 345.513338 307.584 
L 345.513338 301.798957 
L 338.702403 301.798957 
z
" style="fill:#fa9ba4;opacity:0.2;"/>
   </g>
   <g id="patch_38">
    <path clip-path="url(#p4c3462bb11)" d="M 346.270108 307.584 
L 353.081043 307.584 
L 353.081043 290.22887 
L 346.270108 290.22887 
z
" style="fill:#fa9ba4;opacity:0.2;"/>
   </g>
   <g id="patch_39">
    <path clip-path="url(#p4c3462bb11)" d="M 353.837813 307.584 
L 360.648748 307.584 
L 360.648748 278.658783 
L 353.837813 278.658783 
z
" style="fill:#fa9ba4;opacity:0.2;"/>
   </g>
   <g id="patch_40">
    <path clip-path="url(#p4c3462bb11)" d="M 361.405518 307.584 
L 368.216453 307.584 
L 368.216453 290.22887 
L 361.405518 290.22887 
z
" style="fill:#fa9ba4;opacity:0.2;"/>
   </g>
   <g id="patch_41">
    <path clip-path="url(#p4c3462bb11)" d="M 368.973223 307.584 
L 375.784158 307.584 
L 375.784158 296.013913 
L 368.973223 296.013913 
z
" style="fill:#fa9ba4;opacity:0.2;"/>
   </g>
   <g id="patch_42">
    <path clip-path="url(#p4c3462bb11)" d="M 376.540928 307.584 
L 383.351863 307.584 
L 383.351863 238.163478 
L 376.540928 238.163478 
z
" style="fill:#fa9ba4;opacity:0.2;"/>
   </g>
   <g id="patch_43">
    <path clip-path="url(#p4c3462bb11)" d="M 384.108633 307.584 
L 390.919568 307.584 
L 390.919568 307.584 
L 384.108633 307.584 
z
" style="fill:#fa9ba4;opacity:0.2;"/>
   </g>
   <g id="patch_44">
    <path clip-path="url(#p4c3462bb11)" d="M 391.676338 307.584 
L 398.487273 307.584 
L 398.487273 307.584 
L 391.676338 307.584 
z
" style="fill:#fa9ba4;opacity:0.2;"/>
   </g>
   <g id="matplotlib.axis_1"/>
   <g id="matplotlib.axis_2"/>
   <g id="PolyCollection_1">
    <defs>
     <path d="M 296.70164 -165.286957 
L 296.70164 -38.016 
L 304.269345 -38.016 
L 311.83705 -38.016 
L 319.404755 -38.016 
L 326.97246 -38.016 
L 334.540165 -38.016 
L 342.10787 -38.016 
L 349.675575 -38.016 
L 357.24328 -38.016 
L 364.810985 -38.016 
L 372.37869 -38.016 
L 379.946395 -38.016 
L 387.5141 -38.016 
L 395.081805 -38.016 
L 395.081805 -58.67687 
L 395.081805 -58.67687 
L 387.5141 -59.503304 
L 379.946395 -61.982609 
L 372.37869 -52.891826 
L 364.810985 -53.718261 
L 357.24328 -62.809043 
L 349.675575 -63.635478 
L 342.10787 -75.205565 
L 334.540165 -85.122783 
L 326.97246 -90.081391 
L 319.404755 -108.262957 
L 311.83705 -133.882435 
L 304.269345 -142.973217 
L 296.70164 -165.286957 
z
" id="m0c6ae9f833" style="stroke:#dc3545;stroke-opacity:0.5;"/>
    </defs>
    <g clip-path="url(#p4c3462bb11)">
     <use style="fill:#dc3545;fill-opacity:0.5;stroke:#dc3545;stroke-opacity:0.5;" x="0" xlink:href="#m0c6ae9f833" y="345.6"/>
    </g>
   </g>
   <g id="PolyCollection_2">
    <defs>
     <path d="M 122.644425 -44.627478 
L 122.644425 -38.016 
L 130.21213 -38.016 
L 137.779835 -38.016 
L 145.34754 -38.016 
L 152.915245 -38.016 
L 160.48295 -38.016 
L 168.050655 -38.016 
L 175.61836 -38.016 
L 183.186065 -38.016 
L 190.75377 -38.016 
L 198.321475 -38.016 
L 205.88918 -38.016 
L 213.456885 -38.016 
L 221.02459 -38.016 
L 228.592295 -38.016 
L 236.16 -38.016 
L 243.727705 -38.016 
L 251.29541 -38.016 
L 258.863115 -38.016 
L 266.43082 -38.016 
L 273.998525 -38.016 
L 281.56623 -38.016 
L 289.133935 -38.016 
L 296.70164 -38.016 
L 296.70164 -165.286957 
L 296.70164 -165.286957 
L 289.133935 -189.253565 
L 281.56623 -178.509913 
L 273.998525 -190.906435 
L 266.43082 -180.989217 
L 258.863115 -171.898435 
L 251.29541 -161.154783 
L 243.727705 -140.493913 
L 236.16 -103.304348 
L 228.592295 -109.089391 
L 221.02459 -93.38713 
L 213.456885 -87.602087 
L 205.88918 -77.68487 
L 198.321475 -70.246957 
L 190.75377 -69.420522 
L 183.186065 -71.073391 
L 175.61836 -66.114783 
L 168.050655 -65.288348 
L 160.48295 -62.809043 
L 152.915245 -55.37113 
L 145.34754 -52.891826 
L 137.779835 -47.933217 
L 130.21213 -45.453913 
L 122.644425 -44.627478 
z
" id="mc0c599f8e9" style="stroke:#fa9ba4;stroke-opacity:0.3;"/>
    </defs>
    <g clip-path="url(#p4c3462bb11)">
     <use style="fill:#fa9ba4;fill-opacity:0.3;stroke:#fa9ba4;stroke-opacity:0.3;" x="0" xlink:href="#mc0c599f8e9" y="345.6"/>
    </g>
   </g>
   <g id="line2d_1">
    <path clip-path="url(#p4c3462bb11)" d="M 122.644425 300.972522 
L 130.21213 300.146087 
L 137.779835 297.666783 
L 145.34754 292.708174 
L 152.915245 290.22887 
L 160.48295 282.790957 
L 168.050655 280.311652 
L 175.61836 279.485217 
L 183.186065 274.526609 
L 190.75377 276.179478 
L 198.321475 275.353043 
L 205.88918 267.91513 
L 213.456885 257.997913 
L 221.02459 252.21287 
L 228.592295 236.510609 
L 236.16 242.295652 
L 243.727705 205.106087 
L 251.29541 184.445217 
L 258.863115 173.701565 
L 266.43082 164.610783 
L 273.998525 154.693565 
L 281.56623 167.090087 
L 289.133935 156.346435 
L 296.70164 180.313043 
L 304.269345 202.626783 
L 311.83705 211.717565 
L 319.404755 237.337043 
L 326.97246 255.518609 
L 334.540165 260.477217 
L 342.10787 270.394435 
L 349.675575 281.964522 
L 357.24328 282.790957 
L 364.810985 291.881739 
L 372.37869 292.708174 
L 379.946395 283.617391 
L 387.5141 286.096696 
L 395.081805 286.92313 
" style="fill:none;stroke:#fa9ba4;stroke-linecap:square;stroke-width:2;"/>
   </g>
   <g id="line2d_2">
    <path clip-path="url(#p4c3462bb11)" d="M 296.70164 180.313043 
L 304.269345 202.626783 
L 311.83705 211.717565 
L 319.404755 237.337043 
L 326.97246 255.518609 
L 334.540165 260.477217 
L 342.10787 270.394435 
L 349.675575 281.964522 
L 357.24328 282.790957 
L 364.810985 291.881739 
L 372.37869 292.708174 
L 379.946395 283.617391 
L 387.5141 286.096696 
L 395.081805 286.92313 
" style="fill:none;stroke:#dc3545;stroke-linecap:square;stroke-width:2;"/>
   </g>
  </g>
 </g>
 <defs>
  <clipPath id="p4c3462bb11">
   <rect height="266.112" width="357.12" x="57.6" y="41.472"/>
  </clipPath>
 </defs>
</svg>
