<?xml version="1.0" encoding="utf-8" standalone="no"?>
<!DOCTYPE svg PUBLIC "-//W3C//DTD SVG 1.1//EN"
  "http://www.w3.org/Graphics/SVG/1.1/DTD/svg11.dtd">
<!-- Created with matplotlib (https://matplotlib.org/) -->
<svg height="345.6pt" version="1.1" viewBox="0 0 460.8 345.6" width="460.8pt" xmlns="http://www.w3.org/2000/svg" xmlns:xlink="http://www.w3.org/1999/xlink">
 <metadata>
  <rdf:RDF xmlns:cc="http://creativecommons.org/ns#" xmlns:dc="http://purl.org/dc/elements/1.1/" xmlns:rdf="http://www.w3.org/1999/02/22-rdf-syntax-ns#">
   <cc:Work>
    <dc:type rdf:resource="http://purl.org/dc/dcmitype/StillImage"/>
    <dc:date>2021-01-22T13:26:59.468282</dc:date>
    <dc:format>image/svg+xml</dc:format>
    <dc:creator>
     <cc:Agent>
      <dc:title>Matplotlib v3.3.3, https://matplotlib.org/</dc:title>
     </cc:Agent>
    </dc:creator>
   </cc:Work>
  </rdf:RDF>
 </metadata>
 <defs>
  <style type="text/css">*{stroke-linecap:butt;stroke-linejoin:round;}</style>
 </defs>
 <g id="figure_1">
  <g id="patch_1">
   <path d="M 0 345.6 
L 460.8 345.6 
L 460.8 0 
L 0 0 
z
" style="fill:none;"/>
  </g>
  <g id="axes_1">
   <g id="patch_2">
    <path clip-path="url(#p7fb95a75f6)" d="M 73.832727 307.584 
L 81.344015 307.584 
L 81.344015 307.584 
L 73.832727 307.584 
z
" style="fill:#fa9ba4;opacity:0.2;"/>
   </g>
   <g id="patch_3">
    <path clip-path="url(#p7fb95a75f6)" d="M 82.178602 307.584 
L 89.68989 307.584 
L 89.68989 307.584 
L 82.178602 307.584 
z
" style="fill:#fa9ba4;opacity:0.2;"/>
   </g>
   <g id="patch_4">
    <path clip-path="url(#p7fb95a75f6)" d="M 90.524478 307.584 
L 98.035765 307.584 
L 98.035765 301.798957 
L 90.524478 301.798957 
z
" style="fill:#fa9ba4;opacity:0.2;"/>
   </g>
   <g id="patch_5">
    <path clip-path="url(#p7fb95a75f6)" d="M 98.870353 307.584 
L 106.381641 307.584 
L 106.381641 307.584 
L 98.870353 307.584 
z
" style="fill:#fa9ba4;opacity:0.2;"/>
   </g>
   <g id="patch_6">
    <path clip-path="url(#p7fb95a75f6)" d="M 107.216228 307.584 
L 114.727516 307.584 
L 114.727516 296.013913 
L 107.216228 296.013913 
z
" style="fill:#fa9ba4;opacity:0.2;"/>
   </g>
   <g id="patch_7">
    <path clip-path="url(#p7fb95a75f6)" d="M 115.562103 307.584 
L 123.073391 307.584 
L 123.073391 301.798957 
L 115.562103 301.798957 
z
" style="fill:#fa9ba4;opacity:0.2;"/>
   </g>
   <g id="patch_8">
    <path clip-path="url(#p7fb95a75f6)" d="M 123.907978 307.584 
L 131.419266 307.584 
L 131.419266 284.443826 
L 123.907978 284.443826 
z
" style="fill:#fa9ba4;opacity:0.2;"/>
   </g>
   <g id="patch_9">
    <path clip-path="url(#p7fb95a75f6)" d="M 132.253854 307.584 
L 139.765141 307.584 
L 139.765141 301.798957 
L 132.253854 301.798957 
z
" style="fill:#fa9ba4;opacity:0.2;"/>
   </g>
   <g id="patch_10">
    <path clip-path="url(#p7fb95a75f6)" d="M 140.599729 307.584 
L 148.111017 307.584 
L 148.111017 290.22887 
L 140.599729 290.22887 
z
" style="fill:#fa9ba4;opacity:0.2;"/>
   </g>
   <g id="patch_11">
    <path clip-path="url(#p7fb95a75f6)" d="M 148.945604 307.584 
L 156.456892 307.584 
L 156.456892 267.088696 
L 148.945604 267.088696 
z
" style="fill:#fa9ba4;opacity:0.2;"/>
   </g>
   <g id="patch_12">
    <path clip-path="url(#p7fb95a75f6)" d="M 157.291479 307.584 
L 164.802767 307.584 
L 164.802767 290.22887 
L 157.291479 290.22887 
z
" style="fill:#fa9ba4;opacity:0.2;"/>
   </g>
   <g id="patch_13">
    <path clip-path="url(#p7fb95a75f6)" d="M 165.637355 307.584 
L 173.148642 307.584 
L 173.148642 243.948522 
L 165.637355 243.948522 
z
" style="fill:#fa9ba4;opacity:0.2;"/>
   </g>
   <g id="patch_14">
    <path clip-path="url(#p7fb95a75f6)" d="M 173.98323 307.584 
L 181.494517 307.584 
L 181.494517 284.443826 
L 173.98323 284.443826 
z
" style="fill:#fa9ba4;opacity:0.2;"/>
   </g>
   <g id="patch_15">
    <path clip-path="url(#p7fb95a75f6)" d="M 182.329105 307.584 
L 189.840393 307.584 
L 189.840393 278.658783 
L 182.329105 278.658783 
z
" style="fill:#fa9ba4;opacity:0.2;"/>
   </g>
   <g id="patch_16">
    <path clip-path="url(#p7fb95a75f6)" d="M 190.67498 307.584 
L 198.186268 307.584 
L 198.186268 267.088696 
L 190.67498 267.088696 
z
" style="fill:#fa9ba4;opacity:0.2;"/>
   </g>
   <g id="patch_17">
    <path clip-path="url(#p7fb95a75f6)" d="M 199.020855 307.584 
L 206.532143 307.584 
L 206.532143 301.798957 
L 199.020855 301.798957 
z
" style="fill:#fa9ba4;opacity:0.2;"/>
   </g>
   <g id="patch_18">
    <path clip-path="url(#p7fb95a75f6)" d="M 207.366731 307.584 
L 214.878018 307.584 
L 214.878018 261.303652 
L 207.366731 261.303652 
z
" style="fill:#fa9ba4;opacity:0.2;"/>
   </g>
   <g id="patch_19">
    <path clip-path="url(#p7fb95a75f6)" d="M 215.712606 307.584 
L 223.223893 307.584 
L 223.223893 238.163478 
L 215.712606 238.163478 
z
" style="fill:#fa9ba4;opacity:0.2;"/>
   </g>
   <g id="patch_20">
    <path clip-path="url(#p7fb95a75f6)" d="M 224.058481 307.584 
L 231.569769 307.584 
L 231.569769 174.528 
L 224.058481 174.528 
z
" style="fill:#fa9ba4;opacity:0.2;"/>
   </g>
   <g id="patch_21">
    <path clip-path="url(#p7fb95a75f6)" d="M 232.404356 307.584 
L 239.915644 307.584 
L 239.915644 243.948522 
L 232.404356 243.948522 
z
" style="fill:#fa9ba4;opacity:0.2;"/>
   </g>
   <g id="patch_22">
    <path clip-path="url(#p7fb95a75f6)" d="M 240.750231 307.584 
L 248.261519 307.584 
L 248.261519 168.742957 
L 240.750231 168.742957 
z
" style="fill:#fa9ba4;opacity:0.2;"/>
   </g>
   <g id="patch_23">
    <path clip-path="url(#p7fb95a75f6)" d="M 249.096107 307.584 
L 256.607394 307.584 
L 256.607394 307.584 
L 249.096107 307.584 
z
" style="fill:#fa9ba4;opacity:0.2;"/>
   </g>
   <g id="patch_24">
    <path clip-path="url(#p7fb95a75f6)" d="M 257.441982 307.584 
L 264.953269 307.584 
L 264.953269 41.472 
L 257.441982 41.472 
z
" style="fill:#fa9ba4;opacity:0.2;"/>
   </g>
   <g id="patch_25">
    <path clip-path="url(#p7fb95a75f6)" d="M 265.787857 307.584 
L 273.299145 307.584 
L 273.299145 116.677565 
L 265.787857 116.677565 
z
" style="fill:#fa9ba4;opacity:0.2;"/>
   </g>
   <g id="patch_26">
    <path clip-path="url(#p7fb95a75f6)" d="M 274.133732 307.584 
L 281.64502 307.584 
L 281.64502 162.957913 
L 274.133732 162.957913 
z
" style="fill:#fa9ba4;opacity:0.2;"/>
   </g>
   <g id="patch_27">
    <path clip-path="url(#p7fb95a75f6)" d="M 282.479607 307.584 
L 289.990895 307.584 
L 289.990895 110.892522 
L 282.479607 110.892522 
z
" style="fill:#fa9ba4;opacity:0.2;"/>
   </g>
   <g id="patch_28">
    <path clip-path="url(#p7fb95a75f6)" d="M 290.825483 307.584 
L 298.33677 307.584 
L 298.33677 174.528 
L 290.825483 174.528 
z
" style="fill:#fa9ba4;opacity:0.2;"/>
   </g>
   <g id="patch_29">
    <path clip-path="url(#p7fb95a75f6)" d="M 299.171358 307.584 
L 306.682645 307.584 
L 306.682645 255.518609 
L 299.171358 255.518609 
z
" style="fill:#fa9ba4;opacity:0.2;"/>
   </g>
   <g id="patch_30">
    <path clip-path="url(#p7fb95a75f6)" d="M 307.517233 307.584 
L 315.028521 307.584 
L 315.028521 232.378435 
L 307.517233 232.378435 
z
" style="fill:#fa9ba4;opacity:0.2;"/>
   </g>
   <g id="patch_31">
    <path clip-path="url(#p7fb95a75f6)" d="M 315.863108 307.584 
L 323.374396 307.584 
L 323.374396 209.238261 
L 315.863108 209.238261 
z
" style="fill:#fa9ba4;opacity:0.2;"/>
   </g>
   <g id="patch_32">
    <path clip-path="url(#p7fb95a75f6)" d="M 324.208983 307.584 
L 331.720271 307.584 
L 331.720271 272.873739 
L 324.208983 272.873739 
z
" style="fill:#fa9ba4;opacity:0.2;"/>
   </g>
   <g id="patch_33">
    <path clip-path="url(#p7fb95a75f6)" d="M 332.554859 307.584 
L 340.066146 307.584 
L 340.066146 226.593391 
L 332.554859 226.593391 
z
" style="fill:#fa9ba4;opacity:0.2;"/>
   </g>
   <g id="patch_34">
    <path clip-path="url(#p7fb95a75f6)" d="M 340.900734 307.584 
L 348.412022 307.584 
L 348.412022 290.22887 
L 340.900734 290.22887 
z
" style="fill:#fa9ba4;opacity:0.2;"/>
   </g>
   <g id="patch_35">
    <path clip-path="url(#p7fb95a75f6)" d="M 349.246609 307.584 
L 356.757897 307.584 
L 356.757897 301.798957 
L 349.246609 301.798957 
z
" style="fill:#fa9ba4;opacity:0.2;"/>
   </g>
   <g id="patch_36">
    <path clip-path="url(#p7fb95a75f6)" d="M 357.592484 307.584 
L 365.103772 307.584 
L 365.103772 290.22887 
L 357.592484 290.22887 
z
" style="fill:#fa9ba4;opacity:0.2;"/>
   </g>
   <g id="patch_37">
    <path clip-path="url(#p7fb95a75f6)" d="M 365.938359 307.584 
L 373.449647 307.584 
L 373.449647 301.798957 
L 365.938359 301.798957 
z
" style="fill:#fa9ba4;opacity:0.2;"/>
   </g>
   <g id="patch_38">
    <path clip-path="url(#p7fb95a75f6)" d="M 374.284235 307.584 
L 381.795522 307.584 
L 381.795522 290.22887 
L 374.284235 290.22887 
z
" style="fill:#fa9ba4;opacity:0.2;"/>
   </g>
   <g id="patch_39">
    <path clip-path="url(#p7fb95a75f6)" d="M 382.63011 307.584 
L 390.141398 307.584 
L 390.141398 278.658783 
L 382.63011 278.658783 
z
" style="fill:#fa9ba4;opacity:0.2;"/>
   </g>
   <g id="patch_40">
    <path clip-path="url(#p7fb95a75f6)" d="M 390.975985 307.584 
L 398.487273 307.584 
L 398.487273 290.22887 
L 390.975985 290.22887 
z
" style="fill:#fa9ba4;opacity:0.2;"/>
   </g>
   <g id="matplotlib.axis_1"/>
   <g id="matplotlib.axis_2"/>
   <g id="PolyCollection_1">
    <defs>
     <path d="M 286.235251 -180.989217 
L 286.235251 -38.016 
L 294.581126 -38.016 
L 302.927002 -38.016 
L 311.272877 -38.016 
L 319.618752 -38.016 
L 327.964627 -38.016 
L 336.310502 -38.016 
L 344.656378 -38.016 
L 353.002253 -38.016 
L 361.348128 -38.016 
L 369.694003 -38.016 
L 378.039878 -38.016 
L 386.385754 -38.016 
L 394.731629 -38.016 
L 394.731629 -53.718261 
L 394.731629 -53.718261 
L 386.385754 -62.809043 
L 378.039878 -63.635478 
L 369.694003 -75.205565 
L 361.348128 -85.122783 
L 353.002253 -90.081391 
L 344.656378 -108.262957 
L 336.310502 -133.882435 
L 327.964627 -142.973217 
L 319.618752 -165.286957 
L 311.272877 -189.253565 
L 302.927002 -178.509913 
L 294.581126 -190.906435 
L 286.235251 -180.989217 
z
" id="m2aeb713832" style="stroke:#dc3545;stroke-opacity:0.5;"/>
    </defs>
    <g clip-path="url(#p7fb95a75f6)">
     <use style="fill:#dc3545;fill-opacity:0.5;stroke:#dc3545;stroke-opacity:0.5;" x="0" xlink:href="#m2aeb713832" y="345.6"/>
    </g>
   </g>
   <g id="PolyCollection_2">
    <defs>
     <path d="M 127.663622 -44.627478 
L 127.663622 -38.016 
L 136.009498 -38.016 
L 144.355373 -38.016 
L 152.701248 -38.016 
L 161.047123 -38.016 
L 169.392998 -38.016 
L 177.738874 -38.016 
L 186.084749 -38.016 
L 194.430624 -38.016 
L 202.776499 -38.016 
L 211.122374 -38.016 
L 219.46825 -38.016 
L 227.814125 -38.016 
L 236.16 -38.016 
L 244.505875 -38.016 
L 252.85175 -38.016 
L 261.197626 -38.016 
L 269.543501 -38.016 
L 277.889376 -38.016 
L 286.235251 -38.016 
L 286.235251 -180.989217 
L 286.235251 -180.989217 
L 277.889376 -171.898435 
L 269.543501 -161.154783 
L 261.197626 -140.493913 
L 252.85175 -103.304348 
L 244.505875 -109.089391 
L 236.16 -93.38713 
L 227.814125 -87.602087 
L 219.46825 -77.68487 
L 211.122374 -70.246957 
L 202.776499 -69.420522 
L 194.430624 -71.073391 
L 186.084749 -66.114783 
L 177.738874 -65.288348 
L 169.392998 -62.809043 
L 161.047123 -55.37113 
L 152.701248 -52.891826 
L 144.355373 -47.933217 
L 136.009498 -45.453913 
L 127.663622 -44.627478 
z
" id="m6132a946b8" style="stroke:#fa9ba4;stroke-opacity:0.3;"/>
    </defs>
    <g clip-path="url(#p7fb95a75f6)">
     <use style="fill:#fa9ba4;fill-opacity:0.3;stroke:#fa9ba4;stroke-opacity:0.3;" x="0" xlink:href="#m6132a946b8" y="345.6"/>
    </g>
   </g>
   <g id="line2d_1">
    <path clip-path="url(#p7fb95a75f6)" d="M 127.663622 300.972522 
L 136.009498 300.146087 
L 144.355373 297.666783 
L 152.701248 292.708174 
L 161.047123 290.22887 
L 169.392998 282.790957 
L 177.738874 280.311652 
L 186.084749 279.485217 
L 194.430624 274.526609 
L 202.776499 276.179478 
L 211.122374 275.353043 
L 219.46825 267.91513 
L 227.814125 257.997913 
L 236.16 252.21287 
L 244.505875 236.510609 
L 252.85175 242.295652 
L 261.197626 205.106087 
L 269.543501 184.445217 
L 277.889376 173.701565 
L 286.235251 164.610783 
L 294.581126 154.693565 
L 302.927002 167.090087 
L 311.272877 156.346435 
L 319.618752 180.313043 
L 327.964627 202.626783 
L 336.310502 211.717565 
L 344.656378 237.337043 
L 353.002253 255.518609 
L 361.348128 260.477217 
L 369.694003 270.394435 
L 378.039878 281.964522 
L 386.385754 282.790957 
L 394.731629 291.881739 
" style="fill:none;stroke:#fa9ba4;stroke-linecap:square;stroke-width:2;"/>
   </g>
   <g id="line2d_2">
    <path clip-path="url(#p7fb95a75f6)" d="M 286.235251 164.610783 
L 294.581126 154.693565 
L 302.927002 167.090087 
L 311.272877 156.346435 
L 319.618752 180.313043 
L 327.964627 202.626783 
L 336.310502 211.717565 
L 344.656378 237.337043 
L 353.002253 255.518609 
L 361.348128 260.477217 
L 369.694003 270.394435 
L 378.039878 281.964522 
L 386.385754 282.790957 
L 394.731629 291.881739 
" style="fill:none;stroke:#dc3545;stroke-linecap:square;stroke-width:2;"/>
   </g>
  </g>
 </g>
 <defs>
  <clipPath id="p7fb95a75f6">
   <rect height="266.112" width="357.12" x="57.6" y="41.472"/>
  </clipPath>
 </defs>
</svg>
