<?xml version="1.0" encoding="utf-8" standalone="no"?>
<!DOCTYPE svg PUBLIC "-//W3C//DTD SVG 1.1//EN"
  "http://www.w3.org/Graphics/SVG/1.1/DTD/svg11.dtd">
<!-- Created with matplotlib (https://matplotlib.org/) -->
<svg height="345.6pt" version="1.1" viewBox="0 0 460.8 345.6" width="460.8pt" xmlns="http://www.w3.org/2000/svg" xmlns:xlink="http://www.w3.org/1999/xlink">
 <metadata>
  <rdf:RDF xmlns:cc="http://creativecommons.org/ns#" xmlns:dc="http://purl.org/dc/elements/1.1/" xmlns:rdf="http://www.w3.org/1999/02/22-rdf-syntax-ns#">
   <cc:Work>
    <dc:type rdf:resource="http://purl.org/dc/dcmitype/StillImage"/>
    <dc:date>2021-01-21T13:27:26.398486</dc:date>
    <dc:format>image/svg+xml</dc:format>
    <dc:creator>
     <cc:Agent>
      <dc:title>Matplotlib v3.3.3, https://matplotlib.org/</dc:title>
     </cc:Agent>
    </dc:creator>
   </cc:Work>
  </rdf:RDF>
 </metadata>
 <defs>
  <style type="text/css">*{stroke-linecap:butt;stroke-linejoin:round;}</style>
 </defs>
 <g id="figure_1">
  <g id="patch_1">
   <path d="M 0 345.6 
L 460.8 345.6 
L 460.8 0 
L 0 0 
z
" style="fill:none;"/>
  </g>
  <g id="axes_1">
   <g id="patch_2">
    <path clip-path="url(#p99e0781f19)" d="M 73.832727 307.584 
L 81.542202 307.584 
L 81.542202 307.584 
L 73.832727 307.584 
z
" style="fill:#fa9ba4;opacity:0.2;"/>
   </g>
   <g id="patch_3">
    <path clip-path="url(#p99e0781f19)" d="M 82.39881 307.584 
L 90.108285 307.584 
L 90.108285 307.584 
L 82.39881 307.584 
z
" style="fill:#fa9ba4;opacity:0.2;"/>
   </g>
   <g id="patch_4">
    <path clip-path="url(#p99e0781f19)" d="M 90.964893 307.584 
L 98.674368 307.584 
L 98.674368 301.798957 
L 90.964893 301.798957 
z
" style="fill:#fa9ba4;opacity:0.2;"/>
   </g>
   <g id="patch_5">
    <path clip-path="url(#p99e0781f19)" d="M 99.530976 307.584 
L 107.240451 307.584 
L 107.240451 307.584 
L 99.530976 307.584 
z
" style="fill:#fa9ba4;opacity:0.2;"/>
   </g>
   <g id="patch_6">
    <path clip-path="url(#p99e0781f19)" d="M 108.097059 307.584 
L 115.806534 307.584 
L 115.806534 296.013913 
L 108.097059 296.013913 
z
" style="fill:#fa9ba4;opacity:0.2;"/>
   </g>
   <g id="patch_7">
    <path clip-path="url(#p99e0781f19)" d="M 116.663142 307.584 
L 124.372617 307.584 
L 124.372617 301.798957 
L 116.663142 301.798957 
z
" style="fill:#fa9ba4;opacity:0.2;"/>
   </g>
   <g id="patch_8">
    <path clip-path="url(#p99e0781f19)" d="M 125.229225 307.584 
L 132.9387 307.584 
L 132.9387 284.443826 
L 125.229225 284.443826 
z
" style="fill:#fa9ba4;opacity:0.2;"/>
   </g>
   <g id="patch_9">
    <path clip-path="url(#p99e0781f19)" d="M 133.795308 307.584 
L 141.504783 307.584 
L 141.504783 301.798957 
L 133.795308 301.798957 
z
" style="fill:#fa9ba4;opacity:0.2;"/>
   </g>
   <g id="patch_10">
    <path clip-path="url(#p99e0781f19)" d="M 142.361391 307.584 
L 150.070866 307.584 
L 150.070866 290.22887 
L 142.361391 290.22887 
z
" style="fill:#fa9ba4;opacity:0.2;"/>
   </g>
   <g id="patch_11">
    <path clip-path="url(#p99e0781f19)" d="M 150.927474 307.584 
L 158.636949 307.584 
L 158.636949 267.088696 
L 150.927474 267.088696 
z
" style="fill:#fa9ba4;opacity:0.2;"/>
   </g>
   <g id="patch_12">
    <path clip-path="url(#p99e0781f19)" d="M 159.493557 307.584 
L 167.203032 307.584 
L 167.203032 290.22887 
L 159.493557 290.22887 
z
" style="fill:#fa9ba4;opacity:0.2;"/>
   </g>
   <g id="patch_13">
    <path clip-path="url(#p99e0781f19)" d="M 168.05964 307.584 
L 175.769115 307.584 
L 175.769115 243.948522 
L 168.05964 243.948522 
z
" style="fill:#fa9ba4;opacity:0.2;"/>
   </g>
   <g id="patch_14">
    <path clip-path="url(#p99e0781f19)" d="M 176.625723 307.584 
L 184.335198 307.584 
L 184.335198 284.443826 
L 176.625723 284.443826 
z
" style="fill:#fa9ba4;opacity:0.2;"/>
   </g>
   <g id="patch_15">
    <path clip-path="url(#p99e0781f19)" d="M 185.191806 307.584 
L 192.901281 307.584 
L 192.901281 278.658783 
L 185.191806 278.658783 
z
" style="fill:#fa9ba4;opacity:0.2;"/>
   </g>
   <g id="patch_16">
    <path clip-path="url(#p99e0781f19)" d="M 193.757889 307.584 
L 201.467364 307.584 
L 201.467364 267.088696 
L 193.757889 267.088696 
z
" style="fill:#fa9ba4;opacity:0.2;"/>
   </g>
   <g id="patch_17">
    <path clip-path="url(#p99e0781f19)" d="M 202.323972 307.584 
L 210.033447 307.584 
L 210.033447 301.798957 
L 202.323972 301.798957 
z
" style="fill:#fa9ba4;opacity:0.2;"/>
   </g>
   <g id="patch_18">
    <path clip-path="url(#p99e0781f19)" d="M 210.890055 307.584 
L 218.59953 307.584 
L 218.59953 261.303652 
L 210.890055 261.303652 
z
" style="fill:#fa9ba4;opacity:0.2;"/>
   </g>
   <g id="patch_19">
    <path clip-path="url(#p99e0781f19)" d="M 219.456138 307.584 
L 227.165613 307.584 
L 227.165613 238.163478 
L 219.456138 238.163478 
z
" style="fill:#fa9ba4;opacity:0.2;"/>
   </g>
   <g id="patch_20">
    <path clip-path="url(#p99e0781f19)" d="M 228.022221 307.584 
L 235.731696 307.584 
L 235.731696 174.528 
L 228.022221 174.528 
z
" style="fill:#fa9ba4;opacity:0.2;"/>
   </g>
   <g id="patch_21">
    <path clip-path="url(#p99e0781f19)" d="M 236.588304 307.584 
L 244.297779 307.584 
L 244.297779 243.948522 
L 236.588304 243.948522 
z
" style="fill:#fa9ba4;opacity:0.2;"/>
   </g>
   <g id="patch_22">
    <path clip-path="url(#p99e0781f19)" d="M 245.154387 307.584 
L 252.863862 307.584 
L 252.863862 168.742957 
L 245.154387 168.742957 
z
" style="fill:#fa9ba4;opacity:0.2;"/>
   </g>
   <g id="patch_23">
    <path clip-path="url(#p99e0781f19)" d="M 253.72047 307.584 
L 261.429945 307.584 
L 261.429945 307.584 
L 253.72047 307.584 
z
" style="fill:#fa9ba4;opacity:0.2;"/>
   </g>
   <g id="patch_24">
    <path clip-path="url(#p99e0781f19)" d="M 262.286553 307.584 
L 269.996028 307.584 
L 269.996028 41.472 
L 262.286553 41.472 
z
" style="fill:#fa9ba4;opacity:0.2;"/>
   </g>
   <g id="patch_25">
    <path clip-path="url(#p99e0781f19)" d="M 270.852636 307.584 
L 278.562111 307.584 
L 278.562111 116.677565 
L 270.852636 116.677565 
z
" style="fill:#fa9ba4;opacity:0.2;"/>
   </g>
   <g id="patch_26">
    <path clip-path="url(#p99e0781f19)" d="M 279.418719 307.584 
L 287.128194 307.584 
L 287.128194 162.957913 
L 279.418719 162.957913 
z
" style="fill:#fa9ba4;opacity:0.2;"/>
   </g>
   <g id="patch_27">
    <path clip-path="url(#p99e0781f19)" d="M 287.984802 307.584 
L 295.694277 307.584 
L 295.694277 110.892522 
L 287.984802 110.892522 
z
" style="fill:#fa9ba4;opacity:0.2;"/>
   </g>
   <g id="patch_28">
    <path clip-path="url(#p99e0781f19)" d="M 296.550885 307.584 
L 304.26036 307.584 
L 304.26036 174.528 
L 296.550885 174.528 
z
" style="fill:#fa9ba4;opacity:0.2;"/>
   </g>
   <g id="patch_29">
    <path clip-path="url(#p99e0781f19)" d="M 305.116968 307.584 
L 312.826443 307.584 
L 312.826443 255.518609 
L 305.116968 255.518609 
z
" style="fill:#fa9ba4;opacity:0.2;"/>
   </g>
   <g id="patch_30">
    <path clip-path="url(#p99e0781f19)" d="M 313.683051 307.584 
L 321.392526 307.584 
L 321.392526 232.378435 
L 313.683051 232.378435 
z
" style="fill:#fa9ba4;opacity:0.2;"/>
   </g>
   <g id="patch_31">
    <path clip-path="url(#p99e0781f19)" d="M 322.249134 307.584 
L 329.958609 307.584 
L 329.958609 209.238261 
L 322.249134 209.238261 
z
" style="fill:#fa9ba4;opacity:0.2;"/>
   </g>
   <g id="patch_32">
    <path clip-path="url(#p99e0781f19)" d="M 330.815217 307.584 
L 338.524692 307.584 
L 338.524692 272.873739 
L 330.815217 272.873739 
z
" style="fill:#fa9ba4;opacity:0.2;"/>
   </g>
   <g id="patch_33">
    <path clip-path="url(#p99e0781f19)" d="M 339.3813 307.584 
L 347.090775 307.584 
L 347.090775 226.593391 
L 339.3813 226.593391 
z
" style="fill:#fa9ba4;opacity:0.2;"/>
   </g>
   <g id="patch_34">
    <path clip-path="url(#p99e0781f19)" d="M 347.947383 307.584 
L 355.656858 307.584 
L 355.656858 290.22887 
L 347.947383 290.22887 
z
" style="fill:#fa9ba4;opacity:0.2;"/>
   </g>
   <g id="patch_35">
    <path clip-path="url(#p99e0781f19)" d="M 356.513466 307.584 
L 364.222941 307.584 
L 364.222941 301.798957 
L 356.513466 301.798957 
z
" style="fill:#fa9ba4;opacity:0.2;"/>
   </g>
   <g id="patch_36">
    <path clip-path="url(#p99e0781f19)" d="M 365.079549 307.584 
L 372.789024 307.584 
L 372.789024 290.22887 
L 365.079549 290.22887 
z
" style="fill:#fa9ba4;opacity:0.2;"/>
   </g>
   <g id="patch_37">
    <path clip-path="url(#p99e0781f19)" d="M 373.645632 307.584 
L 381.355107 307.584 
L 381.355107 301.798957 
L 373.645632 301.798957 
z
" style="fill:#fa9ba4;opacity:0.2;"/>
   </g>
   <g id="patch_38">
    <path clip-path="url(#p99e0781f19)" d="M 382.211715 307.584 
L 389.92119 307.584 
L 389.92119 290.22887 
L 382.211715 290.22887 
z
" style="fill:#fa9ba4;opacity:0.2;"/>
   </g>
   <g id="patch_39">
    <path clip-path="url(#p99e0781f19)" d="M 390.777798 307.584 
L 398.487273 307.584 
L 398.487273 278.658783 
L 390.777798 278.658783 
z
" style="fill:#fa9ba4;opacity:0.2;"/>
   </g>
   <g id="matplotlib.axis_1"/>
   <g id="matplotlib.axis_2"/>
   <g id="PolyCollection_1">
    <defs>
     <path d="M 283.273456 -171.898435 
L 283.273456 -38.016 
L 291.839539 -38.016 
L 300.405622 -38.016 
L 308.971705 -38.016 
L 317.537788 -38.016 
L 326.103871 -38.016 
L 334.669954 -38.016 
L 343.236037 -38.016 
L 351.80212 -38.016 
L 360.368203 -38.016 
L 368.934286 -38.016 
L 377.500369 -38.016 
L 386.066452 -38.016 
L 394.632535 -38.016 
L 394.632535 -62.809043 
L 394.632535 -62.809043 
L 386.066452 -63.635478 
L 377.500369 -75.205565 
L 368.934286 -85.122783 
L 360.368203 -90.081391 
L 351.80212 -108.262957 
L 343.236037 -133.882435 
L 334.669954 -142.973217 
L 326.103871 -165.286957 
L 317.537788 -189.253565 
L 308.971705 -178.509913 
L 300.405622 -190.906435 
L 291.839539 -180.989217 
L 283.273456 -171.898435 
z
" id="m7ab0d92818" style="stroke:#dc3545;stroke-opacity:0.5;"/>
    </defs>
    <g clip-path="url(#p99e0781f19)">
     <use style="fill:#dc3545;fill-opacity:0.5;stroke:#dc3545;stroke-opacity:0.5;" x="0" xlink:href="#m7ab0d92818" y="345.6"/>
    </g>
   </g>
   <g id="PolyCollection_2">
    <defs>
     <path d="M 129.083963 -44.627478 
L 129.083963 -38.016 
L 137.650046 -38.016 
L 146.216129 -38.016 
L 154.782212 -38.016 
L 163.348295 -38.016 
L 171.914378 -38.016 
L 180.480461 -38.016 
L 189.046544 -38.016 
L 197.612627 -38.016 
L 206.17871 -38.016 
L 214.744793 -38.016 
L 223.310876 -38.016 
L 231.876959 -38.016 
L 240.443041 -38.016 
L 249.009124 -38.016 
L 257.575207 -38.016 
L 266.14129 -38.016 
L 274.707373 -38.016 
L 283.273456 -38.016 
L 283.273456 -171.898435 
L 283.273456 -171.898435 
L 274.707373 -161.154783 
L 266.14129 -140.493913 
L 257.575207 -103.304348 
L 249.009124 -109.089391 
L 240.443041 -93.38713 
L 231.876959 -87.602087 
L 223.310876 -77.68487 
L 214.744793 -70.246957 
L 206.17871 -69.420522 
L 197.612627 -71.073391 
L 189.046544 -66.114783 
L 180.480461 -65.288348 
L 171.914378 -62.809043 
L 163.348295 -55.37113 
L 154.782212 -52.891826 
L 146.216129 -47.933217 
L 137.650046 -45.453913 
L 129.083963 -44.627478 
z
" id="m2c216f1d5a" style="stroke:#fa9ba4;stroke-opacity:0.3;"/>
    </defs>
    <g clip-path="url(#p99e0781f19)">
     <use style="fill:#fa9ba4;fill-opacity:0.3;stroke:#fa9ba4;stroke-opacity:0.3;" x="0" xlink:href="#m2c216f1d5a" y="345.6"/>
    </g>
   </g>
   <g id="line2d_1">
    <path clip-path="url(#p99e0781f19)" d="M 129.083963 300.972522 
L 137.650046 300.146087 
L 146.216129 297.666783 
L 154.782212 292.708174 
L 163.348295 290.22887 
L 171.914378 282.790957 
L 180.480461 280.311652 
L 189.046544 279.485217 
L 197.612627 274.526609 
L 206.17871 276.179478 
L 214.744793 275.353043 
L 223.310876 267.91513 
L 231.876959 257.997913 
L 240.443041 252.21287 
L 249.009124 236.510609 
L 257.575207 242.295652 
L 266.14129 205.106087 
L 274.707373 184.445217 
L 283.273456 173.701565 
L 291.839539 164.610783 
L 300.405622 154.693565 
L 308.971705 167.090087 
L 317.537788 156.346435 
L 326.103871 180.313043 
L 334.669954 202.626783 
L 343.236037 211.717565 
L 351.80212 237.337043 
L 360.368203 255.518609 
L 368.934286 260.477217 
L 377.500369 270.394435 
L 386.066452 281.964522 
L 394.632535 282.790957 
" style="fill:none;stroke:#fa9ba4;stroke-linecap:square;stroke-width:2;"/>
   </g>
   <g id="line2d_2">
    <path clip-path="url(#p99e0781f19)" d="M 283.273456 173.701565 
L 291.839539 164.610783 
L 300.405622 154.693565 
L 308.971705 167.090087 
L 317.537788 156.346435 
L 326.103871 180.313043 
L 334.669954 202.626783 
L 343.236037 211.717565 
L 351.80212 237.337043 
L 360.368203 255.518609 
L 368.934286 260.477217 
L 377.500369 270.394435 
L 386.066452 281.964522 
L 394.632535 282.790957 
" style="fill:none;stroke:#dc3545;stroke-linecap:square;stroke-width:2;"/>
   </g>
  </g>
 </g>
 <defs>
  <clipPath id="p99e0781f19">
   <rect height="266.112" width="357.12" x="57.6" y="41.472"/>
  </clipPath>
 </defs>
</svg>
