<?xml version="1.0" encoding="utf-8" standalone="no"?>
<!DOCTYPE svg PUBLIC "-//W3C//DTD SVG 1.1//EN"
  "http://www.w3.org/Graphics/SVG/1.1/DTD/svg11.dtd">
<!-- Created with matplotlib (https://matplotlib.org/) -->
<svg height="345.6pt" version="1.1" viewBox="0 0 460.8 345.6" width="460.8pt" xmlns="http://www.w3.org/2000/svg" xmlns:xlink="http://www.w3.org/1999/xlink">
 <defs>
  <style type="text/css">
*{stroke-linecap:butt;stroke-linejoin:round;}
  </style>
 </defs>
 <g id="figure_1">
  <g id="patch_1">
   <path d="M 0 345.6 
L 460.8 345.6 
L 460.8 0 
L 0 0 
z
" style="fill:none;"/>
  </g>
  <g id="axes_1">
   <g id="patch_2">
    <path clip-path="url(#pa213168942)" d="M 73.832727 307.584 
L 77.012152 307.584 
L 77.012152 307.584 
L 73.832727 307.584 
z
" style="fill:#fa9ba4;opacity:0.2;"/>
   </g>
   <g id="patch_3">
    <path clip-path="url(#pa213168942)" d="M 77.365421 307.584 
L 80.544845 307.584 
L 80.544845 307.584 
L 77.365421 307.584 
z
" style="fill:#fa9ba4;opacity:0.2;"/>
   </g>
   <g id="patch_4">
    <path clip-path="url(#pa213168942)" d="M 80.898115 307.584 
L 84.077539 307.584 
L 84.077539 307.584 
L 80.898115 307.584 
z
" style="fill:#fa9ba4;opacity:0.2;"/>
   </g>
   <g id="patch_5">
    <path clip-path="url(#pa213168942)" d="M 84.430808 307.584 
L 87.610232 307.584 
L 87.610232 307.584 
L 84.430808 307.584 
z
" style="fill:#fa9ba4;opacity:0.2;"/>
   </g>
   <g id="patch_6">
    <path clip-path="url(#pa213168942)" d="M 87.963502 307.584 
L 91.142926 307.584 
L 91.142926 307.584 
L 87.963502 307.584 
z
" style="fill:#fa9ba4;opacity:0.2;"/>
   </g>
   <g id="patch_7">
    <path clip-path="url(#pa213168942)" d="M 91.496195 307.584 
L 94.67562 307.584 
L 94.67562 307.584 
L 91.496195 307.584 
z
" style="fill:#fa9ba4;opacity:0.2;"/>
   </g>
   <g id="patch_8">
    <path clip-path="url(#pa213168942)" d="M 95.028889 307.584 
L 98.208313 307.584 
L 98.208313 307.584 
L 95.028889 307.584 
z
" style="fill:#fa9ba4;opacity:0.2;"/>
   </g>
   <g id="patch_9">
    <path clip-path="url(#pa213168942)" d="M 98.561583 307.584 
L 101.741007 307.584 
L 101.741007 307.584 
L 98.561583 307.584 
z
" style="fill:#fa9ba4;opacity:0.2;"/>
   </g>
   <g id="patch_10">
    <path clip-path="url(#pa213168942)" d="M 102.094276 307.584 
L 105.273701 307.584 
L 105.273701 307.584 
L 102.094276 307.584 
z
" style="fill:#fa9ba4;opacity:0.2;"/>
   </g>
   <g id="patch_11">
    <path clip-path="url(#pa213168942)" d="M 105.62697 307.584 
L 108.806394 307.584 
L 108.806394 307.584 
L 105.62697 307.584 
z
" style="fill:#fa9ba4;opacity:0.2;"/>
   </g>
   <g id="patch_12">
    <path clip-path="url(#pa213168942)" d="M 109.159664 307.584 
L 112.339088 307.584 
L 112.339088 307.584 
L 109.159664 307.584 
z
" style="fill:#fa9ba4;opacity:0.2;"/>
   </g>
   <g id="patch_13">
    <path clip-path="url(#pa213168942)" d="M 112.692357 307.584 
L 115.871782 307.584 
L 115.871782 307.584 
L 112.692357 307.584 
z
" style="fill:#fa9ba4;opacity:0.2;"/>
   </g>
   <g id="patch_14">
    <path clip-path="url(#pa213168942)" d="M 116.225051 307.584 
L 119.404475 307.584 
L 119.404475 307.584 
L 116.225051 307.584 
z
" style="fill:#fa9ba4;opacity:0.2;"/>
   </g>
   <g id="patch_15">
    <path clip-path="url(#pa213168942)" d="M 119.757745 307.584 
L 122.937169 307.584 
L 122.937169 307.584 
L 119.757745 307.584 
z
" style="fill:#fa9ba4;opacity:0.2;"/>
   </g>
   <g id="patch_16">
    <path clip-path="url(#pa213168942)" d="M 123.290438 307.584 
L 126.469862 307.584 
L 126.469862 307.584 
L 123.290438 307.584 
z
" style="fill:#fa9ba4;opacity:0.2;"/>
   </g>
   <g id="patch_17">
    <path clip-path="url(#pa213168942)" d="M 126.823132 307.584 
L 130.002556 307.584 
L 130.002556 41.472 
L 126.823132 41.472 
z
" style="fill:#fa9ba4;opacity:0.2;"/>
   </g>
   <g id="patch_18">
    <path clip-path="url(#pa213168942)" d="M 130.355826 307.584 
L 133.53525 307.584 
L 133.53525 307.584 
L 130.355826 307.584 
z
" style="fill:#fa9ba4;opacity:0.2;"/>
   </g>
   <g id="patch_19">
    <path clip-path="url(#pa213168942)" d="M 133.888519 307.584 
L 137.067943 307.584 
L 137.067943 307.584 
L 133.888519 307.584 
z
" style="fill:#fa9ba4;opacity:0.2;"/>
   </g>
   <g id="patch_20">
    <path clip-path="url(#pa213168942)" d="M 137.421213 307.584 
L 140.600637 307.584 
L 140.600637 307.584 
L 137.421213 307.584 
z
" style="fill:#fa9ba4;opacity:0.2;"/>
   </g>
   <g id="patch_21">
    <path clip-path="url(#pa213168942)" d="M 140.953906 307.584 
L 144.133331 307.584 
L 144.133331 41.472 
L 140.953906 41.472 
z
" style="fill:#fa9ba4;opacity:0.2;"/>
   </g>
   <g id="patch_22">
    <path clip-path="url(#pa213168942)" d="M 144.4866 307.584 
L 147.666024 307.584 
L 147.666024 307.584 
L 144.4866 307.584 
z
" style="fill:#fa9ba4;opacity:0.2;"/>
   </g>
   <g id="patch_23">
    <path clip-path="url(#pa213168942)" d="M 148.019294 307.584 
L 151.198718 307.584 
L 151.198718 307.584 
L 148.019294 307.584 
z
" style="fill:#fa9ba4;opacity:0.2;"/>
   </g>
   <g id="patch_24">
    <path clip-path="url(#pa213168942)" d="M 151.551987 307.584 
L 154.731412 307.584 
L 154.731412 307.584 
L 151.551987 307.584 
z
" style="fill:#fa9ba4;opacity:0.2;"/>
   </g>
   <g id="patch_25">
    <path clip-path="url(#pa213168942)" d="M 155.084681 307.584 
L 158.264105 307.584 
L 158.264105 307.584 
L 155.084681 307.584 
z
" style="fill:#fa9ba4;opacity:0.2;"/>
   </g>
   <g id="patch_26">
    <path clip-path="url(#pa213168942)" d="M 158.617375 307.584 
L 161.796799 307.584 
L 161.796799 307.584 
L 158.617375 307.584 
z
" style="fill:#fa9ba4;opacity:0.2;"/>
   </g>
   <g id="patch_27">
    <path clip-path="url(#pa213168942)" d="M 162.150068 307.584 
L 165.329493 307.584 
L 165.329493 307.584 
L 162.150068 307.584 
z
" style="fill:#fa9ba4;opacity:0.2;"/>
   </g>
   <g id="patch_28">
    <path clip-path="url(#pa213168942)" d="M 165.682762 307.584 
L 168.862186 307.584 
L 168.862186 307.584 
L 165.682762 307.584 
z
" style="fill:#fa9ba4;opacity:0.2;"/>
   </g>
   <g id="patch_29">
    <path clip-path="url(#pa213168942)" d="M 169.215456 307.584 
L 172.39488 307.584 
L 172.39488 307.584 
L 169.215456 307.584 
z
" style="fill:#fa9ba4;opacity:0.2;"/>
   </g>
   <g id="patch_30">
    <path clip-path="url(#pa213168942)" d="M 172.748149 307.584 
L 175.927573 307.584 
L 175.927573 307.584 
L 172.748149 307.584 
z
" style="fill:#fa9ba4;opacity:0.2;"/>
   </g>
   <g id="patch_31">
    <path clip-path="url(#pa213168942)" d="M 176.280843 307.584 
L 179.460267 307.584 
L 179.460267 307.584 
L 176.280843 307.584 
z
" style="fill:#fa9ba4;opacity:0.2;"/>
   </g>
   <g id="patch_32">
    <path clip-path="url(#pa213168942)" d="M 179.813536 307.584 
L 182.992961 307.584 
L 182.992961 307.584 
L 179.813536 307.584 
z
" style="fill:#fa9ba4;opacity:0.2;"/>
   </g>
   <g id="patch_33">
    <path clip-path="url(#pa213168942)" d="M 183.34623 307.584 
L 186.525654 307.584 
L 186.525654 307.584 
L 183.34623 307.584 
z
" style="fill:#fa9ba4;opacity:0.2;"/>
   </g>
   <g id="patch_34">
    <path clip-path="url(#pa213168942)" d="M 186.878924 307.584 
L 190.058348 307.584 
L 190.058348 307.584 
L 186.878924 307.584 
z
" style="fill:#fa9ba4;opacity:0.2;"/>
   </g>
   <g id="patch_35">
    <path clip-path="url(#pa213168942)" d="M 190.411617 307.584 
L 193.591042 307.584 
L 193.591042 307.584 
L 190.411617 307.584 
z
" style="fill:#fa9ba4;opacity:0.2;"/>
   </g>
   <g id="patch_36">
    <path clip-path="url(#pa213168942)" d="M 193.944311 307.584 
L 197.123735 307.584 
L 197.123735 307.584 
L 193.944311 307.584 
z
" style="fill:#fa9ba4;opacity:0.2;"/>
   </g>
   <g id="patch_37">
    <path clip-path="url(#pa213168942)" d="M 197.477005 307.584 
L 200.656429 307.584 
L 200.656429 307.584 
L 197.477005 307.584 
z
" style="fill:#fa9ba4;opacity:0.2;"/>
   </g>
   <g id="patch_38">
    <path clip-path="url(#pa213168942)" d="M 201.009698 307.584 
L 204.189123 307.584 
L 204.189123 307.584 
L 201.009698 307.584 
z
" style="fill:#fa9ba4;opacity:0.2;"/>
   </g>
   <g id="patch_39">
    <path clip-path="url(#pa213168942)" d="M 204.542392 307.584 
L 207.721816 307.584 
L 207.721816 307.584 
L 204.542392 307.584 
z
" style="fill:#fa9ba4;opacity:0.2;"/>
   </g>
   <g id="patch_40">
    <path clip-path="url(#pa213168942)" d="M 208.075086 307.584 
L 211.25451 307.584 
L 211.25451 307.584 
L 208.075086 307.584 
z
" style="fill:#fa9ba4;opacity:0.2;"/>
   </g>
   <g id="patch_41">
    <path clip-path="url(#pa213168942)" d="M 211.607779 307.584 
L 214.787203 307.584 
L 214.787203 307.584 
L 211.607779 307.584 
z
" style="fill:#fa9ba4;opacity:0.2;"/>
   </g>
   <g id="patch_42">
    <path clip-path="url(#pa213168942)" d="M 215.140473 307.584 
L 218.319897 307.584 
L 218.319897 307.584 
L 215.140473 307.584 
z
" style="fill:#fa9ba4;opacity:0.2;"/>
   </g>
   <g id="patch_43">
    <path clip-path="url(#pa213168942)" d="M 218.673166 307.584 
L 221.852591 307.584 
L 221.852591 307.584 
L 218.673166 307.584 
z
" style="fill:#fa9ba4;opacity:0.2;"/>
   </g>
   <g id="patch_44">
    <path clip-path="url(#pa213168942)" d="M 222.20586 307.584 
L 225.385284 307.584 
L 225.385284 307.584 
L 222.20586 307.584 
z
" style="fill:#fa9ba4;opacity:0.2;"/>
   </g>
   <g id="patch_45">
    <path clip-path="url(#pa213168942)" d="M 225.738554 307.584 
L 228.917978 307.584 
L 228.917978 307.584 
L 225.738554 307.584 
z
" style="fill:#fa9ba4;opacity:0.2;"/>
   </g>
   <g id="patch_46">
    <path clip-path="url(#pa213168942)" d="M 229.271247 307.584 
L 232.450672 307.584 
L 232.450672 307.584 
L 229.271247 307.584 
z
" style="fill:#fa9ba4;opacity:0.2;"/>
   </g>
   <g id="patch_47">
    <path clip-path="url(#pa213168942)" d="M 232.803941 307.584 
L 235.983365 307.584 
L 235.983365 307.584 
L 232.803941 307.584 
z
" style="fill:#fa9ba4;opacity:0.2;"/>
   </g>
   <g id="patch_48">
    <path clip-path="url(#pa213168942)" d="M 236.336635 307.584 
L 239.516059 307.584 
L 239.516059 307.584 
L 236.336635 307.584 
z
" style="fill:#fa9ba4;opacity:0.2;"/>
   </g>
   <g id="patch_49">
    <path clip-path="url(#pa213168942)" d="M 239.869328 307.584 
L 243.048753 307.584 
L 243.048753 307.584 
L 239.869328 307.584 
z
" style="fill:#fa9ba4;opacity:0.2;"/>
   </g>
   <g id="patch_50">
    <path clip-path="url(#pa213168942)" d="M 243.402022 307.584 
L 246.581446 307.584 
L 246.581446 307.584 
L 243.402022 307.584 
z
" style="fill:#fa9ba4;opacity:0.2;"/>
   </g>
   <g id="patch_51">
    <path clip-path="url(#pa213168942)" d="M 246.934716 307.584 
L 250.11414 307.584 
L 250.11414 307.584 
L 246.934716 307.584 
z
" style="fill:#fa9ba4;opacity:0.2;"/>
   </g>
   <g id="patch_52">
    <path clip-path="url(#pa213168942)" d="M 250.467409 307.584 
L 253.646834 307.584 
L 253.646834 307.584 
L 250.467409 307.584 
z
" style="fill:#fa9ba4;opacity:0.2;"/>
   </g>
   <g id="patch_53">
    <path clip-path="url(#pa213168942)" d="M 254.000103 307.584 
L 257.179527 307.584 
L 257.179527 307.584 
L 254.000103 307.584 
z
" style="fill:#fa9ba4;opacity:0.2;"/>
   </g>
   <g id="patch_54">
    <path clip-path="url(#pa213168942)" d="M 257.532797 307.584 
L 260.712221 307.584 
L 260.712221 307.584 
L 257.532797 307.584 
z
" style="fill:#fa9ba4;opacity:0.2;"/>
   </g>
   <g id="patch_55">
    <path clip-path="url(#pa213168942)" d="M 261.06549 307.584 
L 264.244914 307.584 
L 264.244914 307.584 
L 261.06549 307.584 
z
" style="fill:#fa9ba4;opacity:0.2;"/>
   </g>
   <g id="patch_56">
    <path clip-path="url(#pa213168942)" d="M 264.598184 307.584 
L 267.777608 307.584 
L 267.777608 307.584 
L 264.598184 307.584 
z
" style="fill:#fa9ba4;opacity:0.2;"/>
   </g>
   <g id="patch_57">
    <path clip-path="url(#pa213168942)" d="M 268.130877 307.584 
L 271.310302 307.584 
L 271.310302 307.584 
L 268.130877 307.584 
z
" style="fill:#fa9ba4;opacity:0.2;"/>
   </g>
   <g id="patch_58">
    <path clip-path="url(#pa213168942)" d="M 271.663571 307.584 
L 274.842995 307.584 
L 274.842995 307.584 
L 271.663571 307.584 
z
" style="fill:#fa9ba4;opacity:0.2;"/>
   </g>
   <g id="patch_59">
    <path clip-path="url(#pa213168942)" d="M 275.196265 307.584 
L 278.375689 307.584 
L 278.375689 307.584 
L 275.196265 307.584 
z
" style="fill:#fa9ba4;opacity:0.2;"/>
   </g>
   <g id="patch_60">
    <path clip-path="url(#pa213168942)" d="M 278.728958 307.584 
L 281.908383 307.584 
L 281.908383 307.584 
L 278.728958 307.584 
z
" style="fill:#fa9ba4;opacity:0.2;"/>
   </g>
   <g id="patch_61">
    <path clip-path="url(#pa213168942)" d="M 282.261652 307.584 
L 285.441076 307.584 
L 285.441076 307.584 
L 282.261652 307.584 
z
" style="fill:#fa9ba4;opacity:0.2;"/>
   </g>
   <g id="patch_62">
    <path clip-path="url(#pa213168942)" d="M 285.794346 307.584 
L 288.97377 307.584 
L 288.97377 307.584 
L 285.794346 307.584 
z
" style="fill:#fa9ba4;opacity:0.2;"/>
   </g>
   <g id="patch_63">
    <path clip-path="url(#pa213168942)" d="M 289.327039 307.584 
L 292.506464 307.584 
L 292.506464 307.584 
L 289.327039 307.584 
z
" style="fill:#fa9ba4;opacity:0.2;"/>
   </g>
   <g id="patch_64">
    <path clip-path="url(#pa213168942)" d="M 292.859733 307.584 
L 296.039157 307.584 
L 296.039157 307.584 
L 292.859733 307.584 
z
" style="fill:#fa9ba4;opacity:0.2;"/>
   </g>
   <g id="patch_65">
    <path clip-path="url(#pa213168942)" d="M 296.392427 307.584 
L 299.571851 307.584 
L 299.571851 307.584 
L 296.392427 307.584 
z
" style="fill:#fa9ba4;opacity:0.2;"/>
   </g>
   <g id="patch_66">
    <path clip-path="url(#pa213168942)" d="M 299.92512 307.584 
L 303.104544 307.584 
L 303.104544 307.584 
L 299.92512 307.584 
z
" style="fill:#fa9ba4;opacity:0.2;"/>
   </g>
   <g id="patch_67">
    <path clip-path="url(#pa213168942)" d="M 303.457814 307.584 
L 306.637238 307.584 
L 306.637238 307.584 
L 303.457814 307.584 
z
" style="fill:#fa9ba4;opacity:0.2;"/>
   </g>
   <g id="patch_68">
    <path clip-path="url(#pa213168942)" d="M 306.990507 307.584 
L 310.169932 307.584 
L 310.169932 307.584 
L 306.990507 307.584 
z
" style="fill:#fa9ba4;opacity:0.2;"/>
   </g>
   <g id="patch_69">
    <path clip-path="url(#pa213168942)" d="M 310.523201 307.584 
L 313.702625 307.584 
L 313.702625 307.584 
L 310.523201 307.584 
z
" style="fill:#fa9ba4;opacity:0.2;"/>
   </g>
   <g id="patch_70">
    <path clip-path="url(#pa213168942)" d="M 314.055895 307.584 
L 317.235319 307.584 
L 317.235319 307.584 
L 314.055895 307.584 
z
" style="fill:#fa9ba4;opacity:0.2;"/>
   </g>
   <g id="patch_71">
    <path clip-path="url(#pa213168942)" d="M 317.588588 307.584 
L 320.768013 307.584 
L 320.768013 307.584 
L 317.588588 307.584 
z
" style="fill:#fa9ba4;opacity:0.2;"/>
   </g>
   <g id="patch_72">
    <path clip-path="url(#pa213168942)" d="M 321.121282 307.584 
L 324.300706 307.584 
L 324.300706 307.584 
L 321.121282 307.584 
z
" style="fill:#fa9ba4;opacity:0.2;"/>
   </g>
   <g id="patch_73">
    <path clip-path="url(#pa213168942)" d="M 324.653976 307.584 
L 327.8334 307.584 
L 327.8334 307.584 
L 324.653976 307.584 
z
" style="fill:#fa9ba4;opacity:0.2;"/>
   </g>
   <g id="patch_74">
    <path clip-path="url(#pa213168942)" d="M 328.186669 307.584 
L 331.366094 307.584 
L 331.366094 307.584 
L 328.186669 307.584 
z
" style="fill:#fa9ba4;opacity:0.2;"/>
   </g>
   <g id="patch_75">
    <path clip-path="url(#pa213168942)" d="M 331.719363 307.584 
L 334.898787 307.584 
L 334.898787 307.584 
L 331.719363 307.584 
z
" style="fill:#fa9ba4;opacity:0.2;"/>
   </g>
   <g id="patch_76">
    <path clip-path="url(#pa213168942)" d="M 335.252057 307.584 
L 338.431481 307.584 
L 338.431481 307.584 
L 335.252057 307.584 
z
" style="fill:#fa9ba4;opacity:0.2;"/>
   </g>
   <g id="patch_77">
    <path clip-path="url(#pa213168942)" d="M 338.78475 307.584 
L 341.964174 307.584 
L 341.964174 307.584 
L 338.78475 307.584 
z
" style="fill:#fa9ba4;opacity:0.2;"/>
   </g>
   <g id="patch_78">
    <path clip-path="url(#pa213168942)" d="M 342.317444 307.584 
L 345.496868 307.584 
L 345.496868 307.584 
L 342.317444 307.584 
z
" style="fill:#fa9ba4;opacity:0.2;"/>
   </g>
   <g id="patch_79">
    <path clip-path="url(#pa213168942)" d="M 345.850138 307.584 
L 349.029562 307.584 
L 349.029562 307.584 
L 345.850138 307.584 
z
" style="fill:#fa9ba4;opacity:0.2;"/>
   </g>
   <g id="patch_80">
    <path clip-path="url(#pa213168942)" d="M 349.382831 307.584 
L 352.562255 307.584 
L 352.562255 307.584 
L 349.382831 307.584 
z
" style="fill:#fa9ba4;opacity:0.2;"/>
   </g>
   <g id="patch_81">
    <path clip-path="url(#pa213168942)" d="M 352.915525 307.584 
L 356.094949 307.584 
L 356.094949 307.584 
L 352.915525 307.584 
z
" style="fill:#fa9ba4;opacity:0.2;"/>
   </g>
   <g id="patch_82">
    <path clip-path="url(#pa213168942)" d="M 356.448218 307.584 
L 359.627643 307.584 
L 359.627643 307.584 
L 356.448218 307.584 
z
" style="fill:#fa9ba4;opacity:0.2;"/>
   </g>
   <g id="patch_83">
    <path clip-path="url(#pa213168942)" d="M 359.980912 307.584 
L 363.160336 307.584 
L 363.160336 307.584 
L 359.980912 307.584 
z
" style="fill:#fa9ba4;opacity:0.2;"/>
   </g>
   <g id="patch_84">
    <path clip-path="url(#pa213168942)" d="M 363.513606 307.584 
L 366.69303 307.584 
L 366.69303 307.584 
L 363.513606 307.584 
z
" style="fill:#fa9ba4;opacity:0.2;"/>
   </g>
   <g id="patch_85">
    <path clip-path="url(#pa213168942)" d="M 367.046299 307.584 
L 370.225724 307.584 
L 370.225724 307.584 
L 367.046299 307.584 
z
" style="fill:#fa9ba4;opacity:0.2;"/>
   </g>
   <g id="patch_86">
    <path clip-path="url(#pa213168942)" d="M 370.578993 307.584 
L 373.758417 307.584 
L 373.758417 307.584 
L 370.578993 307.584 
z
" style="fill:#fa9ba4;opacity:0.2;"/>
   </g>
   <g id="patch_87">
    <path clip-path="url(#pa213168942)" d="M 374.111687 307.584 
L 377.291111 307.584 
L 377.291111 307.584 
L 374.111687 307.584 
z
" style="fill:#fa9ba4;opacity:0.2;"/>
   </g>
   <g id="patch_88">
    <path clip-path="url(#pa213168942)" d="M 377.64438 307.584 
L 380.823805 307.584 
L 380.823805 307.584 
L 377.64438 307.584 
z
" style="fill:#fa9ba4;opacity:0.2;"/>
   </g>
   <g id="patch_89">
    <path clip-path="url(#pa213168942)" d="M 381.177074 307.584 
L 384.356498 307.584 
L 384.356498 307.584 
L 381.177074 307.584 
z
" style="fill:#fa9ba4;opacity:0.2;"/>
   </g>
   <g id="patch_90">
    <path clip-path="url(#pa213168942)" d="M 384.709768 307.584 
L 387.889192 307.584 
L 387.889192 307.584 
L 384.709768 307.584 
z
" style="fill:#fa9ba4;opacity:0.2;"/>
   </g>
   <g id="patch_91">
    <path clip-path="url(#pa213168942)" d="M 388.242461 307.584 
L 391.421885 307.584 
L 391.421885 307.584 
L 388.242461 307.584 
z
" style="fill:#fa9ba4;opacity:0.2;"/>
   </g>
   <g id="patch_92">
    <path clip-path="url(#pa213168942)" d="M 391.775155 307.584 
L 394.954579 307.584 
L 394.954579 307.584 
L 391.775155 307.584 
z
" style="fill:#fa9ba4;opacity:0.2;"/>
   </g>
   <g id="patch_93">
    <path clip-path="url(#pa213168942)" d="M 395.307848 307.584 
L 398.487273 307.584 
L 398.487273 307.584 
L 395.307848 307.584 
z
" style="fill:#fa9ba4;opacity:0.2;"/>
   </g>
   <g id="matplotlib.axis_1"/>
   <g id="matplotlib.axis_2"/>
   <g id="PolyCollection_1">
    <defs>
     <path d="M 350.972543 -38.016 
L 350.972543 -38.016 
L 354.505237 -38.016 
L 358.037931 -38.016 
L 361.570624 -38.016 
L 365.103318 -38.016 
L 368.636011 -38.016 
L 372.168705 -38.016 
L 375.701399 -38.016 
L 379.234092 -38.016 
L 382.766786 -38.016 
L 386.29948 -38.016 
L 389.832173 -38.016 
L 393.364867 -38.016 
L 396.897561 -38.016 
L 396.897561 -38.016 
L 396.897561 -38.016 
L 393.364867 -38.016 
L 389.832173 -38.016 
L 386.29948 -38.016 
L 382.766786 -38.016 
L 379.234092 -38.016 
L 375.701399 -38.016 
L 372.168705 -38.016 
L 368.636011 -38.016 
L 365.103318 -38.016 
L 361.570624 -38.016 
L 358.037931 -38.016 
L 354.505237 -38.016 
L 350.972543 -38.016 
z
" id="m6381c15734" style="stroke:#dc3545;stroke-opacity:0.5;"/>
    </defs>
    <g clip-path="url(#pa213168942)">
     <use style="fill:#dc3545;fill-opacity:0.5;stroke:#dc3545;stroke-opacity:0.5;" x="0" xlink:href="#m6381c15734" y="345.6"/>
    </g>
   </g>
   <g id="PolyCollection_2">
    <defs>
     <path d="M 96.618601 -38.016 
L 96.618601 -38.016 
L 100.151295 -38.016 
L 103.683989 -38.016 
L 107.216682 -38.016 
L 110.749376 -38.016 
L 114.282069 -38.016 
L 117.814763 -38.016 
L 121.347457 -38.016 
L 124.88015 -38.016 
L 128.412844 -38.016 
L 131.945538 -38.016 
L 135.478231 -38.016 
L 139.010925 -38.016 
L 142.543619 -38.016 
L 146.076312 -38.016 
L 149.609006 -38.016 
L 153.141699 -38.016 
L 156.674393 -38.016 
L 160.207087 -38.016 
L 163.73978 -38.016 
L 167.272474 -38.016 
L 170.805168 -38.016 
L 174.337861 -38.016 
L 177.870555 -38.016 
L 181.403249 -38.016 
L 184.935942 -38.016 
L 188.468636 -38.016 
L 192.00133 -38.016 
L 195.534023 -38.016 
L 199.066717 -38.016 
L 202.59941 -38.016 
L 206.132104 -38.016 
L 209.664798 -38.016 
L 213.197491 -38.016 
L 216.730185 -38.016 
L 220.262879 -38.016 
L 223.795572 -38.016 
L 227.328266 -38.016 
L 230.86096 -38.016 
L 234.393653 -38.016 
L 237.926347 -38.016 
L 241.45904 -38.016 
L 244.991734 -38.016 
L 248.524428 -38.016 
L 252.057121 -38.016 
L 255.589815 -38.016 
L 259.122509 -38.016 
L 262.655202 -38.016 
L 266.187896 -38.016 
L 269.72059 -38.016 
L 273.253283 -38.016 
L 276.785977 -38.016 
L 280.31867 -38.016 
L 283.851364 -38.016 
L 287.384058 -38.016 
L 290.916751 -38.016 
L 294.449445 -38.016 
L 297.982139 -38.016 
L 301.514832 -38.016 
L 305.047526 -38.016 
L 308.58022 -38.016 
L 312.112913 -38.016 
L 315.645607 -38.016 
L 319.178301 -38.016 
L 322.710994 -38.016 
L 326.243688 -38.016 
L 329.776381 -38.016 
L 333.309075 -38.016 
L 336.841769 -38.016 
L 340.374462 -38.016 
L 343.907156 -38.016 
L 347.43985 -38.016 
L 350.972543 -38.016 
L 350.972543 -38.016 
L 350.972543 -38.016 
L 347.43985 -38.016 
L 343.907156 -38.016 
L 340.374462 -38.016 
L 336.841769 -38.016 
L 333.309075 -38.016 
L 329.776381 -38.016 
L 326.243688 -38.016 
L 322.710994 -38.016 
L 319.178301 -38.016 
L 315.645607 -38.016 
L 312.112913 -38.016 
L 308.58022 -38.016 
L 305.047526 -38.016 
L 301.514832 -38.016 
L 297.982139 -38.016 
L 294.449445 -38.016 
L 290.916751 -38.016 
L 287.384058 -38.016 
L 283.851364 -38.016 
L 280.31867 -38.016 
L 276.785977 -38.016 
L 273.253283 -38.016 
L 269.72059 -38.016 
L 266.187896 -38.016 
L 262.655202 -38.016 
L 259.122509 -38.016 
L 255.589815 -38.016 
L 252.057121 -38.016 
L 248.524428 -38.016 
L 244.991734 -38.016 
L 241.45904 -38.016 
L 237.926347 -38.016 
L 234.393653 -38.016 
L 230.86096 -38.016 
L 227.328266 -38.016 
L 223.795572 -38.016 
L 220.262879 -38.016 
L 216.730185 -38.016 
L 213.197491 -38.016 
L 209.664798 -38.016 
L 206.132104 -38.016 
L 202.59941 -38.016 
L 199.066717 -38.016 
L 195.534023 -38.016 
L 192.00133 -38.016 
L 188.468636 -38.016 
L 184.935942 -38.016 
L 181.403249 -38.016 
L 177.870555 -38.016 
L 174.337861 -38.016 
L 170.805168 -38.016 
L 167.272474 -38.016 
L 163.73978 -76.032 
L 160.207087 -76.032 
L 156.674393 -76.032 
L 153.141699 -76.032 
L 149.609006 -114.048 
L 146.076312 -114.048 
L 142.543619 -114.048 
L 139.010925 -76.032 
L 135.478231 -76.032 
L 131.945538 -76.032 
L 128.412844 -76.032 
L 124.88015 -38.016 
L 121.347457 -38.016 
L 117.814763 -38.016 
L 114.282069 -38.016 
L 110.749376 -38.016 
L 107.216682 -38.016 
L 103.683989 -38.016 
L 100.151295 -38.016 
L 96.618601 -38.016 
z
" id="m4dd769dbac" style="stroke:#fa9ba4;stroke-opacity:0.3;"/>
    </defs>
    <g clip-path="url(#pa213168942)">
     <use style="fill:#fa9ba4;fill-opacity:0.3;stroke:#fa9ba4;stroke-opacity:0.3;" x="0" xlink:href="#m4dd769dbac" y="345.6"/>
    </g>
   </g>
   <g id="line2d_1">
    <path clip-path="url(#pa213168942)" d="M 96.618601 307.584 
L 100.151295 307.584 
L 103.683989 307.584 
L 107.216682 307.584 
L 110.749376 307.584 
L 114.282069 307.584 
L 117.814763 307.584 
L 121.347457 307.584 
L 124.88015 307.584 
L 128.412844 269.568 
L 131.945538 269.568 
L 135.478231 269.568 
L 139.010925 269.568 
L 142.543619 231.552 
L 146.076312 231.552 
L 149.609006 231.552 
L 153.141699 269.568 
L 156.674393 269.568 
L 160.207087 269.568 
L 163.73978 269.568 
L 167.272474 307.584 
L 170.805168 307.584 
L 174.337861 307.584 
L 177.870555 307.584 
L 181.403249 307.584 
L 184.935942 307.584 
L 188.468636 307.584 
L 192.00133 307.584 
L 195.534023 307.584 
L 199.066717 307.584 
L 202.59941 307.584 
L 206.132104 307.584 
L 209.664798 307.584 
L 213.197491 307.584 
L 216.730185 307.584 
L 220.262879 307.584 
L 223.795572 307.584 
L 227.328266 307.584 
L 230.86096 307.584 
L 234.393653 307.584 
L 237.926347 307.584 
L 241.45904 307.584 
L 244.991734 307.584 
L 248.524428 307.584 
L 252.057121 307.584 
L 255.589815 307.584 
L 259.122509 307.584 
L 262.655202 307.584 
L 266.187896 307.584 
L 269.72059 307.584 
L 273.253283 307.584 
L 276.785977 307.584 
L 280.31867 307.584 
L 283.851364 307.584 
L 287.384058 307.584 
L 290.916751 307.584 
L 294.449445 307.584 
L 297.982139 307.584 
L 301.514832 307.584 
L 305.047526 307.584 
L 308.58022 307.584 
L 312.112913 307.584 
L 315.645607 307.584 
L 319.178301 307.584 
L 322.710994 307.584 
L 326.243688 307.584 
L 329.776381 307.584 
L 333.309075 307.584 
L 336.841769 307.584 
L 340.374462 307.584 
L 343.907156 307.584 
L 347.43985 307.584 
L 350.972543 307.584 
L 354.505237 307.584 
L 358.037931 307.584 
L 361.570624 307.584 
L 365.103318 307.584 
L 368.636011 307.584 
L 372.168705 307.584 
L 375.701399 307.584 
L 379.234092 307.584 
L 382.766786 307.584 
L 386.29948 307.584 
L 389.832173 307.584 
L 393.364867 307.584 
L 396.897561 307.584 
" style="fill:none;stroke:#fa9ba4;stroke-linecap:square;stroke-width:2;"/>
   </g>
   <g id="line2d_2">
    <path clip-path="url(#pa213168942)" d="M 350.972543 307.584 
L 354.505237 307.584 
L 358.037931 307.584 
L 361.570624 307.584 
L 365.103318 307.584 
L 368.636011 307.584 
L 372.168705 307.584 
L 375.701399 307.584 
L 379.234092 307.584 
L 382.766786 307.584 
L 386.29948 307.584 
L 389.832173 307.584 
L 393.364867 307.584 
L 396.897561 307.584 
" style="fill:none;stroke:#dc3545;stroke-linecap:square;stroke-width:2;"/>
   </g>
  </g>
 </g>
 <defs>
  <clipPath id="pa213168942">
   <rect height="266.112" width="357.12" x="57.6" y="41.472"/>
  </clipPath>
 </defs>
</svg>
