<?xml version="1.0" encoding="utf-8" standalone="no"?>
<!DOCTYPE svg PUBLIC "-//W3C//DTD SVG 1.1//EN"
  "http://www.w3.org/Graphics/SVG/1.1/DTD/svg11.dtd">
<svg height="345.6pt" version="1.1" viewBox="0 0 460.8 345.6" width="460.8pt" xmlns="http://www.w3.org/2000/svg" xmlns:xlink="http://www.w3.org/1999/xlink">
 <metadata>
  <rdf:RDF xmlns:cc="http://creativecommons.org/ns#" xmlns:dc="http://purl.org/dc/elements/1.1/" xmlns:rdf="http://www.w3.org/1999/02/22-rdf-syntax-ns#">
   <cc:Work>
    <dc:type rdf:resource="http://purl.org/dc/dcmitype/StillImage"/>
    <dc:date>2021-05-07T13:23:07.717897</dc:date>
    <dc:format>image/svg+xml</dc:format>
    <dc:creator>
     <cc:Agent>
      <dc:title>Matplotlib v3.4.1, https://matplotlib.org/</dc:title>
     </cc:Agent>
    </dc:creator>
   </cc:Work>
  </rdf:RDF>
 </metadata>
 <defs>
  <style type="text/css">*{stroke-linecap:butt;stroke-linejoin:round;}</style>
 </defs>
 <g id="figure_1">
  <g id="patch_1">
   <path d="M 0 345.6 
L 460.8 345.6 
L 460.8 0 
L 0 0 
z
" style="fill:none;"/>
  </g>
  <g id="axes_1">
   <g id="patch_2">
    <path clip-path="url(#p0a8ad12aa7)" d="M 73.832727 307.584 
L 75.877437 307.584 
L 75.877437 307.584 
L 73.832727 307.584 
z
" style="fill:#fa9ba4;opacity:0.2;"/>
   </g>
   <g id="patch_3">
    <path clip-path="url(#p0a8ad12aa7)" d="M 76.104628 307.584 
L 78.149338 307.584 
L 78.149338 307.584 
L 76.104628 307.584 
z
" style="fill:#fa9ba4;opacity:0.2;"/>
   </g>
   <g id="patch_4">
    <path clip-path="url(#p0a8ad12aa7)" d="M 78.376528 307.584 
L 80.421238 307.584 
L 80.421238 307.584 
L 78.376528 307.584 
z
" style="fill:#fa9ba4;opacity:0.2;"/>
   </g>
   <g id="patch_5">
    <path clip-path="url(#p0a8ad12aa7)" d="M 80.648428 307.584 
L 82.693138 307.584 
L 82.693138 307.584 
L 80.648428 307.584 
z
" style="fill:#fa9ba4;opacity:0.2;"/>
   </g>
   <g id="patch_6">
    <path clip-path="url(#p0a8ad12aa7)" d="M 82.920328 307.584 
L 84.965038 307.584 
L 84.965038 307.584 
L 82.920328 307.584 
z
" style="fill:#fa9ba4;opacity:0.2;"/>
   </g>
   <g id="patch_7">
    <path clip-path="url(#p0a8ad12aa7)" d="M 85.192229 307.584 
L 87.236939 307.584 
L 87.236939 307.584 
L 85.192229 307.584 
z
" style="fill:#fa9ba4;opacity:0.2;"/>
   </g>
   <g id="patch_8">
    <path clip-path="url(#p0a8ad12aa7)" d="M 87.464129 307.584 
L 89.508839 307.584 
L 89.508839 307.584 
L 87.464129 307.584 
z
" style="fill:#fa9ba4;opacity:0.2;"/>
   </g>
   <g id="patch_9">
    <path clip-path="url(#p0a8ad12aa7)" d="M 89.736029 307.584 
L 91.780739 307.584 
L 91.780739 307.584 
L 89.736029 307.584 
z
" style="fill:#fa9ba4;opacity:0.2;"/>
   </g>
   <g id="patch_10">
    <path clip-path="url(#p0a8ad12aa7)" d="M 92.007929 307.584 
L 94.052639 307.584 
L 94.052639 307.584 
L 92.007929 307.584 
z
" style="fill:#fa9ba4;opacity:0.2;"/>
   </g>
   <g id="patch_11">
    <path clip-path="url(#p0a8ad12aa7)" d="M 94.27983 307.584 
L 96.32454 307.584 
L 96.32454 307.584 
L 94.27983 307.584 
z
" style="fill:#fa9ba4;opacity:0.2;"/>
   </g>
   <g id="patch_12">
    <path clip-path="url(#p0a8ad12aa7)" d="M 96.55173 307.584 
L 98.59644 307.584 
L 98.59644 307.584 
L 96.55173 307.584 
z
" style="fill:#fa9ba4;opacity:0.2;"/>
   </g>
   <g id="patch_13">
    <path clip-path="url(#p0a8ad12aa7)" d="M 98.82363 307.584 
L 100.86834 307.584 
L 100.86834 307.584 
L 98.82363 307.584 
z
" style="fill:#fa9ba4;opacity:0.2;"/>
   </g>
   <g id="patch_14">
    <path clip-path="url(#p0a8ad12aa7)" d="M 101.09553 307.584 
L 103.14024 307.584 
L 103.14024 307.584 
L 101.09553 307.584 
z
" style="fill:#fa9ba4;opacity:0.2;"/>
   </g>
   <g id="patch_15">
    <path clip-path="url(#p0a8ad12aa7)" d="M 103.36743 307.584 
L 105.412141 307.584 
L 105.412141 307.584 
L 103.36743 307.584 
z
" style="fill:#fa9ba4;opacity:0.2;"/>
   </g>
   <g id="patch_16">
    <path clip-path="url(#p0a8ad12aa7)" d="M 105.639331 307.584 
L 107.684041 307.584 
L 107.684041 307.584 
L 105.639331 307.584 
z
" style="fill:#fa9ba4;opacity:0.2;"/>
   </g>
   <g id="patch_17">
    <path clip-path="url(#p0a8ad12aa7)" d="M 107.911231 307.584 
L 109.955941 307.584 
L 109.955941 307.584 
L 107.911231 307.584 
z
" style="fill:#fa9ba4;opacity:0.2;"/>
   </g>
   <g id="patch_18">
    <path clip-path="url(#p0a8ad12aa7)" d="M 110.183131 307.584 
L 112.227841 307.584 
L 112.227841 307.584 
L 110.183131 307.584 
z
" style="fill:#fa9ba4;opacity:0.2;"/>
   </g>
   <g id="patch_19">
    <path clip-path="url(#p0a8ad12aa7)" d="M 112.455031 307.584 
L 114.499742 307.584 
L 114.499742 307.584 
L 112.455031 307.584 
z
" style="fill:#fa9ba4;opacity:0.2;"/>
   </g>
   <g id="patch_20">
    <path clip-path="url(#p0a8ad12aa7)" d="M 114.726932 307.584 
L 116.771642 307.584 
L 116.771642 307.584 
L 114.726932 307.584 
z
" style="fill:#fa9ba4;opacity:0.2;"/>
   </g>
   <g id="patch_21">
    <path clip-path="url(#p0a8ad12aa7)" d="M 116.998832 307.584 
L 119.043542 307.584 
L 119.043542 307.584 
L 116.998832 307.584 
z
" style="fill:#fa9ba4;opacity:0.2;"/>
   </g>
   <g id="patch_22">
    <path clip-path="url(#p0a8ad12aa7)" d="M 119.270732 307.584 
L 121.315442 307.584 
L 121.315442 307.584 
L 119.270732 307.584 
z
" style="fill:#fa9ba4;opacity:0.2;"/>
   </g>
   <g id="patch_23">
    <path clip-path="url(#p0a8ad12aa7)" d="M 121.542632 307.584 
L 123.587343 307.584 
L 123.587343 307.584 
L 121.542632 307.584 
z
" style="fill:#fa9ba4;opacity:0.2;"/>
   </g>
   <g id="patch_24">
    <path clip-path="url(#p0a8ad12aa7)" d="M 123.814533 307.584 
L 125.859243 307.584 
L 125.859243 307.584 
L 123.814533 307.584 
z
" style="fill:#fa9ba4;opacity:0.2;"/>
   </g>
   <g id="patch_25">
    <path clip-path="url(#p0a8ad12aa7)" d="M 126.086433 307.584 
L 128.131143 307.584 
L 128.131143 307.584 
L 126.086433 307.584 
z
" style="fill:#fa9ba4;opacity:0.2;"/>
   </g>
   <g id="patch_26">
    <path clip-path="url(#p0a8ad12aa7)" d="M 128.358333 307.584 
L 130.403043 307.584 
L 130.403043 307.584 
L 128.358333 307.584 
z
" style="fill:#fa9ba4;opacity:0.2;"/>
   </g>
   <g id="patch_27">
    <path clip-path="url(#p0a8ad12aa7)" d="M 130.630233 307.584 
L 132.674944 307.584 
L 132.674944 307.584 
L 130.630233 307.584 
z
" style="fill:#fa9ba4;opacity:0.2;"/>
   </g>
   <g id="patch_28">
    <path clip-path="url(#p0a8ad12aa7)" d="M 132.902134 307.584 
L 134.946844 307.584 
L 134.946844 307.584 
L 132.902134 307.584 
z
" style="fill:#fa9ba4;opacity:0.2;"/>
   </g>
   <g id="patch_29">
    <path clip-path="url(#p0a8ad12aa7)" d="M 135.174034 307.584 
L 137.218744 307.584 
L 137.218744 307.584 
L 135.174034 307.584 
z
" style="fill:#fa9ba4;opacity:0.2;"/>
   </g>
   <g id="patch_30">
    <path clip-path="url(#p0a8ad12aa7)" d="M 137.445934 307.584 
L 139.490644 307.584 
L 139.490644 307.584 
L 137.445934 307.584 
z
" style="fill:#fa9ba4;opacity:0.2;"/>
   </g>
   <g id="patch_31">
    <path clip-path="url(#p0a8ad12aa7)" d="M 139.717834 307.584 
L 141.762545 307.584 
L 141.762545 307.584 
L 139.717834 307.584 
z
" style="fill:#fa9ba4;opacity:0.2;"/>
   </g>
   <g id="patch_32">
    <path clip-path="url(#p0a8ad12aa7)" d="M 141.989735 307.584 
L 144.034445 307.584 
L 144.034445 307.584 
L 141.989735 307.584 
z
" style="fill:#fa9ba4;opacity:0.2;"/>
   </g>
   <g id="patch_33">
    <path clip-path="url(#p0a8ad12aa7)" d="M 144.261635 307.584 
L 146.306345 307.584 
L 146.306345 307.584 
L 144.261635 307.584 
z
" style="fill:#fa9ba4;opacity:0.2;"/>
   </g>
   <g id="patch_34">
    <path clip-path="url(#p0a8ad12aa7)" d="M 146.533535 307.584 
L 148.578245 307.584 
L 148.578245 307.584 
L 146.533535 307.584 
z
" style="fill:#fa9ba4;opacity:0.2;"/>
   </g>
   <g id="patch_35">
    <path clip-path="url(#p0a8ad12aa7)" d="M 148.805435 307.584 
L 150.850146 307.584 
L 150.850146 307.584 
L 148.805435 307.584 
z
" style="fill:#fa9ba4;opacity:0.2;"/>
   </g>
   <g id="patch_36">
    <path clip-path="url(#p0a8ad12aa7)" d="M 151.077336 307.584 
L 153.122046 307.584 
L 153.122046 307.584 
L 151.077336 307.584 
z
" style="fill:#fa9ba4;opacity:0.2;"/>
   </g>
   <g id="patch_37">
    <path clip-path="url(#p0a8ad12aa7)" d="M 153.349236 307.584 
L 155.393946 307.584 
L 155.393946 307.584 
L 153.349236 307.584 
z
" style="fill:#fa9ba4;opacity:0.2;"/>
   </g>
   <g id="patch_38">
    <path clip-path="url(#p0a8ad12aa7)" d="M 155.621136 307.584 
L 157.665846 307.584 
L 157.665846 307.584 
L 155.621136 307.584 
z
" style="fill:#fa9ba4;opacity:0.2;"/>
   </g>
   <g id="patch_39">
    <path clip-path="url(#p0a8ad12aa7)" d="M 157.893036 307.584 
L 159.937747 307.584 
L 159.937747 307.584 
L 157.893036 307.584 
z
" style="fill:#fa9ba4;opacity:0.2;"/>
   </g>
   <g id="patch_40">
    <path clip-path="url(#p0a8ad12aa7)" d="M 160.164937 307.584 
L 162.209647 307.584 
L 162.209647 307.584 
L 160.164937 307.584 
z
" style="fill:#fa9ba4;opacity:0.2;"/>
   </g>
   <g id="patch_41">
    <path clip-path="url(#p0a8ad12aa7)" d="M 162.436837 307.584 
L 164.481547 307.584 
L 164.481547 307.584 
L 162.436837 307.584 
z
" style="fill:#fa9ba4;opacity:0.2;"/>
   </g>
   <g id="patch_42">
    <path clip-path="url(#p0a8ad12aa7)" d="M 164.708737 307.584 
L 166.753447 307.584 
L 166.753447 307.584 
L 164.708737 307.584 
z
" style="fill:#fa9ba4;opacity:0.2;"/>
   </g>
   <g id="patch_43">
    <path clip-path="url(#p0a8ad12aa7)" d="M 166.980637 307.584 
L 169.025348 307.584 
L 169.025348 307.584 
L 166.980637 307.584 
z
" style="fill:#fa9ba4;opacity:0.2;"/>
   </g>
   <g id="patch_44">
    <path clip-path="url(#p0a8ad12aa7)" d="M 169.252538 307.584 
L 171.297248 307.584 
L 171.297248 307.584 
L 169.252538 307.584 
z
" style="fill:#fa9ba4;opacity:0.2;"/>
   </g>
   <g id="patch_45">
    <path clip-path="url(#p0a8ad12aa7)" d="M 171.524438 307.584 
L 173.569148 307.584 
L 173.569148 307.584 
L 171.524438 307.584 
z
" style="fill:#fa9ba4;opacity:0.2;"/>
   </g>
   <g id="patch_46">
    <path clip-path="url(#p0a8ad12aa7)" d="M 173.796338 307.584 
L 175.841048 307.584 
L 175.841048 307.584 
L 173.796338 307.584 
z
" style="fill:#fa9ba4;opacity:0.2;"/>
   </g>
   <g id="patch_47">
    <path clip-path="url(#p0a8ad12aa7)" d="M 176.068238 307.584 
L 178.112949 307.584 
L 178.112949 307.584 
L 176.068238 307.584 
z
" style="fill:#fa9ba4;opacity:0.2;"/>
   </g>
   <g id="patch_48">
    <path clip-path="url(#p0a8ad12aa7)" d="M 178.340139 307.584 
L 180.384849 307.584 
L 180.384849 307.584 
L 178.340139 307.584 
z
" style="fill:#fa9ba4;opacity:0.2;"/>
   </g>
   <g id="patch_49">
    <path clip-path="url(#p0a8ad12aa7)" d="M 180.612039 307.584 
L 182.656749 307.584 
L 182.656749 307.584 
L 180.612039 307.584 
z
" style="fill:#fa9ba4;opacity:0.2;"/>
   </g>
   <g id="patch_50">
    <path clip-path="url(#p0a8ad12aa7)" d="M 182.883939 307.584 
L 184.928649 307.584 
L 184.928649 307.584 
L 182.883939 307.584 
z
" style="fill:#fa9ba4;opacity:0.2;"/>
   </g>
   <g id="patch_51">
    <path clip-path="url(#p0a8ad12aa7)" d="M 185.155839 307.584 
L 187.20055 307.584 
L 187.20055 307.584 
L 185.155839 307.584 
z
" style="fill:#fa9ba4;opacity:0.2;"/>
   </g>
   <g id="patch_52">
    <path clip-path="url(#p0a8ad12aa7)" d="M 187.42774 307.584 
L 189.47245 307.584 
L 189.47245 307.584 
L 187.42774 307.584 
z
" style="fill:#fa9ba4;opacity:0.2;"/>
   </g>
   <g id="patch_53">
    <path clip-path="url(#p0a8ad12aa7)" d="M 189.69964 307.584 
L 191.74435 307.584 
L 191.74435 307.584 
L 189.69964 307.584 
z
" style="fill:#fa9ba4;opacity:0.2;"/>
   </g>
   <g id="patch_54">
    <path clip-path="url(#p0a8ad12aa7)" d="M 191.97154 307.584 
L 194.01625 307.584 
L 194.01625 307.584 
L 191.97154 307.584 
z
" style="fill:#fa9ba4;opacity:0.2;"/>
   </g>
   <g id="patch_55">
    <path clip-path="url(#p0a8ad12aa7)" d="M 194.24344 307.584 
L 196.288151 307.584 
L 196.288151 307.584 
L 194.24344 307.584 
z
" style="fill:#fa9ba4;opacity:0.2;"/>
   </g>
   <g id="patch_56">
    <path clip-path="url(#p0a8ad12aa7)" d="M 196.515341 307.584 
L 198.560051 307.584 
L 198.560051 307.584 
L 196.515341 307.584 
z
" style="fill:#fa9ba4;opacity:0.2;"/>
   </g>
   <g id="patch_57">
    <path clip-path="url(#p0a8ad12aa7)" d="M 198.787241 307.584 
L 200.831951 307.584 
L 200.831951 307.584 
L 198.787241 307.584 
z
" style="fill:#fa9ba4;opacity:0.2;"/>
   </g>
   <g id="patch_58">
    <path clip-path="url(#p0a8ad12aa7)" d="M 201.059141 307.584 
L 203.103851 307.584 
L 203.103851 307.584 
L 201.059141 307.584 
z
" style="fill:#fa9ba4;opacity:0.2;"/>
   </g>
   <g id="patch_59">
    <path clip-path="url(#p0a8ad12aa7)" d="M 203.331041 307.584 
L 205.375752 307.584 
L 205.375752 307.584 
L 203.331041 307.584 
z
" style="fill:#fa9ba4;opacity:0.2;"/>
   </g>
   <g id="patch_60">
    <path clip-path="url(#p0a8ad12aa7)" d="M 205.602942 307.584 
L 207.647652 307.584 
L 207.647652 307.584 
L 205.602942 307.584 
z
" style="fill:#fa9ba4;opacity:0.2;"/>
   </g>
   <g id="patch_61">
    <path clip-path="url(#p0a8ad12aa7)" d="M 207.874842 307.584 
L 209.919552 307.584 
L 209.919552 307.584 
L 207.874842 307.584 
z
" style="fill:#fa9ba4;opacity:0.2;"/>
   </g>
   <g id="patch_62">
    <path clip-path="url(#p0a8ad12aa7)" d="M 210.146742 307.584 
L 212.191452 307.584 
L 212.191452 307.584 
L 210.146742 307.584 
z
" style="fill:#fa9ba4;opacity:0.2;"/>
   </g>
   <g id="patch_63">
    <path clip-path="url(#p0a8ad12aa7)" d="M 212.418642 307.584 
L 214.463353 307.584 
L 214.463353 307.584 
L 212.418642 307.584 
z
" style="fill:#fa9ba4;opacity:0.2;"/>
   </g>
   <g id="patch_64">
    <path clip-path="url(#p0a8ad12aa7)" d="M 214.690543 307.584 
L 216.735253 307.584 
L 216.735253 307.584 
L 214.690543 307.584 
z
" style="fill:#fa9ba4;opacity:0.2;"/>
   </g>
   <g id="patch_65">
    <path clip-path="url(#p0a8ad12aa7)" d="M 216.962443 307.584 
L 219.007153 307.584 
L 219.007153 307.584 
L 216.962443 307.584 
z
" style="fill:#fa9ba4;opacity:0.2;"/>
   </g>
   <g id="patch_66">
    <path clip-path="url(#p0a8ad12aa7)" d="M 219.234343 307.584 
L 221.279053 307.584 
L 221.279053 307.584 
L 219.234343 307.584 
z
" style="fill:#fa9ba4;opacity:0.2;"/>
   </g>
   <g id="patch_67">
    <path clip-path="url(#p0a8ad12aa7)" d="M 221.506243 307.584 
L 223.550954 307.584 
L 223.550954 307.584 
L 221.506243 307.584 
z
" style="fill:#fa9ba4;opacity:0.2;"/>
   </g>
   <g id="patch_68">
    <path clip-path="url(#p0a8ad12aa7)" d="M 223.778144 307.584 
L 225.822854 307.584 
L 225.822854 307.584 
L 223.778144 307.584 
z
" style="fill:#fa9ba4;opacity:0.2;"/>
   </g>
   <g id="patch_69">
    <path clip-path="url(#p0a8ad12aa7)" d="M 226.050044 307.584 
L 228.094754 307.584 
L 228.094754 307.584 
L 226.050044 307.584 
z
" style="fill:#fa9ba4;opacity:0.2;"/>
   </g>
   <g id="patch_70">
    <path clip-path="url(#p0a8ad12aa7)" d="M 228.321944 307.584 
L 230.366654 307.584 
L 230.366654 307.584 
L 228.321944 307.584 
z
" style="fill:#fa9ba4;opacity:0.2;"/>
   </g>
   <g id="patch_71">
    <path clip-path="url(#p0a8ad12aa7)" d="M 230.593844 307.584 
L 232.638555 307.584 
L 232.638555 307.584 
L 230.593844 307.584 
z
" style="fill:#fa9ba4;opacity:0.2;"/>
   </g>
   <g id="patch_72">
    <path clip-path="url(#p0a8ad12aa7)" d="M 232.865745 307.584 
L 234.910455 307.584 
L 234.910455 307.584 
L 232.865745 307.584 
z
" style="fill:#fa9ba4;opacity:0.2;"/>
   </g>
   <g id="patch_73">
    <path clip-path="url(#p0a8ad12aa7)" d="M 235.137645 307.584 
L 237.182355 307.584 
L 237.182355 307.584 
L 235.137645 307.584 
z
" style="fill:#fa9ba4;opacity:0.2;"/>
   </g>
   <g id="patch_74">
    <path clip-path="url(#p0a8ad12aa7)" d="M 237.409545 307.584 
L 239.454255 307.584 
L 239.454255 307.584 
L 237.409545 307.584 
z
" style="fill:#fa9ba4;opacity:0.2;"/>
   </g>
   <g id="patch_75">
    <path clip-path="url(#p0a8ad12aa7)" d="M 239.681445 307.584 
L 241.726156 307.584 
L 241.726156 307.584 
L 239.681445 307.584 
z
" style="fill:#fa9ba4;opacity:0.2;"/>
   </g>
   <g id="patch_76">
    <path clip-path="url(#p0a8ad12aa7)" d="M 241.953346 307.584 
L 243.998056 307.584 
L 243.998056 307.584 
L 241.953346 307.584 
z
" style="fill:#fa9ba4;opacity:0.2;"/>
   </g>
   <g id="patch_77">
    <path clip-path="url(#p0a8ad12aa7)" d="M 244.225246 307.584 
L 246.269956 307.584 
L 246.269956 307.584 
L 244.225246 307.584 
z
" style="fill:#fa9ba4;opacity:0.2;"/>
   </g>
   <g id="patch_78">
    <path clip-path="url(#p0a8ad12aa7)" d="M 246.497146 307.584 
L 248.541856 307.584 
L 248.541856 307.584 
L 246.497146 307.584 
z
" style="fill:#fa9ba4;opacity:0.2;"/>
   </g>
   <g id="patch_79">
    <path clip-path="url(#p0a8ad12aa7)" d="M 248.769046 307.584 
L 250.813757 307.584 
L 250.813757 307.584 
L 248.769046 307.584 
z
" style="fill:#fa9ba4;opacity:0.2;"/>
   </g>
   <g id="patch_80">
    <path clip-path="url(#p0a8ad12aa7)" d="M 251.040947 307.584 
L 253.085657 307.584 
L 253.085657 307.584 
L 251.040947 307.584 
z
" style="fill:#fa9ba4;opacity:0.2;"/>
   </g>
   <g id="patch_81">
    <path clip-path="url(#p0a8ad12aa7)" d="M 253.312847 307.584 
L 255.357557 307.584 
L 255.357557 307.584 
L 253.312847 307.584 
z
" style="fill:#fa9ba4;opacity:0.2;"/>
   </g>
   <g id="patch_82">
    <path clip-path="url(#p0a8ad12aa7)" d="M 255.584747 307.584 
L 257.629457 307.584 
L 257.629457 307.584 
L 255.584747 307.584 
z
" style="fill:#fa9ba4;opacity:0.2;"/>
   </g>
   <g id="patch_83">
    <path clip-path="url(#p0a8ad12aa7)" d="M 257.856647 307.584 
L 259.901358 307.584 
L 259.901358 307.584 
L 257.856647 307.584 
z
" style="fill:#fa9ba4;opacity:0.2;"/>
   </g>
   <g id="patch_84">
    <path clip-path="url(#p0a8ad12aa7)" d="M 260.128548 307.584 
L 262.173258 307.584 
L 262.173258 307.584 
L 260.128548 307.584 
z
" style="fill:#fa9ba4;opacity:0.2;"/>
   </g>
   <g id="patch_85">
    <path clip-path="url(#p0a8ad12aa7)" d="M 262.400448 307.584 
L 264.445158 307.584 
L 264.445158 307.584 
L 262.400448 307.584 
z
" style="fill:#fa9ba4;opacity:0.2;"/>
   </g>
   <g id="patch_86">
    <path clip-path="url(#p0a8ad12aa7)" d="M 264.672348 307.584 
L 266.717058 307.584 
L 266.717058 307.584 
L 264.672348 307.584 
z
" style="fill:#fa9ba4;opacity:0.2;"/>
   </g>
   <g id="patch_87">
    <path clip-path="url(#p0a8ad12aa7)" d="M 266.944248 307.584 
L 268.988959 307.584 
L 268.988959 307.584 
L 266.944248 307.584 
z
" style="fill:#fa9ba4;opacity:0.2;"/>
   </g>
   <g id="patch_88">
    <path clip-path="url(#p0a8ad12aa7)" d="M 269.216149 307.584 
L 271.260859 307.584 
L 271.260859 307.584 
L 269.216149 307.584 
z
" style="fill:#fa9ba4;opacity:0.2;"/>
   </g>
   <g id="patch_89">
    <path clip-path="url(#p0a8ad12aa7)" d="M 271.488049 307.584 
L 273.532759 307.584 
L 273.532759 307.584 
L 271.488049 307.584 
z
" style="fill:#fa9ba4;opacity:0.2;"/>
   </g>
   <g id="patch_90">
    <path clip-path="url(#p0a8ad12aa7)" d="M 273.759949 307.584 
L 275.804659 307.584 
L 275.804659 307.584 
L 273.759949 307.584 
z
" style="fill:#fa9ba4;opacity:0.2;"/>
   </g>
   <g id="patch_91">
    <path clip-path="url(#p0a8ad12aa7)" d="M 276.031849 307.584 
L 278.07656 307.584 
L 278.07656 307.584 
L 276.031849 307.584 
z
" style="fill:#fa9ba4;opacity:0.2;"/>
   </g>
   <g id="patch_92">
    <path clip-path="url(#p0a8ad12aa7)" d="M 278.30375 307.584 
L 280.34846 307.584 
L 280.34846 307.584 
L 278.30375 307.584 
z
" style="fill:#fa9ba4;opacity:0.2;"/>
   </g>
   <g id="patch_93">
    <path clip-path="url(#p0a8ad12aa7)" d="M 280.57565 307.584 
L 282.62036 307.584 
L 282.62036 307.584 
L 280.57565 307.584 
z
" style="fill:#fa9ba4;opacity:0.2;"/>
   </g>
   <g id="patch_94">
    <path clip-path="url(#p0a8ad12aa7)" d="M 282.84755 307.584 
L 284.89226 307.584 
L 284.89226 307.584 
L 282.84755 307.584 
z
" style="fill:#fa9ba4;opacity:0.2;"/>
   </g>
   <g id="patch_95">
    <path clip-path="url(#p0a8ad12aa7)" d="M 285.11945 307.584 
L 287.164161 307.584 
L 287.164161 307.584 
L 285.11945 307.584 
z
" style="fill:#fa9ba4;opacity:0.2;"/>
   </g>
   <g id="patch_96">
    <path clip-path="url(#p0a8ad12aa7)" d="M 287.391351 307.584 
L 289.436061 307.584 
L 289.436061 307.584 
L 287.391351 307.584 
z
" style="fill:#fa9ba4;opacity:0.2;"/>
   </g>
   <g id="patch_97">
    <path clip-path="url(#p0a8ad12aa7)" d="M 289.663251 307.584 
L 291.707961 307.584 
L 291.707961 307.584 
L 289.663251 307.584 
z
" style="fill:#fa9ba4;opacity:0.2;"/>
   </g>
   <g id="patch_98">
    <path clip-path="url(#p0a8ad12aa7)" d="M 291.935151 307.584 
L 293.979861 307.584 
L 293.979861 307.584 
L 291.935151 307.584 
z
" style="fill:#fa9ba4;opacity:0.2;"/>
   </g>
   <g id="patch_99">
    <path clip-path="url(#p0a8ad12aa7)" d="M 294.207051 307.584 
L 296.251762 307.584 
L 296.251762 307.584 
L 294.207051 307.584 
z
" style="fill:#fa9ba4;opacity:0.2;"/>
   </g>
   <g id="patch_100">
    <path clip-path="url(#p0a8ad12aa7)" d="M 296.478952 307.584 
L 298.523662 307.584 
L 298.523662 307.584 
L 296.478952 307.584 
z
" style="fill:#fa9ba4;opacity:0.2;"/>
   </g>
   <g id="patch_101">
    <path clip-path="url(#p0a8ad12aa7)" d="M 298.750852 307.584 
L 300.795562 307.584 
L 300.795562 307.584 
L 298.750852 307.584 
z
" style="fill:#fa9ba4;opacity:0.2;"/>
   </g>
   <g id="patch_102">
    <path clip-path="url(#p0a8ad12aa7)" d="M 301.022752 307.584 
L 303.067462 307.584 
L 303.067462 307.584 
L 301.022752 307.584 
z
" style="fill:#fa9ba4;opacity:0.2;"/>
   </g>
   <g id="patch_103">
    <path clip-path="url(#p0a8ad12aa7)" d="M 303.294652 307.584 
L 305.339363 307.584 
L 305.339363 307.584 
L 303.294652 307.584 
z
" style="fill:#fa9ba4;opacity:0.2;"/>
   </g>
   <g id="patch_104">
    <path clip-path="url(#p0a8ad12aa7)" d="M 305.566553 307.584 
L 307.611263 307.584 
L 307.611263 307.584 
L 305.566553 307.584 
z
" style="fill:#fa9ba4;opacity:0.2;"/>
   </g>
   <g id="patch_105">
    <path clip-path="url(#p0a8ad12aa7)" d="M 307.838453 307.584 
L 309.883163 307.584 
L 309.883163 307.584 
L 307.838453 307.584 
z
" style="fill:#fa9ba4;opacity:0.2;"/>
   </g>
   <g id="patch_106">
    <path clip-path="url(#p0a8ad12aa7)" d="M 310.110353 307.584 
L 312.155063 307.584 
L 312.155063 307.584 
L 310.110353 307.584 
z
" style="fill:#fa9ba4;opacity:0.2;"/>
   </g>
   <g id="patch_107">
    <path clip-path="url(#p0a8ad12aa7)" d="M 312.382253 307.584 
L 314.426964 307.584 
L 314.426964 307.584 
L 312.382253 307.584 
z
" style="fill:#fa9ba4;opacity:0.2;"/>
   </g>
   <g id="patch_108">
    <path clip-path="url(#p0a8ad12aa7)" d="M 314.654154 307.584 
L 316.698864 307.584 
L 316.698864 307.584 
L 314.654154 307.584 
z
" style="fill:#fa9ba4;opacity:0.2;"/>
   </g>
   <g id="patch_109">
    <path clip-path="url(#p0a8ad12aa7)" d="M 316.926054 307.584 
L 318.970764 307.584 
L 318.970764 307.584 
L 316.926054 307.584 
z
" style="fill:#fa9ba4;opacity:0.2;"/>
   </g>
   <g id="patch_110">
    <path clip-path="url(#p0a8ad12aa7)" d="M 319.197954 307.584 
L 321.242664 307.584 
L 321.242664 307.584 
L 319.197954 307.584 
z
" style="fill:#fa9ba4;opacity:0.2;"/>
   </g>
   <g id="patch_111">
    <path clip-path="url(#p0a8ad12aa7)" d="M 321.469854 307.584 
L 323.514565 307.584 
L 323.514565 307.584 
L 321.469854 307.584 
z
" style="fill:#fa9ba4;opacity:0.2;"/>
   </g>
   <g id="patch_112">
    <path clip-path="url(#p0a8ad12aa7)" d="M 323.741755 307.584 
L 325.786465 307.584 
L 325.786465 307.584 
L 323.741755 307.584 
z
" style="fill:#fa9ba4;opacity:0.2;"/>
   </g>
   <g id="patch_113">
    <path clip-path="url(#p0a8ad12aa7)" d="M 326.013655 307.584 
L 328.058365 307.584 
L 328.058365 307.584 
L 326.013655 307.584 
z
" style="fill:#fa9ba4;opacity:0.2;"/>
   </g>
   <g id="patch_114">
    <path clip-path="url(#p0a8ad12aa7)" d="M 328.285555 307.584 
L 330.330265 307.584 
L 330.330265 307.584 
L 328.285555 307.584 
z
" style="fill:#fa9ba4;opacity:0.2;"/>
   </g>
   <g id="patch_115">
    <path clip-path="url(#p0a8ad12aa7)" d="M 330.557455 307.584 
L 332.602166 307.584 
L 332.602166 307.584 
L 330.557455 307.584 
z
" style="fill:#fa9ba4;opacity:0.2;"/>
   </g>
   <g id="patch_116">
    <path clip-path="url(#p0a8ad12aa7)" d="M 332.829356 307.584 
L 334.874066 307.584 
L 334.874066 307.584 
L 332.829356 307.584 
z
" style="fill:#fa9ba4;opacity:0.2;"/>
   </g>
   <g id="patch_117">
    <path clip-path="url(#p0a8ad12aa7)" d="M 335.101256 307.584 
L 337.145966 307.584 
L 337.145966 307.584 
L 335.101256 307.584 
z
" style="fill:#fa9ba4;opacity:0.2;"/>
   </g>
   <g id="patch_118">
    <path clip-path="url(#p0a8ad12aa7)" d="M 337.373156 307.584 
L 339.417866 307.584 
L 339.417866 307.584 
L 337.373156 307.584 
z
" style="fill:#fa9ba4;opacity:0.2;"/>
   </g>
   <g id="patch_119">
    <path clip-path="url(#p0a8ad12aa7)" d="M 339.645056 307.584 
L 341.689767 307.584 
L 341.689767 307.584 
L 339.645056 307.584 
z
" style="fill:#fa9ba4;opacity:0.2;"/>
   </g>
   <g id="patch_120">
    <path clip-path="url(#p0a8ad12aa7)" d="M 341.916957 307.584 
L 343.961667 307.584 
L 343.961667 174.528 
L 341.916957 174.528 
z
" style="fill:#fa9ba4;opacity:0.2;"/>
   </g>
   <g id="patch_121">
    <path clip-path="url(#p0a8ad12aa7)" d="M 344.188857 307.584 
L 346.233567 307.584 
L 346.233567 307.584 
L 344.188857 307.584 
z
" style="fill:#fa9ba4;opacity:0.2;"/>
   </g>
   <g id="patch_122">
    <path clip-path="url(#p0a8ad12aa7)" d="M 346.460757 307.584 
L 348.505467 307.584 
L 348.505467 307.584 
L 346.460757 307.584 
z
" style="fill:#fa9ba4;opacity:0.2;"/>
   </g>
   <g id="patch_123">
    <path clip-path="url(#p0a8ad12aa7)" d="M 348.732657 307.584 
L 350.777368 307.584 
L 350.777368 174.528 
L 348.732657 174.528 
z
" style="fill:#fa9ba4;opacity:0.2;"/>
   </g>
   <g id="patch_124">
    <path clip-path="url(#p0a8ad12aa7)" d="M 351.004558 307.584 
L 353.049268 307.584 
L 353.049268 41.472 
L 351.004558 41.472 
z
" style="fill:#fa9ba4;opacity:0.2;"/>
   </g>
   <g id="patch_125">
    <path clip-path="url(#p0a8ad12aa7)" d="M 353.276458 307.584 
L 355.321168 307.584 
L 355.321168 41.472 
L 353.276458 41.472 
z
" style="fill:#fa9ba4;opacity:0.2;"/>
   </g>
   <g id="patch_126">
    <path clip-path="url(#p0a8ad12aa7)" d="M 355.548358 307.584 
L 357.593068 307.584 
L 357.593068 174.528 
L 355.548358 174.528 
z
" style="fill:#fa9ba4;opacity:0.2;"/>
   </g>
   <g id="patch_127">
    <path clip-path="url(#p0a8ad12aa7)" d="M 357.820258 307.584 
L 359.864969 307.584 
L 359.864969 174.528 
L 357.820258 174.528 
z
" style="fill:#fa9ba4;opacity:0.2;"/>
   </g>
   <g id="patch_128">
    <path clip-path="url(#p0a8ad12aa7)" d="M 360.092159 307.584 
L 362.136869 307.584 
L 362.136869 174.528 
L 360.092159 174.528 
z
" style="fill:#fa9ba4;opacity:0.2;"/>
   </g>
   <g id="patch_129">
    <path clip-path="url(#p0a8ad12aa7)" d="M 362.364059 307.584 
L 364.408769 307.584 
L 364.408769 307.584 
L 362.364059 307.584 
z
" style="fill:#fa9ba4;opacity:0.2;"/>
   </g>
   <g id="patch_130">
    <path clip-path="url(#p0a8ad12aa7)" d="M 364.635959 307.584 
L 366.680669 307.584 
L 366.680669 174.528 
L 364.635959 174.528 
z
" style="fill:#fa9ba4;opacity:0.2;"/>
   </g>
   <g id="patch_131">
    <path clip-path="url(#p0a8ad12aa7)" d="M 366.907859 307.584 
L 368.95257 307.584 
L 368.95257 307.584 
L 366.907859 307.584 
z
" style="fill:#fa9ba4;opacity:0.2;"/>
   </g>
   <g id="patch_132">
    <path clip-path="url(#p0a8ad12aa7)" d="M 369.17976 307.584 
L 371.22447 307.584 
L 371.22447 174.528 
L 369.17976 174.528 
z
" style="fill:#fa9ba4;opacity:0.2;"/>
   </g>
   <g id="patch_133">
    <path clip-path="url(#p0a8ad12aa7)" d="M 371.45166 307.584 
L 373.49637 307.584 
L 373.49637 307.584 
L 371.45166 307.584 
z
" style="fill:#fa9ba4;opacity:0.2;"/>
   </g>
   <g id="patch_134">
    <path clip-path="url(#p0a8ad12aa7)" d="M 373.72356 307.584 
L 375.76827 307.584 
L 375.76827 307.584 
L 373.72356 307.584 
z
" style="fill:#fa9ba4;opacity:0.2;"/>
   </g>
   <g id="patch_135">
    <path clip-path="url(#p0a8ad12aa7)" d="M 375.99546 307.584 
L 378.04017 307.584 
L 378.04017 174.528 
L 375.99546 174.528 
z
" style="fill:#fa9ba4;opacity:0.2;"/>
   </g>
   <g id="patch_136">
    <path clip-path="url(#p0a8ad12aa7)" d="M 378.267361 307.584 
L 380.312071 307.584 
L 380.312071 174.528 
L 378.267361 174.528 
z
" style="fill:#fa9ba4;opacity:0.2;"/>
   </g>
   <g id="patch_137">
    <path clip-path="url(#p0a8ad12aa7)" d="M 380.539261 307.584 
L 382.583971 307.584 
L 382.583971 307.584 
L 380.539261 307.584 
z
" style="fill:#fa9ba4;opacity:0.2;"/>
   </g>
   <g id="patch_138">
    <path clip-path="url(#p0a8ad12aa7)" d="M 382.811161 307.584 
L 384.855871 307.584 
L 384.855871 307.584 
L 382.811161 307.584 
z
" style="fill:#fa9ba4;opacity:0.2;"/>
   </g>
   <g id="patch_139">
    <path clip-path="url(#p0a8ad12aa7)" d="M 385.083061 307.584 
L 387.127771 307.584 
L 387.127771 174.528 
L 385.083061 174.528 
z
" style="fill:#fa9ba4;opacity:0.2;"/>
   </g>
   <g id="patch_140">
    <path clip-path="url(#p0a8ad12aa7)" d="M 387.354962 307.584 
L 389.399672 307.584 
L 389.399672 307.584 
L 387.354962 307.584 
z
" style="fill:#fa9ba4;opacity:0.2;"/>
   </g>
   <g id="patch_141">
    <path clip-path="url(#p0a8ad12aa7)" d="M 389.626862 307.584 
L 391.671572 307.584 
L 391.671572 174.528 
L 389.626862 174.528 
z
" style="fill:#fa9ba4;opacity:0.2;"/>
   </g>
   <g id="patch_142">
    <path clip-path="url(#p0a8ad12aa7)" d="M 391.898762 307.584 
L 393.943472 307.584 
L 393.943472 307.584 
L 391.898762 307.584 
z
" style="fill:#fa9ba4;opacity:0.2;"/>
   </g>
   <g id="patch_143">
    <path clip-path="url(#p0a8ad12aa7)" d="M 394.170662 307.584 
L 396.215372 307.584 
L 396.215372 307.584 
L 394.170662 307.584 
z
" style="fill:#fa9ba4;opacity:0.2;"/>
   </g>
   <g id="patch_144">
    <path clip-path="url(#p0a8ad12aa7)" d="M 396.442563 307.584 
L 398.487273 307.584 
L 398.487273 307.584 
L 396.442563 307.584 
z
" style="fill:#fa9ba4;opacity:0.2;"/>
   </g>
   <g id="matplotlib.axis_1"/>
   <g id="matplotlib.axis_2"/>
   <g id="PolyCollection_1">
    <defs>
     <path d="M 367.930214 -152.064 
L 367.930214 -38.016 
L 370.202115 -38.016 
L 372.474015 -38.016 
L 374.745915 -38.016 
L 377.017815 -38.016 
L 379.289716 -38.016 
L 381.561616 -38.016 
L 383.833516 -38.016 
L 386.105416 -38.016 
L 388.377317 -38.016 
L 390.649217 -38.016 
L 392.921117 -38.016 
L 395.193017 -38.016 
L 397.464918 -38.016 
L 397.464918 -76.032 
L 397.464918 -76.032 
L 395.193017 -76.032 
L 392.921117 -95.04 
L 390.649217 -114.048 
L 388.377317 -95.04 
L 386.105416 -95.04 
L 383.833516 -95.04 
L 381.561616 -95.04 
L 379.289716 -114.048 
L 377.017815 -95.04 
L 374.745915 -95.04 
L 372.474015 -114.048 
L 370.202115 -133.056 
L 367.930214 -152.064 
z
" id="ma8b98fb15f" style="stroke:#dc3545;stroke-opacity:0.5;"/>
    </defs>
    <g clip-path="url(#p0a8ad12aa7)">
     <use style="fill:#dc3545;fill-opacity:0.5;stroke:#dc3545;stroke-opacity:0.5;" x="0" xlink:href="#ma8b98fb15f" y="345.6"/>
    </g>
   </g>
   <g id="PolyCollection_2">
    <defs>
     <path d="M 88.486484 -38.016 
L 88.486484 -38.016 
L 90.758384 -38.016 
L 93.030284 -38.016 
L 95.302185 -38.016 
L 97.574085 -38.016 
L 99.845985 -38.016 
L 102.117885 -38.016 
L 104.389786 -38.016 
L 106.661686 -38.016 
L 108.933586 -38.016 
L 111.205486 -38.016 
L 113.477387 -38.016 
L 115.749287 -38.016 
L 118.021187 -38.016 
L 120.293087 -38.016 
L 122.564988 -38.016 
L 124.836888 -38.016 
L 127.108788 -38.016 
L 129.380688 -38.016 
L 131.652589 -38.016 
L 133.924489 -38.016 
L 136.196389 -38.016 
L 138.468289 -38.016 
L 140.74019 -38.016 
L 143.01209 -38.016 
L 145.28399 -38.016 
L 147.55589 -38.016 
L 149.827791 -38.016 
L 152.099691 -38.016 
L 154.371591 -38.016 
L 156.643491 -38.016 
L 158.915392 -38.016 
L 161.187292 -38.016 
L 163.459192 -38.016 
L 165.731092 -38.016 
L 168.002993 -38.016 
L 170.274893 -38.016 
L 172.546793 -38.016 
L 174.818693 -38.016 
L 177.090594 -38.016 
L 179.362494 -38.016 
L 181.634394 -38.016 
L 183.906294 -38.016 
L 186.178195 -38.016 
L 188.450095 -38.016 
L 190.721995 -38.016 
L 192.993895 -38.016 
L 195.265796 -38.016 
L 197.537696 -38.016 
L 199.809596 -38.016 
L 202.081496 -38.016 
L 204.353397 -38.016 
L 206.625297 -38.016 
L 208.897197 -38.016 
L 211.169097 -38.016 
L 213.440998 -38.016 
L 215.712898 -38.016 
L 217.984798 -38.016 
L 220.256698 -38.016 
L 222.528599 -38.016 
L 224.800499 -38.016 
L 227.072399 -38.016 
L 229.344299 -38.016 
L 231.6162 -38.016 
L 233.8881 -38.016 
L 236.16 -38.016 
L 238.4319 -38.016 
L 240.7038 -38.016 
L 242.975701 -38.016 
L 245.247601 -38.016 
L 247.519501 -38.016 
L 249.791401 -38.016 
L 252.063302 -38.016 
L 254.335202 -38.016 
L 256.607102 -38.016 
L 258.879002 -38.016 
L 261.150903 -38.016 
L 263.422803 -38.016 
L 265.694703 -38.016 
L 267.966603 -38.016 
L 270.238504 -38.016 
L 272.510404 -38.016 
L 274.782304 -38.016 
L 277.054204 -38.016 
L 279.326105 -38.016 
L 281.598005 -38.016 
L 283.869905 -38.016 
L 286.141805 -38.016 
L 288.413706 -38.016 
L 290.685606 -38.016 
L 292.957506 -38.016 
L 295.229406 -38.016 
L 297.501307 -38.016 
L 299.773207 -38.016 
L 302.045107 -38.016 
L 304.317007 -38.016 
L 306.588908 -38.016 
L 308.860808 -38.016 
L 311.132708 -38.016 
L 313.404608 -38.016 
L 315.676509 -38.016 
L 317.948409 -38.016 
L 320.220309 -38.016 
L 322.492209 -38.016 
L 324.76411 -38.016 
L 327.03601 -38.016 
L 329.30791 -38.016 
L 331.57981 -38.016 
L 333.851711 -38.016 
L 336.123611 -38.016 
L 338.395511 -38.016 
L 340.667411 -38.016 
L 342.939312 -38.016 
L 345.211212 -38.016 
L 347.483112 -38.016 
L 349.755012 -38.016 
L 352.026913 -38.016 
L 354.298813 -38.016 
L 356.570713 -38.016 
L 358.842613 -38.016 
L 361.114514 -38.016 
L 363.386414 -38.016 
L 365.658314 -38.016 
L 367.930214 -38.016 
L 367.930214 -152.064 
L 367.930214 -152.064 
L 365.658314 -190.08 
L 363.386414 -190.08 
L 361.114514 -190.08 
L 358.842613 -171.072 
L 356.570713 -171.072 
L 354.298813 -152.064 
L 352.026913 -114.048 
L 349.755012 -76.032 
L 347.483112 -57.024 
L 345.211212 -57.024 
L 342.939312 -57.024 
L 340.667411 -38.016 
L 338.395511 -38.016 
L 336.123611 -38.016 
L 333.851711 -38.016 
L 331.57981 -38.016 
L 329.30791 -38.016 
L 327.03601 -38.016 
L 324.76411 -38.016 
L 322.492209 -38.016 
L 320.220309 -38.016 
L 317.948409 -38.016 
L 315.676509 -38.016 
L 313.404608 -38.016 
L 311.132708 -38.016 
L 308.860808 -38.016 
L 306.588908 -38.016 
L 304.317007 -38.016 
L 302.045107 -38.016 
L 299.773207 -38.016 
L 297.501307 -38.016 
L 295.229406 -38.016 
L 292.957506 -38.016 
L 290.685606 -38.016 
L 288.413706 -38.016 
L 286.141805 -38.016 
L 283.869905 -38.016 
L 281.598005 -38.016 
L 279.326105 -38.016 
L 277.054204 -38.016 
L 274.782304 -38.016 
L 272.510404 -38.016 
L 270.238504 -38.016 
L 267.966603 -38.016 
L 265.694703 -38.016 
L 263.422803 -38.016 
L 261.150903 -38.016 
L 258.879002 -38.016 
L 256.607102 -38.016 
L 254.335202 -38.016 
L 252.063302 -38.016 
L 249.791401 -38.016 
L 247.519501 -38.016 
L 245.247601 -38.016 
L 242.975701 -38.016 
L 240.7038 -38.016 
L 238.4319 -38.016 
L 236.16 -38.016 
L 233.8881 -38.016 
L 231.6162 -38.016 
L 229.344299 -38.016 
L 227.072399 -38.016 
L 224.800499 -38.016 
L 222.528599 -38.016 
L 220.256698 -38.016 
L 217.984798 -38.016 
L 215.712898 -38.016 
L 213.440998 -38.016 
L 211.169097 -38.016 
L 208.897197 -38.016 
L 206.625297 -38.016 
L 204.353397 -38.016 
L 202.081496 -38.016 
L 199.809596 -38.016 
L 197.537696 -38.016 
L 195.265796 -38.016 
L 192.993895 -38.016 
L 190.721995 -38.016 
L 188.450095 -38.016 
L 186.178195 -38.016 
L 183.906294 -38.016 
L 181.634394 -38.016 
L 179.362494 -38.016 
L 177.090594 -38.016 
L 174.818693 -38.016 
L 172.546793 -38.016 
L 170.274893 -38.016 
L 168.002993 -38.016 
L 165.731092 -38.016 
L 163.459192 -38.016 
L 161.187292 -38.016 
L 158.915392 -38.016 
L 156.643491 -38.016 
L 154.371591 -38.016 
L 152.099691 -38.016 
L 149.827791 -38.016 
L 147.55589 -38.016 
L 145.28399 -38.016 
L 143.01209 -38.016 
L 140.74019 -38.016 
L 138.468289 -38.016 
L 136.196389 -38.016 
L 133.924489 -38.016 
L 131.652589 -38.016 
L 129.380688 -38.016 
L 127.108788 -38.016 
L 124.836888 -38.016 
L 122.564988 -38.016 
L 120.293087 -38.016 
L 118.021187 -38.016 
L 115.749287 -38.016 
L 113.477387 -38.016 
L 111.205486 -38.016 
L 108.933586 -38.016 
L 106.661686 -38.016 
L 104.389786 -38.016 
L 102.117885 -38.016 
L 99.845985 -38.016 
L 97.574085 -38.016 
L 95.302185 -38.016 
L 93.030284 -38.016 
L 90.758384 -38.016 
L 88.486484 -38.016 
z
" id="m2b133ede77" style="stroke:#fa9ba4;stroke-opacity:0.3;"/>
    </defs>
    <g clip-path="url(#p0a8ad12aa7)">
     <use style="fill:#fa9ba4;fill-opacity:0.3;stroke:#fa9ba4;stroke-opacity:0.3;" x="0" xlink:href="#m2b133ede77" y="345.6"/>
    </g>
   </g>
   <g id="line2d_1">
    <path clip-path="url(#p0a8ad12aa7)" d="M 88.486484 307.584 
L 340.667411 307.584 
L 342.939312 288.576 
L 347.483112 288.576 
L 349.755012 269.568 
L 354.298813 193.536 
L 356.570713 174.528 
L 358.842613 174.528 
L 361.114514 155.52 
L 365.658314 155.52 
L 367.930214 193.536 
L 374.745915 250.56 
L 377.017815 250.56 
L 379.289716 231.552 
L 381.561616 250.56 
L 388.377317 250.56 
L 390.649217 231.552 
L 395.193017 269.568 
L 397.464918 269.568 
L 397.464918 269.568 
" style="fill:none;stroke:#fa9ba4;stroke-linecap:square;stroke-width:2;"/>
   </g>
   <g id="line2d_2">
    <path clip-path="url(#p0a8ad12aa7)" d="M 367.930214 193.536 
L 370.202115 212.544 
L 372.474015 231.552 
L 374.745915 250.56 
L 377.017815 250.56 
L 379.289716 231.552 
L 381.561616 250.56 
L 383.833516 250.56 
L 386.105416 250.56 
L 388.377317 250.56 
L 390.649217 231.552 
L 392.921117 250.56 
L 395.193017 269.568 
L 397.464918 269.568 
" style="fill:none;stroke:#dc3545;stroke-linecap:square;stroke-width:2;"/>
   </g>
  </g>
 </g>
 <defs>
  <clipPath id="p0a8ad12aa7">
   <rect height="266.112" width="357.12" x="57.6" y="41.472"/>
  </clipPath>
 </defs>
</svg>
