<?xml version="1.0" encoding="utf-8" standalone="no"?>
<!DOCTYPE svg PUBLIC "-//W3C//DTD SVG 1.1//EN"
  "http://www.w3.org/Graphics/SVG/1.1/DTD/svg11.dtd">
<!-- Created with matplotlib (https://matplotlib.org/) -->
<svg height="345.6pt" version="1.1" viewBox="0 0 460.8 345.6" width="460.8pt" xmlns="http://www.w3.org/2000/svg" xmlns:xlink="http://www.w3.org/1999/xlink">
 <metadata>
  <rdf:RDF xmlns:cc="http://creativecommons.org/ns#" xmlns:dc="http://purl.org/dc/elements/1.1/" xmlns:rdf="http://www.w3.org/1999/02/22-rdf-syntax-ns#">
   <cc:Work>
    <dc:type rdf:resource="http://purl.org/dc/dcmitype/StillImage"/>
    <dc:date>2021-01-28T14:57:08.889264</dc:date>
    <dc:format>image/svg+xml</dc:format>
    <dc:creator>
     <cc:Agent>
      <dc:title>Matplotlib v3.3.3, https://matplotlib.org/</dc:title>
     </cc:Agent>
    </dc:creator>
   </cc:Work>
  </rdf:RDF>
 </metadata>
 <defs>
  <style type="text/css">*{stroke-linecap:butt;stroke-linejoin:round;}</style>
 </defs>
 <g id="figure_1">
  <g id="patch_1">
   <path d="M 0 345.6 
L 460.8 345.6 
L 460.8 0 
L 0 0 
z
" style="fill:none;"/>
  </g>
  <g id="axes_1">
   <g id="patch_2">
    <path clip-path="url(#p8d9df6506b)" d="M 73.832727 307.584 
L 80.488515 307.584 
L 80.488515 307.584 
L 73.832727 307.584 
z
" style="fill:#fa9ba4;opacity:0.2;"/>
   </g>
   <g id="patch_3">
    <path clip-path="url(#p8d9df6506b)" d="M 81.228047 307.584 
L 87.883835 307.584 
L 87.883835 307.584 
L 81.228047 307.584 
z
" style="fill:#fa9ba4;opacity:0.2;"/>
   </g>
   <g id="patch_4">
    <path clip-path="url(#p8d9df6506b)" d="M 88.623367 307.584 
L 95.279155 307.584 
L 95.279155 307.584 
L 88.623367 307.584 
z
" style="fill:#fa9ba4;opacity:0.2;"/>
   </g>
   <g id="patch_5">
    <path clip-path="url(#p8d9df6506b)" d="M 96.018687 307.584 
L 102.674475 307.584 
L 102.674475 307.584 
L 96.018687 307.584 
z
" style="fill:#fa9ba4;opacity:0.2;"/>
   </g>
   <g id="patch_6">
    <path clip-path="url(#p8d9df6506b)" d="M 103.414007 307.584 
L 110.069795 307.584 
L 110.069795 307.584 
L 103.414007 307.584 
z
" style="fill:#fa9ba4;opacity:0.2;"/>
   </g>
   <g id="patch_7">
    <path clip-path="url(#p8d9df6506b)" d="M 110.809327 307.584 
L 117.465115 307.584 
L 117.465115 307.584 
L 110.809327 307.584 
z
" style="fill:#fa9ba4;opacity:0.2;"/>
   </g>
   <g id="patch_8">
    <path clip-path="url(#p8d9df6506b)" d="M 118.204647 307.584 
L 124.860435 307.584 
L 124.860435 307.584 
L 118.204647 307.584 
z
" style="fill:#fa9ba4;opacity:0.2;"/>
   </g>
   <g id="patch_9">
    <path clip-path="url(#p8d9df6506b)" d="M 125.599967 307.584 
L 132.255755 307.584 
L 132.255755 307.584 
L 125.599967 307.584 
z
" style="fill:#fa9ba4;opacity:0.2;"/>
   </g>
   <g id="patch_10">
    <path clip-path="url(#p8d9df6506b)" d="M 132.995287 307.584 
L 139.651075 307.584 
L 139.651075 174.528 
L 132.995287 174.528 
z
" style="fill:#fa9ba4;opacity:0.2;"/>
   </g>
   <g id="patch_11">
    <path clip-path="url(#p8d9df6506b)" d="M 140.390607 307.584 
L 147.046395 307.584 
L 147.046395 307.584 
L 140.390607 307.584 
z
" style="fill:#fa9ba4;opacity:0.2;"/>
   </g>
   <g id="patch_12">
    <path clip-path="url(#p8d9df6506b)" d="M 147.785927 307.584 
L 154.441715 307.584 
L 154.441715 307.584 
L 147.785927 307.584 
z
" style="fill:#fa9ba4;opacity:0.2;"/>
   </g>
   <g id="patch_13">
    <path clip-path="url(#p8d9df6506b)" d="M 155.181247 307.584 
L 161.837035 307.584 
L 161.837035 174.528 
L 155.181247 174.528 
z
" style="fill:#fa9ba4;opacity:0.2;"/>
   </g>
   <g id="patch_14">
    <path clip-path="url(#p8d9df6506b)" d="M 162.576567 307.584 
L 169.232355 307.584 
L 169.232355 174.528 
L 162.576567 174.528 
z
" style="fill:#fa9ba4;opacity:0.2;"/>
   </g>
   <g id="patch_15">
    <path clip-path="url(#p8d9df6506b)" d="M 169.971887 307.584 
L 176.627674 307.584 
L 176.627674 307.584 
L 169.971887 307.584 
z
" style="fill:#fa9ba4;opacity:0.2;"/>
   </g>
   <g id="patch_16">
    <path clip-path="url(#p8d9df6506b)" d="M 177.367206 307.584 
L 184.022994 307.584 
L 184.022994 307.584 
L 177.367206 307.584 
z
" style="fill:#fa9ba4;opacity:0.2;"/>
   </g>
   <g id="patch_17">
    <path clip-path="url(#p8d9df6506b)" d="M 184.762526 307.584 
L 191.418314 307.584 
L 191.418314 307.584 
L 184.762526 307.584 
z
" style="fill:#fa9ba4;opacity:0.2;"/>
   </g>
   <g id="patch_18">
    <path clip-path="url(#p8d9df6506b)" d="M 192.157846 307.584 
L 198.813634 307.584 
L 198.813634 307.584 
L 192.157846 307.584 
z
" style="fill:#fa9ba4;opacity:0.2;"/>
   </g>
   <g id="patch_19">
    <path clip-path="url(#p8d9df6506b)" d="M 199.553166 307.584 
L 206.208954 307.584 
L 206.208954 307.584 
L 199.553166 307.584 
z
" style="fill:#fa9ba4;opacity:0.2;"/>
   </g>
   <g id="patch_20">
    <path clip-path="url(#p8d9df6506b)" d="M 206.948486 307.584 
L 213.604274 307.584 
L 213.604274 307.584 
L 206.948486 307.584 
z
" style="fill:#fa9ba4;opacity:0.2;"/>
   </g>
   <g id="patch_21">
    <path clip-path="url(#p8d9df6506b)" d="M 214.343806 307.584 
L 220.999594 307.584 
L 220.999594 307.584 
L 214.343806 307.584 
z
" style="fill:#fa9ba4;opacity:0.2;"/>
   </g>
   <g id="patch_22">
    <path clip-path="url(#p8d9df6506b)" d="M 221.739126 307.584 
L 228.394914 307.584 
L 228.394914 307.584 
L 221.739126 307.584 
z
" style="fill:#fa9ba4;opacity:0.2;"/>
   </g>
   <g id="patch_23">
    <path clip-path="url(#p8d9df6506b)" d="M 229.134446 307.584 
L 235.790234 307.584 
L 235.790234 307.584 
L 229.134446 307.584 
z
" style="fill:#fa9ba4;opacity:0.2;"/>
   </g>
   <g id="patch_24">
    <path clip-path="url(#p8d9df6506b)" d="M 236.529766 307.584 
L 243.185554 307.584 
L 243.185554 307.584 
L 236.529766 307.584 
z
" style="fill:#fa9ba4;opacity:0.2;"/>
   </g>
   <g id="patch_25">
    <path clip-path="url(#p8d9df6506b)" d="M 243.925086 307.584 
L 250.580874 307.584 
L 250.580874 41.472 
L 243.925086 41.472 
z
" style="fill:#fa9ba4;opacity:0.2;"/>
   </g>
   <g id="patch_26">
    <path clip-path="url(#p8d9df6506b)" d="M 251.320406 307.584 
L 257.976194 307.584 
L 257.976194 307.584 
L 251.320406 307.584 
z
" style="fill:#fa9ba4;opacity:0.2;"/>
   </g>
   <g id="patch_27">
    <path clip-path="url(#p8d9df6506b)" d="M 258.715726 307.584 
L 265.371514 307.584 
L 265.371514 307.584 
L 258.715726 307.584 
z
" style="fill:#fa9ba4;opacity:0.2;"/>
   </g>
   <g id="patch_28">
    <path clip-path="url(#p8d9df6506b)" d="M 266.111046 307.584 
L 272.766834 307.584 
L 272.766834 307.584 
L 266.111046 307.584 
z
" style="fill:#fa9ba4;opacity:0.2;"/>
   </g>
   <g id="patch_29">
    <path clip-path="url(#p8d9df6506b)" d="M 273.506366 307.584 
L 280.162154 307.584 
L 280.162154 307.584 
L 273.506366 307.584 
z
" style="fill:#fa9ba4;opacity:0.2;"/>
   </g>
   <g id="patch_30">
    <path clip-path="url(#p8d9df6506b)" d="M 280.901686 307.584 
L 287.557474 307.584 
L 287.557474 174.528 
L 280.901686 174.528 
z
" style="fill:#fa9ba4;opacity:0.2;"/>
   </g>
   <g id="patch_31">
    <path clip-path="url(#p8d9df6506b)" d="M 288.297006 307.584 
L 294.952794 307.584 
L 294.952794 307.584 
L 288.297006 307.584 
z
" style="fill:#fa9ba4;opacity:0.2;"/>
   </g>
   <g id="patch_32">
    <path clip-path="url(#p8d9df6506b)" d="M 295.692326 307.584 
L 302.348113 307.584 
L 302.348113 307.584 
L 295.692326 307.584 
z
" style="fill:#fa9ba4;opacity:0.2;"/>
   </g>
   <g id="patch_33">
    <path clip-path="url(#p8d9df6506b)" d="M 303.087645 307.584 
L 309.743433 307.584 
L 309.743433 307.584 
L 303.087645 307.584 
z
" style="fill:#fa9ba4;opacity:0.2;"/>
   </g>
   <g id="patch_34">
    <path clip-path="url(#p8d9df6506b)" d="M 310.482965 307.584 
L 317.138753 307.584 
L 317.138753 41.472 
L 310.482965 41.472 
z
" style="fill:#fa9ba4;opacity:0.2;"/>
   </g>
   <g id="patch_35">
    <path clip-path="url(#p8d9df6506b)" d="M 317.878285 307.584 
L 324.534073 307.584 
L 324.534073 41.472 
L 317.878285 41.472 
z
" style="fill:#fa9ba4;opacity:0.2;"/>
   </g>
   <g id="patch_36">
    <path clip-path="url(#p8d9df6506b)" d="M 325.273605 307.584 
L 331.929393 307.584 
L 331.929393 307.584 
L 325.273605 307.584 
z
" style="fill:#fa9ba4;opacity:0.2;"/>
   </g>
   <g id="patch_37">
    <path clip-path="url(#p8d9df6506b)" d="M 332.668925 307.584 
L 339.324713 307.584 
L 339.324713 307.584 
L 332.668925 307.584 
z
" style="fill:#fa9ba4;opacity:0.2;"/>
   </g>
   <g id="patch_38">
    <path clip-path="url(#p8d9df6506b)" d="M 340.064245 307.584 
L 346.720033 307.584 
L 346.720033 307.584 
L 340.064245 307.584 
z
" style="fill:#fa9ba4;opacity:0.2;"/>
   </g>
   <g id="patch_39">
    <path clip-path="url(#p8d9df6506b)" d="M 347.459565 307.584 
L 354.115353 307.584 
L 354.115353 307.584 
L 347.459565 307.584 
z
" style="fill:#fa9ba4;opacity:0.2;"/>
   </g>
   <g id="patch_40">
    <path clip-path="url(#p8d9df6506b)" d="M 354.854885 307.584 
L 361.510673 307.584 
L 361.510673 307.584 
L 354.854885 307.584 
z
" style="fill:#fa9ba4;opacity:0.2;"/>
   </g>
   <g id="patch_41">
    <path clip-path="url(#p8d9df6506b)" d="M 362.250205 307.584 
L 368.905993 307.584 
L 368.905993 307.584 
L 362.250205 307.584 
z
" style="fill:#fa9ba4;opacity:0.2;"/>
   </g>
   <g id="patch_42">
    <path clip-path="url(#p8d9df6506b)" d="M 369.645525 307.584 
L 376.301313 307.584 
L 376.301313 307.584 
L 369.645525 307.584 
z
" style="fill:#fa9ba4;opacity:0.2;"/>
   </g>
   <g id="patch_43">
    <path clip-path="url(#p8d9df6506b)" d="M 377.040845 307.584 
L 383.696633 307.584 
L 383.696633 307.584 
L 377.040845 307.584 
z
" style="fill:#fa9ba4;opacity:0.2;"/>
   </g>
   <g id="patch_44">
    <path clip-path="url(#p8d9df6506b)" d="M 384.436165 307.584 
L 391.091953 307.584 
L 391.091953 307.584 
L 384.436165 307.584 
z
" style="fill:#fa9ba4;opacity:0.2;"/>
   </g>
   <g id="patch_45">
    <path clip-path="url(#p8d9df6506b)" d="M 391.831485 307.584 
L 398.487273 307.584 
L 398.487273 307.584 
L 391.831485 307.584 
z
" style="fill:#fa9ba4;opacity:0.2;"/>
   </g>
   <g id="matplotlib.axis_1"/>
   <g id="matplotlib.axis_2"/>
   <g id="PolyCollection_1">
    <defs>
     <path d="M 299.02022 -57.024 
L 299.02022 -38.016 
L 306.415539 -38.016 
L 313.810859 -38.016 
L 321.206179 -38.016 
L 328.601499 -38.016 
L 335.996819 -38.016 
L 343.392139 -38.016 
L 350.787459 -38.016 
L 358.182779 -38.016 
L 365.578099 -38.016 
L 372.973419 -38.016 
L 380.368739 -38.016 
L 387.764059 -38.016 
L 395.159379 -38.016 
L 395.159379 -38.016 
L 395.159379 -38.016 
L 387.764059 -38.016 
L 380.368739 -38.016 
L 372.973419 -38.016 
L 365.578099 -76.032 
L 358.182779 -114.048 
L 350.787459 -114.048 
L 343.392139 -114.048 
L 335.996819 -114.048 
L 328.601499 -133.056 
L 321.206179 -133.056 
L 313.810859 -95.04 
L 306.415539 -57.024 
L 299.02022 -57.024 
z
" id="me9e046fbe3" style="stroke:#dc3545;stroke-opacity:0.5;"/>
    </defs>
    <g clip-path="url(#p8d9df6506b)">
     <use style="fill:#dc3545;fill-opacity:0.5;stroke:#dc3545;stroke-opacity:0.5;" x="0" xlink:href="#me9e046fbe3" y="345.6"/>
    </g>
   </g>
   <g id="PolyCollection_2">
    <defs>
     <path d="M 121.532541 -38.016 
L 121.532541 -38.016 
L 128.927861 -38.016 
L 136.323181 -38.016 
L 143.718501 -38.016 
L 151.113821 -38.016 
L 158.509141 -38.016 
L 165.904461 -38.016 
L 173.29978 -38.016 
L 180.6951 -38.016 
L 188.09042 -38.016 
L 195.48574 -38.016 
L 202.88106 -38.016 
L 210.27638 -38.016 
L 217.6717 -38.016 
L 225.06702 -38.016 
L 232.46234 -38.016 
L 239.85766 -38.016 
L 247.25298 -38.016 
L 254.6483 -38.016 
L 262.04362 -38.016 
L 269.43894 -38.016 
L 276.83426 -38.016 
L 284.22958 -38.016 
L 291.6249 -38.016 
L 299.02022 -38.016 
L 299.02022 -57.024 
L 299.02022 -57.024 
L 291.6249 -95.04 
L 284.22958 -95.04 
L 276.83426 -76.032 
L 269.43894 -76.032 
L 262.04362 -76.032 
L 254.6483 -76.032 
L 247.25298 -76.032 
L 239.85766 -38.016 
L 232.46234 -38.016 
L 225.06702 -38.016 
L 217.6717 -38.016 
L 210.27638 -57.024 
L 202.88106 -76.032 
L 195.48574 -76.032 
L 188.09042 -76.032 
L 180.6951 -95.04 
L 173.29978 -95.04 
L 165.904461 -95.04 
L 158.509141 -76.032 
L 151.113821 -57.024 
L 143.718501 -57.024 
L 136.323181 -57.024 
L 128.927861 -38.016 
L 121.532541 -38.016 
z
" id="m92cb7a2561" style="stroke:#fa9ba4;stroke-opacity:0.3;"/>
    </defs>
    <g clip-path="url(#p8d9df6506b)">
     <use style="fill:#fa9ba4;fill-opacity:0.3;stroke:#fa9ba4;stroke-opacity:0.3;" x="0" xlink:href="#m92cb7a2561" y="345.6"/>
    </g>
   </g>
   <g id="line2d_1">
    <path clip-path="url(#p8d9df6506b)" d="M 121.532541 307.584 
L 128.927861 307.584 
L 136.323181 288.576 
L 143.718501 288.576 
L 151.113821 288.576 
L 158.509141 269.568 
L 165.904461 250.56 
L 173.29978 250.56 
L 180.6951 250.56 
L 188.09042 269.568 
L 195.48574 269.568 
L 202.88106 269.568 
L 210.27638 288.576 
L 217.6717 307.584 
L 225.06702 307.584 
L 232.46234 307.584 
L 239.85766 307.584 
L 247.25298 269.568 
L 254.6483 269.568 
L 262.04362 269.568 
L 269.43894 269.568 
L 276.83426 269.568 
L 284.22958 250.56 
L 291.6249 250.56 
L 299.02022 288.576 
L 306.415539 288.576 
L 313.810859 250.56 
L 321.206179 212.544 
L 328.601499 212.544 
L 335.996819 231.552 
L 343.392139 231.552 
L 350.787459 231.552 
L 358.182779 231.552 
L 365.578099 269.568 
L 372.973419 307.584 
L 380.368739 307.584 
L 387.764059 307.584 
L 395.159379 307.584 
" style="fill:none;stroke:#fa9ba4;stroke-linecap:square;stroke-width:2;"/>
   </g>
   <g id="line2d_2">
    <path clip-path="url(#p8d9df6506b)" d="M 299.02022 288.576 
L 306.415539 288.576 
L 313.810859 250.56 
L 321.206179 212.544 
L 328.601499 212.544 
L 335.996819 231.552 
L 343.392139 231.552 
L 350.787459 231.552 
L 358.182779 231.552 
L 365.578099 269.568 
L 372.973419 307.584 
L 380.368739 307.584 
L 387.764059 307.584 
L 395.159379 307.584 
" style="fill:none;stroke:#dc3545;stroke-linecap:square;stroke-width:2;"/>
   </g>
  </g>
 </g>
 <defs>
  <clipPath id="p8d9df6506b">
   <rect height="266.112" width="357.12" x="57.6" y="41.472"/>
  </clipPath>
 </defs>
</svg>
