<?xml version="1.0" encoding="utf-8" standalone="no"?>
<!DOCTYPE svg PUBLIC "-//W3C//DTD SVG 1.1//EN"
  "http://www.w3.org/Graphics/SVG/1.1/DTD/svg11.dtd">
<!-- Created with matplotlib (https://matplotlib.org/) -->
<svg height="345.6pt" version="1.1" viewBox="0 0 460.8 345.6" width="460.8pt" xmlns="http://www.w3.org/2000/svg" xmlns:xlink="http://www.w3.org/1999/xlink">
 <metadata>
  <rdf:RDF xmlns:cc="http://creativecommons.org/ns#" xmlns:dc="http://purl.org/dc/elements/1.1/" xmlns:rdf="http://www.w3.org/1999/02/22-rdf-syntax-ns#">
   <cc:Work>
    <dc:type rdf:resource="http://purl.org/dc/dcmitype/StillImage"/>
    <dc:date>2021-01-29T13:02:12.804453</dc:date>
    <dc:format>image/svg+xml</dc:format>
    <dc:creator>
     <cc:Agent>
      <dc:title>Matplotlib v3.3.4, https://matplotlib.org/</dc:title>
     </cc:Agent>
    </dc:creator>
   </cc:Work>
  </rdf:RDF>
 </metadata>
 <defs>
  <style type="text/css">*{stroke-linecap:butt;stroke-linejoin:round;}</style>
 </defs>
 <g id="figure_1">
  <g id="patch_1">
   <path d="M 0 345.6 
L 460.8 345.6 
L 460.8 0 
L 0 0 
z
" style="fill:none;"/>
  </g>
  <g id="axes_1">
   <g id="patch_2">
    <path clip-path="url(#p6608c681a6)" d="M 73.832727 307.584 
L 80.340279 307.584 
L 80.340279 300.192 
L 73.832727 300.192 
z
" style="fill:#fa9ba4;opacity:0.2;"/>
   </g>
   <g id="patch_3">
    <path clip-path="url(#p6608c681a6)" d="M 81.063341 307.584 
L 87.570893 307.584 
L 87.570893 307.584 
L 81.063341 307.584 
z
" style="fill:#fa9ba4;opacity:0.2;"/>
   </g>
   <g id="patch_4">
    <path clip-path="url(#p6608c681a6)" d="M 88.293954 307.584 
L 94.801506 307.584 
L 94.801506 307.584 
L 88.293954 307.584 
z
" style="fill:#fa9ba4;opacity:0.2;"/>
   </g>
   <g id="patch_5">
    <path clip-path="url(#p6608c681a6)" d="M 95.524568 307.584 
L 102.03212 307.584 
L 102.03212 307.584 
L 95.524568 307.584 
z
" style="fill:#fa9ba4;opacity:0.2;"/>
   </g>
   <g id="patch_6">
    <path clip-path="url(#p6608c681a6)" d="M 102.755181 307.584 
L 109.262733 307.584 
L 109.262733 307.584 
L 102.755181 307.584 
z
" style="fill:#fa9ba4;opacity:0.2;"/>
   </g>
   <g id="patch_7">
    <path clip-path="url(#p6608c681a6)" d="M 109.985795 307.584 
L 116.493347 307.584 
L 116.493347 307.584 
L 109.985795 307.584 
z
" style="fill:#fa9ba4;opacity:0.2;"/>
   </g>
   <g id="patch_8">
    <path clip-path="url(#p6608c681a6)" d="M 117.216408 307.584 
L 123.72396 307.584 
L 123.72396 300.192 
L 117.216408 300.192 
z
" style="fill:#fa9ba4;opacity:0.2;"/>
   </g>
   <g id="patch_9">
    <path clip-path="url(#p6608c681a6)" d="M 124.447022 307.584 
L 130.954574 307.584 
L 130.954574 300.192 
L 124.447022 300.192 
z
" style="fill:#fa9ba4;opacity:0.2;"/>
   </g>
   <g id="patch_10">
    <path clip-path="url(#p6608c681a6)" d="M 131.677635 307.584 
L 138.185187 307.584 
L 138.185187 300.192 
L 131.677635 300.192 
z
" style="fill:#fa9ba4;opacity:0.2;"/>
   </g>
   <g id="patch_11">
    <path clip-path="url(#p6608c681a6)" d="M 138.908249 307.584 
L 145.415801 307.584 
L 145.415801 278.016 
L 138.908249 278.016 
z
" style="fill:#fa9ba4;opacity:0.2;"/>
   </g>
   <g id="patch_12">
    <path clip-path="url(#p6608c681a6)" d="M 146.138862 307.584 
L 152.646414 307.584 
L 152.646414 285.408 
L 146.138862 285.408 
z
" style="fill:#fa9ba4;opacity:0.2;"/>
   </g>
   <g id="patch_13">
    <path clip-path="url(#p6608c681a6)" d="M 153.369476 307.584 
L 159.877028 307.584 
L 159.877028 307.584 
L 153.369476 307.584 
z
" style="fill:#fa9ba4;opacity:0.2;"/>
   </g>
   <g id="patch_14">
    <path clip-path="url(#p6608c681a6)" d="M 160.600089 307.584 
L 167.107641 307.584 
L 167.107641 278.016 
L 160.600089 278.016 
z
" style="fill:#fa9ba4;opacity:0.2;"/>
   </g>
   <g id="patch_15">
    <path clip-path="url(#p6608c681a6)" d="M 167.830703 307.584 
L 174.338255 307.584 
L 174.338255 285.408 
L 167.830703 285.408 
z
" style="fill:#fa9ba4;opacity:0.2;"/>
   </g>
   <g id="patch_16">
    <path clip-path="url(#p6608c681a6)" d="M 175.061316 307.584 
L 181.568868 307.584 
L 181.568868 300.192 
L 175.061316 300.192 
z
" style="fill:#fa9ba4;opacity:0.2;"/>
   </g>
   <g id="patch_17">
    <path clip-path="url(#p6608c681a6)" d="M 182.29193 307.584 
L 188.799482 307.584 
L 188.799482 152.352 
L 182.29193 152.352 
z
" style="fill:#fa9ba4;opacity:0.2;"/>
   </g>
   <g id="patch_18">
    <path clip-path="url(#p6608c681a6)" d="M 189.522543 307.584 
L 196.030095 307.584 
L 196.030095 211.488 
L 189.522543 211.488 
z
" style="fill:#fa9ba4;opacity:0.2;"/>
   </g>
   <g id="patch_19">
    <path clip-path="url(#p6608c681a6)" d="M 196.753157 307.584 
L 203.260709 307.584 
L 203.260709 307.584 
L 196.753157 307.584 
z
" style="fill:#fa9ba4;opacity:0.2;"/>
   </g>
   <g id="patch_20">
    <path clip-path="url(#p6608c681a6)" d="M 203.98377 307.584 
L 210.491322 307.584 
L 210.491322 122.784 
L 203.98377 122.784 
z
" style="fill:#fa9ba4;opacity:0.2;"/>
   </g>
   <g id="patch_21">
    <path clip-path="url(#p6608c681a6)" d="M 211.214383 307.584 
L 217.721936 307.584 
L 217.721936 270.624 
L 211.214383 270.624 
z
" style="fill:#fa9ba4;opacity:0.2;"/>
   </g>
   <g id="patch_22">
    <path clip-path="url(#p6608c681a6)" d="M 218.444997 307.584 
L 224.952549 307.584 
L 224.952549 300.192 
L 218.444997 300.192 
z
" style="fill:#fa9ba4;opacity:0.2;"/>
   </g>
   <g id="patch_23">
    <path clip-path="url(#p6608c681a6)" d="M 225.67561 307.584 
L 232.183163 307.584 
L 232.183163 159.744 
L 225.67561 159.744 
z
" style="fill:#fa9ba4;opacity:0.2;"/>
   </g>
   <g id="patch_24">
    <path clip-path="url(#p6608c681a6)" d="M 232.906224 307.584 
L 239.413776 307.584 
L 239.413776 292.8 
L 232.906224 292.8 
z
" style="fill:#fa9ba4;opacity:0.2;"/>
   </g>
   <g id="patch_25">
    <path clip-path="url(#p6608c681a6)" d="M 240.136837 307.584 
L 246.64439 307.584 
L 246.64439 307.584 
L 240.136837 307.584 
z
" style="fill:#fa9ba4;opacity:0.2;"/>
   </g>
   <g id="patch_26">
    <path clip-path="url(#p6608c681a6)" d="M 247.367451 307.584 
L 253.875003 307.584 
L 253.875003 307.584 
L 247.367451 307.584 
z
" style="fill:#fa9ba4;opacity:0.2;"/>
   </g>
   <g id="patch_27">
    <path clip-path="url(#p6608c681a6)" d="M 254.598064 307.584 
L 261.105617 307.584 
L 261.105617 278.016 
L 254.598064 278.016 
z
" style="fill:#fa9ba4;opacity:0.2;"/>
   </g>
   <g id="patch_28">
    <path clip-path="url(#p6608c681a6)" d="M 261.828678 307.584 
L 268.33623 307.584 
L 268.33623 292.8 
L 261.828678 292.8 
z
" style="fill:#fa9ba4;opacity:0.2;"/>
   </g>
   <g id="patch_29">
    <path clip-path="url(#p6608c681a6)" d="M 269.059291 307.584 
L 275.566843 307.584 
L 275.566843 41.472 
L 269.059291 41.472 
z
" style="fill:#fa9ba4;opacity:0.2;"/>
   </g>
   <g id="patch_30">
    <path clip-path="url(#p6608c681a6)" d="M 276.289905 307.584 
L 282.797457 307.584 
L 282.797457 307.584 
L 276.289905 307.584 
z
" style="fill:#fa9ba4;opacity:0.2;"/>
   </g>
   <g id="patch_31">
    <path clip-path="url(#p6608c681a6)" d="M 283.520518 307.584 
L 290.02807 307.584 
L 290.02807 292.8 
L 283.520518 292.8 
z
" style="fill:#fa9ba4;opacity:0.2;"/>
   </g>
   <g id="patch_32">
    <path clip-path="url(#p6608c681a6)" d="M 290.751132 307.584 
L 297.258684 307.584 
L 297.258684 285.408 
L 290.751132 285.408 
z
" style="fill:#fa9ba4;opacity:0.2;"/>
   </g>
   <g id="patch_33">
    <path clip-path="url(#p6608c681a6)" d="M 297.981745 307.584 
L 304.489297 307.584 
L 304.489297 300.192 
L 297.981745 300.192 
z
" style="fill:#fa9ba4;opacity:0.2;"/>
   </g>
   <g id="patch_34">
    <path clip-path="url(#p6608c681a6)" d="M 305.212359 307.584 
L 311.719911 307.584 
L 311.719911 307.584 
L 305.212359 307.584 
z
" style="fill:#fa9ba4;opacity:0.2;"/>
   </g>
   <g id="patch_35">
    <path clip-path="url(#p6608c681a6)" d="M 312.442972 307.584 
L 318.950524 307.584 
L 318.950524 292.8 
L 312.442972 292.8 
z
" style="fill:#fa9ba4;opacity:0.2;"/>
   </g>
   <g id="patch_36">
    <path clip-path="url(#p6608c681a6)" d="M 319.673586 307.584 
L 326.181138 307.584 
L 326.181138 292.8 
L 319.673586 292.8 
z
" style="fill:#fa9ba4;opacity:0.2;"/>
   </g>
   <g id="patch_37">
    <path clip-path="url(#p6608c681a6)" d="M 326.904199 307.584 
L 333.411751 307.584 
L 333.411751 292.8 
L 326.904199 292.8 
z
" style="fill:#fa9ba4;opacity:0.2;"/>
   </g>
   <g id="patch_38">
    <path clip-path="url(#p6608c681a6)" d="M 334.134813 307.584 
L 340.642365 307.584 
L 340.642365 307.584 
L 334.134813 307.584 
z
" style="fill:#fa9ba4;opacity:0.2;"/>
   </g>
   <g id="patch_39">
    <path clip-path="url(#p6608c681a6)" d="M 341.365426 307.584 
L 347.872978 307.584 
L 347.872978 292.8 
L 341.365426 292.8 
z
" style="fill:#fa9ba4;opacity:0.2;"/>
   </g>
   <g id="patch_40">
    <path clip-path="url(#p6608c681a6)" d="M 348.59604 307.584 
L 355.103592 307.584 
L 355.103592 285.408 
L 348.59604 285.408 
z
" style="fill:#fa9ba4;opacity:0.2;"/>
   </g>
   <g id="patch_41">
    <path clip-path="url(#p6608c681a6)" d="M 355.826653 307.584 
L 362.334205 307.584 
L 362.334205 300.192 
L 355.826653 300.192 
z
" style="fill:#fa9ba4;opacity:0.2;"/>
   </g>
   <g id="patch_42">
    <path clip-path="url(#p6608c681a6)" d="M 363.057267 307.584 
L 369.564819 307.584 
L 369.564819 300.192 
L 363.057267 300.192 
z
" style="fill:#fa9ba4;opacity:0.2;"/>
   </g>
   <g id="patch_43">
    <path clip-path="url(#p6608c681a6)" d="M 370.28788 307.584 
L 376.795432 307.584 
L 376.795432 307.584 
L 370.28788 307.584 
z
" style="fill:#fa9ba4;opacity:0.2;"/>
   </g>
   <g id="patch_44">
    <path clip-path="url(#p6608c681a6)" d="M 377.518494 307.584 
L 384.026046 307.584 
L 384.026046 307.584 
L 377.518494 307.584 
z
" style="fill:#fa9ba4;opacity:0.2;"/>
   </g>
   <g id="patch_45">
    <path clip-path="url(#p6608c681a6)" d="M 384.749107 307.584 
L 391.256659 307.584 
L 391.256659 307.584 
L 384.749107 307.584 
z
" style="fill:#fa9ba4;opacity:0.2;"/>
   </g>
   <g id="patch_46">
    <path clip-path="url(#p6608c681a6)" d="M 391.979721 307.584 
L 398.487273 307.584 
L 398.487273 307.584 
L 391.979721 307.584 
z
" style="fill:#fa9ba4;opacity:0.2;"/>
   </g>
   <g id="matplotlib.axis_1"/>
   <g id="matplotlib.axis_2"/>
   <g id="PolyCollection_1">
    <defs>
     <path d="M 301.235521 -88.704 
L 301.235521 -38.016 
L 308.466135 -38.016 
L 315.696748 -38.016 
L 322.927362 -38.016 
L 330.157975 -38.016 
L 337.388589 -38.016 
L 344.619202 -38.016 
L 351.849816 -38.016 
L 359.080429 -38.016 
L 366.311043 -38.016 
L 373.541656 -38.016 
L 380.77227 -38.016 
L 388.002883 -38.016 
L 395.233497 -38.016 
L 395.233497 -43.296 
L 395.233497 -43.296 
L 388.002883 -45.408 
L 380.77227 -45.408 
L 373.541656 -47.52 
L 366.311043 -49.632 
L 359.080429 -50.688 
L 351.849816 -49.632 
L 344.619202 -47.52 
L 337.388589 -48.576 
L 330.157975 -50.688 
L 322.927362 -48.576 
L 315.696748 -84.48 
L 308.466135 -84.48 
L 301.235521 -88.704 
z
" id="mba883a574a" style="stroke:#dc3545;stroke-opacity:0.5;"/>
    </defs>
    <g clip-path="url(#p6608c681a6)">
     <use style="fill:#dc3545;fill-opacity:0.5;stroke:#dc3545;stroke-opacity:0.5;" x="0" xlink:href="#mba883a574a" y="345.6"/>
    </g>
   </g>
   <g id="PolyCollection_2">
    <defs>
     <path d="M 120.470184 -40.128 
L 120.470184 -38.016 
L 127.700798 -38.016 
L 134.931411 -38.016 
L 142.162025 -38.016 
L 149.392638 -38.016 
L 156.623252 -38.016 
L 163.853865 -38.016 
L 171.084479 -38.016 
L 178.315092 -38.016 
L 185.545706 -38.016 
L 192.776319 -38.016 
L 200.006933 -38.016 
L 207.237546 -38.016 
L 214.46816 -38.016 
L 221.698773 -38.016 
L 228.929387 -38.016 
L 236.16 -38.016 
L 243.390613 -38.016 
L 250.621227 -38.016 
L 257.85184 -38.016 
L 265.082454 -38.016 
L 272.313067 -38.016 
L 279.543681 -38.016 
L 286.774294 -38.016 
L 294.004908 -38.016 
L 301.235521 -38.016 
L 301.235521 -88.704 
L 301.235521 -88.704 
L 294.004908 -87.648 
L 286.774294 -84.48 
L 279.543681 -84.48 
L 272.313067 -105.6 
L 265.082454 -68.64 
L 257.85184 -71.808 
L 250.621227 -93.984 
L 243.390613 -93.984 
L 236.16 -107.712 
L 228.929387 -127.776 
L 221.698773 -107.712 
L 214.46816 -109.824 
L 207.237546 -108.768 
L 200.006933 -82.368 
L 192.776319 -85.536 
L 185.545706 -76.032 
L 178.315092 -54.912 
L 171.084479 -54.912 
L 163.853865 -52.8 
L 156.623252 -48.576 
L 149.392638 -48.576 
L 142.162025 -45.408 
L 134.931411 -41.184 
L 127.700798 -40.128 
L 120.470184 -40.128 
z
" id="m8c42ff38c2" style="stroke:#fa9ba4;stroke-opacity:0.3;"/>
    </defs>
    <g clip-path="url(#p6608c681a6)">
     <use style="fill:#fa9ba4;fill-opacity:0.3;stroke:#fa9ba4;stroke-opacity:0.3;" x="0" xlink:href="#m8c42ff38c2" y="345.6"/>
    </g>
   </g>
   <g id="line2d_1">
    <path clip-path="url(#p6608c681a6)" d="M 120.470184 305.472 
L 127.700798 305.472 
L 134.931411 304.416 
L 142.162025 300.192 
L 149.392638 297.024 
L 156.623252 297.024 
L 163.853865 292.8 
L 171.084479 290.688 
L 178.315092 290.688 
L 185.545706 269.568 
L 192.776319 260.064 
L 200.006933 263.232 
L 207.237546 236.832 
L 214.46816 235.776 
L 221.698773 237.888 
L 228.929387 217.824 
L 236.16 237.888 
L 243.390613 251.616 
L 250.621227 251.616 
L 257.85184 273.792 
L 265.082454 276.96 
L 272.313067 240 
L 279.543681 261.12 
L 286.774294 261.12 
L 294.004908 257.952 
L 301.235521 256.896 
L 308.466135 261.12 
L 315.696748 261.12 
L 322.927362 297.024 
L 330.157975 294.912 
L 337.388589 297.024 
L 344.619202 298.08 
L 351.849816 295.968 
L 359.080429 294.912 
L 366.311043 295.968 
L 373.541656 298.08 
L 380.77227 300.192 
L 388.002883 300.192 
L 395.233497 302.304 
" style="fill:none;stroke:#fa9ba4;stroke-linecap:square;stroke-width:2;"/>
   </g>
   <g id="line2d_2">
    <path clip-path="url(#p6608c681a6)" d="M 301.235521 256.896 
L 308.466135 261.12 
L 315.696748 261.12 
L 322.927362 297.024 
L 330.157975 294.912 
L 337.388589 297.024 
L 344.619202 298.08 
L 351.849816 295.968 
L 359.080429 294.912 
L 366.311043 295.968 
L 373.541656 298.08 
L 380.77227 300.192 
L 388.002883 300.192 
L 395.233497 302.304 
" style="fill:none;stroke:#dc3545;stroke-linecap:square;stroke-width:2;"/>
   </g>
  </g>
 </g>
 <defs>
  <clipPath id="p6608c681a6">
   <rect height="266.112" width="357.12" x="57.6" y="41.472"/>
  </clipPath>
 </defs>
</svg>
