<?xml version="1.0" encoding="utf-8" standalone="no"?>
<!DOCTYPE svg PUBLIC "-//W3C//DTD SVG 1.1//EN"
  "http://www.w3.org/Graphics/SVG/1.1/DTD/svg11.dtd">
<svg height="345.6pt" version="1.1" viewBox="0 0 460.8 345.6" width="460.8pt" xmlns="http://www.w3.org/2000/svg" xmlns:xlink="http://www.w3.org/1999/xlink">
 <metadata>
  <rdf:RDF xmlns:cc="http://creativecommons.org/ns#" xmlns:dc="http://purl.org/dc/elements/1.1/" xmlns:rdf="http://www.w3.org/1999/02/22-rdf-syntax-ns#">
   <cc:Work>
    <dc:type rdf:resource="http://purl.org/dc/dcmitype/StillImage"/>
    <dc:date>2021-04-29T08:02:53.717990</dc:date>
    <dc:format>image/svg+xml</dc:format>
    <dc:creator>
     <cc:Agent>
      <dc:title>Matplotlib v3.4.1, https://matplotlib.org/</dc:title>
     </cc:Agent>
    </dc:creator>
   </cc:Work>
  </rdf:RDF>
 </metadata>
 <defs>
  <style type="text/css">*{stroke-linecap:butt;stroke-linejoin:round;}</style>
 </defs>
 <g id="figure_1">
  <g id="patch_1">
   <path d="M 0 345.6 
L 460.8 345.6 
L 460.8 0 
L 0 0 
z
" style="fill:none;"/>
  </g>
  <g id="axes_1">
   <g id="patch_2">
    <path clip-path="url(#pe211745466)" d="M 73.832727 307.584 
L 75.998695 307.584 
L 75.998695 305.328814 
L 73.832727 305.328814 
z
" style="fill:#fa9ba4;opacity:0.2;"/>
   </g>
   <g id="patch_3">
    <path clip-path="url(#pe211745466)" d="M 76.239358 307.584 
L 78.405327 307.584 
L 78.405327 307.584 
L 76.239358 307.584 
z
" style="fill:#fa9ba4;opacity:0.2;"/>
   </g>
   <g id="patch_4">
    <path clip-path="url(#pe211745466)" d="M 78.64599 307.584 
L 80.811958 307.584 
L 80.811958 307.584 
L 78.64599 307.584 
z
" style="fill:#fa9ba4;opacity:0.2;"/>
   </g>
   <g id="patch_5">
    <path clip-path="url(#pe211745466)" d="M 81.052621 307.584 
L 83.218589 307.584 
L 83.218589 307.584 
L 81.052621 307.584 
z
" style="fill:#fa9ba4;opacity:0.2;"/>
   </g>
   <g id="patch_6">
    <path clip-path="url(#pe211745466)" d="M 83.459252 307.584 
L 85.62522 307.584 
L 85.62522 307.584 
L 83.459252 307.584 
z
" style="fill:#fa9ba4;opacity:0.2;"/>
   </g>
   <g id="patch_7">
    <path clip-path="url(#pe211745466)" d="M 85.865883 307.584 
L 88.031851 307.584 
L 88.031851 307.584 
L 85.865883 307.584 
z
" style="fill:#fa9ba4;opacity:0.2;"/>
   </g>
   <g id="patch_8">
    <path clip-path="url(#pe211745466)" d="M 88.272514 307.584 
L 90.438482 307.584 
L 90.438482 305.328814 
L 88.272514 305.328814 
z
" style="fill:#fa9ba4;opacity:0.2;"/>
   </g>
   <g id="patch_9">
    <path clip-path="url(#pe211745466)" d="M 90.679145 307.584 
L 92.845114 307.584 
L 92.845114 305.328814 
L 90.679145 305.328814 
z
" style="fill:#fa9ba4;opacity:0.2;"/>
   </g>
   <g id="patch_10">
    <path clip-path="url(#pe211745466)" d="M 93.085777 307.584 
L 95.251745 307.584 
L 95.251745 305.328814 
L 93.085777 305.328814 
z
" style="fill:#fa9ba4;opacity:0.2;"/>
   </g>
   <g id="patch_11">
    <path clip-path="url(#pe211745466)" d="M 95.492408 307.584 
L 97.658376 307.584 
L 97.658376 298.563254 
L 95.492408 298.563254 
z
" style="fill:#fa9ba4;opacity:0.2;"/>
   </g>
   <g id="patch_12">
    <path clip-path="url(#pe211745466)" d="M 97.899039 307.584 
L 100.065007 307.584 
L 100.065007 300.818441 
L 97.899039 300.818441 
z
" style="fill:#fa9ba4;opacity:0.2;"/>
   </g>
   <g id="patch_13">
    <path clip-path="url(#pe211745466)" d="M 100.30567 307.584 
L 102.471638 307.584 
L 102.471638 307.584 
L 100.30567 307.584 
z
" style="fill:#fa9ba4;opacity:0.2;"/>
   </g>
   <g id="patch_14">
    <path clip-path="url(#pe211745466)" d="M 102.712301 307.584 
L 104.878269 307.584 
L 104.878269 298.563254 
L 102.712301 298.563254 
z
" style="fill:#fa9ba4;opacity:0.2;"/>
   </g>
   <g id="patch_15">
    <path clip-path="url(#pe211745466)" d="M 105.118933 307.584 
L 107.284901 307.584 
L 107.284901 300.818441 
L 105.118933 300.818441 
z
" style="fill:#fa9ba4;opacity:0.2;"/>
   </g>
   <g id="patch_16">
    <path clip-path="url(#pe211745466)" d="M 107.525564 307.584 
L 109.691532 307.584 
L 109.691532 305.328814 
L 107.525564 305.328814 
z
" style="fill:#fa9ba4;opacity:0.2;"/>
   </g>
   <g id="patch_17">
    <path clip-path="url(#pe211745466)" d="M 109.932195 307.584 
L 112.098163 307.584 
L 112.098163 262.480271 
L 109.932195 262.480271 
z
" style="fill:#fa9ba4;opacity:0.2;"/>
   </g>
   <g id="patch_18">
    <path clip-path="url(#pe211745466)" d="M 112.338826 307.584 
L 114.504794 307.584 
L 114.504794 278.266576 
L 112.338826 278.266576 
z
" style="fill:#fa9ba4;opacity:0.2;"/>
   </g>
   <g id="patch_19">
    <path clip-path="url(#pe211745466)" d="M 114.745457 307.584 
L 116.911425 307.584 
L 116.911425 307.584 
L 114.745457 307.584 
z
" style="fill:#fa9ba4;opacity:0.2;"/>
   </g>
   <g id="patch_20">
    <path clip-path="url(#pe211745466)" d="M 117.152088 307.584 
L 119.318056 307.584 
L 119.318056 251.204339 
L 117.152088 251.204339 
z
" style="fill:#fa9ba4;opacity:0.2;"/>
   </g>
   <g id="patch_21">
    <path clip-path="url(#pe211745466)" d="M 119.55872 307.584 
L 121.724688 307.584 
L 121.724688 296.308068 
L 119.55872 296.308068 
z
" style="fill:#fa9ba4;opacity:0.2;"/>
   </g>
   <g id="patch_22">
    <path clip-path="url(#pe211745466)" d="M 121.965351 307.584 
L 124.131319 307.584 
L 124.131319 305.328814 
L 121.965351 305.328814 
z
" style="fill:#fa9ba4;opacity:0.2;"/>
   </g>
   <g id="patch_23">
    <path clip-path="url(#pe211745466)" d="M 124.371982 307.584 
L 126.53795 307.584 
L 126.53795 262.480271 
L 124.371982 262.480271 
z
" style="fill:#fa9ba4;opacity:0.2;"/>
   </g>
   <g id="patch_24">
    <path clip-path="url(#pe211745466)" d="M 126.778613 307.584 
L 128.944581 307.584 
L 128.944581 303.073627 
L 126.778613 303.073627 
z
" style="fill:#fa9ba4;opacity:0.2;"/>
   </g>
   <g id="patch_25">
    <path clip-path="url(#pe211745466)" d="M 129.185244 307.584 
L 131.351212 307.584 
L 131.351212 307.584 
L 129.185244 307.584 
z
" style="fill:#fa9ba4;opacity:0.2;"/>
   </g>
   <g id="patch_26">
    <path clip-path="url(#pe211745466)" d="M 131.591875 307.584 
L 133.757844 307.584 
L 133.757844 307.584 
L 131.591875 307.584 
z
" style="fill:#fa9ba4;opacity:0.2;"/>
   </g>
   <g id="patch_27">
    <path clip-path="url(#pe211745466)" d="M 133.998507 307.584 
L 136.164475 307.584 
L 136.164475 298.563254 
L 133.998507 298.563254 
z
" style="fill:#fa9ba4;opacity:0.2;"/>
   </g>
   <g id="patch_28">
    <path clip-path="url(#pe211745466)" d="M 136.405138 307.584 
L 138.571106 307.584 
L 138.571106 303.073627 
L 136.405138 303.073627 
z
" style="fill:#fa9ba4;opacity:0.2;"/>
   </g>
   <g id="patch_29">
    <path clip-path="url(#pe211745466)" d="M 138.811769 307.584 
L 140.977737 307.584 
L 140.977737 226.397288 
L 138.811769 226.397288 
z
" style="fill:#fa9ba4;opacity:0.2;"/>
   </g>
   <g id="patch_30">
    <path clip-path="url(#pe211745466)" d="M 141.2184 307.584 
L 143.384368 307.584 
L 143.384368 307.584 
L 141.2184 307.584 
z
" style="fill:#fa9ba4;opacity:0.2;"/>
   </g>
   <g id="patch_31">
    <path clip-path="url(#pe211745466)" d="M 143.625031 307.584 
L 145.790999 307.584 
L 145.790999 303.073627 
L 143.625031 303.073627 
z
" style="fill:#fa9ba4;opacity:0.2;"/>
   </g>
   <g id="patch_32">
    <path clip-path="url(#pe211745466)" d="M 146.031663 307.584 
L 148.197631 307.584 
L 148.197631 300.818441 
L 146.031663 300.818441 
z
" style="fill:#fa9ba4;opacity:0.2;"/>
   </g>
   <g id="patch_33">
    <path clip-path="url(#pe211745466)" d="M 148.438294 307.584 
L 150.604262 307.584 
L 150.604262 305.328814 
L 148.438294 305.328814 
z
" style="fill:#fa9ba4;opacity:0.2;"/>
   </g>
   <g id="patch_34">
    <path clip-path="url(#pe211745466)" d="M 150.844925 307.584 
L 153.010893 307.584 
L 153.010893 307.584 
L 150.844925 307.584 
z
" style="fill:#fa9ba4;opacity:0.2;"/>
   </g>
   <g id="patch_35">
    <path clip-path="url(#pe211745466)" d="M 153.251556 307.584 
L 155.417524 307.584 
L 155.417524 303.073627 
L 153.251556 303.073627 
z
" style="fill:#fa9ba4;opacity:0.2;"/>
   </g>
   <g id="patch_36">
    <path clip-path="url(#pe211745466)" d="M 155.658187 307.584 
L 157.824155 307.584 
L 157.824155 303.073627 
L 155.658187 303.073627 
z
" style="fill:#fa9ba4;opacity:0.2;"/>
   </g>
   <g id="patch_37">
    <path clip-path="url(#pe211745466)" d="M 158.064818 307.584 
L 160.230786 307.584 
L 160.230786 300.818441 
L 158.064818 300.818441 
z
" style="fill:#fa9ba4;opacity:0.2;"/>
   </g>
   <g id="patch_38">
    <path clip-path="url(#pe211745466)" d="M 160.47145 307.584 
L 162.637418 307.584 
L 162.637418 307.584 
L 160.47145 307.584 
z
" style="fill:#fa9ba4;opacity:0.2;"/>
   </g>
   <g id="patch_39">
    <path clip-path="url(#pe211745466)" d="M 162.878081 307.584 
L 165.044049 307.584 
L 165.044049 303.073627 
L 162.878081 303.073627 
z
" style="fill:#fa9ba4;opacity:0.2;"/>
   </g>
   <g id="patch_40">
    <path clip-path="url(#pe211745466)" d="M 165.284712 307.584 
L 167.45068 307.584 
L 167.45068 300.818441 
L 165.284712 300.818441 
z
" style="fill:#fa9ba4;opacity:0.2;"/>
   </g>
   <g id="patch_41">
    <path clip-path="url(#pe211745466)" d="M 167.691343 307.584 
L 169.857311 307.584 
L 169.857311 305.328814 
L 167.691343 305.328814 
z
" style="fill:#fa9ba4;opacity:0.2;"/>
   </g>
   <g id="patch_42">
    <path clip-path="url(#pe211745466)" d="M 170.097974 307.584 
L 172.263942 307.584 
L 172.263942 305.328814 
L 170.097974 305.328814 
z
" style="fill:#fa9ba4;opacity:0.2;"/>
   </g>
   <g id="patch_43">
    <path clip-path="url(#pe211745466)" d="M 172.504605 307.584 
L 174.670573 307.584 
L 174.670573 307.584 
L 172.504605 307.584 
z
" style="fill:#fa9ba4;opacity:0.2;"/>
   </g>
   <g id="patch_44">
    <path clip-path="url(#pe211745466)" d="M 174.911237 307.584 
L 177.077205 307.584 
L 177.077205 305.328814 
L 174.911237 305.328814 
z
" style="fill:#fa9ba4;opacity:0.2;"/>
   </g>
   <g id="patch_45">
    <path clip-path="url(#pe211745466)" d="M 177.317868 307.584 
L 179.483836 307.584 
L 179.483836 305.328814 
L 177.317868 305.328814 
z
" style="fill:#fa9ba4;opacity:0.2;"/>
   </g>
   <g id="patch_46">
    <path clip-path="url(#pe211745466)" d="M 179.724499 307.584 
L 181.890467 307.584 
L 181.890467 305.328814 
L 179.724499 305.328814 
z
" style="fill:#fa9ba4;opacity:0.2;"/>
   </g>
   <g id="patch_47">
    <path clip-path="url(#pe211745466)" d="M 182.13113 307.584 
L 184.297098 307.584 
L 184.297098 305.328814 
L 182.13113 305.328814 
z
" style="fill:#fa9ba4;opacity:0.2;"/>
   </g>
   <g id="patch_48">
    <path clip-path="url(#pe211745466)" d="M 184.537761 307.584 
L 186.703729 307.584 
L 186.703729 303.073627 
L 184.537761 303.073627 
z
" style="fill:#fa9ba4;opacity:0.2;"/>
   </g>
   <g id="patch_49">
    <path clip-path="url(#pe211745466)" d="M 186.944392 307.584 
L 189.110361 307.584 
L 189.110361 305.328814 
L 186.944392 305.328814 
z
" style="fill:#fa9ba4;opacity:0.2;"/>
   </g>
   <g id="patch_50">
    <path clip-path="url(#pe211745466)" d="M 189.351024 307.584 
L 191.516992 307.584 
L 191.516992 307.584 
L 189.351024 307.584 
z
" style="fill:#fa9ba4;opacity:0.2;"/>
   </g>
   <g id="patch_51">
    <path clip-path="url(#pe211745466)" d="M 191.757655 307.584 
L 193.923623 307.584 
L 193.923623 300.818441 
L 191.757655 300.818441 
z
" style="fill:#fa9ba4;opacity:0.2;"/>
   </g>
   <g id="patch_52">
    <path clip-path="url(#pe211745466)" d="M 194.164286 307.584 
L 196.330254 307.584 
L 196.330254 307.584 
L 194.164286 307.584 
z
" style="fill:#fa9ba4;opacity:0.2;"/>
   </g>
   <g id="patch_53">
    <path clip-path="url(#pe211745466)" d="M 196.570917 307.584 
L 198.736885 307.584 
L 198.736885 305.328814 
L 196.570917 305.328814 
z
" style="fill:#fa9ba4;opacity:0.2;"/>
   </g>
   <g id="patch_54">
    <path clip-path="url(#pe211745466)" d="M 198.977548 307.584 
L 201.143516 307.584 
L 201.143516 307.584 
L 198.977548 307.584 
z
" style="fill:#fa9ba4;opacity:0.2;"/>
   </g>
   <g id="patch_55">
    <path clip-path="url(#pe211745466)" d="M 201.38418 307.584 
L 203.550148 307.584 
L 203.550148 300.818441 
L 201.38418 300.818441 
z
" style="fill:#fa9ba4;opacity:0.2;"/>
   </g>
   <g id="patch_56">
    <path clip-path="url(#pe211745466)" d="M 203.790811 307.584 
L 205.956779 307.584 
L 205.956779 305.328814 
L 203.790811 305.328814 
z
" style="fill:#fa9ba4;opacity:0.2;"/>
   </g>
   <g id="patch_57">
    <path clip-path="url(#pe211745466)" d="M 206.197442 307.584 
L 208.36341 307.584 
L 208.36341 307.584 
L 206.197442 307.584 
z
" style="fill:#fa9ba4;opacity:0.2;"/>
   </g>
   <g id="patch_58">
    <path clip-path="url(#pe211745466)" d="M 208.604073 307.584 
L 210.770041 307.584 
L 210.770041 303.073627 
L 208.604073 303.073627 
z
" style="fill:#fa9ba4;opacity:0.2;"/>
   </g>
   <g id="patch_59">
    <path clip-path="url(#pe211745466)" d="M 211.010704 307.584 
L 213.176672 307.584 
L 213.176672 307.584 
L 211.010704 307.584 
z
" style="fill:#fa9ba4;opacity:0.2;"/>
   </g>
   <g id="patch_60">
    <path clip-path="url(#pe211745466)" d="M 213.417335 307.584 
L 215.583303 307.584 
L 215.583303 305.328814 
L 213.417335 305.328814 
z
" style="fill:#fa9ba4;opacity:0.2;"/>
   </g>
   <g id="patch_61">
    <path clip-path="url(#pe211745466)" d="M 215.823967 307.584 
L 217.989935 307.584 
L 217.989935 303.073627 
L 215.823967 303.073627 
z
" style="fill:#fa9ba4;opacity:0.2;"/>
   </g>
   <g id="patch_62">
    <path clip-path="url(#pe211745466)" d="M 218.230598 307.584 
L 220.396566 307.584 
L 220.396566 303.073627 
L 218.230598 303.073627 
z
" style="fill:#fa9ba4;opacity:0.2;"/>
   </g>
   <g id="patch_63">
    <path clip-path="url(#pe211745466)" d="M 220.637229 307.584 
L 222.803197 307.584 
L 222.803197 305.328814 
L 220.637229 305.328814 
z
" style="fill:#fa9ba4;opacity:0.2;"/>
   </g>
   <g id="patch_64">
    <path clip-path="url(#pe211745466)" d="M 223.04386 307.584 
L 225.209828 307.584 
L 225.209828 307.584 
L 223.04386 307.584 
z
" style="fill:#fa9ba4;opacity:0.2;"/>
   </g>
   <g id="patch_65">
    <path clip-path="url(#pe211745466)" d="M 225.450491 307.584 
L 227.616459 307.584 
L 227.616459 307.584 
L 225.450491 307.584 
z
" style="fill:#fa9ba4;opacity:0.2;"/>
   </g>
   <g id="patch_66">
    <path clip-path="url(#pe211745466)" d="M 227.857122 307.584 
L 230.023091 307.584 
L 230.023091 307.584 
L 227.857122 307.584 
z
" style="fill:#fa9ba4;opacity:0.2;"/>
   </g>
   <g id="patch_67">
    <path clip-path="url(#pe211745466)" d="M 230.263754 307.584 
L 232.429722 307.584 
L 232.429722 307.584 
L 230.263754 307.584 
z
" style="fill:#fa9ba4;opacity:0.2;"/>
   </g>
   <g id="patch_68">
    <path clip-path="url(#pe211745466)" d="M 232.670385 307.584 
L 234.836353 307.584 
L 234.836353 298.563254 
L 232.670385 298.563254 
z
" style="fill:#fa9ba4;opacity:0.2;"/>
   </g>
   <g id="patch_69">
    <path clip-path="url(#pe211745466)" d="M 235.077016 307.584 
L 237.242984 307.584 
L 237.242984 303.073627 
L 235.077016 303.073627 
z
" style="fill:#fa9ba4;opacity:0.2;"/>
   </g>
   <g id="patch_70">
    <path clip-path="url(#pe211745466)" d="M 237.483647 307.584 
L 239.649615 307.584 
L 239.649615 307.584 
L 237.483647 307.584 
z
" style="fill:#fa9ba4;opacity:0.2;"/>
   </g>
   <g id="patch_71">
    <path clip-path="url(#pe211745466)" d="M 239.890278 307.584 
L 242.056246 307.584 
L 242.056246 300.818441 
L 239.890278 300.818441 
z
" style="fill:#fa9ba4;opacity:0.2;"/>
   </g>
   <g id="patch_72">
    <path clip-path="url(#pe211745466)" d="M 242.296909 307.584 
L 244.462878 307.584 
L 244.462878 300.818441 
L 242.296909 300.818441 
z
" style="fill:#fa9ba4;opacity:0.2;"/>
   </g>
   <g id="patch_73">
    <path clip-path="url(#pe211745466)" d="M 244.703541 307.584 
L 246.869509 307.584 
L 246.869509 305.328814 
L 244.703541 305.328814 
z
" style="fill:#fa9ba4;opacity:0.2;"/>
   </g>
   <g id="patch_74">
    <path clip-path="url(#pe211745466)" d="M 247.110172 307.584 
L 249.27614 307.584 
L 249.27614 305.328814 
L 247.110172 305.328814 
z
" style="fill:#fa9ba4;opacity:0.2;"/>
   </g>
   <g id="patch_75">
    <path clip-path="url(#pe211745466)" d="M 249.516803 307.584 
L 251.682771 307.584 
L 251.682771 307.584 
L 249.516803 307.584 
z
" style="fill:#fa9ba4;opacity:0.2;"/>
   </g>
   <g id="patch_76">
    <path clip-path="url(#pe211745466)" d="M 251.923434 307.584 
L 254.089402 307.584 
L 254.089402 307.584 
L 251.923434 307.584 
z
" style="fill:#fa9ba4;opacity:0.2;"/>
   </g>
   <g id="patch_77">
    <path clip-path="url(#pe211745466)" d="M 254.330065 307.584 
L 256.496033 307.584 
L 256.496033 300.818441 
L 254.330065 300.818441 
z
" style="fill:#fa9ba4;opacity:0.2;"/>
   </g>
   <g id="patch_78">
    <path clip-path="url(#pe211745466)" d="M 256.736697 307.584 
L 258.902665 307.584 
L 258.902665 298.563254 
L 256.736697 298.563254 
z
" style="fill:#fa9ba4;opacity:0.2;"/>
   </g>
   <g id="patch_79">
    <path clip-path="url(#pe211745466)" d="M 259.143328 307.584 
L 261.309296 307.584 
L 261.309296 305.328814 
L 259.143328 305.328814 
z
" style="fill:#fa9ba4;opacity:0.2;"/>
   </g>
   <g id="patch_80">
    <path clip-path="url(#pe211745466)" d="M 261.549959 307.584 
L 263.715927 307.584 
L 263.715927 307.584 
L 261.549959 307.584 
z
" style="fill:#fa9ba4;opacity:0.2;"/>
   </g>
   <g id="patch_81">
    <path clip-path="url(#pe211745466)" d="M 263.95659 307.584 
L 266.122558 307.584 
L 266.122558 307.584 
L 263.95659 307.584 
z
" style="fill:#fa9ba4;opacity:0.2;"/>
   </g>
   <g id="patch_82">
    <path clip-path="url(#pe211745466)" d="M 266.363221 307.584 
L 268.529189 307.584 
L 268.529189 305.328814 
L 266.363221 305.328814 
z
" style="fill:#fa9ba4;opacity:0.2;"/>
   </g>
   <g id="patch_83">
    <path clip-path="url(#pe211745466)" d="M 268.769852 307.584 
L 270.93582 307.584 
L 270.93582 305.328814 
L 268.769852 305.328814 
z
" style="fill:#fa9ba4;opacity:0.2;"/>
   </g>
   <g id="patch_84">
    <path clip-path="url(#pe211745466)" d="M 271.176484 307.584 
L 273.342452 307.584 
L 273.342452 307.584 
L 271.176484 307.584 
z
" style="fill:#fa9ba4;opacity:0.2;"/>
   </g>
   <g id="patch_85">
    <path clip-path="url(#pe211745466)" d="M 273.583115 307.584 
L 275.749083 307.584 
L 275.749083 300.818441 
L 273.583115 300.818441 
z
" style="fill:#fa9ba4;opacity:0.2;"/>
   </g>
   <g id="patch_86">
    <path clip-path="url(#pe211745466)" d="M 275.989746 307.584 
L 278.155714 307.584 
L 278.155714 305.328814 
L 275.989746 305.328814 
z
" style="fill:#fa9ba4;opacity:0.2;"/>
   </g>
   <g id="patch_87">
    <path clip-path="url(#pe211745466)" d="M 278.396377 307.584 
L 280.562345 307.584 
L 280.562345 305.328814 
L 278.396377 305.328814 
z
" style="fill:#fa9ba4;opacity:0.2;"/>
   </g>
   <g id="patch_88">
    <path clip-path="url(#pe211745466)" d="M 280.803008 307.584 
L 282.968976 307.584 
L 282.968976 305.328814 
L 280.803008 305.328814 
z
" style="fill:#fa9ba4;opacity:0.2;"/>
   </g>
   <g id="patch_89">
    <path clip-path="url(#pe211745466)" d="M 283.209639 307.584 
L 285.375608 307.584 
L 285.375608 303.073627 
L 283.209639 303.073627 
z
" style="fill:#fa9ba4;opacity:0.2;"/>
   </g>
   <g id="patch_90">
    <path clip-path="url(#pe211745466)" d="M 285.616271 307.584 
L 287.782239 307.584 
L 287.782239 305.328814 
L 285.616271 305.328814 
z
" style="fill:#fa9ba4;opacity:0.2;"/>
   </g>
   <g id="patch_91">
    <path clip-path="url(#pe211745466)" d="M 288.022902 307.584 
L 290.18887 307.584 
L 290.18887 307.584 
L 288.022902 307.584 
z
" style="fill:#fa9ba4;opacity:0.2;"/>
   </g>
   <g id="patch_92">
    <path clip-path="url(#pe211745466)" d="M 290.429533 307.584 
L 292.595501 307.584 
L 292.595501 307.584 
L 290.429533 307.584 
z
" style="fill:#fa9ba4;opacity:0.2;"/>
   </g>
   <g id="patch_93">
    <path clip-path="url(#pe211745466)" d="M 292.836164 307.584 
L 295.002132 307.584 
L 295.002132 305.328814 
L 292.836164 305.328814 
z
" style="fill:#fa9ba4;opacity:0.2;"/>
   </g>
   <g id="patch_94">
    <path clip-path="url(#pe211745466)" d="M 295.242795 307.584 
L 297.408763 307.584 
L 297.408763 300.818441 
L 295.242795 300.818441 
z
" style="fill:#fa9ba4;opacity:0.2;"/>
   </g>
   <g id="patch_95">
    <path clip-path="url(#pe211745466)" d="M 297.649427 307.584 
L 299.815395 307.584 
L 299.815395 303.073627 
L 297.649427 303.073627 
z
" style="fill:#fa9ba4;opacity:0.2;"/>
   </g>
   <g id="patch_96">
    <path clip-path="url(#pe211745466)" d="M 300.056058 307.584 
L 302.222026 307.584 
L 302.222026 300.818441 
L 300.056058 300.818441 
z
" style="fill:#fa9ba4;opacity:0.2;"/>
   </g>
   <g id="patch_97">
    <path clip-path="url(#pe211745466)" d="M 302.462689 307.584 
L 304.628657 307.584 
L 304.628657 296.308068 
L 302.462689 296.308068 
z
" style="fill:#fa9ba4;opacity:0.2;"/>
   </g>
   <g id="patch_98">
    <path clip-path="url(#pe211745466)" d="M 304.86932 307.584 
L 307.035288 307.584 
L 307.035288 307.584 
L 304.86932 307.584 
z
" style="fill:#fa9ba4;opacity:0.2;"/>
   </g>
   <g id="patch_99">
    <path clip-path="url(#pe211745466)" d="M 307.275951 307.584 
L 309.441919 307.584 
L 309.441919 300.818441 
L 307.275951 300.818441 
z
" style="fill:#fa9ba4;opacity:0.2;"/>
   </g>
   <g id="patch_100">
    <path clip-path="url(#pe211745466)" d="M 309.682582 307.584 
L 311.84855 307.584 
L 311.84855 303.073627 
L 309.682582 303.073627 
z
" style="fill:#fa9ba4;opacity:0.2;"/>
   </g>
   <g id="patch_101">
    <path clip-path="url(#pe211745466)" d="M 312.089214 307.584 
L 314.255182 307.584 
L 314.255182 305.328814 
L 312.089214 305.328814 
z
" style="fill:#fa9ba4;opacity:0.2;"/>
   </g>
   <g id="patch_102">
    <path clip-path="url(#pe211745466)" d="M 314.495845 307.584 
L 316.661813 307.584 
L 316.661813 307.584 
L 314.495845 307.584 
z
" style="fill:#fa9ba4;opacity:0.2;"/>
   </g>
   <g id="patch_103">
    <path clip-path="url(#pe211745466)" d="M 316.902476 307.584 
L 319.068444 307.584 
L 319.068444 303.073627 
L 316.902476 303.073627 
z
" style="fill:#fa9ba4;opacity:0.2;"/>
   </g>
   <g id="patch_104">
    <path clip-path="url(#pe211745466)" d="M 319.309107 307.584 
L 321.475075 307.584 
L 321.475075 300.818441 
L 319.309107 300.818441 
z
" style="fill:#fa9ba4;opacity:0.2;"/>
   </g>
   <g id="patch_105">
    <path clip-path="url(#pe211745466)" d="M 321.715738 307.584 
L 323.881706 307.584 
L 323.881706 300.818441 
L 321.715738 300.818441 
z
" style="fill:#fa9ba4;opacity:0.2;"/>
   </g>
   <g id="patch_106">
    <path clip-path="url(#pe211745466)" d="M 324.122369 307.584 
L 326.288337 307.584 
L 326.288337 298.563254 
L 324.122369 298.563254 
z
" style="fill:#fa9ba4;opacity:0.2;"/>
   </g>
   <g id="patch_107">
    <path clip-path="url(#pe211745466)" d="M 326.529001 307.584 
L 328.694969 307.584 
L 328.694969 303.073627 
L 326.529001 303.073627 
z
" style="fill:#fa9ba4;opacity:0.2;"/>
   </g>
   <g id="patch_108">
    <path clip-path="url(#pe211745466)" d="M 328.935632 307.584 
L 331.1016 307.584 
L 331.1016 307.584 
L 328.935632 307.584 
z
" style="fill:#fa9ba4;opacity:0.2;"/>
   </g>
   <g id="patch_109">
    <path clip-path="url(#pe211745466)" d="M 331.342263 307.584 
L 333.508231 307.584 
L 333.508231 307.584 
L 331.342263 307.584 
z
" style="fill:#fa9ba4;opacity:0.2;"/>
   </g>
   <g id="patch_110">
    <path clip-path="url(#pe211745466)" d="M 333.748894 307.584 
L 335.914862 307.584 
L 335.914862 296.308068 
L 333.748894 296.308068 
z
" style="fill:#fa9ba4;opacity:0.2;"/>
   </g>
   <g id="patch_111">
    <path clip-path="url(#pe211745466)" d="M 336.155525 307.584 
L 338.321493 307.584 
L 338.321493 298.563254 
L 336.155525 298.563254 
z
" style="fill:#fa9ba4;opacity:0.2;"/>
   </g>
   <g id="patch_112">
    <path clip-path="url(#pe211745466)" d="M 338.562156 307.584 
L 340.728125 307.584 
L 340.728125 303.073627 
L 338.562156 303.073627 
z
" style="fill:#fa9ba4;opacity:0.2;"/>
   </g>
   <g id="patch_113">
    <path clip-path="url(#pe211745466)" d="M 340.968788 307.584 
L 343.134756 307.584 
L 343.134756 298.563254 
L 340.968788 298.563254 
z
" style="fill:#fa9ba4;opacity:0.2;"/>
   </g>
   <g id="patch_114">
    <path clip-path="url(#pe211745466)" d="M 343.375419 307.584 
L 345.541387 307.584 
L 345.541387 305.328814 
L 343.375419 305.328814 
z
" style="fill:#fa9ba4;opacity:0.2;"/>
   </g>
   <g id="patch_115">
    <path clip-path="url(#pe211745466)" d="M 345.78205 307.584 
L 347.948018 307.584 
L 347.948018 289.542508 
L 345.78205 289.542508 
z
" style="fill:#fa9ba4;opacity:0.2;"/>
   </g>
   <g id="patch_116">
    <path clip-path="url(#pe211745466)" d="M 348.188681 307.584 
L 350.354649 307.584 
L 350.354649 262.480271 
L 348.188681 262.480271 
z
" style="fill:#fa9ba4;opacity:0.2;"/>
   </g>
   <g id="patch_117">
    <path clip-path="url(#pe211745466)" d="M 350.595312 307.584 
L 352.76128 307.584 
L 352.76128 291.797695 
L 350.595312 291.797695 
z
" style="fill:#fa9ba4;opacity:0.2;"/>
   </g>
   <g id="patch_118">
    <path clip-path="url(#pe211745466)" d="M 353.001944 307.584 
L 355.167912 307.584 
L 355.167912 300.818441 
L 353.001944 300.818441 
z
" style="fill:#fa9ba4;opacity:0.2;"/>
   </g>
   <g id="patch_119">
    <path clip-path="url(#pe211745466)" d="M 355.408575 307.584 
L 357.574543 307.584 
L 357.574543 264.735458 
L 355.408575 264.735458 
z
" style="fill:#fa9ba4;opacity:0.2;"/>
   </g>
   <g id="patch_120">
    <path clip-path="url(#pe211745466)" d="M 357.815206 307.584 
L 359.981174 307.584 
L 359.981174 303.073627 
L 357.815206 303.073627 
z
" style="fill:#fa9ba4;opacity:0.2;"/>
   </g>
   <g id="patch_121">
    <path clip-path="url(#pe211745466)" d="M 360.221837 307.584 
L 362.387805 307.584 
L 362.387805 305.328814 
L 360.221837 305.328814 
z
" style="fill:#fa9ba4;opacity:0.2;"/>
   </g>
   <g id="patch_122">
    <path clip-path="url(#pe211745466)" d="M 362.628468 307.584 
L 364.794436 307.584 
L 364.794436 287.287322 
L 362.628468 287.287322 
z
" style="fill:#fa9ba4;opacity:0.2;"/>
   </g>
   <g id="patch_123">
    <path clip-path="url(#pe211745466)" d="M 365.035099 307.584 
L 367.201067 307.584 
L 367.201067 226.397288 
L 365.035099 226.397288 
z
" style="fill:#fa9ba4;opacity:0.2;"/>
   </g>
   <g id="patch_124">
    <path clip-path="url(#pe211745466)" d="M 367.441731 307.584 
L 369.607699 307.584 
L 369.607699 170.017627 
L 367.441731 170.017627 
z
" style="fill:#fa9ba4;opacity:0.2;"/>
   </g>
   <g id="patch_125">
    <path clip-path="url(#pe211745466)" d="M 369.848362 307.584 
L 372.01433 307.584 
L 372.01433 280.521763 
L 369.848362 280.521763 
z
" style="fill:#fa9ba4;opacity:0.2;"/>
   </g>
   <g id="patch_126">
    <path clip-path="url(#pe211745466)" d="M 372.254993 307.584 
L 374.420961 307.584 
L 374.420961 82.065356 
L 372.254993 82.065356 
z
" style="fill:#fa9ba4;opacity:0.2;"/>
   </g>
   <g id="patch_127">
    <path clip-path="url(#pe211745466)" d="M 374.661624 307.584 
L 376.827592 307.584 
L 376.827592 219.631729 
L 374.661624 219.631729 
z
" style="fill:#fa9ba4;opacity:0.2;"/>
   </g>
   <g id="patch_128">
    <path clip-path="url(#pe211745466)" d="M 377.068255 307.584 
L 379.234223 307.584 
L 379.234223 255.714712 
L 377.068255 255.714712 
z
" style="fill:#fa9ba4;opacity:0.2;"/>
   </g>
   <g id="patch_129">
    <path clip-path="url(#pe211745466)" d="M 379.474886 307.584 
L 381.640855 307.584 
L 381.640855 151.976136 
L 379.474886 151.976136 
z
" style="fill:#fa9ba4;opacity:0.2;"/>
   </g>
   <g id="patch_130">
    <path clip-path="url(#pe211745466)" d="M 381.881518 307.584 
L 384.047486 307.584 
L 384.047486 41.472 
L 381.881518 41.472 
z
" style="fill:#fa9ba4;opacity:0.2;"/>
   </g>
   <g id="patch_131">
    <path clip-path="url(#pe211745466)" d="M 384.288149 307.584 
L 386.454117 307.584 
L 386.454117 230.907661 
L 384.288149 230.907661 
z
" style="fill:#fa9ba4;opacity:0.2;"/>
   </g>
   <g id="patch_132">
    <path clip-path="url(#pe211745466)" d="M 386.69478 307.584 
L 388.860748 307.584 
L 388.860748 77.554983 
L 386.69478 77.554983 
z
" style="fill:#fa9ba4;opacity:0.2;"/>
   </g>
   <g id="patch_133">
    <path clip-path="url(#pe211745466)" d="M 389.101411 307.584 
L 391.267379 307.584 
L 391.267379 48.237559 
L 389.101411 48.237559 
z
" style="fill:#fa9ba4;opacity:0.2;"/>
   </g>
   <g id="patch_134">
    <path clip-path="url(#pe211745466)" d="M 391.508042 307.584 
L 393.67401 307.584 
L 393.67401 84.320542 
L 391.508042 84.320542 
z
" style="fill:#fa9ba4;opacity:0.2;"/>
   </g>
   <g id="patch_135">
    <path clip-path="url(#pe211745466)" d="M 393.914673 307.584 
L 396.080642 307.584 
L 396.080642 307.584 
L 393.914673 307.584 
z
" style="fill:#fa9ba4;opacity:0.2;"/>
   </g>
   <g id="patch_136">
    <path clip-path="url(#pe211745466)" d="M 396.321305 307.584 
L 398.487273 307.584 
L 398.487273 307.584 
L 396.321305 307.584 
z
" style="fill:#fa9ba4;opacity:0.2;"/>
   </g>
   <g id="matplotlib.axis_1"/>
   <g id="matplotlib.axis_2"/>
   <g id="PolyCollection_1">
    <defs>
     <path d="M 366.118083 -62.823051 
L 366.118083 -38.016 
L 368.524715 -38.016 
L 370.931346 -38.016 
L 373.337977 -38.016 
L 375.744608 -38.016 
L 378.151239 -38.016 
L 380.55787 -38.016 
L 382.964502 -38.016 
L 385.371133 -38.016 
L 387.777764 -38.016 
L 390.184395 -38.016 
L 392.591026 -38.016 
L 394.997658 -38.016 
L 397.404289 -38.016 
L 397.404289 -188.791322 
L 397.404289 -188.791322 
L 394.997658 -211.021017 
L 392.591026 -218.430915 
L 390.184395 -199.100746 
L 387.777764 -194.268203 
L 385.371133 -165.272949 
L 382.964502 -173.971525 
L 380.55787 -147.553627 
L 378.151239 -128.223458 
L 375.744608 -121.135729 
L 373.337977 -109.215458 
L 370.931346 -83.119729 
L 368.524715 -80.220203 
L 366.118083 -62.823051 
z
" id="m570b09a4b7" style="stroke:#dc3545;stroke-opacity:0.5;"/>
    </defs>
    <g clip-path="url(#pe211745466)">
     <use style="fill:#dc3545;fill-opacity:0.5;stroke:#dc3545;stroke-opacity:0.5;" x="0" xlink:href="#m570b09a4b7" y="345.6"/>
    </g>
   </g>
   <g id="PolyCollection_2">
    <defs>
     <path d="M 89.355498 -38.660339 
L 89.355498 -38.016 
L 91.76213 -38.016 
L 94.168761 -38.016 
L 96.575392 -38.016 
L 98.982023 -38.016 
L 101.388654 -38.016 
L 103.795285 -38.016 
L 106.201917 -38.016 
L 108.608548 -38.016 
L 111.015179 -38.016 
L 113.42181 -38.016 
L 115.828441 -38.016 
L 118.235072 -38.016 
L 120.641704 -38.016 
L 123.048335 -38.016 
L 125.454966 -38.016 
L 127.861597 -38.016 
L 130.268228 -38.016 
L 132.674859 -38.016 
L 135.081491 -38.016 
L 137.488122 -38.016 
L 139.894753 -38.016 
L 142.301384 -38.016 
L 144.708015 -38.016 
L 147.114647 -38.016 
L 149.521278 -38.016 
L 151.927909 -38.016 
L 154.33454 -38.016 
L 156.741171 -38.016 
L 159.147802 -38.016 
L 161.554434 -38.016 
L 163.961065 -38.016 
L 166.367696 -38.016 
L 168.774327 -38.016 
L 171.180958 -38.016 
L 173.587589 -38.016 
L 175.994221 -38.016 
L 178.400852 -38.016 
L 180.807483 -38.016 
L 183.214114 -38.016 
L 185.620745 -38.016 
L 188.027377 -38.016 
L 190.434008 -38.016 
L 192.840639 -38.016 
L 195.24727 -38.016 
L 197.653901 -38.016 
L 200.060532 -38.016 
L 202.467164 -38.016 
L 204.873795 -38.016 
L 207.280426 -38.016 
L 209.687057 -38.016 
L 212.093688 -38.016 
L 214.500319 -38.016 
L 216.906951 -38.016 
L 219.313582 -38.016 
L 221.720213 -38.016 
L 224.126844 -38.016 
L 226.533475 -38.016 
L 228.940106 -38.016 
L 231.346738 -38.016 
L 233.753369 -38.016 
L 236.16 -38.016 
L 238.566631 -38.016 
L 240.973262 -38.016 
L 243.379894 -38.016 
L 245.786525 -38.016 
L 248.193156 -38.016 
L 250.599787 -38.016 
L 253.006418 -38.016 
L 255.413049 -38.016 
L 257.819681 -38.016 
L 260.226312 -38.016 
L 262.632943 -38.016 
L 265.039574 -38.016 
L 267.446205 -38.016 
L 269.852836 -38.016 
L 272.259468 -38.016 
L 274.666099 -38.016 
L 277.07273 -38.016 
L 279.479361 -38.016 
L 281.885992 -38.016 
L 284.292623 -38.016 
L 286.699255 -38.016 
L 289.105886 -38.016 
L 291.512517 -38.016 
L 293.919148 -38.016 
L 296.325779 -38.016 
L 298.732411 -38.016 
L 301.139042 -38.016 
L 303.545673 -38.016 
L 305.952304 -38.016 
L 308.358935 -38.016 
L 310.765566 -38.016 
L 313.172198 -38.016 
L 315.578829 -38.016 
L 317.98546 -38.016 
L 320.392091 -38.016 
L 322.798722 -38.016 
L 325.205353 -38.016 
L 327.611985 -38.016 
L 330.018616 -38.016 
L 332.425247 -38.016 
L 334.831878 -38.016 
L 337.238509 -38.016 
L 339.645141 -38.016 
L 342.051772 -38.016 
L 344.458403 -38.016 
L 346.865034 -38.016 
L 349.271665 -38.016 
L 351.678296 -38.016 
L 354.084928 -38.016 
L 356.491559 -38.016 
L 358.89819 -38.016 
L 361.304821 -38.016 
L 363.711452 -38.016 
L 366.118083 -38.016 
L 366.118083 -62.823051 
L 366.118083 -62.823051 
L 363.711452 -57.668339 
L 361.304821 -57.346169 
L 358.89819 -57.346169 
L 356.491559 -57.990508 
L 354.084928 -52.513627 
L 351.678296 -52.835797 
L 349.271665 -52.191458 
L 346.865034 -45.748068 
L 344.458403 -43.170712 
L 342.051772 -43.492881 
L 339.645141 -43.492881 
L 337.238509 -43.815051 
L 334.831878 -43.492881 
L 332.425247 -42.526373 
L 330.018616 -42.526373 
L 327.611985 -42.848542 
L 325.205353 -42.848542 
L 322.798722 -42.526373 
L 320.392091 -41.559864 
L 317.98546 -42.204203 
L 315.578829 -42.526373 
L 313.172198 -43.170712 
L 310.765566 -43.815051 
L 308.358935 -43.492881 
L 305.952304 -42.526373 
L 303.545673 -42.526373 
L 301.139042 -41.237695 
L 298.732411 -40.915525 
L 296.325779 -40.593356 
L 293.919148 -39.949017 
L 291.512517 -39.949017 
L 289.105886 -40.915525 
L 286.699255 -40.915525 
L 284.292623 -40.915525 
L 281.885992 -40.593356 
L 279.479361 -40.271186 
L 277.07273 -39.949017 
L 274.666099 -39.949017 
L 272.259468 -40.271186 
L 269.852836 -41.237695 
L 267.446205 -40.915525 
L 265.039574 -40.593356 
L 262.632943 -40.915525 
L 260.226312 -41.237695 
L 257.819681 -41.882034 
L 255.413049 -41.559864 
L 253.006418 -40.593356 
L 250.599787 -41.237695 
L 248.193156 -42.526373 
L 245.786525 -42.204203 
L 243.379894 -41.882034 
L 240.973262 -40.915525 
L 238.566631 -39.949017 
L 236.16 -40.271186 
L 233.753369 -40.271186 
L 231.346738 -39.626847 
L 228.940106 -39.949017 
L 226.533475 -39.949017 
L 224.126844 -40.593356 
L 221.720213 -40.593356 
L 219.313582 -40.593356 
L 216.906951 -40.915525 
L 214.500319 -40.271186 
L 212.093688 -40.271186 
L 209.687057 -40.271186 
L 207.280426 -40.593356 
L 204.873795 -40.593356 
L 202.467164 -40.593356 
L 200.060532 -40.271186 
L 197.653901 -40.593356 
L 195.24727 -40.593356 
L 192.840639 -40.915525 
L 190.434008 -40.271186 
L 188.027377 -40.271186 
L 185.620745 -40.271186 
L 183.214114 -39.949017 
L 180.807483 -40.593356 
L 178.400852 -40.915525 
L 175.994221 -40.593356 
L 173.587589 -41.237695 
L 171.180958 -41.882034 
L 168.774327 -42.204203 
L 166.367696 -41.882034 
L 163.961065 -41.237695 
L 161.554434 -41.559864 
L 159.147802 -42.204203 
L 156.741171 -41.237695 
L 154.33454 -52.191458 
L 151.927909 -52.191458 
L 149.521278 -53.480136 
L 147.114647 -53.157966 
L 144.708015 -52.191458 
L 142.301384 -52.191458 
L 139.894753 -58.634847 
L 137.488122 -47.358915 
L 135.081491 -48.325424 
L 132.674859 -55.090983 
L 130.268228 -55.090983 
L 127.861597 -59.279186 
L 125.454966 -65.078237 
L 123.048335 -58.957017 
L 120.641704 -59.601356 
L 118.235072 -59.279186 
L 115.828441 -51.224949 
L 113.42181 -52.191458 
L 111.015179 -49.291932 
L 108.608548 -43.170712 
L 106.201917 -43.170712 
L 103.795285 -42.526373 
L 101.388654 -41.237695 
L 98.982023 -41.237695 
L 96.575392 -40.271186 
L 94.168761 -38.982508 
L 91.76213 -38.660339 
L 89.355498 -38.660339 
z
" id="m4064b4ede1" style="stroke:#fa9ba4;stroke-opacity:0.3;"/>
    </defs>
    <g clip-path="url(#pe211745466)">
     <use style="fill:#fa9ba4;fill-opacity:0.3;stroke:#fa9ba4;stroke-opacity:0.3;" x="0" xlink:href="#m4064b4ede1" y="345.6"/>
    </g>
   </g>
   <g id="line2d_1">
    <path clip-path="url(#pe211745466)" d="M 89.355498 306.939661 
L 91.76213 306.939661 
L 94.168761 306.617492 
L 96.575392 305.328814 
L 98.982023 304.362305 
L 101.388654 304.362305 
L 103.795285 303.073627 
L 106.201917 302.429288 
L 108.608548 302.429288 
L 111.015179 296.308068 
L 113.42181 293.408542 
L 115.828441 294.375051 
L 118.235072 286.320814 
L 120.641704 285.998644 
L 123.048335 286.642983 
L 125.454966 280.521763 
L 127.861597 286.320814 
L 130.268228 290.509017 
L 132.674859 290.509017 
L 135.081491 297.274576 
L 137.488122 298.241085 
L 139.894753 286.965153 
L 142.301384 293.408542 
L 144.708015 293.408542 
L 147.114647 292.442034 
L 149.521278 292.119864 
L 151.927909 293.408542 
L 154.33454 293.408542 
L 156.741171 304.362305 
L 159.147802 303.395797 
L 161.554434 304.040136 
L 163.961065 304.362305 
L 166.367696 303.717966 
L 168.774327 303.395797 
L 171.180958 303.717966 
L 175.994221 305.006644 
L 178.400852 304.684475 
L 180.807483 305.006644 
L 183.214114 305.650983 
L 185.620745 305.328814 
L 190.434008 305.328814 
L 192.840639 304.684475 
L 195.24727 305.006644 
L 197.653901 305.006644 
L 200.060532 305.328814 
L 202.467164 305.006644 
L 207.280426 305.006644 
L 209.687057 305.328814 
L 214.500319 305.328814 
L 216.906951 304.684475 
L 219.313582 305.006644 
L 224.126844 305.006644 
L 226.533475 305.650983 
L 228.940106 305.650983 
L 231.346738 305.973153 
L 233.753369 305.328814 
L 236.16 305.328814 
L 238.566631 305.650983 
L 243.379894 303.717966 
L 248.193156 303.073627 
L 250.599787 304.362305 
L 253.006418 305.006644 
L 255.413049 304.040136 
L 257.819681 303.717966 
L 260.226312 304.362305 
L 265.039574 305.006644 
L 269.852836 304.362305 
L 272.259468 305.328814 
L 274.666099 305.650983 
L 277.07273 305.650983 
L 284.292623 304.684475 
L 289.105886 304.684475 
L 291.512517 305.650983 
L 293.919148 305.650983 
L 296.325779 305.006644 
L 301.139042 304.362305 
L 303.545673 303.073627 
L 305.952304 303.073627 
L 308.358935 302.107119 
L 310.765566 301.784949 
L 315.578829 303.073627 
L 317.98546 303.395797 
L 320.392091 304.040136 
L 322.798722 303.073627 
L 325.205353 302.751458 
L 327.611985 302.751458 
L 330.018616 303.073627 
L 332.425247 303.073627 
L 334.831878 302.107119 
L 337.238509 301.784949 
L 339.645141 302.107119 
L 342.051772 302.107119 
L 344.458403 302.429288 
L 346.865034 299.851932 
L 349.271665 293.408542 
L 351.678296 292.764203 
L 354.084928 293.086373 
L 356.491559 287.609492 
L 358.89819 288.253831 
L 361.304821 288.253831 
L 363.711452 287.931661 
L 366.118083 282.776949 
L 368.524715 265.379797 
L 370.931346 262.480271 
L 373.337977 236.384542 
L 375.744608 224.464271 
L 378.151239 217.376542 
L 380.55787 198.046373 
L 382.964502 171.628475 
L 385.371133 180.327051 
L 387.777764 151.331797 
L 390.184395 146.499254 
L 392.591026 127.169085 
L 394.997658 134.578983 
L 397.404289 156.808678 
L 397.404289 156.808678 
" style="fill:none;stroke:#fa9ba4;stroke-linecap:square;stroke-width:2;"/>
   </g>
   <g id="line2d_2">
    <path clip-path="url(#pe211745466)" d="M 366.118083 282.776949 
L 368.524715 265.379797 
L 370.931346 262.480271 
L 373.337977 236.384542 
L 375.744608 224.464271 
L 378.151239 217.376542 
L 380.55787 198.046373 
L 382.964502 171.628475 
L 385.371133 180.327051 
L 387.777764 151.331797 
L 390.184395 146.499254 
L 392.591026 127.169085 
L 394.997658 134.578983 
L 397.404289 156.808678 
" style="fill:none;stroke:#dc3545;stroke-linecap:square;stroke-width:2;"/>
   </g>
  </g>
 </g>
 <defs>
  <clipPath id="pe211745466">
   <rect height="266.112" width="357.12" x="57.6" y="41.472"/>
  </clipPath>
 </defs>
</svg>
