<?xml version="1.0" encoding="utf-8" standalone="no"?>
<!DOCTYPE svg PUBLIC "-//W3C//DTD SVG 1.1//EN"
  "http://www.w3.org/Graphics/SVG/1.1/DTD/svg11.dtd">
<!-- Created with matplotlib (https://matplotlib.org/) -->
<svg height="345.6pt" version="1.1" viewBox="0 0 460.8 345.6" width="460.8pt" xmlns="http://www.w3.org/2000/svg" xmlns:xlink="http://www.w3.org/1999/xlink">
 <metadata>
  <rdf:RDF xmlns:cc="http://creativecommons.org/ns#" xmlns:dc="http://purl.org/dc/elements/1.1/" xmlns:rdf="http://www.w3.org/1999/02/22-rdf-syntax-ns#">
   <cc:Work>
    <dc:type rdf:resource="http://purl.org/dc/dcmitype/StillImage"/>
    <dc:date>2021-01-18T13:56:32.337325</dc:date>
    <dc:format>image/svg+xml</dc:format>
    <dc:creator>
     <cc:Agent>
      <dc:title>Matplotlib v3.3.3, https://matplotlib.org/</dc:title>
     </cc:Agent>
    </dc:creator>
   </cc:Work>
  </rdf:RDF>
 </metadata>
 <defs>
  <style type="text/css">*{stroke-linecap:butt;stroke-linejoin:round;}</style>
 </defs>
 <g id="figure_1">
  <g id="patch_1">
   <path d="M 0 345.6 
L 460.8 345.6 
L 460.8 0 
L 0 0 
z
" style="fill:none;"/>
  </g>
  <g id="axes_1">
   <g id="patch_2">
    <path clip-path="url(#p36d0f620dc)" d="M 73.832727 307.584 
L 82.451874 307.584 
L 82.451874 307.584 
L 73.832727 307.584 
z
" style="fill:#fa9ba4;opacity:0.2;"/>
   </g>
   <g id="patch_3">
    <path clip-path="url(#p36d0f620dc)" d="M 83.409558 307.584 
L 92.028705 307.584 
L 92.028705 307.584 
L 83.409558 307.584 
z
" style="fill:#fa9ba4;opacity:0.2;"/>
   </g>
   <g id="patch_4">
    <path clip-path="url(#p36d0f620dc)" d="M 92.986388 307.584 
L 101.605535 307.584 
L 101.605535 307.584 
L 92.986388 307.584 
z
" style="fill:#fa9ba4;opacity:0.2;"/>
   </g>
   <g id="patch_5">
    <path clip-path="url(#p36d0f620dc)" d="M 102.563218 307.584 
L 111.182365 307.584 
L 111.182365 307.584 
L 102.563218 307.584 
z
" style="fill:#fa9ba4;opacity:0.2;"/>
   </g>
   <g id="patch_6">
    <path clip-path="url(#p36d0f620dc)" d="M 112.140048 307.584 
L 120.759195 307.584 
L 120.759195 307.584 
L 112.140048 307.584 
z
" style="fill:#fa9ba4;opacity:0.2;"/>
   </g>
   <g id="patch_7">
    <path clip-path="url(#p36d0f620dc)" d="M 121.716879 307.584 
L 130.336026 307.584 
L 130.336026 307.584 
L 121.716879 307.584 
z
" style="fill:#fa9ba4;opacity:0.2;"/>
   </g>
   <g id="patch_8">
    <path clip-path="url(#p36d0f620dc)" d="M 131.293709 307.584 
L 139.912856 307.584 
L 139.912856 307.584 
L 131.293709 307.584 
z
" style="fill:#fa9ba4;opacity:0.2;"/>
   </g>
   <g id="patch_9">
    <path clip-path="url(#p36d0f620dc)" d="M 140.870539 307.584 
L 149.489686 307.584 
L 149.489686 307.584 
L 140.870539 307.584 
z
" style="fill:#fa9ba4;opacity:0.2;"/>
   </g>
   <g id="patch_10">
    <path clip-path="url(#p36d0f620dc)" d="M 150.447369 307.584 
L 159.066516 307.584 
L 159.066516 307.584 
L 150.447369 307.584 
z
" style="fill:#fa9ba4;opacity:0.2;"/>
   </g>
   <g id="patch_11">
    <path clip-path="url(#p36d0f620dc)" d="M 160.0242 307.584 
L 168.643347 307.584 
L 168.643347 307.584 
L 160.0242 307.584 
z
" style="fill:#fa9ba4;opacity:0.2;"/>
   </g>
   <g id="patch_12">
    <path clip-path="url(#p36d0f620dc)" d="M 169.60103 307.584 
L 178.220177 307.584 
L 178.220177 307.584 
L 169.60103 307.584 
z
" style="fill:#fa9ba4;opacity:0.2;"/>
   </g>
   <g id="patch_13">
    <path clip-path="url(#p36d0f620dc)" d="M 179.17786 307.584 
L 187.797007 307.584 
L 187.797007 307.584 
L 179.17786 307.584 
z
" style="fill:#fa9ba4;opacity:0.2;"/>
   </g>
   <g id="patch_14">
    <path clip-path="url(#p36d0f620dc)" d="M 188.75469 307.584 
L 197.373837 307.584 
L 197.373837 307.584 
L 188.75469 307.584 
z
" style="fill:#fa9ba4;opacity:0.2;"/>
   </g>
   <g id="patch_15">
    <path clip-path="url(#p36d0f620dc)" d="M 198.331521 307.584 
L 206.950668 307.584 
L 206.950668 307.584 
L 198.331521 307.584 
z
" style="fill:#fa9ba4;opacity:0.2;"/>
   </g>
   <g id="patch_16">
    <path clip-path="url(#p36d0f620dc)" d="M 207.908351 307.584 
L 216.527498 307.584 
L 216.527498 307.584 
L 207.908351 307.584 
z
" style="fill:#fa9ba4;opacity:0.2;"/>
   </g>
   <g id="patch_17">
    <path clip-path="url(#p36d0f620dc)" d="M 217.485181 307.584 
L 226.104328 307.584 
L 226.104328 307.584 
L 217.485181 307.584 
z
" style="fill:#fa9ba4;opacity:0.2;"/>
   </g>
   <g id="patch_18">
    <path clip-path="url(#p36d0f620dc)" d="M 227.062011 307.584 
L 235.681158 307.584 
L 235.681158 41.472 
L 227.062011 41.472 
z
" style="fill:#fa9ba4;opacity:0.2;"/>
   </g>
   <g id="patch_19">
    <path clip-path="url(#p36d0f620dc)" d="M 236.638842 307.584 
L 245.257989 307.584 
L 245.257989 307.584 
L 236.638842 307.584 
z
" style="fill:#fa9ba4;opacity:0.2;"/>
   </g>
   <g id="patch_20">
    <path clip-path="url(#p36d0f620dc)" d="M 246.215672 307.584 
L 254.834819 307.584 
L 254.834819 307.584 
L 246.215672 307.584 
z
" style="fill:#fa9ba4;opacity:0.2;"/>
   </g>
   <g id="patch_21">
    <path clip-path="url(#p36d0f620dc)" d="M 255.792502 307.584 
L 264.411649 307.584 
L 264.411649 307.584 
L 255.792502 307.584 
z
" style="fill:#fa9ba4;opacity:0.2;"/>
   </g>
   <g id="patch_22">
    <path clip-path="url(#p36d0f620dc)" d="M 265.369332 307.584 
L 273.988479 307.584 
L 273.988479 307.584 
L 265.369332 307.584 
z
" style="fill:#fa9ba4;opacity:0.2;"/>
   </g>
   <g id="patch_23">
    <path clip-path="url(#p36d0f620dc)" d="M 274.946163 307.584 
L 283.56531 307.584 
L 283.56531 307.584 
L 274.946163 307.584 
z
" style="fill:#fa9ba4;opacity:0.2;"/>
   </g>
   <g id="patch_24">
    <path clip-path="url(#p36d0f620dc)" d="M 284.522993 307.584 
L 293.14214 307.584 
L 293.14214 307.584 
L 284.522993 307.584 
z
" style="fill:#fa9ba4;opacity:0.2;"/>
   </g>
   <g id="patch_25">
    <path clip-path="url(#p36d0f620dc)" d="M 294.099823 307.584 
L 302.71897 307.584 
L 302.71897 307.584 
L 294.099823 307.584 
z
" style="fill:#fa9ba4;opacity:0.2;"/>
   </g>
   <g id="patch_26">
    <path clip-path="url(#p36d0f620dc)" d="M 303.676653 307.584 
L 312.2958 307.584 
L 312.2958 307.584 
L 303.676653 307.584 
z
" style="fill:#fa9ba4;opacity:0.2;"/>
   </g>
   <g id="patch_27">
    <path clip-path="url(#p36d0f620dc)" d="M 313.253484 307.584 
L 321.872631 307.584 
L 321.872631 307.584 
L 313.253484 307.584 
z
" style="fill:#fa9ba4;opacity:0.2;"/>
   </g>
   <g id="patch_28">
    <path clip-path="url(#p36d0f620dc)" d="M 322.830314 307.584 
L 331.449461 307.584 
L 331.449461 307.584 
L 322.830314 307.584 
z
" style="fill:#fa9ba4;opacity:0.2;"/>
   </g>
   <g id="patch_29">
    <path clip-path="url(#p36d0f620dc)" d="M 332.407144 307.584 
L 341.026291 307.584 
L 341.026291 307.584 
L 332.407144 307.584 
z
" style="fill:#fa9ba4;opacity:0.2;"/>
   </g>
   <g id="patch_30">
    <path clip-path="url(#p36d0f620dc)" d="M 341.983974 307.584 
L 350.603121 307.584 
L 350.603121 307.584 
L 341.983974 307.584 
z
" style="fill:#fa9ba4;opacity:0.2;"/>
   </g>
   <g id="patch_31">
    <path clip-path="url(#p36d0f620dc)" d="M 351.560805 307.584 
L 360.179952 307.584 
L 360.179952 41.472 
L 351.560805 41.472 
z
" style="fill:#fa9ba4;opacity:0.2;"/>
   </g>
   <g id="patch_32">
    <path clip-path="url(#p36d0f620dc)" d="M 361.137635 307.584 
L 369.756782 307.584 
L 369.756782 307.584 
L 361.137635 307.584 
z
" style="fill:#fa9ba4;opacity:0.2;"/>
   </g>
   <g id="patch_33">
    <path clip-path="url(#p36d0f620dc)" d="M 370.714465 307.584 
L 379.333612 307.584 
L 379.333612 307.584 
L 370.714465 307.584 
z
" style="fill:#fa9ba4;opacity:0.2;"/>
   </g>
   <g id="patch_34">
    <path clip-path="url(#p36d0f620dc)" d="M 380.291295 307.584 
L 388.910442 307.584 
L 388.910442 307.584 
L 380.291295 307.584 
z
" style="fill:#fa9ba4;opacity:0.2;"/>
   </g>
   <g id="patch_35">
    <path clip-path="url(#p36d0f620dc)" d="M 389.868126 307.584 
L 398.487273 307.584 
L 398.487273 307.584 
L 389.868126 307.584 
z
" style="fill:#fa9ba4;opacity:0.2;"/>
   </g>
   <g id="matplotlib.axis_1"/>
   <g id="matplotlib.axis_2"/>
   <g id="PolyCollection_1">
    <defs>
     <path d="M 269.678906 -76.032 
L 269.678906 -38.016 
L 279.255736 -38.016 
L 288.832566 -38.016 
L 298.409397 -38.016 
L 307.986227 -38.016 
L 317.563057 -38.016 
L 327.139887 -38.016 
L 336.716718 -38.016 
L 346.293548 -38.016 
L 355.870378 -38.016 
L 365.447208 -38.016 
L 375.024039 -38.016 
L 384.600869 -38.016 
L 394.177699 -38.016 
L 394.177699 -76.032 
L 394.177699 -76.032 
L 384.600869 -76.032 
L 375.024039 -76.032 
L 365.447208 -76.032 
L 355.870378 -76.032 
L 346.293548 -38.016 
L 336.716718 -38.016 
L 327.139887 -38.016 
L 317.563057 -38.016 
L 307.986227 -38.016 
L 298.409397 -38.016 
L 288.832566 -76.032 
L 279.255736 -76.032 
L 269.678906 -76.032 
z
" id="m92ba7fa37a" style="stroke:#dc3545;stroke-opacity:0.5;"/>
    </defs>
    <g clip-path="url(#p36d0f620dc)">
     <use style="fill:#dc3545;fill-opacity:0.5;stroke:#dc3545;stroke-opacity:0.5;" x="0" xlink:href="#m92ba7fa37a" y="345.6"/>
    </g>
   </g>
   <g id="PolyCollection_2">
    <defs>
     <path d="M 135.603282 -38.016 
L 135.603282 -38.016 
L 145.180113 -38.016 
L 154.756943 -38.016 
L 164.333773 -38.016 
L 173.910603 -38.016 
L 183.487434 -38.016 
L 193.064264 -38.016 
L 202.641094 -38.016 
L 212.217924 -38.016 
L 221.794755 -38.016 
L 231.371585 -38.016 
L 240.948415 -38.016 
L 250.525245 -38.016 
L 260.102076 -38.016 
L 269.678906 -38.016 
L 269.678906 -76.032 
L 269.678906 -76.032 
L 260.102076 -76.032 
L 250.525245 -76.032 
L 240.948415 -76.032 
L 231.371585 -76.032 
L 221.794755 -38.016 
L 212.217924 -38.016 
L 202.641094 -38.016 
L 193.064264 -38.016 
L 183.487434 -38.016 
L 173.910603 -38.016 
L 164.333773 -38.016 
L 154.756943 -38.016 
L 145.180113 -38.016 
L 135.603282 -38.016 
z
" id="m22a5140696" style="stroke:#fa9ba4;stroke-opacity:0.3;"/>
    </defs>
    <g clip-path="url(#p36d0f620dc)">
     <use style="fill:#fa9ba4;fill-opacity:0.3;stroke:#fa9ba4;stroke-opacity:0.3;" x="0" xlink:href="#m22a5140696" y="345.6"/>
    </g>
   </g>
   <g id="line2d_1">
    <path clip-path="url(#p36d0f620dc)" d="M 135.603282 307.584 
L 145.180113 307.584 
L 154.756943 307.584 
L 164.333773 307.584 
L 173.910603 307.584 
L 183.487434 307.584 
L 193.064264 307.584 
L 202.641094 307.584 
L 212.217924 307.584 
L 221.794755 307.584 
L 231.371585 269.568 
L 240.948415 269.568 
L 250.525245 269.568 
L 260.102076 269.568 
L 269.678906 269.568 
L 279.255736 269.568 
L 288.832566 269.568 
L 298.409397 307.584 
L 307.986227 307.584 
L 317.563057 307.584 
L 327.139887 307.584 
L 336.716718 307.584 
L 346.293548 307.584 
L 355.870378 269.568 
L 365.447208 269.568 
L 375.024039 269.568 
L 384.600869 269.568 
L 394.177699 269.568 
" style="fill:none;stroke:#fa9ba4;stroke-linecap:square;stroke-width:2;"/>
   </g>
   <g id="line2d_2">
    <path clip-path="url(#p36d0f620dc)" d="M 269.678906 269.568 
L 279.255736 269.568 
L 288.832566 269.568 
L 298.409397 307.584 
L 307.986227 307.584 
L 317.563057 307.584 
L 327.139887 307.584 
L 336.716718 307.584 
L 346.293548 307.584 
L 355.870378 269.568 
L 365.447208 269.568 
L 375.024039 269.568 
L 384.600869 269.568 
L 394.177699 269.568 
" style="fill:none;stroke:#dc3545;stroke-linecap:square;stroke-width:2;"/>
   </g>
  </g>
 </g>
 <defs>
  <clipPath id="p36d0f620dc">
   <rect height="266.112" width="357.12" x="57.6" y="41.472"/>
  </clipPath>
 </defs>
</svg>
