<?xml version="1.0" encoding="utf-8" standalone="no"?>
<!DOCTYPE svg PUBLIC "-//W3C//DTD SVG 1.1//EN"
  "http://www.w3.org/Graphics/SVG/1.1/DTD/svg11.dtd">
<svg height="345.6pt" version="1.1" viewBox="0 0 460.8 345.6" width="460.8pt" xmlns="http://www.w3.org/2000/svg" xmlns:xlink="http://www.w3.org/1999/xlink">
 <metadata>
  <rdf:RDF xmlns:cc="http://creativecommons.org/ns#" xmlns:dc="http://purl.org/dc/elements/1.1/" xmlns:rdf="http://www.w3.org/1999/02/22-rdf-syntax-ns#">
   <cc:Work>
    <dc:type rdf:resource="http://purl.org/dc/dcmitype/StillImage"/>
    <dc:date>2021-05-12T13:24:32.170658</dc:date>
    <dc:format>image/svg+xml</dc:format>
    <dc:creator>
     <cc:Agent>
      <dc:title>Matplotlib v3.4.2, https://matplotlib.org/</dc:title>
     </cc:Agent>
    </dc:creator>
   </cc:Work>
  </rdf:RDF>
 </metadata>
 <defs>
  <style type="text/css">*{stroke-linecap:butt;stroke-linejoin:round;}</style>
 </defs>
 <g id="figure_1">
  <g id="patch_1">
   <path d="M 0 345.6 
L 460.8 345.6 
L 460.8 0 
L 0 0 
z
" style="fill:none;"/>
  </g>
  <g id="axes_1">
   <g id="patch_2">
    <path clip-path="url(#pd47edd284f)" d="M 73.832727 307.584 
L 75.808313 307.584 
L 75.808313 307.584 
L 73.832727 307.584 
z
" style="fill:#fa9ba4;opacity:0.2;"/>
   </g>
   <g id="patch_3">
    <path clip-path="url(#pd47edd284f)" d="M 76.027822 307.584 
L 78.003408 307.584 
L 78.003408 307.584 
L 76.027822 307.584 
z
" style="fill:#fa9ba4;opacity:0.2;"/>
   </g>
   <g id="patch_4">
    <path clip-path="url(#pd47edd284f)" d="M 78.222917 307.584 
L 80.198503 307.584 
L 80.198503 307.584 
L 78.222917 307.584 
z
" style="fill:#fa9ba4;opacity:0.2;"/>
   </g>
   <g id="patch_5">
    <path clip-path="url(#pd47edd284f)" d="M 80.418012 307.584 
L 82.393598 307.584 
L 82.393598 307.584 
L 80.418012 307.584 
z
" style="fill:#fa9ba4;opacity:0.2;"/>
   </g>
   <g id="patch_6">
    <path clip-path="url(#pd47edd284f)" d="M 82.613107 307.584 
L 84.588693 307.584 
L 84.588693 307.584 
L 82.613107 307.584 
z
" style="fill:#fa9ba4;opacity:0.2;"/>
   </g>
   <g id="patch_7">
    <path clip-path="url(#pd47edd284f)" d="M 84.808202 307.584 
L 86.783788 307.584 
L 86.783788 307.584 
L 84.808202 307.584 
z
" style="fill:#fa9ba4;opacity:0.2;"/>
   </g>
   <g id="patch_8">
    <path clip-path="url(#pd47edd284f)" d="M 87.003297 307.584 
L 88.978883 307.584 
L 88.978883 307.584 
L 87.003297 307.584 
z
" style="fill:#fa9ba4;opacity:0.2;"/>
   </g>
   <g id="patch_9">
    <path clip-path="url(#pd47edd284f)" d="M 89.198392 307.584 
L 91.173978 307.584 
L 91.173978 307.584 
L 89.198392 307.584 
z
" style="fill:#fa9ba4;opacity:0.2;"/>
   </g>
   <g id="patch_10">
    <path clip-path="url(#pd47edd284f)" d="M 91.393487 307.584 
L 93.369072 307.584 
L 93.369072 307.584 
L 91.393487 307.584 
z
" style="fill:#fa9ba4;opacity:0.2;"/>
   </g>
   <g id="patch_11">
    <path clip-path="url(#pd47edd284f)" d="M 93.588582 307.584 
L 95.564167 307.584 
L 95.564167 307.584 
L 93.588582 307.584 
z
" style="fill:#fa9ba4;opacity:0.2;"/>
   </g>
   <g id="patch_12">
    <path clip-path="url(#pd47edd284f)" d="M 95.783677 307.584 
L 97.759262 307.584 
L 97.759262 307.584 
L 95.783677 307.584 
z
" style="fill:#fa9ba4;opacity:0.2;"/>
   </g>
   <g id="patch_13">
    <path clip-path="url(#pd47edd284f)" d="M 97.978772 307.584 
L 99.954357 307.584 
L 99.954357 307.584 
L 97.978772 307.584 
z
" style="fill:#fa9ba4;opacity:0.2;"/>
   </g>
   <g id="patch_14">
    <path clip-path="url(#pd47edd284f)" d="M 100.173867 307.584 
L 102.149452 307.584 
L 102.149452 307.584 
L 100.173867 307.584 
z
" style="fill:#fa9ba4;opacity:0.2;"/>
   </g>
   <g id="patch_15">
    <path clip-path="url(#pd47edd284f)" d="M 102.368962 307.584 
L 104.344547 307.584 
L 104.344547 307.584 
L 102.368962 307.584 
z
" style="fill:#fa9ba4;opacity:0.2;"/>
   </g>
   <g id="patch_16">
    <path clip-path="url(#pd47edd284f)" d="M 104.564057 307.584 
L 106.539642 307.584 
L 106.539642 307.584 
L 104.564057 307.584 
z
" style="fill:#fa9ba4;opacity:0.2;"/>
   </g>
   <g id="patch_17">
    <path clip-path="url(#pd47edd284f)" d="M 106.759152 307.584 
L 108.734737 307.584 
L 108.734737 307.584 
L 106.759152 307.584 
z
" style="fill:#fa9ba4;opacity:0.2;"/>
   </g>
   <g id="patch_18">
    <path clip-path="url(#pd47edd284f)" d="M 108.954247 307.584 
L 110.929832 307.584 
L 110.929832 298.407724 
L 108.954247 298.407724 
z
" style="fill:#fa9ba4;opacity:0.2;"/>
   </g>
   <g id="patch_19">
    <path clip-path="url(#pd47edd284f)" d="M 111.149342 307.584 
L 113.124927 307.584 
L 113.124927 307.584 
L 111.149342 307.584 
z
" style="fill:#fa9ba4;opacity:0.2;"/>
   </g>
   <g id="patch_20">
    <path clip-path="url(#pd47edd284f)" d="M 113.344437 307.584 
L 115.320022 307.584 
L 115.320022 307.584 
L 113.344437 307.584 
z
" style="fill:#fa9ba4;opacity:0.2;"/>
   </g>
   <g id="patch_21">
    <path clip-path="url(#pd47edd284f)" d="M 115.539532 307.584 
L 117.515117 307.584 
L 117.515117 307.584 
L 115.539532 307.584 
z
" style="fill:#fa9ba4;opacity:0.2;"/>
   </g>
   <g id="patch_22">
    <path clip-path="url(#pd47edd284f)" d="M 117.734627 307.584 
L 119.710212 307.584 
L 119.710212 307.584 
L 117.734627 307.584 
z
" style="fill:#fa9ba4;opacity:0.2;"/>
   </g>
   <g id="patch_23">
    <path clip-path="url(#pd47edd284f)" d="M 119.929722 307.584 
L 121.905307 307.584 
L 121.905307 307.584 
L 119.929722 307.584 
z
" style="fill:#fa9ba4;opacity:0.2;"/>
   </g>
   <g id="patch_24">
    <path clip-path="url(#pd47edd284f)" d="M 122.124817 307.584 
L 124.100402 307.584 
L 124.100402 307.584 
L 122.124817 307.584 
z
" style="fill:#fa9ba4;opacity:0.2;"/>
   </g>
   <g id="patch_25">
    <path clip-path="url(#pd47edd284f)" d="M 124.319911 307.584 
L 126.295497 307.584 
L 126.295497 307.584 
L 124.319911 307.584 
z
" style="fill:#fa9ba4;opacity:0.2;"/>
   </g>
   <g id="patch_26">
    <path clip-path="url(#pd47edd284f)" d="M 126.515006 307.584 
L 128.490592 307.584 
L 128.490592 307.584 
L 126.515006 307.584 
z
" style="fill:#fa9ba4;opacity:0.2;"/>
   </g>
   <g id="patch_27">
    <path clip-path="url(#pd47edd284f)" d="M 128.710101 307.584 
L 130.685687 307.584 
L 130.685687 307.584 
L 128.710101 307.584 
z
" style="fill:#fa9ba4;opacity:0.2;"/>
   </g>
   <g id="patch_28">
    <path clip-path="url(#pd47edd284f)" d="M 130.905196 307.584 
L 132.880782 307.584 
L 132.880782 307.584 
L 130.905196 307.584 
z
" style="fill:#fa9ba4;opacity:0.2;"/>
   </g>
   <g id="patch_29">
    <path clip-path="url(#pd47edd284f)" d="M 133.100291 307.584 
L 135.075877 307.584 
L 135.075877 307.584 
L 133.100291 307.584 
z
" style="fill:#fa9ba4;opacity:0.2;"/>
   </g>
   <g id="patch_30">
    <path clip-path="url(#pd47edd284f)" d="M 135.295386 307.584 
L 137.270972 307.584 
L 137.270972 307.584 
L 135.295386 307.584 
z
" style="fill:#fa9ba4;opacity:0.2;"/>
   </g>
   <g id="patch_31">
    <path clip-path="url(#pd47edd284f)" d="M 137.490481 307.584 
L 139.466067 307.584 
L 139.466067 307.584 
L 137.490481 307.584 
z
" style="fill:#fa9ba4;opacity:0.2;"/>
   </g>
   <g id="patch_32">
    <path clip-path="url(#pd47edd284f)" d="M 139.685576 307.584 
L 141.661162 307.584 
L 141.661162 307.584 
L 139.685576 307.584 
z
" style="fill:#fa9ba4;opacity:0.2;"/>
   </g>
   <g id="patch_33">
    <path clip-path="url(#pd47edd284f)" d="M 141.880671 307.584 
L 143.856257 307.584 
L 143.856257 307.584 
L 141.880671 307.584 
z
" style="fill:#fa9ba4;opacity:0.2;"/>
   </g>
   <g id="patch_34">
    <path clip-path="url(#pd47edd284f)" d="M 144.075766 307.584 
L 146.051352 307.584 
L 146.051352 307.584 
L 144.075766 307.584 
z
" style="fill:#fa9ba4;opacity:0.2;"/>
   </g>
   <g id="patch_35">
    <path clip-path="url(#pd47edd284f)" d="M 146.270861 307.584 
L 148.246447 307.584 
L 148.246447 307.584 
L 146.270861 307.584 
z
" style="fill:#fa9ba4;opacity:0.2;"/>
   </g>
   <g id="patch_36">
    <path clip-path="url(#pd47edd284f)" d="M 148.465956 307.584 
L 150.441542 307.584 
L 150.441542 307.584 
L 148.465956 307.584 
z
" style="fill:#fa9ba4;opacity:0.2;"/>
   </g>
   <g id="patch_37">
    <path clip-path="url(#pd47edd284f)" d="M 150.661051 307.584 
L 152.636637 307.584 
L 152.636637 307.584 
L 150.661051 307.584 
z
" style="fill:#fa9ba4;opacity:0.2;"/>
   </g>
   <g id="patch_38">
    <path clip-path="url(#pd47edd284f)" d="M 152.856146 307.584 
L 154.831732 307.584 
L 154.831732 307.584 
L 152.856146 307.584 
z
" style="fill:#fa9ba4;opacity:0.2;"/>
   </g>
   <g id="patch_39">
    <path clip-path="url(#pd47edd284f)" d="M 155.051241 307.584 
L 157.026826 307.584 
L 157.026826 307.584 
L 155.051241 307.584 
z
" style="fill:#fa9ba4;opacity:0.2;"/>
   </g>
   <g id="patch_40">
    <path clip-path="url(#pd47edd284f)" d="M 157.246336 307.584 
L 159.221921 307.584 
L 159.221921 307.584 
L 157.246336 307.584 
z
" style="fill:#fa9ba4;opacity:0.2;"/>
   </g>
   <g id="patch_41">
    <path clip-path="url(#pd47edd284f)" d="M 159.441431 307.584 
L 161.417016 307.584 
L 161.417016 307.584 
L 159.441431 307.584 
z
" style="fill:#fa9ba4;opacity:0.2;"/>
   </g>
   <g id="patch_42">
    <path clip-path="url(#pd47edd284f)" d="M 161.636526 307.584 
L 163.612111 307.584 
L 163.612111 307.584 
L 161.636526 307.584 
z
" style="fill:#fa9ba4;opacity:0.2;"/>
   </g>
   <g id="patch_43">
    <path clip-path="url(#pd47edd284f)" d="M 163.831621 307.584 
L 165.807206 307.584 
L 165.807206 307.584 
L 163.831621 307.584 
z
" style="fill:#fa9ba4;opacity:0.2;"/>
   </g>
   <g id="patch_44">
    <path clip-path="url(#pd47edd284f)" d="M 166.026716 307.584 
L 168.002301 307.584 
L 168.002301 307.584 
L 166.026716 307.584 
z
" style="fill:#fa9ba4;opacity:0.2;"/>
   </g>
   <g id="patch_45">
    <path clip-path="url(#pd47edd284f)" d="M 168.221811 307.584 
L 170.197396 307.584 
L 170.197396 307.584 
L 168.221811 307.584 
z
" style="fill:#fa9ba4;opacity:0.2;"/>
   </g>
   <g id="patch_46">
    <path clip-path="url(#pd47edd284f)" d="M 170.416906 307.584 
L 172.392491 307.584 
L 172.392491 307.584 
L 170.416906 307.584 
z
" style="fill:#fa9ba4;opacity:0.2;"/>
   </g>
   <g id="patch_47">
    <path clip-path="url(#pd47edd284f)" d="M 172.612001 307.584 
L 174.587586 307.584 
L 174.587586 307.584 
L 172.612001 307.584 
z
" style="fill:#fa9ba4;opacity:0.2;"/>
   </g>
   <g id="patch_48">
    <path clip-path="url(#pd47edd284f)" d="M 174.807096 307.584 
L 176.782681 307.584 
L 176.782681 252.526345 
L 174.807096 252.526345 
z
" style="fill:#fa9ba4;opacity:0.2;"/>
   </g>
   <g id="patch_49">
    <path clip-path="url(#pd47edd284f)" d="M 177.002191 307.584 
L 178.977776 307.584 
L 178.977776 270.878897 
L 177.002191 270.878897 
z
" style="fill:#fa9ba4;opacity:0.2;"/>
   </g>
   <g id="patch_50">
    <path clip-path="url(#pd47edd284f)" d="M 179.197286 307.584 
L 181.172871 307.584 
L 181.172871 252.526345 
L 179.197286 252.526345 
z
" style="fill:#fa9ba4;opacity:0.2;"/>
   </g>
   <g id="patch_51">
    <path clip-path="url(#pd47edd284f)" d="M 181.392381 307.584 
L 183.367966 307.584 
L 183.367966 307.584 
L 181.392381 307.584 
z
" style="fill:#fa9ba4;opacity:0.2;"/>
   </g>
   <g id="patch_52">
    <path clip-path="url(#pd47edd284f)" d="M 183.587476 307.584 
L 185.563061 307.584 
L 185.563061 298.407724 
L 183.587476 298.407724 
z
" style="fill:#fa9ba4;opacity:0.2;"/>
   </g>
   <g id="patch_53">
    <path clip-path="url(#pd47edd284f)" d="M 185.782571 307.584 
L 187.758156 307.584 
L 187.758156 307.584 
L 185.782571 307.584 
z
" style="fill:#fa9ba4;opacity:0.2;"/>
   </g>
   <g id="patch_54">
    <path clip-path="url(#pd47edd284f)" d="M 187.977665 307.584 
L 189.953251 307.584 
L 189.953251 307.584 
L 187.977665 307.584 
z
" style="fill:#fa9ba4;opacity:0.2;"/>
   </g>
   <g id="patch_55">
    <path clip-path="url(#pd47edd284f)" d="M 190.17276 307.584 
L 192.148346 307.584 
L 192.148346 307.584 
L 190.17276 307.584 
z
" style="fill:#fa9ba4;opacity:0.2;"/>
   </g>
   <g id="patch_56">
    <path clip-path="url(#pd47edd284f)" d="M 192.367855 307.584 
L 194.343441 307.584 
L 194.343441 307.584 
L 192.367855 307.584 
z
" style="fill:#fa9ba4;opacity:0.2;"/>
   </g>
   <g id="patch_57">
    <path clip-path="url(#pd47edd284f)" d="M 194.56295 307.584 
L 196.538536 307.584 
L 196.538536 307.584 
L 194.56295 307.584 
z
" style="fill:#fa9ba4;opacity:0.2;"/>
   </g>
   <g id="patch_58">
    <path clip-path="url(#pd47edd284f)" d="M 196.758045 307.584 
L 198.733631 307.584 
L 198.733631 307.584 
L 196.758045 307.584 
z
" style="fill:#fa9ba4;opacity:0.2;"/>
   </g>
   <g id="patch_59">
    <path clip-path="url(#pd47edd284f)" d="M 198.95314 307.584 
L 200.928726 307.584 
L 200.928726 298.407724 
L 198.95314 298.407724 
z
" style="fill:#fa9ba4;opacity:0.2;"/>
   </g>
   <g id="patch_60">
    <path clip-path="url(#pd47edd284f)" d="M 201.148235 307.584 
L 203.123821 307.584 
L 203.123821 307.584 
L 201.148235 307.584 
z
" style="fill:#fa9ba4;opacity:0.2;"/>
   </g>
   <g id="patch_61">
    <path clip-path="url(#pd47edd284f)" d="M 203.34333 307.584 
L 205.318916 307.584 
L 205.318916 307.584 
L 203.34333 307.584 
z
" style="fill:#fa9ba4;opacity:0.2;"/>
   </g>
   <g id="patch_62">
    <path clip-path="url(#pd47edd284f)" d="M 205.538425 307.584 
L 207.514011 307.584 
L 207.514011 307.584 
L 205.538425 307.584 
z
" style="fill:#fa9ba4;opacity:0.2;"/>
   </g>
   <g id="patch_63">
    <path clip-path="url(#pd47edd284f)" d="M 207.73352 307.584 
L 209.709106 307.584 
L 209.709106 307.584 
L 207.73352 307.584 
z
" style="fill:#fa9ba4;opacity:0.2;"/>
   </g>
   <g id="patch_64">
    <path clip-path="url(#pd47edd284f)" d="M 209.928615 307.584 
L 211.904201 307.584 
L 211.904201 307.584 
L 209.928615 307.584 
z
" style="fill:#fa9ba4;opacity:0.2;"/>
   </g>
   <g id="patch_65">
    <path clip-path="url(#pd47edd284f)" d="M 212.12371 307.584 
L 214.099296 307.584 
L 214.099296 307.584 
L 212.12371 307.584 
z
" style="fill:#fa9ba4;opacity:0.2;"/>
   </g>
   <g id="patch_66">
    <path clip-path="url(#pd47edd284f)" d="M 214.318805 307.584 
L 216.294391 307.584 
L 216.294391 307.584 
L 214.318805 307.584 
z
" style="fill:#fa9ba4;opacity:0.2;"/>
   </g>
   <g id="patch_67">
    <path clip-path="url(#pd47edd284f)" d="M 216.5139 307.584 
L 218.489486 307.584 
L 218.489486 298.407724 
L 216.5139 298.407724 
z
" style="fill:#fa9ba4;opacity:0.2;"/>
   </g>
   <g id="patch_68">
    <path clip-path="url(#pd47edd284f)" d="M 218.708995 307.584 
L 220.68458 307.584 
L 220.68458 307.584 
L 218.708995 307.584 
z
" style="fill:#fa9ba4;opacity:0.2;"/>
   </g>
   <g id="patch_69">
    <path clip-path="url(#pd47edd284f)" d="M 220.90409 307.584 
L 222.879675 307.584 
L 222.879675 307.584 
L 220.90409 307.584 
z
" style="fill:#fa9ba4;opacity:0.2;"/>
   </g>
   <g id="patch_70">
    <path clip-path="url(#pd47edd284f)" d="M 223.099185 307.584 
L 225.07477 307.584 
L 225.07477 307.584 
L 223.099185 307.584 
z
" style="fill:#fa9ba4;opacity:0.2;"/>
   </g>
   <g id="patch_71">
    <path clip-path="url(#pd47edd284f)" d="M 225.29428 307.584 
L 227.269865 307.584 
L 227.269865 307.584 
L 225.29428 307.584 
z
" style="fill:#fa9ba4;opacity:0.2;"/>
   </g>
   <g id="patch_72">
    <path clip-path="url(#pd47edd284f)" d="M 227.489375 307.584 
L 229.46496 307.584 
L 229.46496 307.584 
L 227.489375 307.584 
z
" style="fill:#fa9ba4;opacity:0.2;"/>
   </g>
   <g id="patch_73">
    <path clip-path="url(#pd47edd284f)" d="M 229.68447 307.584 
L 231.660055 307.584 
L 231.660055 307.584 
L 229.68447 307.584 
z
" style="fill:#fa9ba4;opacity:0.2;"/>
   </g>
   <g id="patch_74">
    <path clip-path="url(#pd47edd284f)" d="M 231.879565 307.584 
L 233.85515 307.584 
L 233.85515 307.584 
L 231.879565 307.584 
z
" style="fill:#fa9ba4;opacity:0.2;"/>
   </g>
   <g id="patch_75">
    <path clip-path="url(#pd47edd284f)" d="M 234.07466 307.584 
L 236.050245 307.584 
L 236.050245 307.584 
L 234.07466 307.584 
z
" style="fill:#fa9ba4;opacity:0.2;"/>
   </g>
   <g id="patch_76">
    <path clip-path="url(#pd47edd284f)" d="M 236.269755 307.584 
L 238.24534 307.584 
L 238.24534 307.584 
L 236.269755 307.584 
z
" style="fill:#fa9ba4;opacity:0.2;"/>
   </g>
   <g id="patch_77">
    <path clip-path="url(#pd47edd284f)" d="M 238.46485 307.584 
L 240.440435 307.584 
L 240.440435 307.584 
L 238.46485 307.584 
z
" style="fill:#fa9ba4;opacity:0.2;"/>
   </g>
   <g id="patch_78">
    <path clip-path="url(#pd47edd284f)" d="M 240.659945 307.584 
L 242.63553 307.584 
L 242.63553 307.584 
L 240.659945 307.584 
z
" style="fill:#fa9ba4;opacity:0.2;"/>
   </g>
   <g id="patch_79">
    <path clip-path="url(#pd47edd284f)" d="M 242.85504 307.584 
L 244.830625 307.584 
L 244.830625 307.584 
L 242.85504 307.584 
z
" style="fill:#fa9ba4;opacity:0.2;"/>
   </g>
   <g id="patch_80">
    <path clip-path="url(#pd47edd284f)" d="M 245.050135 307.584 
L 247.02572 307.584 
L 247.02572 307.584 
L 245.050135 307.584 
z
" style="fill:#fa9ba4;opacity:0.2;"/>
   </g>
   <g id="patch_81">
    <path clip-path="url(#pd47edd284f)" d="M 247.24523 307.584 
L 249.220815 307.584 
L 249.220815 307.584 
L 247.24523 307.584 
z
" style="fill:#fa9ba4;opacity:0.2;"/>
   </g>
   <g id="patch_82">
    <path clip-path="url(#pd47edd284f)" d="M 249.440325 307.584 
L 251.41591 307.584 
L 251.41591 307.584 
L 249.440325 307.584 
z
" style="fill:#fa9ba4;opacity:0.2;"/>
   </g>
   <g id="patch_83">
    <path clip-path="url(#pd47edd284f)" d="M 251.63542 307.584 
L 253.611005 307.584 
L 253.611005 307.584 
L 251.63542 307.584 
z
" style="fill:#fa9ba4;opacity:0.2;"/>
   </g>
   <g id="patch_84">
    <path clip-path="url(#pd47edd284f)" d="M 253.830514 307.584 
L 255.8061 307.584 
L 255.8061 307.584 
L 253.830514 307.584 
z
" style="fill:#fa9ba4;opacity:0.2;"/>
   </g>
   <g id="patch_85">
    <path clip-path="url(#pd47edd284f)" d="M 256.025609 307.584 
L 258.001195 307.584 
L 258.001195 307.584 
L 256.025609 307.584 
z
" style="fill:#fa9ba4;opacity:0.2;"/>
   </g>
   <g id="patch_86">
    <path clip-path="url(#pd47edd284f)" d="M 258.220704 307.584 
L 260.19629 307.584 
L 260.19629 307.584 
L 258.220704 307.584 
z
" style="fill:#fa9ba4;opacity:0.2;"/>
   </g>
   <g id="patch_87">
    <path clip-path="url(#pd47edd284f)" d="M 260.415799 307.584 
L 262.391385 307.584 
L 262.391385 307.584 
L 260.415799 307.584 
z
" style="fill:#fa9ba4;opacity:0.2;"/>
   </g>
   <g id="patch_88">
    <path clip-path="url(#pd47edd284f)" d="M 262.610894 307.584 
L 264.58648 307.584 
L 264.58648 307.584 
L 262.610894 307.584 
z
" style="fill:#fa9ba4;opacity:0.2;"/>
   </g>
   <g id="patch_89">
    <path clip-path="url(#pd47edd284f)" d="M 264.805989 307.584 
L 266.781575 307.584 
L 266.781575 307.584 
L 264.805989 307.584 
z
" style="fill:#fa9ba4;opacity:0.2;"/>
   </g>
   <g id="patch_90">
    <path clip-path="url(#pd47edd284f)" d="M 267.001084 307.584 
L 268.97667 307.584 
L 268.97667 307.584 
L 267.001084 307.584 
z
" style="fill:#fa9ba4;opacity:0.2;"/>
   </g>
   <g id="patch_91">
    <path clip-path="url(#pd47edd284f)" d="M 269.196179 307.584 
L 271.171765 307.584 
L 271.171765 307.584 
L 269.196179 307.584 
z
" style="fill:#fa9ba4;opacity:0.2;"/>
   </g>
   <g id="patch_92">
    <path clip-path="url(#pd47edd284f)" d="M 271.391274 307.584 
L 273.36686 307.584 
L 273.36686 307.584 
L 271.391274 307.584 
z
" style="fill:#fa9ba4;opacity:0.2;"/>
   </g>
   <g id="patch_93">
    <path clip-path="url(#pd47edd284f)" d="M 273.586369 307.584 
L 275.561955 307.584 
L 275.561955 307.584 
L 273.586369 307.584 
z
" style="fill:#fa9ba4;opacity:0.2;"/>
   </g>
   <g id="patch_94">
    <path clip-path="url(#pd47edd284f)" d="M 275.781464 307.584 
L 277.75705 307.584 
L 277.75705 307.584 
L 275.781464 307.584 
z
" style="fill:#fa9ba4;opacity:0.2;"/>
   </g>
   <g id="patch_95">
    <path clip-path="url(#pd47edd284f)" d="M 277.976559 307.584 
L 279.952145 307.584 
L 279.952145 307.584 
L 277.976559 307.584 
z
" style="fill:#fa9ba4;opacity:0.2;"/>
   </g>
   <g id="patch_96">
    <path clip-path="url(#pd47edd284f)" d="M 280.171654 307.584 
L 282.14724 307.584 
L 282.14724 307.584 
L 280.171654 307.584 
z
" style="fill:#fa9ba4;opacity:0.2;"/>
   </g>
   <g id="patch_97">
    <path clip-path="url(#pd47edd284f)" d="M 282.366749 307.584 
L 284.342335 307.584 
L 284.342335 307.584 
L 282.366749 307.584 
z
" style="fill:#fa9ba4;opacity:0.2;"/>
   </g>
   <g id="patch_98">
    <path clip-path="url(#pd47edd284f)" d="M 284.561844 307.584 
L 286.537429 307.584 
L 286.537429 307.584 
L 284.561844 307.584 
z
" style="fill:#fa9ba4;opacity:0.2;"/>
   </g>
   <g id="patch_99">
    <path clip-path="url(#pd47edd284f)" d="M 286.756939 307.584 
L 288.732524 307.584 
L 288.732524 307.584 
L 286.756939 307.584 
z
" style="fill:#fa9ba4;opacity:0.2;"/>
   </g>
   <g id="patch_100">
    <path clip-path="url(#pd47edd284f)" d="M 288.952034 307.584 
L 290.927619 307.584 
L 290.927619 307.584 
L 288.952034 307.584 
z
" style="fill:#fa9ba4;opacity:0.2;"/>
   </g>
   <g id="patch_101">
    <path clip-path="url(#pd47edd284f)" d="M 291.147129 307.584 
L 293.122714 307.584 
L 293.122714 307.584 
L 291.147129 307.584 
z
" style="fill:#fa9ba4;opacity:0.2;"/>
   </g>
   <g id="patch_102">
    <path clip-path="url(#pd47edd284f)" d="M 293.342224 307.584 
L 295.317809 307.584 
L 295.317809 307.584 
L 293.342224 307.584 
z
" style="fill:#fa9ba4;opacity:0.2;"/>
   </g>
   <g id="patch_103">
    <path clip-path="url(#pd47edd284f)" d="M 295.537319 307.584 
L 297.512904 307.584 
L 297.512904 307.584 
L 295.537319 307.584 
z
" style="fill:#fa9ba4;opacity:0.2;"/>
   </g>
   <g id="patch_104">
    <path clip-path="url(#pd47edd284f)" d="M 297.732414 307.584 
L 299.707999 307.584 
L 299.707999 307.584 
L 297.732414 307.584 
z
" style="fill:#fa9ba4;opacity:0.2;"/>
   </g>
   <g id="patch_105">
    <path clip-path="url(#pd47edd284f)" d="M 299.927509 307.584 
L 301.903094 307.584 
L 301.903094 307.584 
L 299.927509 307.584 
z
" style="fill:#fa9ba4;opacity:0.2;"/>
   </g>
   <g id="patch_106">
    <path clip-path="url(#pd47edd284f)" d="M 302.122604 307.584 
L 304.098189 307.584 
L 304.098189 298.407724 
L 302.122604 298.407724 
z
" style="fill:#fa9ba4;opacity:0.2;"/>
   </g>
   <g id="patch_107">
    <path clip-path="url(#pd47edd284f)" d="M 304.317699 307.584 
L 306.293284 307.584 
L 306.293284 307.584 
L 304.317699 307.584 
z
" style="fill:#fa9ba4;opacity:0.2;"/>
   </g>
   <g id="patch_108">
    <path clip-path="url(#pd47edd284f)" d="M 306.512794 307.584 
L 308.488379 307.584 
L 308.488379 307.584 
L 306.512794 307.584 
z
" style="fill:#fa9ba4;opacity:0.2;"/>
   </g>
   <g id="patch_109">
    <path clip-path="url(#pd47edd284f)" d="M 308.707889 307.584 
L 310.683474 307.584 
L 310.683474 307.584 
L 308.707889 307.584 
z
" style="fill:#fa9ba4;opacity:0.2;"/>
   </g>
   <g id="patch_110">
    <path clip-path="url(#pd47edd284f)" d="M 310.902984 307.584 
L 312.878569 307.584 
L 312.878569 307.584 
L 310.902984 307.584 
z
" style="fill:#fa9ba4;opacity:0.2;"/>
   </g>
   <g id="patch_111">
    <path clip-path="url(#pd47edd284f)" d="M 313.098079 307.584 
L 315.073664 307.584 
L 315.073664 307.584 
L 313.098079 307.584 
z
" style="fill:#fa9ba4;opacity:0.2;"/>
   </g>
   <g id="patch_112">
    <path clip-path="url(#pd47edd284f)" d="M 315.293174 307.584 
L 317.268759 307.584 
L 317.268759 307.584 
L 315.293174 307.584 
z
" style="fill:#fa9ba4;opacity:0.2;"/>
   </g>
   <g id="patch_113">
    <path clip-path="url(#pd47edd284f)" d="M 317.488268 307.584 
L 319.463854 307.584 
L 319.463854 307.584 
L 317.488268 307.584 
z
" style="fill:#fa9ba4;opacity:0.2;"/>
   </g>
   <g id="patch_114">
    <path clip-path="url(#pd47edd284f)" d="M 319.683363 307.584 
L 321.658949 307.584 
L 321.658949 307.584 
L 319.683363 307.584 
z
" style="fill:#fa9ba4;opacity:0.2;"/>
   </g>
   <g id="patch_115">
    <path clip-path="url(#pd47edd284f)" d="M 321.878458 307.584 
L 323.854044 307.584 
L 323.854044 307.584 
L 321.878458 307.584 
z
" style="fill:#fa9ba4;opacity:0.2;"/>
   </g>
   <g id="patch_116">
    <path clip-path="url(#pd47edd284f)" d="M 324.073553 307.584 
L 326.049139 307.584 
L 326.049139 307.584 
L 324.073553 307.584 
z
" style="fill:#fa9ba4;opacity:0.2;"/>
   </g>
   <g id="patch_117">
    <path clip-path="url(#pd47edd284f)" d="M 326.268648 307.584 
L 328.244234 307.584 
L 328.244234 298.407724 
L 326.268648 298.407724 
z
" style="fill:#fa9ba4;opacity:0.2;"/>
   </g>
   <g id="patch_118">
    <path clip-path="url(#pd47edd284f)" d="M 328.463743 307.584 
L 330.439329 307.584 
L 330.439329 307.584 
L 328.463743 307.584 
z
" style="fill:#fa9ba4;opacity:0.2;"/>
   </g>
   <g id="patch_119">
    <path clip-path="url(#pd47edd284f)" d="M 330.658838 307.584 
L 332.634424 307.584 
L 332.634424 280.055172 
L 330.658838 280.055172 
z
" style="fill:#fa9ba4;opacity:0.2;"/>
   </g>
   <g id="patch_120">
    <path clip-path="url(#pd47edd284f)" d="M 332.853933 307.584 
L 334.829519 307.584 
L 334.829519 289.231448 
L 332.853933 289.231448 
z
" style="fill:#fa9ba4;opacity:0.2;"/>
   </g>
   <g id="patch_121">
    <path clip-path="url(#pd47edd284f)" d="M 335.049028 307.584 
L 337.024614 307.584 
L 337.024614 307.584 
L 335.049028 307.584 
z
" style="fill:#fa9ba4;opacity:0.2;"/>
   </g>
   <g id="patch_122">
    <path clip-path="url(#pd47edd284f)" d="M 337.244123 307.584 
L 339.219709 307.584 
L 339.219709 243.350069 
L 337.244123 243.350069 
z
" style="fill:#fa9ba4;opacity:0.2;"/>
   </g>
   <g id="patch_123">
    <path clip-path="url(#pd47edd284f)" d="M 339.439218 307.584 
L 341.414804 307.584 
L 341.414804 270.878897 
L 339.439218 270.878897 
z
" style="fill:#fa9ba4;opacity:0.2;"/>
   </g>
   <g id="patch_124">
    <path clip-path="url(#pd47edd284f)" d="M 341.634313 307.584 
L 343.609899 307.584 
L 343.609899 307.584 
L 341.634313 307.584 
z
" style="fill:#fa9ba4;opacity:0.2;"/>
   </g>
   <g id="patch_125">
    <path clip-path="url(#pd47edd284f)" d="M 343.829408 307.584 
L 345.804994 307.584 
L 345.804994 252.526345 
L 343.829408 252.526345 
z
" style="fill:#fa9ba4;opacity:0.2;"/>
   </g>
   <g id="patch_126">
    <path clip-path="url(#pd47edd284f)" d="M 346.024503 307.584 
L 348.000089 307.584 
L 348.000089 289.231448 
L 346.024503 289.231448 
z
" style="fill:#fa9ba4;opacity:0.2;"/>
   </g>
   <g id="patch_127">
    <path clip-path="url(#pd47edd284f)" d="M 348.219598 307.584 
L 350.195183 307.584 
L 350.195183 280.055172 
L 348.219598 280.055172 
z
" style="fill:#fa9ba4;opacity:0.2;"/>
   </g>
   <g id="patch_128">
    <path clip-path="url(#pd47edd284f)" d="M 350.414693 307.584 
L 352.390278 307.584 
L 352.390278 133.234759 
L 350.414693 133.234759 
z
" style="fill:#fa9ba4;opacity:0.2;"/>
   </g>
   <g id="patch_129">
    <path clip-path="url(#pd47edd284f)" d="M 352.609788 307.584 
L 354.585373 307.584 
L 354.585373 197.46869 
L 352.609788 197.46869 
z
" style="fill:#fa9ba4;opacity:0.2;"/>
   </g>
   <g id="patch_130">
    <path clip-path="url(#pd47edd284f)" d="M 354.804883 307.584 
L 356.780468 307.584 
L 356.780468 234.173793 
L 354.804883 234.173793 
z
" style="fill:#fa9ba4;opacity:0.2;"/>
   </g>
   <g id="patch_131">
    <path clip-path="url(#pd47edd284f)" d="M 356.999978 307.584 
L 358.975563 307.584 
L 358.975563 197.46869 
L 356.999978 197.46869 
z
" style="fill:#fa9ba4;opacity:0.2;"/>
   </g>
   <g id="patch_132">
    <path clip-path="url(#pd47edd284f)" d="M 359.195073 307.584 
L 361.170658 307.584 
L 361.170658 41.472 
L 359.195073 41.472 
z
" style="fill:#fa9ba4;opacity:0.2;"/>
   </g>
   <g id="patch_133">
    <path clip-path="url(#pd47edd284f)" d="M 361.390168 307.584 
L 363.365753 307.584 
L 363.365753 197.46869 
L 361.390168 197.46869 
z
" style="fill:#fa9ba4;opacity:0.2;"/>
   </g>
   <g id="patch_134">
    <path clip-path="url(#pd47edd284f)" d="M 363.585263 307.584 
L 365.560848 307.584 
L 365.560848 188.292414 
L 363.585263 188.292414 
z
" style="fill:#fa9ba4;opacity:0.2;"/>
   </g>
   <g id="patch_135">
    <path clip-path="url(#pd47edd284f)" d="M 365.780358 307.584 
L 367.755943 307.584 
L 367.755943 142.411034 
L 365.780358 142.411034 
z
" style="fill:#fa9ba4;opacity:0.2;"/>
   </g>
   <g id="patch_136">
    <path clip-path="url(#pd47edd284f)" d="M 367.975453 307.584 
L 369.951038 307.584 
L 369.951038 206.644966 
L 367.975453 206.644966 
z
" style="fill:#fa9ba4;opacity:0.2;"/>
   </g>
   <g id="patch_137">
    <path clip-path="url(#pd47edd284f)" d="M 370.170548 307.584 
L 372.146133 307.584 
L 372.146133 133.234759 
L 370.170548 133.234759 
z
" style="fill:#fa9ba4;opacity:0.2;"/>
   </g>
   <g id="patch_138">
    <path clip-path="url(#pd47edd284f)" d="M 372.365643 307.584 
L 374.341228 307.584 
L 374.341228 243.350069 
L 372.365643 243.350069 
z
" style="fill:#fa9ba4;opacity:0.2;"/>
   </g>
   <g id="patch_139">
    <path clip-path="url(#pd47edd284f)" d="M 374.560738 307.584 
L 376.536323 307.584 
L 376.536323 169.939862 
L 374.560738 169.939862 
z
" style="fill:#fa9ba4;opacity:0.2;"/>
   </g>
   <g id="patch_140">
    <path clip-path="url(#pd47edd284f)" d="M 376.755833 307.584 
L 378.731418 307.584 
L 378.731418 243.350069 
L 376.755833 243.350069 
z
" style="fill:#fa9ba4;opacity:0.2;"/>
   </g>
   <g id="patch_141">
    <path clip-path="url(#pd47edd284f)" d="M 378.950928 307.584 
L 380.926513 307.584 
L 380.926513 234.173793 
L 378.950928 234.173793 
z
" style="fill:#fa9ba4;opacity:0.2;"/>
   </g>
   <g id="patch_142">
    <path clip-path="url(#pd47edd284f)" d="M 381.146022 307.584 
L 383.121608 307.584 
L 383.121608 280.055172 
L 381.146022 280.055172 
z
" style="fill:#fa9ba4;opacity:0.2;"/>
   </g>
   <g id="patch_143">
    <path clip-path="url(#pd47edd284f)" d="M 383.341117 307.584 
L 385.316703 307.584 
L 385.316703 261.702621 
L 383.341117 261.702621 
z
" style="fill:#fa9ba4;opacity:0.2;"/>
   </g>
   <g id="patch_144">
    <path clip-path="url(#pd47edd284f)" d="M 385.536212 307.584 
L 387.511798 307.584 
L 387.511798 224.997517 
L 385.536212 224.997517 
z
" style="fill:#fa9ba4;opacity:0.2;"/>
   </g>
   <g id="patch_145">
    <path clip-path="url(#pd47edd284f)" d="M 387.731307 307.584 
L 389.706893 307.584 
L 389.706893 270.878897 
L 387.731307 270.878897 
z
" style="fill:#fa9ba4;opacity:0.2;"/>
   </g>
   <g id="patch_146">
    <path clip-path="url(#pd47edd284f)" d="M 389.926402 307.584 
L 391.901988 307.584 
L 391.901988 252.526345 
L 389.926402 252.526345 
z
" style="fill:#fa9ba4;opacity:0.2;"/>
   </g>
   <g id="patch_147">
    <path clip-path="url(#pd47edd284f)" d="M 392.121497 307.584 
L 394.097083 307.584 
L 394.097083 261.702621 
L 392.121497 261.702621 
z
" style="fill:#fa9ba4;opacity:0.2;"/>
   </g>
   <g id="patch_148">
    <path clip-path="url(#pd47edd284f)" d="M 394.316592 307.584 
L 396.292178 307.584 
L 396.292178 261.702621 
L 394.316592 261.702621 
z
" style="fill:#fa9ba4;opacity:0.2;"/>
   </g>
   <g id="patch_149">
    <path clip-path="url(#pd47edd284f)" d="M 396.511687 307.584 
L 398.487273 307.584 
L 398.487273 298.407724 
L 396.511687 298.407724 
z
" style="fill:#fa9ba4;opacity:0.2;"/>
   </g>
   <g id="matplotlib.axis_1"/>
   <g id="matplotlib.axis_2"/>
   <g id="PolyCollection_1">
    <defs>
     <path d="M 368.963245 -173.038345 
L 368.963245 -38.016 
L 371.15834 -38.016 
L 373.353435 -38.016 
L 375.54853 -38.016 
L 377.743625 -38.016 
L 379.93872 -38.016 
L 382.133815 -38.016 
L 384.32891 -38.016 
L 386.524005 -38.016 
L 388.7191 -38.016 
L 390.914195 -38.016 
L 393.10929 -38.016 
L 395.304385 -38.016 
L 397.49948 -38.016 
L 397.49948 -83.897379 
L 397.49948 -83.897379 
L 395.304385 -86.519172 
L 393.10929 -90.451862 
L 390.914195 -93.073655 
L 388.7191 -104.871724 
L 386.524005 -108.804414 
L 384.32891 -121.913379 
L 382.133815 -129.778759 
L 379.93872 -149.442207 
L 377.743625 -155.99669 
L 375.54853 -162.551172 
L 373.353435 -180.903724 
L 371.15834 -187.458207 
L 368.963245 -173.038345 
z
" id="me680e82466" style="stroke:#dc3545;stroke-opacity:0.5;"/>
    </defs>
    <g clip-path="url(#pd47edd284f)">
     <use style="fill:#dc3545;fill-opacity:0.5;stroke:#dc3545;stroke-opacity:0.5;" x="0" xlink:href="#me680e82466" y="345.6"/>
    </g>
   </g>
   <g id="PolyCollection_2">
    <defs>
     <path d="M 87.99109 -38.016 
L 87.99109 -38.016 
L 90.186185 -38.016 
L 92.38128 -38.016 
L 94.576375 -38.016 
L 96.77147 -38.016 
L 98.966565 -38.016 
L 101.16166 -38.016 
L 103.356755 -38.016 
L 105.55185 -38.016 
L 107.746944 -38.016 
L 109.942039 -38.016 
L 112.137134 -38.016 
L 114.332229 -38.016 
L 116.527324 -38.016 
L 118.722419 -38.016 
L 120.917514 -38.016 
L 123.112609 -38.016 
L 125.307704 -38.016 
L 127.502799 -38.016 
L 129.697894 -38.016 
L 131.892989 -38.016 
L 134.088084 -38.016 
L 136.283179 -38.016 
L 138.478274 -38.016 
L 140.673369 -38.016 
L 142.868464 -38.016 
L 145.063559 -38.016 
L 147.258654 -38.016 
L 149.453749 -38.016 
L 151.648844 -38.016 
L 153.843939 -38.016 
L 156.039034 -38.016 
L 158.234129 -38.016 
L 160.429224 -38.016 
L 162.624319 -38.016 
L 164.819414 -38.016 
L 167.014509 -38.016 
L 169.209604 -38.016 
L 171.404699 -38.016 
L 173.599793 -38.016 
L 175.794888 -38.016 
L 177.989983 -38.016 
L 180.185078 -38.016 
L 182.380173 -38.016 
L 184.575268 -38.016 
L 186.770363 -38.016 
L 188.965458 -38.016 
L 191.160553 -38.016 
L 193.355648 -38.016 
L 195.550743 -38.016 
L 197.745838 -38.016 
L 199.940933 -38.016 
L 202.136028 -38.016 
L 204.331123 -38.016 
L 206.526218 -38.016 
L 208.721313 -38.016 
L 210.916408 -38.016 
L 213.111503 -38.016 
L 215.306598 -38.016 
L 217.501693 -38.016 
L 219.696788 -38.016 
L 221.891883 -38.016 
L 224.086978 -38.016 
L 226.282073 -38.016 
L 228.477168 -38.016 
L 230.672263 -38.016 
L 232.867358 -38.016 
L 235.062453 -38.016 
L 237.257547 -38.016 
L 239.452642 -38.016 
L 241.647737 -38.016 
L 243.842832 -38.016 
L 246.037927 -38.016 
L 248.233022 -38.016 
L 250.428117 -38.016 
L 252.623212 -38.016 
L 254.818307 -38.016 
L 257.013402 -38.016 
L 259.208497 -38.016 
L 261.403592 -38.016 
L 263.598687 -38.016 
L 265.793782 -38.016 
L 267.988877 -38.016 
L 270.183972 -38.016 
L 272.379067 -38.016 
L 274.574162 -38.016 
L 276.769257 -38.016 
L 278.964352 -38.016 
L 281.159447 -38.016 
L 283.354542 -38.016 
L 285.549637 -38.016 
L 287.744732 -38.016 
L 289.939827 -38.016 
L 292.134922 -38.016 
L 294.330017 -38.016 
L 296.525112 -38.016 
L 298.720207 -38.016 
L 300.915301 -38.016 
L 303.110396 -38.016 
L 305.305491 -38.016 
L 307.500586 -38.016 
L 309.695681 -38.016 
L 311.890776 -38.016 
L 314.085871 -38.016 
L 316.280966 -38.016 
L 318.476061 -38.016 
L 320.671156 -38.016 
L 322.866251 -38.016 
L 325.061346 -38.016 
L 327.256441 -38.016 
L 329.451536 -38.016 
L 331.646631 -38.016 
L 333.841726 -38.016 
L 336.036821 -38.016 
L 338.231916 -38.016 
L 340.427011 -38.016 
L 342.622106 -38.016 
L 344.817201 -38.016 
L 347.012296 -38.016 
L 349.207391 -38.016 
L 351.402486 -38.016 
L 353.597581 -38.016 
L 355.792676 -38.016 
L 357.987771 -38.016 
L 360.182866 -38.016 
L 362.377961 -38.016 
L 364.573056 -38.016 
L 366.76815 -38.016 
L 368.963245 -38.016 
L 368.963245 -173.038345 
L 368.963245 -173.038345 
L 366.76815 -174.349241 
L 364.573056 -175.660138 
L 362.377961 -162.551172 
L 360.182866 -149.442207 
L 357.987771 -119.291586 
L 355.792676 -103.560828 
L 353.597581 -98.317241 
L 351.402486 -91.762759 
L 349.207391 -66.855724 
L 347.012296 -65.544828 
L 344.817201 -66.855724 
L 342.622106 -58.990345 
L 340.427011 -60.301241 
L 338.231916 -55.057655 
L 336.036821 -45.881379 
L 333.841726 -45.881379 
L 331.646631 -43.259586 
L 329.451536 -39.326897 
L 327.256441 -39.326897 
L 325.061346 -38.016 
L 322.866251 -38.016 
L 320.671156 -38.016 
L 318.476061 -38.016 
L 316.280966 -39.326897 
L 314.085871 -39.326897 
L 311.890776 -39.326897 
L 309.695681 -39.326897 
L 307.500586 -39.326897 
L 305.305491 -39.326897 
L 303.110396 -39.326897 
L 300.915301 -38.016 
L 298.720207 -38.016 
L 296.525112 -38.016 
L 294.330017 -38.016 
L 292.134922 -38.016 
L 289.939827 -38.016 
L 287.744732 -38.016 
L 285.549637 -38.016 
L 283.354542 -38.016 
L 281.159447 -38.016 
L 278.964352 -38.016 
L 276.769257 -38.016 
L 274.574162 -38.016 
L 272.379067 -38.016 
L 270.183972 -38.016 
L 267.988877 -38.016 
L 265.793782 -38.016 
L 263.598687 -38.016 
L 261.403592 -38.016 
L 259.208497 -38.016 
L 257.013402 -38.016 
L 254.818307 -38.016 
L 252.623212 -38.016 
L 250.428117 -38.016 
L 248.233022 -38.016 
L 246.037927 -38.016 
L 243.842832 -38.016 
L 241.647737 -38.016 
L 239.452642 -38.016 
L 237.257547 -38.016 
L 235.062453 -38.016 
L 232.867358 -38.016 
L 230.672263 -39.326897 
L 228.477168 -39.326897 
L 226.282073 -39.326897 
L 224.086978 -39.326897 
L 221.891883 -39.326897 
L 219.696788 -39.326897 
L 217.501693 -39.326897 
L 215.306598 -38.016 
L 213.111503 -39.326897 
L 210.916408 -39.326897 
L 208.721313 -39.326897 
L 206.526218 -39.326897 
L 204.331123 -39.326897 
L 202.136028 -39.326897 
L 199.940933 -39.326897 
L 197.745838 -39.326897 
L 195.550743 -39.326897 
L 193.355648 -47.192276 
L 191.160553 -52.435862 
L 188.965458 -60.301241 
L 186.770363 -60.301241 
L 184.575268 -60.301241 
L 182.380173 -58.990345 
L 180.185078 -58.990345 
L 177.989983 -51.124966 
L 175.794888 -45.881379 
L 173.599793 -38.016 
L 171.404699 -38.016 
L 169.209604 -38.016 
L 167.014509 -38.016 
L 164.819414 -38.016 
L 162.624319 -38.016 
L 160.429224 -38.016 
L 158.234129 -38.016 
L 156.039034 -38.016 
L 153.843939 -38.016 
L 151.648844 -38.016 
L 149.453749 -38.016 
L 147.258654 -38.016 
L 145.063559 -38.016 
L 142.868464 -38.016 
L 140.673369 -38.016 
L 138.478274 -38.016 
L 136.283179 -38.016 
L 134.088084 -38.016 
L 131.892989 -38.016 
L 129.697894 -38.016 
L 127.502799 -38.016 
L 125.307704 -38.016 
L 123.112609 -39.326897 
L 120.917514 -39.326897 
L 118.722419 -39.326897 
L 116.527324 -39.326897 
L 114.332229 -39.326897 
L 112.137134 -39.326897 
L 109.942039 -39.326897 
L 107.746944 -38.016 
L 105.55185 -38.016 
L 103.356755 -38.016 
L 101.16166 -38.016 
L 98.966565 -38.016 
L 96.77147 -38.016 
L 94.576375 -38.016 
L 92.38128 -38.016 
L 90.186185 -38.016 
L 87.99109 -38.016 
z
" id="m1866eedb2e" style="stroke:#fa9ba4;stroke-opacity:0.3;"/>
    </defs>
    <g clip-path="url(#pd47edd284f)">
     <use style="fill:#fa9ba4;fill-opacity:0.3;stroke:#fa9ba4;stroke-opacity:0.3;" x="0" xlink:href="#m1866eedb2e" y="345.6"/>
    </g>
   </g>
   <g id="line2d_1">
    <path clip-path="url(#pd47edd284f)" d="M 87.99109 307.584 
L 107.746944 307.584 
L 109.942039 306.273103 
L 123.112609 306.273103 
L 125.307704 307.584 
L 173.599793 307.584 
L 175.794888 299.718621 
L 177.989983 294.475034 
L 180.185078 286.609655 
L 182.380173 286.609655 
L 184.575268 285.298759 
L 188.965458 285.298759 
L 191.160553 293.164138 
L 193.355648 298.407724 
L 195.550743 306.273103 
L 213.111503 306.273103 
L 215.306598 307.584 
L 217.501693 306.273103 
L 230.672263 306.273103 
L 232.867358 307.584 
L 300.915301 307.584 
L 303.110396 306.273103 
L 316.280966 306.273103 
L 318.476061 307.584 
L 325.061346 307.584 
L 327.256441 306.273103 
L 329.451536 306.273103 
L 331.646631 302.340414 
L 333.841726 299.718621 
L 336.036821 299.718621 
L 338.231916 290.542345 
L 340.427011 285.298759 
L 342.622106 286.609655 
L 344.817201 278.744276 
L 347.012296 280.055172 
L 349.207391 278.744276 
L 351.402486 253.837241 
L 353.597581 247.282759 
L 355.792676 242.039172 
L 357.987771 226.308414 
L 360.182866 196.157793 
L 364.573056 169.939862 
L 368.963245 172.561655 
L 371.15834 158.141793 
L 373.353435 164.696276 
L 375.54853 183.048828 
L 379.93872 196.157793 
L 382.133815 215.821241 
L 384.32891 223.686621 
L 386.524005 236.795586 
L 388.7191 240.728276 
L 390.914195 252.526345 
L 393.10929 255.148138 
L 395.304385 259.080828 
L 397.49948 261.702621 
L 397.49948 261.702621 
" style="fill:none;stroke:#fa9ba4;stroke-linecap:square;stroke-width:2;"/>
   </g>
   <g id="line2d_2">
    <path clip-path="url(#pd47edd284f)" d="M 368.963245 172.561655 
L 371.15834 158.141793 
L 373.353435 164.696276 
L 375.54853 183.048828 
L 377.743625 189.60331 
L 379.93872 196.157793 
L 382.133815 215.821241 
L 384.32891 223.686621 
L 386.524005 236.795586 
L 388.7191 240.728276 
L 390.914195 252.526345 
L 393.10929 255.148138 
L 395.304385 259.080828 
L 397.49948 261.702621 
" style="fill:none;stroke:#dc3545;stroke-linecap:square;stroke-width:2;"/>
   </g>
  </g>
 </g>
 <defs>
  <clipPath id="pd47edd284f">
   <rect height="266.112" width="357.12" x="57.6" y="41.472"/>
  </clipPath>
 </defs>
</svg>
