<?xml version="1.0" encoding="utf-8" standalone="no"?>
<!DOCTYPE svg PUBLIC "-//W3C//DTD SVG 1.1//EN"
  "http://www.w3.org/Graphics/SVG/1.1/DTD/svg11.dtd">
<!-- Created with matplotlib (https://matplotlib.org/) -->
<svg height="345.6pt" version="1.1" viewBox="0 0 460.8 345.6" width="460.8pt" xmlns="http://www.w3.org/2000/svg" xmlns:xlink="http://www.w3.org/1999/xlink">
 <defs>
  <style type="text/css">
*{stroke-linecap:butt;stroke-linejoin:round;}
  </style>
 </defs>
 <g id="figure_1">
  <g id="patch_1">
   <path d="M 0 345.6 
L 460.8 345.6 
L 460.8 0 
L 0 0 
z
" style="fill:none;"/>
  </g>
  <g id="axes_1">
   <g id="patch_2">
    <path clip-path="url(#p1c89e66523)" d="M 73.832727 307.584 
L 81.155762 307.584 
L 81.155762 307.584 
L 73.832727 307.584 
z
" style="fill:#fa9ba4;opacity:0.2;"/>
   </g>
   <g id="patch_3">
    <path clip-path="url(#p1c89e66523)" d="M 81.969433 307.584 
L 89.292468 307.584 
L 89.292468 307.584 
L 81.969433 307.584 
z
" style="fill:#fa9ba4;opacity:0.2;"/>
   </g>
   <g id="patch_4">
    <path clip-path="url(#p1c89e66523)" d="M 90.106138 307.584 
L 97.429173 307.584 
L 97.429173 307.584 
L 90.106138 307.584 
z
" style="fill:#fa9ba4;opacity:0.2;"/>
   </g>
   <g id="patch_5">
    <path clip-path="url(#p1c89e66523)" d="M 98.242843 307.584 
L 105.565878 307.584 
L 105.565878 307.584 
L 98.242843 307.584 
z
" style="fill:#fa9ba4;opacity:0.2;"/>
   </g>
   <g id="patch_6">
    <path clip-path="url(#p1c89e66523)" d="M 106.379549 307.584 
L 113.702584 307.584 
L 113.702584 307.584 
L 106.379549 307.584 
z
" style="fill:#fa9ba4;opacity:0.2;"/>
   </g>
   <g id="patch_7">
    <path clip-path="url(#p1c89e66523)" d="M 114.516254 307.584 
L 121.839289 307.584 
L 121.839289 307.584 
L 114.516254 307.584 
z
" style="fill:#fa9ba4;opacity:0.2;"/>
   </g>
   <g id="patch_8">
    <path clip-path="url(#p1c89e66523)" d="M 122.65296 307.584 
L 129.975995 307.584 
L 129.975995 307.584 
L 122.65296 307.584 
z
" style="fill:#fa9ba4;opacity:0.2;"/>
   </g>
   <g id="patch_9">
    <path clip-path="url(#p1c89e66523)" d="M 130.789665 307.584 
L 138.1127 307.584 
L 138.1127 307.584 
L 130.789665 307.584 
z
" style="fill:#fa9ba4;opacity:0.2;"/>
   </g>
   <g id="patch_10">
    <path clip-path="url(#p1c89e66523)" d="M 138.92637 307.584 
L 146.249405 307.584 
L 146.249405 307.584 
L 138.92637 307.584 
z
" style="fill:#fa9ba4;opacity:0.2;"/>
   </g>
   <g id="patch_11">
    <path clip-path="url(#p1c89e66523)" d="M 147.063076 307.584 
L 154.386111 307.584 
L 154.386111 307.584 
L 147.063076 307.584 
z
" style="fill:#fa9ba4;opacity:0.2;"/>
   </g>
   <g id="patch_12">
    <path clip-path="url(#p1c89e66523)" d="M 155.199781 307.584 
L 162.522816 307.584 
L 162.522816 307.584 
L 155.199781 307.584 
z
" style="fill:#fa9ba4;opacity:0.2;"/>
   </g>
   <g id="patch_13">
    <path clip-path="url(#p1c89e66523)" d="M 163.336487 307.584 
L 170.659522 307.584 
L 170.659522 307.584 
L 163.336487 307.584 
z
" style="fill:#fa9ba4;opacity:0.2;"/>
   </g>
   <g id="patch_14">
    <path clip-path="url(#p1c89e66523)" d="M 171.473192 307.584 
L 178.796227 307.584 
L 178.796227 307.584 
L 171.473192 307.584 
z
" style="fill:#fa9ba4;opacity:0.2;"/>
   </g>
   <g id="patch_15">
    <path clip-path="url(#p1c89e66523)" d="M 179.609897 307.584 
L 186.932932 307.584 
L 186.932932 254.3616 
L 179.609897 254.3616 
z
" style="fill:#fa9ba4;opacity:0.2;"/>
   </g>
   <g id="patch_16">
    <path clip-path="url(#p1c89e66523)" d="M 187.746603 307.584 
L 195.069638 307.584 
L 195.069638 307.584 
L 187.746603 307.584 
z
" style="fill:#fa9ba4;opacity:0.2;"/>
   </g>
   <g id="patch_17">
    <path clip-path="url(#p1c89e66523)" d="M 195.883308 307.584 
L 203.206343 307.584 
L 203.206343 307.584 
L 195.883308 307.584 
z
" style="fill:#fa9ba4;opacity:0.2;"/>
   </g>
   <g id="patch_18">
    <path clip-path="url(#p1c89e66523)" d="M 204.020014 307.584 
L 211.343049 307.584 
L 211.343049 307.584 
L 204.020014 307.584 
z
" style="fill:#fa9ba4;opacity:0.2;"/>
   </g>
   <g id="patch_19">
    <path clip-path="url(#p1c89e66523)" d="M 212.156719 307.584 
L 219.479754 307.584 
L 219.479754 307.584 
L 212.156719 307.584 
z
" style="fill:#fa9ba4;opacity:0.2;"/>
   </g>
   <g id="patch_20">
    <path clip-path="url(#p1c89e66523)" d="M 220.293424 307.584 
L 227.616459 307.584 
L 227.616459 307.584 
L 220.293424 307.584 
z
" style="fill:#fa9ba4;opacity:0.2;"/>
   </g>
   <g id="patch_21">
    <path clip-path="url(#p1c89e66523)" d="M 228.43013 307.584 
L 235.753165 307.584 
L 235.753165 201.1392 
L 228.43013 201.1392 
z
" style="fill:#fa9ba4;opacity:0.2;"/>
   </g>
   <g id="patch_22">
    <path clip-path="url(#p1c89e66523)" d="M 236.566835 307.584 
L 243.88987 307.584 
L 243.88987 307.584 
L 236.566835 307.584 
z
" style="fill:#fa9ba4;opacity:0.2;"/>
   </g>
   <g id="patch_23">
    <path clip-path="url(#p1c89e66523)" d="M 244.703541 307.584 
L 252.026576 307.584 
L 252.026576 307.584 
L 244.703541 307.584 
z
" style="fill:#fa9ba4;opacity:0.2;"/>
   </g>
   <g id="patch_24">
    <path clip-path="url(#p1c89e66523)" d="M 252.840246 307.584 
L 260.163281 307.584 
L 260.163281 254.3616 
L 252.840246 254.3616 
z
" style="fill:#fa9ba4;opacity:0.2;"/>
   </g>
   <g id="patch_25">
    <path clip-path="url(#p1c89e66523)" d="M 260.976951 307.584 
L 268.299986 307.584 
L 268.299986 201.1392 
L 260.976951 201.1392 
z
" style="fill:#fa9ba4;opacity:0.2;"/>
   </g>
   <g id="patch_26">
    <path clip-path="url(#p1c89e66523)" d="M 269.113657 307.584 
L 276.436692 307.584 
L 276.436692 94.6944 
L 269.113657 94.6944 
z
" style="fill:#fa9ba4;opacity:0.2;"/>
   </g>
   <g id="patch_27">
    <path clip-path="url(#p1c89e66523)" d="M 277.250362 307.584 
L 284.573397 307.584 
L 284.573397 307.584 
L 277.250362 307.584 
z
" style="fill:#fa9ba4;opacity:0.2;"/>
   </g>
   <g id="patch_28">
    <path clip-path="url(#p1c89e66523)" d="M 285.387068 307.584 
L 292.710103 307.584 
L 292.710103 41.472 
L 285.387068 41.472 
z
" style="fill:#fa9ba4;opacity:0.2;"/>
   </g>
   <g id="patch_29">
    <path clip-path="url(#p1c89e66523)" d="M 293.523773 307.584 
L 300.846808 307.584 
L 300.846808 201.1392 
L 293.523773 201.1392 
z
" style="fill:#fa9ba4;opacity:0.2;"/>
   </g>
   <g id="patch_30">
    <path clip-path="url(#p1c89e66523)" d="M 301.660478 307.584 
L 308.983513 307.584 
L 308.983513 201.1392 
L 301.660478 201.1392 
z
" style="fill:#fa9ba4;opacity:0.2;"/>
   </g>
   <g id="patch_31">
    <path clip-path="url(#p1c89e66523)" d="M 309.797184 307.584 
L 317.120219 307.584 
L 317.120219 201.1392 
L 309.797184 201.1392 
z
" style="fill:#fa9ba4;opacity:0.2;"/>
   </g>
   <g id="patch_32">
    <path clip-path="url(#p1c89e66523)" d="M 317.933889 307.584 
L 325.256924 307.584 
L 325.256924 307.584 
L 317.933889 307.584 
z
" style="fill:#fa9ba4;opacity:0.2;"/>
   </g>
   <g id="patch_33">
    <path clip-path="url(#p1c89e66523)" d="M 326.070595 307.584 
L 333.39363 307.584 
L 333.39363 307.584 
L 326.070595 307.584 
z
" style="fill:#fa9ba4;opacity:0.2;"/>
   </g>
   <g id="patch_34">
    <path clip-path="url(#p1c89e66523)" d="M 334.2073 307.584 
L 341.530335 307.584 
L 341.530335 307.584 
L 334.2073 307.584 
z
" style="fill:#fa9ba4;opacity:0.2;"/>
   </g>
   <g id="patch_35">
    <path clip-path="url(#p1c89e66523)" d="M 342.344005 307.584 
L 349.66704 307.584 
L 349.66704 307.584 
L 342.344005 307.584 
z
" style="fill:#fa9ba4;opacity:0.2;"/>
   </g>
   <g id="patch_36">
    <path clip-path="url(#p1c89e66523)" d="M 350.480711 307.584 
L 357.803746 307.584 
L 357.803746 307.584 
L 350.480711 307.584 
z
" style="fill:#fa9ba4;opacity:0.2;"/>
   </g>
   <g id="patch_37">
    <path clip-path="url(#p1c89e66523)" d="M 358.617416 307.584 
L 365.940451 307.584 
L 365.940451 307.584 
L 358.617416 307.584 
z
" style="fill:#fa9ba4;opacity:0.2;"/>
   </g>
   <g id="patch_38">
    <path clip-path="url(#p1c89e66523)" d="M 366.754122 307.584 
L 374.077157 307.584 
L 374.077157 307.584 
L 366.754122 307.584 
z
" style="fill:#fa9ba4;opacity:0.2;"/>
   </g>
   <g id="patch_39">
    <path clip-path="url(#p1c89e66523)" d="M 374.890827 307.584 
L 382.213862 307.584 
L 382.213862 307.584 
L 374.890827 307.584 
z
" style="fill:#fa9ba4;opacity:0.2;"/>
   </g>
   <g id="patch_40">
    <path clip-path="url(#p1c89e66523)" d="M 383.027532 307.584 
L 390.350567 307.584 
L 390.350567 307.584 
L 383.027532 307.584 
z
" style="fill:#fa9ba4;opacity:0.2;"/>
   </g>
   <g id="patch_41">
    <path clip-path="url(#p1c89e66523)" d="M 391.164238 307.584 
L 398.487273 307.584 
L 398.487273 307.584 
L 391.164238 307.584 
z
" style="fill:#fa9ba4;opacity:0.2;"/>
   </g>
   <g id="matplotlib.axis_1"/>
   <g id="matplotlib.axis_2"/>
   <g id="PolyCollection_1">
    <defs>
     <path d="M 289.048585 -129.2544 
L 289.048585 -38.016 
L 297.18529 -38.016 
L 305.321996 -38.016 
L 313.458701 -38.016 
L 321.595407 -38.016 
L 329.732112 -38.016 
L 337.868817 -38.016 
L 346.005523 -38.016 
L 354.142228 -38.016 
L 362.278934 -38.016 
L 370.415639 -38.016 
L 378.552344 -38.016 
L 386.68905 -38.016 
L 394.825755 -38.016 
L 394.825755 -38.016 
L 394.825755 -38.016 
L 386.68905 -38.016 
L 378.552344 -38.016 
L 370.415639 -38.016 
L 362.278934 -53.2224 
L 354.142228 -68.4288 
L 346.005523 -83.6352 
L 337.868817 -121.6512 
L 329.732112 -121.6512 
L 321.595407 -152.064 
L 313.458701 -167.2704 
L 305.321996 -159.6672 
L 297.18529 -144.4608 
L 289.048585 -129.2544 
z
" id="mf1e381bdb2" style="stroke:#dc3545;stroke-opacity:0.5;"/>
    </defs>
    <g clip-path="url(#p1c89e66523)">
     <use style="fill:#dc3545;fill-opacity:0.5;stroke:#dc3545;stroke-opacity:0.5;" x="0" xlink:href="#mf1e381bdb2" y="345.6"/>
    </g>
   </g>
   <g id="PolyCollection_2">
    <defs>
     <path d="M 126.314477 -38.016 
L 126.314477 -38.016 
L 134.451183 -38.016 
L 142.587888 -38.016 
L 150.724593 -38.016 
L 158.861299 -38.016 
L 166.998004 -38.016 
L 175.134709 -38.016 
L 183.271415 -38.016 
L 191.40812 -38.016 
L 199.544826 -38.016 
L 207.681531 -38.016 
L 215.818236 -38.016 
L 223.954942 -38.016 
L 232.091647 -38.016 
L 240.228353 -38.016 
L 248.365058 -38.016 
L 256.501763 -38.016 
L 264.638469 -38.016 
L 272.775174 -38.016 
L 280.91188 -38.016 
L 289.048585 -38.016 
L 289.048585 -129.2544 
L 289.048585 -129.2544 
L 280.91188 -106.4448 
L 272.775174 -106.4448 
L 264.638469 -76.032 
L 256.501763 -60.8256 
L 248.365058 -53.2224 
L 240.228353 -53.2224 
L 232.091647 -60.8256 
L 223.954942 -45.6192 
L 215.818236 -45.6192 
L 207.681531 -45.6192 
L 199.544826 -45.6192 
L 191.40812 -45.6192 
L 183.271415 -45.6192 
L 175.134709 -38.016 
L 166.998004 -38.016 
L 158.861299 -38.016 
L 150.724593 -38.016 
L 142.587888 -38.016 
L 134.451183 -38.016 
L 126.314477 -38.016 
z
" id="m246baca368" style="stroke:#fa9ba4;stroke-opacity:0.3;"/>
    </defs>
    <g clip-path="url(#p1c89e66523)">
     <use style="fill:#fa9ba4;fill-opacity:0.3;stroke:#fa9ba4;stroke-opacity:0.3;" x="0" xlink:href="#m246baca368" y="345.6"/>
    </g>
   </g>
   <g id="line2d_1">
    <path clip-path="url(#p1c89e66523)" d="M 126.314477 307.584 
L 134.451183 307.584 
L 142.587888 307.584 
L 150.724593 307.584 
L 158.861299 307.584 
L 166.998004 307.584 
L 175.134709 307.584 
L 183.271415 299.9808 
L 191.40812 299.9808 
L 199.544826 299.9808 
L 207.681531 299.9808 
L 215.818236 299.9808 
L 223.954942 299.9808 
L 232.091647 284.7744 
L 240.228353 292.3776 
L 248.365058 292.3776 
L 256.501763 284.7744 
L 264.638469 269.568 
L 272.775174 239.1552 
L 280.91188 239.1552 
L 289.048585 216.3456 
L 297.18529 201.1392 
L 305.321996 185.9328 
L 313.458701 178.3296 
L 321.595407 193.536 
L 329.732112 223.9488 
L 337.868817 223.9488 
L 346.005523 261.9648 
L 354.142228 277.1712 
L 362.278934 292.3776 
L 370.415639 307.584 
L 378.552344 307.584 
L 386.68905 307.584 
L 394.825755 307.584 
" style="fill:none;stroke:#fa9ba4;stroke-linecap:square;stroke-width:2;"/>
   </g>
   <g id="line2d_2">
    <path clip-path="url(#p1c89e66523)" d="M 289.048585 216.3456 
L 297.18529 201.1392 
L 305.321996 185.9328 
L 313.458701 178.3296 
L 321.595407 193.536 
L 329.732112 223.9488 
L 337.868817 223.9488 
L 346.005523 261.9648 
L 354.142228 277.1712 
L 362.278934 292.3776 
L 370.415639 307.584 
L 378.552344 307.584 
L 386.68905 307.584 
L 394.825755 307.584 
" style="fill:none;stroke:#dc3545;stroke-linecap:square;stroke-width:2;"/>
   </g>
  </g>
 </g>
 <defs>
  <clipPath id="p1c89e66523">
   <rect height="266.112" width="357.12" x="57.6" y="41.472"/>
  </clipPath>
 </defs>
</svg>
