<?xml version="1.0" encoding="utf-8" standalone="no"?>
<!DOCTYPE svg PUBLIC "-//W3C//DTD SVG 1.1//EN"
  "http://www.w3.org/Graphics/SVG/1.1/DTD/svg11.dtd">
<!-- Created with matplotlib (https://matplotlib.org/) -->
<svg height="345.6pt" version="1.1" viewBox="0 0 460.8 345.6" width="460.8pt" xmlns="http://www.w3.org/2000/svg" xmlns:xlink="http://www.w3.org/1999/xlink">
 <metadata>
  <rdf:RDF xmlns:cc="http://creativecommons.org/ns#" xmlns:dc="http://purl.org/dc/elements/1.1/" xmlns:rdf="http://www.w3.org/1999/02/22-rdf-syntax-ns#">
   <cc:Work>
    <dc:type rdf:resource="http://purl.org/dc/dcmitype/StillImage"/>
    <dc:date>2021-01-23T13:24:30.801251</dc:date>
    <dc:format>image/svg+xml</dc:format>
    <dc:creator>
     <cc:Agent>
      <dc:title>Matplotlib v3.3.3, https://matplotlib.org/</dc:title>
     </cc:Agent>
    </dc:creator>
   </cc:Work>
  </rdf:RDF>
 </metadata>
 <defs>
  <style type="text/css">*{stroke-linecap:butt;stroke-linejoin:round;}</style>
 </defs>
 <g id="figure_1">
  <g id="patch_1">
   <path d="M 0 345.6 
L 460.8 345.6 
L 460.8 0 
L 0 0 
z
" style="fill:none;"/>
  </g>
  <g id="axes_1">
   <g id="patch_2">
    <path clip-path="url(#pcf158758e4)" d="M 73.832727 307.584 
L 81.344015 307.584 
L 81.344015 307.584 
L 73.832727 307.584 
z
" style="fill:#fa9ba4;opacity:0.2;"/>
   </g>
   <g id="patch_3">
    <path clip-path="url(#pcf158758e4)" d="M 82.178602 307.584 
L 89.68989 307.584 
L 89.68989 307.584 
L 82.178602 307.584 
z
" style="fill:#fa9ba4;opacity:0.2;"/>
   </g>
   <g id="patch_4">
    <path clip-path="url(#pcf158758e4)" d="M 90.524478 307.584 
L 98.035765 307.584 
L 98.035765 307.584 
L 90.524478 307.584 
z
" style="fill:#fa9ba4;opacity:0.2;"/>
   </g>
   <g id="patch_5">
    <path clip-path="url(#pcf158758e4)" d="M 98.870353 307.584 
L 106.381641 307.584 
L 106.381641 307.584 
L 98.870353 307.584 
z
" style="fill:#fa9ba4;opacity:0.2;"/>
   </g>
   <g id="patch_6">
    <path clip-path="url(#pcf158758e4)" d="M 107.216228 307.584 
L 114.727516 307.584 
L 114.727516 307.584 
L 107.216228 307.584 
z
" style="fill:#fa9ba4;opacity:0.2;"/>
   </g>
   <g id="patch_7">
    <path clip-path="url(#pcf158758e4)" d="M 115.562103 307.584 
L 123.073391 307.584 
L 123.073391 307.584 
L 115.562103 307.584 
z
" style="fill:#fa9ba4;opacity:0.2;"/>
   </g>
   <g id="patch_8">
    <path clip-path="url(#pcf158758e4)" d="M 123.907978 307.584 
L 131.419266 307.584 
L 131.419266 307.584 
L 123.907978 307.584 
z
" style="fill:#fa9ba4;opacity:0.2;"/>
   </g>
   <g id="patch_9">
    <path clip-path="url(#pcf158758e4)" d="M 132.253854 307.584 
L 139.765141 307.584 
L 139.765141 307.584 
L 132.253854 307.584 
z
" style="fill:#fa9ba4;opacity:0.2;"/>
   </g>
   <g id="patch_10">
    <path clip-path="url(#pcf158758e4)" d="M 140.599729 307.584 
L 148.111017 307.584 
L 148.111017 307.584 
L 140.599729 307.584 
z
" style="fill:#fa9ba4;opacity:0.2;"/>
   </g>
   <g id="patch_11">
    <path clip-path="url(#pcf158758e4)" d="M 148.945604 307.584 
L 156.456892 307.584 
L 156.456892 307.584 
L 148.945604 307.584 
z
" style="fill:#fa9ba4;opacity:0.2;"/>
   </g>
   <g id="patch_12">
    <path clip-path="url(#pcf158758e4)" d="M 157.291479 307.584 
L 164.802767 307.584 
L 164.802767 307.584 
L 157.291479 307.584 
z
" style="fill:#fa9ba4;opacity:0.2;"/>
   </g>
   <g id="patch_13">
    <path clip-path="url(#pcf158758e4)" d="M 165.637355 307.584 
L 173.148642 307.584 
L 173.148642 307.584 
L 165.637355 307.584 
z
" style="fill:#fa9ba4;opacity:0.2;"/>
   </g>
   <g id="patch_14">
    <path clip-path="url(#pcf158758e4)" d="M 173.98323 307.584 
L 181.494517 307.584 
L 181.494517 307.584 
L 173.98323 307.584 
z
" style="fill:#fa9ba4;opacity:0.2;"/>
   </g>
   <g id="patch_15">
    <path clip-path="url(#pcf158758e4)" d="M 182.329105 307.584 
L 189.840393 307.584 
L 189.840393 254.3616 
L 182.329105 254.3616 
z
" style="fill:#fa9ba4;opacity:0.2;"/>
   </g>
   <g id="patch_16">
    <path clip-path="url(#pcf158758e4)" d="M 190.67498 307.584 
L 198.186268 307.584 
L 198.186268 307.584 
L 190.67498 307.584 
z
" style="fill:#fa9ba4;opacity:0.2;"/>
   </g>
   <g id="patch_17">
    <path clip-path="url(#pcf158758e4)" d="M 199.020855 307.584 
L 206.532143 307.584 
L 206.532143 307.584 
L 199.020855 307.584 
z
" style="fill:#fa9ba4;opacity:0.2;"/>
   </g>
   <g id="patch_18">
    <path clip-path="url(#pcf158758e4)" d="M 207.366731 307.584 
L 214.878018 307.584 
L 214.878018 307.584 
L 207.366731 307.584 
z
" style="fill:#fa9ba4;opacity:0.2;"/>
   </g>
   <g id="patch_19">
    <path clip-path="url(#pcf158758e4)" d="M 215.712606 307.584 
L 223.223893 307.584 
L 223.223893 307.584 
L 215.712606 307.584 
z
" style="fill:#fa9ba4;opacity:0.2;"/>
   </g>
   <g id="patch_20">
    <path clip-path="url(#pcf158758e4)" d="M 224.058481 307.584 
L 231.569769 307.584 
L 231.569769 307.584 
L 224.058481 307.584 
z
" style="fill:#fa9ba4;opacity:0.2;"/>
   </g>
   <g id="patch_21">
    <path clip-path="url(#pcf158758e4)" d="M 232.404356 307.584 
L 239.915644 307.584 
L 239.915644 201.1392 
L 232.404356 201.1392 
z
" style="fill:#fa9ba4;opacity:0.2;"/>
   </g>
   <g id="patch_22">
    <path clip-path="url(#pcf158758e4)" d="M 240.750231 307.584 
L 248.261519 307.584 
L 248.261519 307.584 
L 240.750231 307.584 
z
" style="fill:#fa9ba4;opacity:0.2;"/>
   </g>
   <g id="patch_23">
    <path clip-path="url(#pcf158758e4)" d="M 249.096107 307.584 
L 256.607394 307.584 
L 256.607394 307.584 
L 249.096107 307.584 
z
" style="fill:#fa9ba4;opacity:0.2;"/>
   </g>
   <g id="patch_24">
    <path clip-path="url(#pcf158758e4)" d="M 257.441982 307.584 
L 264.953269 307.584 
L 264.953269 254.3616 
L 257.441982 254.3616 
z
" style="fill:#fa9ba4;opacity:0.2;"/>
   </g>
   <g id="patch_25">
    <path clip-path="url(#pcf158758e4)" d="M 265.787857 307.584 
L 273.299145 307.584 
L 273.299145 201.1392 
L 265.787857 201.1392 
z
" style="fill:#fa9ba4;opacity:0.2;"/>
   </g>
   <g id="patch_26">
    <path clip-path="url(#pcf158758e4)" d="M 274.133732 307.584 
L 281.64502 307.584 
L 281.64502 94.6944 
L 274.133732 94.6944 
z
" style="fill:#fa9ba4;opacity:0.2;"/>
   </g>
   <g id="patch_27">
    <path clip-path="url(#pcf158758e4)" d="M 282.479607 307.584 
L 289.990895 307.584 
L 289.990895 307.584 
L 282.479607 307.584 
z
" style="fill:#fa9ba4;opacity:0.2;"/>
   </g>
   <g id="patch_28">
    <path clip-path="url(#pcf158758e4)" d="M 290.825483 307.584 
L 298.33677 307.584 
L 298.33677 41.472 
L 290.825483 41.472 
z
" style="fill:#fa9ba4;opacity:0.2;"/>
   </g>
   <g id="patch_29">
    <path clip-path="url(#pcf158758e4)" d="M 299.171358 307.584 
L 306.682645 307.584 
L 306.682645 201.1392 
L 299.171358 201.1392 
z
" style="fill:#fa9ba4;opacity:0.2;"/>
   </g>
   <g id="patch_30">
    <path clip-path="url(#pcf158758e4)" d="M 307.517233 307.584 
L 315.028521 307.584 
L 315.028521 201.1392 
L 307.517233 201.1392 
z
" style="fill:#fa9ba4;opacity:0.2;"/>
   </g>
   <g id="patch_31">
    <path clip-path="url(#pcf158758e4)" d="M 315.863108 307.584 
L 323.374396 307.584 
L 323.374396 201.1392 
L 315.863108 201.1392 
z
" style="fill:#fa9ba4;opacity:0.2;"/>
   </g>
   <g id="patch_32">
    <path clip-path="url(#pcf158758e4)" d="M 324.208983 307.584 
L 331.720271 307.584 
L 331.720271 307.584 
L 324.208983 307.584 
z
" style="fill:#fa9ba4;opacity:0.2;"/>
   </g>
   <g id="patch_33">
    <path clip-path="url(#pcf158758e4)" d="M 332.554859 307.584 
L 340.066146 307.584 
L 340.066146 307.584 
L 332.554859 307.584 
z
" style="fill:#fa9ba4;opacity:0.2;"/>
   </g>
   <g id="patch_34">
    <path clip-path="url(#pcf158758e4)" d="M 340.900734 307.584 
L 348.412022 307.584 
L 348.412022 307.584 
L 340.900734 307.584 
z
" style="fill:#fa9ba4;opacity:0.2;"/>
   </g>
   <g id="patch_35">
    <path clip-path="url(#pcf158758e4)" d="M 349.246609 307.584 
L 356.757897 307.584 
L 356.757897 307.584 
L 349.246609 307.584 
z
" style="fill:#fa9ba4;opacity:0.2;"/>
   </g>
   <g id="patch_36">
    <path clip-path="url(#pcf158758e4)" d="M 357.592484 307.584 
L 365.103772 307.584 
L 365.103772 307.584 
L 357.592484 307.584 
z
" style="fill:#fa9ba4;opacity:0.2;"/>
   </g>
   <g id="patch_37">
    <path clip-path="url(#pcf158758e4)" d="M 365.938359 307.584 
L 373.449647 307.584 
L 373.449647 307.584 
L 365.938359 307.584 
z
" style="fill:#fa9ba4;opacity:0.2;"/>
   </g>
   <g id="patch_38">
    <path clip-path="url(#pcf158758e4)" d="M 374.284235 307.584 
L 381.795522 307.584 
L 381.795522 307.584 
L 374.284235 307.584 
z
" style="fill:#fa9ba4;opacity:0.2;"/>
   </g>
   <g id="patch_39">
    <path clip-path="url(#pcf158758e4)" d="M 382.63011 307.584 
L 390.141398 307.584 
L 390.141398 307.584 
L 382.63011 307.584 
z
" style="fill:#fa9ba4;opacity:0.2;"/>
   </g>
   <g id="patch_40">
    <path clip-path="url(#pcf158758e4)" d="M 390.975985 307.584 
L 398.487273 307.584 
L 398.487273 307.584 
L 390.975985 307.584 
z
" style="fill:#fa9ba4;opacity:0.2;"/>
   </g>
   <g id="matplotlib.axis_1"/>
   <g id="matplotlib.axis_2"/>
   <g id="PolyCollection_1">
    <defs>
     <path d="M 286.235251 -106.4448 
L 286.235251 -38.016 
L 294.581126 -38.016 
L 302.927002 -38.016 
L 311.272877 -38.016 
L 319.618752 -38.016 
L 327.964627 -38.016 
L 336.310502 -38.016 
L 344.656378 -38.016 
L 353.002253 -38.016 
L 361.348128 -38.016 
L 369.694003 -38.016 
L 378.039878 -38.016 
L 386.385754 -38.016 
L 394.731629 -38.016 
L 394.731629 -38.016 
L 394.731629 -38.016 
L 386.385754 -38.016 
L 378.039878 -38.016 
L 369.694003 -53.2224 
L 361.348128 -68.4288 
L 353.002253 -83.6352 
L 344.656378 -121.6512 
L 336.310502 -121.6512 
L 327.964627 -152.064 
L 319.618752 -167.2704 
L 311.272877 -159.6672 
L 302.927002 -144.4608 
L 294.581126 -129.2544 
L 286.235251 -106.4448 
z
" id="m2fe3356af6" style="stroke:#dc3545;stroke-opacity:0.5;"/>
    </defs>
    <g clip-path="url(#pcf158758e4)">
     <use style="fill:#dc3545;fill-opacity:0.5;stroke:#dc3545;stroke-opacity:0.5;" x="0" xlink:href="#m2fe3356af6" y="345.6"/>
    </g>
   </g>
   <g id="PolyCollection_2">
    <defs>
     <path d="M 127.663622 -38.016 
L 127.663622 -38.016 
L 136.009498 -38.016 
L 144.355373 -38.016 
L 152.701248 -38.016 
L 161.047123 -38.016 
L 169.392998 -38.016 
L 177.738874 -38.016 
L 186.084749 -38.016 
L 194.430624 -38.016 
L 202.776499 -38.016 
L 211.122374 -38.016 
L 219.46825 -38.016 
L 227.814125 -38.016 
L 236.16 -38.016 
L 244.505875 -38.016 
L 252.85175 -38.016 
L 261.197626 -38.016 
L 269.543501 -38.016 
L 277.889376 -38.016 
L 286.235251 -38.016 
L 286.235251 -106.4448 
L 286.235251 -106.4448 
L 277.889376 -106.4448 
L 269.543501 -76.032 
L 261.197626 -60.8256 
L 252.85175 -53.2224 
L 244.505875 -53.2224 
L 236.16 -60.8256 
L 227.814125 -45.6192 
L 219.46825 -45.6192 
L 211.122374 -45.6192 
L 202.776499 -45.6192 
L 194.430624 -45.6192 
L 186.084749 -45.6192 
L 177.738874 -38.016 
L 169.392998 -38.016 
L 161.047123 -38.016 
L 152.701248 -38.016 
L 144.355373 -38.016 
L 136.009498 -38.016 
L 127.663622 -38.016 
z
" id="mb30c732416" style="stroke:#fa9ba4;stroke-opacity:0.3;"/>
    </defs>
    <g clip-path="url(#pcf158758e4)">
     <use style="fill:#fa9ba4;fill-opacity:0.3;stroke:#fa9ba4;stroke-opacity:0.3;" x="0" xlink:href="#mb30c732416" y="345.6"/>
    </g>
   </g>
   <g id="line2d_1">
    <path clip-path="url(#pcf158758e4)" d="M 127.663622 307.584 
L 136.009498 307.584 
L 144.355373 307.584 
L 152.701248 307.584 
L 161.047123 307.584 
L 169.392998 307.584 
L 177.738874 307.584 
L 186.084749 299.9808 
L 194.430624 299.9808 
L 202.776499 299.9808 
L 211.122374 299.9808 
L 219.46825 299.9808 
L 227.814125 299.9808 
L 236.16 284.7744 
L 244.505875 292.3776 
L 252.85175 292.3776 
L 261.197626 284.7744 
L 269.543501 269.568 
L 277.889376 239.1552 
L 286.235251 239.1552 
L 294.581126 216.3456 
L 302.927002 201.1392 
L 311.272877 185.9328 
L 319.618752 178.3296 
L 327.964627 193.536 
L 336.310502 223.9488 
L 344.656378 223.9488 
L 353.002253 261.9648 
L 361.348128 277.1712 
L 369.694003 292.3776 
L 378.039878 307.584 
L 386.385754 307.584 
L 394.731629 307.584 
" style="fill:none;stroke:#fa9ba4;stroke-linecap:square;stroke-width:2;"/>
   </g>
   <g id="line2d_2">
    <path clip-path="url(#pcf158758e4)" d="M 286.235251 239.1552 
L 294.581126 216.3456 
L 302.927002 201.1392 
L 311.272877 185.9328 
L 319.618752 178.3296 
L 327.964627 193.536 
L 336.310502 223.9488 
L 344.656378 223.9488 
L 353.002253 261.9648 
L 361.348128 277.1712 
L 369.694003 292.3776 
L 378.039878 307.584 
L 386.385754 307.584 
L 394.731629 307.584 
" style="fill:none;stroke:#dc3545;stroke-linecap:square;stroke-width:2;"/>
   </g>
  </g>
 </g>
 <defs>
  <clipPath id="pcf158758e4">
   <rect height="266.112" width="357.12" x="57.6" y="41.472"/>
  </clipPath>
 </defs>
</svg>
