<?xml version="1.0" encoding="utf-8" standalone="no"?>
<!DOCTYPE svg PUBLIC "-//W3C//DTD SVG 1.1//EN"
  "http://www.w3.org/Graphics/SVG/1.1/DTD/svg11.dtd">
<!-- Created with matplotlib (https://matplotlib.org/) -->
<svg height="345.6pt" version="1.1" viewBox="0 0 460.8 345.6" width="460.8pt" xmlns="http://www.w3.org/2000/svg" xmlns:xlink="http://www.w3.org/1999/xlink">
 <defs>
  <style type="text/css">
*{stroke-linecap:butt;stroke-linejoin:round;}
  </style>
 </defs>
 <g id="figure_1">
  <g id="patch_1">
   <path d="M 0 345.6 
L 460.8 345.6 
L 460.8 0 
L 0 0 
z
" style="fill:none;"/>
  </g>
  <g id="axes_1">
   <g id="patch_2">
    <path clip-path="url(#pffc1292467)" d="M 73.832727 307.584 
L 83.288685 307.584 
L 83.288685 307.584 
L 73.832727 307.584 
z
" style="fill:#fa9ba4;opacity:0.2;"/>
   </g>
   <g id="patch_3">
    <path clip-path="url(#pffc1292467)" d="M 84.339347 307.584 
L 93.795305 307.584 
L 93.795305 307.584 
L 84.339347 307.584 
z
" style="fill:#fa9ba4;opacity:0.2;"/>
   </g>
   <g id="patch_4">
    <path clip-path="url(#pffc1292467)" d="M 94.845966 307.584 
L 104.301924 307.584 
L 104.301924 307.584 
L 94.845966 307.584 
z
" style="fill:#fa9ba4;opacity:0.2;"/>
   </g>
   <g id="patch_5">
    <path clip-path="url(#pffc1292467)" d="M 105.352586 307.584 
L 114.808544 307.584 
L 114.808544 307.584 
L 105.352586 307.584 
z
" style="fill:#fa9ba4;opacity:0.2;"/>
   </g>
   <g id="patch_6">
    <path clip-path="url(#pffc1292467)" d="M 115.859206 307.584 
L 125.315163 307.584 
L 125.315163 307.584 
L 115.859206 307.584 
z
" style="fill:#fa9ba4;opacity:0.2;"/>
   </g>
   <g id="patch_7">
    <path clip-path="url(#pffc1292467)" d="M 126.365825 307.584 
L 135.821783 307.584 
L 135.821783 307.584 
L 126.365825 307.584 
z
" style="fill:#fa9ba4;opacity:0.2;"/>
   </g>
   <g id="patch_8">
    <path clip-path="url(#pffc1292467)" d="M 136.872445 307.584 
L 146.328402 307.584 
L 146.328402 307.584 
L 136.872445 307.584 
z
" style="fill:#fa9ba4;opacity:0.2;"/>
   </g>
   <g id="patch_9">
    <path clip-path="url(#pffc1292467)" d="M 147.379064 307.584 
L 156.835022 307.584 
L 156.835022 272.1024 
L 147.379064 272.1024 
z
" style="fill:#fa9ba4;opacity:0.2;"/>
   </g>
   <g id="patch_10">
    <path clip-path="url(#pffc1292467)" d="M 157.885684 307.584 
L 167.341642 307.584 
L 167.341642 289.8432 
L 157.885684 289.8432 
z
" style="fill:#fa9ba4;opacity:0.2;"/>
   </g>
   <g id="patch_11">
    <path clip-path="url(#pffc1292467)" d="M 168.392304 307.584 
L 177.848261 307.584 
L 177.848261 272.1024 
L 168.392304 272.1024 
z
" style="fill:#fa9ba4;opacity:0.2;"/>
   </g>
   <g id="patch_12">
    <path clip-path="url(#pffc1292467)" d="M 178.898923 307.584 
L 188.354881 307.584 
L 188.354881 272.1024 
L 178.898923 272.1024 
z
" style="fill:#fa9ba4;opacity:0.2;"/>
   </g>
   <g id="patch_13">
    <path clip-path="url(#pffc1292467)" d="M 189.405543 307.584 
L 198.8615 307.584 
L 198.8615 289.8432 
L 189.405543 289.8432 
z
" style="fill:#fa9ba4;opacity:0.2;"/>
   </g>
   <g id="patch_14">
    <path clip-path="url(#pffc1292467)" d="M 199.912162 307.584 
L 209.36812 307.584 
L 209.36812 289.8432 
L 199.912162 289.8432 
z
" style="fill:#fa9ba4;opacity:0.2;"/>
   </g>
   <g id="patch_15">
    <path clip-path="url(#pffc1292467)" d="M 210.418782 307.584 
L 219.87474 307.584 
L 219.87474 307.584 
L 210.418782 307.584 
z
" style="fill:#fa9ba4;opacity:0.2;"/>
   </g>
   <g id="patch_16">
    <path clip-path="url(#pffc1292467)" d="M 220.925402 307.584 
L 230.381359 307.584 
L 230.381359 289.8432 
L 220.925402 289.8432 
z
" style="fill:#fa9ba4;opacity:0.2;"/>
   </g>
   <g id="patch_17">
    <path clip-path="url(#pffc1292467)" d="M 231.432021 307.584 
L 240.887979 307.584 
L 240.887979 307.584 
L 231.432021 307.584 
z
" style="fill:#fa9ba4;opacity:0.2;"/>
   </g>
   <g id="patch_18">
    <path clip-path="url(#pffc1292467)" d="M 241.938641 307.584 
L 251.394598 307.584 
L 251.394598 236.6208 
L 241.938641 236.6208 
z
" style="fill:#fa9ba4;opacity:0.2;"/>
   </g>
   <g id="patch_19">
    <path clip-path="url(#pffc1292467)" d="M 252.44526 307.584 
L 261.901218 307.584 
L 261.901218 272.1024 
L 252.44526 272.1024 
z
" style="fill:#fa9ba4;opacity:0.2;"/>
   </g>
   <g id="patch_20">
    <path clip-path="url(#pffc1292467)" d="M 262.95188 307.584 
L 272.407838 307.584 
L 272.407838 254.3616 
L 262.95188 254.3616 
z
" style="fill:#fa9ba4;opacity:0.2;"/>
   </g>
   <g id="patch_21">
    <path clip-path="url(#pffc1292467)" d="M 273.4585 307.584 
L 282.914457 307.584 
L 282.914457 147.9168 
L 273.4585 147.9168 
z
" style="fill:#fa9ba4;opacity:0.2;"/>
   </g>
   <g id="patch_22">
    <path clip-path="url(#pffc1292467)" d="M 283.965119 307.584 
L 293.421077 307.584 
L 293.421077 76.9536 
L 283.965119 76.9536 
z
" style="fill:#fa9ba4;opacity:0.2;"/>
   </g>
   <g id="patch_23">
    <path clip-path="url(#pffc1292467)" d="M 294.471739 307.584 
L 303.927696 307.584 
L 303.927696 201.1392 
L 294.471739 201.1392 
z
" style="fill:#fa9ba4;opacity:0.2;"/>
   </g>
   <g id="patch_24">
    <path clip-path="url(#pffc1292467)" d="M 304.978358 307.584 
L 314.434316 307.584 
L 314.434316 307.584 
L 304.978358 307.584 
z
" style="fill:#fa9ba4;opacity:0.2;"/>
   </g>
   <g id="patch_25">
    <path clip-path="url(#pffc1292467)" d="M 315.484978 307.584 
L 324.940936 307.584 
L 324.940936 289.8432 
L 315.484978 289.8432 
z
" style="fill:#fa9ba4;opacity:0.2;"/>
   </g>
   <g id="patch_26">
    <path clip-path="url(#pffc1292467)" d="M 325.991598 307.584 
L 335.447555 307.584 
L 335.447555 307.584 
L 325.991598 307.584 
z
" style="fill:#fa9ba4;opacity:0.2;"/>
   </g>
   <g id="patch_27">
    <path clip-path="url(#pffc1292467)" d="M 336.498217 307.584 
L 345.954175 307.584 
L 345.954175 289.8432 
L 336.498217 289.8432 
z
" style="fill:#fa9ba4;opacity:0.2;"/>
   </g>
   <g id="patch_28">
    <path clip-path="url(#pffc1292467)" d="M 347.004837 307.584 
L 356.460794 307.584 
L 356.460794 183.3984 
L 347.004837 183.3984 
z
" style="fill:#fa9ba4;opacity:0.2;"/>
   </g>
   <g id="patch_29">
    <path clip-path="url(#pffc1292467)" d="M 357.511456 307.584 
L 366.967414 307.584 
L 366.967414 289.8432 
L 357.511456 289.8432 
z
" style="fill:#fa9ba4;opacity:0.2;"/>
   </g>
   <g id="patch_30">
    <path clip-path="url(#pffc1292467)" d="M 368.018076 307.584 
L 377.474034 307.584 
L 377.474034 218.88 
L 368.018076 218.88 
z
" style="fill:#fa9ba4;opacity:0.2;"/>
   </g>
   <g id="patch_31">
    <path clip-path="url(#pffc1292467)" d="M 378.524695 307.584 
L 387.980653 307.584 
L 387.980653 41.472 
L 378.524695 41.472 
z
" style="fill:#fa9ba4;opacity:0.2;"/>
   </g>
   <g id="patch_32">
    <path clip-path="url(#pffc1292467)" d="M 389.031315 307.584 
L 398.487273 307.584 
L 398.487273 289.8432 
L 389.031315 289.8432 
z
" style="fill:#fa9ba4;opacity:0.2;"/>
   </g>
   <g id="matplotlib.axis_1"/>
   <g id="matplotlib.axis_2"/>
   <g id="PolyCollection_1">
    <defs>
     <path d="M 257.173239 -60.8256 
L 257.173239 -38.016 
L 267.679859 -38.016 
L 278.186478 -38.016 
L 288.693098 -38.016 
L 299.199718 -38.016 
L 309.706337 -38.016 
L 320.212957 -38.016 
L 330.719576 -38.016 
L 341.226196 -38.016 
L 351.732816 -38.016 
L 362.239435 -38.016 
L 372.746055 -38.016 
L 383.252674 -38.016 
L 393.759294 -38.016 
L 393.759294 -114.048 
L 393.759294 -114.048 
L 383.252674 -114.048 
L 372.746055 -76.032 
L 362.239435 -78.5664 
L 351.732816 -108.9792 
L 341.226196 -114.048 
L 330.719576 -119.1168 
L 320.212957 -124.1856 
L 309.706337 -131.7888 
L 299.199718 -131.7888 
L 288.693098 -119.1168 
L 278.186478 -86.1696 
L 267.679859 -65.8944 
L 257.173239 -60.8256 
z
" id="m665381b106" style="stroke:#dc3545;stroke-opacity:0.5;"/>
    </defs>
    <g clip-path="url(#pffc1292467)">
     <use style="fill:#dc3545;fill-opacity:0.5;stroke:#dc3545;stroke-opacity:0.5;" x="0" xlink:href="#m665381b106" y="345.6"/>
    </g>
   </g>
   <g id="PolyCollection_2">
    <defs>
     <path d="M 141.600424 -38.016 
L 141.600424 -38.016 
L 152.107043 -38.016 
L 162.613663 -38.016 
L 173.120282 -38.016 
L 183.626902 -38.016 
L 194.133522 -38.016 
L 204.640141 -38.016 
L 215.146761 -38.016 
L 225.65338 -38.016 
L 236.16 -38.016 
L 246.66662 -38.016 
L 257.173239 -38.016 
L 257.173239 -60.8256 
L 257.173239 -60.8256 
L 246.66662 -60.8256 
L 236.16 -55.7568 
L 225.65338 -58.2912 
L 215.146761 -60.8256 
L 204.640141 -60.8256 
L 194.133522 -58.2912 
L 183.626902 -55.7568 
L 173.120282 -50.688 
L 162.613663 -45.6192 
L 152.107043 -43.0848 
L 141.600424 -38.016 
z
" id="mb1d840a32c" style="stroke:#fa9ba4;stroke-opacity:0.3;"/>
    </defs>
    <g clip-path="url(#pffc1292467)">
     <use style="fill:#fa9ba4;fill-opacity:0.3;stroke:#fa9ba4;stroke-opacity:0.3;" x="0" xlink:href="#mb1d840a32c" y="345.6"/>
    </g>
   </g>
   <g id="line2d_1">
    <path clip-path="url(#pffc1292467)" d="M 141.600424 307.584 
L 152.107043 302.5152 
L 162.613663 299.9808 
L 173.120282 294.912 
L 183.626902 289.8432 
L 194.133522 287.3088 
L 204.640141 284.7744 
L 215.146761 284.7744 
L 225.65338 287.3088 
L 236.16 289.8432 
L 246.66662 284.7744 
L 257.173239 284.7744 
L 267.679859 279.7056 
L 278.186478 259.4304 
L 288.693098 226.4832 
L 299.199718 213.8112 
L 309.706337 213.8112 
L 320.212957 221.4144 
L 330.719576 226.4832 
L 341.226196 231.552 
L 351.732816 236.6208 
L 362.239435 267.0336 
L 372.746055 269.568 
L 383.252674 231.552 
L 393.759294 231.552 
" style="fill:none;stroke:#fa9ba4;stroke-linecap:square;stroke-width:2;"/>
   </g>
   <g id="line2d_2">
    <path clip-path="url(#pffc1292467)" d="M 257.173239 284.7744 
L 267.679859 279.7056 
L 278.186478 259.4304 
L 288.693098 226.4832 
L 299.199718 213.8112 
L 309.706337 213.8112 
L 320.212957 221.4144 
L 330.719576 226.4832 
L 341.226196 231.552 
L 351.732816 236.6208 
L 362.239435 267.0336 
L 372.746055 269.568 
L 383.252674 231.552 
L 393.759294 231.552 
" style="fill:none;stroke:#dc3545;stroke-linecap:square;stroke-width:2;"/>
   </g>
  </g>
 </g>
 <defs>
  <clipPath id="pffc1292467">
   <rect height="266.112" width="357.12" x="57.6" y="41.472"/>
  </clipPath>
 </defs>
</svg>
