<?xml version="1.0" encoding="utf-8" standalone="no"?>
<!DOCTYPE svg PUBLIC "-//W3C//DTD SVG 1.1//EN"
  "http://www.w3.org/Graphics/SVG/1.1/DTD/svg11.dtd">
<!-- Created with matplotlib (https://matplotlib.org/) -->
<svg height="345.6pt" version="1.1" viewBox="0 0 460.8 345.6" width="460.8pt" xmlns="http://www.w3.org/2000/svg" xmlns:xlink="http://www.w3.org/1999/xlink">
 <defs>
  <style type="text/css">
*{stroke-linecap:butt;stroke-linejoin:round;}
  </style>
 </defs>
 <g id="figure_1">
  <g id="patch_1">
   <path d="M 0 345.6 
L 460.8 345.6 
L 460.8 0 
L 0 0 
z
" style="fill:none;"/>
  </g>
  <g id="axes_1">
   <g id="patch_2">
    <path clip-path="url(#p55b829b406)" d="M 73.832727 307.584 
L 76.014871 307.584 
L 76.014871 307.584 
L 73.832727 307.584 
z
" style="fill:#fa9ba4;opacity:0.2;"/>
   </g>
   <g id="patch_3">
    <path clip-path="url(#p55b829b406)" d="M 76.257332 307.584 
L 78.439476 307.584 
L 78.439476 307.584 
L 76.257332 307.584 
z
" style="fill:#fa9ba4;opacity:0.2;"/>
   </g>
   <g id="patch_4">
    <path clip-path="url(#p55b829b406)" d="M 78.681936 307.584 
L 80.86408 307.584 
L 80.86408 307.584 
L 78.681936 307.584 
z
" style="fill:#fa9ba4;opacity:0.2;"/>
   </g>
   <g id="patch_5">
    <path clip-path="url(#p55b829b406)" d="M 81.106541 307.584 
L 83.288685 307.584 
L 83.288685 307.584 
L 81.106541 307.584 
z
" style="fill:#fa9ba4;opacity:0.2;"/>
   </g>
   <g id="patch_6">
    <path clip-path="url(#p55b829b406)" d="M 83.531145 307.584 
L 85.713289 307.584 
L 85.713289 307.584 
L 83.531145 307.584 
z
" style="fill:#fa9ba4;opacity:0.2;"/>
   </g>
   <g id="patch_7">
    <path clip-path="url(#p55b829b406)" d="M 85.95575 307.584 
L 88.137894 307.584 
L 88.137894 307.584 
L 85.95575 307.584 
z
" style="fill:#fa9ba4;opacity:0.2;"/>
   </g>
   <g id="patch_8">
    <path clip-path="url(#p55b829b406)" d="M 88.380354 307.584 
L 90.562498 307.584 
L 90.562498 307.584 
L 88.380354 307.584 
z
" style="fill:#fa9ba4;opacity:0.2;"/>
   </g>
   <g id="patch_9">
    <path clip-path="url(#p55b829b406)" d="M 90.804959 307.584 
L 92.987103 307.584 
L 92.987103 301.093463 
L 90.804959 301.093463 
z
" style="fill:#fa9ba4;opacity:0.2;"/>
   </g>
   <g id="patch_10">
    <path clip-path="url(#p55b829b406)" d="M 93.229563 307.584 
L 95.411708 307.584 
L 95.411708 304.338732 
L 93.229563 304.338732 
z
" style="fill:#fa9ba4;opacity:0.2;"/>
   </g>
   <g id="patch_11">
    <path clip-path="url(#p55b829b406)" d="M 95.654168 307.584 
L 97.836312 307.584 
L 97.836312 301.093463 
L 95.654168 301.093463 
z
" style="fill:#fa9ba4;opacity:0.2;"/>
   </g>
   <g id="patch_12">
    <path clip-path="url(#p55b829b406)" d="M 98.078772 307.584 
L 100.260917 307.584 
L 100.260917 301.093463 
L 98.078772 301.093463 
z
" style="fill:#fa9ba4;opacity:0.2;"/>
   </g>
   <g id="patch_13">
    <path clip-path="url(#p55b829b406)" d="M 100.503377 307.584 
L 102.685521 307.584 
L 102.685521 304.338732 
L 100.503377 304.338732 
z
" style="fill:#fa9ba4;opacity:0.2;"/>
   </g>
   <g id="patch_14">
    <path clip-path="url(#p55b829b406)" d="M 102.927982 307.584 
L 105.110126 307.584 
L 105.110126 304.338732 
L 102.927982 304.338732 
z
" style="fill:#fa9ba4;opacity:0.2;"/>
   </g>
   <g id="patch_15">
    <path clip-path="url(#p55b829b406)" d="M 105.352586 307.584 
L 107.53473 307.584 
L 107.53473 301.093463 
L 105.352586 301.093463 
z
" style="fill:#fa9ba4;opacity:0.2;"/>
   </g>
   <g id="patch_16">
    <path clip-path="url(#p55b829b406)" d="M 107.777191 307.584 
L 109.959335 307.584 
L 109.959335 304.338732 
L 107.777191 304.338732 
z
" style="fill:#fa9ba4;opacity:0.2;"/>
   </g>
   <g id="patch_17">
    <path clip-path="url(#p55b829b406)" d="M 110.201795 307.584 
L 112.383939 307.584 
L 112.383939 307.584 
L 110.201795 307.584 
z
" style="fill:#fa9ba4;opacity:0.2;"/>
   </g>
   <g id="patch_18">
    <path clip-path="url(#p55b829b406)" d="M 112.6264 307.584 
L 114.808544 307.584 
L 114.808544 304.338732 
L 112.6264 304.338732 
z
" style="fill:#fa9ba4;opacity:0.2;"/>
   </g>
   <g id="patch_19">
    <path clip-path="url(#p55b829b406)" d="M 115.051004 307.584 
L 117.233148 307.584 
L 117.233148 301.093463 
L 115.051004 301.093463 
z
" style="fill:#fa9ba4;opacity:0.2;"/>
   </g>
   <g id="patch_20">
    <path clip-path="url(#p55b829b406)" d="M 117.475609 307.584 
L 119.657753 307.584 
L 119.657753 297.848195 
L 117.475609 297.848195 
z
" style="fill:#fa9ba4;opacity:0.2;"/>
   </g>
   <g id="patch_21">
    <path clip-path="url(#p55b829b406)" d="M 119.900213 307.584 
L 122.082357 307.584 
L 122.082357 307.584 
L 119.900213 307.584 
z
" style="fill:#fa9ba4;opacity:0.2;"/>
   </g>
   <g id="patch_22">
    <path clip-path="url(#p55b829b406)" d="M 122.324818 307.584 
L 124.506962 307.584 
L 124.506962 278.376585 
L 122.324818 278.376585 
z
" style="fill:#fa9ba4;opacity:0.2;"/>
   </g>
   <g id="patch_23">
    <path clip-path="url(#p55b829b406)" d="M 124.749422 307.584 
L 126.931566 307.584 
L 126.931566 307.584 
L 124.749422 307.584 
z
" style="fill:#fa9ba4;opacity:0.2;"/>
   </g>
   <g id="patch_24">
    <path clip-path="url(#p55b829b406)" d="M 127.174027 307.584 
L 129.356171 307.584 
L 129.356171 294.602927 
L 127.174027 294.602927 
z
" style="fill:#fa9ba4;opacity:0.2;"/>
   </g>
   <g id="patch_25">
    <path clip-path="url(#p55b829b406)" d="M 129.598631 307.584 
L 131.780775 307.584 
L 131.780775 288.11239 
L 129.598631 288.11239 
z
" style="fill:#fa9ba4;opacity:0.2;"/>
   </g>
   <g id="patch_26">
    <path clip-path="url(#p55b829b406)" d="M 132.023236 307.584 
L 134.20538 307.584 
L 134.20538 304.338732 
L 132.023236 304.338732 
z
" style="fill:#fa9ba4;opacity:0.2;"/>
   </g>
   <g id="patch_27">
    <path clip-path="url(#p55b829b406)" d="M 134.44784 307.584 
L 136.629984 307.584 
L 136.629984 304.338732 
L 134.44784 304.338732 
z
" style="fill:#fa9ba4;opacity:0.2;"/>
   </g>
   <g id="patch_28">
    <path clip-path="url(#p55b829b406)" d="M 136.872445 307.584 
L 139.054589 307.584 
L 139.054589 284.867122 
L 136.872445 284.867122 
z
" style="fill:#fa9ba4;opacity:0.2;"/>
   </g>
   <g id="patch_29">
    <path clip-path="url(#p55b829b406)" d="M 139.297049 307.584 
L 141.479193 307.584 
L 141.479193 304.338732 
L 139.297049 304.338732 
z
" style="fill:#fa9ba4;opacity:0.2;"/>
   </g>
   <g id="patch_30">
    <path clip-path="url(#p55b829b406)" d="M 141.721654 307.584 
L 143.903798 307.584 
L 143.903798 291.357659 
L 141.721654 291.357659 
z
" style="fill:#fa9ba4;opacity:0.2;"/>
   </g>
   <g id="patch_31">
    <path clip-path="url(#p55b829b406)" d="M 144.146258 307.584 
L 146.328402 307.584 
L 146.328402 258.904976 
L 144.146258 258.904976 
z
" style="fill:#fa9ba4;opacity:0.2;"/>
   </g>
   <g id="patch_32">
    <path clip-path="url(#p55b829b406)" d="M 146.570863 307.584 
L 148.753007 307.584 
L 148.753007 304.338732 
L 146.570863 304.338732 
z
" style="fill:#fa9ba4;opacity:0.2;"/>
   </g>
   <g id="patch_33">
    <path clip-path="url(#p55b829b406)" d="M 148.995467 307.584 
L 151.177612 307.584 
L 151.177612 301.093463 
L 148.995467 301.093463 
z
" style="fill:#fa9ba4;opacity:0.2;"/>
   </g>
   <g id="patch_34">
    <path clip-path="url(#p55b829b406)" d="M 151.420072 307.584 
L 153.602216 307.584 
L 153.602216 294.602927 
L 151.420072 294.602927 
z
" style="fill:#fa9ba4;opacity:0.2;"/>
   </g>
   <g id="patch_35">
    <path clip-path="url(#p55b829b406)" d="M 153.844676 307.584 
L 156.026821 307.584 
L 156.026821 307.584 
L 153.844676 307.584 
z
" style="fill:#fa9ba4;opacity:0.2;"/>
   </g>
   <g id="patch_36">
    <path clip-path="url(#p55b829b406)" d="M 156.269281 307.584 
L 158.451425 307.584 
L 158.451425 304.338732 
L 156.269281 304.338732 
z
" style="fill:#fa9ba4;opacity:0.2;"/>
   </g>
   <g id="patch_37">
    <path clip-path="url(#p55b829b406)" d="M 158.693886 307.584 
L 160.87603 307.584 
L 160.87603 307.584 
L 158.693886 307.584 
z
" style="fill:#fa9ba4;opacity:0.2;"/>
   </g>
   <g id="patch_38">
    <path clip-path="url(#p55b829b406)" d="M 161.11849 307.584 
L 163.300634 307.584 
L 163.300634 304.338732 
L 161.11849 304.338732 
z
" style="fill:#fa9ba4;opacity:0.2;"/>
   </g>
   <g id="patch_39">
    <path clip-path="url(#p55b829b406)" d="M 163.543095 307.584 
L 165.725239 307.584 
L 165.725239 294.602927 
L 163.543095 294.602927 
z
" style="fill:#fa9ba4;opacity:0.2;"/>
   </g>
   <g id="patch_40">
    <path clip-path="url(#p55b829b406)" d="M 165.967699 307.584 
L 168.149843 307.584 
L 168.149843 288.11239 
L 165.967699 288.11239 
z
" style="fill:#fa9ba4;opacity:0.2;"/>
   </g>
   <g id="patch_41">
    <path clip-path="url(#p55b829b406)" d="M 168.392304 307.584 
L 170.574448 307.584 
L 170.574448 307.584 
L 168.392304 307.584 
z
" style="fill:#fa9ba4;opacity:0.2;"/>
   </g>
   <g id="patch_42">
    <path clip-path="url(#p55b829b406)" d="M 170.816908 307.584 
L 172.999052 307.584 
L 172.999052 307.584 
L 170.816908 307.584 
z
" style="fill:#fa9ba4;opacity:0.2;"/>
   </g>
   <g id="patch_43">
    <path clip-path="url(#p55b829b406)" d="M 173.241513 307.584 
L 175.423657 307.584 
L 175.423657 307.584 
L 173.241513 307.584 
z
" style="fill:#fa9ba4;opacity:0.2;"/>
   </g>
   <g id="patch_44">
    <path clip-path="url(#p55b829b406)" d="M 175.666117 307.584 
L 177.848261 307.584 
L 177.848261 301.093463 
L 175.666117 301.093463 
z
" style="fill:#fa9ba4;opacity:0.2;"/>
   </g>
   <g id="patch_45">
    <path clip-path="url(#p55b829b406)" d="M 178.090722 307.584 
L 180.272866 307.584 
L 180.272866 304.338732 
L 178.090722 304.338732 
z
" style="fill:#fa9ba4;opacity:0.2;"/>
   </g>
   <g id="patch_46">
    <path clip-path="url(#p55b829b406)" d="M 180.515326 307.584 
L 182.69747 307.584 
L 182.69747 307.584 
L 180.515326 307.584 
z
" style="fill:#fa9ba4;opacity:0.2;"/>
   </g>
   <g id="patch_47">
    <path clip-path="url(#p55b829b406)" d="M 182.939931 307.584 
L 185.122075 307.584 
L 185.122075 307.584 
L 182.939931 307.584 
z
" style="fill:#fa9ba4;opacity:0.2;"/>
   </g>
   <g id="patch_48">
    <path clip-path="url(#p55b829b406)" d="M 185.364535 307.584 
L 187.546679 307.584 
L 187.546679 307.584 
L 185.364535 307.584 
z
" style="fill:#fa9ba4;opacity:0.2;"/>
   </g>
   <g id="patch_49">
    <path clip-path="url(#p55b829b406)" d="M 187.78914 307.584 
L 189.971284 307.584 
L 189.971284 304.338732 
L 187.78914 304.338732 
z
" style="fill:#fa9ba4;opacity:0.2;"/>
   </g>
   <g id="patch_50">
    <path clip-path="url(#p55b829b406)" d="M 190.213744 307.584 
L 192.395888 307.584 
L 192.395888 307.584 
L 190.213744 307.584 
z
" style="fill:#fa9ba4;opacity:0.2;"/>
   </g>
   <g id="patch_51">
    <path clip-path="url(#p55b829b406)" d="M 192.638349 307.584 
L 194.820493 307.584 
L 194.820493 307.584 
L 192.638349 307.584 
z
" style="fill:#fa9ba4;opacity:0.2;"/>
   </g>
   <g id="patch_52">
    <path clip-path="url(#p55b829b406)" d="M 195.062953 307.584 
L 197.245097 307.584 
L 197.245097 307.584 
L 195.062953 307.584 
z
" style="fill:#fa9ba4;opacity:0.2;"/>
   </g>
   <g id="patch_53">
    <path clip-path="url(#p55b829b406)" d="M 197.487558 307.584 
L 199.669702 307.584 
L 199.669702 307.584 
L 197.487558 307.584 
z
" style="fill:#fa9ba4;opacity:0.2;"/>
   </g>
   <g id="patch_54">
    <path clip-path="url(#p55b829b406)" d="M 199.912162 307.584 
L 202.094306 307.584 
L 202.094306 307.584 
L 199.912162 307.584 
z
" style="fill:#fa9ba4;opacity:0.2;"/>
   </g>
   <g id="patch_55">
    <path clip-path="url(#p55b829b406)" d="M 202.336767 307.584 
L 204.518911 307.584 
L 204.518911 307.584 
L 202.336767 307.584 
z
" style="fill:#fa9ba4;opacity:0.2;"/>
   </g>
   <g id="patch_56">
    <path clip-path="url(#p55b829b406)" d="M 204.761371 307.584 
L 206.943516 307.584 
L 206.943516 307.584 
L 204.761371 307.584 
z
" style="fill:#fa9ba4;opacity:0.2;"/>
   </g>
   <g id="patch_57">
    <path clip-path="url(#p55b829b406)" d="M 207.185976 307.584 
L 209.36812 307.584 
L 209.36812 294.602927 
L 207.185976 294.602927 
z
" style="fill:#fa9ba4;opacity:0.2;"/>
   </g>
   <g id="patch_58">
    <path clip-path="url(#p55b829b406)" d="M 209.61058 307.584 
L 211.792725 307.584 
L 211.792725 307.584 
L 209.61058 307.584 
z
" style="fill:#fa9ba4;opacity:0.2;"/>
   </g>
   <g id="patch_59">
    <path clip-path="url(#p55b829b406)" d="M 212.035185 307.584 
L 214.217329 307.584 
L 214.217329 304.338732 
L 212.035185 304.338732 
z
" style="fill:#fa9ba4;opacity:0.2;"/>
   </g>
   <g id="patch_60">
    <path clip-path="url(#p55b829b406)" d="M 214.45979 307.584 
L 216.641934 307.584 
L 216.641934 307.584 
L 214.45979 307.584 
z
" style="fill:#fa9ba4;opacity:0.2;"/>
   </g>
   <g id="patch_61">
    <path clip-path="url(#p55b829b406)" d="M 216.884394 307.584 
L 219.066538 307.584 
L 219.066538 125.848976 
L 216.884394 125.848976 
z
" style="fill:#fa9ba4;opacity:0.2;"/>
   </g>
   <g id="patch_62">
    <path clip-path="url(#p55b829b406)" d="M 219.308999 307.584 
L 221.491143 307.584 
L 221.491143 304.338732 
L 219.308999 304.338732 
z
" style="fill:#fa9ba4;opacity:0.2;"/>
   </g>
   <g id="patch_63">
    <path clip-path="url(#p55b829b406)" d="M 221.733603 307.584 
L 223.915747 307.584 
L 223.915747 99.886829 
L 221.733603 99.886829 
z
" style="fill:#fa9ba4;opacity:0.2;"/>
   </g>
   <g id="patch_64">
    <path clip-path="url(#p55b829b406)" d="M 224.158208 307.584 
L 226.340352 307.584 
L 226.340352 145.320585 
L 224.158208 145.320585 
z
" style="fill:#fa9ba4;opacity:0.2;"/>
   </g>
   <g id="patch_65">
    <path clip-path="url(#p55b829b406)" d="M 226.582812 307.584 
L 228.764956 307.584 
L 228.764956 151.811122 
L 226.582812 151.811122 
z
" style="fill:#fa9ba4;opacity:0.2;"/>
   </g>
   <g id="patch_66">
    <path clip-path="url(#p55b829b406)" d="M 229.007417 307.584 
L 231.189561 307.584 
L 231.189561 41.472 
L 229.007417 41.472 
z
" style="fill:#fa9ba4;opacity:0.2;"/>
   </g>
   <g id="patch_67">
    <path clip-path="url(#p55b829b406)" d="M 231.432021 307.584 
L 233.614165 307.584 
L 233.614165 158.301659 
L 231.432021 158.301659 
z
" style="fill:#fa9ba4;opacity:0.2;"/>
   </g>
   <g id="patch_68">
    <path clip-path="url(#p55b829b406)" d="M 233.856626 307.584 
L 236.03877 307.584 
L 236.03877 239.433366 
L 233.856626 239.433366 
z
" style="fill:#fa9ba4;opacity:0.2;"/>
   </g>
   <g id="patch_69">
    <path clip-path="url(#p55b829b406)" d="M 236.28123 307.584 
L 238.463374 307.584 
L 238.463374 226.452293 
L 236.28123 226.452293 
z
" style="fill:#fa9ba4;opacity:0.2;"/>
   </g>
   <g id="patch_70">
    <path clip-path="url(#p55b829b406)" d="M 238.705835 307.584 
L 240.887979 307.584 
L 240.887979 252.414439 
L 238.705835 252.414439 
z
" style="fill:#fa9ba4;opacity:0.2;"/>
   </g>
   <g id="patch_71">
    <path clip-path="url(#p55b829b406)" d="M 241.130439 307.584 
L 243.312583 307.584 
L 243.312583 249.169171 
L 241.130439 249.169171 
z
" style="fill:#fa9ba4;opacity:0.2;"/>
   </g>
   <g id="patch_72">
    <path clip-path="url(#p55b829b406)" d="M 243.555044 307.584 
L 245.737188 307.584 
L 245.737188 216.716488 
L 243.555044 216.716488 
z
" style="fill:#fa9ba4;opacity:0.2;"/>
   </g>
   <g id="patch_73">
    <path clip-path="url(#p55b829b406)" d="M 245.979648 307.584 
L 248.161792 307.584 
L 248.161792 284.867122 
L 245.979648 284.867122 
z
" style="fill:#fa9ba4;opacity:0.2;"/>
   </g>
   <g id="patch_74">
    <path clip-path="url(#p55b829b406)" d="M 248.404253 307.584 
L 250.586397 307.584 
L 250.586397 249.169171 
L 248.404253 249.169171 
z
" style="fill:#fa9ba4;opacity:0.2;"/>
   </g>
   <g id="patch_75">
    <path clip-path="url(#p55b829b406)" d="M 250.828857 307.584 
L 253.011001 307.584 
L 253.011001 307.584 
L 250.828857 307.584 
z
" style="fill:#fa9ba4;opacity:0.2;"/>
   </g>
   <g id="patch_76">
    <path clip-path="url(#p55b829b406)" d="M 253.253462 307.584 
L 255.435606 307.584 
L 255.435606 262.150244 
L 253.253462 262.150244 
z
" style="fill:#fa9ba4;opacity:0.2;"/>
   </g>
   <g id="patch_77">
    <path clip-path="url(#p55b829b406)" d="M 255.678066 307.584 
L 257.86021 307.584 
L 257.86021 271.886049 
L 255.678066 271.886049 
z
" style="fill:#fa9ba4;opacity:0.2;"/>
   </g>
   <g id="patch_78">
    <path clip-path="url(#p55b829b406)" d="M 258.102671 307.584 
L 260.284815 307.584 
L 260.284815 193.99961 
L 258.102671 193.99961 
z
" style="fill:#fa9ba4;opacity:0.2;"/>
   </g>
   <g id="patch_79">
    <path clip-path="url(#p55b829b406)" d="M 260.527275 307.584 
L 262.70942 307.584 
L 262.70942 281.621854 
L 260.527275 281.621854 
z
" style="fill:#fa9ba4;opacity:0.2;"/>
   </g>
   <g id="patch_80">
    <path clip-path="url(#p55b829b406)" d="M 262.95188 307.584 
L 265.134024 307.584 
L 265.134024 281.621854 
L 262.95188 281.621854 
z
" style="fill:#fa9ba4;opacity:0.2;"/>
   </g>
   <g id="patch_81">
    <path clip-path="url(#p55b829b406)" d="M 265.376484 307.584 
L 267.558629 307.584 
L 267.558629 304.338732 
L 265.376484 304.338732 
z
" style="fill:#fa9ba4;opacity:0.2;"/>
   </g>
   <g id="patch_82">
    <path clip-path="url(#p55b829b406)" d="M 267.801089 307.584 
L 269.983233 307.584 
L 269.983233 281.621854 
L 267.801089 281.621854 
z
" style="fill:#fa9ba4;opacity:0.2;"/>
   </g>
   <g id="patch_83">
    <path clip-path="url(#p55b829b406)" d="M 270.225694 307.584 
L 272.407838 307.584 
L 272.407838 294.602927 
L 270.225694 294.602927 
z
" style="fill:#fa9ba4;opacity:0.2;"/>
   </g>
   <g id="patch_84">
    <path clip-path="url(#p55b829b406)" d="M 272.650298 307.584 
L 274.832442 307.584 
L 274.832442 297.848195 
L 272.650298 297.848195 
z
" style="fill:#fa9ba4;opacity:0.2;"/>
   </g>
   <g id="patch_85">
    <path clip-path="url(#p55b829b406)" d="M 275.074903 307.584 
L 277.257047 307.584 
L 277.257047 301.093463 
L 275.074903 301.093463 
z
" style="fill:#fa9ba4;opacity:0.2;"/>
   </g>
   <g id="patch_86">
    <path clip-path="url(#p55b829b406)" d="M 277.499507 307.584 
L 279.681651 307.584 
L 279.681651 297.848195 
L 277.499507 297.848195 
z
" style="fill:#fa9ba4;opacity:0.2;"/>
   </g>
   <g id="patch_87">
    <path clip-path="url(#p55b829b406)" d="M 279.924112 307.584 
L 282.106256 307.584 
L 282.106256 281.621854 
L 279.924112 281.621854 
z
" style="fill:#fa9ba4;opacity:0.2;"/>
   </g>
   <g id="patch_88">
    <path clip-path="url(#p55b829b406)" d="M 282.348716 307.584 
L 284.53086 307.584 
L 284.53086 307.584 
L 282.348716 307.584 
z
" style="fill:#fa9ba4;opacity:0.2;"/>
   </g>
   <g id="patch_89">
    <path clip-path="url(#p55b829b406)" d="M 284.773321 307.584 
L 286.955465 307.584 
L 286.955465 242.678634 
L 284.773321 242.678634 
z
" style="fill:#fa9ba4;opacity:0.2;"/>
   </g>
   <g id="patch_90">
    <path clip-path="url(#p55b829b406)" d="M 287.197925 307.584 
L 289.380069 307.584 
L 289.380069 288.11239 
L 287.197925 288.11239 
z
" style="fill:#fa9ba4;opacity:0.2;"/>
   </g>
   <g id="patch_91">
    <path clip-path="url(#p55b829b406)" d="M 289.62253 307.584 
L 291.804674 307.584 
L 291.804674 268.64078 
L 289.62253 268.64078 
z
" style="fill:#fa9ba4;opacity:0.2;"/>
   </g>
   <g id="patch_92">
    <path clip-path="url(#p55b829b406)" d="M 292.047134 307.584 
L 294.229278 307.584 
L 294.229278 304.338732 
L 292.047134 304.338732 
z
" style="fill:#fa9ba4;opacity:0.2;"/>
   </g>
   <g id="patch_93">
    <path clip-path="url(#p55b829b406)" d="M 294.471739 307.584 
L 296.653883 307.584 
L 296.653883 294.602927 
L 294.471739 294.602927 
z
" style="fill:#fa9ba4;opacity:0.2;"/>
   </g>
   <g id="patch_94">
    <path clip-path="url(#p55b829b406)" d="M 296.896343 307.584 
L 299.078487 307.584 
L 299.078487 304.338732 
L 296.896343 304.338732 
z
" style="fill:#fa9ba4;opacity:0.2;"/>
   </g>
   <g id="patch_95">
    <path clip-path="url(#p55b829b406)" d="M 299.320948 307.584 
L 301.503092 307.584 
L 301.503092 301.093463 
L 299.320948 301.093463 
z
" style="fill:#fa9ba4;opacity:0.2;"/>
   </g>
   <g id="patch_96">
    <path clip-path="url(#p55b829b406)" d="M 301.745552 307.584 
L 303.927696 307.584 
L 303.927696 291.357659 
L 301.745552 291.357659 
z
" style="fill:#fa9ba4;opacity:0.2;"/>
   </g>
   <g id="patch_97">
    <path clip-path="url(#p55b829b406)" d="M 304.170157 307.584 
L 306.352301 307.584 
L 306.352301 278.376585 
L 304.170157 278.376585 
z
" style="fill:#fa9ba4;opacity:0.2;"/>
   </g>
   <g id="patch_98">
    <path clip-path="url(#p55b829b406)" d="M 306.594761 307.584 
L 308.776905 307.584 
L 308.776905 265.395512 
L 306.594761 265.395512 
z
" style="fill:#fa9ba4;opacity:0.2;"/>
   </g>
   <g id="patch_99">
    <path clip-path="url(#p55b829b406)" d="M 309.019366 307.584 
L 311.20151 307.584 
L 311.20151 288.11239 
L 309.019366 288.11239 
z
" style="fill:#fa9ba4;opacity:0.2;"/>
   </g>
   <g id="patch_100">
    <path clip-path="url(#p55b829b406)" d="M 311.44397 307.584 
L 313.626114 307.584 
L 313.626114 304.338732 
L 311.44397 304.338732 
z
" style="fill:#fa9ba4;opacity:0.2;"/>
   </g>
   <g id="patch_101">
    <path clip-path="url(#p55b829b406)" d="M 313.868575 307.584 
L 316.050719 307.584 
L 316.050719 297.848195 
L 313.868575 297.848195 
z
" style="fill:#fa9ba4;opacity:0.2;"/>
   </g>
   <g id="patch_102">
    <path clip-path="url(#p55b829b406)" d="M 316.293179 307.584 
L 318.475324 307.584 
L 318.475324 304.338732 
L 316.293179 304.338732 
z
" style="fill:#fa9ba4;opacity:0.2;"/>
   </g>
   <g id="patch_103">
    <path clip-path="url(#p55b829b406)" d="M 318.717784 307.584 
L 320.899928 307.584 
L 320.899928 304.338732 
L 318.717784 304.338732 
z
" style="fill:#fa9ba4;opacity:0.2;"/>
   </g>
   <g id="patch_104">
    <path clip-path="url(#p55b829b406)" d="M 321.142388 307.584 
L 323.324533 307.584 
L 323.324533 304.338732 
L 321.142388 304.338732 
z
" style="fill:#fa9ba4;opacity:0.2;"/>
   </g>
   <g id="patch_105">
    <path clip-path="url(#p55b829b406)" d="M 323.566993 307.584 
L 325.749137 307.584 
L 325.749137 301.093463 
L 323.566993 301.093463 
z
" style="fill:#fa9ba4;opacity:0.2;"/>
   </g>
   <g id="patch_106">
    <path clip-path="url(#p55b829b406)" d="M 325.991598 307.584 
L 328.173742 307.584 
L 328.173742 307.584 
L 325.991598 307.584 
z
" style="fill:#fa9ba4;opacity:0.2;"/>
   </g>
   <g id="patch_107">
    <path clip-path="url(#p55b829b406)" d="M 328.416202 307.584 
L 330.598346 307.584 
L 330.598346 307.584 
L 328.416202 307.584 
z
" style="fill:#fa9ba4;opacity:0.2;"/>
   </g>
   <g id="patch_108">
    <path clip-path="url(#p55b829b406)" d="M 330.840807 307.584 
L 333.022951 307.584 
L 333.022951 307.584 
L 330.840807 307.584 
z
" style="fill:#fa9ba4;opacity:0.2;"/>
   </g>
   <g id="patch_109">
    <path clip-path="url(#p55b829b406)" d="M 333.265411 307.584 
L 335.447555 307.584 
L 335.447555 307.584 
L 333.265411 307.584 
z
" style="fill:#fa9ba4;opacity:0.2;"/>
   </g>
   <g id="patch_110">
    <path clip-path="url(#p55b829b406)" d="M 335.690016 307.584 
L 337.87216 307.584 
L 337.87216 307.584 
L 335.690016 307.584 
z
" style="fill:#fa9ba4;opacity:0.2;"/>
   </g>
   <g id="patch_111">
    <path clip-path="url(#p55b829b406)" d="M 338.11462 307.584 
L 340.296764 307.584 
L 340.296764 297.848195 
L 338.11462 297.848195 
z
" style="fill:#fa9ba4;opacity:0.2;"/>
   </g>
   <g id="patch_112">
    <path clip-path="url(#p55b829b406)" d="M 340.539225 307.584 
L 342.721369 307.584 
L 342.721369 301.093463 
L 340.539225 301.093463 
z
" style="fill:#fa9ba4;opacity:0.2;"/>
   </g>
   <g id="patch_113">
    <path clip-path="url(#p55b829b406)" d="M 342.963829 307.584 
L 345.145973 307.584 
L 345.145973 301.093463 
L 342.963829 301.093463 
z
" style="fill:#fa9ba4;opacity:0.2;"/>
   </g>
   <g id="patch_114">
    <path clip-path="url(#p55b829b406)" d="M 345.388434 307.584 
L 347.570578 307.584 
L 347.570578 301.093463 
L 345.388434 301.093463 
z
" style="fill:#fa9ba4;opacity:0.2;"/>
   </g>
   <g id="patch_115">
    <path clip-path="url(#p55b829b406)" d="M 347.813038 307.584 
L 349.995182 307.584 
L 349.995182 297.848195 
L 347.813038 297.848195 
z
" style="fill:#fa9ba4;opacity:0.2;"/>
   </g>
   <g id="patch_116">
    <path clip-path="url(#p55b829b406)" d="M 350.237643 307.584 
L 352.419787 307.584 
L 352.419787 281.621854 
L 350.237643 281.621854 
z
" style="fill:#fa9ba4;opacity:0.2;"/>
   </g>
   <g id="patch_117">
    <path clip-path="url(#p55b829b406)" d="M 352.662247 307.584 
L 354.844391 307.584 
L 354.844391 275.131317 
L 352.662247 275.131317 
z
" style="fill:#fa9ba4;opacity:0.2;"/>
   </g>
   <g id="patch_118">
    <path clip-path="url(#p55b829b406)" d="M 355.086852 307.584 
L 357.268996 307.584 
L 357.268996 271.886049 
L 355.086852 271.886049 
z
" style="fill:#fa9ba4;opacity:0.2;"/>
   </g>
   <g id="patch_119">
    <path clip-path="url(#p55b829b406)" d="M 357.511456 307.584 
L 359.6936 307.584 
L 359.6936 223.207024 
L 357.511456 223.207024 
z
" style="fill:#fa9ba4;opacity:0.2;"/>
   </g>
   <g id="patch_120">
    <path clip-path="url(#p55b829b406)" d="M 359.936061 307.584 
L 362.118205 307.584 
L 362.118205 190.754341 
L 359.936061 190.754341 
z
" style="fill:#fa9ba4;opacity:0.2;"/>
   </g>
   <g id="patch_121">
    <path clip-path="url(#p55b829b406)" d="M 362.360665 307.584 
L 364.542809 307.584 
L 364.542809 239.433366 
L 362.360665 239.433366 
z
" style="fill:#fa9ba4;opacity:0.2;"/>
   </g>
   <g id="patch_122">
    <path clip-path="url(#p55b829b406)" d="M 364.78527 307.584 
L 366.967414 307.584 
L 366.967414 297.848195 
L 364.78527 297.848195 
z
" style="fill:#fa9ba4;opacity:0.2;"/>
   </g>
   <g id="patch_123">
    <path clip-path="url(#p55b829b406)" d="M 367.209874 307.584 
L 369.392018 307.584 
L 369.392018 184.263805 
L 367.209874 184.263805 
z
" style="fill:#fa9ba4;opacity:0.2;"/>
   </g>
   <g id="patch_124">
    <path clip-path="url(#p55b829b406)" d="M 369.634479 307.584 
L 371.816623 307.584 
L 371.816623 223.207024 
L 369.634479 223.207024 
z
" style="fill:#fa9ba4;opacity:0.2;"/>
   </g>
   <g id="patch_125">
    <path clip-path="url(#p55b829b406)" d="M 372.059083 307.584 
L 374.241228 307.584 
L 374.241228 223.207024 
L 372.059083 223.207024 
z
" style="fill:#fa9ba4;opacity:0.2;"/>
   </g>
   <g id="patch_126">
    <path clip-path="url(#p55b829b406)" d="M 374.483688 307.584 
L 376.665832 307.584 
L 376.665832 229.697561 
L 374.483688 229.697561 
z
" style="fill:#fa9ba4;opacity:0.2;"/>
   </g>
   <g id="patch_127">
    <path clip-path="url(#p55b829b406)" d="M 376.908292 307.584 
L 379.090437 307.584 
L 379.090437 245.923902 
L 376.908292 245.923902 
z
" style="fill:#fa9ba4;opacity:0.2;"/>
   </g>
   <g id="patch_128">
    <path clip-path="url(#p55b829b406)" d="M 379.332897 307.584 
L 381.515041 307.584 
L 381.515041 122.603707 
L 379.332897 122.603707 
z
" style="fill:#fa9ba4;opacity:0.2;"/>
   </g>
   <g id="patch_129">
    <path clip-path="url(#p55b829b406)" d="M 381.757502 307.584 
L 383.939646 307.584 
L 383.939646 229.697561 
L 381.757502 229.697561 
z
" style="fill:#fa9ba4;opacity:0.2;"/>
   </g>
   <g id="patch_130">
    <path clip-path="url(#p55b829b406)" d="M 384.182106 307.584 
L 386.36425 307.584 
L 386.36425 206.980683 
L 384.182106 206.980683 
z
" style="fill:#fa9ba4;opacity:0.2;"/>
   </g>
   <g id="patch_131">
    <path clip-path="url(#p55b829b406)" d="M 386.606711 307.584 
L 388.788855 307.584 
L 388.788855 174.528 
L 386.606711 174.528 
z
" style="fill:#fa9ba4;opacity:0.2;"/>
   </g>
   <g id="patch_132">
    <path clip-path="url(#p55b829b406)" d="M 389.031315 307.584 
L 391.213459 307.584 
L 391.213459 116.113171 
L 389.031315 116.113171 
z
" style="fill:#fa9ba4;opacity:0.2;"/>
   </g>
   <g id="patch_133">
    <path clip-path="url(#p55b829b406)" d="M 391.45592 307.584 
L 393.638064 307.584 
L 393.638064 125.848976 
L 391.45592 125.848976 
z
" style="fill:#fa9ba4;opacity:0.2;"/>
   </g>
   <g id="patch_134">
    <path clip-path="url(#p55b829b406)" d="M 393.880524 307.584 
L 396.062668 307.584 
L 396.062668 307.584 
L 393.880524 307.584 
z
" style="fill:#fa9ba4;opacity:0.2;"/>
   </g>
   <g id="patch_135">
    <path clip-path="url(#p55b829b406)" d="M 396.305129 307.584 
L 398.487273 307.584 
L 398.487273 307.584 
L 396.305129 307.584 
z
" style="fill:#fa9ba4;opacity:0.2;"/>
   </g>
   <g id="matplotlib.axis_1"/>
   <g id="matplotlib.axis_2"/>
   <g id="PolyCollection_1">
    <defs>
     <path d="M 365.876342 -91.331122 
L 365.876342 -38.016 
L 368.300946 -38.016 
L 370.725551 -38.016 
L 373.150155 -38.016 
L 375.57476 -38.016 
L 377.999365 -38.016 
L 380.423969 -38.016 
L 382.848574 -38.016 
L 385.273178 -38.016 
L 387.697783 -38.016 
L 390.122387 -38.016 
L 392.546992 -38.016 
L 394.971596 -38.016 
L 397.396201 -38.016 
L 397.396201 -135.837659 
L 397.396201 -135.837659 
L 394.971596 -162.263415 
L 392.546992 -171.072 
L 390.122387 -156.236488 
L 387.697783 -140.937366 
L 385.273178 -133.98322 
L 382.848574 -137.228488 
L 380.423969 -127.492683 
L 377.999365 -110.802732 
L 375.57476 -118.684098 
L 373.150155 -119.611317 
L 370.725551 -112.657171 
L 368.300946 -105.239415 
L 365.876342 -91.331122 
z
" id="m163737118c" style="stroke:#dc3545;stroke-opacity:0.5;"/>
    </defs>
    <g clip-path="url(#p55b829b406)">
     <use style="fill:#dc3545;fill-opacity:0.5;stroke:#dc3545;stroke-opacity:0.5;" x="0" xlink:href="#m163737118c" y="345.6"/>
    </g>
   </g>
   <g id="PolyCollection_2">
    <defs>
     <path d="M 89.471426 -38.016 
L 89.471426 -38.016 
L 91.896031 -38.016 
L 94.320635 -38.016 
L 96.74524 -38.016 
L 99.169845 -38.016 
L 101.594449 -38.016 
L 104.019054 -38.016 
L 106.443658 -38.016 
L 108.868263 -38.016 
L 111.292867 -38.016 
L 113.717472 -38.016 
L 116.142076 -38.016 
L 118.566681 -38.016 
L 120.991285 -38.016 
L 123.41589 -38.016 
L 125.840494 -38.016 
L 128.265099 -38.016 
L 130.689703 -38.016 
L 133.114308 -38.016 
L 135.538912 -38.016 
L 137.963517 -38.016 
L 140.388121 -38.016 
L 142.812726 -38.016 
L 145.23733 -38.016 
L 147.661935 -38.016 
L 150.086539 -38.016 
L 152.511144 -38.016 
L 154.935749 -38.016 
L 157.360353 -38.016 
L 159.784958 -38.016 
L 162.209562 -38.016 
L 164.634167 -38.016 
L 167.058771 -38.016 
L 169.483376 -38.016 
L 171.90798 -38.016 
L 174.332585 -38.016 
L 176.757189 -38.016 
L 179.181794 -38.016 
L 181.606398 -38.016 
L 184.031003 -38.016 
L 186.455607 -38.016 
L 188.880212 -38.016 
L 191.304816 -38.016 
L 193.729421 -38.016 
L 196.154025 -38.016 
L 198.57863 -38.016 
L 201.003234 -38.016 
L 203.427839 -38.016 
L 205.852443 -38.016 
L 208.277048 -38.016 
L 210.701653 -38.016 
L 213.126257 -38.016 
L 215.550862 -38.016 
L 217.975466 -38.016 
L 220.400071 -38.016 
L 222.824675 -38.016 
L 225.24928 -38.016 
L 227.673884 -38.016 
L 230.098489 -38.016 
L 232.523093 -38.016 
L 234.947698 -38.016 
L 237.372302 -38.016 
L 239.796907 -38.016 
L 242.221511 -38.016 
L 244.646116 -38.016 
L 247.07072 -38.016 
L 249.495325 -38.016 
L 251.919929 -38.016 
L 254.344534 -38.016 
L 256.769138 -38.016 
L 259.193743 -38.016 
L 261.618347 -38.016 
L 264.042952 -38.016 
L 266.467557 -38.016 
L 268.892161 -38.016 
L 271.316766 -38.016 
L 273.74137 -38.016 
L 276.165975 -38.016 
L 278.590579 -38.016 
L 281.015184 -38.016 
L 283.439788 -38.016 
L 285.864393 -38.016 
L 288.288997 -38.016 
L 290.713602 -38.016 
L 293.138206 -38.016 
L 295.562811 -38.016 
L 297.987415 -38.016 
L 300.41202 -38.016 
L 302.836624 -38.016 
L 305.261229 -38.016 
L 307.685833 -38.016 
L 310.110438 -38.016 
L 312.535042 -38.016 
L 314.959647 -38.016 
L 317.384251 -38.016 
L 319.808856 -38.016 
L 322.233461 -38.016 
L 324.658065 -38.016 
L 327.08267 -38.016 
L 329.507274 -38.016 
L 331.931879 -38.016 
L 334.356483 -38.016 
L 336.781088 -38.016 
L 339.205692 -38.016 
L 341.630297 -38.016 
L 344.054901 -38.016 
L 346.479506 -38.016 
L 348.90411 -38.016 
L 351.328715 -38.016 
L 353.753319 -38.016 
L 356.177924 -38.016 
L 358.602528 -38.016 
L 361.027133 -38.016 
L 363.451737 -38.016 
L 365.876342 -38.016 
L 365.876342 -91.331122 
L 365.876342 -91.331122 
L 363.451737 -91.331122 
L 361.027133 -82.522537 
L 358.602528 -66.759805 
L 356.177924 -55.633171 
L 353.753319 -51.924293 
L 351.328715 -47.288195 
L 348.90411 -43.579317 
L 346.479506 -42.188488 
L 344.054901 -41.261268 
L 341.630297 -40.334049 
L 339.205692 -40.334049 
L 336.781088 -39.406829 
L 334.356483 -39.870439 
L 331.931879 -40.334049 
L 329.507274 -41.724878 
L 327.08267 -42.188488 
L 324.658065 -44.970146 
L 322.233461 -50.069854 
L 319.808856 -53.778732 
L 317.384251 -55.633171 
L 314.959647 -56.09678 
L 312.535042 -55.169561 
L 310.110438 -56.56039 
L 307.685833 -54.242341 
L 305.261229 -53.778732 
L 302.836624 -52.387902 
L 300.41202 -59.342049 
L 297.987415 -58.414829 
L 295.562811 -61.660098 
L 293.138206 -61.196488 
L 290.713602 -61.660098 
L 288.288997 -57.48761 
L 285.864393 -56.56039 
L 283.439788 -50.997073 
L 281.015184 -51.460683 
L 278.590579 -51.460683 
L 276.165975 -53.778732 
L 273.74137 -69.077854 
L 271.316766 -72.786732 
L 268.892161 -77.422829 
L 266.467557 -73.713951 
L 264.042952 -81.595317 
L 261.618347 -81.131707 
L 259.193743 -90.403902 
L 256.769138 -82.522537 
L 254.344534 -85.304195 
L 251.919929 -90.403902 
L 249.495325 -100.139707 
L 247.07072 -113.12078 
L 244.646116 -147.891512 
L 242.221511 -157.163707 
L 239.796907 -171.99922 
L 237.372302 -193.788878 
L 234.947698 -182.662244 
L 232.523093 -198.888585 
L 230.098489 -177.562537 
L 227.673884 -140.010146 
L 225.24928 -117.756878 
L 222.824675 -96.430829 
L 220.400071 -66.759805 
L 217.975466 -66.296195 
L 215.550862 -40.334049 
L 213.126257 -40.334049 
L 210.701653 -39.870439 
L 208.277048 -39.870439 
L 205.852443 -38.016 
L 203.427839 -38.47961 
L 201.003234 -38.47961 
L 198.57863 -38.47961 
L 196.154025 -38.47961 
L 193.729421 -38.94322 
L 191.304816 -39.870439 
L 188.880212 -39.870439 
L 186.455607 -39.406829 
L 184.031003 -39.406829 
L 181.606398 -42.188488 
L 179.181794 -44.042927 
L 176.757189 -44.042927 
L 174.332585 -43.115707 
L 171.90798 -43.579317 
L 169.483376 -43.579317 
L 167.058771 -45.433756 
L 164.634167 -43.579317 
L 162.209562 -42.188488 
L 159.784958 -48.679024 
L 157.360353 -50.997073 
L 154.935749 -50.997073 
L 152.511144 -54.242341 
L 150.086539 -52.851512 
L 147.661935 -52.387902 
L 145.23733 -54.705951 
L 142.812726 -49.606244 
L 140.388121 -47.288195 
L 137.963517 -50.997073 
L 135.538912 -47.751805 
L 133.114308 -48.679024 
L 130.689703 -49.142634 
L 128.265099 -46.824585 
L 125.840494 -44.970146 
L 123.41589 -45.433756 
L 120.991285 -42.188488 
L 118.566681 -42.652098 
L 116.142076 -41.724878 
L 113.717472 -41.724878 
L 111.292867 -42.188488 
L 108.868263 -42.652098 
L 106.443658 -43.115707 
L 104.019054 -42.188488 
L 101.594449 -41.724878 
L 99.169845 -41.261268 
L 96.74524 -40.334049 
L 94.320635 -39.406829 
L 91.896031 -38.94322 
L 89.471426 -38.016 
z
" id="m32651bf616" style="stroke:#fa9ba4;stroke-opacity:0.3;"/>
    </defs>
    <g clip-path="url(#p55b829b406)">
     <use style="fill:#fa9ba4;fill-opacity:0.3;stroke:#fa9ba4;stroke-opacity:0.3;" x="0" xlink:href="#m32651bf616" y="345.6"/>
    </g>
   </g>
   <g id="line2d_1">
    <path clip-path="url(#p55b829b406)" d="M 89.471426 307.584 
L 91.896031 306.65678 
L 94.320635 306.193171 
L 99.169845 304.338732 
L 104.019054 303.411512 
L 106.443658 302.484293 
L 113.717472 303.875122 
L 116.142076 303.875122 
L 118.566681 302.947902 
L 120.991285 303.411512 
L 123.41589 300.166244 
L 125.840494 300.629854 
L 128.265099 298.775415 
L 130.689703 296.457366 
L 133.114308 296.920976 
L 135.538912 297.848195 
L 137.963517 294.602927 
L 140.388121 298.311805 
L 142.812726 295.993756 
L 145.23733 290.894049 
L 147.661935 293.212098 
L 150.086539 292.748488 
L 152.511144 291.357659 
L 154.935749 294.602927 
L 157.360353 294.602927 
L 159.784958 296.920976 
L 162.209562 303.411512 
L 164.634167 302.020683 
L 167.058771 300.166244 
L 169.483376 302.020683 
L 171.90798 302.020683 
L 174.332585 302.484293 
L 176.757189 301.557073 
L 179.181794 301.557073 
L 181.606398 303.411512 
L 184.031003 306.193171 
L 186.455607 306.193171 
L 188.880212 305.729561 
L 191.304816 305.729561 
L 193.729421 306.65678 
L 196.154025 307.12039 
L 203.427839 307.12039 
L 205.852443 307.584 
L 208.277048 305.729561 
L 210.701653 305.729561 
L 213.126257 305.265951 
L 215.550862 305.265951 
L 217.975466 279.303805 
L 220.400071 278.840195 
L 222.824675 249.169171 
L 227.673884 205.589854 
L 230.098489 168.037463 
L 232.523093 146.711415 
L 234.947698 162.937756 
L 237.372302 151.811122 
L 239.796907 173.60078 
L 242.221511 188.436293 
L 244.646116 197.708488 
L 247.07072 232.47922 
L 249.495325 245.460293 
L 251.919929 255.196098 
L 254.344534 260.295805 
L 256.769138 263.077463 
L 259.193743 255.196098 
L 261.618347 264.468293 
L 264.042952 264.004683 
L 266.467557 271.886049 
L 268.892161 268.177171 
L 271.316766 272.813268 
L 273.74137 276.522146 
L 276.165975 291.821268 
L 278.590579 294.139317 
L 281.015184 294.139317 
L 283.439788 294.602927 
L 285.864393 289.03961 
L 288.288997 288.11239 
L 290.713602 283.939902 
L 293.138206 284.403512 
L 295.562811 283.939902 
L 297.987415 287.185171 
L 300.41202 286.257951 
L 302.836624 293.212098 
L 305.261229 291.821268 
L 307.685833 291.357659 
L 310.110438 289.03961 
L 312.535042 290.430439 
L 314.959647 289.50322 
L 317.384251 289.966829 
L 319.808856 291.821268 
L 322.233461 295.530146 
L 324.658065 300.629854 
L 327.08267 303.411512 
L 329.507274 303.875122 
L 331.931879 305.265951 
L 336.781088 306.193171 
L 339.205692 305.265951 
L 341.630297 305.265951 
L 346.479506 303.411512 
L 348.90411 302.020683 
L 351.328715 298.311805 
L 353.753319 293.675707 
L 356.177924 289.966829 
L 358.602528 278.840195 
L 361.027133 263.077463 
L 363.451737 254.268878 
L 365.876342 254.268878 
L 368.300946 240.360585 
L 370.725551 232.942829 
L 373.150155 225.988683 
L 375.57476 226.915902 
L 377.999365 234.797268 
L 380.423969 218.107317 
L 382.848574 208.371512 
L 385.273178 211.61678 
L 387.697783 204.662634 
L 392.546992 174.528 
L 394.971596 183.336585 
L 397.396201 209.762341 
L 397.396201 209.762341 
" style="fill:none;stroke:#fa9ba4;stroke-linecap:square;stroke-width:2;"/>
   </g>
   <g id="line2d_2">
    <path clip-path="url(#p55b829b406)" d="M 365.876342 254.268878 
L 368.300946 240.360585 
L 370.725551 232.942829 
L 373.150155 225.988683 
L 375.57476 226.915902 
L 377.999365 234.797268 
L 380.423969 218.107317 
L 382.848574 208.371512 
L 385.273178 211.61678 
L 387.697783 204.662634 
L 390.122387 189.363512 
L 392.546992 174.528 
L 394.971596 183.336585 
L 397.396201 209.762341 
" style="fill:none;stroke:#dc3545;stroke-linecap:square;stroke-width:2;"/>
   </g>
  </g>
 </g>
 <defs>
  <clipPath id="p55b829b406">
   <rect height="266.112" width="357.12" x="57.6" y="41.472"/>
  </clipPath>
 </defs>
</svg>
