<?xml version="1.0" encoding="utf-8" standalone="no"?>
<!DOCTYPE svg PUBLIC "-//W3C//DTD SVG 1.1//EN"
  "http://www.w3.org/Graphics/SVG/1.1/DTD/svg11.dtd">
<svg height="345.6pt" version="1.1" viewBox="0 0 460.8 345.6" width="460.8pt" xmlns="http://www.w3.org/2000/svg" xmlns:xlink="http://www.w3.org/1999/xlink">
 <metadata>
  <rdf:RDF xmlns:cc="http://creativecommons.org/ns#" xmlns:dc="http://purl.org/dc/elements/1.1/" xmlns:rdf="http://www.w3.org/1999/02/22-rdf-syntax-ns#">
   <cc:Work>
    <dc:type rdf:resource="http://purl.org/dc/dcmitype/StillImage"/>
    <dc:date>2021-05-15T11:18:52.110112</dc:date>
    <dc:format>image/svg+xml</dc:format>
    <dc:creator>
     <cc:Agent>
      <dc:title>Matplotlib v3.4.2, https://matplotlib.org/</dc:title>
     </cc:Agent>
    </dc:creator>
   </cc:Work>
  </rdf:RDF>
 </metadata>
 <defs>
  <style type="text/css">*{stroke-linecap:butt;stroke-linejoin:round;}</style>
 </defs>
 <g id="figure_1">
  <g id="patch_1">
   <path d="M 0 345.6 
L 460.8 345.6 
L 460.8 0 
L 0 0 
z
" style="fill:none;"/>
  </g>
  <g id="axes_1">
   <g id="patch_2">
    <path clip-path="url(#p5995cb78c3)" d="M 73.832727 307.584 
L 75.769037 307.584 
L 75.769037 307.584 
L 73.832727 307.584 
z
" style="fill:#fa9ba4;opacity:0.2;"/>
   </g>
   <g id="patch_3">
    <path clip-path="url(#p5995cb78c3)" d="M 75.984182 307.584 
L 77.920492 307.584 
L 77.920492 307.584 
L 75.984182 307.584 
z
" style="fill:#fa9ba4;opacity:0.2;"/>
   </g>
   <g id="patch_4">
    <path clip-path="url(#p5995cb78c3)" d="M 78.135637 307.584 
L 80.071947 307.584 
L 80.071947 307.584 
L 78.135637 307.584 
z
" style="fill:#fa9ba4;opacity:0.2;"/>
   </g>
   <g id="patch_5">
    <path clip-path="url(#p5995cb78c3)" d="M 80.287092 307.584 
L 82.223401 307.584 
L 82.223401 307.584 
L 80.287092 307.584 
z
" style="fill:#fa9ba4;opacity:0.2;"/>
   </g>
   <g id="patch_6">
    <path clip-path="url(#p5995cb78c3)" d="M 82.438547 307.584 
L 84.374856 307.584 
L 84.374856 307.584 
L 82.438547 307.584 
z
" style="fill:#fa9ba4;opacity:0.2;"/>
   </g>
   <g id="patch_7">
    <path clip-path="url(#p5995cb78c3)" d="M 84.590002 307.584 
L 86.526311 307.584 
L 86.526311 307.584 
L 84.590002 307.584 
z
" style="fill:#fa9ba4;opacity:0.2;"/>
   </g>
   <g id="patch_8">
    <path clip-path="url(#p5995cb78c3)" d="M 86.741457 307.584 
L 88.677766 307.584 
L 88.677766 307.584 
L 86.741457 307.584 
z
" style="fill:#fa9ba4;opacity:0.2;"/>
   </g>
   <g id="patch_9">
    <path clip-path="url(#p5995cb78c3)" d="M 88.892912 307.584 
L 90.829221 307.584 
L 90.829221 304.2576 
L 88.892912 304.2576 
z
" style="fill:#fa9ba4;opacity:0.2;"/>
   </g>
   <g id="patch_10">
    <path clip-path="url(#p5995cb78c3)" d="M 91.044367 307.584 
L 92.980676 307.584 
L 92.980676 305.9208 
L 91.044367 305.9208 
z
" style="fill:#fa9ba4;opacity:0.2;"/>
   </g>
   <g id="patch_11">
    <path clip-path="url(#p5995cb78c3)" d="M 93.195821 307.584 
L 95.132131 307.584 
L 95.132131 304.2576 
L 93.195821 304.2576 
z
" style="fill:#fa9ba4;opacity:0.2;"/>
   </g>
   <g id="patch_12">
    <path clip-path="url(#p5995cb78c3)" d="M 95.347276 307.584 
L 97.283586 307.584 
L 97.283586 304.2576 
L 95.347276 304.2576 
z
" style="fill:#fa9ba4;opacity:0.2;"/>
   </g>
   <g id="patch_13">
    <path clip-path="url(#p5995cb78c3)" d="M 97.498731 307.584 
L 99.435041 307.584 
L 99.435041 305.9208 
L 97.498731 305.9208 
z
" style="fill:#fa9ba4;opacity:0.2;"/>
   </g>
   <g id="patch_14">
    <path clip-path="url(#p5995cb78c3)" d="M 99.650186 307.584 
L 101.586496 307.584 
L 101.586496 305.9208 
L 99.650186 305.9208 
z
" style="fill:#fa9ba4;opacity:0.2;"/>
   </g>
   <g id="patch_15">
    <path clip-path="url(#p5995cb78c3)" d="M 101.801641 307.584 
L 103.73795 307.584 
L 103.73795 304.2576 
L 101.801641 304.2576 
z
" style="fill:#fa9ba4;opacity:0.2;"/>
   </g>
   <g id="patch_16">
    <path clip-path="url(#p5995cb78c3)" d="M 103.953096 307.584 
L 105.889405 307.584 
L 105.889405 305.9208 
L 103.953096 305.9208 
z
" style="fill:#fa9ba4;opacity:0.2;"/>
   </g>
   <g id="patch_17">
    <path clip-path="url(#p5995cb78c3)" d="M 106.104551 307.584 
L 108.04086 307.584 
L 108.04086 307.584 
L 106.104551 307.584 
z
" style="fill:#fa9ba4;opacity:0.2;"/>
   </g>
   <g id="patch_18">
    <path clip-path="url(#p5995cb78c3)" d="M 108.256006 307.584 
L 110.192315 307.584 
L 110.192315 305.9208 
L 108.256006 305.9208 
z
" style="fill:#fa9ba4;opacity:0.2;"/>
   </g>
   <g id="patch_19">
    <path clip-path="url(#p5995cb78c3)" d="M 110.407461 307.584 
L 112.34377 307.584 
L 112.34377 304.2576 
L 110.407461 304.2576 
z
" style="fill:#fa9ba4;opacity:0.2;"/>
   </g>
   <g id="patch_20">
    <path clip-path="url(#p5995cb78c3)" d="M 112.558916 307.584 
L 114.495225 307.584 
L 114.495225 302.5944 
L 112.558916 302.5944 
z
" style="fill:#fa9ba4;opacity:0.2;"/>
   </g>
   <g id="patch_21">
    <path clip-path="url(#p5995cb78c3)" d="M 114.710371 307.584 
L 116.64668 307.584 
L 116.64668 307.584 
L 114.710371 307.584 
z
" style="fill:#fa9ba4;opacity:0.2;"/>
   </g>
   <g id="patch_22">
    <path clip-path="url(#p5995cb78c3)" d="M 116.861825 307.584 
L 118.798135 307.584 
L 118.798135 292.6152 
L 116.861825 292.6152 
z
" style="fill:#fa9ba4;opacity:0.2;"/>
   </g>
   <g id="patch_23">
    <path clip-path="url(#p5995cb78c3)" d="M 119.01328 307.584 
L 120.94959 307.584 
L 120.94959 307.584 
L 119.01328 307.584 
z
" style="fill:#fa9ba4;opacity:0.2;"/>
   </g>
   <g id="patch_24">
    <path clip-path="url(#p5995cb78c3)" d="M 121.164735 307.584 
L 123.101045 307.584 
L 123.101045 300.9312 
L 121.164735 300.9312 
z
" style="fill:#fa9ba4;opacity:0.2;"/>
   </g>
   <g id="patch_25">
    <path clip-path="url(#p5995cb78c3)" d="M 123.31619 307.584 
L 125.2525 307.584 
L 125.2525 297.6048 
L 123.31619 297.6048 
z
" style="fill:#fa9ba4;opacity:0.2;"/>
   </g>
   <g id="patch_26">
    <path clip-path="url(#p5995cb78c3)" d="M 125.467645 307.584 
L 127.403954 307.584 
L 127.403954 305.9208 
L 125.467645 305.9208 
z
" style="fill:#fa9ba4;opacity:0.2;"/>
   </g>
   <g id="patch_27">
    <path clip-path="url(#p5995cb78c3)" d="M 127.6191 307.584 
L 129.555409 307.584 
L 129.555409 305.9208 
L 127.6191 305.9208 
z
" style="fill:#fa9ba4;opacity:0.2;"/>
   </g>
   <g id="patch_28">
    <path clip-path="url(#p5995cb78c3)" d="M 129.770555 307.584 
L 131.706864 307.584 
L 131.706864 295.9416 
L 129.770555 295.9416 
z
" style="fill:#fa9ba4;opacity:0.2;"/>
   </g>
   <g id="patch_29">
    <path clip-path="url(#p5995cb78c3)" d="M 131.92201 307.584 
L 133.858319 307.584 
L 133.858319 305.9208 
L 131.92201 305.9208 
z
" style="fill:#fa9ba4;opacity:0.2;"/>
   </g>
   <g id="patch_30">
    <path clip-path="url(#p5995cb78c3)" d="M 134.073465 307.584 
L 136.009774 307.584 
L 136.009774 299.268 
L 134.073465 299.268 
z
" style="fill:#fa9ba4;opacity:0.2;"/>
   </g>
   <g id="patch_31">
    <path clip-path="url(#p5995cb78c3)" d="M 136.22492 307.584 
L 138.161229 307.584 
L 138.161229 282.636 
L 136.22492 282.636 
z
" style="fill:#fa9ba4;opacity:0.2;"/>
   </g>
   <g id="patch_32">
    <path clip-path="url(#p5995cb78c3)" d="M 138.376374 307.584 
L 140.312684 307.584 
L 140.312684 305.9208 
L 138.376374 305.9208 
z
" style="fill:#fa9ba4;opacity:0.2;"/>
   </g>
   <g id="patch_33">
    <path clip-path="url(#p5995cb78c3)" d="M 140.527829 307.584 
L 142.464139 307.584 
L 142.464139 304.2576 
L 140.527829 304.2576 
z
" style="fill:#fa9ba4;opacity:0.2;"/>
   </g>
   <g id="patch_34">
    <path clip-path="url(#p5995cb78c3)" d="M 142.679284 307.584 
L 144.615594 307.584 
L 144.615594 300.9312 
L 142.679284 300.9312 
z
" style="fill:#fa9ba4;opacity:0.2;"/>
   </g>
   <g id="patch_35">
    <path clip-path="url(#p5995cb78c3)" d="M 144.830739 307.584 
L 146.767049 307.584 
L 146.767049 307.584 
L 144.830739 307.584 
z
" style="fill:#fa9ba4;opacity:0.2;"/>
   </g>
   <g id="patch_36">
    <path clip-path="url(#p5995cb78c3)" d="M 146.982194 307.584 
L 148.918504 307.584 
L 148.918504 305.9208 
L 146.982194 305.9208 
z
" style="fill:#fa9ba4;opacity:0.2;"/>
   </g>
   <g id="patch_37">
    <path clip-path="url(#p5995cb78c3)" d="M 149.133649 307.584 
L 151.069958 307.584 
L 151.069958 307.584 
L 149.133649 307.584 
z
" style="fill:#fa9ba4;opacity:0.2;"/>
   </g>
   <g id="patch_38">
    <path clip-path="url(#p5995cb78c3)" d="M 151.285104 307.584 
L 153.221413 307.584 
L 153.221413 305.9208 
L 151.285104 305.9208 
z
" style="fill:#fa9ba4;opacity:0.2;"/>
   </g>
   <g id="patch_39">
    <path clip-path="url(#p5995cb78c3)" d="M 153.436559 307.584 
L 155.372868 307.584 
L 155.372868 300.9312 
L 153.436559 300.9312 
z
" style="fill:#fa9ba4;opacity:0.2;"/>
   </g>
   <g id="patch_40">
    <path clip-path="url(#p5995cb78c3)" d="M 155.588014 307.584 
L 157.524323 307.584 
L 157.524323 297.6048 
L 155.588014 297.6048 
z
" style="fill:#fa9ba4;opacity:0.2;"/>
   </g>
   <g id="patch_41">
    <path clip-path="url(#p5995cb78c3)" d="M 157.739469 307.584 
L 159.675778 307.584 
L 159.675778 307.584 
L 157.739469 307.584 
z
" style="fill:#fa9ba4;opacity:0.2;"/>
   </g>
   <g id="patch_42">
    <path clip-path="url(#p5995cb78c3)" d="M 159.890924 307.584 
L 161.827233 307.584 
L 161.827233 307.584 
L 159.890924 307.584 
z
" style="fill:#fa9ba4;opacity:0.2;"/>
   </g>
   <g id="patch_43">
    <path clip-path="url(#p5995cb78c3)" d="M 162.042378 307.584 
L 163.978688 307.584 
L 163.978688 307.584 
L 162.042378 307.584 
z
" style="fill:#fa9ba4;opacity:0.2;"/>
   </g>
   <g id="patch_44">
    <path clip-path="url(#p5995cb78c3)" d="M 164.193833 307.584 
L 166.130143 307.584 
L 166.130143 304.2576 
L 164.193833 304.2576 
z
" style="fill:#fa9ba4;opacity:0.2;"/>
   </g>
   <g id="patch_45">
    <path clip-path="url(#p5995cb78c3)" d="M 166.345288 307.584 
L 168.281598 307.584 
L 168.281598 305.9208 
L 166.345288 305.9208 
z
" style="fill:#fa9ba4;opacity:0.2;"/>
   </g>
   <g id="patch_46">
    <path clip-path="url(#p5995cb78c3)" d="M 168.496743 307.584 
L 170.433053 307.584 
L 170.433053 307.584 
L 168.496743 307.584 
z
" style="fill:#fa9ba4;opacity:0.2;"/>
   </g>
   <g id="patch_47">
    <path clip-path="url(#p5995cb78c3)" d="M 170.648198 307.584 
L 172.584508 307.584 
L 172.584508 307.584 
L 170.648198 307.584 
z
" style="fill:#fa9ba4;opacity:0.2;"/>
   </g>
   <g id="patch_48">
    <path clip-path="url(#p5995cb78c3)" d="M 172.799653 307.584 
L 174.735962 307.584 
L 174.735962 307.584 
L 172.799653 307.584 
z
" style="fill:#fa9ba4;opacity:0.2;"/>
   </g>
   <g id="patch_49">
    <path clip-path="url(#p5995cb78c3)" d="M 174.951108 307.584 
L 176.887417 307.584 
L 176.887417 305.9208 
L 174.951108 305.9208 
z
" style="fill:#fa9ba4;opacity:0.2;"/>
   </g>
   <g id="patch_50">
    <path clip-path="url(#p5995cb78c3)" d="M 177.102563 307.584 
L 179.038872 307.584 
L 179.038872 307.584 
L 177.102563 307.584 
z
" style="fill:#fa9ba4;opacity:0.2;"/>
   </g>
   <g id="patch_51">
    <path clip-path="url(#p5995cb78c3)" d="M 179.254018 307.584 
L 181.190327 307.584 
L 181.190327 307.584 
L 179.254018 307.584 
z
" style="fill:#fa9ba4;opacity:0.2;"/>
   </g>
   <g id="patch_52">
    <path clip-path="url(#p5995cb78c3)" d="M 181.405473 307.584 
L 183.341782 307.584 
L 183.341782 307.584 
L 181.405473 307.584 
z
" style="fill:#fa9ba4;opacity:0.2;"/>
   </g>
   <g id="patch_53">
    <path clip-path="url(#p5995cb78c3)" d="M 183.556928 307.584 
L 185.493237 307.584 
L 185.493237 307.584 
L 183.556928 307.584 
z
" style="fill:#fa9ba4;opacity:0.2;"/>
   </g>
   <g id="patch_54">
    <path clip-path="url(#p5995cb78c3)" d="M 185.708382 307.584 
L 187.644692 307.584 
L 187.644692 307.584 
L 185.708382 307.584 
z
" style="fill:#fa9ba4;opacity:0.2;"/>
   </g>
   <g id="patch_55">
    <path clip-path="url(#p5995cb78c3)" d="M 187.859837 307.584 
L 189.796147 307.584 
L 189.796147 307.584 
L 187.859837 307.584 
z
" style="fill:#fa9ba4;opacity:0.2;"/>
   </g>
   <g id="patch_56">
    <path clip-path="url(#p5995cb78c3)" d="M 190.011292 307.584 
L 191.947602 307.584 
L 191.947602 307.584 
L 190.011292 307.584 
z
" style="fill:#fa9ba4;opacity:0.2;"/>
   </g>
   <g id="patch_57">
    <path clip-path="url(#p5995cb78c3)" d="M 192.162747 307.584 
L 194.099057 307.584 
L 194.099057 300.9312 
L 192.162747 300.9312 
z
" style="fill:#fa9ba4;opacity:0.2;"/>
   </g>
   <g id="patch_58">
    <path clip-path="url(#p5995cb78c3)" d="M 194.314202 307.584 
L 196.250511 307.584 
L 196.250511 307.584 
L 194.314202 307.584 
z
" style="fill:#fa9ba4;opacity:0.2;"/>
   </g>
   <g id="patch_59">
    <path clip-path="url(#p5995cb78c3)" d="M 196.465657 307.584 
L 198.401966 307.584 
L 198.401966 305.9208 
L 196.465657 305.9208 
z
" style="fill:#fa9ba4;opacity:0.2;"/>
   </g>
   <g id="patch_60">
    <path clip-path="url(#p5995cb78c3)" d="M 198.617112 307.584 
L 200.553421 307.584 
L 200.553421 307.584 
L 198.617112 307.584 
z
" style="fill:#fa9ba4;opacity:0.2;"/>
   </g>
   <g id="patch_61">
    <path clip-path="url(#p5995cb78c3)" d="M 200.768567 307.584 
L 202.704876 307.584 
L 202.704876 214.4448 
L 200.768567 214.4448 
z
" style="fill:#fa9ba4;opacity:0.2;"/>
   </g>
   <g id="patch_62">
    <path clip-path="url(#p5995cb78c3)" d="M 202.920022 307.584 
L 204.856331 307.584 
L 204.856331 305.9208 
L 202.920022 305.9208 
z
" style="fill:#fa9ba4;opacity:0.2;"/>
   </g>
   <g id="patch_63">
    <path clip-path="url(#p5995cb78c3)" d="M 205.071477 307.584 
L 207.007786 307.584 
L 207.007786 201.1392 
L 205.071477 201.1392 
z
" style="fill:#fa9ba4;opacity:0.2;"/>
   </g>
   <g id="patch_64">
    <path clip-path="url(#p5995cb78c3)" d="M 207.222932 307.584 
L 209.159241 307.584 
L 209.159241 224.424 
L 207.222932 224.424 
z
" style="fill:#fa9ba4;opacity:0.2;"/>
   </g>
   <g id="patch_65">
    <path clip-path="url(#p5995cb78c3)" d="M 209.374386 307.584 
L 211.310696 307.584 
L 211.310696 227.7504 
L 209.374386 227.7504 
z
" style="fill:#fa9ba4;opacity:0.2;"/>
   </g>
   <g id="patch_66">
    <path clip-path="url(#p5995cb78c3)" d="M 211.525841 307.584 
L 213.462151 307.584 
L 213.462151 171.2016 
L 211.525841 171.2016 
z
" style="fill:#fa9ba4;opacity:0.2;"/>
   </g>
   <g id="patch_67">
    <path clip-path="url(#p5995cb78c3)" d="M 213.677296 307.584 
L 215.613606 307.584 
L 215.613606 231.0768 
L 213.677296 231.0768 
z
" style="fill:#fa9ba4;opacity:0.2;"/>
   </g>
   <g id="patch_68">
    <path clip-path="url(#p5995cb78c3)" d="M 215.828751 307.584 
L 217.765061 307.584 
L 217.765061 272.6568 
L 215.828751 272.6568 
z
" style="fill:#fa9ba4;opacity:0.2;"/>
   </g>
   <g id="patch_69">
    <path clip-path="url(#p5995cb78c3)" d="M 217.980206 307.584 
L 219.916515 307.584 
L 219.916515 266.004 
L 217.980206 266.004 
z
" style="fill:#fa9ba4;opacity:0.2;"/>
   </g>
   <g id="patch_70">
    <path clip-path="url(#p5995cb78c3)" d="M 220.131661 307.584 
L 222.06797 307.584 
L 222.06797 279.3096 
L 220.131661 279.3096 
z
" style="fill:#fa9ba4;opacity:0.2;"/>
   </g>
   <g id="patch_71">
    <path clip-path="url(#p5995cb78c3)" d="M 222.283116 307.584 
L 224.219425 307.584 
L 224.219425 277.6464 
L 222.283116 277.6464 
z
" style="fill:#fa9ba4;opacity:0.2;"/>
   </g>
   <g id="patch_72">
    <path clip-path="url(#p5995cb78c3)" d="M 224.434571 307.584 
L 226.37088 307.584 
L 226.37088 261.0144 
L 224.434571 261.0144 
z
" style="fill:#fa9ba4;opacity:0.2;"/>
   </g>
   <g id="patch_73">
    <path clip-path="url(#p5995cb78c3)" d="M 226.586026 307.584 
L 228.522335 307.584 
L 228.522335 295.9416 
L 226.586026 295.9416 
z
" style="fill:#fa9ba4;opacity:0.2;"/>
   </g>
   <g id="patch_74">
    <path clip-path="url(#p5995cb78c3)" d="M 228.737481 307.584 
L 230.67379 307.584 
L 230.67379 277.6464 
L 228.737481 277.6464 
z
" style="fill:#fa9ba4;opacity:0.2;"/>
   </g>
   <g id="patch_75">
    <path clip-path="url(#p5995cb78c3)" d="M 230.888935 307.584 
L 232.825245 307.584 
L 232.825245 307.584 
L 230.888935 307.584 
z
" style="fill:#fa9ba4;opacity:0.2;"/>
   </g>
   <g id="patch_76">
    <path clip-path="url(#p5995cb78c3)" d="M 233.04039 307.584 
L 234.9767 307.584 
L 234.9767 284.2992 
L 233.04039 284.2992 
z
" style="fill:#fa9ba4;opacity:0.2;"/>
   </g>
   <g id="patch_77">
    <path clip-path="url(#p5995cb78c3)" d="M 235.191845 307.584 
L 237.128155 307.584 
L 237.128155 289.2888 
L 235.191845 289.2888 
z
" style="fill:#fa9ba4;opacity:0.2;"/>
   </g>
   <g id="patch_78">
    <path clip-path="url(#p5995cb78c3)" d="M 237.3433 307.584 
L 239.27961 307.584 
L 239.27961 249.372 
L 237.3433 249.372 
z
" style="fill:#fa9ba4;opacity:0.2;"/>
   </g>
   <g id="patch_79">
    <path clip-path="url(#p5995cb78c3)" d="M 239.494755 307.584 
L 241.431065 307.584 
L 241.431065 294.2784 
L 239.494755 294.2784 
z
" style="fill:#fa9ba4;opacity:0.2;"/>
   </g>
   <g id="patch_80">
    <path clip-path="url(#p5995cb78c3)" d="M 241.64621 307.584 
L 243.582519 307.584 
L 243.582519 294.2784 
L 241.64621 294.2784 
z
" style="fill:#fa9ba4;opacity:0.2;"/>
   </g>
   <g id="patch_81">
    <path clip-path="url(#p5995cb78c3)" d="M 243.797665 307.584 
L 245.733974 307.584 
L 245.733974 305.9208 
L 243.797665 305.9208 
z
" style="fill:#fa9ba4;opacity:0.2;"/>
   </g>
   <g id="patch_82">
    <path clip-path="url(#p5995cb78c3)" d="M 245.94912 307.584 
L 247.885429 307.584 
L 247.885429 294.2784 
L 245.94912 294.2784 
z
" style="fill:#fa9ba4;opacity:0.2;"/>
   </g>
   <g id="patch_83">
    <path clip-path="url(#p5995cb78c3)" d="M 248.100575 307.584 
L 250.036884 307.584 
L 250.036884 300.9312 
L 248.100575 300.9312 
z
" style="fill:#fa9ba4;opacity:0.2;"/>
   </g>
   <g id="patch_84">
    <path clip-path="url(#p5995cb78c3)" d="M 250.25203 307.584 
L 252.188339 307.584 
L 252.188339 302.5944 
L 250.25203 302.5944 
z
" style="fill:#fa9ba4;opacity:0.2;"/>
   </g>
   <g id="patch_85">
    <path clip-path="url(#p5995cb78c3)" d="M 252.403485 307.584 
L 254.339794 307.584 
L 254.339794 304.2576 
L 252.403485 304.2576 
z
" style="fill:#fa9ba4;opacity:0.2;"/>
   </g>
   <g id="patch_86">
    <path clip-path="url(#p5995cb78c3)" d="M 254.554939 307.584 
L 256.491249 307.584 
L 256.491249 302.5944 
L 254.554939 302.5944 
z
" style="fill:#fa9ba4;opacity:0.2;"/>
   </g>
   <g id="patch_87">
    <path clip-path="url(#p5995cb78c3)" d="M 256.706394 307.584 
L 258.642704 307.584 
L 258.642704 294.2784 
L 256.706394 294.2784 
z
" style="fill:#fa9ba4;opacity:0.2;"/>
   </g>
   <g id="patch_88">
    <path clip-path="url(#p5995cb78c3)" d="M 258.857849 307.584 
L 260.794159 307.584 
L 260.794159 307.584 
L 258.857849 307.584 
z
" style="fill:#fa9ba4;opacity:0.2;"/>
   </g>
   <g id="patch_89">
    <path clip-path="url(#p5995cb78c3)" d="M 261.009304 307.584 
L 262.945614 307.584 
L 262.945614 274.32 
L 261.009304 274.32 
z
" style="fill:#fa9ba4;opacity:0.2;"/>
   </g>
   <g id="patch_90">
    <path clip-path="url(#p5995cb78c3)" d="M 263.160759 307.584 
L 265.097068 307.584 
L 265.097068 297.6048 
L 263.160759 297.6048 
z
" style="fill:#fa9ba4;opacity:0.2;"/>
   </g>
   <g id="patch_91">
    <path clip-path="url(#p5995cb78c3)" d="M 265.312214 307.584 
L 267.248523 307.584 
L 267.248523 287.6256 
L 265.312214 287.6256 
z
" style="fill:#fa9ba4;opacity:0.2;"/>
   </g>
   <g id="patch_92">
    <path clip-path="url(#p5995cb78c3)" d="M 267.463669 307.584 
L 269.399978 307.584 
L 269.399978 305.9208 
L 267.463669 305.9208 
z
" style="fill:#fa9ba4;opacity:0.2;"/>
   </g>
   <g id="patch_93">
    <path clip-path="url(#p5995cb78c3)" d="M 269.615124 307.584 
L 271.551433 307.584 
L 271.551433 300.9312 
L 269.615124 300.9312 
z
" style="fill:#fa9ba4;opacity:0.2;"/>
   </g>
   <g id="patch_94">
    <path clip-path="url(#p5995cb78c3)" d="M 271.766579 307.584 
L 273.702888 307.584 
L 273.702888 305.9208 
L 271.766579 305.9208 
z
" style="fill:#fa9ba4;opacity:0.2;"/>
   </g>
   <g id="patch_95">
    <path clip-path="url(#p5995cb78c3)" d="M 273.918034 307.584 
L 275.854343 307.584 
L 275.854343 304.2576 
L 273.918034 304.2576 
z
" style="fill:#fa9ba4;opacity:0.2;"/>
   </g>
   <g id="patch_96">
    <path clip-path="url(#p5995cb78c3)" d="M 276.069489 307.584 
L 278.005798 307.584 
L 278.005798 299.268 
L 276.069489 299.268 
z
" style="fill:#fa9ba4;opacity:0.2;"/>
   </g>
   <g id="patch_97">
    <path clip-path="url(#p5995cb78c3)" d="M 278.220943 307.584 
L 280.157253 307.584 
L 280.157253 292.6152 
L 278.220943 292.6152 
z
" style="fill:#fa9ba4;opacity:0.2;"/>
   </g>
   <g id="patch_98">
    <path clip-path="url(#p5995cb78c3)" d="M 280.372398 307.584 
L 282.308708 307.584 
L 282.308708 285.9624 
L 280.372398 285.9624 
z
" style="fill:#fa9ba4;opacity:0.2;"/>
   </g>
   <g id="patch_99">
    <path clip-path="url(#p5995cb78c3)" d="M 282.523853 307.584 
L 284.460163 307.584 
L 284.460163 297.6048 
L 282.523853 297.6048 
z
" style="fill:#fa9ba4;opacity:0.2;"/>
   </g>
   <g id="patch_100">
    <path clip-path="url(#p5995cb78c3)" d="M 284.675308 307.584 
L 286.611618 307.584 
L 286.611618 305.9208 
L 284.675308 305.9208 
z
" style="fill:#fa9ba4;opacity:0.2;"/>
   </g>
   <g id="patch_101">
    <path clip-path="url(#p5995cb78c3)" d="M 286.826763 307.584 
L 288.763072 307.584 
L 288.763072 302.5944 
L 286.826763 302.5944 
z
" style="fill:#fa9ba4;opacity:0.2;"/>
   </g>
   <g id="patch_102">
    <path clip-path="url(#p5995cb78c3)" d="M 288.978218 307.584 
L 290.914527 307.584 
L 290.914527 305.9208 
L 288.978218 305.9208 
z
" style="fill:#fa9ba4;opacity:0.2;"/>
   </g>
   <g id="patch_103">
    <path clip-path="url(#p5995cb78c3)" d="M 291.129673 307.584 
L 293.065982 307.584 
L 293.065982 305.9208 
L 291.129673 305.9208 
z
" style="fill:#fa9ba4;opacity:0.2;"/>
   </g>
   <g id="patch_104">
    <path clip-path="url(#p5995cb78c3)" d="M 293.281128 307.584 
L 295.217437 307.584 
L 295.217437 305.9208 
L 293.281128 305.9208 
z
" style="fill:#fa9ba4;opacity:0.2;"/>
   </g>
   <g id="patch_105">
    <path clip-path="url(#p5995cb78c3)" d="M 295.432583 307.584 
L 297.368892 307.584 
L 297.368892 304.2576 
L 295.432583 304.2576 
z
" style="fill:#fa9ba4;opacity:0.2;"/>
   </g>
   <g id="patch_106">
    <path clip-path="url(#p5995cb78c3)" d="M 297.584038 307.584 
L 299.520347 307.584 
L 299.520347 307.584 
L 297.584038 307.584 
z
" style="fill:#fa9ba4;opacity:0.2;"/>
   </g>
   <g id="patch_107">
    <path clip-path="url(#p5995cb78c3)" d="M 299.735492 307.584 
L 301.671802 307.584 
L 301.671802 307.584 
L 299.735492 307.584 
z
" style="fill:#fa9ba4;opacity:0.2;"/>
   </g>
   <g id="patch_108">
    <path clip-path="url(#p5995cb78c3)" d="M 301.886947 307.584 
L 303.823257 307.584 
L 303.823257 307.584 
L 301.886947 307.584 
z
" style="fill:#fa9ba4;opacity:0.2;"/>
   </g>
   <g id="patch_109">
    <path clip-path="url(#p5995cb78c3)" d="M 304.038402 307.584 
L 305.974712 307.584 
L 305.974712 307.584 
L 304.038402 307.584 
z
" style="fill:#fa9ba4;opacity:0.2;"/>
   </g>
   <g id="patch_110">
    <path clip-path="url(#p5995cb78c3)" d="M 306.189857 307.584 
L 308.126167 307.584 
L 308.126167 307.584 
L 306.189857 307.584 
z
" style="fill:#fa9ba4;opacity:0.2;"/>
   </g>
   <g id="patch_111">
    <path clip-path="url(#p5995cb78c3)" d="M 308.341312 307.584 
L 310.277622 307.584 
L 310.277622 302.5944 
L 308.341312 302.5944 
z
" style="fill:#fa9ba4;opacity:0.2;"/>
   </g>
   <g id="patch_112">
    <path clip-path="url(#p5995cb78c3)" d="M 310.492767 307.584 
L 312.429076 307.584 
L 312.429076 304.2576 
L 310.492767 304.2576 
z
" style="fill:#fa9ba4;opacity:0.2;"/>
   </g>
   <g id="patch_113">
    <path clip-path="url(#p5995cb78c3)" d="M 312.644222 307.584 
L 314.580531 307.584 
L 314.580531 304.2576 
L 312.644222 304.2576 
z
" style="fill:#fa9ba4;opacity:0.2;"/>
   </g>
   <g id="patch_114">
    <path clip-path="url(#p5995cb78c3)" d="M 314.795677 307.584 
L 316.731986 307.584 
L 316.731986 304.2576 
L 314.795677 304.2576 
z
" style="fill:#fa9ba4;opacity:0.2;"/>
   </g>
   <g id="patch_115">
    <path clip-path="url(#p5995cb78c3)" d="M 316.947132 307.584 
L 318.883441 307.584 
L 318.883441 302.5944 
L 316.947132 302.5944 
z
" style="fill:#fa9ba4;opacity:0.2;"/>
   </g>
   <g id="patch_116">
    <path clip-path="url(#p5995cb78c3)" d="M 319.098587 307.584 
L 321.034896 307.584 
L 321.034896 294.2784 
L 319.098587 294.2784 
z
" style="fill:#fa9ba4;opacity:0.2;"/>
   </g>
   <g id="patch_117">
    <path clip-path="url(#p5995cb78c3)" d="M 321.250042 307.584 
L 323.186351 307.584 
L 323.186351 290.952 
L 321.250042 290.952 
z
" style="fill:#fa9ba4;opacity:0.2;"/>
   </g>
   <g id="patch_118">
    <path clip-path="url(#p5995cb78c3)" d="M 323.401496 307.584 
L 325.337806 307.584 
L 325.337806 289.2888 
L 323.401496 289.2888 
z
" style="fill:#fa9ba4;opacity:0.2;"/>
   </g>
   <g id="patch_119">
    <path clip-path="url(#p5995cb78c3)" d="M 325.552951 307.584 
L 327.489261 307.584 
L 327.489261 264.3408 
L 325.552951 264.3408 
z
" style="fill:#fa9ba4;opacity:0.2;"/>
   </g>
   <g id="patch_120">
    <path clip-path="url(#p5995cb78c3)" d="M 327.704406 307.584 
L 329.640716 307.584 
L 329.640716 247.7088 
L 327.704406 247.7088 
z
" style="fill:#fa9ba4;opacity:0.2;"/>
   </g>
   <g id="patch_121">
    <path clip-path="url(#p5995cb78c3)" d="M 329.855861 307.584 
L 331.792171 307.584 
L 331.792171 272.6568 
L 329.855861 272.6568 
z
" style="fill:#fa9ba4;opacity:0.2;"/>
   </g>
   <g id="patch_122">
    <path clip-path="url(#p5995cb78c3)" d="M 332.007316 307.584 
L 333.943626 307.584 
L 333.943626 302.5944 
L 332.007316 302.5944 
z
" style="fill:#fa9ba4;opacity:0.2;"/>
   </g>
   <g id="patch_123">
    <path clip-path="url(#p5995cb78c3)" d="M 334.158771 307.584 
L 336.09508 307.584 
L 336.09508 244.3824 
L 334.158771 244.3824 
z
" style="fill:#fa9ba4;opacity:0.2;"/>
   </g>
   <g id="patch_124">
    <path clip-path="url(#p5995cb78c3)" d="M 336.310226 307.584 
L 338.246535 307.584 
L 338.246535 264.3408 
L 336.310226 264.3408 
z
" style="fill:#fa9ba4;opacity:0.2;"/>
   </g>
   <g id="patch_125">
    <path clip-path="url(#p5995cb78c3)" d="M 338.461681 307.584 
L 340.39799 307.584 
L 340.39799 264.3408 
L 338.461681 264.3408 
z
" style="fill:#fa9ba4;opacity:0.2;"/>
   </g>
   <g id="patch_126">
    <path clip-path="url(#p5995cb78c3)" d="M 340.613136 307.584 
L 342.549445 307.584 
L 342.549445 267.6672 
L 340.613136 267.6672 
z
" style="fill:#fa9ba4;opacity:0.2;"/>
   </g>
   <g id="patch_127">
    <path clip-path="url(#p5995cb78c3)" d="M 342.764591 307.584 
L 344.7009 307.584 
L 344.7009 275.9832 
L 342.764591 275.9832 
z
" style="fill:#fa9ba4;opacity:0.2;"/>
   </g>
   <g id="patch_128">
    <path clip-path="url(#p5995cb78c3)" d="M 344.916046 307.584 
L 346.852355 307.584 
L 346.852355 212.7816 
L 344.916046 212.7816 
z
" style="fill:#fa9ba4;opacity:0.2;"/>
   </g>
   <g id="patch_129">
    <path clip-path="url(#p5995cb78c3)" d="M 347.0675 307.584 
L 349.00381 307.584 
L 349.00381 267.6672 
L 347.0675 267.6672 
z
" style="fill:#fa9ba4;opacity:0.2;"/>
   </g>
   <g id="patch_130">
    <path clip-path="url(#p5995cb78c3)" d="M 349.218955 307.584 
L 351.155265 307.584 
L 351.155265 256.0248 
L 349.218955 256.0248 
z
" style="fill:#fa9ba4;opacity:0.2;"/>
   </g>
   <g id="patch_131">
    <path clip-path="url(#p5995cb78c3)" d="M 351.37041 307.584 
L 353.30672 307.584 
L 353.30672 239.3928 
L 351.37041 239.3928 
z
" style="fill:#fa9ba4;opacity:0.2;"/>
   </g>
   <g id="patch_132">
    <path clip-path="url(#p5995cb78c3)" d="M 353.521865 307.584 
L 355.458175 307.584 
L 355.458175 209.4552 
L 353.521865 209.4552 
z
" style="fill:#fa9ba4;opacity:0.2;"/>
   </g>
   <g id="patch_133">
    <path clip-path="url(#p5995cb78c3)" d="M 355.67332 307.584 
L 357.609629 307.584 
L 357.609629 214.4448 
L 355.67332 214.4448 
z
" style="fill:#fa9ba4;opacity:0.2;"/>
   </g>
   <g id="patch_134">
    <path clip-path="url(#p5995cb78c3)" d="M 357.824775 307.584 
L 359.761084 307.584 
L 359.761084 307.584 
L 357.824775 307.584 
z
" style="fill:#fa9ba4;opacity:0.2;"/>
   </g>
   <g id="patch_135">
    <path clip-path="url(#p5995cb78c3)" d="M 359.97623 307.584 
L 361.912539 307.584 
L 361.912539 152.9064 
L 359.97623 152.9064 
z
" style="fill:#fa9ba4;opacity:0.2;"/>
   </g>
   <g id="patch_136">
    <path clip-path="url(#p5995cb78c3)" d="M 362.127685 307.584 
L 364.063994 307.584 
L 364.063994 212.7816 
L 362.127685 212.7816 
z
" style="fill:#fa9ba4;opacity:0.2;"/>
   </g>
   <g id="patch_137">
    <path clip-path="url(#p5995cb78c3)" d="M 364.27914 307.584 
L 366.215449 307.584 
L 366.215449 172.8648 
L 364.27914 172.8648 
z
" style="fill:#fa9ba4;opacity:0.2;"/>
   </g>
   <g id="patch_138">
    <path clip-path="url(#p5995cb78c3)" d="M 366.430595 307.584 
L 368.366904 307.584 
L 368.366904 249.372 
L 366.430595 249.372 
z
" style="fill:#fa9ba4;opacity:0.2;"/>
   </g>
   <g id="patch_139">
    <path clip-path="url(#p5995cb78c3)" d="M 368.58205 307.584 
L 370.518359 307.584 
L 370.518359 201.1392 
L 368.58205 201.1392 
z
" style="fill:#fa9ba4;opacity:0.2;"/>
   </g>
   <g id="patch_140">
    <path clip-path="url(#p5995cb78c3)" d="M 370.733504 307.584 
L 372.669814 307.584 
L 372.669814 204.4656 
L 370.733504 204.4656 
z
" style="fill:#fa9ba4;opacity:0.2;"/>
   </g>
   <g id="patch_141">
    <path clip-path="url(#p5995cb78c3)" d="M 372.884959 307.584 
L 374.821269 307.584 
L 374.821269 222.7608 
L 372.884959 222.7608 
z
" style="fill:#fa9ba4;opacity:0.2;"/>
   </g>
   <g id="patch_142">
    <path clip-path="url(#p5995cb78c3)" d="M 375.036414 307.584 
L 376.972724 307.584 
L 376.972724 266.004 
L 375.036414 266.004 
z
" style="fill:#fa9ba4;opacity:0.2;"/>
   </g>
   <g id="patch_143">
    <path clip-path="url(#p5995cb78c3)" d="M 377.187869 307.584 
L 379.124179 307.584 
L 379.124179 224.424 
L 377.187869 224.424 
z
" style="fill:#fa9ba4;opacity:0.2;"/>
   </g>
   <g id="patch_144">
    <path clip-path="url(#p5995cb78c3)" d="M 379.339324 307.584 
L 381.275633 307.584 
L 381.275633 256.0248 
L 379.339324 256.0248 
z
" style="fill:#fa9ba4;opacity:0.2;"/>
   </g>
   <g id="patch_145">
    <path clip-path="url(#p5995cb78c3)" d="M 381.490779 307.584 
L 383.427088 307.584 
L 383.427088 242.7192 
L 381.490779 242.7192 
z
" style="fill:#fa9ba4;opacity:0.2;"/>
   </g>
   <g id="patch_146">
    <path clip-path="url(#p5995cb78c3)" d="M 383.642234 307.584 
L 385.578543 307.584 
L 385.578543 152.9064 
L 383.642234 152.9064 
z
" style="fill:#fa9ba4;opacity:0.2;"/>
   </g>
   <g id="patch_147">
    <path clip-path="url(#p5995cb78c3)" d="M 385.793689 307.584 
L 387.729998 307.584 
L 387.729998 256.0248 
L 385.793689 256.0248 
z
" style="fill:#fa9ba4;opacity:0.2;"/>
   </g>
   <g id="patch_148">
    <path clip-path="url(#p5995cb78c3)" d="M 387.945144 307.584 
L 389.881453 307.584 
L 389.881453 199.476 
L 387.945144 199.476 
z
" style="fill:#fa9ba4;opacity:0.2;"/>
   </g>
   <g id="patch_149">
    <path clip-path="url(#p5995cb78c3)" d="M 390.096599 307.584 
L 392.032908 307.584 
L 392.032908 41.472 
L 390.096599 41.472 
z
" style="fill:#fa9ba4;opacity:0.2;"/>
   </g>
   <g id="patch_150">
    <path clip-path="url(#p5995cb78c3)" d="M 392.248053 307.584 
L 394.184363 307.584 
L 394.184363 259.3512 
L 392.248053 259.3512 
z
" style="fill:#fa9ba4;opacity:0.2;"/>
   </g>
   <g id="patch_151">
    <path clip-path="url(#p5995cb78c3)" d="M 394.399508 307.584 
L 396.335818 307.584 
L 396.335818 132.948 
L 394.399508 132.948 
z
" style="fill:#fa9ba4;opacity:0.2;"/>
   </g>
   <g id="patch_152">
    <path clip-path="url(#p5995cb78c3)" d="M 396.550963 307.584 
L 398.487273 307.584 
L 398.487273 307.584 
L 396.550963 307.584 
z
" style="fill:#fa9ba4;opacity:0.2;"/>
   </g>
   <g id="matplotlib.axis_1"/>
   <g id="matplotlib.axis_2"/>
   <g id="PolyCollection_1">
    <defs>
     <path d="M 369.550204 -129.7296 
L 369.550204 -38.016 
L 371.701659 -38.016 
L 373.853114 -38.016 
L 376.004569 -38.016 
L 378.156024 -38.016 
L 380.307479 -38.016 
L 382.458934 -38.016 
L 384.610389 -38.016 
L 386.761843 -38.016 
L 388.913298 -38.016 
L 391.064753 -38.016 
L 393.216208 -38.016 
L 395.367663 -38.016 
L 397.519118 -38.016 
L 397.519118 -152.7768 
L 397.519118 -152.7768 
L 395.367663 -162.0432 
L 393.216208 -144.4608 
L 391.064753 -149.4504 
L 388.913298 -117.3744 
L 386.761843 -114.048 
L 384.610389 -121.4136 
L 382.458934 -114.5232 
L 380.307479 -113.5728 
L 378.156024 -125.4528 
L 376.004569 -127.116 
L 373.853114 -143.2728 
L 371.701659 -131.1552 
L 369.550204 -129.7296 
z
" id="m3b1cb8964c" style="stroke:#dc3545;stroke-opacity:0.5;"/>
    </defs>
    <g clip-path="url(#p5995cb78c3)">
     <use style="fill:#dc3545;fill-opacity:0.5;stroke:#dc3545;stroke-opacity:0.5;" x="0" xlink:href="#m3b1cb8964c" y="345.6"/>
    </g>
   </g>
   <g id="PolyCollection_2">
    <defs>
     <path d="M 87.709611 -38.016 
L 87.709611 -38.016 
L 89.861066 -38.016 
L 92.012521 -38.016 
L 94.163976 -38.016 
L 96.315431 -38.016 
L 98.466886 -38.016 
L 100.618341 -38.016 
L 102.769796 -38.016 
L 104.921251 -38.016 
L 107.072706 -38.016 
L 109.22416 -38.016 
L 111.375615 -38.016 
L 113.52707 -38.016 
L 115.678525 -38.016 
L 117.82998 -38.016 
L 119.981435 -38.016 
L 122.13289 -38.016 
L 124.284345 -38.016 
L 126.4358 -38.016 
L 128.587255 -38.016 
L 130.73871 -38.016 
L 132.890164 -38.016 
L 135.041619 -38.016 
L 137.193074 -38.016 
L 139.344529 -38.016 
L 141.495984 -38.016 
L 143.647439 -38.016 
L 145.798894 -38.016 
L 147.950349 -38.016 
L 150.101804 -38.016 
L 152.253259 -38.016 
L 154.404714 -38.016 
L 156.556168 -38.016 
L 158.707623 -38.016 
L 160.859078 -38.016 
L 163.010533 -38.016 
L 165.161988 -38.016 
L 167.313443 -38.016 
L 169.464898 -38.016 
L 171.616353 -38.016 
L 173.767808 -38.016 
L 175.919263 -38.016 
L 178.070718 -38.016 
L 180.222172 -38.016 
L 182.373627 -38.016 
L 184.525082 -38.016 
L 186.676537 -38.016 
L 188.827992 -38.016 
L 190.979447 -38.016 
L 193.130902 -38.016 
L 195.282357 -38.016 
L 197.433812 -38.016 
L 199.585267 -38.016 
L 201.736721 -38.016 
L 203.888176 -38.016 
L 206.039631 -38.016 
L 208.191086 -38.016 
L 210.342541 -38.016 
L 212.493996 -38.016 
L 214.645451 -38.016 
L 216.796906 -38.016 
L 218.948361 -38.016 
L 221.099816 -38.016 
L 223.251271 -38.016 
L 225.402725 -38.016 
L 227.55418 -38.016 
L 229.705635 -38.016 
L 231.85709 -38.016 
L 234.008545 -38.016 
L 236.16 -38.016 
L 238.311455 -38.016 
L 240.46291 -38.016 
L 242.614365 -38.016 
L 244.76582 -38.016 
L 246.917275 -38.016 
L 249.068729 -38.016 
L 251.220184 -38.016 
L 253.371639 -38.016 
L 255.523094 -38.016 
L 257.674549 -38.016 
L 259.826004 -38.016 
L 261.977459 -38.016 
L 264.128914 -38.016 
L 266.280369 -38.016 
L 268.431824 -38.016 
L 270.583279 -38.016 
L 272.734733 -38.016 
L 274.886188 -38.016 
L 277.037643 -38.016 
L 279.189098 -38.016 
L 281.340553 -38.016 
L 283.492008 -38.016 
L 285.643463 -38.016 
L 287.794918 -38.016 
L 289.946373 -38.016 
L 292.097828 -38.016 
L 294.249282 -38.016 
L 296.400737 -38.016 
L 298.552192 -38.016 
L 300.703647 -38.016 
L 302.855102 -38.016 
L 305.006557 -38.016 
L 307.158012 -38.016 
L 309.309467 -38.016 
L 311.460922 -38.016 
L 313.612377 -38.016 
L 315.763832 -38.016 
L 317.915286 -38.016 
L 320.066741 -38.016 
L 322.218196 -38.016 
L 324.369651 -38.016 
L 326.521106 -38.016 
L 328.672561 -38.016 
L 330.824016 -38.016 
L 332.975471 -38.016 
L 335.126926 -38.016 
L 337.278381 -38.016 
L 339.429836 -38.016 
L 341.58129 -38.016 
L 343.732745 -38.016 
L 345.8842 -38.016 
L 348.035655 -38.016 
L 350.18711 -38.016 
L 352.338565 -38.016 
L 354.49002 -38.016 
L 356.641475 -38.016 
L 358.79293 -38.016 
L 360.944385 -38.016 
L 363.09584 -38.016 
L 365.247294 -38.016 
L 367.398749 -38.016 
L 369.550204 -38.016 
L 369.550204 -129.7296 
L 369.550204 -129.7296 
L 367.398749 -128.5416 
L 365.247294 -129.9672 
L 363.09584 -118.0872 
L 360.944385 -110.2464 
L 358.79293 -101.6928 
L 356.641475 -106.2072 
L 354.49002 -98.604 
L 352.338565 -90.7632 
L 350.18711 -87.1992 
L 348.035655 -88.8624 
L 345.8842 -83.8728 
L 343.732745 -75.3192 
L 341.58129 -79.3584 
L 339.429836 -79.8336 
L 337.278381 -76.2696 
L 335.126926 -72.468 
L 332.975471 -65.34 
L 330.824016 -65.34 
L 328.672561 -60.8256 
L 326.521106 -52.7472 
L 324.369651 -47.0448 
L 322.218196 -45.144 
L 320.066741 -42.768 
L 317.915286 -40.8672 
L 315.763832 -40.1544 
L 313.612377 -39.6792 
L 311.460922 -39.204 
L 309.309467 -39.204 
L 307.158012 -38.7288 
L 305.006557 -38.9664 
L 302.855102 -39.204 
L 300.703647 -39.9168 
L 298.552192 -40.1544 
L 296.400737 -41.58 
L 294.249282 -44.1936 
L 292.097828 -46.0944 
L 289.946373 -47.0448 
L 287.794918 -47.2824 
L 285.643463 -46.8072 
L 283.492008 -47.52 
L 281.340553 -46.332 
L 279.189098 -46.0944 
L 277.037643 -45.3816 
L 274.886188 -48.9456 
L 272.734733 -48.4704 
L 270.583279 -50.1336 
L 268.431824 -49.896 
L 266.280369 -50.1336 
L 264.128914 -47.9952 
L 261.977459 -47.52 
L 259.826004 -44.6688 
L 257.674549 -44.9064 
L 255.523094 -44.9064 
L 253.371639 -46.0944 
L 251.220184 -53.9352 
L 249.068729 -55.836 
L 246.917275 -58.212 
L 244.76582 -56.3112 
L 242.614365 -60.3504 
L 240.46291 -60.1128 
L 238.311455 -64.8648 
L 236.16 -60.8256 
L 234.008545 -62.2512 
L 231.85709 -64.8648 
L 229.705635 -69.8544 
L 227.55418 -76.5072 
L 225.402725 -94.3272 
L 223.251271 -99.0792 
L 221.099816 -106.6824 
L 218.948361 -117.8496 
L 216.796906 -112.1472 
L 214.645451 -120.4632 
L 212.493996 -109.5336 
L 210.342541 -90.288 
L 208.191086 -78.8832 
L 206.039631 -67.9536 
L 203.888176 -52.7472 
L 201.736721 -52.5096 
L 199.585267 -39.204 
L 197.433812 -39.204 
L 195.282357 -38.9664 
L 193.130902 -38.9664 
L 190.979447 -38.016 
L 188.827992 -38.2536 
L 186.676537 -38.2536 
L 184.525082 -38.2536 
L 182.373627 -38.2536 
L 180.222172 -38.4912 
L 178.070718 -38.9664 
L 175.919263 -38.9664 
L 173.767808 -38.7288 
L 171.616353 -38.7288 
L 169.464898 -40.1544 
L 167.313443 -41.1048 
L 165.161988 -41.1048 
L 163.010533 -40.6296 
L 160.859078 -40.8672 
L 158.707623 -40.8672 
L 156.556168 -41.8176 
L 154.404714 -40.8672 
L 152.253259 -40.1544 
L 150.101804 -43.4808 
L 147.950349 -44.6688 
L 145.798894 -44.6688 
L 143.647439 -46.332 
L 141.495984 -45.6192 
L 139.344529 -45.3816 
L 137.193074 -46.5696 
L 135.041619 -43.956 
L 132.890164 -42.768 
L 130.73871 -44.6688 
L 128.587255 -43.0056 
L 126.4358 -43.4808 
L 124.284345 -43.7184 
L 122.13289 -42.5304 
L 119.981435 -41.58 
L 117.82998 -41.8176 
L 115.678525 -40.1544 
L 113.52707 -40.392 
L 111.375615 -39.9168 
L 109.22416 -39.9168 
L 107.072706 -40.1544 
L 104.921251 -40.392 
L 102.769796 -40.6296 
L 100.618341 -40.1544 
L 98.466886 -39.9168 
L 96.315431 -39.6792 
L 94.163976 -39.204 
L 92.012521 -38.7288 
L 89.861066 -38.4912 
L 87.709611 -38.016 
z
" id="mbba2fd9070" style="stroke:#fa9ba4;stroke-opacity:0.3;"/>
    </defs>
    <g clip-path="url(#p5995cb78c3)">
     <use style="fill:#fa9ba4;fill-opacity:0.3;stroke:#fa9ba4;stroke-opacity:0.3;" x="0" xlink:href="#mbba2fd9070" y="345.6"/>
    </g>
   </g>
   <g id="line2d_1">
    <path clip-path="url(#p5995cb78c3)" d="M 87.709611 307.584 
L 89.861066 307.1088 
L 92.012521 306.8712 
L 96.315431 305.9208 
L 100.618341 305.4456 
L 102.769796 304.9704 
L 109.22416 305.6832 
L 111.375615 305.6832 
L 113.52707 305.208 
L 115.678525 305.4456 
L 117.82998 303.7824 
L 119.981435 304.02 
L 122.13289 303.0696 
L 124.284345 301.8816 
L 126.4358 302.1192 
L 128.587255 302.5944 
L 130.73871 300.9312 
L 132.890164 302.832 
L 135.041619 301.644 
L 137.193074 299.0304 
L 139.344529 300.2184 
L 141.495984 299.9808 
L 143.647439 299.268 
L 145.798894 300.9312 
L 147.950349 300.9312 
L 150.101804 302.1192 
L 152.253259 305.4456 
L 154.404714 304.7328 
L 156.556168 303.7824 
L 158.707623 304.7328 
L 160.859078 304.7328 
L 163.010533 304.9704 
L 165.161988 304.4952 
L 167.313443 304.4952 
L 169.464898 305.4456 
L 171.616353 306.8712 
L 173.767808 306.8712 
L 175.919263 306.6336 
L 178.070718 306.6336 
L 180.222172 307.1088 
L 182.373627 307.3464 
L 188.827992 307.3464 
L 190.979447 307.584 
L 193.130902 306.6336 
L 195.282357 306.6336 
L 197.433812 306.396 
L 199.585267 306.396 
L 201.736721 293.0904 
L 203.888176 292.8528 
L 206.039631 277.6464 
L 210.342541 255.312 
L 212.493996 236.0664 
L 214.645451 225.1368 
L 216.796906 233.4528 
L 218.948361 227.7504 
L 221.099816 238.9176 
L 223.251271 246.5208 
L 225.402725 251.2728 
L 227.55418 269.0928 
L 229.705635 275.7456 
L 231.85709 280.7352 
L 234.008545 283.3488 
L 236.16 284.7744 
L 238.311455 280.7352 
L 240.46291 285.4872 
L 242.614365 285.2496 
L 244.76582 289.2888 
L 246.917275 287.388 
L 249.068729 289.764 
L 251.220184 291.6648 
L 253.371639 299.5056 
L 255.523094 300.6936 
L 257.674549 300.6936 
L 259.826004 300.9312 
L 261.977459 298.08 
L 264.128914 297.6048 
L 266.280369 295.4664 
L 268.431824 295.704 
L 270.583279 295.4664 
L 272.734733 297.1296 
L 274.886188 296.6544 
L 277.037643 300.2184 
L 279.189098 299.5056 
L 281.340553 299.268 
L 283.492008 298.08 
L 285.643463 298.7928 
L 287.794918 298.3176 
L 289.946373 298.5552 
L 292.097828 299.5056 
L 294.249282 301.4064 
L 296.400737 304.02 
L 298.552192 305.4456 
L 300.703647 305.6832 
L 302.855102 306.396 
L 307.158012 306.8712 
L 309.309467 306.396 
L 311.460922 306.396 
L 315.763832 305.4456 
L 317.915286 304.7328 
L 320.066741 302.832 
L 322.218196 300.456 
L 324.369651 298.5552 
L 326.521106 292.8528 
L 328.672561 284.7744 
L 330.824016 280.26 
L 332.975471 280.26 
L 335.126926 273.132 
L 337.278381 269.3304 
L 339.429836 265.7664 
L 341.58129 266.2416 
L 343.732745 270.2808 
L 345.8842 261.7272 
L 348.035655 256.7376 
L 350.18711 258.4008 
L 352.338565 254.8368 
L 356.641475 239.3928 
L 358.79293 243.9072 
L 360.944385 235.3536 
L 363.09584 227.5128 
L 365.247294 215.6328 
L 367.398749 217.0584 
L 369.550204 215.8704 
L 371.701659 214.4448 
L 373.853114 202.3272 
L 376.004569 218.484 
L 378.156024 220.1472 
L 380.307479 232.0272 
L 382.458934 231.0768 
L 384.610389 224.1864 
L 386.761843 231.552 
L 388.913298 228.2256 
L 391.064753 196.1496 
L 393.216208 201.1392 
L 395.367663 183.5568 
L 397.519118 192.8232 
L 397.519118 192.8232 
" style="fill:none;stroke:#fa9ba4;stroke-linecap:square;stroke-width:2;"/>
   </g>
   <g id="line2d_2">
    <path clip-path="url(#p5995cb78c3)" d="M 369.550204 215.8704 
L 371.701659 214.4448 
L 373.853114 202.3272 
L 376.004569 218.484 
L 378.156024 220.1472 
L 380.307479 232.0272 
L 382.458934 231.0768 
L 384.610389 224.1864 
L 386.761843 231.552 
L 388.913298 228.2256 
L 391.064753 196.1496 
L 393.216208 201.1392 
L 395.367663 183.5568 
L 397.519118 192.8232 
" style="fill:none;stroke:#dc3545;stroke-linecap:square;stroke-width:2;"/>
   </g>
  </g>
 </g>
 <defs>
  <clipPath id="p5995cb78c3">
   <rect height="266.112" width="357.12" x="57.6" y="41.472"/>
  </clipPath>
 </defs>
</svg>
