<?xml version="1.0" encoding="utf-8" standalone="no"?>
<!DOCTYPE svg PUBLIC "-//W3C//DTD SVG 1.1//EN"
  "http://www.w3.org/Graphics/SVG/1.1/DTD/svg11.dtd">
<!-- Created with matplotlib (https://matplotlib.org/) -->
<svg height="345.6pt" version="1.1" viewBox="0 0 460.8 345.6" width="460.8pt" xmlns="http://www.w3.org/2000/svg" xmlns:xlink="http://www.w3.org/1999/xlink">
 <defs>
  <style type="text/css">
*{stroke-linecap:butt;stroke-linejoin:round;}
  </style>
 </defs>
 <g id="figure_1">
  <g id="patch_1">
   <path d="M 0 345.6 
L 460.8 345.6 
L 460.8 0 
L 0 0 
z
" style="fill:none;"/>
  </g>
  <g id="axes_1">
   <g id="patch_2">
    <path clip-path="url(#p34e326d603)" d="M 73.832727 307.584 
L 82.713855 307.584 
L 82.713855 307.584 
L 73.832727 307.584 
z
" style="fill:#fa9ba4;opacity:0.2;"/>
   </g>
   <g id="patch_3">
    <path clip-path="url(#p34e326d603)" d="M 83.700647 307.584 
L 92.581774 307.584 
L 92.581774 307.584 
L 83.700647 307.584 
z
" style="fill:#fa9ba4;opacity:0.2;"/>
   </g>
   <g id="patch_4">
    <path clip-path="url(#p34e326d603)" d="M 93.568566 307.584 
L 102.449693 307.584 
L 102.449693 307.584 
L 93.568566 307.584 
z
" style="fill:#fa9ba4;opacity:0.2;"/>
   </g>
   <g id="patch_5">
    <path clip-path="url(#p34e326d603)" d="M 103.436485 307.584 
L 112.317613 307.584 
L 112.317613 307.584 
L 103.436485 307.584 
z
" style="fill:#fa9ba4;opacity:0.2;"/>
   </g>
   <g id="patch_6">
    <path clip-path="url(#p34e326d603)" d="M 113.304405 307.584 
L 122.185532 307.584 
L 122.185532 307.584 
L 113.304405 307.584 
z
" style="fill:#fa9ba4;opacity:0.2;"/>
   </g>
   <g id="patch_7">
    <path clip-path="url(#p34e326d603)" d="M 123.172324 307.584 
L 132.053451 307.584 
L 132.053451 307.584 
L 123.172324 307.584 
z
" style="fill:#fa9ba4;opacity:0.2;"/>
   </g>
   <g id="patch_8">
    <path clip-path="url(#p34e326d603)" d="M 133.040243 307.584 
L 141.921371 307.584 
L 141.921371 307.584 
L 133.040243 307.584 
z
" style="fill:#fa9ba4;opacity:0.2;"/>
   </g>
   <g id="patch_9">
    <path clip-path="url(#p34e326d603)" d="M 142.908162 307.584 
L 151.78929 307.584 
L 151.78929 272.1024 
L 142.908162 272.1024 
z
" style="fill:#fa9ba4;opacity:0.2;"/>
   </g>
   <g id="patch_10">
    <path clip-path="url(#p34e326d603)" d="M 152.776082 307.584 
L 161.657209 307.584 
L 161.657209 289.8432 
L 152.776082 289.8432 
z
" style="fill:#fa9ba4;opacity:0.2;"/>
   </g>
   <g id="patch_11">
    <path clip-path="url(#p34e326d603)" d="M 162.644001 307.584 
L 171.525128 307.584 
L 171.525128 272.1024 
L 162.644001 272.1024 
z
" style="fill:#fa9ba4;opacity:0.2;"/>
   </g>
   <g id="patch_12">
    <path clip-path="url(#p34e326d603)" d="M 172.51192 307.584 
L 181.393048 307.584 
L 181.393048 272.1024 
L 172.51192 272.1024 
z
" style="fill:#fa9ba4;opacity:0.2;"/>
   </g>
   <g id="patch_13">
    <path clip-path="url(#p34e326d603)" d="M 182.37984 307.584 
L 191.260967 307.584 
L 191.260967 289.8432 
L 182.37984 289.8432 
z
" style="fill:#fa9ba4;opacity:0.2;"/>
   </g>
   <g id="patch_14">
    <path clip-path="url(#p34e326d603)" d="M 192.247759 307.584 
L 201.128886 307.584 
L 201.128886 289.8432 
L 192.247759 289.8432 
z
" style="fill:#fa9ba4;opacity:0.2;"/>
   </g>
   <g id="patch_15">
    <path clip-path="url(#p34e326d603)" d="M 202.115678 307.584 
L 210.996806 307.584 
L 210.996806 272.1024 
L 202.115678 272.1024 
z
" style="fill:#fa9ba4;opacity:0.2;"/>
   </g>
   <g id="patch_16">
    <path clip-path="url(#p34e326d603)" d="M 211.983598 307.584 
L 220.864725 307.584 
L 220.864725 289.8432 
L 211.983598 289.8432 
z
" style="fill:#fa9ba4;opacity:0.2;"/>
   </g>
   <g id="patch_17">
    <path clip-path="url(#p34e326d603)" d="M 221.851517 307.584 
L 230.732644 307.584 
L 230.732644 307.584 
L 221.851517 307.584 
z
" style="fill:#fa9ba4;opacity:0.2;"/>
   </g>
   <g id="patch_18">
    <path clip-path="url(#p34e326d603)" d="M 231.719436 307.584 
L 240.600564 307.584 
L 240.600564 289.8432 
L 231.719436 289.8432 
z
" style="fill:#fa9ba4;opacity:0.2;"/>
   </g>
   <g id="patch_19">
    <path clip-path="url(#p34e326d603)" d="M 241.587356 307.584 
L 250.468483 307.584 
L 250.468483 272.1024 
L 241.587356 272.1024 
z
" style="fill:#fa9ba4;opacity:0.2;"/>
   </g>
   <g id="patch_20">
    <path clip-path="url(#p34e326d603)" d="M 251.455275 307.584 
L 260.336402 307.584 
L 260.336402 254.3616 
L 251.455275 254.3616 
z
" style="fill:#fa9ba4;opacity:0.2;"/>
   </g>
   <g id="patch_21">
    <path clip-path="url(#p34e326d603)" d="M 261.323194 307.584 
L 270.204322 307.584 
L 270.204322 307.584 
L 261.323194 307.584 
z
" style="fill:#fa9ba4;opacity:0.2;"/>
   </g>
   <g id="patch_22">
    <path clip-path="url(#p34e326d603)" d="M 271.191114 307.584 
L 280.072241 307.584 
L 280.072241 147.9168 
L 271.191114 147.9168 
z
" style="fill:#fa9ba4;opacity:0.2;"/>
   </g>
   <g id="patch_23">
    <path clip-path="url(#p34e326d603)" d="M 281.059033 307.584 
L 289.94016 307.584 
L 289.94016 307.584 
L 281.059033 307.584 
z
" style="fill:#fa9ba4;opacity:0.2;"/>
   </g>
   <g id="patch_24">
    <path clip-path="url(#p34e326d603)" d="M 290.926952 307.584 
L 299.80808 307.584 
L 299.80808 236.6208 
L 290.926952 236.6208 
z
" style="fill:#fa9ba4;opacity:0.2;"/>
   </g>
   <g id="patch_25">
    <path clip-path="url(#p34e326d603)" d="M 300.794872 307.584 
L 309.675999 307.584 
L 309.675999 201.1392 
L 300.794872 201.1392 
z
" style="fill:#fa9ba4;opacity:0.2;"/>
   </g>
   <g id="patch_26">
    <path clip-path="url(#p34e326d603)" d="M 310.662791 307.584 
L 319.543918 307.584 
L 319.543918 289.8432 
L 310.662791 289.8432 
z
" style="fill:#fa9ba4;opacity:0.2;"/>
   </g>
   <g id="patch_27">
    <path clip-path="url(#p34e326d603)" d="M 320.53071 307.584 
L 329.411838 307.584 
L 329.411838 289.8432 
L 320.53071 289.8432 
z
" style="fill:#fa9ba4;opacity:0.2;"/>
   </g>
   <g id="patch_28">
    <path clip-path="url(#p34e326d603)" d="M 330.398629 307.584 
L 339.279757 307.584 
L 339.279757 183.3984 
L 330.398629 183.3984 
z
" style="fill:#fa9ba4;opacity:0.2;"/>
   </g>
   <g id="patch_29">
    <path clip-path="url(#p34e326d603)" d="M 340.266549 307.584 
L 349.147676 307.584 
L 349.147676 289.8432 
L 340.266549 289.8432 
z
" style="fill:#fa9ba4;opacity:0.2;"/>
   </g>
   <g id="patch_30">
    <path clip-path="url(#p34e326d603)" d="M 350.134468 307.584 
L 359.015595 307.584 
L 359.015595 218.88 
L 350.134468 218.88 
z
" style="fill:#fa9ba4;opacity:0.2;"/>
   </g>
   <g id="patch_31">
    <path clip-path="url(#p34e326d603)" d="M 360.002387 307.584 
L 368.883515 307.584 
L 368.883515 41.472 
L 360.002387 41.472 
z
" style="fill:#fa9ba4;opacity:0.2;"/>
   </g>
   <g id="patch_32">
    <path clip-path="url(#p34e326d603)" d="M 369.870307 307.584 
L 378.751434 307.584 
L 378.751434 289.8432 
L 369.870307 289.8432 
z
" style="fill:#fa9ba4;opacity:0.2;"/>
   </g>
   <g id="patch_33">
    <path clip-path="url(#p34e326d603)" d="M 379.738226 307.584 
L 388.619353 307.584 
L 388.619353 272.1024 
L 379.738226 272.1024 
z
" style="fill:#fa9ba4;opacity:0.2;"/>
   </g>
   <g id="patch_34">
    <path clip-path="url(#p34e326d603)" d="M 389.606145 307.584 
L 398.487273 307.584 
L 398.487273 236.6208 
L 389.606145 236.6208 
z
" style="fill:#fa9ba4;opacity:0.2;"/>
   </g>
   <g id="matplotlib.axis_1"/>
   <g id="matplotlib.axis_2"/>
   <g id="PolyCollection_1">
    <defs>
     <path d="M 265.763758 -60.8256 
L 265.763758 -38.016 
L 275.631677 -38.016 
L 285.499597 -38.016 
L 295.367516 -38.016 
L 305.235435 -38.016 
L 315.103355 -38.016 
L 324.971274 -38.016 
L 334.839193 -38.016 
L 344.707112 -38.016 
L 354.575032 -38.016 
L 364.442951 -38.016 
L 374.31087 -38.016 
L 384.17879 -38.016 
L 394.046709 -38.016 
L 394.046709 -126.72 
L 394.046709 -126.72 
L 384.17879 -119.1168 
L 374.31087 -116.5824 
L 364.442951 -129.2544 
L 354.575032 -101.376 
L 344.707112 -88.704 
L 334.839193 -108.9792 
L 324.971274 -91.2384 
L 315.103355 -96.3072 
L 305.235435 -98.8416 
L 295.367516 -86.1696 
L 285.499597 -76.032 
L 275.631677 -78.5664 
L 265.763758 -60.8256 
z
" id="m72b0357c0f" style="stroke:#dc3545;stroke-opacity:0.5;"/>
    </defs>
    <g clip-path="url(#p34e326d603)">
     <use style="fill:#dc3545;fill-opacity:0.5;stroke:#dc3545;stroke-opacity:0.5;" x="0" xlink:href="#m72b0357c0f" y="345.6"/>
    </g>
   </g>
   <g id="PolyCollection_2">
    <defs>
     <path d="M 137.480807 -38.016 
L 137.480807 -38.016 
L 147.348726 -38.016 
L 157.216645 -38.016 
L 167.084565 -38.016 
L 176.952484 -38.016 
L 186.820403 -38.016 
L 196.688323 -38.016 
L 206.556242 -38.016 
L 216.424161 -38.016 
L 226.292081 -38.016 
L 236.16 -38.016 
L 246.027919 -38.016 
L 255.895839 -38.016 
L 265.763758 -38.016 
L 265.763758 -60.8256 
L 265.763758 -60.8256 
L 255.895839 -63.36 
L 246.027919 -58.2912 
L 236.16 -58.2912 
L 226.292081 -60.8256 
L 216.424161 -63.36 
L 206.556242 -65.8944 
L 196.688323 -60.8256 
L 186.820403 -58.2912 
L 176.952484 -55.7568 
L 167.084565 -50.688 
L 157.216645 -45.6192 
L 147.348726 -43.0848 
L 137.480807 -38.016 
z
" id="mda5e6152d5" style="stroke:#fa9ba4;stroke-opacity:0.3;"/>
    </defs>
    <g clip-path="url(#p34e326d603)">
     <use style="fill:#fa9ba4;fill-opacity:0.3;stroke:#fa9ba4;stroke-opacity:0.3;" x="0" xlink:href="#mda5e6152d5" y="345.6"/>
    </g>
   </g>
   <g id="line2d_1">
    <path clip-path="url(#p34e326d603)" d="M 137.480807 307.584 
L 147.348726 302.5152 
L 157.216645 299.9808 
L 167.084565 294.912 
L 176.952484 289.8432 
L 186.820403 287.3088 
L 196.688323 284.7744 
L 206.556242 279.7056 
L 216.424161 282.24 
L 226.292081 284.7744 
L 236.16 287.3088 
L 246.027919 287.3088 
L 255.895839 282.24 
L 265.763758 284.7744 
L 275.631677 267.0336 
L 285.499597 269.568 
L 295.367516 259.4304 
L 305.235435 246.7584 
L 315.103355 249.2928 
L 324.971274 254.3616 
L 334.839193 236.6208 
L 344.707112 256.896 
L 354.575032 244.224 
L 364.442951 216.3456 
L 374.31087 229.0176 
L 384.17879 226.4832 
L 394.046709 218.88 
" style="fill:none;stroke:#fa9ba4;stroke-linecap:square;stroke-width:2;"/>
   </g>
   <g id="line2d_2">
    <path clip-path="url(#p34e326d603)" d="M 265.763758 284.7744 
L 275.631677 267.0336 
L 285.499597 269.568 
L 295.367516 259.4304 
L 305.235435 246.7584 
L 315.103355 249.2928 
L 324.971274 254.3616 
L 334.839193 236.6208 
L 344.707112 256.896 
L 354.575032 244.224 
L 364.442951 216.3456 
L 374.31087 229.0176 
L 384.17879 226.4832 
L 394.046709 218.88 
" style="fill:none;stroke:#dc3545;stroke-linecap:square;stroke-width:2;"/>
   </g>
  </g>
 </g>
 <defs>
  <clipPath id="p34e326d603">
   <rect height="266.112" width="357.12" x="57.6" y="41.472"/>
  </clipPath>
 </defs>
</svg>
