<?xml version="1.0" encoding="utf-8" standalone="no"?>
<!DOCTYPE svg PUBLIC "-//W3C//DTD SVG 1.1//EN"
  "http://www.w3.org/Graphics/SVG/1.1/DTD/svg11.dtd">
<!-- Created with matplotlib (https://matplotlib.org/) -->
<svg height="345.6pt" version="1.1" viewBox="0 0 460.8 345.6" width="460.8pt" xmlns="http://www.w3.org/2000/svg" xmlns:xlink="http://www.w3.org/1999/xlink">
 <defs>
  <style type="text/css">
*{stroke-linecap:butt;stroke-linejoin:round;}
  </style>
 </defs>
 <g id="figure_1">
  <g id="patch_1">
   <path d="M 0 345.6 
L 460.8 345.6 
L 460.8 0 
L 0 0 
z
" style="fill:none;"/>
  </g>
  <g id="axes_1">
   <g id="patch_2">
    <path clip-path="url(#p9689da0454)" d="M 73.832727 307.584 
L 83.604938 307.584 
L 83.604938 307.584 
L 73.832727 307.584 
z
" style="fill:#fa9ba4;opacity:0.6;"/>
   </g>
   <g id="patch_3">
    <path clip-path="url(#p9689da0454)" d="M 84.690739 307.584 
L 94.462949 307.584 
L 94.462949 307.584 
L 84.690739 307.584 
z
" style="fill:#fa9ba4;opacity:0.6;"/>
   </g>
   <g id="patch_4">
    <path clip-path="url(#p9689da0454)" d="M 95.54875 307.584 
L 105.320961 307.584 
L 105.320961 307.584 
L 95.54875 307.584 
z
" style="fill:#fa9ba4;opacity:0.6;"/>
   </g>
   <g id="patch_5">
    <path clip-path="url(#p9689da0454)" d="M 106.406762 307.584 
L 116.178972 307.584 
L 116.178972 307.584 
L 106.406762 307.584 
z
" style="fill:#fa9ba4;opacity:0.6;"/>
   </g>
   <g id="patch_6">
    <path clip-path="url(#p9689da0454)" d="M 117.264773 307.584 
L 127.036984 307.584 
L 127.036984 307.584 
L 117.264773 307.584 
z
" style="fill:#fa9ba4;opacity:0.6;"/>
   </g>
   <g id="patch_7">
    <path clip-path="url(#p9689da0454)" d="M 128.122785 307.584 
L 137.894995 307.584 
L 137.894995 307.584 
L 128.122785 307.584 
z
" style="fill:#fa9ba4;opacity:0.6;"/>
   </g>
   <g id="patch_8">
    <path clip-path="url(#p9689da0454)" d="M 138.980797 307.584 
L 148.753007 307.584 
L 148.753007 307.584 
L 138.980797 307.584 
z
" style="fill:#fa9ba4;opacity:0.6;"/>
   </g>
   <g id="patch_9">
    <path clip-path="url(#p9689da0454)" d="M 149.838808 307.584 
L 159.611019 307.584 
L 159.611019 307.584 
L 149.838808 307.584 
z
" style="fill:#fa9ba4;opacity:0.6;"/>
   </g>
   <g id="patch_10">
    <path clip-path="url(#p9689da0454)" d="M 160.69682 307.584 
L 170.46903 307.584 
L 170.46903 307.584 
L 160.69682 307.584 
z
" style="fill:#fa9ba4;opacity:0.6;"/>
   </g>
   <g id="patch_11">
    <path clip-path="url(#p9689da0454)" d="M 171.554831 307.584 
L 181.327042 307.584 
L 181.327042 307.584 
L 171.554831 307.584 
z
" style="fill:#fa9ba4;opacity:0.6;"/>
   </g>
   <g id="patch_12">
    <path clip-path="url(#p9689da0454)" d="M 182.412843 307.584 
L 192.185053 307.584 
L 192.185053 307.584 
L 182.412843 307.584 
z
" style="fill:#fa9ba4;opacity:0.6;"/>
   </g>
   <g id="patch_13">
    <path clip-path="url(#p9689da0454)" d="M 193.270854 307.584 
L 203.043065 307.584 
L 203.043065 307.584 
L 193.270854 307.584 
z
" style="fill:#fa9ba4;opacity:0.6;"/>
   </g>
   <g id="patch_14">
    <path clip-path="url(#p9689da0454)" d="M 204.128866 307.584 
L 213.901076 307.584 
L 213.901076 307.584 
L 204.128866 307.584 
z
" style="fill:#fa9ba4;opacity:0.6;"/>
   </g>
   <g id="patch_15">
    <path clip-path="url(#p9689da0454)" d="M 214.986877 307.584 
L 224.759088 307.584 
L 224.759088 307.584 
L 214.986877 307.584 
z
" style="fill:#fa9ba4;opacity:0.6;"/>
   </g>
   <g id="patch_16">
    <path clip-path="url(#p9689da0454)" d="M 225.844889 307.584 
L 235.617099 307.584 
L 235.617099 307.584 
L 225.844889 307.584 
z
" style="fill:#fa9ba4;opacity:0.6;"/>
   </g>
   <g id="patch_17">
    <path clip-path="url(#p9689da0454)" d="M 236.702901 307.584 
L 246.475111 307.584 
L 246.475111 307.584 
L 236.702901 307.584 
z
" style="fill:#fa9ba4;opacity:0.6;"/>
   </g>
   <g id="patch_18">
    <path clip-path="url(#p9689da0454)" d="M 247.560912 307.584 
L 257.333123 307.584 
L 257.333123 307.584 
L 247.560912 307.584 
z
" style="fill:#fa9ba4;opacity:0.6;"/>
   </g>
   <g id="patch_19">
    <path clip-path="url(#p9689da0454)" d="M 258.418924 307.584 
L 268.191134 307.584 
L 268.191134 307.584 
L 258.418924 307.584 
z
" style="fill:#fa9ba4;opacity:0.6;"/>
   </g>
   <g id="patch_20">
    <path clip-path="url(#p9689da0454)" d="M 269.276935 307.584 
L 279.049146 307.584 
L 279.049146 307.584 
L 269.276935 307.584 
z
" style="fill:#fa9ba4;opacity:0.6;"/>
   </g>
   <g id="patch_21">
    <path clip-path="url(#p9689da0454)" d="M 280.134947 307.584 
L 289.907157 307.584 
L 289.907157 307.584 
L 280.134947 307.584 
z
" style="fill:#fa9ba4;opacity:0.6;"/>
   </g>
   <g id="patch_22">
    <path clip-path="url(#p9689da0454)" d="M 290.992958 307.584 
L 300.765169 307.584 
L 300.765169 307.584 
L 290.992958 307.584 
z
" style="fill:#fa9ba4;opacity:0.6;"/>
   </g>
   <g id="patch_23">
    <path clip-path="url(#p9689da0454)" d="M 301.85097 307.584 
L 311.62318 307.584 
L 311.62318 307.584 
L 301.85097 307.584 
z
" style="fill:#fa9ba4;opacity:0.6;"/>
   </g>
   <g id="patch_24">
    <path clip-path="url(#p9689da0454)" d="M 312.708981 307.584 
L 322.481192 307.584 
L 322.481192 307.584 
L 312.708981 307.584 
z
" style="fill:#fa9ba4;opacity:0.6;"/>
   </g>
   <g id="patch_25">
    <path clip-path="url(#p9689da0454)" d="M 323.566993 307.584 
L 333.339203 307.584 
L 333.339203 307.584 
L 323.566993 307.584 
z
" style="fill:#fa9ba4;opacity:0.6;"/>
   </g>
   <g id="patch_26">
    <path clip-path="url(#p9689da0454)" d="M 334.425005 307.584 
L 344.197215 307.584 
L 344.197215 307.584 
L 334.425005 307.584 
z
" style="fill:#fa9ba4;opacity:0.6;"/>
   </g>
   <g id="patch_27">
    <path clip-path="url(#p9689da0454)" d="M 345.283016 307.584 
L 355.055227 307.584 
L 355.055227 307.584 
L 345.283016 307.584 
z
" style="fill:#fa9ba4;opacity:0.6;"/>
   </g>
   <g id="patch_28">
    <path clip-path="url(#p9689da0454)" d="M 356.141028 307.584 
L 365.913238 307.584 
L 365.913238 307.584 
L 356.141028 307.584 
z
" style="fill:#fa9ba4;opacity:0.6;"/>
   </g>
   <g id="patch_29">
    <path clip-path="url(#p9689da0454)" d="M 366.999039 307.584 
L 376.77125 307.584 
L 376.77125 307.584 
L 366.999039 307.584 
z
" style="fill:#fa9ba4;opacity:0.6;"/>
   </g>
   <g id="patch_30">
    <path clip-path="url(#p9689da0454)" d="M 377.857051 307.584 
L 387.629261 307.584 
L 387.629261 307.584 
L 377.857051 307.584 
z
" style="fill:#fa9ba4;opacity:0.6;"/>
   </g>
   <g id="patch_31">
    <path clip-path="url(#p9689da0454)" d="M 388.715062 307.584 
L 398.487273 307.584 
L 398.487273 307.584 
L 388.715062 307.584 
z
" style="fill:#fa9ba4;opacity:0.6;"/>
   </g>
   <g id="matplotlib.axis_1"/>
   <g id="matplotlib.axis_2">
    <g id="ytick_1">
     <g id="line2d_1">
      <defs>
       <path d="M 0 0 
L 16 0 
" id="mc00e61dcdd" style="stroke:#e0e0e0;stroke-width:2;"/>
      </defs>
      <g>
       <use style="fill:#e0e0e0;stroke:#e0e0e0;stroke-width:2;" x="57.6" xlink:href="#mc00e61dcdd" y="307.584"/>
      </g>
     </g>
     <g id="text_1">
      <!-- 0 -->
      <defs>
       <path d="M 31.78125 66.40625 
Q 24.171875 66.40625 20.328125 58.90625 
Q 16.5 51.421875 16.5 36.375 
Q 16.5 21.390625 20.328125 13.890625 
Q 24.171875 6.390625 31.78125 6.390625 
Q 39.453125 6.390625 43.28125 13.890625 
Q 47.125 21.390625 47.125 36.375 
Q 47.125 51.421875 43.28125 58.90625 
Q 39.453125 66.40625 31.78125 66.40625 
z
M 31.78125 74.21875 
Q 44.046875 74.21875 50.515625 64.515625 
Q 56.984375 54.828125 56.984375 36.375 
Q 56.984375 17.96875 50.515625 8.265625 
Q 44.046875 -1.421875 31.78125 -1.421875 
Q 19.53125 -1.421875 13.0625 8.265625 
Q 6.59375 17.96875 6.59375 36.375 
Q 6.59375 54.828125 13.0625 64.515625 
Q 19.53125 74.21875 31.78125 74.21875 
z
" id="DejaVuSans-48"/>
      </defs>
      <g style="fill:#e0e0e0;" transform="translate(32.33 316.702125)scale(0.24 -0.24)">
       <use xlink:href="#DejaVuSans-48"/>
      </g>
     </g>
    </g>
   </g>
   <g id="PolyCollection_1">
    <defs>
     <path d="M 252.447017 -38.016 
L 252.447017 -38.016 
L 263.305029 -38.016 
L 274.16304 -38.016 
L 285.021052 -38.016 
L 295.879064 -38.016 
L 306.737075 -38.016 
L 317.595087 -38.016 
L 328.453098 -38.016 
L 339.31111 -38.016 
L 350.169121 -38.016 
L 361.027133 -38.016 
L 371.885144 -38.016 
L 382.743156 -38.016 
L 393.601168 -38.016 
L 393.601168 -38.016 
L 393.601168 -38.016 
L 382.743156 -38.016 
L 371.885144 -38.016 
L 361.027133 -38.016 
L 350.169121 -38.016 
L 339.31111 -38.016 
L 328.453098 -38.016 
L 317.595087 -38.016 
L 306.737075 -38.016 
L 295.879064 -38.016 
L 285.021052 -38.016 
L 274.16304 -38.016 
L 263.305029 -38.016 
L 252.447017 -38.016 
z
" id="m9498e9e676" style="stroke:#dc3545;stroke-opacity:0.5;"/>
    </defs>
    <g clip-path="url(#p9689da0454)">
     <use style="fill:#dc3545;fill-opacity:0.5;stroke:#dc3545;stroke-opacity:0.5;" x="0" xlink:href="#m9498e9e676" y="345.6"/>
    </g>
   </g>
   <g id="line2d_2">
    <path clip-path="url(#p9689da0454)" d="M 143.866902 307.584 
L 154.724913 307.584 
L 165.582925 307.584 
L 176.440936 307.584 
L 187.298948 307.584 
L 198.15696 307.584 
L 209.014971 307.584 
L 219.872983 307.584 
L 230.730994 307.584 
L 241.589006 307.584 
L 252.447017 307.584 
L 263.305029 307.584 
L 274.16304 307.584 
L 285.021052 307.584 
L 295.879064 307.584 
L 306.737075 307.584 
L 317.595087 307.584 
L 328.453098 307.584 
L 339.31111 307.584 
L 350.169121 307.584 
L 361.027133 307.584 
L 371.885144 307.584 
L 382.743156 307.584 
L 393.601168 307.584 
" style="fill:none;stroke:#dc3545;stroke-linecap:square;stroke-opacity:0.6;stroke-width:2;"/>
   </g>
   <g id="line2d_3">
    <path clip-path="url(#p9689da0454)" d="M 252.447017 307.584 
L 263.305029 307.584 
L 274.16304 307.584 
L 285.021052 307.584 
L 295.879064 307.584 
L 306.737075 307.584 
L 317.595087 307.584 
L 328.453098 307.584 
L 339.31111 307.584 
L 350.169121 307.584 
L 361.027133 307.584 
L 371.885144 307.584 
L 382.743156 307.584 
L 393.601168 307.584 
" style="fill:none;stroke:#dc3545;stroke-linecap:square;stroke-width:2;"/>
   </g>
  </g>
 </g>
 <defs>
  <clipPath id="p9689da0454">
   <rect height="266.112" width="357.12" x="57.6" y="41.472"/>
  </clipPath>
 </defs>
</svg>
