<?xml version="1.0" encoding="utf-8" standalone="no"?>
<!DOCTYPE svg PUBLIC "-//W3C//DTD SVG 1.1//EN"
  "http://www.w3.org/Graphics/SVG/1.1/DTD/svg11.dtd">
<!-- Created with matplotlib (https://matplotlib.org/) -->
<svg height="345.6pt" version="1.1" viewBox="0 0 460.8 345.6" width="460.8pt" xmlns="http://www.w3.org/2000/svg" xmlns:xlink="http://www.w3.org/1999/xlink">
 <defs>
  <style type="text/css">
*{stroke-linecap:butt;stroke-linejoin:round;}
  </style>
 </defs>
 <g id="figure_1">
  <g id="patch_1">
   <path d="M 0 345.6 
L 460.8 345.6 
L 460.8 0 
L 0 0 
z
" style="fill:none;"/>
  </g>
  <g id="axes_1">
   <g id="patch_2">
    <path clip-path="url(#p0a95a65cb1)" d="M 73.832727 307.584 
L 83.288685 307.584 
L 83.288685 307.584 
L 73.832727 307.584 
z
" style="fill:#fa9ba4;opacity:0.2;"/>
   </g>
   <g id="patch_3">
    <path clip-path="url(#p0a95a65cb1)" d="M 84.339347 307.584 
L 93.795305 307.584 
L 93.795305 108 
L 84.339347 108 
z
" style="fill:#fa9ba4;opacity:0.2;"/>
   </g>
   <g id="patch_4">
    <path clip-path="url(#p0a95a65cb1)" d="M 94.845966 307.584 
L 104.301924 307.584 
L 104.301924 307.584 
L 94.845966 307.584 
z
" style="fill:#fa9ba4;opacity:0.2;"/>
   </g>
   <g id="patch_5">
    <path clip-path="url(#p0a95a65cb1)" d="M 105.352586 307.584 
L 114.808544 307.584 
L 114.808544 41.472 
L 105.352586 41.472 
z
" style="fill:#fa9ba4;opacity:0.2;"/>
   </g>
   <g id="patch_6">
    <path clip-path="url(#p0a95a65cb1)" d="M 115.859206 307.584 
L 125.315163 307.584 
L 125.315163 307.584 
L 115.859206 307.584 
z
" style="fill:#fa9ba4;opacity:0.2;"/>
   </g>
   <g id="patch_7">
    <path clip-path="url(#p0a95a65cb1)" d="M 126.365825 307.584 
L 135.821783 307.584 
L 135.821783 174.528 
L 126.365825 174.528 
z
" style="fill:#fa9ba4;opacity:0.2;"/>
   </g>
   <g id="patch_8">
    <path clip-path="url(#p0a95a65cb1)" d="M 136.872445 307.584 
L 146.328402 307.584 
L 146.328402 307.584 
L 136.872445 307.584 
z
" style="fill:#fa9ba4;opacity:0.2;"/>
   </g>
   <g id="patch_9">
    <path clip-path="url(#p0a95a65cb1)" d="M 147.379064 307.584 
L 156.835022 307.584 
L 156.835022 307.584 
L 147.379064 307.584 
z
" style="fill:#fa9ba4;opacity:0.2;"/>
   </g>
   <g id="patch_10">
    <path clip-path="url(#p0a95a65cb1)" d="M 157.885684 307.584 
L 167.341642 307.584 
L 167.341642 241.056 
L 157.885684 241.056 
z
" style="fill:#fa9ba4;opacity:0.2;"/>
   </g>
   <g id="patch_11">
    <path clip-path="url(#p0a95a65cb1)" d="M 168.392304 307.584 
L 177.848261 307.584 
L 177.848261 241.056 
L 168.392304 241.056 
z
" style="fill:#fa9ba4;opacity:0.2;"/>
   </g>
   <g id="patch_12">
    <path clip-path="url(#p0a95a65cb1)" d="M 178.898923 307.584 
L 188.354881 307.584 
L 188.354881 241.056 
L 178.898923 241.056 
z
" style="fill:#fa9ba4;opacity:0.2;"/>
   </g>
   <g id="patch_13">
    <path clip-path="url(#p0a95a65cb1)" d="M 189.405543 307.584 
L 198.8615 307.584 
L 198.8615 307.584 
L 189.405543 307.584 
z
" style="fill:#fa9ba4;opacity:0.2;"/>
   </g>
   <g id="patch_14">
    <path clip-path="url(#p0a95a65cb1)" d="M 199.912162 307.584 
L 209.36812 307.584 
L 209.36812 307.584 
L 199.912162 307.584 
z
" style="fill:#fa9ba4;opacity:0.2;"/>
   </g>
   <g id="patch_15">
    <path clip-path="url(#p0a95a65cb1)" d="M 210.418782 307.584 
L 219.87474 307.584 
L 219.87474 307.584 
L 210.418782 307.584 
z
" style="fill:#fa9ba4;opacity:0.2;"/>
   </g>
   <g id="patch_16">
    <path clip-path="url(#p0a95a65cb1)" d="M 220.925402 307.584 
L 230.381359 307.584 
L 230.381359 307.584 
L 220.925402 307.584 
z
" style="fill:#fa9ba4;opacity:0.2;"/>
   </g>
   <g id="patch_17">
    <path clip-path="url(#p0a95a65cb1)" d="M 231.432021 307.584 
L 240.887979 307.584 
L 240.887979 307.584 
L 231.432021 307.584 
z
" style="fill:#fa9ba4;opacity:0.2;"/>
   </g>
   <g id="patch_18">
    <path clip-path="url(#p0a95a65cb1)" d="M 241.938641 307.584 
L 251.394598 307.584 
L 251.394598 307.584 
L 241.938641 307.584 
z
" style="fill:#fa9ba4;opacity:0.2;"/>
   </g>
   <g id="patch_19">
    <path clip-path="url(#p0a95a65cb1)" d="M 252.44526 307.584 
L 261.901218 307.584 
L 261.901218 307.584 
L 252.44526 307.584 
z
" style="fill:#fa9ba4;opacity:0.2;"/>
   </g>
   <g id="patch_20">
    <path clip-path="url(#p0a95a65cb1)" d="M 262.95188 307.584 
L 272.407838 307.584 
L 272.407838 307.584 
L 262.95188 307.584 
z
" style="fill:#fa9ba4;opacity:0.2;"/>
   </g>
   <g id="patch_21">
    <path clip-path="url(#p0a95a65cb1)" d="M 273.4585 307.584 
L 282.914457 307.584 
L 282.914457 307.584 
L 273.4585 307.584 
z
" style="fill:#fa9ba4;opacity:0.2;"/>
   </g>
   <g id="patch_22">
    <path clip-path="url(#p0a95a65cb1)" d="M 283.965119 307.584 
L 293.421077 307.584 
L 293.421077 307.584 
L 283.965119 307.584 
z
" style="fill:#fa9ba4;opacity:0.2;"/>
   </g>
   <g id="patch_23">
    <path clip-path="url(#p0a95a65cb1)" d="M 294.471739 307.584 
L 303.927696 307.584 
L 303.927696 307.584 
L 294.471739 307.584 
z
" style="fill:#fa9ba4;opacity:0.2;"/>
   </g>
   <g id="patch_24">
    <path clip-path="url(#p0a95a65cb1)" d="M 304.978358 307.584 
L 314.434316 307.584 
L 314.434316 307.584 
L 304.978358 307.584 
z
" style="fill:#fa9ba4;opacity:0.2;"/>
   </g>
   <g id="patch_25">
    <path clip-path="url(#p0a95a65cb1)" d="M 315.484978 307.584 
L 324.940936 307.584 
L 324.940936 307.584 
L 315.484978 307.584 
z
" style="fill:#fa9ba4;opacity:0.2;"/>
   </g>
   <g id="patch_26">
    <path clip-path="url(#p0a95a65cb1)" d="M 325.991598 307.584 
L 335.447555 307.584 
L 335.447555 307.584 
L 325.991598 307.584 
z
" style="fill:#fa9ba4;opacity:0.2;"/>
   </g>
   <g id="patch_27">
    <path clip-path="url(#p0a95a65cb1)" d="M 336.498217 307.584 
L 345.954175 307.584 
L 345.954175 307.584 
L 336.498217 307.584 
z
" style="fill:#fa9ba4;opacity:0.2;"/>
   </g>
   <g id="patch_28">
    <path clip-path="url(#p0a95a65cb1)" d="M 347.004837 307.584 
L 356.460794 307.584 
L 356.460794 307.584 
L 347.004837 307.584 
z
" style="fill:#fa9ba4;opacity:0.2;"/>
   </g>
   <g id="patch_29">
    <path clip-path="url(#p0a95a65cb1)" d="M 357.511456 307.584 
L 366.967414 307.584 
L 366.967414 307.584 
L 357.511456 307.584 
z
" style="fill:#fa9ba4;opacity:0.2;"/>
   </g>
   <g id="patch_30">
    <path clip-path="url(#p0a95a65cb1)" d="M 368.018076 307.584 
L 377.474034 307.584 
L 377.474034 307.584 
L 368.018076 307.584 
z
" style="fill:#fa9ba4;opacity:0.2;"/>
   </g>
   <g id="patch_31">
    <path clip-path="url(#p0a95a65cb1)" d="M 378.524695 307.584 
L 387.980653 307.584 
L 387.980653 307.584 
L 378.524695 307.584 
z
" style="fill:#fa9ba4;opacity:0.2;"/>
   </g>
   <g id="patch_32">
    <path clip-path="url(#p0a95a65cb1)" d="M 389.031315 307.584 
L 398.487273 307.584 
L 398.487273 307.584 
L 389.031315 307.584 
z
" style="fill:#fa9ba4;opacity:0.2;"/>
   </g>
   <g id="matplotlib.axis_1"/>
   <g id="matplotlib.axis_2"/>
   <g id="PolyCollection_1">
    <defs>
     <path d="M 257.173239 -38.016 
L 257.173239 -38.016 
L 267.679859 -38.016 
L 278.186478 -38.016 
L 288.693098 -38.016 
L 299.199718 -38.016 
L 309.706337 -38.016 
L 320.212957 -38.016 
L 330.719576 -38.016 
L 341.226196 -38.016 
L 351.732816 -38.016 
L 362.239435 -38.016 
L 372.746055 -38.016 
L 383.252674 -38.016 
L 393.759294 -38.016 
L 393.759294 -38.016 
L 393.759294 -38.016 
L 383.252674 -38.016 
L 372.746055 -38.016 
L 362.239435 -38.016 
L 351.732816 -38.016 
L 341.226196 -38.016 
L 330.719576 -38.016 
L 320.212957 -38.016 
L 309.706337 -38.016 
L 299.199718 -38.016 
L 288.693098 -38.016 
L 278.186478 -38.016 
L 267.679859 -38.016 
L 257.173239 -38.016 
z
" id="mf8e9fc8f65" style="stroke:#dc3545;stroke-opacity:0.5;"/>
    </defs>
    <g clip-path="url(#p0a95a65cb1)">
     <use style="fill:#dc3545;fill-opacity:0.5;stroke:#dc3545;stroke-opacity:0.5;" x="0" xlink:href="#mf8e9fc8f65" y="345.6"/>
    </g>
   </g>
   <g id="PolyCollection_2">
    <defs>
     <path d="M 141.600424 -123.552 
L 141.600424 -38.016 
L 152.107043 -38.016 
L 162.613663 -38.016 
L 173.120282 -38.016 
L 183.626902 -38.016 
L 194.133522 -38.016 
L 204.640141 -38.016 
L 215.146761 -38.016 
L 225.65338 -38.016 
L 236.16 -38.016 
L 246.66662 -38.016 
L 257.173239 -38.016 
L 257.173239 -38.016 
L 257.173239 -38.016 
L 246.66662 -47.52 
L 236.16 -57.024 
L 225.65338 -66.528 
L 215.146761 -66.528 
L 204.640141 -66.528 
L 194.133522 -85.536 
L 183.626902 -85.536 
L 173.120282 -114.048 
L 162.613663 -104.544 
L 152.107043 -123.552 
L 141.600424 -123.552 
z
" id="md27c0fc2cb" style="stroke:#fa9ba4;stroke-opacity:0.3;"/>
    </defs>
    <g clip-path="url(#p0a95a65cb1)">
     <use style="fill:#fa9ba4;fill-opacity:0.3;stroke:#fa9ba4;stroke-opacity:0.3;" x="0" xlink:href="#md27c0fc2cb" y="345.6"/>
    </g>
   </g>
   <g id="line2d_1">
    <path clip-path="url(#p0a95a65cb1)" d="M 141.600424 222.048 
L 152.107043 222.048 
L 162.613663 241.056 
L 173.120282 231.552 
L 183.626902 260.064 
L 194.133522 260.064 
L 204.640141 279.072 
L 215.146761 279.072 
L 225.65338 279.072 
L 236.16 288.576 
L 246.66662 298.08 
L 257.173239 307.584 
L 267.679859 307.584 
L 278.186478 307.584 
L 288.693098 307.584 
L 299.199718 307.584 
L 309.706337 307.584 
L 320.212957 307.584 
L 330.719576 307.584 
L 341.226196 307.584 
L 351.732816 307.584 
L 362.239435 307.584 
L 372.746055 307.584 
L 383.252674 307.584 
L 393.759294 307.584 
" style="fill:none;stroke:#fa9ba4;stroke-linecap:square;stroke-width:2;"/>
   </g>
   <g id="line2d_2">
    <path clip-path="url(#p0a95a65cb1)" d="M 257.173239 307.584 
L 267.679859 307.584 
L 278.186478 307.584 
L 288.693098 307.584 
L 299.199718 307.584 
L 309.706337 307.584 
L 320.212957 307.584 
L 330.719576 307.584 
L 341.226196 307.584 
L 351.732816 307.584 
L 362.239435 307.584 
L 372.746055 307.584 
L 383.252674 307.584 
L 393.759294 307.584 
" style="fill:none;stroke:#dc3545;stroke-linecap:square;stroke-width:2;"/>
   </g>
  </g>
 </g>
 <defs>
  <clipPath id="p0a95a65cb1">
   <rect height="266.112" width="357.12" x="57.6" y="41.472"/>
  </clipPath>
 </defs>
</svg>
