<?xml version="1.0" encoding="utf-8" standalone="no"?>
<!DOCTYPE svg PUBLIC "-//W3C//DTD SVG 1.1//EN"
  "http://www.w3.org/Graphics/SVG/1.1/DTD/svg11.dtd">
<svg height="345.6pt" version="1.1" viewBox="0 0 460.8 345.6" width="460.8pt" xmlns="http://www.w3.org/2000/svg" xmlns:xlink="http://www.w3.org/1999/xlink">
 <metadata>
  <rdf:RDF xmlns:cc="http://creativecommons.org/ns#" xmlns:dc="http://purl.org/dc/elements/1.1/" xmlns:rdf="http://www.w3.org/1999/02/22-rdf-syntax-ns#">
   <cc:Work>
    <dc:type rdf:resource="http://purl.org/dc/dcmitype/StillImage"/>
    <dc:date>2021-05-13T13:24:56.971082</dc:date>
    <dc:format>image/svg+xml</dc:format>
    <dc:creator>
     <cc:Agent>
      <dc:title>Matplotlib v3.4.2, https://matplotlib.org/</dc:title>
     </cc:Agent>
    </dc:creator>
   </cc:Work>
  </rdf:RDF>
 </metadata>
 <defs>
  <style type="text/css">*{stroke-linecap:butt;stroke-linejoin:round;}</style>
 </defs>
 <g id="figure_1">
  <g id="patch_1">
   <path d="M 0 345.6 
L 460.8 345.6 
L 460.8 0 
L 0 0 
z
" style="fill:none;"/>
  </g>
  <g id="axes_1">
   <g id="patch_2">
    <path clip-path="url(#p1e7deacff1)" d="M 73.832727 307.584 
L 75.795045 307.584 
L 75.795045 307.584 
L 73.832727 307.584 
z
" style="fill:#fa9ba4;opacity:0.2;"/>
   </g>
   <g id="patch_3">
    <path clip-path="url(#p1e7deacff1)" d="M 76.01308 307.584 
L 77.975398 307.584 
L 77.975398 297.216 
L 76.01308 297.216 
z
" style="fill:#fa9ba4;opacity:0.2;"/>
   </g>
   <g id="patch_4">
    <path clip-path="url(#p1e7deacff1)" d="M 78.193433 307.584 
L 80.155751 307.584 
L 80.155751 307.584 
L 78.193433 307.584 
z
" style="fill:#fa9ba4;opacity:0.2;"/>
   </g>
   <g id="patch_5">
    <path clip-path="url(#p1e7deacff1)" d="M 80.373786 307.584 
L 82.336104 307.584 
L 82.336104 293.76 
L 80.373786 293.76 
z
" style="fill:#fa9ba4;opacity:0.2;"/>
   </g>
   <g id="patch_6">
    <path clip-path="url(#p1e7deacff1)" d="M 82.554139 307.584 
L 84.516456 307.584 
L 84.516456 307.584 
L 82.554139 307.584 
z
" style="fill:#fa9ba4;opacity:0.2;"/>
   </g>
   <g id="patch_7">
    <path clip-path="url(#p1e7deacff1)" d="M 84.734492 307.584 
L 86.696809 307.584 
L 86.696809 300.672 
L 84.734492 300.672 
z
" style="fill:#fa9ba4;opacity:0.2;"/>
   </g>
   <g id="patch_8">
    <path clip-path="url(#p1e7deacff1)" d="M 86.914845 307.584 
L 88.877162 307.584 
L 88.877162 307.584 
L 86.914845 307.584 
z
" style="fill:#fa9ba4;opacity:0.2;"/>
   </g>
   <g id="patch_9">
    <path clip-path="url(#p1e7deacff1)" d="M 89.095198 307.584 
L 91.057515 307.584 
L 91.057515 307.584 
L 89.095198 307.584 
z
" style="fill:#fa9ba4;opacity:0.2;"/>
   </g>
   <g id="patch_10">
    <path clip-path="url(#p1e7deacff1)" d="M 91.27555 307.584 
L 93.237868 307.584 
L 93.237868 304.128 
L 91.27555 304.128 
z
" style="fill:#fa9ba4;opacity:0.2;"/>
   </g>
   <g id="patch_11">
    <path clip-path="url(#p1e7deacff1)" d="M 93.455903 307.584 
L 95.418221 307.584 
L 95.418221 304.128 
L 93.455903 304.128 
z
" style="fill:#fa9ba4;opacity:0.2;"/>
   </g>
   <g id="patch_12">
    <path clip-path="url(#p1e7deacff1)" d="M 95.636256 307.584 
L 97.598574 307.584 
L 97.598574 304.128 
L 95.636256 304.128 
z
" style="fill:#fa9ba4;opacity:0.2;"/>
   </g>
   <g id="patch_13">
    <path clip-path="url(#p1e7deacff1)" d="M 97.816609 307.584 
L 99.778927 307.584 
L 99.778927 307.584 
L 97.816609 307.584 
z
" style="fill:#fa9ba4;opacity:0.2;"/>
   </g>
   <g id="patch_14">
    <path clip-path="url(#p1e7deacff1)" d="M 99.996962 307.584 
L 101.95928 307.584 
L 101.95928 307.584 
L 99.996962 307.584 
z
" style="fill:#fa9ba4;opacity:0.2;"/>
   </g>
   <g id="patch_15">
    <path clip-path="url(#p1e7deacff1)" d="M 102.177315 307.584 
L 104.139632 307.584 
L 104.139632 307.584 
L 102.177315 307.584 
z
" style="fill:#fa9ba4;opacity:0.2;"/>
   </g>
   <g id="patch_16">
    <path clip-path="url(#p1e7deacff1)" d="M 104.357668 307.584 
L 106.319985 307.584 
L 106.319985 307.584 
L 104.357668 307.584 
z
" style="fill:#fa9ba4;opacity:0.2;"/>
   </g>
   <g id="patch_17">
    <path clip-path="url(#p1e7deacff1)" d="M 106.538021 307.584 
L 108.500338 307.584 
L 108.500338 307.584 
L 106.538021 307.584 
z
" style="fill:#fa9ba4;opacity:0.2;"/>
   </g>
   <g id="patch_18">
    <path clip-path="url(#p1e7deacff1)" d="M 108.718374 307.584 
L 110.680691 307.584 
L 110.680691 307.584 
L 108.718374 307.584 
z
" style="fill:#fa9ba4;opacity:0.2;"/>
   </g>
   <g id="patch_19">
    <path clip-path="url(#p1e7deacff1)" d="M 110.898726 307.584 
L 112.861044 307.584 
L 112.861044 307.584 
L 110.898726 307.584 
z
" style="fill:#fa9ba4;opacity:0.2;"/>
   </g>
   <g id="patch_20">
    <path clip-path="url(#p1e7deacff1)" d="M 113.079079 307.584 
L 115.041397 307.584 
L 115.041397 307.584 
L 113.079079 307.584 
z
" style="fill:#fa9ba4;opacity:0.2;"/>
   </g>
   <g id="patch_21">
    <path clip-path="url(#p1e7deacff1)" d="M 115.259432 307.584 
L 117.22175 307.584 
L 117.22175 307.584 
L 115.259432 307.584 
z
" style="fill:#fa9ba4;opacity:0.2;"/>
   </g>
   <g id="patch_22">
    <path clip-path="url(#p1e7deacff1)" d="M 117.439785 307.584 
L 119.402103 307.584 
L 119.402103 307.584 
L 117.439785 307.584 
z
" style="fill:#fa9ba4;opacity:0.2;"/>
   </g>
   <g id="patch_23">
    <path clip-path="url(#p1e7deacff1)" d="M 119.620138 307.584 
L 121.582456 307.584 
L 121.582456 307.584 
L 119.620138 307.584 
z
" style="fill:#fa9ba4;opacity:0.2;"/>
   </g>
   <g id="patch_24">
    <path clip-path="url(#p1e7deacff1)" d="M 121.800491 307.584 
L 123.762808 307.584 
L 123.762808 307.584 
L 121.800491 307.584 
z
" style="fill:#fa9ba4;opacity:0.2;"/>
   </g>
   <g id="patch_25">
    <path clip-path="url(#p1e7deacff1)" d="M 123.980844 307.584 
L 125.943161 307.584 
L 125.943161 307.584 
L 123.980844 307.584 
z
" style="fill:#fa9ba4;opacity:0.2;"/>
   </g>
   <g id="patch_26">
    <path clip-path="url(#p1e7deacff1)" d="M 126.161197 307.584 
L 128.123514 307.584 
L 128.123514 307.584 
L 126.161197 307.584 
z
" style="fill:#fa9ba4;opacity:0.2;"/>
   </g>
   <g id="patch_27">
    <path clip-path="url(#p1e7deacff1)" d="M 128.34155 307.584 
L 130.303867 307.584 
L 130.303867 307.584 
L 128.34155 307.584 
z
" style="fill:#fa9ba4;opacity:0.2;"/>
   </g>
   <g id="patch_28">
    <path clip-path="url(#p1e7deacff1)" d="M 130.521902 307.584 
L 132.48422 307.584 
L 132.48422 307.584 
L 130.521902 307.584 
z
" style="fill:#fa9ba4;opacity:0.2;"/>
   </g>
   <g id="patch_29">
    <path clip-path="url(#p1e7deacff1)" d="M 132.702255 307.584 
L 134.664573 307.584 
L 134.664573 307.584 
L 132.702255 307.584 
z
" style="fill:#fa9ba4;opacity:0.2;"/>
   </g>
   <g id="patch_30">
    <path clip-path="url(#p1e7deacff1)" d="M 134.882608 307.584 
L 136.844926 307.584 
L 136.844926 307.584 
L 134.882608 307.584 
z
" style="fill:#fa9ba4;opacity:0.2;"/>
   </g>
   <g id="patch_31">
    <path clip-path="url(#p1e7deacff1)" d="M 137.062961 307.584 
L 139.025279 307.584 
L 139.025279 307.584 
L 137.062961 307.584 
z
" style="fill:#fa9ba4;opacity:0.2;"/>
   </g>
   <g id="patch_32">
    <path clip-path="url(#p1e7deacff1)" d="M 139.243314 307.584 
L 141.205632 307.584 
L 141.205632 307.584 
L 139.243314 307.584 
z
" style="fill:#fa9ba4;opacity:0.2;"/>
   </g>
   <g id="patch_33">
    <path clip-path="url(#p1e7deacff1)" d="M 141.423667 307.584 
L 143.385984 307.584 
L 143.385984 307.584 
L 141.423667 307.584 
z
" style="fill:#fa9ba4;opacity:0.2;"/>
   </g>
   <g id="patch_34">
    <path clip-path="url(#p1e7deacff1)" d="M 143.60402 307.584 
L 145.566337 307.584 
L 145.566337 307.584 
L 143.60402 307.584 
z
" style="fill:#fa9ba4;opacity:0.2;"/>
   </g>
   <g id="patch_35">
    <path clip-path="url(#p1e7deacff1)" d="M 145.784373 307.584 
L 147.74669 307.584 
L 147.74669 307.584 
L 145.784373 307.584 
z
" style="fill:#fa9ba4;opacity:0.2;"/>
   </g>
   <g id="patch_36">
    <path clip-path="url(#p1e7deacff1)" d="M 147.964726 307.584 
L 149.927043 307.584 
L 149.927043 307.584 
L 147.964726 307.584 
z
" style="fill:#fa9ba4;opacity:0.2;"/>
   </g>
   <g id="patch_37">
    <path clip-path="url(#p1e7deacff1)" d="M 150.145078 307.584 
L 152.107396 307.584 
L 152.107396 307.584 
L 150.145078 307.584 
z
" style="fill:#fa9ba4;opacity:0.2;"/>
   </g>
   <g id="patch_38">
    <path clip-path="url(#p1e7deacff1)" d="M 152.325431 307.584 
L 154.287749 307.584 
L 154.287749 307.584 
L 152.325431 307.584 
z
" style="fill:#fa9ba4;opacity:0.2;"/>
   </g>
   <g id="patch_39">
    <path clip-path="url(#p1e7deacff1)" d="M 154.505784 307.584 
L 156.468102 307.584 
L 156.468102 304.128 
L 154.505784 304.128 
z
" style="fill:#fa9ba4;opacity:0.2;"/>
   </g>
   <g id="patch_40">
    <path clip-path="url(#p1e7deacff1)" d="M 156.686137 307.584 
L 158.648455 307.584 
L 158.648455 307.584 
L 156.686137 307.584 
z
" style="fill:#fa9ba4;opacity:0.2;"/>
   </g>
   <g id="patch_41">
    <path clip-path="url(#p1e7deacff1)" d="M 158.86649 307.584 
L 160.828808 307.584 
L 160.828808 307.584 
L 158.86649 307.584 
z
" style="fill:#fa9ba4;opacity:0.2;"/>
   </g>
   <g id="patch_42">
    <path clip-path="url(#p1e7deacff1)" d="M 161.046843 307.584 
L 163.009161 307.584 
L 163.009161 307.584 
L 161.046843 307.584 
z
" style="fill:#fa9ba4;opacity:0.2;"/>
   </g>
   <g id="patch_43">
    <path clip-path="url(#p1e7deacff1)" d="M 163.227196 307.584 
L 165.189513 307.584 
L 165.189513 307.584 
L 163.227196 307.584 
z
" style="fill:#fa9ba4;opacity:0.2;"/>
   </g>
   <g id="patch_44">
    <path clip-path="url(#p1e7deacff1)" d="M 165.407549 307.584 
L 167.369866 307.584 
L 167.369866 307.584 
L 165.407549 307.584 
z
" style="fill:#fa9ba4;opacity:0.2;"/>
   </g>
   <g id="patch_45">
    <path clip-path="url(#p1e7deacff1)" d="M 167.587902 307.584 
L 169.550219 307.584 
L 169.550219 307.584 
L 167.587902 307.584 
z
" style="fill:#fa9ba4;opacity:0.2;"/>
   </g>
   <g id="patch_46">
    <path clip-path="url(#p1e7deacff1)" d="M 169.768254 307.584 
L 171.730572 307.584 
L 171.730572 307.584 
L 169.768254 307.584 
z
" style="fill:#fa9ba4;opacity:0.2;"/>
   </g>
   <g id="patch_47">
    <path clip-path="url(#p1e7deacff1)" d="M 171.948607 307.584 
L 173.910925 307.584 
L 173.910925 307.584 
L 171.948607 307.584 
z
" style="fill:#fa9ba4;opacity:0.2;"/>
   </g>
   <g id="patch_48">
    <path clip-path="url(#p1e7deacff1)" d="M 174.12896 307.584 
L 176.091278 307.584 
L 176.091278 307.584 
L 174.12896 307.584 
z
" style="fill:#fa9ba4;opacity:0.2;"/>
   </g>
   <g id="patch_49">
    <path clip-path="url(#p1e7deacff1)" d="M 176.309313 307.584 
L 178.271631 307.584 
L 178.271631 307.584 
L 176.309313 307.584 
z
" style="fill:#fa9ba4;opacity:0.2;"/>
   </g>
   <g id="patch_50">
    <path clip-path="url(#p1e7deacff1)" d="M 178.489666 307.584 
L 180.451984 307.584 
L 180.451984 307.584 
L 178.489666 307.584 
z
" style="fill:#fa9ba4;opacity:0.2;"/>
   </g>
   <g id="patch_51">
    <path clip-path="url(#p1e7deacff1)" d="M 180.670019 307.584 
L 182.632337 307.584 
L 182.632337 307.584 
L 180.670019 307.584 
z
" style="fill:#fa9ba4;opacity:0.2;"/>
   </g>
   <g id="patch_52">
    <path clip-path="url(#p1e7deacff1)" d="M 182.850372 307.584 
L 184.812689 307.584 
L 184.812689 307.584 
L 182.850372 307.584 
z
" style="fill:#fa9ba4;opacity:0.2;"/>
   </g>
   <g id="patch_53">
    <path clip-path="url(#p1e7deacff1)" d="M 185.030725 307.584 
L 186.993042 307.584 
L 186.993042 307.584 
L 185.030725 307.584 
z
" style="fill:#fa9ba4;opacity:0.2;"/>
   </g>
   <g id="patch_54">
    <path clip-path="url(#p1e7deacff1)" d="M 187.211078 307.584 
L 189.173395 307.584 
L 189.173395 307.584 
L 187.211078 307.584 
z
" style="fill:#fa9ba4;opacity:0.2;"/>
   </g>
   <g id="patch_55">
    <path clip-path="url(#p1e7deacff1)" d="M 189.39143 307.584 
L 191.353748 307.584 
L 191.353748 307.584 
L 189.39143 307.584 
z
" style="fill:#fa9ba4;opacity:0.2;"/>
   </g>
   <g id="patch_56">
    <path clip-path="url(#p1e7deacff1)" d="M 191.571783 307.584 
L 193.534101 307.584 
L 193.534101 307.584 
L 191.571783 307.584 
z
" style="fill:#fa9ba4;opacity:0.2;"/>
   </g>
   <g id="patch_57">
    <path clip-path="url(#p1e7deacff1)" d="M 193.752136 307.584 
L 195.714454 307.584 
L 195.714454 307.584 
L 193.752136 307.584 
z
" style="fill:#fa9ba4;opacity:0.2;"/>
   </g>
   <g id="patch_58">
    <path clip-path="url(#p1e7deacff1)" d="M 195.932489 307.584 
L 197.894807 307.584 
L 197.894807 307.584 
L 195.932489 307.584 
z
" style="fill:#fa9ba4;opacity:0.2;"/>
   </g>
   <g id="patch_59">
    <path clip-path="url(#p1e7deacff1)" d="M 198.112842 307.584 
L 200.07516 307.584 
L 200.07516 307.584 
L 198.112842 307.584 
z
" style="fill:#fa9ba4;opacity:0.2;"/>
   </g>
   <g id="patch_60">
    <path clip-path="url(#p1e7deacff1)" d="M 200.293195 307.584 
L 202.255513 307.584 
L 202.255513 307.584 
L 200.293195 307.584 
z
" style="fill:#fa9ba4;opacity:0.2;"/>
   </g>
   <g id="patch_61">
    <path clip-path="url(#p1e7deacff1)" d="M 202.473548 307.584 
L 204.435865 307.584 
L 204.435865 307.584 
L 202.473548 307.584 
z
" style="fill:#fa9ba4;opacity:0.2;"/>
   </g>
   <g id="patch_62">
    <path clip-path="url(#p1e7deacff1)" d="M 204.653901 307.584 
L 206.616218 307.584 
L 206.616218 307.584 
L 204.653901 307.584 
z
" style="fill:#fa9ba4;opacity:0.2;"/>
   </g>
   <g id="patch_63">
    <path clip-path="url(#p1e7deacff1)" d="M 206.834254 307.584 
L 208.796571 307.584 
L 208.796571 307.584 
L 206.834254 307.584 
z
" style="fill:#fa9ba4;opacity:0.2;"/>
   </g>
   <g id="patch_64">
    <path clip-path="url(#p1e7deacff1)" d="M 209.014607 307.584 
L 210.976924 307.584 
L 210.976924 307.584 
L 209.014607 307.584 
z
" style="fill:#fa9ba4;opacity:0.2;"/>
   </g>
   <g id="patch_65">
    <path clip-path="url(#p1e7deacff1)" d="M 211.194959 307.584 
L 213.157277 307.584 
L 213.157277 307.584 
L 211.194959 307.584 
z
" style="fill:#fa9ba4;opacity:0.2;"/>
   </g>
   <g id="patch_66">
    <path clip-path="url(#p1e7deacff1)" d="M 213.375312 307.584 
L 215.33763 307.584 
L 215.33763 307.584 
L 213.375312 307.584 
z
" style="fill:#fa9ba4;opacity:0.2;"/>
   </g>
   <g id="patch_67">
    <path clip-path="url(#p1e7deacff1)" d="M 215.555665 307.584 
L 217.517983 307.584 
L 217.517983 307.584 
L 215.555665 307.584 
z
" style="fill:#fa9ba4;opacity:0.2;"/>
   </g>
   <g id="patch_68">
    <path clip-path="url(#p1e7deacff1)" d="M 217.736018 307.584 
L 219.698336 307.584 
L 219.698336 307.584 
L 217.736018 307.584 
z
" style="fill:#fa9ba4;opacity:0.2;"/>
   </g>
   <g id="patch_69">
    <path clip-path="url(#p1e7deacff1)" d="M 219.916371 307.584 
L 221.878689 307.584 
L 221.878689 307.584 
L 219.916371 307.584 
z
" style="fill:#fa9ba4;opacity:0.2;"/>
   </g>
   <g id="patch_70">
    <path clip-path="url(#p1e7deacff1)" d="M 222.096724 307.584 
L 224.059041 307.584 
L 224.059041 307.584 
L 222.096724 307.584 
z
" style="fill:#fa9ba4;opacity:0.2;"/>
   </g>
   <g id="patch_71">
    <path clip-path="url(#p1e7deacff1)" d="M 224.277077 307.584 
L 226.239394 307.584 
L 226.239394 307.584 
L 224.277077 307.584 
z
" style="fill:#fa9ba4;opacity:0.2;"/>
   </g>
   <g id="patch_72">
    <path clip-path="url(#p1e7deacff1)" d="M 226.45743 307.584 
L 228.419747 307.584 
L 228.419747 307.584 
L 226.45743 307.584 
z
" style="fill:#fa9ba4;opacity:0.2;"/>
   </g>
   <g id="patch_73">
    <path clip-path="url(#p1e7deacff1)" d="M 228.637783 307.584 
L 230.6001 307.584 
L 230.6001 307.584 
L 228.637783 307.584 
z
" style="fill:#fa9ba4;opacity:0.2;"/>
   </g>
   <g id="patch_74">
    <path clip-path="url(#p1e7deacff1)" d="M 230.818135 307.584 
L 232.780453 307.584 
L 232.780453 307.584 
L 230.818135 307.584 
z
" style="fill:#fa9ba4;opacity:0.2;"/>
   </g>
   <g id="patch_75">
    <path clip-path="url(#p1e7deacff1)" d="M 232.998488 307.584 
L 234.960806 307.584 
L 234.960806 307.584 
L 232.998488 307.584 
z
" style="fill:#fa9ba4;opacity:0.2;"/>
   </g>
   <g id="patch_76">
    <path clip-path="url(#p1e7deacff1)" d="M 235.178841 307.584 
L 237.141159 307.584 
L 237.141159 307.584 
L 235.178841 307.584 
z
" style="fill:#fa9ba4;opacity:0.2;"/>
   </g>
   <g id="patch_77">
    <path clip-path="url(#p1e7deacff1)" d="M 237.359194 307.584 
L 239.321512 307.584 
L 239.321512 307.584 
L 237.359194 307.584 
z
" style="fill:#fa9ba4;opacity:0.2;"/>
   </g>
   <g id="patch_78">
    <path clip-path="url(#p1e7deacff1)" d="M 239.539547 307.584 
L 241.501865 307.584 
L 241.501865 307.584 
L 239.539547 307.584 
z
" style="fill:#fa9ba4;opacity:0.2;"/>
   </g>
   <g id="patch_79">
    <path clip-path="url(#p1e7deacff1)" d="M 241.7199 307.584 
L 243.682217 307.584 
L 243.682217 307.584 
L 241.7199 307.584 
z
" style="fill:#fa9ba4;opacity:0.2;"/>
   </g>
   <g id="patch_80">
    <path clip-path="url(#p1e7deacff1)" d="M 243.900253 307.584 
L 245.86257 307.584 
L 245.86257 307.584 
L 243.900253 307.584 
z
" style="fill:#fa9ba4;opacity:0.2;"/>
   </g>
   <g id="patch_81">
    <path clip-path="url(#p1e7deacff1)" d="M 246.080606 307.584 
L 248.042923 307.584 
L 248.042923 307.584 
L 246.080606 307.584 
z
" style="fill:#fa9ba4;opacity:0.2;"/>
   </g>
   <g id="patch_82">
    <path clip-path="url(#p1e7deacff1)" d="M 248.260959 307.584 
L 250.223276 307.584 
L 250.223276 307.584 
L 248.260959 307.584 
z
" style="fill:#fa9ba4;opacity:0.2;"/>
   </g>
   <g id="patch_83">
    <path clip-path="url(#p1e7deacff1)" d="M 250.441311 307.584 
L 252.403629 307.584 
L 252.403629 307.584 
L 250.441311 307.584 
z
" style="fill:#fa9ba4;opacity:0.2;"/>
   </g>
   <g id="patch_84">
    <path clip-path="url(#p1e7deacff1)" d="M 252.621664 307.584 
L 254.583982 307.584 
L 254.583982 307.584 
L 252.621664 307.584 
z
" style="fill:#fa9ba4;opacity:0.2;"/>
   </g>
   <g id="patch_85">
    <path clip-path="url(#p1e7deacff1)" d="M 254.802017 307.584 
L 256.764335 307.584 
L 256.764335 307.584 
L 254.802017 307.584 
z
" style="fill:#fa9ba4;opacity:0.2;"/>
   </g>
   <g id="patch_86">
    <path clip-path="url(#p1e7deacff1)" d="M 256.98237 307.584 
L 258.944688 307.584 
L 258.944688 307.584 
L 256.98237 307.584 
z
" style="fill:#fa9ba4;opacity:0.2;"/>
   </g>
   <g id="patch_87">
    <path clip-path="url(#p1e7deacff1)" d="M 259.162723 307.584 
L 261.125041 307.584 
L 261.125041 307.584 
L 259.162723 307.584 
z
" style="fill:#fa9ba4;opacity:0.2;"/>
   </g>
   <g id="patch_88">
    <path clip-path="url(#p1e7deacff1)" d="M 261.343076 307.584 
L 263.305393 307.584 
L 263.305393 307.584 
L 261.343076 307.584 
z
" style="fill:#fa9ba4;opacity:0.2;"/>
   </g>
   <g id="patch_89">
    <path clip-path="url(#p1e7deacff1)" d="M 263.523429 307.584 
L 265.485746 307.584 
L 265.485746 307.584 
L 263.523429 307.584 
z
" style="fill:#fa9ba4;opacity:0.2;"/>
   </g>
   <g id="patch_90">
    <path clip-path="url(#p1e7deacff1)" d="M 265.703782 307.584 
L 267.666099 307.584 
L 267.666099 307.584 
L 265.703782 307.584 
z
" style="fill:#fa9ba4;opacity:0.2;"/>
   </g>
   <g id="patch_91">
    <path clip-path="url(#p1e7deacff1)" d="M 267.884135 307.584 
L 269.846452 307.584 
L 269.846452 307.584 
L 267.884135 307.584 
z
" style="fill:#fa9ba4;opacity:0.2;"/>
   </g>
   <g id="patch_92">
    <path clip-path="url(#p1e7deacff1)" d="M 270.064487 307.584 
L 272.026805 307.584 
L 272.026805 307.584 
L 270.064487 307.584 
z
" style="fill:#fa9ba4;opacity:0.2;"/>
   </g>
   <g id="patch_93">
    <path clip-path="url(#p1e7deacff1)" d="M 272.24484 307.584 
L 274.207158 307.584 
L 274.207158 307.584 
L 272.24484 307.584 
z
" style="fill:#fa9ba4;opacity:0.2;"/>
   </g>
   <g id="patch_94">
    <path clip-path="url(#p1e7deacff1)" d="M 274.425193 307.584 
L 276.387511 307.584 
L 276.387511 307.584 
L 274.425193 307.584 
z
" style="fill:#fa9ba4;opacity:0.2;"/>
   </g>
   <g id="patch_95">
    <path clip-path="url(#p1e7deacff1)" d="M 276.605546 307.584 
L 278.567864 307.584 
L 278.567864 307.584 
L 276.605546 307.584 
z
" style="fill:#fa9ba4;opacity:0.2;"/>
   </g>
   <g id="patch_96">
    <path clip-path="url(#p1e7deacff1)" d="M 278.785899 307.584 
L 280.748217 307.584 
L 280.748217 307.584 
L 278.785899 307.584 
z
" style="fill:#fa9ba4;opacity:0.2;"/>
   </g>
   <g id="patch_97">
    <path clip-path="url(#p1e7deacff1)" d="M 280.966252 307.584 
L 282.92857 307.584 
L 282.92857 307.584 
L 280.966252 307.584 
z
" style="fill:#fa9ba4;opacity:0.2;"/>
   </g>
   <g id="patch_98">
    <path clip-path="url(#p1e7deacff1)" d="M 283.146605 307.584 
L 285.108922 307.584 
L 285.108922 307.584 
L 283.146605 307.584 
z
" style="fill:#fa9ba4;opacity:0.2;"/>
   </g>
   <g id="patch_99">
    <path clip-path="url(#p1e7deacff1)" d="M 285.326958 307.584 
L 287.289275 307.584 
L 287.289275 307.584 
L 285.326958 307.584 
z
" style="fill:#fa9ba4;opacity:0.2;"/>
   </g>
   <g id="patch_100">
    <path clip-path="url(#p1e7deacff1)" d="M 287.507311 307.584 
L 289.469628 307.584 
L 289.469628 307.584 
L 287.507311 307.584 
z
" style="fill:#fa9ba4;opacity:0.2;"/>
   </g>
   <g id="patch_101">
    <path clip-path="url(#p1e7deacff1)" d="M 289.687663 307.584 
L 291.649981 307.584 
L 291.649981 307.584 
L 289.687663 307.584 
z
" style="fill:#fa9ba4;opacity:0.2;"/>
   </g>
   <g id="patch_102">
    <path clip-path="url(#p1e7deacff1)" d="M 291.868016 307.584 
L 293.830334 307.584 
L 293.830334 307.584 
L 291.868016 307.584 
z
" style="fill:#fa9ba4;opacity:0.2;"/>
   </g>
   <g id="patch_103">
    <path clip-path="url(#p1e7deacff1)" d="M 294.048369 307.584 
L 296.010687 307.584 
L 296.010687 307.584 
L 294.048369 307.584 
z
" style="fill:#fa9ba4;opacity:0.2;"/>
   </g>
   <g id="patch_104">
    <path clip-path="url(#p1e7deacff1)" d="M 296.228722 307.584 
L 298.19104 307.584 
L 298.19104 307.584 
L 296.228722 307.584 
z
" style="fill:#fa9ba4;opacity:0.2;"/>
   </g>
   <g id="patch_105">
    <path clip-path="url(#p1e7deacff1)" d="M 298.409075 307.584 
L 300.371393 307.584 
L 300.371393 307.584 
L 298.409075 307.584 
z
" style="fill:#fa9ba4;opacity:0.2;"/>
   </g>
   <g id="patch_106">
    <path clip-path="url(#p1e7deacff1)" d="M 300.589428 307.584 
L 302.551746 307.584 
L 302.551746 307.584 
L 300.589428 307.584 
z
" style="fill:#fa9ba4;opacity:0.2;"/>
   </g>
   <g id="patch_107">
    <path clip-path="url(#p1e7deacff1)" d="M 302.769781 307.584 
L 304.732098 307.584 
L 304.732098 307.584 
L 302.769781 307.584 
z
" style="fill:#fa9ba4;opacity:0.2;"/>
   </g>
   <g id="patch_108">
    <path clip-path="url(#p1e7deacff1)" d="M 304.950134 307.584 
L 306.912451 307.584 
L 306.912451 307.584 
L 304.950134 307.584 
z
" style="fill:#fa9ba4;opacity:0.2;"/>
   </g>
   <g id="patch_109">
    <path clip-path="url(#p1e7deacff1)" d="M 307.130487 307.584 
L 309.092804 307.584 
L 309.092804 307.584 
L 307.130487 307.584 
z
" style="fill:#fa9ba4;opacity:0.2;"/>
   </g>
   <g id="patch_110">
    <path clip-path="url(#p1e7deacff1)" d="M 309.310839 307.584 
L 311.273157 307.584 
L 311.273157 307.584 
L 309.310839 307.584 
z
" style="fill:#fa9ba4;opacity:0.2;"/>
   </g>
   <g id="patch_111">
    <path clip-path="url(#p1e7deacff1)" d="M 311.491192 307.584 
L 313.45351 307.584 
L 313.45351 307.584 
L 311.491192 307.584 
z
" style="fill:#fa9ba4;opacity:0.2;"/>
   </g>
   <g id="patch_112">
    <path clip-path="url(#p1e7deacff1)" d="M 313.671545 307.584 
L 315.633863 307.584 
L 315.633863 307.584 
L 313.671545 307.584 
z
" style="fill:#fa9ba4;opacity:0.2;"/>
   </g>
   <g id="patch_113">
    <path clip-path="url(#p1e7deacff1)" d="M 315.851898 307.584 
L 317.814216 307.584 
L 317.814216 307.584 
L 315.851898 307.584 
z
" style="fill:#fa9ba4;opacity:0.2;"/>
   </g>
   <g id="patch_114">
    <path clip-path="url(#p1e7deacff1)" d="M 318.032251 307.584 
L 319.994569 307.584 
L 319.994569 307.584 
L 318.032251 307.584 
z
" style="fill:#fa9ba4;opacity:0.2;"/>
   </g>
   <g id="patch_115">
    <path clip-path="url(#p1e7deacff1)" d="M 320.212604 307.584 
L 322.174922 307.584 
L 322.174922 307.584 
L 320.212604 307.584 
z
" style="fill:#fa9ba4;opacity:0.2;"/>
   </g>
   <g id="patch_116">
    <path clip-path="url(#p1e7deacff1)" d="M 322.392957 307.584 
L 324.355274 307.584 
L 324.355274 304.128 
L 322.392957 304.128 
z
" style="fill:#fa9ba4;opacity:0.2;"/>
   </g>
   <g id="patch_117">
    <path clip-path="url(#p1e7deacff1)" d="M 324.57331 307.584 
L 326.535627 307.584 
L 326.535627 300.672 
L 324.57331 300.672 
z
" style="fill:#fa9ba4;opacity:0.2;"/>
   </g>
   <g id="patch_118">
    <path clip-path="url(#p1e7deacff1)" d="M 326.753663 307.584 
L 328.71598 307.584 
L 328.71598 273.024 
L 326.753663 273.024 
z
" style="fill:#fa9ba4;opacity:0.2;"/>
   </g>
   <g id="patch_119">
    <path clip-path="url(#p1e7deacff1)" d="M 328.934016 307.584 
L 330.896333 307.584 
L 330.896333 286.848 
L 328.934016 286.848 
z
" style="fill:#fa9ba4;opacity:0.2;"/>
   </g>
   <g id="patch_120">
    <path clip-path="url(#p1e7deacff1)" d="M 331.114368 307.584 
L 333.076686 307.584 
L 333.076686 273.024 
L 331.114368 273.024 
z
" style="fill:#fa9ba4;opacity:0.2;"/>
   </g>
   <g id="patch_121">
    <path clip-path="url(#p1e7deacff1)" d="M 333.294721 307.584 
L 335.257039 307.584 
L 335.257039 307.584 
L 333.294721 307.584 
z
" style="fill:#fa9ba4;opacity:0.2;"/>
   </g>
   <g id="patch_122">
    <path clip-path="url(#p1e7deacff1)" d="M 335.475074 307.584 
L 337.437392 307.584 
L 337.437392 307.584 
L 335.475074 307.584 
z
" style="fill:#fa9ba4;opacity:0.2;"/>
   </g>
   <g id="patch_123">
    <path clip-path="url(#p1e7deacff1)" d="M 337.655427 307.584 
L 339.617745 307.584 
L 339.617745 307.584 
L 337.655427 307.584 
z
" style="fill:#fa9ba4;opacity:0.2;"/>
   </g>
   <g id="patch_124">
    <path clip-path="url(#p1e7deacff1)" d="M 339.83578 307.584 
L 341.798098 307.584 
L 341.798098 41.472 
L 339.83578 41.472 
z
" style="fill:#fa9ba4;opacity:0.2;"/>
   </g>
   <g id="patch_125">
    <path clip-path="url(#p1e7deacff1)" d="M 342.016133 307.584 
L 343.97845 307.584 
L 343.97845 248.832 
L 342.016133 248.832 
z
" style="fill:#fa9ba4;opacity:0.2;"/>
   </g>
   <g id="patch_126">
    <path clip-path="url(#p1e7deacff1)" d="M 344.196486 307.584 
L 346.158803 307.584 
L 346.158803 248.832 
L 344.196486 248.832 
z
" style="fill:#fa9ba4;opacity:0.2;"/>
   </g>
   <g id="patch_127">
    <path clip-path="url(#p1e7deacff1)" d="M 346.376839 307.584 
L 348.339156 307.584 
L 348.339156 248.832 
L 346.376839 248.832 
z
" style="fill:#fa9ba4;opacity:0.2;"/>
   </g>
   <g id="patch_128">
    <path clip-path="url(#p1e7deacff1)" d="M 348.557192 307.584 
L 350.519509 307.584 
L 350.519509 248.832 
L 348.557192 248.832 
z
" style="fill:#fa9ba4;opacity:0.2;"/>
   </g>
   <g id="patch_129">
    <path clip-path="url(#p1e7deacff1)" d="M 350.737544 307.584 
L 352.699862 307.584 
L 352.699862 235.008 
L 350.737544 235.008 
z
" style="fill:#fa9ba4;opacity:0.2;"/>
   </g>
   <g id="patch_130">
    <path clip-path="url(#p1e7deacff1)" d="M 352.917897 307.584 
L 354.880215 307.584 
L 354.880215 252.288 
L 352.917897 252.288 
z
" style="fill:#fa9ba4;opacity:0.2;"/>
   </g>
   <g id="patch_131">
    <path clip-path="url(#p1e7deacff1)" d="M 355.09825 307.584 
L 357.060568 307.584 
L 357.060568 248.832 
L 355.09825 248.832 
z
" style="fill:#fa9ba4;opacity:0.2;"/>
   </g>
   <g id="patch_132">
    <path clip-path="url(#p1e7deacff1)" d="M 357.278603 307.584 
L 359.240921 307.584 
L 359.240921 241.92 
L 357.278603 241.92 
z
" style="fill:#fa9ba4;opacity:0.2;"/>
   </g>
   <g id="patch_133">
    <path clip-path="url(#p1e7deacff1)" d="M 359.458956 307.584 
L 361.421274 307.584 
L 361.421274 190.08 
L 359.458956 190.08 
z
" style="fill:#fa9ba4;opacity:0.2;"/>
   </g>
   <g id="patch_134">
    <path clip-path="url(#p1e7deacff1)" d="M 361.639309 307.584 
L 363.601626 307.584 
L 363.601626 241.92 
L 361.639309 241.92 
z
" style="fill:#fa9ba4;opacity:0.2;"/>
   </g>
   <g id="patch_135">
    <path clip-path="url(#p1e7deacff1)" d="M 363.819662 307.584 
L 365.781979 307.584 
L 365.781979 283.392 
L 363.819662 283.392 
z
" style="fill:#fa9ba4;opacity:0.2;"/>
   </g>
   <g id="patch_136">
    <path clip-path="url(#p1e7deacff1)" d="M 366.000015 307.584 
L 367.962332 307.584 
L 367.962332 238.464 
L 366.000015 238.464 
z
" style="fill:#fa9ba4;opacity:0.2;"/>
   </g>
   <g id="patch_137">
    <path clip-path="url(#p1e7deacff1)" d="M 368.180368 307.584 
L 370.142685 307.584 
L 370.142685 269.568 
L 368.180368 269.568 
z
" style="fill:#fa9ba4;opacity:0.2;"/>
   </g>
   <g id="patch_138">
    <path clip-path="url(#p1e7deacff1)" d="M 370.36072 307.584 
L 372.323038 307.584 
L 372.323038 217.728 
L 370.36072 217.728 
z
" style="fill:#fa9ba4;opacity:0.2;"/>
   </g>
   <g id="patch_139">
    <path clip-path="url(#p1e7deacff1)" d="M 372.541073 307.584 
L 374.503391 307.584 
L 374.503391 279.936 
L 372.541073 279.936 
z
" style="fill:#fa9ba4;opacity:0.2;"/>
   </g>
   <g id="patch_140">
    <path clip-path="url(#p1e7deacff1)" d="M 374.721426 307.584 
L 376.683744 307.584 
L 376.683744 228.096 
L 374.721426 228.096 
z
" style="fill:#fa9ba4;opacity:0.2;"/>
   </g>
   <g id="patch_141">
    <path clip-path="url(#p1e7deacff1)" d="M 376.901779 307.584 
L 378.864097 307.584 
L 378.864097 259.2 
L 376.901779 259.2 
z
" style="fill:#fa9ba4;opacity:0.2;"/>
   </g>
   <g id="patch_142">
    <path clip-path="url(#p1e7deacff1)" d="M 379.082132 307.584 
L 381.04445 307.584 
L 381.04445 217.728 
L 379.082132 217.728 
z
" style="fill:#fa9ba4;opacity:0.2;"/>
   </g>
   <g id="patch_143">
    <path clip-path="url(#p1e7deacff1)" d="M 381.262485 307.584 
L 383.224802 307.584 
L 383.224802 297.216 
L 381.262485 297.216 
z
" style="fill:#fa9ba4;opacity:0.2;"/>
   </g>
   <g id="patch_144">
    <path clip-path="url(#p1e7deacff1)" d="M 383.442838 307.584 
L 385.405155 307.584 
L 385.405155 248.832 
L 383.442838 248.832 
z
" style="fill:#fa9ba4;opacity:0.2;"/>
   </g>
   <g id="patch_145">
    <path clip-path="url(#p1e7deacff1)" d="M 385.623191 307.584 
L 387.585508 307.584 
L 387.585508 297.216 
L 385.623191 297.216 
z
" style="fill:#fa9ba4;opacity:0.2;"/>
   </g>
   <g id="patch_146">
    <path clip-path="url(#p1e7deacff1)" d="M 387.803544 307.584 
L 389.765861 307.584 
L 389.765861 283.392 
L 387.803544 283.392 
z
" style="fill:#fa9ba4;opacity:0.2;"/>
   </g>
   <g id="patch_147">
    <path clip-path="url(#p1e7deacff1)" d="M 389.983896 307.584 
L 391.946214 307.584 
L 391.946214 290.304 
L 389.983896 290.304 
z
" style="fill:#fa9ba4;opacity:0.2;"/>
   </g>
   <g id="patch_148">
    <path clip-path="url(#p1e7deacff1)" d="M 392.164249 307.584 
L 394.126567 307.584 
L 394.126567 269.568 
L 392.164249 269.568 
z
" style="fill:#fa9ba4;opacity:0.2;"/>
   </g>
   <g id="patch_149">
    <path clip-path="url(#p1e7deacff1)" d="M 394.344602 307.584 
L 396.30692 307.584 
L 396.30692 276.48 
L 394.344602 276.48 
z
" style="fill:#fa9ba4;opacity:0.2;"/>
   </g>
   <g id="patch_150">
    <path clip-path="url(#p1e7deacff1)" d="M 396.524955 307.584 
L 398.487273 307.584 
L 398.487273 273.024 
L 396.524955 273.024 
z
" style="fill:#fa9ba4;opacity:0.2;"/>
   </g>
   <g id="matplotlib.axis_1"/>
   <g id="matplotlib.axis_2"/>
   <g id="PolyCollection_1">
    <defs>
     <path d="M 369.161526 -100.717714 
L 369.161526 -38.016 
L 371.341879 -38.016 
L 373.522232 -38.016 
L 375.702585 -38.016 
L 377.882938 -38.016 
L 380.063291 -38.016 
L 382.243644 -38.016 
L 384.423997 -38.016 
L 386.604349 -38.016 
L 388.784702 -38.016 
L 390.965055 -38.016 
L 393.145408 -38.016 
L 395.325761 -38.016 
L 397.506114 -38.016 
L 397.506114 -68.626286 
L 397.506114 -68.626286 
L 395.325761 -65.170286 
L 393.145408 -73.563429 
L 390.965055 -75.044571 
L 388.784702 -83.931429 
L 386.604349 -84.425143 
L 384.423997 -95.780571 
L 382.243644 -92.818286 
L 380.063291 -101.211429 
L 377.882938 -91.830857 
L 375.702585 -94.299429 
L 373.522232 -99.730286 
L 371.341879 -105.161143 
L 369.161526 -100.717714 
z
" id="mfd558efa27" style="stroke:#dc3545;stroke-opacity:0.5;"/>
    </defs>
    <g clip-path="url(#p1e7deacff1)">
     <use style="fill:#dc3545;fill-opacity:0.5;stroke:#dc3545;stroke-opacity:0.5;" x="0" xlink:href="#mfd558efa27" y="345.6"/>
    </g>
   </g>
   <g id="PolyCollection_2">
    <defs>
     <path d="M 87.896003 -42.459429 
L 87.896003 -38.016 
L 90.076356 -38.016 
L 92.256709 -38.016 
L 94.437062 -38.016 
L 96.617415 -38.016 
L 98.797768 -38.016 
L 100.978121 -38.016 
L 103.158474 -38.016 
L 105.338827 -38.016 
L 107.519179 -38.016 
L 109.699532 -38.016 
L 111.879885 -38.016 
L 114.060238 -38.016 
L 116.240591 -38.016 
L 118.420944 -38.016 
L 120.601297 -38.016 
L 122.78165 -38.016 
L 124.962003 -38.016 
L 127.142355 -38.016 
L 129.322708 -38.016 
L 131.503061 -38.016 
L 133.683414 -38.016 
L 135.863767 -38.016 
L 138.04412 -38.016 
L 140.224473 -38.016 
L 142.404826 -38.016 
L 144.585179 -38.016 
L 146.765531 -38.016 
L 148.945884 -38.016 
L 151.126237 -38.016 
L 153.30659 -38.016 
L 155.486943 -38.016 
L 157.667296 -38.016 
L 159.847649 -38.016 
L 162.028002 -38.016 
L 164.208355 -38.016 
L 166.388707 -38.016 
L 168.56906 -38.016 
L 170.749413 -38.016 
L 172.929766 -38.016 
L 175.110119 -38.016 
L 177.290472 -38.016 
L 179.470825 -38.016 
L 181.651178 -38.016 
L 183.831531 -38.016 
L 186.011884 -38.016 
L 188.192236 -38.016 
L 190.372589 -38.016 
L 192.552942 -38.016 
L 194.733295 -38.016 
L 196.913648 -38.016 
L 199.094001 -38.016 
L 201.274354 -38.016 
L 203.454707 -38.016 
L 205.63506 -38.016 
L 207.815412 -38.016 
L 209.995765 -38.016 
L 212.176118 -38.016 
L 214.356471 -38.016 
L 216.536824 -38.016 
L 218.717177 -38.016 
L 220.89753 -38.016 
L 223.077883 -38.016 
L 225.258236 -38.016 
L 227.438588 -38.016 
L 229.618941 -38.016 
L 231.799294 -38.016 
L 233.979647 -38.016 
L 236.16 -38.016 
L 238.340353 -38.016 
L 240.520706 -38.016 
L 242.701059 -38.016 
L 244.881412 -38.016 
L 247.061764 -38.016 
L 249.242117 -38.016 
L 251.42247 -38.016 
L 253.602823 -38.016 
L 255.783176 -38.016 
L 257.963529 -38.016 
L 260.143882 -38.016 
L 262.324235 -38.016 
L 264.504588 -38.016 
L 266.68494 -38.016 
L 268.865293 -38.016 
L 271.045646 -38.016 
L 273.225999 -38.016 
L 275.406352 -38.016 
L 277.586705 -38.016 
L 279.767058 -38.016 
L 281.947411 -38.016 
L 284.127764 -38.016 
L 286.308116 -38.016 
L 288.488469 -38.016 
L 290.668822 -38.016 
L 292.849175 -38.016 
L 295.029528 -38.016 
L 297.209881 -38.016 
L 299.390234 -38.016 
L 301.570587 -38.016 
L 303.75094 -38.016 
L 305.931293 -38.016 
L 308.111645 -38.016 
L 310.291998 -38.016 
L 312.472351 -38.016 
L 314.652704 -38.016 
L 316.833057 -38.016 
L 319.01341 -38.016 
L 321.193763 -38.016 
L 323.374116 -38.016 
L 325.554469 -38.016 
L 327.734821 -38.016 
L 329.915174 -38.016 
L 332.095527 -38.016 
L 334.27588 -38.016 
L 336.456233 -38.016 
L 338.636586 -38.016 
L 340.816939 -38.016 
L 342.997292 -38.016 
L 345.177645 -38.016 
L 347.357997 -38.016 
L 349.53835 -38.016 
L 351.718703 -38.016 
L 353.899056 -38.016 
L 356.079409 -38.016 
L 358.259762 -38.016 
L 360.440115 -38.016 
L 362.620468 -38.016 
L 364.800821 -38.016 
L 366.981173 -38.016 
L 369.161526 -38.016 
L 369.161526 -100.717714 
L 369.161526 -100.717714 
L 366.981173 -103.186286 
L 364.800821 -103.68 
L 362.620468 -108.617143 
L 360.440115 -107.629714 
L 358.259762 -99.236571 
L 356.079409 -98.249143 
L 353.899056 -127.872 
L 351.718703 -119.972571 
L 349.53835 -109.604571 
L 347.357997 -101.211429 
L 345.177645 -97.755429 
L 342.997292 -92.324571 
L 340.816939 -88.868571 
L 338.636586 -51.84 
L 336.456233 -52.333714 
L 334.27588 -52.333714 
L 332.095527 -52.333714 
L 329.915174 -47.396571 
L 327.734821 -44.434286 
L 325.554469 -39.497143 
L 323.374116 -38.509714 
L 321.193763 -38.016 
L 319.01341 -38.016 
L 316.833057 -38.016 
L 314.652704 -38.016 
L 312.472351 -38.016 
L 310.291998 -38.016 
L 308.111645 -38.016 
L 305.931293 -38.016 
L 303.75094 -38.016 
L 301.570587 -38.016 
L 299.390234 -38.016 
L 297.209881 -38.016 
L 295.029528 -38.016 
L 292.849175 -38.016 
L 290.668822 -38.016 
L 288.488469 -38.016 
L 286.308116 -38.016 
L 284.127764 -38.016 
L 281.947411 -38.016 
L 279.767058 -38.016 
L 277.586705 -38.016 
L 275.406352 -38.016 
L 273.225999 -38.016 
L 271.045646 -38.016 
L 268.865293 -38.016 
L 266.68494 -38.016 
L 264.504588 -38.016 
L 262.324235 -38.016 
L 260.143882 -38.016 
L 257.963529 -38.016 
L 255.783176 -38.016 
L 253.602823 -38.016 
L 251.42247 -38.016 
L 249.242117 -38.016 
L 247.061764 -38.016 
L 244.881412 -38.016 
L 242.701059 -38.016 
L 240.520706 -38.016 
L 238.340353 -38.016 
L 236.16 -38.016 
L 233.979647 -38.016 
L 231.799294 -38.016 
L 229.618941 -38.016 
L 227.438588 -38.016 
L 225.258236 -38.016 
L 223.077883 -38.016 
L 220.89753 -38.016 
L 218.717177 -38.016 
L 216.536824 -38.016 
L 214.356471 -38.016 
L 212.176118 -38.016 
L 209.995765 -38.016 
L 207.815412 -38.016 
L 205.63506 -38.016 
L 203.454707 -38.016 
L 201.274354 -38.016 
L 199.094001 -38.016 
L 196.913648 -38.016 
L 194.733295 -38.016 
L 192.552942 -38.016 
L 190.372589 -38.016 
L 188.192236 -38.016 
L 186.011884 -38.016 
L 183.831531 -38.016 
L 181.651178 -38.016 
L 179.470825 -38.016 
L 177.290472 -38.016 
L 175.110119 -38.016 
L 172.929766 -38.016 
L 170.749413 -38.016 
L 168.56906 -38.509714 
L 166.388707 -38.509714 
L 164.208355 -38.509714 
L 162.028002 -38.509714 
L 159.847649 -38.509714 
L 157.667296 -38.509714 
L 155.486943 -38.509714 
L 153.30659 -38.016 
L 151.126237 -38.016 
L 148.945884 -38.016 
L 146.765531 -38.016 
L 144.585179 -38.016 
L 142.404826 -38.016 
L 140.224473 -38.016 
L 138.04412 -38.016 
L 135.863767 -38.016 
L 133.683414 -38.016 
L 131.503061 -38.016 
L 129.322708 -38.016 
L 127.142355 -38.016 
L 124.962003 -38.016 
L 122.78165 -38.016 
L 120.601297 -38.016 
L 118.420944 -38.016 
L 116.240591 -38.016 
L 114.060238 -38.016 
L 111.879885 -38.016 
L 109.699532 -38.509714 
L 107.519179 -39.003429 
L 105.338827 -39.497143 
L 103.158474 -39.497143 
L 100.978121 -39.497143 
L 98.797768 -40.484571 
L 96.617415 -40.484571 
L 94.437062 -41.965714 
L 92.256709 -41.472 
L 90.076356 -42.459429 
L 87.896003 -42.459429 
z
" id="mf13d6c4a95" style="stroke:#fa9ba4;stroke-opacity:0.3;"/>
    </defs>
    <g clip-path="url(#p1e7deacff1)">
     <use style="fill:#fa9ba4;fill-opacity:0.3;stroke:#fa9ba4;stroke-opacity:0.3;" x="0" xlink:href="#mf13d6c4a95" y="345.6"/>
    </g>
   </g>
   <g id="line2d_1">
    <path clip-path="url(#p1e7deacff1)" d="M 87.896003 303.140571 
L 90.076356 303.140571 
L 92.256709 304.128 
L 94.437062 303.634286 
L 96.617415 305.115429 
L 98.797768 305.115429 
L 100.978121 306.102857 
L 105.338827 306.102857 
L 111.879885 307.584 
L 153.30659 307.584 
L 155.486943 307.090286 
L 168.56906 307.090286 
L 170.749413 307.584 
L 321.193763 307.584 
L 323.374116 307.090286 
L 325.554469 306.102857 
L 327.734821 301.165714 
L 329.915174 298.203429 
L 332.095527 293.266286 
L 336.456233 293.266286 
L 338.636586 293.76 
L 340.816939 256.731429 
L 342.997292 253.275429 
L 345.177645 247.844571 
L 347.357997 244.388571 
L 349.53835 235.995429 
L 351.718703 225.627429 
L 353.899056 217.728 
L 356.079409 247.350857 
L 358.259762 246.363429 
L 360.440115 237.970286 
L 362.620468 236.982857 
L 364.800821 241.92 
L 366.981173 242.413714 
L 369.161526 244.882286 
L 371.341879 240.438857 
L 375.702585 251.300571 
L 377.882938 253.769143 
L 380.063291 244.388571 
L 382.243644 252.781714 
L 384.423997 249.819429 
L 386.604349 261.174857 
L 388.784702 261.668571 
L 390.965055 270.555429 
L 393.145408 272.036571 
L 395.325761 280.429714 
L 397.506114 276.973714 
L 397.506114 276.973714 
" style="fill:none;stroke:#fa9ba4;stroke-linecap:square;stroke-width:2;"/>
   </g>
   <g id="line2d_2">
    <path clip-path="url(#p1e7deacff1)" d="M 369.161526 244.882286 
L 371.341879 240.438857 
L 373.522232 245.869714 
L 375.702585 251.300571 
L 377.882938 253.769143 
L 380.063291 244.388571 
L 382.243644 252.781714 
L 384.423997 249.819429 
L 386.604349 261.174857 
L 388.784702 261.668571 
L 390.965055 270.555429 
L 393.145408 272.036571 
L 395.325761 280.429714 
L 397.506114 276.973714 
" style="fill:none;stroke:#dc3545;stroke-linecap:square;stroke-width:2;"/>
   </g>
  </g>
 </g>
 <defs>
  <clipPath id="p1e7deacff1">
   <rect height="266.112" width="357.12" x="57.6" y="41.472"/>
  </clipPath>
 </defs>
</svg>
