<?xml version="1.0" encoding="utf-8" standalone="no"?>
<!DOCTYPE svg PUBLIC "-//W3C//DTD SVG 1.1//EN"
  "http://www.w3.org/Graphics/SVG/1.1/DTD/svg11.dtd">
<svg height="345.6pt" version="1.1" viewBox="0 0 460.8 345.6" width="460.8pt" xmlns="http://www.w3.org/2000/svg" xmlns:xlink="http://www.w3.org/1999/xlink">
 <metadata>
  <rdf:RDF xmlns:cc="http://creativecommons.org/ns#" xmlns:dc="http://purl.org/dc/elements/1.1/" xmlns:rdf="http://www.w3.org/1999/02/22-rdf-syntax-ns#">
   <cc:Work>
    <dc:type rdf:resource="http://purl.org/dc/dcmitype/StillImage"/>
    <dc:date>2021-05-04T13:22:36.715507</dc:date>
    <dc:format>image/svg+xml</dc:format>
    <dc:creator>
     <cc:Agent>
      <dc:title>Matplotlib v3.4.1, https://matplotlib.org/</dc:title>
     </cc:Agent>
    </dc:creator>
   </cc:Work>
  </rdf:RDF>
 </metadata>
 <defs>
  <style type="text/css">*{stroke-linecap:butt;stroke-linejoin:round;}</style>
 </defs>
 <g id="figure_1">
  <g id="patch_1">
   <path d="M 0 345.6 
L 460.8 345.6 
L 460.8 0 
L 0 0 
z
" style="fill:none;"/>
  </g>
  <g id="axes_1">
   <g id="patch_2">
    <path clip-path="url(#pd1b9b625ac)" d="M 73.832727 307.584 
L 75.921284 307.584 
L 75.921284 307.584 
L 73.832727 307.584 
z
" style="fill:#fa9ba4;opacity:0.2;"/>
   </g>
   <g id="patch_3">
    <path clip-path="url(#pd1b9b625ac)" d="M 76.153346 307.584 
L 78.241903 307.584 
L 78.241903 297.216 
L 76.153346 297.216 
z
" style="fill:#fa9ba4;opacity:0.2;"/>
   </g>
   <g id="patch_4">
    <path clip-path="url(#pd1b9b625ac)" d="M 78.473965 307.584 
L 80.562521 307.584 
L 80.562521 307.584 
L 78.473965 307.584 
z
" style="fill:#fa9ba4;opacity:0.2;"/>
   </g>
   <g id="patch_5">
    <path clip-path="url(#pd1b9b625ac)" d="M 80.794583 307.584 
L 82.88314 307.584 
L 82.88314 293.76 
L 80.794583 293.76 
z
" style="fill:#fa9ba4;opacity:0.2;"/>
   </g>
   <g id="patch_6">
    <path clip-path="url(#pd1b9b625ac)" d="M 83.115202 307.584 
L 85.203759 307.584 
L 85.203759 307.584 
L 83.115202 307.584 
z
" style="fill:#fa9ba4;opacity:0.2;"/>
   </g>
   <g id="patch_7">
    <path clip-path="url(#pd1b9b625ac)" d="M 85.43582 307.584 
L 87.524377 307.584 
L 87.524377 300.672 
L 85.43582 300.672 
z
" style="fill:#fa9ba4;opacity:0.2;"/>
   </g>
   <g id="patch_8">
    <path clip-path="url(#pd1b9b625ac)" d="M 87.756439 307.584 
L 89.844996 307.584 
L 89.844996 307.584 
L 87.756439 307.584 
z
" style="fill:#fa9ba4;opacity:0.2;"/>
   </g>
   <g id="patch_9">
    <path clip-path="url(#pd1b9b625ac)" d="M 90.077058 307.584 
L 92.165614 307.584 
L 92.165614 307.584 
L 90.077058 307.584 
z
" style="fill:#fa9ba4;opacity:0.2;"/>
   </g>
   <g id="patch_10">
    <path clip-path="url(#pd1b9b625ac)" d="M 92.397676 307.584 
L 94.486233 307.584 
L 94.486233 304.128 
L 92.397676 304.128 
z
" style="fill:#fa9ba4;opacity:0.2;"/>
   </g>
   <g id="patch_11">
    <path clip-path="url(#pd1b9b625ac)" d="M 94.718295 307.584 
L 96.806852 307.584 
L 96.806852 304.128 
L 94.718295 304.128 
z
" style="fill:#fa9ba4;opacity:0.2;"/>
   </g>
   <g id="patch_12">
    <path clip-path="url(#pd1b9b625ac)" d="M 97.038914 307.584 
L 99.12747 307.584 
L 99.12747 304.128 
L 97.038914 304.128 
z
" style="fill:#fa9ba4;opacity:0.2;"/>
   </g>
   <g id="patch_13">
    <path clip-path="url(#pd1b9b625ac)" d="M 99.359532 307.584 
L 101.448089 307.584 
L 101.448089 307.584 
L 99.359532 307.584 
z
" style="fill:#fa9ba4;opacity:0.2;"/>
   </g>
   <g id="patch_14">
    <path clip-path="url(#pd1b9b625ac)" d="M 101.680151 307.584 
L 103.768708 307.584 
L 103.768708 307.584 
L 101.680151 307.584 
z
" style="fill:#fa9ba4;opacity:0.2;"/>
   </g>
   <g id="patch_15">
    <path clip-path="url(#pd1b9b625ac)" d="M 104.000769 307.584 
L 106.089326 307.584 
L 106.089326 307.584 
L 104.000769 307.584 
z
" style="fill:#fa9ba4;opacity:0.2;"/>
   </g>
   <g id="patch_16">
    <path clip-path="url(#pd1b9b625ac)" d="M 106.321388 307.584 
L 108.409945 307.584 
L 108.409945 307.584 
L 106.321388 307.584 
z
" style="fill:#fa9ba4;opacity:0.2;"/>
   </g>
   <g id="patch_17">
    <path clip-path="url(#pd1b9b625ac)" d="M 108.642007 307.584 
L 110.730563 307.584 
L 110.730563 307.584 
L 108.642007 307.584 
z
" style="fill:#fa9ba4;opacity:0.2;"/>
   </g>
   <g id="patch_18">
    <path clip-path="url(#pd1b9b625ac)" d="M 110.962625 307.584 
L 113.051182 307.584 
L 113.051182 307.584 
L 110.962625 307.584 
z
" style="fill:#fa9ba4;opacity:0.2;"/>
   </g>
   <g id="patch_19">
    <path clip-path="url(#pd1b9b625ac)" d="M 113.283244 307.584 
L 115.371801 307.584 
L 115.371801 307.584 
L 113.283244 307.584 
z
" style="fill:#fa9ba4;opacity:0.2;"/>
   </g>
   <g id="patch_20">
    <path clip-path="url(#pd1b9b625ac)" d="M 115.603862 307.584 
L 117.692419 307.584 
L 117.692419 307.584 
L 115.603862 307.584 
z
" style="fill:#fa9ba4;opacity:0.2;"/>
   </g>
   <g id="patch_21">
    <path clip-path="url(#pd1b9b625ac)" d="M 117.924481 307.584 
L 120.013038 307.584 
L 120.013038 307.584 
L 117.924481 307.584 
z
" style="fill:#fa9ba4;opacity:0.2;"/>
   </g>
   <g id="patch_22">
    <path clip-path="url(#pd1b9b625ac)" d="M 120.2451 307.584 
L 122.333657 307.584 
L 122.333657 307.584 
L 120.2451 307.584 
z
" style="fill:#fa9ba4;opacity:0.2;"/>
   </g>
   <g id="patch_23">
    <path clip-path="url(#pd1b9b625ac)" d="M 122.565718 307.584 
L 124.654275 307.584 
L 124.654275 307.584 
L 122.565718 307.584 
z
" style="fill:#fa9ba4;opacity:0.2;"/>
   </g>
   <g id="patch_24">
    <path clip-path="url(#pd1b9b625ac)" d="M 124.886337 307.584 
L 126.974894 307.584 
L 126.974894 307.584 
L 124.886337 307.584 
z
" style="fill:#fa9ba4;opacity:0.2;"/>
   </g>
   <g id="patch_25">
    <path clip-path="url(#pd1b9b625ac)" d="M 127.206956 307.584 
L 129.295512 307.584 
L 129.295512 307.584 
L 127.206956 307.584 
z
" style="fill:#fa9ba4;opacity:0.2;"/>
   </g>
   <g id="patch_26">
    <path clip-path="url(#pd1b9b625ac)" d="M 129.527574 307.584 
L 131.616131 307.584 
L 131.616131 307.584 
L 129.527574 307.584 
z
" style="fill:#fa9ba4;opacity:0.2;"/>
   </g>
   <g id="patch_27">
    <path clip-path="url(#pd1b9b625ac)" d="M 131.848193 307.584 
L 133.93675 307.584 
L 133.93675 307.584 
L 131.848193 307.584 
z
" style="fill:#fa9ba4;opacity:0.2;"/>
   </g>
   <g id="patch_28">
    <path clip-path="url(#pd1b9b625ac)" d="M 134.168811 307.584 
L 136.257368 307.584 
L 136.257368 307.584 
L 134.168811 307.584 
z
" style="fill:#fa9ba4;opacity:0.2;"/>
   </g>
   <g id="patch_29">
    <path clip-path="url(#pd1b9b625ac)" d="M 136.48943 307.584 
L 138.577987 307.584 
L 138.577987 307.584 
L 136.48943 307.584 
z
" style="fill:#fa9ba4;opacity:0.2;"/>
   </g>
   <g id="patch_30">
    <path clip-path="url(#pd1b9b625ac)" d="M 138.810049 307.584 
L 140.898605 307.584 
L 140.898605 307.584 
L 138.810049 307.584 
z
" style="fill:#fa9ba4;opacity:0.2;"/>
   </g>
   <g id="patch_31">
    <path clip-path="url(#pd1b9b625ac)" d="M 141.130667 307.584 
L 143.219224 307.584 
L 143.219224 307.584 
L 141.130667 307.584 
z
" style="fill:#fa9ba4;opacity:0.2;"/>
   </g>
   <g id="patch_32">
    <path clip-path="url(#pd1b9b625ac)" d="M 143.451286 307.584 
L 145.539843 307.584 
L 145.539843 307.584 
L 143.451286 307.584 
z
" style="fill:#fa9ba4;opacity:0.2;"/>
   </g>
   <g id="patch_33">
    <path clip-path="url(#pd1b9b625ac)" d="M 145.771905 307.584 
L 147.860461 307.584 
L 147.860461 307.584 
L 145.771905 307.584 
z
" style="fill:#fa9ba4;opacity:0.2;"/>
   </g>
   <g id="patch_34">
    <path clip-path="url(#pd1b9b625ac)" d="M 148.092523 307.584 
L 150.18108 307.584 
L 150.18108 307.584 
L 148.092523 307.584 
z
" style="fill:#fa9ba4;opacity:0.2;"/>
   </g>
   <g id="patch_35">
    <path clip-path="url(#pd1b9b625ac)" d="M 150.413142 307.584 
L 152.501699 307.584 
L 152.501699 307.584 
L 150.413142 307.584 
z
" style="fill:#fa9ba4;opacity:0.2;"/>
   </g>
   <g id="patch_36">
    <path clip-path="url(#pd1b9b625ac)" d="M 152.73376 307.584 
L 154.822317 307.584 
L 154.822317 307.584 
L 152.73376 307.584 
z
" style="fill:#fa9ba4;opacity:0.2;"/>
   </g>
   <g id="patch_37">
    <path clip-path="url(#pd1b9b625ac)" d="M 155.054379 307.584 
L 157.142936 307.584 
L 157.142936 307.584 
L 155.054379 307.584 
z
" style="fill:#fa9ba4;opacity:0.2;"/>
   </g>
   <g id="patch_38">
    <path clip-path="url(#pd1b9b625ac)" d="M 157.374998 307.584 
L 159.463554 307.584 
L 159.463554 307.584 
L 157.374998 307.584 
z
" style="fill:#fa9ba4;opacity:0.2;"/>
   </g>
   <g id="patch_39">
    <path clip-path="url(#pd1b9b625ac)" d="M 159.695616 307.584 
L 161.784173 307.584 
L 161.784173 304.128 
L 159.695616 304.128 
z
" style="fill:#fa9ba4;opacity:0.2;"/>
   </g>
   <g id="patch_40">
    <path clip-path="url(#pd1b9b625ac)" d="M 162.016235 307.584 
L 164.104792 307.584 
L 164.104792 307.584 
L 162.016235 307.584 
z
" style="fill:#fa9ba4;opacity:0.2;"/>
   </g>
   <g id="patch_41">
    <path clip-path="url(#pd1b9b625ac)" d="M 164.336854 307.584 
L 166.42541 307.584 
L 166.42541 307.584 
L 164.336854 307.584 
z
" style="fill:#fa9ba4;opacity:0.2;"/>
   </g>
   <g id="patch_42">
    <path clip-path="url(#pd1b9b625ac)" d="M 166.657472 307.584 
L 168.746029 307.584 
L 168.746029 307.584 
L 166.657472 307.584 
z
" style="fill:#fa9ba4;opacity:0.2;"/>
   </g>
   <g id="patch_43">
    <path clip-path="url(#pd1b9b625ac)" d="M 168.978091 307.584 
L 171.066648 307.584 
L 171.066648 307.584 
L 168.978091 307.584 
z
" style="fill:#fa9ba4;opacity:0.2;"/>
   </g>
   <g id="patch_44">
    <path clip-path="url(#pd1b9b625ac)" d="M 171.298709 307.584 
L 173.387266 307.584 
L 173.387266 307.584 
L 171.298709 307.584 
z
" style="fill:#fa9ba4;opacity:0.2;"/>
   </g>
   <g id="patch_45">
    <path clip-path="url(#pd1b9b625ac)" d="M 173.619328 307.584 
L 175.707885 307.584 
L 175.707885 307.584 
L 173.619328 307.584 
z
" style="fill:#fa9ba4;opacity:0.2;"/>
   </g>
   <g id="patch_46">
    <path clip-path="url(#pd1b9b625ac)" d="M 175.939947 307.584 
L 178.028503 307.584 
L 178.028503 307.584 
L 175.939947 307.584 
z
" style="fill:#fa9ba4;opacity:0.2;"/>
   </g>
   <g id="patch_47">
    <path clip-path="url(#pd1b9b625ac)" d="M 178.260565 307.584 
L 180.349122 307.584 
L 180.349122 307.584 
L 178.260565 307.584 
z
" style="fill:#fa9ba4;opacity:0.2;"/>
   </g>
   <g id="patch_48">
    <path clip-path="url(#pd1b9b625ac)" d="M 180.581184 307.584 
L 182.669741 307.584 
L 182.669741 307.584 
L 180.581184 307.584 
z
" style="fill:#fa9ba4;opacity:0.2;"/>
   </g>
   <g id="patch_49">
    <path clip-path="url(#pd1b9b625ac)" d="M 182.901803 307.584 
L 184.990359 307.584 
L 184.990359 307.584 
L 182.901803 307.584 
z
" style="fill:#fa9ba4;opacity:0.2;"/>
   </g>
   <g id="patch_50">
    <path clip-path="url(#pd1b9b625ac)" d="M 185.222421 307.584 
L 187.310978 307.584 
L 187.310978 307.584 
L 185.222421 307.584 
z
" style="fill:#fa9ba4;opacity:0.2;"/>
   </g>
   <g id="patch_51">
    <path clip-path="url(#pd1b9b625ac)" d="M 187.54304 307.584 
L 189.631597 307.584 
L 189.631597 307.584 
L 187.54304 307.584 
z
" style="fill:#fa9ba4;opacity:0.2;"/>
   </g>
   <g id="patch_52">
    <path clip-path="url(#pd1b9b625ac)" d="M 189.863658 307.584 
L 191.952215 307.584 
L 191.952215 307.584 
L 189.863658 307.584 
z
" style="fill:#fa9ba4;opacity:0.2;"/>
   </g>
   <g id="patch_53">
    <path clip-path="url(#pd1b9b625ac)" d="M 192.184277 307.584 
L 194.272834 307.584 
L 194.272834 307.584 
L 192.184277 307.584 
z
" style="fill:#fa9ba4;opacity:0.2;"/>
   </g>
   <g id="patch_54">
    <path clip-path="url(#pd1b9b625ac)" d="M 194.504896 307.584 
L 196.593452 307.584 
L 196.593452 307.584 
L 194.504896 307.584 
z
" style="fill:#fa9ba4;opacity:0.2;"/>
   </g>
   <g id="patch_55">
    <path clip-path="url(#pd1b9b625ac)" d="M 196.825514 307.584 
L 198.914071 307.584 
L 198.914071 307.584 
L 196.825514 307.584 
z
" style="fill:#fa9ba4;opacity:0.2;"/>
   </g>
   <g id="patch_56">
    <path clip-path="url(#pd1b9b625ac)" d="M 199.146133 307.584 
L 201.23469 307.584 
L 201.23469 307.584 
L 199.146133 307.584 
z
" style="fill:#fa9ba4;opacity:0.2;"/>
   </g>
   <g id="patch_57">
    <path clip-path="url(#pd1b9b625ac)" d="M 201.466752 307.584 
L 203.555308 307.584 
L 203.555308 307.584 
L 201.466752 307.584 
z
" style="fill:#fa9ba4;opacity:0.2;"/>
   </g>
   <g id="patch_58">
    <path clip-path="url(#pd1b9b625ac)" d="M 203.78737 307.584 
L 205.875927 307.584 
L 205.875927 307.584 
L 203.78737 307.584 
z
" style="fill:#fa9ba4;opacity:0.2;"/>
   </g>
   <g id="patch_59">
    <path clip-path="url(#pd1b9b625ac)" d="M 206.107989 307.584 
L 208.196546 307.584 
L 208.196546 307.584 
L 206.107989 307.584 
z
" style="fill:#fa9ba4;opacity:0.2;"/>
   </g>
   <g id="patch_60">
    <path clip-path="url(#pd1b9b625ac)" d="M 208.428607 307.584 
L 210.517164 307.584 
L 210.517164 307.584 
L 208.428607 307.584 
z
" style="fill:#fa9ba4;opacity:0.2;"/>
   </g>
   <g id="patch_61">
    <path clip-path="url(#pd1b9b625ac)" d="M 210.749226 307.584 
L 212.837783 307.584 
L 212.837783 307.584 
L 210.749226 307.584 
z
" style="fill:#fa9ba4;opacity:0.2;"/>
   </g>
   <g id="patch_62">
    <path clip-path="url(#pd1b9b625ac)" d="M 213.069845 307.584 
L 215.158401 307.584 
L 215.158401 307.584 
L 213.069845 307.584 
z
" style="fill:#fa9ba4;opacity:0.2;"/>
   </g>
   <g id="patch_63">
    <path clip-path="url(#pd1b9b625ac)" d="M 215.390463 307.584 
L 217.47902 307.584 
L 217.47902 307.584 
L 215.390463 307.584 
z
" style="fill:#fa9ba4;opacity:0.2;"/>
   </g>
   <g id="patch_64">
    <path clip-path="url(#pd1b9b625ac)" d="M 217.711082 307.584 
L 219.799639 307.584 
L 219.799639 307.584 
L 217.711082 307.584 
z
" style="fill:#fa9ba4;opacity:0.2;"/>
   </g>
   <g id="patch_65">
    <path clip-path="url(#pd1b9b625ac)" d="M 220.031701 307.584 
L 222.120257 307.584 
L 222.120257 307.584 
L 220.031701 307.584 
z
" style="fill:#fa9ba4;opacity:0.2;"/>
   </g>
   <g id="patch_66">
    <path clip-path="url(#pd1b9b625ac)" d="M 222.352319 307.584 
L 224.440876 307.584 
L 224.440876 307.584 
L 222.352319 307.584 
z
" style="fill:#fa9ba4;opacity:0.2;"/>
   </g>
   <g id="patch_67">
    <path clip-path="url(#pd1b9b625ac)" d="M 224.672938 307.584 
L 226.761495 307.584 
L 226.761495 307.584 
L 224.672938 307.584 
z
" style="fill:#fa9ba4;opacity:0.2;"/>
   </g>
   <g id="patch_68">
    <path clip-path="url(#pd1b9b625ac)" d="M 226.993556 307.584 
L 229.082113 307.584 
L 229.082113 307.584 
L 226.993556 307.584 
z
" style="fill:#fa9ba4;opacity:0.2;"/>
   </g>
   <g id="patch_69">
    <path clip-path="url(#pd1b9b625ac)" d="M 229.314175 307.584 
L 231.402732 307.584 
L 231.402732 307.584 
L 229.314175 307.584 
z
" style="fill:#fa9ba4;opacity:0.2;"/>
   </g>
   <g id="patch_70">
    <path clip-path="url(#pd1b9b625ac)" d="M 231.634794 307.584 
L 233.72335 307.584 
L 233.72335 307.584 
L 231.634794 307.584 
z
" style="fill:#fa9ba4;opacity:0.2;"/>
   </g>
   <g id="patch_71">
    <path clip-path="url(#pd1b9b625ac)" d="M 233.955412 307.584 
L 236.043969 307.584 
L 236.043969 307.584 
L 233.955412 307.584 
z
" style="fill:#fa9ba4;opacity:0.2;"/>
   </g>
   <g id="patch_72">
    <path clip-path="url(#pd1b9b625ac)" d="M 236.276031 307.584 
L 238.364588 307.584 
L 238.364588 307.584 
L 236.276031 307.584 
z
" style="fill:#fa9ba4;opacity:0.2;"/>
   </g>
   <g id="patch_73">
    <path clip-path="url(#pd1b9b625ac)" d="M 238.59665 307.584 
L 240.685206 307.584 
L 240.685206 307.584 
L 238.59665 307.584 
z
" style="fill:#fa9ba4;opacity:0.2;"/>
   </g>
   <g id="patch_74">
    <path clip-path="url(#pd1b9b625ac)" d="M 240.917268 307.584 
L 243.005825 307.584 
L 243.005825 307.584 
L 240.917268 307.584 
z
" style="fill:#fa9ba4;opacity:0.2;"/>
   </g>
   <g id="patch_75">
    <path clip-path="url(#pd1b9b625ac)" d="M 243.237887 307.584 
L 245.326444 307.584 
L 245.326444 307.584 
L 243.237887 307.584 
z
" style="fill:#fa9ba4;opacity:0.2;"/>
   </g>
   <g id="patch_76">
    <path clip-path="url(#pd1b9b625ac)" d="M 245.558505 307.584 
L 247.647062 307.584 
L 247.647062 307.584 
L 245.558505 307.584 
z
" style="fill:#fa9ba4;opacity:0.2;"/>
   </g>
   <g id="patch_77">
    <path clip-path="url(#pd1b9b625ac)" d="M 247.879124 307.584 
L 249.967681 307.584 
L 249.967681 307.584 
L 247.879124 307.584 
z
" style="fill:#fa9ba4;opacity:0.2;"/>
   </g>
   <g id="patch_78">
    <path clip-path="url(#pd1b9b625ac)" d="M 250.199743 307.584 
L 252.288299 307.584 
L 252.288299 307.584 
L 250.199743 307.584 
z
" style="fill:#fa9ba4;opacity:0.2;"/>
   </g>
   <g id="patch_79">
    <path clip-path="url(#pd1b9b625ac)" d="M 252.520361 307.584 
L 254.608918 307.584 
L 254.608918 307.584 
L 252.520361 307.584 
z
" style="fill:#fa9ba4;opacity:0.2;"/>
   </g>
   <g id="patch_80">
    <path clip-path="url(#pd1b9b625ac)" d="M 254.84098 307.584 
L 256.929537 307.584 
L 256.929537 307.584 
L 254.84098 307.584 
z
" style="fill:#fa9ba4;opacity:0.2;"/>
   </g>
   <g id="patch_81">
    <path clip-path="url(#pd1b9b625ac)" d="M 257.161599 307.584 
L 259.250155 307.584 
L 259.250155 307.584 
L 257.161599 307.584 
z
" style="fill:#fa9ba4;opacity:0.2;"/>
   </g>
   <g id="patch_82">
    <path clip-path="url(#pd1b9b625ac)" d="M 259.482217 307.584 
L 261.570774 307.584 
L 261.570774 307.584 
L 259.482217 307.584 
z
" style="fill:#fa9ba4;opacity:0.2;"/>
   </g>
   <g id="patch_83">
    <path clip-path="url(#pd1b9b625ac)" d="M 261.802836 307.584 
L 263.891393 307.584 
L 263.891393 307.584 
L 261.802836 307.584 
z
" style="fill:#fa9ba4;opacity:0.2;"/>
   </g>
   <g id="patch_84">
    <path clip-path="url(#pd1b9b625ac)" d="M 264.123454 307.584 
L 266.212011 307.584 
L 266.212011 307.584 
L 264.123454 307.584 
z
" style="fill:#fa9ba4;opacity:0.2;"/>
   </g>
   <g id="patch_85">
    <path clip-path="url(#pd1b9b625ac)" d="M 266.444073 307.584 
L 268.53263 307.584 
L 268.53263 307.584 
L 266.444073 307.584 
z
" style="fill:#fa9ba4;opacity:0.2;"/>
   </g>
   <g id="patch_86">
    <path clip-path="url(#pd1b9b625ac)" d="M 268.764692 307.584 
L 270.853248 307.584 
L 270.853248 307.584 
L 268.764692 307.584 
z
" style="fill:#fa9ba4;opacity:0.2;"/>
   </g>
   <g id="patch_87">
    <path clip-path="url(#pd1b9b625ac)" d="M 271.08531 307.584 
L 273.173867 307.584 
L 273.173867 307.584 
L 271.08531 307.584 
z
" style="fill:#fa9ba4;opacity:0.2;"/>
   </g>
   <g id="patch_88">
    <path clip-path="url(#pd1b9b625ac)" d="M 273.405929 307.584 
L 275.494486 307.584 
L 275.494486 307.584 
L 273.405929 307.584 
z
" style="fill:#fa9ba4;opacity:0.2;"/>
   </g>
   <g id="patch_89">
    <path clip-path="url(#pd1b9b625ac)" d="M 275.726548 307.584 
L 277.815104 307.584 
L 277.815104 307.584 
L 275.726548 307.584 
z
" style="fill:#fa9ba4;opacity:0.2;"/>
   </g>
   <g id="patch_90">
    <path clip-path="url(#pd1b9b625ac)" d="M 278.047166 307.584 
L 280.135723 307.584 
L 280.135723 307.584 
L 278.047166 307.584 
z
" style="fill:#fa9ba4;opacity:0.2;"/>
   </g>
   <g id="patch_91">
    <path clip-path="url(#pd1b9b625ac)" d="M 280.367785 307.584 
L 282.456342 307.584 
L 282.456342 307.584 
L 280.367785 307.584 
z
" style="fill:#fa9ba4;opacity:0.2;"/>
   </g>
   <g id="patch_92">
    <path clip-path="url(#pd1b9b625ac)" d="M 282.688403 307.584 
L 284.77696 307.584 
L 284.77696 307.584 
L 282.688403 307.584 
z
" style="fill:#fa9ba4;opacity:0.2;"/>
   </g>
   <g id="patch_93">
    <path clip-path="url(#pd1b9b625ac)" d="M 285.009022 307.584 
L 287.097579 307.584 
L 287.097579 307.584 
L 285.009022 307.584 
z
" style="fill:#fa9ba4;opacity:0.2;"/>
   </g>
   <g id="patch_94">
    <path clip-path="url(#pd1b9b625ac)" d="M 287.329641 307.584 
L 289.418197 307.584 
L 289.418197 307.584 
L 287.329641 307.584 
z
" style="fill:#fa9ba4;opacity:0.2;"/>
   </g>
   <g id="patch_95">
    <path clip-path="url(#pd1b9b625ac)" d="M 289.650259 307.584 
L 291.738816 307.584 
L 291.738816 307.584 
L 289.650259 307.584 
z
" style="fill:#fa9ba4;opacity:0.2;"/>
   </g>
   <g id="patch_96">
    <path clip-path="url(#pd1b9b625ac)" d="M 291.970878 307.584 
L 294.059435 307.584 
L 294.059435 307.584 
L 291.970878 307.584 
z
" style="fill:#fa9ba4;opacity:0.2;"/>
   </g>
   <g id="patch_97">
    <path clip-path="url(#pd1b9b625ac)" d="M 294.291497 307.584 
L 296.380053 307.584 
L 296.380053 307.584 
L 294.291497 307.584 
z
" style="fill:#fa9ba4;opacity:0.2;"/>
   </g>
   <g id="patch_98">
    <path clip-path="url(#pd1b9b625ac)" d="M 296.612115 307.584 
L 298.700672 307.584 
L 298.700672 307.584 
L 296.612115 307.584 
z
" style="fill:#fa9ba4;opacity:0.2;"/>
   </g>
   <g id="patch_99">
    <path clip-path="url(#pd1b9b625ac)" d="M 298.932734 307.584 
L 301.021291 307.584 
L 301.021291 307.584 
L 298.932734 307.584 
z
" style="fill:#fa9ba4;opacity:0.2;"/>
   </g>
   <g id="patch_100">
    <path clip-path="url(#pd1b9b625ac)" d="M 301.253352 307.584 
L 303.341909 307.584 
L 303.341909 307.584 
L 301.253352 307.584 
z
" style="fill:#fa9ba4;opacity:0.2;"/>
   </g>
   <g id="patch_101">
    <path clip-path="url(#pd1b9b625ac)" d="M 303.573971 307.584 
L 305.662528 307.584 
L 305.662528 307.584 
L 303.573971 307.584 
z
" style="fill:#fa9ba4;opacity:0.2;"/>
   </g>
   <g id="patch_102">
    <path clip-path="url(#pd1b9b625ac)" d="M 305.89459 307.584 
L 307.983146 307.584 
L 307.983146 307.584 
L 305.89459 307.584 
z
" style="fill:#fa9ba4;opacity:0.2;"/>
   </g>
   <g id="patch_103">
    <path clip-path="url(#pd1b9b625ac)" d="M 308.215208 307.584 
L 310.303765 307.584 
L 310.303765 307.584 
L 308.215208 307.584 
z
" style="fill:#fa9ba4;opacity:0.2;"/>
   </g>
   <g id="patch_104">
    <path clip-path="url(#pd1b9b625ac)" d="M 310.535827 307.584 
L 312.624384 307.584 
L 312.624384 307.584 
L 310.535827 307.584 
z
" style="fill:#fa9ba4;opacity:0.2;"/>
   </g>
   <g id="patch_105">
    <path clip-path="url(#pd1b9b625ac)" d="M 312.856446 307.584 
L 314.945002 307.584 
L 314.945002 307.584 
L 312.856446 307.584 
z
" style="fill:#fa9ba4;opacity:0.2;"/>
   </g>
   <g id="patch_106">
    <path clip-path="url(#pd1b9b625ac)" d="M 315.177064 307.584 
L 317.265621 307.584 
L 317.265621 307.584 
L 315.177064 307.584 
z
" style="fill:#fa9ba4;opacity:0.2;"/>
   </g>
   <g id="patch_107">
    <path clip-path="url(#pd1b9b625ac)" d="M 317.497683 307.584 
L 319.58624 307.584 
L 319.58624 307.584 
L 317.497683 307.584 
z
" style="fill:#fa9ba4;opacity:0.2;"/>
   </g>
   <g id="patch_108">
    <path clip-path="url(#pd1b9b625ac)" d="M 319.818301 307.584 
L 321.906858 307.584 
L 321.906858 307.584 
L 319.818301 307.584 
z
" style="fill:#fa9ba4;opacity:0.2;"/>
   </g>
   <g id="patch_109">
    <path clip-path="url(#pd1b9b625ac)" d="M 322.13892 307.584 
L 324.227477 307.584 
L 324.227477 307.584 
L 322.13892 307.584 
z
" style="fill:#fa9ba4;opacity:0.2;"/>
   </g>
   <g id="patch_110">
    <path clip-path="url(#pd1b9b625ac)" d="M 324.459539 307.584 
L 326.548095 307.584 
L 326.548095 307.584 
L 324.459539 307.584 
z
" style="fill:#fa9ba4;opacity:0.2;"/>
   </g>
   <g id="patch_111">
    <path clip-path="url(#pd1b9b625ac)" d="M 326.780157 307.584 
L 328.868714 307.584 
L 328.868714 307.584 
L 326.780157 307.584 
z
" style="fill:#fa9ba4;opacity:0.2;"/>
   </g>
   <g id="patch_112">
    <path clip-path="url(#pd1b9b625ac)" d="M 329.100776 307.584 
L 331.189333 307.584 
L 331.189333 307.584 
L 329.100776 307.584 
z
" style="fill:#fa9ba4;opacity:0.2;"/>
   </g>
   <g id="patch_113">
    <path clip-path="url(#pd1b9b625ac)" d="M 331.421395 307.584 
L 333.509951 307.584 
L 333.509951 307.584 
L 331.421395 307.584 
z
" style="fill:#fa9ba4;opacity:0.2;"/>
   </g>
   <g id="patch_114">
    <path clip-path="url(#pd1b9b625ac)" d="M 333.742013 307.584 
L 335.83057 307.584 
L 335.83057 307.584 
L 333.742013 307.584 
z
" style="fill:#fa9ba4;opacity:0.2;"/>
   </g>
   <g id="patch_115">
    <path clip-path="url(#pd1b9b625ac)" d="M 336.062632 307.584 
L 338.151189 307.584 
L 338.151189 307.584 
L 336.062632 307.584 
z
" style="fill:#fa9ba4;opacity:0.2;"/>
   </g>
   <g id="patch_116">
    <path clip-path="url(#pd1b9b625ac)" d="M 338.38325 307.584 
L 340.471807 307.584 
L 340.471807 304.128 
L 338.38325 304.128 
z
" style="fill:#fa9ba4;opacity:0.2;"/>
   </g>
   <g id="patch_117">
    <path clip-path="url(#pd1b9b625ac)" d="M 340.703869 307.584 
L 342.792426 307.584 
L 342.792426 300.672 
L 340.703869 300.672 
z
" style="fill:#fa9ba4;opacity:0.2;"/>
   </g>
   <g id="patch_118">
    <path clip-path="url(#pd1b9b625ac)" d="M 343.024488 307.584 
L 345.113044 307.584 
L 345.113044 273.024 
L 343.024488 273.024 
z
" style="fill:#fa9ba4;opacity:0.2;"/>
   </g>
   <g id="patch_119">
    <path clip-path="url(#pd1b9b625ac)" d="M 345.345106 307.584 
L 347.433663 307.584 
L 347.433663 286.848 
L 345.345106 286.848 
z
" style="fill:#fa9ba4;opacity:0.2;"/>
   </g>
   <g id="patch_120">
    <path clip-path="url(#pd1b9b625ac)" d="M 347.665725 307.584 
L 349.754282 307.584 
L 349.754282 273.024 
L 347.665725 273.024 
z
" style="fill:#fa9ba4;opacity:0.2;"/>
   </g>
   <g id="patch_121">
    <path clip-path="url(#pd1b9b625ac)" d="M 349.986343 307.584 
L 352.0749 307.584 
L 352.0749 307.584 
L 349.986343 307.584 
z
" style="fill:#fa9ba4;opacity:0.2;"/>
   </g>
   <g id="patch_122">
    <path clip-path="url(#pd1b9b625ac)" d="M 352.306962 307.584 
L 354.395519 307.584 
L 354.395519 307.584 
L 352.306962 307.584 
z
" style="fill:#fa9ba4;opacity:0.2;"/>
   </g>
   <g id="patch_123">
    <path clip-path="url(#pd1b9b625ac)" d="M 354.627581 307.584 
L 356.716138 307.584 
L 356.716138 307.584 
L 354.627581 307.584 
z
" style="fill:#fa9ba4;opacity:0.2;"/>
   </g>
   <g id="patch_124">
    <path clip-path="url(#pd1b9b625ac)" d="M 356.948199 307.584 
L 359.036756 307.584 
L 359.036756 41.472 
L 356.948199 41.472 
z
" style="fill:#fa9ba4;opacity:0.2;"/>
   </g>
   <g id="patch_125">
    <path clip-path="url(#pd1b9b625ac)" d="M 359.268818 307.584 
L 361.357375 307.584 
L 361.357375 248.832 
L 359.268818 248.832 
z
" style="fill:#fa9ba4;opacity:0.2;"/>
   </g>
   <g id="patch_126">
    <path clip-path="url(#pd1b9b625ac)" d="M 361.589437 307.584 
L 363.677993 307.584 
L 363.677993 248.832 
L 361.589437 248.832 
z
" style="fill:#fa9ba4;opacity:0.2;"/>
   </g>
   <g id="patch_127">
    <path clip-path="url(#pd1b9b625ac)" d="M 363.910055 307.584 
L 365.998612 307.584 
L 365.998612 248.832 
L 363.910055 248.832 
z
" style="fill:#fa9ba4;opacity:0.2;"/>
   </g>
   <g id="patch_128">
    <path clip-path="url(#pd1b9b625ac)" d="M 366.230674 307.584 
L 368.319231 307.584 
L 368.319231 248.832 
L 366.230674 248.832 
z
" style="fill:#fa9ba4;opacity:0.2;"/>
   </g>
   <g id="patch_129">
    <path clip-path="url(#pd1b9b625ac)" d="M 368.551292 307.584 
L 370.639849 307.584 
L 370.639849 235.008 
L 368.551292 235.008 
z
" style="fill:#fa9ba4;opacity:0.2;"/>
   </g>
   <g id="patch_130">
    <path clip-path="url(#pd1b9b625ac)" d="M 370.871911 307.584 
L 372.960468 307.584 
L 372.960468 252.288 
L 370.871911 252.288 
z
" style="fill:#fa9ba4;opacity:0.2;"/>
   </g>
   <g id="patch_131">
    <path clip-path="url(#pd1b9b625ac)" d="M 373.19253 307.584 
L 375.281086 307.584 
L 375.281086 248.832 
L 373.19253 248.832 
z
" style="fill:#fa9ba4;opacity:0.2;"/>
   </g>
   <g id="patch_132">
    <path clip-path="url(#pd1b9b625ac)" d="M 375.513148 307.584 
L 377.601705 307.584 
L 377.601705 241.92 
L 375.513148 241.92 
z
" style="fill:#fa9ba4;opacity:0.2;"/>
   </g>
   <g id="patch_133">
    <path clip-path="url(#pd1b9b625ac)" d="M 377.833767 307.584 
L 379.922324 307.584 
L 379.922324 190.08 
L 377.833767 190.08 
z
" style="fill:#fa9ba4;opacity:0.2;"/>
   </g>
   <g id="patch_134">
    <path clip-path="url(#pd1b9b625ac)" d="M 380.154386 307.584 
L 382.242942 307.584 
L 382.242942 241.92 
L 380.154386 241.92 
z
" style="fill:#fa9ba4;opacity:0.2;"/>
   </g>
   <g id="patch_135">
    <path clip-path="url(#pd1b9b625ac)" d="M 382.475004 307.584 
L 384.563561 307.584 
L 384.563561 283.392 
L 382.475004 283.392 
z
" style="fill:#fa9ba4;opacity:0.2;"/>
   </g>
   <g id="patch_136">
    <path clip-path="url(#pd1b9b625ac)" d="M 384.795623 307.584 
L 386.88418 307.584 
L 386.88418 238.464 
L 384.795623 238.464 
z
" style="fill:#fa9ba4;opacity:0.2;"/>
   </g>
   <g id="patch_137">
    <path clip-path="url(#pd1b9b625ac)" d="M 387.116241 307.584 
L 389.204798 307.584 
L 389.204798 269.568 
L 387.116241 269.568 
z
" style="fill:#fa9ba4;opacity:0.2;"/>
   </g>
   <g id="patch_138">
    <path clip-path="url(#pd1b9b625ac)" d="M 389.43686 307.584 
L 391.525417 307.584 
L 391.525417 217.728 
L 389.43686 217.728 
z
" style="fill:#fa9ba4;opacity:0.2;"/>
   </g>
   <g id="patch_139">
    <path clip-path="url(#pd1b9b625ac)" d="M 391.757479 307.584 
L 393.846035 307.584 
L 393.846035 307.584 
L 391.757479 307.584 
z
" style="fill:#fa9ba4;opacity:0.2;"/>
   </g>
   <g id="patch_140">
    <path clip-path="url(#pd1b9b625ac)" d="M 394.078097 307.584 
L 396.166654 307.584 
L 396.166654 307.584 
L 394.078097 307.584 
z
" style="fill:#fa9ba4;opacity:0.2;"/>
   </g>
   <g id="patch_141">
    <path clip-path="url(#pd1b9b625ac)" d="M 396.398716 307.584 
L 398.487273 307.584 
L 398.487273 307.584 
L 396.398716 307.584 
z
" style="fill:#fa9ba4;opacity:0.2;"/>
   </g>
   <g id="matplotlib.axis_1"/>
   <g id="matplotlib.axis_2"/>
   <g id="PolyCollection_1">
    <defs>
     <path d="M 367.274952 -109.604571 
L 367.274952 -38.016 
L 369.595571 -38.016 
L 371.916189 -38.016 
L 374.236808 -38.016 
L 376.557427 -38.016 
L 378.878045 -38.016 
L 381.198664 -38.016 
L 383.519283 -38.016 
L 385.839901 -38.016 
L 388.16052 -38.016 
L 390.481138 -38.016 
L 392.801757 -38.016 
L 395.122376 -38.016 
L 397.442994 -38.016 
L 397.442994 -69.613714 
L 397.442994 -69.613714 
L 395.122376 -78.994286 
L 392.801757 -95.780571 
L 390.481138 -105.161143 
L 388.16052 -100.717714 
L 385.839901 -103.186286 
L 383.519283 -103.68 
L 381.198664 -108.617143 
L 378.878045 -107.629714 
L 376.557427 -99.236571 
L 374.236808 -98.249143 
L 371.916189 -127.872 
L 369.595571 -119.972571 
L 367.274952 -109.604571 
z
" id="m9e6d6d7292" style="stroke:#dc3545;stroke-opacity:0.5;"/>
    </defs>
    <g clip-path="url(#pd1b9b625ac)">
     <use style="fill:#dc3545;fill-opacity:0.5;stroke:#dc3545;stroke-opacity:0.5;" x="0" xlink:href="#m9e6d6d7292" y="345.6"/>
    </g>
   </g>
   <g id="PolyCollection_2">
    <defs>
     <path d="M 88.800717 -42.459429 
L 88.800717 -38.016 
L 91.121336 -38.016 
L 93.441955 -38.016 
L 95.762573 -38.016 
L 98.083192 -38.016 
L 100.403811 -38.016 
L 102.724429 -38.016 
L 105.045048 -38.016 
L 107.365666 -38.016 
L 109.686285 -38.016 
L 112.006904 -38.016 
L 114.327522 -38.016 
L 116.648141 -38.016 
L 118.96876 -38.016 
L 121.289378 -38.016 
L 123.609997 -38.016 
L 125.930615 -38.016 
L 128.251234 -38.016 
L 130.571853 -38.016 
L 132.892471 -38.016 
L 135.21309 -38.016 
L 137.533708 -38.016 
L 139.854327 -38.016 
L 142.174946 -38.016 
L 144.495564 -38.016 
L 146.816183 -38.016 
L 149.136802 -38.016 
L 151.45742 -38.016 
L 153.778039 -38.016 
L 156.098657 -38.016 
L 158.419276 -38.016 
L 160.739895 -38.016 
L 163.060513 -38.016 
L 165.381132 -38.016 
L 167.701751 -38.016 
L 170.022369 -38.016 
L 172.342988 -38.016 
L 174.663606 -38.016 
L 176.984225 -38.016 
L 179.304844 -38.016 
L 181.625462 -38.016 
L 183.946081 -38.016 
L 186.2667 -38.016 
L 188.587318 -38.016 
L 190.907937 -38.016 
L 193.228555 -38.016 
L 195.549174 -38.016 
L 197.869793 -38.016 
L 200.190411 -38.016 
L 202.51103 -38.016 
L 204.831649 -38.016 
L 207.152267 -38.016 
L 209.472886 -38.016 
L 211.793504 -38.016 
L 214.114123 -38.016 
L 216.434742 -38.016 
L 218.75536 -38.016 
L 221.075979 -38.016 
L 223.396598 -38.016 
L 225.717216 -38.016 
L 228.037835 -38.016 
L 230.358453 -38.016 
L 232.679072 -38.016 
L 234.999691 -38.016 
L 237.320309 -38.016 
L 239.640928 -38.016 
L 241.961547 -38.016 
L 244.282165 -38.016 
L 246.602784 -38.016 
L 248.923402 -38.016 
L 251.244021 -38.016 
L 253.56464 -38.016 
L 255.885258 -38.016 
L 258.205877 -38.016 
L 260.526496 -38.016 
L 262.847114 -38.016 
L 265.167733 -38.016 
L 267.488351 -38.016 
L 269.80897 -38.016 
L 272.129589 -38.016 
L 274.450207 -38.016 
L 276.770826 -38.016 
L 279.091445 -38.016 
L 281.412063 -38.016 
L 283.732682 -38.016 
L 286.0533 -38.016 
L 288.373919 -38.016 
L 290.694538 -38.016 
L 293.015156 -38.016 
L 295.335775 -38.016 
L 297.656394 -38.016 
L 299.977012 -38.016 
L 302.297631 -38.016 
L 304.618249 -38.016 
L 306.938868 -38.016 
L 309.259487 -38.016 
L 311.580105 -38.016 
L 313.900724 -38.016 
L 316.221343 -38.016 
L 318.541961 -38.016 
L 320.86258 -38.016 
L 323.183198 -38.016 
L 325.503817 -38.016 
L 327.824436 -38.016 
L 330.145054 -38.016 
L 332.465673 -38.016 
L 334.786292 -38.016 
L 337.10691 -38.016 
L 339.427529 -38.016 
L 341.748147 -38.016 
L 344.068766 -38.016 
L 346.389385 -38.016 
L 348.710003 -38.016 
L 351.030622 -38.016 
L 353.35124 -38.016 
L 355.671859 -38.016 
L 357.992478 -38.016 
L 360.313096 -38.016 
L 362.633715 -38.016 
L 364.954334 -38.016 
L 367.274952 -38.016 
L 367.274952 -109.604571 
L 367.274952 -109.604571 
L 364.954334 -101.211429 
L 362.633715 -97.755429 
L 360.313096 -92.324571 
L 357.992478 -88.868571 
L 355.671859 -51.84 
L 353.35124 -52.333714 
L 351.030622 -52.333714 
L 348.710003 -52.333714 
L 346.389385 -47.396571 
L 344.068766 -44.434286 
L 341.748147 -39.497143 
L 339.427529 -38.509714 
L 337.10691 -38.016 
L 334.786292 -38.016 
L 332.465673 -38.016 
L 330.145054 -38.016 
L 327.824436 -38.016 
L 325.503817 -38.016 
L 323.183198 -38.016 
L 320.86258 -38.016 
L 318.541961 -38.016 
L 316.221343 -38.016 
L 313.900724 -38.016 
L 311.580105 -38.016 
L 309.259487 -38.016 
L 306.938868 -38.016 
L 304.618249 -38.016 
L 302.297631 -38.016 
L 299.977012 -38.016 
L 297.656394 -38.016 
L 295.335775 -38.016 
L 293.015156 -38.016 
L 290.694538 -38.016 
L 288.373919 -38.016 
L 286.0533 -38.016 
L 283.732682 -38.016 
L 281.412063 -38.016 
L 279.091445 -38.016 
L 276.770826 -38.016 
L 274.450207 -38.016 
L 272.129589 -38.016 
L 269.80897 -38.016 
L 267.488351 -38.016 
L 265.167733 -38.016 
L 262.847114 -38.016 
L 260.526496 -38.016 
L 258.205877 -38.016 
L 255.885258 -38.016 
L 253.56464 -38.016 
L 251.244021 -38.016 
L 248.923402 -38.016 
L 246.602784 -38.016 
L 244.282165 -38.016 
L 241.961547 -38.016 
L 239.640928 -38.016 
L 237.320309 -38.016 
L 234.999691 -38.016 
L 232.679072 -38.016 
L 230.358453 -38.016 
L 228.037835 -38.016 
L 225.717216 -38.016 
L 223.396598 -38.016 
L 221.075979 -38.016 
L 218.75536 -38.016 
L 216.434742 -38.016 
L 214.114123 -38.016 
L 211.793504 -38.016 
L 209.472886 -38.016 
L 207.152267 -38.016 
L 204.831649 -38.016 
L 202.51103 -38.016 
L 200.190411 -38.016 
L 197.869793 -38.016 
L 195.549174 -38.016 
L 193.228555 -38.016 
L 190.907937 -38.016 
L 188.587318 -38.016 
L 186.2667 -38.016 
L 183.946081 -38.016 
L 181.625462 -38.016 
L 179.304844 -38.016 
L 176.984225 -38.016 
L 174.663606 -38.509714 
L 172.342988 -38.509714 
L 170.022369 -38.509714 
L 167.701751 -38.509714 
L 165.381132 -38.509714 
L 163.060513 -38.509714 
L 160.739895 -38.509714 
L 158.419276 -38.016 
L 156.098657 -38.016 
L 153.778039 -38.016 
L 151.45742 -38.016 
L 149.136802 -38.016 
L 146.816183 -38.016 
L 144.495564 -38.016 
L 142.174946 -38.016 
L 139.854327 -38.016 
L 137.533708 -38.016 
L 135.21309 -38.016 
L 132.892471 -38.016 
L 130.571853 -38.016 
L 128.251234 -38.016 
L 125.930615 -38.016 
L 123.609997 -38.016 
L 121.289378 -38.016 
L 118.96876 -38.016 
L 116.648141 -38.016 
L 114.327522 -38.016 
L 112.006904 -38.509714 
L 109.686285 -39.003429 
L 107.365666 -39.497143 
L 105.045048 -39.497143 
L 102.724429 -39.497143 
L 100.403811 -40.484571 
L 98.083192 -40.484571 
L 95.762573 -41.965714 
L 93.441955 -41.472 
L 91.121336 -42.459429 
L 88.800717 -42.459429 
z
" id="mbec8774ec5" style="stroke:#fa9ba4;stroke-opacity:0.3;"/>
    </defs>
    <g clip-path="url(#pd1b9b625ac)">
     <use style="fill:#fa9ba4;fill-opacity:0.3;stroke:#fa9ba4;stroke-opacity:0.3;" x="0" xlink:href="#mbec8774ec5" y="345.6"/>
    </g>
   </g>
   <g id="line2d_1">
    <path clip-path="url(#pd1b9b625ac)" d="M 88.800717 303.140571 
L 91.121336 303.140571 
L 93.441955 304.128 
L 95.762573 303.634286 
L 98.083192 305.115429 
L 100.403811 305.115429 
L 102.724429 306.102857 
L 107.365666 306.102857 
L 114.327522 307.584 
L 158.419276 307.584 
L 160.739895 307.090286 
L 174.663606 307.090286 
L 176.984225 307.584 
L 337.10691 307.584 
L 339.427529 307.090286 
L 341.748147 306.102857 
L 344.068766 301.165714 
L 346.389385 298.203429 
L 348.710003 293.266286 
L 353.35124 293.266286 
L 355.671859 293.76 
L 357.992478 256.731429 
L 360.313096 253.275429 
L 362.633715 247.844571 
L 364.954334 244.388571 
L 367.274952 235.995429 
L 369.595571 225.627429 
L 371.916189 217.728 
L 374.236808 247.350857 
L 376.557427 246.363429 
L 378.878045 237.970286 
L 381.198664 236.982857 
L 383.519283 241.92 
L 385.839901 242.413714 
L 388.16052 244.882286 
L 390.481138 240.438857 
L 392.801757 249.819429 
L 395.122376 266.605714 
L 397.442994 275.986286 
L 397.442994 275.986286 
" style="fill:none;stroke:#fa9ba4;stroke-linecap:square;stroke-width:2;"/>
   </g>
   <g id="line2d_2">
    <path clip-path="url(#pd1b9b625ac)" d="M 367.274952 235.995429 
L 369.595571 225.627429 
L 371.916189 217.728 
L 374.236808 247.350857 
L 376.557427 246.363429 
L 378.878045 237.970286 
L 381.198664 236.982857 
L 383.519283 241.92 
L 385.839901 242.413714 
L 388.16052 244.882286 
L 390.481138 240.438857 
L 392.801757 249.819429 
L 395.122376 266.605714 
L 397.442994 275.986286 
" style="fill:none;stroke:#dc3545;stroke-linecap:square;stroke-width:2;"/>
   </g>
  </g>
 </g>
 <defs>
  <clipPath id="pd1b9b625ac">
   <rect height="266.112" width="357.12" x="57.6" y="41.472"/>
  </clipPath>
 </defs>
</svg>
