<?xml version="1.0" encoding="utf-8" standalone="no"?>
<!DOCTYPE svg PUBLIC "-//W3C//DTD SVG 1.1//EN"
  "http://www.w3.org/Graphics/SVG/1.1/DTD/svg11.dtd">
<svg height="345.6pt" version="1.1" viewBox="0 0 460.8 345.6" width="460.8pt" xmlns="http://www.w3.org/2000/svg" xmlns:xlink="http://www.w3.org/1999/xlink">
 <metadata>
  <rdf:RDF xmlns:cc="http://creativecommons.org/ns#" xmlns:dc="http://purl.org/dc/elements/1.1/" xmlns:rdf="http://www.w3.org/1999/02/22-rdf-syntax-ns#">
   <cc:Work>
    <dc:type rdf:resource="http://purl.org/dc/dcmitype/StillImage"/>
    <dc:date>2021-05-14T13:25:43.643341</dc:date>
    <dc:format>image/svg+xml</dc:format>
    <dc:creator>
     <cc:Agent>
      <dc:title>Matplotlib v3.4.2, https://matplotlib.org/</dc:title>
     </cc:Agent>
    </dc:creator>
   </cc:Work>
  </rdf:RDF>
 </metadata>
 <defs>
  <style type="text/css">*{stroke-linecap:butt;stroke-linejoin:round;}</style>
 </defs>
 <g id="figure_1">
  <g id="patch_1">
   <path d="M 0 345.6 
L 460.8 345.6 
L 460.8 0 
L 0 0 
z
" style="fill:none;"/>
  </g>
  <g id="axes_1">
   <g id="patch_2">
    <path clip-path="url(#p7497a5d11c)" d="M 73.832727 307.584 
L 75.781954 307.584 
L 75.781954 307.584 
L 73.832727 307.584 
z
" style="fill:#fa9ba4;opacity:0.2;"/>
   </g>
   <g id="patch_3">
    <path clip-path="url(#p7497a5d11c)" d="M 75.998535 307.584 
L 77.947762 307.584 
L 77.947762 307.584 
L 75.998535 307.584 
z
" style="fill:#fa9ba4;opacity:0.2;"/>
   </g>
   <g id="patch_4">
    <path clip-path="url(#p7497a5d11c)" d="M 78.164342 307.584 
L 80.113569 307.584 
L 80.113569 307.584 
L 78.164342 307.584 
z
" style="fill:#fa9ba4;opacity:0.2;"/>
   </g>
   <g id="patch_5">
    <path clip-path="url(#p7497a5d11c)" d="M 80.33015 307.584 
L 82.279377 307.584 
L 82.279377 307.584 
L 80.33015 307.584 
z
" style="fill:#fa9ba4;opacity:0.2;"/>
   </g>
   <g id="patch_6">
    <path clip-path="url(#p7497a5d11c)" d="M 82.495957 307.584 
L 84.445184 307.584 
L 84.445184 307.584 
L 82.495957 307.584 
z
" style="fill:#fa9ba4;opacity:0.2;"/>
   </g>
   <g id="patch_7">
    <path clip-path="url(#p7497a5d11c)" d="M 84.661765 307.584 
L 86.610992 307.584 
L 86.610992 307.584 
L 84.661765 307.584 
z
" style="fill:#fa9ba4;opacity:0.2;"/>
   </g>
   <g id="patch_8">
    <path clip-path="url(#p7497a5d11c)" d="M 86.827572 307.584 
L 88.776799 307.584 
L 88.776799 301.248 
L 86.827572 301.248 
z
" style="fill:#fa9ba4;opacity:0.2;"/>
   </g>
   <g id="patch_9">
    <path clip-path="url(#p7497a5d11c)" d="M 88.99338 307.584 
L 90.942607 307.584 
L 90.942607 307.584 
L 88.99338 307.584 
z
" style="fill:#fa9ba4;opacity:0.2;"/>
   </g>
   <g id="patch_10">
    <path clip-path="url(#p7497a5d11c)" d="M 91.159187 307.584 
L 93.108414 307.584 
L 93.108414 294.912 
L 91.159187 294.912 
z
" style="fill:#fa9ba4;opacity:0.2;"/>
   </g>
   <g id="patch_11">
    <path clip-path="url(#p7497a5d11c)" d="M 93.324995 307.584 
L 95.274222 307.584 
L 95.274222 307.584 
L 93.324995 307.584 
z
" style="fill:#fa9ba4;opacity:0.2;"/>
   </g>
   <g id="patch_12">
    <path clip-path="url(#p7497a5d11c)" d="M 95.490802 307.584 
L 97.440029 307.584 
L 97.440029 307.584 
L 95.490802 307.584 
z
" style="fill:#fa9ba4;opacity:0.2;"/>
   </g>
   <g id="patch_13">
    <path clip-path="url(#p7497a5d11c)" d="M 97.65661 307.584 
L 99.605837 307.584 
L 99.605837 301.248 
L 97.65661 301.248 
z
" style="fill:#fa9ba4;opacity:0.2;"/>
   </g>
   <g id="patch_14">
    <path clip-path="url(#p7497a5d11c)" d="M 99.822417 307.584 
L 101.771644 307.584 
L 101.771644 307.584 
L 99.822417 307.584 
z
" style="fill:#fa9ba4;opacity:0.2;"/>
   </g>
   <g id="patch_15">
    <path clip-path="url(#p7497a5d11c)" d="M 101.988225 307.584 
L 103.937452 307.584 
L 103.937452 307.584 
L 101.988225 307.584 
z
" style="fill:#fa9ba4;opacity:0.2;"/>
   </g>
   <g id="patch_16">
    <path clip-path="url(#p7497a5d11c)" d="M 104.154032 307.584 
L 106.103259 307.584 
L 106.103259 307.584 
L 104.154032 307.584 
z
" style="fill:#fa9ba4;opacity:0.2;"/>
   </g>
   <g id="patch_17">
    <path clip-path="url(#p7497a5d11c)" d="M 106.31984 307.584 
L 108.269067 307.584 
L 108.269067 294.912 
L 106.31984 294.912 
z
" style="fill:#fa9ba4;opacity:0.2;"/>
   </g>
   <g id="patch_18">
    <path clip-path="url(#p7497a5d11c)" d="M 108.485647 307.584 
L 110.434874 307.584 
L 110.434874 307.584 
L 108.485647 307.584 
z
" style="fill:#fa9ba4;opacity:0.2;"/>
   </g>
   <g id="patch_19">
    <path clip-path="url(#p7497a5d11c)" d="M 110.651455 307.584 
L 112.600682 307.584 
L 112.600682 307.584 
L 110.651455 307.584 
z
" style="fill:#fa9ba4;opacity:0.2;"/>
   </g>
   <g id="patch_20">
    <path clip-path="url(#p7497a5d11c)" d="M 112.817262 307.584 
L 114.766489 307.584 
L 114.766489 301.248 
L 112.817262 301.248 
z
" style="fill:#fa9ba4;opacity:0.2;"/>
   </g>
   <g id="patch_21">
    <path clip-path="url(#p7497a5d11c)" d="M 114.98307 307.584 
L 116.932297 307.584 
L 116.932297 307.584 
L 114.98307 307.584 
z
" style="fill:#fa9ba4;opacity:0.2;"/>
   </g>
   <g id="patch_22">
    <path clip-path="url(#p7497a5d11c)" d="M 117.148877 307.584 
L 119.098104 307.584 
L 119.098104 301.248 
L 117.148877 301.248 
z
" style="fill:#fa9ba4;opacity:0.2;"/>
   </g>
   <g id="patch_23">
    <path clip-path="url(#p7497a5d11c)" d="M 119.314685 307.584 
L 121.263912 307.584 
L 121.263912 263.232 
L 119.314685 263.232 
z
" style="fill:#fa9ba4;opacity:0.2;"/>
   </g>
   <g id="patch_24">
    <path clip-path="url(#p7497a5d11c)" d="M 121.480492 307.584 
L 123.429719 307.584 
L 123.429719 294.912 
L 121.480492 294.912 
z
" style="fill:#fa9ba4;opacity:0.2;"/>
   </g>
   <g id="patch_25">
    <path clip-path="url(#p7497a5d11c)" d="M 123.6463 307.584 
L 125.595527 307.584 
L 125.595527 288.576 
L 123.6463 288.576 
z
" style="fill:#fa9ba4;opacity:0.2;"/>
   </g>
   <g id="patch_26">
    <path clip-path="url(#p7497a5d11c)" d="M 125.812107 307.584 
L 127.761334 307.584 
L 127.761334 307.584 
L 125.812107 307.584 
z
" style="fill:#fa9ba4;opacity:0.2;"/>
   </g>
   <g id="patch_27">
    <path clip-path="url(#p7497a5d11c)" d="M 127.977915 307.584 
L 129.927142 307.584 
L 129.927142 269.568 
L 127.977915 269.568 
z
" style="fill:#fa9ba4;opacity:0.2;"/>
   </g>
   <g id="patch_28">
    <path clip-path="url(#p7497a5d11c)" d="M 130.143722 307.584 
L 132.092949 307.584 
L 132.092949 288.576 
L 130.143722 288.576 
z
" style="fill:#fa9ba4;opacity:0.2;"/>
   </g>
   <g id="patch_29">
    <path clip-path="url(#p7497a5d11c)" d="M 132.30953 307.584 
L 134.258757 307.584 
L 134.258757 288.576 
L 132.30953 288.576 
z
" style="fill:#fa9ba4;opacity:0.2;"/>
   </g>
   <g id="patch_30">
    <path clip-path="url(#p7497a5d11c)" d="M 134.475337 307.584 
L 136.424564 307.584 
L 136.424564 288.576 
L 134.475337 288.576 
z
" style="fill:#fa9ba4;opacity:0.2;"/>
   </g>
   <g id="patch_31">
    <path clip-path="url(#p7497a5d11c)" d="M 136.641145 307.584 
L 138.590372 307.584 
L 138.590372 307.584 
L 136.641145 307.584 
z
" style="fill:#fa9ba4;opacity:0.2;"/>
   </g>
   <g id="patch_32">
    <path clip-path="url(#p7497a5d11c)" d="M 138.806953 307.584 
L 140.756179 307.584 
L 140.756179 307.584 
L 138.806953 307.584 
z
" style="fill:#fa9ba4;opacity:0.2;"/>
   </g>
   <g id="patch_33">
    <path clip-path="url(#p7497a5d11c)" d="M 140.97276 307.584 
L 142.921987 307.584 
L 142.921987 307.584 
L 140.97276 307.584 
z
" style="fill:#fa9ba4;opacity:0.2;"/>
   </g>
   <g id="patch_34">
    <path clip-path="url(#p7497a5d11c)" d="M 143.138568 307.584 
L 145.087794 307.584 
L 145.087794 307.584 
L 143.138568 307.584 
z
" style="fill:#fa9ba4;opacity:0.2;"/>
   </g>
   <g id="patch_35">
    <path clip-path="url(#p7497a5d11c)" d="M 145.304375 307.584 
L 147.253602 307.584 
L 147.253602 301.248 
L 145.304375 301.248 
z
" style="fill:#fa9ba4;opacity:0.2;"/>
   </g>
   <g id="patch_36">
    <path clip-path="url(#p7497a5d11c)" d="M 147.470183 307.584 
L 149.419409 307.584 
L 149.419409 301.248 
L 147.470183 301.248 
z
" style="fill:#fa9ba4;opacity:0.2;"/>
   </g>
   <g id="patch_37">
    <path clip-path="url(#p7497a5d11c)" d="M 149.63599 307.584 
L 151.585217 307.584 
L 151.585217 307.584 
L 149.63599 307.584 
z
" style="fill:#fa9ba4;opacity:0.2;"/>
   </g>
   <g id="patch_38">
    <path clip-path="url(#p7497a5d11c)" d="M 151.801798 307.584 
L 153.751024 307.584 
L 153.751024 301.248 
L 151.801798 301.248 
z
" style="fill:#fa9ba4;opacity:0.2;"/>
   </g>
   <g id="patch_39">
    <path clip-path="url(#p7497a5d11c)" d="M 153.967605 307.584 
L 155.916832 307.584 
L 155.916832 307.584 
L 153.967605 307.584 
z
" style="fill:#fa9ba4;opacity:0.2;"/>
   </g>
   <g id="patch_40">
    <path clip-path="url(#p7497a5d11c)" d="M 156.133413 307.584 
L 158.082639 307.584 
L 158.082639 294.912 
L 156.133413 294.912 
z
" style="fill:#fa9ba4;opacity:0.2;"/>
   </g>
   <g id="patch_41">
    <path clip-path="url(#p7497a5d11c)" d="M 158.29922 307.584 
L 160.248447 307.584 
L 160.248447 307.584 
L 158.29922 307.584 
z
" style="fill:#fa9ba4;opacity:0.2;"/>
   </g>
   <g id="patch_42">
    <path clip-path="url(#p7497a5d11c)" d="M 160.465028 307.584 
L 162.414254 307.584 
L 162.414254 307.584 
L 160.465028 307.584 
z
" style="fill:#fa9ba4;opacity:0.2;"/>
   </g>
   <g id="patch_43">
    <path clip-path="url(#p7497a5d11c)" d="M 162.630835 307.584 
L 164.580062 307.584 
L 164.580062 307.584 
L 162.630835 307.584 
z
" style="fill:#fa9ba4;opacity:0.2;"/>
   </g>
   <g id="patch_44">
    <path clip-path="url(#p7497a5d11c)" d="M 164.796643 307.584 
L 166.745869 307.584 
L 166.745869 307.584 
L 164.796643 307.584 
z
" style="fill:#fa9ba4;opacity:0.2;"/>
   </g>
   <g id="patch_45">
    <path clip-path="url(#p7497a5d11c)" d="M 166.96245 307.584 
L 168.911677 307.584 
L 168.911677 307.584 
L 166.96245 307.584 
z
" style="fill:#fa9ba4;opacity:0.2;"/>
   </g>
   <g id="patch_46">
    <path clip-path="url(#p7497a5d11c)" d="M 169.128258 307.584 
L 171.077484 307.584 
L 171.077484 301.248 
L 169.128258 301.248 
z
" style="fill:#fa9ba4;opacity:0.2;"/>
   </g>
   <g id="patch_47">
    <path clip-path="url(#p7497a5d11c)" d="M 171.294065 307.584 
L 173.243292 307.584 
L 173.243292 294.912 
L 171.294065 294.912 
z
" style="fill:#fa9ba4;opacity:0.2;"/>
   </g>
   <g id="patch_48">
    <path clip-path="url(#p7497a5d11c)" d="M 173.459873 307.584 
L 175.409099 307.584 
L 175.409099 307.584 
L 173.459873 307.584 
z
" style="fill:#fa9ba4;opacity:0.2;"/>
   </g>
   <g id="patch_49">
    <path clip-path="url(#p7497a5d11c)" d="M 175.62568 307.584 
L 177.574907 307.584 
L 177.574907 307.584 
L 175.62568 307.584 
z
" style="fill:#fa9ba4;opacity:0.2;"/>
   </g>
   <g id="patch_50">
    <path clip-path="url(#p7497a5d11c)" d="M 177.791488 307.584 
L 179.740714 307.584 
L 179.740714 307.584 
L 177.791488 307.584 
z
" style="fill:#fa9ba4;opacity:0.2;"/>
   </g>
   <g id="patch_51">
    <path clip-path="url(#p7497a5d11c)" d="M 179.957295 307.584 
L 181.906522 307.584 
L 181.906522 307.584 
L 179.957295 307.584 
z
" style="fill:#fa9ba4;opacity:0.2;"/>
   </g>
   <g id="patch_52">
    <path clip-path="url(#p7497a5d11c)" d="M 182.123103 307.584 
L 184.072329 307.584 
L 184.072329 307.584 
L 182.123103 307.584 
z
" style="fill:#fa9ba4;opacity:0.2;"/>
   </g>
   <g id="patch_53">
    <path clip-path="url(#p7497a5d11c)" d="M 184.28891 307.584 
L 186.238137 307.584 
L 186.238137 307.584 
L 184.28891 307.584 
z
" style="fill:#fa9ba4;opacity:0.2;"/>
   </g>
   <g id="patch_54">
    <path clip-path="url(#p7497a5d11c)" d="M 186.454718 307.584 
L 188.403944 307.584 
L 188.403944 307.584 
L 186.454718 307.584 
z
" style="fill:#fa9ba4;opacity:0.2;"/>
   </g>
   <g id="patch_55">
    <path clip-path="url(#p7497a5d11c)" d="M 188.620525 307.584 
L 190.569752 307.584 
L 190.569752 307.584 
L 188.620525 307.584 
z
" style="fill:#fa9ba4;opacity:0.2;"/>
   </g>
   <g id="patch_56">
    <path clip-path="url(#p7497a5d11c)" d="M 190.786333 307.584 
L 192.735559 307.584 
L 192.735559 307.584 
L 190.786333 307.584 
z
" style="fill:#fa9ba4;opacity:0.2;"/>
   </g>
   <g id="patch_57">
    <path clip-path="url(#p7497a5d11c)" d="M 192.95214 307.584 
L 194.901367 307.584 
L 194.901367 307.584 
L 192.95214 307.584 
z
" style="fill:#fa9ba4;opacity:0.2;"/>
   </g>
   <g id="patch_58">
    <path clip-path="url(#p7497a5d11c)" d="M 195.117948 307.584 
L 197.067174 307.584 
L 197.067174 307.584 
L 195.117948 307.584 
z
" style="fill:#fa9ba4;opacity:0.2;"/>
   </g>
   <g id="patch_59">
    <path clip-path="url(#p7497a5d11c)" d="M 197.283755 307.584 
L 199.232982 307.584 
L 199.232982 307.584 
L 197.283755 307.584 
z
" style="fill:#fa9ba4;opacity:0.2;"/>
   </g>
   <g id="patch_60">
    <path clip-path="url(#p7497a5d11c)" d="M 199.449563 307.584 
L 201.398789 307.584 
L 201.398789 307.584 
L 199.449563 307.584 
z
" style="fill:#fa9ba4;opacity:0.2;"/>
   </g>
   <g id="patch_61">
    <path clip-path="url(#p7497a5d11c)" d="M 201.61537 307.584 
L 203.564597 307.584 
L 203.564597 307.584 
L 201.61537 307.584 
z
" style="fill:#fa9ba4;opacity:0.2;"/>
   </g>
   <g id="patch_62">
    <path clip-path="url(#p7497a5d11c)" d="M 203.781178 307.584 
L 205.730405 307.584 
L 205.730405 307.584 
L 203.781178 307.584 
z
" style="fill:#fa9ba4;opacity:0.2;"/>
   </g>
   <g id="patch_63">
    <path clip-path="url(#p7497a5d11c)" d="M 205.946985 307.584 
L 207.896212 307.584 
L 207.896212 307.584 
L 205.946985 307.584 
z
" style="fill:#fa9ba4;opacity:0.2;"/>
   </g>
   <g id="patch_64">
    <path clip-path="url(#p7497a5d11c)" d="M 208.112793 307.584 
L 210.06202 307.584 
L 210.06202 307.584 
L 208.112793 307.584 
z
" style="fill:#fa9ba4;opacity:0.2;"/>
   </g>
   <g id="patch_65">
    <path clip-path="url(#p7497a5d11c)" d="M 210.2786 307.584 
L 212.227827 307.584 
L 212.227827 301.248 
L 210.2786 301.248 
z
" style="fill:#fa9ba4;opacity:0.2;"/>
   </g>
   <g id="patch_66">
    <path clip-path="url(#p7497a5d11c)" d="M 212.444408 307.584 
L 214.393635 307.584 
L 214.393635 301.248 
L 212.444408 301.248 
z
" style="fill:#fa9ba4;opacity:0.2;"/>
   </g>
   <g id="patch_67">
    <path clip-path="url(#p7497a5d11c)" d="M 214.610215 307.584 
L 216.559442 307.584 
L 216.559442 301.248 
L 214.610215 301.248 
z
" style="fill:#fa9ba4;opacity:0.2;"/>
   </g>
   <g id="patch_68">
    <path clip-path="url(#p7497a5d11c)" d="M 216.776023 307.584 
L 218.72525 307.584 
L 218.72525 282.24 
L 216.776023 282.24 
z
" style="fill:#fa9ba4;opacity:0.2;"/>
   </g>
   <g id="patch_69">
    <path clip-path="url(#p7497a5d11c)" d="M 218.94183 307.584 
L 220.891057 307.584 
L 220.891057 307.584 
L 218.94183 307.584 
z
" style="fill:#fa9ba4;opacity:0.2;"/>
   </g>
   <g id="patch_70">
    <path clip-path="url(#p7497a5d11c)" d="M 221.107638 307.584 
L 223.056865 307.584 
L 223.056865 307.584 
L 221.107638 307.584 
z
" style="fill:#fa9ba4;opacity:0.2;"/>
   </g>
   <g id="patch_71">
    <path clip-path="url(#p7497a5d11c)" d="M 223.273445 307.584 
L 225.222672 307.584 
L 225.222672 301.248 
L 223.273445 301.248 
z
" style="fill:#fa9ba4;opacity:0.2;"/>
   </g>
   <g id="patch_72">
    <path clip-path="url(#p7497a5d11c)" d="M 225.439253 307.584 
L 227.38848 307.584 
L 227.38848 301.248 
L 225.439253 301.248 
z
" style="fill:#fa9ba4;opacity:0.2;"/>
   </g>
   <g id="patch_73">
    <path clip-path="url(#p7497a5d11c)" d="M 227.60506 307.584 
L 229.554287 307.584 
L 229.554287 275.904 
L 227.60506 275.904 
z
" style="fill:#fa9ba4;opacity:0.2;"/>
   </g>
   <g id="patch_74">
    <path clip-path="url(#p7497a5d11c)" d="M 229.770868 307.584 
L 231.720095 307.584 
L 231.720095 294.912 
L 229.770868 294.912 
z
" style="fill:#fa9ba4;opacity:0.2;"/>
   </g>
   <g id="patch_75">
    <path clip-path="url(#p7497a5d11c)" d="M 231.936675 307.584 
L 233.885902 307.584 
L 233.885902 307.584 
L 231.936675 307.584 
z
" style="fill:#fa9ba4;opacity:0.2;"/>
   </g>
   <g id="patch_76">
    <path clip-path="url(#p7497a5d11c)" d="M 234.102483 307.584 
L 236.05171 307.584 
L 236.05171 301.248 
L 234.102483 301.248 
z
" style="fill:#fa9ba4;opacity:0.2;"/>
   </g>
   <g id="patch_77">
    <path clip-path="url(#p7497a5d11c)" d="M 236.26829 307.584 
L 238.217517 307.584 
L 238.217517 307.584 
L 236.26829 307.584 
z
" style="fill:#fa9ba4;opacity:0.2;"/>
   </g>
   <g id="patch_78">
    <path clip-path="url(#p7497a5d11c)" d="M 238.434098 307.584 
L 240.383325 307.584 
L 240.383325 307.584 
L 238.434098 307.584 
z
" style="fill:#fa9ba4;opacity:0.2;"/>
   </g>
   <g id="patch_79">
    <path clip-path="url(#p7497a5d11c)" d="M 240.599905 307.584 
L 242.549132 307.584 
L 242.549132 307.584 
L 240.599905 307.584 
z
" style="fill:#fa9ba4;opacity:0.2;"/>
   </g>
   <g id="patch_80">
    <path clip-path="url(#p7497a5d11c)" d="M 242.765713 307.584 
L 244.71494 307.584 
L 244.71494 301.248 
L 242.765713 301.248 
z
" style="fill:#fa9ba4;opacity:0.2;"/>
   </g>
   <g id="patch_81">
    <path clip-path="url(#p7497a5d11c)" d="M 244.93152 307.584 
L 246.880747 307.584 
L 246.880747 307.584 
L 244.93152 307.584 
z
" style="fill:#fa9ba4;opacity:0.2;"/>
   </g>
   <g id="patch_82">
    <path clip-path="url(#p7497a5d11c)" d="M 247.097328 307.584 
L 249.046555 307.584 
L 249.046555 307.584 
L 247.097328 307.584 
z
" style="fill:#fa9ba4;opacity:0.2;"/>
   </g>
   <g id="patch_83">
    <path clip-path="url(#p7497a5d11c)" d="M 249.263135 307.584 
L 251.212362 307.584 
L 251.212362 307.584 
L 249.263135 307.584 
z
" style="fill:#fa9ba4;opacity:0.2;"/>
   </g>
   <g id="patch_84">
    <path clip-path="url(#p7497a5d11c)" d="M 251.428943 307.584 
L 253.37817 307.584 
L 253.37817 301.248 
L 251.428943 301.248 
z
" style="fill:#fa9ba4;opacity:0.2;"/>
   </g>
   <g id="patch_85">
    <path clip-path="url(#p7497a5d11c)" d="M 253.59475 307.584 
L 255.543977 307.584 
L 255.543977 307.584 
L 253.59475 307.584 
z
" style="fill:#fa9ba4;opacity:0.2;"/>
   </g>
   <g id="patch_86">
    <path clip-path="url(#p7497a5d11c)" d="M 255.760558 307.584 
L 257.709785 307.584 
L 257.709785 307.584 
L 255.760558 307.584 
z
" style="fill:#fa9ba4;opacity:0.2;"/>
   </g>
   <g id="patch_87">
    <path clip-path="url(#p7497a5d11c)" d="M 257.926365 307.584 
L 259.875592 307.584 
L 259.875592 301.248 
L 257.926365 301.248 
z
" style="fill:#fa9ba4;opacity:0.2;"/>
   </g>
   <g id="patch_88">
    <path clip-path="url(#p7497a5d11c)" d="M 260.092173 307.584 
L 262.0414 307.584 
L 262.0414 307.584 
L 260.092173 307.584 
z
" style="fill:#fa9ba4;opacity:0.2;"/>
   </g>
   <g id="patch_89">
    <path clip-path="url(#p7497a5d11c)" d="M 262.25798 307.584 
L 264.207207 307.584 
L 264.207207 307.584 
L 262.25798 307.584 
z
" style="fill:#fa9ba4;opacity:0.2;"/>
   </g>
   <g id="patch_90">
    <path clip-path="url(#p7497a5d11c)" d="M 264.423788 307.584 
L 266.373015 307.584 
L 266.373015 307.584 
L 264.423788 307.584 
z
" style="fill:#fa9ba4;opacity:0.2;"/>
   </g>
   <g id="patch_91">
    <path clip-path="url(#p7497a5d11c)" d="M 266.589595 307.584 
L 268.538822 307.584 
L 268.538822 307.584 
L 266.589595 307.584 
z
" style="fill:#fa9ba4;opacity:0.2;"/>
   </g>
   <g id="patch_92">
    <path clip-path="url(#p7497a5d11c)" d="M 268.755403 307.584 
L 270.70463 307.584 
L 270.70463 307.584 
L 268.755403 307.584 
z
" style="fill:#fa9ba4;opacity:0.2;"/>
   </g>
   <g id="patch_93">
    <path clip-path="url(#p7497a5d11c)" d="M 270.921211 307.584 
L 272.870437 307.584 
L 272.870437 307.584 
L 270.921211 307.584 
z
" style="fill:#fa9ba4;opacity:0.2;"/>
   </g>
   <g id="patch_94">
    <path clip-path="url(#p7497a5d11c)" d="M 273.087018 307.584 
L 275.036245 307.584 
L 275.036245 307.584 
L 273.087018 307.584 
z
" style="fill:#fa9ba4;opacity:0.2;"/>
   </g>
   <g id="patch_95">
    <path clip-path="url(#p7497a5d11c)" d="M 275.252826 307.584 
L 277.202052 307.584 
L 277.202052 301.248 
L 275.252826 301.248 
z
" style="fill:#fa9ba4;opacity:0.2;"/>
   </g>
   <g id="patch_96">
    <path clip-path="url(#p7497a5d11c)" d="M 277.418633 307.584 
L 279.36786 307.584 
L 279.36786 294.912 
L 277.418633 294.912 
z
" style="fill:#fa9ba4;opacity:0.2;"/>
   </g>
   <g id="patch_97">
    <path clip-path="url(#p7497a5d11c)" d="M 279.584441 307.584 
L 281.533667 307.584 
L 281.533667 288.576 
L 279.584441 288.576 
z
" style="fill:#fa9ba4;opacity:0.2;"/>
   </g>
   <g id="patch_98">
    <path clip-path="url(#p7497a5d11c)" d="M 281.750248 307.584 
L 283.699475 307.584 
L 283.699475 307.584 
L 281.750248 307.584 
z
" style="fill:#fa9ba4;opacity:0.2;"/>
   </g>
   <g id="patch_99">
    <path clip-path="url(#p7497a5d11c)" d="M 283.916056 307.584 
L 285.865282 307.584 
L 285.865282 307.584 
L 283.916056 307.584 
z
" style="fill:#fa9ba4;opacity:0.2;"/>
   </g>
   <g id="patch_100">
    <path clip-path="url(#p7497a5d11c)" d="M 286.081863 307.584 
L 288.03109 307.584 
L 288.03109 307.584 
L 286.081863 307.584 
z
" style="fill:#fa9ba4;opacity:0.2;"/>
   </g>
   <g id="patch_101">
    <path clip-path="url(#p7497a5d11c)" d="M 288.247671 307.584 
L 290.196897 307.584 
L 290.196897 307.584 
L 288.247671 307.584 
z
" style="fill:#fa9ba4;opacity:0.2;"/>
   </g>
   <g id="patch_102">
    <path clip-path="url(#p7497a5d11c)" d="M 290.413478 307.584 
L 292.362705 307.584 
L 292.362705 307.584 
L 290.413478 307.584 
z
" style="fill:#fa9ba4;opacity:0.2;"/>
   </g>
   <g id="patch_103">
    <path clip-path="url(#p7497a5d11c)" d="M 292.579286 307.584 
L 294.528512 307.584 
L 294.528512 307.584 
L 292.579286 307.584 
z
" style="fill:#fa9ba4;opacity:0.2;"/>
   </g>
   <g id="patch_104">
    <path clip-path="url(#p7497a5d11c)" d="M 294.745093 307.584 
L 296.69432 307.584 
L 296.69432 307.584 
L 294.745093 307.584 
z
" style="fill:#fa9ba4;opacity:0.2;"/>
   </g>
   <g id="patch_105">
    <path clip-path="url(#p7497a5d11c)" d="M 296.910901 307.584 
L 298.860127 307.584 
L 298.860127 307.584 
L 296.910901 307.584 
z
" style="fill:#fa9ba4;opacity:0.2;"/>
   </g>
   <g id="patch_106">
    <path clip-path="url(#p7497a5d11c)" d="M 299.076708 307.584 
L 301.025935 307.584 
L 301.025935 307.584 
L 299.076708 307.584 
z
" style="fill:#fa9ba4;opacity:0.2;"/>
   </g>
   <g id="patch_107">
    <path clip-path="url(#p7497a5d11c)" d="M 301.242516 307.584 
L 303.191742 307.584 
L 303.191742 307.584 
L 301.242516 307.584 
z
" style="fill:#fa9ba4;opacity:0.2;"/>
   </g>
   <g id="patch_108">
    <path clip-path="url(#p7497a5d11c)" d="M 303.408323 307.584 
L 305.35755 307.584 
L 305.35755 307.584 
L 303.408323 307.584 
z
" style="fill:#fa9ba4;opacity:0.2;"/>
   </g>
   <g id="patch_109">
    <path clip-path="url(#p7497a5d11c)" d="M 305.574131 307.584 
L 307.523357 307.584 
L 307.523357 307.584 
L 305.574131 307.584 
z
" style="fill:#fa9ba4;opacity:0.2;"/>
   </g>
   <g id="patch_110">
    <path clip-path="url(#p7497a5d11c)" d="M 307.739938 307.584 
L 309.689165 307.584 
L 309.689165 307.584 
L 307.739938 307.584 
z
" style="fill:#fa9ba4;opacity:0.2;"/>
   </g>
   <g id="patch_111">
    <path clip-path="url(#p7497a5d11c)" d="M 309.905746 307.584 
L 311.854972 307.584 
L 311.854972 307.584 
L 309.905746 307.584 
z
" style="fill:#fa9ba4;opacity:0.2;"/>
   </g>
   <g id="patch_112">
    <path clip-path="url(#p7497a5d11c)" d="M 312.071553 307.584 
L 314.02078 307.584 
L 314.02078 301.248 
L 312.071553 301.248 
z
" style="fill:#fa9ba4;opacity:0.2;"/>
   </g>
   <g id="patch_113">
    <path clip-path="url(#p7497a5d11c)" d="M 314.237361 307.584 
L 316.186587 307.584 
L 316.186587 307.584 
L 314.237361 307.584 
z
" style="fill:#fa9ba4;opacity:0.2;"/>
   </g>
   <g id="patch_114">
    <path clip-path="url(#p7497a5d11c)" d="M 316.403168 307.584 
L 318.352395 307.584 
L 318.352395 301.248 
L 316.403168 301.248 
z
" style="fill:#fa9ba4;opacity:0.2;"/>
   </g>
   <g id="patch_115">
    <path clip-path="url(#p7497a5d11c)" d="M 318.568976 307.584 
L 320.518202 307.584 
L 320.518202 301.248 
L 318.568976 301.248 
z
" style="fill:#fa9ba4;opacity:0.2;"/>
   </g>
   <g id="patch_116">
    <path clip-path="url(#p7497a5d11c)" d="M 320.734783 307.584 
L 322.68401 307.584 
L 322.68401 294.912 
L 320.734783 294.912 
z
" style="fill:#fa9ba4;opacity:0.2;"/>
   </g>
   <g id="patch_117">
    <path clip-path="url(#p7497a5d11c)" d="M 322.900591 307.584 
L 324.849817 307.584 
L 324.849817 301.248 
L 322.900591 301.248 
z
" style="fill:#fa9ba4;opacity:0.2;"/>
   </g>
   <g id="patch_118">
    <path clip-path="url(#p7497a5d11c)" d="M 325.066398 307.584 
L 327.015625 307.584 
L 327.015625 288.576 
L 325.066398 288.576 
z
" style="fill:#fa9ba4;opacity:0.2;"/>
   </g>
   <g id="patch_119">
    <path clip-path="url(#p7497a5d11c)" d="M 327.232206 307.584 
L 329.181432 307.584 
L 329.181432 275.904 
L 327.232206 275.904 
z
" style="fill:#fa9ba4;opacity:0.2;"/>
   </g>
   <g id="patch_120">
    <path clip-path="url(#p7497a5d11c)" d="M 329.398013 307.584 
L 331.34724 307.584 
L 331.34724 193.536 
L 329.398013 193.536 
z
" style="fill:#fa9ba4;opacity:0.2;"/>
   </g>
   <g id="patch_121">
    <path clip-path="url(#p7497a5d11c)" d="M 331.563821 307.584 
L 333.513047 307.584 
L 333.513047 275.904 
L 331.563821 275.904 
z
" style="fill:#fa9ba4;opacity:0.2;"/>
   </g>
   <g id="patch_122">
    <path clip-path="url(#p7497a5d11c)" d="M 333.729628 307.584 
L 335.678855 307.584 
L 335.678855 237.888 
L 333.729628 237.888 
z
" style="fill:#fa9ba4;opacity:0.2;"/>
   </g>
   <g id="patch_123">
    <path clip-path="url(#p7497a5d11c)" d="M 335.895436 307.584 
L 337.844663 307.584 
L 337.844663 149.184 
L 335.895436 149.184 
z
" style="fill:#fa9ba4;opacity:0.2;"/>
   </g>
   <g id="patch_124">
    <path clip-path="url(#p7497a5d11c)" d="M 338.061243 307.584 
L 340.01047 307.584 
L 340.01047 187.2 
L 338.061243 187.2 
z
" style="fill:#fa9ba4;opacity:0.2;"/>
   </g>
   <g id="patch_125">
    <path clip-path="url(#p7497a5d11c)" d="M 340.227051 307.584 
L 342.176278 307.584 
L 342.176278 225.216 
L 340.227051 225.216 
z
" style="fill:#fa9ba4;opacity:0.2;"/>
   </g>
   <g id="patch_126">
    <path clip-path="url(#p7497a5d11c)" d="M 342.392858 307.584 
L 344.342085 307.584 
L 344.342085 263.232 
L 342.392858 263.232 
z
" style="fill:#fa9ba4;opacity:0.2;"/>
   </g>
   <g id="patch_127">
    <path clip-path="url(#p7497a5d11c)" d="M 344.558666 307.584 
L 346.507893 307.584 
L 346.507893 41.472 
L 344.558666 41.472 
z
" style="fill:#fa9ba4;opacity:0.2;"/>
   </g>
   <g id="patch_128">
    <path clip-path="url(#p7497a5d11c)" d="M 346.724473 307.584 
L 348.6737 307.584 
L 348.6737 193.536 
L 346.724473 193.536 
z
" style="fill:#fa9ba4;opacity:0.2;"/>
   </g>
   <g id="patch_129">
    <path clip-path="url(#p7497a5d11c)" d="M 348.890281 307.584 
L 350.839508 307.584 
L 350.839508 174.528 
L 348.890281 174.528 
z
" style="fill:#fa9ba4;opacity:0.2;"/>
   </g>
   <g id="patch_130">
    <path clip-path="url(#p7497a5d11c)" d="M 351.056088 307.584 
L 353.005315 307.584 
L 353.005315 149.184 
L 351.056088 149.184 
z
" style="fill:#fa9ba4;opacity:0.2;"/>
   </g>
   <g id="patch_131">
    <path clip-path="url(#p7497a5d11c)" d="M 353.221896 307.584 
L 355.171123 307.584 
L 355.171123 111.168 
L 353.221896 111.168 
z
" style="fill:#fa9ba4;opacity:0.2;"/>
   </g>
   <g id="patch_132">
    <path clip-path="url(#p7497a5d11c)" d="M 355.387703 307.584 
L 357.33693 307.584 
L 357.33693 155.52 
L 355.387703 155.52 
z
" style="fill:#fa9ba4;opacity:0.2;"/>
   </g>
   <g id="patch_133">
    <path clip-path="url(#p7497a5d11c)" d="M 357.553511 307.584 
L 359.502738 307.584 
L 359.502738 218.88 
L 357.553511 218.88 
z
" style="fill:#fa9ba4;opacity:0.2;"/>
   </g>
   <g id="patch_134">
    <path clip-path="url(#p7497a5d11c)" d="M 359.719318 307.584 
L 361.668545 307.584 
L 361.668545 250.56 
L 359.719318 250.56 
z
" style="fill:#fa9ba4;opacity:0.2;"/>
   </g>
   <g id="patch_135">
    <path clip-path="url(#p7497a5d11c)" d="M 361.885126 307.584 
L 363.834353 307.584 
L 363.834353 117.504 
L 361.885126 117.504 
z
" style="fill:#fa9ba4;opacity:0.2;"/>
   </g>
   <g id="patch_136">
    <path clip-path="url(#p7497a5d11c)" d="M 364.050933 307.584 
L 366.00016 307.584 
L 366.00016 136.512 
L 364.050933 136.512 
z
" style="fill:#fa9ba4;opacity:0.2;"/>
   </g>
   <g id="patch_137">
    <path clip-path="url(#p7497a5d11c)" d="M 366.216741 307.584 
L 368.165968 307.584 
L 368.165968 155.52 
L 366.216741 155.52 
z
" style="fill:#fa9ba4;opacity:0.2;"/>
   </g>
   <g id="patch_138">
    <path clip-path="url(#p7497a5d11c)" d="M 368.382548 307.584 
L 370.331775 307.584 
L 370.331775 149.184 
L 368.382548 149.184 
z
" style="fill:#fa9ba4;opacity:0.2;"/>
   </g>
   <g id="patch_139">
    <path clip-path="url(#p7497a5d11c)" d="M 370.548356 307.584 
L 372.497583 307.584 
L 372.497583 149.184 
L 370.548356 149.184 
z
" style="fill:#fa9ba4;opacity:0.2;"/>
   </g>
   <g id="patch_140">
    <path clip-path="url(#p7497a5d11c)" d="M 372.714163 307.584 
L 374.66339 307.584 
L 374.66339 155.52 
L 372.714163 155.52 
z
" style="fill:#fa9ba4;opacity:0.2;"/>
   </g>
   <g id="patch_141">
    <path clip-path="url(#p7497a5d11c)" d="M 374.879971 307.584 
L 376.829198 307.584 
L 376.829198 187.2 
L 374.879971 187.2 
z
" style="fill:#fa9ba4;opacity:0.2;"/>
   </g>
   <g id="patch_142">
    <path clip-path="url(#p7497a5d11c)" d="M 377.045778 307.584 
L 378.995005 307.584 
L 378.995005 161.856 
L 377.045778 161.856 
z
" style="fill:#fa9ba4;opacity:0.2;"/>
   </g>
   <g id="patch_143">
    <path clip-path="url(#p7497a5d11c)" d="M 379.211586 307.584 
L 381.160813 307.584 
L 381.160813 123.84 
L 379.211586 123.84 
z
" style="fill:#fa9ba4;opacity:0.2;"/>
   </g>
   <g id="patch_144">
    <path clip-path="url(#p7497a5d11c)" d="M 381.377393 307.584 
L 383.32662 307.584 
L 383.32662 85.824 
L 381.377393 85.824 
z
" style="fill:#fa9ba4;opacity:0.2;"/>
   </g>
   <g id="patch_145">
    <path clip-path="url(#p7497a5d11c)" d="M 383.543201 307.584 
L 385.492428 307.584 
L 385.492428 104.832 
L 383.543201 104.832 
z
" style="fill:#fa9ba4;opacity:0.2;"/>
   </g>
   <g id="patch_146">
    <path clip-path="url(#p7497a5d11c)" d="M 385.709008 307.584 
L 387.658235 307.584 
L 387.658235 123.84 
L 385.709008 123.84 
z
" style="fill:#fa9ba4;opacity:0.2;"/>
   </g>
   <g id="patch_147">
    <path clip-path="url(#p7497a5d11c)" d="M 387.874816 307.584 
L 389.824043 307.584 
L 389.824043 199.872 
L 387.874816 199.872 
z
" style="fill:#fa9ba4;opacity:0.2;"/>
   </g>
   <g id="patch_148">
    <path clip-path="url(#p7497a5d11c)" d="M 390.040623 307.584 
L 391.98985 307.584 
L 391.98985 136.512 
L 390.040623 136.512 
z
" style="fill:#fa9ba4;opacity:0.2;"/>
   </g>
   <g id="patch_149">
    <path clip-path="url(#p7497a5d11c)" d="M 392.206431 307.584 
L 394.155658 307.584 
L 394.155658 149.184 
L 392.206431 149.184 
z
" style="fill:#fa9ba4;opacity:0.2;"/>
   </g>
   <g id="patch_150">
    <path clip-path="url(#p7497a5d11c)" d="M 394.372238 307.584 
L 396.321465 307.584 
L 396.321465 66.816 
L 394.372238 66.816 
z
" style="fill:#fa9ba4;opacity:0.2;"/>
   </g>
   <g id="patch_151">
    <path clip-path="url(#p7497a5d11c)" d="M 396.538046 307.584 
L 398.487273 307.584 
L 398.487273 60.48 
L 396.538046 60.48 
z
" style="fill:#fa9ba4;opacity:0.2;"/>
   </g>
   <g id="matplotlib.axis_1"/>
   <g id="matplotlib.axis_2"/>
   <g id="PolyCollection_1">
    <defs>
     <path d="M 369.357162 -176.502857 
L 369.357162 -38.016 
L 371.522969 -38.016 
L 373.688777 -38.016 
L 375.854584 -38.016 
L 378.020392 -38.016 
L 380.186199 -38.016 
L 382.352007 -38.016 
L 384.517814 -38.016 
L 386.683622 -38.016 
L 388.849429 -38.016 
L 391.015237 -38.016 
L 393.181044 -38.016 
L 395.346852 -38.016 
L 397.512659 -38.016 
L 397.512659 -225.380571 
L 397.512659 -225.380571 
L 395.346852 -221.76 
L 393.181044 -213.613714 
L 391.015237 -211.803429 
L 388.849429 -204.562286 
L 386.683622 -210.898286 
L 384.517814 -207.277714 
L 382.352007 -200.941714 
L 380.186199 -190.985143 
L 378.020392 -189.174857 
L 375.854584 -195.510857 
L 373.688777 -186.459429 
L 371.522969 -177.408 
L 369.357162 -176.502857 
z
" id="mffeb2037e7" style="stroke:#dc3545;stroke-opacity:0.5;"/>
    </defs>
    <g clip-path="url(#p7497a5d11c)">
     <use style="fill:#dc3545;fill-opacity:0.5;stroke:#dc3545;stroke-opacity:0.5;" x="0" xlink:href="#mffeb2037e7" y="345.6"/>
    </g>
   </g>
   <g id="PolyCollection_2">
    <defs>
     <path d="M 87.802186 -38.921143 
L 87.802186 -38.016 
L 89.967993 -38.016 
L 92.133801 -38.016 
L 94.299608 -38.016 
L 96.465416 -38.016 
L 98.631223 -38.016 
L 100.797031 -38.016 
L 102.962838 -38.016 
L 105.128646 -38.016 
L 107.294453 -38.016 
L 109.460261 -38.016 
L 111.626068 -38.016 
L 113.791876 -38.016 
L 115.957683 -38.016 
L 118.123491 -38.016 
L 120.289298 -38.016 
L 122.455106 -38.016 
L 124.620913 -38.016 
L 126.786721 -38.016 
L 128.952528 -38.016 
L 131.118336 -38.016 
L 133.284143 -38.016 
L 135.449951 -38.016 
L 137.615758 -38.016 
L 139.781566 -38.016 
L 141.947373 -38.016 
L 144.113181 -38.016 
L 146.278988 -38.016 
L 148.444796 -38.016 
L 150.610603 -38.016 
L 152.776411 -38.016 
L 154.942218 -38.016 
L 157.108026 -38.016 
L 159.273833 -38.016 
L 161.439641 -38.016 
L 163.605448 -38.016 
L 165.771256 -38.016 
L 167.937063 -38.016 
L 170.102871 -38.016 
L 172.268679 -38.016 
L 174.434486 -38.016 
L 176.600294 -38.016 
L 178.766101 -38.016 
L 180.931909 -38.016 
L 183.097716 -38.016 
L 185.263524 -38.016 
L 187.429331 -38.016 
L 189.595139 -38.016 
L 191.760946 -38.016 
L 193.926754 -38.016 
L 196.092561 -38.016 
L 198.258369 -38.016 
L 200.424176 -38.016 
L 202.589984 -38.016 
L 204.755791 -38.016 
L 206.921599 -38.016 
L 209.087406 -38.016 
L 211.253214 -38.016 
L 213.419021 -38.016 
L 215.584829 -38.016 
L 217.750636 -38.016 
L 219.916444 -38.016 
L 222.082251 -38.016 
L 224.248059 -38.016 
L 226.413866 -38.016 
L 228.579674 -38.016 
L 230.745481 -38.016 
L 232.911289 -38.016 
L 235.077096 -38.016 
L 237.242904 -38.016 
L 239.408711 -38.016 
L 241.574519 -38.016 
L 243.740326 -38.016 
L 245.906134 -38.016 
L 248.071941 -38.016 
L 250.237749 -38.016 
L 252.403556 -38.016 
L 254.569364 -38.016 
L 256.735171 -38.016 
L 258.900979 -38.016 
L 261.066786 -38.016 
L 263.232594 -38.016 
L 265.398401 -38.016 
L 267.564209 -38.016 
L 269.730016 -38.016 
L 271.895824 -38.016 
L 274.061631 -38.016 
L 276.227439 -38.016 
L 278.393246 -38.016 
L 280.559054 -38.016 
L 282.724861 -38.016 
L 284.890669 -38.016 
L 287.056476 -38.016 
L 289.222284 -38.016 
L 291.388091 -38.016 
L 293.553899 -38.016 
L 295.719706 -38.016 
L 297.885514 -38.016 
L 300.051321 -38.016 
L 302.217129 -38.016 
L 304.382937 -38.016 
L 306.548744 -38.016 
L 308.714552 -38.016 
L 310.880359 -38.016 
L 313.046167 -38.016 
L 315.211974 -38.016 
L 317.377782 -38.016 
L 319.543589 -38.016 
L 321.709397 -38.016 
L 323.875204 -38.016 
L 326.041012 -38.016 
L 328.206819 -38.016 
L 330.372627 -38.016 
L 332.538434 -38.016 
L 334.704242 -38.016 
L 336.870049 -38.016 
L 339.035857 -38.016 
L 341.201664 -38.016 
L 343.367472 -38.016 
L 345.533279 -38.016 
L 347.699087 -38.016 
L 349.864894 -38.016 
L 352.030702 -38.016 
L 354.196509 -38.016 
L 356.362317 -38.016 
L 358.528124 -38.016 
L 360.693932 -38.016 
L 362.859739 -38.016 
L 365.025547 -38.016 
L 367.191354 -38.016 
L 369.357162 -38.016 
L 369.357162 -176.502857 
L 369.357162 -176.502857 
L 367.191354 -181.933714 
L 365.025547 -182.838857 
L 362.859739 -177.408 
L 360.693932 -166.546286 
L 358.528124 -196.416 
L 356.362317 -190.08 
L 354.196509 -180.123429 
L 352.030702 -169.261714 
L 349.864894 -169.261714 
L 347.699087 -160.210286 
L 345.533279 -148.443429 
L 343.367472 -126.72 
L 341.201664 -124.909714 
L 339.035857 -115.858286 
L 336.870049 -99.565714 
L 334.704242 -78.747429 
L 332.538434 -69.696 
L 330.372627 -66.075429 
L 328.206819 -49.782857 
L 326.041012 -46.162286 
L 323.875204 -43.446857 
L 321.709397 -42.541714 
L 319.543589 -40.731429 
L 317.377782 -39.826286 
L 315.211974 -38.921143 
L 313.046167 -38.921143 
L 310.880359 -38.016 
L 308.714552 -38.016 
L 306.548744 -38.016 
L 304.382937 -38.016 
L 302.217129 -38.016 
L 300.051321 -38.016 
L 297.885514 -38.016 
L 295.719706 -38.016 
L 293.553899 -40.731429 
L 291.388091 -42.541714 
L 289.222284 -43.446857 
L 287.056476 -43.446857 
L 284.890669 -43.446857 
L 282.724861 -43.446857 
L 280.559054 -43.446857 
L 278.393246 -40.731429 
L 276.227439 -38.921143 
L 274.061631 -38.016 
L 271.895824 -38.921143 
L 269.730016 -38.921143 
L 267.564209 -38.921143 
L 265.398401 -39.826286 
L 263.232594 -39.826286 
L 261.066786 -39.826286 
L 258.900979 -39.826286 
L 256.735171 -39.826286 
L 254.569364 -39.826286 
L 252.403556 -39.826286 
L 250.237749 -38.921143 
L 248.071941 -39.826286 
L 245.906134 -39.826286 
L 243.740326 -41.636571 
L 241.574519 -45.257143 
L 239.408711 -46.162286 
L 237.242904 -47.067429 
L 235.077096 -47.067429 
L 232.911289 -46.162286 
L 230.745481 -49.782857 
L 228.579674 -48.877714 
L 226.413866 -45.257143 
L 224.248059 -45.257143 
L 222.082251 -44.352 
L 219.916444 -44.352 
L 217.750636 -44.352 
L 215.584829 -40.731429 
L 213.419021 -39.826286 
L 211.253214 -38.921143 
L 209.087406 -38.016 
L 206.921599 -38.016 
L 204.755791 -38.016 
L 202.589984 -38.016 
L 200.424176 -38.016 
L 198.258369 -38.016 
L 196.092561 -38.016 
L 193.926754 -38.016 
L 191.760946 -38.016 
L 189.595139 -38.016 
L 187.429331 -38.016 
L 185.263524 -39.826286 
L 183.097716 -40.731429 
L 180.931909 -40.731429 
L 178.766101 -40.731429 
L 176.600294 -40.731429 
L 174.434486 -40.731429 
L 172.268679 -40.731429 
L 170.102871 -40.731429 
L 167.937063 -39.826286 
L 165.771256 -40.731429 
L 163.605448 -40.731429 
L 161.439641 -41.636571 
L 159.273833 -42.541714 
L 157.108026 -42.541714 
L 154.942218 -40.731429 
L 152.776411 -40.731429 
L 150.610603 -39.826286 
L 148.444796 -42.541714 
L 146.278988 -44.352 
L 144.113181 -46.162286 
L 141.947373 -51.593143 
L 139.781566 -51.593143 
L 137.615758 -54.308571 
L 135.449951 -56.118857 
L 133.284143 -59.739429 
L 131.118336 -57.929143 
L 128.952528 -55.213714 
L 126.786721 -50.688 
L 124.620913 -50.688 
L 122.455106 -47.972571 
L 120.289298 -47.972571 
L 118.123491 -41.636571 
L 115.957683 -40.731429 
L 113.791876 -40.731429 
L 111.626068 -40.731429 
L 109.460261 -40.731429 
L 107.294453 -40.731429 
L 105.128646 -40.731429 
L 102.962838 -40.731429 
L 100.797031 -41.636571 
L 98.631223 -41.636571 
L 96.465416 -40.731429 
L 94.299608 -40.731429 
L 92.133801 -40.731429 
L 89.967993 -38.921143 
L 87.802186 -38.921143 
z
" id="m7d06b0a337" style="stroke:#fa9ba4;stroke-opacity:0.3;"/>
    </defs>
    <g clip-path="url(#p7497a5d11c)">
     <use style="fill:#fa9ba4;fill-opacity:0.3;stroke:#fa9ba4;stroke-opacity:0.3;" x="0" xlink:href="#m7d06b0a337" y="345.6"/>
    </g>
   </g>
   <g id="line2d_1">
    <path clip-path="url(#p7497a5d11c)" d="M 87.802186 306.678857 
L 89.967993 306.678857 
L 92.133801 304.868571 
L 96.465416 304.868571 
L 98.631223 303.963429 
L 100.797031 303.963429 
L 102.962838 304.868571 
L 115.957683 304.868571 
L 118.123491 303.963429 
L 120.289298 297.627429 
L 122.455106 297.627429 
L 124.620913 294.912 
L 126.786721 294.912 
L 128.952528 290.386286 
L 131.118336 287.670857 
L 133.284143 285.860571 
L 135.449951 289.481143 
L 137.615758 291.291429 
L 139.781566 294.006857 
L 141.947373 294.006857 
L 144.113181 299.437714 
L 148.444796 303.058286 
L 150.610603 305.773714 
L 152.776411 304.868571 
L 154.942218 304.868571 
L 157.108026 303.058286 
L 159.273833 303.058286 
L 163.605448 304.868571 
L 165.771256 304.868571 
L 167.937063 305.773714 
L 170.102871 304.868571 
L 183.097716 304.868571 
L 185.263524 305.773714 
L 187.429331 307.584 
L 209.087406 307.584 
L 215.584829 304.868571 
L 217.750636 301.248 
L 222.082251 301.248 
L 224.248059 300.342857 
L 226.413866 300.342857 
L 228.579674 296.722286 
L 230.745481 295.817143 
L 232.911289 299.437714 
L 235.077096 298.532571 
L 237.242904 298.532571 
L 241.574519 300.342857 
L 243.740326 303.963429 
L 245.906134 305.773714 
L 248.071941 305.773714 
L 250.237749 306.678857 
L 252.403556 305.773714 
L 265.398401 305.773714 
L 267.564209 306.678857 
L 271.895824 306.678857 
L 274.061631 307.584 
L 276.227439 306.678857 
L 278.393246 304.868571 
L 280.559054 302.153143 
L 289.222284 302.153143 
L 291.388091 303.058286 
L 293.553899 304.868571 
L 295.719706 307.584 
L 310.880359 307.584 
L 313.046167 306.678857 
L 315.211974 306.678857 
L 319.543589 304.868571 
L 321.709397 303.058286 
L 323.875204 302.153143 
L 326.041012 299.437714 
L 328.206819 295.817143 
L 330.372627 279.524571 
L 332.538434 275.904 
L 334.704242 266.852571 
L 336.870049 246.034286 
L 339.035857 229.741714 
L 341.201664 220.690286 
L 343.367472 218.88 
L 345.533279 197.156571 
L 347.699087 185.389714 
L 349.864894 176.338286 
L 352.030702 176.338286 
L 354.196509 165.476571 
L 356.362317 155.52 
L 358.528124 149.184 
L 360.693932 179.053714 
L 362.859739 168.192 
L 365.025547 162.761143 
L 367.191354 163.666286 
L 369.357162 169.097143 
L 371.522969 168.192 
L 375.854584 150.089143 
L 378.020392 156.425143 
L 380.186199 154.614857 
L 382.352007 144.658286 
L 384.517814 138.322286 
L 386.683622 134.701714 
L 388.849429 141.037714 
L 391.015237 133.796571 
L 393.181044 131.986286 
L 395.346852 123.84 
L 397.512659 120.219429 
L 397.512659 120.219429 
" style="fill:none;stroke:#fa9ba4;stroke-linecap:square;stroke-width:2;"/>
   </g>
   <g id="line2d_2">
    <path clip-path="url(#p7497a5d11c)" d="M 369.357162 169.097143 
L 371.522969 168.192 
L 373.688777 159.140571 
L 375.854584 150.089143 
L 378.020392 156.425143 
L 380.186199 154.614857 
L 382.352007 144.658286 
L 384.517814 138.322286 
L 386.683622 134.701714 
L 388.849429 141.037714 
L 391.015237 133.796571 
L 393.181044 131.986286 
L 395.346852 123.84 
L 397.512659 120.219429 
" style="fill:none;stroke:#dc3545;stroke-linecap:square;stroke-width:2;"/>
   </g>
  </g>
 </g>
 <defs>
  <clipPath id="p7497a5d11c">
   <rect height="266.112" width="357.12" x="57.6" y="41.472"/>
  </clipPath>
 </defs>
</svg>
