<?xml version="1.0" encoding="utf-8" standalone="no"?>
<!DOCTYPE svg PUBLIC "-//W3C//DTD SVG 1.1//EN"
  "http://www.w3.org/Graphics/SVG/1.1/DTD/svg11.dtd">
<svg height="345.6pt" version="1.1" viewBox="0 0 460.8 345.6" width="460.8pt" xmlns="http://www.w3.org/2000/svg" xmlns:xlink="http://www.w3.org/1999/xlink">
 <metadata>
  <rdf:RDF xmlns:cc="http://creativecommons.org/ns#" xmlns:dc="http://purl.org/dc/elements/1.1/" xmlns:rdf="http://www.w3.org/1999/02/22-rdf-syntax-ns#">
   <cc:Work>
    <dc:type rdf:resource="http://purl.org/dc/dcmitype/StillImage"/>
    <dc:date>2021-05-06T13:23:03.438120</dc:date>
    <dc:format>image/svg+xml</dc:format>
    <dc:creator>
     <cc:Agent>
      <dc:title>Matplotlib v3.4.1, https://matplotlib.org/</dc:title>
     </cc:Agent>
    </dc:creator>
   </cc:Work>
  </rdf:RDF>
 </metadata>
 <defs>
  <style type="text/css">*{stroke-linecap:butt;stroke-linejoin:round;}</style>
 </defs>
 <g id="figure_1">
  <g id="patch_1">
   <path d="M 0 345.6 
L 460.8 345.6 
L 460.8 0 
L 0 0 
z
" style="fill:none;"/>
  </g>
  <g id="axes_1">
   <g id="patch_2">
    <path clip-path="url(#p562e3524b6)" d="M 73.832727 307.584 
L 75.891847 307.584 
L 75.891847 307.584 
L 73.832727 307.584 
z
" style="fill:#fa9ba4;opacity:0.2;"/>
   </g>
   <g id="patch_3">
    <path clip-path="url(#p562e3524b6)" d="M 76.120638 307.584 
L 78.179758 307.584 
L 78.179758 307.584 
L 76.120638 307.584 
z
" style="fill:#fa9ba4;opacity:0.2;"/>
   </g>
   <g id="patch_4">
    <path clip-path="url(#p562e3524b6)" d="M 78.408549 307.584 
L 80.467669 307.584 
L 80.467669 307.584 
L 78.408549 307.584 
z
" style="fill:#fa9ba4;opacity:0.2;"/>
   </g>
   <g id="patch_5">
    <path clip-path="url(#p562e3524b6)" d="M 80.69646 307.584 
L 82.755579 307.584 
L 82.755579 307.584 
L 80.69646 307.584 
z
" style="fill:#fa9ba4;opacity:0.2;"/>
   </g>
   <g id="patch_6">
    <path clip-path="url(#p562e3524b6)" d="M 82.984371 307.584 
L 85.04349 307.584 
L 85.04349 307.584 
L 82.984371 307.584 
z
" style="fill:#fa9ba4;opacity:0.2;"/>
   </g>
   <g id="patch_7">
    <path clip-path="url(#p562e3524b6)" d="M 85.272281 307.584 
L 87.331401 307.584 
L 87.331401 307.584 
L 85.272281 307.584 
z
" style="fill:#fa9ba4;opacity:0.2;"/>
   </g>
   <g id="patch_8">
    <path clip-path="url(#p562e3524b6)" d="M 87.560192 307.584 
L 89.619312 307.584 
L 89.619312 302.466462 
L 87.560192 302.466462 
z
" style="fill:#fa9ba4;opacity:0.2;"/>
   </g>
   <g id="patch_9">
    <path clip-path="url(#p562e3524b6)" d="M 89.848103 307.584 
L 91.907223 307.584 
L 91.907223 307.584 
L 89.848103 307.584 
z
" style="fill:#fa9ba4;opacity:0.2;"/>
   </g>
   <g id="patch_10">
    <path clip-path="url(#p562e3524b6)" d="M 92.136014 307.584 
L 94.195134 307.584 
L 94.195134 297.348923 
L 92.136014 297.348923 
z
" style="fill:#fa9ba4;opacity:0.2;"/>
   </g>
   <g id="patch_11">
    <path clip-path="url(#p562e3524b6)" d="M 94.423925 307.584 
L 96.483044 307.584 
L 96.483044 302.466462 
L 94.423925 302.466462 
z
" style="fill:#fa9ba4;opacity:0.2;"/>
   </g>
   <g id="patch_12">
    <path clip-path="url(#p562e3524b6)" d="M 96.711835 307.584 
L 98.770955 307.584 
L 98.770955 307.584 
L 96.711835 307.584 
z
" style="fill:#fa9ba4;opacity:0.2;"/>
   </g>
   <g id="patch_13">
    <path clip-path="url(#p562e3524b6)" d="M 98.999746 307.584 
L 101.058866 307.584 
L 101.058866 307.584 
L 98.999746 307.584 
z
" style="fill:#fa9ba4;opacity:0.2;"/>
   </g>
   <g id="patch_14">
    <path clip-path="url(#p562e3524b6)" d="M 101.287657 307.584 
L 103.346777 307.584 
L 103.346777 292.231385 
L 101.287657 292.231385 
z
" style="fill:#fa9ba4;opacity:0.2;"/>
   </g>
   <g id="patch_15">
    <path clip-path="url(#p562e3524b6)" d="M 103.575568 307.584 
L 105.634688 307.584 
L 105.634688 307.584 
L 103.575568 307.584 
z
" style="fill:#fa9ba4;opacity:0.2;"/>
   </g>
   <g id="patch_16">
    <path clip-path="url(#p562e3524b6)" d="M 105.863479 307.584 
L 107.922599 307.584 
L 107.922599 307.584 
L 105.863479 307.584 
z
" style="fill:#fa9ba4;opacity:0.2;"/>
   </g>
   <g id="patch_17">
    <path clip-path="url(#p562e3524b6)" d="M 108.15139 307.584 
L 110.210509 307.584 
L 110.210509 302.466462 
L 108.15139 302.466462 
z
" style="fill:#fa9ba4;opacity:0.2;"/>
   </g>
   <g id="patch_18">
    <path clip-path="url(#p562e3524b6)" d="M 110.4393 307.584 
L 112.49842 307.584 
L 112.49842 281.996308 
L 110.4393 281.996308 
z
" style="fill:#fa9ba4;opacity:0.2;"/>
   </g>
   <g id="patch_19">
    <path clip-path="url(#p562e3524b6)" d="M 112.727211 307.584 
L 114.786331 307.584 
L 114.786331 307.584 
L 112.727211 307.584 
z
" style="fill:#fa9ba4;opacity:0.2;"/>
   </g>
   <g id="patch_20">
    <path clip-path="url(#p562e3524b6)" d="M 115.015122 307.584 
L 117.074242 307.584 
L 117.074242 302.466462 
L 115.015122 302.466462 
z
" style="fill:#fa9ba4;opacity:0.2;"/>
   </g>
   <g id="patch_21">
    <path clip-path="url(#p562e3524b6)" d="M 117.303033 307.584 
L 119.362153 307.584 
L 119.362153 307.584 
L 117.303033 307.584 
z
" style="fill:#fa9ba4;opacity:0.2;"/>
   </g>
   <g id="patch_22">
    <path clip-path="url(#p562e3524b6)" d="M 119.590944 307.584 
L 121.650063 307.584 
L 121.650063 307.584 
L 119.590944 307.584 
z
" style="fill:#fa9ba4;opacity:0.2;"/>
   </g>
   <g id="patch_23">
    <path clip-path="url(#p562e3524b6)" d="M 121.878855 307.584 
L 123.937974 307.584 
L 123.937974 307.584 
L 121.878855 307.584 
z
" style="fill:#fa9ba4;opacity:0.2;"/>
   </g>
   <g id="patch_24">
    <path clip-path="url(#p562e3524b6)" d="M 124.166765 307.584 
L 126.225885 307.584 
L 126.225885 307.584 
L 124.166765 307.584 
z
" style="fill:#fa9ba4;opacity:0.2;"/>
   </g>
   <g id="patch_25">
    <path clip-path="url(#p562e3524b6)" d="M 126.454676 307.584 
L 128.513796 307.584 
L 128.513796 302.466462 
L 126.454676 302.466462 
z
" style="fill:#fa9ba4;opacity:0.2;"/>
   </g>
   <g id="patch_26">
    <path clip-path="url(#p562e3524b6)" d="M 128.742587 307.584 
L 130.801707 307.584 
L 130.801707 307.584 
L 128.742587 307.584 
z
" style="fill:#fa9ba4;opacity:0.2;"/>
   </g>
   <g id="patch_27">
    <path clip-path="url(#p562e3524b6)" d="M 131.030498 307.584 
L 133.089618 307.584 
L 133.089618 276.878769 
L 131.030498 276.878769 
z
" style="fill:#fa9ba4;opacity:0.2;"/>
   </g>
   <g id="patch_28">
    <path clip-path="url(#p562e3524b6)" d="M 133.318409 307.584 
L 135.377528 307.584 
L 135.377528 220.585846 
L 133.318409 220.585846 
z
" style="fill:#fa9ba4;opacity:0.2;"/>
   </g>
   <g id="patch_29">
    <path clip-path="url(#p562e3524b6)" d="M 135.606319 307.584 
L 137.665439 307.584 
L 137.665439 235.938462 
L 135.606319 235.938462 
z
" style="fill:#fa9ba4;opacity:0.2;"/>
   </g>
   <g id="patch_30">
    <path clip-path="url(#p562e3524b6)" d="M 137.89423 307.584 
L 139.95335 307.584 
L 139.95335 307.584 
L 137.89423 307.584 
z
" style="fill:#fa9ba4;opacity:0.2;"/>
   </g>
   <g id="patch_31">
    <path clip-path="url(#p562e3524b6)" d="M 140.182141 307.584 
L 142.241261 307.584 
L 142.241261 200.115692 
L 140.182141 200.115692 
z
" style="fill:#fa9ba4;opacity:0.2;"/>
   </g>
   <g id="patch_32">
    <path clip-path="url(#p562e3524b6)" d="M 142.470052 307.584 
L 144.529172 307.584 
L 144.529172 307.584 
L 142.470052 307.584 
z
" style="fill:#fa9ba4;opacity:0.2;"/>
   </g>
   <g id="patch_33">
    <path clip-path="url(#p562e3524b6)" d="M 144.757963 307.584 
L 146.817082 307.584 
L 146.817082 241.056 
L 144.757963 241.056 
z
" style="fill:#fa9ba4;opacity:0.2;"/>
   </g>
   <g id="patch_34">
    <path clip-path="url(#p562e3524b6)" d="M 147.045874 307.584 
L 149.104993 307.584 
L 149.104993 307.584 
L 147.045874 307.584 
z
" style="fill:#fa9ba4;opacity:0.2;"/>
   </g>
   <g id="patch_35">
    <path clip-path="url(#p562e3524b6)" d="M 149.333784 307.584 
L 151.392904 307.584 
L 151.392904 302.466462 
L 149.333784 302.466462 
z
" style="fill:#fa9ba4;opacity:0.2;"/>
   </g>
   <g id="patch_36">
    <path clip-path="url(#p562e3524b6)" d="M 151.621695 307.584 
L 153.680815 307.584 
L 153.680815 307.584 
L 151.621695 307.584 
z
" style="fill:#fa9ba4;opacity:0.2;"/>
   </g>
   <g id="patch_37">
    <path clip-path="url(#p562e3524b6)" d="M 153.909606 307.584 
L 155.968726 307.584 
L 155.968726 307.584 
L 153.909606 307.584 
z
" style="fill:#fa9ba4;opacity:0.2;"/>
   </g>
   <g id="patch_38">
    <path clip-path="url(#p562e3524b6)" d="M 156.197517 307.584 
L 158.256637 307.584 
L 158.256637 302.466462 
L 156.197517 302.466462 
z
" style="fill:#fa9ba4;opacity:0.2;"/>
   </g>
   <g id="patch_39">
    <path clip-path="url(#p562e3524b6)" d="M 158.485428 307.584 
L 160.544547 307.584 
L 160.544547 297.348923 
L 158.485428 297.348923 
z
" style="fill:#fa9ba4;opacity:0.2;"/>
   </g>
   <g id="patch_40">
    <path clip-path="url(#p562e3524b6)" d="M 160.773338 307.584 
L 162.832458 307.584 
L 162.832458 281.996308 
L 160.773338 281.996308 
z
" style="fill:#fa9ba4;opacity:0.2;"/>
   </g>
   <g id="patch_41">
    <path clip-path="url(#p562e3524b6)" d="M 163.061249 307.584 
L 165.120369 307.584 
L 165.120369 307.584 
L 163.061249 307.584 
z
" style="fill:#fa9ba4;opacity:0.2;"/>
   </g>
   <g id="patch_42">
    <path clip-path="url(#p562e3524b6)" d="M 165.34916 307.584 
L 167.40828 307.584 
L 167.40828 307.584 
L 165.34916 307.584 
z
" style="fill:#fa9ba4;opacity:0.2;"/>
   </g>
   <g id="patch_43">
    <path clip-path="url(#p562e3524b6)" d="M 167.637071 307.584 
L 169.696191 307.584 
L 169.696191 307.584 
L 167.637071 307.584 
z
" style="fill:#fa9ba4;opacity:0.2;"/>
   </g>
   <g id="patch_44">
    <path clip-path="url(#p562e3524b6)" d="M 169.924982 307.584 
L 171.984101 307.584 
L 171.984101 292.231385 
L 169.924982 292.231385 
z
" style="fill:#fa9ba4;opacity:0.2;"/>
   </g>
   <g id="patch_45">
    <path clip-path="url(#p562e3524b6)" d="M 172.212893 307.584 
L 174.272012 307.584 
L 174.272012 307.584 
L 172.212893 307.584 
z
" style="fill:#fa9ba4;opacity:0.2;"/>
   </g>
   <g id="patch_46">
    <path clip-path="url(#p562e3524b6)" d="M 174.500803 307.584 
L 176.559923 307.584 
L 176.559923 307.584 
L 174.500803 307.584 
z
" style="fill:#fa9ba4;opacity:0.2;"/>
   </g>
   <g id="patch_47">
    <path clip-path="url(#p562e3524b6)" d="M 176.788714 307.584 
L 178.847834 307.584 
L 178.847834 302.466462 
L 176.788714 302.466462 
z
" style="fill:#fa9ba4;opacity:0.2;"/>
   </g>
   <g id="patch_48">
    <path clip-path="url(#p562e3524b6)" d="M 179.076625 307.584 
L 181.135745 307.584 
L 181.135745 302.466462 
L 179.076625 302.466462 
z
" style="fill:#fa9ba4;opacity:0.2;"/>
   </g>
   <g id="patch_49">
    <path clip-path="url(#p562e3524b6)" d="M 181.364536 307.584 
L 183.423656 307.584 
L 183.423656 307.584 
L 181.364536 307.584 
z
" style="fill:#fa9ba4;opacity:0.2;"/>
   </g>
   <g id="patch_50">
    <path clip-path="url(#p562e3524b6)" d="M 183.652447 307.584 
L 185.711566 307.584 
L 185.711566 307.584 
L 183.652447 307.584 
z
" style="fill:#fa9ba4;opacity:0.2;"/>
   </g>
   <g id="patch_51">
    <path clip-path="url(#p562e3524b6)" d="M 185.940357 307.584 
L 187.999477 307.584 
L 187.999477 307.584 
L 185.940357 307.584 
z
" style="fill:#fa9ba4;opacity:0.2;"/>
   </g>
   <g id="patch_52">
    <path clip-path="url(#p562e3524b6)" d="M 188.228268 307.584 
L 190.287388 307.584 
L 190.287388 302.466462 
L 188.228268 302.466462 
z
" style="fill:#fa9ba4;opacity:0.2;"/>
   </g>
   <g id="patch_53">
    <path clip-path="url(#p562e3524b6)" d="M 190.516179 307.584 
L 192.575299 307.584 
L 192.575299 281.996308 
L 190.516179 281.996308 
z
" style="fill:#fa9ba4;opacity:0.2;"/>
   </g>
   <g id="patch_54">
    <path clip-path="url(#p562e3524b6)" d="M 192.80409 307.584 
L 194.86321 307.584 
L 194.86321 287.113846 
L 192.80409 287.113846 
z
" style="fill:#fa9ba4;opacity:0.2;"/>
   </g>
   <g id="patch_55">
    <path clip-path="url(#p562e3524b6)" d="M 195.092001 307.584 
L 197.151121 307.584 
L 197.151121 297.348923 
L 195.092001 297.348923 
z
" style="fill:#fa9ba4;opacity:0.2;"/>
   </g>
   <g id="patch_56">
    <path clip-path="url(#p562e3524b6)" d="M 197.379912 307.584 
L 199.439031 307.584 
L 199.439031 266.643692 
L 197.379912 266.643692 
z
" style="fill:#fa9ba4;opacity:0.2;"/>
   </g>
   <g id="patch_57">
    <path clip-path="url(#p562e3524b6)" d="M 199.667822 307.584 
L 201.726942 307.584 
L 201.726942 307.584 
L 199.667822 307.584 
z
" style="fill:#fa9ba4;opacity:0.2;"/>
   </g>
   <g id="patch_58">
    <path clip-path="url(#p562e3524b6)" d="M 201.955733 307.584 
L 204.014853 307.584 
L 204.014853 307.584 
L 201.955733 307.584 
z
" style="fill:#fa9ba4;opacity:0.2;"/>
   </g>
   <g id="patch_59">
    <path clip-path="url(#p562e3524b6)" d="M 204.243644 307.584 
L 206.302764 307.584 
L 206.302764 307.584 
L 204.243644 307.584 
z
" style="fill:#fa9ba4;opacity:0.2;"/>
   </g>
   <g id="patch_60">
    <path clip-path="url(#p562e3524b6)" d="M 206.531555 307.584 
L 208.590675 307.584 
L 208.590675 118.235077 
L 206.531555 118.235077 
z
" style="fill:#fa9ba4;opacity:0.2;"/>
   </g>
   <g id="patch_61">
    <path clip-path="url(#p562e3524b6)" d="M 208.819466 307.584 
L 210.878585 307.584 
L 210.878585 307.584 
L 208.819466 307.584 
z
" style="fill:#fa9ba4;opacity:0.2;"/>
   </g>
   <g id="patch_62">
    <path clip-path="url(#p562e3524b6)" d="M 211.107377 307.584 
L 213.166496 307.584 
L 213.166496 41.472 
L 211.107377 41.472 
z
" style="fill:#fa9ba4;opacity:0.2;"/>
   </g>
   <g id="patch_63">
    <path clip-path="url(#p562e3524b6)" d="M 213.395287 307.584 
L 215.454407 307.584 
L 215.454407 271.761231 
L 213.395287 271.761231 
z
" style="fill:#fa9ba4;opacity:0.2;"/>
   </g>
   <g id="patch_64">
    <path clip-path="url(#p562e3524b6)" d="M 215.683198 307.584 
L 217.742318 307.584 
L 217.742318 307.584 
L 215.683198 307.584 
z
" style="fill:#fa9ba4;opacity:0.2;"/>
   </g>
   <g id="patch_65">
    <path clip-path="url(#p562e3524b6)" d="M 217.971109 307.584 
L 220.030229 307.584 
L 220.030229 307.584 
L 217.971109 307.584 
z
" style="fill:#fa9ba4;opacity:0.2;"/>
   </g>
   <g id="patch_66">
    <path clip-path="url(#p562e3524b6)" d="M 220.25902 307.584 
L 222.31814 307.584 
L 222.31814 297.348923 
L 220.25902 297.348923 
z
" style="fill:#fa9ba4;opacity:0.2;"/>
   </g>
   <g id="patch_67">
    <path clip-path="url(#p562e3524b6)" d="M 222.546931 307.584 
L 224.60605 307.584 
L 224.60605 302.466462 
L 222.546931 302.466462 
z
" style="fill:#fa9ba4;opacity:0.2;"/>
   </g>
   <g id="patch_68">
    <path clip-path="url(#p562e3524b6)" d="M 224.834841 307.584 
L 226.893961 307.584 
L 226.893961 307.584 
L 224.834841 307.584 
z
" style="fill:#fa9ba4;opacity:0.2;"/>
   </g>
   <g id="patch_69">
    <path clip-path="url(#p562e3524b6)" d="M 227.122752 307.584 
L 229.181872 307.584 
L 229.181872 307.584 
L 227.122752 307.584 
z
" style="fill:#fa9ba4;opacity:0.2;"/>
   </g>
   <g id="patch_70">
    <path clip-path="url(#p562e3524b6)" d="M 229.410663 307.584 
L 231.469783 307.584 
L 231.469783 307.584 
L 229.410663 307.584 
z
" style="fill:#fa9ba4;opacity:0.2;"/>
   </g>
   <g id="patch_71">
    <path clip-path="url(#p562e3524b6)" d="M 231.698574 307.584 
L 233.757694 307.584 
L 233.757694 241.056 
L 231.698574 241.056 
z
" style="fill:#fa9ba4;opacity:0.2;"/>
   </g>
   <g id="patch_72">
    <path clip-path="url(#p562e3524b6)" d="M 233.986485 307.584 
L 236.045604 307.584 
L 236.045604 297.348923 
L 233.986485 297.348923 
z
" style="fill:#fa9ba4;opacity:0.2;"/>
   </g>
   <g id="patch_73">
    <path clip-path="url(#p562e3524b6)" d="M 236.274396 307.584 
L 238.333515 307.584 
L 238.333515 307.584 
L 236.274396 307.584 
z
" style="fill:#fa9ba4;opacity:0.2;"/>
   </g>
   <g id="patch_74">
    <path clip-path="url(#p562e3524b6)" d="M 238.562306 307.584 
L 240.621426 307.584 
L 240.621426 302.466462 
L 238.562306 302.466462 
z
" style="fill:#fa9ba4;opacity:0.2;"/>
   </g>
   <g id="patch_75">
    <path clip-path="url(#p562e3524b6)" d="M 240.850217 307.584 
L 242.909337 307.584 
L 242.909337 307.584 
L 240.850217 307.584 
z
" style="fill:#fa9ba4;opacity:0.2;"/>
   </g>
   <g id="patch_76">
    <path clip-path="url(#p562e3524b6)" d="M 243.138128 307.584 
L 245.197248 307.584 
L 245.197248 281.996308 
L 243.138128 281.996308 
z
" style="fill:#fa9ba4;opacity:0.2;"/>
   </g>
   <g id="patch_77">
    <path clip-path="url(#p562e3524b6)" d="M 245.426039 307.584 
L 247.485159 307.584 
L 247.485159 307.584 
L 245.426039 307.584 
z
" style="fill:#fa9ba4;opacity:0.2;"/>
   </g>
   <g id="patch_78">
    <path clip-path="url(#p562e3524b6)" d="M 247.71395 307.584 
L 249.773069 307.584 
L 249.773069 292.231385 
L 247.71395 292.231385 
z
" style="fill:#fa9ba4;opacity:0.2;"/>
   </g>
   <g id="patch_79">
    <path clip-path="url(#p562e3524b6)" d="M 250.00186 307.584 
L 252.06098 307.584 
L 252.06098 287.113846 
L 250.00186 287.113846 
z
" style="fill:#fa9ba4;opacity:0.2;"/>
   </g>
   <g id="patch_80">
    <path clip-path="url(#p562e3524b6)" d="M 252.289771 307.584 
L 254.348891 307.584 
L 254.348891 287.113846 
L 252.289771 287.113846 
z
" style="fill:#fa9ba4;opacity:0.2;"/>
   </g>
   <g id="patch_81">
    <path clip-path="url(#p562e3524b6)" d="M 254.577682 307.584 
L 256.636802 307.584 
L 256.636802 292.231385 
L 254.577682 292.231385 
z
" style="fill:#fa9ba4;opacity:0.2;"/>
   </g>
   <g id="patch_82">
    <path clip-path="url(#p562e3524b6)" d="M 256.865593 307.584 
L 258.924713 307.584 
L 258.924713 297.348923 
L 256.865593 297.348923 
z
" style="fill:#fa9ba4;opacity:0.2;"/>
   </g>
   <g id="patch_83">
    <path clip-path="url(#p562e3524b6)" d="M 259.153504 307.584 
L 261.212623 307.584 
L 261.212623 297.348923 
L 259.153504 297.348923 
z
" style="fill:#fa9ba4;opacity:0.2;"/>
   </g>
   <g id="patch_84">
    <path clip-path="url(#p562e3524b6)" d="M 261.441415 307.584 
L 263.500534 307.584 
L 263.500534 281.996308 
L 261.441415 281.996308 
z
" style="fill:#fa9ba4;opacity:0.2;"/>
   </g>
   <g id="patch_85">
    <path clip-path="url(#p562e3524b6)" d="M 263.729325 307.584 
L 265.788445 307.584 
L 265.788445 297.348923 
L 263.729325 297.348923 
z
" style="fill:#fa9ba4;opacity:0.2;"/>
   </g>
   <g id="patch_86">
    <path clip-path="url(#p562e3524b6)" d="M 266.017236 307.584 
L 268.076356 307.584 
L 268.076356 307.584 
L 266.017236 307.584 
z
" style="fill:#fa9ba4;opacity:0.2;"/>
   </g>
   <g id="patch_87">
    <path clip-path="url(#p562e3524b6)" d="M 268.305147 307.584 
L 270.364267 307.584 
L 270.364267 292.231385 
L 268.305147 292.231385 
z
" style="fill:#fa9ba4;opacity:0.2;"/>
   </g>
   <g id="patch_88">
    <path clip-path="url(#p562e3524b6)" d="M 270.593058 307.584 
L 272.652178 307.584 
L 272.652178 307.584 
L 270.593058 307.584 
z
" style="fill:#fa9ba4;opacity:0.2;"/>
   </g>
   <g id="patch_89">
    <path clip-path="url(#p562e3524b6)" d="M 272.880969 307.584 
L 274.940088 307.584 
L 274.940088 281.996308 
L 272.880969 281.996308 
z
" style="fill:#fa9ba4;opacity:0.2;"/>
   </g>
   <g id="patch_90">
    <path clip-path="url(#p562e3524b6)" d="M 275.168879 307.584 
L 277.227999 307.584 
L 277.227999 302.466462 
L 275.168879 302.466462 
z
" style="fill:#fa9ba4;opacity:0.2;"/>
   </g>
   <g id="patch_91">
    <path clip-path="url(#p562e3524b6)" d="M 277.45679 307.584 
L 279.51591 307.584 
L 279.51591 307.584 
L 277.45679 307.584 
z
" style="fill:#fa9ba4;opacity:0.2;"/>
   </g>
   <g id="patch_92">
    <path clip-path="url(#p562e3524b6)" d="M 279.744701 307.584 
L 281.803821 307.584 
L 281.803821 256.408615 
L 279.744701 256.408615 
z
" style="fill:#fa9ba4;opacity:0.2;"/>
   </g>
   <g id="patch_93">
    <path clip-path="url(#p562e3524b6)" d="M 282.032612 307.584 
L 284.091732 307.584 
L 284.091732 307.584 
L 282.032612 307.584 
z
" style="fill:#fa9ba4;opacity:0.2;"/>
   </g>
   <g id="patch_94">
    <path clip-path="url(#p562e3524b6)" d="M 284.320523 307.584 
L 286.379643 307.584 
L 286.379643 261.526154 
L 284.320523 261.526154 
z
" style="fill:#fa9ba4;opacity:0.2;"/>
   </g>
   <g id="patch_95">
    <path clip-path="url(#p562e3524b6)" d="M 286.608434 307.584 
L 288.667553 307.584 
L 288.667553 307.584 
L 286.608434 307.584 
z
" style="fill:#fa9ba4;opacity:0.2;"/>
   </g>
   <g id="patch_96">
    <path clip-path="url(#p562e3524b6)" d="M 288.896344 307.584 
L 290.955464 307.584 
L 290.955464 307.584 
L 288.896344 307.584 
z
" style="fill:#fa9ba4;opacity:0.2;"/>
   </g>
   <g id="patch_97">
    <path clip-path="url(#p562e3524b6)" d="M 291.184255 307.584 
L 293.243375 307.584 
L 293.243375 297.348923 
L 291.184255 297.348923 
z
" style="fill:#fa9ba4;opacity:0.2;"/>
   </g>
   <g id="patch_98">
    <path clip-path="url(#p562e3524b6)" d="M 293.472166 307.584 
L 295.531286 307.584 
L 295.531286 307.584 
L 293.472166 307.584 
z
" style="fill:#fa9ba4;opacity:0.2;"/>
   </g>
   <g id="patch_99">
    <path clip-path="url(#p562e3524b6)" d="M 295.760077 307.584 
L 297.819197 307.584 
L 297.819197 307.584 
L 295.760077 307.584 
z
" style="fill:#fa9ba4;opacity:0.2;"/>
   </g>
   <g id="patch_100">
    <path clip-path="url(#p562e3524b6)" d="M 298.047988 307.584 
L 300.107107 307.584 
L 300.107107 307.584 
L 298.047988 307.584 
z
" style="fill:#fa9ba4;opacity:0.2;"/>
   </g>
   <g id="patch_101">
    <path clip-path="url(#p562e3524b6)" d="M 300.335899 307.584 
L 302.395018 307.584 
L 302.395018 292.231385 
L 300.335899 292.231385 
z
" style="fill:#fa9ba4;opacity:0.2;"/>
   </g>
   <g id="patch_102">
    <path clip-path="url(#p562e3524b6)" d="M 302.623809 307.584 
L 304.682929 307.584 
L 304.682929 307.584 
L 302.623809 307.584 
z
" style="fill:#fa9ba4;opacity:0.2;"/>
   </g>
   <g id="patch_103">
    <path clip-path="url(#p562e3524b6)" d="M 304.91172 307.584 
L 306.97084 307.584 
L 306.97084 281.996308 
L 304.91172 281.996308 
z
" style="fill:#fa9ba4;opacity:0.2;"/>
   </g>
   <g id="patch_104">
    <path clip-path="url(#p562e3524b6)" d="M 307.199631 307.584 
L 309.258751 307.584 
L 309.258751 302.466462 
L 307.199631 302.466462 
z
" style="fill:#fa9ba4;opacity:0.2;"/>
   </g>
   <g id="patch_105">
    <path clip-path="url(#p562e3524b6)" d="M 309.487542 307.584 
L 311.546662 307.584 
L 311.546662 307.584 
L 309.487542 307.584 
z
" style="fill:#fa9ba4;opacity:0.2;"/>
   </g>
   <g id="patch_106">
    <path clip-path="url(#p562e3524b6)" d="M 311.775453 307.584 
L 313.834572 307.584 
L 313.834572 307.584 
L 311.775453 307.584 
z
" style="fill:#fa9ba4;opacity:0.2;"/>
   </g>
   <g id="patch_107">
    <path clip-path="url(#p562e3524b6)" d="M 314.063363 307.584 
L 316.122483 307.584 
L 316.122483 307.584 
L 314.063363 307.584 
z
" style="fill:#fa9ba4;opacity:0.2;"/>
   </g>
   <g id="patch_108">
    <path clip-path="url(#p562e3524b6)" d="M 316.351274 307.584 
L 318.410394 307.584 
L 318.410394 297.348923 
L 316.351274 297.348923 
z
" style="fill:#fa9ba4;opacity:0.2;"/>
   </g>
   <g id="patch_109">
    <path clip-path="url(#p562e3524b6)" d="M 318.639185 307.584 
L 320.698305 307.584 
L 320.698305 307.584 
L 318.639185 307.584 
z
" style="fill:#fa9ba4;opacity:0.2;"/>
   </g>
   <g id="patch_110">
    <path clip-path="url(#p562e3524b6)" d="M 320.927096 307.584 
L 322.986216 307.584 
L 322.986216 297.348923 
L 320.927096 297.348923 
z
" style="fill:#fa9ba4;opacity:0.2;"/>
   </g>
   <g id="patch_111">
    <path clip-path="url(#p562e3524b6)" d="M 323.215007 307.584 
L 325.274126 307.584 
L 325.274126 302.466462 
L 323.215007 302.466462 
z
" style="fill:#fa9ba4;opacity:0.2;"/>
   </g>
   <g id="patch_112">
    <path clip-path="url(#p562e3524b6)" d="M 325.502918 307.584 
L 327.562037 307.584 
L 327.562037 307.584 
L 325.502918 307.584 
z
" style="fill:#fa9ba4;opacity:0.2;"/>
   </g>
   <g id="patch_113">
    <path clip-path="url(#p562e3524b6)" d="M 327.790828 307.584 
L 329.849948 307.584 
L 329.849948 302.466462 
L 327.790828 302.466462 
z
" style="fill:#fa9ba4;opacity:0.2;"/>
   </g>
   <g id="patch_114">
    <path clip-path="url(#p562e3524b6)" d="M 330.078739 307.584 
L 332.137859 307.584 
L 332.137859 302.466462 
L 330.078739 302.466462 
z
" style="fill:#fa9ba4;opacity:0.2;"/>
   </g>
   <g id="patch_115">
    <path clip-path="url(#p562e3524b6)" d="M 332.36665 307.584 
L 334.42577 307.584 
L 334.42577 307.584 
L 332.36665 307.584 
z
" style="fill:#fa9ba4;opacity:0.2;"/>
   </g>
   <g id="patch_116">
    <path clip-path="url(#p562e3524b6)" d="M 334.654561 307.584 
L 336.713681 307.584 
L 336.713681 307.584 
L 334.654561 307.584 
z
" style="fill:#fa9ba4;opacity:0.2;"/>
   </g>
   <g id="patch_117">
    <path clip-path="url(#p562e3524b6)" d="M 336.942472 307.584 
L 339.001591 307.584 
L 339.001591 307.584 
L 336.942472 307.584 
z
" style="fill:#fa9ba4;opacity:0.2;"/>
   </g>
   <g id="patch_118">
    <path clip-path="url(#p562e3524b6)" d="M 339.230382 307.584 
L 341.289502 307.584 
L 341.289502 302.466462 
L 339.230382 302.466462 
z
" style="fill:#fa9ba4;opacity:0.2;"/>
   </g>
   <g id="patch_119">
    <path clip-path="url(#p562e3524b6)" d="M 341.518293 307.584 
L 343.577413 307.584 
L 343.577413 302.466462 
L 341.518293 302.466462 
z
" style="fill:#fa9ba4;opacity:0.2;"/>
   </g>
   <g id="patch_120">
    <path clip-path="url(#p562e3524b6)" d="M 343.806204 307.584 
L 345.865324 307.584 
L 345.865324 297.348923 
L 343.806204 297.348923 
z
" style="fill:#fa9ba4;opacity:0.2;"/>
   </g>
   <g id="patch_121">
    <path clip-path="url(#p562e3524b6)" d="M 346.094115 307.584 
L 348.153235 307.584 
L 348.153235 297.348923 
L 346.094115 297.348923 
z
" style="fill:#fa9ba4;opacity:0.2;"/>
   </g>
   <g id="patch_122">
    <path clip-path="url(#p562e3524b6)" d="M 348.382026 307.584 
L 350.441145 307.584 
L 350.441145 302.466462 
L 348.382026 302.466462 
z
" style="fill:#fa9ba4;opacity:0.2;"/>
   </g>
   <g id="patch_123">
    <path clip-path="url(#p562e3524b6)" d="M 350.669937 307.584 
L 352.729056 307.584 
L 352.729056 281.996308 
L 350.669937 281.996308 
z
" style="fill:#fa9ba4;opacity:0.2;"/>
   </g>
   <g id="patch_124">
    <path clip-path="url(#p562e3524b6)" d="M 352.957847 307.584 
L 355.016967 307.584 
L 355.016967 281.996308 
L 352.957847 281.996308 
z
" style="fill:#fa9ba4;opacity:0.2;"/>
   </g>
   <g id="patch_125">
    <path clip-path="url(#p562e3524b6)" d="M 355.245758 307.584 
L 357.304878 307.584 
L 357.304878 302.466462 
L 355.245758 302.466462 
z
" style="fill:#fa9ba4;opacity:0.2;"/>
   </g>
   <g id="patch_126">
    <path clip-path="url(#p562e3524b6)" d="M 357.533669 307.584 
L 359.592789 307.584 
L 359.592789 241.056 
L 357.533669 241.056 
z
" style="fill:#fa9ba4;opacity:0.2;"/>
   </g>
   <g id="patch_127">
    <path clip-path="url(#p562e3524b6)" d="M 359.82158 307.584 
L 361.8807 307.584 
L 361.8807 287.113846 
L 359.82158 287.113846 
z
" style="fill:#fa9ba4;opacity:0.2;"/>
   </g>
   <g id="patch_128">
    <path clip-path="url(#p562e3524b6)" d="M 362.109491 307.584 
L 364.16861 307.584 
L 364.16861 287.113846 
L 362.109491 287.113846 
z
" style="fill:#fa9ba4;opacity:0.2;"/>
   </g>
   <g id="patch_129">
    <path clip-path="url(#p562e3524b6)" d="M 364.397401 307.584 
L 366.456521 307.584 
L 366.456521 266.643692 
L 364.397401 266.643692 
z
" style="fill:#fa9ba4;opacity:0.2;"/>
   </g>
   <g id="patch_130">
    <path clip-path="url(#p562e3524b6)" d="M 366.685312 307.584 
L 368.744432 307.584 
L 368.744432 292.231385 
L 366.685312 292.231385 
z
" style="fill:#fa9ba4;opacity:0.2;"/>
   </g>
   <g id="patch_131">
    <path clip-path="url(#p562e3524b6)" d="M 368.973223 307.584 
L 371.032343 307.584 
L 371.032343 281.996308 
L 368.973223 281.996308 
z
" style="fill:#fa9ba4;opacity:0.2;"/>
   </g>
   <g id="patch_132">
    <path clip-path="url(#p562e3524b6)" d="M 371.261134 307.584 
L 373.320254 307.584 
L 373.320254 307.584 
L 371.261134 307.584 
z
" style="fill:#fa9ba4;opacity:0.2;"/>
   </g>
   <g id="patch_133">
    <path clip-path="url(#p562e3524b6)" d="M 373.549045 307.584 
L 375.608165 307.584 
L 375.608165 297.348923 
L 373.549045 297.348923 
z
" style="fill:#fa9ba4;opacity:0.2;"/>
   </g>
   <g id="patch_134">
    <path clip-path="url(#p562e3524b6)" d="M 375.836956 307.584 
L 377.896075 307.584 
L 377.896075 297.348923 
L 375.836956 297.348923 
z
" style="fill:#fa9ba4;opacity:0.2;"/>
   </g>
   <g id="patch_135">
    <path clip-path="url(#p562e3524b6)" d="M 378.124866 307.584 
L 380.183986 307.584 
L 380.183986 307.584 
L 378.124866 307.584 
z
" style="fill:#fa9ba4;opacity:0.2;"/>
   </g>
   <g id="patch_136">
    <path clip-path="url(#p562e3524b6)" d="M 380.412777 307.584 
L 382.471897 307.584 
L 382.471897 297.348923 
L 380.412777 297.348923 
z
" style="fill:#fa9ba4;opacity:0.2;"/>
   </g>
   <g id="patch_137">
    <path clip-path="url(#p562e3524b6)" d="M 382.700688 307.584 
L 384.759808 307.584 
L 384.759808 292.231385 
L 382.700688 292.231385 
z
" style="fill:#fa9ba4;opacity:0.2;"/>
   </g>
   <g id="patch_138">
    <path clip-path="url(#p562e3524b6)" d="M 384.988599 307.584 
L 387.047719 307.584 
L 387.047719 302.466462 
L 384.988599 302.466462 
z
" style="fill:#fa9ba4;opacity:0.2;"/>
   </g>
   <g id="patch_139">
    <path clip-path="url(#p562e3524b6)" d="M 387.27651 307.584 
L 389.335629 307.584 
L 389.335629 302.466462 
L 387.27651 302.466462 
z
" style="fill:#fa9ba4;opacity:0.2;"/>
   </g>
   <g id="patch_140">
    <path clip-path="url(#p562e3524b6)" d="M 389.564421 307.584 
L 391.62354 307.584 
L 391.62354 276.878769 
L 389.564421 276.878769 
z
" style="fill:#fa9ba4;opacity:0.2;"/>
   </g>
   <g id="patch_141">
    <path clip-path="url(#p562e3524b6)" d="M 391.852331 307.584 
L 393.911451 307.584 
L 393.911451 271.761231 
L 391.852331 271.761231 
z
" style="fill:#fa9ba4;opacity:0.2;"/>
   </g>
   <g id="patch_142">
    <path clip-path="url(#p562e3524b6)" d="M 394.140242 307.584 
L 396.199362 307.584 
L 396.199362 307.584 
L 394.140242 307.584 
z
" style="fill:#fa9ba4;opacity:0.2;"/>
   </g>
   <g id="patch_143">
    <path clip-path="url(#p562e3524b6)" d="M 396.428153 307.584 
L 398.487273 307.584 
L 398.487273 307.584 
L 396.428153 307.584 
z
" style="fill:#fa9ba4;opacity:0.2;"/>
   </g>
   <g id="matplotlib.axis_1"/>
   <g id="matplotlib.axis_2"/>
   <g id="PolyCollection_1">
    <defs>
     <path d="M 367.714872 -65.796923 
L 367.714872 -38.016 
L 370.002783 -38.016 
L 372.290694 -38.016 
L 374.578605 -38.016 
L 376.866515 -38.016 
L 379.154426 -38.016 
L 381.442337 -38.016 
L 383.730248 -38.016 
L 386.018159 -38.016 
L 388.30607 -38.016 
L 390.59398 -38.016 
L 392.881891 -38.016 
L 395.169802 -38.016 
L 397.457713 -38.016 
L 397.457713 -51.175385 
L 397.457713 -51.175385 
L 395.169802 -52.637538 
L 392.881891 -52.637538 
L 390.59398 -48.982154 
L 388.30607 -46.057846 
L 386.018159 -45.326769 
L 383.730248 -48.251077 
L 381.442337 -48.251077 
L 379.154426 -52.637538 
L 376.866515 -55.561846 
L 374.578605 -57.024 
L 372.290694 -65.065846 
L 370.002783 -65.796923 
L 367.714872 -65.796923 
z
" id="mef0d9b65ba" style="stroke:#dc3545;stroke-opacity:0.5;"/>
    </defs>
    <g clip-path="url(#p562e3524b6)">
     <use style="fill:#dc3545;fill-opacity:0.5;stroke:#dc3545;stroke-opacity:0.5;" x="0" xlink:href="#mef0d9b65ba" y="345.6"/>
    </g>
   </g>
   <g id="PolyCollection_2">
    <defs>
     <path d="M 88.589752 -38.747077 
L 88.589752 -38.016 
L 90.877663 -38.016 
L 93.165574 -38.016 
L 95.453485 -38.016 
L 97.741395 -38.016 
L 100.029306 -38.016 
L 102.317217 -38.016 
L 104.605128 -38.016 
L 106.893039 -38.016 
L 109.180949 -38.016 
L 111.46886 -38.016 
L 113.756771 -38.016 
L 116.044682 -38.016 
L 118.332593 -38.016 
L 120.620504 -38.016 
L 122.908414 -38.016 
L 125.196325 -38.016 
L 127.484236 -38.016 
L 129.772147 -38.016 
L 132.060058 -38.016 
L 134.347968 -38.016 
L 136.635879 -38.016 
L 138.92379 -38.016 
L 141.211701 -38.016 
L 143.499612 -38.016 
L 145.787523 -38.016 
L 148.075433 -38.016 
L 150.363344 -38.016 
L 152.651255 -38.016 
L 154.939166 -38.016 
L 157.227077 -38.016 
L 159.514988 -38.016 
L 161.802898 -38.016 
L 164.090809 -38.016 
L 166.37872 -38.016 
L 168.666631 -38.016 
L 170.954542 -38.016 
L 173.242452 -38.016 
L 175.530363 -38.016 
L 177.818274 -38.016 
L 180.106185 -38.016 
L 182.394096 -38.016 
L 184.682007 -38.016 
L 186.969917 -38.016 
L 189.257828 -38.016 
L 191.545739 -38.016 
L 193.83365 -38.016 
L 196.121561 -38.016 
L 198.409471 -38.016 
L 200.697382 -38.016 
L 202.985293 -38.016 
L 205.273204 -38.016 
L 207.561115 -38.016 
L 209.849026 -38.016 
L 212.136936 -38.016 
L 214.424847 -38.016 
L 216.712758 -38.016 
L 219.000669 -38.016 
L 221.28858 -38.016 
L 223.57649 -38.016 
L 225.864401 -38.016 
L 228.152312 -38.016 
L 230.440223 -38.016 
L 232.728134 -38.016 
L 235.016045 -38.016 
L 237.303955 -38.016 
L 239.591866 -38.016 
L 241.879777 -38.016 
L 244.167688 -38.016 
L 246.455599 -38.016 
L 248.74351 -38.016 
L 251.03142 -38.016 
L 253.319331 -38.016 
L 255.607242 -38.016 
L 257.895153 -38.016 
L 260.183064 -38.016 
L 262.470974 -38.016 
L 264.758885 -38.016 
L 267.046796 -38.016 
L 269.334707 -38.016 
L 271.622618 -38.016 
L 273.910529 -38.016 
L 276.198439 -38.016 
L 278.48635 -38.016 
L 280.774261 -38.016 
L 283.062172 -38.016 
L 285.350083 -38.016 
L 287.637993 -38.016 
L 289.925904 -38.016 
L 292.213815 -38.016 
L 294.501726 -38.016 
L 296.789637 -38.016 
L 299.077548 -38.016 
L 301.365458 -38.016 
L 303.653369 -38.016 
L 305.94128 -38.016 
L 308.229191 -38.016 
L 310.517102 -38.016 
L 312.805012 -38.016 
L 315.092923 -38.016 
L 317.380834 -38.016 
L 319.668745 -38.016 
L 321.956656 -38.016 
L 324.244567 -38.016 
L 326.532477 -38.016 
L 328.820388 -38.016 
L 331.108299 -38.016 
L 333.39621 -38.016 
L 335.684121 -38.016 
L 337.972032 -38.016 
L 340.259942 -38.016 
L 342.547853 -38.016 
L 344.835764 -38.016 
L 347.123675 -38.016 
L 349.411586 -38.016 
L 351.699496 -38.016 
L 353.987407 -38.016 
L 356.275318 -38.016 
L 358.563229 -38.016 
L 360.85114 -38.016 
L 363.139051 -38.016 
L 365.426961 -38.016 
L 367.714872 -38.016 
L 367.714872 -65.796923 
L 367.714872 -65.796923 
L 365.426961 -67.259077 
L 363.139051 -62.141538 
L 360.85114 -60.679385 
L 358.563229 -59.217231 
L 356.275318 -50.444308 
L 353.987407 -50.444308 
L 351.699496 -46.788923 
L 349.411586 -43.133538 
L 347.123675 -42.402462 
L 344.835764 -41.671385 
L 342.547853 -40.940308 
L 340.259942 -40.209231 
L 337.972032 -40.209231 
L 335.684121 -41.671385 
L 333.39621 -41.671385 
L 331.108299 -43.133538 
L 328.820388 -42.402462 
L 326.532477 -41.671385 
L 324.244567 -41.671385 
L 321.956656 -41.671385 
L 319.668745 -43.864615 
L 317.380834 -43.864615 
L 315.092923 -44.595692 
L 312.805012 -44.595692 
L 310.517102 -44.595692 
L 308.229191 -44.595692 
L 305.94128 -45.326769 
L 303.653369 -41.671385 
L 301.365458 -41.671385 
L 299.077548 -46.057846 
L 296.789637 -46.057846 
L 294.501726 -53.368615 
L 292.213815 -53.368615 
L 289.925904 -52.637538 
L 287.637993 -56.292923 
L 285.350083 -56.292923 
L 283.062172 -51.906462 
L 280.774261 -51.906462 
L 278.48635 -46.057846 
L 276.198439 -49.713231 
L 273.910529 -50.444308 
L 271.622618 -48.251077 
L 269.334707 -50.444308 
L 267.046796 -51.175385 
L 264.758885 -54.099692 
L 262.470974 -54.830769 
L 260.183064 -51.175385 
L 257.895153 -53.368615 
L 255.607242 -51.906462 
L 253.319331 -50.444308 
L 251.03142 -47.52 
L 248.74351 -46.057846 
L 246.455599 -53.368615 
L 244.167688 -53.368615 
L 241.879777 -49.713231 
L 239.591866 -49.713231 
L 237.303955 -49.713231 
L 235.016045 -51.175385 
L 232.728134 -49.713231 
L 230.440223 -40.209231 
L 228.152312 -45.326769 
L 225.864401 -83.342769 
L 223.57649 -83.342769 
L 221.28858 -109.661538 
L 219.000669 -108.199385 
L 216.712758 -108.199385 
L 214.424847 -108.199385 
L 212.136936 -108.930462 
L 209.849026 -72.376615 
L 207.561115 -75.300923 
L 205.273204 -51.906462 
L 202.985293 -52.637538 
L 200.697382 -52.637538 
L 198.409471 -52.637538 
L 196.121561 -46.788923 
L 193.83365 -46.057846 
L 191.545739 -43.864615 
L 189.257828 -40.209231 
L 186.969917 -39.478154 
L 184.682007 -41.671385 
L 182.394096 -41.671385 
L 180.106185 -41.671385 
L 177.818274 -40.940308 
L 175.530363 -43.864615 
L 173.242452 -45.326769 
L 170.954542 -46.057846 
L 168.666631 -43.864615 
L 166.37872 -43.864615 
L 164.090809 -44.595692 
L 161.802898 -44.595692 
L 159.514988 -50.444308 
L 157.227077 -48.982154 
L 154.939166 -63.603692 
L 152.651255 -63.603692 
L 150.363344 -73.838769 
L 148.075433 -85.536 
L 145.787523 -89.922462 
L 143.499612 -80.418462 
L 141.211701 -81.149538 
L 138.92379 -65.796923 
L 136.635879 -65.796923 
L 134.347968 -55.561846 
L 132.060058 -43.133538 
L 129.772147 -39.478154 
L 127.484236 -39.478154 
L 125.196325 -42.402462 
L 122.908414 -43.133538 
L 120.620504 -43.133538 
L 118.332593 -43.133538 
L 116.044682 -45.326769 
L 113.756771 -44.595692 
L 111.46886 -44.595692 
L 109.180949 -41.671385 
L 106.893039 -42.402462 
L 104.605128 -42.402462 
L 102.317217 -43.133538 
L 100.029306 -40.940308 
L 97.741395 -40.940308 
L 95.453485 -40.940308 
L 93.165574 -40.209231 
L 90.877663 -38.747077 
L 88.589752 -38.747077 
z
" id="mb1c88e9559" style="stroke:#fa9ba4;stroke-opacity:0.3;"/>
    </defs>
    <g clip-path="url(#p562e3524b6)">
     <use style="fill:#fa9ba4;fill-opacity:0.3;stroke:#fa9ba4;stroke-opacity:0.3;" x="0" xlink:href="#mb1c88e9559" y="345.6"/>
    </g>
   </g>
   <g id="line2d_1">
    <path clip-path="url(#p562e3524b6)" d="M 88.589752 306.852923 
L 90.877663 306.852923 
L 93.165574 305.390769 
L 95.453485 304.659692 
L 100.029306 304.659692 
L 102.317217 302.466462 
L 104.605128 303.197538 
L 106.893039 303.197538 
L 109.180949 303.928615 
L 111.46886 301.004308 
L 113.756771 301.004308 
L 116.044682 300.273231 
L 118.332593 302.466462 
L 122.908414 302.466462 
L 125.196325 303.197538 
L 127.484236 306.121846 
L 129.772147 306.121846 
L 132.060058 302.466462 
L 134.347968 290.038154 
L 136.635879 279.803077 
L 138.92379 279.803077 
L 141.211701 264.450462 
L 143.499612 265.181538 
L 145.787523 255.677538 
L 148.075433 260.064 
L 150.363344 271.761231 
L 152.651255 281.996308 
L 154.939166 281.996308 
L 157.227077 296.617846 
L 159.514988 295.155692 
L 161.802898 301.004308 
L 164.090809 301.004308 
L 166.37872 301.735385 
L 168.666631 301.735385 
L 170.954542 299.542154 
L 173.242452 300.273231 
L 175.530363 301.735385 
L 177.818274 304.659692 
L 180.106185 303.928615 
L 184.682007 303.928615 
L 186.969917 306.121846 
L 189.257828 305.390769 
L 191.545739 301.735385 
L 193.83365 299.542154 
L 196.121561 298.811077 
L 198.409471 292.962462 
L 202.985293 292.962462 
L 205.273204 293.693538 
L 207.561115 270.299077 
L 209.849026 273.223385 
L 212.136936 236.669538 
L 214.424847 237.400615 
L 219.000669 237.400615 
L 221.28858 235.938462 
L 223.57649 262.257231 
L 225.864401 262.257231 
L 228.152312 300.273231 
L 230.440223 305.390769 
L 232.728134 295.886769 
L 235.016045 294.424615 
L 237.303955 295.886769 
L 241.879777 295.886769 
L 244.167688 292.231385 
L 246.455599 292.231385 
L 248.74351 299.542154 
L 251.03142 298.08 
L 253.319331 295.155692 
L 257.895153 292.231385 
L 260.183064 294.424615 
L 262.470974 290.769231 
L 264.758885 291.500308 
L 267.046796 294.424615 
L 269.334707 295.155692 
L 271.622618 297.348923 
L 273.910529 295.155692 
L 276.198439 295.886769 
L 278.48635 299.542154 
L 280.774261 293.693538 
L 283.062172 293.693538 
L 285.350083 289.307077 
L 287.637993 289.307077 
L 289.925904 292.962462 
L 292.213815 292.231385 
L 294.501726 292.231385 
L 296.789637 299.542154 
L 299.077548 299.542154 
L 301.365458 303.928615 
L 303.653369 303.928615 
L 305.94128 300.273231 
L 308.229191 301.004308 
L 315.092923 301.004308 
L 317.380834 301.735385 
L 319.668745 301.735385 
L 321.956656 303.928615 
L 326.532477 303.928615 
L 331.108299 302.466462 
L 333.39621 303.928615 
L 335.684121 303.928615 
L 337.972032 305.390769 
L 340.259942 305.390769 
L 349.411586 302.466462 
L 353.987407 295.155692 
L 356.275318 295.155692 
L 358.563229 286.382769 
L 363.139051 283.458462 
L 365.426961 278.340923 
L 367.714872 279.803077 
L 370.002783 279.803077 
L 372.290694 280.534154 
L 374.578605 288.576 
L 376.866515 290.038154 
L 379.154426 292.962462 
L 381.442337 297.348923 
L 383.730248 297.348923 
L 386.018159 300.273231 
L 388.30607 299.542154 
L 390.59398 296.617846 
L 392.881891 292.962462 
L 395.169802 292.962462 
L 397.457713 294.424615 
L 397.457713 294.424615 
" style="fill:none;stroke:#fa9ba4;stroke-linecap:square;stroke-width:2;"/>
   </g>
   <g id="line2d_2">
    <path clip-path="url(#p562e3524b6)" d="M 367.714872 279.803077 
L 370.002783 279.803077 
L 372.290694 280.534154 
L 374.578605 288.576 
L 376.866515 290.038154 
L 379.154426 292.962462 
L 381.442337 297.348923 
L 383.730248 297.348923 
L 386.018159 300.273231 
L 388.30607 299.542154 
L 390.59398 296.617846 
L 392.881891 292.962462 
L 395.169802 292.962462 
L 397.457713 294.424615 
" style="fill:none;stroke:#dc3545;stroke-linecap:square;stroke-width:2;"/>
   </g>
  </g>
 </g>
 <defs>
  <clipPath id="p562e3524b6">
   <rect height="266.112" width="357.12" x="57.6" y="41.472"/>
  </clipPath>
 </defs>
</svg>
