<?xml version="1.0" encoding="utf-8" standalone="no"?>
<!DOCTYPE svg PUBLIC "-//W3C//DTD SVG 1.1//EN"
  "http://www.w3.org/Graphics/SVG/1.1/DTD/svg11.dtd">
<svg height="345.6pt" version="1.1" viewBox="0 0 460.8 345.6" width="460.8pt" xmlns="http://www.w3.org/2000/svg" xmlns:xlink="http://www.w3.org/1999/xlink">
 <metadata>
  <rdf:RDF xmlns:cc="http://creativecommons.org/ns#" xmlns:dc="http://purl.org/dc/elements/1.1/" xmlns:rdf="http://www.w3.org/1999/02/22-rdf-syntax-ns#">
   <cc:Work>
    <dc:type rdf:resource="http://purl.org/dc/dcmitype/StillImage"/>
    <dc:date>2021-04-30T09:06:02.702896</dc:date>
    <dc:format>image/svg+xml</dc:format>
    <dc:creator>
     <cc:Agent>
      <dc:title>Matplotlib v3.4.1, https://matplotlib.org/</dc:title>
     </cc:Agent>
    </dc:creator>
   </cc:Work>
  </rdf:RDF>
 </metadata>
 <defs>
  <style type="text/css">*{stroke-linecap:butt;stroke-linejoin:round;}</style>
 </defs>
 <g id="figure_1">
  <g id="patch_1">
   <path d="M 0 345.6 
L 460.8 345.6 
L 460.8 0 
L 0 0 
z
" style="fill:none;"/>
  </g>
  <g id="axes_1">
   <g id="patch_2">
    <path clip-path="url(#pef3dbc49e7)" d="M 73.832727 307.584 
L 75.982757 307.584 
L 75.982757 307.584 
L 73.832727 307.584 
z
" style="fill:#fa9ba4;opacity:0.2;"/>
   </g>
   <g id="patch_3">
    <path clip-path="url(#pef3dbc49e7)" d="M 76.22165 307.584 
L 78.37168 307.584 
L 78.37168 307.584 
L 76.22165 307.584 
z
" style="fill:#fa9ba4;opacity:0.2;"/>
   </g>
   <g id="patch_4">
    <path clip-path="url(#pef3dbc49e7)" d="M 78.610572 307.584 
L 80.760602 307.584 
L 80.760602 307.584 
L 78.610572 307.584 
z
" style="fill:#fa9ba4;opacity:0.2;"/>
   </g>
   <g id="patch_5">
    <path clip-path="url(#pef3dbc49e7)" d="M 80.999494 307.584 
L 83.149524 307.584 
L 83.149524 307.584 
L 80.999494 307.584 
z
" style="fill:#fa9ba4;opacity:0.2;"/>
   </g>
   <g id="patch_6">
    <path clip-path="url(#pef3dbc49e7)" d="M 83.388417 307.584 
L 85.538447 307.584 
L 85.538447 307.584 
L 83.388417 307.584 
z
" style="fill:#fa9ba4;opacity:0.2;"/>
   </g>
   <g id="patch_7">
    <path clip-path="url(#pef3dbc49e7)" d="M 85.777339 307.584 
L 87.927369 307.584 
L 87.927369 307.584 
L 85.777339 307.584 
z
" style="fill:#fa9ba4;opacity:0.2;"/>
   </g>
   <g id="patch_8">
    <path clip-path="url(#pef3dbc49e7)" d="M 88.166261 307.584 
L 90.316291 307.584 
L 90.316291 302.466462 
L 88.166261 302.466462 
z
" style="fill:#fa9ba4;opacity:0.2;"/>
   </g>
   <g id="patch_9">
    <path clip-path="url(#pef3dbc49e7)" d="M 90.555184 307.584 
L 92.705214 307.584 
L 92.705214 307.584 
L 90.555184 307.584 
z
" style="fill:#fa9ba4;opacity:0.2;"/>
   </g>
   <g id="patch_10">
    <path clip-path="url(#pef3dbc49e7)" d="M 92.944106 307.584 
L 95.094136 307.584 
L 95.094136 297.348923 
L 92.944106 297.348923 
z
" style="fill:#fa9ba4;opacity:0.2;"/>
   </g>
   <g id="patch_11">
    <path clip-path="url(#pef3dbc49e7)" d="M 95.333028 307.584 
L 97.483058 307.584 
L 97.483058 302.466462 
L 95.333028 302.466462 
z
" style="fill:#fa9ba4;opacity:0.2;"/>
   </g>
   <g id="patch_12">
    <path clip-path="url(#pef3dbc49e7)" d="M 97.721951 307.584 
L 99.871981 307.584 
L 99.871981 307.584 
L 97.721951 307.584 
z
" style="fill:#fa9ba4;opacity:0.2;"/>
   </g>
   <g id="patch_13">
    <path clip-path="url(#pef3dbc49e7)" d="M 100.110873 307.584 
L 102.260903 307.584 
L 102.260903 307.584 
L 100.110873 307.584 
z
" style="fill:#fa9ba4;opacity:0.2;"/>
   </g>
   <g id="patch_14">
    <path clip-path="url(#pef3dbc49e7)" d="M 102.499795 307.584 
L 104.649825 307.584 
L 104.649825 292.231385 
L 102.499795 292.231385 
z
" style="fill:#fa9ba4;opacity:0.2;"/>
   </g>
   <g id="patch_15">
    <path clip-path="url(#pef3dbc49e7)" d="M 104.888718 307.584 
L 107.038748 307.584 
L 107.038748 307.584 
L 104.888718 307.584 
z
" style="fill:#fa9ba4;opacity:0.2;"/>
   </g>
   <g id="patch_16">
    <path clip-path="url(#pef3dbc49e7)" d="M 107.27764 307.584 
L 109.42767 307.584 
L 109.42767 307.584 
L 107.27764 307.584 
z
" style="fill:#fa9ba4;opacity:0.2;"/>
   </g>
   <g id="patch_17">
    <path clip-path="url(#pef3dbc49e7)" d="M 109.666562 307.584 
L 111.816592 307.584 
L 111.816592 302.466462 
L 109.666562 302.466462 
z
" style="fill:#fa9ba4;opacity:0.2;"/>
   </g>
   <g id="patch_18">
    <path clip-path="url(#pef3dbc49e7)" d="M 112.055485 307.584 
L 114.205515 307.584 
L 114.205515 281.996308 
L 112.055485 281.996308 
z
" style="fill:#fa9ba4;opacity:0.2;"/>
   </g>
   <g id="patch_19">
    <path clip-path="url(#pef3dbc49e7)" d="M 114.444407 307.584 
L 116.594437 307.584 
L 116.594437 307.584 
L 114.444407 307.584 
z
" style="fill:#fa9ba4;opacity:0.2;"/>
   </g>
   <g id="patch_20">
    <path clip-path="url(#pef3dbc49e7)" d="M 116.833329 307.584 
L 118.983359 307.584 
L 118.983359 302.466462 
L 116.833329 302.466462 
z
" style="fill:#fa9ba4;opacity:0.2;"/>
   </g>
   <g id="patch_21">
    <path clip-path="url(#pef3dbc49e7)" d="M 119.222252 307.584 
L 121.372282 307.584 
L 121.372282 307.584 
L 119.222252 307.584 
z
" style="fill:#fa9ba4;opacity:0.2;"/>
   </g>
   <g id="patch_22">
    <path clip-path="url(#pef3dbc49e7)" d="M 121.611174 307.584 
L 123.761204 307.584 
L 123.761204 307.584 
L 121.611174 307.584 
z
" style="fill:#fa9ba4;opacity:0.2;"/>
   </g>
   <g id="patch_23">
    <path clip-path="url(#pef3dbc49e7)" d="M 124.000096 307.584 
L 126.150126 307.584 
L 126.150126 307.584 
L 124.000096 307.584 
z
" style="fill:#fa9ba4;opacity:0.2;"/>
   </g>
   <g id="patch_24">
    <path clip-path="url(#pef3dbc49e7)" d="M 126.389019 307.584 
L 128.539049 307.584 
L 128.539049 307.584 
L 126.389019 307.584 
z
" style="fill:#fa9ba4;opacity:0.2;"/>
   </g>
   <g id="patch_25">
    <path clip-path="url(#pef3dbc49e7)" d="M 128.777941 307.584 
L 130.927971 307.584 
L 130.927971 302.466462 
L 128.777941 302.466462 
z
" style="fill:#fa9ba4;opacity:0.2;"/>
   </g>
   <g id="patch_26">
    <path clip-path="url(#pef3dbc49e7)" d="M 131.166863 307.584 
L 133.316893 307.584 
L 133.316893 307.584 
L 131.166863 307.584 
z
" style="fill:#fa9ba4;opacity:0.2;"/>
   </g>
   <g id="patch_27">
    <path clip-path="url(#pef3dbc49e7)" d="M 133.555786 307.584 
L 135.705816 307.584 
L 135.705816 276.878769 
L 133.555786 276.878769 
z
" style="fill:#fa9ba4;opacity:0.2;"/>
   </g>
   <g id="patch_28">
    <path clip-path="url(#pef3dbc49e7)" d="M 135.944708 307.584 
L 138.094738 307.584 
L 138.094738 220.585846 
L 135.944708 220.585846 
z
" style="fill:#fa9ba4;opacity:0.2;"/>
   </g>
   <g id="patch_29">
    <path clip-path="url(#pef3dbc49e7)" d="M 138.33363 307.584 
L 140.48366 307.584 
L 140.48366 235.938462 
L 138.33363 235.938462 
z
" style="fill:#fa9ba4;opacity:0.2;"/>
   </g>
   <g id="patch_30">
    <path clip-path="url(#pef3dbc49e7)" d="M 140.722553 307.584 
L 142.872583 307.584 
L 142.872583 307.584 
L 140.722553 307.584 
z
" style="fill:#fa9ba4;opacity:0.2;"/>
   </g>
   <g id="patch_31">
    <path clip-path="url(#pef3dbc49e7)" d="M 143.111475 307.584 
L 145.261505 307.584 
L 145.261505 200.115692 
L 143.111475 200.115692 
z
" style="fill:#fa9ba4;opacity:0.2;"/>
   </g>
   <g id="patch_32">
    <path clip-path="url(#pef3dbc49e7)" d="M 145.500397 307.584 
L 147.650427 307.584 
L 147.650427 307.584 
L 145.500397 307.584 
z
" style="fill:#fa9ba4;opacity:0.2;"/>
   </g>
   <g id="patch_33">
    <path clip-path="url(#pef3dbc49e7)" d="M 147.88932 307.584 
L 150.03935 307.584 
L 150.03935 241.056 
L 147.88932 241.056 
z
" style="fill:#fa9ba4;opacity:0.2;"/>
   </g>
   <g id="patch_34">
    <path clip-path="url(#pef3dbc49e7)" d="M 150.278242 307.584 
L 152.428272 307.584 
L 152.428272 307.584 
L 150.278242 307.584 
z
" style="fill:#fa9ba4;opacity:0.2;"/>
   </g>
   <g id="patch_35">
    <path clip-path="url(#pef3dbc49e7)" d="M 152.667164 307.584 
L 154.817194 307.584 
L 154.817194 302.466462 
L 152.667164 302.466462 
z
" style="fill:#fa9ba4;opacity:0.2;"/>
   </g>
   <g id="patch_36">
    <path clip-path="url(#pef3dbc49e7)" d="M 155.056087 307.584 
L 157.206117 307.584 
L 157.206117 307.584 
L 155.056087 307.584 
z
" style="fill:#fa9ba4;opacity:0.2;"/>
   </g>
   <g id="patch_37">
    <path clip-path="url(#pef3dbc49e7)" d="M 157.445009 307.584 
L 159.595039 307.584 
L 159.595039 307.584 
L 157.445009 307.584 
z
" style="fill:#fa9ba4;opacity:0.2;"/>
   </g>
   <g id="patch_38">
    <path clip-path="url(#pef3dbc49e7)" d="M 159.833931 307.584 
L 161.983961 307.584 
L 161.983961 302.466462 
L 159.833931 302.466462 
z
" style="fill:#fa9ba4;opacity:0.2;"/>
   </g>
   <g id="patch_39">
    <path clip-path="url(#pef3dbc49e7)" d="M 162.222854 307.584 
L 164.372884 307.584 
L 164.372884 297.348923 
L 162.222854 297.348923 
z
" style="fill:#fa9ba4;opacity:0.2;"/>
   </g>
   <g id="patch_40">
    <path clip-path="url(#pef3dbc49e7)" d="M 164.611776 307.584 
L 166.761806 307.584 
L 166.761806 281.996308 
L 164.611776 281.996308 
z
" style="fill:#fa9ba4;opacity:0.2;"/>
   </g>
   <g id="patch_41">
    <path clip-path="url(#pef3dbc49e7)" d="M 167.000698 307.584 
L 169.150728 307.584 
L 169.150728 307.584 
L 167.000698 307.584 
z
" style="fill:#fa9ba4;opacity:0.2;"/>
   </g>
   <g id="patch_42">
    <path clip-path="url(#pef3dbc49e7)" d="M 169.389621 307.584 
L 171.539651 307.584 
L 171.539651 307.584 
L 169.389621 307.584 
z
" style="fill:#fa9ba4;opacity:0.2;"/>
   </g>
   <g id="patch_43">
    <path clip-path="url(#pef3dbc49e7)" d="M 171.778543 307.584 
L 173.928573 307.584 
L 173.928573 307.584 
L 171.778543 307.584 
z
" style="fill:#fa9ba4;opacity:0.2;"/>
   </g>
   <g id="patch_44">
    <path clip-path="url(#pef3dbc49e7)" d="M 174.167465 307.584 
L 176.317495 307.584 
L 176.317495 292.231385 
L 174.167465 292.231385 
z
" style="fill:#fa9ba4;opacity:0.2;"/>
   </g>
   <g id="patch_45">
    <path clip-path="url(#pef3dbc49e7)" d="M 176.556388 307.584 
L 178.706418 307.584 
L 178.706418 307.584 
L 176.556388 307.584 
z
" style="fill:#fa9ba4;opacity:0.2;"/>
   </g>
   <g id="patch_46">
    <path clip-path="url(#pef3dbc49e7)" d="M 178.94531 307.584 
L 181.09534 307.584 
L 181.09534 307.584 
L 178.94531 307.584 
z
" style="fill:#fa9ba4;opacity:0.2;"/>
   </g>
   <g id="patch_47">
    <path clip-path="url(#pef3dbc49e7)" d="M 181.334232 307.584 
L 183.484262 307.584 
L 183.484262 302.466462 
L 181.334232 302.466462 
z
" style="fill:#fa9ba4;opacity:0.2;"/>
   </g>
   <g id="patch_48">
    <path clip-path="url(#pef3dbc49e7)" d="M 183.723155 307.584 
L 185.873185 307.584 
L 185.873185 302.466462 
L 183.723155 302.466462 
z
" style="fill:#fa9ba4;opacity:0.2;"/>
   </g>
   <g id="patch_49">
    <path clip-path="url(#pef3dbc49e7)" d="M 186.112077 307.584 
L 188.262107 307.584 
L 188.262107 307.584 
L 186.112077 307.584 
z
" style="fill:#fa9ba4;opacity:0.2;"/>
   </g>
   <g id="patch_50">
    <path clip-path="url(#pef3dbc49e7)" d="M 188.500999 307.584 
L 190.65103 307.584 
L 190.65103 307.584 
L 188.500999 307.584 
z
" style="fill:#fa9ba4;opacity:0.2;"/>
   </g>
   <g id="patch_51">
    <path clip-path="url(#pef3dbc49e7)" d="M 190.889922 307.584 
L 193.039952 307.584 
L 193.039952 307.584 
L 190.889922 307.584 
z
" style="fill:#fa9ba4;opacity:0.2;"/>
   </g>
   <g id="patch_52">
    <path clip-path="url(#pef3dbc49e7)" d="M 193.278844 307.584 
L 195.428874 307.584 
L 195.428874 302.466462 
L 193.278844 302.466462 
z
" style="fill:#fa9ba4;opacity:0.2;"/>
   </g>
   <g id="patch_53">
    <path clip-path="url(#pef3dbc49e7)" d="M 195.667766 307.584 
L 197.817797 307.584 
L 197.817797 281.996308 
L 195.667766 281.996308 
z
" style="fill:#fa9ba4;opacity:0.2;"/>
   </g>
   <g id="patch_54">
    <path clip-path="url(#pef3dbc49e7)" d="M 198.056689 307.584 
L 200.206719 307.584 
L 200.206719 287.113846 
L 198.056689 287.113846 
z
" style="fill:#fa9ba4;opacity:0.2;"/>
   </g>
   <g id="patch_55">
    <path clip-path="url(#pef3dbc49e7)" d="M 200.445611 307.584 
L 202.595641 307.584 
L 202.595641 297.348923 
L 200.445611 297.348923 
z
" style="fill:#fa9ba4;opacity:0.2;"/>
   </g>
   <g id="patch_56">
    <path clip-path="url(#pef3dbc49e7)" d="M 202.834533 307.584 
L 204.984564 307.584 
L 204.984564 266.643692 
L 202.834533 266.643692 
z
" style="fill:#fa9ba4;opacity:0.2;"/>
   </g>
   <g id="patch_57">
    <path clip-path="url(#pef3dbc49e7)" d="M 205.223456 307.584 
L 207.373486 307.584 
L 207.373486 307.584 
L 205.223456 307.584 
z
" style="fill:#fa9ba4;opacity:0.2;"/>
   </g>
   <g id="patch_58">
    <path clip-path="url(#pef3dbc49e7)" d="M 207.612378 307.584 
L 209.762408 307.584 
L 209.762408 307.584 
L 207.612378 307.584 
z
" style="fill:#fa9ba4;opacity:0.2;"/>
   </g>
   <g id="patch_59">
    <path clip-path="url(#pef3dbc49e7)" d="M 210.0013 307.584 
L 212.151331 307.584 
L 212.151331 307.584 
L 210.0013 307.584 
z
" style="fill:#fa9ba4;opacity:0.2;"/>
   </g>
   <g id="patch_60">
    <path clip-path="url(#pef3dbc49e7)" d="M 212.390223 307.584 
L 214.540253 307.584 
L 214.540253 118.235077 
L 212.390223 118.235077 
z
" style="fill:#fa9ba4;opacity:0.2;"/>
   </g>
   <g id="patch_61">
    <path clip-path="url(#pef3dbc49e7)" d="M 214.779145 307.584 
L 216.929175 307.584 
L 216.929175 307.584 
L 214.779145 307.584 
z
" style="fill:#fa9ba4;opacity:0.2;"/>
   </g>
   <g id="patch_62">
    <path clip-path="url(#pef3dbc49e7)" d="M 217.168067 307.584 
L 219.318098 307.584 
L 219.318098 41.472 
L 217.168067 41.472 
z
" style="fill:#fa9ba4;opacity:0.2;"/>
   </g>
   <g id="patch_63">
    <path clip-path="url(#pef3dbc49e7)" d="M 219.55699 307.584 
L 221.70702 307.584 
L 221.70702 271.761231 
L 219.55699 271.761231 
z
" style="fill:#fa9ba4;opacity:0.2;"/>
   </g>
   <g id="patch_64">
    <path clip-path="url(#pef3dbc49e7)" d="M 221.945912 307.584 
L 224.095942 307.584 
L 224.095942 307.584 
L 221.945912 307.584 
z
" style="fill:#fa9ba4;opacity:0.2;"/>
   </g>
   <g id="patch_65">
    <path clip-path="url(#pef3dbc49e7)" d="M 224.334834 307.584 
L 226.484865 307.584 
L 226.484865 307.584 
L 224.334834 307.584 
z
" style="fill:#fa9ba4;opacity:0.2;"/>
   </g>
   <g id="patch_66">
    <path clip-path="url(#pef3dbc49e7)" d="M 226.723757 307.584 
L 228.873787 307.584 
L 228.873787 297.348923 
L 226.723757 297.348923 
z
" style="fill:#fa9ba4;opacity:0.2;"/>
   </g>
   <g id="patch_67">
    <path clip-path="url(#pef3dbc49e7)" d="M 229.112679 307.584 
L 231.262709 307.584 
L 231.262709 302.466462 
L 229.112679 302.466462 
z
" style="fill:#fa9ba4;opacity:0.2;"/>
   </g>
   <g id="patch_68">
    <path clip-path="url(#pef3dbc49e7)" d="M 231.501601 307.584 
L 233.651632 307.584 
L 233.651632 307.584 
L 231.501601 307.584 
z
" style="fill:#fa9ba4;opacity:0.2;"/>
   </g>
   <g id="patch_69">
    <path clip-path="url(#pef3dbc49e7)" d="M 233.890524 307.584 
L 236.040554 307.584 
L 236.040554 307.584 
L 233.890524 307.584 
z
" style="fill:#fa9ba4;opacity:0.2;"/>
   </g>
   <g id="patch_70">
    <path clip-path="url(#pef3dbc49e7)" d="M 236.279446 307.584 
L 238.429476 307.584 
L 238.429476 307.584 
L 236.279446 307.584 
z
" style="fill:#fa9ba4;opacity:0.2;"/>
   </g>
   <g id="patch_71">
    <path clip-path="url(#pef3dbc49e7)" d="M 238.668368 307.584 
L 240.818399 307.584 
L 240.818399 241.056 
L 238.668368 241.056 
z
" style="fill:#fa9ba4;opacity:0.2;"/>
   </g>
   <g id="patch_72">
    <path clip-path="url(#pef3dbc49e7)" d="M 241.057291 307.584 
L 243.207321 307.584 
L 243.207321 297.348923 
L 241.057291 297.348923 
z
" style="fill:#fa9ba4;opacity:0.2;"/>
   </g>
   <g id="patch_73">
    <path clip-path="url(#pef3dbc49e7)" d="M 243.446213 307.584 
L 245.596243 307.584 
L 245.596243 307.584 
L 243.446213 307.584 
z
" style="fill:#fa9ba4;opacity:0.2;"/>
   </g>
   <g id="patch_74">
    <path clip-path="url(#pef3dbc49e7)" d="M 245.835135 307.584 
L 247.985166 307.584 
L 247.985166 302.466462 
L 245.835135 302.466462 
z
" style="fill:#fa9ba4;opacity:0.2;"/>
   </g>
   <g id="patch_75">
    <path clip-path="url(#pef3dbc49e7)" d="M 248.224058 307.584 
L 250.374088 307.584 
L 250.374088 307.584 
L 248.224058 307.584 
z
" style="fill:#fa9ba4;opacity:0.2;"/>
   </g>
   <g id="patch_76">
    <path clip-path="url(#pef3dbc49e7)" d="M 250.61298 307.584 
L 252.76301 307.584 
L 252.76301 281.996308 
L 250.61298 281.996308 
z
" style="fill:#fa9ba4;opacity:0.2;"/>
   </g>
   <g id="patch_77">
    <path clip-path="url(#pef3dbc49e7)" d="M 253.001902 307.584 
L 255.151933 307.584 
L 255.151933 307.584 
L 253.001902 307.584 
z
" style="fill:#fa9ba4;opacity:0.2;"/>
   </g>
   <g id="patch_78">
    <path clip-path="url(#pef3dbc49e7)" d="M 255.390825 307.584 
L 257.540855 307.584 
L 257.540855 292.231385 
L 255.390825 292.231385 
z
" style="fill:#fa9ba4;opacity:0.2;"/>
   </g>
   <g id="patch_79">
    <path clip-path="url(#pef3dbc49e7)" d="M 257.779747 307.584 
L 259.929777 307.584 
L 259.929777 287.113846 
L 257.779747 287.113846 
z
" style="fill:#fa9ba4;opacity:0.2;"/>
   </g>
   <g id="patch_80">
    <path clip-path="url(#pef3dbc49e7)" d="M 260.168669 307.584 
L 262.3187 307.584 
L 262.3187 287.113846 
L 260.168669 287.113846 
z
" style="fill:#fa9ba4;opacity:0.2;"/>
   </g>
   <g id="patch_81">
    <path clip-path="url(#pef3dbc49e7)" d="M 262.557592 307.584 
L 264.707622 307.584 
L 264.707622 292.231385 
L 262.557592 292.231385 
z
" style="fill:#fa9ba4;opacity:0.2;"/>
   </g>
   <g id="patch_82">
    <path clip-path="url(#pef3dbc49e7)" d="M 264.946514 307.584 
L 267.096544 307.584 
L 267.096544 297.348923 
L 264.946514 297.348923 
z
" style="fill:#fa9ba4;opacity:0.2;"/>
   </g>
   <g id="patch_83">
    <path clip-path="url(#pef3dbc49e7)" d="M 267.335436 307.584 
L 269.485467 307.584 
L 269.485467 297.348923 
L 267.335436 297.348923 
z
" style="fill:#fa9ba4;opacity:0.2;"/>
   </g>
   <g id="patch_84">
    <path clip-path="url(#pef3dbc49e7)" d="M 269.724359 307.584 
L 271.874389 307.584 
L 271.874389 281.996308 
L 269.724359 281.996308 
z
" style="fill:#fa9ba4;opacity:0.2;"/>
   </g>
   <g id="patch_85">
    <path clip-path="url(#pef3dbc49e7)" d="M 272.113281 307.584 
L 274.263311 307.584 
L 274.263311 297.348923 
L 272.113281 297.348923 
z
" style="fill:#fa9ba4;opacity:0.2;"/>
   </g>
   <g id="patch_86">
    <path clip-path="url(#pef3dbc49e7)" d="M 274.502203 307.584 
L 276.652234 307.584 
L 276.652234 307.584 
L 274.502203 307.584 
z
" style="fill:#fa9ba4;opacity:0.2;"/>
   </g>
   <g id="patch_87">
    <path clip-path="url(#pef3dbc49e7)" d="M 276.891126 307.584 
L 279.041156 307.584 
L 279.041156 292.231385 
L 276.891126 292.231385 
z
" style="fill:#fa9ba4;opacity:0.2;"/>
   </g>
   <g id="patch_88">
    <path clip-path="url(#pef3dbc49e7)" d="M 279.280048 307.584 
L 281.430078 307.584 
L 281.430078 307.584 
L 279.280048 307.584 
z
" style="fill:#fa9ba4;opacity:0.2;"/>
   </g>
   <g id="patch_89">
    <path clip-path="url(#pef3dbc49e7)" d="M 281.66897 307.584 
L 283.819001 307.584 
L 283.819001 281.996308 
L 281.66897 281.996308 
z
" style="fill:#fa9ba4;opacity:0.2;"/>
   </g>
   <g id="patch_90">
    <path clip-path="url(#pef3dbc49e7)" d="M 284.057893 307.584 
L 286.207923 307.584 
L 286.207923 302.466462 
L 284.057893 302.466462 
z
" style="fill:#fa9ba4;opacity:0.2;"/>
   </g>
   <g id="patch_91">
    <path clip-path="url(#pef3dbc49e7)" d="M 286.446815 307.584 
L 288.596845 307.584 
L 288.596845 307.584 
L 286.446815 307.584 
z
" style="fill:#fa9ba4;opacity:0.2;"/>
   </g>
   <g id="patch_92">
    <path clip-path="url(#pef3dbc49e7)" d="M 288.835738 307.584 
L 290.985768 307.584 
L 290.985768 256.408615 
L 288.835738 256.408615 
z
" style="fill:#fa9ba4;opacity:0.2;"/>
   </g>
   <g id="patch_93">
    <path clip-path="url(#pef3dbc49e7)" d="M 291.22466 307.584 
L 293.37469 307.584 
L 293.37469 307.584 
L 291.22466 307.584 
z
" style="fill:#fa9ba4;opacity:0.2;"/>
   </g>
   <g id="patch_94">
    <path clip-path="url(#pef3dbc49e7)" d="M 293.613582 307.584 
L 295.763612 307.584 
L 295.763612 261.526154 
L 293.613582 261.526154 
z
" style="fill:#fa9ba4;opacity:0.2;"/>
   </g>
   <g id="patch_95">
    <path clip-path="url(#pef3dbc49e7)" d="M 296.002505 307.584 
L 298.152535 307.584 
L 298.152535 307.584 
L 296.002505 307.584 
z
" style="fill:#fa9ba4;opacity:0.2;"/>
   </g>
   <g id="patch_96">
    <path clip-path="url(#pef3dbc49e7)" d="M 298.391427 307.584 
L 300.541457 307.584 
L 300.541457 307.584 
L 298.391427 307.584 
z
" style="fill:#fa9ba4;opacity:0.2;"/>
   </g>
   <g id="patch_97">
    <path clip-path="url(#pef3dbc49e7)" d="M 300.780349 307.584 
L 302.930379 307.584 
L 302.930379 297.348923 
L 300.780349 297.348923 
z
" style="fill:#fa9ba4;opacity:0.2;"/>
   </g>
   <g id="patch_98">
    <path clip-path="url(#pef3dbc49e7)" d="M 303.169272 307.584 
L 305.319302 307.584 
L 305.319302 307.584 
L 303.169272 307.584 
z
" style="fill:#fa9ba4;opacity:0.2;"/>
   </g>
   <g id="patch_99">
    <path clip-path="url(#pef3dbc49e7)" d="M 305.558194 307.584 
L 307.708224 307.584 
L 307.708224 307.584 
L 305.558194 307.584 
z
" style="fill:#fa9ba4;opacity:0.2;"/>
   </g>
   <g id="patch_100">
    <path clip-path="url(#pef3dbc49e7)" d="M 307.947116 307.584 
L 310.097146 307.584 
L 310.097146 307.584 
L 307.947116 307.584 
z
" style="fill:#fa9ba4;opacity:0.2;"/>
   </g>
   <g id="patch_101">
    <path clip-path="url(#pef3dbc49e7)" d="M 310.336039 307.584 
L 312.486069 307.584 
L 312.486069 292.231385 
L 310.336039 292.231385 
z
" style="fill:#fa9ba4;opacity:0.2;"/>
   </g>
   <g id="patch_102">
    <path clip-path="url(#pef3dbc49e7)" d="M 312.724961 307.584 
L 314.874991 307.584 
L 314.874991 307.584 
L 312.724961 307.584 
z
" style="fill:#fa9ba4;opacity:0.2;"/>
   </g>
   <g id="patch_103">
    <path clip-path="url(#pef3dbc49e7)" d="M 315.113883 307.584 
L 317.263913 307.584 
L 317.263913 281.996308 
L 315.113883 281.996308 
z
" style="fill:#fa9ba4;opacity:0.2;"/>
   </g>
   <g id="patch_104">
    <path clip-path="url(#pef3dbc49e7)" d="M 317.502806 307.584 
L 319.652836 307.584 
L 319.652836 302.466462 
L 317.502806 302.466462 
z
" style="fill:#fa9ba4;opacity:0.2;"/>
   </g>
   <g id="patch_105">
    <path clip-path="url(#pef3dbc49e7)" d="M 319.891728 307.584 
L 322.041758 307.584 
L 322.041758 307.584 
L 319.891728 307.584 
z
" style="fill:#fa9ba4;opacity:0.2;"/>
   </g>
   <g id="patch_106">
    <path clip-path="url(#pef3dbc49e7)" d="M 322.28065 307.584 
L 324.43068 307.584 
L 324.43068 307.584 
L 322.28065 307.584 
z
" style="fill:#fa9ba4;opacity:0.2;"/>
   </g>
   <g id="patch_107">
    <path clip-path="url(#pef3dbc49e7)" d="M 324.669573 307.584 
L 326.819603 307.584 
L 326.819603 307.584 
L 324.669573 307.584 
z
" style="fill:#fa9ba4;opacity:0.2;"/>
   </g>
   <g id="patch_108">
    <path clip-path="url(#pef3dbc49e7)" d="M 327.058495 307.584 
L 329.208525 307.584 
L 329.208525 297.348923 
L 327.058495 297.348923 
z
" style="fill:#fa9ba4;opacity:0.2;"/>
   </g>
   <g id="patch_109">
    <path clip-path="url(#pef3dbc49e7)" d="M 329.447417 307.584 
L 331.597447 307.584 
L 331.597447 307.584 
L 329.447417 307.584 
z
" style="fill:#fa9ba4;opacity:0.2;"/>
   </g>
   <g id="patch_110">
    <path clip-path="url(#pef3dbc49e7)" d="M 331.83634 307.584 
L 333.98637 307.584 
L 333.98637 297.348923 
L 331.83634 297.348923 
z
" style="fill:#fa9ba4;opacity:0.2;"/>
   </g>
   <g id="patch_111">
    <path clip-path="url(#pef3dbc49e7)" d="M 334.225262 307.584 
L 336.375292 307.584 
L 336.375292 302.466462 
L 334.225262 302.466462 
z
" style="fill:#fa9ba4;opacity:0.2;"/>
   </g>
   <g id="patch_112">
    <path clip-path="url(#pef3dbc49e7)" d="M 336.614184 307.584 
L 338.764214 307.584 
L 338.764214 307.584 
L 336.614184 307.584 
z
" style="fill:#fa9ba4;opacity:0.2;"/>
   </g>
   <g id="patch_113">
    <path clip-path="url(#pef3dbc49e7)" d="M 339.003107 307.584 
L 341.153137 307.584 
L 341.153137 302.466462 
L 339.003107 302.466462 
z
" style="fill:#fa9ba4;opacity:0.2;"/>
   </g>
   <g id="patch_114">
    <path clip-path="url(#pef3dbc49e7)" d="M 341.392029 307.584 
L 343.542059 307.584 
L 343.542059 302.466462 
L 341.392029 302.466462 
z
" style="fill:#fa9ba4;opacity:0.2;"/>
   </g>
   <g id="patch_115">
    <path clip-path="url(#pef3dbc49e7)" d="M 343.780951 307.584 
L 345.930981 307.584 
L 345.930981 307.584 
L 343.780951 307.584 
z
" style="fill:#fa9ba4;opacity:0.2;"/>
   </g>
   <g id="patch_116">
    <path clip-path="url(#pef3dbc49e7)" d="M 346.169874 307.584 
L 348.319904 307.584 
L 348.319904 307.584 
L 346.169874 307.584 
z
" style="fill:#fa9ba4;opacity:0.2;"/>
   </g>
   <g id="patch_117">
    <path clip-path="url(#pef3dbc49e7)" d="M 348.558796 307.584 
L 350.708826 307.584 
L 350.708826 307.584 
L 348.558796 307.584 
z
" style="fill:#fa9ba4;opacity:0.2;"/>
   </g>
   <g id="patch_118">
    <path clip-path="url(#pef3dbc49e7)" d="M 350.947718 307.584 
L 353.097748 307.584 
L 353.097748 302.466462 
L 350.947718 302.466462 
z
" style="fill:#fa9ba4;opacity:0.2;"/>
   </g>
   <g id="patch_119">
    <path clip-path="url(#pef3dbc49e7)" d="M 353.336641 307.584 
L 355.486671 307.584 
L 355.486671 302.466462 
L 353.336641 302.466462 
z
" style="fill:#fa9ba4;opacity:0.2;"/>
   </g>
   <g id="patch_120">
    <path clip-path="url(#pef3dbc49e7)" d="M 355.725563 307.584 
L 357.875593 307.584 
L 357.875593 297.348923 
L 355.725563 297.348923 
z
" style="fill:#fa9ba4;opacity:0.2;"/>
   </g>
   <g id="patch_121">
    <path clip-path="url(#pef3dbc49e7)" d="M 358.114485 307.584 
L 360.264515 307.584 
L 360.264515 297.348923 
L 358.114485 297.348923 
z
" style="fill:#fa9ba4;opacity:0.2;"/>
   </g>
   <g id="patch_122">
    <path clip-path="url(#pef3dbc49e7)" d="M 360.503408 307.584 
L 362.653438 307.584 
L 362.653438 302.466462 
L 360.503408 302.466462 
z
" style="fill:#fa9ba4;opacity:0.2;"/>
   </g>
   <g id="patch_123">
    <path clip-path="url(#pef3dbc49e7)" d="M 362.89233 307.584 
L 365.04236 307.584 
L 365.04236 281.996308 
L 362.89233 281.996308 
z
" style="fill:#fa9ba4;opacity:0.2;"/>
   </g>
   <g id="patch_124">
    <path clip-path="url(#pef3dbc49e7)" d="M 365.281252 307.584 
L 367.431282 307.584 
L 367.431282 281.996308 
L 365.281252 281.996308 
z
" style="fill:#fa9ba4;opacity:0.2;"/>
   </g>
   <g id="patch_125">
    <path clip-path="url(#pef3dbc49e7)" d="M 367.670175 307.584 
L 369.820205 307.584 
L 369.820205 302.466462 
L 367.670175 302.466462 
z
" style="fill:#fa9ba4;opacity:0.2;"/>
   </g>
   <g id="patch_126">
    <path clip-path="url(#pef3dbc49e7)" d="M 370.059097 307.584 
L 372.209127 307.584 
L 372.209127 241.056 
L 370.059097 241.056 
z
" style="fill:#fa9ba4;opacity:0.2;"/>
   </g>
   <g id="patch_127">
    <path clip-path="url(#pef3dbc49e7)" d="M 372.448019 307.584 
L 374.598049 307.584 
L 374.598049 287.113846 
L 372.448019 287.113846 
z
" style="fill:#fa9ba4;opacity:0.2;"/>
   </g>
   <g id="patch_128">
    <path clip-path="url(#pef3dbc49e7)" d="M 374.836942 307.584 
L 376.986972 307.584 
L 376.986972 287.113846 
L 374.836942 287.113846 
z
" style="fill:#fa9ba4;opacity:0.2;"/>
   </g>
   <g id="patch_129">
    <path clip-path="url(#pef3dbc49e7)" d="M 377.225864 307.584 
L 379.375894 307.584 
L 379.375894 266.643692 
L 377.225864 266.643692 
z
" style="fill:#fa9ba4;opacity:0.2;"/>
   </g>
   <g id="patch_130">
    <path clip-path="url(#pef3dbc49e7)" d="M 379.614786 307.584 
L 381.764816 307.584 
L 381.764816 292.231385 
L 379.614786 292.231385 
z
" style="fill:#fa9ba4;opacity:0.2;"/>
   </g>
   <g id="patch_131">
    <path clip-path="url(#pef3dbc49e7)" d="M 382.003709 307.584 
L 384.153739 307.584 
L 384.153739 281.996308 
L 382.003709 281.996308 
z
" style="fill:#fa9ba4;opacity:0.2;"/>
   </g>
   <g id="patch_132">
    <path clip-path="url(#pef3dbc49e7)" d="M 384.392631 307.584 
L 386.542661 307.584 
L 386.542661 307.584 
L 384.392631 307.584 
z
" style="fill:#fa9ba4;opacity:0.2;"/>
   </g>
   <g id="patch_133">
    <path clip-path="url(#pef3dbc49e7)" d="M 386.781553 307.584 
L 388.931583 307.584 
L 388.931583 297.348923 
L 386.781553 297.348923 
z
" style="fill:#fa9ba4;opacity:0.2;"/>
   </g>
   <g id="patch_134">
    <path clip-path="url(#pef3dbc49e7)" d="M 389.170476 307.584 
L 391.320506 307.584 
L 391.320506 297.348923 
L 389.170476 297.348923 
z
" style="fill:#fa9ba4;opacity:0.2;"/>
   </g>
   <g id="patch_135">
    <path clip-path="url(#pef3dbc49e7)" d="M 391.559398 307.584 
L 393.709428 307.584 
L 393.709428 307.584 
L 391.559398 307.584 
z
" style="fill:#fa9ba4;opacity:0.2;"/>
   </g>
   <g id="patch_136">
    <path clip-path="url(#pef3dbc49e7)" d="M 393.94832 307.584 
L 396.09835 307.584 
L 396.09835 297.348923 
L 393.94832 297.348923 
z
" style="fill:#fa9ba4;opacity:0.2;"/>
   </g>
   <g id="patch_137">
    <path clip-path="url(#pef3dbc49e7)" d="M 396.337243 307.584 
L 398.487273 307.584 
L 398.487273 292.231385 
L 396.337243 292.231385 
z
" style="fill:#fa9ba4;opacity:0.2;"/>
   </g>
   <g id="matplotlib.axis_1"/>
   <g id="matplotlib.axis_2"/>
   <g id="PolyCollection_1">
    <defs>
     <path d="M 366.356267 -50.444308 
L 366.356267 -38.016 
L 368.74519 -38.016 
L 371.134112 -38.016 
L 373.523034 -38.016 
L 375.911957 -38.016 
L 378.300879 -38.016 
L 380.689801 -38.016 
L 383.078724 -38.016 
L 385.467646 -38.016 
L 387.856568 -38.016 
L 390.245491 -38.016 
L 392.634413 -38.016 
L 395.023335 -38.016 
L 397.412258 -38.016 
L 397.412258 -48.251077 
L 397.412258 -48.251077 
L 395.023335 -48.251077 
L 392.634413 -52.637538 
L 390.245491 -55.561846 
L 387.856568 -57.024 
L 385.467646 -65.065846 
L 383.078724 -65.796923 
L 380.689801 -65.796923 
L 378.300879 -67.259077 
L 375.911957 -62.141538 
L 373.523034 -60.679385 
L 371.134112 -59.217231 
L 368.74519 -50.444308 
L 366.356267 -50.444308 
z
" id="m8318b14a9b" style="stroke:#dc3545;stroke-opacity:0.5;"/>
    </defs>
    <g clip-path="url(#pef3dbc49e7)">
     <use style="fill:#dc3545;fill-opacity:0.5;stroke:#dc3545;stroke-opacity:0.5;" x="0" xlink:href="#m8318b14a9b" y="345.6"/>
    </g>
   </g>
   <g id="PolyCollection_2">
    <defs>
     <path d="M 89.241276 -38.747077 
L 89.241276 -38.016 
L 91.630199 -38.016 
L 94.019121 -38.016 
L 96.408043 -38.016 
L 98.796966 -38.016 
L 101.185888 -38.016 
L 103.57481 -38.016 
L 105.963733 -38.016 
L 108.352655 -38.016 
L 110.741577 -38.016 
L 113.1305 -38.016 
L 115.519422 -38.016 
L 117.908344 -38.016 
L 120.297267 -38.016 
L 122.686189 -38.016 
L 125.075111 -38.016 
L 127.464034 -38.016 
L 129.852956 -38.016 
L 132.241878 -38.016 
L 134.630801 -38.016 
L 137.019723 -38.016 
L 139.408645 -38.016 
L 141.797568 -38.016 
L 144.18649 -38.016 
L 146.575412 -38.016 
L 148.964335 -38.016 
L 151.353257 -38.016 
L 153.742179 -38.016 
L 156.131102 -38.016 
L 158.520024 -38.016 
L 160.908946 -38.016 
L 163.297869 -38.016 
L 165.686791 -38.016 
L 168.075713 -38.016 
L 170.464636 -38.016 
L 172.853558 -38.016 
L 175.24248 -38.016 
L 177.631403 -38.016 
L 180.020325 -38.016 
L 182.409247 -38.016 
L 184.79817 -38.016 
L 187.187092 -38.016 
L 189.576014 -38.016 
L 191.964937 -38.016 
L 194.353859 -38.016 
L 196.742781 -38.016 
L 199.131704 -38.016 
L 201.520626 -38.016 
L 203.909548 -38.016 
L 206.298471 -38.016 
L 208.687393 -38.016 
L 211.076315 -38.016 
L 213.465238 -38.016 
L 215.85416 -38.016 
L 218.243082 -38.016 
L 220.632005 -38.016 
L 223.020927 -38.016 
L 225.409849 -38.016 
L 227.798772 -38.016 
L 230.187694 -38.016 
L 232.576616 -38.016 
L 234.965539 -38.016 
L 237.354461 -38.016 
L 239.743384 -38.016 
L 242.132306 -38.016 
L 244.521228 -38.016 
L 246.910151 -38.016 
L 249.299073 -38.016 
L 251.687995 -38.016 
L 254.076918 -38.016 
L 256.46584 -38.016 
L 258.854762 -38.016 
L 261.243685 -38.016 
L 263.632607 -38.016 
L 266.021529 -38.016 
L 268.410452 -38.016 
L 270.799374 -38.016 
L 273.188296 -38.016 
L 275.577219 -38.016 
L 277.966141 -38.016 
L 280.355063 -38.016 
L 282.743986 -38.016 
L 285.132908 -38.016 
L 287.52183 -38.016 
L 289.910753 -38.016 
L 292.299675 -38.016 
L 294.688597 -38.016 
L 297.07752 -38.016 
L 299.466442 -38.016 
L 301.855364 -38.016 
L 304.244287 -38.016 
L 306.633209 -38.016 
L 309.022131 -38.016 
L 311.411054 -38.016 
L 313.799976 -38.016 
L 316.188898 -38.016 
L 318.577821 -38.016 
L 320.966743 -38.016 
L 323.355665 -38.016 
L 325.744588 -38.016 
L 328.13351 -38.016 
L 330.522432 -38.016 
L 332.911355 -38.016 
L 335.300277 -38.016 
L 337.689199 -38.016 
L 340.078122 -38.016 
L 342.467044 -38.016 
L 344.855966 -38.016 
L 347.244889 -38.016 
L 349.633811 -38.016 
L 352.022733 -38.016 
L 354.411656 -38.016 
L 356.800578 -38.016 
L 359.1895 -38.016 
L 361.578423 -38.016 
L 363.967345 -38.016 
L 366.356267 -38.016 
L 366.356267 -50.444308 
L 366.356267 -50.444308 
L 363.967345 -46.788923 
L 361.578423 -43.133538 
L 359.1895 -42.402462 
L 356.800578 -41.671385 
L 354.411656 -40.940308 
L 352.022733 -40.209231 
L 349.633811 -40.209231 
L 347.244889 -41.671385 
L 344.855966 -41.671385 
L 342.467044 -43.133538 
L 340.078122 -42.402462 
L 337.689199 -41.671385 
L 335.300277 -41.671385 
L 332.911355 -41.671385 
L 330.522432 -43.864615 
L 328.13351 -43.864615 
L 325.744588 -44.595692 
L 323.355665 -44.595692 
L 320.966743 -44.595692 
L 318.577821 -44.595692 
L 316.188898 -45.326769 
L 313.799976 -41.671385 
L 311.411054 -41.671385 
L 309.022131 -46.057846 
L 306.633209 -46.057846 
L 304.244287 -53.368615 
L 301.855364 -53.368615 
L 299.466442 -52.637538 
L 297.07752 -56.292923 
L 294.688597 -56.292923 
L 292.299675 -51.906462 
L 289.910753 -51.906462 
L 287.52183 -46.057846 
L 285.132908 -49.713231 
L 282.743986 -50.444308 
L 280.355063 -48.251077 
L 277.966141 -50.444308 
L 275.577219 -51.175385 
L 273.188296 -54.099692 
L 270.799374 -54.830769 
L 268.410452 -51.175385 
L 266.021529 -53.368615 
L 263.632607 -51.906462 
L 261.243685 -50.444308 
L 258.854762 -47.52 
L 256.46584 -46.057846 
L 254.076918 -53.368615 
L 251.687995 -53.368615 
L 249.299073 -49.713231 
L 246.910151 -49.713231 
L 244.521228 -49.713231 
L 242.132306 -51.175385 
L 239.743384 -49.713231 
L 237.354461 -40.209231 
L 234.965539 -45.326769 
L 232.576616 -83.342769 
L 230.187694 -83.342769 
L 227.798772 -109.661538 
L 225.409849 -108.199385 
L 223.020927 -108.199385 
L 220.632005 -108.199385 
L 218.243082 -108.930462 
L 215.85416 -72.376615 
L 213.465238 -75.300923 
L 211.076315 -51.906462 
L 208.687393 -52.637538 
L 206.298471 -52.637538 
L 203.909548 -52.637538 
L 201.520626 -46.788923 
L 199.131704 -46.057846 
L 196.742781 -43.864615 
L 194.353859 -40.209231 
L 191.964937 -39.478154 
L 189.576014 -41.671385 
L 187.187092 -41.671385 
L 184.79817 -41.671385 
L 182.409247 -40.940308 
L 180.020325 -43.864615 
L 177.631403 -45.326769 
L 175.24248 -46.057846 
L 172.853558 -43.864615 
L 170.464636 -43.864615 
L 168.075713 -44.595692 
L 165.686791 -44.595692 
L 163.297869 -50.444308 
L 160.908946 -48.982154 
L 158.520024 -63.603692 
L 156.131102 -63.603692 
L 153.742179 -73.838769 
L 151.353257 -85.536 
L 148.964335 -89.922462 
L 146.575412 -80.418462 
L 144.18649 -81.149538 
L 141.797568 -65.796923 
L 139.408645 -65.796923 
L 137.019723 -55.561846 
L 134.630801 -43.133538 
L 132.241878 -39.478154 
L 129.852956 -39.478154 
L 127.464034 -42.402462 
L 125.075111 -43.133538 
L 122.686189 -43.133538 
L 120.297267 -43.133538 
L 117.908344 -45.326769 
L 115.519422 -44.595692 
L 113.1305 -44.595692 
L 110.741577 -41.671385 
L 108.352655 -42.402462 
L 105.963733 -42.402462 
L 103.57481 -43.133538 
L 101.185888 -40.940308 
L 98.796966 -40.940308 
L 96.408043 -40.940308 
L 94.019121 -40.209231 
L 91.630199 -38.747077 
L 89.241276 -38.747077 
z
" id="mb69a03df6d" style="stroke:#fa9ba4;stroke-opacity:0.3;"/>
    </defs>
    <g clip-path="url(#pef3dbc49e7)">
     <use style="fill:#fa9ba4;fill-opacity:0.3;stroke:#fa9ba4;stroke-opacity:0.3;" x="0" xlink:href="#mb69a03df6d" y="345.6"/>
    </g>
   </g>
   <g id="line2d_1">
    <path clip-path="url(#pef3dbc49e7)" d="M 89.241276 306.852923 
L 91.630199 306.852923 
L 94.019121 305.390769 
L 96.408043 304.659692 
L 101.185888 304.659692 
L 103.57481 302.466462 
L 105.963733 303.197538 
L 108.352655 303.197538 
L 110.741577 303.928615 
L 113.1305 301.004308 
L 115.519422 301.004308 
L 117.908344 300.273231 
L 120.297267 302.466462 
L 125.075111 302.466462 
L 127.464034 303.197538 
L 129.852956 306.121846 
L 132.241878 306.121846 
L 134.630801 302.466462 
L 137.019723 290.038154 
L 139.408645 279.803077 
L 141.797568 279.803077 
L 144.18649 264.450462 
L 146.575412 265.181538 
L 148.964335 255.677538 
L 151.353257 260.064 
L 153.742179 271.761231 
L 156.131102 281.996308 
L 158.520024 281.996308 
L 160.908946 296.617846 
L 163.297869 295.155692 
L 165.686791 301.004308 
L 168.075713 301.004308 
L 170.464636 301.735385 
L 172.853558 301.735385 
L 175.24248 299.542154 
L 177.631403 300.273231 
L 180.020325 301.735385 
L 182.409247 304.659692 
L 184.79817 303.928615 
L 189.576014 303.928615 
L 191.964937 306.121846 
L 194.353859 305.390769 
L 196.742781 301.735385 
L 199.131704 299.542154 
L 201.520626 298.811077 
L 203.909548 292.962462 
L 208.687393 292.962462 
L 211.076315 293.693538 
L 213.465238 270.299077 
L 215.85416 273.223385 
L 218.243082 236.669538 
L 220.632005 237.400615 
L 225.409849 237.400615 
L 227.798772 235.938462 
L 230.187694 262.257231 
L 232.576616 262.257231 
L 234.965539 300.273231 
L 237.354461 305.390769 
L 239.743384 295.886769 
L 242.132306 294.424615 
L 244.521228 295.886769 
L 249.299073 295.886769 
L 251.687995 292.231385 
L 254.076918 292.231385 
L 256.46584 299.542154 
L 258.854762 298.08 
L 261.243685 295.155692 
L 266.021529 292.231385 
L 268.410452 294.424615 
L 270.799374 290.769231 
L 273.188296 291.500308 
L 275.577219 294.424615 
L 277.966141 295.155692 
L 280.355063 297.348923 
L 282.743986 295.155692 
L 285.132908 295.886769 
L 287.52183 299.542154 
L 289.910753 293.693538 
L 292.299675 293.693538 
L 294.688597 289.307077 
L 297.07752 289.307077 
L 299.466442 292.962462 
L 301.855364 292.231385 
L 304.244287 292.231385 
L 306.633209 299.542154 
L 309.022131 299.542154 
L 311.411054 303.928615 
L 313.799976 303.928615 
L 316.188898 300.273231 
L 318.577821 301.004308 
L 325.744588 301.004308 
L 328.13351 301.735385 
L 330.522432 301.735385 
L 332.911355 303.928615 
L 337.689199 303.928615 
L 342.467044 302.466462 
L 344.855966 303.928615 
L 347.244889 303.928615 
L 349.633811 305.390769 
L 352.022733 305.390769 
L 361.578423 302.466462 
L 366.356267 295.155692 
L 368.74519 295.155692 
L 371.134112 286.382769 
L 375.911957 283.458462 
L 378.300879 278.340923 
L 380.689801 279.803077 
L 383.078724 279.803077 
L 385.467646 280.534154 
L 387.856568 288.576 
L 390.245491 290.038154 
L 392.634413 292.962462 
L 395.023335 297.348923 
L 397.412258 297.348923 
L 397.412258 297.348923 
" style="fill:none;stroke:#fa9ba4;stroke-linecap:square;stroke-width:2;"/>
   </g>
   <g id="line2d_2">
    <path clip-path="url(#pef3dbc49e7)" d="M 366.356267 295.155692 
L 368.74519 295.155692 
L 371.134112 286.382769 
L 373.523034 284.920615 
L 375.911957 283.458462 
L 378.300879 278.340923 
L 380.689801 279.803077 
L 383.078724 279.803077 
L 385.467646 280.534154 
L 387.856568 288.576 
L 390.245491 290.038154 
L 392.634413 292.962462 
L 395.023335 297.348923 
L 397.412258 297.348923 
" style="fill:none;stroke:#dc3545;stroke-linecap:square;stroke-width:2;"/>
   </g>
  </g>
 </g>
 <defs>
  <clipPath id="pef3dbc49e7">
   <rect height="266.112" width="357.12" x="57.6" y="41.472"/>
  </clipPath>
 </defs>
</svg>
