<?xml version="1.0" encoding="utf-8" standalone="no"?>
<!DOCTYPE svg PUBLIC "-//W3C//DTD SVG 1.1//EN"
  "http://www.w3.org/Graphics/SVG/1.1/DTD/svg11.dtd">
<svg height="345.6pt" version="1.1" viewBox="0 0 460.8 345.6" width="460.8pt" xmlns="http://www.w3.org/2000/svg" xmlns:xlink="http://www.w3.org/1999/xlink">
 <metadata>
  <rdf:RDF xmlns:cc="http://creativecommons.org/ns#" xmlns:dc="http://purl.org/dc/elements/1.1/" xmlns:rdf="http://www.w3.org/1999/02/22-rdf-syntax-ns#">
   <cc:Work>
    <dc:type rdf:resource="http://purl.org/dc/dcmitype/StillImage"/>
    <dc:date>2021-05-04T13:22:39.762254</dc:date>
    <dc:format>image/svg+xml</dc:format>
    <dc:creator>
     <cc:Agent>
      <dc:title>Matplotlib v3.4.1, https://matplotlib.org/</dc:title>
     </cc:Agent>
    </dc:creator>
   </cc:Work>
  </rdf:RDF>
 </metadata>
 <defs>
  <style type="text/css">*{stroke-linecap:butt;stroke-linejoin:round;}</style>
 </defs>
 <g id="figure_1">
  <g id="patch_1">
   <path d="M 0 345.6 
L 460.8 345.6 
L 460.8 0 
L 0 0 
z
" style="fill:none;"/>
  </g>
  <g id="axes_1">
   <g id="patch_2">
    <path clip-path="url(#pfc88c21a9f)" d="M 73.832727 307.584 
L 75.921284 307.584 
L 75.921284 307.584 
L 73.832727 307.584 
z
" style="fill:#fa9ba4;opacity:0.2;"/>
   </g>
   <g id="patch_3">
    <path clip-path="url(#pfc88c21a9f)" d="M 76.153346 307.584 
L 78.241903 307.584 
L 78.241903 307.584 
L 76.153346 307.584 
z
" style="fill:#fa9ba4;opacity:0.2;"/>
   </g>
   <g id="patch_4">
    <path clip-path="url(#pfc88c21a9f)" d="M 78.473965 307.584 
L 80.562521 307.584 
L 80.562521 307.584 
L 78.473965 307.584 
z
" style="fill:#fa9ba4;opacity:0.2;"/>
   </g>
   <g id="patch_5">
    <path clip-path="url(#pfc88c21a9f)" d="M 80.794583 307.584 
L 82.88314 307.584 
L 82.88314 307.584 
L 80.794583 307.584 
z
" style="fill:#fa9ba4;opacity:0.2;"/>
   </g>
   <g id="patch_6">
    <path clip-path="url(#pfc88c21a9f)" d="M 83.115202 307.584 
L 85.203759 307.584 
L 85.203759 307.584 
L 83.115202 307.584 
z
" style="fill:#fa9ba4;opacity:0.2;"/>
   </g>
   <g id="patch_7">
    <path clip-path="url(#pfc88c21a9f)" d="M 85.43582 307.584 
L 87.524377 307.584 
L 87.524377 307.584 
L 85.43582 307.584 
z
" style="fill:#fa9ba4;opacity:0.2;"/>
   </g>
   <g id="patch_8">
    <path clip-path="url(#pfc88c21a9f)" d="M 87.756439 307.584 
L 89.844996 307.584 
L 89.844996 302.466462 
L 87.756439 302.466462 
z
" style="fill:#fa9ba4;opacity:0.2;"/>
   </g>
   <g id="patch_9">
    <path clip-path="url(#pfc88c21a9f)" d="M 90.077058 307.584 
L 92.165614 307.584 
L 92.165614 307.584 
L 90.077058 307.584 
z
" style="fill:#fa9ba4;opacity:0.2;"/>
   </g>
   <g id="patch_10">
    <path clip-path="url(#pfc88c21a9f)" d="M 92.397676 307.584 
L 94.486233 307.584 
L 94.486233 297.348923 
L 92.397676 297.348923 
z
" style="fill:#fa9ba4;opacity:0.2;"/>
   </g>
   <g id="patch_11">
    <path clip-path="url(#pfc88c21a9f)" d="M 94.718295 307.584 
L 96.806852 307.584 
L 96.806852 302.466462 
L 94.718295 302.466462 
z
" style="fill:#fa9ba4;opacity:0.2;"/>
   </g>
   <g id="patch_12">
    <path clip-path="url(#pfc88c21a9f)" d="M 97.038914 307.584 
L 99.12747 307.584 
L 99.12747 307.584 
L 97.038914 307.584 
z
" style="fill:#fa9ba4;opacity:0.2;"/>
   </g>
   <g id="patch_13">
    <path clip-path="url(#pfc88c21a9f)" d="M 99.359532 307.584 
L 101.448089 307.584 
L 101.448089 307.584 
L 99.359532 307.584 
z
" style="fill:#fa9ba4;opacity:0.2;"/>
   </g>
   <g id="patch_14">
    <path clip-path="url(#pfc88c21a9f)" d="M 101.680151 307.584 
L 103.768708 307.584 
L 103.768708 292.231385 
L 101.680151 292.231385 
z
" style="fill:#fa9ba4;opacity:0.2;"/>
   </g>
   <g id="patch_15">
    <path clip-path="url(#pfc88c21a9f)" d="M 104.000769 307.584 
L 106.089326 307.584 
L 106.089326 307.584 
L 104.000769 307.584 
z
" style="fill:#fa9ba4;opacity:0.2;"/>
   </g>
   <g id="patch_16">
    <path clip-path="url(#pfc88c21a9f)" d="M 106.321388 307.584 
L 108.409945 307.584 
L 108.409945 307.584 
L 106.321388 307.584 
z
" style="fill:#fa9ba4;opacity:0.2;"/>
   </g>
   <g id="patch_17">
    <path clip-path="url(#pfc88c21a9f)" d="M 108.642007 307.584 
L 110.730563 307.584 
L 110.730563 302.466462 
L 108.642007 302.466462 
z
" style="fill:#fa9ba4;opacity:0.2;"/>
   </g>
   <g id="patch_18">
    <path clip-path="url(#pfc88c21a9f)" d="M 110.962625 307.584 
L 113.051182 307.584 
L 113.051182 281.996308 
L 110.962625 281.996308 
z
" style="fill:#fa9ba4;opacity:0.2;"/>
   </g>
   <g id="patch_19">
    <path clip-path="url(#pfc88c21a9f)" d="M 113.283244 307.584 
L 115.371801 307.584 
L 115.371801 307.584 
L 113.283244 307.584 
z
" style="fill:#fa9ba4;opacity:0.2;"/>
   </g>
   <g id="patch_20">
    <path clip-path="url(#pfc88c21a9f)" d="M 115.603862 307.584 
L 117.692419 307.584 
L 117.692419 302.466462 
L 115.603862 302.466462 
z
" style="fill:#fa9ba4;opacity:0.2;"/>
   </g>
   <g id="patch_21">
    <path clip-path="url(#pfc88c21a9f)" d="M 117.924481 307.584 
L 120.013038 307.584 
L 120.013038 307.584 
L 117.924481 307.584 
z
" style="fill:#fa9ba4;opacity:0.2;"/>
   </g>
   <g id="patch_22">
    <path clip-path="url(#pfc88c21a9f)" d="M 120.2451 307.584 
L 122.333657 307.584 
L 122.333657 307.584 
L 120.2451 307.584 
z
" style="fill:#fa9ba4;opacity:0.2;"/>
   </g>
   <g id="patch_23">
    <path clip-path="url(#pfc88c21a9f)" d="M 122.565718 307.584 
L 124.654275 307.584 
L 124.654275 307.584 
L 122.565718 307.584 
z
" style="fill:#fa9ba4;opacity:0.2;"/>
   </g>
   <g id="patch_24">
    <path clip-path="url(#pfc88c21a9f)" d="M 124.886337 307.584 
L 126.974894 307.584 
L 126.974894 307.584 
L 124.886337 307.584 
z
" style="fill:#fa9ba4;opacity:0.2;"/>
   </g>
   <g id="patch_25">
    <path clip-path="url(#pfc88c21a9f)" d="M 127.206956 307.584 
L 129.295512 307.584 
L 129.295512 302.466462 
L 127.206956 302.466462 
z
" style="fill:#fa9ba4;opacity:0.2;"/>
   </g>
   <g id="patch_26">
    <path clip-path="url(#pfc88c21a9f)" d="M 129.527574 307.584 
L 131.616131 307.584 
L 131.616131 307.584 
L 129.527574 307.584 
z
" style="fill:#fa9ba4;opacity:0.2;"/>
   </g>
   <g id="patch_27">
    <path clip-path="url(#pfc88c21a9f)" d="M 131.848193 307.584 
L 133.93675 307.584 
L 133.93675 276.878769 
L 131.848193 276.878769 
z
" style="fill:#fa9ba4;opacity:0.2;"/>
   </g>
   <g id="patch_28">
    <path clip-path="url(#pfc88c21a9f)" d="M 134.168811 307.584 
L 136.257368 307.584 
L 136.257368 220.585846 
L 134.168811 220.585846 
z
" style="fill:#fa9ba4;opacity:0.2;"/>
   </g>
   <g id="patch_29">
    <path clip-path="url(#pfc88c21a9f)" d="M 136.48943 307.584 
L 138.577987 307.584 
L 138.577987 235.938462 
L 136.48943 235.938462 
z
" style="fill:#fa9ba4;opacity:0.2;"/>
   </g>
   <g id="patch_30">
    <path clip-path="url(#pfc88c21a9f)" d="M 138.810049 307.584 
L 140.898605 307.584 
L 140.898605 307.584 
L 138.810049 307.584 
z
" style="fill:#fa9ba4;opacity:0.2;"/>
   </g>
   <g id="patch_31">
    <path clip-path="url(#pfc88c21a9f)" d="M 141.130667 307.584 
L 143.219224 307.584 
L 143.219224 200.115692 
L 141.130667 200.115692 
z
" style="fill:#fa9ba4;opacity:0.2;"/>
   </g>
   <g id="patch_32">
    <path clip-path="url(#pfc88c21a9f)" d="M 143.451286 307.584 
L 145.539843 307.584 
L 145.539843 307.584 
L 143.451286 307.584 
z
" style="fill:#fa9ba4;opacity:0.2;"/>
   </g>
   <g id="patch_33">
    <path clip-path="url(#pfc88c21a9f)" d="M 145.771905 307.584 
L 147.860461 307.584 
L 147.860461 241.056 
L 145.771905 241.056 
z
" style="fill:#fa9ba4;opacity:0.2;"/>
   </g>
   <g id="patch_34">
    <path clip-path="url(#pfc88c21a9f)" d="M 148.092523 307.584 
L 150.18108 307.584 
L 150.18108 307.584 
L 148.092523 307.584 
z
" style="fill:#fa9ba4;opacity:0.2;"/>
   </g>
   <g id="patch_35">
    <path clip-path="url(#pfc88c21a9f)" d="M 150.413142 307.584 
L 152.501699 307.584 
L 152.501699 302.466462 
L 150.413142 302.466462 
z
" style="fill:#fa9ba4;opacity:0.2;"/>
   </g>
   <g id="patch_36">
    <path clip-path="url(#pfc88c21a9f)" d="M 152.73376 307.584 
L 154.822317 307.584 
L 154.822317 307.584 
L 152.73376 307.584 
z
" style="fill:#fa9ba4;opacity:0.2;"/>
   </g>
   <g id="patch_37">
    <path clip-path="url(#pfc88c21a9f)" d="M 155.054379 307.584 
L 157.142936 307.584 
L 157.142936 307.584 
L 155.054379 307.584 
z
" style="fill:#fa9ba4;opacity:0.2;"/>
   </g>
   <g id="patch_38">
    <path clip-path="url(#pfc88c21a9f)" d="M 157.374998 307.584 
L 159.463554 307.584 
L 159.463554 302.466462 
L 157.374998 302.466462 
z
" style="fill:#fa9ba4;opacity:0.2;"/>
   </g>
   <g id="patch_39">
    <path clip-path="url(#pfc88c21a9f)" d="M 159.695616 307.584 
L 161.784173 307.584 
L 161.784173 297.348923 
L 159.695616 297.348923 
z
" style="fill:#fa9ba4;opacity:0.2;"/>
   </g>
   <g id="patch_40">
    <path clip-path="url(#pfc88c21a9f)" d="M 162.016235 307.584 
L 164.104792 307.584 
L 164.104792 281.996308 
L 162.016235 281.996308 
z
" style="fill:#fa9ba4;opacity:0.2;"/>
   </g>
   <g id="patch_41">
    <path clip-path="url(#pfc88c21a9f)" d="M 164.336854 307.584 
L 166.42541 307.584 
L 166.42541 307.584 
L 164.336854 307.584 
z
" style="fill:#fa9ba4;opacity:0.2;"/>
   </g>
   <g id="patch_42">
    <path clip-path="url(#pfc88c21a9f)" d="M 166.657472 307.584 
L 168.746029 307.584 
L 168.746029 307.584 
L 166.657472 307.584 
z
" style="fill:#fa9ba4;opacity:0.2;"/>
   </g>
   <g id="patch_43">
    <path clip-path="url(#pfc88c21a9f)" d="M 168.978091 307.584 
L 171.066648 307.584 
L 171.066648 307.584 
L 168.978091 307.584 
z
" style="fill:#fa9ba4;opacity:0.2;"/>
   </g>
   <g id="patch_44">
    <path clip-path="url(#pfc88c21a9f)" d="M 171.298709 307.584 
L 173.387266 307.584 
L 173.387266 292.231385 
L 171.298709 292.231385 
z
" style="fill:#fa9ba4;opacity:0.2;"/>
   </g>
   <g id="patch_45">
    <path clip-path="url(#pfc88c21a9f)" d="M 173.619328 307.584 
L 175.707885 307.584 
L 175.707885 307.584 
L 173.619328 307.584 
z
" style="fill:#fa9ba4;opacity:0.2;"/>
   </g>
   <g id="patch_46">
    <path clip-path="url(#pfc88c21a9f)" d="M 175.939947 307.584 
L 178.028503 307.584 
L 178.028503 307.584 
L 175.939947 307.584 
z
" style="fill:#fa9ba4;opacity:0.2;"/>
   </g>
   <g id="patch_47">
    <path clip-path="url(#pfc88c21a9f)" d="M 178.260565 307.584 
L 180.349122 307.584 
L 180.349122 302.466462 
L 178.260565 302.466462 
z
" style="fill:#fa9ba4;opacity:0.2;"/>
   </g>
   <g id="patch_48">
    <path clip-path="url(#pfc88c21a9f)" d="M 180.581184 307.584 
L 182.669741 307.584 
L 182.669741 302.466462 
L 180.581184 302.466462 
z
" style="fill:#fa9ba4;opacity:0.2;"/>
   </g>
   <g id="patch_49">
    <path clip-path="url(#pfc88c21a9f)" d="M 182.901803 307.584 
L 184.990359 307.584 
L 184.990359 307.584 
L 182.901803 307.584 
z
" style="fill:#fa9ba4;opacity:0.2;"/>
   </g>
   <g id="patch_50">
    <path clip-path="url(#pfc88c21a9f)" d="M 185.222421 307.584 
L 187.310978 307.584 
L 187.310978 307.584 
L 185.222421 307.584 
z
" style="fill:#fa9ba4;opacity:0.2;"/>
   </g>
   <g id="patch_51">
    <path clip-path="url(#pfc88c21a9f)" d="M 187.54304 307.584 
L 189.631597 307.584 
L 189.631597 307.584 
L 187.54304 307.584 
z
" style="fill:#fa9ba4;opacity:0.2;"/>
   </g>
   <g id="patch_52">
    <path clip-path="url(#pfc88c21a9f)" d="M 189.863658 307.584 
L 191.952215 307.584 
L 191.952215 302.466462 
L 189.863658 302.466462 
z
" style="fill:#fa9ba4;opacity:0.2;"/>
   </g>
   <g id="patch_53">
    <path clip-path="url(#pfc88c21a9f)" d="M 192.184277 307.584 
L 194.272834 307.584 
L 194.272834 281.996308 
L 192.184277 281.996308 
z
" style="fill:#fa9ba4;opacity:0.2;"/>
   </g>
   <g id="patch_54">
    <path clip-path="url(#pfc88c21a9f)" d="M 194.504896 307.584 
L 196.593452 307.584 
L 196.593452 287.113846 
L 194.504896 287.113846 
z
" style="fill:#fa9ba4;opacity:0.2;"/>
   </g>
   <g id="patch_55">
    <path clip-path="url(#pfc88c21a9f)" d="M 196.825514 307.584 
L 198.914071 307.584 
L 198.914071 297.348923 
L 196.825514 297.348923 
z
" style="fill:#fa9ba4;opacity:0.2;"/>
   </g>
   <g id="patch_56">
    <path clip-path="url(#pfc88c21a9f)" d="M 199.146133 307.584 
L 201.23469 307.584 
L 201.23469 266.643692 
L 199.146133 266.643692 
z
" style="fill:#fa9ba4;opacity:0.2;"/>
   </g>
   <g id="patch_57">
    <path clip-path="url(#pfc88c21a9f)" d="M 201.466752 307.584 
L 203.555308 307.584 
L 203.555308 307.584 
L 201.466752 307.584 
z
" style="fill:#fa9ba4;opacity:0.2;"/>
   </g>
   <g id="patch_58">
    <path clip-path="url(#pfc88c21a9f)" d="M 203.78737 307.584 
L 205.875927 307.584 
L 205.875927 307.584 
L 203.78737 307.584 
z
" style="fill:#fa9ba4;opacity:0.2;"/>
   </g>
   <g id="patch_59">
    <path clip-path="url(#pfc88c21a9f)" d="M 206.107989 307.584 
L 208.196546 307.584 
L 208.196546 307.584 
L 206.107989 307.584 
z
" style="fill:#fa9ba4;opacity:0.2;"/>
   </g>
   <g id="patch_60">
    <path clip-path="url(#pfc88c21a9f)" d="M 208.428607 307.584 
L 210.517164 307.584 
L 210.517164 118.235077 
L 208.428607 118.235077 
z
" style="fill:#fa9ba4;opacity:0.2;"/>
   </g>
   <g id="patch_61">
    <path clip-path="url(#pfc88c21a9f)" d="M 210.749226 307.584 
L 212.837783 307.584 
L 212.837783 307.584 
L 210.749226 307.584 
z
" style="fill:#fa9ba4;opacity:0.2;"/>
   </g>
   <g id="patch_62">
    <path clip-path="url(#pfc88c21a9f)" d="M 213.069845 307.584 
L 215.158401 307.584 
L 215.158401 41.472 
L 213.069845 41.472 
z
" style="fill:#fa9ba4;opacity:0.2;"/>
   </g>
   <g id="patch_63">
    <path clip-path="url(#pfc88c21a9f)" d="M 215.390463 307.584 
L 217.47902 307.584 
L 217.47902 271.761231 
L 215.390463 271.761231 
z
" style="fill:#fa9ba4;opacity:0.2;"/>
   </g>
   <g id="patch_64">
    <path clip-path="url(#pfc88c21a9f)" d="M 217.711082 307.584 
L 219.799639 307.584 
L 219.799639 307.584 
L 217.711082 307.584 
z
" style="fill:#fa9ba4;opacity:0.2;"/>
   </g>
   <g id="patch_65">
    <path clip-path="url(#pfc88c21a9f)" d="M 220.031701 307.584 
L 222.120257 307.584 
L 222.120257 307.584 
L 220.031701 307.584 
z
" style="fill:#fa9ba4;opacity:0.2;"/>
   </g>
   <g id="patch_66">
    <path clip-path="url(#pfc88c21a9f)" d="M 222.352319 307.584 
L 224.440876 307.584 
L 224.440876 297.348923 
L 222.352319 297.348923 
z
" style="fill:#fa9ba4;opacity:0.2;"/>
   </g>
   <g id="patch_67">
    <path clip-path="url(#pfc88c21a9f)" d="M 224.672938 307.584 
L 226.761495 307.584 
L 226.761495 302.466462 
L 224.672938 302.466462 
z
" style="fill:#fa9ba4;opacity:0.2;"/>
   </g>
   <g id="patch_68">
    <path clip-path="url(#pfc88c21a9f)" d="M 226.993556 307.584 
L 229.082113 307.584 
L 229.082113 307.584 
L 226.993556 307.584 
z
" style="fill:#fa9ba4;opacity:0.2;"/>
   </g>
   <g id="patch_69">
    <path clip-path="url(#pfc88c21a9f)" d="M 229.314175 307.584 
L 231.402732 307.584 
L 231.402732 307.584 
L 229.314175 307.584 
z
" style="fill:#fa9ba4;opacity:0.2;"/>
   </g>
   <g id="patch_70">
    <path clip-path="url(#pfc88c21a9f)" d="M 231.634794 307.584 
L 233.72335 307.584 
L 233.72335 307.584 
L 231.634794 307.584 
z
" style="fill:#fa9ba4;opacity:0.2;"/>
   </g>
   <g id="patch_71">
    <path clip-path="url(#pfc88c21a9f)" d="M 233.955412 307.584 
L 236.043969 307.584 
L 236.043969 241.056 
L 233.955412 241.056 
z
" style="fill:#fa9ba4;opacity:0.2;"/>
   </g>
   <g id="patch_72">
    <path clip-path="url(#pfc88c21a9f)" d="M 236.276031 307.584 
L 238.364588 307.584 
L 238.364588 297.348923 
L 236.276031 297.348923 
z
" style="fill:#fa9ba4;opacity:0.2;"/>
   </g>
   <g id="patch_73">
    <path clip-path="url(#pfc88c21a9f)" d="M 238.59665 307.584 
L 240.685206 307.584 
L 240.685206 307.584 
L 238.59665 307.584 
z
" style="fill:#fa9ba4;opacity:0.2;"/>
   </g>
   <g id="patch_74">
    <path clip-path="url(#pfc88c21a9f)" d="M 240.917268 307.584 
L 243.005825 307.584 
L 243.005825 302.466462 
L 240.917268 302.466462 
z
" style="fill:#fa9ba4;opacity:0.2;"/>
   </g>
   <g id="patch_75">
    <path clip-path="url(#pfc88c21a9f)" d="M 243.237887 307.584 
L 245.326444 307.584 
L 245.326444 307.584 
L 243.237887 307.584 
z
" style="fill:#fa9ba4;opacity:0.2;"/>
   </g>
   <g id="patch_76">
    <path clip-path="url(#pfc88c21a9f)" d="M 245.558505 307.584 
L 247.647062 307.584 
L 247.647062 281.996308 
L 245.558505 281.996308 
z
" style="fill:#fa9ba4;opacity:0.2;"/>
   </g>
   <g id="patch_77">
    <path clip-path="url(#pfc88c21a9f)" d="M 247.879124 307.584 
L 249.967681 307.584 
L 249.967681 307.584 
L 247.879124 307.584 
z
" style="fill:#fa9ba4;opacity:0.2;"/>
   </g>
   <g id="patch_78">
    <path clip-path="url(#pfc88c21a9f)" d="M 250.199743 307.584 
L 252.288299 307.584 
L 252.288299 292.231385 
L 250.199743 292.231385 
z
" style="fill:#fa9ba4;opacity:0.2;"/>
   </g>
   <g id="patch_79">
    <path clip-path="url(#pfc88c21a9f)" d="M 252.520361 307.584 
L 254.608918 307.584 
L 254.608918 287.113846 
L 252.520361 287.113846 
z
" style="fill:#fa9ba4;opacity:0.2;"/>
   </g>
   <g id="patch_80">
    <path clip-path="url(#pfc88c21a9f)" d="M 254.84098 307.584 
L 256.929537 307.584 
L 256.929537 287.113846 
L 254.84098 287.113846 
z
" style="fill:#fa9ba4;opacity:0.2;"/>
   </g>
   <g id="patch_81">
    <path clip-path="url(#pfc88c21a9f)" d="M 257.161599 307.584 
L 259.250155 307.584 
L 259.250155 292.231385 
L 257.161599 292.231385 
z
" style="fill:#fa9ba4;opacity:0.2;"/>
   </g>
   <g id="patch_82">
    <path clip-path="url(#pfc88c21a9f)" d="M 259.482217 307.584 
L 261.570774 307.584 
L 261.570774 297.348923 
L 259.482217 297.348923 
z
" style="fill:#fa9ba4;opacity:0.2;"/>
   </g>
   <g id="patch_83">
    <path clip-path="url(#pfc88c21a9f)" d="M 261.802836 307.584 
L 263.891393 307.584 
L 263.891393 297.348923 
L 261.802836 297.348923 
z
" style="fill:#fa9ba4;opacity:0.2;"/>
   </g>
   <g id="patch_84">
    <path clip-path="url(#pfc88c21a9f)" d="M 264.123454 307.584 
L 266.212011 307.584 
L 266.212011 281.996308 
L 264.123454 281.996308 
z
" style="fill:#fa9ba4;opacity:0.2;"/>
   </g>
   <g id="patch_85">
    <path clip-path="url(#pfc88c21a9f)" d="M 266.444073 307.584 
L 268.53263 307.584 
L 268.53263 297.348923 
L 266.444073 297.348923 
z
" style="fill:#fa9ba4;opacity:0.2;"/>
   </g>
   <g id="patch_86">
    <path clip-path="url(#pfc88c21a9f)" d="M 268.764692 307.584 
L 270.853248 307.584 
L 270.853248 307.584 
L 268.764692 307.584 
z
" style="fill:#fa9ba4;opacity:0.2;"/>
   </g>
   <g id="patch_87">
    <path clip-path="url(#pfc88c21a9f)" d="M 271.08531 307.584 
L 273.173867 307.584 
L 273.173867 292.231385 
L 271.08531 292.231385 
z
" style="fill:#fa9ba4;opacity:0.2;"/>
   </g>
   <g id="patch_88">
    <path clip-path="url(#pfc88c21a9f)" d="M 273.405929 307.584 
L 275.494486 307.584 
L 275.494486 307.584 
L 273.405929 307.584 
z
" style="fill:#fa9ba4;opacity:0.2;"/>
   </g>
   <g id="patch_89">
    <path clip-path="url(#pfc88c21a9f)" d="M 275.726548 307.584 
L 277.815104 307.584 
L 277.815104 281.996308 
L 275.726548 281.996308 
z
" style="fill:#fa9ba4;opacity:0.2;"/>
   </g>
   <g id="patch_90">
    <path clip-path="url(#pfc88c21a9f)" d="M 278.047166 307.584 
L 280.135723 307.584 
L 280.135723 302.466462 
L 278.047166 302.466462 
z
" style="fill:#fa9ba4;opacity:0.2;"/>
   </g>
   <g id="patch_91">
    <path clip-path="url(#pfc88c21a9f)" d="M 280.367785 307.584 
L 282.456342 307.584 
L 282.456342 307.584 
L 280.367785 307.584 
z
" style="fill:#fa9ba4;opacity:0.2;"/>
   </g>
   <g id="patch_92">
    <path clip-path="url(#pfc88c21a9f)" d="M 282.688403 307.584 
L 284.77696 307.584 
L 284.77696 256.408615 
L 282.688403 256.408615 
z
" style="fill:#fa9ba4;opacity:0.2;"/>
   </g>
   <g id="patch_93">
    <path clip-path="url(#pfc88c21a9f)" d="M 285.009022 307.584 
L 287.097579 307.584 
L 287.097579 307.584 
L 285.009022 307.584 
z
" style="fill:#fa9ba4;opacity:0.2;"/>
   </g>
   <g id="patch_94">
    <path clip-path="url(#pfc88c21a9f)" d="M 287.329641 307.584 
L 289.418197 307.584 
L 289.418197 261.526154 
L 287.329641 261.526154 
z
" style="fill:#fa9ba4;opacity:0.2;"/>
   </g>
   <g id="patch_95">
    <path clip-path="url(#pfc88c21a9f)" d="M 289.650259 307.584 
L 291.738816 307.584 
L 291.738816 307.584 
L 289.650259 307.584 
z
" style="fill:#fa9ba4;opacity:0.2;"/>
   </g>
   <g id="patch_96">
    <path clip-path="url(#pfc88c21a9f)" d="M 291.970878 307.584 
L 294.059435 307.584 
L 294.059435 307.584 
L 291.970878 307.584 
z
" style="fill:#fa9ba4;opacity:0.2;"/>
   </g>
   <g id="patch_97">
    <path clip-path="url(#pfc88c21a9f)" d="M 294.291497 307.584 
L 296.380053 307.584 
L 296.380053 297.348923 
L 294.291497 297.348923 
z
" style="fill:#fa9ba4;opacity:0.2;"/>
   </g>
   <g id="patch_98">
    <path clip-path="url(#pfc88c21a9f)" d="M 296.612115 307.584 
L 298.700672 307.584 
L 298.700672 307.584 
L 296.612115 307.584 
z
" style="fill:#fa9ba4;opacity:0.2;"/>
   </g>
   <g id="patch_99">
    <path clip-path="url(#pfc88c21a9f)" d="M 298.932734 307.584 
L 301.021291 307.584 
L 301.021291 307.584 
L 298.932734 307.584 
z
" style="fill:#fa9ba4;opacity:0.2;"/>
   </g>
   <g id="patch_100">
    <path clip-path="url(#pfc88c21a9f)" d="M 301.253352 307.584 
L 303.341909 307.584 
L 303.341909 307.584 
L 301.253352 307.584 
z
" style="fill:#fa9ba4;opacity:0.2;"/>
   </g>
   <g id="patch_101">
    <path clip-path="url(#pfc88c21a9f)" d="M 303.573971 307.584 
L 305.662528 307.584 
L 305.662528 292.231385 
L 303.573971 292.231385 
z
" style="fill:#fa9ba4;opacity:0.2;"/>
   </g>
   <g id="patch_102">
    <path clip-path="url(#pfc88c21a9f)" d="M 305.89459 307.584 
L 307.983146 307.584 
L 307.983146 307.584 
L 305.89459 307.584 
z
" style="fill:#fa9ba4;opacity:0.2;"/>
   </g>
   <g id="patch_103">
    <path clip-path="url(#pfc88c21a9f)" d="M 308.215208 307.584 
L 310.303765 307.584 
L 310.303765 281.996308 
L 308.215208 281.996308 
z
" style="fill:#fa9ba4;opacity:0.2;"/>
   </g>
   <g id="patch_104">
    <path clip-path="url(#pfc88c21a9f)" d="M 310.535827 307.584 
L 312.624384 307.584 
L 312.624384 302.466462 
L 310.535827 302.466462 
z
" style="fill:#fa9ba4;opacity:0.2;"/>
   </g>
   <g id="patch_105">
    <path clip-path="url(#pfc88c21a9f)" d="M 312.856446 307.584 
L 314.945002 307.584 
L 314.945002 307.584 
L 312.856446 307.584 
z
" style="fill:#fa9ba4;opacity:0.2;"/>
   </g>
   <g id="patch_106">
    <path clip-path="url(#pfc88c21a9f)" d="M 315.177064 307.584 
L 317.265621 307.584 
L 317.265621 307.584 
L 315.177064 307.584 
z
" style="fill:#fa9ba4;opacity:0.2;"/>
   </g>
   <g id="patch_107">
    <path clip-path="url(#pfc88c21a9f)" d="M 317.497683 307.584 
L 319.58624 307.584 
L 319.58624 307.584 
L 317.497683 307.584 
z
" style="fill:#fa9ba4;opacity:0.2;"/>
   </g>
   <g id="patch_108">
    <path clip-path="url(#pfc88c21a9f)" d="M 319.818301 307.584 
L 321.906858 307.584 
L 321.906858 297.348923 
L 319.818301 297.348923 
z
" style="fill:#fa9ba4;opacity:0.2;"/>
   </g>
   <g id="patch_109">
    <path clip-path="url(#pfc88c21a9f)" d="M 322.13892 307.584 
L 324.227477 307.584 
L 324.227477 307.584 
L 322.13892 307.584 
z
" style="fill:#fa9ba4;opacity:0.2;"/>
   </g>
   <g id="patch_110">
    <path clip-path="url(#pfc88c21a9f)" d="M 324.459539 307.584 
L 326.548095 307.584 
L 326.548095 297.348923 
L 324.459539 297.348923 
z
" style="fill:#fa9ba4;opacity:0.2;"/>
   </g>
   <g id="patch_111">
    <path clip-path="url(#pfc88c21a9f)" d="M 326.780157 307.584 
L 328.868714 307.584 
L 328.868714 302.466462 
L 326.780157 302.466462 
z
" style="fill:#fa9ba4;opacity:0.2;"/>
   </g>
   <g id="patch_112">
    <path clip-path="url(#pfc88c21a9f)" d="M 329.100776 307.584 
L 331.189333 307.584 
L 331.189333 307.584 
L 329.100776 307.584 
z
" style="fill:#fa9ba4;opacity:0.2;"/>
   </g>
   <g id="patch_113">
    <path clip-path="url(#pfc88c21a9f)" d="M 331.421395 307.584 
L 333.509951 307.584 
L 333.509951 302.466462 
L 331.421395 302.466462 
z
" style="fill:#fa9ba4;opacity:0.2;"/>
   </g>
   <g id="patch_114">
    <path clip-path="url(#pfc88c21a9f)" d="M 333.742013 307.584 
L 335.83057 307.584 
L 335.83057 302.466462 
L 333.742013 302.466462 
z
" style="fill:#fa9ba4;opacity:0.2;"/>
   </g>
   <g id="patch_115">
    <path clip-path="url(#pfc88c21a9f)" d="M 336.062632 307.584 
L 338.151189 307.584 
L 338.151189 307.584 
L 336.062632 307.584 
z
" style="fill:#fa9ba4;opacity:0.2;"/>
   </g>
   <g id="patch_116">
    <path clip-path="url(#pfc88c21a9f)" d="M 338.38325 307.584 
L 340.471807 307.584 
L 340.471807 307.584 
L 338.38325 307.584 
z
" style="fill:#fa9ba4;opacity:0.2;"/>
   </g>
   <g id="patch_117">
    <path clip-path="url(#pfc88c21a9f)" d="M 340.703869 307.584 
L 342.792426 307.584 
L 342.792426 307.584 
L 340.703869 307.584 
z
" style="fill:#fa9ba4;opacity:0.2;"/>
   </g>
   <g id="patch_118">
    <path clip-path="url(#pfc88c21a9f)" d="M 343.024488 307.584 
L 345.113044 307.584 
L 345.113044 302.466462 
L 343.024488 302.466462 
z
" style="fill:#fa9ba4;opacity:0.2;"/>
   </g>
   <g id="patch_119">
    <path clip-path="url(#pfc88c21a9f)" d="M 345.345106 307.584 
L 347.433663 307.584 
L 347.433663 302.466462 
L 345.345106 302.466462 
z
" style="fill:#fa9ba4;opacity:0.2;"/>
   </g>
   <g id="patch_120">
    <path clip-path="url(#pfc88c21a9f)" d="M 347.665725 307.584 
L 349.754282 307.584 
L 349.754282 297.348923 
L 347.665725 297.348923 
z
" style="fill:#fa9ba4;opacity:0.2;"/>
   </g>
   <g id="patch_121">
    <path clip-path="url(#pfc88c21a9f)" d="M 349.986343 307.584 
L 352.0749 307.584 
L 352.0749 297.348923 
L 349.986343 297.348923 
z
" style="fill:#fa9ba4;opacity:0.2;"/>
   </g>
   <g id="patch_122">
    <path clip-path="url(#pfc88c21a9f)" d="M 352.306962 307.584 
L 354.395519 307.584 
L 354.395519 302.466462 
L 352.306962 302.466462 
z
" style="fill:#fa9ba4;opacity:0.2;"/>
   </g>
   <g id="patch_123">
    <path clip-path="url(#pfc88c21a9f)" d="M 354.627581 307.584 
L 356.716138 307.584 
L 356.716138 281.996308 
L 354.627581 281.996308 
z
" style="fill:#fa9ba4;opacity:0.2;"/>
   </g>
   <g id="patch_124">
    <path clip-path="url(#pfc88c21a9f)" d="M 356.948199 307.584 
L 359.036756 307.584 
L 359.036756 281.996308 
L 356.948199 281.996308 
z
" style="fill:#fa9ba4;opacity:0.2;"/>
   </g>
   <g id="patch_125">
    <path clip-path="url(#pfc88c21a9f)" d="M 359.268818 307.584 
L 361.357375 307.584 
L 361.357375 302.466462 
L 359.268818 302.466462 
z
" style="fill:#fa9ba4;opacity:0.2;"/>
   </g>
   <g id="patch_126">
    <path clip-path="url(#pfc88c21a9f)" d="M 361.589437 307.584 
L 363.677993 307.584 
L 363.677993 241.056 
L 361.589437 241.056 
z
" style="fill:#fa9ba4;opacity:0.2;"/>
   </g>
   <g id="patch_127">
    <path clip-path="url(#pfc88c21a9f)" d="M 363.910055 307.584 
L 365.998612 307.584 
L 365.998612 287.113846 
L 363.910055 287.113846 
z
" style="fill:#fa9ba4;opacity:0.2;"/>
   </g>
   <g id="patch_128">
    <path clip-path="url(#pfc88c21a9f)" d="M 366.230674 307.584 
L 368.319231 307.584 
L 368.319231 287.113846 
L 366.230674 287.113846 
z
" style="fill:#fa9ba4;opacity:0.2;"/>
   </g>
   <g id="patch_129">
    <path clip-path="url(#pfc88c21a9f)" d="M 368.551292 307.584 
L 370.639849 307.584 
L 370.639849 266.643692 
L 368.551292 266.643692 
z
" style="fill:#fa9ba4;opacity:0.2;"/>
   </g>
   <g id="patch_130">
    <path clip-path="url(#pfc88c21a9f)" d="M 370.871911 307.584 
L 372.960468 307.584 
L 372.960468 292.231385 
L 370.871911 292.231385 
z
" style="fill:#fa9ba4;opacity:0.2;"/>
   </g>
   <g id="patch_131">
    <path clip-path="url(#pfc88c21a9f)" d="M 373.19253 307.584 
L 375.281086 307.584 
L 375.281086 281.996308 
L 373.19253 281.996308 
z
" style="fill:#fa9ba4;opacity:0.2;"/>
   </g>
   <g id="patch_132">
    <path clip-path="url(#pfc88c21a9f)" d="M 375.513148 307.584 
L 377.601705 307.584 
L 377.601705 307.584 
L 375.513148 307.584 
z
" style="fill:#fa9ba4;opacity:0.2;"/>
   </g>
   <g id="patch_133">
    <path clip-path="url(#pfc88c21a9f)" d="M 377.833767 307.584 
L 379.922324 307.584 
L 379.922324 297.348923 
L 377.833767 297.348923 
z
" style="fill:#fa9ba4;opacity:0.2;"/>
   </g>
   <g id="patch_134">
    <path clip-path="url(#pfc88c21a9f)" d="M 380.154386 307.584 
L 382.242942 307.584 
L 382.242942 297.348923 
L 380.154386 297.348923 
z
" style="fill:#fa9ba4;opacity:0.2;"/>
   </g>
   <g id="patch_135">
    <path clip-path="url(#pfc88c21a9f)" d="M 382.475004 307.584 
L 384.563561 307.584 
L 384.563561 307.584 
L 382.475004 307.584 
z
" style="fill:#fa9ba4;opacity:0.2;"/>
   </g>
   <g id="patch_136">
    <path clip-path="url(#pfc88c21a9f)" d="M 384.795623 307.584 
L 386.88418 307.584 
L 386.88418 297.348923 
L 384.795623 297.348923 
z
" style="fill:#fa9ba4;opacity:0.2;"/>
   </g>
   <g id="patch_137">
    <path clip-path="url(#pfc88c21a9f)" d="M 387.116241 307.584 
L 389.204798 307.584 
L 389.204798 292.231385 
L 387.116241 292.231385 
z
" style="fill:#fa9ba4;opacity:0.2;"/>
   </g>
   <g id="patch_138">
    <path clip-path="url(#pfc88c21a9f)" d="M 389.43686 307.584 
L 391.525417 307.584 
L 391.525417 302.466462 
L 389.43686 302.466462 
z
" style="fill:#fa9ba4;opacity:0.2;"/>
   </g>
   <g id="patch_139">
    <path clip-path="url(#pfc88c21a9f)" d="M 391.757479 307.584 
L 393.846035 307.584 
L 393.846035 307.584 
L 391.757479 307.584 
z
" style="fill:#fa9ba4;opacity:0.2;"/>
   </g>
   <g id="patch_140">
    <path clip-path="url(#pfc88c21a9f)" d="M 394.078097 307.584 
L 396.166654 307.584 
L 396.166654 307.584 
L 394.078097 307.584 
z
" style="fill:#fa9ba4;opacity:0.2;"/>
   </g>
   <g id="patch_141">
    <path clip-path="url(#pfc88c21a9f)" d="M 396.398716 307.584 
L 398.487273 307.584 
L 398.487273 307.584 
L 396.398716 307.584 
z
" style="fill:#fa9ba4;opacity:0.2;"/>
   </g>
   <g id="matplotlib.axis_1"/>
   <g id="matplotlib.axis_2"/>
   <g id="PolyCollection_1">
    <defs>
     <path d="M 367.274952 -62.141538 
L 367.274952 -38.016 
L 369.595571 -38.016 
L 371.916189 -38.016 
L 374.236808 -38.016 
L 376.557427 -38.016 
L 378.878045 -38.016 
L 381.198664 -38.016 
L 383.519283 -38.016 
L 385.839901 -38.016 
L 388.16052 -38.016 
L 390.481138 -38.016 
L 392.801757 -38.016 
L 395.122376 -38.016 
L 397.442994 -38.016 
L 397.442994 -42.402462 
L 397.442994 -42.402462 
L 395.122376 -43.864615 
L 392.801757 -45.326769 
L 390.481138 -45.326769 
L 388.16052 -48.251077 
L 385.839901 -48.251077 
L 383.519283 -52.637538 
L 381.198664 -55.561846 
L 378.878045 -57.024 
L 376.557427 -65.065846 
L 374.236808 -65.796923 
L 371.916189 -65.796923 
L 369.595571 -67.259077 
L 367.274952 -62.141538 
z
" id="m373c436fe1" style="stroke:#dc3545;stroke-opacity:0.5;"/>
    </defs>
    <g clip-path="url(#pfc88c21a9f)">
     <use style="fill:#dc3545;fill-opacity:0.5;stroke:#dc3545;stroke-opacity:0.5;" x="0" xlink:href="#m373c436fe1" y="345.6"/>
    </g>
   </g>
   <g id="PolyCollection_2">
    <defs>
     <path d="M 88.800717 -38.747077 
L 88.800717 -38.016 
L 91.121336 -38.016 
L 93.441955 -38.016 
L 95.762573 -38.016 
L 98.083192 -38.016 
L 100.403811 -38.016 
L 102.724429 -38.016 
L 105.045048 -38.016 
L 107.365666 -38.016 
L 109.686285 -38.016 
L 112.006904 -38.016 
L 114.327522 -38.016 
L 116.648141 -38.016 
L 118.96876 -38.016 
L 121.289378 -38.016 
L 123.609997 -38.016 
L 125.930615 -38.016 
L 128.251234 -38.016 
L 130.571853 -38.016 
L 132.892471 -38.016 
L 135.21309 -38.016 
L 137.533708 -38.016 
L 139.854327 -38.016 
L 142.174946 -38.016 
L 144.495564 -38.016 
L 146.816183 -38.016 
L 149.136802 -38.016 
L 151.45742 -38.016 
L 153.778039 -38.016 
L 156.098657 -38.016 
L 158.419276 -38.016 
L 160.739895 -38.016 
L 163.060513 -38.016 
L 165.381132 -38.016 
L 167.701751 -38.016 
L 170.022369 -38.016 
L 172.342988 -38.016 
L 174.663606 -38.016 
L 176.984225 -38.016 
L 179.304844 -38.016 
L 181.625462 -38.016 
L 183.946081 -38.016 
L 186.2667 -38.016 
L 188.587318 -38.016 
L 190.907937 -38.016 
L 193.228555 -38.016 
L 195.549174 -38.016 
L 197.869793 -38.016 
L 200.190411 -38.016 
L 202.51103 -38.016 
L 204.831649 -38.016 
L 207.152267 -38.016 
L 209.472886 -38.016 
L 211.793504 -38.016 
L 214.114123 -38.016 
L 216.434742 -38.016 
L 218.75536 -38.016 
L 221.075979 -38.016 
L 223.396598 -38.016 
L 225.717216 -38.016 
L 228.037835 -38.016 
L 230.358453 -38.016 
L 232.679072 -38.016 
L 234.999691 -38.016 
L 237.320309 -38.016 
L 239.640928 -38.016 
L 241.961547 -38.016 
L 244.282165 -38.016 
L 246.602784 -38.016 
L 248.923402 -38.016 
L 251.244021 -38.016 
L 253.56464 -38.016 
L 255.885258 -38.016 
L 258.205877 -38.016 
L 260.526496 -38.016 
L 262.847114 -38.016 
L 265.167733 -38.016 
L 267.488351 -38.016 
L 269.80897 -38.016 
L 272.129589 -38.016 
L 274.450207 -38.016 
L 276.770826 -38.016 
L 279.091445 -38.016 
L 281.412063 -38.016 
L 283.732682 -38.016 
L 286.0533 -38.016 
L 288.373919 -38.016 
L 290.694538 -38.016 
L 293.015156 -38.016 
L 295.335775 -38.016 
L 297.656394 -38.016 
L 299.977012 -38.016 
L 302.297631 -38.016 
L 304.618249 -38.016 
L 306.938868 -38.016 
L 309.259487 -38.016 
L 311.580105 -38.016 
L 313.900724 -38.016 
L 316.221343 -38.016 
L 318.541961 -38.016 
L 320.86258 -38.016 
L 323.183198 -38.016 
L 325.503817 -38.016 
L 327.824436 -38.016 
L 330.145054 -38.016 
L 332.465673 -38.016 
L 334.786292 -38.016 
L 337.10691 -38.016 
L 339.427529 -38.016 
L 341.748147 -38.016 
L 344.068766 -38.016 
L 346.389385 -38.016 
L 348.710003 -38.016 
L 351.030622 -38.016 
L 353.35124 -38.016 
L 355.671859 -38.016 
L 357.992478 -38.016 
L 360.313096 -38.016 
L 362.633715 -38.016 
L 364.954334 -38.016 
L 367.274952 -38.016 
L 367.274952 -62.141538 
L 367.274952 -62.141538 
L 364.954334 -60.679385 
L 362.633715 -59.217231 
L 360.313096 -50.444308 
L 357.992478 -50.444308 
L 355.671859 -46.788923 
L 353.35124 -43.133538 
L 351.030622 -42.402462 
L 348.710003 -41.671385 
L 346.389385 -40.940308 
L 344.068766 -40.209231 
L 341.748147 -40.209231 
L 339.427529 -41.671385 
L 337.10691 -41.671385 
L 334.786292 -43.133538 
L 332.465673 -42.402462 
L 330.145054 -41.671385 
L 327.824436 -41.671385 
L 325.503817 -41.671385 
L 323.183198 -43.864615 
L 320.86258 -43.864615 
L 318.541961 -44.595692 
L 316.221343 -44.595692 
L 313.900724 -44.595692 
L 311.580105 -44.595692 
L 309.259487 -45.326769 
L 306.938868 -41.671385 
L 304.618249 -41.671385 
L 302.297631 -46.057846 
L 299.977012 -46.057846 
L 297.656394 -53.368615 
L 295.335775 -53.368615 
L 293.015156 -52.637538 
L 290.694538 -56.292923 
L 288.373919 -56.292923 
L 286.0533 -51.906462 
L 283.732682 -51.906462 
L 281.412063 -46.057846 
L 279.091445 -49.713231 
L 276.770826 -50.444308 
L 274.450207 -48.251077 
L 272.129589 -50.444308 
L 269.80897 -51.175385 
L 267.488351 -54.099692 
L 265.167733 -54.830769 
L 262.847114 -51.175385 
L 260.526496 -53.368615 
L 258.205877 -51.906462 
L 255.885258 -50.444308 
L 253.56464 -47.52 
L 251.244021 -46.057846 
L 248.923402 -53.368615 
L 246.602784 -53.368615 
L 244.282165 -49.713231 
L 241.961547 -49.713231 
L 239.640928 -49.713231 
L 237.320309 -51.175385 
L 234.999691 -49.713231 
L 232.679072 -40.209231 
L 230.358453 -45.326769 
L 228.037835 -83.342769 
L 225.717216 -83.342769 
L 223.396598 -109.661538 
L 221.075979 -108.199385 
L 218.75536 -108.199385 
L 216.434742 -108.199385 
L 214.114123 -108.930462 
L 211.793504 -72.376615 
L 209.472886 -75.300923 
L 207.152267 -51.906462 
L 204.831649 -52.637538 
L 202.51103 -52.637538 
L 200.190411 -52.637538 
L 197.869793 -46.788923 
L 195.549174 -46.057846 
L 193.228555 -43.864615 
L 190.907937 -40.209231 
L 188.587318 -39.478154 
L 186.2667 -41.671385 
L 183.946081 -41.671385 
L 181.625462 -41.671385 
L 179.304844 -40.940308 
L 176.984225 -43.864615 
L 174.663606 -45.326769 
L 172.342988 -46.057846 
L 170.022369 -43.864615 
L 167.701751 -43.864615 
L 165.381132 -44.595692 
L 163.060513 -44.595692 
L 160.739895 -50.444308 
L 158.419276 -48.982154 
L 156.098657 -63.603692 
L 153.778039 -63.603692 
L 151.45742 -73.838769 
L 149.136802 -85.536 
L 146.816183 -89.922462 
L 144.495564 -80.418462 
L 142.174946 -81.149538 
L 139.854327 -65.796923 
L 137.533708 -65.796923 
L 135.21309 -55.561846 
L 132.892471 -43.133538 
L 130.571853 -39.478154 
L 128.251234 -39.478154 
L 125.930615 -42.402462 
L 123.609997 -43.133538 
L 121.289378 -43.133538 
L 118.96876 -43.133538 
L 116.648141 -45.326769 
L 114.327522 -44.595692 
L 112.006904 -44.595692 
L 109.686285 -41.671385 
L 107.365666 -42.402462 
L 105.045048 -42.402462 
L 102.724429 -43.133538 
L 100.403811 -40.940308 
L 98.083192 -40.940308 
L 95.762573 -40.940308 
L 93.441955 -40.209231 
L 91.121336 -38.747077 
L 88.800717 -38.747077 
z
" id="m974ef14c98" style="stroke:#fa9ba4;stroke-opacity:0.3;"/>
    </defs>
    <g clip-path="url(#pfc88c21a9f)">
     <use style="fill:#fa9ba4;fill-opacity:0.3;stroke:#fa9ba4;stroke-opacity:0.3;" x="0" xlink:href="#m974ef14c98" y="345.6"/>
    </g>
   </g>
   <g id="line2d_1">
    <path clip-path="url(#pfc88c21a9f)" d="M 88.800717 306.852923 
L 91.121336 306.852923 
L 93.441955 305.390769 
L 95.762573 304.659692 
L 100.403811 304.659692 
L 102.724429 302.466462 
L 105.045048 303.197538 
L 107.365666 303.197538 
L 109.686285 303.928615 
L 112.006904 301.004308 
L 114.327522 301.004308 
L 116.648141 300.273231 
L 118.96876 302.466462 
L 123.609997 302.466462 
L 125.930615 303.197538 
L 128.251234 306.121846 
L 130.571853 306.121846 
L 132.892471 302.466462 
L 135.21309 290.038154 
L 137.533708 279.803077 
L 139.854327 279.803077 
L 142.174946 264.450462 
L 144.495564 265.181538 
L 146.816183 255.677538 
L 149.136802 260.064 
L 151.45742 271.761231 
L 153.778039 281.996308 
L 156.098657 281.996308 
L 158.419276 296.617846 
L 160.739895 295.155692 
L 163.060513 301.004308 
L 165.381132 301.004308 
L 167.701751 301.735385 
L 170.022369 301.735385 
L 172.342988 299.542154 
L 174.663606 300.273231 
L 176.984225 301.735385 
L 179.304844 304.659692 
L 181.625462 303.928615 
L 186.2667 303.928615 
L 188.587318 306.121846 
L 190.907937 305.390769 
L 193.228555 301.735385 
L 195.549174 299.542154 
L 197.869793 298.811077 
L 200.190411 292.962462 
L 204.831649 292.962462 
L 207.152267 293.693538 
L 209.472886 270.299077 
L 211.793504 273.223385 
L 214.114123 236.669538 
L 216.434742 237.400615 
L 221.075979 237.400615 
L 223.396598 235.938462 
L 225.717216 262.257231 
L 228.037835 262.257231 
L 230.358453 300.273231 
L 232.679072 305.390769 
L 234.999691 295.886769 
L 237.320309 294.424615 
L 239.640928 295.886769 
L 244.282165 295.886769 
L 246.602784 292.231385 
L 248.923402 292.231385 
L 251.244021 299.542154 
L 253.56464 298.08 
L 255.885258 295.155692 
L 260.526496 292.231385 
L 262.847114 294.424615 
L 265.167733 290.769231 
L 267.488351 291.500308 
L 269.80897 294.424615 
L 272.129589 295.155692 
L 274.450207 297.348923 
L 276.770826 295.155692 
L 279.091445 295.886769 
L 281.412063 299.542154 
L 283.732682 293.693538 
L 286.0533 293.693538 
L 288.373919 289.307077 
L 290.694538 289.307077 
L 293.015156 292.962462 
L 295.335775 292.231385 
L 297.656394 292.231385 
L 299.977012 299.542154 
L 302.297631 299.542154 
L 304.618249 303.928615 
L 306.938868 303.928615 
L 309.259487 300.273231 
L 311.580105 301.004308 
L 318.541961 301.004308 
L 320.86258 301.735385 
L 323.183198 301.735385 
L 325.503817 303.928615 
L 330.145054 303.928615 
L 334.786292 302.466462 
L 337.10691 303.928615 
L 339.427529 303.928615 
L 341.748147 305.390769 
L 344.068766 305.390769 
L 353.35124 302.466462 
L 357.992478 295.155692 
L 360.313096 295.155692 
L 362.633715 286.382769 
L 367.274952 283.458462 
L 369.595571 278.340923 
L 371.916189 279.803077 
L 374.236808 279.803077 
L 376.557427 280.534154 
L 378.878045 288.576 
L 381.198664 290.038154 
L 383.519283 292.962462 
L 385.839901 297.348923 
L 388.16052 297.348923 
L 390.481138 300.273231 
L 392.801757 300.273231 
L 397.442994 303.197538 
L 397.442994 303.197538 
" style="fill:none;stroke:#fa9ba4;stroke-linecap:square;stroke-width:2;"/>
   </g>
   <g id="line2d_2">
    <path clip-path="url(#pfc88c21a9f)" d="M 367.274952 283.458462 
L 369.595571 278.340923 
L 371.916189 279.803077 
L 374.236808 279.803077 
L 376.557427 280.534154 
L 378.878045 288.576 
L 381.198664 290.038154 
L 383.519283 292.962462 
L 385.839901 297.348923 
L 388.16052 297.348923 
L 390.481138 300.273231 
L 392.801757 300.273231 
L 395.122376 301.735385 
L 397.442994 303.197538 
" style="fill:none;stroke:#dc3545;stroke-linecap:square;stroke-width:2;"/>
   </g>
  </g>
 </g>
 <defs>
  <clipPath id="pfc88c21a9f">
   <rect height="266.112" width="357.12" x="57.6" y="41.472"/>
  </clipPath>
 </defs>
</svg>
