<?xml version="1.0" encoding="utf-8" standalone="no"?>
<!DOCTYPE svg PUBLIC "-//W3C//DTD SVG 1.1//EN"
  "http://www.w3.org/Graphics/SVG/1.1/DTD/svg11.dtd">
<!-- Created with matplotlib (https://matplotlib.org/) -->
<svg height="345.6pt" version="1.1" viewBox="0 0 460.8 345.6" width="460.8pt" xmlns="http://www.w3.org/2000/svg" xmlns:xlink="http://www.w3.org/1999/xlink">
 <metadata>
  <rdf:RDF xmlns:cc="http://creativecommons.org/ns#" xmlns:dc="http://purl.org/dc/elements/1.1/" xmlns:rdf="http://www.w3.org/1999/02/22-rdf-syntax-ns#">
   <cc:Work>
    <dc:type rdf:resource="http://purl.org/dc/dcmitype/StillImage"/>
    <dc:date>2021-05-12T09:34:39.602644</dc:date>
    <dc:format>image/svg+xml</dc:format>
    <dc:creator>
     <cc:Agent>
      <dc:title>Matplotlib v3.3.4, https://matplotlib.org/</dc:title>
     </cc:Agent>
    </dc:creator>
   </cc:Work>
  </rdf:RDF>
 </metadata>
 <defs>
  <style type="text/css">*{stroke-linecap:butt;stroke-linejoin:round;}</style>
 </defs>
 <g id="figure_1">
  <g id="patch_1">
   <path d="M 0 345.6 
L 460.8 345.6 
L 460.8 0 
L 0 0 
z
" style="fill:none;"/>
  </g>
  <g id="axes_1">
   <g id="patch_2">
    <path clip-path="url(#p9453d61cd5)" d="M 73.832727 307.584 
L 75.808313 307.584 
L 75.808313 307.584 
L 73.832727 307.584 
z
" style="fill:#fa9ba4;opacity:0.2;"/>
   </g>
   <g id="patch_3">
    <path clip-path="url(#p9453d61cd5)" d="M 76.027822 307.584 
L 78.003408 307.584 
L 78.003408 307.584 
L 76.027822 307.584 
z
" style="fill:#fa9ba4;opacity:0.2;"/>
   </g>
   <g id="patch_4">
    <path clip-path="url(#p9453d61cd5)" d="M 78.222917 307.584 
L 80.198503 307.584 
L 80.198503 307.584 
L 78.222917 307.584 
z
" style="fill:#fa9ba4;opacity:0.2;"/>
   </g>
   <g id="patch_5">
    <path clip-path="url(#p9453d61cd5)" d="M 80.418012 307.584 
L 82.393598 307.584 
L 82.393598 307.584 
L 80.418012 307.584 
z
" style="fill:#fa9ba4;opacity:0.2;"/>
   </g>
   <g id="patch_6">
    <path clip-path="url(#p9453d61cd5)" d="M 82.613107 307.584 
L 84.588693 307.584 
L 84.588693 307.584 
L 82.613107 307.584 
z
" style="fill:#fa9ba4;opacity:0.2;"/>
   </g>
   <g id="patch_7">
    <path clip-path="url(#p9453d61cd5)" d="M 84.808202 307.584 
L 86.783788 307.584 
L 86.783788 307.584 
L 84.808202 307.584 
z
" style="fill:#fa9ba4;opacity:0.2;"/>
   </g>
   <g id="patch_8">
    <path clip-path="url(#p9453d61cd5)" d="M 87.003297 307.584 
L 88.978883 307.584 
L 88.978883 302.466462 
L 87.003297 302.466462 
z
" style="fill:#fa9ba4;opacity:0.2;"/>
   </g>
   <g id="patch_9">
    <path clip-path="url(#p9453d61cd5)" d="M 89.198392 307.584 
L 91.173978 307.584 
L 91.173978 307.584 
L 89.198392 307.584 
z
" style="fill:#fa9ba4;opacity:0.2;"/>
   </g>
   <g id="patch_10">
    <path clip-path="url(#p9453d61cd5)" d="M 91.393487 307.584 
L 93.369072 307.584 
L 93.369072 297.348923 
L 91.393487 297.348923 
z
" style="fill:#fa9ba4;opacity:0.2;"/>
   </g>
   <g id="patch_11">
    <path clip-path="url(#p9453d61cd5)" d="M 93.588582 307.584 
L 95.564167 307.584 
L 95.564167 302.466462 
L 93.588582 302.466462 
z
" style="fill:#fa9ba4;opacity:0.2;"/>
   </g>
   <g id="patch_12">
    <path clip-path="url(#p9453d61cd5)" d="M 95.783677 307.584 
L 97.759262 307.584 
L 97.759262 307.584 
L 95.783677 307.584 
z
" style="fill:#fa9ba4;opacity:0.2;"/>
   </g>
   <g id="patch_13">
    <path clip-path="url(#p9453d61cd5)" d="M 97.978772 307.584 
L 99.954357 307.584 
L 99.954357 307.584 
L 97.978772 307.584 
z
" style="fill:#fa9ba4;opacity:0.2;"/>
   </g>
   <g id="patch_14">
    <path clip-path="url(#p9453d61cd5)" d="M 100.173867 307.584 
L 102.149452 307.584 
L 102.149452 292.231385 
L 100.173867 292.231385 
z
" style="fill:#fa9ba4;opacity:0.2;"/>
   </g>
   <g id="patch_15">
    <path clip-path="url(#p9453d61cd5)" d="M 102.368962 307.584 
L 104.344547 307.584 
L 104.344547 307.584 
L 102.368962 307.584 
z
" style="fill:#fa9ba4;opacity:0.2;"/>
   </g>
   <g id="patch_16">
    <path clip-path="url(#p9453d61cd5)" d="M 104.564057 307.584 
L 106.539642 307.584 
L 106.539642 307.584 
L 104.564057 307.584 
z
" style="fill:#fa9ba4;opacity:0.2;"/>
   </g>
   <g id="patch_17">
    <path clip-path="url(#p9453d61cd5)" d="M 106.759152 307.584 
L 108.734737 307.584 
L 108.734737 302.466462 
L 106.759152 302.466462 
z
" style="fill:#fa9ba4;opacity:0.2;"/>
   </g>
   <g id="patch_18">
    <path clip-path="url(#p9453d61cd5)" d="M 108.954247 307.584 
L 110.929832 307.584 
L 110.929832 281.996308 
L 108.954247 281.996308 
z
" style="fill:#fa9ba4;opacity:0.2;"/>
   </g>
   <g id="patch_19">
    <path clip-path="url(#p9453d61cd5)" d="M 111.149342 307.584 
L 113.124927 307.584 
L 113.124927 307.584 
L 111.149342 307.584 
z
" style="fill:#fa9ba4;opacity:0.2;"/>
   </g>
   <g id="patch_20">
    <path clip-path="url(#p9453d61cd5)" d="M 113.344437 307.584 
L 115.320022 307.584 
L 115.320022 302.466462 
L 113.344437 302.466462 
z
" style="fill:#fa9ba4;opacity:0.2;"/>
   </g>
   <g id="patch_21">
    <path clip-path="url(#p9453d61cd5)" d="M 115.539532 307.584 
L 117.515117 307.584 
L 117.515117 307.584 
L 115.539532 307.584 
z
" style="fill:#fa9ba4;opacity:0.2;"/>
   </g>
   <g id="patch_22">
    <path clip-path="url(#p9453d61cd5)" d="M 117.734627 307.584 
L 119.710212 307.584 
L 119.710212 307.584 
L 117.734627 307.584 
z
" style="fill:#fa9ba4;opacity:0.2;"/>
   </g>
   <g id="patch_23">
    <path clip-path="url(#p9453d61cd5)" d="M 119.929722 307.584 
L 121.905307 307.584 
L 121.905307 307.584 
L 119.929722 307.584 
z
" style="fill:#fa9ba4;opacity:0.2;"/>
   </g>
   <g id="patch_24">
    <path clip-path="url(#p9453d61cd5)" d="M 122.124817 307.584 
L 124.100402 307.584 
L 124.100402 307.584 
L 122.124817 307.584 
z
" style="fill:#fa9ba4;opacity:0.2;"/>
   </g>
   <g id="patch_25">
    <path clip-path="url(#p9453d61cd5)" d="M 124.319911 307.584 
L 126.295497 307.584 
L 126.295497 302.466462 
L 124.319911 302.466462 
z
" style="fill:#fa9ba4;opacity:0.2;"/>
   </g>
   <g id="patch_26">
    <path clip-path="url(#p9453d61cd5)" d="M 126.515006 307.584 
L 128.490592 307.584 
L 128.490592 307.584 
L 126.515006 307.584 
z
" style="fill:#fa9ba4;opacity:0.2;"/>
   </g>
   <g id="patch_27">
    <path clip-path="url(#p9453d61cd5)" d="M 128.710101 307.584 
L 130.685687 307.584 
L 130.685687 276.878769 
L 128.710101 276.878769 
z
" style="fill:#fa9ba4;opacity:0.2;"/>
   </g>
   <g id="patch_28">
    <path clip-path="url(#p9453d61cd5)" d="M 130.905196 307.584 
L 132.880782 307.584 
L 132.880782 220.585846 
L 130.905196 220.585846 
z
" style="fill:#fa9ba4;opacity:0.2;"/>
   </g>
   <g id="patch_29">
    <path clip-path="url(#p9453d61cd5)" d="M 133.100291 307.584 
L 135.075877 307.584 
L 135.075877 235.938462 
L 133.100291 235.938462 
z
" style="fill:#fa9ba4;opacity:0.2;"/>
   </g>
   <g id="patch_30">
    <path clip-path="url(#p9453d61cd5)" d="M 135.295386 307.584 
L 137.270972 307.584 
L 137.270972 307.584 
L 135.295386 307.584 
z
" style="fill:#fa9ba4;opacity:0.2;"/>
   </g>
   <g id="patch_31">
    <path clip-path="url(#p9453d61cd5)" d="M 137.490481 307.584 
L 139.466067 307.584 
L 139.466067 200.115692 
L 137.490481 200.115692 
z
" style="fill:#fa9ba4;opacity:0.2;"/>
   </g>
   <g id="patch_32">
    <path clip-path="url(#p9453d61cd5)" d="M 139.685576 307.584 
L 141.661162 307.584 
L 141.661162 307.584 
L 139.685576 307.584 
z
" style="fill:#fa9ba4;opacity:0.2;"/>
   </g>
   <g id="patch_33">
    <path clip-path="url(#p9453d61cd5)" d="M 141.880671 307.584 
L 143.856257 307.584 
L 143.856257 241.056 
L 141.880671 241.056 
z
" style="fill:#fa9ba4;opacity:0.2;"/>
   </g>
   <g id="patch_34">
    <path clip-path="url(#p9453d61cd5)" d="M 144.075766 307.584 
L 146.051352 307.584 
L 146.051352 307.584 
L 144.075766 307.584 
z
" style="fill:#fa9ba4;opacity:0.2;"/>
   </g>
   <g id="patch_35">
    <path clip-path="url(#p9453d61cd5)" d="M 146.270861 307.584 
L 148.246447 307.584 
L 148.246447 302.466462 
L 146.270861 302.466462 
z
" style="fill:#fa9ba4;opacity:0.2;"/>
   </g>
   <g id="patch_36">
    <path clip-path="url(#p9453d61cd5)" d="M 148.465956 307.584 
L 150.441542 307.584 
L 150.441542 307.584 
L 148.465956 307.584 
z
" style="fill:#fa9ba4;opacity:0.2;"/>
   </g>
   <g id="patch_37">
    <path clip-path="url(#p9453d61cd5)" d="M 150.661051 307.584 
L 152.636637 307.584 
L 152.636637 307.584 
L 150.661051 307.584 
z
" style="fill:#fa9ba4;opacity:0.2;"/>
   </g>
   <g id="patch_38">
    <path clip-path="url(#p9453d61cd5)" d="M 152.856146 307.584 
L 154.831732 307.584 
L 154.831732 302.466462 
L 152.856146 302.466462 
z
" style="fill:#fa9ba4;opacity:0.2;"/>
   </g>
   <g id="patch_39">
    <path clip-path="url(#p9453d61cd5)" d="M 155.051241 307.584 
L 157.026826 307.584 
L 157.026826 297.348923 
L 155.051241 297.348923 
z
" style="fill:#fa9ba4;opacity:0.2;"/>
   </g>
   <g id="patch_40">
    <path clip-path="url(#p9453d61cd5)" d="M 157.246336 307.584 
L 159.221921 307.584 
L 159.221921 281.996308 
L 157.246336 281.996308 
z
" style="fill:#fa9ba4;opacity:0.2;"/>
   </g>
   <g id="patch_41">
    <path clip-path="url(#p9453d61cd5)" d="M 159.441431 307.584 
L 161.417016 307.584 
L 161.417016 307.584 
L 159.441431 307.584 
z
" style="fill:#fa9ba4;opacity:0.2;"/>
   </g>
   <g id="patch_42">
    <path clip-path="url(#p9453d61cd5)" d="M 161.636526 307.584 
L 163.612111 307.584 
L 163.612111 307.584 
L 161.636526 307.584 
z
" style="fill:#fa9ba4;opacity:0.2;"/>
   </g>
   <g id="patch_43">
    <path clip-path="url(#p9453d61cd5)" d="M 163.831621 307.584 
L 165.807206 307.584 
L 165.807206 307.584 
L 163.831621 307.584 
z
" style="fill:#fa9ba4;opacity:0.2;"/>
   </g>
   <g id="patch_44">
    <path clip-path="url(#p9453d61cd5)" d="M 166.026716 307.584 
L 168.002301 307.584 
L 168.002301 292.231385 
L 166.026716 292.231385 
z
" style="fill:#fa9ba4;opacity:0.2;"/>
   </g>
   <g id="patch_45">
    <path clip-path="url(#p9453d61cd5)" d="M 168.221811 307.584 
L 170.197396 307.584 
L 170.197396 307.584 
L 168.221811 307.584 
z
" style="fill:#fa9ba4;opacity:0.2;"/>
   </g>
   <g id="patch_46">
    <path clip-path="url(#p9453d61cd5)" d="M 170.416906 307.584 
L 172.392491 307.584 
L 172.392491 307.584 
L 170.416906 307.584 
z
" style="fill:#fa9ba4;opacity:0.2;"/>
   </g>
   <g id="patch_47">
    <path clip-path="url(#p9453d61cd5)" d="M 172.612001 307.584 
L 174.587586 307.584 
L 174.587586 302.466462 
L 172.612001 302.466462 
z
" style="fill:#fa9ba4;opacity:0.2;"/>
   </g>
   <g id="patch_48">
    <path clip-path="url(#p9453d61cd5)" d="M 174.807096 307.584 
L 176.782681 307.584 
L 176.782681 302.466462 
L 174.807096 302.466462 
z
" style="fill:#fa9ba4;opacity:0.2;"/>
   </g>
   <g id="patch_49">
    <path clip-path="url(#p9453d61cd5)" d="M 177.002191 307.584 
L 178.977776 307.584 
L 178.977776 307.584 
L 177.002191 307.584 
z
" style="fill:#fa9ba4;opacity:0.2;"/>
   </g>
   <g id="patch_50">
    <path clip-path="url(#p9453d61cd5)" d="M 179.197286 307.584 
L 181.172871 307.584 
L 181.172871 307.584 
L 179.197286 307.584 
z
" style="fill:#fa9ba4;opacity:0.2;"/>
   </g>
   <g id="patch_51">
    <path clip-path="url(#p9453d61cd5)" d="M 181.392381 307.584 
L 183.367966 307.584 
L 183.367966 307.584 
L 181.392381 307.584 
z
" style="fill:#fa9ba4;opacity:0.2;"/>
   </g>
   <g id="patch_52">
    <path clip-path="url(#p9453d61cd5)" d="M 183.587476 307.584 
L 185.563061 307.584 
L 185.563061 302.466462 
L 183.587476 302.466462 
z
" style="fill:#fa9ba4;opacity:0.2;"/>
   </g>
   <g id="patch_53">
    <path clip-path="url(#p9453d61cd5)" d="M 185.782571 307.584 
L 187.758156 307.584 
L 187.758156 281.996308 
L 185.782571 281.996308 
z
" style="fill:#fa9ba4;opacity:0.2;"/>
   </g>
   <g id="patch_54">
    <path clip-path="url(#p9453d61cd5)" d="M 187.977665 307.584 
L 189.953251 307.584 
L 189.953251 287.113846 
L 187.977665 287.113846 
z
" style="fill:#fa9ba4;opacity:0.2;"/>
   </g>
   <g id="patch_55">
    <path clip-path="url(#p9453d61cd5)" d="M 190.17276 307.584 
L 192.148346 307.584 
L 192.148346 297.348923 
L 190.17276 297.348923 
z
" style="fill:#fa9ba4;opacity:0.2;"/>
   </g>
   <g id="patch_56">
    <path clip-path="url(#p9453d61cd5)" d="M 192.367855 307.584 
L 194.343441 307.584 
L 194.343441 266.643692 
L 192.367855 266.643692 
z
" style="fill:#fa9ba4;opacity:0.2;"/>
   </g>
   <g id="patch_57">
    <path clip-path="url(#p9453d61cd5)" d="M 194.56295 307.584 
L 196.538536 307.584 
L 196.538536 307.584 
L 194.56295 307.584 
z
" style="fill:#fa9ba4;opacity:0.2;"/>
   </g>
   <g id="patch_58">
    <path clip-path="url(#p9453d61cd5)" d="M 196.758045 307.584 
L 198.733631 307.584 
L 198.733631 307.584 
L 196.758045 307.584 
z
" style="fill:#fa9ba4;opacity:0.2;"/>
   </g>
   <g id="patch_59">
    <path clip-path="url(#p9453d61cd5)" d="M 198.95314 307.584 
L 200.928726 307.584 
L 200.928726 307.584 
L 198.95314 307.584 
z
" style="fill:#fa9ba4;opacity:0.2;"/>
   </g>
   <g id="patch_60">
    <path clip-path="url(#p9453d61cd5)" d="M 201.148235 307.584 
L 203.123821 307.584 
L 203.123821 118.235077 
L 201.148235 118.235077 
z
" style="fill:#fa9ba4;opacity:0.2;"/>
   </g>
   <g id="patch_61">
    <path clip-path="url(#p9453d61cd5)" d="M 203.34333 307.584 
L 205.318916 307.584 
L 205.318916 307.584 
L 203.34333 307.584 
z
" style="fill:#fa9ba4;opacity:0.2;"/>
   </g>
   <g id="patch_62">
    <path clip-path="url(#p9453d61cd5)" d="M 205.538425 307.584 
L 207.514011 307.584 
L 207.514011 41.472 
L 205.538425 41.472 
z
" style="fill:#fa9ba4;opacity:0.2;"/>
   </g>
   <g id="patch_63">
    <path clip-path="url(#p9453d61cd5)" d="M 207.73352 307.584 
L 209.709106 307.584 
L 209.709106 271.761231 
L 207.73352 271.761231 
z
" style="fill:#fa9ba4;opacity:0.2;"/>
   </g>
   <g id="patch_64">
    <path clip-path="url(#p9453d61cd5)" d="M 209.928615 307.584 
L 211.904201 307.584 
L 211.904201 307.584 
L 209.928615 307.584 
z
" style="fill:#fa9ba4;opacity:0.2;"/>
   </g>
   <g id="patch_65">
    <path clip-path="url(#p9453d61cd5)" d="M 212.12371 307.584 
L 214.099296 307.584 
L 214.099296 307.584 
L 212.12371 307.584 
z
" style="fill:#fa9ba4;opacity:0.2;"/>
   </g>
   <g id="patch_66">
    <path clip-path="url(#p9453d61cd5)" d="M 214.318805 307.584 
L 216.294391 307.584 
L 216.294391 297.348923 
L 214.318805 297.348923 
z
" style="fill:#fa9ba4;opacity:0.2;"/>
   </g>
   <g id="patch_67">
    <path clip-path="url(#p9453d61cd5)" d="M 216.5139 307.584 
L 218.489486 307.584 
L 218.489486 302.466462 
L 216.5139 302.466462 
z
" style="fill:#fa9ba4;opacity:0.2;"/>
   </g>
   <g id="patch_68">
    <path clip-path="url(#p9453d61cd5)" d="M 218.708995 307.584 
L 220.68458 307.584 
L 220.68458 307.584 
L 218.708995 307.584 
z
" style="fill:#fa9ba4;opacity:0.2;"/>
   </g>
   <g id="patch_69">
    <path clip-path="url(#p9453d61cd5)" d="M 220.90409 307.584 
L 222.879675 307.584 
L 222.879675 307.584 
L 220.90409 307.584 
z
" style="fill:#fa9ba4;opacity:0.2;"/>
   </g>
   <g id="patch_70">
    <path clip-path="url(#p9453d61cd5)" d="M 223.099185 307.584 
L 225.07477 307.584 
L 225.07477 307.584 
L 223.099185 307.584 
z
" style="fill:#fa9ba4;opacity:0.2;"/>
   </g>
   <g id="patch_71">
    <path clip-path="url(#p9453d61cd5)" d="M 225.29428 307.584 
L 227.269865 307.584 
L 227.269865 241.056 
L 225.29428 241.056 
z
" style="fill:#fa9ba4;opacity:0.2;"/>
   </g>
   <g id="patch_72">
    <path clip-path="url(#p9453d61cd5)" d="M 227.489375 307.584 
L 229.46496 307.584 
L 229.46496 297.348923 
L 227.489375 297.348923 
z
" style="fill:#fa9ba4;opacity:0.2;"/>
   </g>
   <g id="patch_73">
    <path clip-path="url(#p9453d61cd5)" d="M 229.68447 307.584 
L 231.660055 307.584 
L 231.660055 307.584 
L 229.68447 307.584 
z
" style="fill:#fa9ba4;opacity:0.2;"/>
   </g>
   <g id="patch_74">
    <path clip-path="url(#p9453d61cd5)" d="M 231.879565 307.584 
L 233.85515 307.584 
L 233.85515 302.466462 
L 231.879565 302.466462 
z
" style="fill:#fa9ba4;opacity:0.2;"/>
   </g>
   <g id="patch_75">
    <path clip-path="url(#p9453d61cd5)" d="M 234.07466 307.584 
L 236.050245 307.584 
L 236.050245 307.584 
L 234.07466 307.584 
z
" style="fill:#fa9ba4;opacity:0.2;"/>
   </g>
   <g id="patch_76">
    <path clip-path="url(#p9453d61cd5)" d="M 236.269755 307.584 
L 238.24534 307.584 
L 238.24534 281.996308 
L 236.269755 281.996308 
z
" style="fill:#fa9ba4;opacity:0.2;"/>
   </g>
   <g id="patch_77">
    <path clip-path="url(#p9453d61cd5)" d="M 238.46485 307.584 
L 240.440435 307.584 
L 240.440435 307.584 
L 238.46485 307.584 
z
" style="fill:#fa9ba4;opacity:0.2;"/>
   </g>
   <g id="patch_78">
    <path clip-path="url(#p9453d61cd5)" d="M 240.659945 307.584 
L 242.63553 307.584 
L 242.63553 292.231385 
L 240.659945 292.231385 
z
" style="fill:#fa9ba4;opacity:0.2;"/>
   </g>
   <g id="patch_79">
    <path clip-path="url(#p9453d61cd5)" d="M 242.85504 307.584 
L 244.830625 307.584 
L 244.830625 287.113846 
L 242.85504 287.113846 
z
" style="fill:#fa9ba4;opacity:0.2;"/>
   </g>
   <g id="patch_80">
    <path clip-path="url(#p9453d61cd5)" d="M 245.050135 307.584 
L 247.02572 307.584 
L 247.02572 287.113846 
L 245.050135 287.113846 
z
" style="fill:#fa9ba4;opacity:0.2;"/>
   </g>
   <g id="patch_81">
    <path clip-path="url(#p9453d61cd5)" d="M 247.24523 307.584 
L 249.220815 307.584 
L 249.220815 292.231385 
L 247.24523 292.231385 
z
" style="fill:#fa9ba4;opacity:0.2;"/>
   </g>
   <g id="patch_82">
    <path clip-path="url(#p9453d61cd5)" d="M 249.440325 307.584 
L 251.41591 307.584 
L 251.41591 297.348923 
L 249.440325 297.348923 
z
" style="fill:#fa9ba4;opacity:0.2;"/>
   </g>
   <g id="patch_83">
    <path clip-path="url(#p9453d61cd5)" d="M 251.63542 307.584 
L 253.611005 307.584 
L 253.611005 297.348923 
L 251.63542 297.348923 
z
" style="fill:#fa9ba4;opacity:0.2;"/>
   </g>
   <g id="patch_84">
    <path clip-path="url(#p9453d61cd5)" d="M 253.830514 307.584 
L 255.8061 307.584 
L 255.8061 281.996308 
L 253.830514 281.996308 
z
" style="fill:#fa9ba4;opacity:0.2;"/>
   </g>
   <g id="patch_85">
    <path clip-path="url(#p9453d61cd5)" d="M 256.025609 307.584 
L 258.001195 307.584 
L 258.001195 297.348923 
L 256.025609 297.348923 
z
" style="fill:#fa9ba4;opacity:0.2;"/>
   </g>
   <g id="patch_86">
    <path clip-path="url(#p9453d61cd5)" d="M 258.220704 307.584 
L 260.19629 307.584 
L 260.19629 307.584 
L 258.220704 307.584 
z
" style="fill:#fa9ba4;opacity:0.2;"/>
   </g>
   <g id="patch_87">
    <path clip-path="url(#p9453d61cd5)" d="M 260.415799 307.584 
L 262.391385 307.584 
L 262.391385 292.231385 
L 260.415799 292.231385 
z
" style="fill:#fa9ba4;opacity:0.2;"/>
   </g>
   <g id="patch_88">
    <path clip-path="url(#p9453d61cd5)" d="M 262.610894 307.584 
L 264.58648 307.584 
L 264.58648 307.584 
L 262.610894 307.584 
z
" style="fill:#fa9ba4;opacity:0.2;"/>
   </g>
   <g id="patch_89">
    <path clip-path="url(#p9453d61cd5)" d="M 264.805989 307.584 
L 266.781575 307.584 
L 266.781575 281.996308 
L 264.805989 281.996308 
z
" style="fill:#fa9ba4;opacity:0.2;"/>
   </g>
   <g id="patch_90">
    <path clip-path="url(#p9453d61cd5)" d="M 267.001084 307.584 
L 268.97667 307.584 
L 268.97667 302.466462 
L 267.001084 302.466462 
z
" style="fill:#fa9ba4;opacity:0.2;"/>
   </g>
   <g id="patch_91">
    <path clip-path="url(#p9453d61cd5)" d="M 269.196179 307.584 
L 271.171765 307.584 
L 271.171765 307.584 
L 269.196179 307.584 
z
" style="fill:#fa9ba4;opacity:0.2;"/>
   </g>
   <g id="patch_92">
    <path clip-path="url(#p9453d61cd5)" d="M 271.391274 307.584 
L 273.36686 307.584 
L 273.36686 256.408615 
L 271.391274 256.408615 
z
" style="fill:#fa9ba4;opacity:0.2;"/>
   </g>
   <g id="patch_93">
    <path clip-path="url(#p9453d61cd5)" d="M 273.586369 307.584 
L 275.561955 307.584 
L 275.561955 307.584 
L 273.586369 307.584 
z
" style="fill:#fa9ba4;opacity:0.2;"/>
   </g>
   <g id="patch_94">
    <path clip-path="url(#p9453d61cd5)" d="M 275.781464 307.584 
L 277.75705 307.584 
L 277.75705 261.526154 
L 275.781464 261.526154 
z
" style="fill:#fa9ba4;opacity:0.2;"/>
   </g>
   <g id="patch_95">
    <path clip-path="url(#p9453d61cd5)" d="M 277.976559 307.584 
L 279.952145 307.584 
L 279.952145 307.584 
L 277.976559 307.584 
z
" style="fill:#fa9ba4;opacity:0.2;"/>
   </g>
   <g id="patch_96">
    <path clip-path="url(#p9453d61cd5)" d="M 280.171654 307.584 
L 282.14724 307.584 
L 282.14724 307.584 
L 280.171654 307.584 
z
" style="fill:#fa9ba4;opacity:0.2;"/>
   </g>
   <g id="patch_97">
    <path clip-path="url(#p9453d61cd5)" d="M 282.366749 307.584 
L 284.342335 307.584 
L 284.342335 297.348923 
L 282.366749 297.348923 
z
" style="fill:#fa9ba4;opacity:0.2;"/>
   </g>
   <g id="patch_98">
    <path clip-path="url(#p9453d61cd5)" d="M 284.561844 307.584 
L 286.537429 307.584 
L 286.537429 307.584 
L 284.561844 307.584 
z
" style="fill:#fa9ba4;opacity:0.2;"/>
   </g>
   <g id="patch_99">
    <path clip-path="url(#p9453d61cd5)" d="M 286.756939 307.584 
L 288.732524 307.584 
L 288.732524 307.584 
L 286.756939 307.584 
z
" style="fill:#fa9ba4;opacity:0.2;"/>
   </g>
   <g id="patch_100">
    <path clip-path="url(#p9453d61cd5)" d="M 288.952034 307.584 
L 290.927619 307.584 
L 290.927619 307.584 
L 288.952034 307.584 
z
" style="fill:#fa9ba4;opacity:0.2;"/>
   </g>
   <g id="patch_101">
    <path clip-path="url(#p9453d61cd5)" d="M 291.147129 307.584 
L 293.122714 307.584 
L 293.122714 292.231385 
L 291.147129 292.231385 
z
" style="fill:#fa9ba4;opacity:0.2;"/>
   </g>
   <g id="patch_102">
    <path clip-path="url(#p9453d61cd5)" d="M 293.342224 307.584 
L 295.317809 307.584 
L 295.317809 307.584 
L 293.342224 307.584 
z
" style="fill:#fa9ba4;opacity:0.2;"/>
   </g>
   <g id="patch_103">
    <path clip-path="url(#p9453d61cd5)" d="M 295.537319 307.584 
L 297.512904 307.584 
L 297.512904 281.996308 
L 295.537319 281.996308 
z
" style="fill:#fa9ba4;opacity:0.2;"/>
   </g>
   <g id="patch_104">
    <path clip-path="url(#p9453d61cd5)" d="M 297.732414 307.584 
L 299.707999 307.584 
L 299.707999 302.466462 
L 297.732414 302.466462 
z
" style="fill:#fa9ba4;opacity:0.2;"/>
   </g>
   <g id="patch_105">
    <path clip-path="url(#p9453d61cd5)" d="M 299.927509 307.584 
L 301.903094 307.584 
L 301.903094 307.584 
L 299.927509 307.584 
z
" style="fill:#fa9ba4;opacity:0.2;"/>
   </g>
   <g id="patch_106">
    <path clip-path="url(#p9453d61cd5)" d="M 302.122604 307.584 
L 304.098189 307.584 
L 304.098189 307.584 
L 302.122604 307.584 
z
" style="fill:#fa9ba4;opacity:0.2;"/>
   </g>
   <g id="patch_107">
    <path clip-path="url(#p9453d61cd5)" d="M 304.317699 307.584 
L 306.293284 307.584 
L 306.293284 307.584 
L 304.317699 307.584 
z
" style="fill:#fa9ba4;opacity:0.2;"/>
   </g>
   <g id="patch_108">
    <path clip-path="url(#p9453d61cd5)" d="M 306.512794 307.584 
L 308.488379 307.584 
L 308.488379 297.348923 
L 306.512794 297.348923 
z
" style="fill:#fa9ba4;opacity:0.2;"/>
   </g>
   <g id="patch_109">
    <path clip-path="url(#p9453d61cd5)" d="M 308.707889 307.584 
L 310.683474 307.584 
L 310.683474 307.584 
L 308.707889 307.584 
z
" style="fill:#fa9ba4;opacity:0.2;"/>
   </g>
   <g id="patch_110">
    <path clip-path="url(#p9453d61cd5)" d="M 310.902984 307.584 
L 312.878569 307.584 
L 312.878569 297.348923 
L 310.902984 297.348923 
z
" style="fill:#fa9ba4;opacity:0.2;"/>
   </g>
   <g id="patch_111">
    <path clip-path="url(#p9453d61cd5)" d="M 313.098079 307.584 
L 315.073664 307.584 
L 315.073664 302.466462 
L 313.098079 302.466462 
z
" style="fill:#fa9ba4;opacity:0.2;"/>
   </g>
   <g id="patch_112">
    <path clip-path="url(#p9453d61cd5)" d="M 315.293174 307.584 
L 317.268759 307.584 
L 317.268759 307.584 
L 315.293174 307.584 
z
" style="fill:#fa9ba4;opacity:0.2;"/>
   </g>
   <g id="patch_113">
    <path clip-path="url(#p9453d61cd5)" d="M 317.488268 307.584 
L 319.463854 307.584 
L 319.463854 302.466462 
L 317.488268 302.466462 
z
" style="fill:#fa9ba4;opacity:0.2;"/>
   </g>
   <g id="patch_114">
    <path clip-path="url(#p9453d61cd5)" d="M 319.683363 307.584 
L 321.658949 307.584 
L 321.658949 302.466462 
L 319.683363 302.466462 
z
" style="fill:#fa9ba4;opacity:0.2;"/>
   </g>
   <g id="patch_115">
    <path clip-path="url(#p9453d61cd5)" d="M 321.878458 307.584 
L 323.854044 307.584 
L 323.854044 307.584 
L 321.878458 307.584 
z
" style="fill:#fa9ba4;opacity:0.2;"/>
   </g>
   <g id="patch_116">
    <path clip-path="url(#p9453d61cd5)" d="M 324.073553 307.584 
L 326.049139 307.584 
L 326.049139 307.584 
L 324.073553 307.584 
z
" style="fill:#fa9ba4;opacity:0.2;"/>
   </g>
   <g id="patch_117">
    <path clip-path="url(#p9453d61cd5)" d="M 326.268648 307.584 
L 328.244234 307.584 
L 328.244234 307.584 
L 326.268648 307.584 
z
" style="fill:#fa9ba4;opacity:0.2;"/>
   </g>
   <g id="patch_118">
    <path clip-path="url(#p9453d61cd5)" d="M 328.463743 307.584 
L 330.439329 307.584 
L 330.439329 302.466462 
L 328.463743 302.466462 
z
" style="fill:#fa9ba4;opacity:0.2;"/>
   </g>
   <g id="patch_119">
    <path clip-path="url(#p9453d61cd5)" d="M 330.658838 307.584 
L 332.634424 307.584 
L 332.634424 302.466462 
L 330.658838 302.466462 
z
" style="fill:#fa9ba4;opacity:0.2;"/>
   </g>
   <g id="patch_120">
    <path clip-path="url(#p9453d61cd5)" d="M 332.853933 307.584 
L 334.829519 307.584 
L 334.829519 297.348923 
L 332.853933 297.348923 
z
" style="fill:#fa9ba4;opacity:0.2;"/>
   </g>
   <g id="patch_121">
    <path clip-path="url(#p9453d61cd5)" d="M 335.049028 307.584 
L 337.024614 307.584 
L 337.024614 297.348923 
L 335.049028 297.348923 
z
" style="fill:#fa9ba4;opacity:0.2;"/>
   </g>
   <g id="patch_122">
    <path clip-path="url(#p9453d61cd5)" d="M 337.244123 307.584 
L 339.219709 307.584 
L 339.219709 302.466462 
L 337.244123 302.466462 
z
" style="fill:#fa9ba4;opacity:0.2;"/>
   </g>
   <g id="patch_123">
    <path clip-path="url(#p9453d61cd5)" d="M 339.439218 307.584 
L 341.414804 307.584 
L 341.414804 281.996308 
L 339.439218 281.996308 
z
" style="fill:#fa9ba4;opacity:0.2;"/>
   </g>
   <g id="patch_124">
    <path clip-path="url(#p9453d61cd5)" d="M 341.634313 307.584 
L 343.609899 307.584 
L 343.609899 281.996308 
L 341.634313 281.996308 
z
" style="fill:#fa9ba4;opacity:0.2;"/>
   </g>
   <g id="patch_125">
    <path clip-path="url(#p9453d61cd5)" d="M 343.829408 307.584 
L 345.804994 307.584 
L 345.804994 302.466462 
L 343.829408 302.466462 
z
" style="fill:#fa9ba4;opacity:0.2;"/>
   </g>
   <g id="patch_126">
    <path clip-path="url(#p9453d61cd5)" d="M 346.024503 307.584 
L 348.000089 307.584 
L 348.000089 241.056 
L 346.024503 241.056 
z
" style="fill:#fa9ba4;opacity:0.2;"/>
   </g>
   <g id="patch_127">
    <path clip-path="url(#p9453d61cd5)" d="M 348.219598 307.584 
L 350.195183 307.584 
L 350.195183 287.113846 
L 348.219598 287.113846 
z
" style="fill:#fa9ba4;opacity:0.2;"/>
   </g>
   <g id="patch_128">
    <path clip-path="url(#p9453d61cd5)" d="M 350.414693 307.584 
L 352.390278 307.584 
L 352.390278 287.113846 
L 350.414693 287.113846 
z
" style="fill:#fa9ba4;opacity:0.2;"/>
   </g>
   <g id="patch_129">
    <path clip-path="url(#p9453d61cd5)" d="M 352.609788 307.584 
L 354.585373 307.584 
L 354.585373 266.643692 
L 352.609788 266.643692 
z
" style="fill:#fa9ba4;opacity:0.2;"/>
   </g>
   <g id="patch_130">
    <path clip-path="url(#p9453d61cd5)" d="M 354.804883 307.584 
L 356.780468 307.584 
L 356.780468 292.231385 
L 354.804883 292.231385 
z
" style="fill:#fa9ba4;opacity:0.2;"/>
   </g>
   <g id="patch_131">
    <path clip-path="url(#p9453d61cd5)" d="M 356.999978 307.584 
L 358.975563 307.584 
L 358.975563 281.996308 
L 356.999978 281.996308 
z
" style="fill:#fa9ba4;opacity:0.2;"/>
   </g>
   <g id="patch_132">
    <path clip-path="url(#p9453d61cd5)" d="M 359.195073 307.584 
L 361.170658 307.584 
L 361.170658 307.584 
L 359.195073 307.584 
z
" style="fill:#fa9ba4;opacity:0.2;"/>
   </g>
   <g id="patch_133">
    <path clip-path="url(#p9453d61cd5)" d="M 361.390168 307.584 
L 363.365753 307.584 
L 363.365753 297.348923 
L 361.390168 297.348923 
z
" style="fill:#fa9ba4;opacity:0.2;"/>
   </g>
   <g id="patch_134">
    <path clip-path="url(#p9453d61cd5)" d="M 363.585263 307.584 
L 365.560848 307.584 
L 365.560848 297.348923 
L 363.585263 297.348923 
z
" style="fill:#fa9ba4;opacity:0.2;"/>
   </g>
   <g id="patch_135">
    <path clip-path="url(#p9453d61cd5)" d="M 365.780358 307.584 
L 367.755943 307.584 
L 367.755943 307.584 
L 365.780358 307.584 
z
" style="fill:#fa9ba4;opacity:0.2;"/>
   </g>
   <g id="patch_136">
    <path clip-path="url(#p9453d61cd5)" d="M 367.975453 307.584 
L 369.951038 307.584 
L 369.951038 297.348923 
L 367.975453 297.348923 
z
" style="fill:#fa9ba4;opacity:0.2;"/>
   </g>
   <g id="patch_137">
    <path clip-path="url(#p9453d61cd5)" d="M 370.170548 307.584 
L 372.146133 307.584 
L 372.146133 292.231385 
L 370.170548 292.231385 
z
" style="fill:#fa9ba4;opacity:0.2;"/>
   </g>
   <g id="patch_138">
    <path clip-path="url(#p9453d61cd5)" d="M 372.365643 307.584 
L 374.341228 307.584 
L 374.341228 302.466462 
L 372.365643 302.466462 
z
" style="fill:#fa9ba4;opacity:0.2;"/>
   </g>
   <g id="patch_139">
    <path clip-path="url(#p9453d61cd5)" d="M 374.560738 307.584 
L 376.536323 307.584 
L 376.536323 302.466462 
L 374.560738 302.466462 
z
" style="fill:#fa9ba4;opacity:0.2;"/>
   </g>
   <g id="patch_140">
    <path clip-path="url(#p9453d61cd5)" d="M 376.755833 307.584 
L 378.731418 307.584 
L 378.731418 276.878769 
L 376.755833 276.878769 
z
" style="fill:#fa9ba4;opacity:0.2;"/>
   </g>
   <g id="patch_141">
    <path clip-path="url(#p9453d61cd5)" d="M 378.950928 307.584 
L 380.926513 307.584 
L 380.926513 271.761231 
L 378.950928 271.761231 
z
" style="fill:#fa9ba4;opacity:0.2;"/>
   </g>
   <g id="patch_142">
    <path clip-path="url(#p9453d61cd5)" d="M 381.146022 307.584 
L 383.121608 307.584 
L 383.121608 246.173538 
L 381.146022 246.173538 
z
" style="fill:#fa9ba4;opacity:0.2;"/>
   </g>
   <g id="patch_143">
    <path clip-path="url(#p9453d61cd5)" d="M 383.341117 307.584 
L 385.316703 307.584 
L 385.316703 256.408615 
L 383.341117 256.408615 
z
" style="fill:#fa9ba4;opacity:0.2;"/>
   </g>
   <g id="patch_144">
    <path clip-path="url(#p9453d61cd5)" d="M 385.536212 307.584 
L 387.511798 307.584 
L 387.511798 307.584 
L 385.536212 307.584 
z
" style="fill:#fa9ba4;opacity:0.2;"/>
   </g>
   <g id="patch_145">
    <path clip-path="url(#p9453d61cd5)" d="M 387.731307 307.584 
L 389.706893 307.584 
L 389.706893 297.348923 
L 387.731307 297.348923 
z
" style="fill:#fa9ba4;opacity:0.2;"/>
   </g>
   <g id="patch_146">
    <path clip-path="url(#p9453d61cd5)" d="M 389.926402 307.584 
L 391.901988 307.584 
L 391.901988 287.113846 
L 389.926402 287.113846 
z
" style="fill:#fa9ba4;opacity:0.2;"/>
   </g>
   <g id="patch_147">
    <path clip-path="url(#p9453d61cd5)" d="M 392.121497 307.584 
L 394.097083 307.584 
L 394.097083 287.113846 
L 392.121497 287.113846 
z
" style="fill:#fa9ba4;opacity:0.2;"/>
   </g>
   <g id="patch_148">
    <path clip-path="url(#p9453d61cd5)" d="M 394.316592 307.584 
L 396.292178 307.584 
L 396.292178 302.466462 
L 394.316592 302.466462 
z
" style="fill:#fa9ba4;opacity:0.2;"/>
   </g>
   <g id="patch_149">
    <path clip-path="url(#p9453d61cd5)" d="M 396.511687 307.584 
L 398.487273 307.584 
L 398.487273 307.584 
L 396.511687 307.584 
z
" style="fill:#fa9ba4;opacity:0.2;"/>
   </g>
   <g id="matplotlib.axis_1"/>
   <g id="matplotlib.axis_2"/>
   <g id="PolyCollection_1">
    <defs>
     <path d="M 368.963245 -48.251077 
L 368.963245 -38.016 
L 371.15834 -38.016 
L 373.353435 -38.016 
L 375.54853 -38.016 
L 377.743625 -38.016 
L 379.93872 -38.016 
L 382.133815 -38.016 
L 384.32891 -38.016 
L 386.524005 -38.016 
L 388.7191 -38.016 
L 390.914195 -38.016 
L 393.10929 -38.016 
L 395.304385 -38.016 
L 397.49948 -38.016 
L 397.49948 -53.368615 
L 397.49948 -53.368615 
L 395.304385 -62.141538 
L 393.10929 -66.528 
L 390.914195 -67.990154 
L 388.7191 -65.796923 
L 386.524005 -65.065846 
L 384.32891 -67.259077 
L 382.133815 -61.410462 
L 379.93872 -52.637538 
L 377.743625 -48.982154 
L 375.54853 -46.057846 
L 373.353435 -45.326769 
L 371.15834 -48.251077 
L 368.963245 -48.251077 
z
" id="mff8f8be7b0" style="stroke:#dc3545;stroke-opacity:0.5;"/>
    </defs>
    <g clip-path="url(#p9453d61cd5)">
     <use style="fill:#dc3545;fill-opacity:0.5;stroke:#dc3545;stroke-opacity:0.5;" x="0" xlink:href="#mff8f8be7b0" y="345.6"/>
    </g>
   </g>
   <g id="PolyCollection_2">
    <defs>
     <path d="M 87.99109 -38.747077 
L 87.99109 -38.016 
L 90.186185 -38.016 
L 92.38128 -38.016 
L 94.576375 -38.016 
L 96.77147 -38.016 
L 98.966565 -38.016 
L 101.16166 -38.016 
L 103.356755 -38.016 
L 105.55185 -38.016 
L 107.746944 -38.016 
L 109.942039 -38.016 
L 112.137134 -38.016 
L 114.332229 -38.016 
L 116.527324 -38.016 
L 118.722419 -38.016 
L 120.917514 -38.016 
L 123.112609 -38.016 
L 125.307704 -38.016 
L 127.502799 -38.016 
L 129.697894 -38.016 
L 131.892989 -38.016 
L 134.088084 -38.016 
L 136.283179 -38.016 
L 138.478274 -38.016 
L 140.673369 -38.016 
L 142.868464 -38.016 
L 145.063559 -38.016 
L 147.258654 -38.016 
L 149.453749 -38.016 
L 151.648844 -38.016 
L 153.843939 -38.016 
L 156.039034 -38.016 
L 158.234129 -38.016 
L 160.429224 -38.016 
L 162.624319 -38.016 
L 164.819414 -38.016 
L 167.014509 -38.016 
L 169.209604 -38.016 
L 171.404699 -38.016 
L 173.599793 -38.016 
L 175.794888 -38.016 
L 177.989983 -38.016 
L 180.185078 -38.016 
L 182.380173 -38.016 
L 184.575268 -38.016 
L 186.770363 -38.016 
L 188.965458 -38.016 
L 191.160553 -38.016 
L 193.355648 -38.016 
L 195.550743 -38.016 
L 197.745838 -38.016 
L 199.940933 -38.016 
L 202.136028 -38.016 
L 204.331123 -38.016 
L 206.526218 -38.016 
L 208.721313 -38.016 
L 210.916408 -38.016 
L 213.111503 -38.016 
L 215.306598 -38.016 
L 217.501693 -38.016 
L 219.696788 -38.016 
L 221.891883 -38.016 
L 224.086978 -38.016 
L 226.282073 -38.016 
L 228.477168 -38.016 
L 230.672263 -38.016 
L 232.867358 -38.016 
L 235.062453 -38.016 
L 237.257547 -38.016 
L 239.452642 -38.016 
L 241.647737 -38.016 
L 243.842832 -38.016 
L 246.037927 -38.016 
L 248.233022 -38.016 
L 250.428117 -38.016 
L 252.623212 -38.016 
L 254.818307 -38.016 
L 257.013402 -38.016 
L 259.208497 -38.016 
L 261.403592 -38.016 
L 263.598687 -38.016 
L 265.793782 -38.016 
L 267.988877 -38.016 
L 270.183972 -38.016 
L 272.379067 -38.016 
L 274.574162 -38.016 
L 276.769257 -38.016 
L 278.964352 -38.016 
L 281.159447 -38.016 
L 283.354542 -38.016 
L 285.549637 -38.016 
L 287.744732 -38.016 
L 289.939827 -38.016 
L 292.134922 -38.016 
L 294.330017 -38.016 
L 296.525112 -38.016 
L 298.720207 -38.016 
L 300.915301 -38.016 
L 303.110396 -38.016 
L 305.305491 -38.016 
L 307.500586 -38.016 
L 309.695681 -38.016 
L 311.890776 -38.016 
L 314.085871 -38.016 
L 316.280966 -38.016 
L 318.476061 -38.016 
L 320.671156 -38.016 
L 322.866251 -38.016 
L 325.061346 -38.016 
L 327.256441 -38.016 
L 329.451536 -38.016 
L 331.646631 -38.016 
L 333.841726 -38.016 
L 336.036821 -38.016 
L 338.231916 -38.016 
L 340.427011 -38.016 
L 342.622106 -38.016 
L 344.817201 -38.016 
L 347.012296 -38.016 
L 349.207391 -38.016 
L 351.402486 -38.016 
L 353.597581 -38.016 
L 355.792676 -38.016 
L 357.987771 -38.016 
L 360.182866 -38.016 
L 362.377961 -38.016 
L 364.573056 -38.016 
L 366.76815 -38.016 
L 368.963245 -38.016 
L 368.963245 -48.251077 
L 368.963245 -48.251077 
L 366.76815 -52.637538 
L 364.573056 -55.561846 
L 362.377961 -57.024 
L 360.182866 -65.065846 
L 357.987771 -65.796923 
L 355.792676 -65.796923 
L 353.597581 -67.259077 
L 351.402486 -62.141538 
L 349.207391 -60.679385 
L 347.012296 -59.217231 
L 344.817201 -50.444308 
L 342.622106 -50.444308 
L 340.427011 -46.788923 
L 338.231916 -43.133538 
L 336.036821 -42.402462 
L 333.841726 -41.671385 
L 331.646631 -40.940308 
L 329.451536 -40.209231 
L 327.256441 -40.209231 
L 325.061346 -41.671385 
L 322.866251 -41.671385 
L 320.671156 -43.133538 
L 318.476061 -42.402462 
L 316.280966 -41.671385 
L 314.085871 -41.671385 
L 311.890776 -41.671385 
L 309.695681 -43.864615 
L 307.500586 -43.864615 
L 305.305491 -44.595692 
L 303.110396 -44.595692 
L 300.915301 -44.595692 
L 298.720207 -44.595692 
L 296.525112 -45.326769 
L 294.330017 -41.671385 
L 292.134922 -41.671385 
L 289.939827 -46.057846 
L 287.744732 -46.057846 
L 285.549637 -53.368615 
L 283.354542 -53.368615 
L 281.159447 -52.637538 
L 278.964352 -56.292923 
L 276.769257 -56.292923 
L 274.574162 -51.906462 
L 272.379067 -51.906462 
L 270.183972 -46.057846 
L 267.988877 -49.713231 
L 265.793782 -50.444308 
L 263.598687 -48.251077 
L 261.403592 -50.444308 
L 259.208497 -51.175385 
L 257.013402 -54.099692 
L 254.818307 -54.830769 
L 252.623212 -51.175385 
L 250.428117 -53.368615 
L 248.233022 -51.906462 
L 246.037927 -50.444308 
L 243.842832 -47.52 
L 241.647737 -46.057846 
L 239.452642 -53.368615 
L 237.257547 -53.368615 
L 235.062453 -49.713231 
L 232.867358 -49.713231 
L 230.672263 -49.713231 
L 228.477168 -51.175385 
L 226.282073 -49.713231 
L 224.086978 -40.209231 
L 221.891883 -45.326769 
L 219.696788 -83.342769 
L 217.501693 -83.342769 
L 215.306598 -109.661538 
L 213.111503 -108.199385 
L 210.916408 -108.199385 
L 208.721313 -108.199385 
L 206.526218 -108.930462 
L 204.331123 -72.376615 
L 202.136028 -75.300923 
L 199.940933 -51.906462 
L 197.745838 -52.637538 
L 195.550743 -52.637538 
L 193.355648 -52.637538 
L 191.160553 -46.788923 
L 188.965458 -46.057846 
L 186.770363 -43.864615 
L 184.575268 -40.209231 
L 182.380173 -39.478154 
L 180.185078 -41.671385 
L 177.989983 -41.671385 
L 175.794888 -41.671385 
L 173.599793 -40.940308 
L 171.404699 -43.864615 
L 169.209604 -45.326769 
L 167.014509 -46.057846 
L 164.819414 -43.864615 
L 162.624319 -43.864615 
L 160.429224 -44.595692 
L 158.234129 -44.595692 
L 156.039034 -50.444308 
L 153.843939 -48.982154 
L 151.648844 -63.603692 
L 149.453749 -63.603692 
L 147.258654 -73.838769 
L 145.063559 -85.536 
L 142.868464 -89.922462 
L 140.673369 -80.418462 
L 138.478274 -81.149538 
L 136.283179 -65.796923 
L 134.088084 -65.796923 
L 131.892989 -55.561846 
L 129.697894 -43.133538 
L 127.502799 -39.478154 
L 125.307704 -39.478154 
L 123.112609 -42.402462 
L 120.917514 -43.133538 
L 118.722419 -43.133538 
L 116.527324 -43.133538 
L 114.332229 -45.326769 
L 112.137134 -44.595692 
L 109.942039 -44.595692 
L 107.746944 -41.671385 
L 105.55185 -42.402462 
L 103.356755 -42.402462 
L 101.16166 -43.133538 
L 98.966565 -40.940308 
L 96.77147 -40.940308 
L 94.576375 -40.940308 
L 92.38128 -40.209231 
L 90.186185 -38.747077 
L 87.99109 -38.747077 
z
" id="md23e23dc38" style="stroke:#fa9ba4;stroke-opacity:0.3;"/>
    </defs>
    <g clip-path="url(#p9453d61cd5)">
     <use style="fill:#fa9ba4;fill-opacity:0.3;stroke:#fa9ba4;stroke-opacity:0.3;" x="0" xlink:href="#md23e23dc38" y="345.6"/>
    </g>
   </g>
   <g id="line2d_1">
    <path clip-path="url(#p9453d61cd5)" d="M 87.99109 306.852923 
L 90.186185 306.852923 
L 92.38128 305.390769 
L 94.576375 304.659692 
L 98.966565 304.659692 
L 101.16166 302.466462 
L 103.356755 303.197538 
L 105.55185 303.197538 
L 107.746944 303.928615 
L 109.942039 301.004308 
L 112.137134 301.004308 
L 114.332229 300.273231 
L 116.527324 302.466462 
L 120.917514 302.466462 
L 123.112609 303.197538 
L 125.307704 306.121846 
L 127.502799 306.121846 
L 129.697894 302.466462 
L 131.892989 290.038154 
L 134.088084 279.803077 
L 136.283179 279.803077 
L 138.478274 264.450462 
L 140.673369 265.181538 
L 142.868464 255.677538 
L 145.063559 260.064 
L 147.258654 271.761231 
L 149.453749 281.996308 
L 151.648844 281.996308 
L 153.843939 296.617846 
L 156.039034 295.155692 
L 158.234129 301.004308 
L 160.429224 301.004308 
L 162.624319 301.735385 
L 164.819414 301.735385 
L 167.014509 299.542154 
L 169.209604 300.273231 
L 171.404699 301.735385 
L 173.599793 304.659692 
L 175.794888 303.928615 
L 180.185078 303.928615 
L 182.380173 306.121846 
L 184.575268 305.390769 
L 186.770363 301.735385 
L 188.965458 299.542154 
L 191.160553 298.811077 
L 193.355648 292.962462 
L 197.745838 292.962462 
L 199.940933 293.693538 
L 202.136028 270.299077 
L 204.331123 273.223385 
L 206.526218 236.669538 
L 208.721313 237.400615 
L 213.111503 237.400615 
L 215.306598 235.938462 
L 217.501693 262.257231 
L 219.696788 262.257231 
L 221.891883 300.273231 
L 224.086978 305.390769 
L 226.282073 295.886769 
L 228.477168 294.424615 
L 230.672263 295.886769 
L 235.062453 295.886769 
L 237.257547 292.231385 
L 239.452642 292.231385 
L 241.647737 299.542154 
L 243.842832 298.08 
L 246.037927 295.155692 
L 250.428117 292.231385 
L 252.623212 294.424615 
L 254.818307 290.769231 
L 257.013402 291.500308 
L 259.208497 294.424615 
L 261.403592 295.155692 
L 263.598687 297.348923 
L 265.793782 295.155692 
L 267.988877 295.886769 
L 270.183972 299.542154 
L 272.379067 293.693538 
L 274.574162 293.693538 
L 276.769257 289.307077 
L 278.964352 289.307077 
L 281.159447 292.962462 
L 283.354542 292.231385 
L 285.549637 292.231385 
L 287.744732 299.542154 
L 289.939827 299.542154 
L 292.134922 303.928615 
L 294.330017 303.928615 
L 296.525112 300.273231 
L 298.720207 301.004308 
L 305.305491 301.004308 
L 307.500586 301.735385 
L 309.695681 301.735385 
L 311.890776 303.928615 
L 316.280966 303.928615 
L 320.671156 302.466462 
L 322.866251 303.928615 
L 325.061346 303.928615 
L 327.256441 305.390769 
L 329.451536 305.390769 
L 338.231916 302.466462 
L 342.622106 295.155692 
L 344.817201 295.155692 
L 347.012296 286.382769 
L 351.402486 283.458462 
L 353.597581 278.340923 
L 355.792676 279.803077 
L 357.987771 279.803077 
L 360.182866 280.534154 
L 362.377961 288.576 
L 364.573056 290.038154 
L 366.76815 292.962462 
L 368.963245 297.348923 
L 371.15834 297.348923 
L 373.353435 300.273231 
L 375.54853 299.542154 
L 377.743625 296.617846 
L 379.93872 292.962462 
L 382.133815 284.189538 
L 384.32891 278.340923 
L 386.524005 280.534154 
L 388.7191 279.803077 
L 390.914195 277.609846 
L 393.10929 279.072 
L 395.304385 283.458462 
L 397.49948 292.231385 
L 397.49948 292.231385 
" style="fill:none;stroke:#fa9ba4;stroke-linecap:square;stroke-width:2;"/>
   </g>
   <g id="line2d_2">
    <path clip-path="url(#p9453d61cd5)" d="M 368.963245 297.348923 
L 371.15834 297.348923 
L 373.353435 300.273231 
L 375.54853 299.542154 
L 377.743625 296.617846 
L 379.93872 292.962462 
L 382.133815 284.189538 
L 384.32891 278.340923 
L 386.524005 280.534154 
L 388.7191 279.803077 
L 390.914195 277.609846 
L 393.10929 279.072 
L 395.304385 283.458462 
L 397.49948 292.231385 
" style="fill:none;stroke:#dc3545;stroke-linecap:square;stroke-width:2;"/>
   </g>
  </g>
 </g>
 <defs>
  <clipPath id="p9453d61cd5">
   <rect height="266.112" width="357.12" x="57.6" y="41.472"/>
  </clipPath>
 </defs>
</svg>
