<?xml version="1.0" encoding="utf-8" standalone="no"?>
<!DOCTYPE svg PUBLIC "-//W3C//DTD SVG 1.1//EN"
  "http://www.w3.org/Graphics/SVG/1.1/DTD/svg11.dtd">
<!-- Created with matplotlib (https://matplotlib.org/) -->
<svg height="345.6pt" version="1.1" viewBox="0 0 460.8 345.6" width="460.8pt" xmlns="http://www.w3.org/2000/svg" xmlns:xlink="http://www.w3.org/1999/xlink">
 <metadata>
  <rdf:RDF xmlns:cc="http://creativecommons.org/ns#" xmlns:dc="http://purl.org/dc/elements/1.1/" xmlns:rdf="http://www.w3.org/1999/02/22-rdf-syntax-ns#">
   <cc:Work>
    <dc:type rdf:resource="http://purl.org/dc/dcmitype/StillImage"/>
    <dc:date>2021-01-27T13:01:55.849904</dc:date>
    <dc:format>image/svg+xml</dc:format>
    <dc:creator>
     <cc:Agent>
      <dc:title>Matplotlib v3.3.3, https://matplotlib.org/</dc:title>
     </cc:Agent>
    </dc:creator>
   </cc:Work>
  </rdf:RDF>
 </metadata>
 <defs>
  <style type="text/css">*{stroke-linecap:butt;stroke-linejoin:round;}</style>
 </defs>
 <g id="figure_1">
  <g id="patch_1">
   <path d="M 0 345.6 
L 460.8 345.6 
L 460.8 0 
L 0 0 
z
" style="fill:none;"/>
  </g>
  <g id="axes_1">
   <g id="patch_2">
    <path clip-path="url(#p5e50260152)" d="M 73.832727 307.584 
L 80.643662 307.584 
L 80.643662 307.584 
L 73.832727 307.584 
z
" style="fill:#fa9ba4;opacity:0.2;"/>
   </g>
   <g id="patch_3">
    <path clip-path="url(#p5e50260152)" d="M 81.400432 307.584 
L 88.211367 307.584 
L 88.211367 307.584 
L 81.400432 307.584 
z
" style="fill:#fa9ba4;opacity:0.2;"/>
   </g>
   <g id="patch_4">
    <path clip-path="url(#p5e50260152)" d="M 88.968137 307.584 
L 95.779072 307.584 
L 95.779072 307.584 
L 88.968137 307.584 
z
" style="fill:#fa9ba4;opacity:0.2;"/>
   </g>
   <g id="patch_5">
    <path clip-path="url(#p5e50260152)" d="M 96.535842 307.584 
L 103.346777 307.584 
L 103.346777 307.584 
L 96.535842 307.584 
z
" style="fill:#fa9ba4;opacity:0.2;"/>
   </g>
   <g id="patch_6">
    <path clip-path="url(#p5e50260152)" d="M 104.103547 307.584 
L 110.914482 307.584 
L 110.914482 307.584 
L 104.103547 307.584 
z
" style="fill:#fa9ba4;opacity:0.2;"/>
   </g>
   <g id="patch_7">
    <path clip-path="url(#p5e50260152)" d="M 111.671252 307.584 
L 118.482187 307.584 
L 118.482187 307.584 
L 111.671252 307.584 
z
" style="fill:#fa9ba4;opacity:0.2;"/>
   </g>
   <g id="patch_8">
    <path clip-path="url(#p5e50260152)" d="M 119.238957 307.584 
L 126.049892 307.584 
L 126.049892 294.912 
L 119.238957 294.912 
z
" style="fill:#fa9ba4;opacity:0.2;"/>
   </g>
   <g id="patch_9">
    <path clip-path="url(#p5e50260152)" d="M 126.806662 307.584 
L 133.617597 307.584 
L 133.617597 307.584 
L 126.806662 307.584 
z
" style="fill:#fa9ba4;opacity:0.2;"/>
   </g>
   <g id="patch_10">
    <path clip-path="url(#p5e50260152)" d="M 134.374367 307.584 
L 141.185302 307.584 
L 141.185302 282.24 
L 134.374367 282.24 
z
" style="fill:#fa9ba4;opacity:0.2;"/>
   </g>
   <g id="patch_11">
    <path clip-path="url(#p5e50260152)" d="M 141.942072 307.584 
L 148.753007 307.584 
L 148.753007 294.912 
L 141.942072 294.912 
z
" style="fill:#fa9ba4;opacity:0.2;"/>
   </g>
   <g id="patch_12">
    <path clip-path="url(#p5e50260152)" d="M 149.509777 307.584 
L 156.320712 307.584 
L 156.320712 307.584 
L 149.509777 307.584 
z
" style="fill:#fa9ba4;opacity:0.2;"/>
   </g>
   <g id="patch_13">
    <path clip-path="url(#p5e50260152)" d="M 157.077483 307.584 
L 163.888417 307.584 
L 163.888417 307.584 
L 157.077483 307.584 
z
" style="fill:#fa9ba4;opacity:0.2;"/>
   </g>
   <g id="patch_14">
    <path clip-path="url(#p5e50260152)" d="M 164.645188 307.584 
L 171.456122 307.584 
L 171.456122 269.568 
L 164.645188 269.568 
z
" style="fill:#fa9ba4;opacity:0.2;"/>
   </g>
   <g id="patch_15">
    <path clip-path="url(#p5e50260152)" d="M 172.212893 307.584 
L 179.023827 307.584 
L 179.023827 307.584 
L 172.212893 307.584 
z
" style="fill:#fa9ba4;opacity:0.2;"/>
   </g>
   <g id="patch_16">
    <path clip-path="url(#p5e50260152)" d="M 179.780598 307.584 
L 186.591532 307.584 
L 186.591532 307.584 
L 179.780598 307.584 
z
" style="fill:#fa9ba4;opacity:0.2;"/>
   </g>
   <g id="patch_17">
    <path clip-path="url(#p5e50260152)" d="M 187.348303 307.584 
L 194.159237 307.584 
L 194.159237 294.912 
L 187.348303 294.912 
z
" style="fill:#fa9ba4;opacity:0.2;"/>
   </g>
   <g id="patch_18">
    <path clip-path="url(#p5e50260152)" d="M 194.916008 307.584 
L 201.726942 307.584 
L 201.726942 244.224 
L 194.916008 244.224 
z
" style="fill:#fa9ba4;opacity:0.2;"/>
   </g>
   <g id="patch_19">
    <path clip-path="url(#p5e50260152)" d="M 202.483713 307.584 
L 209.294647 307.584 
L 209.294647 307.584 
L 202.483713 307.584 
z
" style="fill:#fa9ba4;opacity:0.2;"/>
   </g>
   <g id="patch_20">
    <path clip-path="url(#p5e50260152)" d="M 210.051418 307.584 
L 216.862352 307.584 
L 216.862352 294.912 
L 210.051418 294.912 
z
" style="fill:#fa9ba4;opacity:0.2;"/>
   </g>
   <g id="patch_21">
    <path clip-path="url(#p5e50260152)" d="M 217.619123 307.584 
L 224.430057 307.584 
L 224.430057 307.584 
L 217.619123 307.584 
z
" style="fill:#fa9ba4;opacity:0.2;"/>
   </g>
   <g id="patch_22">
    <path clip-path="url(#p5e50260152)" d="M 225.186828 307.584 
L 231.997762 307.584 
L 231.997762 307.584 
L 225.186828 307.584 
z
" style="fill:#fa9ba4;opacity:0.2;"/>
   </g>
   <g id="patch_23">
    <path clip-path="url(#p5e50260152)" d="M 232.754533 307.584 
L 239.565467 307.584 
L 239.565467 307.584 
L 232.754533 307.584 
z
" style="fill:#fa9ba4;opacity:0.2;"/>
   </g>
   <g id="patch_24">
    <path clip-path="url(#p5e50260152)" d="M 240.322238 307.584 
L 247.133172 307.584 
L 247.133172 307.584 
L 240.322238 307.584 
z
" style="fill:#fa9ba4;opacity:0.2;"/>
   </g>
   <g id="patch_25">
    <path clip-path="url(#p5e50260152)" d="M 247.889943 307.584 
L 254.700877 307.584 
L 254.700877 294.912 
L 247.889943 294.912 
z
" style="fill:#fa9ba4;opacity:0.2;"/>
   </g>
   <g id="patch_26">
    <path clip-path="url(#p5e50260152)" d="M 255.457648 307.584 
L 262.268582 307.584 
L 262.268582 307.584 
L 255.457648 307.584 
z
" style="fill:#fa9ba4;opacity:0.2;"/>
   </g>
   <g id="patch_27">
    <path clip-path="url(#p5e50260152)" d="M 263.025353 307.584 
L 269.836287 307.584 
L 269.836287 231.552 
L 263.025353 231.552 
z
" style="fill:#fa9ba4;opacity:0.2;"/>
   </g>
   <g id="patch_28">
    <path clip-path="url(#p5e50260152)" d="M 270.593058 307.584 
L 277.403992 307.584 
L 277.403992 92.16 
L 270.593058 92.16 
z
" style="fill:#fa9ba4;opacity:0.2;"/>
   </g>
   <g id="patch_29">
    <path clip-path="url(#p5e50260152)" d="M 278.160763 307.584 
L 284.971697 307.584 
L 284.971697 130.176 
L 278.160763 130.176 
z
" style="fill:#fa9ba4;opacity:0.2;"/>
   </g>
   <g id="patch_30">
    <path clip-path="url(#p5e50260152)" d="M 285.728468 307.584 
L 292.539402 307.584 
L 292.539402 307.584 
L 285.728468 307.584 
z
" style="fill:#fa9ba4;opacity:0.2;"/>
   </g>
   <g id="patch_31">
    <path clip-path="url(#p5e50260152)" d="M 293.296173 307.584 
L 300.107107 307.584 
L 300.107107 41.472 
L 293.296173 41.472 
z
" style="fill:#fa9ba4;opacity:0.2;"/>
   </g>
   <g id="patch_32">
    <path clip-path="url(#p5e50260152)" d="M 300.863878 307.584 
L 307.674812 307.584 
L 307.674812 307.584 
L 300.863878 307.584 
z
" style="fill:#fa9ba4;opacity:0.2;"/>
   </g>
   <g id="patch_33">
    <path clip-path="url(#p5e50260152)" d="M 308.431583 307.584 
L 315.242517 307.584 
L 315.242517 142.848 
L 308.431583 142.848 
z
" style="fill:#fa9ba4;opacity:0.2;"/>
   </g>
   <g id="patch_34">
    <path clip-path="url(#p5e50260152)" d="M 315.999288 307.584 
L 322.810223 307.584 
L 322.810223 307.584 
L 315.999288 307.584 
z
" style="fill:#fa9ba4;opacity:0.2;"/>
   </g>
   <g id="patch_35">
    <path clip-path="url(#p5e50260152)" d="M 323.566993 307.584 
L 330.377928 307.584 
L 330.377928 294.912 
L 323.566993 294.912 
z
" style="fill:#fa9ba4;opacity:0.2;"/>
   </g>
   <g id="patch_36">
    <path clip-path="url(#p5e50260152)" d="M 331.134698 307.584 
L 337.945633 307.584 
L 337.945633 307.584 
L 331.134698 307.584 
z
" style="fill:#fa9ba4;opacity:0.2;"/>
   </g>
   <g id="patch_37">
    <path clip-path="url(#p5e50260152)" d="M 338.702403 307.584 
L 345.513338 307.584 
L 345.513338 307.584 
L 338.702403 307.584 
z
" style="fill:#fa9ba4;opacity:0.2;"/>
   </g>
   <g id="patch_38">
    <path clip-path="url(#p5e50260152)" d="M 346.270108 307.584 
L 353.081043 307.584 
L 353.081043 294.912 
L 346.270108 294.912 
z
" style="fill:#fa9ba4;opacity:0.2;"/>
   </g>
   <g id="patch_39">
    <path clip-path="url(#p5e50260152)" d="M 353.837813 307.584 
L 360.648748 307.584 
L 360.648748 282.24 
L 353.837813 282.24 
z
" style="fill:#fa9ba4;opacity:0.2;"/>
   </g>
   <g id="patch_40">
    <path clip-path="url(#p5e50260152)" d="M 361.405518 307.584 
L 368.216453 307.584 
L 368.216453 244.224 
L 361.405518 244.224 
z
" style="fill:#fa9ba4;opacity:0.2;"/>
   </g>
   <g id="patch_41">
    <path clip-path="url(#p5e50260152)" d="M 368.973223 307.584 
L 375.784158 307.584 
L 375.784158 307.584 
L 368.973223 307.584 
z
" style="fill:#fa9ba4;opacity:0.2;"/>
   </g>
   <g id="patch_42">
    <path clip-path="url(#p5e50260152)" d="M 376.540928 307.584 
L 383.351863 307.584 
L 383.351863 307.584 
L 376.540928 307.584 
z
" style="fill:#fa9ba4;opacity:0.2;"/>
   </g>
   <g id="patch_43">
    <path clip-path="url(#p5e50260152)" d="M 384.108633 307.584 
L 390.919568 307.584 
L 390.919568 307.584 
L 384.108633 307.584 
z
" style="fill:#fa9ba4;opacity:0.2;"/>
   </g>
   <g id="patch_44">
    <path clip-path="url(#p5e50260152)" d="M 391.676338 307.584 
L 398.487273 307.584 
L 398.487273 307.584 
L 391.676338 307.584 
z
" style="fill:#fa9ba4;opacity:0.2;"/>
   </g>
   <g id="matplotlib.axis_1"/>
   <g id="matplotlib.axis_2"/>
   <g id="PolyCollection_1">
    <defs>
     <path d="M 296.70164 -144.822857 
L 296.70164 -38.016 
L 304.269345 -38.016 
L 311.83705 -38.016 
L 319.404755 -38.016 
L 326.97246 -38.016 
L 334.540165 -38.016 
L 342.10787 -38.016 
L 349.675575 -38.016 
L 357.24328 -38.016 
L 364.810985 -38.016 
L 372.37869 -38.016 
L 379.946395 -38.016 
L 387.5141 -38.016 
L 395.081805 -38.016 
L 395.081805 -52.498286 
L 395.081805 -52.498286 
L 387.5141 -52.498286 
L 379.946395 -52.498286 
L 372.37869 -54.308571 
L 364.810985 -54.308571 
L 357.24328 -68.790857 
L 349.675575 -65.170286 
L 342.10787 -101.376 
L 334.540165 -101.376 
L 326.97246 -126.72 
L 319.404755 -155.684571 
L 311.83705 -166.546286 
L 304.269345 -143.012571 
L 296.70164 -144.822857 
z
" id="me54c338391" style="stroke:#dc3545;stroke-opacity:0.5;"/>
    </defs>
    <g clip-path="url(#p5e50260152)">
     <use style="fill:#dc3545;fill-opacity:0.5;stroke:#dc3545;stroke-opacity:0.5;" x="0" xlink:href="#me54c338391" y="345.6"/>
    </g>
   </g>
   <g id="PolyCollection_2">
    <defs>
     <path d="M 122.644425 -39.826286 
L 122.644425 -38.016 
L 130.21213 -38.016 
L 137.779835 -38.016 
L 145.34754 -38.016 
L 152.915245 -38.016 
L 160.48295 -38.016 
L 168.050655 -38.016 
L 175.61836 -38.016 
L 183.186065 -38.016 
L 190.75377 -38.016 
L 198.321475 -38.016 
L 205.88918 -38.016 
L 213.456885 -38.016 
L 221.02459 -38.016 
L 228.592295 -38.016 
L 236.16 -38.016 
L 243.727705 -38.016 
L 251.29541 -38.016 
L 258.863115 -38.016 
L 266.43082 -38.016 
L 273.998525 -38.016 
L 281.56623 -38.016 
L 289.133935 -38.016 
L 296.70164 -38.016 
L 296.70164 -144.822857 
L 296.70164 -144.822857 
L 289.133935 -106.806857 
L 281.56623 -106.806857 
L 273.998525 -81.462857 
L 266.43082 -50.688 
L 258.863115 -41.636571 
L 251.29541 -41.636571 
L 243.727705 -48.877714 
L 236.16 -50.688 
L 228.592295 -50.688 
L 221.02459 -50.688 
L 213.456885 -56.118857 
L 205.88918 -54.308571 
L 198.321475 -54.308571 
L 190.75377 -47.067429 
L 183.186065 -48.877714 
L 175.61836 -48.877714 
L 168.050655 -50.688 
L 160.48295 -45.257143 
L 152.915245 -45.257143 
L 145.34754 -45.257143 
L 137.779835 -43.446857 
L 130.21213 -39.826286 
L 122.644425 -39.826286 
z
" id="m702648cc1d" style="stroke:#fa9ba4;stroke-opacity:0.3;"/>
    </defs>
    <g clip-path="url(#p5e50260152)">
     <use style="fill:#fa9ba4;fill-opacity:0.3;stroke:#fa9ba4;stroke-opacity:0.3;" x="0" xlink:href="#m702648cc1d" y="345.6"/>
    </g>
   </g>
   <g id="line2d_1">
    <path clip-path="url(#p5e50260152)" d="M 122.644425 305.773714 
L 130.21213 305.773714 
L 137.779835 302.153143 
L 145.34754 300.342857 
L 152.915245 300.342857 
L 160.48295 300.342857 
L 168.050655 294.912 
L 175.61836 296.722286 
L 183.186065 296.722286 
L 190.75377 298.532571 
L 198.321475 291.291429 
L 205.88918 291.291429 
L 213.456885 289.481143 
L 221.02459 294.912 
L 228.592295 294.912 
L 236.16 294.912 
L 243.727705 296.722286 
L 251.29541 303.963429 
L 258.863115 303.963429 
L 266.43082 294.912 
L 273.998525 264.137143 
L 281.56623 238.793143 
L 289.133935 238.793143 
L 296.70164 200.777143 
L 304.269345 202.587429 
L 311.83705 179.053714 
L 319.404755 189.915429 
L 326.97246 218.88 
L 334.540165 244.224 
L 342.10787 244.224 
L 349.675575 280.429714 
L 357.24328 276.809143 
L 364.810985 291.291429 
L 372.37869 291.291429 
L 379.946395 293.101714 
L 387.5141 293.101714 
L 395.081805 293.101714 
" style="fill:none;stroke:#fa9ba4;stroke-linecap:square;stroke-width:2;"/>
   </g>
   <g id="line2d_2">
    <path clip-path="url(#p5e50260152)" d="M 296.70164 200.777143 
L 304.269345 202.587429 
L 311.83705 179.053714 
L 319.404755 189.915429 
L 326.97246 218.88 
L 334.540165 244.224 
L 342.10787 244.224 
L 349.675575 280.429714 
L 357.24328 276.809143 
L 364.810985 291.291429 
L 372.37869 291.291429 
L 379.946395 293.101714 
L 387.5141 293.101714 
L 395.081805 293.101714 
" style="fill:none;stroke:#dc3545;stroke-linecap:square;stroke-width:2;"/>
   </g>
  </g>
 </g>
 <defs>
  <clipPath id="p5e50260152">
   <rect height="266.112" width="357.12" x="57.6" y="41.472"/>
  </clipPath>
 </defs>
</svg>
