<?xml version="1.0" encoding="utf-8" standalone="no"?>
<!DOCTYPE svg PUBLIC "-//W3C//DTD SVG 1.1//EN"
  "http://www.w3.org/Graphics/SVG/1.1/DTD/svg11.dtd">
<!-- Created with matplotlib (https://matplotlib.org/) -->
<svg height="345.6pt" version="1.1" viewBox="0 0 460.8 345.6" width="460.8pt" xmlns="http://www.w3.org/2000/svg" xmlns:xlink="http://www.w3.org/1999/xlink">
 <defs>
  <style type="text/css">
*{stroke-linecap:butt;stroke-linejoin:round;}
  </style>
 </defs>
 <g id="figure_1">
  <g id="patch_1">
   <path d="M 0 345.6 
L 460.8 345.6 
L 460.8 0 
L 0 0 
z
" style="fill:none;"/>
  </g>
  <g id="axes_1">
   <g id="patch_2">
    <path clip-path="url(#p3a6edd2a9f)" d="M 73.832727 307.584 
L 82.713855 307.584 
L 82.713855 307.584 
L 73.832727 307.584 
z
" style="fill:#fa9ba4;opacity:0.2;"/>
   </g>
   <g id="patch_3">
    <path clip-path="url(#p3a6edd2a9f)" d="M 83.700647 307.584 
L 92.581774 307.584 
L 92.581774 307.584 
L 83.700647 307.584 
z
" style="fill:#fa9ba4;opacity:0.2;"/>
   </g>
   <g id="patch_4">
    <path clip-path="url(#p3a6edd2a9f)" d="M 93.568566 307.584 
L 102.449693 307.584 
L 102.449693 307.584 
L 93.568566 307.584 
z
" style="fill:#fa9ba4;opacity:0.2;"/>
   </g>
   <g id="patch_5">
    <path clip-path="url(#p3a6edd2a9f)" d="M 103.436485 307.584 
L 112.317613 307.584 
L 112.317613 307.584 
L 103.436485 307.584 
z
" style="fill:#fa9ba4;opacity:0.2;"/>
   </g>
   <g id="patch_6">
    <path clip-path="url(#p3a6edd2a9f)" d="M 113.304405 307.584 
L 122.185532 307.584 
L 122.185532 307.584 
L 113.304405 307.584 
z
" style="fill:#fa9ba4;opacity:0.2;"/>
   </g>
   <g id="patch_7">
    <path clip-path="url(#p3a6edd2a9f)" d="M 123.172324 307.584 
L 132.053451 307.584 
L 132.053451 307.584 
L 123.172324 307.584 
z
" style="fill:#fa9ba4;opacity:0.2;"/>
   </g>
   <g id="patch_8">
    <path clip-path="url(#p3a6edd2a9f)" d="M 133.040243 307.584 
L 141.921371 307.584 
L 141.921371 307.584 
L 133.040243 307.584 
z
" style="fill:#fa9ba4;opacity:0.2;"/>
   </g>
   <g id="patch_9">
    <path clip-path="url(#p3a6edd2a9f)" d="M 142.908162 307.584 
L 151.78929 307.584 
L 151.78929 307.584 
L 142.908162 307.584 
z
" style="fill:#fa9ba4;opacity:0.2;"/>
   </g>
   <g id="patch_10">
    <path clip-path="url(#p3a6edd2a9f)" d="M 152.776082 307.584 
L 161.657209 307.584 
L 161.657209 307.584 
L 152.776082 307.584 
z
" style="fill:#fa9ba4;opacity:0.2;"/>
   </g>
   <g id="patch_11">
    <path clip-path="url(#p3a6edd2a9f)" d="M 162.644001 307.584 
L 171.525128 307.584 
L 171.525128 307.584 
L 162.644001 307.584 
z
" style="fill:#fa9ba4;opacity:0.2;"/>
   </g>
   <g id="patch_12">
    <path clip-path="url(#p3a6edd2a9f)" d="M 172.51192 307.584 
L 181.393048 307.584 
L 181.393048 307.584 
L 172.51192 307.584 
z
" style="fill:#fa9ba4;opacity:0.2;"/>
   </g>
   <g id="patch_13">
    <path clip-path="url(#p3a6edd2a9f)" d="M 182.37984 307.584 
L 191.260967 307.584 
L 191.260967 307.584 
L 182.37984 307.584 
z
" style="fill:#fa9ba4;opacity:0.2;"/>
   </g>
   <g id="patch_14">
    <path clip-path="url(#p3a6edd2a9f)" d="M 192.247759 307.584 
L 201.128886 307.584 
L 201.128886 307.584 
L 192.247759 307.584 
z
" style="fill:#fa9ba4;opacity:0.2;"/>
   </g>
   <g id="patch_15">
    <path clip-path="url(#p3a6edd2a9f)" d="M 202.115678 307.584 
L 210.996806 307.584 
L 210.996806 307.584 
L 202.115678 307.584 
z
" style="fill:#fa9ba4;opacity:0.2;"/>
   </g>
   <g id="patch_16">
    <path clip-path="url(#p3a6edd2a9f)" d="M 211.983598 307.584 
L 220.864725 307.584 
L 220.864725 307.584 
L 211.983598 307.584 
z
" style="fill:#fa9ba4;opacity:0.2;"/>
   </g>
   <g id="patch_17">
    <path clip-path="url(#p3a6edd2a9f)" d="M 221.851517 307.584 
L 230.732644 307.584 
L 230.732644 307.584 
L 221.851517 307.584 
z
" style="fill:#fa9ba4;opacity:0.2;"/>
   </g>
   <g id="patch_18">
    <path clip-path="url(#p3a6edd2a9f)" d="M 231.719436 307.584 
L 240.600564 307.584 
L 240.600564 174.528 
L 231.719436 174.528 
z
" style="fill:#fa9ba4;opacity:0.2;"/>
   </g>
   <g id="patch_19">
    <path clip-path="url(#p3a6edd2a9f)" d="M 241.587356 307.584 
L 250.468483 307.584 
L 250.468483 307.584 
L 241.587356 307.584 
z
" style="fill:#fa9ba4;opacity:0.2;"/>
   </g>
   <g id="patch_20">
    <path clip-path="url(#p3a6edd2a9f)" d="M 251.455275 307.584 
L 260.336402 307.584 
L 260.336402 307.584 
L 251.455275 307.584 
z
" style="fill:#fa9ba4;opacity:0.2;"/>
   </g>
   <g id="patch_21">
    <path clip-path="url(#p3a6edd2a9f)" d="M 261.323194 307.584 
L 270.204322 307.584 
L 270.204322 174.528 
L 261.323194 174.528 
z
" style="fill:#fa9ba4;opacity:0.2;"/>
   </g>
   <g id="patch_22">
    <path clip-path="url(#p3a6edd2a9f)" d="M 271.191114 307.584 
L 280.072241 307.584 
L 280.072241 307.584 
L 271.191114 307.584 
z
" style="fill:#fa9ba4;opacity:0.2;"/>
   </g>
   <g id="patch_23">
    <path clip-path="url(#p3a6edd2a9f)" d="M 281.059033 307.584 
L 289.94016 307.584 
L 289.94016 307.584 
L 281.059033 307.584 
z
" style="fill:#fa9ba4;opacity:0.2;"/>
   </g>
   <g id="patch_24">
    <path clip-path="url(#p3a6edd2a9f)" d="M 290.926952 307.584 
L 299.80808 307.584 
L 299.80808 41.472 
L 290.926952 41.472 
z
" style="fill:#fa9ba4;opacity:0.2;"/>
   </g>
   <g id="patch_25">
    <path clip-path="url(#p3a6edd2a9f)" d="M 300.794872 307.584 
L 309.675999 307.584 
L 309.675999 307.584 
L 300.794872 307.584 
z
" style="fill:#fa9ba4;opacity:0.2;"/>
   </g>
   <g id="patch_26">
    <path clip-path="url(#p3a6edd2a9f)" d="M 310.662791 307.584 
L 319.543918 307.584 
L 319.543918 307.584 
L 310.662791 307.584 
z
" style="fill:#fa9ba4;opacity:0.2;"/>
   </g>
   <g id="patch_27">
    <path clip-path="url(#p3a6edd2a9f)" d="M 320.53071 307.584 
L 329.411838 307.584 
L 329.411838 307.584 
L 320.53071 307.584 
z
" style="fill:#fa9ba4;opacity:0.2;"/>
   </g>
   <g id="patch_28">
    <path clip-path="url(#p3a6edd2a9f)" d="M 330.398629 307.584 
L 339.279757 307.584 
L 339.279757 307.584 
L 330.398629 307.584 
z
" style="fill:#fa9ba4;opacity:0.2;"/>
   </g>
   <g id="patch_29">
    <path clip-path="url(#p3a6edd2a9f)" d="M 340.266549 307.584 
L 349.147676 307.584 
L 349.147676 174.528 
L 340.266549 174.528 
z
" style="fill:#fa9ba4;opacity:0.2;"/>
   </g>
   <g id="patch_30">
    <path clip-path="url(#p3a6edd2a9f)" d="M 350.134468 307.584 
L 359.015595 307.584 
L 359.015595 307.584 
L 350.134468 307.584 
z
" style="fill:#fa9ba4;opacity:0.2;"/>
   </g>
   <g id="patch_31">
    <path clip-path="url(#p3a6edd2a9f)" d="M 360.002387 307.584 
L 368.883515 307.584 
L 368.883515 307.584 
L 360.002387 307.584 
z
" style="fill:#fa9ba4;opacity:0.2;"/>
   </g>
   <g id="patch_32">
    <path clip-path="url(#p3a6edd2a9f)" d="M 369.870307 307.584 
L 378.751434 307.584 
L 378.751434 307.584 
L 369.870307 307.584 
z
" style="fill:#fa9ba4;opacity:0.2;"/>
   </g>
   <g id="patch_33">
    <path clip-path="url(#p3a6edd2a9f)" d="M 379.738226 307.584 
L 388.619353 307.584 
L 388.619353 307.584 
L 379.738226 307.584 
z
" style="fill:#fa9ba4;opacity:0.2;"/>
   </g>
   <g id="patch_34">
    <path clip-path="url(#p3a6edd2a9f)" d="M 389.606145 307.584 
L 398.487273 307.584 
L 398.487273 307.584 
L 389.606145 307.584 
z
" style="fill:#fa9ba4;opacity:0.2;"/>
   </g>
   <g id="matplotlib.axis_1"/>
   <g id="matplotlib.axis_2"/>
   <g id="PolyCollection_1">
    <defs>
     <path d="M 265.763758 -76.032 
L 265.763758 -38.016 
L 275.631677 -38.016 
L 285.499597 -38.016 
L 295.367516 -38.016 
L 305.235435 -38.016 
L 315.103355 -38.016 
L 324.971274 -38.016 
L 334.839193 -38.016 
L 344.707112 -38.016 
L 354.575032 -38.016 
L 364.442951 -38.016 
L 374.31087 -38.016 
L 384.17879 -38.016 
L 394.046709 -38.016 
L 394.046709 -57.024 
L 394.046709 -57.024 
L 384.17879 -57.024 
L 374.31087 -57.024 
L 364.442951 -57.024 
L 354.575032 -95.04 
L 344.707112 -95.04 
L 334.839193 -76.032 
L 324.971274 -95.04 
L 315.103355 -95.04 
L 305.235435 -95.04 
L 295.367516 -114.048 
L 285.499597 -76.032 
L 275.631677 -76.032 
L 265.763758 -76.032 
z
" id="mc947fd0200" style="stroke:#dc3545;stroke-opacity:0.5;"/>
    </defs>
    <g clip-path="url(#p3a6edd2a9f)">
     <use style="fill:#dc3545;fill-opacity:0.5;stroke:#dc3545;stroke-opacity:0.5;" x="0" xlink:href="#mc947fd0200" y="345.6"/>
    </g>
   </g>
   <g id="PolyCollection_2">
    <defs>
     <path d="M 137.480807 -38.016 
L 137.480807 -38.016 
L 147.348726 -38.016 
L 157.216645 -38.016 
L 167.084565 -38.016 
L 176.952484 -38.016 
L 186.820403 -38.016 
L 196.688323 -38.016 
L 206.556242 -38.016 
L 216.424161 -38.016 
L 226.292081 -38.016 
L 236.16 -38.016 
L 246.027919 -38.016 
L 255.895839 -38.016 
L 265.763758 -38.016 
L 265.763758 -76.032 
L 265.763758 -76.032 
L 255.895839 -57.024 
L 246.027919 -57.024 
L 236.16 -57.024 
L 226.292081 -38.016 
L 216.424161 -38.016 
L 206.556242 -38.016 
L 196.688323 -38.016 
L 186.820403 -38.016 
L 176.952484 -38.016 
L 167.084565 -38.016 
L 157.216645 -38.016 
L 147.348726 -38.016 
L 137.480807 -38.016 
z
" id="me53c81cf8b" style="stroke:#fa9ba4;stroke-opacity:0.3;"/>
    </defs>
    <g clip-path="url(#p3a6edd2a9f)">
     <use style="fill:#fa9ba4;fill-opacity:0.3;stroke:#fa9ba4;stroke-opacity:0.3;" x="0" xlink:href="#me53c81cf8b" y="345.6"/>
    </g>
   </g>
   <g id="line2d_1">
    <path clip-path="url(#p3a6edd2a9f)" d="M 137.480807 307.584 
L 147.348726 307.584 
L 157.216645 307.584 
L 167.084565 307.584 
L 176.952484 307.584 
L 186.820403 307.584 
L 196.688323 307.584 
L 206.556242 307.584 
L 216.424161 307.584 
L 226.292081 307.584 
L 236.16 288.576 
L 246.027919 288.576 
L 255.895839 288.576 
L 265.763758 269.568 
L 275.631677 269.568 
L 285.499597 269.568 
L 295.367516 231.552 
L 305.235435 250.56 
L 315.103355 250.56 
L 324.971274 250.56 
L 334.839193 269.568 
L 344.707112 250.56 
L 354.575032 250.56 
L 364.442951 288.576 
L 374.31087 288.576 
L 384.17879 288.576 
L 394.046709 288.576 
" style="fill:none;stroke:#fa9ba4;stroke-linecap:square;stroke-width:2;"/>
   </g>
   <g id="line2d_2">
    <path clip-path="url(#p3a6edd2a9f)" d="M 265.763758 269.568 
L 275.631677 269.568 
L 285.499597 269.568 
L 295.367516 231.552 
L 305.235435 250.56 
L 315.103355 250.56 
L 324.971274 250.56 
L 334.839193 269.568 
L 344.707112 250.56 
L 354.575032 250.56 
L 364.442951 288.576 
L 374.31087 288.576 
L 384.17879 288.576 
L 394.046709 288.576 
" style="fill:none;stroke:#dc3545;stroke-linecap:square;stroke-width:2;"/>
   </g>
  </g>
 </g>
 <defs>
  <clipPath id="p3a6edd2a9f">
   <rect height="266.112" width="357.12" x="57.6" y="41.472"/>
  </clipPath>
 </defs>
</svg>
