<?xml version="1.0" encoding="utf-8" standalone="no"?>
<!DOCTYPE svg PUBLIC "-//W3C//DTD SVG 1.1//EN"
  "http://www.w3.org/Graphics/SVG/1.1/DTD/svg11.dtd">
<svg height="345.6pt" version="1.1" viewBox="0 0 460.8 345.6" width="460.8pt" xmlns="http://www.w3.org/2000/svg" xmlns:xlink="http://www.w3.org/1999/xlink">
 <metadata>
  <rdf:RDF xmlns:cc="http://creativecommons.org/ns#" xmlns:dc="http://purl.org/dc/elements/1.1/" xmlns:rdf="http://www.w3.org/1999/02/22-rdf-syntax-ns#">
   <cc:Work>
    <dc:type rdf:resource="http://purl.org/dc/dcmitype/StillImage"/>
    <dc:date>2021-05-12T13:24:24.172042</dc:date>
    <dc:format>image/svg+xml</dc:format>
    <dc:creator>
     <cc:Agent>
      <dc:title>Matplotlib v3.4.2, https://matplotlib.org/</dc:title>
     </cc:Agent>
    </dc:creator>
   </cc:Work>
  </rdf:RDF>
 </metadata>
 <defs>
  <style type="text/css">*{stroke-linecap:butt;stroke-linejoin:round;}</style>
 </defs>
 <g id="figure_1">
  <g id="patch_1">
   <path d="M 0 345.6 
L 460.8 345.6 
L 460.8 0 
L 0 0 
z
" style="fill:none;"/>
  </g>
  <g id="axes_1">
   <g id="patch_2">
    <path clip-path="url(#p027180c21c)" d="M 73.832727 307.584 
L 75.808313 307.584 
L 75.808313 307.584 
L 73.832727 307.584 
z
" style="fill:#fa9ba4;opacity:0.2;"/>
   </g>
   <g id="patch_3">
    <path clip-path="url(#p027180c21c)" d="M 76.027822 307.584 
L 78.003408 307.584 
L 78.003408 307.584 
L 76.027822 307.584 
z
" style="fill:#fa9ba4;opacity:0.2;"/>
   </g>
   <g id="patch_4">
    <path clip-path="url(#p027180c21c)" d="M 78.222917 307.584 
L 80.198503 307.584 
L 80.198503 307.584 
L 78.222917 307.584 
z
" style="fill:#fa9ba4;opacity:0.2;"/>
   </g>
   <g id="patch_5">
    <path clip-path="url(#p027180c21c)" d="M 80.418012 307.584 
L 82.393598 307.584 
L 82.393598 307.584 
L 80.418012 307.584 
z
" style="fill:#fa9ba4;opacity:0.2;"/>
   </g>
   <g id="patch_6">
    <path clip-path="url(#p027180c21c)" d="M 82.613107 307.584 
L 84.588693 307.584 
L 84.588693 307.584 
L 82.613107 307.584 
z
" style="fill:#fa9ba4;opacity:0.2;"/>
   </g>
   <g id="patch_7">
    <path clip-path="url(#p027180c21c)" d="M 84.808202 307.584 
L 86.783788 307.584 
L 86.783788 307.584 
L 84.808202 307.584 
z
" style="fill:#fa9ba4;opacity:0.2;"/>
   </g>
   <g id="patch_8">
    <path clip-path="url(#p027180c21c)" d="M 87.003297 307.584 
L 88.978883 307.584 
L 88.978883 296.93952 
L 87.003297 296.93952 
z
" style="fill:#fa9ba4;opacity:0.2;"/>
   </g>
   <g id="patch_9">
    <path clip-path="url(#p027180c21c)" d="M 89.198392 307.584 
L 91.173978 307.584 
L 91.173978 302.26176 
L 89.198392 302.26176 
z
" style="fill:#fa9ba4;opacity:0.2;"/>
   </g>
   <g id="patch_10">
    <path clip-path="url(#p027180c21c)" d="M 91.393487 307.584 
L 93.369072 307.584 
L 93.369072 291.61728 
L 91.393487 291.61728 
z
" style="fill:#fa9ba4;opacity:0.2;"/>
   </g>
   <g id="patch_11">
    <path clip-path="url(#p027180c21c)" d="M 93.588582 307.584 
L 95.564167 307.584 
L 95.564167 307.584 
L 93.588582 307.584 
z
" style="fill:#fa9ba4;opacity:0.2;"/>
   </g>
   <g id="patch_12">
    <path clip-path="url(#p027180c21c)" d="M 95.783677 307.584 
L 97.759262 307.584 
L 97.759262 302.26176 
L 95.783677 302.26176 
z
" style="fill:#fa9ba4;opacity:0.2;"/>
   </g>
   <g id="patch_13">
    <path clip-path="url(#p027180c21c)" d="M 97.978772 307.584 
L 99.954357 307.584 
L 99.954357 307.584 
L 97.978772 307.584 
z
" style="fill:#fa9ba4;opacity:0.2;"/>
   </g>
   <g id="patch_14">
    <path clip-path="url(#p027180c21c)" d="M 100.173867 307.584 
L 102.149452 307.584 
L 102.149452 238.39488 
L 100.173867 238.39488 
z
" style="fill:#fa9ba4;opacity:0.2;"/>
   </g>
   <g id="patch_15">
    <path clip-path="url(#p027180c21c)" d="M 102.368962 307.584 
L 104.344547 307.584 
L 104.344547 211.78368 
L 102.368962 211.78368 
z
" style="fill:#fa9ba4;opacity:0.2;"/>
   </g>
   <g id="patch_16">
    <path clip-path="url(#p027180c21c)" d="M 104.564057 307.584 
L 106.539642 307.584 
L 106.539642 227.7504 
L 104.564057 227.7504 
z
" style="fill:#fa9ba4;opacity:0.2;"/>
   </g>
   <g id="patch_17">
    <path clip-path="url(#p027180c21c)" d="M 106.759152 307.584 
L 108.734737 307.584 
L 108.734737 280.9728 
L 106.759152 280.9728 
z
" style="fill:#fa9ba4;opacity:0.2;"/>
   </g>
   <g id="patch_18">
    <path clip-path="url(#p027180c21c)" d="M 108.954247 307.584 
L 110.929832 307.584 
L 110.929832 307.584 
L 108.954247 307.584 
z
" style="fill:#fa9ba4;opacity:0.2;"/>
   </g>
   <g id="patch_19">
    <path clip-path="url(#p027180c21c)" d="M 111.149342 307.584 
L 113.124927 307.584 
L 113.124927 302.26176 
L 111.149342 302.26176 
z
" style="fill:#fa9ba4;opacity:0.2;"/>
   </g>
   <g id="patch_20">
    <path clip-path="url(#p027180c21c)" d="M 113.344437 307.584 
L 115.320022 307.584 
L 115.320022 296.93952 
L 113.344437 296.93952 
z
" style="fill:#fa9ba4;opacity:0.2;"/>
   </g>
   <g id="patch_21">
    <path clip-path="url(#p027180c21c)" d="M 115.539532 307.584 
L 117.515117 307.584 
L 117.515117 307.584 
L 115.539532 307.584 
z
" style="fill:#fa9ba4;opacity:0.2;"/>
   </g>
   <g id="patch_22">
    <path clip-path="url(#p027180c21c)" d="M 117.734627 307.584 
L 119.710212 307.584 
L 119.710212 296.93952 
L 117.734627 296.93952 
z
" style="fill:#fa9ba4;opacity:0.2;"/>
   </g>
   <g id="patch_23">
    <path clip-path="url(#p027180c21c)" d="M 119.929722 307.584 
L 121.905307 307.584 
L 121.905307 302.26176 
L 119.929722 302.26176 
z
" style="fill:#fa9ba4;opacity:0.2;"/>
   </g>
   <g id="patch_24">
    <path clip-path="url(#p027180c21c)" d="M 122.124817 307.584 
L 124.100402 307.584 
L 124.100402 296.93952 
L 122.124817 296.93952 
z
" style="fill:#fa9ba4;opacity:0.2;"/>
   </g>
   <g id="patch_25">
    <path clip-path="url(#p027180c21c)" d="M 124.319911 307.584 
L 126.295497 307.584 
L 126.295497 291.61728 
L 124.319911 291.61728 
z
" style="fill:#fa9ba4;opacity:0.2;"/>
   </g>
   <g id="patch_26">
    <path clip-path="url(#p027180c21c)" d="M 126.515006 307.584 
L 128.490592 307.584 
L 128.490592 280.9728 
L 126.515006 280.9728 
z
" style="fill:#fa9ba4;opacity:0.2;"/>
   </g>
   <g id="patch_27">
    <path clip-path="url(#p027180c21c)" d="M 128.710101 307.584 
L 130.685687 307.584 
L 130.685687 302.26176 
L 128.710101 302.26176 
z
" style="fill:#fa9ba4;opacity:0.2;"/>
   </g>
   <g id="patch_28">
    <path clip-path="url(#p027180c21c)" d="M 130.905196 307.584 
L 132.880782 307.584 
L 132.880782 307.584 
L 130.905196 307.584 
z
" style="fill:#fa9ba4;opacity:0.2;"/>
   </g>
   <g id="patch_29">
    <path clip-path="url(#p027180c21c)" d="M 133.100291 307.584 
L 135.075877 307.584 
L 135.075877 307.584 
L 133.100291 307.584 
z
" style="fill:#fa9ba4;opacity:0.2;"/>
   </g>
   <g id="patch_30">
    <path clip-path="url(#p027180c21c)" d="M 135.295386 307.584 
L 137.270972 307.584 
L 137.270972 307.584 
L 135.295386 307.584 
z
" style="fill:#fa9ba4;opacity:0.2;"/>
   </g>
   <g id="patch_31">
    <path clip-path="url(#p027180c21c)" d="M 137.490481 307.584 
L 139.466067 307.584 
L 139.466067 307.584 
L 137.490481 307.584 
z
" style="fill:#fa9ba4;opacity:0.2;"/>
   </g>
   <g id="patch_32">
    <path clip-path="url(#p027180c21c)" d="M 139.685576 307.584 
L 141.661162 307.584 
L 141.661162 307.584 
L 139.685576 307.584 
z
" style="fill:#fa9ba4;opacity:0.2;"/>
   </g>
   <g id="patch_33">
    <path clip-path="url(#p027180c21c)" d="M 141.880671 307.584 
L 143.856257 307.584 
L 143.856257 307.584 
L 141.880671 307.584 
z
" style="fill:#fa9ba4;opacity:0.2;"/>
   </g>
   <g id="patch_34">
    <path clip-path="url(#p027180c21c)" d="M 144.075766 307.584 
L 146.051352 307.584 
L 146.051352 307.584 
L 144.075766 307.584 
z
" style="fill:#fa9ba4;opacity:0.2;"/>
   </g>
   <g id="patch_35">
    <path clip-path="url(#p027180c21c)" d="M 146.270861 307.584 
L 148.246447 307.584 
L 148.246447 307.584 
L 146.270861 307.584 
z
" style="fill:#fa9ba4;opacity:0.2;"/>
   </g>
   <g id="patch_36">
    <path clip-path="url(#p027180c21c)" d="M 148.465956 307.584 
L 150.441542 307.584 
L 150.441542 307.584 
L 148.465956 307.584 
z
" style="fill:#fa9ba4;opacity:0.2;"/>
   </g>
   <g id="patch_37">
    <path clip-path="url(#p027180c21c)" d="M 150.661051 307.584 
L 152.636637 307.584 
L 152.636637 307.584 
L 150.661051 307.584 
z
" style="fill:#fa9ba4;opacity:0.2;"/>
   </g>
   <g id="patch_38">
    <path clip-path="url(#p027180c21c)" d="M 152.856146 307.584 
L 154.831732 307.584 
L 154.831732 307.584 
L 152.856146 307.584 
z
" style="fill:#fa9ba4;opacity:0.2;"/>
   </g>
   <g id="patch_39">
    <path clip-path="url(#p027180c21c)" d="M 155.051241 307.584 
L 157.026826 307.584 
L 157.026826 307.584 
L 155.051241 307.584 
z
" style="fill:#fa9ba4;opacity:0.2;"/>
   </g>
   <g id="patch_40">
    <path clip-path="url(#p027180c21c)" d="M 157.246336 307.584 
L 159.221921 307.584 
L 159.221921 307.584 
L 157.246336 307.584 
z
" style="fill:#fa9ba4;opacity:0.2;"/>
   </g>
   <g id="patch_41">
    <path clip-path="url(#p027180c21c)" d="M 159.441431 307.584 
L 161.417016 307.584 
L 161.417016 307.584 
L 159.441431 307.584 
z
" style="fill:#fa9ba4;opacity:0.2;"/>
   </g>
   <g id="patch_42">
    <path clip-path="url(#p027180c21c)" d="M 161.636526 307.584 
L 163.612111 307.584 
L 163.612111 307.584 
L 161.636526 307.584 
z
" style="fill:#fa9ba4;opacity:0.2;"/>
   </g>
   <g id="patch_43">
    <path clip-path="url(#p027180c21c)" d="M 163.831621 307.584 
L 165.807206 307.584 
L 165.807206 307.584 
L 163.831621 307.584 
z
" style="fill:#fa9ba4;opacity:0.2;"/>
   </g>
   <g id="patch_44">
    <path clip-path="url(#p027180c21c)" d="M 166.026716 307.584 
L 168.002301 307.584 
L 168.002301 307.584 
L 166.026716 307.584 
z
" style="fill:#fa9ba4;opacity:0.2;"/>
   </g>
   <g id="patch_45">
    <path clip-path="url(#p027180c21c)" d="M 168.221811 307.584 
L 170.197396 307.584 
L 170.197396 307.584 
L 168.221811 307.584 
z
" style="fill:#fa9ba4;opacity:0.2;"/>
   </g>
   <g id="patch_46">
    <path clip-path="url(#p027180c21c)" d="M 170.416906 307.584 
L 172.392491 307.584 
L 172.392491 307.584 
L 170.416906 307.584 
z
" style="fill:#fa9ba4;opacity:0.2;"/>
   </g>
   <g id="patch_47">
    <path clip-path="url(#p027180c21c)" d="M 172.612001 307.584 
L 174.587586 307.584 
L 174.587586 307.584 
L 172.612001 307.584 
z
" style="fill:#fa9ba4;opacity:0.2;"/>
   </g>
   <g id="patch_48">
    <path clip-path="url(#p027180c21c)" d="M 174.807096 307.584 
L 176.782681 307.584 
L 176.782681 307.584 
L 174.807096 307.584 
z
" style="fill:#fa9ba4;opacity:0.2;"/>
   </g>
   <g id="patch_49">
    <path clip-path="url(#p027180c21c)" d="M 177.002191 307.584 
L 178.977776 307.584 
L 178.977776 302.26176 
L 177.002191 302.26176 
z
" style="fill:#fa9ba4;opacity:0.2;"/>
   </g>
   <g id="patch_50">
    <path clip-path="url(#p027180c21c)" d="M 179.197286 307.584 
L 181.172871 307.584 
L 181.172871 307.584 
L 179.197286 307.584 
z
" style="fill:#fa9ba4;opacity:0.2;"/>
   </g>
   <g id="patch_51">
    <path clip-path="url(#p027180c21c)" d="M 181.392381 307.584 
L 183.367966 307.584 
L 183.367966 307.584 
L 181.392381 307.584 
z
" style="fill:#fa9ba4;opacity:0.2;"/>
   </g>
   <g id="patch_52">
    <path clip-path="url(#p027180c21c)" d="M 183.587476 307.584 
L 185.563061 307.584 
L 185.563061 307.584 
L 183.587476 307.584 
z
" style="fill:#fa9ba4;opacity:0.2;"/>
   </g>
   <g id="patch_53">
    <path clip-path="url(#p027180c21c)" d="M 185.782571 307.584 
L 187.758156 307.584 
L 187.758156 307.584 
L 185.782571 307.584 
z
" style="fill:#fa9ba4;opacity:0.2;"/>
   </g>
   <g id="patch_54">
    <path clip-path="url(#p027180c21c)" d="M 187.977665 307.584 
L 189.953251 307.584 
L 189.953251 307.584 
L 187.977665 307.584 
z
" style="fill:#fa9ba4;opacity:0.2;"/>
   </g>
   <g id="patch_55">
    <path clip-path="url(#p027180c21c)" d="M 190.17276 307.584 
L 192.148346 307.584 
L 192.148346 307.584 
L 190.17276 307.584 
z
" style="fill:#fa9ba4;opacity:0.2;"/>
   </g>
   <g id="patch_56">
    <path clip-path="url(#p027180c21c)" d="M 192.367855 307.584 
L 194.343441 307.584 
L 194.343441 307.584 
L 192.367855 307.584 
z
" style="fill:#fa9ba4;opacity:0.2;"/>
   </g>
   <g id="patch_57">
    <path clip-path="url(#p027180c21c)" d="M 194.56295 307.584 
L 196.538536 307.584 
L 196.538536 302.26176 
L 194.56295 302.26176 
z
" style="fill:#fa9ba4;opacity:0.2;"/>
   </g>
   <g id="patch_58">
    <path clip-path="url(#p027180c21c)" d="M 196.758045 307.584 
L 198.733631 307.584 
L 198.733631 307.584 
L 196.758045 307.584 
z
" style="fill:#fa9ba4;opacity:0.2;"/>
   </g>
   <g id="patch_59">
    <path clip-path="url(#p027180c21c)" d="M 198.95314 307.584 
L 200.928726 307.584 
L 200.928726 307.584 
L 198.95314 307.584 
z
" style="fill:#fa9ba4;opacity:0.2;"/>
   </g>
   <g id="patch_60">
    <path clip-path="url(#p027180c21c)" d="M 201.148235 307.584 
L 203.123821 307.584 
L 203.123821 307.584 
L 201.148235 307.584 
z
" style="fill:#fa9ba4;opacity:0.2;"/>
   </g>
   <g id="patch_61">
    <path clip-path="url(#p027180c21c)" d="M 203.34333 307.584 
L 205.318916 307.584 
L 205.318916 307.584 
L 203.34333 307.584 
z
" style="fill:#fa9ba4;opacity:0.2;"/>
   </g>
   <g id="patch_62">
    <path clip-path="url(#p027180c21c)" d="M 205.538425 307.584 
L 207.514011 307.584 
L 207.514011 307.584 
L 205.538425 307.584 
z
" style="fill:#fa9ba4;opacity:0.2;"/>
   </g>
   <g id="patch_63">
    <path clip-path="url(#p027180c21c)" d="M 207.73352 307.584 
L 209.709106 307.584 
L 209.709106 302.26176 
L 207.73352 302.26176 
z
" style="fill:#fa9ba4;opacity:0.2;"/>
   </g>
   <g id="patch_64">
    <path clip-path="url(#p027180c21c)" d="M 209.928615 307.584 
L 211.904201 307.584 
L 211.904201 265.00608 
L 209.928615 265.00608 
z
" style="fill:#fa9ba4;opacity:0.2;"/>
   </g>
   <g id="patch_65">
    <path clip-path="url(#p027180c21c)" d="M 212.12371 307.584 
L 214.099296 307.584 
L 214.099296 302.26176 
L 212.12371 302.26176 
z
" style="fill:#fa9ba4;opacity:0.2;"/>
   </g>
   <g id="patch_66">
    <path clip-path="url(#p027180c21c)" d="M 214.318805 307.584 
L 216.294391 307.584 
L 216.294391 302.26176 
L 214.318805 302.26176 
z
" style="fill:#fa9ba4;opacity:0.2;"/>
   </g>
   <g id="patch_67">
    <path clip-path="url(#p027180c21c)" d="M 216.5139 307.584 
L 218.489486 307.584 
L 218.489486 302.26176 
L 216.5139 302.26176 
z
" style="fill:#fa9ba4;opacity:0.2;"/>
   </g>
   <g id="patch_68">
    <path clip-path="url(#p027180c21c)" d="M 218.708995 307.584 
L 220.68458 307.584 
L 220.68458 254.3616 
L 218.708995 254.3616 
z
" style="fill:#fa9ba4;opacity:0.2;"/>
   </g>
   <g id="patch_69">
    <path clip-path="url(#p027180c21c)" d="M 220.90409 307.584 
L 222.879675 307.584 
L 222.879675 296.93952 
L 220.90409 296.93952 
z
" style="fill:#fa9ba4;opacity:0.2;"/>
   </g>
   <g id="patch_70">
    <path clip-path="url(#p027180c21c)" d="M 223.099185 307.584 
L 225.07477 307.584 
L 225.07477 307.584 
L 223.099185 307.584 
z
" style="fill:#fa9ba4;opacity:0.2;"/>
   </g>
   <g id="patch_71">
    <path clip-path="url(#p027180c21c)" d="M 225.29428 307.584 
L 227.269865 307.584 
L 227.269865 275.65056 
L 225.29428 275.65056 
z
" style="fill:#fa9ba4;opacity:0.2;"/>
   </g>
   <g id="patch_72">
    <path clip-path="url(#p027180c21c)" d="M 227.489375 307.584 
L 229.46496 307.584 
L 229.46496 302.26176 
L 227.489375 302.26176 
z
" style="fill:#fa9ba4;opacity:0.2;"/>
   </g>
   <g id="patch_73">
    <path clip-path="url(#p027180c21c)" d="M 229.68447 307.584 
L 231.660055 307.584 
L 231.660055 307.584 
L 229.68447 307.584 
z
" style="fill:#fa9ba4;opacity:0.2;"/>
   </g>
   <g id="patch_74">
    <path clip-path="url(#p027180c21c)" d="M 231.879565 307.584 
L 233.85515 307.584 
L 233.85515 302.26176 
L 231.879565 302.26176 
z
" style="fill:#fa9ba4;opacity:0.2;"/>
   </g>
   <g id="patch_75">
    <path clip-path="url(#p027180c21c)" d="M 234.07466 307.584 
L 236.050245 307.584 
L 236.050245 291.61728 
L 234.07466 291.61728 
z
" style="fill:#fa9ba4;opacity:0.2;"/>
   </g>
   <g id="patch_76">
    <path clip-path="url(#p027180c21c)" d="M 236.269755 307.584 
L 238.24534 307.584 
L 238.24534 296.93952 
L 236.269755 296.93952 
z
" style="fill:#fa9ba4;opacity:0.2;"/>
   </g>
   <g id="patch_77">
    <path clip-path="url(#p027180c21c)" d="M 238.46485 307.584 
L 240.440435 307.584 
L 240.440435 302.26176 
L 238.46485 302.26176 
z
" style="fill:#fa9ba4;opacity:0.2;"/>
   </g>
   <g id="patch_78">
    <path clip-path="url(#p027180c21c)" d="M 240.659945 307.584 
L 242.63553 307.584 
L 242.63553 296.93952 
L 240.659945 296.93952 
z
" style="fill:#fa9ba4;opacity:0.2;"/>
   </g>
   <g id="patch_79">
    <path clip-path="url(#p027180c21c)" d="M 242.85504 307.584 
L 244.830625 307.584 
L 244.830625 302.26176 
L 242.85504 302.26176 
z
" style="fill:#fa9ba4;opacity:0.2;"/>
   </g>
   <g id="patch_80">
    <path clip-path="url(#p027180c21c)" d="M 245.050135 307.584 
L 247.02572 307.584 
L 247.02572 307.584 
L 245.050135 307.584 
z
" style="fill:#fa9ba4;opacity:0.2;"/>
   </g>
   <g id="patch_81">
    <path clip-path="url(#p027180c21c)" d="M 247.24523 307.584 
L 249.220815 307.584 
L 249.220815 307.584 
L 247.24523 307.584 
z
" style="fill:#fa9ba4;opacity:0.2;"/>
   </g>
   <g id="patch_82">
    <path clip-path="url(#p027180c21c)" d="M 249.440325 307.584 
L 251.41591 307.584 
L 251.41591 307.584 
L 249.440325 307.584 
z
" style="fill:#fa9ba4;opacity:0.2;"/>
   </g>
   <g id="patch_83">
    <path clip-path="url(#p027180c21c)" d="M 251.63542 307.584 
L 253.611005 307.584 
L 253.611005 307.584 
L 251.63542 307.584 
z
" style="fill:#fa9ba4;opacity:0.2;"/>
   </g>
   <g id="patch_84">
    <path clip-path="url(#p027180c21c)" d="M 253.830514 307.584 
L 255.8061 307.584 
L 255.8061 307.584 
L 253.830514 307.584 
z
" style="fill:#fa9ba4;opacity:0.2;"/>
   </g>
   <g id="patch_85">
    <path clip-path="url(#p027180c21c)" d="M 256.025609 307.584 
L 258.001195 307.584 
L 258.001195 307.584 
L 256.025609 307.584 
z
" style="fill:#fa9ba4;opacity:0.2;"/>
   </g>
   <g id="patch_86">
    <path clip-path="url(#p027180c21c)" d="M 258.220704 307.584 
L 260.19629 307.584 
L 260.19629 307.584 
L 258.220704 307.584 
z
" style="fill:#fa9ba4;opacity:0.2;"/>
   </g>
   <g id="patch_87">
    <path clip-path="url(#p027180c21c)" d="M 260.415799 307.584 
L 262.391385 307.584 
L 262.391385 307.584 
L 260.415799 307.584 
z
" style="fill:#fa9ba4;opacity:0.2;"/>
   </g>
   <g id="patch_88">
    <path clip-path="url(#p027180c21c)" d="M 262.610894 307.584 
L 264.58648 307.584 
L 264.58648 307.584 
L 262.610894 307.584 
z
" style="fill:#fa9ba4;opacity:0.2;"/>
   </g>
   <g id="patch_89">
    <path clip-path="url(#p027180c21c)" d="M 264.805989 307.584 
L 266.781575 307.584 
L 266.781575 307.584 
L 264.805989 307.584 
z
" style="fill:#fa9ba4;opacity:0.2;"/>
   </g>
   <g id="patch_90">
    <path clip-path="url(#p027180c21c)" d="M 267.001084 307.584 
L 268.97667 307.584 
L 268.97667 307.584 
L 267.001084 307.584 
z
" style="fill:#fa9ba4;opacity:0.2;"/>
   </g>
   <g id="patch_91">
    <path clip-path="url(#p027180c21c)" d="M 269.196179 307.584 
L 271.171765 307.584 
L 271.171765 291.61728 
L 269.196179 291.61728 
z
" style="fill:#fa9ba4;opacity:0.2;"/>
   </g>
   <g id="patch_92">
    <path clip-path="url(#p027180c21c)" d="M 271.391274 307.584 
L 273.36686 307.584 
L 273.36686 307.584 
L 271.391274 307.584 
z
" style="fill:#fa9ba4;opacity:0.2;"/>
   </g>
   <g id="patch_93">
    <path clip-path="url(#p027180c21c)" d="M 273.586369 307.584 
L 275.561955 307.584 
L 275.561955 291.61728 
L 273.586369 291.61728 
z
" style="fill:#fa9ba4;opacity:0.2;"/>
   </g>
   <g id="patch_94">
    <path clip-path="url(#p027180c21c)" d="M 275.781464 307.584 
L 277.75705 307.584 
L 277.75705 238.39488 
L 275.781464 238.39488 
z
" style="fill:#fa9ba4;opacity:0.2;"/>
   </g>
   <g id="patch_95">
    <path clip-path="url(#p027180c21c)" d="M 277.976559 307.584 
L 279.952145 307.584 
L 279.952145 280.9728 
L 277.976559 280.9728 
z
" style="fill:#fa9ba4;opacity:0.2;"/>
   </g>
   <g id="patch_96">
    <path clip-path="url(#p027180c21c)" d="M 280.171654 307.584 
L 282.14724 307.584 
L 282.14724 302.26176 
L 280.171654 302.26176 
z
" style="fill:#fa9ba4;opacity:0.2;"/>
   </g>
   <g id="patch_97">
    <path clip-path="url(#p027180c21c)" d="M 282.366749 307.584 
L 284.342335 307.584 
L 284.342335 302.26176 
L 282.366749 302.26176 
z
" style="fill:#fa9ba4;opacity:0.2;"/>
   </g>
   <g id="patch_98">
    <path clip-path="url(#p027180c21c)" d="M 284.561844 307.584 
L 286.537429 307.584 
L 286.537429 296.93952 
L 284.561844 296.93952 
z
" style="fill:#fa9ba4;opacity:0.2;"/>
   </g>
   <g id="patch_99">
    <path clip-path="url(#p027180c21c)" d="M 286.756939 307.584 
L 288.732524 307.584 
L 288.732524 302.26176 
L 286.756939 302.26176 
z
" style="fill:#fa9ba4;opacity:0.2;"/>
   </g>
   <g id="patch_100">
    <path clip-path="url(#p027180c21c)" d="M 288.952034 307.584 
L 290.927619 307.584 
L 290.927619 249.03936 
L 288.952034 249.03936 
z
" style="fill:#fa9ba4;opacity:0.2;"/>
   </g>
   <g id="patch_101">
    <path clip-path="url(#p027180c21c)" d="M 291.147129 307.584 
L 293.122714 307.584 
L 293.122714 302.26176 
L 291.147129 302.26176 
z
" style="fill:#fa9ba4;opacity:0.2;"/>
   </g>
   <g id="patch_102">
    <path clip-path="url(#p027180c21c)" d="M 293.342224 307.584 
L 295.317809 307.584 
L 295.317809 291.61728 
L 293.342224 291.61728 
z
" style="fill:#fa9ba4;opacity:0.2;"/>
   </g>
   <g id="patch_103">
    <path clip-path="url(#p027180c21c)" d="M 295.537319 307.584 
L 297.512904 307.584 
L 297.512904 307.584 
L 295.537319 307.584 
z
" style="fill:#fa9ba4;opacity:0.2;"/>
   </g>
   <g id="patch_104">
    <path clip-path="url(#p027180c21c)" d="M 297.732414 307.584 
L 299.707999 307.584 
L 299.707999 302.26176 
L 297.732414 302.26176 
z
" style="fill:#fa9ba4;opacity:0.2;"/>
   </g>
   <g id="patch_105">
    <path clip-path="url(#p027180c21c)" d="M 299.927509 307.584 
L 301.903094 307.584 
L 301.903094 307.584 
L 299.927509 307.584 
z
" style="fill:#fa9ba4;opacity:0.2;"/>
   </g>
   <g id="patch_106">
    <path clip-path="url(#p027180c21c)" d="M 302.122604 307.584 
L 304.098189 307.584 
L 304.098189 307.584 
L 302.122604 307.584 
z
" style="fill:#fa9ba4;opacity:0.2;"/>
   </g>
   <g id="patch_107">
    <path clip-path="url(#p027180c21c)" d="M 304.317699 307.584 
L 306.293284 307.584 
L 306.293284 296.93952 
L 304.317699 296.93952 
z
" style="fill:#fa9ba4;opacity:0.2;"/>
   </g>
   <g id="patch_108">
    <path clip-path="url(#p027180c21c)" d="M 306.512794 307.584 
L 308.488379 307.584 
L 308.488379 307.584 
L 306.512794 307.584 
z
" style="fill:#fa9ba4;opacity:0.2;"/>
   </g>
   <g id="patch_109">
    <path clip-path="url(#p027180c21c)" d="M 308.707889 307.584 
L 310.683474 307.584 
L 310.683474 307.584 
L 308.707889 307.584 
z
" style="fill:#fa9ba4;opacity:0.2;"/>
   </g>
   <g id="patch_110">
    <path clip-path="url(#p027180c21c)" d="M 310.902984 307.584 
L 312.878569 307.584 
L 312.878569 307.584 
L 310.902984 307.584 
z
" style="fill:#fa9ba4;opacity:0.2;"/>
   </g>
   <g id="patch_111">
    <path clip-path="url(#p027180c21c)" d="M 313.098079 307.584 
L 315.073664 307.584 
L 315.073664 280.9728 
L 313.098079 280.9728 
z
" style="fill:#fa9ba4;opacity:0.2;"/>
   </g>
   <g id="patch_112">
    <path clip-path="url(#p027180c21c)" d="M 315.293174 307.584 
L 317.268759 307.584 
L 317.268759 291.61728 
L 315.293174 291.61728 
z
" style="fill:#fa9ba4;opacity:0.2;"/>
   </g>
   <g id="patch_113">
    <path clip-path="url(#p027180c21c)" d="M 317.488268 307.584 
L 319.463854 307.584 
L 319.463854 307.584 
L 317.488268 307.584 
z
" style="fill:#fa9ba4;opacity:0.2;"/>
   </g>
   <g id="patch_114">
    <path clip-path="url(#p027180c21c)" d="M 319.683363 307.584 
L 321.658949 307.584 
L 321.658949 302.26176 
L 319.683363 302.26176 
z
" style="fill:#fa9ba4;opacity:0.2;"/>
   </g>
   <g id="patch_115">
    <path clip-path="url(#p027180c21c)" d="M 321.878458 307.584 
L 323.854044 307.584 
L 323.854044 302.26176 
L 321.878458 302.26176 
z
" style="fill:#fa9ba4;opacity:0.2;"/>
   </g>
   <g id="patch_116">
    <path clip-path="url(#p027180c21c)" d="M 324.073553 307.584 
L 326.049139 307.584 
L 326.049139 275.65056 
L 324.073553 275.65056 
z
" style="fill:#fa9ba4;opacity:0.2;"/>
   </g>
   <g id="patch_117">
    <path clip-path="url(#p027180c21c)" d="M 326.268648 307.584 
L 328.244234 307.584 
L 328.244234 302.26176 
L 326.268648 302.26176 
z
" style="fill:#fa9ba4;opacity:0.2;"/>
   </g>
   <g id="patch_118">
    <path clip-path="url(#p027180c21c)" d="M 328.463743 307.584 
L 330.439329 307.584 
L 330.439329 227.7504 
L 328.463743 227.7504 
z
" style="fill:#fa9ba4;opacity:0.2;"/>
   </g>
   <g id="patch_119">
    <path clip-path="url(#p027180c21c)" d="M 330.658838 307.584 
L 332.634424 307.584 
L 332.634424 254.3616 
L 330.658838 254.3616 
z
" style="fill:#fa9ba4;opacity:0.2;"/>
   </g>
   <g id="patch_120">
    <path clip-path="url(#p027180c21c)" d="M 332.853933 307.584 
L 334.829519 307.584 
L 334.829519 217.10592 
L 332.853933 217.10592 
z
" style="fill:#fa9ba4;opacity:0.2;"/>
   </g>
   <g id="patch_121">
    <path clip-path="url(#p027180c21c)" d="M 335.049028 307.584 
L 337.024614 307.584 
L 337.024614 254.3616 
L 335.049028 254.3616 
z
" style="fill:#fa9ba4;opacity:0.2;"/>
   </g>
   <g id="patch_122">
    <path clip-path="url(#p027180c21c)" d="M 337.244123 307.584 
L 339.219709 307.584 
L 339.219709 201.1392 
L 337.244123 201.1392 
z
" style="fill:#fa9ba4;opacity:0.2;"/>
   </g>
   <g id="patch_123">
    <path clip-path="url(#p027180c21c)" d="M 339.439218 307.584 
L 341.414804 307.584 
L 341.414804 217.10592 
L 339.439218 217.10592 
z
" style="fill:#fa9ba4;opacity:0.2;"/>
   </g>
   <g id="patch_124">
    <path clip-path="url(#p027180c21c)" d="M 341.634313 307.584 
L 343.609899 307.584 
L 343.609899 163.88352 
L 341.634313 163.88352 
z
" style="fill:#fa9ba4;opacity:0.2;"/>
   </g>
   <g id="patch_125">
    <path clip-path="url(#p027180c21c)" d="M 343.829408 307.584 
L 345.804994 307.584 
L 345.804994 211.78368 
L 343.829408 211.78368 
z
" style="fill:#fa9ba4;opacity:0.2;"/>
   </g>
   <g id="patch_126">
    <path clip-path="url(#p027180c21c)" d="M 346.024503 307.584 
L 348.000089 307.584 
L 348.000089 169.20576 
L 346.024503 169.20576 
z
" style="fill:#fa9ba4;opacity:0.2;"/>
   </g>
   <g id="patch_127">
    <path clip-path="url(#p027180c21c)" d="M 348.219598 307.584 
L 350.195183 307.584 
L 350.195183 105.33888 
L 348.219598 105.33888 
z
" style="fill:#fa9ba4;opacity:0.2;"/>
   </g>
   <g id="patch_128">
    <path clip-path="url(#p027180c21c)" d="M 350.414693 307.584 
L 352.390278 307.584 
L 352.390278 121.3056 
L 350.414693 121.3056 
z
" style="fill:#fa9ba4;opacity:0.2;"/>
   </g>
   <g id="patch_129">
    <path clip-path="url(#p027180c21c)" d="M 352.609788 307.584 
L 354.585373 307.584 
L 354.585373 206.46144 
L 352.609788 206.46144 
z
" style="fill:#fa9ba4;opacity:0.2;"/>
   </g>
   <g id="patch_130">
    <path clip-path="url(#p027180c21c)" d="M 354.804883 307.584 
L 356.780468 307.584 
L 356.780468 195.81696 
L 354.804883 195.81696 
z
" style="fill:#fa9ba4;opacity:0.2;"/>
   </g>
   <g id="patch_131">
    <path clip-path="url(#p027180c21c)" d="M 356.999978 307.584 
L 358.975563 307.584 
L 358.975563 179.85024 
L 356.999978 179.85024 
z
" style="fill:#fa9ba4;opacity:0.2;"/>
   </g>
   <g id="patch_132">
    <path clip-path="url(#p027180c21c)" d="M 359.195073 307.584 
L 361.170658 307.584 
L 361.170658 238.39488 
L 359.195073 238.39488 
z
" style="fill:#fa9ba4;opacity:0.2;"/>
   </g>
   <g id="patch_133">
    <path clip-path="url(#p027180c21c)" d="M 361.390168 307.584 
L 363.365753 307.584 
L 363.365753 222.42816 
L 361.390168 222.42816 
z
" style="fill:#fa9ba4;opacity:0.2;"/>
   </g>
   <g id="patch_134">
    <path clip-path="url(#p027180c21c)" d="M 363.585263 307.584 
L 365.560848 307.584 
L 365.560848 52.11648 
L 363.585263 52.11648 
z
" style="fill:#fa9ba4;opacity:0.2;"/>
   </g>
   <g id="patch_135">
    <path clip-path="url(#p027180c21c)" d="M 365.780358 307.584 
L 367.755943 307.584 
L 367.755943 158.56128 
L 365.780358 158.56128 
z
" style="fill:#fa9ba4;opacity:0.2;"/>
   </g>
   <g id="patch_136">
    <path clip-path="url(#p027180c21c)" d="M 367.975453 307.584 
L 369.951038 307.584 
L 369.951038 105.33888 
L 367.975453 105.33888 
z
" style="fill:#fa9ba4;opacity:0.2;"/>
   </g>
   <g id="patch_137">
    <path clip-path="url(#p027180c21c)" d="M 370.170548 307.584 
L 372.146133 307.584 
L 372.146133 147.9168 
L 370.170548 147.9168 
z
" style="fill:#fa9ba4;opacity:0.2;"/>
   </g>
   <g id="patch_138">
    <path clip-path="url(#p027180c21c)" d="M 372.365643 307.584 
L 374.341228 307.584 
L 374.341228 126.62784 
L 372.365643 126.62784 
z
" style="fill:#fa9ba4;opacity:0.2;"/>
   </g>
   <g id="patch_139">
    <path clip-path="url(#p027180c21c)" d="M 374.560738 307.584 
L 376.536323 307.584 
L 376.536323 153.23904 
L 374.560738 153.23904 
z
" style="fill:#fa9ba4;opacity:0.2;"/>
   </g>
   <g id="patch_140">
    <path clip-path="url(#p027180c21c)" d="M 376.755833 307.584 
L 378.731418 307.584 
L 378.731418 121.3056 
L 376.755833 121.3056 
z
" style="fill:#fa9ba4;opacity:0.2;"/>
   </g>
   <g id="patch_141">
    <path clip-path="url(#p027180c21c)" d="M 378.950928 307.584 
L 380.926513 307.584 
L 380.926513 185.17248 
L 378.950928 185.17248 
z
" style="fill:#fa9ba4;opacity:0.2;"/>
   </g>
   <g id="patch_142">
    <path clip-path="url(#p027180c21c)" d="M 381.146022 307.584 
L 383.121608 307.584 
L 383.121608 41.472 
L 381.146022 41.472 
z
" style="fill:#fa9ba4;opacity:0.2;"/>
   </g>
   <g id="patch_143">
    <path clip-path="url(#p027180c21c)" d="M 383.341117 307.584 
L 385.316703 307.584 
L 385.316703 249.03936 
L 383.341117 249.03936 
z
" style="fill:#fa9ba4;opacity:0.2;"/>
   </g>
   <g id="patch_144">
    <path clip-path="url(#p027180c21c)" d="M 385.536212 307.584 
L 387.511798 307.584 
L 387.511798 57.43872 
L 385.536212 57.43872 
z
" style="fill:#fa9ba4;opacity:0.2;"/>
   </g>
   <g id="patch_145">
    <path clip-path="url(#p027180c21c)" d="M 387.731307 307.584 
L 389.706893 307.584 
L 389.706893 153.23904 
L 387.731307 153.23904 
z
" style="fill:#fa9ba4;opacity:0.2;"/>
   </g>
   <g id="patch_146">
    <path clip-path="url(#p027180c21c)" d="M 389.926402 307.584 
L 391.901988 307.584 
L 391.901988 158.56128 
L 389.926402 158.56128 
z
" style="fill:#fa9ba4;opacity:0.2;"/>
   </g>
   <g id="patch_147">
    <path clip-path="url(#p027180c21c)" d="M 392.121497 307.584 
L 394.097083 307.584 
L 394.097083 190.49472 
L 392.121497 190.49472 
z
" style="fill:#fa9ba4;opacity:0.2;"/>
   </g>
   <g id="patch_148">
    <path clip-path="url(#p027180c21c)" d="M 394.316592 307.584 
L 396.292178 307.584 
L 396.292178 249.03936 
L 394.316592 249.03936 
z
" style="fill:#fa9ba4;opacity:0.2;"/>
   </g>
   <g id="patch_149">
    <path clip-path="url(#p027180c21c)" d="M 396.511687 307.584 
L 398.487273 307.584 
L 398.487273 201.1392 
L 396.511687 201.1392 
z
" style="fill:#fa9ba4;opacity:0.2;"/>
   </g>
   <g id="matplotlib.axis_1"/>
   <g id="matplotlib.axis_2"/>
   <g id="PolyCollection_1">
    <defs>
     <path d="M 368.963245 -180.95616 
L 368.963245 -38.016 
L 371.15834 -38.016 
L 373.353435 -38.016 
L 375.54853 -38.016 
L 377.743625 -38.016 
L 379.93872 -38.016 
L 382.133815 -38.016 
L 384.32891 -38.016 
L 386.524005 -38.016 
L 388.7191 -38.016 
L 390.914195 -38.016 
L 393.10929 -38.016 
L 395.304385 -38.016 
L 397.49948 -38.016 
L 397.49948 -165.74976 
L 397.49948 -165.74976 
L 395.304385 -188.55936 
L 393.10929 -197.6832 
L 390.914195 -207.56736 
L 388.7191 -208.32768 
L 386.524005 -212.12928 
L 384.32891 -199.20384 
L 382.133815 -219.73248 
L 379.93872 -203.00544 
L 377.743625 -222.01344 
L 375.54853 -207.56736 
L 373.353435 -195.40224 
L 371.15834 -187.79904 
L 368.963245 -180.95616 
z
" id="m87cf35c9a8" style="stroke:#dc3545;stroke-opacity:0.5;"/>
    </defs>
    <g clip-path="url(#p027180c21c)">
     <use style="fill:#dc3545;fill-opacity:0.5;stroke:#dc3545;stroke-opacity:0.5;" x="0" xlink:href="#m87cf35c9a8" y="345.6"/>
    </g>
   </g>
   <g id="PolyCollection_2">
    <defs>
     <path d="M 87.99109 -39.53664 
L 87.99109 -38.016 
L 90.186185 -38.016 
L 92.38128 -38.016 
L 94.576375 -38.016 
L 96.77147 -38.016 
L 98.966565 -38.016 
L 101.16166 -38.016 
L 103.356755 -38.016 
L 105.55185 -38.016 
L 107.746944 -38.016 
L 109.942039 -38.016 
L 112.137134 -38.016 
L 114.332229 -38.016 
L 116.527324 -38.016 
L 118.722419 -38.016 
L 120.917514 -38.016 
L 123.112609 -38.016 
L 125.307704 -38.016 
L 127.502799 -38.016 
L 129.697894 -38.016 
L 131.892989 -38.016 
L 134.088084 -38.016 
L 136.283179 -38.016 
L 138.478274 -38.016 
L 140.673369 -38.016 
L 142.868464 -38.016 
L 145.063559 -38.016 
L 147.258654 -38.016 
L 149.453749 -38.016 
L 151.648844 -38.016 
L 153.843939 -38.016 
L 156.039034 -38.016 
L 158.234129 -38.016 
L 160.429224 -38.016 
L 162.624319 -38.016 
L 164.819414 -38.016 
L 167.014509 -38.016 
L 169.209604 -38.016 
L 171.404699 -38.016 
L 173.599793 -38.016 
L 175.794888 -38.016 
L 177.989983 -38.016 
L 180.185078 -38.016 
L 182.380173 -38.016 
L 184.575268 -38.016 
L 186.770363 -38.016 
L 188.965458 -38.016 
L 191.160553 -38.016 
L 193.355648 -38.016 
L 195.550743 -38.016 
L 197.745838 -38.016 
L 199.940933 -38.016 
L 202.136028 -38.016 
L 204.331123 -38.016 
L 206.526218 -38.016 
L 208.721313 -38.016 
L 210.916408 -38.016 
L 213.111503 -38.016 
L 215.306598 -38.016 
L 217.501693 -38.016 
L 219.696788 -38.016 
L 221.891883 -38.016 
L 224.086978 -38.016 
L 226.282073 -38.016 
L 228.477168 -38.016 
L 230.672263 -38.016 
L 232.867358 -38.016 
L 235.062453 -38.016 
L 237.257547 -38.016 
L 239.452642 -38.016 
L 241.647737 -38.016 
L 243.842832 -38.016 
L 246.037927 -38.016 
L 248.233022 -38.016 
L 250.428117 -38.016 
L 252.623212 -38.016 
L 254.818307 -38.016 
L 257.013402 -38.016 
L 259.208497 -38.016 
L 261.403592 -38.016 
L 263.598687 -38.016 
L 265.793782 -38.016 
L 267.988877 -38.016 
L 270.183972 -38.016 
L 272.379067 -38.016 
L 274.574162 -38.016 
L 276.769257 -38.016 
L 278.964352 -38.016 
L 281.159447 -38.016 
L 283.354542 -38.016 
L 285.549637 -38.016 
L 287.744732 -38.016 
L 289.939827 -38.016 
L 292.134922 -38.016 
L 294.330017 -38.016 
L 296.525112 -38.016 
L 298.720207 -38.016 
L 300.915301 -38.016 
L 303.110396 -38.016 
L 305.305491 -38.016 
L 307.500586 -38.016 
L 309.695681 -38.016 
L 311.890776 -38.016 
L 314.085871 -38.016 
L 316.280966 -38.016 
L 318.476061 -38.016 
L 320.671156 -38.016 
L 322.866251 -38.016 
L 325.061346 -38.016 
L 327.256441 -38.016 
L 329.451536 -38.016 
L 331.646631 -38.016 
L 333.841726 -38.016 
L 336.036821 -38.016 
L 338.231916 -38.016 
L 340.427011 -38.016 
L 342.622106 -38.016 
L 344.817201 -38.016 
L 347.012296 -38.016 
L 349.207391 -38.016 
L 351.402486 -38.016 
L 353.597581 -38.016 
L 355.792676 -38.016 
L 357.987771 -38.016 
L 360.182866 -38.016 
L 362.377961 -38.016 
L 364.573056 -38.016 
L 366.76815 -38.016 
L 368.963245 -38.016 
L 368.963245 -180.95616 
L 368.963245 -180.95616 
L 366.76815 -166.51008 
L 364.573056 -171.83232 
L 362.377961 -164.22912 
L 360.182866 -171.83232 
L 357.987771 -175.63392 
L 355.792676 -177.91488 
L 353.597581 -174.8736 
L 351.402486 -175.63392 
L 349.207391 -156.62592 
L 347.012296 -140.6592 
L 344.817201 -128.49408 
L 342.622106 -126.21312 
L 340.427011 -106.4448 
L 338.231916 -98.08128 
L 336.036821 -83.6352 
L 333.841726 -76.79232 
L 331.646631 -63.86688 
L 329.451536 -58.54464 
L 327.256441 -50.94144 
L 325.061346 -50.18112 
L 322.866251 -45.6192 
L 320.671156 -44.85888 
L 318.476061 -45.6192 
L 316.280966 -45.6192 
L 314.085871 -43.33824 
L 311.890776 -40.29696 
L 309.695681 -40.29696 
L 307.500586 -42.57792 
L 305.305491 -43.33824 
L 303.110396 -50.18112 
L 300.915301 -50.94144 
L 298.720207 -52.46208 
L 296.525112 -52.46208 
L 294.330017 -53.2224 
L 292.134922 -54.74304 
L 289.939827 -63.86688 
L 287.744732 -57.78432 
L 285.549637 -57.024 
L 283.354542 -57.78432 
L 281.159447 -57.024 
L 278.964352 -56.26368 
L 276.769257 -52.46208 
L 274.574162 -42.57792 
L 272.379067 -40.29696 
L 270.183972 -40.29696 
L 267.988877 -38.016 
L 265.793782 -38.016 
L 263.598687 -38.016 
L 261.403592 -38.016 
L 259.208497 -38.016 
L 257.013402 -38.77632 
L 254.818307 -40.29696 
L 252.623212 -41.05728 
L 250.428117 -42.57792 
L 248.233022 -44.85888 
L 246.037927 -45.6192 
L 243.842832 -45.6192 
L 241.647737 -45.6192 
L 239.452642 -48.66048 
L 237.257547 -47.90016 
L 235.062453 -47.90016 
L 232.867358 -53.2224 
L 230.672263 -53.2224 
L 228.477168 -53.98272 
L 226.282073 -53.98272 
L 224.086978 -55.50336 
L 221.891883 -56.26368 
L 219.696788 -54.74304 
L 217.501693 -47.13984 
L 215.306598 -46.37952 
L 213.111503 -45.6192 
L 210.916408 -44.85888 
L 208.721313 -39.53664 
L 206.526218 -38.77632 
L 204.331123 -38.77632 
L 202.136028 -38.77632 
L 199.940933 -38.77632 
L 197.745838 -38.77632 
L 195.550743 -38.77632 
L 193.355648 -38.016 
L 191.160553 -38.77632 
L 188.965458 -38.77632 
L 186.770363 -38.77632 
L 184.575268 -38.77632 
L 182.380173 -38.77632 
L 180.185078 -38.77632 
L 177.989983 -38.77632 
L 175.794888 -38.016 
L 173.599793 -38.016 
L 171.404699 -38.016 
L 169.209604 -38.016 
L 167.014509 -38.016 
L 164.819414 -38.016 
L 162.624319 -38.016 
L 160.429224 -38.016 
L 158.234129 -38.016 
L 156.039034 -38.016 
L 153.843939 -38.016 
L 151.648844 -38.016 
L 149.453749 -38.016 
L 147.258654 -38.016 
L 145.063559 -38.016 
L 142.868464 -38.77632 
L 140.673369 -42.57792 
L 138.478274 -44.85888 
L 136.283179 -46.37952 
L 134.088084 -47.13984 
L 131.892989 -48.66048 
L 129.697894 -48.66048 
L 127.502799 -49.4208 
L 125.307704 -46.37952 
L 123.112609 -44.09856 
L 120.917514 -46.37952 
L 118.722419 -57.024 
L 116.527324 -69.18912 
L 114.332229 -79.07328 
L 112.137134 -77.55264 
L 109.942039 -77.55264 
L 107.746944 -77.55264 
L 105.55185 -76.032 
L 103.356755 -65.38752 
L 101.16166 -53.2224 
L 98.966565 -43.33824 
L 96.77147 -43.33824 
L 94.576375 -42.57792 
L 92.38128 -42.57792 
L 90.186185 -40.29696 
L 87.99109 -39.53664 
z
" id="m9cf3f2ee03" style="stroke:#fa9ba4;stroke-opacity:0.3;"/>
    </defs>
    <g clip-path="url(#p027180c21c)">
     <use style="fill:#fa9ba4;fill-opacity:0.3;stroke:#fa9ba4;stroke-opacity:0.3;" x="0" xlink:href="#m9cf3f2ee03" y="345.6"/>
    </g>
   </g>
   <g id="line2d_1">
    <path clip-path="url(#p027180c21c)" d="M 87.99109 306.06336 
L 90.186185 305.30304 
L 92.38128 303.02208 
L 94.576375 303.02208 
L 96.77147 302.26176 
L 98.966565 302.26176 
L 101.16166 292.3776 
L 103.356755 280.21248 
L 105.55185 269.568 
L 107.746944 268.04736 
L 112.137134 268.04736 
L 114.332229 266.52672 
L 116.527324 276.41088 
L 118.722419 288.576 
L 120.917514 299.22048 
L 123.112609 301.50144 
L 125.307704 299.22048 
L 127.502799 296.1792 
L 129.697894 296.93952 
L 131.892989 296.93952 
L 134.088084 298.46016 
L 136.283179 299.22048 
L 138.478274 300.74112 
L 140.673369 303.02208 
L 142.868464 306.82368 
L 145.063559 307.584 
L 175.794888 307.584 
L 177.989983 306.82368 
L 191.160553 306.82368 
L 193.355648 307.584 
L 195.550743 306.82368 
L 206.526218 306.82368 
L 208.721313 306.06336 
L 210.916408 300.74112 
L 217.501693 298.46016 
L 219.696788 290.85696 
L 221.891883 289.33632 
L 224.086978 290.09664 
L 226.282073 291.61728 
L 228.477168 291.61728 
L 230.672263 292.3776 
L 232.867358 292.3776 
L 235.062453 297.69984 
L 237.257547 297.69984 
L 239.452642 296.93952 
L 241.647737 299.9808 
L 246.037927 299.9808 
L 248.233022 300.74112 
L 250.428117 303.02208 
L 252.623212 304.54272 
L 254.818307 305.30304 
L 257.013402 306.82368 
L 259.208497 307.584 
L 267.988877 307.584 
L 270.183972 305.30304 
L 272.379067 305.30304 
L 274.574162 303.02208 
L 276.769257 293.13792 
L 278.964352 289.33632 
L 283.354542 287.81568 
L 285.549637 288.576 
L 287.744732 287.81568 
L 289.939827 281.73312 
L 292.134922 290.85696 
L 294.330017 292.3776 
L 296.525112 293.13792 
L 298.720207 293.13792 
L 300.915301 294.65856 
L 303.110396 295.41888 
L 305.305491 302.26176 
L 307.500586 303.02208 
L 309.695681 305.30304 
L 311.890776 305.30304 
L 314.085871 302.26176 
L 316.280966 299.9808 
L 318.476061 299.9808 
L 320.671156 300.74112 
L 322.866251 299.9808 
L 325.061346 295.41888 
L 327.256441 294.65856 
L 329.451536 287.05536 
L 331.646631 281.73312 
L 333.841726 268.80768 
L 336.036821 261.9648 
L 338.231916 247.51872 
L 340.427011 239.1552 
L 342.622106 219.38688 
L 344.817201 217.10592 
L 347.012296 204.9408 
L 349.207391 188.97408 
L 351.402486 169.96608 
L 353.597581 170.7264 
L 355.792676 167.68512 
L 357.987771 169.96608 
L 360.182866 173.76768 
L 362.377961 181.37088 
L 364.573056 173.76768 
L 366.76815 179.08992 
L 368.963245 164.64384 
L 371.15834 157.80096 
L 373.353435 150.19776 
L 375.54853 138.03264 
L 377.743625 123.58656 
L 379.93872 142.59456 
L 382.133815 125.86752 
L 384.32891 146.39616 
L 386.524005 133.47072 
L 388.7191 137.27232 
L 390.914195 138.03264 
L 393.10929 147.9168 
L 395.304385 157.04064 
L 397.49948 179.85024 
L 397.49948 179.85024 
" style="fill:none;stroke:#fa9ba4;stroke-linecap:square;stroke-width:2;"/>
   </g>
   <g id="line2d_2">
    <path clip-path="url(#p027180c21c)" d="M 368.963245 164.64384 
L 371.15834 157.80096 
L 373.353435 150.19776 
L 375.54853 138.03264 
L 377.743625 123.58656 
L 379.93872 142.59456 
L 382.133815 125.86752 
L 384.32891 146.39616 
L 386.524005 133.47072 
L 388.7191 137.27232 
L 390.914195 138.03264 
L 393.10929 147.9168 
L 395.304385 157.04064 
L 397.49948 179.85024 
" style="fill:none;stroke:#dc3545;stroke-linecap:square;stroke-width:2;"/>
   </g>
  </g>
 </g>
 <defs>
  <clipPath id="p027180c21c">
   <rect height="266.112" width="357.12" x="57.6" y="41.472"/>
  </clipPath>
 </defs>
</svg>
