<?xml version="1.0" encoding="utf-8" standalone="no"?>
<!DOCTYPE svg PUBLIC "-//W3C//DTD SVG 1.1//EN"
  "http://www.w3.org/Graphics/SVG/1.1/DTD/svg11.dtd">
<!-- Created with matplotlib (https://matplotlib.org/) -->
<svg height="345.6pt" version="1.1" viewBox="0 0 460.8 345.6" width="460.8pt" xmlns="http://www.w3.org/2000/svg" xmlns:xlink="http://www.w3.org/1999/xlink">
 <metadata>
  <rdf:RDF xmlns:cc="http://creativecommons.org/ns#" xmlns:dc="http://purl.org/dc/elements/1.1/" xmlns:rdf="http://www.w3.org/1999/02/22-rdf-syntax-ns#">
   <cc:Work>
    <dc:type rdf:resource="http://purl.org/dc/dcmitype/StillImage"/>
    <dc:date>2021-05-14T21:58:29.058605</dc:date>
    <dc:format>image/svg+xml</dc:format>
    <dc:creator>
     <cc:Agent>
      <dc:title>Matplotlib v3.3.2, https://matplotlib.org/</dc:title>
     </cc:Agent>
    </dc:creator>
   </cc:Work>
  </rdf:RDF>
 </metadata>
 <defs>
  <style type="text/css">*{stroke-linecap:butt;stroke-linejoin:round;}</style>
 </defs>
 <g id="figure_1">
  <g id="patch_1">
   <path d="M 0 345.6 
L 460.8 345.6 
L 460.8 0 
L 0 0 
z
" style="fill:none;"/>
  </g>
  <g id="axes_1">
   <g id="patch_2">
    <path clip-path="url(#p5d9560f659)" d="M 73.832727 307.584 
L 75.781954 307.584 
L 75.781954 307.584 
L 73.832727 307.584 
z
" style="fill:#fa9ba4;opacity:0.2;"/>
   </g>
   <g id="patch_3">
    <path clip-path="url(#p5d9560f659)" d="M 75.998535 307.584 
L 77.947762 307.584 
L 77.947762 307.584 
L 75.998535 307.584 
z
" style="fill:#fa9ba4;opacity:0.2;"/>
   </g>
   <g id="patch_4">
    <path clip-path="url(#p5d9560f659)" d="M 78.164342 307.584 
L 80.113569 307.584 
L 80.113569 307.584 
L 78.164342 307.584 
z
" style="fill:#fa9ba4;opacity:0.2;"/>
   </g>
   <g id="patch_5">
    <path clip-path="url(#p5d9560f659)" d="M 80.33015 307.584 
L 82.279377 307.584 
L 82.279377 307.584 
L 80.33015 307.584 
z
" style="fill:#fa9ba4;opacity:0.2;"/>
   </g>
   <g id="patch_6">
    <path clip-path="url(#p5d9560f659)" d="M 82.495957 307.584 
L 84.445184 307.584 
L 84.445184 307.584 
L 82.495957 307.584 
z
" style="fill:#fa9ba4;opacity:0.2;"/>
   </g>
   <g id="patch_7">
    <path clip-path="url(#p5d9560f659)" d="M 84.661765 307.584 
L 86.610992 307.584 
L 86.610992 307.584 
L 84.661765 307.584 
z
" style="fill:#fa9ba4;opacity:0.2;"/>
   </g>
   <g id="patch_8">
    <path clip-path="url(#p5d9560f659)" d="M 86.827572 307.584 
L 88.776799 307.584 
L 88.776799 296.93952 
L 86.827572 296.93952 
z
" style="fill:#fa9ba4;opacity:0.2;"/>
   </g>
   <g id="patch_9">
    <path clip-path="url(#p5d9560f659)" d="M 88.99338 307.584 
L 90.942607 307.584 
L 90.942607 302.26176 
L 88.99338 302.26176 
z
" style="fill:#fa9ba4;opacity:0.2;"/>
   </g>
   <g id="patch_10">
    <path clip-path="url(#p5d9560f659)" d="M 91.159187 307.584 
L 93.108414 307.584 
L 93.108414 291.61728 
L 91.159187 291.61728 
z
" style="fill:#fa9ba4;opacity:0.2;"/>
   </g>
   <g id="patch_11">
    <path clip-path="url(#p5d9560f659)" d="M 93.324995 307.584 
L 95.274222 307.584 
L 95.274222 307.584 
L 93.324995 307.584 
z
" style="fill:#fa9ba4;opacity:0.2;"/>
   </g>
   <g id="patch_12">
    <path clip-path="url(#p5d9560f659)" d="M 95.490802 307.584 
L 97.440029 307.584 
L 97.440029 302.26176 
L 95.490802 302.26176 
z
" style="fill:#fa9ba4;opacity:0.2;"/>
   </g>
   <g id="patch_13">
    <path clip-path="url(#p5d9560f659)" d="M 97.65661 307.584 
L 99.605837 307.584 
L 99.605837 307.584 
L 97.65661 307.584 
z
" style="fill:#fa9ba4;opacity:0.2;"/>
   </g>
   <g id="patch_14">
    <path clip-path="url(#p5d9560f659)" d="M 99.822417 307.584 
L 101.771644 307.584 
L 101.771644 238.39488 
L 99.822417 238.39488 
z
" style="fill:#fa9ba4;opacity:0.2;"/>
   </g>
   <g id="patch_15">
    <path clip-path="url(#p5d9560f659)" d="M 101.988225 307.584 
L 103.937452 307.584 
L 103.937452 211.78368 
L 101.988225 211.78368 
z
" style="fill:#fa9ba4;opacity:0.2;"/>
   </g>
   <g id="patch_16">
    <path clip-path="url(#p5d9560f659)" d="M 104.154032 307.584 
L 106.103259 307.584 
L 106.103259 227.7504 
L 104.154032 227.7504 
z
" style="fill:#fa9ba4;opacity:0.2;"/>
   </g>
   <g id="patch_17">
    <path clip-path="url(#p5d9560f659)" d="M 106.31984 307.584 
L 108.269067 307.584 
L 108.269067 280.9728 
L 106.31984 280.9728 
z
" style="fill:#fa9ba4;opacity:0.2;"/>
   </g>
   <g id="patch_18">
    <path clip-path="url(#p5d9560f659)" d="M 108.485647 307.584 
L 110.434874 307.584 
L 110.434874 307.584 
L 108.485647 307.584 
z
" style="fill:#fa9ba4;opacity:0.2;"/>
   </g>
   <g id="patch_19">
    <path clip-path="url(#p5d9560f659)" d="M 110.651455 307.584 
L 112.600682 307.584 
L 112.600682 302.26176 
L 110.651455 302.26176 
z
" style="fill:#fa9ba4;opacity:0.2;"/>
   </g>
   <g id="patch_20">
    <path clip-path="url(#p5d9560f659)" d="M 112.817262 307.584 
L 114.766489 307.584 
L 114.766489 296.93952 
L 112.817262 296.93952 
z
" style="fill:#fa9ba4;opacity:0.2;"/>
   </g>
   <g id="patch_21">
    <path clip-path="url(#p5d9560f659)" d="M 114.98307 307.584 
L 116.932297 307.584 
L 116.932297 307.584 
L 114.98307 307.584 
z
" style="fill:#fa9ba4;opacity:0.2;"/>
   </g>
   <g id="patch_22">
    <path clip-path="url(#p5d9560f659)" d="M 117.148877 307.584 
L 119.098104 307.584 
L 119.098104 296.93952 
L 117.148877 296.93952 
z
" style="fill:#fa9ba4;opacity:0.2;"/>
   </g>
   <g id="patch_23">
    <path clip-path="url(#p5d9560f659)" d="M 119.314685 307.584 
L 121.263912 307.584 
L 121.263912 302.26176 
L 119.314685 302.26176 
z
" style="fill:#fa9ba4;opacity:0.2;"/>
   </g>
   <g id="patch_24">
    <path clip-path="url(#p5d9560f659)" d="M 121.480492 307.584 
L 123.429719 307.584 
L 123.429719 296.93952 
L 121.480492 296.93952 
z
" style="fill:#fa9ba4;opacity:0.2;"/>
   </g>
   <g id="patch_25">
    <path clip-path="url(#p5d9560f659)" d="M 123.6463 307.584 
L 125.595527 307.584 
L 125.595527 291.61728 
L 123.6463 291.61728 
z
" style="fill:#fa9ba4;opacity:0.2;"/>
   </g>
   <g id="patch_26">
    <path clip-path="url(#p5d9560f659)" d="M 125.812107 307.584 
L 127.761334 307.584 
L 127.761334 280.9728 
L 125.812107 280.9728 
z
" style="fill:#fa9ba4;opacity:0.2;"/>
   </g>
   <g id="patch_27">
    <path clip-path="url(#p5d9560f659)" d="M 127.977915 307.584 
L 129.927142 307.584 
L 129.927142 302.26176 
L 127.977915 302.26176 
z
" style="fill:#fa9ba4;opacity:0.2;"/>
   </g>
   <g id="patch_28">
    <path clip-path="url(#p5d9560f659)" d="M 130.143722 307.584 
L 132.092949 307.584 
L 132.092949 307.584 
L 130.143722 307.584 
z
" style="fill:#fa9ba4;opacity:0.2;"/>
   </g>
   <g id="patch_29">
    <path clip-path="url(#p5d9560f659)" d="M 132.30953 307.584 
L 134.258757 307.584 
L 134.258757 307.584 
L 132.30953 307.584 
z
" style="fill:#fa9ba4;opacity:0.2;"/>
   </g>
   <g id="patch_30">
    <path clip-path="url(#p5d9560f659)" d="M 134.475337 307.584 
L 136.424564 307.584 
L 136.424564 307.584 
L 134.475337 307.584 
z
" style="fill:#fa9ba4;opacity:0.2;"/>
   </g>
   <g id="patch_31">
    <path clip-path="url(#p5d9560f659)" d="M 136.641145 307.584 
L 138.590372 307.584 
L 138.590372 307.584 
L 136.641145 307.584 
z
" style="fill:#fa9ba4;opacity:0.2;"/>
   </g>
   <g id="patch_32">
    <path clip-path="url(#p5d9560f659)" d="M 138.806953 307.584 
L 140.756179 307.584 
L 140.756179 307.584 
L 138.806953 307.584 
z
" style="fill:#fa9ba4;opacity:0.2;"/>
   </g>
   <g id="patch_33">
    <path clip-path="url(#p5d9560f659)" d="M 140.97276 307.584 
L 142.921987 307.584 
L 142.921987 307.584 
L 140.97276 307.584 
z
" style="fill:#fa9ba4;opacity:0.2;"/>
   </g>
   <g id="patch_34">
    <path clip-path="url(#p5d9560f659)" d="M 143.138568 307.584 
L 145.087794 307.584 
L 145.087794 307.584 
L 143.138568 307.584 
z
" style="fill:#fa9ba4;opacity:0.2;"/>
   </g>
   <g id="patch_35">
    <path clip-path="url(#p5d9560f659)" d="M 145.304375 307.584 
L 147.253602 307.584 
L 147.253602 307.584 
L 145.304375 307.584 
z
" style="fill:#fa9ba4;opacity:0.2;"/>
   </g>
   <g id="patch_36">
    <path clip-path="url(#p5d9560f659)" d="M 147.470183 307.584 
L 149.419409 307.584 
L 149.419409 307.584 
L 147.470183 307.584 
z
" style="fill:#fa9ba4;opacity:0.2;"/>
   </g>
   <g id="patch_37">
    <path clip-path="url(#p5d9560f659)" d="M 149.63599 307.584 
L 151.585217 307.584 
L 151.585217 307.584 
L 149.63599 307.584 
z
" style="fill:#fa9ba4;opacity:0.2;"/>
   </g>
   <g id="patch_38">
    <path clip-path="url(#p5d9560f659)" d="M 151.801798 307.584 
L 153.751024 307.584 
L 153.751024 307.584 
L 151.801798 307.584 
z
" style="fill:#fa9ba4;opacity:0.2;"/>
   </g>
   <g id="patch_39">
    <path clip-path="url(#p5d9560f659)" d="M 153.967605 307.584 
L 155.916832 307.584 
L 155.916832 307.584 
L 153.967605 307.584 
z
" style="fill:#fa9ba4;opacity:0.2;"/>
   </g>
   <g id="patch_40">
    <path clip-path="url(#p5d9560f659)" d="M 156.133413 307.584 
L 158.082639 307.584 
L 158.082639 307.584 
L 156.133413 307.584 
z
" style="fill:#fa9ba4;opacity:0.2;"/>
   </g>
   <g id="patch_41">
    <path clip-path="url(#p5d9560f659)" d="M 158.29922 307.584 
L 160.248447 307.584 
L 160.248447 307.584 
L 158.29922 307.584 
z
" style="fill:#fa9ba4;opacity:0.2;"/>
   </g>
   <g id="patch_42">
    <path clip-path="url(#p5d9560f659)" d="M 160.465028 307.584 
L 162.414254 307.584 
L 162.414254 307.584 
L 160.465028 307.584 
z
" style="fill:#fa9ba4;opacity:0.2;"/>
   </g>
   <g id="patch_43">
    <path clip-path="url(#p5d9560f659)" d="M 162.630835 307.584 
L 164.580062 307.584 
L 164.580062 307.584 
L 162.630835 307.584 
z
" style="fill:#fa9ba4;opacity:0.2;"/>
   </g>
   <g id="patch_44">
    <path clip-path="url(#p5d9560f659)" d="M 164.796643 307.584 
L 166.745869 307.584 
L 166.745869 307.584 
L 164.796643 307.584 
z
" style="fill:#fa9ba4;opacity:0.2;"/>
   </g>
   <g id="patch_45">
    <path clip-path="url(#p5d9560f659)" d="M 166.96245 307.584 
L 168.911677 307.584 
L 168.911677 307.584 
L 166.96245 307.584 
z
" style="fill:#fa9ba4;opacity:0.2;"/>
   </g>
   <g id="patch_46">
    <path clip-path="url(#p5d9560f659)" d="M 169.128258 307.584 
L 171.077484 307.584 
L 171.077484 307.584 
L 169.128258 307.584 
z
" style="fill:#fa9ba4;opacity:0.2;"/>
   </g>
   <g id="patch_47">
    <path clip-path="url(#p5d9560f659)" d="M 171.294065 307.584 
L 173.243292 307.584 
L 173.243292 307.584 
L 171.294065 307.584 
z
" style="fill:#fa9ba4;opacity:0.2;"/>
   </g>
   <g id="patch_48">
    <path clip-path="url(#p5d9560f659)" d="M 173.459873 307.584 
L 175.409099 307.584 
L 175.409099 307.584 
L 173.459873 307.584 
z
" style="fill:#fa9ba4;opacity:0.2;"/>
   </g>
   <g id="patch_49">
    <path clip-path="url(#p5d9560f659)" d="M 175.62568 307.584 
L 177.574907 307.584 
L 177.574907 302.26176 
L 175.62568 302.26176 
z
" style="fill:#fa9ba4;opacity:0.2;"/>
   </g>
   <g id="patch_50">
    <path clip-path="url(#p5d9560f659)" d="M 177.791488 307.584 
L 179.740714 307.584 
L 179.740714 307.584 
L 177.791488 307.584 
z
" style="fill:#fa9ba4;opacity:0.2;"/>
   </g>
   <g id="patch_51">
    <path clip-path="url(#p5d9560f659)" d="M 179.957295 307.584 
L 181.906522 307.584 
L 181.906522 307.584 
L 179.957295 307.584 
z
" style="fill:#fa9ba4;opacity:0.2;"/>
   </g>
   <g id="patch_52">
    <path clip-path="url(#p5d9560f659)" d="M 182.123103 307.584 
L 184.072329 307.584 
L 184.072329 307.584 
L 182.123103 307.584 
z
" style="fill:#fa9ba4;opacity:0.2;"/>
   </g>
   <g id="patch_53">
    <path clip-path="url(#p5d9560f659)" d="M 184.28891 307.584 
L 186.238137 307.584 
L 186.238137 307.584 
L 184.28891 307.584 
z
" style="fill:#fa9ba4;opacity:0.2;"/>
   </g>
   <g id="patch_54">
    <path clip-path="url(#p5d9560f659)" d="M 186.454718 307.584 
L 188.403944 307.584 
L 188.403944 307.584 
L 186.454718 307.584 
z
" style="fill:#fa9ba4;opacity:0.2;"/>
   </g>
   <g id="patch_55">
    <path clip-path="url(#p5d9560f659)" d="M 188.620525 307.584 
L 190.569752 307.584 
L 190.569752 307.584 
L 188.620525 307.584 
z
" style="fill:#fa9ba4;opacity:0.2;"/>
   </g>
   <g id="patch_56">
    <path clip-path="url(#p5d9560f659)" d="M 190.786333 307.584 
L 192.735559 307.584 
L 192.735559 307.584 
L 190.786333 307.584 
z
" style="fill:#fa9ba4;opacity:0.2;"/>
   </g>
   <g id="patch_57">
    <path clip-path="url(#p5d9560f659)" d="M 192.95214 307.584 
L 194.901367 307.584 
L 194.901367 302.26176 
L 192.95214 302.26176 
z
" style="fill:#fa9ba4;opacity:0.2;"/>
   </g>
   <g id="patch_58">
    <path clip-path="url(#p5d9560f659)" d="M 195.117948 307.584 
L 197.067174 307.584 
L 197.067174 307.584 
L 195.117948 307.584 
z
" style="fill:#fa9ba4;opacity:0.2;"/>
   </g>
   <g id="patch_59">
    <path clip-path="url(#p5d9560f659)" d="M 197.283755 307.584 
L 199.232982 307.584 
L 199.232982 307.584 
L 197.283755 307.584 
z
" style="fill:#fa9ba4;opacity:0.2;"/>
   </g>
   <g id="patch_60">
    <path clip-path="url(#p5d9560f659)" d="M 199.449563 307.584 
L 201.398789 307.584 
L 201.398789 307.584 
L 199.449563 307.584 
z
" style="fill:#fa9ba4;opacity:0.2;"/>
   </g>
   <g id="patch_61">
    <path clip-path="url(#p5d9560f659)" d="M 201.61537 307.584 
L 203.564597 307.584 
L 203.564597 307.584 
L 201.61537 307.584 
z
" style="fill:#fa9ba4;opacity:0.2;"/>
   </g>
   <g id="patch_62">
    <path clip-path="url(#p5d9560f659)" d="M 203.781178 307.584 
L 205.730405 307.584 
L 205.730405 307.584 
L 203.781178 307.584 
z
" style="fill:#fa9ba4;opacity:0.2;"/>
   </g>
   <g id="patch_63">
    <path clip-path="url(#p5d9560f659)" d="M 205.946985 307.584 
L 207.896212 307.584 
L 207.896212 302.26176 
L 205.946985 302.26176 
z
" style="fill:#fa9ba4;opacity:0.2;"/>
   </g>
   <g id="patch_64">
    <path clip-path="url(#p5d9560f659)" d="M 208.112793 307.584 
L 210.06202 307.584 
L 210.06202 265.00608 
L 208.112793 265.00608 
z
" style="fill:#fa9ba4;opacity:0.2;"/>
   </g>
   <g id="patch_65">
    <path clip-path="url(#p5d9560f659)" d="M 210.2786 307.584 
L 212.227827 307.584 
L 212.227827 302.26176 
L 210.2786 302.26176 
z
" style="fill:#fa9ba4;opacity:0.2;"/>
   </g>
   <g id="patch_66">
    <path clip-path="url(#p5d9560f659)" d="M 212.444408 307.584 
L 214.393635 307.584 
L 214.393635 302.26176 
L 212.444408 302.26176 
z
" style="fill:#fa9ba4;opacity:0.2;"/>
   </g>
   <g id="patch_67">
    <path clip-path="url(#p5d9560f659)" d="M 214.610215 307.584 
L 216.559442 307.584 
L 216.559442 302.26176 
L 214.610215 302.26176 
z
" style="fill:#fa9ba4;opacity:0.2;"/>
   </g>
   <g id="patch_68">
    <path clip-path="url(#p5d9560f659)" d="M 216.776023 307.584 
L 218.72525 307.584 
L 218.72525 254.3616 
L 216.776023 254.3616 
z
" style="fill:#fa9ba4;opacity:0.2;"/>
   </g>
   <g id="patch_69">
    <path clip-path="url(#p5d9560f659)" d="M 218.94183 307.584 
L 220.891057 307.584 
L 220.891057 296.93952 
L 218.94183 296.93952 
z
" style="fill:#fa9ba4;opacity:0.2;"/>
   </g>
   <g id="patch_70">
    <path clip-path="url(#p5d9560f659)" d="M 221.107638 307.584 
L 223.056865 307.584 
L 223.056865 307.584 
L 221.107638 307.584 
z
" style="fill:#fa9ba4;opacity:0.2;"/>
   </g>
   <g id="patch_71">
    <path clip-path="url(#p5d9560f659)" d="M 223.273445 307.584 
L 225.222672 307.584 
L 225.222672 275.65056 
L 223.273445 275.65056 
z
" style="fill:#fa9ba4;opacity:0.2;"/>
   </g>
   <g id="patch_72">
    <path clip-path="url(#p5d9560f659)" d="M 225.439253 307.584 
L 227.38848 307.584 
L 227.38848 302.26176 
L 225.439253 302.26176 
z
" style="fill:#fa9ba4;opacity:0.2;"/>
   </g>
   <g id="patch_73">
    <path clip-path="url(#p5d9560f659)" d="M 227.60506 307.584 
L 229.554287 307.584 
L 229.554287 307.584 
L 227.60506 307.584 
z
" style="fill:#fa9ba4;opacity:0.2;"/>
   </g>
   <g id="patch_74">
    <path clip-path="url(#p5d9560f659)" d="M 229.770868 307.584 
L 231.720095 307.584 
L 231.720095 302.26176 
L 229.770868 302.26176 
z
" style="fill:#fa9ba4;opacity:0.2;"/>
   </g>
   <g id="patch_75">
    <path clip-path="url(#p5d9560f659)" d="M 231.936675 307.584 
L 233.885902 307.584 
L 233.885902 291.61728 
L 231.936675 291.61728 
z
" style="fill:#fa9ba4;opacity:0.2;"/>
   </g>
   <g id="patch_76">
    <path clip-path="url(#p5d9560f659)" d="M 234.102483 307.584 
L 236.05171 307.584 
L 236.05171 296.93952 
L 234.102483 296.93952 
z
" style="fill:#fa9ba4;opacity:0.2;"/>
   </g>
   <g id="patch_77">
    <path clip-path="url(#p5d9560f659)" d="M 236.26829 307.584 
L 238.217517 307.584 
L 238.217517 302.26176 
L 236.26829 302.26176 
z
" style="fill:#fa9ba4;opacity:0.2;"/>
   </g>
   <g id="patch_78">
    <path clip-path="url(#p5d9560f659)" d="M 238.434098 307.584 
L 240.383325 307.584 
L 240.383325 296.93952 
L 238.434098 296.93952 
z
" style="fill:#fa9ba4;opacity:0.2;"/>
   </g>
   <g id="patch_79">
    <path clip-path="url(#p5d9560f659)" d="M 240.599905 307.584 
L 242.549132 307.584 
L 242.549132 302.26176 
L 240.599905 302.26176 
z
" style="fill:#fa9ba4;opacity:0.2;"/>
   </g>
   <g id="patch_80">
    <path clip-path="url(#p5d9560f659)" d="M 242.765713 307.584 
L 244.71494 307.584 
L 244.71494 307.584 
L 242.765713 307.584 
z
" style="fill:#fa9ba4;opacity:0.2;"/>
   </g>
   <g id="patch_81">
    <path clip-path="url(#p5d9560f659)" d="M 244.93152 307.584 
L 246.880747 307.584 
L 246.880747 307.584 
L 244.93152 307.584 
z
" style="fill:#fa9ba4;opacity:0.2;"/>
   </g>
   <g id="patch_82">
    <path clip-path="url(#p5d9560f659)" d="M 247.097328 307.584 
L 249.046555 307.584 
L 249.046555 307.584 
L 247.097328 307.584 
z
" style="fill:#fa9ba4;opacity:0.2;"/>
   </g>
   <g id="patch_83">
    <path clip-path="url(#p5d9560f659)" d="M 249.263135 307.584 
L 251.212362 307.584 
L 251.212362 307.584 
L 249.263135 307.584 
z
" style="fill:#fa9ba4;opacity:0.2;"/>
   </g>
   <g id="patch_84">
    <path clip-path="url(#p5d9560f659)" d="M 251.428943 307.584 
L 253.37817 307.584 
L 253.37817 307.584 
L 251.428943 307.584 
z
" style="fill:#fa9ba4;opacity:0.2;"/>
   </g>
   <g id="patch_85">
    <path clip-path="url(#p5d9560f659)" d="M 253.59475 307.584 
L 255.543977 307.584 
L 255.543977 307.584 
L 253.59475 307.584 
z
" style="fill:#fa9ba4;opacity:0.2;"/>
   </g>
   <g id="patch_86">
    <path clip-path="url(#p5d9560f659)" d="M 255.760558 307.584 
L 257.709785 307.584 
L 257.709785 307.584 
L 255.760558 307.584 
z
" style="fill:#fa9ba4;opacity:0.2;"/>
   </g>
   <g id="patch_87">
    <path clip-path="url(#p5d9560f659)" d="M 257.926365 307.584 
L 259.875592 307.584 
L 259.875592 307.584 
L 257.926365 307.584 
z
" style="fill:#fa9ba4;opacity:0.2;"/>
   </g>
   <g id="patch_88">
    <path clip-path="url(#p5d9560f659)" d="M 260.092173 307.584 
L 262.0414 307.584 
L 262.0414 307.584 
L 260.092173 307.584 
z
" style="fill:#fa9ba4;opacity:0.2;"/>
   </g>
   <g id="patch_89">
    <path clip-path="url(#p5d9560f659)" d="M 262.25798 307.584 
L 264.207207 307.584 
L 264.207207 307.584 
L 262.25798 307.584 
z
" style="fill:#fa9ba4;opacity:0.2;"/>
   </g>
   <g id="patch_90">
    <path clip-path="url(#p5d9560f659)" d="M 264.423788 307.584 
L 266.373015 307.584 
L 266.373015 307.584 
L 264.423788 307.584 
z
" style="fill:#fa9ba4;opacity:0.2;"/>
   </g>
   <g id="patch_91">
    <path clip-path="url(#p5d9560f659)" d="M 266.589595 307.584 
L 268.538822 307.584 
L 268.538822 291.61728 
L 266.589595 291.61728 
z
" style="fill:#fa9ba4;opacity:0.2;"/>
   </g>
   <g id="patch_92">
    <path clip-path="url(#p5d9560f659)" d="M 268.755403 307.584 
L 270.70463 307.584 
L 270.70463 307.584 
L 268.755403 307.584 
z
" style="fill:#fa9ba4;opacity:0.2;"/>
   </g>
   <g id="patch_93">
    <path clip-path="url(#p5d9560f659)" d="M 270.921211 307.584 
L 272.870437 307.584 
L 272.870437 291.61728 
L 270.921211 291.61728 
z
" style="fill:#fa9ba4;opacity:0.2;"/>
   </g>
   <g id="patch_94">
    <path clip-path="url(#p5d9560f659)" d="M 273.087018 307.584 
L 275.036245 307.584 
L 275.036245 238.39488 
L 273.087018 238.39488 
z
" style="fill:#fa9ba4;opacity:0.2;"/>
   </g>
   <g id="patch_95">
    <path clip-path="url(#p5d9560f659)" d="M 275.252826 307.584 
L 277.202052 307.584 
L 277.202052 280.9728 
L 275.252826 280.9728 
z
" style="fill:#fa9ba4;opacity:0.2;"/>
   </g>
   <g id="patch_96">
    <path clip-path="url(#p5d9560f659)" d="M 277.418633 307.584 
L 279.36786 307.584 
L 279.36786 302.26176 
L 277.418633 302.26176 
z
" style="fill:#fa9ba4;opacity:0.2;"/>
   </g>
   <g id="patch_97">
    <path clip-path="url(#p5d9560f659)" d="M 279.584441 307.584 
L 281.533667 307.584 
L 281.533667 302.26176 
L 279.584441 302.26176 
z
" style="fill:#fa9ba4;opacity:0.2;"/>
   </g>
   <g id="patch_98">
    <path clip-path="url(#p5d9560f659)" d="M 281.750248 307.584 
L 283.699475 307.584 
L 283.699475 296.93952 
L 281.750248 296.93952 
z
" style="fill:#fa9ba4;opacity:0.2;"/>
   </g>
   <g id="patch_99">
    <path clip-path="url(#p5d9560f659)" d="M 283.916056 307.584 
L 285.865282 307.584 
L 285.865282 302.26176 
L 283.916056 302.26176 
z
" style="fill:#fa9ba4;opacity:0.2;"/>
   </g>
   <g id="patch_100">
    <path clip-path="url(#p5d9560f659)" d="M 286.081863 307.584 
L 288.03109 307.584 
L 288.03109 249.03936 
L 286.081863 249.03936 
z
" style="fill:#fa9ba4;opacity:0.2;"/>
   </g>
   <g id="patch_101">
    <path clip-path="url(#p5d9560f659)" d="M 288.247671 307.584 
L 290.196897 307.584 
L 290.196897 302.26176 
L 288.247671 302.26176 
z
" style="fill:#fa9ba4;opacity:0.2;"/>
   </g>
   <g id="patch_102">
    <path clip-path="url(#p5d9560f659)" d="M 290.413478 307.584 
L 292.362705 307.584 
L 292.362705 291.61728 
L 290.413478 291.61728 
z
" style="fill:#fa9ba4;opacity:0.2;"/>
   </g>
   <g id="patch_103">
    <path clip-path="url(#p5d9560f659)" d="M 292.579286 307.584 
L 294.528512 307.584 
L 294.528512 307.584 
L 292.579286 307.584 
z
" style="fill:#fa9ba4;opacity:0.2;"/>
   </g>
   <g id="patch_104">
    <path clip-path="url(#p5d9560f659)" d="M 294.745093 307.584 
L 296.69432 307.584 
L 296.69432 302.26176 
L 294.745093 302.26176 
z
" style="fill:#fa9ba4;opacity:0.2;"/>
   </g>
   <g id="patch_105">
    <path clip-path="url(#p5d9560f659)" d="M 296.910901 307.584 
L 298.860127 307.584 
L 298.860127 307.584 
L 296.910901 307.584 
z
" style="fill:#fa9ba4;opacity:0.2;"/>
   </g>
   <g id="patch_106">
    <path clip-path="url(#p5d9560f659)" d="M 299.076708 307.584 
L 301.025935 307.584 
L 301.025935 307.584 
L 299.076708 307.584 
z
" style="fill:#fa9ba4;opacity:0.2;"/>
   </g>
   <g id="patch_107">
    <path clip-path="url(#p5d9560f659)" d="M 301.242516 307.584 
L 303.191742 307.584 
L 303.191742 296.93952 
L 301.242516 296.93952 
z
" style="fill:#fa9ba4;opacity:0.2;"/>
   </g>
   <g id="patch_108">
    <path clip-path="url(#p5d9560f659)" d="M 303.408323 307.584 
L 305.35755 307.584 
L 305.35755 307.584 
L 303.408323 307.584 
z
" style="fill:#fa9ba4;opacity:0.2;"/>
   </g>
   <g id="patch_109">
    <path clip-path="url(#p5d9560f659)" d="M 305.574131 307.584 
L 307.523357 307.584 
L 307.523357 307.584 
L 305.574131 307.584 
z
" style="fill:#fa9ba4;opacity:0.2;"/>
   </g>
   <g id="patch_110">
    <path clip-path="url(#p5d9560f659)" d="M 307.739938 307.584 
L 309.689165 307.584 
L 309.689165 307.584 
L 307.739938 307.584 
z
" style="fill:#fa9ba4;opacity:0.2;"/>
   </g>
   <g id="patch_111">
    <path clip-path="url(#p5d9560f659)" d="M 309.905746 307.584 
L 311.854972 307.584 
L 311.854972 280.9728 
L 309.905746 280.9728 
z
" style="fill:#fa9ba4;opacity:0.2;"/>
   </g>
   <g id="patch_112">
    <path clip-path="url(#p5d9560f659)" d="M 312.071553 307.584 
L 314.02078 307.584 
L 314.02078 291.61728 
L 312.071553 291.61728 
z
" style="fill:#fa9ba4;opacity:0.2;"/>
   </g>
   <g id="patch_113">
    <path clip-path="url(#p5d9560f659)" d="M 314.237361 307.584 
L 316.186587 307.584 
L 316.186587 307.584 
L 314.237361 307.584 
z
" style="fill:#fa9ba4;opacity:0.2;"/>
   </g>
   <g id="patch_114">
    <path clip-path="url(#p5d9560f659)" d="M 316.403168 307.584 
L 318.352395 307.584 
L 318.352395 302.26176 
L 316.403168 302.26176 
z
" style="fill:#fa9ba4;opacity:0.2;"/>
   </g>
   <g id="patch_115">
    <path clip-path="url(#p5d9560f659)" d="M 318.568976 307.584 
L 320.518202 307.584 
L 320.518202 302.26176 
L 318.568976 302.26176 
z
" style="fill:#fa9ba4;opacity:0.2;"/>
   </g>
   <g id="patch_116">
    <path clip-path="url(#p5d9560f659)" d="M 320.734783 307.584 
L 322.68401 307.584 
L 322.68401 275.65056 
L 320.734783 275.65056 
z
" style="fill:#fa9ba4;opacity:0.2;"/>
   </g>
   <g id="patch_117">
    <path clip-path="url(#p5d9560f659)" d="M 322.900591 307.584 
L 324.849817 307.584 
L 324.849817 302.26176 
L 322.900591 302.26176 
z
" style="fill:#fa9ba4;opacity:0.2;"/>
   </g>
   <g id="patch_118">
    <path clip-path="url(#p5d9560f659)" d="M 325.066398 307.584 
L 327.015625 307.584 
L 327.015625 227.7504 
L 325.066398 227.7504 
z
" style="fill:#fa9ba4;opacity:0.2;"/>
   </g>
   <g id="patch_119">
    <path clip-path="url(#p5d9560f659)" d="M 327.232206 307.584 
L 329.181432 307.584 
L 329.181432 254.3616 
L 327.232206 254.3616 
z
" style="fill:#fa9ba4;opacity:0.2;"/>
   </g>
   <g id="patch_120">
    <path clip-path="url(#p5d9560f659)" d="M 329.398013 307.584 
L 331.34724 307.584 
L 331.34724 217.10592 
L 329.398013 217.10592 
z
" style="fill:#fa9ba4;opacity:0.2;"/>
   </g>
   <g id="patch_121">
    <path clip-path="url(#p5d9560f659)" d="M 331.563821 307.584 
L 333.513047 307.584 
L 333.513047 254.3616 
L 331.563821 254.3616 
z
" style="fill:#fa9ba4;opacity:0.2;"/>
   </g>
   <g id="patch_122">
    <path clip-path="url(#p5d9560f659)" d="M 333.729628 307.584 
L 335.678855 307.584 
L 335.678855 201.1392 
L 333.729628 201.1392 
z
" style="fill:#fa9ba4;opacity:0.2;"/>
   </g>
   <g id="patch_123">
    <path clip-path="url(#p5d9560f659)" d="M 335.895436 307.584 
L 337.844663 307.584 
L 337.844663 217.10592 
L 335.895436 217.10592 
z
" style="fill:#fa9ba4;opacity:0.2;"/>
   </g>
   <g id="patch_124">
    <path clip-path="url(#p5d9560f659)" d="M 338.061243 307.584 
L 340.01047 307.584 
L 340.01047 163.88352 
L 338.061243 163.88352 
z
" style="fill:#fa9ba4;opacity:0.2;"/>
   </g>
   <g id="patch_125">
    <path clip-path="url(#p5d9560f659)" d="M 340.227051 307.584 
L 342.176278 307.584 
L 342.176278 211.78368 
L 340.227051 211.78368 
z
" style="fill:#fa9ba4;opacity:0.2;"/>
   </g>
   <g id="patch_126">
    <path clip-path="url(#p5d9560f659)" d="M 342.392858 307.584 
L 344.342085 307.584 
L 344.342085 169.20576 
L 342.392858 169.20576 
z
" style="fill:#fa9ba4;opacity:0.2;"/>
   </g>
   <g id="patch_127">
    <path clip-path="url(#p5d9560f659)" d="M 344.558666 307.584 
L 346.507893 307.584 
L 346.507893 105.33888 
L 344.558666 105.33888 
z
" style="fill:#fa9ba4;opacity:0.2;"/>
   </g>
   <g id="patch_128">
    <path clip-path="url(#p5d9560f659)" d="M 346.724473 307.584 
L 348.6737 307.584 
L 348.6737 121.3056 
L 346.724473 121.3056 
z
" style="fill:#fa9ba4;opacity:0.2;"/>
   </g>
   <g id="patch_129">
    <path clip-path="url(#p5d9560f659)" d="M 348.890281 307.584 
L 350.839508 307.584 
L 350.839508 206.46144 
L 348.890281 206.46144 
z
" style="fill:#fa9ba4;opacity:0.2;"/>
   </g>
   <g id="patch_130">
    <path clip-path="url(#p5d9560f659)" d="M 351.056088 307.584 
L 353.005315 307.584 
L 353.005315 195.81696 
L 351.056088 195.81696 
z
" style="fill:#fa9ba4;opacity:0.2;"/>
   </g>
   <g id="patch_131">
    <path clip-path="url(#p5d9560f659)" d="M 353.221896 307.584 
L 355.171123 307.584 
L 355.171123 179.85024 
L 353.221896 179.85024 
z
" style="fill:#fa9ba4;opacity:0.2;"/>
   </g>
   <g id="patch_132">
    <path clip-path="url(#p5d9560f659)" d="M 355.387703 307.584 
L 357.33693 307.584 
L 357.33693 238.39488 
L 355.387703 238.39488 
z
" style="fill:#fa9ba4;opacity:0.2;"/>
   </g>
   <g id="patch_133">
    <path clip-path="url(#p5d9560f659)" d="M 357.553511 307.584 
L 359.502738 307.584 
L 359.502738 222.42816 
L 357.553511 222.42816 
z
" style="fill:#fa9ba4;opacity:0.2;"/>
   </g>
   <g id="patch_134">
    <path clip-path="url(#p5d9560f659)" d="M 359.719318 307.584 
L 361.668545 307.584 
L 361.668545 52.11648 
L 359.719318 52.11648 
z
" style="fill:#fa9ba4;opacity:0.2;"/>
   </g>
   <g id="patch_135">
    <path clip-path="url(#p5d9560f659)" d="M 361.885126 307.584 
L 363.834353 307.584 
L 363.834353 158.56128 
L 361.885126 158.56128 
z
" style="fill:#fa9ba4;opacity:0.2;"/>
   </g>
   <g id="patch_136">
    <path clip-path="url(#p5d9560f659)" d="M 364.050933 307.584 
L 366.00016 307.584 
L 366.00016 105.33888 
L 364.050933 105.33888 
z
" style="fill:#fa9ba4;opacity:0.2;"/>
   </g>
   <g id="patch_137">
    <path clip-path="url(#p5d9560f659)" d="M 366.216741 307.584 
L 368.165968 307.584 
L 368.165968 147.9168 
L 366.216741 147.9168 
z
" style="fill:#fa9ba4;opacity:0.2;"/>
   </g>
   <g id="patch_138">
    <path clip-path="url(#p5d9560f659)" d="M 368.382548 307.584 
L 370.331775 307.584 
L 370.331775 126.62784 
L 368.382548 126.62784 
z
" style="fill:#fa9ba4;opacity:0.2;"/>
   </g>
   <g id="patch_139">
    <path clip-path="url(#p5d9560f659)" d="M 370.548356 307.584 
L 372.497583 307.584 
L 372.497583 153.23904 
L 370.548356 153.23904 
z
" style="fill:#fa9ba4;opacity:0.2;"/>
   </g>
   <g id="patch_140">
    <path clip-path="url(#p5d9560f659)" d="M 372.714163 307.584 
L 374.66339 307.584 
L 374.66339 121.3056 
L 372.714163 121.3056 
z
" style="fill:#fa9ba4;opacity:0.2;"/>
   </g>
   <g id="patch_141">
    <path clip-path="url(#p5d9560f659)" d="M 374.879971 307.584 
L 376.829198 307.584 
L 376.829198 185.17248 
L 374.879971 185.17248 
z
" style="fill:#fa9ba4;opacity:0.2;"/>
   </g>
   <g id="patch_142">
    <path clip-path="url(#p5d9560f659)" d="M 377.045778 307.584 
L 378.995005 307.584 
L 378.995005 41.472 
L 377.045778 41.472 
z
" style="fill:#fa9ba4;opacity:0.2;"/>
   </g>
   <g id="patch_143">
    <path clip-path="url(#p5d9560f659)" d="M 379.211586 307.584 
L 381.160813 307.584 
L 381.160813 249.03936 
L 379.211586 249.03936 
z
" style="fill:#fa9ba4;opacity:0.2;"/>
   </g>
   <g id="patch_144">
    <path clip-path="url(#p5d9560f659)" d="M 381.377393 307.584 
L 383.32662 307.584 
L 383.32662 57.43872 
L 381.377393 57.43872 
z
" style="fill:#fa9ba4;opacity:0.2;"/>
   </g>
   <g id="patch_145">
    <path clip-path="url(#p5d9560f659)" d="M 383.543201 307.584 
L 385.492428 307.584 
L 385.492428 153.23904 
L 383.543201 153.23904 
z
" style="fill:#fa9ba4;opacity:0.2;"/>
   </g>
   <g id="patch_146">
    <path clip-path="url(#p5d9560f659)" d="M 385.709008 307.584 
L 387.658235 307.584 
L 387.658235 158.56128 
L 385.709008 158.56128 
z
" style="fill:#fa9ba4;opacity:0.2;"/>
   </g>
   <g id="patch_147">
    <path clip-path="url(#p5d9560f659)" d="M 387.874816 307.584 
L 389.824043 307.584 
L 389.824043 190.49472 
L 387.874816 190.49472 
z
" style="fill:#fa9ba4;opacity:0.2;"/>
   </g>
   <g id="patch_148">
    <path clip-path="url(#p5d9560f659)" d="M 390.040623 307.584 
L 391.98985 307.584 
L 391.98985 249.03936 
L 390.040623 249.03936 
z
" style="fill:#fa9ba4;opacity:0.2;"/>
   </g>
   <g id="patch_149">
    <path clip-path="url(#p5d9560f659)" d="M 392.206431 307.584 
L 394.155658 307.584 
L 394.155658 201.1392 
L 392.206431 201.1392 
z
" style="fill:#fa9ba4;opacity:0.2;"/>
   </g>
   <g id="patch_150">
    <path clip-path="url(#p5d9560f659)" d="M 394.372238 307.584 
L 396.321465 307.584 
L 396.321465 270.32832 
L 394.372238 270.32832 
z
" style="fill:#fa9ba4;opacity:0.2;"/>
   </g>
   <g id="patch_151">
    <path clip-path="url(#p5d9560f659)" d="M 396.538046 307.584 
L 398.487273 307.584 
L 398.487273 195.81696 
L 396.538046 195.81696 
z
" style="fill:#fa9ba4;opacity:0.2;"/>
   </g>
   <g id="matplotlib.axis_1"/>
   <g id="matplotlib.axis_2"/>
   <g id="PolyCollection_1">
    <defs>
     <path d="M 369.357162 -195.40224 
L 369.357162 -38.016 
L 371.522969 -38.016 
L 373.688777 -38.016 
L 375.854584 -38.016 
L 378.020392 -38.016 
L 380.186199 -38.016 
L 382.352007 -38.016 
L 384.517814 -38.016 
L 386.683622 -38.016 
L 388.849429 -38.016 
L 391.015237 -38.016 
L 393.181044 -38.016 
L 395.346852 -38.016 
L 397.512659 -38.016 
L 397.512659 -142.94016 
L 397.512659 -142.94016 
L 395.346852 -162.70848 
L 393.181044 -165.74976 
L 391.015237 -188.55936 
L 388.849429 -197.6832 
L 386.683622 -207.56736 
L 384.517814 -208.32768 
L 382.352007 -212.12928 
L 380.186199 -199.20384 
L 378.020392 -219.73248 
L 375.854584 -203.00544 
L 373.688777 -222.01344 
L 371.522969 -207.56736 
L 369.357162 -195.40224 
z
" id="m5694da49cd" style="stroke:#dc3545;stroke-opacity:0.5;"/>
    </defs>
    <g clip-path="url(#p5d9560f659)">
     <use style="fill:#dc3545;fill-opacity:0.5;stroke:#dc3545;stroke-opacity:0.5;" x="0" xlink:href="#m5694da49cd" y="345.6"/>
    </g>
   </g>
   <g id="PolyCollection_2">
    <defs>
     <path d="M 87.802186 -39.53664 
L 87.802186 -38.016 
L 89.967993 -38.016 
L 92.133801 -38.016 
L 94.299608 -38.016 
L 96.465416 -38.016 
L 98.631223 -38.016 
L 100.797031 -38.016 
L 102.962838 -38.016 
L 105.128646 -38.016 
L 107.294453 -38.016 
L 109.460261 -38.016 
L 111.626068 -38.016 
L 113.791876 -38.016 
L 115.957683 -38.016 
L 118.123491 -38.016 
L 120.289298 -38.016 
L 122.455106 -38.016 
L 124.620913 -38.016 
L 126.786721 -38.016 
L 128.952528 -38.016 
L 131.118336 -38.016 
L 133.284143 -38.016 
L 135.449951 -38.016 
L 137.615758 -38.016 
L 139.781566 -38.016 
L 141.947373 -38.016 
L 144.113181 -38.016 
L 146.278988 -38.016 
L 148.444796 -38.016 
L 150.610603 -38.016 
L 152.776411 -38.016 
L 154.942218 -38.016 
L 157.108026 -38.016 
L 159.273833 -38.016 
L 161.439641 -38.016 
L 163.605448 -38.016 
L 165.771256 -38.016 
L 167.937063 -38.016 
L 170.102871 -38.016 
L 172.268679 -38.016 
L 174.434486 -38.016 
L 176.600294 -38.016 
L 178.766101 -38.016 
L 180.931909 -38.016 
L 183.097716 -38.016 
L 185.263524 -38.016 
L 187.429331 -38.016 
L 189.595139 -38.016 
L 191.760946 -38.016 
L 193.926754 -38.016 
L 196.092561 -38.016 
L 198.258369 -38.016 
L 200.424176 -38.016 
L 202.589984 -38.016 
L 204.755791 -38.016 
L 206.921599 -38.016 
L 209.087406 -38.016 
L 211.253214 -38.016 
L 213.419021 -38.016 
L 215.584829 -38.016 
L 217.750636 -38.016 
L 219.916444 -38.016 
L 222.082251 -38.016 
L 224.248059 -38.016 
L 226.413866 -38.016 
L 228.579674 -38.016 
L 230.745481 -38.016 
L 232.911289 -38.016 
L 235.077096 -38.016 
L 237.242904 -38.016 
L 239.408711 -38.016 
L 241.574519 -38.016 
L 243.740326 -38.016 
L 245.906134 -38.016 
L 248.071941 -38.016 
L 250.237749 -38.016 
L 252.403556 -38.016 
L 254.569364 -38.016 
L 256.735171 -38.016 
L 258.900979 -38.016 
L 261.066786 -38.016 
L 263.232594 -38.016 
L 265.398401 -38.016 
L 267.564209 -38.016 
L 269.730016 -38.016 
L 271.895824 -38.016 
L 274.061631 -38.016 
L 276.227439 -38.016 
L 278.393246 -38.016 
L 280.559054 -38.016 
L 282.724861 -38.016 
L 284.890669 -38.016 
L 287.056476 -38.016 
L 289.222284 -38.016 
L 291.388091 -38.016 
L 293.553899 -38.016 
L 295.719706 -38.016 
L 297.885514 -38.016 
L 300.051321 -38.016 
L 302.217129 -38.016 
L 304.382937 -38.016 
L 306.548744 -38.016 
L 308.714552 -38.016 
L 310.880359 -38.016 
L 313.046167 -38.016 
L 315.211974 -38.016 
L 317.377782 -38.016 
L 319.543589 -38.016 
L 321.709397 -38.016 
L 323.875204 -38.016 
L 326.041012 -38.016 
L 328.206819 -38.016 
L 330.372627 -38.016 
L 332.538434 -38.016 
L 334.704242 -38.016 
L 336.870049 -38.016 
L 339.035857 -38.016 
L 341.201664 -38.016 
L 343.367472 -38.016 
L 345.533279 -38.016 
L 347.699087 -38.016 
L 349.864894 -38.016 
L 352.030702 -38.016 
L 354.196509 -38.016 
L 356.362317 -38.016 
L 358.528124 -38.016 
L 360.693932 -38.016 
L 362.859739 -38.016 
L 365.025547 -38.016 
L 367.191354 -38.016 
L 369.357162 -38.016 
L 369.357162 -195.40224 
L 369.357162 -195.40224 
L 367.191354 -187.79904 
L 365.025547 -180.95616 
L 362.859739 -166.51008 
L 360.693932 -171.83232 
L 358.528124 -164.22912 
L 356.362317 -171.83232 
L 354.196509 -175.63392 
L 352.030702 -177.91488 
L 349.864894 -174.8736 
L 347.699087 -175.63392 
L 345.533279 -156.62592 
L 343.367472 -140.6592 
L 341.201664 -128.49408 
L 339.035857 -126.21312 
L 336.870049 -106.4448 
L 334.704242 -98.08128 
L 332.538434 -83.6352 
L 330.372627 -76.79232 
L 328.206819 -63.86688 
L 326.041012 -58.54464 
L 323.875204 -50.94144 
L 321.709397 -50.18112 
L 319.543589 -45.6192 
L 317.377782 -44.85888 
L 315.211974 -45.6192 
L 313.046167 -45.6192 
L 310.880359 -43.33824 
L 308.714552 -40.29696 
L 306.548744 -40.29696 
L 304.382937 -42.57792 
L 302.217129 -43.33824 
L 300.051321 -50.18112 
L 297.885514 -50.94144 
L 295.719706 -52.46208 
L 293.553899 -52.46208 
L 291.388091 -53.2224 
L 289.222284 -54.74304 
L 287.056476 -63.86688 
L 284.890669 -57.78432 
L 282.724861 -57.024 
L 280.559054 -57.78432 
L 278.393246 -57.024 
L 276.227439 -56.26368 
L 274.061631 -52.46208 
L 271.895824 -42.57792 
L 269.730016 -40.29696 
L 267.564209 -40.29696 
L 265.398401 -38.016 
L 263.232594 -38.016 
L 261.066786 -38.016 
L 258.900979 -38.016 
L 256.735171 -38.016 
L 254.569364 -38.77632 
L 252.403556 -40.29696 
L 250.237749 -41.05728 
L 248.071941 -42.57792 
L 245.906134 -44.85888 
L 243.740326 -45.6192 
L 241.574519 -45.6192 
L 239.408711 -45.6192 
L 237.242904 -48.66048 
L 235.077096 -47.90016 
L 232.911289 -47.90016 
L 230.745481 -53.2224 
L 228.579674 -53.2224 
L 226.413866 -53.98272 
L 224.248059 -53.98272 
L 222.082251 -55.50336 
L 219.916444 -56.26368 
L 217.750636 -54.74304 
L 215.584829 -47.13984 
L 213.419021 -46.37952 
L 211.253214 -45.6192 
L 209.087406 -44.85888 
L 206.921599 -39.53664 
L 204.755791 -38.77632 
L 202.589984 -38.77632 
L 200.424176 -38.77632 
L 198.258369 -38.77632 
L 196.092561 -38.77632 
L 193.926754 -38.77632 
L 191.760946 -38.016 
L 189.595139 -38.77632 
L 187.429331 -38.77632 
L 185.263524 -38.77632 
L 183.097716 -38.77632 
L 180.931909 -38.77632 
L 178.766101 -38.77632 
L 176.600294 -38.77632 
L 174.434486 -38.016 
L 172.268679 -38.016 
L 170.102871 -38.016 
L 167.937063 -38.016 
L 165.771256 -38.016 
L 163.605448 -38.016 
L 161.439641 -38.016 
L 159.273833 -38.016 
L 157.108026 -38.016 
L 154.942218 -38.016 
L 152.776411 -38.016 
L 150.610603 -38.016 
L 148.444796 -38.016 
L 146.278988 -38.016 
L 144.113181 -38.016 
L 141.947373 -38.77632 
L 139.781566 -42.57792 
L 137.615758 -44.85888 
L 135.449951 -46.37952 
L 133.284143 -47.13984 
L 131.118336 -48.66048 
L 128.952528 -48.66048 
L 126.786721 -49.4208 
L 124.620913 -46.37952 
L 122.455106 -44.09856 
L 120.289298 -46.37952 
L 118.123491 -57.024 
L 115.957683 -69.18912 
L 113.791876 -79.07328 
L 111.626068 -77.55264 
L 109.460261 -77.55264 
L 107.294453 -77.55264 
L 105.128646 -76.032 
L 102.962838 -65.38752 
L 100.797031 -53.2224 
L 98.631223 -43.33824 
L 96.465416 -43.33824 
L 94.299608 -42.57792 
L 92.133801 -42.57792 
L 89.967993 -40.29696 
L 87.802186 -39.53664 
z
" id="m5355d20ef7" style="stroke:#fa9ba4;stroke-opacity:0.3;"/>
    </defs>
    <g clip-path="url(#p5d9560f659)">
     <use style="fill:#fa9ba4;fill-opacity:0.3;stroke:#fa9ba4;stroke-opacity:0.3;" x="0" xlink:href="#m5355d20ef7" y="345.6"/>
    </g>
   </g>
   <g id="line2d_1">
    <path clip-path="url(#p5d9560f659)" d="M 87.802186 306.06336 
L 89.967993 305.30304 
L 92.133801 303.02208 
L 94.299608 303.02208 
L 96.465416 302.26176 
L 98.631223 302.26176 
L 100.797031 292.3776 
L 102.962838 280.21248 
L 105.128646 269.568 
L 107.294453 268.04736 
L 111.626068 268.04736 
L 113.791876 266.52672 
L 115.957683 276.41088 
L 118.123491 288.576 
L 120.289298 299.22048 
L 122.455106 301.50144 
L 124.620913 299.22048 
L 126.786721 296.1792 
L 128.952528 296.93952 
L 131.118336 296.93952 
L 133.284143 298.46016 
L 135.449951 299.22048 
L 137.615758 300.74112 
L 139.781566 303.02208 
L 141.947373 306.82368 
L 144.113181 307.584 
L 174.434486 307.584 
L 176.600294 306.82368 
L 189.595139 306.82368 
L 191.760946 307.584 
L 193.926754 306.82368 
L 204.755791 306.82368 
L 206.921599 306.06336 
L 209.087406 300.74112 
L 215.584829 298.46016 
L 217.750636 290.85696 
L 219.916444 289.33632 
L 222.082251 290.09664 
L 224.248059 291.61728 
L 226.413866 291.61728 
L 228.579674 292.3776 
L 230.745481 292.3776 
L 232.911289 297.69984 
L 235.077096 297.69984 
L 237.242904 296.93952 
L 239.408711 299.9808 
L 243.740326 299.9808 
L 245.906134 300.74112 
L 248.071941 303.02208 
L 250.237749 304.54272 
L 252.403556 305.30304 
L 254.569364 306.82368 
L 256.735171 307.584 
L 265.398401 307.584 
L 267.564209 305.30304 
L 269.730016 305.30304 
L 271.895824 303.02208 
L 274.061631 293.13792 
L 276.227439 289.33632 
L 280.559054 287.81568 
L 282.724861 288.576 
L 284.890669 287.81568 
L 287.056476 281.73312 
L 289.222284 290.85696 
L 291.388091 292.3776 
L 293.553899 293.13792 
L 295.719706 293.13792 
L 297.885514 294.65856 
L 300.051321 295.41888 
L 302.217129 302.26176 
L 304.382937 303.02208 
L 306.548744 305.30304 
L 308.714552 305.30304 
L 310.880359 302.26176 
L 313.046167 299.9808 
L 315.211974 299.9808 
L 317.377782 300.74112 
L 319.543589 299.9808 
L 321.709397 295.41888 
L 323.875204 294.65856 
L 326.041012 287.05536 
L 328.206819 281.73312 
L 330.372627 268.80768 
L 332.538434 261.9648 
L 334.704242 247.51872 
L 336.870049 239.1552 
L 339.035857 219.38688 
L 341.201664 217.10592 
L 343.367472 204.9408 
L 345.533279 188.97408 
L 347.699087 169.96608 
L 349.864894 170.7264 
L 352.030702 167.68512 
L 354.196509 169.96608 
L 356.362317 173.76768 
L 358.528124 181.37088 
L 360.693932 173.76768 
L 362.859739 179.08992 
L 365.025547 164.64384 
L 367.191354 157.80096 
L 369.357162 150.19776 
L 371.522969 138.03264 
L 373.688777 123.58656 
L 375.854584 142.59456 
L 378.020392 125.86752 
L 380.186199 146.39616 
L 382.352007 133.47072 
L 384.517814 137.27232 
L 386.683622 138.03264 
L 388.849429 147.9168 
L 391.015237 157.04064 
L 393.181044 179.85024 
L 395.346852 182.89152 
L 397.512659 202.65984 
L 397.512659 202.65984 
" style="fill:none;stroke:#fa9ba4;stroke-linecap:square;stroke-width:2;"/>
   </g>
   <g id="line2d_2">
    <path clip-path="url(#p5d9560f659)" d="M 369.357162 150.19776 
L 371.522969 138.03264 
L 373.688777 123.58656 
L 375.854584 142.59456 
L 378.020392 125.86752 
L 380.186199 146.39616 
L 382.352007 133.47072 
L 384.517814 137.27232 
L 386.683622 138.03264 
L 388.849429 147.9168 
L 391.015237 157.04064 
L 393.181044 179.85024 
L 395.346852 182.89152 
L 397.512659 202.65984 
" style="fill:none;stroke:#dc3545;stroke-linecap:square;stroke-width:2;"/>
   </g>
  </g>
 </g>
 <defs>
  <clipPath id="p5d9560f659">
   <rect height="266.112" width="357.12" x="57.6" y="41.472"/>
  </clipPath>
 </defs>
</svg>
