<?xml version="1.0" encoding="utf-8" standalone="no"?>
<!DOCTYPE svg PUBLIC "-//W3C//DTD SVG 1.1//EN"
  "http://www.w3.org/Graphics/SVG/1.1/DTD/svg11.dtd">
<!-- Created with matplotlib (https://matplotlib.org/) -->
<svg height="345.6pt" version="1.1" viewBox="0 0 460.8 345.6" width="460.8pt" xmlns="http://www.w3.org/2000/svg" xmlns:xlink="http://www.w3.org/1999/xlink">
 <metadata>
  <rdf:RDF xmlns:cc="http://creativecommons.org/ns#" xmlns:dc="http://purl.org/dc/elements/1.1/" xmlns:rdf="http://www.w3.org/1999/02/22-rdf-syntax-ns#">
   <cc:Work>
    <dc:type rdf:resource="http://purl.org/dc/dcmitype/StillImage"/>
    <dc:date>2021-01-27T13:01:58.702382</dc:date>
    <dc:format>image/svg+xml</dc:format>
    <dc:creator>
     <cc:Agent>
      <dc:title>Matplotlib v3.3.3, https://matplotlib.org/</dc:title>
     </cc:Agent>
    </dc:creator>
   </cc:Work>
  </rdf:RDF>
 </metadata>
 <defs>
  <style type="text/css">*{stroke-linecap:butt;stroke-linejoin:round;}</style>
 </defs>
 <g id="figure_1">
  <g id="patch_1">
   <path d="M 0 345.6 
L 460.8 345.6 
L 460.8 0 
L 0 0 
z
" style="fill:none;"/>
  </g>
  <g id="axes_1">
   <g id="patch_2">
    <path clip-path="url(#p99183b4d38)" d="M 73.832727 307.584 
L 80.643662 307.584 
L 80.643662 307.584 
L 73.832727 307.584 
z
" style="fill:#fa9ba4;opacity:0.2;"/>
   </g>
   <g id="patch_3">
    <path clip-path="url(#p99183b4d38)" d="M 81.400432 307.584 
L 88.211367 307.584 
L 88.211367 307.584 
L 81.400432 307.584 
z
" style="fill:#fa9ba4;opacity:0.2;"/>
   </g>
   <g id="patch_4">
    <path clip-path="url(#p99183b4d38)" d="M 88.968137 307.584 
L 95.779072 307.584 
L 95.779072 307.584 
L 88.968137 307.584 
z
" style="fill:#fa9ba4;opacity:0.2;"/>
   </g>
   <g id="patch_5">
    <path clip-path="url(#p99183b4d38)" d="M 96.535842 307.584 
L 103.346777 307.584 
L 103.346777 307.584 
L 96.535842 307.584 
z
" style="fill:#fa9ba4;opacity:0.2;"/>
   </g>
   <g id="patch_6">
    <path clip-path="url(#p99183b4d38)" d="M 104.103547 307.584 
L 110.914482 307.584 
L 110.914482 307.584 
L 104.103547 307.584 
z
" style="fill:#fa9ba4;opacity:0.2;"/>
   </g>
   <g id="patch_7">
    <path clip-path="url(#p99183b4d38)" d="M 111.671252 307.584 
L 118.482187 307.584 
L 118.482187 307.584 
L 111.671252 307.584 
z
" style="fill:#fa9ba4;opacity:0.2;"/>
   </g>
   <g id="patch_8">
    <path clip-path="url(#p99183b4d38)" d="M 119.238957 307.584 
L 126.049892 307.584 
L 126.049892 307.584 
L 119.238957 307.584 
z
" style="fill:#fa9ba4;opacity:0.2;"/>
   </g>
   <g id="patch_9">
    <path clip-path="url(#p99183b4d38)" d="M 126.806662 307.584 
L 133.617597 307.584 
L 133.617597 307.584 
L 126.806662 307.584 
z
" style="fill:#fa9ba4;opacity:0.2;"/>
   </g>
   <g id="patch_10">
    <path clip-path="url(#p99183b4d38)" d="M 134.374367 307.584 
L 141.185302 307.584 
L 141.185302 307.584 
L 134.374367 307.584 
z
" style="fill:#fa9ba4;opacity:0.2;"/>
   </g>
   <g id="patch_11">
    <path clip-path="url(#p99183b4d38)" d="M 141.942072 307.584 
L 148.753007 307.584 
L 148.753007 307.584 
L 141.942072 307.584 
z
" style="fill:#fa9ba4;opacity:0.2;"/>
   </g>
   <g id="patch_12">
    <path clip-path="url(#p99183b4d38)" d="M 149.509777 307.584 
L 156.320712 307.584 
L 156.320712 307.584 
L 149.509777 307.584 
z
" style="fill:#fa9ba4;opacity:0.2;"/>
   </g>
   <g id="patch_13">
    <path clip-path="url(#p99183b4d38)" d="M 157.077483 307.584 
L 163.888417 307.584 
L 163.888417 307.584 
L 157.077483 307.584 
z
" style="fill:#fa9ba4;opacity:0.2;"/>
   </g>
   <g id="patch_14">
    <path clip-path="url(#p99183b4d38)" d="M 164.645188 307.584 
L 171.456122 307.584 
L 171.456122 307.584 
L 164.645188 307.584 
z
" style="fill:#fa9ba4;opacity:0.2;"/>
   </g>
   <g id="patch_15">
    <path clip-path="url(#p99183b4d38)" d="M 172.212893 307.584 
L 179.023827 307.584 
L 179.023827 307.584 
L 172.212893 307.584 
z
" style="fill:#fa9ba4;opacity:0.2;"/>
   </g>
   <g id="patch_16">
    <path clip-path="url(#p99183b4d38)" d="M 179.780598 307.584 
L 186.591532 307.584 
L 186.591532 307.584 
L 179.780598 307.584 
z
" style="fill:#fa9ba4;opacity:0.2;"/>
   </g>
   <g id="patch_17">
    <path clip-path="url(#p99183b4d38)" d="M 187.348303 307.584 
L 194.159237 307.584 
L 194.159237 307.584 
L 187.348303 307.584 
z
" style="fill:#fa9ba4;opacity:0.2;"/>
   </g>
   <g id="patch_18">
    <path clip-path="url(#p99183b4d38)" d="M 194.916008 307.584 
L 201.726942 307.584 
L 201.726942 307.584 
L 194.916008 307.584 
z
" style="fill:#fa9ba4;opacity:0.2;"/>
   </g>
   <g id="patch_19">
    <path clip-path="url(#p99183b4d38)" d="M 202.483713 307.584 
L 209.294647 307.584 
L 209.294647 293.578105 
L 202.483713 293.578105 
z
" style="fill:#fa9ba4;opacity:0.2;"/>
   </g>
   <g id="patch_20">
    <path clip-path="url(#p99183b4d38)" d="M 210.051418 307.584 
L 216.862352 307.584 
L 216.862352 279.572211 
L 210.051418 279.572211 
z
" style="fill:#fa9ba4;opacity:0.2;"/>
   </g>
   <g id="patch_21">
    <path clip-path="url(#p99183b4d38)" d="M 217.619123 307.584 
L 224.430057 307.584 
L 224.430057 181.530947 
L 217.619123 181.530947 
z
" style="fill:#fa9ba4;opacity:0.2;"/>
   </g>
   <g id="patch_22">
    <path clip-path="url(#p99183b4d38)" d="M 225.186828 307.584 
L 231.997762 307.584 
L 231.997762 139.513263 
L 225.186828 139.513263 
z
" style="fill:#fa9ba4;opacity:0.2;"/>
   </g>
   <g id="patch_23">
    <path clip-path="url(#p99183b4d38)" d="M 232.754533 307.584 
L 239.565467 307.584 
L 239.565467 307.584 
L 232.754533 307.584 
z
" style="fill:#fa9ba4;opacity:0.2;"/>
   </g>
   <g id="patch_24">
    <path clip-path="url(#p99183b4d38)" d="M 240.322238 307.584 
L 247.133172 307.584 
L 247.133172 307.584 
L 240.322238 307.584 
z
" style="fill:#fa9ba4;opacity:0.2;"/>
   </g>
   <g id="patch_25">
    <path clip-path="url(#p99183b4d38)" d="M 247.889943 307.584 
L 254.700877 307.584 
L 254.700877 279.572211 
L 247.889943 279.572211 
z
" style="fill:#fa9ba4;opacity:0.2;"/>
   </g>
   <g id="patch_26">
    <path clip-path="url(#p99183b4d38)" d="M 255.457648 307.584 
L 262.268582 307.584 
L 262.268582 209.542737 
L 255.457648 209.542737 
z
" style="fill:#fa9ba4;opacity:0.2;"/>
   </g>
   <g id="patch_27">
    <path clip-path="url(#p99183b4d38)" d="M 263.025353 307.584 
L 269.836287 307.584 
L 269.836287 55.477895 
L 263.025353 55.477895 
z
" style="fill:#fa9ba4;opacity:0.2;"/>
   </g>
   <g id="patch_28">
    <path clip-path="url(#p99183b4d38)" d="M 270.593058 307.584 
L 277.403992 307.584 
L 277.403992 279.572211 
L 270.593058 279.572211 
z
" style="fill:#fa9ba4;opacity:0.2;"/>
   </g>
   <g id="patch_29">
    <path clip-path="url(#p99183b4d38)" d="M 278.160763 307.584 
L 284.971697 307.584 
L 284.971697 41.472 
L 278.160763 41.472 
z
" style="fill:#fa9ba4;opacity:0.2;"/>
   </g>
   <g id="patch_30">
    <path clip-path="url(#p99183b4d38)" d="M 285.728468 307.584 
L 292.539402 307.584 
L 292.539402 195.536842 
L 285.728468 195.536842 
z
" style="fill:#fa9ba4;opacity:0.2;"/>
   </g>
   <g id="patch_31">
    <path clip-path="url(#p99183b4d38)" d="M 293.296173 307.584 
L 300.107107 307.584 
L 300.107107 265.566316 
L 293.296173 265.566316 
z
" style="fill:#fa9ba4;opacity:0.2;"/>
   </g>
   <g id="patch_32">
    <path clip-path="url(#p99183b4d38)" d="M 300.863878 307.584 
L 307.674812 307.584 
L 307.674812 237.554526 
L 300.863878 237.554526 
z
" style="fill:#fa9ba4;opacity:0.2;"/>
   </g>
   <g id="patch_33">
    <path clip-path="url(#p99183b4d38)" d="M 308.431583 307.584 
L 315.242517 307.584 
L 315.242517 307.584 
L 308.431583 307.584 
z
" style="fill:#fa9ba4;opacity:0.2;"/>
   </g>
   <g id="patch_34">
    <path clip-path="url(#p99183b4d38)" d="M 315.999288 307.584 
L 322.810223 307.584 
L 322.810223 223.548632 
L 315.999288 223.548632 
z
" style="fill:#fa9ba4;opacity:0.2;"/>
   </g>
   <g id="patch_35">
    <path clip-path="url(#p99183b4d38)" d="M 323.566993 307.584 
L 330.377928 307.584 
L 330.377928 279.572211 
L 323.566993 279.572211 
z
" style="fill:#fa9ba4;opacity:0.2;"/>
   </g>
   <g id="patch_36">
    <path clip-path="url(#p99183b4d38)" d="M 331.134698 307.584 
L 337.945633 307.584 
L 337.945633 195.536842 
L 331.134698 195.536842 
z
" style="fill:#fa9ba4;opacity:0.2;"/>
   </g>
   <g id="patch_37">
    <path clip-path="url(#p99183b4d38)" d="M 338.702403 307.584 
L 345.513338 307.584 
L 345.513338 307.584 
L 338.702403 307.584 
z
" style="fill:#fa9ba4;opacity:0.2;"/>
   </g>
   <g id="patch_38">
    <path clip-path="url(#p99183b4d38)" d="M 346.270108 307.584 
L 353.081043 307.584 
L 353.081043 307.584 
L 346.270108 307.584 
z
" style="fill:#fa9ba4;opacity:0.2;"/>
   </g>
   <g id="patch_39">
    <path clip-path="url(#p99183b4d38)" d="M 353.837813 307.584 
L 360.648748 307.584 
L 360.648748 251.560421 
L 353.837813 251.560421 
z
" style="fill:#fa9ba4;opacity:0.2;"/>
   </g>
   <g id="patch_40">
    <path clip-path="url(#p99183b4d38)" d="M 361.405518 307.584 
L 368.216453 307.584 
L 368.216453 307.584 
L 361.405518 307.584 
z
" style="fill:#fa9ba4;opacity:0.2;"/>
   </g>
   <g id="patch_41">
    <path clip-path="url(#p99183b4d38)" d="M 368.973223 307.584 
L 375.784158 307.584 
L 375.784158 293.578105 
L 368.973223 293.578105 
z
" style="fill:#fa9ba4;opacity:0.2;"/>
   </g>
   <g id="patch_42">
    <path clip-path="url(#p99183b4d38)" d="M 376.540928 307.584 
L 383.351863 307.584 
L 383.351863 307.584 
L 376.540928 307.584 
z
" style="fill:#fa9ba4;opacity:0.2;"/>
   </g>
   <g id="patch_43">
    <path clip-path="url(#p99183b4d38)" d="M 384.108633 307.584 
L 390.919568 307.584 
L 390.919568 307.584 
L 384.108633 307.584 
z
" style="fill:#fa9ba4;opacity:0.2;"/>
   </g>
   <g id="patch_44">
    <path clip-path="url(#p99183b4d38)" d="M 391.676338 307.584 
L 398.487273 307.584 
L 398.487273 307.584 
L 391.676338 307.584 
z
" style="fill:#fa9ba4;opacity:0.2;"/>
   </g>
   <g id="matplotlib.axis_1"/>
   <g id="matplotlib.axis_2"/>
   <g id="PolyCollection_1">
    <defs>
     <path d="M 296.70164 -156.065684 
L 296.70164 -38.016 
L 304.269345 -38.016 
L 311.83705 -38.016 
L 319.404755 -38.016 
L 326.97246 -38.016 
L 334.540165 -38.016 
L 342.10787 -38.016 
L 349.675575 -38.016 
L 357.24328 -38.016 
L 364.810985 -38.016 
L 372.37869 -38.016 
L 379.946395 -38.016 
L 387.5141 -38.016 
L 395.081805 -38.016 
L 395.081805 -48.020211 
L 395.081805 -48.020211 
L 387.5141 -48.020211 
L 379.946395 -64.026947 
L 372.37869 -68.028632 
L 364.810985 -78.032842 
L 357.24328 -78.032842 
L 349.675575 -80.033684 
L 342.10787 -86.036211 
L 334.540165 -102.042947 
L 326.97246 -124.052211 
L 319.404755 -124.052211 
L 311.83705 -148.062316 
L 304.269345 -162.068211 
L 296.70164 -156.065684 
z
" id="m3606a647fc" style="stroke:#dc3545;stroke-opacity:0.5;"/>
    </defs>
    <g clip-path="url(#p99183b4d38)">
     <use style="fill:#dc3545;fill-opacity:0.5;stroke:#dc3545;stroke-opacity:0.5;" x="0" xlink:href="#m3606a647fc" y="345.6"/>
    </g>
   </g>
   <g id="PolyCollection_2">
    <defs>
     <path d="M 122.644425 -38.016 
L 122.644425 -38.016 
L 130.21213 -38.016 
L 137.779835 -38.016 
L 145.34754 -38.016 
L 152.915245 -38.016 
L 160.48295 -38.016 
L 168.050655 -38.016 
L 175.61836 -38.016 
L 183.186065 -38.016 
L 190.75377 -38.016 
L 198.321475 -38.016 
L 205.88918 -38.016 
L 213.456885 -38.016 
L 221.02459 -38.016 
L 228.592295 -38.016 
L 236.16 -38.016 
L 243.727705 -38.016 
L 251.29541 -38.016 
L 258.863115 -38.016 
L 266.43082 -38.016 
L 273.998525 -38.016 
L 281.56623 -38.016 
L 289.133935 -38.016 
L 296.70164 -38.016 
L 296.70164 -156.065684 
L 296.70164 -156.065684 
L 289.133935 -150.063158 
L 281.56623 -134.056421 
L 273.998525 -120.050526 
L 266.43082 -134.056421 
L 258.863115 -102.042947 
L 251.29541 -90.037895 
L 243.727705 -86.036211 
L 236.16 -86.036211 
L 228.592295 -86.036211 
L 221.02459 -62.026105 
L 213.456885 -44.018526 
L 205.88918 -40.016842 
L 198.321475 -38.016 
L 190.75377 -38.016 
L 183.186065 -38.016 
L 175.61836 -38.016 
L 168.050655 -38.016 
L 160.48295 -38.016 
L 152.915245 -38.016 
L 145.34754 -38.016 
L 137.779835 -38.016 
L 130.21213 -38.016 
L 122.644425 -38.016 
z
" id="m38a5f3ae98" style="stroke:#fa9ba4;stroke-opacity:0.3;"/>
    </defs>
    <g clip-path="url(#p99183b4d38)">
     <use style="fill:#fa9ba4;fill-opacity:0.3;stroke:#fa9ba4;stroke-opacity:0.3;" x="0" xlink:href="#m38a5f3ae98" y="345.6"/>
    </g>
   </g>
   <g id="line2d_1">
    <path clip-path="url(#p99183b4d38)" d="M 122.644425 307.584 
L 130.21213 307.584 
L 137.779835 307.584 
L 145.34754 307.584 
L 152.915245 307.584 
L 160.48295 307.584 
L 168.050655 307.584 
L 175.61836 307.584 
L 183.186065 307.584 
L 190.75377 307.584 
L 198.321475 307.584 
L 205.88918 305.583158 
L 213.456885 301.581474 
L 221.02459 283.573895 
L 228.592295 259.563789 
L 236.16 259.563789 
L 243.727705 259.563789 
L 251.29541 255.562105 
L 258.863115 243.557053 
L 266.43082 211.543579 
L 273.998525 225.549474 
L 281.56623 211.543579 
L 289.133935 195.536842 
L 296.70164 189.534316 
L 304.269345 183.531789 
L 311.83705 197.537684 
L 319.404755 221.547789 
L 326.97246 221.547789 
L 334.540165 243.557053 
L 342.10787 259.563789 
L 349.675575 265.566316 
L 357.24328 267.567158 
L 364.810985 267.567158 
L 372.37869 277.571368 
L 379.946395 281.573053 
L 387.5141 297.579789 
L 395.081805 297.579789 
" style="fill:none;stroke:#fa9ba4;stroke-linecap:square;stroke-width:2;"/>
   </g>
   <g id="line2d_2">
    <path clip-path="url(#p99183b4d38)" d="M 296.70164 189.534316 
L 304.269345 183.531789 
L 311.83705 197.537684 
L 319.404755 221.547789 
L 326.97246 221.547789 
L 334.540165 243.557053 
L 342.10787 259.563789 
L 349.675575 265.566316 
L 357.24328 267.567158 
L 364.810985 267.567158 
L 372.37869 277.571368 
L 379.946395 281.573053 
L 387.5141 297.579789 
L 395.081805 297.579789 
" style="fill:none;stroke:#dc3545;stroke-linecap:square;stroke-width:2;"/>
   </g>
  </g>
 </g>
 <defs>
  <clipPath id="p99183b4d38">
   <rect height="266.112" width="357.12" x="57.6" y="41.472"/>
  </clipPath>
 </defs>
</svg>
