<?xml version="1.0" encoding="utf-8" standalone="no"?>
<!DOCTYPE svg PUBLIC "-//W3C//DTD SVG 1.1//EN"
  "http://www.w3.org/Graphics/SVG/1.1/DTD/svg11.dtd">
<!-- Created with matplotlib (https://matplotlib.org/) -->
<svg height="345.6pt" version="1.1" viewBox="0 0 460.8 345.6" width="460.8pt" xmlns="http://www.w3.org/2000/svg" xmlns:xlink="http://www.w3.org/1999/xlink">
 <metadata>
  <rdf:RDF xmlns:cc="http://creativecommons.org/ns#" xmlns:dc="http://purl.org/dc/elements/1.1/" xmlns:rdf="http://www.w3.org/1999/02/22-rdf-syntax-ns#">
   <cc:Work>
    <dc:type rdf:resource="http://purl.org/dc/dcmitype/StillImage"/>
    <dc:date>2021-01-19T13:26:00.886313</dc:date>
    <dc:format>image/svg+xml</dc:format>
    <dc:creator>
     <cc:Agent>
      <dc:title>Matplotlib v3.3.3, https://matplotlib.org/</dc:title>
     </cc:Agent>
    </dc:creator>
   </cc:Work>
  </rdf:RDF>
 </metadata>
 <defs>
  <style type="text/css">*{stroke-linecap:butt;stroke-linejoin:round;}</style>
 </defs>
 <g id="figure_1">
  <g id="patch_1">
   <path d="M 0 345.6 
L 460.8 345.6 
L 460.8 0 
L 0 0 
z
" style="fill:none;"/>
  </g>
  <g id="axes_1">
   <g id="patch_2">
    <path clip-path="url(#pdc6b999601)" d="M 73.832727 307.584 
L 82.204908 307.584 
L 82.204908 307.584 
L 73.832727 307.584 
z
" style="fill:#fa9ba4;opacity:0.2;"/>
   </g>
   <g id="patch_3">
    <path clip-path="url(#pdc6b999601)" d="M 83.13515 307.584 
L 91.50733 307.584 
L 91.50733 307.584 
L 83.13515 307.584 
z
" style="fill:#fa9ba4;opacity:0.2;"/>
   </g>
   <g id="patch_4">
    <path clip-path="url(#pdc6b999601)" d="M 92.437572 307.584 
L 100.809753 307.584 
L 100.809753 307.584 
L 92.437572 307.584 
z
" style="fill:#fa9ba4;opacity:0.2;"/>
   </g>
   <g id="patch_5">
    <path clip-path="url(#pdc6b999601)" d="M 101.739995 307.584 
L 110.112175 307.584 
L 110.112175 307.584 
L 101.739995 307.584 
z
" style="fill:#fa9ba4;opacity:0.2;"/>
   </g>
   <g id="patch_6">
    <path clip-path="url(#pdc6b999601)" d="M 111.042417 307.584 
L 119.414598 307.584 
L 119.414598 307.584 
L 111.042417 307.584 
z
" style="fill:#fa9ba4;opacity:0.2;"/>
   </g>
   <g id="patch_7">
    <path clip-path="url(#pdc6b999601)" d="M 120.34484 307.584 
L 128.71702 307.584 
L 128.71702 307.584 
L 120.34484 307.584 
z
" style="fill:#fa9ba4;opacity:0.2;"/>
   </g>
   <g id="patch_8">
    <path clip-path="url(#pdc6b999601)" d="M 129.647262 307.584 
L 138.019443 307.584 
L 138.019443 307.584 
L 129.647262 307.584 
z
" style="fill:#fa9ba4;opacity:0.2;"/>
   </g>
   <g id="patch_9">
    <path clip-path="url(#pdc6b999601)" d="M 138.949685 307.584 
L 147.321865 307.584 
L 147.321865 307.584 
L 138.949685 307.584 
z
" style="fill:#fa9ba4;opacity:0.2;"/>
   </g>
   <g id="patch_10">
    <path clip-path="url(#pdc6b999601)" d="M 148.252107 307.584 
L 156.624288 307.584 
L 156.624288 307.584 
L 148.252107 307.584 
z
" style="fill:#fa9ba4;opacity:0.2;"/>
   </g>
   <g id="patch_11">
    <path clip-path="url(#pdc6b999601)" d="M 157.55453 307.584 
L 165.92671 307.584 
L 165.92671 307.584 
L 157.55453 307.584 
z
" style="fill:#fa9ba4;opacity:0.2;"/>
   </g>
   <g id="patch_12">
    <path clip-path="url(#pdc6b999601)" d="M 166.856952 307.584 
L 175.229133 307.584 
L 175.229133 307.584 
L 166.856952 307.584 
z
" style="fill:#fa9ba4;opacity:0.2;"/>
   </g>
   <g id="patch_13">
    <path clip-path="url(#pdc6b999601)" d="M 176.159375 307.584 
L 184.531555 307.584 
L 184.531555 307.584 
L 176.159375 307.584 
z
" style="fill:#fa9ba4;opacity:0.2;"/>
   </g>
   <g id="patch_14">
    <path clip-path="url(#pdc6b999601)" d="M 185.461797 307.584 
L 193.833978 307.584 
L 193.833978 307.584 
L 185.461797 307.584 
z
" style="fill:#fa9ba4;opacity:0.2;"/>
   </g>
   <g id="patch_15">
    <path clip-path="url(#pdc6b999601)" d="M 194.76422 307.584 
L 203.1364 307.584 
L 203.1364 307.584 
L 194.76422 307.584 
z
" style="fill:#fa9ba4;opacity:0.2;"/>
   </g>
   <g id="patch_16">
    <path clip-path="url(#pdc6b999601)" d="M 204.066642 307.584 
L 212.438823 307.584 
L 212.438823 307.584 
L 204.066642 307.584 
z
" style="fill:#fa9ba4;opacity:0.2;"/>
   </g>
   <g id="patch_17">
    <path clip-path="url(#pdc6b999601)" d="M 213.369065 307.584 
L 221.741245 307.584 
L 221.741245 307.584 
L 213.369065 307.584 
z
" style="fill:#fa9ba4;opacity:0.2;"/>
   </g>
   <g id="patch_18">
    <path clip-path="url(#pdc6b999601)" d="M 222.671487 307.584 
L 231.043668 307.584 
L 231.043668 307.584 
L 222.671487 307.584 
z
" style="fill:#fa9ba4;opacity:0.2;"/>
   </g>
   <g id="patch_19">
    <path clip-path="url(#pdc6b999601)" d="M 231.97391 307.584 
L 240.34609 307.584 
L 240.34609 293.578105 
L 231.97391 293.578105 
z
" style="fill:#fa9ba4;opacity:0.2;"/>
   </g>
   <g id="patch_20">
    <path clip-path="url(#pdc6b999601)" d="M 241.276332 307.584 
L 249.648513 307.584 
L 249.648513 279.572211 
L 241.276332 279.572211 
z
" style="fill:#fa9ba4;opacity:0.2;"/>
   </g>
   <g id="patch_21">
    <path clip-path="url(#pdc6b999601)" d="M 250.578755 307.584 
L 258.950935 307.584 
L 258.950935 181.530947 
L 250.578755 181.530947 
z
" style="fill:#fa9ba4;opacity:0.2;"/>
   </g>
   <g id="patch_22">
    <path clip-path="url(#pdc6b999601)" d="M 259.881177 307.584 
L 268.253358 307.584 
L 268.253358 139.513263 
L 259.881177 139.513263 
z
" style="fill:#fa9ba4;opacity:0.2;"/>
   </g>
   <g id="patch_23">
    <path clip-path="url(#pdc6b999601)" d="M 269.1836 307.584 
L 277.55578 307.584 
L 277.55578 307.584 
L 269.1836 307.584 
z
" style="fill:#fa9ba4;opacity:0.2;"/>
   </g>
   <g id="patch_24">
    <path clip-path="url(#pdc6b999601)" d="M 278.486022 307.584 
L 286.858203 307.584 
L 286.858203 307.584 
L 278.486022 307.584 
z
" style="fill:#fa9ba4;opacity:0.2;"/>
   </g>
   <g id="patch_25">
    <path clip-path="url(#pdc6b999601)" d="M 287.788445 307.584 
L 296.160625 307.584 
L 296.160625 279.572211 
L 287.788445 279.572211 
z
" style="fill:#fa9ba4;opacity:0.2;"/>
   </g>
   <g id="patch_26">
    <path clip-path="url(#pdc6b999601)" d="M 297.090867 307.584 
L 305.463048 307.584 
L 305.463048 209.542737 
L 297.090867 209.542737 
z
" style="fill:#fa9ba4;opacity:0.2;"/>
   </g>
   <g id="patch_27">
    <path clip-path="url(#pdc6b999601)" d="M 306.39329 307.584 
L 314.76547 307.584 
L 314.76547 55.477895 
L 306.39329 55.477895 
z
" style="fill:#fa9ba4;opacity:0.2;"/>
   </g>
   <g id="patch_28">
    <path clip-path="url(#pdc6b999601)" d="M 315.695712 307.584 
L 324.067893 307.584 
L 324.067893 279.572211 
L 315.695712 279.572211 
z
" style="fill:#fa9ba4;opacity:0.2;"/>
   </g>
   <g id="patch_29">
    <path clip-path="url(#pdc6b999601)" d="M 324.998135 307.584 
L 333.370315 307.584 
L 333.370315 41.472 
L 324.998135 41.472 
z
" style="fill:#fa9ba4;opacity:0.2;"/>
   </g>
   <g id="patch_30">
    <path clip-path="url(#pdc6b999601)" d="M 334.300557 307.584 
L 342.672738 307.584 
L 342.672738 195.536842 
L 334.300557 195.536842 
z
" style="fill:#fa9ba4;opacity:0.2;"/>
   </g>
   <g id="patch_31">
    <path clip-path="url(#pdc6b999601)" d="M 343.60298 307.584 
L 351.97516 307.584 
L 351.97516 265.566316 
L 343.60298 265.566316 
z
" style="fill:#fa9ba4;opacity:0.2;"/>
   </g>
   <g id="patch_32">
    <path clip-path="url(#pdc6b999601)" d="M 352.905402 307.584 
L 361.277583 307.584 
L 361.277583 237.554526 
L 352.905402 237.554526 
z
" style="fill:#fa9ba4;opacity:0.2;"/>
   </g>
   <g id="patch_33">
    <path clip-path="url(#pdc6b999601)" d="M 362.207825 307.584 
L 370.580005 307.584 
L 370.580005 307.584 
L 362.207825 307.584 
z
" style="fill:#fa9ba4;opacity:0.2;"/>
   </g>
   <g id="patch_34">
    <path clip-path="url(#pdc6b999601)" d="M 371.510247 307.584 
L 379.882428 307.584 
L 379.882428 223.548632 
L 371.510247 223.548632 
z
" style="fill:#fa9ba4;opacity:0.2;"/>
   </g>
   <g id="patch_35">
    <path clip-path="url(#pdc6b999601)" d="M 380.81267 307.584 
L 389.18485 307.584 
L 389.18485 279.572211 
L 380.81267 279.572211 
z
" style="fill:#fa9ba4;opacity:0.2;"/>
   </g>
   <g id="patch_36">
    <path clip-path="url(#pdc6b999601)" d="M 390.115092 307.584 
L 398.487273 307.584 
L 398.487273 195.536842 
L 390.115092 195.536842 
z
" style="fill:#fa9ba4;opacity:0.2;"/>
   </g>
   <g id="matplotlib.axis_1"/>
   <g id="matplotlib.axis_2"/>
   <g id="PolyCollection_1">
    <defs>
     <path d="M 273.36969 -86.036211 
L 273.36969 -38.016 
L 282.672113 -38.016 
L 291.974535 -38.016 
L 301.276958 -38.016 
L 310.57938 -38.016 
L 319.881803 -38.016 
L 329.184225 -38.016 
L 338.486648 -38.016 
L 347.78907 -38.016 
L 357.091493 -38.016 
L 366.393915 -38.016 
L 375.696338 -38.016 
L 384.99876 -38.016 
L 394.301183 -38.016 
L 394.301183 -102.042947 
L 394.301183 -102.042947 
L 384.99876 -124.052211 
L 375.696338 -124.052211 
L 366.393915 -148.062316 
L 357.091493 -162.068211 
L 347.78907 -156.065684 
L 338.486648 -150.063158 
L 329.184225 -134.056421 
L 319.881803 -120.050526 
L 310.57938 -134.056421 
L 301.276958 -102.042947 
L 291.974535 -90.037895 
L 282.672113 -86.036211 
L 273.36969 -86.036211 
z
" id="m18d0dbd583" style="stroke:#dc3545;stroke-opacity:0.5;"/>
    </defs>
    <g clip-path="url(#pdc6b999601)">
     <use style="fill:#dc3545;fill-opacity:0.5;stroke:#dc3545;stroke-opacity:0.5;" x="0" xlink:href="#m18d0dbd583" y="345.6"/>
    </g>
   </g>
   <g id="PolyCollection_2">
    <defs>
     <path d="M 133.833352 -38.016 
L 133.833352 -38.016 
L 143.135775 -38.016 
L 152.438197 -38.016 
L 161.74062 -38.016 
L 171.043042 -38.016 
L 180.345465 -38.016 
L 189.647887 -38.016 
L 198.95031 -38.016 
L 208.252732 -38.016 
L 217.555155 -38.016 
L 226.857577 -38.016 
L 236.16 -38.016 
L 245.462423 -38.016 
L 254.764845 -38.016 
L 264.067268 -38.016 
L 273.36969 -38.016 
L 273.36969 -86.036211 
L 273.36969 -86.036211 
L 264.067268 -86.036211 
L 254.764845 -62.026105 
L 245.462423 -44.018526 
L 236.16 -40.016842 
L 226.857577 -38.016 
L 217.555155 -38.016 
L 208.252732 -38.016 
L 198.95031 -38.016 
L 189.647887 -38.016 
L 180.345465 -38.016 
L 171.043042 -38.016 
L 161.74062 -38.016 
L 152.438197 -38.016 
L 143.135775 -38.016 
L 133.833352 -38.016 
z
" id="med11d352b2" style="stroke:#fa9ba4;stroke-opacity:0.3;"/>
    </defs>
    <g clip-path="url(#pdc6b999601)">
     <use style="fill:#fa9ba4;fill-opacity:0.3;stroke:#fa9ba4;stroke-opacity:0.3;" x="0" xlink:href="#med11d352b2" y="345.6"/>
    </g>
   </g>
   <g id="line2d_1">
    <path clip-path="url(#pdc6b999601)" d="M 133.833352 307.584 
L 143.135775 307.584 
L 152.438197 307.584 
L 161.74062 307.584 
L 171.043042 307.584 
L 180.345465 307.584 
L 189.647887 307.584 
L 198.95031 307.584 
L 208.252732 307.584 
L 217.555155 307.584 
L 226.857577 307.584 
L 236.16 305.583158 
L 245.462423 301.581474 
L 254.764845 283.573895 
L 264.067268 259.563789 
L 273.36969 259.563789 
L 282.672113 259.563789 
L 291.974535 255.562105 
L 301.276958 243.557053 
L 310.57938 211.543579 
L 319.881803 225.549474 
L 329.184225 211.543579 
L 338.486648 195.536842 
L 347.78907 189.534316 
L 357.091493 183.531789 
L 366.393915 197.537684 
L 375.696338 221.547789 
L 384.99876 221.547789 
L 394.301183 243.557053 
" style="fill:none;stroke:#fa9ba4;stroke-linecap:square;stroke-width:2;"/>
   </g>
   <g id="line2d_2">
    <path clip-path="url(#pdc6b999601)" d="M 273.36969 259.563789 
L 282.672113 259.563789 
L 291.974535 255.562105 
L 301.276958 243.557053 
L 310.57938 211.543579 
L 319.881803 225.549474 
L 329.184225 211.543579 
L 338.486648 195.536842 
L 347.78907 189.534316 
L 357.091493 183.531789 
L 366.393915 197.537684 
L 375.696338 221.547789 
L 384.99876 221.547789 
L 394.301183 243.557053 
" style="fill:none;stroke:#dc3545;stroke-linecap:square;stroke-width:2;"/>
   </g>
  </g>
 </g>
 <defs>
  <clipPath id="pdc6b999601">
   <rect height="266.112" width="357.12" x="57.6" y="41.472"/>
  </clipPath>
 </defs>
</svg>
