<?xml version="1.0" encoding="utf-8" standalone="no"?>
<!DOCTYPE svg PUBLIC "-//W3C//DTD SVG 1.1//EN"
  "http://www.w3.org/Graphics/SVG/1.1/DTD/svg11.dtd">
<!-- Created with matplotlib (https://matplotlib.org/) -->
<svg height="345.6pt" version="1.1" viewBox="0 0 460.8 345.6" width="460.8pt" xmlns="http://www.w3.org/2000/svg" xmlns:xlink="http://www.w3.org/1999/xlink">
 <metadata>
  <rdf:RDF xmlns:cc="http://creativecommons.org/ns#" xmlns:dc="http://purl.org/dc/elements/1.1/" xmlns:rdf="http://www.w3.org/1999/02/22-rdf-syntax-ns#">
   <cc:Work>
    <dc:type rdf:resource="http://purl.org/dc/dcmitype/StillImage"/>
    <dc:date>2021-01-26T13:02:07.620827</dc:date>
    <dc:format>image/svg+xml</dc:format>
    <dc:creator>
     <cc:Agent>
      <dc:title>Matplotlib v3.3.3, https://matplotlib.org/</dc:title>
     </cc:Agent>
    </dc:creator>
   </cc:Work>
  </rdf:RDF>
 </metadata>
 <defs>
  <style type="text/css">*{stroke-linecap:butt;stroke-linejoin:round;}</style>
 </defs>
 <g id="figure_1">
  <g id="patch_1">
   <path d="M 0 345.6 
L 460.8 345.6 
L 460.8 0 
L 0 0 
z
" style="fill:none;"/>
  </g>
  <g id="axes_1">
   <g id="patch_2">
    <path clip-path="url(#p67007c962a)" d="M 73.832727 307.584 
L 80.806214 307.584 
L 80.806214 307.584 
L 73.832727 307.584 
z
" style="fill:#fa9ba4;opacity:0.2;"/>
   </g>
   <g id="patch_3">
    <path clip-path="url(#p67007c962a)" d="M 81.581046 307.584 
L 88.554532 307.584 
L 88.554532 307.584 
L 81.581046 307.584 
z
" style="fill:#fa9ba4;opacity:0.2;"/>
   </g>
   <g id="patch_4">
    <path clip-path="url(#p67007c962a)" d="M 89.329364 307.584 
L 96.302851 307.584 
L 96.302851 307.584 
L 89.329364 307.584 
z
" style="fill:#fa9ba4;opacity:0.2;"/>
   </g>
   <g id="patch_5">
    <path clip-path="url(#p67007c962a)" d="M 97.077683 307.584 
L 104.051169 307.584 
L 104.051169 307.584 
L 97.077683 307.584 
z
" style="fill:#fa9ba4;opacity:0.2;"/>
   </g>
   <g id="patch_6">
    <path clip-path="url(#p67007c962a)" d="M 104.826001 307.584 
L 111.799488 307.584 
L 111.799488 307.584 
L 104.826001 307.584 
z
" style="fill:#fa9ba4;opacity:0.2;"/>
   </g>
   <g id="patch_7">
    <path clip-path="url(#p67007c962a)" d="M 112.57432 307.584 
L 119.547806 307.584 
L 119.547806 307.584 
L 112.57432 307.584 
z
" style="fill:#fa9ba4;opacity:0.2;"/>
   </g>
   <g id="patch_8">
    <path clip-path="url(#p67007c962a)" d="M 120.322638 307.584 
L 127.296125 307.584 
L 127.296125 307.584 
L 120.322638 307.584 
z
" style="fill:#fa9ba4;opacity:0.2;"/>
   </g>
   <g id="patch_9">
    <path clip-path="url(#p67007c962a)" d="M 128.070957 307.584 
L 135.044443 307.584 
L 135.044443 307.584 
L 128.070957 307.584 
z
" style="fill:#fa9ba4;opacity:0.2;"/>
   </g>
   <g id="patch_10">
    <path clip-path="url(#p67007c962a)" d="M 135.819275 307.584 
L 142.792762 307.584 
L 142.792762 307.584 
L 135.819275 307.584 
z
" style="fill:#fa9ba4;opacity:0.2;"/>
   </g>
   <g id="patch_11">
    <path clip-path="url(#p67007c962a)" d="M 143.567594 307.584 
L 150.54108 307.584 
L 150.54108 307.584 
L 143.567594 307.584 
z
" style="fill:#fa9ba4;opacity:0.2;"/>
   </g>
   <g id="patch_12">
    <path clip-path="url(#p67007c962a)" d="M 151.315912 307.584 
L 158.289399 307.584 
L 158.289399 307.584 
L 151.315912 307.584 
z
" style="fill:#fa9ba4;opacity:0.2;"/>
   </g>
   <g id="patch_13">
    <path clip-path="url(#p67007c962a)" d="M 159.064231 307.584 
L 166.037718 307.584 
L 166.037718 307.584 
L 159.064231 307.584 
z
" style="fill:#fa9ba4;opacity:0.2;"/>
   </g>
   <g id="patch_14">
    <path clip-path="url(#p67007c962a)" d="M 166.812549 307.584 
L 173.786036 307.584 
L 173.786036 307.584 
L 166.812549 307.584 
z
" style="fill:#fa9ba4;opacity:0.2;"/>
   </g>
   <g id="patch_15">
    <path clip-path="url(#p67007c962a)" d="M 174.560868 307.584 
L 181.534355 307.584 
L 181.534355 307.584 
L 174.560868 307.584 
z
" style="fill:#fa9ba4;opacity:0.2;"/>
   </g>
   <g id="patch_16">
    <path clip-path="url(#p67007c962a)" d="M 182.309186 307.584 
L 189.282673 307.584 
L 189.282673 307.584 
L 182.309186 307.584 
z
" style="fill:#fa9ba4;opacity:0.2;"/>
   </g>
   <g id="patch_17">
    <path clip-path="url(#p67007c962a)" d="M 190.057505 307.584 
L 197.030992 307.584 
L 197.030992 307.584 
L 190.057505 307.584 
z
" style="fill:#fa9ba4;opacity:0.2;"/>
   </g>
   <g id="patch_18">
    <path clip-path="url(#p67007c962a)" d="M 197.805823 307.584 
L 204.77931 307.584 
L 204.77931 307.584 
L 197.805823 307.584 
z
" style="fill:#fa9ba4;opacity:0.2;"/>
   </g>
   <g id="patch_19">
    <path clip-path="url(#p67007c962a)" d="M 205.554142 307.584 
L 212.527629 307.584 
L 212.527629 293.578105 
L 205.554142 293.578105 
z
" style="fill:#fa9ba4;opacity:0.2;"/>
   </g>
   <g id="patch_20">
    <path clip-path="url(#p67007c962a)" d="M 213.30246 307.584 
L 220.275947 307.584 
L 220.275947 279.572211 
L 213.30246 279.572211 
z
" style="fill:#fa9ba4;opacity:0.2;"/>
   </g>
   <g id="patch_21">
    <path clip-path="url(#p67007c962a)" d="M 221.050779 307.584 
L 228.024266 307.584 
L 228.024266 181.530947 
L 221.050779 181.530947 
z
" style="fill:#fa9ba4;opacity:0.2;"/>
   </g>
   <g id="patch_22">
    <path clip-path="url(#p67007c962a)" d="M 228.799097 307.584 
L 235.772584 307.584 
L 235.772584 139.513263 
L 228.799097 139.513263 
z
" style="fill:#fa9ba4;opacity:0.2;"/>
   </g>
   <g id="patch_23">
    <path clip-path="url(#p67007c962a)" d="M 236.547416 307.584 
L 243.520903 307.584 
L 243.520903 307.584 
L 236.547416 307.584 
z
" style="fill:#fa9ba4;opacity:0.2;"/>
   </g>
   <g id="patch_24">
    <path clip-path="url(#p67007c962a)" d="M 244.295734 307.584 
L 251.269221 307.584 
L 251.269221 307.584 
L 244.295734 307.584 
z
" style="fill:#fa9ba4;opacity:0.2;"/>
   </g>
   <g id="patch_25">
    <path clip-path="url(#p67007c962a)" d="M 252.044053 307.584 
L 259.01754 307.584 
L 259.01754 279.572211 
L 252.044053 279.572211 
z
" style="fill:#fa9ba4;opacity:0.2;"/>
   </g>
   <g id="patch_26">
    <path clip-path="url(#p67007c962a)" d="M 259.792371 307.584 
L 266.765858 307.584 
L 266.765858 209.542737 
L 259.792371 209.542737 
z
" style="fill:#fa9ba4;opacity:0.2;"/>
   </g>
   <g id="patch_27">
    <path clip-path="url(#p67007c962a)" d="M 267.54069 307.584 
L 274.514177 307.584 
L 274.514177 55.477895 
L 267.54069 55.477895 
z
" style="fill:#fa9ba4;opacity:0.2;"/>
   </g>
   <g id="patch_28">
    <path clip-path="url(#p67007c962a)" d="M 275.289008 307.584 
L 282.262495 307.584 
L 282.262495 279.572211 
L 275.289008 279.572211 
z
" style="fill:#fa9ba4;opacity:0.2;"/>
   </g>
   <g id="patch_29">
    <path clip-path="url(#p67007c962a)" d="M 283.037327 307.584 
L 290.010814 307.584 
L 290.010814 41.472 
L 283.037327 41.472 
z
" style="fill:#fa9ba4;opacity:0.2;"/>
   </g>
   <g id="patch_30">
    <path clip-path="url(#p67007c962a)" d="M 290.785645 307.584 
L 297.759132 307.584 
L 297.759132 195.536842 
L 290.785645 195.536842 
z
" style="fill:#fa9ba4;opacity:0.2;"/>
   </g>
   <g id="patch_31">
    <path clip-path="url(#p67007c962a)" d="M 298.533964 307.584 
L 305.507451 307.584 
L 305.507451 265.566316 
L 298.533964 265.566316 
z
" style="fill:#fa9ba4;opacity:0.2;"/>
   </g>
   <g id="patch_32">
    <path clip-path="url(#p67007c962a)" d="M 306.282282 307.584 
L 313.255769 307.584 
L 313.255769 237.554526 
L 306.282282 237.554526 
z
" style="fill:#fa9ba4;opacity:0.2;"/>
   </g>
   <g id="patch_33">
    <path clip-path="url(#p67007c962a)" d="M 314.030601 307.584 
L 321.004088 307.584 
L 321.004088 307.584 
L 314.030601 307.584 
z
" style="fill:#fa9ba4;opacity:0.2;"/>
   </g>
   <g id="patch_34">
    <path clip-path="url(#p67007c962a)" d="M 321.77892 307.584 
L 328.752406 307.584 
L 328.752406 223.548632 
L 321.77892 223.548632 
z
" style="fill:#fa9ba4;opacity:0.2;"/>
   </g>
   <g id="patch_35">
    <path clip-path="url(#p67007c962a)" d="M 329.527238 307.584 
L 336.500725 307.584 
L 336.500725 279.572211 
L 329.527238 279.572211 
z
" style="fill:#fa9ba4;opacity:0.2;"/>
   </g>
   <g id="patch_36">
    <path clip-path="url(#p67007c962a)" d="M 337.275557 307.584 
L 344.249043 307.584 
L 344.249043 195.536842 
L 337.275557 195.536842 
z
" style="fill:#fa9ba4;opacity:0.2;"/>
   </g>
   <g id="patch_37">
    <path clip-path="url(#p67007c962a)" d="M 345.023875 307.584 
L 351.997362 307.584 
L 351.997362 307.584 
L 345.023875 307.584 
z
" style="fill:#fa9ba4;opacity:0.2;"/>
   </g>
   <g id="patch_38">
    <path clip-path="url(#p67007c962a)" d="M 352.772194 307.584 
L 359.74568 307.584 
L 359.74568 307.584 
L 352.772194 307.584 
z
" style="fill:#fa9ba4;opacity:0.2;"/>
   </g>
   <g id="patch_39">
    <path clip-path="url(#p67007c962a)" d="M 360.520512 307.584 
L 367.493999 307.584 
L 367.493999 251.560421 
L 360.520512 251.560421 
z
" style="fill:#fa9ba4;opacity:0.2;"/>
   </g>
   <g id="patch_40">
    <path clip-path="url(#p67007c962a)" d="M 368.268831 307.584 
L 375.242317 307.584 
L 375.242317 307.584 
L 368.268831 307.584 
z
" style="fill:#fa9ba4;opacity:0.2;"/>
   </g>
   <g id="patch_41">
    <path clip-path="url(#p67007c962a)" d="M 376.017149 307.584 
L 382.990636 307.584 
L 382.990636 293.578105 
L 376.017149 293.578105 
z
" style="fill:#fa9ba4;opacity:0.2;"/>
   </g>
   <g id="patch_42">
    <path clip-path="url(#p67007c962a)" d="M 383.765468 307.584 
L 390.738954 307.584 
L 390.738954 307.584 
L 383.765468 307.584 
z
" style="fill:#fa9ba4;opacity:0.2;"/>
   </g>
   <g id="patch_43">
    <path clip-path="url(#p67007c962a)" d="M 391.513786 307.584 
L 398.487273 307.584 
L 398.487273 307.584 
L 391.513786 307.584 
z
" style="fill:#fa9ba4;opacity:0.2;"/>
   </g>
   <g id="matplotlib.axis_1"/>
   <g id="matplotlib.axis_2"/>
   <g id="PolyCollection_1">
    <defs>
     <path d="M 294.272389 -150.063158 
L 294.272389 -38.016 
L 302.020707 -38.016 
L 309.769026 -38.016 
L 317.517344 -38.016 
L 325.265663 -38.016 
L 333.013981 -38.016 
L 340.7623 -38.016 
L 348.510618 -38.016 
L 356.258937 -38.016 
L 364.007255 -38.016 
L 371.755574 -38.016 
L 379.503892 -38.016 
L 387.252211 -38.016 
L 395.000529 -38.016 
L 395.000529 -48.020211 
L 395.000529 -48.020211 
L 387.252211 -64.026947 
L 379.503892 -68.028632 
L 371.755574 -78.032842 
L 364.007255 -78.032842 
L 356.258937 -80.033684 
L 348.510618 -86.036211 
L 340.7623 -102.042947 
L 333.013981 -124.052211 
L 325.265663 -124.052211 
L 317.517344 -148.062316 
L 309.769026 -162.068211 
L 302.020707 -156.065684 
L 294.272389 -150.063158 
z
" id="mb9f77e1257" style="stroke:#dc3545;stroke-opacity:0.5;"/>
    </defs>
    <g clip-path="url(#p67007c962a)">
     <use style="fill:#dc3545;fill-opacity:0.5;stroke:#dc3545;stroke-opacity:0.5;" x="0" xlink:href="#mb9f77e1257" y="345.6"/>
    </g>
   </g>
   <g id="PolyCollection_2">
    <defs>
     <path d="M 123.809382 -38.016 
L 123.809382 -38.016 
L 131.5577 -38.016 
L 139.306019 -38.016 
L 147.054337 -38.016 
L 154.802656 -38.016 
L 162.550974 -38.016 
L 170.299293 -38.016 
L 178.047611 -38.016 
L 185.79593 -38.016 
L 193.544248 -38.016 
L 201.292567 -38.016 
L 209.040885 -38.016 
L 216.789204 -38.016 
L 224.537522 -38.016 
L 232.285841 -38.016 
L 240.034159 -38.016 
L 247.782478 -38.016 
L 255.530796 -38.016 
L 263.279115 -38.016 
L 271.027433 -38.016 
L 278.775752 -38.016 
L 286.52407 -38.016 
L 294.272389 -38.016 
L 294.272389 -150.063158 
L 294.272389 -150.063158 
L 286.52407 -134.056421 
L 278.775752 -120.050526 
L 271.027433 -134.056421 
L 263.279115 -102.042947 
L 255.530796 -90.037895 
L 247.782478 -86.036211 
L 240.034159 -86.036211 
L 232.285841 -86.036211 
L 224.537522 -62.026105 
L 216.789204 -44.018526 
L 209.040885 -40.016842 
L 201.292567 -38.016 
L 193.544248 -38.016 
L 185.79593 -38.016 
L 178.047611 -38.016 
L 170.299293 -38.016 
L 162.550974 -38.016 
L 154.802656 -38.016 
L 147.054337 -38.016 
L 139.306019 -38.016 
L 131.5577 -38.016 
L 123.809382 -38.016 
z
" id="mf12f76216b" style="stroke:#fa9ba4;stroke-opacity:0.3;"/>
    </defs>
    <g clip-path="url(#p67007c962a)">
     <use style="fill:#fa9ba4;fill-opacity:0.3;stroke:#fa9ba4;stroke-opacity:0.3;" x="0" xlink:href="#mf12f76216b" y="345.6"/>
    </g>
   </g>
   <g id="line2d_1">
    <path clip-path="url(#p67007c962a)" d="M 123.809382 307.584 
L 131.5577 307.584 
L 139.306019 307.584 
L 147.054337 307.584 
L 154.802656 307.584 
L 162.550974 307.584 
L 170.299293 307.584 
L 178.047611 307.584 
L 185.79593 307.584 
L 193.544248 307.584 
L 201.292567 307.584 
L 209.040885 305.583158 
L 216.789204 301.581474 
L 224.537522 283.573895 
L 232.285841 259.563789 
L 240.034159 259.563789 
L 247.782478 259.563789 
L 255.530796 255.562105 
L 263.279115 243.557053 
L 271.027433 211.543579 
L 278.775752 225.549474 
L 286.52407 211.543579 
L 294.272389 195.536842 
L 302.020707 189.534316 
L 309.769026 183.531789 
L 317.517344 197.537684 
L 325.265663 221.547789 
L 333.013981 221.547789 
L 340.7623 243.557053 
L 348.510618 259.563789 
L 356.258937 265.566316 
L 364.007255 267.567158 
L 371.755574 267.567158 
L 379.503892 277.571368 
L 387.252211 281.573053 
L 395.000529 297.579789 
" style="fill:none;stroke:#fa9ba4;stroke-linecap:square;stroke-width:2;"/>
   </g>
   <g id="line2d_2">
    <path clip-path="url(#p67007c962a)" d="M 294.272389 195.536842 
L 302.020707 189.534316 
L 309.769026 183.531789 
L 317.517344 197.537684 
L 325.265663 221.547789 
L 333.013981 221.547789 
L 340.7623 243.557053 
L 348.510618 259.563789 
L 356.258937 265.566316 
L 364.007255 267.567158 
L 371.755574 267.567158 
L 379.503892 277.571368 
L 387.252211 281.573053 
L 395.000529 297.579789 
" style="fill:none;stroke:#dc3545;stroke-linecap:square;stroke-width:2;"/>
   </g>
  </g>
 </g>
 <defs>
  <clipPath id="p67007c962a">
   <rect height="266.112" width="357.12" x="57.6" y="41.472"/>
  </clipPath>
 </defs>
</svg>
