<?xml version="1.0" encoding="utf-8" standalone="no"?>
<!DOCTYPE svg PUBLIC "-//W3C//DTD SVG 1.1//EN"
  "http://www.w3.org/Graphics/SVG/1.1/DTD/svg11.dtd">
<svg height="345.6pt" version="1.1" viewBox="0 0 460.8 345.6" width="460.8pt" xmlns="http://www.w3.org/2000/svg" xmlns:xlink="http://www.w3.org/1999/xlink">
 <metadata>
  <rdf:RDF xmlns:cc="http://creativecommons.org/ns#" xmlns:dc="http://purl.org/dc/elements/1.1/" xmlns:rdf="http://www.w3.org/1999/02/22-rdf-syntax-ns#">
   <cc:Work>
    <dc:type rdf:resource="http://purl.org/dc/dcmitype/StillImage"/>
    <dc:date>2021-05-13T13:24:57.197556</dc:date>
    <dc:format>image/svg+xml</dc:format>
    <dc:creator>
     <cc:Agent>
      <dc:title>Matplotlib v3.4.2, https://matplotlib.org/</dc:title>
     </cc:Agent>
    </dc:creator>
   </cc:Work>
  </rdf:RDF>
 </metadata>
 <defs>
  <style type="text/css">*{stroke-linecap:butt;stroke-linejoin:round;}</style>
 </defs>
 <g id="figure_1">
  <g id="patch_1">
   <path d="M 0 345.6 
L 460.8 345.6 
L 460.8 0 
L 0 0 
z
" style="fill:none;"/>
  </g>
  <g id="axes_1">
   <g id="patch_2">
    <path clip-path="url(#pf05c446682)" d="M 73.832727 307.584 
L 75.795045 307.584 
L 75.795045 307.584 
L 73.832727 307.584 
z
" style="fill:#fa9ba4;opacity:0.2;"/>
   </g>
   <g id="patch_3">
    <path clip-path="url(#pf05c446682)" d="M 76.01308 307.584 
L 77.975398 307.584 
L 77.975398 307.584 
L 76.01308 307.584 
z
" style="fill:#fa9ba4;opacity:0.2;"/>
   </g>
   <g id="patch_4">
    <path clip-path="url(#pf05c446682)" d="M 78.193433 307.584 
L 80.155751 307.584 
L 80.155751 307.584 
L 78.193433 307.584 
z
" style="fill:#fa9ba4;opacity:0.2;"/>
   </g>
   <g id="patch_5">
    <path clip-path="url(#pf05c446682)" d="M 80.373786 307.584 
L 82.336104 307.584 
L 82.336104 307.292849 
L 80.373786 307.292849 
z
" style="fill:#fa9ba4;opacity:0.2;"/>
   </g>
   <g id="patch_6">
    <path clip-path="url(#pf05c446682)" d="M 82.554139 307.584 
L 84.516456 307.584 
L 84.516456 304.090188 
L 82.554139 304.090188 
z
" style="fill:#fa9ba4;opacity:0.2;"/>
   </g>
   <g id="patch_7">
    <path clip-path="url(#pf05c446682)" d="M 84.734492 307.584 
L 86.696809 307.584 
L 86.696809 152.400525 
L 84.734492 152.400525 
z
" style="fill:#fa9ba4;opacity:0.2;"/>
   </g>
   <g id="patch_8">
    <path clip-path="url(#pf05c446682)" d="M 86.914845 307.584 
L 88.877162 307.584 
L 88.877162 200.731589 
L 86.914845 200.731589 
z
" style="fill:#fa9ba4;opacity:0.2;"/>
   </g>
   <g id="patch_9">
    <path clip-path="url(#pf05c446682)" d="M 89.095198 307.584 
L 91.057515 307.584 
L 91.057515 191.997059 
L 89.095198 191.997059 
z
" style="fill:#fa9ba4;opacity:0.2;"/>
   </g>
   <g id="patch_10">
    <path clip-path="url(#pf05c446682)" d="M 91.27555 307.584 
L 93.237868 307.584 
L 93.237868 307.584 
L 91.27555 307.584 
z
" style="fill:#fa9ba4;opacity:0.2;"/>
   </g>
   <g id="patch_11">
    <path clip-path="url(#pf05c446682)" d="M 93.455903 307.584 
L 95.418221 307.584 
L 95.418221 303.216735 
L 93.455903 303.216735 
z
" style="fill:#fa9ba4;opacity:0.2;"/>
   </g>
   <g id="patch_12">
    <path clip-path="url(#pf05c446682)" d="M 95.636256 307.584 
L 97.598574 307.584 
L 97.598574 297.393716 
L 95.636256 297.393716 
z
" style="fill:#fa9ba4;opacity:0.2;"/>
   </g>
   <g id="patch_13">
    <path clip-path="url(#pf05c446682)" d="M 97.816609 307.584 
L 99.778927 307.584 
L 99.778927 298.84947 
L 97.816609 298.84947 
z
" style="fill:#fa9ba4;opacity:0.2;"/>
   </g>
   <g id="patch_14">
    <path clip-path="url(#pf05c446682)" d="M 99.996962 307.584 
L 101.95928 307.584 
L 101.95928 302.052131 
L 99.996962 302.052131 
z
" style="fill:#fa9ba4;opacity:0.2;"/>
   </g>
   <g id="patch_15">
    <path clip-path="url(#pf05c446682)" d="M 102.177315 307.584 
L 104.139632 307.584 
L 104.139632 303.216735 
L 102.177315 303.216735 
z
" style="fill:#fa9ba4;opacity:0.2;"/>
   </g>
   <g id="patch_16">
    <path clip-path="url(#pf05c446682)" d="M 104.357668 307.584 
L 106.319985 307.584 
L 106.319985 306.710547 
L 104.357668 306.710547 
z
" style="fill:#fa9ba4;opacity:0.2;"/>
   </g>
   <g id="patch_17">
    <path clip-path="url(#pf05c446682)" d="M 106.538021 307.584 
L 108.500338 307.584 
L 108.500338 302.925584 
L 106.538021 302.925584 
z
" style="fill:#fa9ba4;opacity:0.2;"/>
   </g>
   <g id="patch_18">
    <path clip-path="url(#pf05c446682)" d="M 108.718374 307.584 
L 110.680691 307.584 
L 110.680691 299.431772 
L 108.718374 299.431772 
z
" style="fill:#fa9ba4;opacity:0.2;"/>
   </g>
   <g id="patch_19">
    <path clip-path="url(#pf05c446682)" d="M 110.898726 307.584 
L 112.861044 307.584 
L 112.861044 277.013147 
L 110.898726 277.013147 
z
" style="fill:#fa9ba4;opacity:0.2;"/>
   </g>
   <g id="patch_20">
    <path clip-path="url(#pf05c446682)" d="M 113.079079 307.584 
L 115.041397 307.584 
L 115.041397 288.076884 
L 113.079079 288.076884 
z
" style="fill:#fa9ba4;opacity:0.2;"/>
   </g>
   <g id="patch_21">
    <path clip-path="url(#pf05c446682)" d="M 115.259432 307.584 
L 117.22175 307.584 
L 117.22175 291.570696 
L 115.259432 291.570696 
z
" style="fill:#fa9ba4;opacity:0.2;"/>
   </g>
   <g id="patch_22">
    <path clip-path="url(#pf05c446682)" d="M 117.439785 307.584 
L 119.402103 307.584 
L 119.402103 150.071317 
L 117.439785 150.071317 
z
" style="fill:#fa9ba4;opacity:0.2;"/>
   </g>
   <g id="patch_23">
    <path clip-path="url(#pf05c446682)" d="M 119.620138 307.584 
L 121.582456 307.584 
L 121.582456 170.743037 
L 119.620138 170.743037 
z
" style="fill:#fa9ba4;opacity:0.2;"/>
   </g>
   <g id="patch_24">
    <path clip-path="url(#pf05c446682)" d="M 121.800491 307.584 
L 123.762808 307.584 
L 123.762808 288.076884 
L 121.800491 288.076884 
z
" style="fill:#fa9ba4;opacity:0.2;"/>
   </g>
   <g id="patch_25">
    <path clip-path="url(#pf05c446682)" d="M 123.980844 307.584 
L 125.943161 307.584 
L 125.943161 265.075956 
L 123.980844 265.075956 
z
" style="fill:#fa9ba4;opacity:0.2;"/>
   </g>
   <g id="patch_26">
    <path clip-path="url(#pf05c446682)" d="M 126.161197 307.584 
L 128.123514 307.584 
L 128.123514 290.697243 
L 126.161197 290.697243 
z
" style="fill:#fa9ba4;opacity:0.2;"/>
   </g>
   <g id="patch_27">
    <path clip-path="url(#pf05c446682)" d="M 128.34155 307.584 
L 130.303867 307.584 
L 130.303867 294.191055 
L 128.34155 294.191055 
z
" style="fill:#fa9ba4;opacity:0.2;"/>
   </g>
   <g id="patch_28">
    <path clip-path="url(#pf05c446682)" d="M 130.521902 307.584 
L 132.48422 307.584 
L 132.48422 286.329978 
L 130.521902 286.329978 
z
" style="fill:#fa9ba4;opacity:0.2;"/>
   </g>
   <g id="patch_29">
    <path clip-path="url(#pf05c446682)" d="M 132.702255 307.584 
L 134.664573 307.584 
L 134.664573 284.291921 
L 132.702255 284.291921 
z
" style="fill:#fa9ba4;opacity:0.2;"/>
   </g>
   <g id="patch_30">
    <path clip-path="url(#pf05c446682)" d="M 134.882608 307.584 
L 136.844926 307.584 
L 136.844926 256.341427 
L 134.882608 256.341427 
z
" style="fill:#fa9ba4;opacity:0.2;"/>
   </g>
   <g id="patch_31">
    <path clip-path="url(#pf05c446682)" d="M 137.062961 307.584 
L 139.025279 307.584 
L 139.025279 297.393716 
L 137.062961 297.393716 
z
" style="fill:#fa9ba4;opacity:0.2;"/>
   </g>
   <g id="patch_32">
    <path clip-path="url(#pf05c446682)" d="M 139.243314 307.584 
L 141.205632 307.584 
L 141.205632 247.024595 
L 139.243314 247.024595 
z
" style="fill:#fa9ba4;opacity:0.2;"/>
   </g>
   <g id="patch_33">
    <path clip-path="url(#pf05c446682)" d="M 141.423667 307.584 
L 143.385984 307.584 
L 143.385984 278.760053 
L 141.423667 278.760053 
z
" style="fill:#fa9ba4;opacity:0.2;"/>
   </g>
   <g id="patch_34">
    <path clip-path="url(#pf05c446682)" d="M 143.60402 307.584 
L 145.566337 307.584 
L 145.566337 259.544088 
L 143.60402 259.544088 
z
" style="fill:#fa9ba4;opacity:0.2;"/>
   </g>
   <g id="patch_35">
    <path clip-path="url(#pf05c446682)" d="M 145.784373 307.584 
L 147.74669 307.584 
L 147.74669 214.415685 
L 145.784373 214.415685 
z
" style="fill:#fa9ba4;opacity:0.2;"/>
   </g>
   <g id="patch_36">
    <path clip-path="url(#pf05c446682)" d="M 147.964726 307.584 
L 149.927043 307.584 
L 149.927043 214.415685 
L 147.964726 214.415685 
z
" style="fill:#fa9ba4;opacity:0.2;"/>
   </g>
   <g id="patch_37">
    <path clip-path="url(#pf05c446682)" d="M 150.145078 307.584 
L 152.107396 307.584 
L 152.107396 267.405164 
L 150.145078 267.405164 
z
" style="fill:#fa9ba4;opacity:0.2;"/>
   </g>
   <g id="patch_38">
    <path clip-path="url(#pf05c446682)" d="M 152.325431 307.584 
L 154.287749 307.584 
L 154.287749 299.722923 
L 152.325431 299.722923 
z
" style="fill:#fa9ba4;opacity:0.2;"/>
   </g>
   <g id="patch_39">
    <path clip-path="url(#pf05c446682)" d="M 154.505784 307.584 
L 156.468102 307.584 
L 156.468102 298.84947 
L 154.505784 298.84947 
z
" style="fill:#fa9ba4;opacity:0.2;"/>
   </g>
   <g id="patch_40">
    <path clip-path="url(#pf05c446682)" d="M 156.686137 307.584 
L 158.648455 307.584 
L 158.648455 244.404236 
L 156.686137 244.404236 
z
" style="fill:#fa9ba4;opacity:0.2;"/>
   </g>
   <g id="patch_41">
    <path clip-path="url(#pf05c446682)" d="M 158.86649 307.584 
L 160.828808 307.584 
L 160.828808 260.126389 
L 158.86649 260.126389 
z
" style="fill:#fa9ba4;opacity:0.2;"/>
   </g>
   <g id="patch_42">
    <path clip-path="url(#pf05c446682)" d="M 161.046843 307.584 
L 163.009161 307.584 
L 163.009161 264.493654 
L 161.046843 264.493654 
z
" style="fill:#fa9ba4;opacity:0.2;"/>
   </g>
   <g id="patch_43">
    <path clip-path="url(#pf05c446682)" d="M 163.227196 307.584 
L 165.189513 307.584 
L 165.189513 264.493654 
L 163.227196 264.493654 
z
" style="fill:#fa9ba4;opacity:0.2;"/>
   </g>
   <g id="patch_44">
    <path clip-path="url(#pf05c446682)" d="M 165.407549 307.584 
L 167.369866 307.584 
L 167.369866 41.472 
L 165.407549 41.472 
z
" style="fill:#fa9ba4;opacity:0.2;"/>
   </g>
   <g id="patch_45">
    <path clip-path="url(#pf05c446682)" d="M 167.587902 307.584 
L 169.550219 307.584 
L 169.550219 76.99242 
L 167.587902 76.99242 
z
" style="fill:#fa9ba4;opacity:0.2;"/>
   </g>
   <g id="patch_46">
    <path clip-path="url(#pf05c446682)" d="M 169.768254 307.584 
L 171.730572 307.584 
L 171.730572 94.170328 
L 169.768254 94.170328 
z
" style="fill:#fa9ba4;opacity:0.2;"/>
   </g>
   <g id="patch_47">
    <path clip-path="url(#pf05c446682)" d="M 171.948607 307.584 
L 173.910925 307.584 
L 173.910925 85.144648 
L 171.948607 85.144648 
z
" style="fill:#fa9ba4;opacity:0.2;"/>
   </g>
   <g id="patch_48">
    <path clip-path="url(#pf05c446682)" d="M 174.12896 307.584 
L 176.091278 307.584 
L 176.091278 50.497681 
L 174.12896 50.497681 
z
" style="fill:#fa9ba4;opacity:0.2;"/>
   </g>
   <g id="patch_49">
    <path clip-path="url(#pf05c446682)" d="M 176.309313 307.584 
L 178.271631 307.584 
L 178.271631 74.372061 
L 176.309313 74.372061 
z
" style="fill:#fa9ba4;opacity:0.2;"/>
   </g>
   <g id="patch_50">
    <path clip-path="url(#pf05c446682)" d="M 178.489666 307.584 
L 180.451984 307.584 
L 180.451984 70.587098 
L 178.489666 70.587098 
z
" style="fill:#fa9ba4;opacity:0.2;"/>
   </g>
   <g id="patch_51">
    <path clip-path="url(#pf05c446682)" d="M 180.670019 307.584 
L 182.632337 307.584 
L 182.632337 78.448175 
L 180.670019 78.448175 
z
" style="fill:#fa9ba4;opacity:0.2;"/>
   </g>
   <g id="patch_52">
    <path clip-path="url(#pf05c446682)" d="M 182.850372 307.584 
L 184.812689 307.584 
L 184.812689 81.359685 
L 182.850372 81.359685 
z
" style="fill:#fa9ba4;opacity:0.2;"/>
   </g>
   <g id="patch_53">
    <path clip-path="url(#pf05c446682)" d="M 185.030725 307.584 
L 186.993042 307.584 
L 186.993042 78.739326 
L 185.030725 78.739326 
z
" style="fill:#fa9ba4;opacity:0.2;"/>
   </g>
   <g id="patch_54">
    <path clip-path="url(#pf05c446682)" d="M 187.211078 307.584 
L 189.173395 307.584 
L 189.173395 148.03326 
L 187.211078 148.03326 
z
" style="fill:#fa9ba4;opacity:0.2;"/>
   </g>
   <g id="patch_55">
    <path clip-path="url(#pf05c446682)" d="M 189.39143 307.584 
L 191.353748 307.584 
L 191.353748 176.566057 
L 189.39143 176.566057 
z
" style="fill:#fa9ba4;opacity:0.2;"/>
   </g>
   <g id="patch_56">
    <path clip-path="url(#pf05c446682)" d="M 191.571783 307.584 
L 193.534101 307.584 
L 193.534101 248.771501 
L 191.571783 248.771501 
z
" style="fill:#fa9ba4;opacity:0.2;"/>
   </g>
   <g id="patch_57">
    <path clip-path="url(#pf05c446682)" d="M 193.752136 307.584 
L 195.714454 307.584 
L 195.714454 260.126389 
L 193.752136 260.126389 
z
" style="fill:#fa9ba4;opacity:0.2;"/>
   </g>
   <g id="patch_58">
    <path clip-path="url(#pf05c446682)" d="M 195.932489 307.584 
L 197.894807 307.584 
L 197.894807 261.290993 
L 195.932489 261.290993 
z
" style="fill:#fa9ba4;opacity:0.2;"/>
   </g>
   <g id="patch_59">
    <path clip-path="url(#pf05c446682)" d="M 198.112842 307.584 
L 200.07516 307.584 
L 200.07516 269.15207 
L 198.112842 269.15207 
z
" style="fill:#fa9ba4;opacity:0.2;"/>
   </g>
   <g id="patch_60">
    <path clip-path="url(#pf05c446682)" d="M 200.293195 307.584 
L 202.255513 307.584 
L 202.255513 270.025523 
L 200.293195 270.025523 
z
" style="fill:#fa9ba4;opacity:0.2;"/>
   </g>
   <g id="patch_61">
    <path clip-path="url(#pf05c446682)" d="M 202.473548 307.584 
L 204.435865 307.584 
L 204.435865 279.924656 
L 202.473548 279.924656 
z
" style="fill:#fa9ba4;opacity:0.2;"/>
   </g>
   <g id="patch_62">
    <path clip-path="url(#pf05c446682)" d="M 204.653901 307.584 
L 206.616218 307.584 
L 206.616218 292.152998 
L 204.653901 292.152998 
z
" style="fill:#fa9ba4;opacity:0.2;"/>
   </g>
   <g id="patch_63">
    <path clip-path="url(#pf05c446682)" d="M 206.834254 307.584 
L 208.796571 307.584 
L 208.796571 294.773357 
L 206.834254 294.773357 
z
" style="fill:#fa9ba4;opacity:0.2;"/>
   </g>
   <g id="patch_64">
    <path clip-path="url(#pf05c446682)" d="M 209.014607 307.584 
L 210.976924 307.584 
L 210.976924 287.494582 
L 209.014607 287.494582 
z
" style="fill:#fa9ba4;opacity:0.2;"/>
   </g>
   <g id="patch_65">
    <path clip-path="url(#pf05c446682)" d="M 211.194959 307.584 
L 213.157277 307.584 
L 213.157277 302.925584 
L 211.194959 302.925584 
z
" style="fill:#fa9ba4;opacity:0.2;"/>
   </g>
   <g id="patch_66">
    <path clip-path="url(#pf05c446682)" d="M 213.375312 307.584 
L 215.33763 307.584 
L 215.33763 286.329978 
L 213.375312 286.329978 
z
" style="fill:#fa9ba4;opacity:0.2;"/>
   </g>
   <g id="patch_67">
    <path clip-path="url(#pf05c446682)" d="M 215.555665 307.584 
L 217.517983 307.584 
L 217.517983 281.962713 
L 215.555665 281.962713 
z
" style="fill:#fa9ba4;opacity:0.2;"/>
   </g>
   <g id="patch_68">
    <path clip-path="url(#pf05c446682)" d="M 217.736018 307.584 
L 219.698336 307.584 
L 219.698336 286.91228 
L 217.736018 286.91228 
z
" style="fill:#fa9ba4;opacity:0.2;"/>
   </g>
   <g id="patch_69">
    <path clip-path="url(#pf05c446682)" d="M 219.916371 307.584 
L 221.878689 307.584 
L 221.878689 297.393716 
L 219.916371 297.393716 
z
" style="fill:#fa9ba4;opacity:0.2;"/>
   </g>
   <g id="patch_70">
    <path clip-path="url(#pf05c446682)" d="M 222.096724 307.584 
L 224.059041 307.584 
L 224.059041 290.114941 
L 222.096724 290.114941 
z
" style="fill:#fa9ba4;opacity:0.2;"/>
   </g>
   <g id="patch_71">
    <path clip-path="url(#pf05c446682)" d="M 224.277077 307.584 
L 226.239394 307.584 
L 226.239394 297.976018 
L 224.277077 297.976018 
z
" style="fill:#fa9ba4;opacity:0.2;"/>
   </g>
   <g id="patch_72">
    <path clip-path="url(#pf05c446682)" d="M 226.45743 307.584 
L 228.419747 307.584 
L 228.419747 291.861847 
L 226.45743 291.861847 
z
" style="fill:#fa9ba4;opacity:0.2;"/>
   </g>
   <g id="patch_73">
    <path clip-path="url(#pf05c446682)" d="M 228.637783 307.584 
L 230.6001 307.584 
L 230.6001 291.279545 
L 228.637783 291.279545 
z
" style="fill:#fa9ba4;opacity:0.2;"/>
   </g>
   <g id="patch_74">
    <path clip-path="url(#pf05c446682)" d="M 230.818135 307.584 
L 232.780453 307.584 
L 232.780453 298.84947 
L 230.818135 298.84947 
z
" style="fill:#fa9ba4;opacity:0.2;"/>
   </g>
   <g id="patch_75">
    <path clip-path="url(#pf05c446682)" d="M 232.998488 307.584 
L 234.960806 307.584 
L 234.960806 302.052131 
L 232.998488 302.052131 
z
" style="fill:#fa9ba4;opacity:0.2;"/>
   </g>
   <g id="patch_76">
    <path clip-path="url(#pf05c446682)" d="M 235.178841 307.584 
L 237.141159 307.584 
L 237.141159 296.811414 
L 235.178841 296.811414 
z
" style="fill:#fa9ba4;opacity:0.2;"/>
   </g>
   <g id="patch_77">
    <path clip-path="url(#pf05c446682)" d="M 237.359194 307.584 
L 239.321512 307.584 
L 239.321512 293.317602 
L 237.359194 293.317602 
z
" style="fill:#fa9ba4;opacity:0.2;"/>
   </g>
   <g id="patch_78">
    <path clip-path="url(#pf05c446682)" d="M 239.539547 307.584 
L 241.501865 307.584 
L 241.501865 302.052131 
L 239.539547 302.052131 
z
" style="fill:#fa9ba4;opacity:0.2;"/>
   </g>
   <g id="patch_79">
    <path clip-path="url(#pf05c446682)" d="M 241.7199 307.584 
L 243.682217 307.584 
L 243.682217 300.596376 
L 241.7199 300.596376 
z
" style="fill:#fa9ba4;opacity:0.2;"/>
   </g>
   <g id="patch_80">
    <path clip-path="url(#pf05c446682)" d="M 243.900253 307.584 
L 245.86257 307.584 
L 245.86257 304.090188 
L 243.900253 304.090188 
z
" style="fill:#fa9ba4;opacity:0.2;"/>
   </g>
   <g id="patch_81">
    <path clip-path="url(#pf05c446682)" d="M 246.080606 307.584 
L 248.042923 307.584 
L 248.042923 297.102565 
L 246.080606 297.102565 
z
" style="fill:#fa9ba4;opacity:0.2;"/>
   </g>
   <g id="patch_82">
    <path clip-path="url(#pf05c446682)" d="M 248.260959 307.584 
L 250.223276 307.584 
L 250.223276 293.026451 
L 248.260959 293.026451 
z
" style="fill:#fa9ba4;opacity:0.2;"/>
   </g>
   <g id="patch_83">
    <path clip-path="url(#pf05c446682)" d="M 250.441311 307.584 
L 252.403629 307.584 
L 252.403629 295.64681 
L 250.441311 295.64681 
z
" style="fill:#fa9ba4;opacity:0.2;"/>
   </g>
   <g id="patch_84">
    <path clip-path="url(#pf05c446682)" d="M 252.621664 307.584 
L 254.583982 307.584 
L 254.583982 293.899904 
L 252.621664 293.899904 
z
" style="fill:#fa9ba4;opacity:0.2;"/>
   </g>
   <g id="patch_85">
    <path clip-path="url(#pf05c446682)" d="M 254.802017 307.584 
L 256.764335 307.584 
L 256.764335 295.937961 
L 254.802017 295.937961 
z
" style="fill:#fa9ba4;opacity:0.2;"/>
   </g>
   <g id="patch_86">
    <path clip-path="url(#pf05c446682)" d="M 256.98237 307.584 
L 258.944688 307.584 
L 258.944688 296.520263 
L 256.98237 296.520263 
z
" style="fill:#fa9ba4;opacity:0.2;"/>
   </g>
   <g id="patch_87">
    <path clip-path="url(#pf05c446682)" d="M 259.162723 307.584 
L 261.125041 307.584 
L 261.125041 302.052131 
L 259.162723 302.052131 
z
" style="fill:#fa9ba4;opacity:0.2;"/>
   </g>
   <g id="patch_88">
    <path clip-path="url(#pf05c446682)" d="M 261.343076 307.584 
L 263.305393 307.584 
L 263.305393 296.520263 
L 261.343076 296.520263 
z
" style="fill:#fa9ba4;opacity:0.2;"/>
   </g>
   <g id="patch_89">
    <path clip-path="url(#pf05c446682)" d="M 263.523429 307.584 
L 265.485746 307.584 
L 265.485746 297.393716 
L 263.523429 297.393716 
z
" style="fill:#fa9ba4;opacity:0.2;"/>
   </g>
   <g id="patch_90">
    <path clip-path="url(#pf05c446682)" d="M 265.703782 307.584 
L 267.666099 307.584 
L 267.666099 293.608753 
L 265.703782 293.608753 
z
" style="fill:#fa9ba4;opacity:0.2;"/>
   </g>
   <g id="patch_91">
    <path clip-path="url(#pf05c446682)" d="M 267.884135 307.584 
L 269.846452 307.584 
L 269.846452 295.064508 
L 267.884135 295.064508 
z
" style="fill:#fa9ba4;opacity:0.2;"/>
   </g>
   <g id="patch_92">
    <path clip-path="url(#pf05c446682)" d="M 270.064487 307.584 
L 272.026805 307.584 
L 272.026805 296.229112 
L 270.064487 296.229112 
z
" style="fill:#fa9ba4;opacity:0.2;"/>
   </g>
   <g id="patch_93">
    <path clip-path="url(#pf05c446682)" d="M 272.24484 307.584 
L 274.207158 307.584 
L 274.207158 297.684867 
L 272.24484 297.684867 
z
" style="fill:#fa9ba4;opacity:0.2;"/>
   </g>
   <g id="patch_94">
    <path clip-path="url(#pf05c446682)" d="M 274.425193 307.584 
L 276.387511 307.584 
L 276.387511 297.976018 
L 274.425193 297.976018 
z
" style="fill:#fa9ba4;opacity:0.2;"/>
   </g>
   <g id="patch_95">
    <path clip-path="url(#pf05c446682)" d="M 276.605546 307.584 
L 278.567864 307.584 
L 278.567864 295.937961 
L 276.605546 295.937961 
z
" style="fill:#fa9ba4;opacity:0.2;"/>
   </g>
   <g id="patch_96">
    <path clip-path="url(#pf05c446682)" d="M 278.785899 307.584 
L 280.748217 307.584 
L 280.748217 293.899904 
L 278.785899 293.899904 
z
" style="fill:#fa9ba4;opacity:0.2;"/>
   </g>
   <g id="patch_97">
    <path clip-path="url(#pf05c446682)" d="M 280.966252 307.584 
L 282.92857 307.584 
L 282.92857 296.520263 
L 280.966252 296.520263 
z
" style="fill:#fa9ba4;opacity:0.2;"/>
   </g>
   <g id="patch_98">
    <path clip-path="url(#pf05c446682)" d="M 283.146605 307.584 
L 285.108922 307.584 
L 285.108922 295.64681 
L 283.146605 295.64681 
z
" style="fill:#fa9ba4;opacity:0.2;"/>
   </g>
   <g id="patch_99">
    <path clip-path="url(#pf05c446682)" d="M 285.326958 307.584 
L 287.289275 307.584 
L 287.289275 297.976018 
L 285.326958 297.976018 
z
" style="fill:#fa9ba4;opacity:0.2;"/>
   </g>
   <g id="patch_100">
    <path clip-path="url(#pf05c446682)" d="M 287.507311 307.584 
L 289.469628 307.584 
L 289.469628 302.634433 
L 287.507311 302.634433 
z
" style="fill:#fa9ba4;opacity:0.2;"/>
   </g>
   <g id="patch_101">
    <path clip-path="url(#pf05c446682)" d="M 289.687663 307.584 
L 291.649981 307.584 
L 291.649981 304.963641 
L 289.687663 304.963641 
z
" style="fill:#fa9ba4;opacity:0.2;"/>
   </g>
   <g id="patch_102">
    <path clip-path="url(#pf05c446682)" d="M 291.868016 307.584 
L 293.830334 307.584 
L 293.830334 303.216735 
L 291.868016 303.216735 
z
" style="fill:#fa9ba4;opacity:0.2;"/>
   </g>
   <g id="patch_103">
    <path clip-path="url(#pf05c446682)" d="M 294.048369 307.584 
L 296.010687 307.584 
L 296.010687 302.634433 
L 294.048369 302.634433 
z
" style="fill:#fa9ba4;opacity:0.2;"/>
   </g>
   <g id="patch_104">
    <path clip-path="url(#pf05c446682)" d="M 296.228722 307.584 
L 298.19104 307.584 
L 298.19104 303.216735 
L 296.228722 303.216735 
z
" style="fill:#fa9ba4;opacity:0.2;"/>
   </g>
   <g id="patch_105">
    <path clip-path="url(#pf05c446682)" d="M 298.409075 307.584 
L 300.371393 307.584 
L 300.371393 302.925584 
L 298.409075 302.925584 
z
" style="fill:#fa9ba4;opacity:0.2;"/>
   </g>
   <g id="patch_106">
    <path clip-path="url(#pf05c446682)" d="M 300.589428 307.584 
L 302.551746 307.584 
L 302.551746 304.67249 
L 300.589428 304.67249 
z
" style="fill:#fa9ba4;opacity:0.2;"/>
   </g>
   <g id="patch_107">
    <path clip-path="url(#pf05c446682)" d="M 302.769781 307.584 
L 304.732098 307.584 
L 304.732098 305.254792 
L 302.769781 305.254792 
z
" style="fill:#fa9ba4;opacity:0.2;"/>
   </g>
   <g id="patch_108">
    <path clip-path="url(#pf05c446682)" d="M 304.950134 307.584 
L 306.912451 307.584 
L 306.912451 304.381339 
L 304.950134 304.381339 
z
" style="fill:#fa9ba4;opacity:0.2;"/>
   </g>
   <g id="patch_109">
    <path clip-path="url(#pf05c446682)" d="M 307.130487 307.584 
L 309.092804 307.584 
L 309.092804 304.381339 
L 307.130487 304.381339 
z
" style="fill:#fa9ba4;opacity:0.2;"/>
   </g>
   <g id="patch_110">
    <path clip-path="url(#pf05c446682)" d="M 309.310839 307.584 
L 311.273157 307.584 
L 311.273157 303.507886 
L 309.310839 303.507886 
z
" style="fill:#fa9ba4;opacity:0.2;"/>
   </g>
   <g id="patch_111">
    <path clip-path="url(#pf05c446682)" d="M 311.491192 307.584 
L 313.45351 307.584 
L 313.45351 304.090188 
L 311.491192 304.090188 
z
" style="fill:#fa9ba4;opacity:0.2;"/>
   </g>
   <g id="patch_112">
    <path clip-path="url(#pf05c446682)" d="M 313.671545 307.584 
L 315.633863 307.584 
L 315.633863 303.799037 
L 313.671545 303.799037 
z
" style="fill:#fa9ba4;opacity:0.2;"/>
   </g>
   <g id="patch_113">
    <path clip-path="url(#pf05c446682)" d="M 315.851898 307.584 
L 317.814216 307.584 
L 317.814216 306.419396 
L 315.851898 306.419396 
z
" style="fill:#fa9ba4;opacity:0.2;"/>
   </g>
   <g id="patch_114">
    <path clip-path="url(#pf05c446682)" d="M 318.032251 307.584 
L 319.994569 307.584 
L 319.994569 305.545943 
L 318.032251 305.545943 
z
" style="fill:#fa9ba4;opacity:0.2;"/>
   </g>
   <g id="patch_115">
    <path clip-path="url(#pf05c446682)" d="M 320.212604 307.584 
L 322.174922 307.584 
L 322.174922 304.090188 
L 320.212604 304.090188 
z
" style="fill:#fa9ba4;opacity:0.2;"/>
   </g>
   <g id="patch_116">
    <path clip-path="url(#pf05c446682)" d="M 322.392957 307.584 
L 324.355274 307.584 
L 324.355274 304.963641 
L 322.392957 304.963641 
z
" style="fill:#fa9ba4;opacity:0.2;"/>
   </g>
   <g id="patch_117">
    <path clip-path="url(#pf05c446682)" d="M 324.57331 307.584 
L 326.535627 307.584 
L 326.535627 304.963641 
L 324.57331 304.963641 
z
" style="fill:#fa9ba4;opacity:0.2;"/>
   </g>
   <g id="patch_118">
    <path clip-path="url(#pf05c446682)" d="M 326.753663 307.584 
L 328.71598 307.584 
L 328.71598 305.254792 
L 326.753663 305.254792 
z
" style="fill:#fa9ba4;opacity:0.2;"/>
   </g>
   <g id="patch_119">
    <path clip-path="url(#pf05c446682)" d="M 328.934016 307.584 
L 330.896333 307.584 
L 330.896333 305.254792 
L 328.934016 305.254792 
z
" style="fill:#fa9ba4;opacity:0.2;"/>
   </g>
   <g id="patch_120">
    <path clip-path="url(#pf05c446682)" d="M 331.114368 307.584 
L 333.076686 307.584 
L 333.076686 300.305225 
L 331.114368 300.305225 
z
" style="fill:#fa9ba4;opacity:0.2;"/>
   </g>
   <g id="patch_121">
    <path clip-path="url(#pf05c446682)" d="M 333.294721 307.584 
L 335.257039 307.584 
L 335.257039 297.684867 
L 333.294721 297.684867 
z
" style="fill:#fa9ba4;opacity:0.2;"/>
   </g>
   <g id="patch_122">
    <path clip-path="url(#pf05c446682)" d="M 335.475074 307.584 
L 337.437392 307.584 
L 337.437392 300.887527 
L 335.475074 300.887527 
z
" style="fill:#fa9ba4;opacity:0.2;"/>
   </g>
   <g id="patch_123">
    <path clip-path="url(#pf05c446682)" d="M 337.655427 307.584 
L 339.617745 307.584 
L 339.617745 294.191055 
L 337.655427 294.191055 
z
" style="fill:#fa9ba4;opacity:0.2;"/>
   </g>
   <g id="patch_124">
    <path clip-path="url(#pf05c446682)" d="M 339.83578 307.584 
L 341.798098 307.584 
L 341.798098 293.608753 
L 339.83578 293.608753 
z
" style="fill:#fa9ba4;opacity:0.2;"/>
   </g>
   <g id="patch_125">
    <path clip-path="url(#pf05c446682)" d="M 342.016133 307.584 
L 343.97845 307.584 
L 343.97845 296.811414 
L 342.016133 296.811414 
z
" style="fill:#fa9ba4;opacity:0.2;"/>
   </g>
   <g id="patch_126">
    <path clip-path="url(#pf05c446682)" d="M 344.196486 307.584 
L 346.158803 307.584 
L 346.158803 302.343282 
L 344.196486 302.343282 
z
" style="fill:#fa9ba4;opacity:0.2;"/>
   </g>
   <g id="patch_127">
    <path clip-path="url(#pf05c446682)" d="M 346.376839 307.584 
L 348.339156 307.584 
L 348.339156 298.267168 
L 346.376839 298.267168 
z
" style="fill:#fa9ba4;opacity:0.2;"/>
   </g>
   <g id="patch_128">
    <path clip-path="url(#pf05c446682)" d="M 348.557192 307.584 
L 350.519509 307.584 
L 350.519509 295.064508 
L 348.557192 295.064508 
z
" style="fill:#fa9ba4;opacity:0.2;"/>
   </g>
   <g id="patch_129">
    <path clip-path="url(#pf05c446682)" d="M 350.737544 307.584 
L 352.699862 307.584 
L 352.699862 291.861847 
L 350.737544 291.861847 
z
" style="fill:#fa9ba4;opacity:0.2;"/>
   </g>
   <g id="patch_130">
    <path clip-path="url(#pf05c446682)" d="M 352.917897 307.584 
L 354.880215 307.584 
L 354.880215 298.84947 
L 352.917897 298.84947 
z
" style="fill:#fa9ba4;opacity:0.2;"/>
   </g>
   <g id="patch_131">
    <path clip-path="url(#pf05c446682)" d="M 355.09825 307.584 
L 357.060568 307.584 
L 357.060568 293.608753 
L 355.09825 293.608753 
z
" style="fill:#fa9ba4;opacity:0.2;"/>
   </g>
   <g id="patch_132">
    <path clip-path="url(#pf05c446682)" d="M 357.278603 307.584 
L 359.240921 307.584 
L 359.240921 290.988394 
L 357.278603 290.988394 
z
" style="fill:#fa9ba4;opacity:0.2;"/>
   </g>
   <g id="patch_133">
    <path clip-path="url(#pf05c446682)" d="M 359.458956 307.584 
L 361.421274 307.584 
L 361.421274 292.444149 
L 359.458956 292.444149 
z
" style="fill:#fa9ba4;opacity:0.2;"/>
   </g>
   <g id="patch_134">
    <path clip-path="url(#pf05c446682)" d="M 361.639309 307.584 
L 363.601626 307.584 
L 363.601626 291.279545 
L 361.639309 291.279545 
z
" style="fill:#fa9ba4;opacity:0.2;"/>
   </g>
   <g id="patch_135">
    <path clip-path="url(#pf05c446682)" d="M 363.819662 307.584 
L 365.781979 307.584 
L 365.781979 289.82379 
L 363.819662 289.82379 
z
" style="fill:#fa9ba4;opacity:0.2;"/>
   </g>
   <g id="patch_136">
    <path clip-path="url(#pf05c446682)" d="M 366.000015 307.584 
L 367.962332 307.584 
L 367.962332 290.406092 
L 366.000015 290.406092 
z
" style="fill:#fa9ba4;opacity:0.2;"/>
   </g>
   <g id="patch_137">
    <path clip-path="url(#pf05c446682)" d="M 368.180368 307.584 
L 370.142685 307.584 
L 370.142685 296.229112 
L 368.180368 296.229112 
z
" style="fill:#fa9ba4;opacity:0.2;"/>
   </g>
   <g id="patch_138">
    <path clip-path="url(#pf05c446682)" d="M 370.36072 307.584 
L 372.323038 307.584 
L 372.323038 293.608753 
L 370.36072 293.608753 
z
" style="fill:#fa9ba4;opacity:0.2;"/>
   </g>
   <g id="patch_139">
    <path clip-path="url(#pf05c446682)" d="M 372.541073 307.584 
L 374.503391 307.584 
L 374.503391 294.191055 
L 372.541073 294.191055 
z
" style="fill:#fa9ba4;opacity:0.2;"/>
   </g>
   <g id="patch_140">
    <path clip-path="url(#pf05c446682)" d="M 374.721426 307.584 
L 376.683744 307.584 
L 376.683744 292.444149 
L 374.721426 292.444149 
z
" style="fill:#fa9ba4;opacity:0.2;"/>
   </g>
   <g id="patch_141">
    <path clip-path="url(#pf05c446682)" d="M 376.901779 307.584 
L 378.864097 307.584 
L 378.864097 294.482206 
L 376.901779 294.482206 
z
" style="fill:#fa9ba4;opacity:0.2;"/>
   </g>
   <g id="patch_142">
    <path clip-path="url(#pf05c446682)" d="M 379.082132 307.584 
L 381.04445 307.584 
L 381.04445 291.570696 
L 379.082132 291.570696 
z
" style="fill:#fa9ba4;opacity:0.2;"/>
   </g>
   <g id="patch_143">
    <path clip-path="url(#pf05c446682)" d="M 381.262485 307.584 
L 383.224802 307.584 
L 383.224802 292.7353 
L 381.262485 292.7353 
z
" style="fill:#fa9ba4;opacity:0.2;"/>
   </g>
   <g id="patch_144">
    <path clip-path="url(#pf05c446682)" d="M 383.442838 307.584 
L 385.405155 307.584 
L 385.405155 288.659186 
L 383.442838 288.659186 
z
" style="fill:#fa9ba4;opacity:0.2;"/>
   </g>
   <g id="patch_145">
    <path clip-path="url(#pf05c446682)" d="M 385.623191 307.584 
L 387.585508 307.584 
L 387.585508 287.494582 
L 385.623191 287.494582 
z
" style="fill:#fa9ba4;opacity:0.2;"/>
   </g>
   <g id="patch_146">
    <path clip-path="url(#pf05c446682)" d="M 387.803544 307.584 
L 389.765861 307.584 
L 389.765861 285.165374 
L 387.803544 285.165374 
z
" style="fill:#fa9ba4;opacity:0.2;"/>
   </g>
   <g id="patch_147">
    <path clip-path="url(#pf05c446682)" d="M 389.983896 307.584 
L 391.946214 307.584 
L 391.946214 279.924656 
L 389.983896 279.924656 
z
" style="fill:#fa9ba4;opacity:0.2;"/>
   </g>
   <g id="patch_148">
    <path clip-path="url(#pf05c446682)" d="M 392.164249 307.584 
L 394.126567 307.584 
L 394.126567 282.836166 
L 392.164249 282.836166 
z
" style="fill:#fa9ba4;opacity:0.2;"/>
   </g>
   <g id="patch_149">
    <path clip-path="url(#pf05c446682)" d="M 394.344602 307.584 
L 396.30692 307.584 
L 396.30692 297.393716 
L 394.344602 297.393716 
z
" style="fill:#fa9ba4;opacity:0.2;"/>
   </g>
   <g id="patch_150">
    <path clip-path="url(#pf05c446682)" d="M 396.524955 307.584 
L 398.487273 307.584 
L 398.487273 297.102565 
L 396.524955 297.102565 
z
" style="fill:#fa9ba4;opacity:0.2;"/>
   </g>
   <g id="matplotlib.axis_1"/>
   <g id="matplotlib.axis_2"/>
   <g id="PolyCollection_1">
    <defs>
     <path d="M 369.161526 -53.488595 
L 369.161526 -38.016 
L 371.341879 -38.016 
L 373.522232 -38.016 
L 375.702585 -38.016 
L 377.882938 -38.016 
L 380.063291 -38.016 
L 382.243644 -38.016 
L 384.423997 -38.016 
L 386.604349 -38.016 
L 388.784702 -38.016 
L 390.965055 -38.016 
L 393.145408 -38.016 
L 395.325761 -38.016 
L 397.506114 -38.016 
L 397.506114 -57.231965 
L 397.506114 -57.231965 
L 395.325761 -57.85586 
L 393.145408 -58.68772 
L 390.965055 -57.024 
L 388.784702 -55.235501 
L 386.604349 -53.946118 
L 384.423997 -53.072665 
L 382.243644 -51.991247 
L 380.063291 -52.323991 
L 377.882938 -52.573549 
L 375.702585 -53.031072 
L 373.522232 -53.031072 
L 371.341879 -53.488595 
L 369.161526 -53.488595 
z
" id="m2baa8a130b" style="stroke:#dc3545;stroke-opacity:0.5;"/>
    </defs>
    <g clip-path="url(#pf05c446682)">
     <use style="fill:#dc3545;fill-opacity:0.5;stroke:#dc3545;stroke-opacity:0.5;" x="0" xlink:href="#m2baa8a130b" y="345.6"/>
    </g>
   </g>
   <g id="PolyCollection_2">
    <defs>
     <path d="M 87.896003 -75.990407 
L 87.896003 -38.016 
L 90.076356 -38.016 
L 92.256709 -38.016 
L 94.437062 -38.016 
L 96.617415 -38.016 
L 98.797768 -38.016 
L 100.978121 -38.016 
L 103.158474 -38.016 
L 105.338827 -38.016 
L 107.519179 -38.016 
L 109.699532 -38.016 
L 111.879885 -38.016 
L 114.060238 -38.016 
L 116.240591 -38.016 
L 118.420944 -38.016 
L 120.601297 -38.016 
L 122.78165 -38.016 
L 124.962003 -38.016 
L 127.142355 -38.016 
L 129.322708 -38.016 
L 131.503061 -38.016 
L 133.683414 -38.016 
L 135.863767 -38.016 
L 138.04412 -38.016 
L 140.224473 -38.016 
L 142.404826 -38.016 
L 144.585179 -38.016 
L 146.765531 -38.016 
L 148.945884 -38.016 
L 151.126237 -38.016 
L 153.30659 -38.016 
L 155.486943 -38.016 
L 157.667296 -38.016 
L 159.847649 -38.016 
L 162.028002 -38.016 
L 164.208355 -38.016 
L 166.388707 -38.016 
L 168.56906 -38.016 
L 170.749413 -38.016 
L 172.929766 -38.016 
L 175.110119 -38.016 
L 177.290472 -38.016 
L 179.470825 -38.016 
L 181.651178 -38.016 
L 183.831531 -38.016 
L 186.011884 -38.016 
L 188.192236 -38.016 
L 190.372589 -38.016 
L 192.552942 -38.016 
L 194.733295 -38.016 
L 196.913648 -38.016 
L 199.094001 -38.016 
L 201.274354 -38.016 
L 203.454707 -38.016 
L 205.63506 -38.016 
L 207.815412 -38.016 
L 209.995765 -38.016 
L 212.176118 -38.016 
L 214.356471 -38.016 
L 216.536824 -38.016 
L 218.717177 -38.016 
L 220.89753 -38.016 
L 223.077883 -38.016 
L 225.258236 -38.016 
L 227.438588 -38.016 
L 229.618941 -38.016 
L 231.799294 -38.016 
L 233.979647 -38.016 
L 236.16 -38.016 
L 238.340353 -38.016 
L 240.520706 -38.016 
L 242.701059 -38.016 
L 244.881412 -38.016 
L 247.061764 -38.016 
L 249.242117 -38.016 
L 251.42247 -38.016 
L 253.602823 -38.016 
L 255.783176 -38.016 
L 257.963529 -38.016 
L 260.143882 -38.016 
L 262.324235 -38.016 
L 264.504588 -38.016 
L 266.68494 -38.016 
L 268.865293 -38.016 
L 271.045646 -38.016 
L 273.225999 -38.016 
L 275.406352 -38.016 
L 277.586705 -38.016 
L 279.767058 -38.016 
L 281.947411 -38.016 
L 284.127764 -38.016 
L 286.308116 -38.016 
L 288.488469 -38.016 
L 290.668822 -38.016 
L 292.849175 -38.016 
L 295.029528 -38.016 
L 297.209881 -38.016 
L 299.390234 -38.016 
L 301.570587 -38.016 
L 303.75094 -38.016 
L 305.931293 -38.016 
L 308.111645 -38.016 
L 310.291998 -38.016 
L 312.472351 -38.016 
L 314.652704 -38.016 
L 316.833057 -38.016 
L 319.01341 -38.016 
L 321.193763 -38.016 
L 323.374116 -38.016 
L 325.554469 -38.016 
L 327.734821 -38.016 
L 329.915174 -38.016 
L 332.095527 -38.016 
L 334.27588 -38.016 
L 336.456233 -38.016 
L 338.636586 -38.016 
L 340.816939 -38.016 
L 342.997292 -38.016 
L 345.177645 -38.016 
L 347.357997 -38.016 
L 349.53835 -38.016 
L 351.718703 -38.016 
L 353.899056 -38.016 
L 356.079409 -38.016 
L 358.259762 -38.016 
L 360.440115 -38.016 
L 362.620468 -38.016 
L 364.800821 -38.016 
L 366.981173 -38.016 
L 369.161526 -38.016 
L 369.161526 -53.488595 
L 369.161526 -53.488595 
L 366.981173 -53.114258 
L 364.800821 -52.906293 
L 362.620468 -52.157619 
L 360.440115 -51.159387 
L 358.259762 -49.745225 
L 356.079409 -48.913365 
L 353.899056 -48.913365 
L 351.718703 -49.578853 
L 349.53835 -48.28947 
L 347.357997 -47.915133 
L 345.177645 -47.623982 
L 342.997292 -47.208053 
L 340.816939 -46.001856 
L 338.636586 -44.379729 
L 336.456233 -42.840788 
L 334.27588 -42.383265 
L 332.095527 -41.260254 
L 329.915174 -40.386801 
L 327.734821 -40.594766 
L 325.554469 -40.761138 
L 323.374116 -40.969103 
L 321.193763 -41.052289 
L 319.01341 -41.010696 
L 316.833057 -41.052289 
L 314.652704 -41.301847 
L 312.472351 -41.426626 
L 310.291998 -41.551405 
L 308.111645 -41.676184 
L 305.931293 -41.842556 
L 303.75094 -41.75937 
L 301.570587 -42.133707 
L 299.390234 -43.090346 
L 297.209881 -44.130171 
L 295.029528 -45.08681 
L 292.849175 -46.3346 
L 290.668822 -47.374425 
L 288.488469 -48.372656 
L 286.308116 -49.079737 
L 284.127764 -49.329295 
L 281.947411 -49.412481 
L 279.767058 -49.828411 
L 277.586705 -49.329295 
L 275.406352 -49.246109 
L 273.225999 -48.663807 
L 271.045646 -48.830179 
L 268.865293 -48.871772 
L 266.68494 -49.038144 
L 264.504588 -48.746993 
L 262.324235 -49.370888 
L 260.143882 -49.287702 
L 257.963529 -48.996551 
L 255.783176 -48.414249 
L 253.602823 -47.540796 
L 251.42247 -47.623982 
L 249.242117 -47.457611 
L 247.061764 -46.168228 
L 244.881412 -45.91867 
L 242.701059 -47.748761 
L 240.520706 -48.996551 
L 238.340353 -49.578853 
L 236.16 -50.036376 
L 233.979647 -49.95319 
L 231.799294 -52.116026 
L 229.618941 -54.52842 
L 227.438588 -55.235501 
L 225.258236 -53.654967 
L 223.077883 -55.152315 
L 220.89753 -54.486827 
L 218.717177 -55.235501 
L 216.536824 -56.233733 
L 214.356471 -57.939046 
L 212.176118 -60.393033 
L 209.995765 -66.340832 
L 207.815412 -70.250573 
L 205.63506 -76.822267 
L 203.454707 -93.334687 
L 201.274354 -112.176315 
L 199.094001 -139.502915 
L 196.913648 -166.330398 
L 194.733295 -192.450801 
L 192.552942 -219.527842 
L 190.372589 -244.442048 
L 188.192236 -262.451816 
L 186.011884 -271.435904 
L 183.831531 -269.231475 
L 181.651178 -269.85537 
L 179.470825 -275.137681 
L 177.290472 -247.436744 
L 175.110119 -220.276516 
L 172.929766 -190.329558 
L 170.749413 -167.578188 
L 168.56906 -138.338311 
L 166.388707 -106.519667 
L 164.208355 -74.243501 
L 162.028002 -81.397497 
L 159.847649 -88.551492 
L 157.667296 -88.634678 
L 155.486943 -83.726705 
L 153.30659 -91.130258 
L 151.126237 -91.463002 
L 148.945884 -93.043536 
L 146.765531 -83.061217 
L 144.585179 -72.787746 
L 142.404826 -67.838179 
L 140.224473 -66.132867 
L 138.04412 -63.554101 
L 135.863767 -64.885077 
L 133.683414 -77.113418 
L 131.503061 -96.28779 
L 129.322708 -95.539116 
L 127.142355 -96.412569 
L 124.962003 -98.36744 
L 122.78165 -93.459466 
L 120.601297 -91.338223 
L 118.420944 -71.914293 
L 116.240591 -50.036376 
L 114.060238 -48.539028 
L 111.879885 -47.000088 
L 109.699532 -44.088578 
L 107.519179 -43.547869 
L 105.338827 -42.882381 
L 103.158474 -59.270022 
L 100.978121 -73.910757 
L 98.797768 -95.289558 
L 96.617415 -94.540884 
L 94.437062 -93.126722 
L 92.256709 -92.502827 
L 90.076356 -92.502827 
L 87.896003 -75.990407 
z
" id="m07bf058dd7" style="stroke:#fa9ba4;stroke-opacity:0.3;"/>
    </defs>
    <g clip-path="url(#pf05c446682)">
     <use style="fill:#fa9ba4;fill-opacity:0.3;stroke:#fa9ba4;stroke-opacity:0.3;" x="0" xlink:href="#m07bf058dd7" y="345.6"/>
    </g>
   </g>
   <g id="line2d_1">
    <path clip-path="url(#pf05c446682)" d="M 87.896003 269.609593 
L 90.076356 253.097173 
L 92.256709 253.097173 
L 94.437062 252.473278 
L 96.617415 251.059116 
L 98.797768 250.310442 
L 100.978121 271.689243 
L 103.158474 286.329978 
L 105.338827 302.717619 
L 107.519179 302.052131 
L 109.699532 301.511422 
L 111.879885 298.599912 
L 116.240591 295.563624 
L 118.420944 273.685707 
L 120.601297 254.261777 
L 122.78165 252.140534 
L 124.962003 247.23256 
L 127.142355 249.187431 
L 129.322708 250.060884 
L 131.503061 249.31221 
L 133.683414 268.486582 
L 135.863767 280.714923 
L 138.04412 282.045899 
L 140.224473 279.467133 
L 142.404826 277.761821 
L 144.585179 272.812254 
L 148.945884 252.556464 
L 151.126237 254.136998 
L 153.30659 254.469742 
L 155.486943 261.873295 
L 157.667296 256.965322 
L 159.847649 257.048508 
L 164.208355 271.356499 
L 168.56906 207.261689 
L 170.749413 178.021812 
L 172.929766 155.270442 
L 175.110119 125.323484 
L 179.470825 70.462319 
L 181.651178 75.74463 
L 183.831531 76.368525 
L 186.011884 74.164096 
L 188.192236 83.148184 
L 190.372589 101.157952 
L 192.552942 126.072158 
L 201.274354 233.423685 
L 203.454707 252.265313 
L 205.63506 268.777733 
L 207.815412 275.349427 
L 209.995765 279.259168 
L 212.176118 285.206967 
L 214.356471 287.660954 
L 216.536824 289.366267 
L 218.717177 290.364499 
L 220.89753 291.113173 
L 223.077883 290.447685 
L 225.258236 291.945033 
L 227.438588 290.364499 
L 229.618941 291.07158 
L 231.799294 293.483974 
L 233.979647 295.64681 
L 236.16 295.563624 
L 238.340353 296.021147 
L 240.520706 296.603449 
L 242.701059 297.851239 
L 244.881412 299.68133 
L 247.061764 299.431772 
L 249.242117 298.142389 
L 251.42247 297.976018 
L 253.602823 298.059204 
L 255.783176 297.185751 
L 257.963529 296.603449 
L 260.143882 296.312298 
L 262.324235 296.229112 
L 264.504588 296.853007 
L 266.68494 296.561856 
L 268.865293 296.728228 
L 271.045646 296.769821 
L 273.225999 296.936193 
L 275.406352 296.353891 
L 277.586705 296.270705 
L 279.767058 295.771589 
L 281.947411 296.187519 
L 284.127764 296.270705 
L 286.308116 296.520263 
L 288.488469 297.227344 
L 292.849175 299.2654 
L 295.029528 300.51319 
L 301.570587 303.466293 
L 303.75094 303.84063 
L 305.931293 303.757444 
L 312.472351 304.173374 
L 314.652704 304.298153 
L 316.833057 304.547711 
L 323.374116 304.630897 
L 329.915174 305.213199 
L 332.095527 304.339746 
L 334.27588 303.216735 
L 336.456233 302.759212 
L 340.816939 299.598144 
L 342.997292 298.391947 
L 345.177645 297.976018 
L 349.53835 297.31053 
L 351.718703 296.021147 
L 353.899056 296.686635 
L 356.079409 296.686635 
L 358.259762 295.854775 
L 360.440115 294.440613 
L 362.620468 293.442381 
L 364.800821 292.693707 
L 366.981173 292.485742 
L 369.161526 292.111405 
L 371.341879 292.111405 
L 373.522232 292.568928 
L 375.702585 292.568928 
L 377.882938 293.026451 
L 382.243644 293.608753 
L 384.423997 292.527335 
L 386.604349 291.653882 
L 388.784702 290.364499 
L 393.145408 286.91228 
L 395.325761 287.74414 
L 397.506114 288.368035 
L 397.506114 288.368035 
" style="fill:none;stroke:#fa9ba4;stroke-linecap:square;stroke-width:2;"/>
   </g>
   <g id="line2d_2">
    <path clip-path="url(#pf05c446682)" d="M 369.161526 292.111405 
L 371.341879 292.111405 
L 373.522232 292.568928 
L 375.702585 292.568928 
L 377.882938 293.026451 
L 380.063291 293.276009 
L 382.243644 293.608753 
L 384.423997 292.527335 
L 386.604349 291.653882 
L 388.784702 290.364499 
L 390.965055 288.576 
L 393.145408 286.91228 
L 395.325761 287.74414 
L 397.506114 288.368035 
" style="fill:none;stroke:#dc3545;stroke-linecap:square;stroke-width:2;"/>
   </g>
  </g>
 </g>
 <defs>
  <clipPath id="pf05c446682">
   <rect height="266.112" width="357.12" x="57.6" y="41.472"/>
  </clipPath>
 </defs>
</svg>
