<?xml version="1.0" encoding="utf-8" standalone="no"?>
<!DOCTYPE svg PUBLIC "-//W3C//DTD SVG 1.1//EN"
  "http://www.w3.org/Graphics/SVG/1.1/DTD/svg11.dtd">
<!-- Created with matplotlib (https://matplotlib.org/) -->
<svg height="345.6pt" version="1.1" viewBox="0 0 460.8 345.6" width="460.8pt" xmlns="http://www.w3.org/2000/svg" xmlns:xlink="http://www.w3.org/1999/xlink">
 <defs>
  <style type="text/css">
*{stroke-linecap:butt;stroke-linejoin:round;}
  </style>
 </defs>
 <g id="figure_1">
  <g id="patch_1">
   <path d="M 0 345.6 
L 460.8 345.6 
L 460.8 0 
L 0 0 
z
" style="fill:none;"/>
  </g>
  <g id="axes_1">
   <g id="patch_2">
    <path clip-path="url(#p80e3061885)" d="M 73.832727 307.584 
L 82.451874 307.584 
L 82.451874 307.584 
L 73.832727 307.584 
z
" style="fill:#fa9ba4;opacity:0.2;"/>
   </g>
   <g id="patch_3">
    <path clip-path="url(#p80e3061885)" d="M 83.409558 307.584 
L 92.028705 307.584 
L 92.028705 307.584 
L 83.409558 307.584 
z
" style="fill:#fa9ba4;opacity:0.2;"/>
   </g>
   <g id="patch_4">
    <path clip-path="url(#p80e3061885)" d="M 92.986388 307.584 
L 101.605535 307.584 
L 101.605535 307.584 
L 92.986388 307.584 
z
" style="fill:#fa9ba4;opacity:0.2;"/>
   </g>
   <g id="patch_5">
    <path clip-path="url(#p80e3061885)" d="M 102.563218 307.584 
L 111.182365 307.584 
L 111.182365 307.092111 
L 102.563218 307.092111 
z
" style="fill:#fa9ba4;opacity:0.2;"/>
   </g>
   <g id="patch_6">
    <path clip-path="url(#p80e3061885)" d="M 112.140048 307.584 
L 120.759195 307.584 
L 120.759195 301.681331 
L 112.140048 301.681331 
z
" style="fill:#fa9ba4;opacity:0.2;"/>
   </g>
   <g id="patch_7">
    <path clip-path="url(#p80e3061885)" d="M 121.716879 307.584 
L 130.336026 307.584 
L 130.336026 45.407113 
L 121.716879 45.407113 
z
" style="fill:#fa9ba4;opacity:0.2;"/>
   </g>
   <g id="patch_8">
    <path clip-path="url(#p80e3061885)" d="M 131.293709 307.584 
L 139.912856 307.584 
L 139.912856 127.060702 
L 131.293709 127.060702 
z
" style="fill:#fa9ba4;opacity:0.2;"/>
   </g>
   <g id="patch_9">
    <path clip-path="url(#p80e3061885)" d="M 140.870539 307.584 
L 149.489686 307.584 
L 149.489686 112.30403 
L 140.870539 112.30403 
z
" style="fill:#fa9ba4;opacity:0.2;"/>
   </g>
   <g id="patch_10">
    <path clip-path="url(#p80e3061885)" d="M 150.447369 307.584 
L 159.066516 307.584 
L 159.066516 307.584 
L 150.447369 307.584 
z
" style="fill:#fa9ba4;opacity:0.2;"/>
   </g>
   <g id="patch_11">
    <path clip-path="url(#p80e3061885)" d="M 160.0242 307.584 
L 168.643347 307.584 
L 168.643347 300.205664 
L 160.0242 300.205664 
z
" style="fill:#fa9ba4;opacity:0.2;"/>
   </g>
   <g id="patch_12">
    <path clip-path="url(#p80e3061885)" d="M 169.60103 307.584 
L 178.220177 307.584 
L 178.220177 290.367882 
L 169.60103 290.367882 
z
" style="fill:#fa9ba4;opacity:0.2;"/>
   </g>
   <g id="patch_13">
    <path clip-path="url(#p80e3061885)" d="M 179.17786 307.584 
L 187.797007 307.584 
L 187.797007 301.681331 
L 179.17786 301.681331 
z
" style="fill:#fa9ba4;opacity:0.2;"/>
   </g>
   <g id="patch_14">
    <path clip-path="url(#p80e3061885)" d="M 188.75469 307.584 
L 197.373837 307.584 
L 197.373837 289.384104 
L 188.75469 289.384104 
z
" style="fill:#fa9ba4;opacity:0.2;"/>
   </g>
   <g id="patch_15">
    <path clip-path="url(#p80e3061885)" d="M 198.331521 307.584 
L 206.950668 307.584 
L 206.950668 300.205664 
L 198.331521 300.205664 
z
" style="fill:#fa9ba4;opacity:0.2;"/>
   </g>
   <g id="patch_16">
    <path clip-path="url(#p80e3061885)" d="M 207.908351 307.584 
L 216.527498 307.584 
L 216.527498 306.108333 
L 207.908351 306.108333 
z
" style="fill:#fa9ba4;opacity:0.2;"/>
   </g>
   <g id="patch_17">
    <path clip-path="url(#p80e3061885)" d="M 217.485181 307.584 
L 226.104328 307.584 
L 226.104328 299.713774 
L 217.485181 299.713774 
z
" style="fill:#fa9ba4;opacity:0.2;"/>
   </g>
   <g id="patch_18">
    <path clip-path="url(#p80e3061885)" d="M 227.062011 307.584 
L 235.681158 307.584 
L 235.681158 293.811105 
L 227.062011 293.811105 
z
" style="fill:#fa9ba4;opacity:0.2;"/>
   </g>
   <g id="patch_19">
    <path clip-path="url(#p80e3061885)" d="M 236.638842 307.584 
L 245.257989 307.584 
L 245.257989 255.443756 
L 236.638842 255.443756 
z
" style="fill:#fa9ba4;opacity:0.2;"/>
   </g>
   <g id="patch_20">
    <path clip-path="url(#p80e3061885)" d="M 246.215672 307.584 
L 254.834819 307.584 
L 254.834819 274.627431 
L 246.215672 274.627431 
z
" style="fill:#fa9ba4;opacity:0.2;"/>
   </g>
   <g id="patch_21">
    <path clip-path="url(#p80e3061885)" d="M 255.792502 307.584 
L 264.411649 307.584 
L 264.411649 280.5301 
L 255.792502 280.5301 
z
" style="fill:#fa9ba4;opacity:0.2;"/>
   </g>
   <g id="patch_22">
    <path clip-path="url(#p80e3061885)" d="M 265.369332 307.584 
L 273.988479 307.584 
L 273.988479 41.472 
L 265.369332 41.472 
z
" style="fill:#fa9ba4;opacity:0.2;"/>
   </g>
   <g id="patch_23">
    <path clip-path="url(#p80e3061885)" d="M 274.946163 307.584 
L 283.56531 307.584 
L 283.56531 76.396126 
L 274.946163 76.396126 
z
" style="fill:#fa9ba4;opacity:0.2;"/>
   </g>
   <g id="patch_24">
    <path clip-path="url(#p80e3061885)" d="M 284.522993 307.584 
L 293.14214 307.584 
L 293.14214 274.627431 
L 284.522993 274.627431 
z
" style="fill:#fa9ba4;opacity:0.2;"/>
   </g>
   <g id="patch_25">
    <path clip-path="url(#p80e3061885)" d="M 294.099823 307.584 
L 302.71897 307.584 
L 302.71897 235.768192 
L 294.099823 235.768192 
z
" style="fill:#fa9ba4;opacity:0.2;"/>
   </g>
   <g id="patch_26">
    <path clip-path="url(#p80e3061885)" d="M 303.676653 307.584 
L 312.2958 307.584 
L 312.2958 279.054433 
L 303.676653 279.054433 
z
" style="fill:#fa9ba4;opacity:0.2;"/>
   </g>
   <g id="patch_27">
    <path clip-path="url(#p80e3061885)" d="M 313.253484 307.584 
L 321.872631 307.584 
L 321.872631 284.957102 
L 313.253484 284.957102 
z
" style="fill:#fa9ba4;opacity:0.2;"/>
   </g>
   <g id="patch_28">
    <path clip-path="url(#p80e3061885)" d="M 322.830314 307.584 
L 331.449461 307.584 
L 331.449461 271.676096 
L 322.830314 271.676096 
z
" style="fill:#fa9ba4;opacity:0.2;"/>
   </g>
   <g id="patch_29">
    <path clip-path="url(#p80e3061885)" d="M 332.407144 307.584 
L 341.026291 307.584 
L 341.026291 268.232872 
L 332.407144 268.232872 
z
" style="fill:#fa9ba4;opacity:0.2;"/>
   </g>
   <g id="patch_30">
    <path clip-path="url(#p80e3061885)" d="M 341.983974 307.584 
L 350.603121 307.584 
L 350.603121 221.011519 
L 341.983974 221.011519 
z
" style="fill:#fa9ba4;opacity:0.2;"/>
   </g>
   <g id="patch_31">
    <path clip-path="url(#p80e3061885)" d="M 351.560805 307.584 
L 360.179952 307.584 
L 360.179952 290.367882 
L 351.560805 290.367882 
z
" style="fill:#fa9ba4;opacity:0.2;"/>
   </g>
   <g id="patch_32">
    <path clip-path="url(#p80e3061885)" d="M 361.137635 307.584 
L 369.756782 307.584 
L 369.756782 205.271068 
L 361.137635 205.271068 
z
" style="fill:#fa9ba4;opacity:0.2;"/>
   </g>
   <g id="patch_33">
    <path clip-path="url(#p80e3061885)" d="M 370.714465 307.584 
L 379.333612 307.584 
L 379.333612 258.88698 
L 370.714465 258.88698 
z
" style="fill:#fa9ba4;opacity:0.2;"/>
   </g>
   <g id="patch_34">
    <path clip-path="url(#p80e3061885)" d="M 380.291295 307.584 
L 388.910442 307.584 
L 388.910442 226.422299 
L 380.291295 226.422299 
z
" style="fill:#fa9ba4;opacity:0.2;"/>
   </g>
   <g id="patch_35">
    <path clip-path="url(#p80e3061885)" d="M 389.868126 307.584 
L 398.487273 307.584 
L 398.487273 142.801153 
L 389.868126 142.801153 
z
" style="fill:#fa9ba4;opacity:0.2;"/>
   </g>
   <g id="matplotlib.axis_1"/>
   <g id="matplotlib.axis_2"/>
   <g id="PolyCollection_1">
    <defs>
     <path d="M 269.678906 -95.356214 
L 269.678906 -38.016 
L 279.255736 -38.016 
L 288.832566 -38.016 
L 298.409397 -38.016 
L 307.986227 -38.016 
L 317.563057 -38.016 
L 327.139887 -38.016 
L 336.716718 -38.016 
L 346.293548 -38.016 
L 355.870378 -38.016 
L 365.447208 -38.016 
L 375.024039 -38.016 
L 384.600869 -38.016 
L 394.177699 -38.016 
L 394.177699 -115.172318 
L 394.177699 -115.172318 
L 384.600869 -96.761612 
L 375.024039 -88.399497 
L 365.447208 -85.518433 
L 355.870378 -81.161701 
L 346.293548 -83.410336 
L 336.716718 -104.069678 
L 327.139887 -136.464089 
L 317.563057 -135.199231 
L 307.986227 -136.674898 
L 298.409397 -140.047852 
L 288.832566 -131.756007 
L 279.255736 -128.172244 
L 269.678906 -95.356214 
z
" id="m7ff5897f9f" style="stroke:#dc3545;stroke-opacity:0.5;"/>
    </defs>
    <g clip-path="url(#p80e3061885)">
     <use style="fill:#dc3545;fill-opacity:0.5;stroke:#dc3545;stroke-opacity:0.5;" x="0" xlink:href="#m7ff5897f9f" y="345.6"/>
    </g>
   </g>
   <g id="PolyCollection_2">
    <defs>
     <path d="M 135.603282 -102.172392 
L 135.603282 -38.016 
L 145.180113 -38.016 
L 154.756943 -38.016 
L 164.333773 -38.016 
L 173.910603 -38.016 
L 183.487434 -38.016 
L 193.064264 -38.016 
L 202.641094 -38.016 
L 212.217924 -38.016 
L 221.794755 -38.016 
L 231.371585 -38.016 
L 240.948415 -38.016 
L 250.525245 -38.016 
L 260.102076 -38.016 
L 269.678906 -38.016 
L 269.678906 -95.356214 
L 269.678906 -95.356214 
L 260.102076 -58.394262 
L 250.525245 -57.129405 
L 240.948415 -53.264562 
L 231.371585 -48.275401 
L 221.794755 -47.361893 
L 212.217924 -46.237575 
L 202.641094 -73.923904 
L 193.064264 -98.658898 
L 183.487434 -133.512754 
L 173.910603 -133.512754 
L 164.333773 -131.123579 
L 154.756943 -130.06953 
L 145.180113 -130.06953 
L 135.603282 -102.172392 
z
" id="m37a901f84a" style="stroke:#fa9ba4;stroke-opacity:0.3;"/>
    </defs>
    <g clip-path="url(#p80e3061885)">
     <use style="fill:#fa9ba4;fill-opacity:0.3;stroke:#fa9ba4;stroke-opacity:0.3;" x="0" xlink:href="#m37a901f84a" y="345.6"/>
    </g>
   </g>
   <g id="line2d_1">
    <path clip-path="url(#p80e3061885)" d="M 135.603282 243.427608 
L 145.180113 215.53047 
L 154.756943 215.53047 
L 164.333773 214.476421 
L 173.910603 212.087246 
L 183.487434 212.087246 
L 193.064264 246.941102 
L 202.641094 271.676096 
L 212.217924 299.362425 
L 221.794755 298.238107 
L 231.371585 297.324599 
L 240.948415 292.335438 
L 250.525245 288.470595 
L 260.102076 287.205738 
L 269.678906 250.243786 
L 279.255736 217.427756 
L 288.832566 213.843993 
L 298.409397 205.552148 
L 307.986227 208.925102 
L 317.563057 210.400769 
L 327.139887 209.135911 
L 336.716718 241.530322 
L 346.293548 262.189664 
L 355.870378 264.438299 
L 365.447208 260.081567 
L 375.024039 257.200503 
L 384.600869 248.838388 
L 394.177699 230.427682 
" style="fill:none;stroke:#fa9ba4;stroke-linecap:square;stroke-width:2;"/>
   </g>
   <g id="line2d_2">
    <path clip-path="url(#p80e3061885)" d="M 269.678906 250.243786 
L 279.255736 217.427756 
L 288.832566 213.843993 
L 298.409397 205.552148 
L 307.986227 208.925102 
L 317.563057 210.400769 
L 327.139887 209.135911 
L 336.716718 241.530322 
L 346.293548 262.189664 
L 355.870378 264.438299 
L 365.447208 260.081567 
L 375.024039 257.200503 
L 384.600869 248.838388 
L 394.177699 230.427682 
" style="fill:none;stroke:#dc3545;stroke-linecap:square;stroke-width:2;"/>
   </g>
  </g>
 </g>
 <defs>
  <clipPath id="p80e3061885">
   <rect height="266.112" width="357.12" x="57.6" y="41.472"/>
  </clipPath>
 </defs>
</svg>
