<?xml version="1.0" encoding="utf-8" standalone="no"?>
<!DOCTYPE svg PUBLIC "-//W3C//DTD SVG 1.1//EN"
  "http://www.w3.org/Graphics/SVG/1.1/DTD/svg11.dtd">
<svg height="345.6pt" version="1.1" viewBox="0 0 460.8 345.6" width="460.8pt" xmlns="http://www.w3.org/2000/svg" xmlns:xlink="http://www.w3.org/1999/xlink">
 <metadata>
  <rdf:RDF xmlns:cc="http://creativecommons.org/ns#" xmlns:dc="http://purl.org/dc/elements/1.1/" xmlns:rdf="http://www.w3.org/1999/02/22-rdf-syntax-ns#">
   <cc:Work>
    <dc:type rdf:resource="http://purl.org/dc/dcmitype/StillImage"/>
    <dc:date>2021-04-30T09:05:59.078073</dc:date>
    <dc:format>image/svg+xml</dc:format>
    <dc:creator>
     <cc:Agent>
      <dc:title>Matplotlib v3.4.1, https://matplotlib.org/</dc:title>
     </cc:Agent>
    </dc:creator>
   </cc:Work>
  </rdf:RDF>
 </metadata>
 <defs>
  <style type="text/css">*{stroke-linecap:butt;stroke-linejoin:round;}</style>
 </defs>
 <g id="figure_1">
  <g id="patch_1">
   <path d="M 0 345.6 
L 460.8 345.6 
L 460.8 0 
L 0 0 
z
" style="fill:none;"/>
  </g>
  <g id="axes_1">
   <g id="patch_2">
    <path clip-path="url(#p11ff84c471)" d="M 73.832727 307.584 
L 75.982757 307.584 
L 75.982757 307.584 
L 73.832727 307.584 
z
" style="fill:#fa9ba4;opacity:0.2;"/>
   </g>
   <g id="patch_3">
    <path clip-path="url(#p11ff84c471)" d="M 76.22165 307.584 
L 78.37168 307.584 
L 78.37168 307.584 
L 76.22165 307.584 
z
" style="fill:#fa9ba4;opacity:0.2;"/>
   </g>
   <g id="patch_4">
    <path clip-path="url(#p11ff84c471)" d="M 78.610572 307.584 
L 80.760602 307.584 
L 80.760602 307.584 
L 78.610572 307.584 
z
" style="fill:#fa9ba4;opacity:0.2;"/>
   </g>
   <g id="patch_5">
    <path clip-path="url(#p11ff84c471)" d="M 80.999494 307.584 
L 83.149524 307.584 
L 83.149524 307.292849 
L 80.999494 307.292849 
z
" style="fill:#fa9ba4;opacity:0.2;"/>
   </g>
   <g id="patch_6">
    <path clip-path="url(#p11ff84c471)" d="M 83.388417 307.584 
L 85.538447 307.584 
L 85.538447 304.090188 
L 83.388417 304.090188 
z
" style="fill:#fa9ba4;opacity:0.2;"/>
   </g>
   <g id="patch_7">
    <path clip-path="url(#p11ff84c471)" d="M 85.777339 307.584 
L 87.927369 307.584 
L 87.927369 152.400525 
L 85.777339 152.400525 
z
" style="fill:#fa9ba4;opacity:0.2;"/>
   </g>
   <g id="patch_8">
    <path clip-path="url(#p11ff84c471)" d="M 88.166261 307.584 
L 90.316291 307.584 
L 90.316291 200.731589 
L 88.166261 200.731589 
z
" style="fill:#fa9ba4;opacity:0.2;"/>
   </g>
   <g id="patch_9">
    <path clip-path="url(#p11ff84c471)" d="M 90.555184 307.584 
L 92.705214 307.584 
L 92.705214 191.997059 
L 90.555184 191.997059 
z
" style="fill:#fa9ba4;opacity:0.2;"/>
   </g>
   <g id="patch_10">
    <path clip-path="url(#p11ff84c471)" d="M 92.944106 307.584 
L 95.094136 307.584 
L 95.094136 307.584 
L 92.944106 307.584 
z
" style="fill:#fa9ba4;opacity:0.2;"/>
   </g>
   <g id="patch_11">
    <path clip-path="url(#p11ff84c471)" d="M 95.333028 307.584 
L 97.483058 307.584 
L 97.483058 303.216735 
L 95.333028 303.216735 
z
" style="fill:#fa9ba4;opacity:0.2;"/>
   </g>
   <g id="patch_12">
    <path clip-path="url(#p11ff84c471)" d="M 97.721951 307.584 
L 99.871981 307.584 
L 99.871981 297.393716 
L 97.721951 297.393716 
z
" style="fill:#fa9ba4;opacity:0.2;"/>
   </g>
   <g id="patch_13">
    <path clip-path="url(#p11ff84c471)" d="M 100.110873 307.584 
L 102.260903 307.584 
L 102.260903 298.84947 
L 100.110873 298.84947 
z
" style="fill:#fa9ba4;opacity:0.2;"/>
   </g>
   <g id="patch_14">
    <path clip-path="url(#p11ff84c471)" d="M 102.499795 307.584 
L 104.649825 307.584 
L 104.649825 302.052131 
L 102.499795 302.052131 
z
" style="fill:#fa9ba4;opacity:0.2;"/>
   </g>
   <g id="patch_15">
    <path clip-path="url(#p11ff84c471)" d="M 104.888718 307.584 
L 107.038748 307.584 
L 107.038748 303.216735 
L 104.888718 303.216735 
z
" style="fill:#fa9ba4;opacity:0.2;"/>
   </g>
   <g id="patch_16">
    <path clip-path="url(#p11ff84c471)" d="M 107.27764 307.584 
L 109.42767 307.584 
L 109.42767 306.710547 
L 107.27764 306.710547 
z
" style="fill:#fa9ba4;opacity:0.2;"/>
   </g>
   <g id="patch_17">
    <path clip-path="url(#p11ff84c471)" d="M 109.666562 307.584 
L 111.816592 307.584 
L 111.816592 302.925584 
L 109.666562 302.925584 
z
" style="fill:#fa9ba4;opacity:0.2;"/>
   </g>
   <g id="patch_18">
    <path clip-path="url(#p11ff84c471)" d="M 112.055485 307.584 
L 114.205515 307.584 
L 114.205515 299.431772 
L 112.055485 299.431772 
z
" style="fill:#fa9ba4;opacity:0.2;"/>
   </g>
   <g id="patch_19">
    <path clip-path="url(#p11ff84c471)" d="M 114.444407 307.584 
L 116.594437 307.584 
L 116.594437 277.013147 
L 114.444407 277.013147 
z
" style="fill:#fa9ba4;opacity:0.2;"/>
   </g>
   <g id="patch_20">
    <path clip-path="url(#p11ff84c471)" d="M 116.833329 307.584 
L 118.983359 307.584 
L 118.983359 288.076884 
L 116.833329 288.076884 
z
" style="fill:#fa9ba4;opacity:0.2;"/>
   </g>
   <g id="patch_21">
    <path clip-path="url(#p11ff84c471)" d="M 119.222252 307.584 
L 121.372282 307.584 
L 121.372282 291.570696 
L 119.222252 291.570696 
z
" style="fill:#fa9ba4;opacity:0.2;"/>
   </g>
   <g id="patch_22">
    <path clip-path="url(#p11ff84c471)" d="M 121.611174 307.584 
L 123.761204 307.584 
L 123.761204 150.071317 
L 121.611174 150.071317 
z
" style="fill:#fa9ba4;opacity:0.2;"/>
   </g>
   <g id="patch_23">
    <path clip-path="url(#p11ff84c471)" d="M 124.000096 307.584 
L 126.150126 307.584 
L 126.150126 170.743037 
L 124.000096 170.743037 
z
" style="fill:#fa9ba4;opacity:0.2;"/>
   </g>
   <g id="patch_24">
    <path clip-path="url(#p11ff84c471)" d="M 126.389019 307.584 
L 128.539049 307.584 
L 128.539049 288.076884 
L 126.389019 288.076884 
z
" style="fill:#fa9ba4;opacity:0.2;"/>
   </g>
   <g id="patch_25">
    <path clip-path="url(#p11ff84c471)" d="M 128.777941 307.584 
L 130.927971 307.584 
L 130.927971 265.075956 
L 128.777941 265.075956 
z
" style="fill:#fa9ba4;opacity:0.2;"/>
   </g>
   <g id="patch_26">
    <path clip-path="url(#p11ff84c471)" d="M 131.166863 307.584 
L 133.316893 307.584 
L 133.316893 290.697243 
L 131.166863 290.697243 
z
" style="fill:#fa9ba4;opacity:0.2;"/>
   </g>
   <g id="patch_27">
    <path clip-path="url(#p11ff84c471)" d="M 133.555786 307.584 
L 135.705816 307.584 
L 135.705816 294.191055 
L 133.555786 294.191055 
z
" style="fill:#fa9ba4;opacity:0.2;"/>
   </g>
   <g id="patch_28">
    <path clip-path="url(#p11ff84c471)" d="M 135.944708 307.584 
L 138.094738 307.584 
L 138.094738 286.329978 
L 135.944708 286.329978 
z
" style="fill:#fa9ba4;opacity:0.2;"/>
   </g>
   <g id="patch_29">
    <path clip-path="url(#p11ff84c471)" d="M 138.33363 307.584 
L 140.48366 307.584 
L 140.48366 284.291921 
L 138.33363 284.291921 
z
" style="fill:#fa9ba4;opacity:0.2;"/>
   </g>
   <g id="patch_30">
    <path clip-path="url(#p11ff84c471)" d="M 140.722553 307.584 
L 142.872583 307.584 
L 142.872583 256.341427 
L 140.722553 256.341427 
z
" style="fill:#fa9ba4;opacity:0.2;"/>
   </g>
   <g id="patch_31">
    <path clip-path="url(#p11ff84c471)" d="M 143.111475 307.584 
L 145.261505 307.584 
L 145.261505 297.393716 
L 143.111475 297.393716 
z
" style="fill:#fa9ba4;opacity:0.2;"/>
   </g>
   <g id="patch_32">
    <path clip-path="url(#p11ff84c471)" d="M 145.500397 307.584 
L 147.650427 307.584 
L 147.650427 247.024595 
L 145.500397 247.024595 
z
" style="fill:#fa9ba4;opacity:0.2;"/>
   </g>
   <g id="patch_33">
    <path clip-path="url(#p11ff84c471)" d="M 147.88932 307.584 
L 150.03935 307.584 
L 150.03935 278.760053 
L 147.88932 278.760053 
z
" style="fill:#fa9ba4;opacity:0.2;"/>
   </g>
   <g id="patch_34">
    <path clip-path="url(#p11ff84c471)" d="M 150.278242 307.584 
L 152.428272 307.584 
L 152.428272 259.544088 
L 150.278242 259.544088 
z
" style="fill:#fa9ba4;opacity:0.2;"/>
   </g>
   <g id="patch_35">
    <path clip-path="url(#p11ff84c471)" d="M 152.667164 307.584 
L 154.817194 307.584 
L 154.817194 214.415685 
L 152.667164 214.415685 
z
" style="fill:#fa9ba4;opacity:0.2;"/>
   </g>
   <g id="patch_36">
    <path clip-path="url(#p11ff84c471)" d="M 155.056087 307.584 
L 157.206117 307.584 
L 157.206117 214.415685 
L 155.056087 214.415685 
z
" style="fill:#fa9ba4;opacity:0.2;"/>
   </g>
   <g id="patch_37">
    <path clip-path="url(#p11ff84c471)" d="M 157.445009 307.584 
L 159.595039 307.584 
L 159.595039 267.405164 
L 157.445009 267.405164 
z
" style="fill:#fa9ba4;opacity:0.2;"/>
   </g>
   <g id="patch_38">
    <path clip-path="url(#p11ff84c471)" d="M 159.833931 307.584 
L 161.983961 307.584 
L 161.983961 299.722923 
L 159.833931 299.722923 
z
" style="fill:#fa9ba4;opacity:0.2;"/>
   </g>
   <g id="patch_39">
    <path clip-path="url(#p11ff84c471)" d="M 162.222854 307.584 
L 164.372884 307.584 
L 164.372884 298.84947 
L 162.222854 298.84947 
z
" style="fill:#fa9ba4;opacity:0.2;"/>
   </g>
   <g id="patch_40">
    <path clip-path="url(#p11ff84c471)" d="M 164.611776 307.584 
L 166.761806 307.584 
L 166.761806 244.404236 
L 164.611776 244.404236 
z
" style="fill:#fa9ba4;opacity:0.2;"/>
   </g>
   <g id="patch_41">
    <path clip-path="url(#p11ff84c471)" d="M 167.000698 307.584 
L 169.150728 307.584 
L 169.150728 260.126389 
L 167.000698 260.126389 
z
" style="fill:#fa9ba4;opacity:0.2;"/>
   </g>
   <g id="patch_42">
    <path clip-path="url(#p11ff84c471)" d="M 169.389621 307.584 
L 171.539651 307.584 
L 171.539651 264.493654 
L 169.389621 264.493654 
z
" style="fill:#fa9ba4;opacity:0.2;"/>
   </g>
   <g id="patch_43">
    <path clip-path="url(#p11ff84c471)" d="M 171.778543 307.584 
L 173.928573 307.584 
L 173.928573 264.493654 
L 171.778543 264.493654 
z
" style="fill:#fa9ba4;opacity:0.2;"/>
   </g>
   <g id="patch_44">
    <path clip-path="url(#p11ff84c471)" d="M 174.167465 307.584 
L 176.317495 307.584 
L 176.317495 41.472 
L 174.167465 41.472 
z
" style="fill:#fa9ba4;opacity:0.2;"/>
   </g>
   <g id="patch_45">
    <path clip-path="url(#p11ff84c471)" d="M 176.556388 307.584 
L 178.706418 307.584 
L 178.706418 76.99242 
L 176.556388 76.99242 
z
" style="fill:#fa9ba4;opacity:0.2;"/>
   </g>
   <g id="patch_46">
    <path clip-path="url(#p11ff84c471)" d="M 178.94531 307.584 
L 181.09534 307.584 
L 181.09534 94.170328 
L 178.94531 94.170328 
z
" style="fill:#fa9ba4;opacity:0.2;"/>
   </g>
   <g id="patch_47">
    <path clip-path="url(#p11ff84c471)" d="M 181.334232 307.584 
L 183.484262 307.584 
L 183.484262 85.144648 
L 181.334232 85.144648 
z
" style="fill:#fa9ba4;opacity:0.2;"/>
   </g>
   <g id="patch_48">
    <path clip-path="url(#p11ff84c471)" d="M 183.723155 307.584 
L 185.873185 307.584 
L 185.873185 50.497681 
L 183.723155 50.497681 
z
" style="fill:#fa9ba4;opacity:0.2;"/>
   </g>
   <g id="patch_49">
    <path clip-path="url(#p11ff84c471)" d="M 186.112077 307.584 
L 188.262107 307.584 
L 188.262107 74.372061 
L 186.112077 74.372061 
z
" style="fill:#fa9ba4;opacity:0.2;"/>
   </g>
   <g id="patch_50">
    <path clip-path="url(#p11ff84c471)" d="M 188.500999 307.584 
L 190.65103 307.584 
L 190.65103 70.587098 
L 188.500999 70.587098 
z
" style="fill:#fa9ba4;opacity:0.2;"/>
   </g>
   <g id="patch_51">
    <path clip-path="url(#p11ff84c471)" d="M 190.889922 307.584 
L 193.039952 307.584 
L 193.039952 78.448175 
L 190.889922 78.448175 
z
" style="fill:#fa9ba4;opacity:0.2;"/>
   </g>
   <g id="patch_52">
    <path clip-path="url(#p11ff84c471)" d="M 193.278844 307.584 
L 195.428874 307.584 
L 195.428874 81.359685 
L 193.278844 81.359685 
z
" style="fill:#fa9ba4;opacity:0.2;"/>
   </g>
   <g id="patch_53">
    <path clip-path="url(#p11ff84c471)" d="M 195.667766 307.584 
L 197.817797 307.584 
L 197.817797 78.739326 
L 195.667766 78.739326 
z
" style="fill:#fa9ba4;opacity:0.2;"/>
   </g>
   <g id="patch_54">
    <path clip-path="url(#p11ff84c471)" d="M 198.056689 307.584 
L 200.206719 307.584 
L 200.206719 148.03326 
L 198.056689 148.03326 
z
" style="fill:#fa9ba4;opacity:0.2;"/>
   </g>
   <g id="patch_55">
    <path clip-path="url(#p11ff84c471)" d="M 200.445611 307.584 
L 202.595641 307.584 
L 202.595641 176.566057 
L 200.445611 176.566057 
z
" style="fill:#fa9ba4;opacity:0.2;"/>
   </g>
   <g id="patch_56">
    <path clip-path="url(#p11ff84c471)" d="M 202.834533 307.584 
L 204.984564 307.584 
L 204.984564 248.771501 
L 202.834533 248.771501 
z
" style="fill:#fa9ba4;opacity:0.2;"/>
   </g>
   <g id="patch_57">
    <path clip-path="url(#p11ff84c471)" d="M 205.223456 307.584 
L 207.373486 307.584 
L 207.373486 260.126389 
L 205.223456 260.126389 
z
" style="fill:#fa9ba4;opacity:0.2;"/>
   </g>
   <g id="patch_58">
    <path clip-path="url(#p11ff84c471)" d="M 207.612378 307.584 
L 209.762408 307.584 
L 209.762408 261.290993 
L 207.612378 261.290993 
z
" style="fill:#fa9ba4;opacity:0.2;"/>
   </g>
   <g id="patch_59">
    <path clip-path="url(#p11ff84c471)" d="M 210.0013 307.584 
L 212.151331 307.584 
L 212.151331 269.15207 
L 210.0013 269.15207 
z
" style="fill:#fa9ba4;opacity:0.2;"/>
   </g>
   <g id="patch_60">
    <path clip-path="url(#p11ff84c471)" d="M 212.390223 307.584 
L 214.540253 307.584 
L 214.540253 270.025523 
L 212.390223 270.025523 
z
" style="fill:#fa9ba4;opacity:0.2;"/>
   </g>
   <g id="patch_61">
    <path clip-path="url(#p11ff84c471)" d="M 214.779145 307.584 
L 216.929175 307.584 
L 216.929175 279.924656 
L 214.779145 279.924656 
z
" style="fill:#fa9ba4;opacity:0.2;"/>
   </g>
   <g id="patch_62">
    <path clip-path="url(#p11ff84c471)" d="M 217.168067 307.584 
L 219.318098 307.584 
L 219.318098 292.152998 
L 217.168067 292.152998 
z
" style="fill:#fa9ba4;opacity:0.2;"/>
   </g>
   <g id="patch_63">
    <path clip-path="url(#p11ff84c471)" d="M 219.55699 307.584 
L 221.70702 307.584 
L 221.70702 294.773357 
L 219.55699 294.773357 
z
" style="fill:#fa9ba4;opacity:0.2;"/>
   </g>
   <g id="patch_64">
    <path clip-path="url(#p11ff84c471)" d="M 221.945912 307.584 
L 224.095942 307.584 
L 224.095942 287.494582 
L 221.945912 287.494582 
z
" style="fill:#fa9ba4;opacity:0.2;"/>
   </g>
   <g id="patch_65">
    <path clip-path="url(#p11ff84c471)" d="M 224.334834 307.584 
L 226.484865 307.584 
L 226.484865 302.925584 
L 224.334834 302.925584 
z
" style="fill:#fa9ba4;opacity:0.2;"/>
   </g>
   <g id="patch_66">
    <path clip-path="url(#p11ff84c471)" d="M 226.723757 307.584 
L 228.873787 307.584 
L 228.873787 286.329978 
L 226.723757 286.329978 
z
" style="fill:#fa9ba4;opacity:0.2;"/>
   </g>
   <g id="patch_67">
    <path clip-path="url(#p11ff84c471)" d="M 229.112679 307.584 
L 231.262709 307.584 
L 231.262709 281.962713 
L 229.112679 281.962713 
z
" style="fill:#fa9ba4;opacity:0.2;"/>
   </g>
   <g id="patch_68">
    <path clip-path="url(#p11ff84c471)" d="M 231.501601 307.584 
L 233.651632 307.584 
L 233.651632 286.91228 
L 231.501601 286.91228 
z
" style="fill:#fa9ba4;opacity:0.2;"/>
   </g>
   <g id="patch_69">
    <path clip-path="url(#p11ff84c471)" d="M 233.890524 307.584 
L 236.040554 307.584 
L 236.040554 297.393716 
L 233.890524 297.393716 
z
" style="fill:#fa9ba4;opacity:0.2;"/>
   </g>
   <g id="patch_70">
    <path clip-path="url(#p11ff84c471)" d="M 236.279446 307.584 
L 238.429476 307.584 
L 238.429476 290.114941 
L 236.279446 290.114941 
z
" style="fill:#fa9ba4;opacity:0.2;"/>
   </g>
   <g id="patch_71">
    <path clip-path="url(#p11ff84c471)" d="M 238.668368 307.584 
L 240.818399 307.584 
L 240.818399 297.976018 
L 238.668368 297.976018 
z
" style="fill:#fa9ba4;opacity:0.2;"/>
   </g>
   <g id="patch_72">
    <path clip-path="url(#p11ff84c471)" d="M 241.057291 307.584 
L 243.207321 307.584 
L 243.207321 291.861847 
L 241.057291 291.861847 
z
" style="fill:#fa9ba4;opacity:0.2;"/>
   </g>
   <g id="patch_73">
    <path clip-path="url(#p11ff84c471)" d="M 243.446213 307.584 
L 245.596243 307.584 
L 245.596243 291.279545 
L 243.446213 291.279545 
z
" style="fill:#fa9ba4;opacity:0.2;"/>
   </g>
   <g id="patch_74">
    <path clip-path="url(#p11ff84c471)" d="M 245.835135 307.584 
L 247.985166 307.584 
L 247.985166 298.84947 
L 245.835135 298.84947 
z
" style="fill:#fa9ba4;opacity:0.2;"/>
   </g>
   <g id="patch_75">
    <path clip-path="url(#p11ff84c471)" d="M 248.224058 307.584 
L 250.374088 307.584 
L 250.374088 302.052131 
L 248.224058 302.052131 
z
" style="fill:#fa9ba4;opacity:0.2;"/>
   </g>
   <g id="patch_76">
    <path clip-path="url(#p11ff84c471)" d="M 250.61298 307.584 
L 252.76301 307.584 
L 252.76301 296.811414 
L 250.61298 296.811414 
z
" style="fill:#fa9ba4;opacity:0.2;"/>
   </g>
   <g id="patch_77">
    <path clip-path="url(#p11ff84c471)" d="M 253.001902 307.584 
L 255.151933 307.584 
L 255.151933 293.317602 
L 253.001902 293.317602 
z
" style="fill:#fa9ba4;opacity:0.2;"/>
   </g>
   <g id="patch_78">
    <path clip-path="url(#p11ff84c471)" d="M 255.390825 307.584 
L 257.540855 307.584 
L 257.540855 302.052131 
L 255.390825 302.052131 
z
" style="fill:#fa9ba4;opacity:0.2;"/>
   </g>
   <g id="patch_79">
    <path clip-path="url(#p11ff84c471)" d="M 257.779747 307.584 
L 259.929777 307.584 
L 259.929777 300.596376 
L 257.779747 300.596376 
z
" style="fill:#fa9ba4;opacity:0.2;"/>
   </g>
   <g id="patch_80">
    <path clip-path="url(#p11ff84c471)" d="M 260.168669 307.584 
L 262.3187 307.584 
L 262.3187 304.090188 
L 260.168669 304.090188 
z
" style="fill:#fa9ba4;opacity:0.2;"/>
   </g>
   <g id="patch_81">
    <path clip-path="url(#p11ff84c471)" d="M 262.557592 307.584 
L 264.707622 307.584 
L 264.707622 297.102565 
L 262.557592 297.102565 
z
" style="fill:#fa9ba4;opacity:0.2;"/>
   </g>
   <g id="patch_82">
    <path clip-path="url(#p11ff84c471)" d="M 264.946514 307.584 
L 267.096544 307.584 
L 267.096544 293.026451 
L 264.946514 293.026451 
z
" style="fill:#fa9ba4;opacity:0.2;"/>
   </g>
   <g id="patch_83">
    <path clip-path="url(#p11ff84c471)" d="M 267.335436 307.584 
L 269.485467 307.584 
L 269.485467 295.64681 
L 267.335436 295.64681 
z
" style="fill:#fa9ba4;opacity:0.2;"/>
   </g>
   <g id="patch_84">
    <path clip-path="url(#p11ff84c471)" d="M 269.724359 307.584 
L 271.874389 307.584 
L 271.874389 293.899904 
L 269.724359 293.899904 
z
" style="fill:#fa9ba4;opacity:0.2;"/>
   </g>
   <g id="patch_85">
    <path clip-path="url(#p11ff84c471)" d="M 272.113281 307.584 
L 274.263311 307.584 
L 274.263311 295.937961 
L 272.113281 295.937961 
z
" style="fill:#fa9ba4;opacity:0.2;"/>
   </g>
   <g id="patch_86">
    <path clip-path="url(#p11ff84c471)" d="M 274.502203 307.584 
L 276.652234 307.584 
L 276.652234 296.520263 
L 274.502203 296.520263 
z
" style="fill:#fa9ba4;opacity:0.2;"/>
   </g>
   <g id="patch_87">
    <path clip-path="url(#p11ff84c471)" d="M 276.891126 307.584 
L 279.041156 307.584 
L 279.041156 302.052131 
L 276.891126 302.052131 
z
" style="fill:#fa9ba4;opacity:0.2;"/>
   </g>
   <g id="patch_88">
    <path clip-path="url(#p11ff84c471)" d="M 279.280048 307.584 
L 281.430078 307.584 
L 281.430078 296.520263 
L 279.280048 296.520263 
z
" style="fill:#fa9ba4;opacity:0.2;"/>
   </g>
   <g id="patch_89">
    <path clip-path="url(#p11ff84c471)" d="M 281.66897 307.584 
L 283.819001 307.584 
L 283.819001 297.393716 
L 281.66897 297.393716 
z
" style="fill:#fa9ba4;opacity:0.2;"/>
   </g>
   <g id="patch_90">
    <path clip-path="url(#p11ff84c471)" d="M 284.057893 307.584 
L 286.207923 307.584 
L 286.207923 293.608753 
L 284.057893 293.608753 
z
" style="fill:#fa9ba4;opacity:0.2;"/>
   </g>
   <g id="patch_91">
    <path clip-path="url(#p11ff84c471)" d="M 286.446815 307.584 
L 288.596845 307.584 
L 288.596845 295.064508 
L 286.446815 295.064508 
z
" style="fill:#fa9ba4;opacity:0.2;"/>
   </g>
   <g id="patch_92">
    <path clip-path="url(#p11ff84c471)" d="M 288.835738 307.584 
L 290.985768 307.584 
L 290.985768 296.229112 
L 288.835738 296.229112 
z
" style="fill:#fa9ba4;opacity:0.2;"/>
   </g>
   <g id="patch_93">
    <path clip-path="url(#p11ff84c471)" d="M 291.22466 307.584 
L 293.37469 307.584 
L 293.37469 297.684867 
L 291.22466 297.684867 
z
" style="fill:#fa9ba4;opacity:0.2;"/>
   </g>
   <g id="patch_94">
    <path clip-path="url(#p11ff84c471)" d="M 293.613582 307.584 
L 295.763612 307.584 
L 295.763612 297.976018 
L 293.613582 297.976018 
z
" style="fill:#fa9ba4;opacity:0.2;"/>
   </g>
   <g id="patch_95">
    <path clip-path="url(#p11ff84c471)" d="M 296.002505 307.584 
L 298.152535 307.584 
L 298.152535 295.937961 
L 296.002505 295.937961 
z
" style="fill:#fa9ba4;opacity:0.2;"/>
   </g>
   <g id="patch_96">
    <path clip-path="url(#p11ff84c471)" d="M 298.391427 307.584 
L 300.541457 307.584 
L 300.541457 293.899904 
L 298.391427 293.899904 
z
" style="fill:#fa9ba4;opacity:0.2;"/>
   </g>
   <g id="patch_97">
    <path clip-path="url(#p11ff84c471)" d="M 300.780349 307.584 
L 302.930379 307.584 
L 302.930379 296.520263 
L 300.780349 296.520263 
z
" style="fill:#fa9ba4;opacity:0.2;"/>
   </g>
   <g id="patch_98">
    <path clip-path="url(#p11ff84c471)" d="M 303.169272 307.584 
L 305.319302 307.584 
L 305.319302 295.64681 
L 303.169272 295.64681 
z
" style="fill:#fa9ba4;opacity:0.2;"/>
   </g>
   <g id="patch_99">
    <path clip-path="url(#p11ff84c471)" d="M 305.558194 307.584 
L 307.708224 307.584 
L 307.708224 297.976018 
L 305.558194 297.976018 
z
" style="fill:#fa9ba4;opacity:0.2;"/>
   </g>
   <g id="patch_100">
    <path clip-path="url(#p11ff84c471)" d="M 307.947116 307.584 
L 310.097146 307.584 
L 310.097146 302.634433 
L 307.947116 302.634433 
z
" style="fill:#fa9ba4;opacity:0.2;"/>
   </g>
   <g id="patch_101">
    <path clip-path="url(#p11ff84c471)" d="M 310.336039 307.584 
L 312.486069 307.584 
L 312.486069 304.963641 
L 310.336039 304.963641 
z
" style="fill:#fa9ba4;opacity:0.2;"/>
   </g>
   <g id="patch_102">
    <path clip-path="url(#p11ff84c471)" d="M 312.724961 307.584 
L 314.874991 307.584 
L 314.874991 303.216735 
L 312.724961 303.216735 
z
" style="fill:#fa9ba4;opacity:0.2;"/>
   </g>
   <g id="patch_103">
    <path clip-path="url(#p11ff84c471)" d="M 315.113883 307.584 
L 317.263913 307.584 
L 317.263913 302.634433 
L 315.113883 302.634433 
z
" style="fill:#fa9ba4;opacity:0.2;"/>
   </g>
   <g id="patch_104">
    <path clip-path="url(#p11ff84c471)" d="M 317.502806 307.584 
L 319.652836 307.584 
L 319.652836 303.216735 
L 317.502806 303.216735 
z
" style="fill:#fa9ba4;opacity:0.2;"/>
   </g>
   <g id="patch_105">
    <path clip-path="url(#p11ff84c471)" d="M 319.891728 307.584 
L 322.041758 307.584 
L 322.041758 302.925584 
L 319.891728 302.925584 
z
" style="fill:#fa9ba4;opacity:0.2;"/>
   </g>
   <g id="patch_106">
    <path clip-path="url(#p11ff84c471)" d="M 322.28065 307.584 
L 324.43068 307.584 
L 324.43068 304.67249 
L 322.28065 304.67249 
z
" style="fill:#fa9ba4;opacity:0.2;"/>
   </g>
   <g id="patch_107">
    <path clip-path="url(#p11ff84c471)" d="M 324.669573 307.584 
L 326.819603 307.584 
L 326.819603 305.254792 
L 324.669573 305.254792 
z
" style="fill:#fa9ba4;opacity:0.2;"/>
   </g>
   <g id="patch_108">
    <path clip-path="url(#p11ff84c471)" d="M 327.058495 307.584 
L 329.208525 307.584 
L 329.208525 304.381339 
L 327.058495 304.381339 
z
" style="fill:#fa9ba4;opacity:0.2;"/>
   </g>
   <g id="patch_109">
    <path clip-path="url(#p11ff84c471)" d="M 329.447417 307.584 
L 331.597447 307.584 
L 331.597447 304.381339 
L 329.447417 304.381339 
z
" style="fill:#fa9ba4;opacity:0.2;"/>
   </g>
   <g id="patch_110">
    <path clip-path="url(#p11ff84c471)" d="M 331.83634 307.584 
L 333.98637 307.584 
L 333.98637 303.507886 
L 331.83634 303.507886 
z
" style="fill:#fa9ba4;opacity:0.2;"/>
   </g>
   <g id="patch_111">
    <path clip-path="url(#p11ff84c471)" d="M 334.225262 307.584 
L 336.375292 307.584 
L 336.375292 304.090188 
L 334.225262 304.090188 
z
" style="fill:#fa9ba4;opacity:0.2;"/>
   </g>
   <g id="patch_112">
    <path clip-path="url(#p11ff84c471)" d="M 336.614184 307.584 
L 338.764214 307.584 
L 338.764214 303.799037 
L 336.614184 303.799037 
z
" style="fill:#fa9ba4;opacity:0.2;"/>
   </g>
   <g id="patch_113">
    <path clip-path="url(#p11ff84c471)" d="M 339.003107 307.584 
L 341.153137 307.584 
L 341.153137 306.419396 
L 339.003107 306.419396 
z
" style="fill:#fa9ba4;opacity:0.2;"/>
   </g>
   <g id="patch_114">
    <path clip-path="url(#p11ff84c471)" d="M 341.392029 307.584 
L 343.542059 307.584 
L 343.542059 305.545943 
L 341.392029 305.545943 
z
" style="fill:#fa9ba4;opacity:0.2;"/>
   </g>
   <g id="patch_115">
    <path clip-path="url(#p11ff84c471)" d="M 343.780951 307.584 
L 345.930981 307.584 
L 345.930981 304.090188 
L 343.780951 304.090188 
z
" style="fill:#fa9ba4;opacity:0.2;"/>
   </g>
   <g id="patch_116">
    <path clip-path="url(#p11ff84c471)" d="M 346.169874 307.584 
L 348.319904 307.584 
L 348.319904 304.963641 
L 346.169874 304.963641 
z
" style="fill:#fa9ba4;opacity:0.2;"/>
   </g>
   <g id="patch_117">
    <path clip-path="url(#p11ff84c471)" d="M 348.558796 307.584 
L 350.708826 307.584 
L 350.708826 304.963641 
L 348.558796 304.963641 
z
" style="fill:#fa9ba4;opacity:0.2;"/>
   </g>
   <g id="patch_118">
    <path clip-path="url(#p11ff84c471)" d="M 350.947718 307.584 
L 353.097748 307.584 
L 353.097748 305.254792 
L 350.947718 305.254792 
z
" style="fill:#fa9ba4;opacity:0.2;"/>
   </g>
   <g id="patch_119">
    <path clip-path="url(#p11ff84c471)" d="M 353.336641 307.584 
L 355.486671 307.584 
L 355.486671 305.254792 
L 353.336641 305.254792 
z
" style="fill:#fa9ba4;opacity:0.2;"/>
   </g>
   <g id="patch_120">
    <path clip-path="url(#p11ff84c471)" d="M 355.725563 307.584 
L 357.875593 307.584 
L 357.875593 300.305225 
L 355.725563 300.305225 
z
" style="fill:#fa9ba4;opacity:0.2;"/>
   </g>
   <g id="patch_121">
    <path clip-path="url(#p11ff84c471)" d="M 358.114485 307.584 
L 360.264515 307.584 
L 360.264515 297.684867 
L 358.114485 297.684867 
z
" style="fill:#fa9ba4;opacity:0.2;"/>
   </g>
   <g id="patch_122">
    <path clip-path="url(#p11ff84c471)" d="M 360.503408 307.584 
L 362.653438 307.584 
L 362.653438 300.887527 
L 360.503408 300.887527 
z
" style="fill:#fa9ba4;opacity:0.2;"/>
   </g>
   <g id="patch_123">
    <path clip-path="url(#p11ff84c471)" d="M 362.89233 307.584 
L 365.04236 307.584 
L 365.04236 294.191055 
L 362.89233 294.191055 
z
" style="fill:#fa9ba4;opacity:0.2;"/>
   </g>
   <g id="patch_124">
    <path clip-path="url(#p11ff84c471)" d="M 365.281252 307.584 
L 367.431282 307.584 
L 367.431282 293.608753 
L 365.281252 293.608753 
z
" style="fill:#fa9ba4;opacity:0.2;"/>
   </g>
   <g id="patch_125">
    <path clip-path="url(#p11ff84c471)" d="M 367.670175 307.584 
L 369.820205 307.584 
L 369.820205 296.811414 
L 367.670175 296.811414 
z
" style="fill:#fa9ba4;opacity:0.2;"/>
   </g>
   <g id="patch_126">
    <path clip-path="url(#p11ff84c471)" d="M 370.059097 307.584 
L 372.209127 307.584 
L 372.209127 302.343282 
L 370.059097 302.343282 
z
" style="fill:#fa9ba4;opacity:0.2;"/>
   </g>
   <g id="patch_127">
    <path clip-path="url(#p11ff84c471)" d="M 372.448019 307.584 
L 374.598049 307.584 
L 374.598049 298.267168 
L 372.448019 298.267168 
z
" style="fill:#fa9ba4;opacity:0.2;"/>
   </g>
   <g id="patch_128">
    <path clip-path="url(#p11ff84c471)" d="M 374.836942 307.584 
L 376.986972 307.584 
L 376.986972 295.064508 
L 374.836942 295.064508 
z
" style="fill:#fa9ba4;opacity:0.2;"/>
   </g>
   <g id="patch_129">
    <path clip-path="url(#p11ff84c471)" d="M 377.225864 307.584 
L 379.375894 307.584 
L 379.375894 291.861847 
L 377.225864 291.861847 
z
" style="fill:#fa9ba4;opacity:0.2;"/>
   </g>
   <g id="patch_130">
    <path clip-path="url(#p11ff84c471)" d="M 379.614786 307.584 
L 381.764816 307.584 
L 381.764816 298.84947 
L 379.614786 298.84947 
z
" style="fill:#fa9ba4;opacity:0.2;"/>
   </g>
   <g id="patch_131">
    <path clip-path="url(#p11ff84c471)" d="M 382.003709 307.584 
L 384.153739 307.584 
L 384.153739 293.608753 
L 382.003709 293.608753 
z
" style="fill:#fa9ba4;opacity:0.2;"/>
   </g>
   <g id="patch_132">
    <path clip-path="url(#p11ff84c471)" d="M 384.392631 307.584 
L 386.542661 307.584 
L 386.542661 290.988394 
L 384.392631 290.988394 
z
" style="fill:#fa9ba4;opacity:0.2;"/>
   </g>
   <g id="patch_133">
    <path clip-path="url(#p11ff84c471)" d="M 386.781553 307.584 
L 388.931583 307.584 
L 388.931583 292.444149 
L 386.781553 292.444149 
z
" style="fill:#fa9ba4;opacity:0.2;"/>
   </g>
   <g id="patch_134">
    <path clip-path="url(#p11ff84c471)" d="M 389.170476 307.584 
L 391.320506 307.584 
L 391.320506 291.279545 
L 389.170476 291.279545 
z
" style="fill:#fa9ba4;opacity:0.2;"/>
   </g>
   <g id="patch_135">
    <path clip-path="url(#p11ff84c471)" d="M 391.559398 307.584 
L 393.709428 307.584 
L 393.709428 289.82379 
L 391.559398 289.82379 
z
" style="fill:#fa9ba4;opacity:0.2;"/>
   </g>
   <g id="patch_136">
    <path clip-path="url(#p11ff84c471)" d="M 393.94832 307.584 
L 396.09835 307.584 
L 396.09835 290.406092 
L 393.94832 290.406092 
z
" style="fill:#fa9ba4;opacity:0.2;"/>
   </g>
   <g id="patch_137">
    <path clip-path="url(#p11ff84c471)" d="M 396.337243 307.584 
L 398.487273 307.584 
L 398.487273 296.229112 
L 396.337243 296.229112 
z
" style="fill:#fa9ba4;opacity:0.2;"/>
   </g>
   <g id="matplotlib.axis_1"/>
   <g id="matplotlib.axis_2"/>
   <g id="PolyCollection_1">
    <defs>
     <path d="M 366.356267 -46.001856 
L 366.356267 -38.016 
L 368.74519 -38.016 
L 371.134112 -38.016 
L 373.523034 -38.016 
L 375.911957 -38.016 
L 378.300879 -38.016 
L 380.689801 -38.016 
L 383.078724 -38.016 
L 385.467646 -38.016 
L 387.856568 -38.016 
L 390.245491 -38.016 
L 392.634413 -38.016 
L 395.023335 -38.016 
L 397.412258 -38.016 
L 397.412258 -53.488595 
L 397.412258 -53.488595 
L 395.023335 -53.114258 
L 392.634413 -52.906293 
L 390.245491 -52.157619 
L 387.856568 -51.159387 
L 385.467646 -49.745225 
L 383.078724 -48.913365 
L 380.689801 -48.913365 
L 378.300879 -49.578853 
L 375.911957 -48.28947 
L 373.523034 -47.915133 
L 371.134112 -47.623982 
L 368.74519 -47.208053 
L 366.356267 -46.001856 
z
" id="mc6eb1eb744" style="stroke:#dc3545;stroke-opacity:0.5;"/>
    </defs>
    <g clip-path="url(#p11ff84c471)">
     <use style="fill:#dc3545;fill-opacity:0.5;stroke:#dc3545;stroke-opacity:0.5;" x="0" xlink:href="#mc6eb1eb744" y="345.6"/>
    </g>
   </g>
   <g id="PolyCollection_2">
    <defs>
     <path d="M 89.241276 -75.990407 
L 89.241276 -38.016 
L 91.630199 -38.016 
L 94.019121 -38.016 
L 96.408043 -38.016 
L 98.796966 -38.016 
L 101.185888 -38.016 
L 103.57481 -38.016 
L 105.963733 -38.016 
L 108.352655 -38.016 
L 110.741577 -38.016 
L 113.1305 -38.016 
L 115.519422 -38.016 
L 117.908344 -38.016 
L 120.297267 -38.016 
L 122.686189 -38.016 
L 125.075111 -38.016 
L 127.464034 -38.016 
L 129.852956 -38.016 
L 132.241878 -38.016 
L 134.630801 -38.016 
L 137.019723 -38.016 
L 139.408645 -38.016 
L 141.797568 -38.016 
L 144.18649 -38.016 
L 146.575412 -38.016 
L 148.964335 -38.016 
L 151.353257 -38.016 
L 153.742179 -38.016 
L 156.131102 -38.016 
L 158.520024 -38.016 
L 160.908946 -38.016 
L 163.297869 -38.016 
L 165.686791 -38.016 
L 168.075713 -38.016 
L 170.464636 -38.016 
L 172.853558 -38.016 
L 175.24248 -38.016 
L 177.631403 -38.016 
L 180.020325 -38.016 
L 182.409247 -38.016 
L 184.79817 -38.016 
L 187.187092 -38.016 
L 189.576014 -38.016 
L 191.964937 -38.016 
L 194.353859 -38.016 
L 196.742781 -38.016 
L 199.131704 -38.016 
L 201.520626 -38.016 
L 203.909548 -38.016 
L 206.298471 -38.016 
L 208.687393 -38.016 
L 211.076315 -38.016 
L 213.465238 -38.016 
L 215.85416 -38.016 
L 218.243082 -38.016 
L 220.632005 -38.016 
L 223.020927 -38.016 
L 225.409849 -38.016 
L 227.798772 -38.016 
L 230.187694 -38.016 
L 232.576616 -38.016 
L 234.965539 -38.016 
L 237.354461 -38.016 
L 239.743384 -38.016 
L 242.132306 -38.016 
L 244.521228 -38.016 
L 246.910151 -38.016 
L 249.299073 -38.016 
L 251.687995 -38.016 
L 254.076918 -38.016 
L 256.46584 -38.016 
L 258.854762 -38.016 
L 261.243685 -38.016 
L 263.632607 -38.016 
L 266.021529 -38.016 
L 268.410452 -38.016 
L 270.799374 -38.016 
L 273.188296 -38.016 
L 275.577219 -38.016 
L 277.966141 -38.016 
L 280.355063 -38.016 
L 282.743986 -38.016 
L 285.132908 -38.016 
L 287.52183 -38.016 
L 289.910753 -38.016 
L 292.299675 -38.016 
L 294.688597 -38.016 
L 297.07752 -38.016 
L 299.466442 -38.016 
L 301.855364 -38.016 
L 304.244287 -38.016 
L 306.633209 -38.016 
L 309.022131 -38.016 
L 311.411054 -38.016 
L 313.799976 -38.016 
L 316.188898 -38.016 
L 318.577821 -38.016 
L 320.966743 -38.016 
L 323.355665 -38.016 
L 325.744588 -38.016 
L 328.13351 -38.016 
L 330.522432 -38.016 
L 332.911355 -38.016 
L 335.300277 -38.016 
L 337.689199 -38.016 
L 340.078122 -38.016 
L 342.467044 -38.016 
L 344.855966 -38.016 
L 347.244889 -38.016 
L 349.633811 -38.016 
L 352.022733 -38.016 
L 354.411656 -38.016 
L 356.800578 -38.016 
L 359.1895 -38.016 
L 361.578423 -38.016 
L 363.967345 -38.016 
L 366.356267 -38.016 
L 366.356267 -46.001856 
L 366.356267 -46.001856 
L 363.967345 -44.379729 
L 361.578423 -42.840788 
L 359.1895 -42.383265 
L 356.800578 -41.260254 
L 354.411656 -40.386801 
L 352.022733 -40.594766 
L 349.633811 -40.761138 
L 347.244889 -40.969103 
L 344.855966 -41.052289 
L 342.467044 -41.010696 
L 340.078122 -41.052289 
L 337.689199 -41.301847 
L 335.300277 -41.426626 
L 332.911355 -41.551405 
L 330.522432 -41.676184 
L 328.13351 -41.842556 
L 325.744588 -41.75937 
L 323.355665 -42.133707 
L 320.966743 -43.090346 
L 318.577821 -44.130171 
L 316.188898 -45.08681 
L 313.799976 -46.3346 
L 311.411054 -47.374425 
L 309.022131 -48.372656 
L 306.633209 -49.079737 
L 304.244287 -49.329295 
L 301.855364 -49.412481 
L 299.466442 -49.828411 
L 297.07752 -49.329295 
L 294.688597 -49.246109 
L 292.299675 -48.663807 
L 289.910753 -48.830179 
L 287.52183 -48.871772 
L 285.132908 -49.038144 
L 282.743986 -48.746993 
L 280.355063 -49.370888 
L 277.966141 -49.287702 
L 275.577219 -48.996551 
L 273.188296 -48.414249 
L 270.799374 -47.540796 
L 268.410452 -47.623982 
L 266.021529 -47.457611 
L 263.632607 -46.168228 
L 261.243685 -45.91867 
L 258.854762 -47.748761 
L 256.46584 -48.996551 
L 254.076918 -49.578853 
L 251.687995 -50.036376 
L 249.299073 -49.95319 
L 246.910151 -52.116026 
L 244.521228 -54.52842 
L 242.132306 -55.235501 
L 239.743384 -53.654967 
L 237.354461 -55.152315 
L 234.965539 -54.486827 
L 232.576616 -55.235501 
L 230.187694 -56.233733 
L 227.798772 -57.939046 
L 225.409849 -60.393033 
L 223.020927 -66.340832 
L 220.632005 -70.250573 
L 218.243082 -76.822267 
L 215.85416 -93.334687 
L 213.465238 -112.176315 
L 211.076315 -139.502915 
L 208.687393 -166.330398 
L 206.298471 -192.450801 
L 203.909548 -219.527842 
L 201.520626 -244.442048 
L 199.131704 -262.451816 
L 196.742781 -271.435904 
L 194.353859 -269.231475 
L 191.964937 -269.85537 
L 189.576014 -275.137681 
L 187.187092 -247.436744 
L 184.79817 -220.276516 
L 182.409247 -190.329558 
L 180.020325 -167.578188 
L 177.631403 -138.338311 
L 175.24248 -106.519667 
L 172.853558 -74.243501 
L 170.464636 -81.397497 
L 168.075713 -88.551492 
L 165.686791 -88.634678 
L 163.297869 -83.726705 
L 160.908946 -91.130258 
L 158.520024 -91.463002 
L 156.131102 -93.043536 
L 153.742179 -83.061217 
L 151.353257 -72.787746 
L 148.964335 -67.838179 
L 146.575412 -66.132867 
L 144.18649 -63.554101 
L 141.797568 -64.885077 
L 139.408645 -77.113418 
L 137.019723 -96.28779 
L 134.630801 -95.539116 
L 132.241878 -96.412569 
L 129.852956 -98.36744 
L 127.464034 -93.459466 
L 125.075111 -91.338223 
L 122.686189 -71.914293 
L 120.297267 -50.036376 
L 117.908344 -48.539028 
L 115.519422 -47.000088 
L 113.1305 -44.088578 
L 110.741577 -43.547869 
L 108.352655 -42.882381 
L 105.963733 -59.270022 
L 103.57481 -73.910757 
L 101.185888 -95.289558 
L 98.796966 -94.540884 
L 96.408043 -93.126722 
L 94.019121 -92.502827 
L 91.630199 -92.502827 
L 89.241276 -75.990407 
z
" id="m45e8db7635" style="stroke:#fa9ba4;stroke-opacity:0.3;"/>
    </defs>
    <g clip-path="url(#p11ff84c471)">
     <use style="fill:#fa9ba4;fill-opacity:0.3;stroke:#fa9ba4;stroke-opacity:0.3;" x="0" xlink:href="#m45e8db7635" y="345.6"/>
    </g>
   </g>
   <g id="line2d_1">
    <path clip-path="url(#p11ff84c471)" d="M 89.241276 269.609593 
L 91.630199 253.097173 
L 94.019121 253.097173 
L 96.408043 252.473278 
L 98.796966 251.059116 
L 101.185888 250.310442 
L 103.57481 271.689243 
L 105.963733 286.329978 
L 108.352655 302.717619 
L 110.741577 302.052131 
L 113.1305 301.511422 
L 115.519422 298.599912 
L 120.297267 295.563624 
L 122.686189 273.685707 
L 125.075111 254.261777 
L 127.464034 252.140534 
L 129.852956 247.23256 
L 132.241878 249.187431 
L 134.630801 250.060884 
L 137.019723 249.31221 
L 139.408645 268.486582 
L 141.797568 280.714923 
L 144.18649 282.045899 
L 146.575412 279.467133 
L 148.964335 277.761821 
L 151.353257 272.812254 
L 156.131102 252.556464 
L 158.520024 254.136998 
L 160.908946 254.469742 
L 163.297869 261.873295 
L 165.686791 256.965322 
L 168.075713 257.048508 
L 172.853558 271.356499 
L 177.631403 207.261689 
L 180.020325 178.021812 
L 182.409247 155.270442 
L 184.79817 125.323484 
L 189.576014 70.462319 
L 191.964937 75.74463 
L 194.353859 76.368525 
L 196.742781 74.164096 
L 199.131704 83.148184 
L 201.520626 101.157952 
L 203.909548 126.072158 
L 213.465238 233.423685 
L 215.85416 252.265313 
L 218.243082 268.777733 
L 220.632005 275.349427 
L 223.020927 279.259168 
L 225.409849 285.206967 
L 227.798772 287.660954 
L 230.187694 289.366267 
L 232.576616 290.364499 
L 234.965539 291.113173 
L 237.354461 290.447685 
L 239.743384 291.945033 
L 242.132306 290.364499 
L 244.521228 291.07158 
L 246.910151 293.483974 
L 249.299073 295.64681 
L 251.687995 295.563624 
L 254.076918 296.021147 
L 256.46584 296.603449 
L 258.854762 297.851239 
L 261.243685 299.68133 
L 263.632607 299.431772 
L 266.021529 298.142389 
L 268.410452 297.976018 
L 270.799374 298.059204 
L 273.188296 297.185751 
L 275.577219 296.603449 
L 277.966141 296.312298 
L 280.355063 296.229112 
L 282.743986 296.853007 
L 285.132908 296.561856 
L 287.52183 296.728228 
L 289.910753 296.769821 
L 292.299675 296.936193 
L 294.688597 296.353891 
L 297.07752 296.270705 
L 299.466442 295.771589 
L 301.855364 296.187519 
L 304.244287 296.270705 
L 306.633209 296.520263 
L 309.022131 297.227344 
L 313.799976 299.2654 
L 316.188898 300.51319 
L 323.355665 303.466293 
L 325.744588 303.84063 
L 328.13351 303.757444 
L 335.300277 304.173374 
L 337.689199 304.298153 
L 340.078122 304.547711 
L 347.244889 304.630897 
L 354.411656 305.213199 
L 356.800578 304.339746 
L 359.1895 303.216735 
L 361.578423 302.759212 
L 366.356267 299.598144 
L 368.74519 298.391947 
L 371.134112 297.976018 
L 375.911957 297.31053 
L 378.300879 296.021147 
L 380.689801 296.686635 
L 383.078724 296.686635 
L 385.467646 295.854775 
L 387.856568 294.440613 
L 390.245491 293.442381 
L 392.634413 292.693707 
L 395.023335 292.485742 
L 397.412258 292.111405 
L 397.412258 292.111405 
" style="fill:none;stroke:#fa9ba4;stroke-linecap:square;stroke-width:2;"/>
   </g>
   <g id="line2d_2">
    <path clip-path="url(#p11ff84c471)" d="M 366.356267 299.598144 
L 368.74519 298.391947 
L 371.134112 297.976018 
L 373.523034 297.684867 
L 375.911957 297.31053 
L 378.300879 296.021147 
L 380.689801 296.686635 
L 383.078724 296.686635 
L 385.467646 295.854775 
L 387.856568 294.440613 
L 390.245491 293.442381 
L 392.634413 292.693707 
L 395.023335 292.485742 
L 397.412258 292.111405 
" style="fill:none;stroke:#dc3545;stroke-linecap:square;stroke-width:2;"/>
   </g>
  </g>
 </g>
 <defs>
  <clipPath id="p11ff84c471">
   <rect height="266.112" width="357.12" x="57.6" y="41.472"/>
  </clipPath>
 </defs>
</svg>
