<?xml version="1.0" encoding="utf-8" standalone="no"?>
<!DOCTYPE svg PUBLIC "-//W3C//DTD SVG 1.1//EN"
  "http://www.w3.org/Graphics/SVG/1.1/DTD/svg11.dtd">
<!-- Created with matplotlib (https://matplotlib.org/) -->
<svg height="345.6pt" version="1.1" viewBox="0 0 460.8 345.6" width="460.8pt" xmlns="http://www.w3.org/2000/svg" xmlns:xlink="http://www.w3.org/1999/xlink">
 <metadata>
  <rdf:RDF xmlns:cc="http://creativecommons.org/ns#" xmlns:dc="http://purl.org/dc/elements/1.1/" xmlns:rdf="http://www.w3.org/1999/02/22-rdf-syntax-ns#">
   <cc:Work>
    <dc:type rdf:resource="http://purl.org/dc/dcmitype/StillImage"/>
    <dc:date>2021-05-14T21:58:31.588995</dc:date>
    <dc:format>image/svg+xml</dc:format>
    <dc:creator>
     <cc:Agent>
      <dc:title>Matplotlib v3.3.2, https://matplotlib.org/</dc:title>
     </cc:Agent>
    </dc:creator>
   </cc:Work>
  </rdf:RDF>
 </metadata>
 <defs>
  <style type="text/css">*{stroke-linecap:butt;stroke-linejoin:round;}</style>
 </defs>
 <g id="figure_1">
  <g id="patch_1">
   <path d="M 0 345.6 
L 460.8 345.6 
L 460.8 0 
L 0 0 
z
" style="fill:none;"/>
  </g>
  <g id="axes_1">
   <g id="patch_2">
    <path clip-path="url(#p590c1d5592)" d="M 73.832727 307.584 
L 75.781954 307.584 
L 75.781954 307.584 
L 73.832727 307.584 
z
" style="fill:#fa9ba4;opacity:0.2;"/>
   </g>
   <g id="patch_3">
    <path clip-path="url(#p590c1d5592)" d="M 75.998535 307.584 
L 77.947762 307.584 
L 77.947762 307.584 
L 75.998535 307.584 
z
" style="fill:#fa9ba4;opacity:0.2;"/>
   </g>
   <g id="patch_4">
    <path clip-path="url(#p590c1d5592)" d="M 78.164342 307.584 
L 80.113569 307.584 
L 80.113569 307.584 
L 78.164342 307.584 
z
" style="fill:#fa9ba4;opacity:0.2;"/>
   </g>
   <g id="patch_5">
    <path clip-path="url(#p590c1d5592)" d="M 80.33015 307.584 
L 82.279377 307.584 
L 82.279377 307.292849 
L 80.33015 307.292849 
z
" style="fill:#fa9ba4;opacity:0.2;"/>
   </g>
   <g id="patch_6">
    <path clip-path="url(#p590c1d5592)" d="M 82.495957 307.584 
L 84.445184 307.584 
L 84.445184 304.090188 
L 82.495957 304.090188 
z
" style="fill:#fa9ba4;opacity:0.2;"/>
   </g>
   <g id="patch_7">
    <path clip-path="url(#p590c1d5592)" d="M 84.661765 307.584 
L 86.610992 307.584 
L 86.610992 152.400525 
L 84.661765 152.400525 
z
" style="fill:#fa9ba4;opacity:0.2;"/>
   </g>
   <g id="patch_8">
    <path clip-path="url(#p590c1d5592)" d="M 86.827572 307.584 
L 88.776799 307.584 
L 88.776799 200.731589 
L 86.827572 200.731589 
z
" style="fill:#fa9ba4;opacity:0.2;"/>
   </g>
   <g id="patch_9">
    <path clip-path="url(#p590c1d5592)" d="M 88.99338 307.584 
L 90.942607 307.584 
L 90.942607 191.997059 
L 88.99338 191.997059 
z
" style="fill:#fa9ba4;opacity:0.2;"/>
   </g>
   <g id="patch_10">
    <path clip-path="url(#p590c1d5592)" d="M 91.159187 307.584 
L 93.108414 307.584 
L 93.108414 307.584 
L 91.159187 307.584 
z
" style="fill:#fa9ba4;opacity:0.2;"/>
   </g>
   <g id="patch_11">
    <path clip-path="url(#p590c1d5592)" d="M 93.324995 307.584 
L 95.274222 307.584 
L 95.274222 303.216735 
L 93.324995 303.216735 
z
" style="fill:#fa9ba4;opacity:0.2;"/>
   </g>
   <g id="patch_12">
    <path clip-path="url(#p590c1d5592)" d="M 95.490802 307.584 
L 97.440029 307.584 
L 97.440029 297.393716 
L 95.490802 297.393716 
z
" style="fill:#fa9ba4;opacity:0.2;"/>
   </g>
   <g id="patch_13">
    <path clip-path="url(#p590c1d5592)" d="M 97.65661 307.584 
L 99.605837 307.584 
L 99.605837 298.84947 
L 97.65661 298.84947 
z
" style="fill:#fa9ba4;opacity:0.2;"/>
   </g>
   <g id="patch_14">
    <path clip-path="url(#p590c1d5592)" d="M 99.822417 307.584 
L 101.771644 307.584 
L 101.771644 302.052131 
L 99.822417 302.052131 
z
" style="fill:#fa9ba4;opacity:0.2;"/>
   </g>
   <g id="patch_15">
    <path clip-path="url(#p590c1d5592)" d="M 101.988225 307.584 
L 103.937452 307.584 
L 103.937452 303.216735 
L 101.988225 303.216735 
z
" style="fill:#fa9ba4;opacity:0.2;"/>
   </g>
   <g id="patch_16">
    <path clip-path="url(#p590c1d5592)" d="M 104.154032 307.584 
L 106.103259 307.584 
L 106.103259 306.710547 
L 104.154032 306.710547 
z
" style="fill:#fa9ba4;opacity:0.2;"/>
   </g>
   <g id="patch_17">
    <path clip-path="url(#p590c1d5592)" d="M 106.31984 307.584 
L 108.269067 307.584 
L 108.269067 302.925584 
L 106.31984 302.925584 
z
" style="fill:#fa9ba4;opacity:0.2;"/>
   </g>
   <g id="patch_18">
    <path clip-path="url(#p590c1d5592)" d="M 108.485647 307.584 
L 110.434874 307.584 
L 110.434874 299.431772 
L 108.485647 299.431772 
z
" style="fill:#fa9ba4;opacity:0.2;"/>
   </g>
   <g id="patch_19">
    <path clip-path="url(#p590c1d5592)" d="M 110.651455 307.584 
L 112.600682 307.584 
L 112.600682 277.013147 
L 110.651455 277.013147 
z
" style="fill:#fa9ba4;opacity:0.2;"/>
   </g>
   <g id="patch_20">
    <path clip-path="url(#p590c1d5592)" d="M 112.817262 307.584 
L 114.766489 307.584 
L 114.766489 288.076884 
L 112.817262 288.076884 
z
" style="fill:#fa9ba4;opacity:0.2;"/>
   </g>
   <g id="patch_21">
    <path clip-path="url(#p590c1d5592)" d="M 114.98307 307.584 
L 116.932297 307.584 
L 116.932297 291.570696 
L 114.98307 291.570696 
z
" style="fill:#fa9ba4;opacity:0.2;"/>
   </g>
   <g id="patch_22">
    <path clip-path="url(#p590c1d5592)" d="M 117.148877 307.584 
L 119.098104 307.584 
L 119.098104 150.071317 
L 117.148877 150.071317 
z
" style="fill:#fa9ba4;opacity:0.2;"/>
   </g>
   <g id="patch_23">
    <path clip-path="url(#p590c1d5592)" d="M 119.314685 307.584 
L 121.263912 307.584 
L 121.263912 170.743037 
L 119.314685 170.743037 
z
" style="fill:#fa9ba4;opacity:0.2;"/>
   </g>
   <g id="patch_24">
    <path clip-path="url(#p590c1d5592)" d="M 121.480492 307.584 
L 123.429719 307.584 
L 123.429719 288.076884 
L 121.480492 288.076884 
z
" style="fill:#fa9ba4;opacity:0.2;"/>
   </g>
   <g id="patch_25">
    <path clip-path="url(#p590c1d5592)" d="M 123.6463 307.584 
L 125.595527 307.584 
L 125.595527 265.075956 
L 123.6463 265.075956 
z
" style="fill:#fa9ba4;opacity:0.2;"/>
   </g>
   <g id="patch_26">
    <path clip-path="url(#p590c1d5592)" d="M 125.812107 307.584 
L 127.761334 307.584 
L 127.761334 290.697243 
L 125.812107 290.697243 
z
" style="fill:#fa9ba4;opacity:0.2;"/>
   </g>
   <g id="patch_27">
    <path clip-path="url(#p590c1d5592)" d="M 127.977915 307.584 
L 129.927142 307.584 
L 129.927142 294.191055 
L 127.977915 294.191055 
z
" style="fill:#fa9ba4;opacity:0.2;"/>
   </g>
   <g id="patch_28">
    <path clip-path="url(#p590c1d5592)" d="M 130.143722 307.584 
L 132.092949 307.584 
L 132.092949 286.329978 
L 130.143722 286.329978 
z
" style="fill:#fa9ba4;opacity:0.2;"/>
   </g>
   <g id="patch_29">
    <path clip-path="url(#p590c1d5592)" d="M 132.30953 307.584 
L 134.258757 307.584 
L 134.258757 284.291921 
L 132.30953 284.291921 
z
" style="fill:#fa9ba4;opacity:0.2;"/>
   </g>
   <g id="patch_30">
    <path clip-path="url(#p590c1d5592)" d="M 134.475337 307.584 
L 136.424564 307.584 
L 136.424564 256.341427 
L 134.475337 256.341427 
z
" style="fill:#fa9ba4;opacity:0.2;"/>
   </g>
   <g id="patch_31">
    <path clip-path="url(#p590c1d5592)" d="M 136.641145 307.584 
L 138.590372 307.584 
L 138.590372 297.393716 
L 136.641145 297.393716 
z
" style="fill:#fa9ba4;opacity:0.2;"/>
   </g>
   <g id="patch_32">
    <path clip-path="url(#p590c1d5592)" d="M 138.806953 307.584 
L 140.756179 307.584 
L 140.756179 247.024595 
L 138.806953 247.024595 
z
" style="fill:#fa9ba4;opacity:0.2;"/>
   </g>
   <g id="patch_33">
    <path clip-path="url(#p590c1d5592)" d="M 140.97276 307.584 
L 142.921987 307.584 
L 142.921987 278.760053 
L 140.97276 278.760053 
z
" style="fill:#fa9ba4;opacity:0.2;"/>
   </g>
   <g id="patch_34">
    <path clip-path="url(#p590c1d5592)" d="M 143.138568 307.584 
L 145.087794 307.584 
L 145.087794 259.544088 
L 143.138568 259.544088 
z
" style="fill:#fa9ba4;opacity:0.2;"/>
   </g>
   <g id="patch_35">
    <path clip-path="url(#p590c1d5592)" d="M 145.304375 307.584 
L 147.253602 307.584 
L 147.253602 214.415685 
L 145.304375 214.415685 
z
" style="fill:#fa9ba4;opacity:0.2;"/>
   </g>
   <g id="patch_36">
    <path clip-path="url(#p590c1d5592)" d="M 147.470183 307.584 
L 149.419409 307.584 
L 149.419409 214.415685 
L 147.470183 214.415685 
z
" style="fill:#fa9ba4;opacity:0.2;"/>
   </g>
   <g id="patch_37">
    <path clip-path="url(#p590c1d5592)" d="M 149.63599 307.584 
L 151.585217 307.584 
L 151.585217 267.405164 
L 149.63599 267.405164 
z
" style="fill:#fa9ba4;opacity:0.2;"/>
   </g>
   <g id="patch_38">
    <path clip-path="url(#p590c1d5592)" d="M 151.801798 307.584 
L 153.751024 307.584 
L 153.751024 299.722923 
L 151.801798 299.722923 
z
" style="fill:#fa9ba4;opacity:0.2;"/>
   </g>
   <g id="patch_39">
    <path clip-path="url(#p590c1d5592)" d="M 153.967605 307.584 
L 155.916832 307.584 
L 155.916832 298.84947 
L 153.967605 298.84947 
z
" style="fill:#fa9ba4;opacity:0.2;"/>
   </g>
   <g id="patch_40">
    <path clip-path="url(#p590c1d5592)" d="M 156.133413 307.584 
L 158.082639 307.584 
L 158.082639 244.404236 
L 156.133413 244.404236 
z
" style="fill:#fa9ba4;opacity:0.2;"/>
   </g>
   <g id="patch_41">
    <path clip-path="url(#p590c1d5592)" d="M 158.29922 307.584 
L 160.248447 307.584 
L 160.248447 260.126389 
L 158.29922 260.126389 
z
" style="fill:#fa9ba4;opacity:0.2;"/>
   </g>
   <g id="patch_42">
    <path clip-path="url(#p590c1d5592)" d="M 160.465028 307.584 
L 162.414254 307.584 
L 162.414254 264.493654 
L 160.465028 264.493654 
z
" style="fill:#fa9ba4;opacity:0.2;"/>
   </g>
   <g id="patch_43">
    <path clip-path="url(#p590c1d5592)" d="M 162.630835 307.584 
L 164.580062 307.584 
L 164.580062 264.493654 
L 162.630835 264.493654 
z
" style="fill:#fa9ba4;opacity:0.2;"/>
   </g>
   <g id="patch_44">
    <path clip-path="url(#p590c1d5592)" d="M 164.796643 307.584 
L 166.745869 307.584 
L 166.745869 41.472 
L 164.796643 41.472 
z
" style="fill:#fa9ba4;opacity:0.2;"/>
   </g>
   <g id="patch_45">
    <path clip-path="url(#p590c1d5592)" d="M 166.96245 307.584 
L 168.911677 307.584 
L 168.911677 76.99242 
L 166.96245 76.99242 
z
" style="fill:#fa9ba4;opacity:0.2;"/>
   </g>
   <g id="patch_46">
    <path clip-path="url(#p590c1d5592)" d="M 169.128258 307.584 
L 171.077484 307.584 
L 171.077484 94.170328 
L 169.128258 94.170328 
z
" style="fill:#fa9ba4;opacity:0.2;"/>
   </g>
   <g id="patch_47">
    <path clip-path="url(#p590c1d5592)" d="M 171.294065 307.584 
L 173.243292 307.584 
L 173.243292 85.144648 
L 171.294065 85.144648 
z
" style="fill:#fa9ba4;opacity:0.2;"/>
   </g>
   <g id="patch_48">
    <path clip-path="url(#p590c1d5592)" d="M 173.459873 307.584 
L 175.409099 307.584 
L 175.409099 50.497681 
L 173.459873 50.497681 
z
" style="fill:#fa9ba4;opacity:0.2;"/>
   </g>
   <g id="patch_49">
    <path clip-path="url(#p590c1d5592)" d="M 175.62568 307.584 
L 177.574907 307.584 
L 177.574907 74.372061 
L 175.62568 74.372061 
z
" style="fill:#fa9ba4;opacity:0.2;"/>
   </g>
   <g id="patch_50">
    <path clip-path="url(#p590c1d5592)" d="M 177.791488 307.584 
L 179.740714 307.584 
L 179.740714 70.587098 
L 177.791488 70.587098 
z
" style="fill:#fa9ba4;opacity:0.2;"/>
   </g>
   <g id="patch_51">
    <path clip-path="url(#p590c1d5592)" d="M 179.957295 307.584 
L 181.906522 307.584 
L 181.906522 78.448175 
L 179.957295 78.448175 
z
" style="fill:#fa9ba4;opacity:0.2;"/>
   </g>
   <g id="patch_52">
    <path clip-path="url(#p590c1d5592)" d="M 182.123103 307.584 
L 184.072329 307.584 
L 184.072329 81.359685 
L 182.123103 81.359685 
z
" style="fill:#fa9ba4;opacity:0.2;"/>
   </g>
   <g id="patch_53">
    <path clip-path="url(#p590c1d5592)" d="M 184.28891 307.584 
L 186.238137 307.584 
L 186.238137 78.739326 
L 184.28891 78.739326 
z
" style="fill:#fa9ba4;opacity:0.2;"/>
   </g>
   <g id="patch_54">
    <path clip-path="url(#p590c1d5592)" d="M 186.454718 307.584 
L 188.403944 307.584 
L 188.403944 148.03326 
L 186.454718 148.03326 
z
" style="fill:#fa9ba4;opacity:0.2;"/>
   </g>
   <g id="patch_55">
    <path clip-path="url(#p590c1d5592)" d="M 188.620525 307.584 
L 190.569752 307.584 
L 190.569752 176.566057 
L 188.620525 176.566057 
z
" style="fill:#fa9ba4;opacity:0.2;"/>
   </g>
   <g id="patch_56">
    <path clip-path="url(#p590c1d5592)" d="M 190.786333 307.584 
L 192.735559 307.584 
L 192.735559 248.771501 
L 190.786333 248.771501 
z
" style="fill:#fa9ba4;opacity:0.2;"/>
   </g>
   <g id="patch_57">
    <path clip-path="url(#p590c1d5592)" d="M 192.95214 307.584 
L 194.901367 307.584 
L 194.901367 260.126389 
L 192.95214 260.126389 
z
" style="fill:#fa9ba4;opacity:0.2;"/>
   </g>
   <g id="patch_58">
    <path clip-path="url(#p590c1d5592)" d="M 195.117948 307.584 
L 197.067174 307.584 
L 197.067174 261.290993 
L 195.117948 261.290993 
z
" style="fill:#fa9ba4;opacity:0.2;"/>
   </g>
   <g id="patch_59">
    <path clip-path="url(#p590c1d5592)" d="M 197.283755 307.584 
L 199.232982 307.584 
L 199.232982 269.15207 
L 197.283755 269.15207 
z
" style="fill:#fa9ba4;opacity:0.2;"/>
   </g>
   <g id="patch_60">
    <path clip-path="url(#p590c1d5592)" d="M 199.449563 307.584 
L 201.398789 307.584 
L 201.398789 270.025523 
L 199.449563 270.025523 
z
" style="fill:#fa9ba4;opacity:0.2;"/>
   </g>
   <g id="patch_61">
    <path clip-path="url(#p590c1d5592)" d="M 201.61537 307.584 
L 203.564597 307.584 
L 203.564597 279.924656 
L 201.61537 279.924656 
z
" style="fill:#fa9ba4;opacity:0.2;"/>
   </g>
   <g id="patch_62">
    <path clip-path="url(#p590c1d5592)" d="M 203.781178 307.584 
L 205.730405 307.584 
L 205.730405 292.152998 
L 203.781178 292.152998 
z
" style="fill:#fa9ba4;opacity:0.2;"/>
   </g>
   <g id="patch_63">
    <path clip-path="url(#p590c1d5592)" d="M 205.946985 307.584 
L 207.896212 307.584 
L 207.896212 294.773357 
L 205.946985 294.773357 
z
" style="fill:#fa9ba4;opacity:0.2;"/>
   </g>
   <g id="patch_64">
    <path clip-path="url(#p590c1d5592)" d="M 208.112793 307.584 
L 210.06202 307.584 
L 210.06202 287.494582 
L 208.112793 287.494582 
z
" style="fill:#fa9ba4;opacity:0.2;"/>
   </g>
   <g id="patch_65">
    <path clip-path="url(#p590c1d5592)" d="M 210.2786 307.584 
L 212.227827 307.584 
L 212.227827 302.925584 
L 210.2786 302.925584 
z
" style="fill:#fa9ba4;opacity:0.2;"/>
   </g>
   <g id="patch_66">
    <path clip-path="url(#p590c1d5592)" d="M 212.444408 307.584 
L 214.393635 307.584 
L 214.393635 286.329978 
L 212.444408 286.329978 
z
" style="fill:#fa9ba4;opacity:0.2;"/>
   </g>
   <g id="patch_67">
    <path clip-path="url(#p590c1d5592)" d="M 214.610215 307.584 
L 216.559442 307.584 
L 216.559442 281.962713 
L 214.610215 281.962713 
z
" style="fill:#fa9ba4;opacity:0.2;"/>
   </g>
   <g id="patch_68">
    <path clip-path="url(#p590c1d5592)" d="M 216.776023 307.584 
L 218.72525 307.584 
L 218.72525 286.91228 
L 216.776023 286.91228 
z
" style="fill:#fa9ba4;opacity:0.2;"/>
   </g>
   <g id="patch_69">
    <path clip-path="url(#p590c1d5592)" d="M 218.94183 307.584 
L 220.891057 307.584 
L 220.891057 297.393716 
L 218.94183 297.393716 
z
" style="fill:#fa9ba4;opacity:0.2;"/>
   </g>
   <g id="patch_70">
    <path clip-path="url(#p590c1d5592)" d="M 221.107638 307.584 
L 223.056865 307.584 
L 223.056865 290.114941 
L 221.107638 290.114941 
z
" style="fill:#fa9ba4;opacity:0.2;"/>
   </g>
   <g id="patch_71">
    <path clip-path="url(#p590c1d5592)" d="M 223.273445 307.584 
L 225.222672 307.584 
L 225.222672 297.976018 
L 223.273445 297.976018 
z
" style="fill:#fa9ba4;opacity:0.2;"/>
   </g>
   <g id="patch_72">
    <path clip-path="url(#p590c1d5592)" d="M 225.439253 307.584 
L 227.38848 307.584 
L 227.38848 291.861847 
L 225.439253 291.861847 
z
" style="fill:#fa9ba4;opacity:0.2;"/>
   </g>
   <g id="patch_73">
    <path clip-path="url(#p590c1d5592)" d="M 227.60506 307.584 
L 229.554287 307.584 
L 229.554287 291.279545 
L 227.60506 291.279545 
z
" style="fill:#fa9ba4;opacity:0.2;"/>
   </g>
   <g id="patch_74">
    <path clip-path="url(#p590c1d5592)" d="M 229.770868 307.584 
L 231.720095 307.584 
L 231.720095 298.84947 
L 229.770868 298.84947 
z
" style="fill:#fa9ba4;opacity:0.2;"/>
   </g>
   <g id="patch_75">
    <path clip-path="url(#p590c1d5592)" d="M 231.936675 307.584 
L 233.885902 307.584 
L 233.885902 302.052131 
L 231.936675 302.052131 
z
" style="fill:#fa9ba4;opacity:0.2;"/>
   </g>
   <g id="patch_76">
    <path clip-path="url(#p590c1d5592)" d="M 234.102483 307.584 
L 236.05171 307.584 
L 236.05171 296.811414 
L 234.102483 296.811414 
z
" style="fill:#fa9ba4;opacity:0.2;"/>
   </g>
   <g id="patch_77">
    <path clip-path="url(#p590c1d5592)" d="M 236.26829 307.584 
L 238.217517 307.584 
L 238.217517 293.317602 
L 236.26829 293.317602 
z
" style="fill:#fa9ba4;opacity:0.2;"/>
   </g>
   <g id="patch_78">
    <path clip-path="url(#p590c1d5592)" d="M 238.434098 307.584 
L 240.383325 307.584 
L 240.383325 302.052131 
L 238.434098 302.052131 
z
" style="fill:#fa9ba4;opacity:0.2;"/>
   </g>
   <g id="patch_79">
    <path clip-path="url(#p590c1d5592)" d="M 240.599905 307.584 
L 242.549132 307.584 
L 242.549132 300.596376 
L 240.599905 300.596376 
z
" style="fill:#fa9ba4;opacity:0.2;"/>
   </g>
   <g id="patch_80">
    <path clip-path="url(#p590c1d5592)" d="M 242.765713 307.584 
L 244.71494 307.584 
L 244.71494 304.090188 
L 242.765713 304.090188 
z
" style="fill:#fa9ba4;opacity:0.2;"/>
   </g>
   <g id="patch_81">
    <path clip-path="url(#p590c1d5592)" d="M 244.93152 307.584 
L 246.880747 307.584 
L 246.880747 297.102565 
L 244.93152 297.102565 
z
" style="fill:#fa9ba4;opacity:0.2;"/>
   </g>
   <g id="patch_82">
    <path clip-path="url(#p590c1d5592)" d="M 247.097328 307.584 
L 249.046555 307.584 
L 249.046555 293.026451 
L 247.097328 293.026451 
z
" style="fill:#fa9ba4;opacity:0.2;"/>
   </g>
   <g id="patch_83">
    <path clip-path="url(#p590c1d5592)" d="M 249.263135 307.584 
L 251.212362 307.584 
L 251.212362 295.64681 
L 249.263135 295.64681 
z
" style="fill:#fa9ba4;opacity:0.2;"/>
   </g>
   <g id="patch_84">
    <path clip-path="url(#p590c1d5592)" d="M 251.428943 307.584 
L 253.37817 307.584 
L 253.37817 293.899904 
L 251.428943 293.899904 
z
" style="fill:#fa9ba4;opacity:0.2;"/>
   </g>
   <g id="patch_85">
    <path clip-path="url(#p590c1d5592)" d="M 253.59475 307.584 
L 255.543977 307.584 
L 255.543977 295.937961 
L 253.59475 295.937961 
z
" style="fill:#fa9ba4;opacity:0.2;"/>
   </g>
   <g id="patch_86">
    <path clip-path="url(#p590c1d5592)" d="M 255.760558 307.584 
L 257.709785 307.584 
L 257.709785 296.520263 
L 255.760558 296.520263 
z
" style="fill:#fa9ba4;opacity:0.2;"/>
   </g>
   <g id="patch_87">
    <path clip-path="url(#p590c1d5592)" d="M 257.926365 307.584 
L 259.875592 307.584 
L 259.875592 302.052131 
L 257.926365 302.052131 
z
" style="fill:#fa9ba4;opacity:0.2;"/>
   </g>
   <g id="patch_88">
    <path clip-path="url(#p590c1d5592)" d="M 260.092173 307.584 
L 262.0414 307.584 
L 262.0414 296.520263 
L 260.092173 296.520263 
z
" style="fill:#fa9ba4;opacity:0.2;"/>
   </g>
   <g id="patch_89">
    <path clip-path="url(#p590c1d5592)" d="M 262.25798 307.584 
L 264.207207 307.584 
L 264.207207 297.393716 
L 262.25798 297.393716 
z
" style="fill:#fa9ba4;opacity:0.2;"/>
   </g>
   <g id="patch_90">
    <path clip-path="url(#p590c1d5592)" d="M 264.423788 307.584 
L 266.373015 307.584 
L 266.373015 293.608753 
L 264.423788 293.608753 
z
" style="fill:#fa9ba4;opacity:0.2;"/>
   </g>
   <g id="patch_91">
    <path clip-path="url(#p590c1d5592)" d="M 266.589595 307.584 
L 268.538822 307.584 
L 268.538822 295.064508 
L 266.589595 295.064508 
z
" style="fill:#fa9ba4;opacity:0.2;"/>
   </g>
   <g id="patch_92">
    <path clip-path="url(#p590c1d5592)" d="M 268.755403 307.584 
L 270.70463 307.584 
L 270.70463 296.229112 
L 268.755403 296.229112 
z
" style="fill:#fa9ba4;opacity:0.2;"/>
   </g>
   <g id="patch_93">
    <path clip-path="url(#p590c1d5592)" d="M 270.921211 307.584 
L 272.870437 307.584 
L 272.870437 297.684867 
L 270.921211 297.684867 
z
" style="fill:#fa9ba4;opacity:0.2;"/>
   </g>
   <g id="patch_94">
    <path clip-path="url(#p590c1d5592)" d="M 273.087018 307.584 
L 275.036245 307.584 
L 275.036245 297.976018 
L 273.087018 297.976018 
z
" style="fill:#fa9ba4;opacity:0.2;"/>
   </g>
   <g id="patch_95">
    <path clip-path="url(#p590c1d5592)" d="M 275.252826 307.584 
L 277.202052 307.584 
L 277.202052 295.937961 
L 275.252826 295.937961 
z
" style="fill:#fa9ba4;opacity:0.2;"/>
   </g>
   <g id="patch_96">
    <path clip-path="url(#p590c1d5592)" d="M 277.418633 307.584 
L 279.36786 307.584 
L 279.36786 293.899904 
L 277.418633 293.899904 
z
" style="fill:#fa9ba4;opacity:0.2;"/>
   </g>
   <g id="patch_97">
    <path clip-path="url(#p590c1d5592)" d="M 279.584441 307.584 
L 281.533667 307.584 
L 281.533667 296.520263 
L 279.584441 296.520263 
z
" style="fill:#fa9ba4;opacity:0.2;"/>
   </g>
   <g id="patch_98">
    <path clip-path="url(#p590c1d5592)" d="M 281.750248 307.584 
L 283.699475 307.584 
L 283.699475 295.64681 
L 281.750248 295.64681 
z
" style="fill:#fa9ba4;opacity:0.2;"/>
   </g>
   <g id="patch_99">
    <path clip-path="url(#p590c1d5592)" d="M 283.916056 307.584 
L 285.865282 307.584 
L 285.865282 297.976018 
L 283.916056 297.976018 
z
" style="fill:#fa9ba4;opacity:0.2;"/>
   </g>
   <g id="patch_100">
    <path clip-path="url(#p590c1d5592)" d="M 286.081863 307.584 
L 288.03109 307.584 
L 288.03109 302.634433 
L 286.081863 302.634433 
z
" style="fill:#fa9ba4;opacity:0.2;"/>
   </g>
   <g id="patch_101">
    <path clip-path="url(#p590c1d5592)" d="M 288.247671 307.584 
L 290.196897 307.584 
L 290.196897 304.963641 
L 288.247671 304.963641 
z
" style="fill:#fa9ba4;opacity:0.2;"/>
   </g>
   <g id="patch_102">
    <path clip-path="url(#p590c1d5592)" d="M 290.413478 307.584 
L 292.362705 307.584 
L 292.362705 303.216735 
L 290.413478 303.216735 
z
" style="fill:#fa9ba4;opacity:0.2;"/>
   </g>
   <g id="patch_103">
    <path clip-path="url(#p590c1d5592)" d="M 292.579286 307.584 
L 294.528512 307.584 
L 294.528512 302.634433 
L 292.579286 302.634433 
z
" style="fill:#fa9ba4;opacity:0.2;"/>
   </g>
   <g id="patch_104">
    <path clip-path="url(#p590c1d5592)" d="M 294.745093 307.584 
L 296.69432 307.584 
L 296.69432 303.216735 
L 294.745093 303.216735 
z
" style="fill:#fa9ba4;opacity:0.2;"/>
   </g>
   <g id="patch_105">
    <path clip-path="url(#p590c1d5592)" d="M 296.910901 307.584 
L 298.860127 307.584 
L 298.860127 302.925584 
L 296.910901 302.925584 
z
" style="fill:#fa9ba4;opacity:0.2;"/>
   </g>
   <g id="patch_106">
    <path clip-path="url(#p590c1d5592)" d="M 299.076708 307.584 
L 301.025935 307.584 
L 301.025935 304.67249 
L 299.076708 304.67249 
z
" style="fill:#fa9ba4;opacity:0.2;"/>
   </g>
   <g id="patch_107">
    <path clip-path="url(#p590c1d5592)" d="M 301.242516 307.584 
L 303.191742 307.584 
L 303.191742 305.254792 
L 301.242516 305.254792 
z
" style="fill:#fa9ba4;opacity:0.2;"/>
   </g>
   <g id="patch_108">
    <path clip-path="url(#p590c1d5592)" d="M 303.408323 307.584 
L 305.35755 307.584 
L 305.35755 304.381339 
L 303.408323 304.381339 
z
" style="fill:#fa9ba4;opacity:0.2;"/>
   </g>
   <g id="patch_109">
    <path clip-path="url(#p590c1d5592)" d="M 305.574131 307.584 
L 307.523357 307.584 
L 307.523357 304.381339 
L 305.574131 304.381339 
z
" style="fill:#fa9ba4;opacity:0.2;"/>
   </g>
   <g id="patch_110">
    <path clip-path="url(#p590c1d5592)" d="M 307.739938 307.584 
L 309.689165 307.584 
L 309.689165 303.507886 
L 307.739938 303.507886 
z
" style="fill:#fa9ba4;opacity:0.2;"/>
   </g>
   <g id="patch_111">
    <path clip-path="url(#p590c1d5592)" d="M 309.905746 307.584 
L 311.854972 307.584 
L 311.854972 304.090188 
L 309.905746 304.090188 
z
" style="fill:#fa9ba4;opacity:0.2;"/>
   </g>
   <g id="patch_112">
    <path clip-path="url(#p590c1d5592)" d="M 312.071553 307.584 
L 314.02078 307.584 
L 314.02078 303.799037 
L 312.071553 303.799037 
z
" style="fill:#fa9ba4;opacity:0.2;"/>
   </g>
   <g id="patch_113">
    <path clip-path="url(#p590c1d5592)" d="M 314.237361 307.584 
L 316.186587 307.584 
L 316.186587 306.419396 
L 314.237361 306.419396 
z
" style="fill:#fa9ba4;opacity:0.2;"/>
   </g>
   <g id="patch_114">
    <path clip-path="url(#p590c1d5592)" d="M 316.403168 307.584 
L 318.352395 307.584 
L 318.352395 305.545943 
L 316.403168 305.545943 
z
" style="fill:#fa9ba4;opacity:0.2;"/>
   </g>
   <g id="patch_115">
    <path clip-path="url(#p590c1d5592)" d="M 318.568976 307.584 
L 320.518202 307.584 
L 320.518202 304.090188 
L 318.568976 304.090188 
z
" style="fill:#fa9ba4;opacity:0.2;"/>
   </g>
   <g id="patch_116">
    <path clip-path="url(#p590c1d5592)" d="M 320.734783 307.584 
L 322.68401 307.584 
L 322.68401 304.963641 
L 320.734783 304.963641 
z
" style="fill:#fa9ba4;opacity:0.2;"/>
   </g>
   <g id="patch_117">
    <path clip-path="url(#p590c1d5592)" d="M 322.900591 307.584 
L 324.849817 307.584 
L 324.849817 304.963641 
L 322.900591 304.963641 
z
" style="fill:#fa9ba4;opacity:0.2;"/>
   </g>
   <g id="patch_118">
    <path clip-path="url(#p590c1d5592)" d="M 325.066398 307.584 
L 327.015625 307.584 
L 327.015625 305.254792 
L 325.066398 305.254792 
z
" style="fill:#fa9ba4;opacity:0.2;"/>
   </g>
   <g id="patch_119">
    <path clip-path="url(#p590c1d5592)" d="M 327.232206 307.584 
L 329.181432 307.584 
L 329.181432 305.254792 
L 327.232206 305.254792 
z
" style="fill:#fa9ba4;opacity:0.2;"/>
   </g>
   <g id="patch_120">
    <path clip-path="url(#p590c1d5592)" d="M 329.398013 307.584 
L 331.34724 307.584 
L 331.34724 300.305225 
L 329.398013 300.305225 
z
" style="fill:#fa9ba4;opacity:0.2;"/>
   </g>
   <g id="patch_121">
    <path clip-path="url(#p590c1d5592)" d="M 331.563821 307.584 
L 333.513047 307.584 
L 333.513047 297.684867 
L 331.563821 297.684867 
z
" style="fill:#fa9ba4;opacity:0.2;"/>
   </g>
   <g id="patch_122">
    <path clip-path="url(#p590c1d5592)" d="M 333.729628 307.584 
L 335.678855 307.584 
L 335.678855 300.887527 
L 333.729628 300.887527 
z
" style="fill:#fa9ba4;opacity:0.2;"/>
   </g>
   <g id="patch_123">
    <path clip-path="url(#p590c1d5592)" d="M 335.895436 307.584 
L 337.844663 307.584 
L 337.844663 294.191055 
L 335.895436 294.191055 
z
" style="fill:#fa9ba4;opacity:0.2;"/>
   </g>
   <g id="patch_124">
    <path clip-path="url(#p590c1d5592)" d="M 338.061243 307.584 
L 340.01047 307.584 
L 340.01047 293.608753 
L 338.061243 293.608753 
z
" style="fill:#fa9ba4;opacity:0.2;"/>
   </g>
   <g id="patch_125">
    <path clip-path="url(#p590c1d5592)" d="M 340.227051 307.584 
L 342.176278 307.584 
L 342.176278 296.811414 
L 340.227051 296.811414 
z
" style="fill:#fa9ba4;opacity:0.2;"/>
   </g>
   <g id="patch_126">
    <path clip-path="url(#p590c1d5592)" d="M 342.392858 307.584 
L 344.342085 307.584 
L 344.342085 302.343282 
L 342.392858 302.343282 
z
" style="fill:#fa9ba4;opacity:0.2;"/>
   </g>
   <g id="patch_127">
    <path clip-path="url(#p590c1d5592)" d="M 344.558666 307.584 
L 346.507893 307.584 
L 346.507893 298.267168 
L 344.558666 298.267168 
z
" style="fill:#fa9ba4;opacity:0.2;"/>
   </g>
   <g id="patch_128">
    <path clip-path="url(#p590c1d5592)" d="M 346.724473 307.584 
L 348.6737 307.584 
L 348.6737 295.064508 
L 346.724473 295.064508 
z
" style="fill:#fa9ba4;opacity:0.2;"/>
   </g>
   <g id="patch_129">
    <path clip-path="url(#p590c1d5592)" d="M 348.890281 307.584 
L 350.839508 307.584 
L 350.839508 291.861847 
L 348.890281 291.861847 
z
" style="fill:#fa9ba4;opacity:0.2;"/>
   </g>
   <g id="patch_130">
    <path clip-path="url(#p590c1d5592)" d="M 351.056088 307.584 
L 353.005315 307.584 
L 353.005315 298.84947 
L 351.056088 298.84947 
z
" style="fill:#fa9ba4;opacity:0.2;"/>
   </g>
   <g id="patch_131">
    <path clip-path="url(#p590c1d5592)" d="M 353.221896 307.584 
L 355.171123 307.584 
L 355.171123 293.608753 
L 353.221896 293.608753 
z
" style="fill:#fa9ba4;opacity:0.2;"/>
   </g>
   <g id="patch_132">
    <path clip-path="url(#p590c1d5592)" d="M 355.387703 307.584 
L 357.33693 307.584 
L 357.33693 290.988394 
L 355.387703 290.988394 
z
" style="fill:#fa9ba4;opacity:0.2;"/>
   </g>
   <g id="patch_133">
    <path clip-path="url(#p590c1d5592)" d="M 357.553511 307.584 
L 359.502738 307.584 
L 359.502738 292.444149 
L 357.553511 292.444149 
z
" style="fill:#fa9ba4;opacity:0.2;"/>
   </g>
   <g id="patch_134">
    <path clip-path="url(#p590c1d5592)" d="M 359.719318 307.584 
L 361.668545 307.584 
L 361.668545 291.279545 
L 359.719318 291.279545 
z
" style="fill:#fa9ba4;opacity:0.2;"/>
   </g>
   <g id="patch_135">
    <path clip-path="url(#p590c1d5592)" d="M 361.885126 307.584 
L 363.834353 307.584 
L 363.834353 289.82379 
L 361.885126 289.82379 
z
" style="fill:#fa9ba4;opacity:0.2;"/>
   </g>
   <g id="patch_136">
    <path clip-path="url(#p590c1d5592)" d="M 364.050933 307.584 
L 366.00016 307.584 
L 366.00016 290.406092 
L 364.050933 290.406092 
z
" style="fill:#fa9ba4;opacity:0.2;"/>
   </g>
   <g id="patch_137">
    <path clip-path="url(#p590c1d5592)" d="M 366.216741 307.584 
L 368.165968 307.584 
L 368.165968 296.229112 
L 366.216741 296.229112 
z
" style="fill:#fa9ba4;opacity:0.2;"/>
   </g>
   <g id="patch_138">
    <path clip-path="url(#p590c1d5592)" d="M 368.382548 307.584 
L 370.331775 307.584 
L 370.331775 293.608753 
L 368.382548 293.608753 
z
" style="fill:#fa9ba4;opacity:0.2;"/>
   </g>
   <g id="patch_139">
    <path clip-path="url(#p590c1d5592)" d="M 370.548356 307.584 
L 372.497583 307.584 
L 372.497583 294.191055 
L 370.548356 294.191055 
z
" style="fill:#fa9ba4;opacity:0.2;"/>
   </g>
   <g id="patch_140">
    <path clip-path="url(#p590c1d5592)" d="M 372.714163 307.584 
L 374.66339 307.584 
L 374.66339 292.444149 
L 372.714163 292.444149 
z
" style="fill:#fa9ba4;opacity:0.2;"/>
   </g>
   <g id="patch_141">
    <path clip-path="url(#p590c1d5592)" d="M 374.879971 307.584 
L 376.829198 307.584 
L 376.829198 294.482206 
L 374.879971 294.482206 
z
" style="fill:#fa9ba4;opacity:0.2;"/>
   </g>
   <g id="patch_142">
    <path clip-path="url(#p590c1d5592)" d="M 377.045778 307.584 
L 378.995005 307.584 
L 378.995005 291.570696 
L 377.045778 291.570696 
z
" style="fill:#fa9ba4;opacity:0.2;"/>
   </g>
   <g id="patch_143">
    <path clip-path="url(#p590c1d5592)" d="M 379.211586 307.584 
L 381.160813 307.584 
L 381.160813 292.7353 
L 379.211586 292.7353 
z
" style="fill:#fa9ba4;opacity:0.2;"/>
   </g>
   <g id="patch_144">
    <path clip-path="url(#p590c1d5592)" d="M 381.377393 307.584 
L 383.32662 307.584 
L 383.32662 288.659186 
L 381.377393 288.659186 
z
" style="fill:#fa9ba4;opacity:0.2;"/>
   </g>
   <g id="patch_145">
    <path clip-path="url(#p590c1d5592)" d="M 383.543201 307.584 
L 385.492428 307.584 
L 385.492428 287.494582 
L 383.543201 287.494582 
z
" style="fill:#fa9ba4;opacity:0.2;"/>
   </g>
   <g id="patch_146">
    <path clip-path="url(#p590c1d5592)" d="M 385.709008 307.584 
L 387.658235 307.584 
L 387.658235 285.165374 
L 385.709008 285.165374 
z
" style="fill:#fa9ba4;opacity:0.2;"/>
   </g>
   <g id="patch_147">
    <path clip-path="url(#p590c1d5592)" d="M 387.874816 307.584 
L 389.824043 307.584 
L 389.824043 279.924656 
L 387.874816 279.924656 
z
" style="fill:#fa9ba4;opacity:0.2;"/>
   </g>
   <g id="patch_148">
    <path clip-path="url(#p590c1d5592)" d="M 390.040623 307.584 
L 391.98985 307.584 
L 391.98985 282.836166 
L 390.040623 282.836166 
z
" style="fill:#fa9ba4;opacity:0.2;"/>
   </g>
   <g id="patch_149">
    <path clip-path="url(#p590c1d5592)" d="M 392.206431 307.584 
L 394.155658 307.584 
L 394.155658 297.393716 
L 392.206431 297.393716 
z
" style="fill:#fa9ba4;opacity:0.2;"/>
   </g>
   <g id="patch_150">
    <path clip-path="url(#p590c1d5592)" d="M 394.372238 307.584 
L 396.321465 307.584 
L 396.321465 297.102565 
L 394.372238 297.102565 
z
" style="fill:#fa9ba4;opacity:0.2;"/>
   </g>
   <g id="patch_151">
    <path clip-path="url(#p590c1d5592)" d="M 396.538046 307.584 
L 398.487273 307.584 
L 398.487273 290.988394 
L 396.538046 290.988394 
z
" style="fill:#fa9ba4;opacity:0.2;"/>
   </g>
   <g id="matplotlib.axis_1"/>
   <g id="matplotlib.axis_2"/>
   <g id="PolyCollection_1">
    <defs>
     <path d="M 369.357162 -53.488595 
L 369.357162 -38.016 
L 371.522969 -38.016 
L 373.688777 -38.016 
L 375.854584 -38.016 
L 378.020392 -38.016 
L 380.186199 -38.016 
L 382.352007 -38.016 
L 384.517814 -38.016 
L 386.683622 -38.016 
L 388.849429 -38.016 
L 391.015237 -38.016 
L 393.181044 -38.016 
L 395.346852 -38.016 
L 397.512659 -38.016 
L 397.512659 -56.899221 
L 397.512659 -56.899221 
L 395.346852 -57.231965 
L 393.181044 -57.85586 
L 391.015237 -58.68772 
L 388.849429 -57.024 
L 386.683622 -55.235501 
L 384.517814 -53.946118 
L 382.352007 -53.072665 
L 380.186199 -51.991247 
L 378.020392 -52.323991 
L 375.854584 -52.573549 
L 373.688777 -53.031072 
L 371.522969 -53.031072 
L 369.357162 -53.488595 
z
" id="m209b82c688" style="stroke:#dc3545;stroke-opacity:0.5;"/>
    </defs>
    <g clip-path="url(#p590c1d5592)">
     <use style="fill:#dc3545;fill-opacity:0.5;stroke:#dc3545;stroke-opacity:0.5;" x="0" xlink:href="#m209b82c688" y="345.6"/>
    </g>
   </g>
   <g id="PolyCollection_2">
    <defs>
     <path d="M 87.802186 -75.990407 
L 87.802186 -38.016 
L 89.967993 -38.016 
L 92.133801 -38.016 
L 94.299608 -38.016 
L 96.465416 -38.016 
L 98.631223 -38.016 
L 100.797031 -38.016 
L 102.962838 -38.016 
L 105.128646 -38.016 
L 107.294453 -38.016 
L 109.460261 -38.016 
L 111.626068 -38.016 
L 113.791876 -38.016 
L 115.957683 -38.016 
L 118.123491 -38.016 
L 120.289298 -38.016 
L 122.455106 -38.016 
L 124.620913 -38.016 
L 126.786721 -38.016 
L 128.952528 -38.016 
L 131.118336 -38.016 
L 133.284143 -38.016 
L 135.449951 -38.016 
L 137.615758 -38.016 
L 139.781566 -38.016 
L 141.947373 -38.016 
L 144.113181 -38.016 
L 146.278988 -38.016 
L 148.444796 -38.016 
L 150.610603 -38.016 
L 152.776411 -38.016 
L 154.942218 -38.016 
L 157.108026 -38.016 
L 159.273833 -38.016 
L 161.439641 -38.016 
L 163.605448 -38.016 
L 165.771256 -38.016 
L 167.937063 -38.016 
L 170.102871 -38.016 
L 172.268679 -38.016 
L 174.434486 -38.016 
L 176.600294 -38.016 
L 178.766101 -38.016 
L 180.931909 -38.016 
L 183.097716 -38.016 
L 185.263524 -38.016 
L 187.429331 -38.016 
L 189.595139 -38.016 
L 191.760946 -38.016 
L 193.926754 -38.016 
L 196.092561 -38.016 
L 198.258369 -38.016 
L 200.424176 -38.016 
L 202.589984 -38.016 
L 204.755791 -38.016 
L 206.921599 -38.016 
L 209.087406 -38.016 
L 211.253214 -38.016 
L 213.419021 -38.016 
L 215.584829 -38.016 
L 217.750636 -38.016 
L 219.916444 -38.016 
L 222.082251 -38.016 
L 224.248059 -38.016 
L 226.413866 -38.016 
L 228.579674 -38.016 
L 230.745481 -38.016 
L 232.911289 -38.016 
L 235.077096 -38.016 
L 237.242904 -38.016 
L 239.408711 -38.016 
L 241.574519 -38.016 
L 243.740326 -38.016 
L 245.906134 -38.016 
L 248.071941 -38.016 
L 250.237749 -38.016 
L 252.403556 -38.016 
L 254.569364 -38.016 
L 256.735171 -38.016 
L 258.900979 -38.016 
L 261.066786 -38.016 
L 263.232594 -38.016 
L 265.398401 -38.016 
L 267.564209 -38.016 
L 269.730016 -38.016 
L 271.895824 -38.016 
L 274.061631 -38.016 
L 276.227439 -38.016 
L 278.393246 -38.016 
L 280.559054 -38.016 
L 282.724861 -38.016 
L 284.890669 -38.016 
L 287.056476 -38.016 
L 289.222284 -38.016 
L 291.388091 -38.016 
L 293.553899 -38.016 
L 295.719706 -38.016 
L 297.885514 -38.016 
L 300.051321 -38.016 
L 302.217129 -38.016 
L 304.382937 -38.016 
L 306.548744 -38.016 
L 308.714552 -38.016 
L 310.880359 -38.016 
L 313.046167 -38.016 
L 315.211974 -38.016 
L 317.377782 -38.016 
L 319.543589 -38.016 
L 321.709397 -38.016 
L 323.875204 -38.016 
L 326.041012 -38.016 
L 328.206819 -38.016 
L 330.372627 -38.016 
L 332.538434 -38.016 
L 334.704242 -38.016 
L 336.870049 -38.016 
L 339.035857 -38.016 
L 341.201664 -38.016 
L 343.367472 -38.016 
L 345.533279 -38.016 
L 347.699087 -38.016 
L 349.864894 -38.016 
L 352.030702 -38.016 
L 354.196509 -38.016 
L 356.362317 -38.016 
L 358.528124 -38.016 
L 360.693932 -38.016 
L 362.859739 -38.016 
L 365.025547 -38.016 
L 367.191354 -38.016 
L 369.357162 -38.016 
L 369.357162 -53.488595 
L 369.357162 -53.488595 
L 367.191354 -53.488595 
L 365.025547 -53.114258 
L 362.859739 -52.906293 
L 360.693932 -52.157619 
L 358.528124 -51.159387 
L 356.362317 -49.745225 
L 354.196509 -48.913365 
L 352.030702 -48.913365 
L 349.864894 -49.578853 
L 347.699087 -48.28947 
L 345.533279 -47.915133 
L 343.367472 -47.623982 
L 341.201664 -47.208053 
L 339.035857 -46.001856 
L 336.870049 -44.379729 
L 334.704242 -42.840788 
L 332.538434 -42.383265 
L 330.372627 -41.260254 
L 328.206819 -40.386801 
L 326.041012 -40.594766 
L 323.875204 -40.761138 
L 321.709397 -40.969103 
L 319.543589 -41.052289 
L 317.377782 -41.010696 
L 315.211974 -41.052289 
L 313.046167 -41.301847 
L 310.880359 -41.426626 
L 308.714552 -41.551405 
L 306.548744 -41.676184 
L 304.382937 -41.842556 
L 302.217129 -41.75937 
L 300.051321 -42.133707 
L 297.885514 -43.090346 
L 295.719706 -44.130171 
L 293.553899 -45.08681 
L 291.388091 -46.3346 
L 289.222284 -47.374425 
L 287.056476 -48.372656 
L 284.890669 -49.079737 
L 282.724861 -49.329295 
L 280.559054 -49.412481 
L 278.393246 -49.828411 
L 276.227439 -49.329295 
L 274.061631 -49.246109 
L 271.895824 -48.663807 
L 269.730016 -48.830179 
L 267.564209 -48.871772 
L 265.398401 -49.038144 
L 263.232594 -48.746993 
L 261.066786 -49.370888 
L 258.900979 -49.287702 
L 256.735171 -48.996551 
L 254.569364 -48.414249 
L 252.403556 -47.540796 
L 250.237749 -47.623982 
L 248.071941 -47.457611 
L 245.906134 -46.168228 
L 243.740326 -45.91867 
L 241.574519 -47.748761 
L 239.408711 -48.996551 
L 237.242904 -49.578853 
L 235.077096 -50.036376 
L 232.911289 -49.95319 
L 230.745481 -52.116026 
L 228.579674 -54.52842 
L 226.413866 -55.235501 
L 224.248059 -53.654967 
L 222.082251 -55.152315 
L 219.916444 -54.486827 
L 217.750636 -55.235501 
L 215.584829 -56.233733 
L 213.419021 -57.939046 
L 211.253214 -60.393033 
L 209.087406 -66.340832 
L 206.921599 -70.250573 
L 204.755791 -76.822267 
L 202.589984 -93.334687 
L 200.424176 -112.176315 
L 198.258369 -139.502915 
L 196.092561 -166.330398 
L 193.926754 -192.450801 
L 191.760946 -219.527842 
L 189.595139 -244.442048 
L 187.429331 -262.451816 
L 185.263524 -271.435904 
L 183.097716 -269.231475 
L 180.931909 -269.85537 
L 178.766101 -275.137681 
L 176.600294 -247.436744 
L 174.434486 -220.276516 
L 172.268679 -190.329558 
L 170.102871 -167.578188 
L 167.937063 -138.338311 
L 165.771256 -106.519667 
L 163.605448 -74.243501 
L 161.439641 -81.397497 
L 159.273833 -88.551492 
L 157.108026 -88.634678 
L 154.942218 -83.726705 
L 152.776411 -91.130258 
L 150.610603 -91.463002 
L 148.444796 -93.043536 
L 146.278988 -83.061217 
L 144.113181 -72.787746 
L 141.947373 -67.838179 
L 139.781566 -66.132867 
L 137.615758 -63.554101 
L 135.449951 -64.885077 
L 133.284143 -77.113418 
L 131.118336 -96.28779 
L 128.952528 -95.539116 
L 126.786721 -96.412569 
L 124.620913 -98.36744 
L 122.455106 -93.459466 
L 120.289298 -91.338223 
L 118.123491 -71.914293 
L 115.957683 -50.036376 
L 113.791876 -48.539028 
L 111.626068 -47.000088 
L 109.460261 -44.088578 
L 107.294453 -43.547869 
L 105.128646 -42.882381 
L 102.962838 -59.270022 
L 100.797031 -73.910757 
L 98.631223 -95.289558 
L 96.465416 -94.540884 
L 94.299608 -93.126722 
L 92.133801 -92.502827 
L 89.967993 -92.502827 
L 87.802186 -75.990407 
z
" id="m3421d80651" style="stroke:#fa9ba4;stroke-opacity:0.3;"/>
    </defs>
    <g clip-path="url(#p590c1d5592)">
     <use style="fill:#fa9ba4;fill-opacity:0.3;stroke:#fa9ba4;stroke-opacity:0.3;" x="0" xlink:href="#m3421d80651" y="345.6"/>
    </g>
   </g>
   <g id="line2d_1">
    <path clip-path="url(#p590c1d5592)" d="M 87.802186 269.609593 
L 89.967993 253.097173 
L 92.133801 253.097173 
L 94.299608 252.473278 
L 96.465416 251.059116 
L 98.631223 250.310442 
L 100.797031 271.689243 
L 102.962838 286.329978 
L 105.128646 302.717619 
L 107.294453 302.052131 
L 109.460261 301.511422 
L 111.626068 298.599912 
L 115.957683 295.563624 
L 118.123491 273.685707 
L 120.289298 254.261777 
L 122.455106 252.140534 
L 124.620913 247.23256 
L 126.786721 249.187431 
L 128.952528 250.060884 
L 131.118336 249.31221 
L 133.284143 268.486582 
L 135.449951 280.714923 
L 137.615758 282.045899 
L 139.781566 279.467133 
L 141.947373 277.761821 
L 144.113181 272.812254 
L 148.444796 252.556464 
L 150.610603 254.136998 
L 152.776411 254.469742 
L 154.942218 261.873295 
L 157.108026 256.965322 
L 159.273833 257.048508 
L 163.605448 271.356499 
L 167.937063 207.261689 
L 170.102871 178.021812 
L 172.268679 155.270442 
L 174.434486 125.323484 
L 178.766101 70.462319 
L 180.931909 75.74463 
L 183.097716 76.368525 
L 185.263524 74.164096 
L 187.429331 83.148184 
L 189.595139 101.157952 
L 191.760946 126.072158 
L 200.424176 233.423685 
L 202.589984 252.265313 
L 204.755791 268.777733 
L 206.921599 275.349427 
L 209.087406 279.259168 
L 211.253214 285.206967 
L 213.419021 287.660954 
L 215.584829 289.366267 
L 217.750636 290.364499 
L 219.916444 291.113173 
L 222.082251 290.447685 
L 224.248059 291.945033 
L 226.413866 290.364499 
L 228.579674 291.07158 
L 230.745481 293.483974 
L 232.911289 295.64681 
L 235.077096 295.563624 
L 237.242904 296.021147 
L 239.408711 296.603449 
L 241.574519 297.851239 
L 243.740326 299.68133 
L 245.906134 299.431772 
L 248.071941 298.142389 
L 250.237749 297.976018 
L 252.403556 298.059204 
L 254.569364 297.185751 
L 256.735171 296.603449 
L 258.900979 296.312298 
L 261.066786 296.229112 
L 263.232594 296.853007 
L 265.398401 296.561856 
L 267.564209 296.728228 
L 269.730016 296.769821 
L 271.895824 296.936193 
L 274.061631 296.353891 
L 276.227439 296.270705 
L 278.393246 295.771589 
L 280.559054 296.187519 
L 282.724861 296.270705 
L 284.890669 296.520263 
L 287.056476 297.227344 
L 291.388091 299.2654 
L 293.553899 300.51319 
L 300.051321 303.466293 
L 302.217129 303.84063 
L 304.382937 303.757444 
L 310.880359 304.173374 
L 313.046167 304.298153 
L 315.211974 304.547711 
L 321.709397 304.630897 
L 328.206819 305.213199 
L 330.372627 304.339746 
L 332.538434 303.216735 
L 334.704242 302.759212 
L 339.035857 299.598144 
L 341.201664 298.391947 
L 343.367472 297.976018 
L 347.699087 297.31053 
L 349.864894 296.021147 
L 352.030702 296.686635 
L 354.196509 296.686635 
L 356.362317 295.854775 
L 358.528124 294.440613 
L 360.693932 293.442381 
L 362.859739 292.693707 
L 365.025547 292.485742 
L 367.191354 292.111405 
L 369.357162 292.111405 
L 371.522969 292.568928 
L 373.688777 292.568928 
L 375.854584 293.026451 
L 380.186199 293.608753 
L 382.352007 292.527335 
L 384.517814 291.653882 
L 386.683622 290.364499 
L 391.015237 286.91228 
L 393.181044 287.74414 
L 395.346852 288.368035 
L 397.512659 288.700779 
L 397.512659 288.700779 
" style="fill:none;stroke:#fa9ba4;stroke-linecap:square;stroke-width:2;"/>
   </g>
   <g id="line2d_2">
    <path clip-path="url(#p590c1d5592)" d="M 369.357162 292.111405 
L 371.522969 292.568928 
L 373.688777 292.568928 
L 375.854584 293.026451 
L 378.020392 293.276009 
L 380.186199 293.608753 
L 382.352007 292.527335 
L 384.517814 291.653882 
L 386.683622 290.364499 
L 388.849429 288.576 
L 391.015237 286.91228 
L 393.181044 287.74414 
L 395.346852 288.368035 
L 397.512659 288.700779 
" style="fill:none;stroke:#dc3545;stroke-linecap:square;stroke-width:2;"/>
   </g>
  </g>
 </g>
 <defs>
  <clipPath id="p590c1d5592">
   <rect height="266.112" width="357.12" x="57.6" y="41.472"/>
  </clipPath>
 </defs>
</svg>
