<?xml version="1.0" encoding="utf-8" standalone="no"?>
<!DOCTYPE svg PUBLIC "-//W3C//DTD SVG 1.1//EN"
  "http://www.w3.org/Graphics/SVG/1.1/DTD/svg11.dtd">
<!-- Created with matplotlib (https://matplotlib.org/) -->
<svg height="288pt" version="1.1" viewBox="0 0 432 288" width="432pt" xmlns="http://www.w3.org/2000/svg" xmlns:xlink="http://www.w3.org/1999/xlink">
 <defs>
  <style type="text/css">
*{stroke-linecap:butt;stroke-linejoin:round;}
  </style>
 </defs>
 <g id="figure_1">
  <g id="patch_1">
   <path d="M 0 288 
L 432 288 
L 432 0 
L 0 0 
z
" style="fill:none;"/>
  </g>
  <g id="axes_1">
   <g id="patch_2">
    <path clip-path="url(#p475c702d6d)" d="M 69.218182 252 
L 77.805244 252 
L 77.805244 252 
L 69.218182 252 
z
" style="fill:#fa9ba4;opacity:0.2;"/>
   </g>
   <g id="patch_3">
    <path clip-path="url(#p475c702d6d)" d="M 78.759362 252 
L 87.346423 252 
L 87.346423 252 
L 78.759362 252 
z
" style="fill:#fa9ba4;opacity:0.2;"/>
   </g>
   <g id="patch_4">
    <path clip-path="url(#p475c702d6d)" d="M 88.300541 252 
L 96.887603 252 
L 96.887603 252 
L 88.300541 252 
z
" style="fill:#fa9ba4;opacity:0.2;"/>
   </g>
   <g id="patch_5">
    <path clip-path="url(#p475c702d6d)" d="M 97.841721 252 
L 106.428783 252 
L 106.428783 251.598078 
L 97.841721 251.598078 
z
" style="fill:#fa9ba4;opacity:0.2;"/>
   </g>
   <g id="patch_6">
    <path clip-path="url(#p475c702d6d)" d="M 107.382901 252 
L 115.969963 252 
L 115.969963 247.176932 
L 107.382901 247.176932 
z
" style="fill:#fa9ba4;opacity:0.2;"/>
   </g>
   <g id="patch_7">
    <path clip-path="url(#p475c702d6d)" d="M 116.924081 252 
L 125.511143 252 
L 125.511143 37.775379 
L 116.924081 37.775379 
z
" style="fill:#fa9ba4;opacity:0.2;"/>
   </g>
   <g id="patch_8">
    <path clip-path="url(#p475c702d6d)" d="M 126.465261 252 
L 135.052323 252 
L 135.052323 104.494492 
L 126.465261 104.494492 
z
" style="fill:#fa9ba4;opacity:0.2;"/>
   </g>
   <g id="patch_9">
    <path clip-path="url(#p475c702d6d)" d="M 136.006441 252 
L 144.593502 252 
L 144.593502 92.436821 
L 136.006441 92.436821 
z
" style="fill:#fa9ba4;opacity:0.2;"/>
   </g>
   <g id="patch_10">
    <path clip-path="url(#p475c702d6d)" d="M 145.54762 252 
L 154.134682 252 
L 154.134682 252 
L 145.54762 252 
z
" style="fill:#fa9ba4;opacity:0.2;"/>
   </g>
   <g id="patch_11">
    <path clip-path="url(#p475c702d6d)" d="M 155.0888 252 
L 163.675862 252 
L 163.675862 245.971165 
L 155.0888 245.971165 
z
" style="fill:#fa9ba4;opacity:0.2;"/>
   </g>
   <g id="patch_12">
    <path clip-path="url(#p475c702d6d)" d="M 164.62998 252 
L 173.217042 252 
L 173.217042 237.932717 
L 164.62998 237.932717 
z
" style="fill:#fa9ba4;opacity:0.2;"/>
   </g>
   <g id="patch_13">
    <path clip-path="url(#p475c702d6d)" d="M 174.17116 252 
L 182.758222 252 
L 182.758222 247.176932 
L 174.17116 247.176932 
z
" style="fill:#fa9ba4;opacity:0.2;"/>
   </g>
   <g id="patch_14">
    <path clip-path="url(#p475c702d6d)" d="M 183.71234 252 
L 192.299402 252 
L 192.299402 237.128872 
L 183.71234 237.128872 
z
" style="fill:#fa9ba4;opacity:0.2;"/>
   </g>
   <g id="patch_15">
    <path clip-path="url(#p475c702d6d)" d="M 193.25352 252 
L 201.840581 252 
L 201.840581 245.971165 
L 193.25352 245.971165 
z
" style="fill:#fa9ba4;opacity:0.2;"/>
   </g>
   <g id="patch_16">
    <path clip-path="url(#p475c702d6d)" d="M 202.794699 252 
L 211.381761 252 
L 211.381761 250.794233 
L 202.794699 250.794233 
z
" style="fill:#fa9ba4;opacity:0.2;"/>
   </g>
   <g id="patch_17">
    <path clip-path="url(#p475c702d6d)" d="M 212.335879 252 
L 220.922941 252 
L 220.922941 245.569242 
L 212.335879 245.569242 
z
" style="fill:#fa9ba4;opacity:0.2;"/>
   </g>
   <g id="patch_18">
    <path clip-path="url(#p475c702d6d)" d="M 221.877059 252 
L 230.464121 252 
L 230.464121 240.746174 
L 221.877059 240.746174 
z
" style="fill:#fa9ba4;opacity:0.2;"/>
   </g>
   <g id="patch_19">
    <path clip-path="url(#p475c702d6d)" d="M 231.418239 252 
L 240.005301 252 
L 240.005301 209.396229 
L 231.418239 209.396229 
z
" style="fill:#fa9ba4;opacity:0.2;"/>
   </g>
   <g id="patch_20">
    <path clip-path="url(#p475c702d6d)" d="M 240.959419 252 
L 249.54648 252 
L 249.54648 225.071201 
L 240.959419 225.071201 
z
" style="fill:#fa9ba4;opacity:0.2;"/>
   </g>
   <g id="patch_21">
    <path clip-path="url(#p475c702d6d)" d="M 250.500598 252 
L 259.08766 252 
L 259.08766 229.89427 
L 250.500598 229.89427 
z
" style="fill:#fa9ba4;opacity:0.2;"/>
   </g>
   <g id="patch_22">
    <path clip-path="url(#p475c702d6d)" d="M 260.041778 252 
L 268.62884 252 
L 268.62884 34.56 
L 260.041778 34.56 
z
" style="fill:#fa9ba4;opacity:0.2;"/>
   </g>
   <g id="patch_23">
    <path clip-path="url(#p475c702d6d)" d="M 269.582958 252 
L 278.17002 252 
L 278.17002 63.096488 
L 269.582958 63.096488 
z
" style="fill:#fa9ba4;opacity:0.2;"/>
   </g>
   <g id="patch_24">
    <path clip-path="url(#p475c702d6d)" d="M 279.124138 252 
L 287.7112 252 
L 287.7112 225.071201 
L 279.124138 225.071201 
z
" style="fill:#fa9ba4;opacity:0.2;"/>
   </g>
   <g id="patch_25">
    <path clip-path="url(#p475c702d6d)" d="M 288.665318 252 
L 297.25238 252 
L 297.25238 193.319335 
L 288.665318 193.319335 
z
" style="fill:#fa9ba4;opacity:0.2;"/>
   </g>
   <g id="patch_26">
    <path clip-path="url(#p475c702d6d)" d="M 298.206498 252 
L 306.793559 252 
L 306.793559 228.688503 
L 298.206498 228.688503 
z
" style="fill:#fa9ba4;opacity:0.2;"/>
   </g>
   <g id="patch_27">
    <path clip-path="url(#p475c702d6d)" d="M 307.747677 252 
L 316.334739 252 
L 316.334739 233.511571 
L 307.747677 233.511571 
z
" style="fill:#fa9ba4;opacity:0.2;"/>
   </g>
   <g id="patch_28">
    <path clip-path="url(#p475c702d6d)" d="M 317.288857 252 
L 325.875919 252 
L 325.875919 222.659667 
L 317.288857 222.659667 
z
" style="fill:#fa9ba4;opacity:0.2;"/>
   </g>
   <g id="patch_29">
    <path clip-path="url(#p475c702d6d)" d="M 326.830037 252 
L 335.417099 252 
L 335.417099 219.846211 
L 326.830037 219.846211 
z
" style="fill:#fa9ba4;opacity:0.2;"/>
   </g>
   <g id="patch_30">
    <path clip-path="url(#p475c702d6d)" d="M 336.371217 252 
L 344.958279 252 
L 344.958279 181.261664 
L 336.371217 181.261664 
z
" style="fill:#fa9ba4;opacity:0.2;"/>
   </g>
   <g id="patch_31">
    <path clip-path="url(#p475c702d6d)" d="M 345.912397 252 
L 354.499459 252 
L 354.499459 237.932717 
L 345.912397 237.932717 
z
" style="fill:#fa9ba4;opacity:0.2;"/>
   </g>
   <g id="patch_32">
    <path clip-path="url(#p475c702d6d)" d="M 355.453577 252 
L 364.040638 252 
L 364.040638 168.400148 
L 355.453577 168.400148 
z
" style="fill:#fa9ba4;opacity:0.2;"/>
   </g>
   <g id="patch_33">
    <path clip-path="url(#p475c702d6d)" d="M 364.994756 252 
L 373.581818 252 
L 373.581818 212.209686 
L 364.994756 212.209686 
z
" style="fill:#fa9ba4;opacity:0.2;"/>
   </g>
   <g id="matplotlib.axis_1"/>
   <g id="matplotlib.axis_2"/>
   <g id="PolyCollection_1">
    <defs>
     <path d="M 245.25295 -51.617555 
L 245.25295 -36 
L 254.794129 -36 
L 264.335309 -36 
L 273.876489 -36 
L 283.417669 -36 
L 292.958849 -36 
L 302.500028 -36 
L 312.041208 -36 
L 321.582388 -36 
L 331.123568 -36 
L 340.664748 -36 
L 350.205928 -36 
L 359.747107 -36 
L 369.288287 -36 
L 369.288287 -77.168334 
L 369.288287 -77.168334 
L 359.747107 -74.814217 
L 350.205928 -71.254333 
L 340.664748 -73.091693 
L 331.123568 -89.972432 
L 321.582388 -116.441891 
L 312.041208 -115.408376 
L 302.500028 -116.614143 
L 292.958849 -119.370182 
L 283.417669 -112.594919 
L 273.876489 -109.666628 
L 264.335309 -82.852664 
L 254.794129 -52.651069 
L 245.25295 -51.617555 
z
" id="m3c281fd744" style="stroke:#dc3545;stroke-opacity:0.5;"/>
    </defs>
    <g clip-path="url(#p475c702d6d)">
     <use style="fill:#dc3545;fill-opacity:0.5;stroke:#dc3545;stroke-opacity:0.5;" x="0" xlink:href="#m3c281fd744" y="288"/>
    </g>
   </g>
   <g id="PolyCollection_2">
    <defs>
     <path d="M 130.758792 -88.42216 
L 130.758792 -36 
L 140.299972 -36 
L 149.841151 -36 
L 159.382331 -36 
L 168.923511 -36 
L 178.464691 -36 
L 188.005871 -36 
L 197.54705 -36 
L 207.08823 -36 
L 216.62941 -36 
L 226.17059 -36 
L 235.71177 -36 
L 245.25295 -36 
L 245.25295 -51.617555 
L 245.25295 -51.617555 
L 235.71177 -48.459593 
L 226.17059 -44.382952 
L 216.62941 -43.636525 
L 207.08823 -42.717845 
L 197.54705 -65.340333 
L 188.005871 -85.551286 
L 178.464691 -114.030356 
L 168.923511 -114.030356 
L 159.382331 -112.078162 
L 149.841151 -111.2169 
L 140.299972 -111.2169 
L 130.758792 -88.42216 
z
" id="m61ba8cdfaf" style="stroke:#fa9ba4;stroke-opacity:0.3;"/>
    </defs>
    <g clip-path="url(#p475c702d6d)">
     <use style="fill:#fa9ba4;fill-opacity:0.3;stroke:#fa9ba4;stroke-opacity:0.3;" x="0" xlink:href="#m61ba8cdfaf" y="288"/>
    </g>
   </g>
   <g id="line2d_1">
    <path clip-path="url(#p475c702d6d)" d="M 130.758792 199.57784 
L 140.299972 176.7831 
L 149.841151 176.7831 
L 159.382331 175.921838 
L 168.923511 173.969644 
L 178.464691 173.969644 
L 188.005871 202.448714 
L 197.54705 222.659667 
L 207.08823 245.282155 
L 216.62941 244.363475 
L 226.17059 243.617048 
L 235.71177 239.540407 
L 245.25295 236.382445 
L 254.794129 235.348931 
L 264.335309 205.147336 
L 273.876489 178.333372 
L 283.417669 175.405081 
L 292.958849 168.629818 
L 302.500028 171.385857 
L 312.041208 172.591624 
L 321.582388 171.558109 
L 331.123568 198.027568 
L 340.664748 214.908307 
L 350.205928 216.745667 
L 359.747107 213.185783 
L 369.288287 210.831666 
" style="fill:none;stroke:#fa9ba4;stroke-linecap:square;stroke-width:2;"/>
   </g>
   <g id="line2d_2">
    <path clip-path="url(#p475c702d6d)" d="M 245.25295 236.382445 
L 254.794129 235.348931 
L 264.335309 205.147336 
L 273.876489 178.333372 
L 283.417669 175.405081 
L 292.958849 168.629818 
L 302.500028 171.385857 
L 312.041208 172.591624 
L 321.582388 171.558109 
L 331.123568 198.027568 
L 340.664748 214.908307 
L 350.205928 216.745667 
L 359.747107 213.185783 
L 369.288287 210.831666 
" style="fill:none;stroke:#dc3545;stroke-linecap:square;stroke-width:2;"/>
   </g>
  </g>
 </g>
 <defs>
  <clipPath id="p475c702d6d">
   <rect height="217.44" width="334.8" x="54" y="34.56"/>
  </clipPath>
 </defs>
</svg>
