<?xml version="1.0" encoding="utf-8" standalone="no"?>
<!DOCTYPE svg PUBLIC "-//W3C//DTD SVG 1.1//EN"
  "http://www.w3.org/Graphics/SVG/1.1/DTD/svg11.dtd">
<!-- Created with matplotlib (https://matplotlib.org/) -->
<svg height="345.6pt" version="1.1" viewBox="0 0 460.8 345.6" width="460.8pt" xmlns="http://www.w3.org/2000/svg" xmlns:xlink="http://www.w3.org/1999/xlink">
 <defs>
  <style type="text/css">
*{stroke-linecap:butt;stroke-linejoin:round;}
  </style>
 </defs>
 <g id="figure_1">
  <g id="patch_1">
   <path d="M 0 345.6 
L 460.8 345.6 
L 460.8 0 
L 0 0 
z
" style="fill:none;"/>
  </g>
  <g id="axes_1">
   <g id="patch_2">
    <path clip-path="url(#p3b6132d76c)" d="M 73.832727 307.584 
L 82.99226 307.584 
L 82.99226 307.584 
L 73.832727 307.584 
z
" style="fill:#fa9ba4;opacity:0.2;"/>
   </g>
   <g id="patch_3">
    <path clip-path="url(#p3b6132d76c)" d="M 84.009986 307.584 
L 93.169518 307.584 
L 93.169518 307.584 
L 84.009986 307.584 
z
" style="fill:#fa9ba4;opacity:0.2;"/>
   </g>
   <g id="patch_4">
    <path clip-path="url(#p3b6132d76c)" d="M 94.187244 307.584 
L 103.346777 307.584 
L 103.346777 307.584 
L 94.187244 307.584 
z
" style="fill:#fa9ba4;opacity:0.2;"/>
   </g>
   <g id="patch_5">
    <path clip-path="url(#p3b6132d76c)" d="M 104.364503 307.584 
L 113.524035 307.584 
L 113.524035 307.584 
L 104.364503 307.584 
z
" style="fill:#fa9ba4;opacity:0.2;"/>
   </g>
   <g id="patch_6">
    <path clip-path="url(#p3b6132d76c)" d="M 114.541761 307.584 
L 123.701294 307.584 
L 123.701294 307.584 
L 114.541761 307.584 
z
" style="fill:#fa9ba4;opacity:0.2;"/>
   </g>
   <g id="patch_7">
    <path clip-path="url(#p3b6132d76c)" d="M 124.71902 307.584 
L 133.878552 307.584 
L 133.878552 307.584 
L 124.71902 307.584 
z
" style="fill:#fa9ba4;opacity:0.2;"/>
   </g>
   <g id="patch_8">
    <path clip-path="url(#p3b6132d76c)" d="M 134.896278 307.584 
L 144.055811 307.584 
L 144.055811 307.584 
L 134.896278 307.584 
z
" style="fill:#fa9ba4;opacity:0.2;"/>
   </g>
   <g id="patch_9">
    <path clip-path="url(#p3b6132d76c)" d="M 145.073537 307.584 
L 154.233069 307.584 
L 154.233069 280.9728 
L 145.073537 280.9728 
z
" style="fill:#fa9ba4;opacity:0.2;"/>
   </g>
   <g id="patch_10">
    <path clip-path="url(#p3b6132d76c)" d="M 155.250795 307.584 
L 164.410328 307.584 
L 164.410328 307.584 
L 155.250795 307.584 
z
" style="fill:#fa9ba4;opacity:0.2;"/>
   </g>
   <g id="patch_11">
    <path clip-path="url(#p3b6132d76c)" d="M 165.428054 307.584 
L 174.587586 307.584 
L 174.587586 307.584 
L 165.428054 307.584 
z
" style="fill:#fa9ba4;opacity:0.2;"/>
   </g>
   <g id="patch_12">
    <path clip-path="url(#p3b6132d76c)" d="M 175.605312 307.584 
L 184.764845 307.584 
L 184.764845 307.584 
L 175.605312 307.584 
z
" style="fill:#fa9ba4;opacity:0.2;"/>
   </g>
   <g id="patch_13">
    <path clip-path="url(#p3b6132d76c)" d="M 185.782571 307.584 
L 194.942103 307.584 
L 194.942103 41.472 
L 185.782571 41.472 
z
" style="fill:#fa9ba4;opacity:0.2;"/>
   </g>
   <g id="patch_14">
    <path clip-path="url(#p3b6132d76c)" d="M 195.959829 307.584 
L 205.119362 307.584 
L 205.119362 147.9168 
L 195.959829 147.9168 
z
" style="fill:#fa9ba4;opacity:0.2;"/>
   </g>
   <g id="patch_15">
    <path clip-path="url(#p3b6132d76c)" d="M 206.137087 307.584 
L 215.29662 307.584 
L 215.29662 307.584 
L 206.137087 307.584 
z
" style="fill:#fa9ba4;opacity:0.2;"/>
   </g>
   <g id="patch_16">
    <path clip-path="url(#p3b6132d76c)" d="M 216.314346 307.584 
L 225.473879 307.584 
L 225.473879 307.584 
L 216.314346 307.584 
z
" style="fill:#fa9ba4;opacity:0.2;"/>
   </g>
   <g id="patch_17">
    <path clip-path="url(#p3b6132d76c)" d="M 226.491604 307.584 
L 235.651137 307.584 
L 235.651137 227.7504 
L 226.491604 227.7504 
z
" style="fill:#fa9ba4;opacity:0.2;"/>
   </g>
   <g id="patch_18">
    <path clip-path="url(#p3b6132d76c)" d="M 236.668863 307.584 
L 245.828396 307.584 
L 245.828396 307.584 
L 236.668863 307.584 
z
" style="fill:#fa9ba4;opacity:0.2;"/>
   </g>
   <g id="patch_19">
    <path clip-path="url(#p3b6132d76c)" d="M 246.846121 307.584 
L 256.005654 307.584 
L 256.005654 307.584 
L 246.846121 307.584 
z
" style="fill:#fa9ba4;opacity:0.2;"/>
   </g>
   <g id="patch_20">
    <path clip-path="url(#p3b6132d76c)" d="M 257.02338 307.584 
L 266.182913 307.584 
L 266.182913 307.584 
L 257.02338 307.584 
z
" style="fill:#fa9ba4;opacity:0.2;"/>
   </g>
   <g id="patch_21">
    <path clip-path="url(#p3b6132d76c)" d="M 267.200638 307.584 
L 276.360171 307.584 
L 276.360171 307.584 
L 267.200638 307.584 
z
" style="fill:#fa9ba4;opacity:0.2;"/>
   </g>
   <g id="patch_22">
    <path clip-path="url(#p3b6132d76c)" d="M 277.377897 307.584 
L 286.537429 307.584 
L 286.537429 280.9728 
L 277.377897 280.9728 
z
" style="fill:#fa9ba4;opacity:0.2;"/>
   </g>
   <g id="patch_23">
    <path clip-path="url(#p3b6132d76c)" d="M 287.555155 307.584 
L 296.714688 307.584 
L 296.714688 280.9728 
L 287.555155 280.9728 
z
" style="fill:#fa9ba4;opacity:0.2;"/>
   </g>
   <g id="patch_24">
    <path clip-path="url(#p3b6132d76c)" d="M 297.732414 307.584 
L 306.891946 307.584 
L 306.891946 307.584 
L 297.732414 307.584 
z
" style="fill:#fa9ba4;opacity:0.2;"/>
   </g>
   <g id="patch_25">
    <path clip-path="url(#p3b6132d76c)" d="M 307.909672 307.584 
L 317.069205 307.584 
L 317.069205 307.584 
L 307.909672 307.584 
z
" style="fill:#fa9ba4;opacity:0.2;"/>
   </g>
   <g id="patch_26">
    <path clip-path="url(#p3b6132d76c)" d="M 318.086931 307.584 
L 327.246463 307.584 
L 327.246463 307.584 
L 318.086931 307.584 
z
" style="fill:#fa9ba4;opacity:0.2;"/>
   </g>
   <g id="patch_27">
    <path clip-path="url(#p3b6132d76c)" d="M 328.264189 307.584 
L 337.423722 307.584 
L 337.423722 307.584 
L 328.264189 307.584 
z
" style="fill:#fa9ba4;opacity:0.2;"/>
   </g>
   <g id="patch_28">
    <path clip-path="url(#p3b6132d76c)" d="M 338.441448 307.584 
L 347.60098 307.584 
L 347.60098 227.7504 
L 338.441448 227.7504 
z
" style="fill:#fa9ba4;opacity:0.2;"/>
   </g>
   <g id="patch_29">
    <path clip-path="url(#p3b6132d76c)" d="M 348.618706 307.584 
L 357.778239 307.584 
L 357.778239 307.584 
L 348.618706 307.584 
z
" style="fill:#fa9ba4;opacity:0.2;"/>
   </g>
   <g id="patch_30">
    <path clip-path="url(#p3b6132d76c)" d="M 358.795965 307.584 
L 367.955497 307.584 
L 367.955497 307.584 
L 358.795965 307.584 
z
" style="fill:#fa9ba4;opacity:0.2;"/>
   </g>
   <g id="patch_31">
    <path clip-path="url(#p3b6132d76c)" d="M 368.973223 307.584 
L 378.132756 307.584 
L 378.132756 201.1392 
L 368.973223 201.1392 
z
" style="fill:#fa9ba4;opacity:0.2;"/>
   </g>
   <g id="patch_32">
    <path clip-path="url(#p3b6132d76c)" d="M 379.150482 307.584 
L 388.310014 307.584 
L 388.310014 307.584 
L 379.150482 307.584 
z
" style="fill:#fa9ba4;opacity:0.2;"/>
   </g>
   <g id="patch_33">
    <path clip-path="url(#p3b6132d76c)" d="M 389.32774 307.584 
L 398.487273 307.584 
L 398.487273 307.584 
L 389.32774 307.584 
z
" style="fill:#fa9ba4;opacity:0.2;"/>
   </g>
   <g id="matplotlib.axis_1"/>
   <g id="matplotlib.axis_2"/>
   <g id="PolyCollection_1">
    <defs>
     <path d="M 261.603146 -72.2304 
L 261.603146 -38.016 
L 271.780405 -38.016 
L 281.957663 -38.016 
L 292.134922 -38.016 
L 302.31218 -38.016 
L 312.489439 -38.016 
L 322.666697 -38.016 
L 332.843956 -38.016 
L 343.021214 -38.016 
L 353.198472 -38.016 
L 363.375731 -38.016 
L 373.552989 -38.016 
L 383.730248 -38.016 
L 393.907506 -38.016 
L 393.907506 -64.6272 
L 393.907506 -64.6272 
L 383.730248 -64.6272 
L 373.552989 -64.6272 
L 363.375731 -49.4208 
L 353.198472 -53.2224 
L 343.021214 -57.024 
L 332.843956 -45.6192 
L 322.666697 -45.6192 
L 312.489439 -45.6192 
L 302.31218 -45.6192 
L 292.134922 -57.024 
L 281.957663 -53.2224 
L 271.780405 -49.4208 
L 261.603146 -72.2304 
z
" id="mf1d15a236e" style="stroke:#dc3545;stroke-opacity:0.5;"/>
    </defs>
    <g clip-path="url(#p3b6132d76c)">
     <use style="fill:#dc3545;fill-opacity:0.5;stroke:#dc3545;stroke-opacity:0.5;" x="0" xlink:href="#mf1d15a236e" y="345.6"/>
    </g>
   </g>
   <g id="PolyCollection_2">
    <defs>
     <path d="M 139.476044 -38.016 
L 139.476044 -38.016 
L 149.653303 -38.016 
L 159.830561 -38.016 
L 170.00782 -38.016 
L 180.185078 -38.016 
L 190.362337 -38.016 
L 200.539595 -38.016 
L 210.716854 -38.016 
L 220.894112 -38.016 
L 231.071371 -38.016 
L 241.248629 -38.016 
L 251.425888 -38.016 
L 261.603146 -38.016 
L 261.603146 -72.2304 
L 261.603146 -72.2304 
L 251.425888 -110.2464 
L 241.248629 -110.2464 
L 231.071371 -110.2464 
L 220.894112 -98.8416 
L 210.716854 -102.6432 
L 200.539595 -102.6432 
L 190.362337 -79.8336 
L 180.185078 -41.8176 
L 170.00782 -41.8176 
L 159.830561 -41.8176 
L 149.653303 -41.8176 
L 139.476044 -38.016 
z
" id="mb8a6dfac67" style="stroke:#fa9ba4;stroke-opacity:0.3;"/>
    </defs>
    <g clip-path="url(#p3b6132d76c)">
     <use style="fill:#fa9ba4;fill-opacity:0.3;stroke:#fa9ba4;stroke-opacity:0.3;" x="0" xlink:href="#mb8a6dfac67" y="345.6"/>
    </g>
   </g>
   <g id="line2d_1">
    <path clip-path="url(#p3b6132d76c)" d="M 139.476044 307.584 
L 149.653303 303.7824 
L 159.830561 303.7824 
L 170.00782 303.7824 
L 180.185078 303.7824 
L 190.362337 265.7664 
L 200.539595 242.9568 
L 210.716854 242.9568 
L 220.894112 246.7584 
L 231.071371 235.3536 
L 241.248629 235.3536 
L 251.425888 235.3536 
L 261.603146 273.3696 
L 271.780405 296.1792 
L 281.957663 292.3776 
L 292.134922 288.576 
L 302.31218 299.9808 
L 312.489439 299.9808 
L 322.666697 299.9808 
L 332.843956 299.9808 
L 343.021214 288.576 
L 353.198472 292.3776 
L 363.375731 296.1792 
L 373.552989 280.9728 
L 383.730248 280.9728 
L 393.907506 280.9728 
" style="fill:none;stroke:#fa9ba4;stroke-linecap:square;stroke-width:2;"/>
   </g>
   <g id="line2d_2">
    <path clip-path="url(#p3b6132d76c)" d="M 261.603146 273.3696 
L 271.780405 296.1792 
L 281.957663 292.3776 
L 292.134922 288.576 
L 302.31218 299.9808 
L 312.489439 299.9808 
L 322.666697 299.9808 
L 332.843956 299.9808 
L 343.021214 288.576 
L 353.198472 292.3776 
L 363.375731 296.1792 
L 373.552989 280.9728 
L 383.730248 280.9728 
L 393.907506 280.9728 
" style="fill:none;stroke:#dc3545;stroke-linecap:square;stroke-width:2;"/>
   </g>
  </g>
 </g>
 <defs>
  <clipPath id="p3b6132d76c">
   <rect height="266.112" width="357.12" x="57.6" y="41.472"/>
  </clipPath>
 </defs>
</svg>
