<?xml version="1.0" encoding="utf-8" standalone="no"?>
<!DOCTYPE svg PUBLIC "-//W3C//DTD SVG 1.1//EN"
  "http://www.w3.org/Graphics/SVG/1.1/DTD/svg11.dtd">
<svg height="345.6pt" version="1.1" viewBox="0 0 460.8 345.6" width="460.8pt" xmlns="http://www.w3.org/2000/svg" xmlns:xlink="http://www.w3.org/1999/xlink">
 <metadata>
  <rdf:RDF xmlns:cc="http://creativecommons.org/ns#" xmlns:dc="http://purl.org/dc/elements/1.1/" xmlns:rdf="http://www.w3.org/1999/02/22-rdf-syntax-ns#">
   <cc:Work>
    <dc:type rdf:resource="http://purl.org/dc/dcmitype/StillImage"/>
    <dc:date>2021-05-14T09:10:12.793257</dc:date>
    <dc:format>image/svg+xml</dc:format>
    <dc:creator>
     <cc:Agent>
      <dc:title>Matplotlib v3.4.2, https://matplotlib.org/</dc:title>
     </cc:Agent>
    </dc:creator>
   </cc:Work>
  </rdf:RDF>
 </metadata>
 <defs>
  <style type="text/css">*{stroke-linecap:butt;stroke-linejoin:round;}</style>
 </defs>
 <g id="figure_1">
  <g id="patch_1">
   <path d="M 0 345.6 
L 460.8 345.6 
L 460.8 0 
L 0 0 
z
" style="fill:none;"/>
  </g>
  <g id="axes_1">
   <g id="patch_2">
    <path clip-path="url(#p827ffe4ee9)" d="M 73.832727 307.584 
L 75.781954 307.584 
L 75.781954 307.584 
L 73.832727 307.584 
z
" style="fill:#fa9ba4;opacity:0.2;"/>
   </g>
   <g id="patch_3">
    <path clip-path="url(#p827ffe4ee9)" d="M 75.998535 307.584 
L 77.947762 307.584 
L 77.947762 307.584 
L 75.998535 307.584 
z
" style="fill:#fa9ba4;opacity:0.2;"/>
   </g>
   <g id="patch_4">
    <path clip-path="url(#p827ffe4ee9)" d="M 78.164342 307.584 
L 80.113569 307.584 
L 80.113569 307.584 
L 78.164342 307.584 
z
" style="fill:#fa9ba4;opacity:0.2;"/>
   </g>
   <g id="patch_5">
    <path clip-path="url(#p827ffe4ee9)" d="M 80.33015 307.584 
L 82.279377 307.584 
L 82.279377 307.584 
L 80.33015 307.584 
z
" style="fill:#fa9ba4;opacity:0.2;"/>
   </g>
   <g id="patch_6">
    <path clip-path="url(#p827ffe4ee9)" d="M 82.495957 307.584 
L 84.445184 307.584 
L 84.445184 307.584 
L 82.495957 307.584 
z
" style="fill:#fa9ba4;opacity:0.2;"/>
   </g>
   <g id="patch_7">
    <path clip-path="url(#p827ffe4ee9)" d="M 84.661765 307.584 
L 86.610992 307.584 
L 86.610992 307.584 
L 84.661765 307.584 
z
" style="fill:#fa9ba4;opacity:0.2;"/>
   </g>
   <g id="patch_8">
    <path clip-path="url(#p827ffe4ee9)" d="M 86.827572 307.584 
L 88.776799 307.584 
L 88.776799 307.584 
L 86.827572 307.584 
z
" style="fill:#fa9ba4;opacity:0.2;"/>
   </g>
   <g id="patch_9">
    <path clip-path="url(#p827ffe4ee9)" d="M 88.99338 307.584 
L 90.942607 307.584 
L 90.942607 307.584 
L 88.99338 307.584 
z
" style="fill:#fa9ba4;opacity:0.2;"/>
   </g>
   <g id="patch_10">
    <path clip-path="url(#p827ffe4ee9)" d="M 91.159187 307.584 
L 93.108414 307.584 
L 93.108414 307.584 
L 91.159187 307.584 
z
" style="fill:#fa9ba4;opacity:0.2;"/>
   </g>
   <g id="patch_11">
    <path clip-path="url(#p827ffe4ee9)" d="M 93.324995 307.584 
L 95.274222 307.584 
L 95.274222 307.584 
L 93.324995 307.584 
z
" style="fill:#fa9ba4;opacity:0.2;"/>
   </g>
   <g id="patch_12">
    <path clip-path="url(#p827ffe4ee9)" d="M 95.490802 307.584 
L 97.440029 307.584 
L 97.440029 307.584 
L 95.490802 307.584 
z
" style="fill:#fa9ba4;opacity:0.2;"/>
   </g>
   <g id="patch_13">
    <path clip-path="url(#p827ffe4ee9)" d="M 97.65661 307.584 
L 99.605837 307.584 
L 99.605837 307.584 
L 97.65661 307.584 
z
" style="fill:#fa9ba4;opacity:0.2;"/>
   </g>
   <g id="patch_14">
    <path clip-path="url(#p827ffe4ee9)" d="M 99.822417 307.584 
L 101.771644 307.584 
L 101.771644 307.584 
L 99.822417 307.584 
z
" style="fill:#fa9ba4;opacity:0.2;"/>
   </g>
   <g id="patch_15">
    <path clip-path="url(#p827ffe4ee9)" d="M 101.988225 307.584 
L 103.937452 307.584 
L 103.937452 307.584 
L 101.988225 307.584 
z
" style="fill:#fa9ba4;opacity:0.2;"/>
   </g>
   <g id="patch_16">
    <path clip-path="url(#p827ffe4ee9)" d="M 104.154032 307.584 
L 106.103259 307.584 
L 106.103259 307.584 
L 104.154032 307.584 
z
" style="fill:#fa9ba4;opacity:0.2;"/>
   </g>
   <g id="patch_17">
    <path clip-path="url(#p827ffe4ee9)" d="M 106.31984 307.584 
L 108.269067 307.584 
L 108.269067 307.584 
L 106.31984 307.584 
z
" style="fill:#fa9ba4;opacity:0.2;"/>
   </g>
   <g id="patch_18">
    <path clip-path="url(#p827ffe4ee9)" d="M 108.485647 307.584 
L 110.434874 307.584 
L 110.434874 307.584 
L 108.485647 307.584 
z
" style="fill:#fa9ba4;opacity:0.2;"/>
   </g>
   <g id="patch_19">
    <path clip-path="url(#p827ffe4ee9)" d="M 110.651455 307.584 
L 112.600682 307.584 
L 112.600682 307.584 
L 110.651455 307.584 
z
" style="fill:#fa9ba4;opacity:0.2;"/>
   </g>
   <g id="patch_20">
    <path clip-path="url(#p827ffe4ee9)" d="M 112.817262 307.584 
L 114.766489 307.584 
L 114.766489 307.584 
L 112.817262 307.584 
z
" style="fill:#fa9ba4;opacity:0.2;"/>
   </g>
   <g id="patch_21">
    <path clip-path="url(#p827ffe4ee9)" d="M 114.98307 307.584 
L 116.932297 307.584 
L 116.932297 307.584 
L 114.98307 307.584 
z
" style="fill:#fa9ba4;opacity:0.2;"/>
   </g>
   <g id="patch_22">
    <path clip-path="url(#p827ffe4ee9)" d="M 117.148877 307.584 
L 119.098104 307.584 
L 119.098104 305.93113 
L 117.148877 305.93113 
z
" style="fill:#fa9ba4;opacity:0.2;"/>
   </g>
   <g id="patch_23">
    <path clip-path="url(#p827ffe4ee9)" d="M 119.314685 307.584 
L 121.263912 307.584 
L 121.263912 307.584 
L 119.314685 307.584 
z
" style="fill:#fa9ba4;opacity:0.2;"/>
   </g>
   <g id="patch_24">
    <path clip-path="url(#p827ffe4ee9)" d="M 121.480492 307.584 
L 123.429719 307.584 
L 123.429719 307.584 
L 121.480492 307.584 
z
" style="fill:#fa9ba4;opacity:0.2;"/>
   </g>
   <g id="patch_25">
    <path clip-path="url(#p827ffe4ee9)" d="M 123.6463 307.584 
L 125.595527 307.584 
L 125.595527 307.584 
L 123.6463 307.584 
z
" style="fill:#fa9ba4;opacity:0.2;"/>
   </g>
   <g id="patch_26">
    <path clip-path="url(#p827ffe4ee9)" d="M 125.812107 307.584 
L 127.761334 307.584 
L 127.761334 307.584 
L 125.812107 307.584 
z
" style="fill:#fa9ba4;opacity:0.2;"/>
   </g>
   <g id="patch_27">
    <path clip-path="url(#p827ffe4ee9)" d="M 127.977915 307.584 
L 129.927142 307.584 
L 129.927142 307.584 
L 127.977915 307.584 
z
" style="fill:#fa9ba4;opacity:0.2;"/>
   </g>
   <g id="patch_28">
    <path clip-path="url(#p827ffe4ee9)" d="M 130.143722 307.584 
L 132.092949 307.584 
L 132.092949 307.584 
L 130.143722 307.584 
z
" style="fill:#fa9ba4;opacity:0.2;"/>
   </g>
   <g id="patch_29">
    <path clip-path="url(#p827ffe4ee9)" d="M 132.30953 307.584 
L 134.258757 307.584 
L 134.258757 307.584 
L 132.30953 307.584 
z
" style="fill:#fa9ba4;opacity:0.2;"/>
   </g>
   <g id="patch_30">
    <path clip-path="url(#p827ffe4ee9)" d="M 134.475337 307.584 
L 136.424564 307.584 
L 136.424564 307.584 
L 134.475337 307.584 
z
" style="fill:#fa9ba4;opacity:0.2;"/>
   </g>
   <g id="patch_31">
    <path clip-path="url(#p827ffe4ee9)" d="M 136.641145 307.584 
L 138.590372 307.584 
L 138.590372 307.584 
L 136.641145 307.584 
z
" style="fill:#fa9ba4;opacity:0.2;"/>
   </g>
   <g id="patch_32">
    <path clip-path="url(#p827ffe4ee9)" d="M 138.806953 307.584 
L 140.756179 307.584 
L 140.756179 307.584 
L 138.806953 307.584 
z
" style="fill:#fa9ba4;opacity:0.2;"/>
   </g>
   <g id="patch_33">
    <path clip-path="url(#p827ffe4ee9)" d="M 140.97276 307.584 
L 142.921987 307.584 
L 142.921987 307.584 
L 140.97276 307.584 
z
" style="fill:#fa9ba4;opacity:0.2;"/>
   </g>
   <g id="patch_34">
    <path clip-path="url(#p827ffe4ee9)" d="M 143.138568 307.584 
L 145.087794 307.584 
L 145.087794 307.584 
L 143.138568 307.584 
z
" style="fill:#fa9ba4;opacity:0.2;"/>
   </g>
   <g id="patch_35">
    <path clip-path="url(#p827ffe4ee9)" d="M 145.304375 307.584 
L 147.253602 307.584 
L 147.253602 307.584 
L 145.304375 307.584 
z
" style="fill:#fa9ba4;opacity:0.2;"/>
   </g>
   <g id="patch_36">
    <path clip-path="url(#p827ffe4ee9)" d="M 147.470183 307.584 
L 149.419409 307.584 
L 149.419409 307.584 
L 147.470183 307.584 
z
" style="fill:#fa9ba4;opacity:0.2;"/>
   </g>
   <g id="patch_37">
    <path clip-path="url(#p827ffe4ee9)" d="M 149.63599 307.584 
L 151.585217 307.584 
L 151.585217 307.584 
L 149.63599 307.584 
z
" style="fill:#fa9ba4;opacity:0.2;"/>
   </g>
   <g id="patch_38">
    <path clip-path="url(#p827ffe4ee9)" d="M 151.801798 307.584 
L 153.751024 307.584 
L 153.751024 307.584 
L 151.801798 307.584 
z
" style="fill:#fa9ba4;opacity:0.2;"/>
   </g>
   <g id="patch_39">
    <path clip-path="url(#p827ffe4ee9)" d="M 153.967605 307.584 
L 155.916832 307.584 
L 155.916832 307.584 
L 153.967605 307.584 
z
" style="fill:#fa9ba4;opacity:0.2;"/>
   </g>
   <g id="patch_40">
    <path clip-path="url(#p827ffe4ee9)" d="M 156.133413 307.584 
L 158.082639 307.584 
L 158.082639 307.584 
L 156.133413 307.584 
z
" style="fill:#fa9ba4;opacity:0.2;"/>
   </g>
   <g id="patch_41">
    <path clip-path="url(#p827ffe4ee9)" d="M 158.29922 307.584 
L 160.248447 307.584 
L 160.248447 307.584 
L 158.29922 307.584 
z
" style="fill:#fa9ba4;opacity:0.2;"/>
   </g>
   <g id="patch_42">
    <path clip-path="url(#p827ffe4ee9)" d="M 160.465028 307.584 
L 162.414254 307.584 
L 162.414254 307.584 
L 160.465028 307.584 
z
" style="fill:#fa9ba4;opacity:0.2;"/>
   </g>
   <g id="patch_43">
    <path clip-path="url(#p827ffe4ee9)" d="M 162.630835 307.584 
L 164.580062 307.584 
L 164.580062 307.584 
L 162.630835 307.584 
z
" style="fill:#fa9ba4;opacity:0.2;"/>
   </g>
   <g id="patch_44">
    <path clip-path="url(#p827ffe4ee9)" d="M 164.796643 307.584 
L 166.745869 307.584 
L 166.745869 307.584 
L 164.796643 307.584 
z
" style="fill:#fa9ba4;opacity:0.2;"/>
   </g>
   <g id="patch_45">
    <path clip-path="url(#p827ffe4ee9)" d="M 166.96245 307.584 
L 168.911677 307.584 
L 168.911677 307.584 
L 166.96245 307.584 
z
" style="fill:#fa9ba4;opacity:0.2;"/>
   </g>
   <g id="patch_46">
    <path clip-path="url(#p827ffe4ee9)" d="M 169.128258 307.584 
L 171.077484 307.584 
L 171.077484 307.584 
L 169.128258 307.584 
z
" style="fill:#fa9ba4;opacity:0.2;"/>
   </g>
   <g id="patch_47">
    <path clip-path="url(#p827ffe4ee9)" d="M 171.294065 307.584 
L 173.243292 307.584 
L 173.243292 307.584 
L 171.294065 307.584 
z
" style="fill:#fa9ba4;opacity:0.2;"/>
   </g>
   <g id="patch_48">
    <path clip-path="url(#p827ffe4ee9)" d="M 173.459873 307.584 
L 175.409099 307.584 
L 175.409099 307.584 
L 173.459873 307.584 
z
" style="fill:#fa9ba4;opacity:0.2;"/>
   </g>
   <g id="patch_49">
    <path clip-path="url(#p827ffe4ee9)" d="M 175.62568 307.584 
L 177.574907 307.584 
L 177.574907 307.584 
L 175.62568 307.584 
z
" style="fill:#fa9ba4;opacity:0.2;"/>
   </g>
   <g id="patch_50">
    <path clip-path="url(#p827ffe4ee9)" d="M 177.791488 307.584 
L 179.740714 307.584 
L 179.740714 307.584 
L 177.791488 307.584 
z
" style="fill:#fa9ba4;opacity:0.2;"/>
   </g>
   <g id="patch_51">
    <path clip-path="url(#p827ffe4ee9)" d="M 179.957295 307.584 
L 181.906522 307.584 
L 181.906522 307.584 
L 179.957295 307.584 
z
" style="fill:#fa9ba4;opacity:0.2;"/>
   </g>
   <g id="patch_52">
    <path clip-path="url(#p827ffe4ee9)" d="M 182.123103 307.584 
L 184.072329 307.584 
L 184.072329 307.584 
L 182.123103 307.584 
z
" style="fill:#fa9ba4;opacity:0.2;"/>
   </g>
   <g id="patch_53">
    <path clip-path="url(#p827ffe4ee9)" d="M 184.28891 307.584 
L 186.238137 307.584 
L 186.238137 307.584 
L 184.28891 307.584 
z
" style="fill:#fa9ba4;opacity:0.2;"/>
   </g>
   <g id="patch_54">
    <path clip-path="url(#p827ffe4ee9)" d="M 186.454718 307.584 
L 188.403944 307.584 
L 188.403944 307.584 
L 186.454718 307.584 
z
" style="fill:#fa9ba4;opacity:0.2;"/>
   </g>
   <g id="patch_55">
    <path clip-path="url(#p827ffe4ee9)" d="M 188.620525 307.584 
L 190.569752 307.584 
L 190.569752 307.584 
L 188.620525 307.584 
z
" style="fill:#fa9ba4;opacity:0.2;"/>
   </g>
   <g id="patch_56">
    <path clip-path="url(#p827ffe4ee9)" d="M 190.786333 307.584 
L 192.735559 307.584 
L 192.735559 307.584 
L 190.786333 307.584 
z
" style="fill:#fa9ba4;opacity:0.2;"/>
   </g>
   <g id="patch_57">
    <path clip-path="url(#p827ffe4ee9)" d="M 192.95214 307.584 
L 194.901367 307.584 
L 194.901367 307.584 
L 192.95214 307.584 
z
" style="fill:#fa9ba4;opacity:0.2;"/>
   </g>
   <g id="patch_58">
    <path clip-path="url(#p827ffe4ee9)" d="M 195.117948 307.584 
L 197.067174 307.584 
L 197.067174 307.584 
L 195.117948 307.584 
z
" style="fill:#fa9ba4;opacity:0.2;"/>
   </g>
   <g id="patch_59">
    <path clip-path="url(#p827ffe4ee9)" d="M 197.283755 307.584 
L 199.232982 307.584 
L 199.232982 307.584 
L 197.283755 307.584 
z
" style="fill:#fa9ba4;opacity:0.2;"/>
   </g>
   <g id="patch_60">
    <path clip-path="url(#p827ffe4ee9)" d="M 199.449563 307.584 
L 201.398789 307.584 
L 201.398789 307.584 
L 199.449563 307.584 
z
" style="fill:#fa9ba4;opacity:0.2;"/>
   </g>
   <g id="patch_61">
    <path clip-path="url(#p827ffe4ee9)" d="M 201.61537 307.584 
L 203.564597 307.584 
L 203.564597 307.584 
L 201.61537 307.584 
z
" style="fill:#fa9ba4;opacity:0.2;"/>
   </g>
   <g id="patch_62">
    <path clip-path="url(#p827ffe4ee9)" d="M 203.781178 307.584 
L 205.730405 307.584 
L 205.730405 307.584 
L 203.781178 307.584 
z
" style="fill:#fa9ba4;opacity:0.2;"/>
   </g>
   <g id="patch_63">
    <path clip-path="url(#p827ffe4ee9)" d="M 205.946985 307.584 
L 207.896212 307.584 
L 207.896212 307.584 
L 205.946985 307.584 
z
" style="fill:#fa9ba4;opacity:0.2;"/>
   </g>
   <g id="patch_64">
    <path clip-path="url(#p827ffe4ee9)" d="M 208.112793 307.584 
L 210.06202 307.584 
L 210.06202 307.584 
L 208.112793 307.584 
z
" style="fill:#fa9ba4;opacity:0.2;"/>
   </g>
   <g id="patch_65">
    <path clip-path="url(#p827ffe4ee9)" d="M 210.2786 307.584 
L 212.227827 307.584 
L 212.227827 307.584 
L 210.2786 307.584 
z
" style="fill:#fa9ba4;opacity:0.2;"/>
   </g>
   <g id="patch_66">
    <path clip-path="url(#p827ffe4ee9)" d="M 212.444408 307.584 
L 214.393635 307.584 
L 214.393635 307.584 
L 212.444408 307.584 
z
" style="fill:#fa9ba4;opacity:0.2;"/>
   </g>
   <g id="patch_67">
    <path clip-path="url(#p827ffe4ee9)" d="M 214.610215 307.584 
L 216.559442 307.584 
L 216.559442 307.584 
L 214.610215 307.584 
z
" style="fill:#fa9ba4;opacity:0.2;"/>
   </g>
   <g id="patch_68">
    <path clip-path="url(#p827ffe4ee9)" d="M 216.776023 307.584 
L 218.72525 307.584 
L 218.72525 307.584 
L 216.776023 307.584 
z
" style="fill:#fa9ba4;opacity:0.2;"/>
   </g>
   <g id="patch_69">
    <path clip-path="url(#p827ffe4ee9)" d="M 218.94183 307.584 
L 220.891057 307.584 
L 220.891057 307.584 
L 218.94183 307.584 
z
" style="fill:#fa9ba4;opacity:0.2;"/>
   </g>
   <g id="patch_70">
    <path clip-path="url(#p827ffe4ee9)" d="M 221.107638 307.584 
L 223.056865 307.584 
L 223.056865 307.584 
L 221.107638 307.584 
z
" style="fill:#fa9ba4;opacity:0.2;"/>
   </g>
   <g id="patch_71">
    <path clip-path="url(#p827ffe4ee9)" d="M 223.273445 307.584 
L 225.222672 307.584 
L 225.222672 307.584 
L 223.273445 307.584 
z
" style="fill:#fa9ba4;opacity:0.2;"/>
   </g>
   <g id="patch_72">
    <path clip-path="url(#p827ffe4ee9)" d="M 225.439253 307.584 
L 227.38848 307.584 
L 227.38848 307.584 
L 225.439253 307.584 
z
" style="fill:#fa9ba4;opacity:0.2;"/>
   </g>
   <g id="patch_73">
    <path clip-path="url(#p827ffe4ee9)" d="M 227.60506 307.584 
L 229.554287 307.584 
L 229.554287 307.584 
L 227.60506 307.584 
z
" style="fill:#fa9ba4;opacity:0.2;"/>
   </g>
   <g id="patch_74">
    <path clip-path="url(#p827ffe4ee9)" d="M 229.770868 307.584 
L 231.720095 307.584 
L 231.720095 307.584 
L 229.770868 307.584 
z
" style="fill:#fa9ba4;opacity:0.2;"/>
   </g>
   <g id="patch_75">
    <path clip-path="url(#p827ffe4ee9)" d="M 231.936675 307.584 
L 233.885902 307.584 
L 233.885902 305.93113 
L 231.936675 305.93113 
z
" style="fill:#fa9ba4;opacity:0.2;"/>
   </g>
   <g id="patch_76">
    <path clip-path="url(#p827ffe4ee9)" d="M 234.102483 307.584 
L 236.05171 307.584 
L 236.05171 307.584 
L 234.102483 307.584 
z
" style="fill:#fa9ba4;opacity:0.2;"/>
   </g>
   <g id="patch_77">
    <path clip-path="url(#p827ffe4ee9)" d="M 236.26829 307.584 
L 238.217517 307.584 
L 238.217517 307.584 
L 236.26829 307.584 
z
" style="fill:#fa9ba4;opacity:0.2;"/>
   </g>
   <g id="patch_78">
    <path clip-path="url(#p827ffe4ee9)" d="M 238.434098 307.584 
L 240.383325 307.584 
L 240.383325 307.584 
L 238.434098 307.584 
z
" style="fill:#fa9ba4;opacity:0.2;"/>
   </g>
   <g id="patch_79">
    <path clip-path="url(#p827ffe4ee9)" d="M 240.599905 307.584 
L 242.549132 307.584 
L 242.549132 307.584 
L 240.599905 307.584 
z
" style="fill:#fa9ba4;opacity:0.2;"/>
   </g>
   <g id="patch_80">
    <path clip-path="url(#p827ffe4ee9)" d="M 242.765713 307.584 
L 244.71494 307.584 
L 244.71494 305.93113 
L 242.765713 305.93113 
z
" style="fill:#fa9ba4;opacity:0.2;"/>
   </g>
   <g id="patch_81">
    <path clip-path="url(#p827ffe4ee9)" d="M 244.93152 307.584 
L 246.880747 307.584 
L 246.880747 307.584 
L 244.93152 307.584 
z
" style="fill:#fa9ba4;opacity:0.2;"/>
   </g>
   <g id="patch_82">
    <path clip-path="url(#p827ffe4ee9)" d="M 247.097328 307.584 
L 249.046555 307.584 
L 249.046555 307.584 
L 247.097328 307.584 
z
" style="fill:#fa9ba4;opacity:0.2;"/>
   </g>
   <g id="patch_83">
    <path clip-path="url(#p827ffe4ee9)" d="M 249.263135 307.584 
L 251.212362 307.584 
L 251.212362 307.584 
L 249.263135 307.584 
z
" style="fill:#fa9ba4;opacity:0.2;"/>
   </g>
   <g id="patch_84">
    <path clip-path="url(#p827ffe4ee9)" d="M 251.428943 307.584 
L 253.37817 307.584 
L 253.37817 307.584 
L 251.428943 307.584 
z
" style="fill:#fa9ba4;opacity:0.2;"/>
   </g>
   <g id="patch_85">
    <path clip-path="url(#p827ffe4ee9)" d="M 253.59475 307.584 
L 255.543977 307.584 
L 255.543977 307.584 
L 253.59475 307.584 
z
" style="fill:#fa9ba4;opacity:0.2;"/>
   </g>
   <g id="patch_86">
    <path clip-path="url(#p827ffe4ee9)" d="M 255.760558 307.584 
L 257.709785 307.584 
L 257.709785 307.584 
L 255.760558 307.584 
z
" style="fill:#fa9ba4;opacity:0.2;"/>
   </g>
   <g id="patch_87">
    <path clip-path="url(#p827ffe4ee9)" d="M 257.926365 307.584 
L 259.875592 307.584 
L 259.875592 307.584 
L 257.926365 307.584 
z
" style="fill:#fa9ba4;opacity:0.2;"/>
   </g>
   <g id="patch_88">
    <path clip-path="url(#p827ffe4ee9)" d="M 260.092173 307.584 
L 262.0414 307.584 
L 262.0414 304.278261 
L 260.092173 304.278261 
z
" style="fill:#fa9ba4;opacity:0.2;"/>
   </g>
   <g id="patch_89">
    <path clip-path="url(#p827ffe4ee9)" d="M 262.25798 307.584 
L 264.207207 307.584 
L 264.207207 302.625391 
L 262.25798 302.625391 
z
" style="fill:#fa9ba4;opacity:0.2;"/>
   </g>
   <g id="patch_90">
    <path clip-path="url(#p827ffe4ee9)" d="M 264.423788 307.584 
L 266.373015 307.584 
L 266.373015 307.584 
L 264.423788 307.584 
z
" style="fill:#fa9ba4;opacity:0.2;"/>
   </g>
   <g id="patch_91">
    <path clip-path="url(#p827ffe4ee9)" d="M 266.589595 307.584 
L 268.538822 307.584 
L 268.538822 307.584 
L 266.589595 307.584 
z
" style="fill:#fa9ba4;opacity:0.2;"/>
   </g>
   <g id="patch_92">
    <path clip-path="url(#p827ffe4ee9)" d="M 268.755403 307.584 
L 270.70463 307.584 
L 270.70463 307.584 
L 268.755403 307.584 
z
" style="fill:#fa9ba4;opacity:0.2;"/>
   </g>
   <g id="patch_93">
    <path clip-path="url(#p827ffe4ee9)" d="M 270.921211 307.584 
L 272.870437 307.584 
L 272.870437 307.584 
L 270.921211 307.584 
z
" style="fill:#fa9ba4;opacity:0.2;"/>
   </g>
   <g id="patch_94">
    <path clip-path="url(#p827ffe4ee9)" d="M 273.087018 307.584 
L 275.036245 307.584 
L 275.036245 307.584 
L 273.087018 307.584 
z
" style="fill:#fa9ba4;opacity:0.2;"/>
   </g>
   <g id="patch_95">
    <path clip-path="url(#p827ffe4ee9)" d="M 275.252826 307.584 
L 277.202052 307.584 
L 277.202052 307.584 
L 275.252826 307.584 
z
" style="fill:#fa9ba4;opacity:0.2;"/>
   </g>
   <g id="patch_96">
    <path clip-path="url(#p827ffe4ee9)" d="M 277.418633 307.584 
L 279.36786 307.584 
L 279.36786 307.584 
L 277.418633 307.584 
z
" style="fill:#fa9ba4;opacity:0.2;"/>
   </g>
   <g id="patch_97">
    <path clip-path="url(#p827ffe4ee9)" d="M 279.584441 307.584 
L 281.533667 307.584 
L 281.533667 307.584 
L 279.584441 307.584 
z
" style="fill:#fa9ba4;opacity:0.2;"/>
   </g>
   <g id="patch_98">
    <path clip-path="url(#p827ffe4ee9)" d="M 281.750248 307.584 
L 283.699475 307.584 
L 283.699475 307.584 
L 281.750248 307.584 
z
" style="fill:#fa9ba4;opacity:0.2;"/>
   </g>
   <g id="patch_99">
    <path clip-path="url(#p827ffe4ee9)" d="M 283.916056 307.584 
L 285.865282 307.584 
L 285.865282 307.584 
L 283.916056 307.584 
z
" style="fill:#fa9ba4;opacity:0.2;"/>
   </g>
   <g id="patch_100">
    <path clip-path="url(#p827ffe4ee9)" d="M 286.081863 307.584 
L 288.03109 307.584 
L 288.03109 307.584 
L 286.081863 307.584 
z
" style="fill:#fa9ba4;opacity:0.2;"/>
   </g>
   <g id="patch_101">
    <path clip-path="url(#p827ffe4ee9)" d="M 288.247671 307.584 
L 290.196897 307.584 
L 290.196897 307.584 
L 288.247671 307.584 
z
" style="fill:#fa9ba4;opacity:0.2;"/>
   </g>
   <g id="patch_102">
    <path clip-path="url(#p827ffe4ee9)" d="M 290.413478 307.584 
L 292.362705 307.584 
L 292.362705 307.584 
L 290.413478 307.584 
z
" style="fill:#fa9ba4;opacity:0.2;"/>
   </g>
   <g id="patch_103">
    <path clip-path="url(#p827ffe4ee9)" d="M 292.579286 307.584 
L 294.528512 307.584 
L 294.528512 307.584 
L 292.579286 307.584 
z
" style="fill:#fa9ba4;opacity:0.2;"/>
   </g>
   <g id="patch_104">
    <path clip-path="url(#p827ffe4ee9)" d="M 294.745093 307.584 
L 296.69432 307.584 
L 296.69432 307.584 
L 294.745093 307.584 
z
" style="fill:#fa9ba4;opacity:0.2;"/>
   </g>
   <g id="patch_105">
    <path clip-path="url(#p827ffe4ee9)" d="M 296.910901 307.584 
L 298.860127 307.584 
L 298.860127 307.584 
L 296.910901 307.584 
z
" style="fill:#fa9ba4;opacity:0.2;"/>
   </g>
   <g id="patch_106">
    <path clip-path="url(#p827ffe4ee9)" d="M 299.076708 307.584 
L 301.025935 307.584 
L 301.025935 307.584 
L 299.076708 307.584 
z
" style="fill:#fa9ba4;opacity:0.2;"/>
   </g>
   <g id="patch_107">
    <path clip-path="url(#p827ffe4ee9)" d="M 301.242516 307.584 
L 303.191742 307.584 
L 303.191742 307.584 
L 301.242516 307.584 
z
" style="fill:#fa9ba4;opacity:0.2;"/>
   </g>
   <g id="patch_108">
    <path clip-path="url(#p827ffe4ee9)" d="M 303.408323 307.584 
L 305.35755 307.584 
L 305.35755 307.584 
L 303.408323 307.584 
z
" style="fill:#fa9ba4;opacity:0.2;"/>
   </g>
   <g id="patch_109">
    <path clip-path="url(#p827ffe4ee9)" d="M 305.574131 307.584 
L 307.523357 307.584 
L 307.523357 307.584 
L 305.574131 307.584 
z
" style="fill:#fa9ba4;opacity:0.2;"/>
   </g>
   <g id="patch_110">
    <path clip-path="url(#p827ffe4ee9)" d="M 307.739938 307.584 
L 309.689165 307.584 
L 309.689165 307.584 
L 307.739938 307.584 
z
" style="fill:#fa9ba4;opacity:0.2;"/>
   </g>
   <g id="patch_111">
    <path clip-path="url(#p827ffe4ee9)" d="M 309.905746 307.584 
L 311.854972 307.584 
L 311.854972 307.584 
L 309.905746 307.584 
z
" style="fill:#fa9ba4;opacity:0.2;"/>
   </g>
   <g id="patch_112">
    <path clip-path="url(#p827ffe4ee9)" d="M 312.071553 307.584 
L 314.02078 307.584 
L 314.02078 307.584 
L 312.071553 307.584 
z
" style="fill:#fa9ba4;opacity:0.2;"/>
   </g>
   <g id="patch_113">
    <path clip-path="url(#p827ffe4ee9)" d="M 314.237361 307.584 
L 316.186587 307.584 
L 316.186587 304.278261 
L 314.237361 304.278261 
z
" style="fill:#fa9ba4;opacity:0.2;"/>
   </g>
   <g id="patch_114">
    <path clip-path="url(#p827ffe4ee9)" d="M 316.403168 307.584 
L 318.352395 307.584 
L 318.352395 307.584 
L 316.403168 307.584 
z
" style="fill:#fa9ba4;opacity:0.2;"/>
   </g>
   <g id="patch_115">
    <path clip-path="url(#p827ffe4ee9)" d="M 318.568976 307.584 
L 320.518202 307.584 
L 320.518202 297.666783 
L 318.568976 297.666783 
z
" style="fill:#fa9ba4;opacity:0.2;"/>
   </g>
   <g id="patch_116">
    <path clip-path="url(#p827ffe4ee9)" d="M 320.734783 307.584 
L 322.68401 307.584 
L 322.68401 284.443826 
L 320.734783 284.443826 
z
" style="fill:#fa9ba4;opacity:0.2;"/>
   </g>
   <g id="patch_117">
    <path clip-path="url(#p827ffe4ee9)" d="M 322.900591 307.584 
L 324.849817 307.584 
L 324.849817 257.997913 
L 322.900591 257.997913 
z
" style="fill:#fa9ba4;opacity:0.2;"/>
   </g>
   <g id="patch_118">
    <path clip-path="url(#p827ffe4ee9)" d="M 325.066398 307.584 
L 327.015625 307.584 
L 327.015625 241.469217 
L 325.066398 241.469217 
z
" style="fill:#fa9ba4;opacity:0.2;"/>
   </g>
   <g id="patch_119">
    <path clip-path="url(#p827ffe4ee9)" d="M 327.232206 307.584 
L 329.181432 307.584 
L 329.181432 226.593391 
L 327.232206 226.593391 
z
" style="fill:#fa9ba4;opacity:0.2;"/>
   </g>
   <g id="patch_120">
    <path clip-path="url(#p827ffe4ee9)" d="M 329.398013 307.584 
L 331.34724 307.584 
L 331.34724 221.634783 
L 329.398013 221.634783 
z
" style="fill:#fa9ba4;opacity:0.2;"/>
   </g>
   <g id="patch_121">
    <path clip-path="url(#p827ffe4ee9)" d="M 331.563821 307.584 
L 333.513047 307.584 
L 333.513047 188.577391 
L 331.563821 188.577391 
z
" style="fill:#fa9ba4;opacity:0.2;"/>
   </g>
   <g id="patch_122">
    <path clip-path="url(#p827ffe4ee9)" d="M 333.729628 307.584 
L 335.678855 307.584 
L 335.678855 41.472 
L 333.729628 41.472 
z
" style="fill:#fa9ba4;opacity:0.2;"/>
   </g>
   <g id="patch_123">
    <path clip-path="url(#p827ffe4ee9)" d="M 335.895436 307.584 
L 337.844663 307.584 
L 337.844663 145.602783 
L 335.895436 145.602783 
z
" style="fill:#fa9ba4;opacity:0.2;"/>
   </g>
   <g id="patch_124">
    <path clip-path="url(#p827ffe4ee9)" d="M 338.061243 307.584 
L 340.01047 307.584 
L 340.01047 142.297043 
L 338.061243 142.297043 
z
" style="fill:#fa9ba4;opacity:0.2;"/>
   </g>
   <g id="patch_125">
    <path clip-path="url(#p827ffe4ee9)" d="M 340.227051 307.584 
L 342.176278 307.584 
L 342.176278 211.717565 
L 340.227051 211.717565 
z
" style="fill:#fa9ba4;opacity:0.2;"/>
   </g>
   <g id="patch_126">
    <path clip-path="url(#p827ffe4ee9)" d="M 342.392858 307.584 
L 344.342085 307.584 
L 344.342085 198.494609 
L 342.392858 198.494609 
z
" style="fill:#fa9ba4;opacity:0.2;"/>
   </g>
   <g id="patch_127">
    <path clip-path="url(#p827ffe4ee9)" d="M 344.558666 307.584 
L 346.507893 307.584 
L 346.507893 267.91513 
L 344.558666 267.91513 
z
" style="fill:#fa9ba4;opacity:0.2;"/>
   </g>
   <g id="patch_128">
    <path clip-path="url(#p827ffe4ee9)" d="M 346.724473 307.584 
L 348.6737 307.584 
L 348.6737 239.816348 
L 346.724473 239.816348 
z
" style="fill:#fa9ba4;opacity:0.2;"/>
   </g>
   <g id="patch_129">
    <path clip-path="url(#p827ffe4ee9)" d="M 348.890281 307.584 
L 350.839508 307.584 
L 350.839508 229.89913 
L 348.890281 229.89913 
z
" style="fill:#fa9ba4;opacity:0.2;"/>
   </g>
   <g id="patch_130">
    <path clip-path="url(#p827ffe4ee9)" d="M 351.056088 307.584 
L 353.005315 307.584 
L 353.005315 246.427826 
L 351.056088 246.427826 
z
" style="fill:#fa9ba4;opacity:0.2;"/>
   </g>
   <g id="patch_131">
    <path clip-path="url(#p827ffe4ee9)" d="M 353.221896 307.584 
L 355.171123 307.584 
L 355.171123 234.857739 
L 353.221896 234.857739 
z
" style="fill:#fa9ba4;opacity:0.2;"/>
   </g>
   <g id="patch_132">
    <path clip-path="url(#p827ffe4ee9)" d="M 355.387703 307.584 
L 357.33693 307.584 
L 357.33693 269.568 
L 355.387703 269.568 
z
" style="fill:#fa9ba4;opacity:0.2;"/>
   </g>
   <g id="patch_133">
    <path clip-path="url(#p827ffe4ee9)" d="M 357.553511 307.584 
L 359.502738 307.584 
L 359.502738 274.526609 
L 357.553511 274.526609 
z
" style="fill:#fa9ba4;opacity:0.2;"/>
   </g>
   <g id="patch_134">
    <path clip-path="url(#p827ffe4ee9)" d="M 359.719318 307.584 
L 361.668545 307.584 
L 361.668545 277.832348 
L 359.719318 277.832348 
z
" style="fill:#fa9ba4;opacity:0.2;"/>
   </g>
   <g id="patch_135">
    <path clip-path="url(#p827ffe4ee9)" d="M 361.885126 307.584 
L 363.834353 307.584 
L 363.834353 272.873739 
L 361.885126 272.873739 
z
" style="fill:#fa9ba4;opacity:0.2;"/>
   </g>
   <g id="patch_136">
    <path clip-path="url(#p827ffe4ee9)" d="M 364.050933 307.584 
L 366.00016 307.584 
L 366.00016 289.402435 
L 364.050933 289.402435 
z
" style="fill:#fa9ba4;opacity:0.2;"/>
   </g>
   <g id="patch_137">
    <path clip-path="url(#p827ffe4ee9)" d="M 366.216741 307.584 
L 368.165968 307.584 
L 368.165968 257.997913 
L 366.216741 257.997913 
z
" style="fill:#fa9ba4;opacity:0.2;"/>
   </g>
   <g id="patch_138">
    <path clip-path="url(#p827ffe4ee9)" d="M 368.382548 307.584 
L 370.331775 307.584 
L 370.331775 289.402435 
L 368.382548 289.402435 
z
" style="fill:#fa9ba4;opacity:0.2;"/>
   </g>
   <g id="patch_139">
    <path clip-path="url(#p827ffe4ee9)" d="M 370.548356 307.584 
L 372.497583 307.584 
L 372.497583 294.361043 
L 370.548356 294.361043 
z
" style="fill:#fa9ba4;opacity:0.2;"/>
   </g>
   <g id="patch_140">
    <path clip-path="url(#p827ffe4ee9)" d="M 372.714163 307.584 
L 374.66339 307.584 
L 374.66339 297.666783 
L 372.714163 297.666783 
z
" style="fill:#fa9ba4;opacity:0.2;"/>
   </g>
   <g id="patch_141">
    <path clip-path="url(#p827ffe4ee9)" d="M 374.879971 307.584 
L 376.829198 307.584 
L 376.829198 297.666783 
L 374.879971 297.666783 
z
" style="fill:#fa9ba4;opacity:0.2;"/>
   </g>
   <g id="patch_142">
    <path clip-path="url(#p827ffe4ee9)" d="M 377.045778 307.584 
L 378.995005 307.584 
L 378.995005 291.055304 
L 377.045778 291.055304 
z
" style="fill:#fa9ba4;opacity:0.2;"/>
   </g>
   <g id="patch_143">
    <path clip-path="url(#p827ffe4ee9)" d="M 379.211586 307.584 
L 381.160813 307.584 
L 381.160813 286.096696 
L 379.211586 286.096696 
z
" style="fill:#fa9ba4;opacity:0.2;"/>
   </g>
   <g id="patch_144">
    <path clip-path="url(#p827ffe4ee9)" d="M 381.377393 307.584 
L 383.32662 307.584 
L 383.32662 271.22087 
L 381.377393 271.22087 
z
" style="fill:#fa9ba4;opacity:0.2;"/>
   </g>
   <g id="patch_145">
    <path clip-path="url(#p827ffe4ee9)" d="M 383.543201 307.584 
L 385.492428 307.584 
L 385.492428 262.956522 
L 383.543201 262.956522 
z
" style="fill:#fa9ba4;opacity:0.2;"/>
   </g>
   <g id="patch_146">
    <path clip-path="url(#p827ffe4ee9)" d="M 385.709008 307.584 
L 387.658235 307.584 
L 387.658235 142.297043 
L 385.709008 142.297043 
z
" style="fill:#fa9ba4;opacity:0.2;"/>
   </g>
   <g id="patch_147">
    <path clip-path="url(#p827ffe4ee9)" d="M 387.874816 307.584 
L 389.824043 307.584 
L 389.824043 261.303652 
L 387.874816 261.303652 
z
" style="fill:#fa9ba4;opacity:0.2;"/>
   </g>
   <g id="patch_148">
    <path clip-path="url(#p827ffe4ee9)" d="M 390.040623 307.584 
L 391.98985 307.584 
L 391.98985 291.055304 
L 390.040623 291.055304 
z
" style="fill:#fa9ba4;opacity:0.2;"/>
   </g>
   <g id="patch_149">
    <path clip-path="url(#p827ffe4ee9)" d="M 392.206431 307.584 
L 394.155658 307.584 
L 394.155658 277.832348 
L 392.206431 277.832348 
z
" style="fill:#fa9ba4;opacity:0.2;"/>
   </g>
   <g id="patch_150">
    <path clip-path="url(#p827ffe4ee9)" d="M 394.372238 307.584 
L 396.321465 307.584 
L 396.321465 282.790957 
L 394.372238 282.790957 
z
" style="fill:#fa9ba4;opacity:0.2;"/>
   </g>
   <g id="patch_151">
    <path clip-path="url(#p827ffe4ee9)" d="M 396.538046 307.584 
L 398.487273 307.584 
L 398.487273 239.816348 
L 396.538046 239.816348 
z
" style="fill:#fa9ba4;opacity:0.2;"/>
   </g>
   <g id="matplotlib.axis_1"/>
   <g id="matplotlib.axis_2"/>
   <g id="PolyCollection_1">
    <defs>
     <path d="M 369.357162 -69.656646 
L 369.357162 -38.016 
L 371.522969 -38.016 
L 373.688777 -38.016 
L 375.854584 -38.016 
L 378.020392 -38.016 
L 380.186199 -38.016 
L 382.352007 -38.016 
L 384.517814 -38.016 
L 386.683622 -38.016 
L 388.849429 -38.016 
L 391.015237 -38.016 
L 393.181044 -38.016 
L 395.346852 -38.016 
L 397.512659 -38.016 
L 397.512659 -94.449689 
L 397.512659 -94.449689 
L 395.346852 -89.963329 
L 393.181044 -89.491081 
L 391.015237 -87.602087 
L 388.849429 -86.65759 
L 386.683622 -81.462857 
L 384.517814 -59.739429 
L 382.352007 -55.961441 
L 380.186199 -57.850435 
L 378.020392 -57.378186 
L 375.854584 -59.975553 
L 373.688777 -62.809043 
L 371.522969 -66.114783 
L 369.357162 -69.656646 
z
" id="m6a26c3455b" style="stroke:#dc3545;stroke-opacity:0.5;"/>
    </defs>
    <g clip-path="url(#p827ffe4ee9)">
     <use style="fill:#dc3545;fill-opacity:0.5;stroke:#dc3545;stroke-opacity:0.5;" x="0" xlink:href="#m6a26c3455b" y="345.6"/>
    </g>
   </g>
   <g id="PolyCollection_2">
    <defs>
     <path d="M 87.802186 -38.016 
L 87.802186 -38.016 
L 89.967993 -38.016 
L 92.133801 -38.016 
L 94.299608 -38.016 
L 96.465416 -38.016 
L 98.631223 -38.016 
L 100.797031 -38.016 
L 102.962838 -38.016 
L 105.128646 -38.016 
L 107.294453 -38.016 
L 109.460261 -38.016 
L 111.626068 -38.016 
L 113.791876 -38.016 
L 115.957683 -38.016 
L 118.123491 -38.016 
L 120.289298 -38.016 
L 122.455106 -38.016 
L 124.620913 -38.016 
L 126.786721 -38.016 
L 128.952528 -38.016 
L 131.118336 -38.016 
L 133.284143 -38.016 
L 135.449951 -38.016 
L 137.615758 -38.016 
L 139.781566 -38.016 
L 141.947373 -38.016 
L 144.113181 -38.016 
L 146.278988 -38.016 
L 148.444796 -38.016 
L 150.610603 -38.016 
L 152.776411 -38.016 
L 154.942218 -38.016 
L 157.108026 -38.016 
L 159.273833 -38.016 
L 161.439641 -38.016 
L 163.605448 -38.016 
L 165.771256 -38.016 
L 167.937063 -38.016 
L 170.102871 -38.016 
L 172.268679 -38.016 
L 174.434486 -38.016 
L 176.600294 -38.016 
L 178.766101 -38.016 
L 180.931909 -38.016 
L 183.097716 -38.016 
L 185.263524 -38.016 
L 187.429331 -38.016 
L 189.595139 -38.016 
L 191.760946 -38.016 
L 193.926754 -38.016 
L 196.092561 -38.016 
L 198.258369 -38.016 
L 200.424176 -38.016 
L 202.589984 -38.016 
L 204.755791 -38.016 
L 206.921599 -38.016 
L 209.087406 -38.016 
L 211.253214 -38.016 
L 213.419021 -38.016 
L 215.584829 -38.016 
L 217.750636 -38.016 
L 219.916444 -38.016 
L 222.082251 -38.016 
L 224.248059 -38.016 
L 226.413866 -38.016 
L 228.579674 -38.016 
L 230.745481 -38.016 
L 232.911289 -38.016 
L 235.077096 -38.016 
L 237.242904 -38.016 
L 239.408711 -38.016 
L 241.574519 -38.016 
L 243.740326 -38.016 
L 245.906134 -38.016 
L 248.071941 -38.016 
L 250.237749 -38.016 
L 252.403556 -38.016 
L 254.569364 -38.016 
L 256.735171 -38.016 
L 258.900979 -38.016 
L 261.066786 -38.016 
L 263.232594 -38.016 
L 265.398401 -38.016 
L 267.564209 -38.016 
L 269.730016 -38.016 
L 271.895824 -38.016 
L 274.061631 -38.016 
L 276.227439 -38.016 
L 278.393246 -38.016 
L 280.559054 -38.016 
L 282.724861 -38.016 
L 284.890669 -38.016 
L 287.056476 -38.016 
L 289.222284 -38.016 
L 291.388091 -38.016 
L 293.553899 -38.016 
L 295.719706 -38.016 
L 297.885514 -38.016 
L 300.051321 -38.016 
L 302.217129 -38.016 
L 304.382937 -38.016 
L 306.548744 -38.016 
L 308.714552 -38.016 
L 310.880359 -38.016 
L 313.046167 -38.016 
L 315.211974 -38.016 
L 317.377782 -38.016 
L 319.543589 -38.016 
L 321.709397 -38.016 
L 323.875204 -38.016 
L 326.041012 -38.016 
L 328.206819 -38.016 
L 330.372627 -38.016 
L 332.538434 -38.016 
L 334.704242 -38.016 
L 336.870049 -38.016 
L 339.035857 -38.016 
L 341.201664 -38.016 
L 343.367472 -38.016 
L 345.533279 -38.016 
L 347.699087 -38.016 
L 349.864894 -38.016 
L 352.030702 -38.016 
L 354.196509 -38.016 
L 356.362317 -38.016 
L 358.528124 -38.016 
L 360.693932 -38.016 
L 362.859739 -38.016 
L 365.025547 -38.016 
L 367.191354 -38.016 
L 369.357162 -38.016 
L 369.357162 -69.656646 
L 369.357162 -69.656646 
L 367.191354 -77.448745 
L 365.025547 -79.101615 
L 362.859739 -87.602087 
L 360.693932 -92.324571 
L 358.528124 -93.741317 
L 356.362317 -104.603031 
L 354.196509 -112.867379 
L 352.030702 -126.090335 
L 349.864894 -140.493913 
L 347.699087 -167.412075 
L 345.533279 -174.731925 
L 343.367472 -181.343404 
L 341.201664 -177.329292 
L 339.035857 -173.079056 
L 336.870049 -156.55036 
L 334.704242 -136.715925 
L 332.538434 -100.116671 
L 330.372627 -83.115727 
L 328.206819 -71.309516 
L 326.041012 -59.739429 
L 323.875204 -50.29446 
L 321.709397 -43.210733 
L 319.543589 -39.904994 
L 317.377782 -38.488248 
L 315.211974 -38.488248 
L 313.046167 -38.016 
L 310.880359 -38.016 
L 308.714552 -38.016 
L 306.548744 -38.016 
L 304.382937 -38.016 
L 302.217129 -38.016 
L 300.051321 -38.016 
L 297.885514 -38.016 
L 295.719706 -38.016 
L 293.553899 -38.016 
L 291.388091 -38.016 
L 289.222284 -38.016 
L 287.056476 -38.016 
L 284.890669 -38.016 
L 282.724861 -38.016 
L 280.559054 -38.016 
L 278.393246 -38.016 
L 276.227439 -38.724373 
L 274.061631 -39.196621 
L 271.895824 -39.196621 
L 269.730016 -39.196621 
L 267.564209 -39.196621 
L 265.398401 -39.196621 
L 263.232594 -39.196621 
L 261.066786 -38.488248 
L 258.900979 -38.016 
L 256.735171 -38.252124 
L 254.569364 -38.252124 
L 252.403556 -38.252124 
L 250.237749 -38.252124 
L 248.071941 -38.252124 
L 245.906134 -38.488248 
L 243.740326 -38.488248 
L 241.574519 -38.252124 
L 239.408711 -38.252124 
L 237.242904 -38.252124 
L 235.077096 -38.252124 
L 232.911289 -38.252124 
L 230.745481 -38.016 
L 228.579674 -38.016 
L 226.413866 -38.016 
L 224.248059 -38.016 
L 222.082251 -38.016 
L 219.916444 -38.016 
L 217.750636 -38.016 
L 215.584829 -38.016 
L 213.419021 -38.016 
L 211.253214 -38.016 
L 209.087406 -38.016 
L 206.921599 -38.016 
L 204.755791 -38.016 
L 202.589984 -38.016 
L 200.424176 -38.016 
L 198.258369 -38.016 
L 196.092561 -38.016 
L 193.926754 -38.016 
L 191.760946 -38.016 
L 189.595139 -38.016 
L 187.429331 -38.016 
L 185.263524 -38.016 
L 183.097716 -38.016 
L 180.931909 -38.016 
L 178.766101 -38.016 
L 176.600294 -38.016 
L 174.434486 -38.016 
L 172.268679 -38.016 
L 170.102871 -38.016 
L 167.937063 -38.016 
L 165.771256 -38.016 
L 163.605448 -38.016 
L 161.439641 -38.016 
L 159.273833 -38.016 
L 157.108026 -38.016 
L 154.942218 -38.016 
L 152.776411 -38.016 
L 150.610603 -38.016 
L 148.444796 -38.016 
L 146.278988 -38.016 
L 144.113181 -38.016 
L 141.947373 -38.016 
L 139.781566 -38.016 
L 137.615758 -38.016 
L 135.449951 -38.016 
L 133.284143 -38.016 
L 131.118336 -38.252124 
L 128.952528 -38.252124 
L 126.786721 -38.252124 
L 124.620913 -38.252124 
L 122.455106 -38.252124 
L 120.289298 -38.252124 
L 118.123491 -38.252124 
L 115.957683 -38.016 
L 113.791876 -38.016 
L 111.626068 -38.016 
L 109.460261 -38.016 
L 107.294453 -38.016 
L 105.128646 -38.016 
L 102.962838 -38.016 
L 100.797031 -38.016 
L 98.631223 -38.016 
L 96.465416 -38.016 
L 94.299608 -38.016 
L 92.133801 -38.016 
L 89.967993 -38.016 
L 87.802186 -38.016 
z
" id="m9d00d5a4cc" style="stroke:#fa9ba4;stroke-opacity:0.3;"/>
    </defs>
    <g clip-path="url(#p827ffe4ee9)">
     <use style="fill:#fa9ba4;fill-opacity:0.3;stroke:#fa9ba4;stroke-opacity:0.3;" x="0" xlink:href="#m9d00d5a4cc" y="345.6"/>
    </g>
   </g>
   <g id="line2d_1">
    <path clip-path="url(#p827ffe4ee9)" d="M 87.802186 307.584 
L 115.957683 307.584 
L 118.123491 307.347876 
L 131.118336 307.347876 
L 133.284143 307.584 
L 230.745481 307.584 
L 232.911289 307.347876 
L 241.574519 307.347876 
L 243.740326 307.111752 
L 245.906134 307.111752 
L 248.071941 307.347876 
L 256.735171 307.347876 
L 258.900979 307.584 
L 261.066786 307.111752 
L 263.232594 306.403379 
L 274.061631 306.403379 
L 276.227439 306.875627 
L 278.393246 307.584 
L 313.046167 307.584 
L 315.211974 307.111752 
L 317.377782 307.111752 
L 319.543589 305.695006 
L 321.709397 302.389267 
L 323.875204 295.30554 
L 326.041012 285.860571 
L 330.372627 262.484273 
L 332.538434 245.483329 
L 334.704242 208.884075 
L 336.870049 189.04964 
L 339.035857 172.520944 
L 343.367472 164.256596 
L 345.533279 170.868075 
L 347.699087 178.187925 
L 349.864894 205.106087 
L 352.030702 219.509665 
L 354.196509 232.732621 
L 356.362317 240.996969 
L 358.528124 251.858683 
L 360.693932 253.275429 
L 362.859739 257.997913 
L 365.025547 266.498385 
L 367.191354 268.151255 
L 369.357162 275.943354 
L 371.522969 279.485217 
L 373.688777 282.790957 
L 375.854584 285.624447 
L 378.020392 288.221814 
L 380.186199 287.749565 
L 382.352007 289.638559 
L 384.517814 285.860571 
L 386.683622 264.137143 
L 388.849429 258.94241 
L 391.015237 257.997913 
L 393.181044 256.108919 
L 395.346852 255.636671 
L 397.512659 251.150311 
L 397.512659 251.150311 
" style="fill:none;stroke:#fa9ba4;stroke-linecap:square;stroke-width:2;"/>
   </g>
   <g id="line2d_2">
    <path clip-path="url(#p827ffe4ee9)" d="M 369.357162 275.943354 
L 371.522969 279.485217 
L 373.688777 282.790957 
L 375.854584 285.624447 
L 378.020392 288.221814 
L 380.186199 287.749565 
L 382.352007 289.638559 
L 384.517814 285.860571 
L 386.683622 264.137143 
L 388.849429 258.94241 
L 391.015237 257.997913 
L 393.181044 256.108919 
L 395.346852 255.636671 
L 397.512659 251.150311 
" style="fill:none;stroke:#dc3545;stroke-linecap:square;stroke-width:2;"/>
   </g>
  </g>
 </g>
 <defs>
  <clipPath id="p827ffe4ee9">
   <rect height="266.112" width="357.12" x="57.6" y="41.472"/>
  </clipPath>
 </defs>
</svg>
