<?xml version="1.0" encoding="utf-8" standalone="no"?>
<!DOCTYPE svg PUBLIC "-//W3C//DTD SVG 1.1//EN"
  "http://www.w3.org/Graphics/SVG/1.1/DTD/svg11.dtd">
<svg height="345.6pt" version="1.1" viewBox="0 0 460.8 345.6" width="460.8pt" xmlns="http://www.w3.org/2000/svg" xmlns:xlink="http://www.w3.org/1999/xlink">
 <metadata>
  <rdf:RDF xmlns:cc="http://creativecommons.org/ns#" xmlns:dc="http://purl.org/dc/elements/1.1/" xmlns:rdf="http://www.w3.org/1999/02/22-rdf-syntax-ns#">
   <cc:Work>
    <dc:type rdf:resource="http://purl.org/dc/dcmitype/StillImage"/>
    <dc:date>2021-04-29T08:02:54.226750</dc:date>
    <dc:format>image/svg+xml</dc:format>
    <dc:creator>
     <cc:Agent>
      <dc:title>Matplotlib v3.4.1, https://matplotlib.org/</dc:title>
     </cc:Agent>
    </dc:creator>
   </cc:Work>
  </rdf:RDF>
 </metadata>
 <defs>
  <style type="text/css">*{stroke-linecap:butt;stroke-linejoin:round;}</style>
 </defs>
 <g id="figure_1">
  <g id="patch_1">
   <path d="M 0 345.6 
L 460.8 345.6 
L 460.8 0 
L 0 0 
z
" style="fill:none;"/>
  </g>
  <g id="axes_1">
   <g id="patch_2">
    <path clip-path="url(#p98b00bbd9d)" d="M 73.832727 307.584 
L 75.998695 307.584 
L 75.998695 307.584 
L 73.832727 307.584 
z
" style="fill:#fa9ba4;opacity:0.2;"/>
   </g>
   <g id="patch_3">
    <path clip-path="url(#p98b00bbd9d)" d="M 76.239358 307.584 
L 78.405327 307.584 
L 78.405327 307.584 
L 76.239358 307.584 
z
" style="fill:#fa9ba4;opacity:0.2;"/>
   </g>
   <g id="patch_4">
    <path clip-path="url(#p98b00bbd9d)" d="M 78.64599 307.584 
L 80.811958 307.584 
L 80.811958 307.584 
L 78.64599 307.584 
z
" style="fill:#fa9ba4;opacity:0.2;"/>
   </g>
   <g id="patch_5">
    <path clip-path="url(#p98b00bbd9d)" d="M 81.052621 307.584 
L 83.218589 307.584 
L 83.218589 307.584 
L 81.052621 307.584 
z
" style="fill:#fa9ba4;opacity:0.2;"/>
   </g>
   <g id="patch_6">
    <path clip-path="url(#p98b00bbd9d)" d="M 83.459252 307.584 
L 85.62522 307.584 
L 85.62522 307.584 
L 83.459252 307.584 
z
" style="fill:#fa9ba4;opacity:0.2;"/>
   </g>
   <g id="patch_7">
    <path clip-path="url(#p98b00bbd9d)" d="M 85.865883 307.584 
L 88.031851 307.584 
L 88.031851 307.584 
L 85.865883 307.584 
z
" style="fill:#fa9ba4;opacity:0.2;"/>
   </g>
   <g id="patch_8">
    <path clip-path="url(#p98b00bbd9d)" d="M 88.272514 307.584 
L 90.438482 307.584 
L 90.438482 307.584 
L 88.272514 307.584 
z
" style="fill:#fa9ba4;opacity:0.2;"/>
   </g>
   <g id="patch_9">
    <path clip-path="url(#p98b00bbd9d)" d="M 90.679145 307.584 
L 92.845114 307.584 
L 92.845114 307.584 
L 90.679145 307.584 
z
" style="fill:#fa9ba4;opacity:0.2;"/>
   </g>
   <g id="patch_10">
    <path clip-path="url(#p98b00bbd9d)" d="M 93.085777 307.584 
L 95.251745 307.584 
L 95.251745 298.7136 
L 93.085777 298.7136 
z
" style="fill:#fa9ba4;opacity:0.2;"/>
   </g>
   <g id="patch_11">
    <path clip-path="url(#p98b00bbd9d)" d="M 95.492408 307.584 
L 97.658376 307.584 
L 97.658376 307.584 
L 95.492408 307.584 
z
" style="fill:#fa9ba4;opacity:0.2;"/>
   </g>
   <g id="patch_12">
    <path clip-path="url(#p98b00bbd9d)" d="M 97.899039 307.584 
L 100.065007 307.584 
L 100.065007 289.8432 
L 97.899039 289.8432 
z
" style="fill:#fa9ba4;opacity:0.2;"/>
   </g>
   <g id="patch_13">
    <path clip-path="url(#p98b00bbd9d)" d="M 100.30567 307.584 
L 102.471638 307.584 
L 102.471638 307.584 
L 100.30567 307.584 
z
" style="fill:#fa9ba4;opacity:0.2;"/>
   </g>
   <g id="patch_14">
    <path clip-path="url(#p98b00bbd9d)" d="M 102.712301 307.584 
L 104.878269 307.584 
L 104.878269 307.584 
L 102.712301 307.584 
z
" style="fill:#fa9ba4;opacity:0.2;"/>
   </g>
   <g id="patch_15">
    <path clip-path="url(#p98b00bbd9d)" d="M 105.118933 307.584 
L 107.284901 307.584 
L 107.284901 307.584 
L 105.118933 307.584 
z
" style="fill:#fa9ba4;opacity:0.2;"/>
   </g>
   <g id="patch_16">
    <path clip-path="url(#p98b00bbd9d)" d="M 107.525564 307.584 
L 109.691532 307.584 
L 109.691532 307.584 
L 107.525564 307.584 
z
" style="fill:#fa9ba4;opacity:0.2;"/>
   </g>
   <g id="patch_17">
    <path clip-path="url(#p98b00bbd9d)" d="M 109.932195 307.584 
L 112.098163 307.584 
L 112.098163 307.584 
L 109.932195 307.584 
z
" style="fill:#fa9ba4;opacity:0.2;"/>
   </g>
   <g id="patch_18">
    <path clip-path="url(#p98b00bbd9d)" d="M 112.338826 307.584 
L 114.504794 307.584 
L 114.504794 307.584 
L 112.338826 307.584 
z
" style="fill:#fa9ba4;opacity:0.2;"/>
   </g>
   <g id="patch_19">
    <path clip-path="url(#p98b00bbd9d)" d="M 114.745457 307.584 
L 116.911425 307.584 
L 116.911425 307.584 
L 114.745457 307.584 
z
" style="fill:#fa9ba4;opacity:0.2;"/>
   </g>
   <g id="patch_20">
    <path clip-path="url(#p98b00bbd9d)" d="M 117.152088 307.584 
L 119.318056 307.584 
L 119.318056 307.584 
L 117.152088 307.584 
z
" style="fill:#fa9ba4;opacity:0.2;"/>
   </g>
   <g id="patch_21">
    <path clip-path="url(#p98b00bbd9d)" d="M 119.55872 307.584 
L 121.724688 307.584 
L 121.724688 307.584 
L 119.55872 307.584 
z
" style="fill:#fa9ba4;opacity:0.2;"/>
   </g>
   <g id="patch_22">
    <path clip-path="url(#p98b00bbd9d)" d="M 121.965351 307.584 
L 124.131319 307.584 
L 124.131319 307.584 
L 121.965351 307.584 
z
" style="fill:#fa9ba4;opacity:0.2;"/>
   </g>
   <g id="patch_23">
    <path clip-path="url(#p98b00bbd9d)" d="M 124.371982 307.584 
L 126.53795 307.584 
L 126.53795 307.584 
L 124.371982 307.584 
z
" style="fill:#fa9ba4;opacity:0.2;"/>
   </g>
   <g id="patch_24">
    <path clip-path="url(#p98b00bbd9d)" d="M 126.778613 307.584 
L 128.944581 307.584 
L 128.944581 307.584 
L 126.778613 307.584 
z
" style="fill:#fa9ba4;opacity:0.2;"/>
   </g>
   <g id="patch_25">
    <path clip-path="url(#p98b00bbd9d)" d="M 129.185244 307.584 
L 131.351212 307.584 
L 131.351212 307.584 
L 129.185244 307.584 
z
" style="fill:#fa9ba4;opacity:0.2;"/>
   </g>
   <g id="patch_26">
    <path clip-path="url(#p98b00bbd9d)" d="M 131.591875 307.584 
L 133.757844 307.584 
L 133.757844 307.584 
L 131.591875 307.584 
z
" style="fill:#fa9ba4;opacity:0.2;"/>
   </g>
   <g id="patch_27">
    <path clip-path="url(#p98b00bbd9d)" d="M 133.998507 307.584 
L 136.164475 307.584 
L 136.164475 307.584 
L 133.998507 307.584 
z
" style="fill:#fa9ba4;opacity:0.2;"/>
   </g>
   <g id="patch_28">
    <path clip-path="url(#p98b00bbd9d)" d="M 136.405138 307.584 
L 138.571106 307.584 
L 138.571106 307.584 
L 136.405138 307.584 
z
" style="fill:#fa9ba4;opacity:0.2;"/>
   </g>
   <g id="patch_29">
    <path clip-path="url(#p98b00bbd9d)" d="M 138.811769 307.584 
L 140.977737 307.584 
L 140.977737 307.584 
L 138.811769 307.584 
z
" style="fill:#fa9ba4;opacity:0.2;"/>
   </g>
   <g id="patch_30">
    <path clip-path="url(#p98b00bbd9d)" d="M 141.2184 307.584 
L 143.384368 307.584 
L 143.384368 307.584 
L 141.2184 307.584 
z
" style="fill:#fa9ba4;opacity:0.2;"/>
   </g>
   <g id="patch_31">
    <path clip-path="url(#p98b00bbd9d)" d="M 143.625031 307.584 
L 145.790999 307.584 
L 145.790999 307.584 
L 143.625031 307.584 
z
" style="fill:#fa9ba4;opacity:0.2;"/>
   </g>
   <g id="patch_32">
    <path clip-path="url(#p98b00bbd9d)" d="M 146.031663 307.584 
L 148.197631 307.584 
L 148.197631 307.584 
L 146.031663 307.584 
z
" style="fill:#fa9ba4;opacity:0.2;"/>
   </g>
   <g id="patch_33">
    <path clip-path="url(#p98b00bbd9d)" d="M 148.438294 307.584 
L 150.604262 307.584 
L 150.604262 307.584 
L 148.438294 307.584 
z
" style="fill:#fa9ba4;opacity:0.2;"/>
   </g>
   <g id="patch_34">
    <path clip-path="url(#p98b00bbd9d)" d="M 150.844925 307.584 
L 153.010893 307.584 
L 153.010893 307.584 
L 150.844925 307.584 
z
" style="fill:#fa9ba4;opacity:0.2;"/>
   </g>
   <g id="patch_35">
    <path clip-path="url(#p98b00bbd9d)" d="M 153.251556 307.584 
L 155.417524 307.584 
L 155.417524 307.584 
L 153.251556 307.584 
z
" style="fill:#fa9ba4;opacity:0.2;"/>
   </g>
   <g id="patch_36">
    <path clip-path="url(#p98b00bbd9d)" d="M 155.658187 307.584 
L 157.824155 307.584 
L 157.824155 307.584 
L 155.658187 307.584 
z
" style="fill:#fa9ba4;opacity:0.2;"/>
   </g>
   <g id="patch_37">
    <path clip-path="url(#p98b00bbd9d)" d="M 158.064818 307.584 
L 160.230786 307.584 
L 160.230786 307.584 
L 158.064818 307.584 
z
" style="fill:#fa9ba4;opacity:0.2;"/>
   </g>
   <g id="patch_38">
    <path clip-path="url(#p98b00bbd9d)" d="M 160.47145 307.584 
L 162.637418 307.584 
L 162.637418 307.584 
L 160.47145 307.584 
z
" style="fill:#fa9ba4;opacity:0.2;"/>
   </g>
   <g id="patch_39">
    <path clip-path="url(#p98b00bbd9d)" d="M 162.878081 307.584 
L 165.044049 307.584 
L 165.044049 307.584 
L 162.878081 307.584 
z
" style="fill:#fa9ba4;opacity:0.2;"/>
   </g>
   <g id="patch_40">
    <path clip-path="url(#p98b00bbd9d)" d="M 165.284712 307.584 
L 167.45068 307.584 
L 167.45068 307.584 
L 165.284712 307.584 
z
" style="fill:#fa9ba4;opacity:0.2;"/>
   </g>
   <g id="patch_41">
    <path clip-path="url(#p98b00bbd9d)" d="M 167.691343 307.584 
L 169.857311 307.584 
L 169.857311 307.584 
L 167.691343 307.584 
z
" style="fill:#fa9ba4;opacity:0.2;"/>
   </g>
   <g id="patch_42">
    <path clip-path="url(#p98b00bbd9d)" d="M 170.097974 307.584 
L 172.263942 307.584 
L 172.263942 307.584 
L 170.097974 307.584 
z
" style="fill:#fa9ba4;opacity:0.2;"/>
   </g>
   <g id="patch_43">
    <path clip-path="url(#p98b00bbd9d)" d="M 172.504605 307.584 
L 174.670573 307.584 
L 174.670573 307.584 
L 172.504605 307.584 
z
" style="fill:#fa9ba4;opacity:0.2;"/>
   </g>
   <g id="patch_44">
    <path clip-path="url(#p98b00bbd9d)" d="M 174.911237 307.584 
L 177.077205 307.584 
L 177.077205 307.584 
L 174.911237 307.584 
z
" style="fill:#fa9ba4;opacity:0.2;"/>
   </g>
   <g id="patch_45">
    <path clip-path="url(#p98b00bbd9d)" d="M 177.317868 307.584 
L 179.483836 307.584 
L 179.483836 307.584 
L 177.317868 307.584 
z
" style="fill:#fa9ba4;opacity:0.2;"/>
   </g>
   <g id="patch_46">
    <path clip-path="url(#p98b00bbd9d)" d="M 179.724499 307.584 
L 181.890467 307.584 
L 181.890467 307.584 
L 179.724499 307.584 
z
" style="fill:#fa9ba4;opacity:0.2;"/>
   </g>
   <g id="patch_47">
    <path clip-path="url(#p98b00bbd9d)" d="M 182.13113 307.584 
L 184.297098 307.584 
L 184.297098 307.584 
L 182.13113 307.584 
z
" style="fill:#fa9ba4;opacity:0.2;"/>
   </g>
   <g id="patch_48">
    <path clip-path="url(#p98b00bbd9d)" d="M 184.537761 307.584 
L 186.703729 307.584 
L 186.703729 307.584 
L 184.537761 307.584 
z
" style="fill:#fa9ba4;opacity:0.2;"/>
   </g>
   <g id="patch_49">
    <path clip-path="url(#p98b00bbd9d)" d="M 186.944392 307.584 
L 189.110361 307.584 
L 189.110361 307.584 
L 186.944392 307.584 
z
" style="fill:#fa9ba4;opacity:0.2;"/>
   </g>
   <g id="patch_50">
    <path clip-path="url(#p98b00bbd9d)" d="M 189.351024 307.584 
L 191.516992 307.584 
L 191.516992 307.584 
L 189.351024 307.584 
z
" style="fill:#fa9ba4;opacity:0.2;"/>
   </g>
   <g id="patch_51">
    <path clip-path="url(#p98b00bbd9d)" d="M 191.757655 307.584 
L 193.923623 307.584 
L 193.923623 307.584 
L 191.757655 307.584 
z
" style="fill:#fa9ba4;opacity:0.2;"/>
   </g>
   <g id="patch_52">
    <path clip-path="url(#p98b00bbd9d)" d="M 194.164286 307.584 
L 196.330254 307.584 
L 196.330254 307.584 
L 194.164286 307.584 
z
" style="fill:#fa9ba4;opacity:0.2;"/>
   </g>
   <g id="patch_53">
    <path clip-path="url(#p98b00bbd9d)" d="M 196.570917 307.584 
L 198.736885 307.584 
L 198.736885 307.584 
L 196.570917 307.584 
z
" style="fill:#fa9ba4;opacity:0.2;"/>
   </g>
   <g id="patch_54">
    <path clip-path="url(#p98b00bbd9d)" d="M 198.977548 307.584 
L 201.143516 307.584 
L 201.143516 307.584 
L 198.977548 307.584 
z
" style="fill:#fa9ba4;opacity:0.2;"/>
   </g>
   <g id="patch_55">
    <path clip-path="url(#p98b00bbd9d)" d="M 201.38418 307.584 
L 203.550148 307.584 
L 203.550148 307.584 
L 201.38418 307.584 
z
" style="fill:#fa9ba4;opacity:0.2;"/>
   </g>
   <g id="patch_56">
    <path clip-path="url(#p98b00bbd9d)" d="M 203.790811 307.584 
L 205.956779 307.584 
L 205.956779 307.584 
L 203.790811 307.584 
z
" style="fill:#fa9ba4;opacity:0.2;"/>
   </g>
   <g id="patch_57">
    <path clip-path="url(#p98b00bbd9d)" d="M 206.197442 307.584 
L 208.36341 307.584 
L 208.36341 307.584 
L 206.197442 307.584 
z
" style="fill:#fa9ba4;opacity:0.2;"/>
   </g>
   <g id="patch_58">
    <path clip-path="url(#p98b00bbd9d)" d="M 208.604073 307.584 
L 210.770041 307.584 
L 210.770041 307.584 
L 208.604073 307.584 
z
" style="fill:#fa9ba4;opacity:0.2;"/>
   </g>
   <g id="patch_59">
    <path clip-path="url(#p98b00bbd9d)" d="M 211.010704 307.584 
L 213.176672 307.584 
L 213.176672 307.584 
L 211.010704 307.584 
z
" style="fill:#fa9ba4;opacity:0.2;"/>
   </g>
   <g id="patch_60">
    <path clip-path="url(#p98b00bbd9d)" d="M 213.417335 307.584 
L 215.583303 307.584 
L 215.583303 307.584 
L 213.417335 307.584 
z
" style="fill:#fa9ba4;opacity:0.2;"/>
   </g>
   <g id="patch_61">
    <path clip-path="url(#p98b00bbd9d)" d="M 215.823967 307.584 
L 217.989935 307.584 
L 217.989935 307.584 
L 215.823967 307.584 
z
" style="fill:#fa9ba4;opacity:0.2;"/>
   </g>
   <g id="patch_62">
    <path clip-path="url(#p98b00bbd9d)" d="M 218.230598 307.584 
L 220.396566 307.584 
L 220.396566 307.584 
L 218.230598 307.584 
z
" style="fill:#fa9ba4;opacity:0.2;"/>
   </g>
   <g id="patch_63">
    <path clip-path="url(#p98b00bbd9d)" d="M 220.637229 307.584 
L 222.803197 307.584 
L 222.803197 307.584 
L 220.637229 307.584 
z
" style="fill:#fa9ba4;opacity:0.2;"/>
   </g>
   <g id="patch_64">
    <path clip-path="url(#p98b00bbd9d)" d="M 223.04386 307.584 
L 225.209828 307.584 
L 225.209828 307.584 
L 223.04386 307.584 
z
" style="fill:#fa9ba4;opacity:0.2;"/>
   </g>
   <g id="patch_65">
    <path clip-path="url(#p98b00bbd9d)" d="M 225.450491 307.584 
L 227.616459 307.584 
L 227.616459 307.584 
L 225.450491 307.584 
z
" style="fill:#fa9ba4;opacity:0.2;"/>
   </g>
   <g id="patch_66">
    <path clip-path="url(#p98b00bbd9d)" d="M 227.857122 307.584 
L 230.023091 307.584 
L 230.023091 307.584 
L 227.857122 307.584 
z
" style="fill:#fa9ba4;opacity:0.2;"/>
   </g>
   <g id="patch_67">
    <path clip-path="url(#p98b00bbd9d)" d="M 230.263754 307.584 
L 232.429722 307.584 
L 232.429722 307.584 
L 230.263754 307.584 
z
" style="fill:#fa9ba4;opacity:0.2;"/>
   </g>
   <g id="patch_68">
    <path clip-path="url(#p98b00bbd9d)" d="M 232.670385 307.584 
L 234.836353 307.584 
L 234.836353 307.584 
L 232.670385 307.584 
z
" style="fill:#fa9ba4;opacity:0.2;"/>
   </g>
   <g id="patch_69">
    <path clip-path="url(#p98b00bbd9d)" d="M 235.077016 307.584 
L 237.242984 307.584 
L 237.242984 307.584 
L 235.077016 307.584 
z
" style="fill:#fa9ba4;opacity:0.2;"/>
   </g>
   <g id="patch_70">
    <path clip-path="url(#p98b00bbd9d)" d="M 237.483647 307.584 
L 239.649615 307.584 
L 239.649615 307.584 
L 237.483647 307.584 
z
" style="fill:#fa9ba4;opacity:0.2;"/>
   </g>
   <g id="patch_71">
    <path clip-path="url(#p98b00bbd9d)" d="M 239.890278 307.584 
L 242.056246 307.584 
L 242.056246 307.584 
L 239.890278 307.584 
z
" style="fill:#fa9ba4;opacity:0.2;"/>
   </g>
   <g id="patch_72">
    <path clip-path="url(#p98b00bbd9d)" d="M 242.296909 307.584 
L 244.462878 307.584 
L 244.462878 307.584 
L 242.296909 307.584 
z
" style="fill:#fa9ba4;opacity:0.2;"/>
   </g>
   <g id="patch_73">
    <path clip-path="url(#p98b00bbd9d)" d="M 244.703541 307.584 
L 246.869509 307.584 
L 246.869509 307.584 
L 244.703541 307.584 
z
" style="fill:#fa9ba4;opacity:0.2;"/>
   </g>
   <g id="patch_74">
    <path clip-path="url(#p98b00bbd9d)" d="M 247.110172 307.584 
L 249.27614 307.584 
L 249.27614 307.584 
L 247.110172 307.584 
z
" style="fill:#fa9ba4;opacity:0.2;"/>
   </g>
   <g id="patch_75">
    <path clip-path="url(#p98b00bbd9d)" d="M 249.516803 307.584 
L 251.682771 307.584 
L 251.682771 307.584 
L 249.516803 307.584 
z
" style="fill:#fa9ba4;opacity:0.2;"/>
   </g>
   <g id="patch_76">
    <path clip-path="url(#p98b00bbd9d)" d="M 251.923434 307.584 
L 254.089402 307.584 
L 254.089402 307.584 
L 251.923434 307.584 
z
" style="fill:#fa9ba4;opacity:0.2;"/>
   </g>
   <g id="patch_77">
    <path clip-path="url(#p98b00bbd9d)" d="M 254.330065 307.584 
L 256.496033 307.584 
L 256.496033 307.584 
L 254.330065 307.584 
z
" style="fill:#fa9ba4;opacity:0.2;"/>
   </g>
   <g id="patch_78">
    <path clip-path="url(#p98b00bbd9d)" d="M 256.736697 307.584 
L 258.902665 307.584 
L 258.902665 307.584 
L 256.736697 307.584 
z
" style="fill:#fa9ba4;opacity:0.2;"/>
   </g>
   <g id="patch_79">
    <path clip-path="url(#p98b00bbd9d)" d="M 259.143328 307.584 
L 261.309296 307.584 
L 261.309296 307.584 
L 259.143328 307.584 
z
" style="fill:#fa9ba4;opacity:0.2;"/>
   </g>
   <g id="patch_80">
    <path clip-path="url(#p98b00bbd9d)" d="M 261.549959 307.584 
L 263.715927 307.584 
L 263.715927 307.584 
L 261.549959 307.584 
z
" style="fill:#fa9ba4;opacity:0.2;"/>
   </g>
   <g id="patch_81">
    <path clip-path="url(#p98b00bbd9d)" d="M 263.95659 307.584 
L 266.122558 307.584 
L 266.122558 307.584 
L 263.95659 307.584 
z
" style="fill:#fa9ba4;opacity:0.2;"/>
   </g>
   <g id="patch_82">
    <path clip-path="url(#p98b00bbd9d)" d="M 266.363221 307.584 
L 268.529189 307.584 
L 268.529189 307.584 
L 266.363221 307.584 
z
" style="fill:#fa9ba4;opacity:0.2;"/>
   </g>
   <g id="patch_83">
    <path clip-path="url(#p98b00bbd9d)" d="M 268.769852 307.584 
L 270.93582 307.584 
L 270.93582 307.584 
L 268.769852 307.584 
z
" style="fill:#fa9ba4;opacity:0.2;"/>
   </g>
   <g id="patch_84">
    <path clip-path="url(#p98b00bbd9d)" d="M 271.176484 307.584 
L 273.342452 307.584 
L 273.342452 307.584 
L 271.176484 307.584 
z
" style="fill:#fa9ba4;opacity:0.2;"/>
   </g>
   <g id="patch_85">
    <path clip-path="url(#p98b00bbd9d)" d="M 273.583115 307.584 
L 275.749083 307.584 
L 275.749083 307.584 
L 273.583115 307.584 
z
" style="fill:#fa9ba4;opacity:0.2;"/>
   </g>
   <g id="patch_86">
    <path clip-path="url(#p98b00bbd9d)" d="M 275.989746 307.584 
L 278.155714 307.584 
L 278.155714 307.584 
L 275.989746 307.584 
z
" style="fill:#fa9ba4;opacity:0.2;"/>
   </g>
   <g id="patch_87">
    <path clip-path="url(#p98b00bbd9d)" d="M 278.396377 307.584 
L 280.562345 307.584 
L 280.562345 307.584 
L 278.396377 307.584 
z
" style="fill:#fa9ba4;opacity:0.2;"/>
   </g>
   <g id="patch_88">
    <path clip-path="url(#p98b00bbd9d)" d="M 280.803008 307.584 
L 282.968976 307.584 
L 282.968976 307.584 
L 280.803008 307.584 
z
" style="fill:#fa9ba4;opacity:0.2;"/>
   </g>
   <g id="patch_89">
    <path clip-path="url(#p98b00bbd9d)" d="M 283.209639 307.584 
L 285.375608 307.584 
L 285.375608 307.584 
L 283.209639 307.584 
z
" style="fill:#fa9ba4;opacity:0.2;"/>
   </g>
   <g id="patch_90">
    <path clip-path="url(#p98b00bbd9d)" d="M 285.616271 307.584 
L 287.782239 307.584 
L 287.782239 307.584 
L 285.616271 307.584 
z
" style="fill:#fa9ba4;opacity:0.2;"/>
   </g>
   <g id="patch_91">
    <path clip-path="url(#p98b00bbd9d)" d="M 288.022902 307.584 
L 290.18887 307.584 
L 290.18887 307.584 
L 288.022902 307.584 
z
" style="fill:#fa9ba4;opacity:0.2;"/>
   </g>
   <g id="patch_92">
    <path clip-path="url(#p98b00bbd9d)" d="M 290.429533 307.584 
L 292.595501 307.584 
L 292.595501 307.584 
L 290.429533 307.584 
z
" style="fill:#fa9ba4;opacity:0.2;"/>
   </g>
   <g id="patch_93">
    <path clip-path="url(#p98b00bbd9d)" d="M 292.836164 307.584 
L 295.002132 307.584 
L 295.002132 307.584 
L 292.836164 307.584 
z
" style="fill:#fa9ba4;opacity:0.2;"/>
   </g>
   <g id="patch_94">
    <path clip-path="url(#p98b00bbd9d)" d="M 295.242795 307.584 
L 297.408763 307.584 
L 297.408763 307.584 
L 295.242795 307.584 
z
" style="fill:#fa9ba4;opacity:0.2;"/>
   </g>
   <g id="patch_95">
    <path clip-path="url(#p98b00bbd9d)" d="M 297.649427 307.584 
L 299.815395 307.584 
L 299.815395 307.584 
L 297.649427 307.584 
z
" style="fill:#fa9ba4;opacity:0.2;"/>
   </g>
   <g id="patch_96">
    <path clip-path="url(#p98b00bbd9d)" d="M 300.056058 307.584 
L 302.222026 307.584 
L 302.222026 307.584 
L 300.056058 307.584 
z
" style="fill:#fa9ba4;opacity:0.2;"/>
   </g>
   <g id="patch_97">
    <path clip-path="url(#p98b00bbd9d)" d="M 302.462689 307.584 
L 304.628657 307.584 
L 304.628657 307.584 
L 302.462689 307.584 
z
" style="fill:#fa9ba4;opacity:0.2;"/>
   </g>
   <g id="patch_98">
    <path clip-path="url(#p98b00bbd9d)" d="M 304.86932 307.584 
L 307.035288 307.584 
L 307.035288 307.584 
L 304.86932 307.584 
z
" style="fill:#fa9ba4;opacity:0.2;"/>
   </g>
   <g id="patch_99">
    <path clip-path="url(#p98b00bbd9d)" d="M 307.275951 307.584 
L 309.441919 307.584 
L 309.441919 307.584 
L 307.275951 307.584 
z
" style="fill:#fa9ba4;opacity:0.2;"/>
   </g>
   <g id="patch_100">
    <path clip-path="url(#p98b00bbd9d)" d="M 309.682582 307.584 
L 311.84855 307.584 
L 311.84855 307.584 
L 309.682582 307.584 
z
" style="fill:#fa9ba4;opacity:0.2;"/>
   </g>
   <g id="patch_101">
    <path clip-path="url(#p98b00bbd9d)" d="M 312.089214 307.584 
L 314.255182 307.584 
L 314.255182 307.584 
L 312.089214 307.584 
z
" style="fill:#fa9ba4;opacity:0.2;"/>
   </g>
   <g id="patch_102">
    <path clip-path="url(#p98b00bbd9d)" d="M 314.495845 307.584 
L 316.661813 307.584 
L 316.661813 307.584 
L 314.495845 307.584 
z
" style="fill:#fa9ba4;opacity:0.2;"/>
   </g>
   <g id="patch_103">
    <path clip-path="url(#p98b00bbd9d)" d="M 316.902476 307.584 
L 319.068444 307.584 
L 319.068444 307.584 
L 316.902476 307.584 
z
" style="fill:#fa9ba4;opacity:0.2;"/>
   </g>
   <g id="patch_104">
    <path clip-path="url(#p98b00bbd9d)" d="M 319.309107 307.584 
L 321.475075 307.584 
L 321.475075 307.584 
L 319.309107 307.584 
z
" style="fill:#fa9ba4;opacity:0.2;"/>
   </g>
   <g id="patch_105">
    <path clip-path="url(#p98b00bbd9d)" d="M 321.715738 307.584 
L 323.881706 307.584 
L 323.881706 307.584 
L 321.715738 307.584 
z
" style="fill:#fa9ba4;opacity:0.2;"/>
   </g>
   <g id="patch_106">
    <path clip-path="url(#p98b00bbd9d)" d="M 324.122369 307.584 
L 326.288337 307.584 
L 326.288337 307.584 
L 324.122369 307.584 
z
" style="fill:#fa9ba4;opacity:0.2;"/>
   </g>
   <g id="patch_107">
    <path clip-path="url(#p98b00bbd9d)" d="M 326.529001 307.584 
L 328.694969 307.584 
L 328.694969 307.584 
L 326.529001 307.584 
z
" style="fill:#fa9ba4;opacity:0.2;"/>
   </g>
   <g id="patch_108">
    <path clip-path="url(#p98b00bbd9d)" d="M 328.935632 307.584 
L 331.1016 307.584 
L 331.1016 307.584 
L 328.935632 307.584 
z
" style="fill:#fa9ba4;opacity:0.2;"/>
   </g>
   <g id="patch_109">
    <path clip-path="url(#p98b00bbd9d)" d="M 331.342263 307.584 
L 333.508231 307.584 
L 333.508231 307.584 
L 331.342263 307.584 
z
" style="fill:#fa9ba4;opacity:0.2;"/>
   </g>
   <g id="patch_110">
    <path clip-path="url(#p98b00bbd9d)" d="M 333.748894 307.584 
L 335.914862 307.584 
L 335.914862 307.584 
L 333.748894 307.584 
z
" style="fill:#fa9ba4;opacity:0.2;"/>
   </g>
   <g id="patch_111">
    <path clip-path="url(#p98b00bbd9d)" d="M 336.155525 307.584 
L 338.321493 307.584 
L 338.321493 307.584 
L 336.155525 307.584 
z
" style="fill:#fa9ba4;opacity:0.2;"/>
   </g>
   <g id="patch_112">
    <path clip-path="url(#p98b00bbd9d)" d="M 338.562156 307.584 
L 340.728125 307.584 
L 340.728125 307.584 
L 338.562156 307.584 
z
" style="fill:#fa9ba4;opacity:0.2;"/>
   </g>
   <g id="patch_113">
    <path clip-path="url(#p98b00bbd9d)" d="M 340.968788 307.584 
L 343.134756 307.584 
L 343.134756 307.584 
L 340.968788 307.584 
z
" style="fill:#fa9ba4;opacity:0.2;"/>
   </g>
   <g id="patch_114">
    <path clip-path="url(#p98b00bbd9d)" d="M 343.375419 307.584 
L 345.541387 307.584 
L 345.541387 307.584 
L 343.375419 307.584 
z
" style="fill:#fa9ba4;opacity:0.2;"/>
   </g>
   <g id="patch_115">
    <path clip-path="url(#p98b00bbd9d)" d="M 345.78205 307.584 
L 347.948018 307.584 
L 347.948018 298.7136 
L 345.78205 298.7136 
z
" style="fill:#fa9ba4;opacity:0.2;"/>
   </g>
   <g id="patch_116">
    <path clip-path="url(#p98b00bbd9d)" d="M 348.188681 307.584 
L 350.354649 307.584 
L 350.354649 280.9728 
L 348.188681 280.9728 
z
" style="fill:#fa9ba4;opacity:0.2;"/>
   </g>
   <g id="patch_117">
    <path clip-path="url(#p98b00bbd9d)" d="M 350.595312 307.584 
L 352.76128 307.584 
L 352.76128 254.3616 
L 350.595312 254.3616 
z
" style="fill:#fa9ba4;opacity:0.2;"/>
   </g>
   <g id="patch_118">
    <path clip-path="url(#p98b00bbd9d)" d="M 353.001944 307.584 
L 355.167912 307.584 
L 355.167912 272.1024 
L 353.001944 272.1024 
z
" style="fill:#fa9ba4;opacity:0.2;"/>
   </g>
   <g id="patch_119">
    <path clip-path="url(#p98b00bbd9d)" d="M 355.408575 307.584 
L 357.574543 307.584 
L 357.574543 50.3424 
L 355.408575 50.3424 
z
" style="fill:#fa9ba4;opacity:0.2;"/>
   </g>
   <g id="patch_120">
    <path clip-path="url(#p98b00bbd9d)" d="M 357.815206 307.584 
L 359.981174 307.584 
L 359.981174 165.6576 
L 357.815206 165.6576 
z
" style="fill:#fa9ba4;opacity:0.2;"/>
   </g>
   <g id="patch_121">
    <path clip-path="url(#p98b00bbd9d)" d="M 360.221837 307.584 
L 362.387805 307.584 
L 362.387805 236.6208 
L 360.221837 236.6208 
z
" style="fill:#fa9ba4;opacity:0.2;"/>
   </g>
   <g id="patch_122">
    <path clip-path="url(#p98b00bbd9d)" d="M 362.628468 307.584 
L 364.794436 307.584 
L 364.794436 76.9536 
L 362.628468 76.9536 
z
" style="fill:#fa9ba4;opacity:0.2;"/>
   </g>
   <g id="patch_123">
    <path clip-path="url(#p98b00bbd9d)" d="M 365.035099 307.584 
L 367.201067 307.584 
L 367.201067 183.3984 
L 365.035099 183.3984 
z
" style="fill:#fa9ba4;opacity:0.2;"/>
   </g>
   <g id="patch_124">
    <path clip-path="url(#p98b00bbd9d)" d="M 367.441731 307.584 
L 369.607699 307.584 
L 369.607699 41.472 
L 367.441731 41.472 
z
" style="fill:#fa9ba4;opacity:0.2;"/>
   </g>
   <g id="patch_125">
    <path clip-path="url(#p98b00bbd9d)" d="M 369.848362 307.584 
L 372.01433 307.584 
L 372.01433 94.6944 
L 369.848362 94.6944 
z
" style="fill:#fa9ba4;opacity:0.2;"/>
   </g>
   <g id="patch_126">
    <path clip-path="url(#p98b00bbd9d)" d="M 372.254993 307.584 
L 374.420961 307.584 
L 374.420961 85.824 
L 372.254993 85.824 
z
" style="fill:#fa9ba4;opacity:0.2;"/>
   </g>
   <g id="patch_127">
    <path clip-path="url(#p98b00bbd9d)" d="M 374.661624 307.584 
L 376.827592 307.584 
L 376.827592 147.9168 
L 374.661624 147.9168 
z
" style="fill:#fa9ba4;opacity:0.2;"/>
   </g>
   <g id="patch_128">
    <path clip-path="url(#p98b00bbd9d)" d="M 377.068255 307.584 
L 379.234223 307.584 
L 379.234223 130.176 
L 377.068255 130.176 
z
" style="fill:#fa9ba4;opacity:0.2;"/>
   </g>
   <g id="patch_129">
    <path clip-path="url(#p98b00bbd9d)" d="M 379.474886 307.584 
L 381.640855 307.584 
L 381.640855 147.9168 
L 379.474886 147.9168 
z
" style="fill:#fa9ba4;opacity:0.2;"/>
   </g>
   <g id="patch_130">
    <path clip-path="url(#p98b00bbd9d)" d="M 381.881518 307.584 
L 384.047486 307.584 
L 384.047486 227.7504 
L 381.881518 227.7504 
z
" style="fill:#fa9ba4;opacity:0.2;"/>
   </g>
   <g id="patch_131">
    <path clip-path="url(#p98b00bbd9d)" d="M 384.288149 307.584 
L 386.454117 307.584 
L 386.454117 112.4352 
L 384.288149 112.4352 
z
" style="fill:#fa9ba4;opacity:0.2;"/>
   </g>
   <g id="patch_132">
    <path clip-path="url(#p98b00bbd9d)" d="M 386.69478 307.584 
L 388.860748 307.584 
L 388.860748 210.0096 
L 386.69478 210.0096 
z
" style="fill:#fa9ba4;opacity:0.2;"/>
   </g>
   <g id="patch_133">
    <path clip-path="url(#p98b00bbd9d)" d="M 389.101411 307.584 
L 391.267379 307.584 
L 391.267379 112.4352 
L 389.101411 112.4352 
z
" style="fill:#fa9ba4;opacity:0.2;"/>
   </g>
   <g id="patch_134">
    <path clip-path="url(#p98b00bbd9d)" d="M 391.508042 307.584 
L 393.67401 307.584 
L 393.67401 121.3056 
L 391.508042 121.3056 
z
" style="fill:#fa9ba4;opacity:0.2;"/>
   </g>
   <g id="patch_135">
    <path clip-path="url(#p98b00bbd9d)" d="M 393.914673 307.584 
L 396.080642 307.584 
L 396.080642 307.584 
L 393.914673 307.584 
z
" style="fill:#fa9ba4;opacity:0.2;"/>
   </g>
   <g id="patch_136">
    <path clip-path="url(#p98b00bbd9d)" d="M 396.321305 307.584 
L 398.487273 307.584 
L 398.487273 307.584 
L 396.321305 307.584 
z
" style="fill:#fa9ba4;opacity:0.2;"/>
   </g>
   <g id="matplotlib.axis_1"/>
   <g id="matplotlib.axis_2"/>
   <g id="PolyCollection_1">
    <defs>
     <path d="M 366.118083 -168.5376 
L 366.118083 -38.016 
L 368.524715 -38.016 
L 370.931346 -38.016 
L 373.337977 -38.016 
L 375.744608 -38.016 
L 378.151239 -38.016 
L 380.55787 -38.016 
L 382.964502 -38.016 
L 385.371133 -38.016 
L 387.777764 -38.016 
L 390.184395 -38.016 
L 392.591026 -38.016 
L 394.997658 -38.016 
L 397.404289 -38.016 
L 397.404289 -145.728 
L 397.404289 -145.728 
L 394.997658 -168.5376 
L 392.591026 -193.8816 
L 390.184395 -190.08 
L 387.777764 -193.8816 
L 385.371133 -210.3552 
L 382.964502 -220.4928 
L 380.55787 -226.8288 
L 378.151239 -236.9664 
L 375.744608 -221.76 
L 373.337977 -219.2256 
L 370.931346 -224.2944 
L 368.524715 -198.9504 
L 366.118083 -168.5376 
z
" id="m12f2095491" style="stroke:#dc3545;stroke-opacity:0.5;"/>
    </defs>
    <g clip-path="url(#p98b00bbd9d)">
     <use style="fill:#dc3545;fill-opacity:0.5;stroke:#dc3545;stroke-opacity:0.5;" x="0" xlink:href="#m12f2095491" y="345.6"/>
    </g>
   </g>
   <g id="PolyCollection_2">
    <defs>
     <path d="M 89.355498 -38.016 
L 89.355498 -38.016 
L 91.76213 -38.016 
L 94.168761 -38.016 
L 96.575392 -38.016 
L 98.982023 -38.016 
L 101.388654 -38.016 
L 103.795285 -38.016 
L 106.201917 -38.016 
L 108.608548 -38.016 
L 111.015179 -38.016 
L 113.42181 -38.016 
L 115.828441 -38.016 
L 118.235072 -38.016 
L 120.641704 -38.016 
L 123.048335 -38.016 
L 125.454966 -38.016 
L 127.861597 -38.016 
L 130.268228 -38.016 
L 132.674859 -38.016 
L 135.081491 -38.016 
L 137.488122 -38.016 
L 139.894753 -38.016 
L 142.301384 -38.016 
L 144.708015 -38.016 
L 147.114647 -38.016 
L 149.521278 -38.016 
L 151.927909 -38.016 
L 154.33454 -38.016 
L 156.741171 -38.016 
L 159.147802 -38.016 
L 161.554434 -38.016 
L 163.961065 -38.016 
L 166.367696 -38.016 
L 168.774327 -38.016 
L 171.180958 -38.016 
L 173.587589 -38.016 
L 175.994221 -38.016 
L 178.400852 -38.016 
L 180.807483 -38.016 
L 183.214114 -38.016 
L 185.620745 -38.016 
L 188.027377 -38.016 
L 190.434008 -38.016 
L 192.840639 -38.016 
L 195.24727 -38.016 
L 197.653901 -38.016 
L 200.060532 -38.016 
L 202.467164 -38.016 
L 204.873795 -38.016 
L 207.280426 -38.016 
L 209.687057 -38.016 
L 212.093688 -38.016 
L 214.500319 -38.016 
L 216.906951 -38.016 
L 219.313582 -38.016 
L 221.720213 -38.016 
L 224.126844 -38.016 
L 226.533475 -38.016 
L 228.940106 -38.016 
L 231.346738 -38.016 
L 233.753369 -38.016 
L 236.16 -38.016 
L 238.566631 -38.016 
L 240.973262 -38.016 
L 243.379894 -38.016 
L 245.786525 -38.016 
L 248.193156 -38.016 
L 250.599787 -38.016 
L 253.006418 -38.016 
L 255.413049 -38.016 
L 257.819681 -38.016 
L 260.226312 -38.016 
L 262.632943 -38.016 
L 265.039574 -38.016 
L 267.446205 -38.016 
L 269.852836 -38.016 
L 272.259468 -38.016 
L 274.666099 -38.016 
L 277.07273 -38.016 
L 279.479361 -38.016 
L 281.885992 -38.016 
L 284.292623 -38.016 
L 286.699255 -38.016 
L 289.105886 -38.016 
L 291.512517 -38.016 
L 293.919148 -38.016 
L 296.325779 -38.016 
L 298.732411 -38.016 
L 301.139042 -38.016 
L 303.545673 -38.016 
L 305.952304 -38.016 
L 308.358935 -38.016 
L 310.765566 -38.016 
L 313.172198 -38.016 
L 315.578829 -38.016 
L 317.98546 -38.016 
L 320.392091 -38.016 
L 322.798722 -38.016 
L 325.205353 -38.016 
L 327.611985 -38.016 
L 330.018616 -38.016 
L 332.425247 -38.016 
L 334.831878 -38.016 
L 337.238509 -38.016 
L 339.645141 -38.016 
L 342.051772 -38.016 
L 344.458403 -38.016 
L 346.865034 -38.016 
L 349.271665 -38.016 
L 351.678296 -38.016 
L 354.084928 -38.016 
L 356.491559 -38.016 
L 358.89819 -38.016 
L 361.304821 -38.016 
L 363.711452 -38.016 
L 366.118083 -38.016 
L 366.118083 -168.5376 
L 366.118083 -168.5376 
L 363.711452 -154.5984 
L 361.304821 -122.9184 
L 358.89819 -112.7808 
L 356.491559 -92.5056 
L 354.084928 -55.7568 
L 351.678296 -50.688 
L 349.271665 -43.0848 
L 346.865034 -39.2832 
L 344.458403 -38.016 
L 342.051772 -38.016 
L 339.645141 -38.016 
L 337.238509 -38.016 
L 334.831878 -38.016 
L 332.425247 -38.016 
L 330.018616 -38.016 
L 327.611985 -38.016 
L 325.205353 -38.016 
L 322.798722 -38.016 
L 320.392091 -38.016 
L 317.98546 -38.016 
L 315.578829 -38.016 
L 313.172198 -38.016 
L 310.765566 -38.016 
L 308.358935 -38.016 
L 305.952304 -38.016 
L 303.545673 -38.016 
L 301.139042 -38.016 
L 298.732411 -38.016 
L 296.325779 -38.016 
L 293.919148 -38.016 
L 291.512517 -38.016 
L 289.105886 -38.016 
L 286.699255 -38.016 
L 284.292623 -38.016 
L 281.885992 -38.016 
L 279.479361 -38.016 
L 277.07273 -38.016 
L 274.666099 -38.016 
L 272.259468 -38.016 
L 269.852836 -38.016 
L 267.446205 -38.016 
L 265.039574 -38.016 
L 262.632943 -38.016 
L 260.226312 -38.016 
L 257.819681 -38.016 
L 255.413049 -38.016 
L 253.006418 -38.016 
L 250.599787 -38.016 
L 248.193156 -38.016 
L 245.786525 -38.016 
L 243.379894 -38.016 
L 240.973262 -38.016 
L 238.566631 -38.016 
L 236.16 -38.016 
L 233.753369 -38.016 
L 231.346738 -38.016 
L 228.940106 -38.016 
L 226.533475 -38.016 
L 224.126844 -38.016 
L 221.720213 -38.016 
L 219.313582 -38.016 
L 216.906951 -38.016 
L 214.500319 -38.016 
L 212.093688 -38.016 
L 209.687057 -38.016 
L 207.280426 -38.016 
L 204.873795 -38.016 
L 202.467164 -38.016 
L 200.060532 -38.016 
L 197.653901 -38.016 
L 195.24727 -38.016 
L 192.840639 -38.016 
L 190.434008 -38.016 
L 188.027377 -38.016 
L 185.620745 -38.016 
L 183.214114 -38.016 
L 180.807483 -38.016 
L 178.400852 -38.016 
L 175.994221 -38.016 
L 173.587589 -38.016 
L 171.180958 -38.016 
L 168.774327 -38.016 
L 166.367696 -38.016 
L 163.961065 -38.016 
L 161.554434 -38.016 
L 159.147802 -38.016 
L 156.741171 -38.016 
L 154.33454 -38.016 
L 151.927909 -38.016 
L 149.521278 -38.016 
L 147.114647 -38.016 
L 144.708015 -38.016 
L 142.301384 -38.016 
L 139.894753 -38.016 
L 137.488122 -38.016 
L 135.081491 -38.016 
L 132.674859 -38.016 
L 130.268228 -38.016 
L 127.861597 -38.016 
L 125.454966 -38.016 
L 123.048335 -38.016 
L 120.641704 -38.016 
L 118.235072 -38.016 
L 115.828441 -38.016 
L 113.42181 -40.5504 
L 111.015179 -40.5504 
L 108.608548 -41.8176 
L 106.201917 -41.8176 
L 103.795285 -41.8176 
L 101.388654 -41.8176 
L 98.982023 -41.8176 
L 96.575392 -39.2832 
L 94.168761 -39.2832 
L 91.76213 -38.016 
L 89.355498 -38.016 
z
" id="me77eeb1e9f" style="stroke:#fa9ba4;stroke-opacity:0.3;"/>
    </defs>
    <g clip-path="url(#p98b00bbd9d)">
     <use style="fill:#fa9ba4;fill-opacity:0.3;stroke:#fa9ba4;stroke-opacity:0.3;" x="0" xlink:href="#me77eeb1e9f" y="345.6"/>
    </g>
   </g>
   <g id="line2d_1">
    <path clip-path="url(#p98b00bbd9d)" d="M 89.355498 307.584 
L 91.76213 307.584 
L 94.168761 306.3168 
L 96.575392 306.3168 
L 98.982023 303.7824 
L 108.608548 303.7824 
L 111.015179 305.0496 
L 113.42181 305.0496 
L 115.828441 307.584 
L 344.458403 307.584 
L 346.865034 306.3168 
L 349.271665 302.5152 
L 351.678296 294.912 
L 354.084928 289.8432 
L 356.491559 253.0944 
L 358.89819 232.8192 
L 361.304821 222.6816 
L 363.711452 191.0016 
L 366.118083 177.0624 
L 368.524715 146.6496 
L 370.931346 121.3056 
L 373.337977 126.3744 
L 375.744608 123.84 
L 378.151239 108.6336 
L 380.55787 118.7712 
L 382.964502 125.1072 
L 385.371133 135.2448 
L 387.777764 151.7184 
L 390.184395 155.52 
L 392.591026 151.7184 
L 394.997658 177.0624 
L 397.404289 199.872 
L 397.404289 199.872 
" style="fill:none;stroke:#fa9ba4;stroke-linecap:square;stroke-width:2;"/>
   </g>
   <g id="line2d_2">
    <path clip-path="url(#p98b00bbd9d)" d="M 366.118083 177.0624 
L 368.524715 146.6496 
L 370.931346 121.3056 
L 373.337977 126.3744 
L 375.744608 123.84 
L 378.151239 108.6336 
L 380.55787 118.7712 
L 382.964502 125.1072 
L 385.371133 135.2448 
L 387.777764 151.7184 
L 390.184395 155.52 
L 392.591026 151.7184 
L 394.997658 177.0624 
L 397.404289 199.872 
" style="fill:none;stroke:#dc3545;stroke-linecap:square;stroke-width:2;"/>
   </g>
  </g>
 </g>
 <defs>
  <clipPath id="p98b00bbd9d">
   <rect height="266.112" width="357.12" x="57.6" y="41.472"/>
  </clipPath>
 </defs>
</svg>
