<?xml version="1.0" encoding="utf-8" standalone="no"?>
<!DOCTYPE svg PUBLIC "-//W3C//DTD SVG 1.1//EN"
  "http://www.w3.org/Graphics/SVG/1.1/DTD/svg11.dtd">
<svg height="345.6pt" version="1.1" viewBox="0 0 460.8 345.6" width="460.8pt" xmlns="http://www.w3.org/2000/svg" xmlns:xlink="http://www.w3.org/1999/xlink">
 <metadata>
  <rdf:RDF xmlns:cc="http://creativecommons.org/ns#" xmlns:dc="http://purl.org/dc/elements/1.1/" xmlns:rdf="http://www.w3.org/1999/02/22-rdf-syntax-ns#">
   <cc:Work>
    <dc:type rdf:resource="http://purl.org/dc/dcmitype/StillImage"/>
    <dc:date>2021-05-05T13:24:30.764125</dc:date>
    <dc:format>image/svg+xml</dc:format>
    <dc:creator>
     <cc:Agent>
      <dc:title>Matplotlib v3.4.1, https://matplotlib.org/</dc:title>
     </cc:Agent>
    </dc:creator>
   </cc:Work>
  </rdf:RDF>
 </metadata>
 <defs>
  <style type="text/css">*{stroke-linecap:butt;stroke-linejoin:round;}</style>
 </defs>
 <g id="figure_1">
  <g id="patch_1">
   <path d="M 0 345.6 
L 460.8 345.6 
L 460.8 0 
L 0 0 
z
" style="fill:none;"/>
  </g>
  <g id="axes_1">
   <g id="patch_2">
    <path clip-path="url(#p5e2f9b91a9)" d="M 73.832727 307.584 
L 75.906461 307.584 
L 75.906461 307.584 
L 73.832727 307.584 
z
" style="fill:#fa9ba4;opacity:0.2;"/>
   </g>
   <g id="patch_3">
    <path clip-path="url(#p5e2f9b91a9)" d="M 76.136876 307.584 
L 78.21061 307.584 
L 78.21061 307.584 
L 76.136876 307.584 
z
" style="fill:#fa9ba4;opacity:0.2;"/>
   </g>
   <g id="patch_4">
    <path clip-path="url(#p5e2f9b91a9)" d="M 78.441025 307.584 
L 80.514758 307.584 
L 80.514758 307.584 
L 78.441025 307.584 
z
" style="fill:#fa9ba4;opacity:0.2;"/>
   </g>
   <g id="patch_5">
    <path clip-path="url(#p5e2f9b91a9)" d="M 80.745173 307.584 
L 82.818907 307.584 
L 82.818907 307.584 
L 80.745173 307.584 
z
" style="fill:#fa9ba4;opacity:0.2;"/>
   </g>
   <g id="patch_6">
    <path clip-path="url(#p5e2f9b91a9)" d="M 83.049322 307.584 
L 85.123056 307.584 
L 85.123056 307.584 
L 83.049322 307.584 
z
" style="fill:#fa9ba4;opacity:0.2;"/>
   </g>
   <g id="patch_7">
    <path clip-path="url(#p5e2f9b91a9)" d="M 85.353471 307.584 
L 87.427204 307.584 
L 87.427204 307.584 
L 85.353471 307.584 
z
" style="fill:#fa9ba4;opacity:0.2;"/>
   </g>
   <g id="patch_8">
    <path clip-path="url(#p5e2f9b91a9)" d="M 87.657619 307.584 
L 89.731353 307.584 
L 89.731353 307.584 
L 87.657619 307.584 
z
" style="fill:#fa9ba4;opacity:0.2;"/>
   </g>
   <g id="patch_9">
    <path clip-path="url(#p5e2f9b91a9)" d="M 89.961768 307.584 
L 92.035502 307.584 
L 92.035502 307.584 
L 89.961768 307.584 
z
" style="fill:#fa9ba4;opacity:0.2;"/>
   </g>
   <g id="patch_10">
    <path clip-path="url(#p5e2f9b91a9)" d="M 92.265917 307.584 
L 94.33965 307.584 
L 94.33965 307.584 
L 92.265917 307.584 
z
" style="fill:#fa9ba4;opacity:0.2;"/>
   </g>
   <g id="patch_11">
    <path clip-path="url(#p5e2f9b91a9)" d="M 94.570065 307.584 
L 96.643799 307.584 
L 96.643799 307.584 
L 94.570065 307.584 
z
" style="fill:#fa9ba4;opacity:0.2;"/>
   </g>
   <g id="patch_12">
    <path clip-path="url(#p5e2f9b91a9)" d="M 96.874214 307.584 
L 98.947948 307.584 
L 98.947948 307.584 
L 96.874214 307.584 
z
" style="fill:#fa9ba4;opacity:0.2;"/>
   </g>
   <g id="patch_13">
    <path clip-path="url(#p5e2f9b91a9)" d="M 99.178362 307.584 
L 101.252096 307.584 
L 101.252096 299.9808 
L 99.178362 299.9808 
z
" style="fill:#fa9ba4;opacity:0.2;"/>
   </g>
   <g id="patch_14">
    <path clip-path="url(#p5e2f9b91a9)" d="M 101.482511 307.584 
L 103.556245 307.584 
L 103.556245 307.584 
L 101.482511 307.584 
z
" style="fill:#fa9ba4;opacity:0.2;"/>
   </g>
   <g id="patch_15">
    <path clip-path="url(#p5e2f9b91a9)" d="M 103.78666 307.584 
L 105.860394 307.584 
L 105.860394 307.584 
L 103.78666 307.584 
z
" style="fill:#fa9ba4;opacity:0.2;"/>
   </g>
   <g id="patch_16">
    <path clip-path="url(#p5e2f9b91a9)" d="M 106.090808 307.584 
L 108.164542 307.584 
L 108.164542 307.584 
L 106.090808 307.584 
z
" style="fill:#fa9ba4;opacity:0.2;"/>
   </g>
   <g id="patch_17">
    <path clip-path="url(#p5e2f9b91a9)" d="M 108.394957 307.584 
L 110.468691 307.584 
L 110.468691 307.584 
L 108.394957 307.584 
z
" style="fill:#fa9ba4;opacity:0.2;"/>
   </g>
   <g id="patch_18">
    <path clip-path="url(#p5e2f9b91a9)" d="M 110.699106 307.584 
L 112.77284 307.584 
L 112.77284 307.584 
L 110.699106 307.584 
z
" style="fill:#fa9ba4;opacity:0.2;"/>
   </g>
   <g id="patch_19">
    <path clip-path="url(#p5e2f9b91a9)" d="M 113.003254 307.584 
L 115.076988 307.584 
L 115.076988 307.584 
L 113.003254 307.584 
z
" style="fill:#fa9ba4;opacity:0.2;"/>
   </g>
   <g id="patch_20">
    <path clip-path="url(#p5e2f9b91a9)" d="M 115.307403 307.584 
L 117.381137 307.584 
L 117.381137 307.584 
L 115.307403 307.584 
z
" style="fill:#fa9ba4;opacity:0.2;"/>
   </g>
   <g id="patch_21">
    <path clip-path="url(#p5e2f9b91a9)" d="M 117.611552 307.584 
L 119.685286 307.584 
L 119.685286 307.584 
L 117.611552 307.584 
z
" style="fill:#fa9ba4;opacity:0.2;"/>
   </g>
   <g id="patch_22">
    <path clip-path="url(#p5e2f9b91a9)" d="M 119.9157 307.584 
L 121.989434 307.584 
L 121.989434 307.584 
L 119.9157 307.584 
z
" style="fill:#fa9ba4;opacity:0.2;"/>
   </g>
   <g id="patch_23">
    <path clip-path="url(#p5e2f9b91a9)" d="M 122.219849 307.584 
L 124.293583 307.584 
L 124.293583 307.584 
L 122.219849 307.584 
z
" style="fill:#fa9ba4;opacity:0.2;"/>
   </g>
   <g id="patch_24">
    <path clip-path="url(#p5e2f9b91a9)" d="M 124.523998 307.584 
L 126.597731 307.584 
L 126.597731 307.584 
L 124.523998 307.584 
z
" style="fill:#fa9ba4;opacity:0.2;"/>
   </g>
   <g id="patch_25">
    <path clip-path="url(#p5e2f9b91a9)" d="M 126.828146 307.584 
L 128.90188 307.584 
L 128.90188 307.584 
L 126.828146 307.584 
z
" style="fill:#fa9ba4;opacity:0.2;"/>
   </g>
   <g id="patch_26">
    <path clip-path="url(#p5e2f9b91a9)" d="M 129.132295 307.584 
L 131.206029 307.584 
L 131.206029 307.584 
L 129.132295 307.584 
z
" style="fill:#fa9ba4;opacity:0.2;"/>
   </g>
   <g id="patch_27">
    <path clip-path="url(#p5e2f9b91a9)" d="M 131.436444 307.584 
L 133.510177 307.584 
L 133.510177 307.584 
L 131.436444 307.584 
z
" style="fill:#fa9ba4;opacity:0.2;"/>
   </g>
   <g id="patch_28">
    <path clip-path="url(#p5e2f9b91a9)" d="M 133.740592 307.584 
L 135.814326 307.584 
L 135.814326 307.584 
L 133.740592 307.584 
z
" style="fill:#fa9ba4;opacity:0.2;"/>
   </g>
   <g id="patch_29">
    <path clip-path="url(#p5e2f9b91a9)" d="M 136.044741 307.584 
L 138.118475 307.584 
L 138.118475 307.584 
L 136.044741 307.584 
z
" style="fill:#fa9ba4;opacity:0.2;"/>
   </g>
   <g id="patch_30">
    <path clip-path="url(#p5e2f9b91a9)" d="M 138.34889 307.584 
L 140.422623 307.584 
L 140.422623 307.584 
L 138.34889 307.584 
z
" style="fill:#fa9ba4;opacity:0.2;"/>
   </g>
   <g id="patch_31">
    <path clip-path="url(#p5e2f9b91a9)" d="M 140.653038 307.584 
L 142.726772 307.584 
L 142.726772 299.9808 
L 140.653038 299.9808 
z
" style="fill:#fa9ba4;opacity:0.2;"/>
   </g>
   <g id="patch_32">
    <path clip-path="url(#p5e2f9b91a9)" d="M 142.957187 307.584 
L 145.030921 307.584 
L 145.030921 307.584 
L 142.957187 307.584 
z
" style="fill:#fa9ba4;opacity:0.2;"/>
   </g>
   <g id="patch_33">
    <path clip-path="url(#p5e2f9b91a9)" d="M 145.261336 307.584 
L 147.335069 307.584 
L 147.335069 307.584 
L 145.261336 307.584 
z
" style="fill:#fa9ba4;opacity:0.2;"/>
   </g>
   <g id="patch_34">
    <path clip-path="url(#p5e2f9b91a9)" d="M 147.565484 307.584 
L 149.639218 307.584 
L 149.639218 307.584 
L 147.565484 307.584 
z
" style="fill:#fa9ba4;opacity:0.2;"/>
   </g>
   <g id="patch_35">
    <path clip-path="url(#p5e2f9b91a9)" d="M 149.869633 307.584 
L 151.943367 307.584 
L 151.943367 292.3776 
L 149.869633 292.3776 
z
" style="fill:#fa9ba4;opacity:0.2;"/>
   </g>
   <g id="patch_36">
    <path clip-path="url(#p5e2f9b91a9)" d="M 152.173782 307.584 
L 154.247515 307.584 
L 154.247515 299.9808 
L 152.173782 299.9808 
z
" style="fill:#fa9ba4;opacity:0.2;"/>
   </g>
   <g id="patch_37">
    <path clip-path="url(#p5e2f9b91a9)" d="M 154.47793 307.584 
L 156.551664 307.584 
L 156.551664 307.584 
L 154.47793 307.584 
z
" style="fill:#fa9ba4;opacity:0.2;"/>
   </g>
   <g id="patch_38">
    <path clip-path="url(#p5e2f9b91a9)" d="M 156.782079 307.584 
L 158.855813 307.584 
L 158.855813 307.584 
L 156.782079 307.584 
z
" style="fill:#fa9ba4;opacity:0.2;"/>
   </g>
   <g id="patch_39">
    <path clip-path="url(#p5e2f9b91a9)" d="M 159.086227 307.584 
L 161.159961 307.584 
L 161.159961 307.584 
L 159.086227 307.584 
z
" style="fill:#fa9ba4;opacity:0.2;"/>
   </g>
   <g id="patch_40">
    <path clip-path="url(#p5e2f9b91a9)" d="M 161.390376 307.584 
L 163.46411 307.584 
L 163.46411 307.584 
L 161.390376 307.584 
z
" style="fill:#fa9ba4;opacity:0.2;"/>
   </g>
   <g id="patch_41">
    <path clip-path="url(#p5e2f9b91a9)" d="M 163.694525 307.584 
L 165.768259 307.584 
L 165.768259 307.584 
L 163.694525 307.584 
z
" style="fill:#fa9ba4;opacity:0.2;"/>
   </g>
   <g id="patch_42">
    <path clip-path="url(#p5e2f9b91a9)" d="M 165.998673 307.584 
L 168.072407 307.584 
L 168.072407 307.584 
L 165.998673 307.584 
z
" style="fill:#fa9ba4;opacity:0.2;"/>
   </g>
   <g id="patch_43">
    <path clip-path="url(#p5e2f9b91a9)" d="M 168.302822 307.584 
L 170.376556 307.584 
L 170.376556 307.584 
L 168.302822 307.584 
z
" style="fill:#fa9ba4;opacity:0.2;"/>
   </g>
   <g id="patch_44">
    <path clip-path="url(#p5e2f9b91a9)" d="M 170.606971 307.584 
L 172.680705 307.584 
L 172.680705 307.584 
L 170.606971 307.584 
z
" style="fill:#fa9ba4;opacity:0.2;"/>
   </g>
   <g id="patch_45">
    <path clip-path="url(#p5e2f9b91a9)" d="M 172.911119 307.584 
L 174.984853 307.584 
L 174.984853 307.584 
L 172.911119 307.584 
z
" style="fill:#fa9ba4;opacity:0.2;"/>
   </g>
   <g id="patch_46">
    <path clip-path="url(#p5e2f9b91a9)" d="M 175.215268 307.584 
L 177.289002 307.584 
L 177.289002 307.584 
L 175.215268 307.584 
z
" style="fill:#fa9ba4;opacity:0.2;"/>
   </g>
   <g id="patch_47">
    <path clip-path="url(#p5e2f9b91a9)" d="M 177.519417 307.584 
L 179.593151 307.584 
L 179.593151 307.584 
L 177.519417 307.584 
z
" style="fill:#fa9ba4;opacity:0.2;"/>
   </g>
   <g id="patch_48">
    <path clip-path="url(#p5e2f9b91a9)" d="M 179.823565 307.584 
L 181.897299 307.584 
L 181.897299 307.584 
L 179.823565 307.584 
z
" style="fill:#fa9ba4;opacity:0.2;"/>
   </g>
   <g id="patch_49">
    <path clip-path="url(#p5e2f9b91a9)" d="M 182.127714 307.584 
L 184.201448 307.584 
L 184.201448 307.584 
L 182.127714 307.584 
z
" style="fill:#fa9ba4;opacity:0.2;"/>
   </g>
   <g id="patch_50">
    <path clip-path="url(#p5e2f9b91a9)" d="M 184.431863 307.584 
L 186.505596 307.584 
L 186.505596 307.584 
L 184.431863 307.584 
z
" style="fill:#fa9ba4;opacity:0.2;"/>
   </g>
   <g id="patch_51">
    <path clip-path="url(#p5e2f9b91a9)" d="M 186.736011 307.584 
L 188.809745 307.584 
L 188.809745 307.584 
L 186.736011 307.584 
z
" style="fill:#fa9ba4;opacity:0.2;"/>
   </g>
   <g id="patch_52">
    <path clip-path="url(#p5e2f9b91a9)" d="M 189.04016 307.584 
L 191.113894 307.584 
L 191.113894 307.584 
L 189.04016 307.584 
z
" style="fill:#fa9ba4;opacity:0.2;"/>
   </g>
   <g id="patch_53">
    <path clip-path="url(#p5e2f9b91a9)" d="M 191.344309 307.584 
L 193.418042 307.584 
L 193.418042 307.584 
L 191.344309 307.584 
z
" style="fill:#fa9ba4;opacity:0.2;"/>
   </g>
   <g id="patch_54">
    <path clip-path="url(#p5e2f9b91a9)" d="M 193.648457 307.584 
L 195.722191 307.584 
L 195.722191 307.584 
L 193.648457 307.584 
z
" style="fill:#fa9ba4;opacity:0.2;"/>
   </g>
   <g id="patch_55">
    <path clip-path="url(#p5e2f9b91a9)" d="M 195.952606 307.584 
L 198.02634 307.584 
L 198.02634 307.584 
L 195.952606 307.584 
z
" style="fill:#fa9ba4;opacity:0.2;"/>
   </g>
   <g id="patch_56">
    <path clip-path="url(#p5e2f9b91a9)" d="M 198.256755 307.584 
L 200.330488 307.584 
L 200.330488 307.584 
L 198.256755 307.584 
z
" style="fill:#fa9ba4;opacity:0.2;"/>
   </g>
   <g id="patch_57">
    <path clip-path="url(#p5e2f9b91a9)" d="M 200.560903 307.584 
L 202.634637 307.584 
L 202.634637 307.584 
L 200.560903 307.584 
z
" style="fill:#fa9ba4;opacity:0.2;"/>
   </g>
   <g id="patch_58">
    <path clip-path="url(#p5e2f9b91a9)" d="M 202.865052 307.584 
L 204.938786 307.584 
L 204.938786 307.584 
L 202.865052 307.584 
z
" style="fill:#fa9ba4;opacity:0.2;"/>
   </g>
   <g id="patch_59">
    <path clip-path="url(#p5e2f9b91a9)" d="M 205.169201 307.584 
L 207.242934 307.584 
L 207.242934 307.584 
L 205.169201 307.584 
z
" style="fill:#fa9ba4;opacity:0.2;"/>
   </g>
   <g id="patch_60">
    <path clip-path="url(#p5e2f9b91a9)" d="M 207.473349 307.584 
L 209.547083 307.584 
L 209.547083 307.584 
L 207.473349 307.584 
z
" style="fill:#fa9ba4;opacity:0.2;"/>
   </g>
   <g id="patch_61">
    <path clip-path="url(#p5e2f9b91a9)" d="M 209.777498 307.584 
L 211.851232 307.584 
L 211.851232 307.584 
L 209.777498 307.584 
z
" style="fill:#fa9ba4;opacity:0.2;"/>
   </g>
   <g id="patch_62">
    <path clip-path="url(#p5e2f9b91a9)" d="M 212.081647 307.584 
L 214.15538 307.584 
L 214.15538 307.584 
L 212.081647 307.584 
z
" style="fill:#fa9ba4;opacity:0.2;"/>
   </g>
   <g id="patch_63">
    <path clip-path="url(#p5e2f9b91a9)" d="M 214.385795 307.584 
L 216.459529 307.584 
L 216.459529 307.584 
L 214.385795 307.584 
z
" style="fill:#fa9ba4;opacity:0.2;"/>
   </g>
   <g id="patch_64">
    <path clip-path="url(#p5e2f9b91a9)" d="M 216.689944 307.584 
L 218.763678 307.584 
L 218.763678 307.584 
L 216.689944 307.584 
z
" style="fill:#fa9ba4;opacity:0.2;"/>
   </g>
   <g id="patch_65">
    <path clip-path="url(#p5e2f9b91a9)" d="M 218.994093 307.584 
L 221.067826 307.584 
L 221.067826 307.584 
L 218.994093 307.584 
z
" style="fill:#fa9ba4;opacity:0.2;"/>
   </g>
   <g id="patch_66">
    <path clip-path="url(#p5e2f9b91a9)" d="M 221.298241 307.584 
L 223.371975 307.584 
L 223.371975 307.584 
L 221.298241 307.584 
z
" style="fill:#fa9ba4;opacity:0.2;"/>
   </g>
   <g id="patch_67">
    <path clip-path="url(#p5e2f9b91a9)" d="M 223.60239 307.584 
L 225.676124 307.584 
L 225.676124 307.584 
L 223.60239 307.584 
z
" style="fill:#fa9ba4;opacity:0.2;"/>
   </g>
   <g id="patch_68">
    <path clip-path="url(#p5e2f9b91a9)" d="M 225.906538 307.584 
L 227.980272 307.584 
L 227.980272 307.584 
L 225.906538 307.584 
z
" style="fill:#fa9ba4;opacity:0.2;"/>
   </g>
   <g id="patch_69">
    <path clip-path="url(#p5e2f9b91a9)" d="M 228.210687 307.584 
L 230.284421 307.584 
L 230.284421 307.584 
L 228.210687 307.584 
z
" style="fill:#fa9ba4;opacity:0.2;"/>
   </g>
   <g id="patch_70">
    <path clip-path="url(#p5e2f9b91a9)" d="M 230.514836 307.584 
L 232.58857 307.584 
L 232.58857 307.584 
L 230.514836 307.584 
z
" style="fill:#fa9ba4;opacity:0.2;"/>
   </g>
   <g id="patch_71">
    <path clip-path="url(#p5e2f9b91a9)" d="M 232.818984 307.584 
L 234.892718 307.584 
L 234.892718 307.584 
L 232.818984 307.584 
z
" style="fill:#fa9ba4;opacity:0.2;"/>
   </g>
   <g id="patch_72">
    <path clip-path="url(#p5e2f9b91a9)" d="M 235.123133 307.584 
L 237.196867 307.584 
L 237.196867 307.584 
L 235.123133 307.584 
z
" style="fill:#fa9ba4;opacity:0.2;"/>
   </g>
   <g id="patch_73">
    <path clip-path="url(#p5e2f9b91a9)" d="M 237.427282 307.584 
L 239.501016 307.584 
L 239.501016 307.584 
L 237.427282 307.584 
z
" style="fill:#fa9ba4;opacity:0.2;"/>
   </g>
   <g id="patch_74">
    <path clip-path="url(#p5e2f9b91a9)" d="M 239.73143 307.584 
L 241.805164 307.584 
L 241.805164 307.584 
L 239.73143 307.584 
z
" style="fill:#fa9ba4;opacity:0.2;"/>
   </g>
   <g id="patch_75">
    <path clip-path="url(#p5e2f9b91a9)" d="M 242.035579 307.584 
L 244.109313 307.584 
L 244.109313 307.584 
L 242.035579 307.584 
z
" style="fill:#fa9ba4;opacity:0.2;"/>
   </g>
   <g id="patch_76">
    <path clip-path="url(#p5e2f9b91a9)" d="M 244.339728 307.584 
L 246.413462 307.584 
L 246.413462 307.584 
L 244.339728 307.584 
z
" style="fill:#fa9ba4;opacity:0.2;"/>
   </g>
   <g id="patch_77">
    <path clip-path="url(#p5e2f9b91a9)" d="M 246.643876 307.584 
L 248.71761 307.584 
L 248.71761 307.584 
L 246.643876 307.584 
z
" style="fill:#fa9ba4;opacity:0.2;"/>
   </g>
   <g id="patch_78">
    <path clip-path="url(#p5e2f9b91a9)" d="M 248.948025 307.584 
L 251.021759 307.584 
L 251.021759 307.584 
L 248.948025 307.584 
z
" style="fill:#fa9ba4;opacity:0.2;"/>
   </g>
   <g id="patch_79">
    <path clip-path="url(#p5e2f9b91a9)" d="M 251.252174 307.584 
L 253.325907 307.584 
L 253.325907 307.584 
L 251.252174 307.584 
z
" style="fill:#fa9ba4;opacity:0.2;"/>
   </g>
   <g id="patch_80">
    <path clip-path="url(#p5e2f9b91a9)" d="M 253.556322 307.584 
L 255.630056 307.584 
L 255.630056 307.584 
L 253.556322 307.584 
z
" style="fill:#fa9ba4;opacity:0.2;"/>
   </g>
   <g id="patch_81">
    <path clip-path="url(#p5e2f9b91a9)" d="M 255.860471 307.584 
L 257.934205 307.584 
L 257.934205 307.584 
L 255.860471 307.584 
z
" style="fill:#fa9ba4;opacity:0.2;"/>
   </g>
   <g id="patch_82">
    <path clip-path="url(#p5e2f9b91a9)" d="M 258.16462 307.584 
L 260.238353 307.584 
L 260.238353 307.584 
L 258.16462 307.584 
z
" style="fill:#fa9ba4;opacity:0.2;"/>
   </g>
   <g id="patch_83">
    <path clip-path="url(#p5e2f9b91a9)" d="M 260.468768 307.584 
L 262.542502 307.584 
L 262.542502 307.584 
L 260.468768 307.584 
z
" style="fill:#fa9ba4;opacity:0.2;"/>
   </g>
   <g id="patch_84">
    <path clip-path="url(#p5e2f9b91a9)" d="M 262.772917 307.584 
L 264.846651 307.584 
L 264.846651 307.584 
L 262.772917 307.584 
z
" style="fill:#fa9ba4;opacity:0.2;"/>
   </g>
   <g id="patch_85">
    <path clip-path="url(#p5e2f9b91a9)" d="M 265.077066 307.584 
L 267.150799 307.584 
L 267.150799 307.584 
L 265.077066 307.584 
z
" style="fill:#fa9ba4;opacity:0.2;"/>
   </g>
   <g id="patch_86">
    <path clip-path="url(#p5e2f9b91a9)" d="M 267.381214 307.584 
L 269.454948 307.584 
L 269.454948 307.584 
L 267.381214 307.584 
z
" style="fill:#fa9ba4;opacity:0.2;"/>
   </g>
   <g id="patch_87">
    <path clip-path="url(#p5e2f9b91a9)" d="M 269.685363 307.584 
L 271.759097 307.584 
L 271.759097 307.584 
L 269.685363 307.584 
z
" style="fill:#fa9ba4;opacity:0.2;"/>
   </g>
   <g id="patch_88">
    <path clip-path="url(#p5e2f9b91a9)" d="M 271.989512 307.584 
L 274.063245 307.584 
L 274.063245 307.584 
L 271.989512 307.584 
z
" style="fill:#fa9ba4;opacity:0.2;"/>
   </g>
   <g id="patch_89">
    <path clip-path="url(#p5e2f9b91a9)" d="M 274.29366 307.584 
L 276.367394 307.584 
L 276.367394 307.584 
L 274.29366 307.584 
z
" style="fill:#fa9ba4;opacity:0.2;"/>
   </g>
   <g id="patch_90">
    <path clip-path="url(#p5e2f9b91a9)" d="M 276.597809 307.584 
L 278.671543 307.584 
L 278.671543 307.584 
L 276.597809 307.584 
z
" style="fill:#fa9ba4;opacity:0.2;"/>
   </g>
   <g id="patch_91">
    <path clip-path="url(#p5e2f9b91a9)" d="M 278.901958 307.584 
L 280.975691 307.584 
L 280.975691 307.584 
L 278.901958 307.584 
z
" style="fill:#fa9ba4;opacity:0.2;"/>
   </g>
   <g id="patch_92">
    <path clip-path="url(#p5e2f9b91a9)" d="M 281.206106 307.584 
L 283.27984 307.584 
L 283.27984 307.584 
L 281.206106 307.584 
z
" style="fill:#fa9ba4;opacity:0.2;"/>
   </g>
   <g id="patch_93">
    <path clip-path="url(#p5e2f9b91a9)" d="M 283.510255 307.584 
L 285.583989 307.584 
L 285.583989 307.584 
L 283.510255 307.584 
z
" style="fill:#fa9ba4;opacity:0.2;"/>
   </g>
   <g id="patch_94">
    <path clip-path="url(#p5e2f9b91a9)" d="M 285.814404 307.584 
L 287.888137 307.584 
L 287.888137 307.584 
L 285.814404 307.584 
z
" style="fill:#fa9ba4;opacity:0.2;"/>
   </g>
   <g id="patch_95">
    <path clip-path="url(#p5e2f9b91a9)" d="M 288.118552 307.584 
L 290.192286 307.584 
L 290.192286 307.584 
L 288.118552 307.584 
z
" style="fill:#fa9ba4;opacity:0.2;"/>
   </g>
   <g id="patch_96">
    <path clip-path="url(#p5e2f9b91a9)" d="M 290.422701 307.584 
L 292.496435 307.584 
L 292.496435 307.584 
L 290.422701 307.584 
z
" style="fill:#fa9ba4;opacity:0.2;"/>
   </g>
   <g id="patch_97">
    <path clip-path="url(#p5e2f9b91a9)" d="M 292.726849 307.584 
L 294.800583 307.584 
L 294.800583 307.584 
L 292.726849 307.584 
z
" style="fill:#fa9ba4;opacity:0.2;"/>
   </g>
   <g id="patch_98">
    <path clip-path="url(#p5e2f9b91a9)" d="M 295.030998 307.584 
L 297.104732 307.584 
L 297.104732 307.584 
L 295.030998 307.584 
z
" style="fill:#fa9ba4;opacity:0.2;"/>
   </g>
   <g id="patch_99">
    <path clip-path="url(#p5e2f9b91a9)" d="M 297.335147 307.584 
L 299.408881 307.584 
L 299.408881 307.584 
L 297.335147 307.584 
z
" style="fill:#fa9ba4;opacity:0.2;"/>
   </g>
   <g id="patch_100">
    <path clip-path="url(#p5e2f9b91a9)" d="M 299.639295 307.584 
L 301.713029 307.584 
L 301.713029 307.584 
L 299.639295 307.584 
z
" style="fill:#fa9ba4;opacity:0.2;"/>
   </g>
   <g id="patch_101">
    <path clip-path="url(#p5e2f9b91a9)" d="M 301.943444 307.584 
L 304.017178 307.584 
L 304.017178 307.584 
L 301.943444 307.584 
z
" style="fill:#fa9ba4;opacity:0.2;"/>
   </g>
   <g id="patch_102">
    <path clip-path="url(#p5e2f9b91a9)" d="M 304.247593 307.584 
L 306.321327 307.584 
L 306.321327 307.584 
L 304.247593 307.584 
z
" style="fill:#fa9ba4;opacity:0.2;"/>
   </g>
   <g id="patch_103">
    <path clip-path="url(#p5e2f9b91a9)" d="M 306.551741 307.584 
L 308.625475 307.584 
L 308.625475 307.584 
L 306.551741 307.584 
z
" style="fill:#fa9ba4;opacity:0.2;"/>
   </g>
   <g id="patch_104">
    <path clip-path="url(#p5e2f9b91a9)" d="M 308.85589 307.584 
L 310.929624 307.584 
L 310.929624 307.584 
L 308.85589 307.584 
z
" style="fill:#fa9ba4;opacity:0.2;"/>
   </g>
   <g id="patch_105">
    <path clip-path="url(#p5e2f9b91a9)" d="M 311.160039 307.584 
L 313.233773 307.584 
L 313.233773 307.584 
L 311.160039 307.584 
z
" style="fill:#fa9ba4;opacity:0.2;"/>
   </g>
   <g id="patch_106">
    <path clip-path="url(#p5e2f9b91a9)" d="M 313.464187 307.584 
L 315.537921 307.584 
L 315.537921 307.584 
L 313.464187 307.584 
z
" style="fill:#fa9ba4;opacity:0.2;"/>
   </g>
   <g id="patch_107">
    <path clip-path="url(#p5e2f9b91a9)" d="M 315.768336 307.584 
L 317.84207 307.584 
L 317.84207 307.584 
L 315.768336 307.584 
z
" style="fill:#fa9ba4;opacity:0.2;"/>
   </g>
   <g id="patch_108">
    <path clip-path="url(#p5e2f9b91a9)" d="M 318.072485 307.584 
L 320.146218 307.584 
L 320.146218 307.584 
L 318.072485 307.584 
z
" style="fill:#fa9ba4;opacity:0.2;"/>
   </g>
   <g id="patch_109">
    <path clip-path="url(#p5e2f9b91a9)" d="M 320.376633 307.584 
L 322.450367 307.584 
L 322.450367 307.584 
L 320.376633 307.584 
z
" style="fill:#fa9ba4;opacity:0.2;"/>
   </g>
   <g id="patch_110">
    <path clip-path="url(#p5e2f9b91a9)" d="M 322.680782 307.584 
L 324.754516 307.584 
L 324.754516 307.584 
L 322.680782 307.584 
z
" style="fill:#fa9ba4;opacity:0.2;"/>
   </g>
   <g id="patch_111">
    <path clip-path="url(#p5e2f9b91a9)" d="M 324.984931 307.584 
L 327.058664 307.584 
L 327.058664 307.584 
L 324.984931 307.584 
z
" style="fill:#fa9ba4;opacity:0.2;"/>
   </g>
   <g id="patch_112">
    <path clip-path="url(#p5e2f9b91a9)" d="M 327.289079 307.584 
L 329.362813 307.584 
L 329.362813 307.584 
L 327.289079 307.584 
z
" style="fill:#fa9ba4;opacity:0.2;"/>
   </g>
   <g id="patch_113">
    <path clip-path="url(#p5e2f9b91a9)" d="M 329.593228 307.584 
L 331.666962 307.584 
L 331.666962 307.584 
L 329.593228 307.584 
z
" style="fill:#fa9ba4;opacity:0.2;"/>
   </g>
   <g id="patch_114">
    <path clip-path="url(#p5e2f9b91a9)" d="M 331.897377 307.584 
L 333.97111 307.584 
L 333.97111 307.584 
L 331.897377 307.584 
z
" style="fill:#fa9ba4;opacity:0.2;"/>
   </g>
   <g id="patch_115">
    <path clip-path="url(#p5e2f9b91a9)" d="M 334.201525 307.584 
L 336.275259 307.584 
L 336.275259 307.584 
L 334.201525 307.584 
z
" style="fill:#fa9ba4;opacity:0.2;"/>
   </g>
   <g id="patch_116">
    <path clip-path="url(#p5e2f9b91a9)" d="M 336.505674 307.584 
L 338.579408 307.584 
L 338.579408 307.584 
L 336.505674 307.584 
z
" style="fill:#fa9ba4;opacity:0.2;"/>
   </g>
   <g id="patch_117">
    <path clip-path="url(#p5e2f9b91a9)" d="M 338.809823 307.584 
L 340.883556 307.584 
L 340.883556 307.584 
L 338.809823 307.584 
z
" style="fill:#fa9ba4;opacity:0.2;"/>
   </g>
   <g id="patch_118">
    <path clip-path="url(#p5e2f9b91a9)" d="M 341.113971 307.584 
L 343.187705 307.584 
L 343.187705 307.584 
L 341.113971 307.584 
z
" style="fill:#fa9ba4;opacity:0.2;"/>
   </g>
   <g id="patch_119">
    <path clip-path="url(#p5e2f9b91a9)" d="M 343.41812 307.584 
L 345.491854 307.584 
L 345.491854 299.9808 
L 343.41812 299.9808 
z
" style="fill:#fa9ba4;opacity:0.2;"/>
   </g>
   <g id="patch_120">
    <path clip-path="url(#p5e2f9b91a9)" d="M 345.722269 307.584 
L 347.796002 307.584 
L 347.796002 299.9808 
L 345.722269 299.9808 
z
" style="fill:#fa9ba4;opacity:0.2;"/>
   </g>
   <g id="patch_121">
    <path clip-path="url(#p5e2f9b91a9)" d="M 348.026417 307.584 
L 350.100151 307.584 
L 350.100151 292.3776 
L 348.026417 292.3776 
z
" style="fill:#fa9ba4;opacity:0.2;"/>
   </g>
   <g id="patch_122">
    <path clip-path="url(#p5e2f9b91a9)" d="M 350.330566 307.584 
L 352.4043 307.584 
L 352.4043 299.9808 
L 350.330566 299.9808 
z
" style="fill:#fa9ba4;opacity:0.2;"/>
   </g>
   <g id="patch_123">
    <path clip-path="url(#p5e2f9b91a9)" d="M 352.634714 307.584 
L 354.708448 307.584 
L 354.708448 299.9808 
L 352.634714 299.9808 
z
" style="fill:#fa9ba4;opacity:0.2;"/>
   </g>
   <g id="patch_124">
    <path clip-path="url(#p5e2f9b91a9)" d="M 354.938863 307.584 
L 357.012597 307.584 
L 357.012597 261.9648 
L 354.938863 261.9648 
z
" style="fill:#fa9ba4;opacity:0.2;"/>
   </g>
   <g id="patch_125">
    <path clip-path="url(#p5e2f9b91a9)" d="M 357.243012 307.584 
L 359.316746 307.584 
L 359.316746 307.584 
L 357.243012 307.584 
z
" style="fill:#fa9ba4;opacity:0.2;"/>
   </g>
   <g id="patch_126">
    <path clip-path="url(#p5e2f9b91a9)" d="M 359.54716 307.584 
L 361.620894 307.584 
L 361.620894 269.568 
L 359.54716 269.568 
z
" style="fill:#fa9ba4;opacity:0.2;"/>
   </g>
   <g id="patch_127">
    <path clip-path="url(#p5e2f9b91a9)" d="M 361.851309 307.584 
L 363.925043 307.584 
L 363.925043 299.9808 
L 361.851309 299.9808 
z
" style="fill:#fa9ba4;opacity:0.2;"/>
   </g>
   <g id="patch_128">
    <path clip-path="url(#p5e2f9b91a9)" d="M 364.155458 307.584 
L 366.229192 307.584 
L 366.229192 299.9808 
L 364.155458 299.9808 
z
" style="fill:#fa9ba4;opacity:0.2;"/>
   </g>
   <g id="patch_129">
    <path clip-path="url(#p5e2f9b91a9)" d="M 366.459606 307.584 
L 368.53334 307.584 
L 368.53334 307.584 
L 366.459606 307.584 
z
" style="fill:#fa9ba4;opacity:0.2;"/>
   </g>
   <g id="patch_130">
    <path clip-path="url(#p5e2f9b91a9)" d="M 368.763755 307.584 
L 370.837489 307.584 
L 370.837489 269.568 
L 368.763755 269.568 
z
" style="fill:#fa9ba4;opacity:0.2;"/>
   </g>
   <g id="patch_131">
    <path clip-path="url(#p5e2f9b91a9)" d="M 371.067904 307.584 
L 373.141638 307.584 
L 373.141638 254.3616 
L 371.067904 254.3616 
z
" style="fill:#fa9ba4;opacity:0.2;"/>
   </g>
   <g id="patch_132">
    <path clip-path="url(#p5e2f9b91a9)" d="M 373.372052 307.584 
L 375.445786 307.584 
L 375.445786 201.1392 
L 373.372052 201.1392 
z
" style="fill:#fa9ba4;opacity:0.2;"/>
   </g>
   <g id="patch_133">
    <path clip-path="url(#p5e2f9b91a9)" d="M 375.676201 307.584 
L 377.749935 307.584 
L 377.749935 284.7744 
L 375.676201 284.7744 
z
" style="fill:#fa9ba4;opacity:0.2;"/>
   </g>
   <g id="patch_134">
    <path clip-path="url(#p5e2f9b91a9)" d="M 377.98035 307.584 
L 380.054083 307.584 
L 380.054083 239.1552 
L 377.98035 239.1552 
z
" style="fill:#fa9ba4;opacity:0.2;"/>
   </g>
   <g id="patch_135">
    <path clip-path="url(#p5e2f9b91a9)" d="M 380.284498 307.584 
L 382.358232 307.584 
L 382.358232 246.7584 
L 380.284498 246.7584 
z
" style="fill:#fa9ba4;opacity:0.2;"/>
   </g>
   <g id="patch_136">
    <path clip-path="url(#p5e2f9b91a9)" d="M 382.588647 307.584 
L 384.662381 307.584 
L 384.662381 261.9648 
L 382.588647 261.9648 
z
" style="fill:#fa9ba4;opacity:0.2;"/>
   </g>
   <g id="patch_137">
    <path clip-path="url(#p5e2f9b91a9)" d="M 384.892796 307.584 
L 386.966529 307.584 
L 386.966529 102.2976 
L 384.892796 102.2976 
z
" style="fill:#fa9ba4;opacity:0.2;"/>
   </g>
   <g id="patch_138">
    <path clip-path="url(#p5e2f9b91a9)" d="M 387.196944 307.584 
L 389.270678 307.584 
L 389.270678 277.1712 
L 387.196944 277.1712 
z
" style="fill:#fa9ba4;opacity:0.2;"/>
   </g>
   <g id="patch_139">
    <path clip-path="url(#p5e2f9b91a9)" d="M 389.501093 307.584 
L 391.574827 307.584 
L 391.574827 56.6784 
L 389.501093 56.6784 
z
" style="fill:#fa9ba4;opacity:0.2;"/>
   </g>
   <g id="patch_140">
    <path clip-path="url(#p5e2f9b91a9)" d="M 391.805242 307.584 
L 393.878975 307.584 
L 393.878975 41.472 
L 391.805242 41.472 
z
" style="fill:#fa9ba4;opacity:0.2;"/>
   </g>
   <g id="patch_141">
    <path clip-path="url(#p5e2f9b91a9)" d="M 394.10939 307.584 
L 396.183124 307.584 
L 396.183124 201.1392 
L 394.10939 201.1392 
z
" style="fill:#fa9ba4;opacity:0.2;"/>
   </g>
   <g id="patch_142">
    <path clip-path="url(#p5e2f9b91a9)" d="M 396.413539 307.584 
L 398.487273 307.584 
L 398.487273 307.584 
L 396.413539 307.584 
z
" style="fill:#fa9ba4;opacity:0.2;"/>
   </g>
   <g id="matplotlib.axis_1"/>
   <g id="matplotlib.axis_2"/>
   <g id="PolyCollection_1">
    <defs>
     <path d="M 367.496473 -53.2224 
L 367.496473 -38.016 
L 369.800622 -38.016 
L 372.104771 -38.016 
L 374.408919 -38.016 
L 376.713068 -38.016 
L 379.017217 -38.016 
L 381.321365 -38.016 
L 383.625514 -38.016 
L 385.929663 -38.016 
L 388.233811 -38.016 
L 390.53796 -38.016 
L 392.842109 -38.016 
L 395.146257 -38.016 
L 397.450406 -38.016 
L 397.450406 -167.2704 
L 397.450406 -167.2704 
L 395.146257 -175.959771 
L 392.842109 -170.528914 
L 390.53796 -135.771429 
L 388.233811 -115.134171 
L 385.929663 -118.392686 
L 383.625514 -94.496914 
L 381.321365 -87.979886 
L 379.017217 -80.376686 
L 376.713068 -71.687314 
L 374.408919 -73.859657 
L 372.104771 -58.653257 
L 369.800622 -57.567086 
L 367.496473 -53.2224 
z
" id="m0211be9165" style="stroke:#dc3545;stroke-opacity:0.5;"/>
    </defs>
    <g clip-path="url(#p5e2f9b91a9)">
     <use style="fill:#dc3545;fill-opacity:0.5;stroke:#dc3545;stroke-opacity:0.5;" x="0" xlink:href="#m0211be9165" y="345.6"/>
    </g>
   </g>
   <g id="PolyCollection_2">
    <defs>
     <path d="M 88.694486 -38.016 
L 88.694486 -38.016 
L 90.998635 -38.016 
L 93.302783 -38.016 
L 95.606932 -38.016 
L 97.911081 -38.016 
L 100.215229 -38.016 
L 102.519378 -38.016 
L 104.823527 -38.016 
L 107.127675 -38.016 
L 109.431824 -38.016 
L 111.735973 -38.016 
L 114.040121 -38.016 
L 116.34427 -38.016 
L 118.648419 -38.016 
L 120.952567 -38.016 
L 123.256716 -38.016 
L 125.560865 -38.016 
L 127.865013 -38.016 
L 130.169162 -38.016 
L 132.473311 -38.016 
L 134.777459 -38.016 
L 137.081608 -38.016 
L 139.385757 -38.016 
L 141.689905 -38.016 
L 143.994054 -38.016 
L 146.298202 -38.016 
L 148.602351 -38.016 
L 150.9065 -38.016 
L 153.210648 -38.016 
L 155.514797 -38.016 
L 157.818946 -38.016 
L 160.123094 -38.016 
L 162.427243 -38.016 
L 164.731392 -38.016 
L 167.03554 -38.016 
L 169.339689 -38.016 
L 171.643838 -38.016 
L 173.947986 -38.016 
L 176.252135 -38.016 
L 178.556284 -38.016 
L 180.860432 -38.016 
L 183.164581 -38.016 
L 185.46873 -38.016 
L 187.772878 -38.016 
L 190.077027 -38.016 
L 192.381176 -38.016 
L 194.685324 -38.016 
L 196.989473 -38.016 
L 199.293622 -38.016 
L 201.59777 -38.016 
L 203.901919 -38.016 
L 206.206067 -38.016 
L 208.510216 -38.016 
L 210.814365 -38.016 
L 213.118513 -38.016 
L 215.422662 -38.016 
L 217.726811 -38.016 
L 220.030959 -38.016 
L 222.335108 -38.016 
L 224.639257 -38.016 
L 226.943405 -38.016 
L 229.247554 -38.016 
L 231.551703 -38.016 
L 233.855851 -38.016 
L 236.16 -38.016 
L 238.464149 -38.016 
L 240.768297 -38.016 
L 243.072446 -38.016 
L 245.376595 -38.016 
L 247.680743 -38.016 
L 249.984892 -38.016 
L 252.289041 -38.016 
L 254.593189 -38.016 
L 256.897338 -38.016 
L 259.201487 -38.016 
L 261.505635 -38.016 
L 263.809784 -38.016 
L 266.113933 -38.016 
L 268.418081 -38.016 
L 270.72223 -38.016 
L 273.026378 -38.016 
L 275.330527 -38.016 
L 277.634676 -38.016 
L 279.938824 -38.016 
L 282.242973 -38.016 
L 284.547122 -38.016 
L 286.85127 -38.016 
L 289.155419 -38.016 
L 291.459568 -38.016 
L 293.763716 -38.016 
L 296.067865 -38.016 
L 298.372014 -38.016 
L 300.676162 -38.016 
L 302.980311 -38.016 
L 305.28446 -38.016 
L 307.588608 -38.016 
L 309.892757 -38.016 
L 312.196906 -38.016 
L 314.501054 -38.016 
L 316.805203 -38.016 
L 319.109352 -38.016 
L 321.4135 -38.016 
L 323.717649 -38.016 
L 326.021798 -38.016 
L 328.325946 -38.016 
L 330.630095 -38.016 
L 332.934243 -38.016 
L 335.238392 -38.016 
L 337.542541 -38.016 
L 339.846689 -38.016 
L 342.150838 -38.016 
L 344.454987 -38.016 
L 346.759135 -38.016 
L 349.063284 -38.016 
L 351.367433 -38.016 
L 353.671581 -38.016 
L 355.97573 -38.016 
L 358.279879 -38.016 
L 360.584027 -38.016 
L 362.888176 -38.016 
L 365.192325 -38.016 
L 367.496473 -38.016 
L 367.496473 -53.2224 
L 367.496473 -53.2224 
L 365.192325 -54.308571 
L 362.888176 -55.394743 
L 360.584027 -55.394743 
L 358.279879 -51.050057 
L 355.97573 -51.050057 
L 353.671581 -44.533029 
L 351.367433 -43.446857 
L 349.063284 -42.360686 
L 346.759135 -40.188343 
L 344.454987 -39.102171 
L 342.150838 -38.016 
L 339.846689 -38.016 
L 337.542541 -38.016 
L 335.238392 -38.016 
L 332.934243 -38.016 
L 330.630095 -38.016 
L 328.325946 -38.016 
L 326.021798 -38.016 
L 323.717649 -38.016 
L 321.4135 -38.016 
L 319.109352 -38.016 
L 316.805203 -38.016 
L 314.501054 -38.016 
L 312.196906 -38.016 
L 309.892757 -38.016 
L 307.588608 -38.016 
L 305.28446 -38.016 
L 302.980311 -38.016 
L 300.676162 -38.016 
L 298.372014 -38.016 
L 296.067865 -38.016 
L 293.763716 -38.016 
L 291.459568 -38.016 
L 289.155419 -38.016 
L 286.85127 -38.016 
L 284.547122 -38.016 
L 282.242973 -38.016 
L 279.938824 -38.016 
L 277.634676 -38.016 
L 275.330527 -38.016 
L 273.026378 -38.016 
L 270.72223 -38.016 
L 268.418081 -38.016 
L 266.113933 -38.016 
L 263.809784 -38.016 
L 261.505635 -38.016 
L 259.201487 -38.016 
L 256.897338 -38.016 
L 254.593189 -38.016 
L 252.289041 -38.016 
L 249.984892 -38.016 
L 247.680743 -38.016 
L 245.376595 -38.016 
L 243.072446 -38.016 
L 240.768297 -38.016 
L 238.464149 -38.016 
L 236.16 -38.016 
L 233.855851 -38.016 
L 231.551703 -38.016 
L 229.247554 -38.016 
L 226.943405 -38.016 
L 224.639257 -38.016 
L 222.335108 -38.016 
L 220.030959 -38.016 
L 217.726811 -38.016 
L 215.422662 -38.016 
L 213.118513 -38.016 
L 210.814365 -38.016 
L 208.510216 -38.016 
L 206.206067 -38.016 
L 203.901919 -38.016 
L 201.59777 -38.016 
L 199.293622 -38.016 
L 196.989473 -38.016 
L 194.685324 -38.016 
L 192.381176 -38.016 
L 190.077027 -38.016 
L 187.772878 -38.016 
L 185.46873 -38.016 
L 183.164581 -38.016 
L 180.860432 -38.016 
L 178.556284 -38.016 
L 176.252135 -38.016 
L 173.947986 -38.016 
L 171.643838 -38.016 
L 169.339689 -38.016 
L 167.03554 -39.102171 
L 164.731392 -41.274514 
L 162.427243 -41.274514 
L 160.123094 -41.274514 
L 157.818946 -41.274514 
L 155.514797 -42.360686 
L 153.210648 -42.360686 
L 150.9065 -41.274514 
L 148.602351 -39.102171 
L 146.298202 -39.102171 
L 143.994054 -39.102171 
L 141.689905 -39.102171 
L 139.385757 -38.016 
L 137.081608 -38.016 
L 134.777459 -38.016 
L 132.473311 -38.016 
L 130.169162 -38.016 
L 127.865013 -38.016 
L 125.560865 -38.016 
L 123.256716 -38.016 
L 120.952567 -38.016 
L 118.648419 -38.016 
L 116.34427 -38.016 
L 114.040121 -39.102171 
L 111.735973 -39.102171 
L 109.431824 -39.102171 
L 107.127675 -39.102171 
L 104.823527 -39.102171 
L 102.519378 -39.102171 
L 100.215229 -39.102171 
L 97.911081 -38.016 
L 95.606932 -38.016 
L 93.302783 -38.016 
L 90.998635 -38.016 
L 88.694486 -38.016 
z
" id="mf13002c963" style="stroke:#fa9ba4;stroke-opacity:0.3;"/>
    </defs>
    <g clip-path="url(#p5e2f9b91a9)">
     <use style="fill:#fa9ba4;fill-opacity:0.3;stroke:#fa9ba4;stroke-opacity:0.3;" x="0" xlink:href="#mf13002c963" y="345.6"/>
    </g>
   </g>
   <g id="line2d_1">
    <path clip-path="url(#p5e2f9b91a9)" d="M 88.694486 307.584 
L 97.911081 307.584 
L 100.215229 306.497829 
L 114.040121 306.497829 
L 116.34427 307.584 
L 139.385757 307.584 
L 141.689905 306.497829 
L 148.602351 306.497829 
L 150.9065 304.325486 
L 153.210648 303.239314 
L 155.514797 303.239314 
L 157.818946 304.325486 
L 164.731392 304.325486 
L 167.03554 306.497829 
L 169.339689 307.584 
L 342.150838 307.584 
L 346.759135 305.411657 
L 349.063284 303.239314 
L 353.671581 301.066971 
L 355.97573 294.549943 
L 358.279879 294.549943 
L 360.584027 290.205257 
L 362.888176 290.205257 
L 367.496473 292.3776 
L 369.800622 288.032914 
L 372.104771 286.946743 
L 374.408919 271.740343 
L 376.713068 273.912686 
L 379.017217 265.223314 
L 381.321365 257.620114 
L 383.625514 251.103086 
L 385.929663 227.207314 
L 388.233811 230.465829 
L 390.53796 209.828571 
L 392.842109 175.071086 
L 395.146257 169.640229 
L 397.450406 178.3296 
L 397.450406 178.3296 
" style="fill:none;stroke:#fa9ba4;stroke-linecap:square;stroke-width:2;"/>
   </g>
   <g id="line2d_2">
    <path clip-path="url(#p5e2f9b91a9)" d="M 367.496473 292.3776 
L 369.800622 288.032914 
L 372.104771 286.946743 
L 374.408919 271.740343 
L 376.713068 273.912686 
L 379.017217 265.223314 
L 381.321365 257.620114 
L 383.625514 251.103086 
L 385.929663 227.207314 
L 388.233811 230.465829 
L 390.53796 209.828571 
L 392.842109 175.071086 
L 395.146257 169.640229 
L 397.450406 178.3296 
" style="fill:none;stroke:#dc3545;stroke-linecap:square;stroke-width:2;"/>
   </g>
  </g>
 </g>
 <defs>
  <clipPath id="p5e2f9b91a9">
   <rect height="266.112" width="357.12" x="57.6" y="41.472"/>
  </clipPath>
 </defs>
</svg>
