<?xml version="1.0" encoding="utf-8" standalone="no"?>
<!DOCTYPE svg PUBLIC "-//W3C//DTD SVG 1.1//EN"
  "http://www.w3.org/Graphics/SVG/1.1/DTD/svg11.dtd">
<!-- Created with matplotlib (https://matplotlib.org/) -->
<svg height="288pt" version="1.1" viewBox="0 0 432 288" width="432pt" xmlns="http://www.w3.org/2000/svg" xmlns:xlink="http://www.w3.org/1999/xlink">
 <defs>
  <style type="text/css">
*{stroke-linecap:butt;stroke-linejoin:round;}
  </style>
 </defs>
 <g id="figure_1">
  <g id="patch_1">
   <path d="M 0 288 
L 432 288 
L 432 0 
L 0 0 
z
" style="fill:none;"/>
  </g>
  <g id="axes_1">
   <g id="patch_2">
    <path clip-path="url(#peaf2d21710)" d="M 69.218182 252 
L 79.401352 252 
L 79.401352 244.234286 
L 69.218182 244.234286 
z
" style="fill:#fa9ba4;opacity:0.6;"/>
   </g>
   <g id="patch_3">
    <path clip-path="url(#peaf2d21710)" d="M 80.532815 252 
L 90.715985 252 
L 90.715985 252 
L 80.532815 252 
z
" style="fill:#fa9ba4;opacity:0.6;"/>
   </g>
   <g id="patch_4">
    <path clip-path="url(#peaf2d21710)" d="M 91.847448 252 
L 102.030618 252 
L 102.030618 252 
L 91.847448 252 
z
" style="fill:#fa9ba4;opacity:0.6;"/>
   </g>
   <g id="patch_5">
    <path clip-path="url(#peaf2d21710)" d="M 103.162082 252 
L 113.345252 252 
L 113.345252 252 
L 103.162082 252 
z
" style="fill:#fa9ba4;opacity:0.6;"/>
   </g>
   <g id="patch_6">
    <path clip-path="url(#peaf2d21710)" d="M 114.476715 252 
L 124.659885 252 
L 124.659885 252 
L 114.476715 252 
z
" style="fill:#fa9ba4;opacity:0.6;"/>
   </g>
   <g id="patch_7">
    <path clip-path="url(#peaf2d21710)" d="M 125.791348 252 
L 135.974518 252 
L 135.974518 252 
L 125.791348 252 
z
" style="fill:#fa9ba4;opacity:0.6;"/>
   </g>
   <g id="patch_8">
    <path clip-path="url(#peaf2d21710)" d="M 137.105982 252 
L 147.289152 252 
L 147.289152 244.234286 
L 137.105982 244.234286 
z
" style="fill:#fa9ba4;opacity:0.6;"/>
   </g>
   <g id="patch_9">
    <path clip-path="url(#peaf2d21710)" d="M 148.420615 252 
L 158.603785 252 
L 158.603785 244.234286 
L 148.420615 244.234286 
z
" style="fill:#fa9ba4;opacity:0.6;"/>
   </g>
   <g id="patch_10">
    <path clip-path="url(#peaf2d21710)" d="M 159.735248 252 
L 169.918418 252 
L 169.918418 244.234286 
L 159.735248 244.234286 
z
" style="fill:#fa9ba4;opacity:0.6;"/>
   </g>
   <g id="patch_11">
    <path clip-path="url(#peaf2d21710)" d="M 171.049882 252 
L 181.233052 252 
L 181.233052 213.171429 
L 171.049882 213.171429 
z
" style="fill:#fa9ba4;opacity:0.6;"/>
   </g>
   <g id="patch_12">
    <path clip-path="url(#peaf2d21710)" d="M 182.364515 252 
L 192.547685 252 
L 192.547685 228.702857 
L 182.364515 228.702857 
z
" style="fill:#fa9ba4;opacity:0.6;"/>
   </g>
   <g id="patch_13">
    <path clip-path="url(#peaf2d21710)" d="M 193.679148 252 
L 203.862318 252 
L 203.862318 252 
L 193.679148 252 
z
" style="fill:#fa9ba4;opacity:0.6;"/>
   </g>
   <g id="patch_14">
    <path clip-path="url(#peaf2d21710)" d="M 204.993782 252 
L 215.176952 252 
L 215.176952 220.937143 
L 204.993782 220.937143 
z
" style="fill:#fa9ba4;opacity:0.6;"/>
   </g>
   <g id="patch_15">
    <path clip-path="url(#peaf2d21710)" d="M 216.308415 252 
L 226.491585 252 
L 226.491585 252 
L 216.308415 252 
z
" style="fill:#fa9ba4;opacity:0.6;"/>
   </g>
   <g id="patch_16">
    <path clip-path="url(#peaf2d21710)" d="M 227.623048 252 
L 237.806218 252 
L 237.806218 244.234286 
L 227.623048 244.234286 
z
" style="fill:#fa9ba4;opacity:0.6;"/>
   </g>
   <g id="patch_17">
    <path clip-path="url(#peaf2d21710)" d="M 238.937682 252 
L 249.120852 252 
L 249.120852 88.92 
L 238.937682 88.92 
z
" style="fill:#fa9ba4;opacity:0.6;"/>
   </g>
   <g id="patch_18">
    <path clip-path="url(#peaf2d21710)" d="M 250.252315 252 
L 260.435485 252 
L 260.435485 151.045714 
L 250.252315 151.045714 
z
" style="fill:#fa9ba4;opacity:0.6;"/>
   </g>
   <g id="patch_19">
    <path clip-path="url(#peaf2d21710)" d="M 261.566948 252 
L 271.750118 252 
L 271.750118 34.56 
L 261.566948 34.56 
z
" style="fill:#fa9ba4;opacity:0.6;"/>
   </g>
   <g id="patch_20">
    <path clip-path="url(#peaf2d21710)" d="M 272.881582 252 
L 283.064752 252 
L 283.064752 42.325714 
L 272.881582 42.325714 
z
" style="fill:#fa9ba4;opacity:0.6;"/>
   </g>
   <g id="patch_21">
    <path clip-path="url(#peaf2d21710)" d="M 284.196215 252 
L 294.379385 252 
L 294.379385 57.857143 
L 284.196215 57.857143 
z
" style="fill:#fa9ba4;opacity:0.6;"/>
   </g>
   <g id="patch_22">
    <path clip-path="url(#peaf2d21710)" d="M 295.510848 252 
L 305.694018 252 
L 305.694018 228.702857 
L 295.510848 228.702857 
z
" style="fill:#fa9ba4;opacity:0.6;"/>
   </g>
   <g id="patch_23">
    <path clip-path="url(#peaf2d21710)" d="M 306.825482 252 
L 317.008652 252 
L 317.008652 252 
L 306.825482 252 
z
" style="fill:#fa9ba4;opacity:0.6;"/>
   </g>
   <g id="patch_24">
    <path clip-path="url(#peaf2d21710)" d="M 318.140115 252 
L 328.323285 252 
L 328.323285 252 
L 318.140115 252 
z
" style="fill:#fa9ba4;opacity:0.6;"/>
   </g>
   <g id="patch_25">
    <path clip-path="url(#peaf2d21710)" d="M 329.454748 252 
L 339.637918 252 
L 339.637918 252 
L 329.454748 252 
z
" style="fill:#fa9ba4;opacity:0.6;"/>
   </g>
   <g id="patch_26">
    <path clip-path="url(#peaf2d21710)" d="M 340.769382 252 
L 350.952552 252 
L 350.952552 252 
L 340.769382 252 
z
" style="fill:#fa9ba4;opacity:0.6;"/>
   </g>
   <g id="patch_27">
    <path clip-path="url(#peaf2d21710)" d="M 352.084015 252 
L 362.267185 252 
L 362.267185 220.937143 
L 352.084015 220.937143 
z
" style="fill:#fa9ba4;opacity:0.6;"/>
   </g>
   <g id="patch_28">
    <path clip-path="url(#peaf2d21710)" d="M 363.398648 252 
L 373.581818 252 
L 373.581818 252 
L 363.398648 252 
z
" style="fill:#fa9ba4;opacity:0.6;"/>
   </g>
   <g id="matplotlib.axis_1"/>
   <g id="matplotlib.axis_2">
    <g id="ytick_1">
     <g id="line2d_1">
      <defs>
       <path d="M 0 0 
L 16 0 
" id="m74739fb4aa" style="stroke:#e0e0e0;stroke-width:2;"/>
      </defs>
      <g>
       <use style="fill:#e0e0e0;stroke:#e0e0e0;stroke-width:2;" x="54" xlink:href="#m74739fb4aa" y="34.56"/>
      </g>
     </g>
     <g id="text_1">
      <!-- 28 -->
      <defs>
       <path d="M 19.1875 8.296875 
L 53.609375 8.296875 
L 53.609375 0 
L 7.328125 0 
L 7.328125 8.296875 
Q 12.9375 14.109375 22.625 23.890625 
Q 32.328125 33.6875 34.8125 36.53125 
Q 39.546875 41.84375 41.421875 45.53125 
Q 43.3125 49.21875 43.3125 52.78125 
Q 43.3125 58.59375 39.234375 62.25 
Q 35.15625 65.921875 28.609375 65.921875 
Q 23.96875 65.921875 18.8125 64.3125 
Q 13.671875 62.703125 7.8125 59.421875 
L 7.8125 69.390625 
Q 13.765625 71.78125 18.9375 73 
Q 24.125 74.21875 28.421875 74.21875 
Q 39.75 74.21875 46.484375 68.546875 
Q 53.21875 62.890625 53.21875 53.421875 
Q 53.21875 48.921875 51.53125 44.890625 
Q 49.859375 40.875 45.40625 35.40625 
Q 44.1875 33.984375 37.640625 27.21875 
Q 31.109375 20.453125 19.1875 8.296875 
z
" id="DejaVuSans-50"/>
       <path d="M 31.78125 34.625 
Q 24.75 34.625 20.71875 30.859375 
Q 16.703125 27.09375 16.703125 20.515625 
Q 16.703125 13.921875 20.71875 10.15625 
Q 24.75 6.390625 31.78125 6.390625 
Q 38.8125 6.390625 42.859375 10.171875 
Q 46.921875 13.96875 46.921875 20.515625 
Q 46.921875 27.09375 42.890625 30.859375 
Q 38.875 34.625 31.78125 34.625 
z
M 21.921875 38.8125 
Q 15.578125 40.375 12.03125 44.71875 
Q 8.5 49.078125 8.5 55.328125 
Q 8.5 64.0625 14.71875 69.140625 
Q 20.953125 74.21875 31.78125 74.21875 
Q 42.671875 74.21875 48.875 69.140625 
Q 55.078125 64.0625 55.078125 55.328125 
Q 55.078125 49.078125 51.53125 44.71875 
Q 48 40.375 41.703125 38.8125 
Q 48.828125 37.15625 52.796875 32.3125 
Q 56.78125 27.484375 56.78125 20.515625 
Q 56.78125 9.90625 50.3125 4.234375 
Q 43.84375 -1.421875 31.78125 -1.421875 
Q 19.734375 -1.421875 13.25 4.234375 
Q 6.78125 9.90625 6.78125 20.515625 
Q 6.78125 27.484375 10.78125 32.3125 
Q 14.796875 37.15625 21.921875 38.8125 
z
M 18.3125 54.390625 
Q 18.3125 48.734375 21.84375 45.5625 
Q 25.390625 42.390625 31.78125 42.390625 
Q 38.140625 42.390625 41.71875 45.5625 
Q 45.3125 48.734375 45.3125 54.390625 
Q 45.3125 60.0625 41.71875 63.234375 
Q 38.140625 66.40625 31.78125 66.40625 
Q 25.390625 66.40625 21.84375 63.234375 
Q 18.3125 60.0625 18.3125 54.390625 
z
" id="DejaVuSans-56"/>
      </defs>
      <g style="fill:#e0e0e0;" transform="translate(13.46 43.678125)scale(0.24 -0.24)">
       <use xlink:href="#DejaVuSans-50"/>
       <use x="63.623047" xlink:href="#DejaVuSans-56"/>
      </g>
     </g>
    </g>
   </g>
   <g id="PolyCollection_1">
    <defs>
     <path d="M 221.4 -51.531429 
L 221.4 -36 
L 232.714633 -36 
L 244.029267 -36 
L 255.3439 -36 
L 266.658533 -36 
L 277.973167 -36 
L 289.2878 -36 
L 300.602433 -36 
L 311.917067 -36 
L 323.2317 -36 
L 334.546333 -36 
L 345.860967 -36 
L 357.1756 -36 
L 368.490233 -36 
L 368.490233 -43.765714 
L 368.490233 -43.765714 
L 357.1756 -71.500408 
L 345.860967 -97.016327 
L 334.546333 -128.079184 
L 323.2317 -142.501224 
L 311.917067 -165.798367 
L 300.602433 -166.907755 
L 289.2878 -163.579592 
L 277.973167 -140.282449 
L 266.658533 -110.32898 
L 255.3439 -82.594286 
L 244.029267 -73.719184 
L 232.714633 -51.531429 
L 221.4 -51.531429 
z
" id="m35a2127f6d" style="stroke:#dc3545;stroke-opacity:0.5;"/>
    </defs>
    <g clip-path="url(#peaf2d21710)">
     <use style="fill:#dc3545;fill-opacity:0.5;stroke:#dc3545;stroke-opacity:0.5;" x="0" xlink:href="#m35a2127f6d" y="288"/>
    </g>
   </g>
   <g id="line2d_2">
    <path clip-path="url(#peaf2d21710)" d="M 142.197567 249.781224 
L 153.5122 249.781224 
L 164.826833 248.671837 
L 176.141467 243.124898 
L 187.4561 239.796735 
L 198.770733 239.796735 
L 210.085367 235.359184 
L 221.4 236.468571 
L 232.714633 236.468571 
L 244.029267 214.280816 
L 255.3439 205.405714 
L 266.658533 177.67102 
L 277.973167 147.717551 
L 289.2878 124.420408 
L 300.602433 121.092245 
L 311.917067 122.201633 
L 323.2317 145.498776 
L 334.546333 159.920816 
L 345.860967 190.983673 
L 357.1756 216.499592 
L 368.490233 244.234286 
" style="fill:none;stroke:#dc3545;stroke-linecap:square;stroke-opacity:0.6;stroke-width:2;"/>
   </g>
   <g id="line2d_3">
    <path clip-path="url(#peaf2d21710)" d="M 221.4 236.468571 
L 232.714633 236.468571 
L 244.029267 214.280816 
L 255.3439 205.405714 
L 266.658533 177.67102 
L 277.973167 147.717551 
L 289.2878 124.420408 
L 300.602433 121.092245 
L 311.917067 122.201633 
L 323.2317 145.498776 
L 334.546333 159.920816 
L 345.860967 190.983673 
L 357.1756 216.499592 
L 368.490233 244.234286 
" style="fill:none;stroke:#dc3545;stroke-linecap:square;stroke-width:2;"/>
   </g>
  </g>
 </g>
 <defs>
  <clipPath id="peaf2d21710">
   <rect height="217.44" width="334.8" x="54" y="34.56"/>
  </clipPath>
 </defs>
</svg>
