<?xml version="1.0" encoding="utf-8" standalone="no"?>
<!DOCTYPE svg PUBLIC "-//W3C//DTD SVG 1.1//EN"
  "http://www.w3.org/Graphics/SVG/1.1/DTD/svg11.dtd">
<!-- Created with matplotlib (https://matplotlib.org/) -->
<svg height="288pt" version="1.1" viewBox="0 0 432 288" width="432pt" xmlns="http://www.w3.org/2000/svg" xmlns:xlink="http://www.w3.org/1999/xlink">
 <defs>
  <style type="text/css">
*{stroke-linecap:butt;stroke-linejoin:round;}
  </style>
 </defs>
 <g id="figure_1">
  <g id="patch_1">
   <path d="M 0 288 
L 432 288 
L 432 0 
L 0 0 
z
" style="fill:none;"/>
  </g>
  <g id="axes_1">
   <g id="patch_2">
    <path clip-path="url(#p26748ec379)" d="M 69.218182 252 
L 79.401352 252 
L 79.401352 252 
L 69.218182 252 
z
" style="fill:#fa9ba4;opacity:0.6;"/>
   </g>
   <g id="patch_3">
    <path clip-path="url(#p26748ec379)" d="M 80.532815 252 
L 90.715985 252 
L 90.715985 252 
L 80.532815 252 
z
" style="fill:#fa9ba4;opacity:0.6;"/>
   </g>
   <g id="patch_4">
    <path clip-path="url(#p26748ec379)" d="M 91.847448 252 
L 102.030618 252 
L 102.030618 252 
L 91.847448 252 
z
" style="fill:#fa9ba4;opacity:0.6;"/>
   </g>
   <g id="patch_5">
    <path clip-path="url(#p26748ec379)" d="M 103.162082 252 
L 113.345252 252 
L 113.345252 252 
L 103.162082 252 
z
" style="fill:#fa9ba4;opacity:0.6;"/>
   </g>
   <g id="patch_6">
    <path clip-path="url(#p26748ec379)" d="M 114.476715 252 
L 124.659885 252 
L 124.659885 252 
L 114.476715 252 
z
" style="fill:#fa9ba4;opacity:0.6;"/>
   </g>
   <g id="patch_7">
    <path clip-path="url(#p26748ec379)" d="M 125.791348 252 
L 135.974518 252 
L 135.974518 252 
L 125.791348 252 
z
" style="fill:#fa9ba4;opacity:0.6;"/>
   </g>
   <g id="patch_8">
    <path clip-path="url(#p26748ec379)" d="M 137.105982 252 
L 147.289152 252 
L 147.289152 252 
L 137.105982 252 
z
" style="fill:#fa9ba4;opacity:0.6;"/>
   </g>
   <g id="patch_9">
    <path clip-path="url(#p26748ec379)" d="M 148.420615 252 
L 158.603785 252 
L 158.603785 252 
L 148.420615 252 
z
" style="fill:#fa9ba4;opacity:0.6;"/>
   </g>
   <g id="patch_10">
    <path clip-path="url(#p26748ec379)" d="M 159.735248 252 
L 169.918418 252 
L 169.918418 252 
L 159.735248 252 
z
" style="fill:#fa9ba4;opacity:0.6;"/>
   </g>
   <g id="patch_11">
    <path clip-path="url(#p26748ec379)" d="M 171.049882 252 
L 181.233052 252 
L 181.233052 215.76 
L 171.049882 215.76 
z
" style="fill:#fa9ba4;opacity:0.6;"/>
   </g>
   <g id="patch_12">
    <path clip-path="url(#p26748ec379)" d="M 182.364515 252 
L 192.547685 252 
L 192.547685 252 
L 182.364515 252 
z
" style="fill:#fa9ba4;opacity:0.6;"/>
   </g>
   <g id="patch_13">
    <path clip-path="url(#p26748ec379)" d="M 193.679148 252 
L 203.862318 252 
L 203.862318 252 
L 193.679148 252 
z
" style="fill:#fa9ba4;opacity:0.6;"/>
   </g>
   <g id="patch_14">
    <path clip-path="url(#p26748ec379)" d="M 204.993782 252 
L 215.176952 252 
L 215.176952 252 
L 204.993782 252 
z
" style="fill:#fa9ba4;opacity:0.6;"/>
   </g>
   <g id="patch_15">
    <path clip-path="url(#p26748ec379)" d="M 216.308415 252 
L 226.491585 252 
L 226.491585 252 
L 216.308415 252 
z
" style="fill:#fa9ba4;opacity:0.6;"/>
   </g>
   <g id="patch_16">
    <path clip-path="url(#p26748ec379)" d="M 227.623048 252 
L 237.806218 252 
L 237.806218 252 
L 227.623048 252 
z
" style="fill:#fa9ba4;opacity:0.6;"/>
   </g>
   <g id="patch_17">
    <path clip-path="url(#p26748ec379)" d="M 238.937682 252 
L 249.120852 252 
L 249.120852 252 
L 238.937682 252 
z
" style="fill:#fa9ba4;opacity:0.6;"/>
   </g>
   <g id="patch_18">
    <path clip-path="url(#p26748ec379)" d="M 250.252315 252 
L 260.435485 252 
L 260.435485 252 
L 250.252315 252 
z
" style="fill:#fa9ba4;opacity:0.6;"/>
   </g>
   <g id="patch_19">
    <path clip-path="url(#p26748ec379)" d="M 261.566948 252 
L 271.750118 252 
L 271.750118 252 
L 261.566948 252 
z
" style="fill:#fa9ba4;opacity:0.6;"/>
   </g>
   <g id="patch_20">
    <path clip-path="url(#p26748ec379)" d="M 272.881582 252 
L 283.064752 252 
L 283.064752 252 
L 272.881582 252 
z
" style="fill:#fa9ba4;opacity:0.6;"/>
   </g>
   <g id="patch_21">
    <path clip-path="url(#p26748ec379)" d="M 284.196215 252 
L 294.379385 252 
L 294.379385 34.56 
L 284.196215 34.56 
z
" style="fill:#fa9ba4;opacity:0.6;"/>
   </g>
   <g id="patch_22">
    <path clip-path="url(#p26748ec379)" d="M 295.510848 252 
L 305.694018 252 
L 305.694018 143.28 
L 295.510848 143.28 
z
" style="fill:#fa9ba4;opacity:0.6;"/>
   </g>
   <g id="patch_23">
    <path clip-path="url(#p26748ec379)" d="M 306.825482 252 
L 317.008652 252 
L 317.008652 252 
L 306.825482 252 
z
" style="fill:#fa9ba4;opacity:0.6;"/>
   </g>
   <g id="patch_24">
    <path clip-path="url(#p26748ec379)" d="M 318.140115 252 
L 328.323285 252 
L 328.323285 252 
L 318.140115 252 
z
" style="fill:#fa9ba4;opacity:0.6;"/>
   </g>
   <g id="patch_25">
    <path clip-path="url(#p26748ec379)" d="M 329.454748 252 
L 339.637918 252 
L 339.637918 215.76 
L 329.454748 215.76 
z
" style="fill:#fa9ba4;opacity:0.6;"/>
   </g>
   <g id="patch_26">
    <path clip-path="url(#p26748ec379)" d="M 340.769382 252 
L 350.952552 252 
L 350.952552 252 
L 340.769382 252 
z
" style="fill:#fa9ba4;opacity:0.6;"/>
   </g>
   <g id="patch_27">
    <path clip-path="url(#p26748ec379)" d="M 352.084015 252 
L 362.267185 252 
L 362.267185 252 
L 352.084015 252 
z
" style="fill:#fa9ba4;opacity:0.6;"/>
   </g>
   <g id="patch_28">
    <path clip-path="url(#p26748ec379)" d="M 363.398648 252 
L 373.581818 252 
L 373.581818 252 
L 363.398648 252 
z
" style="fill:#fa9ba4;opacity:0.6;"/>
   </g>
   <g id="matplotlib.axis_1"/>
   <g id="matplotlib.axis_2">
    <g id="ytick_1">
     <g id="line2d_1">
      <defs>
       <path d="M 0 0 
L 16 0 
" id="m028e97ca3d" style="stroke:#e0e0e0;stroke-width:2;"/>
      </defs>
      <g>
       <use style="fill:#e0e0e0;stroke:#e0e0e0;stroke-width:2;" x="54" xlink:href="#m028e97ca3d" y="34.56"/>
      </g>
     </g>
     <g id="text_1">
      <!-- 6 -->
      <defs>
       <path d="M 33.015625 40.375 
Q 26.375 40.375 22.484375 35.828125 
Q 18.609375 31.296875 18.609375 23.390625 
Q 18.609375 15.53125 22.484375 10.953125 
Q 26.375 6.390625 33.015625 6.390625 
Q 39.65625 6.390625 43.53125 10.953125 
Q 47.40625 15.53125 47.40625 23.390625 
Q 47.40625 31.296875 43.53125 35.828125 
Q 39.65625 40.375 33.015625 40.375 
z
M 52.59375 71.296875 
L 52.59375 62.3125 
Q 48.875 64.0625 45.09375 64.984375 
Q 41.3125 65.921875 37.59375 65.921875 
Q 27.828125 65.921875 22.671875 59.328125 
Q 17.53125 52.734375 16.796875 39.40625 
Q 19.671875 43.65625 24.015625 45.921875 
Q 28.375 48.1875 33.59375 48.1875 
Q 44.578125 48.1875 50.953125 41.515625 
Q 57.328125 34.859375 57.328125 23.390625 
Q 57.328125 12.15625 50.6875 5.359375 
Q 44.046875 -1.421875 33.015625 -1.421875 
Q 20.359375 -1.421875 13.671875 8.265625 
Q 6.984375 17.96875 6.984375 36.375 
Q 6.984375 53.65625 15.1875 63.9375 
Q 23.390625 74.21875 37.203125 74.21875 
Q 40.921875 74.21875 44.703125 73.484375 
Q 48.484375 72.75 52.59375 71.296875 
z
" id="DejaVuSans-54"/>
      </defs>
      <g style="fill:#e0e0e0;" transform="translate(28.73 43.678125)scale(0.24 -0.24)">
       <use xlink:href="#DejaVuSans-54"/>
      </g>
     </g>
    </g>
   </g>
   <g id="PolyCollection_1">
    <defs>
     <path d="M 221.4 -41.177143 
L 221.4 -36 
L 232.714633 -36 
L 244.029267 -36 
L 255.3439 -36 
L 266.658533 -36 
L 277.973167 -36 
L 289.2878 -36 
L 300.602433 -36 
L 311.917067 -36 
L 323.2317 -36 
L 334.546333 -36 
L 345.860967 -36 
L 357.1756 -36 
L 368.490233 -36 
L 368.490233 -56.708571 
L 368.490233 -56.708571 
L 357.1756 -87.771429 
L 345.860967 -87.771429 
L 334.546333 -87.771429 
L 323.2317 -82.594286 
L 311.917067 -82.594286 
L 300.602433 -82.594286 
L 289.2878 -67.062857 
L 277.973167 -36 
L 266.658533 -36 
L 255.3439 -36 
L 244.029267 -41.177143 
L 232.714633 -41.177143 
L 221.4 -41.177143 
z
" id="mbaa2c5b643" style="stroke:#dc3545;stroke-opacity:0.5;"/>
    </defs>
    <g clip-path="url(#p26748ec379)">
     <use style="fill:#dc3545;fill-opacity:0.5;stroke:#dc3545;stroke-opacity:0.5;" x="0" xlink:href="#mbaa2c5b643" y="288"/>
    </g>
   </g>
   <g id="line2d_2">
    <path clip-path="url(#p26748ec379)" d="M 142.197567 252 
L 153.5122 252 
L 164.826833 252 
L 176.141467 246.822857 
L 187.4561 246.822857 
L 198.770733 246.822857 
L 210.085367 246.822857 
L 221.4 246.822857 
L 232.714633 246.822857 
L 244.029267 246.822857 
L 255.3439 252 
L 266.658533 252 
L 277.973167 252 
L 289.2878 220.937143 
L 300.602433 205.405714 
L 311.917067 205.405714 
L 323.2317 205.405714 
L 334.546333 200.228571 
L 345.860967 200.228571 
L 357.1756 200.228571 
L 368.490233 231.291429 
" style="fill:none;stroke:#dc3545;stroke-linecap:square;stroke-opacity:0.6;stroke-width:2;"/>
   </g>
   <g id="line2d_3">
    <path clip-path="url(#p26748ec379)" d="M 221.4 246.822857 
L 232.714633 246.822857 
L 244.029267 246.822857 
L 255.3439 252 
L 266.658533 252 
L 277.973167 252 
L 289.2878 220.937143 
L 300.602433 205.405714 
L 311.917067 205.405714 
L 323.2317 205.405714 
L 334.546333 200.228571 
L 345.860967 200.228571 
L 357.1756 200.228571 
L 368.490233 231.291429 
" style="fill:none;stroke:#dc3545;stroke-linecap:square;stroke-width:2;"/>
   </g>
  </g>
 </g>
 <defs>
  <clipPath id="p26748ec379">
   <rect height="217.44" width="334.8" x="54" y="34.56"/>
  </clipPath>
 </defs>
</svg>
