<?xml version="1.0" encoding="utf-8" standalone="no"?>
<!DOCTYPE svg PUBLIC "-//W3C//DTD SVG 1.1//EN"
  "http://www.w3.org/Graphics/SVG/1.1/DTD/svg11.dtd">
<!-- Created with matplotlib (https://matplotlib.org/) -->
<svg height="288pt" version="1.1" viewBox="0 0 432 288" width="432pt" xmlns="http://www.w3.org/2000/svg" xmlns:xlink="http://www.w3.org/1999/xlink">
 <metadata>
  <rdf:RDF xmlns:cc="http://creativecommons.org/ns#" xmlns:dc="http://purl.org/dc/elements/1.1/" xmlns:rdf="http://www.w3.org/1999/02/22-rdf-syntax-ns#">
   <cc:Work>
    <dc:type rdf:resource="http://purl.org/dc/dcmitype/StillImage"/>
    <dc:date>2021-05-11T17:45:22.308919</dc:date>
    <dc:format>image/svg+xml</dc:format>
    <dc:creator>
     <cc:Agent>
      <dc:title>Matplotlib v3.3.2, https://matplotlib.org/</dc:title>
     </cc:Agent>
    </dc:creator>
   </cc:Work>
  </rdf:RDF>
 </metadata>
 <defs>
  <style type="text/css">*{stroke-linecap:butt;stroke-linejoin:round;}</style>
 </defs>
 <g id="figure_1">
  <g id="patch_1">
   <path d="M 0 288 
L 432 288 
L 432 0 
L 0 0 
z
" style="fill:none;"/>
  </g>
  <g id="axes_1">
   <g id="matplotlib.axis_1"/>
   <g id="matplotlib.axis_2"/>
   <g id="PolyCollection_1">
    <defs>
     <path d="M 295.99893 -39.963325 
L 295.99893 -36 
L 301.966845 -36 
L 307.934759 -36 
L 313.902674 -36 
L 319.870588 -36 
L 325.838503 -36 
L 331.806417 -36 
L 337.774332 -36 
L 343.742246 -36 
L 349.71016 -36 
L 355.678075 -36 
L 361.645989 -36 
L 367.613904 -36 
L 373.581818 -36 
L 373.581818 -43.907946 
L 373.581818 -43.907946 
L 367.613904 -43.480443 
L 361.645989 -43.008976 
L 355.678075 -42.511846 
L 349.71016 -42.019529 
L 343.742246 -41.536323 
L 337.774332 -41.114139 
L 331.806417 -40.770177 
L 325.838503 -40.509388 
L 319.870588 -40.340095 
L 313.902674 -40.245882 
L 307.934759 -40.151157 
L 301.966845 -40.062185 
L 295.99893 -39.963325 
z
" id="m4fbe5f6d91" style="stroke:#7ea297;stroke-opacity:0.5;"/>
    </defs>
    <g clip-path="url(#p6bc28ed359)">
     <use style="fill:#7ea297;fill-opacity:0.5;stroke:#7ea297;stroke-opacity:0.5;" x="0" xlink:href="#m4fbe5f6d91" y="288"/>
    </g>
   </g>
   <g id="PolyCollection_2">
    <defs>
     <path d="M 69.218182 -36.036948 
L 69.218182 -36 
L 75.186096 -36 
L 81.154011 -36 
L 87.121925 -36 
L 93.08984 -36 
L 99.057754 -36 
L 105.025668 -36 
L 110.993583 -36 
L 116.961497 -36 
L 122.929412 -36 
L 128.897326 -36 
L 134.865241 -36 
L 140.833155 -36 
L 146.80107 -36 
L 152.768984 -36 
L 158.736898 -36 
L 164.704813 -36 
L 170.672727 -36 
L 176.640642 -36 
L 182.608556 -36 
L 188.576471 -36 
L 194.544385 -36 
L 200.512299 -36 
L 206.480214 -36 
L 212.448128 -36 
L 218.416043 -36 
L 224.383957 -36 
L 230.351872 -36 
L 236.319786 -36 
L 242.287701 -36 
L 248.255615 -36 
L 254.223529 -36 
L 260.191444 -36 
L 266.159358 -36 
L 272.127273 -36 
L 278.095187 -36 
L 284.063102 -36 
L 290.031016 -36 
L 295.99893 -36 
L 295.99893 -39.963325 
L 295.99893 -39.963325 
L 290.031016 -39.826811 
L 284.063102 -39.657995 
L 278.095187 -39.486534 
L 272.127273 -39.310053 
L 266.159358 -39.139342 
L 260.191444 -38.976307 
L 254.223529 -38.84295 
L 248.255615 -38.737786 
L 242.287701 -38.651722 
L 236.319786 -38.550327 
L 230.351872 -38.440594 
L 224.383957 -38.330489 
L 218.416043 -38.217966 
L 212.448128 -38.107243 
L 206.480214 -37.98631 
L 200.512299 -37.822608 
L 194.544385 -37.618945 
L 188.576471 -37.395811 
L 182.608556 -37.159969 
L 176.640642 -36.917413 
L 170.672727 -36.685012 
L 164.704813 -36.475202 
L 158.736898 -36.322228 
L 152.768984 -36.228849 
L 146.80107 -36.179288 
L 140.833155 -36.146253 
L 134.865241 -36.124291 
L 128.897326 -36.110756 
L 122.929412 -36.102434 
L 116.961497 -36.097509 
L 110.993583 -36.092529 
L 105.025668 -36.08637 
L 99.057754 -36.080211 
L 93.08984 -36.073996 
L 87.121925 -36.065881 
L 81.154011 -36.056348 
L 75.186096 -36.04632 
L 69.218182 -36.036948 
z
" id="m03c3dedd1c" style="stroke:#7ea297;stroke-opacity:0.3;"/>
    </defs>
    <g clip-path="url(#p6bc28ed359)">
     <use style="fill:#7ea297;fill-opacity:0.3;stroke:#7ea297;stroke-opacity:0.3;" x="0" xlink:href="#m03c3dedd1c" y="288"/>
    </g>
   </g>
   <g id="line2d_1">
    <path clip-path="url(#p6bc28ed359)" d="M 69.218182 251.963052 
L 75.186096 251.95368 
L 81.154011 251.943652 
L 87.121925 251.934119 
L 93.08984 251.926004 
L 99.057754 251.919789 
L 105.025668 251.91363 
L 110.993583 251.907471 
L 116.961497 251.902491 
L 122.929412 251.897566 
L 128.897326 251.889244 
L 134.865241 251.875709 
L 140.833155 251.853747 
L 146.80107 251.820712 
L 152.768984 251.771151 
L 158.736898 251.677772 
L 164.704813 251.524798 
L 170.672727 251.314988 
L 176.640642 251.082587 
L 182.608556 250.840031 
L 188.576471 250.604189 
L 194.544385 250.381055 
L 200.512299 250.177392 
L 206.480214 250.01369 
L 212.448128 249.892757 
L 218.416043 249.782034 
L 224.383957 249.669511 
L 230.351872 249.559406 
L 236.319786 249.449673 
L 242.287701 249.348278 
L 248.255615 249.262214 
L 254.223529 249.15705 
L 260.191444 249.023693 
L 266.159358 248.860658 
L 272.127273 248.689947 
L 278.095187 248.513466 
L 284.063102 248.342005 
L 290.031016 248.173189 
L 295.99893 248.036675 
L 301.966845 247.937815 
L 307.934759 247.848843 
L 313.902674 247.754118 
L 319.870588 247.659905 
L 325.838503 247.490612 
L 331.806417 247.229823 
L 337.774332 246.885861 
L 343.742246 246.463677 
L 349.71016 245.980471 
L 355.678075 245.488154 
L 361.645989 244.991024 
L 367.613904 244.519557 
L 373.581818 244.092054 
" style="fill:none;stroke:#60897e;stroke-linecap:square;stroke-width:2;"/>
   </g>
   <g id="line2d_2">
    <path clip-path="url(#p6bc28ed359)" d="M 295.99893 248.036675 
L 301.966845 247.937815 
L 307.934759 247.848843 
L 313.902674 247.754118 
L 319.870588 247.659905 
L 325.838503 247.490612 
L 331.806417 247.229823 
L 337.774332 246.885861 
L 343.742246 246.463677 
L 349.71016 245.980471 
L 355.678075 245.488154 
L 361.645989 244.991024 
L 367.613904 244.519557 
L 373.581818 244.092054 
" style="fill:none;stroke:#427165;stroke-linecap:square;stroke-width:2;"/>
   </g>
  </g>
 </g>
 <defs>
  <clipPath id="p6bc28ed359">
   <rect height="217.44" width="334.8" x="54" y="34.56"/>
  </clipPath>
 </defs>
</svg>
