<?xml version="1.0" encoding="utf-8" standalone="no"?>
<!DOCTYPE svg PUBLIC "-//W3C//DTD SVG 1.1//EN"
  "http://www.w3.org/Graphics/SVG/1.1/DTD/svg11.dtd">
<svg height="345.6pt" version="1.1" viewBox="0 0 460.8 345.6" width="460.8pt" xmlns="http://www.w3.org/2000/svg" xmlns:xlink="http://www.w3.org/1999/xlink">
 <metadata>
  <rdf:RDF xmlns:cc="http://creativecommons.org/ns#" xmlns:dc="http://purl.org/dc/elements/1.1/" xmlns:rdf="http://www.w3.org/1999/02/22-rdf-syntax-ns#">
   <cc:Work>
    <dc:type rdf:resource="http://purl.org/dc/dcmitype/StillImage"/>
    <dc:date>2021-05-19T13:25:24.412656</dc:date>
    <dc:format>image/svg+xml</dc:format>
    <dc:creator>
     <cc:Agent>
      <dc:title>Matplotlib v3.4.2, https://matplotlib.org/</dc:title>
     </cc:Agent>
    </dc:creator>
   </cc:Work>
  </rdf:RDF>
 </metadata>
 <defs>
  <style type="text/css">*{stroke-linecap:butt;stroke-linejoin:round;}</style>
 </defs>
 <g id="figure_1">
  <g id="patch_1">
   <path d="M 0 345.6 
L 460.8 345.6 
L 460.8 0 
L 0 0 
z
" style="fill:none;"/>
  </g>
  <g id="axes_1">
   <g id="matplotlib.axis_1"/>
   <g id="matplotlib.axis_2"/>
   <g id="PolyCollection_1">
    <defs>
     <path d="M 329.621157 -45.194 
L 329.621157 -38.016 
L 334.540165 -38.016 
L 339.459174 -38.016 
L 344.378182 -38.016 
L 349.29719 -38.016 
L 354.216198 -38.016 
L 359.135207 -38.016 
L 368.973223 -38.016 
L 373.892231 -38.016 
L 378.81124 -38.016 
L 383.730248 -38.016 
L 388.649256 -38.016 
L 393.568264 -38.016 
L 398.487273 -38.016 
L 398.487273 -49.736225 
L 398.487273 -49.736225 
L 393.568264 -49.136004 
L 388.649256 -48.600566 
L 383.730248 -48.097684 
L 378.81124 -47.598883 
L 373.892231 -47.203928 
L 368.973223 -46.873369 
L 359.135207 -46.578628 
L 354.216198 -46.396535 
L 349.29719 -46.193013 
L 344.378182 -45.980192 
L 339.459174 -45.723557 
L 334.540165 -45.463105 
L 329.621157 -45.194 
z
" id="m85e357e10d" style="stroke:#7ea297;stroke-opacity:0.5;"/>
    </defs>
    <g clip-path="url(#pad8bf76d37)">
     <use style="fill:#7ea297;fill-opacity:0.5;stroke:#7ea297;stroke-opacity:0.5;" x="0" xlink:href="#m85e357e10d" y="345.6"/>
    </g>
   </g>
   <g id="PolyCollection_2">
    <defs>
     <path d="M 73.832727 -38.101403 
L 73.832727 -38.016 
L 78.751736 -38.016 
L 83.670744 -38.016 
L 88.589752 -38.016 
L 93.50876 -38.016 
L 98.427769 -38.016 
L 103.346777 -38.016 
L 108.265785 -38.016 
L 113.184793 -38.016 
L 118.103802 -38.016 
L 123.02281 -38.016 
L 132.860826 -38.016 
L 137.779835 -38.016 
L 142.698843 -38.016 
L 147.617851 -38.016 
L 152.53686 -38.016 
L 157.455868 -38.016 
L 162.374876 -38.016 
L 167.293884 -38.016 
L 172.212893 -38.016 
L 177.131901 -38.016 
L 182.050909 -38.016 
L 186.969917 -38.016 
L 191.888926 -38.016 
L 196.807934 -38.016 
L 201.726942 -38.016 
L 206.64595 -38.016 
L 211.564959 -38.016 
L 216.483967 -38.016 
L 221.402975 -38.016 
L 226.321983 -38.016 
L 231.240992 -38.016 
L 241.079008 -38.016 
L 245.998017 -38.016 
L 250.917025 -38.016 
L 255.836033 -38.016 
L 260.755041 -38.016 
L 265.67405 -38.016 
L 270.593058 -38.016 
L 275.512066 -38.016 
L 280.431074 -38.016 
L 285.350083 -38.016 
L 290.269091 -38.016 
L 295.188099 -38.016 
L 300.107107 -38.016 
L 305.026116 -38.016 
L 309.945124 -38.016 
L 324.702149 -38.016 
L 329.621157 -38.016 
L 329.621157 -45.194 
L 329.621157 -45.194 
L 324.702149 -44.990839 
L 309.945124 -44.778559 
L 305.026116 -44.52123 
L 300.107107 -44.238196 
L 295.188099 -43.816825 
L 290.269091 -43.373621 
L 285.350083 -42.919529 
L 280.431074 -42.467039 
L 275.512066 -42.023624 
L 270.593058 -41.638543 
L 265.67405 -41.297791 
L 260.755041 -41.133919 
L 255.836033 -41.018546 
L 250.917025 -40.948946 
L 245.998017 -40.882019 
L 241.079008 -40.788442 
L 231.240992 -40.692766 
L 226.321983 -40.579628 
L 221.402975 -40.463135 
L 216.483967 -40.34535 
L 211.564959 -40.23198 
L 206.64595 -40.121447 
L 201.726942 -40.02671 
L 196.807934 -39.944079 
L 191.888926 -39.869291 
L 186.969917 -39.772476 
L 182.050909 -39.669137 
L 177.131901 -39.567642 
L 172.212893 -39.469333 
L 167.293884 -39.370259 
L 162.374876 -39.257743 
L 157.455868 -39.090981 
L 152.53686 -38.926433 
L 147.617851 -38.774456 
L 142.698843 -38.620773 
L 137.779835 -38.466225 
L 132.860826 -38.328055 
L 123.02281 -38.217546 
L 118.103802 -38.176929 
L 113.184793 -38.160153 
L 108.265785 -38.14866 
L 103.346777 -38.139469 
L 98.427769 -38.13189 
L 93.50876 -38.125193 
L 88.589752 -38.119057 
L 83.670744 -38.113618 
L 78.751736 -38.107485 
L 73.832727 -38.101403 
z
" id="mc57e7a919b" style="stroke:#7ea297;stroke-opacity:0.3;"/>
    </defs>
    <g clip-path="url(#pad8bf76d37)">
     <use style="fill:#7ea297;fill-opacity:0.3;stroke:#7ea297;stroke-opacity:0.3;" x="0" xlink:href="#mc57e7a919b" y="345.6"/>
    </g>
   </g>
   <g id="line2d_1">
    <path clip-path="url(#pad8bf76d37)" d="M 73.832727 307.498597 
L 78.751736 307.492515 
L 83.670744 307.486382 
L 88.589752 307.480943 
L 93.50876 307.474807 
L 98.427769 307.46811 
L 103.346777 307.460531 
L 108.265785 307.45134 
L 113.184793 307.439847 
L 118.103802 307.423071 
L 123.02281 307.382454 
L 132.860826 307.271945 
L 137.779835 307.133775 
L 142.698843 306.979227 
L 147.617851 306.825544 
L 152.53686 306.673567 
L 157.455868 306.509019 
L 162.374876 306.342257 
L 167.293884 306.229741 
L 172.212893 306.130667 
L 177.131901 306.032358 
L 182.050909 305.930863 
L 186.969917 305.827524 
L 191.888926 305.730709 
L 196.807934 305.655921 
L 201.726942 305.57329 
L 206.64595 305.478553 
L 211.564959 305.36802 
L 216.483967 305.25465 
L 221.402975 305.136865 
L 226.321983 305.020372 
L 231.240992 304.907234 
L 241.079008 304.811558 
L 245.998017 304.717981 
L 250.917025 304.651054 
L 255.836033 304.581454 
L 260.755041 304.466081 
L 265.67405 304.302209 
L 270.593058 303.961457 
L 275.512066 303.576376 
L 280.431074 303.132961 
L 285.350083 302.680471 
L 290.269091 302.226379 
L 295.188099 301.783175 
L 300.107107 301.361804 
L 305.026116 301.07877 
L 309.945124 300.821441 
L 324.702149 300.609161 
L 329.621157 300.406 
L 334.540165 300.136895 
L 339.459174 299.876443 
L 344.378182 299.619808 
L 349.29719 299.406987 
L 354.216198 299.203465 
L 359.135207 299.021372 
L 368.973223 298.726631 
L 373.892231 298.396072 
L 378.81124 298.001117 
L 383.730248 297.502316 
L 388.649256 296.999434 
L 393.568264 296.463996 
L 398.487273 295.863775 
" style="fill:none;stroke:#60897e;stroke-linecap:square;stroke-width:2;"/>
   </g>
   <g id="line2d_2">
    <path clip-path="url(#pad8bf76d37)" d="M 329.621157 300.406 
L 334.540165 300.136895 
L 339.459174 299.876443 
L 344.378182 299.619808 
L 349.29719 299.406987 
L 354.216198 299.203465 
L 359.135207 299.021372 
L 368.973223 298.726631 
L 373.892231 298.396072 
L 378.81124 298.001117 
L 383.730248 297.502316 
L 388.649256 296.999434 
L 393.568264 296.463996 
L 398.487273 295.863775 
" style="fill:none;stroke:#427165;stroke-linecap:square;stroke-width:2;"/>
   </g>
  </g>
 </g>
 <defs>
  <clipPath id="pad8bf76d37">
   <rect height="266.112" width="357.12" x="57.6" y="41.472"/>
  </clipPath>
 </defs>
</svg>
