<?xml version="1.0" encoding="utf-8" standalone="no"?>
<!DOCTYPE svg PUBLIC "-//W3C//DTD SVG 1.1//EN"
  "http://www.w3.org/Graphics/SVG/1.1/DTD/svg11.dtd">
<svg height="345.6pt" version="1.1" viewBox="0 0 460.8 345.6" width="460.8pt" xmlns="http://www.w3.org/2000/svg" xmlns:xlink="http://www.w3.org/1999/xlink">
 <metadata>
  <rdf:RDF xmlns:cc="http://creativecommons.org/ns#" xmlns:dc="http://purl.org/dc/elements/1.1/" xmlns:rdf="http://www.w3.org/1999/02/22-rdf-syntax-ns#">
   <cc:Work>
    <dc:type rdf:resource="http://purl.org/dc/dcmitype/StillImage"/>
    <dc:date>2021-05-15T11:19:05.223158</dc:date>
    <dc:format>image/svg+xml</dc:format>
    <dc:creator>
     <cc:Agent>
      <dc:title>Matplotlib v3.4.2, https://matplotlib.org/</dc:title>
     </cc:Agent>
    </dc:creator>
   </cc:Work>
  </rdf:RDF>
 </metadata>
 <defs>
  <style type="text/css">*{stroke-linecap:butt;stroke-linejoin:round;}</style>
 </defs>
 <g id="figure_1">
  <g id="patch_1">
   <path d="M 0 345.6 
L 460.8 345.6 
L 460.8 0 
L 0 0 
z
" style="fill:none;"/>
  </g>
  <g id="axes_1">
   <g id="matplotlib.axis_1"/>
   <g id="matplotlib.axis_2"/>
   <g id="PolyCollection_1">
    <defs>
     <path d="M 314.705455 -40.446168 
L 314.705455 -38.016 
L 319.941818 -38.016 
L 325.178182 -38.016 
L 340.887273 -38.016 
L 346.123636 -38.016 
L 351.36 -38.016 
L 356.596364 -38.016 
L 361.832727 -38.016 
L 367.069091 -38.016 
L 372.305455 -38.016 
L 377.541818 -38.016 
L 388.014545 -38.016 
L 393.250909 -38.016 
L 398.487273 -38.016 
L 398.487273 -42.029759 
L 398.487273 -42.029759 
L 393.250909 -41.922295 
L 388.014545 -41.818935 
L 377.541818 -41.717836 
L 372.305455 -41.62577 
L 367.069091 -41.490596 
L 361.832727 -41.339328 
L 356.596364 -41.181953 
L 351.36 -41.039476 
L 346.123636 -40.885801 
L 340.887273 -40.762017 
L 325.178182 -40.645052 
L 319.941818 -40.546927 
L 314.705455 -40.446168 
z
" id="m770108f95f" style="stroke:#7ea297;stroke-opacity:0.5;"/>
    </defs>
    <g clip-path="url(#pa2c3b577ef)">
     <use style="fill:#7ea297;fill-opacity:0.5;stroke:#7ea297;stroke-opacity:0.5;" x="0" xlink:href="#m770108f95f" y="345.6"/>
    </g>
   </g>
   <g id="PolyCollection_2">
    <defs>
     <path d="M 73.832727 -38.276218 
L 73.832727 -38.016 
L 79.069091 -38.016 
L 84.305455 -38.016 
L 89.541818 -38.016 
L 94.778182 -38.016 
L 100.014545 -38.016 
L 105.250909 -38.016 
L 110.487273 -38.016 
L 115.723636 -38.016 
L 120.96 -38.016 
L 126.196364 -38.016 
L 136.669091 -38.016 
L 141.905455 -38.016 
L 147.141818 -38.016 
L 152.378182 -38.016 
L 157.614545 -38.016 
L 162.850909 -38.016 
L 168.087273 -38.016 
L 173.323636 -38.016 
L 178.56 -38.016 
L 183.796364 -38.016 
L 189.032727 -38.016 
L 194.269091 -38.016 
L 199.505455 -38.016 
L 204.741818 -38.016 
L 209.978182 -38.016 
L 215.214545 -38.016 
L 220.450909 -38.016 
L 225.687273 -38.016 
L 230.923636 -38.016 
L 236.16 -38.016 
L 241.396364 -38.016 
L 251.869091 -38.016 
L 257.105455 -38.016 
L 262.341818 -38.016 
L 267.578182 -38.016 
L 272.814545 -38.016 
L 278.050909 -38.016 
L 283.287273 -38.016 
L 288.523636 -38.016 
L 293.76 -38.016 
L 298.996364 -38.016 
L 304.232727 -38.016 
L 309.469091 -38.016 
L 314.705455 -38.016 
L 314.705455 -40.446168 
L 314.705455 -40.446168 
L 309.469091 -40.352099 
L 304.232727 -40.256769 
L 298.996364 -40.163814 
L 293.76 -40.071215 
L 288.523636 -39.978066 
L 283.287273 -39.895065 
L 278.050909 -39.832002 
L 272.814545 -39.780152 
L 267.578182 -39.735864 
L 262.341818 -39.711094 
L 257.105455 -39.682899 
L 251.869091 -39.618156 
L 241.396364 -39.543281 
L 236.16 -39.468035 
L 230.923636 -39.3914 
L 225.687273 -39.306492 
L 220.450909 -39.221874 
L 215.214545 -39.140262 
L 209.978182 -39.08342 
L 204.741818 -39.048843 
L 199.505455 -39.006138 
L 194.269091 -38.946274 
L 189.032727 -38.88166 
L 183.796364 -38.818597 
L 178.56 -38.756762 
L 173.323636 -38.699305 
L 168.087273 -38.642301 
L 162.850909 -38.588561 
L 157.614545 -38.547828 
L 152.378182 -38.521959 
L 147.141818 -38.496091 
L 141.905455 -38.470077 
L 136.669091 -38.452643 
L 126.196364 -38.439895 
L 120.96 -38.435161 
L 115.723636 -38.431153 
L 110.487273 -38.424173 
L 105.250909 -38.414818 
L 100.014545 -38.39496 
L 94.778182 -38.375426 
L 89.541818 -38.353807 
L 84.305455 -38.323608 
L 79.069091 -38.298386 
L 73.832727 -38.276218 
z
" id="md23a869ccb" style="stroke:#7ea297;stroke-opacity:0.3;"/>
    </defs>
    <g clip-path="url(#pa2c3b577ef)">
     <use style="fill:#7ea297;fill-opacity:0.3;stroke:#7ea297;stroke-opacity:0.3;" x="0" xlink:href="#md23a869ccb" y="345.6"/>
    </g>
   </g>
   <g id="line2d_1">
    <path clip-path="url(#pa2c3b577ef)" d="M 73.832727 307.323782 
L 79.069091 307.301614 
L 84.305455 307.276392 
L 89.541818 307.246193 
L 94.778182 307.224574 
L 100.014545 307.20504 
L 105.250909 307.185182 
L 110.487273 307.175827 
L 115.723636 307.168847 
L 120.96 307.164839 
L 126.196364 307.160105 
L 136.669091 307.147357 
L 141.905455 307.129923 
L 147.141818 307.103909 
L 152.378182 307.078041 
L 157.614545 307.052172 
L 162.850909 307.011439 
L 168.087273 306.957699 
L 173.323636 306.900695 
L 178.56 306.843238 
L 183.796364 306.781403 
L 189.032727 306.71834 
L 194.269091 306.653726 
L 199.505455 306.593862 
L 204.741818 306.551157 
L 209.978182 306.51658 
L 215.214545 306.459738 
L 220.450909 306.378126 
L 225.687273 306.293508 
L 230.923636 306.2086 
L 236.16 306.131965 
L 241.396364 306.056719 
L 251.869091 305.981844 
L 257.105455 305.917101 
L 262.341818 305.888906 
L 267.578182 305.864136 
L 272.814545 305.819848 
L 278.050909 305.767998 
L 283.287273 305.704935 
L 288.523636 305.621934 
L 293.76 305.528785 
L 298.996364 305.436186 
L 304.232727 305.343231 
L 309.469091 305.247901 
L 314.705455 305.153832 
L 319.941818 305.053073 
L 325.178182 304.954948 
L 340.887273 304.837983 
L 346.123636 304.714199 
L 351.36 304.560524 
L 356.596364 304.418047 
L 361.832727 304.260672 
L 367.069091 304.109404 
L 372.305455 303.97423 
L 377.541818 303.882164 
L 388.014545 303.781065 
L 393.250909 303.677705 
L 398.487273 303.570241 
" style="fill:none;stroke:#60897e;stroke-linecap:square;stroke-width:2;"/>
   </g>
   <g id="line2d_2">
    <path clip-path="url(#pa2c3b577ef)" d="M 314.705455 305.153832 
L 319.941818 305.053073 
L 325.178182 304.954948 
L 340.887273 304.837983 
L 346.123636 304.714199 
L 351.36 304.560524 
L 356.596364 304.418047 
L 361.832727 304.260672 
L 367.069091 304.109404 
L 372.305455 303.97423 
L 377.541818 303.882164 
L 388.014545 303.781065 
L 393.250909 303.677705 
L 398.487273 303.570241 
" style="fill:none;stroke:#427165;stroke-linecap:square;stroke-width:2;"/>
   </g>
  </g>
 </g>
 <defs>
  <clipPath id="pa2c3b577ef">
   <rect height="266.112" width="357.12" x="57.6" y="41.472"/>
  </clipPath>
 </defs>
</svg>
