<?xml version="1.0" encoding="utf-8" standalone="no"?>
<!DOCTYPE svg PUBLIC "-//W3C//DTD SVG 1.1//EN"
  "http://www.w3.org/Graphics/SVG/1.1/DTD/svg11.dtd">
<!-- Created with matplotlib (https://matplotlib.org/) -->
<svg height="288pt" version="1.1" viewBox="0 0 432 288" width="432pt" xmlns="http://www.w3.org/2000/svg" xmlns:xlink="http://www.w3.org/1999/xlink">
 <metadata>
  <rdf:RDF xmlns:cc="http://creativecommons.org/ns#" xmlns:dc="http://purl.org/dc/elements/1.1/" xmlns:rdf="http://www.w3.org/1999/02/22-rdf-syntax-ns#">
   <cc:Work>
    <dc:type rdf:resource="http://purl.org/dc/dcmitype/StillImage"/>
    <dc:date>2021-05-14T21:42:58.232288</dc:date>
    <dc:format>image/svg+xml</dc:format>
    <dc:creator>
     <cc:Agent>
      <dc:title>Matplotlib v3.3.2, https://matplotlib.org/</dc:title>
     </cc:Agent>
    </dc:creator>
   </cc:Work>
  </rdf:RDF>
 </metadata>
 <defs>
  <style type="text/css">*{stroke-linecap:butt;stroke-linejoin:round;}</style>
 </defs>
 <g id="figure_1">
  <g id="patch_1">
   <path d="M 0 288 
L 432 288 
L 432 0 
L 0 0 
z
" style="fill:none;"/>
  </g>
  <g id="axes_1">
   <g id="matplotlib.axis_1"/>
   <g id="matplotlib.axis_2"/>
   <g id="PolyCollection_1">
    <defs>
     <path d="M 234.444156 -36.5253 
L 234.444156 -36 
L 243.14026 -36 
L 251.836364 -36 
L 277.924675 -36 
L 286.620779 -36 
L 295.316883 -36 
L 304.012987 -36 
L 312.709091 -36 
L 321.405195 -36 
L 330.101299 -36 
L 338.797403 -36 
L 356.18961 -36 
L 364.885714 -36 
L 373.581818 -36 
L 373.581818 -37.070226 
L 373.581818 -37.070226 
L 364.885714 -36.980271 
L 356.18961 -36.925206 
L 338.797403 -36.877555 
L 330.101299 -36.837337 
L 321.405195 -36.795639 
L 312.709091 -36.749031 
L 304.012987 -36.730449 
L 295.316883 -36.712624 
L 286.620779 -36.689927 
L 277.924675 -36.668993 
L 251.836364 -36.647983 
L 243.14026 -36.601527 
L 234.444156 -36.5253 
z
" id="m650458ce84" style="stroke:#7ea297;stroke-opacity:0.5;"/>
    </defs>
    <g clip-path="url(#p5ff778fab7)">
     <use style="fill:#7ea297;fill-opacity:0.5;stroke:#7ea297;stroke-opacity:0.5;" x="0" xlink:href="#m650458ce84" y="288"/>
    </g>
   </g>
   <g id="PolyCollection_2">
    <defs>
     <path d="M 69.218182 -36.026812 
L 69.218182 -36 
L 77.914286 -36 
L 86.61039 -36 
L 95.306494 -36 
L 104.002597 -36 
L 112.698701 -36 
L 130.090909 -36 
L 138.787013 -36 
L 147.483117 -36 
L 156.179221 -36 
L 164.875325 -36 
L 173.571429 -36 
L 182.267532 -36 
L 190.963636 -36 
L 199.65974 -36 
L 208.355844 -36 
L 217.051948 -36 
L 225.748052 -36 
L 234.444156 -36 
L 234.444156 -36.5253 
L 234.444156 -36.5253 
L 225.748052 -36.449661 
L 217.051948 -36.376829 
L 208.355844 -36.308908 
L 199.65974 -36.239337 
L 190.963636 -36.169841 
L 182.267532 -36.127291 
L 173.571429 -36.11946 
L 164.875325 -36.11946 
L 156.179221 -36.11946 
L 147.483117 -36.11946 
L 138.787013 -36.11946 
L 130.090909 -36.118038 
L 112.698701 -36.110908 
L 104.002597 -36.095075 
L 95.306494 -36.078009 
L 86.61039 -36.060943 
L 77.914286 -36.043878 
L 69.218182 -36.026812 
z
" id="mcb9b2cf6a9" style="stroke:#7ea297;stroke-opacity:0.3;"/>
    </defs>
    <g clip-path="url(#p5ff778fab7)">
     <use style="fill:#7ea297;fill-opacity:0.3;stroke:#7ea297;stroke-opacity:0.3;" x="0" xlink:href="#mcb9b2cf6a9" y="288"/>
    </g>
   </g>
   <g id="line2d_1">
    <path clip-path="url(#p5ff778fab7)" d="M 69.218182 251.973188 
L 77.914286 251.956122 
L 86.61039 251.939057 
L 95.306494 251.921991 
L 104.002597 251.904925 
L 112.698701 251.889092 
L 130.090909 251.881962 
L 138.787013 251.88054 
L 147.483117 251.88054 
L 156.179221 251.88054 
L 164.875325 251.88054 
L 173.571429 251.88054 
L 182.267532 251.872709 
L 190.963636 251.830159 
L 199.65974 251.760663 
L 208.355844 251.691092 
L 217.051948 251.623171 
L 225.748052 251.550339 
L 234.444156 251.4747 
L 243.14026 251.398473 
L 251.836364 251.352017 
L 277.924675 251.331007 
L 286.620779 251.310073 
L 295.316883 251.287376 
L 304.012987 251.269551 
L 312.709091 251.250969 
L 321.405195 251.204361 
L 330.101299 251.162663 
L 338.797403 251.122445 
L 356.18961 251.074794 
L 364.885714 251.019729 
L 373.581818 250.929774 
" style="fill:none;stroke:#60897e;stroke-linecap:square;stroke-width:2;"/>
   </g>
   <g id="line2d_2">
    <path clip-path="url(#p5ff778fab7)" d="M 234.444156 251.4747 
L 243.14026 251.398473 
L 251.836364 251.352017 
L 277.924675 251.331007 
L 286.620779 251.310073 
L 295.316883 251.287376 
L 304.012987 251.269551 
L 312.709091 251.250969 
L 321.405195 251.204361 
L 330.101299 251.162663 
L 338.797403 251.122445 
L 356.18961 251.074794 
L 364.885714 251.019729 
L 373.581818 250.929774 
" style="fill:none;stroke:#427165;stroke-linecap:square;stroke-width:2;"/>
   </g>
  </g>
 </g>
 <defs>
  <clipPath id="p5ff778fab7">
   <rect height="217.44" width="334.8" x="54" y="34.56"/>
  </clipPath>
 </defs>
</svg>
