<?xml version="1.0" encoding="utf-8" standalone="no"?>
<!DOCTYPE svg PUBLIC "-//W3C//DTD SVG 1.1//EN"
  "http://www.w3.org/Graphics/SVG/1.1/DTD/svg11.dtd">
<svg height="345.6pt" version="1.1" viewBox="0 0 460.8 345.6" width="460.8pt" xmlns="http://www.w3.org/2000/svg" xmlns:xlink="http://www.w3.org/1999/xlink">
 <metadata>
  <rdf:RDF xmlns:cc="http://creativecommons.org/ns#" xmlns:dc="http://purl.org/dc/elements/1.1/" xmlns:rdf="http://www.w3.org/1999/02/22-rdf-syntax-ns#">
   <cc:Work>
    <dc:type rdf:resource="http://purl.org/dc/dcmitype/StillImage"/>
    <dc:date>2021-05-20T13:25:48.696535</dc:date>
    <dc:format>image/svg+xml</dc:format>
    <dc:creator>
     <cc:Agent>
      <dc:title>Matplotlib v3.4.2, https://matplotlib.org/</dc:title>
     </cc:Agent>
    </dc:creator>
   </cc:Work>
  </rdf:RDF>
 </metadata>
 <defs>
  <style type="text/css">*{stroke-linecap:butt;stroke-linejoin:round;}</style>
 </defs>
 <g id="figure_1">
  <g id="patch_1">
   <path d="M 0 345.6 
L 460.8 345.6 
L 460.8 0 
L 0 0 
z
" style="fill:none;"/>
  </g>
  <g id="axes_1">
   <g id="matplotlib.axis_1"/>
   <g id="matplotlib.axis_2"/>
   <g id="PolyCollection_1">
    <defs>
     <path d="M 284.858182 -38.888139 
L 284.858182 -38.016 
L 292.974545 -38.016 
L 301.090909 -38.016 
L 309.207273 -38.016 
L 317.323636 -38.016 
L 325.44 -38.016 
L 341.672727 -38.016 
L 349.789091 -38.016 
L 357.905455 -38.016 
L 366.021818 -38.016 
L 374.138182 -38.016 
L 382.254545 -38.016 
L 390.370909 -38.016 
L 398.487273 -38.016 
L 398.487273 -39.823353 
L 398.487273 -39.823353 
L 390.370909 -39.735239 
L 382.254545 -39.640534 
L 374.138182 -39.550516 
L 366.021818 -39.460453 
L 357.905455 -39.325787 
L 349.789091 -39.215696 
L 341.672727 -39.148305 
L 325.44 -39.089987 
L 317.323636 -39.040767 
L 309.207273 -38.989736 
L 301.090909 -38.932695 
L 292.974545 -38.909953 
L 284.858182 -38.888139 
z
" id="m99bd418ae4" style="stroke:#7ea297;stroke-opacity:0.5;"/>
    </defs>
    <g clip-path="url(#p4a4463fe8b)">
     <use style="fill:#7ea297;fill-opacity:0.5;stroke:#7ea297;stroke-opacity:0.5;" x="0" xlink:href="#m99bd418ae4" y="345.6"/>
    </g>
   </g>
   <g id="PolyCollection_2">
    <defs>
     <path d="M 73.832727 -38.048814 
L 73.832727 -38.016 
L 81.949091 -38.016 
L 90.065455 -38.016 
L 98.181818 -38.016 
L 106.298182 -38.016 
L 114.414545 -38.016 
L 130.647273 -38.016 
L 138.763636 -38.016 
L 146.88 -38.016 
L 154.996364 -38.016 
L 163.112727 -38.016 
L 171.229091 -38.016 
L 179.345455 -38.016 
L 187.461818 -38.016 
L 195.578182 -38.016 
L 203.694545 -38.016 
L 211.810909 -38.016 
L 219.927273 -38.016 
L 228.043636 -38.016 
L 236.16 -38.016 
L 244.276364 -38.016 
L 268.625455 -38.016 
L 276.741818 -38.016 
L 284.858182 -38.016 
L 284.858182 -38.888139 
L 284.858182 -38.888139 
L 276.741818 -38.860361 
L 268.625455 -38.834741 
L 244.276364 -38.809029 
L 236.16 -38.752173 
L 228.043636 -38.658884 
L 219.927273 -38.566314 
L 211.810909 -38.477179 
L 203.694545 -38.394054 
L 195.578182 -38.30891 
L 187.461818 -38.223859 
L 179.345455 -38.171784 
L 171.229091 -38.1622 
L 163.112727 -38.1622 
L 154.996364 -38.1622 
L 146.88 -38.1622 
L 138.763636 -38.1622 
L 130.647273 -38.160459 
L 114.414545 -38.151734 
L 106.298182 -38.132356 
L 98.181818 -38.111471 
L 90.065455 -38.090585 
L 81.949091 -38.069699 
L 73.832727 -38.048814 
z
" id="mf0f009ecfd" style="stroke:#7ea297;stroke-opacity:0.3;"/>
    </defs>
    <g clip-path="url(#p4a4463fe8b)">
     <use style="fill:#7ea297;fill-opacity:0.3;stroke:#7ea297;stroke-opacity:0.3;" x="0" xlink:href="#mf0f009ecfd" y="345.6"/>
    </g>
   </g>
   <g id="line2d_1">
    <path clip-path="url(#p4a4463fe8b)" d="M 73.832727 307.551186 
L 81.949091 307.530301 
L 90.065455 307.509415 
L 98.181818 307.488529 
L 106.298182 307.467644 
L 114.414545 307.448266 
L 130.647273 307.439541 
L 138.763636 307.4378 
L 146.88 307.4378 
L 154.996364 307.4378 
L 163.112727 307.4378 
L 171.229091 307.4378 
L 179.345455 307.428216 
L 187.461818 307.376141 
L 195.578182 307.29109 
L 203.694545 307.205946 
L 211.810909 307.122821 
L 219.927273 307.033686 
L 228.043636 306.941116 
L 236.16 306.847827 
L 244.276364 306.790971 
L 268.625455 306.765259 
L 276.741818 306.739639 
L 284.858182 306.711861 
L 292.974545 306.690047 
L 301.090909 306.667305 
L 309.207273 306.610264 
L 317.323636 306.559233 
L 325.44 306.510013 
L 341.672727 306.451695 
L 349.789091 306.384304 
L 357.905455 306.274213 
L 366.021818 306.139547 
L 374.138182 306.049484 
L 382.254545 305.959466 
L 390.370909 305.864761 
L 398.487273 305.776647 
" style="fill:none;stroke:#60897e;stroke-linecap:square;stroke-width:2;"/>
   </g>
   <g id="line2d_2">
    <path clip-path="url(#p4a4463fe8b)" d="M 284.858182 306.711861 
L 292.974545 306.690047 
L 301.090909 306.667305 
L 309.207273 306.610264 
L 317.323636 306.559233 
L 325.44 306.510013 
L 341.672727 306.451695 
L 349.789091 306.384304 
L 357.905455 306.274213 
L 366.021818 306.139547 
L 374.138182 306.049484 
L 382.254545 305.959466 
L 390.370909 305.864761 
L 398.487273 305.776647 
" style="fill:none;stroke:#427165;stroke-linecap:square;stroke-width:2;"/>
   </g>
  </g>
 </g>
 <defs>
  <clipPath id="p4a4463fe8b">
   <rect height="266.112" width="357.12" x="57.6" y="41.472"/>
  </clipPath>
 </defs>
</svg>
