<?xml version="1.0" encoding="utf-8" standalone="no"?>
<!DOCTYPE svg PUBLIC "-//W3C//DTD SVG 1.1//EN"
  "http://www.w3.org/Graphics/SVG/1.1/DTD/svg11.dtd">
<svg height="345.6pt" version="1.1" viewBox="0 0 460.8 345.6" width="460.8pt" xmlns="http://www.w3.org/2000/svg" xmlns:xlink="http://www.w3.org/1999/xlink">
 <metadata>
  <rdf:RDF xmlns:cc="http://creativecommons.org/ns#" xmlns:dc="http://purl.org/dc/elements/1.1/" xmlns:rdf="http://www.w3.org/1999/02/22-rdf-syntax-ns#">
   <cc:Work>
    <dc:type rdf:resource="http://purl.org/dc/dcmitype/StillImage"/>
    <dc:date>2021-05-15T11:19:06.975994</dc:date>
    <dc:format>image/svg+xml</dc:format>
    <dc:creator>
     <cc:Agent>
      <dc:title>Matplotlib v3.4.2, https://matplotlib.org/</dc:title>
     </cc:Agent>
    </dc:creator>
   </cc:Work>
  </rdf:RDF>
 </metadata>
 <defs>
  <style type="text/css">*{stroke-linecap:butt;stroke-linejoin:round;}</style>
 </defs>
 <g id="figure_1">
  <g id="patch_1">
   <path d="M 0 345.6 
L 460.8 345.6 
L 460.8 0 
L 0 0 
z
" style="fill:none;"/>
  </g>
  <g id="axes_1">
   <g id="matplotlib.axis_1"/>
   <g id="matplotlib.axis_2"/>
   <g id="PolyCollection_1">
    <defs>
     <path d="M 250.073766 -38.658884 
L 250.073766 -38.016 
L 259.34961 -38.016 
L 268.625455 -38.016 
L 296.452987 -38.016 
L 305.728831 -38.016 
L 315.004675 -38.016 
L 324.280519 -38.016 
L 333.556364 -38.016 
L 342.832208 -38.016 
L 352.108052 -38.016 
L 361.383896 -38.016 
L 379.935584 -38.016 
L 389.211429 -38.016 
L 398.487273 -38.016 
L 398.487273 -39.325787 
L 398.487273 -39.325787 
L 389.211429 -39.215696 
L 379.935584 -39.148305 
L 361.383896 -39.089987 
L 352.108052 -39.040767 
L 342.832208 -38.989736 
L 333.556364 -38.932695 
L 324.280519 -38.909953 
L 315.004675 -38.888139 
L 305.728831 -38.860361 
L 296.452987 -38.834741 
L 268.625455 -38.809029 
L 259.34961 -38.752173 
L 250.073766 -38.658884 
z
" id="mddcc5021dc" style="stroke:#7ea297;stroke-opacity:0.5;"/>
    </defs>
    <g clip-path="url(#p58184e2464)">
     <use style="fill:#7ea297;fill-opacity:0.5;stroke:#7ea297;stroke-opacity:0.5;" x="0" xlink:href="#mddcc5021dc" y="345.6"/>
    </g>
   </g>
   <g id="PolyCollection_2">
    <defs>
     <path d="M 73.832727 -38.048814 
L 73.832727 -38.016 
L 83.108571 -38.016 
L 92.384416 -38.016 
L 101.66026 -38.016 
L 110.936104 -38.016 
L 120.211948 -38.016 
L 138.763636 -38.016 
L 148.039481 -38.016 
L 157.315325 -38.016 
L 166.591169 -38.016 
L 175.867013 -38.016 
L 185.142857 -38.016 
L 194.418701 -38.016 
L 203.694545 -38.016 
L 212.97039 -38.016 
L 222.246234 -38.016 
L 231.522078 -38.016 
L 240.797922 -38.016 
L 250.073766 -38.016 
L 250.073766 -38.658884 
L 250.073766 -38.658884 
L 240.797922 -38.566314 
L 231.522078 -38.477179 
L 222.246234 -38.394054 
L 212.97039 -38.30891 
L 203.694545 -38.223859 
L 194.418701 -38.171784 
L 185.142857 -38.1622 
L 175.867013 -38.1622 
L 166.591169 -38.1622 
L 157.315325 -38.1622 
L 148.039481 -38.1622 
L 138.763636 -38.160459 
L 120.211948 -38.151734 
L 110.936104 -38.132356 
L 101.66026 -38.111471 
L 92.384416 -38.090585 
L 83.108571 -38.069699 
L 73.832727 -38.048814 
z
" id="m6d58389b3a" style="stroke:#7ea297;stroke-opacity:0.3;"/>
    </defs>
    <g clip-path="url(#p58184e2464)">
     <use style="fill:#7ea297;fill-opacity:0.3;stroke:#7ea297;stroke-opacity:0.3;" x="0" xlink:href="#m6d58389b3a" y="345.6"/>
    </g>
   </g>
   <g id="line2d_1">
    <path clip-path="url(#p58184e2464)" d="M 73.832727 307.551186 
L 83.108571 307.530301 
L 92.384416 307.509415 
L 101.66026 307.488529 
L 110.936104 307.467644 
L 120.211948 307.448266 
L 138.763636 307.439541 
L 148.039481 307.4378 
L 157.315325 307.4378 
L 166.591169 307.4378 
L 175.867013 307.4378 
L 185.142857 307.4378 
L 194.418701 307.428216 
L 203.694545 307.376141 
L 212.97039 307.29109 
L 222.246234 307.205946 
L 231.522078 307.122821 
L 240.797922 307.033686 
L 250.073766 306.941116 
L 259.34961 306.847827 
L 268.625455 306.790971 
L 296.452987 306.765259 
L 305.728831 306.739639 
L 315.004675 306.711861 
L 324.280519 306.690047 
L 333.556364 306.667305 
L 342.832208 306.610264 
L 352.108052 306.559233 
L 361.383896 306.510013 
L 379.935584 306.451695 
L 389.211429 306.384304 
L 398.487273 306.274213 
" style="fill:none;stroke:#60897e;stroke-linecap:square;stroke-width:2;"/>
   </g>
   <g id="line2d_2">
    <path clip-path="url(#p58184e2464)" d="M 250.073766 306.941116 
L 259.34961 306.847827 
L 268.625455 306.790971 
L 296.452987 306.765259 
L 305.728831 306.739639 
L 315.004675 306.711861 
L 324.280519 306.690047 
L 333.556364 306.667305 
L 342.832208 306.610264 
L 352.108052 306.559233 
L 361.383896 306.510013 
L 379.935584 306.451695 
L 389.211429 306.384304 
L 398.487273 306.274213 
" style="fill:none;stroke:#427165;stroke-linecap:square;stroke-width:2;"/>
   </g>
  </g>
 </g>
 <defs>
  <clipPath id="p58184e2464">
   <rect height="266.112" width="357.12" x="57.6" y="41.472"/>
  </clipPath>
 </defs>
</svg>
