<?xml version="1.0" encoding="utf-8" standalone="no"?>
<!DOCTYPE svg PUBLIC "-//W3C//DTD SVG 1.1//EN"
  "http://www.w3.org/Graphics/SVG/1.1/DTD/svg11.dtd">
<!-- Created with matplotlib (https://matplotlib.org/) -->
<svg height="288pt" version="1.1" viewBox="0 0 432 288" width="432pt" xmlns="http://www.w3.org/2000/svg" xmlns:xlink="http://www.w3.org/1999/xlink">
 <metadata>
  <rdf:RDF xmlns:cc="http://creativecommons.org/ns#" xmlns:dc="http://purl.org/dc/elements/1.1/" xmlns:rdf="http://www.w3.org/1999/02/22-rdf-syntax-ns#">
   <cc:Work>
    <dc:type rdf:resource="http://purl.org/dc/dcmitype/StillImage"/>
    <dc:date>2021-05-14T21:42:57.475112</dc:date>
    <dc:format>image/svg+xml</dc:format>
    <dc:creator>
     <cc:Agent>
      <dc:title>Matplotlib v3.3.2, https://matplotlib.org/</dc:title>
     </cc:Agent>
    </dc:creator>
   </cc:Work>
  </rdf:RDF>
 </metadata>
 <defs>
  <style type="text/css">*{stroke-linecap:butt;stroke-linejoin:round;}</style>
 </defs>
 <g id="figure_1">
  <g id="patch_1">
   <path d="M 0 288 
L 432 288 
L 432 0 
L 0 0 
z
" style="fill:none;"/>
  </g>
  <g id="axes_1">
   <g id="matplotlib.axis_1"/>
   <g id="matplotlib.axis_2"/>
   <g id="PolyCollection_1">
    <defs>
     <path d="M 234.444156 -37.177896 
L 234.444156 -36 
L 243.14026 -36 
L 251.836364 -36 
L 277.924675 -36 
L 286.620779 -36 
L 295.316883 -36 
L 304.012987 -36 
L 312.709091 -36 
L 321.405195 -36 
L 330.101299 -36 
L 338.797403 -36 
L 356.18961 -36 
L 364.885714 -36 
L 373.581818 -36 
L 373.581818 -37.539924 
L 373.581818 -37.539924 
L 364.885714 -37.447887 
L 356.18961 -37.361858 
L 338.797403 -37.281333 
L 330.101299 -37.220854 
L 321.405195 -37.160264 
L 312.709091 -37.106187 
L 304.012987 -37.287285 
L 295.316883 -37.277458 
L 286.620779 -37.269147 
L 277.924675 -37.265553 
L 251.836364 -37.261959 
L 243.14026 -37.230176 
L 234.444156 -37.177896 
z
" id="mfca963c5e7" style="stroke:#7ea297;stroke-opacity:0.5;"/>
    </defs>
    <g clip-path="url(#pa3382cbf2e)">
     <use style="fill:#7ea297;fill-opacity:0.5;stroke:#7ea297;stroke-opacity:0.5;" x="0" xlink:href="#mfca963c5e7" y="288"/>
    </g>
   </g>
   <g id="PolyCollection_2">
    <defs>
     <path d="M 69.218182 -36.012803 
L 69.218182 -36 
L 77.914286 -36 
L 86.61039 -36 
L 95.306494 -36 
L 104.002597 -36 
L 112.698701 -36 
L 130.090909 -36 
L 138.787013 -36 
L 147.483117 -36 
L 156.179221 -36 
L 164.875325 -36 
L 173.571429 -36 
L 182.267532 -36 
L 190.963636 -36 
L 199.65974 -36 
L 208.355844 -36 
L 217.051948 -36 
L 225.748052 -36 
L 234.444156 -36 
L 234.444156 -37.177896 
L 234.444156 -37.177896 
L 225.748052 -37.102256 
L 217.051948 -37.015891 
L 208.355844 -36.924696 
L 199.65974 -36.829795 
L 190.963636 -36.734894 
L 182.267532 -36.626122 
L 173.571429 -36.538971 
L 164.875325 -36.475965 
L 156.179221 -36.423517 
L 147.483117 -36.378818 
L 138.787013 -36.326033 
L 130.090909 -36.251404 
L 112.698701 -36.211759 
L 104.002597 -36.169306 
L 95.306494 -36.126853 
L 86.61039 -36.084569 
L 77.914286 -36.044643 
L 69.218182 -36.012803 
z
" id="m8e6748b544" style="stroke:#7ea297;stroke-opacity:0.3;"/>
    </defs>
    <g clip-path="url(#pa3382cbf2e)">
     <use style="fill:#7ea297;fill-opacity:0.3;stroke:#7ea297;stroke-opacity:0.3;" x="0" xlink:href="#m8e6748b544" y="288"/>
    </g>
   </g>
   <g id="line2d_1">
    <path clip-path="url(#pa3382cbf2e)" d="M 69.218182 251.987197 
L 77.914286 251.955357 
L 86.61039 251.915431 
L 95.306494 251.873147 
L 104.002597 251.830694 
L 112.698701 251.788241 
L 130.090909 251.748596 
L 138.787013 251.673967 
L 147.483117 251.621182 
L 156.179221 251.576483 
L 164.875325 251.524035 
L 173.571429 251.461029 
L 182.267532 251.373878 
L 190.963636 251.265106 
L 199.65974 251.170205 
L 208.355844 251.075304 
L 217.051948 250.984109 
L 225.748052 250.897744 
L 234.444156 250.822104 
L 243.14026 250.769824 
L 251.836364 250.738041 
L 277.924675 250.734447 
L 286.620779 250.730853 
L 295.316883 250.722542 
L 304.012987 250.712715 
L 312.709091 250.893813 
L 321.405195 250.839736 
L 330.101299 250.779146 
L 338.797403 250.718667 
L 356.18961 250.638142 
L 364.885714 250.552113 
L 373.581818 250.460076 
" style="fill:none;stroke:#60897e;stroke-linecap:square;stroke-width:2;"/>
   </g>
   <g id="line2d_2">
    <path clip-path="url(#pa3382cbf2e)" d="M 234.444156 250.822104 
L 243.14026 250.769824 
L 251.836364 250.738041 
L 277.924675 250.734447 
L 286.620779 250.730853 
L 295.316883 250.722542 
L 304.012987 250.712715 
L 312.709091 250.893813 
L 321.405195 250.839736 
L 330.101299 250.779146 
L 338.797403 250.718667 
L 356.18961 250.638142 
L 364.885714 250.552113 
L 373.581818 250.460076 
" style="fill:none;stroke:#427165;stroke-linecap:square;stroke-width:2;"/>
   </g>
  </g>
 </g>
 <defs>
  <clipPath id="pa3382cbf2e">
   <rect height="217.44" width="334.8" x="54" y="34.56"/>
  </clipPath>
 </defs>
</svg>
