<?xml version="1.0" encoding="utf-8" standalone="no"?>
<!DOCTYPE svg PUBLIC "-//W3C//DTD SVG 1.1//EN"
  "http://www.w3.org/Graphics/SVG/1.1/DTD/svg11.dtd">
<svg height="345.6pt" version="1.1" viewBox="0 0 460.8 345.6" width="460.8pt" xmlns="http://www.w3.org/2000/svg" xmlns:xlink="http://www.w3.org/1999/xlink">
 <metadata>
  <rdf:RDF xmlns:cc="http://creativecommons.org/ns#" xmlns:dc="http://purl.org/dc/elements/1.1/" xmlns:rdf="http://www.w3.org/1999/02/22-rdf-syntax-ns#">
   <cc:Work>
    <dc:type rdf:resource="http://purl.org/dc/dcmitype/StillImage"/>
    <dc:date>2021-05-17T13:25:20.251930</dc:date>
    <dc:format>image/svg+xml</dc:format>
    <dc:creator>
     <cc:Agent>
      <dc:title>Matplotlib v3.4.2, https://matplotlib.org/</dc:title>
     </cc:Agent>
    </dc:creator>
   </cc:Work>
  </rdf:RDF>
 </metadata>
 <defs>
  <style type="text/css">*{stroke-linecap:butt;stroke-linejoin:round;}</style>
 </defs>
 <g id="figure_1">
  <g id="patch_1">
   <path d="M 0 345.6 
L 460.8 345.6 
L 460.8 0 
L 0 0 
z
" style="fill:none;"/>
  </g>
  <g id="axes_1">
   <g id="matplotlib.axis_1"/>
   <g id="matplotlib.axis_2"/>
   <g id="PolyCollection_1">
    <defs>
     <path d="M 258.096118 -39.560438 
L 258.096118 -38.016 
L 284.419459 -38.016 
L 293.193907 -38.016 
L 301.968354 -38.016 
L 310.742801 -38.016 
L 319.517248 -38.016 
L 328.291695 -38.016 
L 337.066143 -38.016 
L 345.84059 -38.016 
L 363.389484 -38.016 
L 372.163931 -38.016 
L 380.938378 -38.016 
L 389.712826 -38.016 
L 398.487273 -38.016 
L 398.487273 -40.390488 
L 398.487273 -40.390488 
L 389.712826 -40.289945 
L 380.938378 -39.900622 
L 372.163931 -39.787983 
L 363.389484 -39.682698 
L 345.84059 -39.584148 
L 337.066143 -39.510132 
L 328.291695 -39.435978 
L 319.517248 -39.369797 
L 310.742801 -39.591432 
L 301.968354 -39.579406 
L 293.193907 -39.569234 
L 284.419459 -39.564836 
L 258.096118 -39.560438 
z
" id="ma7e842e4f6" style="stroke:#7ea297;stroke-opacity:0.5;"/>
    </defs>
    <g clip-path="url(#p7ef750827b)">
     <use style="fill:#7ea297;fill-opacity:0.5;stroke:#7ea297;stroke-opacity:0.5;" x="0" xlink:href="#ma7e842e4f6" y="345.6"/>
    </g>
   </g>
   <g id="PolyCollection_2">
    <defs>
     <path d="M 73.832727 -38.031669 
L 73.832727 -38.016 
L 82.607174 -38.016 
L 91.381622 -38.016 
L 100.156069 -38.016 
L 108.930516 -38.016 
L 117.704963 -38.016 
L 135.253857 -38.016 
L 144.028305 -38.016 
L 152.802752 -38.016 
L 161.577199 -38.016 
L 170.351646 -38.016 
L 179.126093 -38.016 
L 187.900541 -38.016 
L 196.674988 -38.016 
L 205.449435 -38.016 
L 214.223882 -38.016 
L 222.998329 -38.016 
L 231.772776 -38.016 
L 240.547224 -38.016 
L 249.321671 -38.016 
L 258.096118 -38.016 
L 258.096118 -39.560438 
L 258.096118 -39.560438 
L 249.321671 -39.52154 
L 240.547224 -39.457558 
L 231.772776 -39.364986 
L 222.998329 -39.259289 
L 214.223882 -39.147681 
L 205.449435 -39.031537 
L 196.674988 -38.915393 
L 187.900541 -38.782274 
L 179.126093 -38.675614 
L 170.351646 -38.598506 
L 161.577199 -38.534318 
L 152.802752 -38.479613 
L 144.028305 -38.415012 
L 135.253857 -38.323678 
L 117.704963 -38.275159 
L 108.930516 -38.223203 
L 100.156069 -38.171248 
L 91.381622 -38.119499 
L 82.607174 -38.070636 
L 73.832727 -38.031669 
z
" id="m63362be657" style="stroke:#7ea297;stroke-opacity:0.3;"/>
    </defs>
    <g clip-path="url(#p7ef750827b)">
     <use style="fill:#7ea297;fill-opacity:0.3;stroke:#7ea297;stroke-opacity:0.3;" x="0" xlink:href="#m63362be657" y="345.6"/>
    </g>
   </g>
   <g id="line2d_1">
    <path clip-path="url(#p7ef750827b)" d="M 73.832727 307.568331 
L 82.607174 307.529364 
L 91.381622 307.480501 
L 100.156069 307.428752 
L 108.930516 307.376797 
L 117.704963 307.324841 
L 135.253857 307.276322 
L 144.028305 307.184988 
L 152.802752 307.120387 
L 161.577199 307.065682 
L 170.351646 307.001494 
L 179.126093 306.924386 
L 187.900541 306.817726 
L 196.674988 306.684607 
L 205.449435 306.568463 
L 214.223882 306.452319 
L 222.998329 306.340711 
L 231.772776 306.235014 
L 240.547224 306.142442 
L 249.321671 306.07846 
L 258.096118 306.039562 
L 284.419459 306.035164 
L 293.193907 306.030766 
L 301.968354 306.020594 
L 310.742801 306.008568 
L 319.517248 306.230203 
L 328.291695 306.164022 
L 337.066143 306.089868 
L 345.84059 306.015852 
L 363.389484 305.917302 
L 372.163931 305.812017 
L 380.938378 305.699378 
L 389.712826 305.310055 
L 398.487273 305.209512 
" style="fill:none;stroke:#60897e;stroke-linecap:square;stroke-width:2;"/>
   </g>
   <g id="line2d_2">
    <path clip-path="url(#p7ef750827b)" d="M 258.096118 306.039562 
L 284.419459 306.035164 
L 293.193907 306.030766 
L 301.968354 306.020594 
L 310.742801 306.008568 
L 319.517248 306.230203 
L 328.291695 306.164022 
L 337.066143 306.089868 
L 345.84059 306.015852 
L 363.389484 305.917302 
L 372.163931 305.812017 
L 380.938378 305.699378 
L 389.712826 305.310055 
L 398.487273 305.209512 
" style="fill:none;stroke:#427165;stroke-linecap:square;stroke-width:2;"/>
   </g>
  </g>
 </g>
 <defs>
  <clipPath id="p7ef750827b">
   <rect height="266.112" width="357.12" x="57.6" y="41.472"/>
  </clipPath>
 </defs>
</svg>
