<?xml version="1.0" encoding="utf-8" standalone="no"?>
<!DOCTYPE svg PUBLIC "-//W3C//DTD SVG 1.1//EN"
  "http://www.w3.org/Graphics/SVG/1.1/DTD/svg11.dtd">
<svg height="345.6pt" version="1.1" viewBox="0 0 460.8 345.6" width="460.8pt" xmlns="http://www.w3.org/2000/svg" xmlns:xlink="http://www.w3.org/1999/xlink">
 <metadata>
  <rdf:RDF xmlns:cc="http://creativecommons.org/ns#" xmlns:dc="http://purl.org/dc/elements/1.1/" xmlns:rdf="http://www.w3.org/1999/02/22-rdf-syntax-ns#">
   <cc:Work>
    <dc:type rdf:resource="http://purl.org/dc/dcmitype/StillImage"/>
    <dc:date>2021-05-17T13:25:20.925649</dc:date>
    <dc:format>image/svg+xml</dc:format>
    <dc:creator>
     <cc:Agent>
      <dc:title>Matplotlib v3.4.2, https://matplotlib.org/</dc:title>
     </cc:Agent>
    </dc:creator>
   </cc:Work>
  </rdf:RDF>
 </metadata>
 <defs>
  <style type="text/css">*{stroke-linecap:butt;stroke-linejoin:round;}</style>
 </defs>
 <g id="figure_1">
  <g id="patch_1">
   <path d="M 0 345.6 
L 460.8 345.6 
L 460.8 0 
L 0 0 
z
" style="fill:none;"/>
  </g>
  <g id="axes_1">
   <g id="matplotlib.axis_1"/>
   <g id="matplotlib.axis_2"/>
   <g id="PolyCollection_1">
    <defs>
     <path d="M 258.096118 -38.828409 
L 258.096118 -38.016 
L 284.419459 -38.016 
L 293.193907 -38.016 
L 301.968354 -38.016 
L 310.742801 -38.016 
L 319.517248 -38.016 
L 328.291695 -38.016 
L 337.066143 -38.016 
L 345.84059 -38.016 
L 363.389484 -38.016 
L 372.163931 -38.016 
L 380.938378 -38.016 
L 389.712826 -38.016 
L 398.487273 -38.016 
L 398.487273 -39.408401 
L 398.487273 -39.408401 
L 389.712826 -39.290888 
L 380.938378 -39.168462 
L 372.163931 -39.075306 
L 363.389484 -39.026259 
L 345.84059 -38.997834 
L 337.066143 -38.989903 
L 328.291695 -38.969767 
L 319.517248 -38.943133 
L 310.742801 -38.92072 
L 301.968354 -38.899382 
L 293.193907 -38.876918 
L 284.419459 -38.85448 
L 258.096118 -38.828409 
z
" id="m136d7cc687" style="stroke:#7ea297;stroke-opacity:0.5;"/>
    </defs>
    <g clip-path="url(#p1097564984)">
     <use style="fill:#7ea297;fill-opacity:0.5;stroke:#7ea297;stroke-opacity:0.5;" x="0" xlink:href="#m136d7cc687" y="345.6"/>
    </g>
   </g>
   <g id="PolyCollection_2">
    <defs>
     <path d="M 73.832727 -38.021347 
L 73.832727 -38.016 
L 82.607174 -38.016 
L 91.381622 -38.016 
L 100.156069 -38.016 
L 108.930516 -38.016 
L 117.704963 -38.016 
L 135.253857 -38.016 
L 144.028305 -38.016 
L 152.802752 -38.016 
L 161.577199 -38.016 
L 170.351646 -38.016 
L 179.126093 -38.016 
L 187.900541 -38.016 
L 196.674988 -38.016 
L 205.449435 -38.016 
L 214.223882 -38.016 
L 222.998329 -38.016 
L 231.772776 -38.016 
L 240.547224 -38.016 
L 249.321671 -38.016 
L 258.096118 -38.016 
L 258.096118 -38.828409 
L 258.096118 -38.828409 
L 249.321671 -38.789596 
L 240.547224 -38.710256 
L 231.772776 -38.622575 
L 222.998329 -38.529931 
L 214.223882 -38.435496 
L 205.449435 -38.341035 
L 196.674988 -38.250233 
L 187.900541 -38.181792 
L 179.126093 -38.160378 
L 170.351646 -38.147994 
L 161.577199 -38.142442 
L 152.802752 -38.139781 
L 144.028305 -38.135995 
L 135.253857 -38.121795 
L 117.704963 -38.104832 
L 108.930516 -38.087869 
L 100.156069 -38.070906 
L 91.381622 -38.053994 
L 82.607174 -38.037108 
L 73.832727 -38.021347 
z
" id="m39768c4e3e" style="stroke:#7ea297;stroke-opacity:0.3;"/>
    </defs>
    <g clip-path="url(#p1097564984)">
     <use style="fill:#7ea297;fill-opacity:0.3;stroke:#7ea297;stroke-opacity:0.3;" x="0" xlink:href="#m39768c4e3e" y="345.6"/>
    </g>
   </g>
   <g id="line2d_1">
    <path clip-path="url(#p1097564984)" d="M 73.832727 307.578653 
L 82.607174 307.562892 
L 91.381622 307.546006 
L 100.156069 307.529094 
L 108.930516 307.512131 
L 117.704963 307.495168 
L 135.253857 307.478205 
L 144.028305 307.464005 
L 152.802752 307.460219 
L 161.577199 307.457558 
L 170.351646 307.452006 
L 179.126093 307.439622 
L 187.900541 307.418208 
L 196.674988 307.349767 
L 205.449435 307.258965 
L 214.223882 307.164504 
L 222.998329 307.070069 
L 231.772776 306.977425 
L 240.547224 306.889744 
L 249.321671 306.810404 
L 258.096118 306.771591 
L 284.419459 306.74552 
L 293.193907 306.723082 
L 301.968354 306.700618 
L 310.742801 306.67928 
L 319.517248 306.656867 
L 328.291695 306.630233 
L 337.066143 306.610097 
L 345.84059 306.602166 
L 363.389484 306.573741 
L 372.163931 306.524694 
L 380.938378 306.431538 
L 389.712826 306.309112 
L 398.487273 306.191599 
" style="fill:none;stroke:#60897e;stroke-linecap:square;stroke-width:2;"/>
   </g>
   <g id="line2d_2">
    <path clip-path="url(#p1097564984)" d="M 258.096118 306.771591 
L 284.419459 306.74552 
L 293.193907 306.723082 
L 301.968354 306.700618 
L 310.742801 306.67928 
L 319.517248 306.656867 
L 328.291695 306.630233 
L 337.066143 306.610097 
L 345.84059 306.602166 
L 363.389484 306.573741 
L 372.163931 306.524694 
L 380.938378 306.431538 
L 389.712826 306.309112 
L 398.487273 306.191599 
" style="fill:none;stroke:#427165;stroke-linecap:square;stroke-width:2;"/>
   </g>
  </g>
 </g>
 <defs>
  <clipPath id="p1097564984">
   <rect height="266.112" width="357.12" x="57.6" y="41.472"/>
  </clipPath>
 </defs>
</svg>
