<?xml version="1.0" encoding="utf-8" standalone="no"?>
<!DOCTYPE svg PUBLIC "-//W3C//DTD SVG 1.1//EN"
  "http://www.w3.org/Graphics/SVG/1.1/DTD/svg11.dtd">
<svg height="345.6pt" version="1.1" viewBox="0 0 460.8 345.6" width="460.8pt" xmlns="http://www.w3.org/2000/svg" xmlns:xlink="http://www.w3.org/1999/xlink">
 <metadata>
  <rdf:RDF xmlns:cc="http://creativecommons.org/ns#" xmlns:dc="http://purl.org/dc/elements/1.1/" xmlns:rdf="http://www.w3.org/1999/02/22-rdf-syntax-ns#">
   <cc:Work>
    <dc:type rdf:resource="http://purl.org/dc/dcmitype/StillImage"/>
    <dc:date>2021-05-20T13:25:49.117509</dc:date>
    <dc:format>image/svg+xml</dc:format>
    <dc:creator>
     <cc:Agent>
      <dc:title>Matplotlib v3.4.2, https://matplotlib.org/</dc:title>
     </cc:Agent>
    </dc:creator>
   </cc:Work>
  </rdf:RDF>
 </metadata>
 <defs>
  <style type="text/css">*{stroke-linecap:butt;stroke-linejoin:round;}</style>
 </defs>
 <g id="figure_1">
  <g id="patch_1">
   <path d="M 0 345.6 
L 460.8 345.6 
L 460.8 0 
L 0 0 
z
" style="fill:none;"/>
  </g>
  <g id="axes_1">
   <g id="matplotlib.axis_1"/>
   <g id="matplotlib.axis_2"/>
   <g id="PolyCollection_1">
    <defs>
     <path d="M 284.858182 -40.091945 
L 284.858182 -38.016 
L 292.974545 -38.016 
L 301.090909 -38.016 
L 309.207273 -38.016 
L 317.323636 -38.016 
L 325.44 -38.016 
L 341.672727 -38.016 
L 349.789091 -38.016 
L 357.905455 -38.016 
L 366.021818 -38.016 
L 374.138182 -38.016 
L 382.254545 -38.016 
L 390.370909 -38.016 
L 398.487273 -38.016 
L 398.487273 -42.423425 
L 398.487273 -42.423425 
L 390.370909 -42.157181 
L 382.254545 -41.838685 
L 374.138182 -41.541977 
L 366.021818 -41.245268 
L 357.905455 -40.917356 
L 349.789091 -40.681669 
L 341.672727 -40.517344 
L 325.44 -40.405178 
L 317.323636 -40.373236 
L 309.207273 -40.322185 
L 301.090909 -40.249069 
L 292.974545 -40.180847 
L 284.858182 -40.091945 
z
" id="mbcdcfdf30d" style="stroke:#7ea297;stroke-opacity:0.5;"/>
    </defs>
    <g clip-path="url(#pfde061132c)">
     <use style="fill:#7ea297;fill-opacity:0.5;stroke:#7ea297;stroke-opacity:0.5;" x="0" xlink:href="#mbcdcfdf30d" y="345.6"/>
    </g>
   </g>
   <g id="PolyCollection_2">
    <defs>
     <path d="M 73.832727 -38.037602 
L 73.832727 -38.016 
L 81.949091 -38.016 
L 90.065455 -38.016 
L 98.181818 -38.016 
L 106.298182 -38.016 
L 114.414545 -38.016 
L 130.647273 -38.016 
L 138.763636 -38.016 
L 146.88 -38.016 
L 154.996364 -38.016 
L 163.112727 -38.016 
L 171.229091 -38.016 
L 179.345455 -38.016 
L 187.461818 -38.016 
L 195.578182 -38.016 
L 203.694545 -38.016 
L 211.810909 -38.016 
L 219.927273 -38.016 
L 228.043636 -38.016 
L 236.16 -38.016 
L 244.276364 -38.016 
L 268.625455 -38.016 
L 276.741818 -38.016 
L 284.858182 -38.016 
L 284.858182 -40.091945 
L 284.858182 -40.091945 
L 276.741818 -39.992796 
L 268.625455 -39.889954 
L 244.276364 -39.787112 
L 236.16 -39.648544 
L 228.043636 -39.504251 
L 219.927273 -39.355158 
L 211.810909 -39.198865 
L 203.694545 -39.016353 
L 195.578182 -38.838088 
L 187.461818 -38.659823 
L 179.345455 -38.517561 
L 171.229091 -38.403088 
L 163.112727 -38.319725 
L 154.996364 -38.264427 
L 146.88 -38.245594 
L 138.763636 -38.226761 
L 130.647273 -38.197681 
L 114.414545 -38.174694 
L 106.298182 -38.147276 
L 98.181818 -38.119857 
L 90.065455 -38.092439 
L 81.949091 -38.065021 
L 73.832727 -38.037602 
z
" id="m49a2858e1a" style="stroke:#7ea297;stroke-opacity:0.3;"/>
    </defs>
    <g clip-path="url(#pfde061132c)">
     <use style="fill:#7ea297;fill-opacity:0.3;stroke:#7ea297;stroke-opacity:0.3;" x="0" xlink:href="#m49a2858e1a" y="345.6"/>
    </g>
   </g>
   <g id="line2d_1">
    <path clip-path="url(#pfde061132c)" d="M 73.832727 307.562398 
L 81.949091 307.534979 
L 90.065455 307.507561 
L 98.181818 307.480143 
L 106.298182 307.452724 
L 114.414545 307.425306 
L 130.647273 307.402319 
L 138.763636 307.373239 
L 146.88 307.354406 
L 154.996364 307.335573 
L 163.112727 307.280275 
L 171.229091 307.196912 
L 179.345455 307.082439 
L 187.461818 306.940177 
L 195.578182 306.761912 
L 203.694545 306.583647 
L 211.810909 306.401135 
L 219.927273 306.244842 
L 228.043636 306.095749 
L 236.16 305.951456 
L 244.276364 305.812888 
L 268.625455 305.710046 
L 276.741818 305.607204 
L 284.858182 305.508055 
L 292.974545 305.419153 
L 301.090909 305.350931 
L 309.207273 305.277815 
L 317.323636 305.226764 
L 325.44 305.194822 
L 341.672727 305.082656 
L 349.789091 304.918331 
L 357.905455 304.682644 
L 366.021818 304.354732 
L 374.138182 304.058023 
L 382.254545 303.761315 
L 390.370909 303.442819 
L 398.487273 303.176575 
" style="fill:none;stroke:#60897e;stroke-linecap:square;stroke-width:2;"/>
   </g>
   <g id="line2d_2">
    <path clip-path="url(#pfde061132c)" d="M 284.858182 305.508055 
L 292.974545 305.419153 
L 301.090909 305.350931 
L 309.207273 305.277815 
L 317.323636 305.226764 
L 325.44 305.194822 
L 341.672727 305.082656 
L 349.789091 304.918331 
L 357.905455 304.682644 
L 366.021818 304.354732 
L 374.138182 304.058023 
L 382.254545 303.761315 
L 390.370909 303.442819 
L 398.487273 303.176575 
" style="fill:none;stroke:#427165;stroke-linecap:square;stroke-width:2;"/>
   </g>
  </g>
 </g>
 <defs>
  <clipPath id="pfde061132c">
   <rect height="266.112" width="357.12" x="57.6" y="41.472"/>
  </clipPath>
 </defs>
</svg>
