<?xml version="1.0" encoding="utf-8" standalone="no"?>
<!DOCTYPE svg PUBLIC "-//W3C//DTD SVG 1.1//EN"
  "http://www.w3.org/Graphics/SVG/1.1/DTD/svg11.dtd">
<svg height="345.6pt" version="1.1" viewBox="0 0 460.8 345.6" width="460.8pt" xmlns="http://www.w3.org/2000/svg" xmlns:xlink="http://www.w3.org/1999/xlink">
 <metadata>
  <rdf:RDF xmlns:cc="http://creativecommons.org/ns#" xmlns:dc="http://purl.org/dc/elements/1.1/" xmlns:rdf="http://www.w3.org/1999/02/22-rdf-syntax-ns#">
   <cc:Work>
    <dc:type rdf:resource="http://purl.org/dc/dcmitype/StillImage"/>
    <dc:date>2021-05-20T13:25:46.758850</dc:date>
    <dc:format>image/svg+xml</dc:format>
    <dc:creator>
     <cc:Agent>
      <dc:title>Matplotlib v3.4.2, https://matplotlib.org/</dc:title>
     </cc:Agent>
    </dc:creator>
   </cc:Work>
  </rdf:RDF>
 </metadata>
 <defs>
  <style type="text/css">*{stroke-linecap:butt;stroke-linejoin:round;}</style>
 </defs>
 <g id="figure_1">
  <g id="patch_1">
   <path d="M 0 345.6 
L 460.8 345.6 
L 460.8 0 
L 0 0 
z
" style="fill:none;"/>
  </g>
  <g id="axes_1">
   <g id="matplotlib.axis_1"/>
   <g id="matplotlib.axis_2"/>
   <g id="PolyCollection_1">
    <defs>
     <path d="M 330.649009 -41.497898 
L 330.649009 -38.016 
L 335.4946 -38.016 
L 340.34019 -38.016 
L 345.18578 -38.016 
L 350.03137 -38.016 
L 354.876961 -38.016 
L 364.568141 -38.016 
L 369.413731 -38.016 
L 374.259322 -38.016 
L 379.104912 -38.016 
L 383.950502 -38.016 
L 388.796092 -38.016 
L 393.641682 -38.016 
L 398.487273 -38.016 
L 398.487273 -44.188352 
L 398.487273 -44.188352 
L 393.641682 -44.071117 
L 388.796092 -43.824941 
L 383.950502 -43.617936 
L 379.104912 -43.406322 
L 374.259322 -43.135047 
L 369.413731 -42.865167 
L 364.568141 -42.604227 
L 354.876961 -42.25865 
L 350.03137 -42.07689 
L 345.18578 -41.900577 
L 340.34019 -41.727478 
L 335.4946 -41.612633 
L 330.649009 -41.497898 
z
" id="m20a02ce098" style="stroke:#7ea297;stroke-opacity:0.5;"/>
    </defs>
    <g clip-path="url(#p43f8ee269a)">
     <use style="fill:#7ea297;fill-opacity:0.5;stroke:#7ea297;stroke-opacity:0.5;" x="0" xlink:href="#m20a02ce098" y="345.6"/>
    </g>
   </g>
   <g id="PolyCollection_2">
    <defs>
     <path d="M 73.832727 -38.214804 
L 73.832727 -38.016 
L 78.678318 -38.016 
L 83.523908 -38.016 
L 88.369498 -38.016 
L 93.215088 -38.016 
L 98.060678 -38.016 
L 102.906269 -38.016 
L 107.751859 -38.016 
L 112.597449 -38.016 
L 117.443039 -38.016 
L 122.28863 -38.016 
L 131.97981 -38.016 
L 136.8254 -38.016 
L 141.670991 -38.016 
L 146.516581 -38.016 
L 151.362171 -38.016 
L 156.207761 -38.016 
L 161.053351 -38.016 
L 165.898942 -38.016 
L 170.744532 -38.016 
L 175.590122 -38.016 
L 180.435712 -38.016 
L 185.281303 -38.016 
L 190.126893 -38.016 
L 194.972483 -38.016 
L 199.818073 -38.016 
L 204.663664 -38.016 
L 209.509254 -38.016 
L 214.354844 -38.016 
L 219.200434 -38.016 
L 224.046024 -38.016 
L 228.891615 -38.016 
L 238.582795 -38.016 
L 243.428385 -38.016 
L 248.273976 -38.016 
L 253.119566 -38.016 
L 257.965156 -38.016 
L 262.810746 -38.016 
L 267.656336 -38.016 
L 272.501927 -38.016 
L 277.347517 -38.016 
L 282.193107 -38.016 
L 287.038697 -38.016 
L 291.884288 -38.016 
L 296.729878 -38.016 
L 301.575468 -38.016 
L 306.421058 -38.016 
L 320.957829 -38.016 
L 325.803419 -38.016 
L 330.649009 -38.016 
L 330.649009 -41.497898 
L 330.649009 -41.497898 
L 325.803419 -41.381888 
L 320.957829 -41.377557 
L 306.421058 -41.370655 
L 301.575468 -41.255337 
L 296.729878 -41.128118 
L 291.884288 -40.947729 
L 287.038697 -40.764283 
L 282.193107 -40.464767 
L 277.347517 -40.164535 
L 272.501927 -39.866899 
L 267.656336 -39.679304 
L 262.810746 -39.503646 
L 257.965156 -39.382566 
L 253.119566 -39.265222 
L 248.273976 -39.265222 
L 243.428385 -39.265222 
L 238.582795 -39.265222 
L 228.891615 -39.265222 
L 224.046024 -39.265222 
L 219.200434 -39.265222 
L 214.354844 -39.26521 
L 209.509254 -39.265197 
L 204.663664 -39.250191 
L 199.818073 -39.135322 
L 194.972483 -39.013902 
L 190.126893 -38.892494 
L 185.281303 -38.771038 
L 180.435712 -38.649388 
L 175.590122 -38.526925 
L 170.744532 -38.419455 
L 165.898942 -38.409532 
L 161.053351 -38.404728 
L 156.207761 -38.38117 
L 151.362171 -38.352771 
L 146.516581 -38.324578 
L 141.670991 -38.297198 
L 136.8254 -38.269818 
L 131.97981 -38.244756 
L 122.28863 -38.221124 
L 117.443039 -38.216248 
L 112.597449 -38.21626 
L 107.751859 -38.216272 
L 102.906269 -38.216284 
L 98.060678 -38.216296 
L 93.215088 -38.216308 
L 88.369498 -38.216333 
L 83.523908 -38.216333 
L 78.678318 -38.215568 
L 73.832727 -38.214804 
z
" id="m34e86c6c3e" style="stroke:#7ea297;stroke-opacity:0.3;"/>
    </defs>
    <g clip-path="url(#p43f8ee269a)">
     <use style="fill:#7ea297;fill-opacity:0.3;stroke:#7ea297;stroke-opacity:0.3;" x="0" xlink:href="#m34e86c6c3e" y="345.6"/>
    </g>
   </g>
   <g id="line2d_1">
    <path clip-path="url(#p43f8ee269a)" d="M 73.832727 307.385196 
L 78.678318 307.384432 
L 83.523908 307.383667 
L 88.369498 307.383667 
L 93.215088 307.383692 
L 98.060678 307.383704 
L 102.906269 307.383716 
L 107.751859 307.383728 
L 112.597449 307.38374 
L 117.443039 307.383752 
L 122.28863 307.378876 
L 131.97981 307.355244 
L 136.8254 307.330182 
L 141.670991 307.302802 
L 146.516581 307.275422 
L 151.362171 307.247229 
L 156.207761 307.21883 
L 161.053351 307.195272 
L 165.898942 307.190468 
L 170.744532 307.180545 
L 175.590122 307.073075 
L 180.435712 306.950612 
L 185.281303 306.828962 
L 190.126893 306.707506 
L 194.972483 306.586098 
L 199.818073 306.464678 
L 204.663664 306.349809 
L 209.509254 306.334803 
L 214.354844 306.33479 
L 219.200434 306.334778 
L 224.046024 306.334778 
L 228.891615 306.334778 
L 238.582795 306.334778 
L 243.428385 306.334778 
L 248.273976 306.334778 
L 253.119566 306.334778 
L 257.965156 306.217434 
L 262.810746 306.096354 
L 267.656336 305.920696 
L 272.501927 305.733101 
L 277.347517 305.435465 
L 282.193107 305.135233 
L 287.038697 304.835717 
L 291.884288 304.652271 
L 296.729878 304.471882 
L 301.575468 304.344663 
L 306.421058 304.229345 
L 320.957829 304.222443 
L 325.803419 304.218112 
L 330.649009 304.102102 
L 335.4946 303.987367 
L 340.34019 303.872522 
L 345.18578 303.699423 
L 350.03137 303.52311 
L 354.876961 303.34135 
L 364.568141 302.995773 
L 369.413731 302.734833 
L 374.259322 302.464953 
L 379.104912 302.193678 
L 383.950502 301.982064 
L 388.796092 301.775059 
L 393.641682 301.528883 
L 398.487273 301.411648 
" style="fill:none;stroke:#60897e;stroke-linecap:square;stroke-width:2;"/>
   </g>
   <g id="line2d_2">
    <path clip-path="url(#p43f8ee269a)" d="M 330.649009 304.102102 
L 335.4946 303.987367 
L 340.34019 303.872522 
L 345.18578 303.699423 
L 350.03137 303.52311 
L 354.876961 303.34135 
L 364.568141 302.995773 
L 369.413731 302.734833 
L 374.259322 302.464953 
L 379.104912 302.193678 
L 383.950502 301.982064 
L 388.796092 301.775059 
L 393.641682 301.528883 
L 398.487273 301.411648 
" style="fill:none;stroke:#427165;stroke-linecap:square;stroke-width:2;"/>
   </g>
  </g>
 </g>
 <defs>
  <clipPath id="p43f8ee269a">
   <rect height="266.112" width="357.12" x="57.6" y="41.472"/>
  </clipPath>
 </defs>
</svg>
