<?xml version="1.0" encoding="utf-8" standalone="no"?>
<!DOCTYPE svg PUBLIC "-//W3C//DTD SVG 1.1//EN"
  "http://www.w3.org/Graphics/SVG/1.1/DTD/svg11.dtd">
<!-- Created with matplotlib (https://matplotlib.org/) -->
<svg height="288pt" version="1.1" viewBox="0 0 432 288" width="432pt" xmlns="http://www.w3.org/2000/svg" xmlns:xlink="http://www.w3.org/1999/xlink">
 <metadata>
  <rdf:RDF xmlns:cc="http://creativecommons.org/ns#" xmlns:dc="http://purl.org/dc/elements/1.1/" xmlns:rdf="http://www.w3.org/1999/02/22-rdf-syntax-ns#">
   <cc:Work>
    <dc:type rdf:resource="http://purl.org/dc/dcmitype/StillImage"/>
    <dc:date>2021-05-14T21:42:57.164992</dc:date>
    <dc:format>image/svg+xml</dc:format>
    <dc:creator>
     <cc:Agent>
      <dc:title>Matplotlib v3.3.2, https://matplotlib.org/</dc:title>
     </cc:Agent>
    </dc:creator>
   </cc:Work>
  </rdf:RDF>
 </metadata>
 <defs>
  <style type="text/css">*{stroke-linecap:butt;stroke-linejoin:round;}</style>
 </defs>
 <g id="figure_1">
  <g id="patch_1">
   <path d="M 0 288 
L 432 288 
L 432 0 
L 0 0 
z
" style="fill:none;"/>
  </g>
  <g id="axes_1">
   <g id="matplotlib.axis_1"/>
   <g id="matplotlib.axis_2"/>
   <g id="PolyCollection_1">
    <defs>
     <path d="M 295.036364 -38.54291 
L 295.036364 -36 
L 299.945455 -36 
L 304.854545 -36 
L 319.581818 -36 
L 324.490909 -36 
L 329.4 -36 
L 334.309091 -36 
L 339.218182 -36 
L 344.127273 -36 
L 349.036364 -36 
L 353.945455 -36 
L 363.763636 -36 
L 368.672727 -36 
L 373.581818 -36 
L 373.581818 -40.182771 
L 373.581818 -40.182771 
L 368.672727 -39.962252 
L 363.763636 -39.749039 
L 353.945455 -39.466667 
L 349.036364 -39.318151 
L 344.127273 -39.174086 
L 339.218182 -39.032647 
L 334.309091 -38.938808 
L 329.4 -38.845057 
L 324.490909 -38.750266 
L 319.581818 -38.746727 
L 304.854545 -38.741087 
L 299.945455 -38.646861 
L 295.036364 -38.54291 
z
" id="mee7c41dd01" style="stroke:#7ea297;stroke-opacity:0.5;"/>
    </defs>
    <g clip-path="url(#pd3643e2705)">
     <use style="fill:#7ea297;fill-opacity:0.5;stroke:#7ea297;stroke-opacity:0.5;" x="0" xlink:href="#mee7c41dd01" y="288"/>
    </g>
   </g>
   <g id="PolyCollection_2">
    <defs>
     <path d="M 69.218182 -36.162443 
L 69.218182 -36 
L 74.127273 -36 
L 79.036364 -36 
L 83.945455 -36 
L 88.854545 -36 
L 93.763636 -36 
L 98.672727 -36 
L 103.581818 -36 
L 108.490909 -36 
L 113.4 -36 
L 118.309091 -36 
L 128.127273 -36 
L 133.036364 -36 
L 137.945455 -36 
L 142.854545 -36 
L 147.763636 -36 
L 152.672727 -36 
L 157.581818 -36 
L 162.490909 -36 
L 167.4 -36 
L 172.309091 -36 
L 177.218182 -36 
L 182.127273 -36 
L 187.036364 -36 
L 191.945455 -36 
L 196.854545 -36 
L 201.763636 -36 
L 206.672727 -36 
L 211.581818 -36 
L 216.490909 -36 
L 221.4 -36 
L 226.309091 -36 
L 236.127273 -36 
L 241.036364 -36 
L 245.945455 -36 
L 250.854545 -36 
L 255.763636 -36 
L 260.672727 -36 
L 265.581818 -36 
L 270.490909 -36 
L 275.4 -36 
L 280.309091 -36 
L 285.218182 -36 
L 290.127273 -36 
L 295.036364 -36 
L 295.036364 -38.54291 
L 295.036364 -38.54291 
L 290.127273 -38.395515 
L 285.218182 -38.245621 
L 280.309091 -38.000886 
L 275.4 -37.755567 
L 270.490909 -37.512369 
L 265.581818 -37.359085 
L 260.672727 -37.215555 
L 255.763636 -37.11662 
L 250.854545 -37.020739 
L 245.945455 -37.020739 
L 241.036364 -37.020739 
L 236.127273 -37.020739 
L 226.309091 -37.020739 
L 221.4 -37.020739 
L 216.490909 -37.020739 
L 211.581818 -37.020729 
L 206.672727 -37.020719 
L 201.763636 -37.008457 
L 196.854545 -36.914598 
L 191.945455 -36.815386 
L 187.036364 -36.716183 
L 182.127273 -36.616941 
L 177.218182 -36.517541 
L 172.309091 -36.417476 
L 167.4 -36.329663 
L 162.490909 -36.321555 
L 157.581818 -36.31763 
L 152.672727 -36.29838 
L 147.763636 -36.275175 
L 142.854545 -36.252139 
L 137.945455 -36.229767 
L 133.036364 -36.207395 
L 128.127273 -36.186916 
L 118.309091 -36.167607 
L 113.4 -36.163622 
L 108.490909 -36.163632 
L 103.581818 -36.163642 
L 98.672727 -36.163652 
L 93.763636 -36.163662 
L 88.854545 -36.163672 
L 83.945455 -36.163692 
L 79.036364 -36.163692 
L 74.127273 -36.163067 
L 69.218182 -36.162443 
z
" id="mc4652dfe1b" style="stroke:#7ea297;stroke-opacity:0.3;"/>
    </defs>
    <g clip-path="url(#pd3643e2705)">
     <use style="fill:#7ea297;fill-opacity:0.3;stroke:#7ea297;stroke-opacity:0.3;" x="0" xlink:href="#mc4652dfe1b" y="288"/>
    </g>
   </g>
   <g id="line2d_1">
    <path clip-path="url(#pd3643e2705)" d="M 69.218182 251.837557 
L 74.127273 251.836933 
L 79.036364 251.836308 
L 83.945455 251.836308 
L 88.854545 251.836328 
L 93.763636 251.836338 
L 98.672727 251.836348 
L 103.581818 251.836358 
L 108.490909 251.836368 
L 113.4 251.836378 
L 118.309091 251.832393 
L 128.127273 251.813084 
L 133.036364 251.792605 
L 137.945455 251.770233 
L 142.854545 251.747861 
L 147.763636 251.724825 
L 152.672727 251.70162 
L 157.581818 251.68237 
L 162.490909 251.678445 
L 167.4 251.670337 
L 172.309091 251.582524 
L 177.218182 251.482459 
L 182.127273 251.383059 
L 187.036364 251.283817 
L 191.945455 251.184614 
L 196.854545 251.085402 
L 201.763636 250.991543 
L 206.672727 250.979281 
L 211.581818 250.979271 
L 216.490909 250.979261 
L 221.4 250.979261 
L 226.309091 250.979261 
L 236.127273 250.979261 
L 241.036364 250.979261 
L 245.945455 250.979261 
L 250.854545 250.979261 
L 255.763636 250.88338 
L 260.672727 250.784445 
L 265.581818 250.640915 
L 270.490909 250.487631 
L 275.4 250.244433 
L 280.309091 249.999114 
L 285.218182 249.754379 
L 290.127273 249.604485 
L 295.036364 249.45709 
L 299.945455 249.353139 
L 304.854545 249.258913 
L 319.581818 249.253273 
L 324.490909 249.249734 
L 329.4 249.154943 
L 334.309091 249.061192 
L 339.218182 248.967353 
L 344.127273 248.825914 
L 349.036364 248.681849 
L 353.945455 248.533333 
L 363.763636 248.250961 
L 368.672727 248.037748 
L 373.581818 247.817229 
" style="fill:none;stroke:#60897e;stroke-linecap:square;stroke-width:2;"/>
   </g>
   <g id="line2d_2">
    <path clip-path="url(#pd3643e2705)" d="M 295.036364 249.45709 
L 299.945455 249.353139 
L 304.854545 249.258913 
L 319.581818 249.253273 
L 324.490909 249.249734 
L 329.4 249.154943 
L 334.309091 249.061192 
L 339.218182 248.967353 
L 344.127273 248.825914 
L 349.036364 248.681849 
L 353.945455 248.533333 
L 363.763636 248.250961 
L 368.672727 248.037748 
L 373.581818 247.817229 
" style="fill:none;stroke:#427165;stroke-linecap:square;stroke-width:2;"/>
   </g>
  </g>
 </g>
 <defs>
  <clipPath id="pd3643e2705">
   <rect height="217.44" width="334.8" x="54" y="34.56"/>
  </clipPath>
 </defs>
</svg>
