<?xml version="1.0" encoding="utf-8" standalone="no"?>
<!DOCTYPE svg PUBLIC "-//W3C//DTD SVG 1.1//EN"
  "http://www.w3.org/Graphics/SVG/1.1/DTD/svg11.dtd">
<svg height="345.6pt" version="1.1" viewBox="0 0 460.8 345.6" width="460.8pt" xmlns="http://www.w3.org/2000/svg" xmlns:xlink="http://www.w3.org/1999/xlink">
 <metadata>
  <rdf:RDF xmlns:cc="http://creativecommons.org/ns#" xmlns:dc="http://purl.org/dc/elements/1.1/" xmlns:rdf="http://www.w3.org/1999/02/22-rdf-syntax-ns#">
   <cc:Work>
    <dc:type rdf:resource="http://purl.org/dc/dcmitype/StillImage"/>
    <dc:date>2021-05-18T13:26:35.855730</dc:date>
    <dc:format>image/svg+xml</dc:format>
    <dc:creator>
     <cc:Agent>
      <dc:title>Matplotlib v3.4.2, https://matplotlib.org/</dc:title>
     </cc:Agent>
    </dc:creator>
   </cc:Work>
  </rdf:RDF>
 </metadata>
 <defs>
  <style type="text/css">*{stroke-linecap:butt;stroke-linejoin:round;}</style>
 </defs>
 <g id="figure_1">
  <g id="patch_1">
   <path d="M 0 345.6 
L 460.8 345.6 
L 460.8 0 
L 0 0 
z
" style="fill:none;"/>
  </g>
  <g id="axes_1">
   <g id="matplotlib.axis_1"/>
   <g id="matplotlib.axis_2"/>
   <g id="PolyCollection_1">
    <defs>
     <path d="M 281.944615 -41.403442 
L 281.944615 -38.016 
L 290.269091 -38.016 
L 298.593566 -38.016 
L 306.918042 -38.016 
L 315.242517 -38.016 
L 323.566993 -38.016 
L 331.891469 -38.016 
L 348.54042 -38.016 
L 356.864895 -38.016 
L 365.189371 -38.016 
L 373.513846 -38.016 
L 381.838322 -38.016 
L 390.162797 -38.016 
L 398.487273 -38.016 
L 398.487273 -43.13751 
L 398.487273 -43.13751 
L 390.162797 -43.016109 
L 381.838322 -42.894656 
L 373.513846 -42.770922 
L 365.189371 -42.642933 
L 356.864895 -42.507408 
L 348.54042 -42.386776 
L 331.891469 -42.343685 
L 323.566993 -42.298416 
L 315.242517 -42.204751 
L 306.918042 -42.05141 
L 298.593566 -41.853287 
L 290.269091 -41.641117 
L 281.944615 -41.403442 
z
" id="m1af5572a74" style="stroke:#7ea297;stroke-opacity:0.5;"/>
    </defs>
    <g clip-path="url(#p19bba53627)">
     <use style="fill:#7ea297;fill-opacity:0.5;stroke:#7ea297;stroke-opacity:0.5;" x="0" xlink:href="#m1af5572a74" y="345.6"/>
    </g>
   </g>
   <g id="PolyCollection_2">
    <defs>
     <path d="M 73.832727 -38.338908 
L 73.832727 -38.016 
L 82.157203 -38.016 
L 90.481678 -38.016 
L 98.806154 -38.016 
L 107.130629 -38.016 
L 115.455105 -38.016 
L 132.104056 -38.016 
L 140.428531 -38.016 
L 148.753007 -38.016 
L 157.077483 -38.016 
L 165.401958 -38.016 
L 173.726434 -38.016 
L 182.050909 -38.016 
L 190.375385 -38.016 
L 198.69986 -38.016 
L 207.024336 -38.016 
L 215.348811 -38.016 
L 223.673287 -38.016 
L 231.997762 -38.016 
L 240.322238 -38.016 
L 248.646713 -38.016 
L 273.62014 -38.016 
L 281.944615 -38.016 
L 281.944615 -41.403442 
L 281.944615 -41.403442 
L 273.62014 -41.163766 
L 248.646713 -40.934473 
L 240.322238 -40.753627 
L 231.997762 -40.599748 
L 223.673287 -40.450253 
L 215.348811 -40.320187 
L 207.024336 -40.215756 
L 198.69986 -40.114759 
L 190.375385 -40.013762 
L 182.050909 -39.912791 
L 173.726434 -39.84681 
L 165.401958 -39.825483 
L 157.077483 -39.804104 
L 148.753007 -39.794825 
L 140.428531 -39.777163 
L 132.104056 -39.679217 
L 115.455105 -39.51534 
L 107.130629 -39.304221 
L 98.806154 -39.077081 
L 90.481678 -38.823461 
L 82.157203 -38.576993 
L 73.832727 -38.338908 
z
" id="m69c5a1df85" style="stroke:#7ea297;stroke-opacity:0.3;"/>
    </defs>
    <g clip-path="url(#p19bba53627)">
     <use style="fill:#7ea297;fill-opacity:0.3;stroke:#7ea297;stroke-opacity:0.3;" x="0" xlink:href="#m69c5a1df85" y="345.6"/>
    </g>
   </g>
   <g id="line2d_1">
    <path clip-path="url(#p19bba53627)" d="M 73.832727 307.261092 
L 82.157203 307.023007 
L 90.481678 306.776539 
L 98.806154 306.522919 
L 107.130629 306.295779 
L 115.455105 306.08466 
L 132.104056 305.920783 
L 140.428531 305.822837 
L 148.753007 305.805175 
L 157.077483 305.795896 
L 165.401958 305.774517 
L 173.726434 305.75319 
L 182.050909 305.687209 
L 190.375385 305.586238 
L 198.69986 305.485241 
L 207.024336 305.384244 
L 215.348811 305.279813 
L 223.673287 305.149747 
L 231.997762 305.000252 
L 240.322238 304.846373 
L 248.646713 304.665527 
L 273.62014 304.436234 
L 281.944615 304.196558 
L 290.269091 303.958883 
L 298.593566 303.746713 
L 306.918042 303.54859 
L 315.242517 303.395249 
L 323.566993 303.301584 
L 331.891469 303.256315 
L 348.54042 303.213224 
L 356.864895 303.092592 
L 365.189371 302.957067 
L 373.513846 302.829078 
L 381.838322 302.705344 
L 390.162797 302.583891 
L 398.487273 302.46249 
" style="fill:none;stroke:#60897e;stroke-linecap:square;stroke-width:2;"/>
   </g>
   <g id="line2d_2">
    <path clip-path="url(#p19bba53627)" d="M 281.944615 304.196558 
L 290.269091 303.958883 
L 298.593566 303.746713 
L 306.918042 303.54859 
L 315.242517 303.395249 
L 323.566993 303.301584 
L 331.891469 303.256315 
L 348.54042 303.213224 
L 356.864895 303.092592 
L 365.189371 302.957067 
L 373.513846 302.829078 
L 381.838322 302.705344 
L 390.162797 302.583891 
L 398.487273 302.46249 
" style="fill:none;stroke:#427165;stroke-linecap:square;stroke-width:2;"/>
   </g>
  </g>
 </g>
 <defs>
  <clipPath id="p19bba53627">
   <rect height="266.112" width="357.12" x="57.6" y="41.472"/>
  </clipPath>
 </defs>
</svg>
