<?xml version="1.0" encoding="utf-8" standalone="no"?>
<!DOCTYPE svg PUBLIC "-//W3C//DTD SVG 1.1//EN"
  "http://www.w3.org/Graphics/SVG/1.1/DTD/svg11.dtd">
<svg height="345.6pt" version="1.1" viewBox="0 0 460.8 345.6" width="460.8pt" xmlns="http://www.w3.org/2000/svg" xmlns:xlink="http://www.w3.org/1999/xlink">
 <metadata>
  <rdf:RDF xmlns:cc="http://creativecommons.org/ns#" xmlns:dc="http://purl.org/dc/elements/1.1/" xmlns:rdf="http://www.w3.org/1999/02/22-rdf-syntax-ns#">
   <cc:Work>
    <dc:type rdf:resource="http://purl.org/dc/dcmitype/StillImage"/>
    <dc:date>2021-05-21T13:25:47.022644</dc:date>
    <dc:format>image/svg+xml</dc:format>
    <dc:creator>
     <cc:Agent>
      <dc:title>Matplotlib v3.4.2, https://matplotlib.org/</dc:title>
     </cc:Agent>
    </dc:creator>
   </cc:Work>
  </rdf:RDF>
 </metadata>
 <defs>
  <style type="text/css">*{stroke-linecap:butt;stroke-linejoin:round;}</style>
 </defs>
 <g id="figure_1">
  <g id="patch_1">
   <path d="M 0 345.6 
L 460.8 345.6 
L 460.8 0 
L 0 0 
z
" style="fill:none;"/>
  </g>
  <g id="axes_1">
   <g id="matplotlib.axis_1"/>
   <g id="matplotlib.axis_2"/>
   <g id="PolyCollection_1">
    <defs>
     <path d="M 287.629623 -41.853287 
L 287.629623 -38.016 
L 295.548027 -38.016 
L 303.46643 -38.016 
L 311.384834 -38.016 
L 319.303237 -38.016 
L 335.140044 -38.016 
L 343.058448 -38.016 
L 350.976851 -38.016 
L 358.895255 -38.016 
L 366.813659 -38.016 
L 374.732062 -38.016 
L 382.650466 -38.016 
L 390.568869 -38.016 
L 398.487273 -38.016 
L 398.487273 -43.286108 
L 398.487273 -43.286108 
L 390.568869 -43.251272 
L 382.650466 -43.13751 
L 374.732062 -43.016109 
L 366.813659 -42.894656 
L 358.895255 -42.770922 
L 350.976851 -42.642933 
L 343.058448 -42.507408 
L 335.140044 -42.386776 
L 319.303237 -42.343685 
L 311.384834 -42.298416 
L 303.46643 -42.204751 
L 295.548027 -42.05141 
L 287.629623 -41.853287 
z
" id="me893b37210" style="stroke:#7ea297;stroke-opacity:0.5;"/>
    </defs>
    <g clip-path="url(#p2d1761c8bf)">
     <use style="fill:#7ea297;fill-opacity:0.5;stroke:#7ea297;stroke-opacity:0.5;" x="0" xlink:href="#me893b37210" y="345.6"/>
    </g>
   </g>
   <g id="PolyCollection_2">
    <defs>
     <path d="M 73.832727 -38.338908 
L 73.832727 -38.016 
L 81.751131 -38.016 
L 89.669534 -38.016 
L 97.587938 -38.016 
L 105.506341 -38.016 
L 113.424745 -38.016 
L 129.261552 -38.016 
L 137.179956 -38.016 
L 145.098359 -38.016 
L 153.016763 -38.016 
L 160.935166 -38.016 
L 168.85357 -38.016 
L 176.771973 -38.016 
L 184.690377 -38.016 
L 192.60878 -38.016 
L 200.527184 -38.016 
L 208.445588 -38.016 
L 216.363991 -38.016 
L 224.282395 -38.016 
L 232.200798 -38.016 
L 240.119202 -38.016 
L 263.874412 -38.016 
L 271.792816 -38.016 
L 279.71122 -38.016 
L 287.629623 -38.016 
L 287.629623 -41.853287 
L 287.629623 -41.853287 
L 279.71122 -41.641117 
L 271.792816 -41.403442 
L 263.874412 -41.163766 
L 240.119202 -40.934473 
L 232.200798 -40.753627 
L 224.282395 -40.599748 
L 216.363991 -40.450253 
L 208.445588 -40.320187 
L 200.527184 -40.215756 
L 192.60878 -40.114759 
L 184.690377 -40.013762 
L 176.771973 -39.912791 
L 168.85357 -39.84681 
L 160.935166 -39.825483 
L 153.016763 -39.804104 
L 145.098359 -39.794825 
L 137.179956 -39.777163 
L 129.261552 -39.679217 
L 113.424745 -39.51534 
L 105.506341 -39.304221 
L 97.587938 -39.077081 
L 89.669534 -38.823461 
L 81.751131 -38.576993 
L 73.832727 -38.338908 
z
" id="m6205e597c1" style="stroke:#7ea297;stroke-opacity:0.3;"/>
    </defs>
    <g clip-path="url(#p2d1761c8bf)">
     <use style="fill:#7ea297;fill-opacity:0.3;stroke:#7ea297;stroke-opacity:0.3;" x="0" xlink:href="#m6205e597c1" y="345.6"/>
    </g>
   </g>
   <g id="line2d_1">
    <path clip-path="url(#p2d1761c8bf)" d="M 73.832727 307.261092 
L 81.751131 307.023007 
L 89.669534 306.776539 
L 97.587938 306.522919 
L 105.506341 306.295779 
L 113.424745 306.08466 
L 129.261552 305.920783 
L 137.179956 305.822837 
L 145.098359 305.805175 
L 153.016763 305.795896 
L 160.935166 305.774517 
L 168.85357 305.75319 
L 176.771973 305.687209 
L 184.690377 305.586238 
L 192.60878 305.485241 
L 200.527184 305.384244 
L 208.445588 305.279813 
L 216.363991 305.149747 
L 224.282395 305.000252 
L 232.200798 304.846373 
L 240.119202 304.665527 
L 263.874412 304.436234 
L 271.792816 304.196558 
L 279.71122 303.958883 
L 287.629623 303.746713 
L 295.548027 303.54859 
L 303.46643 303.395249 
L 311.384834 303.301584 
L 319.303237 303.256315 
L 335.140044 303.213224 
L 343.058448 303.092592 
L 350.976851 302.957067 
L 358.895255 302.829078 
L 366.813659 302.705344 
L 374.732062 302.583891 
L 382.650466 302.46249 
L 390.568869 302.348728 
L 398.487273 302.313892 
" style="fill:none;stroke:#60897e;stroke-linecap:square;stroke-width:2;"/>
   </g>
   <g id="line2d_2">
    <path clip-path="url(#p2d1761c8bf)" d="M 287.629623 303.746713 
L 295.548027 303.54859 
L 303.46643 303.395249 
L 311.384834 303.301584 
L 319.303237 303.256315 
L 335.140044 303.213224 
L 343.058448 303.092592 
L 350.976851 302.957067 
L 358.895255 302.829078 
L 366.813659 302.705344 
L 374.732062 302.583891 
L 382.650466 302.46249 
L 390.568869 302.348728 
L 398.487273 302.313892 
" style="fill:none;stroke:#427165;stroke-linecap:square;stroke-width:2;"/>
   </g>
  </g>
 </g>
 <defs>
  <clipPath id="p2d1761c8bf">
   <rect height="266.112" width="357.12" x="57.6" y="41.472"/>
  </clipPath>
 </defs>
</svg>
