<?xml version="1.0" encoding="utf-8" standalone="no"?>
<!DOCTYPE svg PUBLIC "-//W3C//DTD SVG 1.1//EN"
  "http://www.w3.org/Graphics/SVG/1.1/DTD/svg11.dtd">
<svg height="345.6pt" version="1.1" viewBox="0 0 460.8 345.6" width="460.8pt" xmlns="http://www.w3.org/2000/svg" xmlns:xlink="http://www.w3.org/1999/xlink">
 <metadata>
  <rdf:RDF xmlns:cc="http://creativecommons.org/ns#" xmlns:dc="http://purl.org/dc/elements/1.1/" xmlns:rdf="http://www.w3.org/1999/02/22-rdf-syntax-ns#">
   <cc:Work>
    <dc:type rdf:resource="http://purl.org/dc/dcmitype/StillImage"/>
    <dc:date>2021-05-20T13:25:48.885893</dc:date>
    <dc:format>image/svg+xml</dc:format>
    <dc:creator>
     <cc:Agent>
      <dc:title>Matplotlib v3.4.2, https://matplotlib.org/</dc:title>
     </cc:Agent>
    </dc:creator>
   </cc:Work>
  </rdf:RDF>
 </metadata>
 <defs>
  <style type="text/css">*{stroke-linecap:butt;stroke-linejoin:round;}</style>
 </defs>
 <g id="figure_1">
  <g id="patch_1">
   <path d="M 0 345.6 
L 460.8 345.6 
L 460.8 0 
L 0 0 
z
" style="fill:none;"/>
  </g>
  <g id="axes_1">
   <g id="matplotlib.axis_1"/>
   <g id="matplotlib.axis_2"/>
   <g id="PolyCollection_1">
    <defs>
     <path d="M 284.858182 -41.641117 
L 284.858182 -38.016 
L 292.974545 -38.016 
L 301.090909 -38.016 
L 309.207273 -38.016 
L 317.323636 -38.016 
L 325.44 -38.016 
L 341.672727 -38.016 
L 349.789091 -38.016 
L 357.905455 -38.016 
L 366.021818 -38.016 
L 374.138182 -38.016 
L 382.254545 -38.016 
L 390.370909 -38.016 
L 398.487273 -38.016 
L 398.487273 -43.251272 
L 398.487273 -43.251272 
L 390.370909 -43.13751 
L 382.254545 -43.016109 
L 374.138182 -42.894656 
L 366.021818 -42.770922 
L 357.905455 -42.642933 
L 349.789091 -42.507408 
L 341.672727 -42.386776 
L 325.44 -42.343685 
L 317.323636 -42.298416 
L 309.207273 -42.204751 
L 301.090909 -42.05141 
L 292.974545 -41.853287 
L 284.858182 -41.641117 
z
" id="m8084c0018e" style="stroke:#7ea297;stroke-opacity:0.5;"/>
    </defs>
    <g clip-path="url(#p8e68ae5150)">
     <use style="fill:#7ea297;fill-opacity:0.5;stroke:#7ea297;stroke-opacity:0.5;" x="0" xlink:href="#m8084c0018e" y="345.6"/>
    </g>
   </g>
   <g id="PolyCollection_2">
    <defs>
     <path d="M 73.832727 -38.338908 
L 73.832727 -38.016 
L 81.949091 -38.016 
L 90.065455 -38.016 
L 98.181818 -38.016 
L 106.298182 -38.016 
L 114.414545 -38.016 
L 130.647273 -38.016 
L 138.763636 -38.016 
L 146.88 -38.016 
L 154.996364 -38.016 
L 163.112727 -38.016 
L 171.229091 -38.016 
L 179.345455 -38.016 
L 187.461818 -38.016 
L 195.578182 -38.016 
L 203.694545 -38.016 
L 211.810909 -38.016 
L 219.927273 -38.016 
L 228.043636 -38.016 
L 236.16 -38.016 
L 244.276364 -38.016 
L 268.625455 -38.016 
L 276.741818 -38.016 
L 284.858182 -38.016 
L 284.858182 -41.641117 
L 284.858182 -41.641117 
L 276.741818 -41.403442 
L 268.625455 -41.163766 
L 244.276364 -40.934473 
L 236.16 -40.753627 
L 228.043636 -40.599748 
L 219.927273 -40.450253 
L 211.810909 -40.320187 
L 203.694545 -40.215756 
L 195.578182 -40.114759 
L 187.461818 -40.013762 
L 179.345455 -39.912791 
L 171.229091 -39.84681 
L 163.112727 -39.825483 
L 154.996364 -39.804104 
L 146.88 -39.794825 
L 138.763636 -39.777163 
L 130.647273 -39.679217 
L 114.414545 -39.51534 
L 106.298182 -39.304221 
L 98.181818 -39.077081 
L 90.065455 -38.823461 
L 81.949091 -38.576993 
L 73.832727 -38.338908 
z
" id="mb1af334ee3" style="stroke:#7ea297;stroke-opacity:0.3;"/>
    </defs>
    <g clip-path="url(#p8e68ae5150)">
     <use style="fill:#7ea297;fill-opacity:0.3;stroke:#7ea297;stroke-opacity:0.3;" x="0" xlink:href="#mb1af334ee3" y="345.6"/>
    </g>
   </g>
   <g id="line2d_1">
    <path clip-path="url(#p8e68ae5150)" d="M 73.832727 307.261092 
L 81.949091 307.023007 
L 90.065455 306.776539 
L 98.181818 306.522919 
L 106.298182 306.295779 
L 114.414545 306.08466 
L 130.647273 305.920783 
L 138.763636 305.822837 
L 146.88 305.805175 
L 154.996364 305.795896 
L 163.112727 305.774517 
L 171.229091 305.75319 
L 179.345455 305.687209 
L 187.461818 305.586238 
L 195.578182 305.485241 
L 203.694545 305.384244 
L 211.810909 305.279813 
L 219.927273 305.149747 
L 228.043636 305.000252 
L 236.16 304.846373 
L 244.276364 304.665527 
L 268.625455 304.436234 
L 276.741818 304.196558 
L 284.858182 303.958883 
L 292.974545 303.746713 
L 301.090909 303.54859 
L 309.207273 303.395249 
L 317.323636 303.301584 
L 325.44 303.256315 
L 341.672727 303.213224 
L 349.789091 303.092592 
L 357.905455 302.957067 
L 366.021818 302.829078 
L 374.138182 302.705344 
L 382.254545 302.583891 
L 390.370909 302.46249 
L 398.487273 302.348728 
" style="fill:none;stroke:#60897e;stroke-linecap:square;stroke-width:2;"/>
   </g>
   <g id="line2d_2">
    <path clip-path="url(#p8e68ae5150)" d="M 284.858182 303.958883 
L 292.974545 303.746713 
L 301.090909 303.54859 
L 309.207273 303.395249 
L 317.323636 303.301584 
L 325.44 303.256315 
L 341.672727 303.213224 
L 349.789091 303.092592 
L 357.905455 302.957067 
L 366.021818 302.829078 
L 374.138182 302.705344 
L 382.254545 302.583891 
L 390.370909 302.46249 
L 398.487273 302.348728 
" style="fill:none;stroke:#427165;stroke-linecap:square;stroke-width:2;"/>
   </g>
  </g>
 </g>
 <defs>
  <clipPath id="p8e68ae5150">
   <rect height="266.112" width="357.12" x="57.6" y="41.472"/>
  </clipPath>
 </defs>
</svg>
