<?xml version="1.0" encoding="utf-8" standalone="no"?>
<!DOCTYPE svg PUBLIC "-//W3C//DTD SVG 1.1//EN"
  "http://www.w3.org/Graphics/SVG/1.1/DTD/svg11.dtd">
<!-- Created with matplotlib (https://matplotlib.org/) -->
<svg height="288pt" version="1.1" viewBox="0 0 432 288" width="432pt" xmlns="http://www.w3.org/2000/svg" xmlns:xlink="http://www.w3.org/1999/xlink">
 <metadata>
  <rdf:RDF xmlns:cc="http://creativecommons.org/ns#" xmlns:dc="http://purl.org/dc/elements/1.1/" xmlns:rdf="http://www.w3.org/1999/02/22-rdf-syntax-ns#">
   <cc:Work>
    <dc:type rdf:resource="http://purl.org/dc/dcmitype/StillImage"/>
    <dc:date>2021-05-14T21:42:57.394453</dc:date>
    <dc:format>image/svg+xml</dc:format>
    <dc:creator>
     <cc:Agent>
      <dc:title>Matplotlib v3.3.2, https://matplotlib.org/</dc:title>
     </cc:Agent>
    </dc:creator>
   </cc:Work>
  </rdf:RDF>
 </metadata>
 <defs>
  <style type="text/css">*{stroke-linecap:butt;stroke-linejoin:round;}</style>
 </defs>
 <g id="figure_1">
  <g id="patch_1">
   <path d="M 0 288 
L 432 288 
L 432 0 
L 0 0 
z
" style="fill:none;"/>
  </g>
  <g id="axes_1">
   <g id="matplotlib.axis_1"/>
   <g id="matplotlib.axis_2"/>
   <g id="PolyCollection_1">
    <defs>
     <path d="M 238.309091 -37.266477 
L 238.309091 -36 
L 246.763636 -36 
L 255.218182 -36 
L 280.581818 -36 
L 289.036364 -36 
L 297.490909 -36 
L 305.945455 -36 
L 314.4 -36 
L 322.854545 -36 
L 331.309091 -36 
L 339.763636 -36 
L 356.672727 -36 
L 365.127273 -36 
L 373.581818 -36 
L 373.581818 -38.528081 
L 373.581818 -38.528081 
L 365.127273 -38.259712 
L 356.672727 -38.069179 
L 339.763636 -37.964111 
L 331.309091 -37.900687 
L 322.854545 -37.828505 
L 314.4 -37.734543 
L 305.945455 -37.670452 
L 297.490909 -37.609436 
L 289.036364 -37.540502 
L 280.581818 -37.475686 
L 255.218182 -37.411044 
L 246.763636 -37.355044 
L 238.309091 -37.266477 
z
" id="m79c0bb358b" style="stroke:#7ea297;stroke-opacity:0.5;"/>
    </defs>
    <g clip-path="url(#p22f19d3c74)">
     <use style="fill:#7ea297;fill-opacity:0.5;stroke:#7ea297;stroke-opacity:0.5;" x="0" xlink:href="#m79c0bb358b" y="288"/>
    </g>
   </g>
   <g id="PolyCollection_2">
    <defs>
     <path d="M 69.218182 -36.044603 
L 69.218182 -36 
L 77.672727 -36 
L 86.127273 -36 
L 94.581818 -36 
L 103.036364 -36 
L 111.490909 -36 
L 119.945455 -36 
L 136.854545 -36 
L 145.309091 -36 
L 153.763636 -36 
L 162.218182 -36 
L 170.672727 -36 
L 179.127273 -36 
L 187.581818 -36 
L 196.036364 -36 
L 204.490909 -36 
L 212.945455 -36 
L 221.4 -36 
L 229.854545 -36 
L 238.309091 -36 
L 238.309091 -37.266477 
L 238.309091 -37.266477 
L 229.854545 -37.142558 
L 221.4 -37.018668 
L 212.945455 -36.905335 
L 204.490909 -36.791537 
L 196.036364 -36.677739 
L 187.581818 -36.564058 
L 179.127273 -36.507304 
L 170.672727 -36.507304 
L 162.218182 -36.507304 
L 153.763636 -36.507275 
L 145.309091 -36.496487 
L 136.854545 -36.478855 
L 119.945455 -36.438196 
L 111.490909 -36.375033 
L 103.036364 -36.303431 
L 94.581818 -36.231829 
L 86.127273 -36.160256 
L 77.672727 -36.099442 
L 69.218182 -36.044603 
z
" id="m162b983d17" style="stroke:#7ea297;stroke-opacity:0.3;"/>
    </defs>
    <g clip-path="url(#p22f19d3c74)">
     <use style="fill:#7ea297;fill-opacity:0.3;stroke:#7ea297;stroke-opacity:0.3;" x="0" xlink:href="#m162b983d17" y="288"/>
    </g>
   </g>
   <g id="line2d_1">
    <path clip-path="url(#p22f19d3c74)" d="M 69.218182 251.955397 
L 77.672727 251.900558 
L 86.127273 251.839744 
L 94.581818 251.768171 
L 103.036364 251.696569 
L 111.490909 251.624967 
L 119.945455 251.561804 
L 136.854545 251.521145 
L 145.309091 251.503513 
L 153.763636 251.492725 
L 162.218182 251.492696 
L 170.672727 251.492696 
L 179.127273 251.492696 
L 187.581818 251.435942 
L 196.036364 251.322261 
L 204.490909 251.208463 
L 212.945455 251.094665 
L 221.4 250.981332 
L 229.854545 250.857442 
L 238.309091 250.733523 
L 246.763636 250.644956 
L 255.218182 250.588956 
L 280.581818 250.524314 
L 289.036364 250.459498 
L 297.490909 250.390564 
L 305.945455 250.329548 
L 314.4 250.265457 
L 322.854545 250.171495 
L 331.309091 250.099313 
L 339.763636 250.035889 
L 356.672727 249.930821 
L 365.127273 249.740288 
L 373.581818 249.471919 
" style="fill:none;stroke:#60897e;stroke-linecap:square;stroke-width:2;"/>
   </g>
   <g id="line2d_2">
    <path clip-path="url(#p22f19d3c74)" d="M 238.309091 250.733523 
L 246.763636 250.644956 
L 255.218182 250.588956 
L 280.581818 250.524314 
L 289.036364 250.459498 
L 297.490909 250.390564 
L 305.945455 250.329548 
L 314.4 250.265457 
L 322.854545 250.171495 
L 331.309091 250.099313 
L 339.763636 250.035889 
L 356.672727 249.930821 
L 365.127273 249.740288 
L 373.581818 249.471919 
" style="fill:none;stroke:#427165;stroke-linecap:square;stroke-width:2;"/>
   </g>
  </g>
 </g>
 <defs>
  <clipPath id="p22f19d3c74">
   <rect height="217.44" width="334.8" x="54" y="34.56"/>
  </clipPath>
 </defs>
</svg>
