<?xml version="1.0" encoding="utf-8" standalone="no"?>
<!DOCTYPE svg PUBLIC "-//W3C//DTD SVG 1.1//EN"
  "http://www.w3.org/Graphics/SVG/1.1/DTD/svg11.dtd">
<svg height="345.6pt" version="1.1" viewBox="0 0 460.8 345.6" width="460.8pt" xmlns="http://www.w3.org/2000/svg" xmlns:xlink="http://www.w3.org/1999/xlink">
 <metadata>
  <rdf:RDF xmlns:cc="http://creativecommons.org/ns#" xmlns:dc="http://purl.org/dc/elements/1.1/" xmlns:rdf="http://www.w3.org/1999/02/22-rdf-syntax-ns#">
   <cc:Work>
    <dc:type rdf:resource="http://purl.org/dc/dcmitype/StillImage"/>
    <dc:date>2021-05-17T10:41:14.625662</dc:date>
    <dc:format>image/svg+xml</dc:format>
    <dc:creator>
     <cc:Agent>
      <dc:title>Matplotlib v3.4.2, https://matplotlib.org/</dc:title>
     </cc:Agent>
    </dc:creator>
   </cc:Work>
  </rdf:RDF>
 </metadata>
 <defs>
  <style type="text/css">*{stroke-linecap:butt;stroke-linejoin:round;}</style>
 </defs>
 <g id="figure_1">
  <g id="patch_1">
   <path d="M 0 345.6 
L 460.8 345.6 
L 460.8 0 
L 0 0 
z
" style="fill:none;"/>
  </g>
  <g id="axes_1">
   <g id="matplotlib.axis_1"/>
   <g id="matplotlib.axis_2"/>
   <g id="PolyCollection_1">
    <defs>
     <path d="M 258.096118 -40.192468 
L 258.096118 -38.016 
L 284.419459 -38.016 
L 293.193907 -38.016 
L 301.968354 -38.016 
L 310.742801 -38.016 
L 319.517248 -38.016 
L 328.291695 -38.016 
L 337.066143 -38.016 
L 345.84059 -38.016 
L 363.389484 -38.016 
L 372.163931 -38.016 
L 380.938378 -38.016 
L 389.712826 -38.016 
L 398.487273 -38.016 
L 398.487273 -41.329525 
L 398.487273 -41.329525 
L 389.712826 -41.134734 
L 380.938378 -40.939943 
L 372.163931 -40.725939 
L 363.389484 -40.553439 
L 345.84059 -40.531564 
L 337.066143 -40.50969 
L 328.291695 -40.487649 
L 319.517248 -40.465275 
L 310.742801 -40.428263 
L 301.968354 -40.41271 
L 293.193907 -40.340849 
L 284.419459 -40.266658 
L 258.096118 -40.192468 
z
" id="m64245963ef" style="stroke:#7ea297;stroke-opacity:0.5;"/>
    </defs>
    <g clip-path="url(#p68d31c3fea)">
     <use style="fill:#7ea297;fill-opacity:0.5;stroke:#7ea297;stroke-opacity:0.5;" x="0" xlink:href="#m64245963ef" y="345.6"/>
    </g>
   </g>
   <g id="PolyCollection_2">
    <defs>
     <path d="M 73.832727 -38.298788 
L 73.832727 -38.016 
L 82.607174 -38.016 
L 91.381622 -38.016 
L 100.156069 -38.016 
L 108.930516 -38.016 
L 117.704963 -38.016 
L 135.253857 -38.016 
L 144.028305 -38.016 
L 152.802752 -38.016 
L 161.577199 -38.016 
L 170.351646 -38.016 
L 179.126093 -38.016 
L 187.900541 -38.016 
L 196.674988 -38.016 
L 205.449435 -38.016 
L 214.223882 -38.016 
L 222.998329 -38.016 
L 231.772776 -38.016 
L 240.547224 -38.016 
L 249.321671 -38.016 
L 258.096118 -38.016 
L 258.096118 -40.192468 
L 258.096118 -40.192468 
L 249.321671 -40.11046 
L 240.547224 -39.991523 
L 231.772776 -39.734685 
L 222.998329 -39.478013 
L 214.223882 -39.277899 
L 205.449435 -39.080114 
L 196.674988 -38.882329 
L 187.900541 -38.692528 
L 179.126093 -38.539989 
L 170.351646 -38.539989 
L 161.577199 -38.539989 
L 152.802752 -38.539989 
L 144.028305 -38.539989 
L 135.253857 -38.539989 
L 117.704963 -38.539989 
L 108.930516 -38.532836 
L 100.156069 -38.523355 
L 91.381622 -38.448499 
L 82.607174 -38.373643 
L 73.832727 -38.298788 
z
" id="md12a4e6448" style="stroke:#7ea297;stroke-opacity:0.3;"/>
    </defs>
    <g clip-path="url(#p68d31c3fea)">
     <use style="fill:#7ea297;fill-opacity:0.3;stroke:#7ea297;stroke-opacity:0.3;" x="0" xlink:href="#md12a4e6448" y="345.6"/>
    </g>
   </g>
   <g id="line2d_1">
    <path clip-path="url(#p68d31c3fea)" d="M 73.832727 307.301212 
L 82.607174 307.226357 
L 91.381622 307.151501 
L 100.156069 307.076645 
L 108.930516 307.067164 
L 117.704963 307.060011 
L 135.253857 307.060011 
L 144.028305 307.060011 
L 152.802752 307.060011 
L 161.577199 307.060011 
L 170.351646 307.060011 
L 179.126093 307.060011 
L 187.900541 306.907472 
L 196.674988 306.717671 
L 205.449435 306.519886 
L 214.223882 306.322101 
L 222.998329 306.121987 
L 231.772776 305.865315 
L 240.547224 305.608477 
L 249.321671 305.48954 
L 258.096118 305.407532 
L 284.419459 305.333342 
L 293.193907 305.259151 
L 301.968354 305.18729 
L 310.742801 305.171737 
L 319.517248 305.134725 
L 328.291695 305.112351 
L 337.066143 305.09031 
L 345.84059 305.068436 
L 363.389484 305.046561 
L 372.163931 304.874061 
L 380.938378 304.660057 
L 389.712826 304.465266 
L 398.487273 304.270475 
" style="fill:none;stroke:#60897e;stroke-linecap:square;stroke-width:2;"/>
   </g>
   <g id="line2d_2">
    <path clip-path="url(#p68d31c3fea)" d="M 258.096118 305.407532 
L 284.419459 305.333342 
L 293.193907 305.259151 
L 301.968354 305.18729 
L 310.742801 305.171737 
L 319.517248 305.134725 
L 328.291695 305.112351 
L 337.066143 305.09031 
L 345.84059 305.068436 
L 363.389484 305.046561 
L 372.163931 304.874061 
L 380.938378 304.660057 
L 389.712826 304.465266 
L 398.487273 304.270475 
" style="fill:none;stroke:#427165;stroke-linecap:square;stroke-width:2;"/>
   </g>
  </g>
 </g>
 <defs>
  <clipPath id="p68d31c3fea">
   <rect height="266.112" width="357.12" x="57.6" y="41.472"/>
  </clipPath>
 </defs>
</svg>
