<?xml version="1.0" encoding="utf-8" standalone="no"?>
<!DOCTYPE svg PUBLIC "-//W3C//DTD SVG 1.1//EN"
  "http://www.w3.org/Graphics/SVG/1.1/DTD/svg11.dtd">
<svg height="345.6pt" version="1.1" viewBox="0 0 460.8 345.6" width="460.8pt" xmlns="http://www.w3.org/2000/svg" xmlns:xlink="http://www.w3.org/1999/xlink">
 <metadata>
  <rdf:RDF xmlns:cc="http://creativecommons.org/ns#" xmlns:dc="http://purl.org/dc/elements/1.1/" xmlns:rdf="http://www.w3.org/1999/02/22-rdf-syntax-ns#">
   <cc:Work>
    <dc:type rdf:resource="http://purl.org/dc/dcmitype/StillImage"/>
    <dc:date>2021-05-19T13:25:25.378740</dc:date>
    <dc:format>image/svg+xml</dc:format>
    <dc:creator>
     <cc:Agent>
      <dc:title>Matplotlib v3.4.2, https://matplotlib.org/</dc:title>
     </cc:Agent>
    </dc:creator>
   </cc:Work>
  </rdf:RDF>
 </metadata>
 <defs>
  <style type="text/css">*{stroke-linecap:butt;stroke-linejoin:round;}</style>
 </defs>
 <g id="figure_1">
  <g id="patch_1">
   <path d="M 0 345.6 
L 460.8 345.6 
L 460.8 0 
L 0 0 
z
" style="fill:none;"/>
  </g>
  <g id="axes_1">
   <g id="matplotlib.axis_1"/>
   <g id="matplotlib.axis_2"/>
   <g id="PolyCollection_1">
    <defs>
     <path d="M 281.944615 -39.041937 
L 281.944615 -38.016 
L 290.269091 -38.016 
L 298.593566 -38.016 
L 306.918042 -38.016 
L 315.242517 -38.016 
L 323.566993 -38.016 
L 331.891469 -38.016 
L 348.54042 -38.016 
L 356.864895 -38.016 
L 365.189371 -38.016 
L 373.513846 -38.016 
L 381.838322 -38.016 
L 390.162797 -38.016 
L 398.487273 -38.016 
L 398.487273 -40.164296 
L 398.487273 -40.164296 
L 390.162797 -40.06223 
L 381.838322 -39.955469 
L 373.513846 -39.848788 
L 365.189371 -39.726756 
L 356.864895 -39.572998 
L 348.54042 -39.255195 
L 331.891469 -39.173014 
L 323.566993 -39.105313 
L 315.242517 -39.042517 
L 306.918042 -38.979616 
L 298.593566 -38.931589 
L 290.269091 -38.91326 
L 281.944615 -39.041937 
z
" id="m999237bb14" style="stroke:#7ea297;stroke-opacity:0.5;"/>
    </defs>
    <g clip-path="url(#p5f1dbe914d)">
     <use style="fill:#7ea297;fill-opacity:0.5;stroke:#7ea297;stroke-opacity:0.5;" x="0" xlink:href="#m999237bb14" y="345.6"/>
    </g>
   </g>
   <g id="PolyCollection_2">
    <defs>
     <path d="M 73.832727 -38.107411 
L 73.832727 -38.016 
L 82.157203 -38.016 
L 90.481678 -38.016 
L 98.806154 -38.016 
L 107.130629 -38.016 
L 115.455105 -38.016 
L 132.104056 -38.016 
L 140.428531 -38.016 
L 148.753007 -38.016 
L 157.077483 -38.016 
L 165.401958 -38.016 
L 173.726434 -38.016 
L 182.050909 -38.016 
L 190.375385 -38.016 
L 198.69986 -38.016 
L 207.024336 -38.016 
L 215.348811 -38.016 
L 223.673287 -38.016 
L 231.997762 -38.016 
L 240.322238 -38.016 
L 248.646713 -38.016 
L 273.62014 -38.016 
L 281.944615 -38.016 
L 281.944615 -39.041937 
L 281.944615 -39.041937 
L 273.62014 -39.018623 
L 248.646713 -38.995387 
L 240.322238 -38.971229 
L 231.997762 -38.933805 
L 223.673287 -38.821057 
L 215.348811 -38.698024 
L 207.024336 -38.593083 
L 198.69986 -38.489724 
L 190.375385 -38.386445 
L 182.050909 -38.284168 
L 173.726434 -38.195262 
L 165.401958 -38.182154 
L 157.077483 -38.182154 
L 148.753007 -38.182154 
L 140.428531 -38.182154 
L 132.104056 -38.182154 
L 115.455105 -38.182154 
L 107.130629 -38.181363 
L 98.806154 -38.17862 
L 90.481678 -38.154884 
L 82.157203 -38.131148 
L 73.832727 -38.107411 
z
" id="mc11c0a35de" style="stroke:#7ea297;stroke-opacity:0.3;"/>
    </defs>
    <g clip-path="url(#p5f1dbe914d)">
     <use style="fill:#7ea297;fill-opacity:0.3;stroke:#7ea297;stroke-opacity:0.3;" x="0" xlink:href="#mc11c0a35de" y="345.6"/>
    </g>
   </g>
   <g id="line2d_1">
    <path clip-path="url(#p5f1dbe914d)" d="M 73.832727 307.492589 
L 82.157203 307.468852 
L 90.481678 307.445116 
L 98.806154 307.42138 
L 107.130629 307.418637 
L 115.455105 307.417846 
L 132.104056 307.417846 
L 140.428531 307.417846 
L 148.753007 307.417846 
L 157.077483 307.417846 
L 165.401958 307.417846 
L 173.726434 307.404738 
L 182.050909 307.315832 
L 190.375385 307.213555 
L 198.69986 307.110276 
L 207.024336 307.006917 
L 215.348811 306.901976 
L 223.673287 306.778943 
L 231.997762 306.666195 
L 240.322238 306.628771 
L 248.646713 306.604613 
L 273.62014 306.581377 
L 281.944615 306.558063 
L 290.269091 306.68674 
L 298.593566 306.668411 
L 306.918042 306.620384 
L 315.242517 306.557483 
L 323.566993 306.494687 
L 331.891469 306.426986 
L 348.54042 306.344805 
L 356.864895 306.027002 
L 365.189371 305.873244 
L 373.513846 305.751212 
L 381.838322 305.644531 
L 390.162797 305.53777 
L 398.487273 305.435704 
" style="fill:none;stroke:#60897e;stroke-linecap:square;stroke-width:2;"/>
   </g>
   <g id="line2d_2">
    <path clip-path="url(#p5f1dbe914d)" d="M 281.944615 306.558063 
L 290.269091 306.68674 
L 298.593566 306.668411 
L 306.918042 306.620384 
L 315.242517 306.557483 
L 323.566993 306.494687 
L 331.891469 306.426986 
L 348.54042 306.344805 
L 356.864895 306.027002 
L 365.189371 305.873244 
L 373.513846 305.751212 
L 381.838322 305.644531 
L 390.162797 305.53777 
L 398.487273 305.435704 
" style="fill:none;stroke:#427165;stroke-linecap:square;stroke-width:2;"/>
   </g>
  </g>
 </g>
 <defs>
  <clipPath id="p5f1dbe914d">
   <rect height="266.112" width="357.12" x="57.6" y="41.472"/>
  </clipPath>
 </defs>
</svg>
