<?xml version="1.0" encoding="utf-8" standalone="no"?>
<!DOCTYPE svg PUBLIC "-//W3C//DTD SVG 1.1//EN"
  "http://www.w3.org/Graphics/SVG/1.1/DTD/svg11.dtd">
<svg height="345.6pt" version="1.1" viewBox="0 0 460.8 345.6" width="460.8pt" xmlns="http://www.w3.org/2000/svg" xmlns:xlink="http://www.w3.org/1999/xlink">
 <metadata>
  <rdf:RDF xmlns:cc="http://creativecommons.org/ns#" xmlns:dc="http://purl.org/dc/elements/1.1/" xmlns:rdf="http://www.w3.org/1999/02/22-rdf-syntax-ns#">
   <cc:Work>
    <dc:type rdf:resource="http://purl.org/dc/dcmitype/StillImage"/>
    <dc:date>2021-05-21T13:25:46.860054</dc:date>
    <dc:format>image/svg+xml</dc:format>
    <dc:creator>
     <cc:Agent>
      <dc:title>Matplotlib v3.4.2, https://matplotlib.org/</dc:title>
     </cc:Agent>
    </dc:creator>
   </cc:Work>
  </rdf:RDF>
 </metadata>
 <defs>
  <style type="text/css">*{stroke-linecap:butt;stroke-linejoin:round;}</style>
 </defs>
 <g id="figure_1">
  <g id="patch_1">
   <path d="M 0 345.6 
L 460.8 345.6 
L 460.8 0 
L 0 0 
z
" style="fill:none;"/>
  </g>
  <g id="axes_1">
   <g id="matplotlib.axis_1"/>
   <g id="matplotlib.axis_2"/>
   <g id="PolyCollection_1">
    <defs>
     <path d="M 287.629623 -39.411558 
L 287.629623 -38.016 
L 295.548027 -38.016 
L 303.46643 -38.016 
L 311.384834 -38.016 
L 319.303237 -38.016 
L 335.140044 -38.016 
L 343.058448 -38.016 
L 350.976851 -38.016 
L 358.895255 -38.016 
L 366.813659 -38.016 
L 374.732062 -38.016 
L 382.650466 -38.016 
L 390.568869 -38.016 
L 398.487273 -38.016 
L 398.487273 -40.339568 
L 398.487273 -40.339568 
L 390.568869 -40.216318 
L 382.650466 -40.12726 
L 374.732062 -40.035198 
L 366.813659 -39.953032 
L 358.895255 -39.870865 
L 350.976851 -39.786004 
L 343.058448 -39.686126 
L 335.140044 -39.607232 
L 319.303237 -39.565841 
L 311.384834 -39.535847 
L 303.46643 -39.502079 
L 295.548027 -39.457146 
L 287.629623 -39.411558 
z
" id="mca6c0c2fc5" style="stroke:#7ea297;stroke-opacity:0.5;"/>
    </defs>
    <g clip-path="url(#p2cf8b55cbf)">
     <use style="fill:#7ea297;fill-opacity:0.5;stroke:#7ea297;stroke-opacity:0.5;" x="0" xlink:href="#mca6c0c2fc5" y="345.6"/>
    </g>
   </g>
   <g id="PolyCollection_2">
    <defs>
     <path d="M 73.832727 -38.051231 
L 73.832727 -38.016 
L 81.751131 -38.016 
L 89.669534 -38.016 
L 97.587938 -38.016 
L 105.506341 -38.016 
L 113.424745 -38.016 
L 129.261552 -38.016 
L 137.179956 -38.016 
L 145.098359 -38.016 
L 153.016763 -38.016 
L 160.935166 -38.016 
L 168.85357 -38.016 
L 176.771973 -38.016 
L 184.690377 -38.016 
L 192.60878 -38.016 
L 200.527184 -38.016 
L 208.445588 -38.016 
L 216.363991 -38.016 
L 224.282395 -38.016 
L 232.200798 -38.016 
L 240.119202 -38.016 
L 263.874412 -38.016 
L 271.792816 -38.016 
L 279.71122 -38.016 
L 287.629623 -38.016 
L 287.629623 -39.411558 
L 287.629623 -39.411558 
L 279.71122 -39.392537 
L 271.792816 -39.378868 
L 263.874412 -39.360271 
L 240.119202 -39.341019 
L 232.200798 -39.319919 
L 224.282395 -39.268055 
L 216.363991 -39.119779 
L 208.445588 -38.968306 
L 200.527184 -38.811481 
L 192.60878 -38.660278 
L 184.690377 -38.50973 
L 176.771973 -38.364803 
L 168.85357 -38.261806 
L 160.935166 -38.258572 
L 153.016763 -38.258572 
L 145.098359 -38.258572 
L 137.179956 -38.25811 
L 129.261552 -38.249947 
L 113.424745 -38.224034 
L 105.506341 -38.189381 
L 97.587938 -38.154728 
L 89.669534 -38.120075 
L 81.751131 -38.085422 
L 73.832727 -38.051231 
z
" id="me2d9e2a6ec" style="stroke:#7ea297;stroke-opacity:0.3;"/>
    </defs>
    <g clip-path="url(#p2cf8b55cbf)">
     <use style="fill:#7ea297;fill-opacity:0.3;stroke:#7ea297;stroke-opacity:0.3;" x="0" xlink:href="#me2d9e2a6ec" y="345.6"/>
    </g>
   </g>
   <g id="line2d_1">
    <path clip-path="url(#p2cf8b55cbf)" d="M 73.832727 307.548769 
L 81.751131 307.514578 
L 89.669534 307.479925 
L 97.587938 307.445272 
L 105.506341 307.410619 
L 113.424745 307.375966 
L 129.261552 307.350053 
L 137.179956 307.34189 
L 145.098359 307.341428 
L 153.016763 307.341428 
L 160.935166 307.341428 
L 168.85357 307.338194 
L 176.771973 307.235197 
L 184.690377 307.09027 
L 192.60878 306.939722 
L 200.527184 306.788519 
L 208.445588 306.631694 
L 216.363991 306.480221 
L 224.282395 306.331945 
L 232.200798 306.280081 
L 240.119202 306.258981 
L 263.874412 306.239729 
L 271.792816 306.221132 
L 279.71122 306.207463 
L 287.629623 306.188442 
L 295.548027 306.142854 
L 303.46643 306.097921 
L 311.384834 306.064153 
L 319.303237 306.034159 
L 335.140044 305.992768 
L 343.058448 305.913874 
L 350.976851 305.813996 
L 358.895255 305.729135 
L 366.813659 305.646968 
L 374.732062 305.564802 
L 382.650466 305.47274 
L 390.568869 305.383682 
L 398.487273 305.260432 
" style="fill:none;stroke:#60897e;stroke-linecap:square;stroke-width:2;"/>
   </g>
   <g id="line2d_2">
    <path clip-path="url(#p2cf8b55cbf)" d="M 287.629623 306.188442 
L 295.548027 306.142854 
L 303.46643 306.097921 
L 311.384834 306.064153 
L 319.303237 306.034159 
L 335.140044 305.992768 
L 343.058448 305.913874 
L 350.976851 305.813996 
L 358.895255 305.729135 
L 366.813659 305.646968 
L 374.732062 305.564802 
L 382.650466 305.47274 
L 390.568869 305.383682 
L 398.487273 305.260432 
" style="fill:none;stroke:#427165;stroke-linecap:square;stroke-width:2;"/>
   </g>
  </g>
 </g>
 <defs>
  <clipPath id="p2cf8b55cbf">
   <rect height="266.112" width="357.12" x="57.6" y="41.472"/>
  </clipPath>
 </defs>
</svg>
