<?xml version="1.0" encoding="utf-8" standalone="no"?>
<!DOCTYPE svg PUBLIC "-//W3C//DTD SVG 1.1//EN"
  "http://www.w3.org/Graphics/SVG/1.1/DTD/svg11.dtd">
<svg height="345.6pt" version="1.1" viewBox="0 0 460.8 345.6" width="460.8pt" xmlns="http://www.w3.org/2000/svg" xmlns:xlink="http://www.w3.org/1999/xlink">
 <metadata>
  <rdf:RDF xmlns:cc="http://creativecommons.org/ns#" xmlns:dc="http://purl.org/dc/elements/1.1/" xmlns:rdf="http://www.w3.org/1999/02/22-rdf-syntax-ns#">
   <cc:Work>
    <dc:type rdf:resource="http://purl.org/dc/dcmitype/StillImage"/>
    <dc:date>2021-05-17T13:25:21.151666</dc:date>
    <dc:format>image/svg+xml</dc:format>
    <dc:creator>
     <cc:Agent>
      <dc:title>Matplotlib v3.4.2, https://matplotlib.org/</dc:title>
     </cc:Agent>
    </dc:creator>
   </cc:Work>
  </rdf:RDF>
 </metadata>
 <defs>
  <style type="text/css">*{stroke-linecap:butt;stroke-linejoin:round;}</style>
 </defs>
 <g id="figure_1">
  <g id="patch_1">
   <path d="M 0 345.6 
L 460.8 345.6 
L 460.8 0 
L 0 0 
z
" style="fill:none;"/>
  </g>
  <g id="axes_1">
   <g id="matplotlib.axis_1"/>
   <g id="matplotlib.axis_2"/>
   <g id="PolyCollection_1">
    <defs>
     <path d="M 258.096118 -39.086652 
L 258.096118 -38.016 
L 284.419459 -38.016 
L 293.193907 -38.016 
L 301.968354 -38.016 
L 310.742801 -38.016 
L 319.517248 -38.016 
L 328.291695 -38.016 
L 337.066143 -38.016 
L 345.84059 -38.016 
L 363.389484 -38.016 
L 372.163931 -38.016 
L 380.938378 -38.016 
L 389.712826 -38.016 
L 398.487273 -38.016 
L 398.487273 -39.531179 
L 398.487273 -39.531179 
L 389.712826 -39.446274 
L 380.938378 -39.359709 
L 372.163931 -39.308724 
L 363.389484 -39.290374 
L 345.84059 -39.282037 
L 337.066143 -39.275591 
L 328.291695 -39.264488 
L 319.517248 -39.252426 
L 310.742801 -39.240386 
L 301.968354 -39.222614 
L 293.193907 -39.185416 
L 284.419459 -39.140567 
L 258.096118 -39.086652 
z
" id="me03a14f3b6" style="stroke:#7ea297;stroke-opacity:0.5;"/>
    </defs>
    <g clip-path="url(#pd0ad31f376)">
     <use style="fill:#7ea297;fill-opacity:0.5;stroke:#7ea297;stroke-opacity:0.5;" x="0" xlink:href="#me03a14f3b6" y="345.6"/>
    </g>
   </g>
   <g id="PolyCollection_2">
    <defs>
     <path d="M 73.832727 -38.026489 
L 73.832727 -38.016 
L 82.607174 -38.016 
L 91.381622 -38.016 
L 100.156069 -38.016 
L 108.930516 -38.016 
L 117.704963 -38.016 
L 135.253857 -38.016 
L 144.028305 -38.016 
L 152.802752 -38.016 
L 161.577199 -38.016 
L 170.351646 -38.016 
L 179.126093 -38.016 
L 187.900541 -38.016 
L 196.674988 -38.016 
L 205.449435 -38.016 
L 214.223882 -38.016 
L 222.998329 -38.016 
L 231.772776 -38.016 
L 240.547224 -38.016 
L 249.321671 -38.016 
L 258.096118 -38.016 
L 258.096118 -39.086652 
L 258.096118 -39.086652 
L 249.321671 -38.975089 
L 240.547224 -38.834399 
L 231.772776 -38.67367 
L 222.998329 -38.519019 
L 214.223882 -38.384219 
L 205.449435 -38.260067 
L 196.674988 -38.145083 
L 187.900541 -38.092279 
L 179.126093 -38.069417 
L 170.351646 -38.067808 
L 161.577199 -38.065967 
L 152.802752 -38.064278 
L 144.028305 -38.062567 
L 135.253857 -38.058575 
L 117.704963 -38.054208 
L 108.930516 -38.049754 
L 100.156069 -38.044622 
L 91.381622 -38.038385 
L 82.607174 -38.032292 
L 73.832727 -38.026489 
z
" id="m37e5d26e24" style="stroke:#7ea297;stroke-opacity:0.3;"/>
    </defs>
    <g clip-path="url(#pd0ad31f376)">
     <use style="fill:#7ea297;fill-opacity:0.3;stroke:#7ea297;stroke-opacity:0.3;" x="0" xlink:href="#m37e5d26e24" y="345.6"/>
    </g>
   </g>
   <g id="line2d_1">
    <path clip-path="url(#pd0ad31f376)" d="M 73.832727 307.573511 
L 82.607174 307.567708 
L 91.381622 307.561615 
L 100.156069 307.555378 
L 108.930516 307.550246 
L 117.704963 307.545792 
L 135.253857 307.541425 
L 144.028305 307.537433 
L 152.802752 307.535722 
L 161.577199 307.534033 
L 170.351646 307.532192 
L 179.126093 307.530583 
L 187.900541 307.507721 
L 196.674988 307.454917 
L 205.449435 307.339933 
L 214.223882 307.215781 
L 222.998329 307.080981 
L 231.772776 306.92633 
L 240.547224 306.765601 
L 249.321671 306.624911 
L 258.096118 306.513348 
L 284.419459 306.459433 
L 293.193907 306.414584 
L 301.968354 306.377386 
L 310.742801 306.359614 
L 319.517248 306.347574 
L 328.291695 306.335512 
L 337.066143 306.324409 
L 345.84059 306.317963 
L 363.389484 306.309626 
L 372.163931 306.291276 
L 380.938378 306.240291 
L 389.712826 306.153726 
L 398.487273 306.068821 
" style="fill:none;stroke:#60897e;stroke-linecap:square;stroke-width:2;"/>
   </g>
   <g id="line2d_2">
    <path clip-path="url(#pd0ad31f376)" d="M 258.096118 306.513348 
L 284.419459 306.459433 
L 293.193907 306.414584 
L 301.968354 306.377386 
L 310.742801 306.359614 
L 319.517248 306.347574 
L 328.291695 306.335512 
L 337.066143 306.324409 
L 345.84059 306.317963 
L 363.389484 306.309626 
L 372.163931 306.291276 
L 380.938378 306.240291 
L 389.712826 306.153726 
L 398.487273 306.068821 
" style="fill:none;stroke:#427165;stroke-linecap:square;stroke-width:2;"/>
   </g>
  </g>
 </g>
 <defs>
  <clipPath id="pd0ad31f376">
   <rect height="266.112" width="357.12" x="57.6" y="41.472"/>
  </clipPath>
 </defs>
</svg>
