<?xml version="1.0" encoding="utf-8" standalone="no"?>
<!DOCTYPE svg PUBLIC "-//W3C//DTD SVG 1.1//EN"
  "http://www.w3.org/Graphics/SVG/1.1/DTD/svg11.dtd">
<svg height="345.6pt" version="1.1" viewBox="0 0 460.8 345.6" width="460.8pt" xmlns="http://www.w3.org/2000/svg" xmlns:xlink="http://www.w3.org/1999/xlink">
 <metadata>
  <rdf:RDF xmlns:cc="http://creativecommons.org/ns#" xmlns:dc="http://purl.org/dc/elements/1.1/" xmlns:rdf="http://www.w3.org/1999/02/22-rdf-syntax-ns#">
   <cc:Work>
    <dc:type rdf:resource="http://purl.org/dc/dcmitype/StillImage"/>
    <dc:date>2021-05-17T10:41:12.685505</dc:date>
    <dc:format>image/svg+xml</dc:format>
    <dc:creator>
     <cc:Agent>
      <dc:title>Matplotlib v3.4.2, https://matplotlib.org/</dc:title>
     </cc:Agent>
    </dc:creator>
   </cc:Work>
  </rdf:RDF>
 </metadata>
 <defs>
  <style type="text/css">*{stroke-linecap:butt;stroke-linejoin:round;}</style>
 </defs>
 <g id="figure_1">
  <g id="patch_1">
   <path d="M 0 345.6 
L 460.8 345.6 
L 460.8 0 
L 0 0 
z
" style="fill:none;"/>
  </g>
  <g id="axes_1">
   <g id="matplotlib.axis_1"/>
   <g id="matplotlib.axis_2"/>
   <g id="PolyCollection_1">
    <defs>
     <path d="M 258.096118 -38.852772 
L 258.096118 -38.016 
L 284.419459 -38.016 
L 293.193907 -38.016 
L 301.968354 -38.016 
L 310.742801 -38.016 
L 319.517248 -38.016 
L 328.291695 -38.016 
L 337.066143 -38.016 
L 345.84059 -38.016 
L 363.389484 -38.016 
L 372.163931 -38.016 
L 380.938378 -38.016 
L 389.712826 -38.016 
L 398.487273 -38.016 
L 398.487273 -40.581577 
L 398.487273 -40.581577 
L 389.712826 -40.180688 
L 380.938378 -39.769077 
L 372.163931 -39.491371 
L 363.389484 -39.289736 
L 345.84059 -39.159954 
L 337.066143 -39.136344 
L 328.291695 -39.116737 
L 319.517248 -39.099618 
L 310.742801 -39.078016 
L 301.968354 -39.046039 
L 293.193907 -38.993602 
L 284.419459 -38.929252 
L 258.096118 -38.852772 
z
" id="mdb81557a69" style="stroke:#7ea297;stroke-opacity:0.5;"/>
    </defs>
    <g clip-path="url(#pcf146b2b49)">
     <use style="fill:#7ea297;fill-opacity:0.5;stroke:#7ea297;stroke-opacity:0.5;" x="0" xlink:href="#mdb81557a69" y="345.6"/>
    </g>
   </g>
   <g id="PolyCollection_2">
    <defs>
     <path d="M 73.832727 -38.02712 
L 73.832727 -38.016 
L 82.607174 -38.016 
L 91.381622 -38.016 
L 100.156069 -38.016 
L 108.930516 -38.016 
L 117.704963 -38.016 
L 135.253857 -38.016 
L 144.028305 -38.016 
L 152.802752 -38.016 
L 161.577199 -38.016 
L 170.351646 -38.016 
L 179.126093 -38.016 
L 187.900541 -38.016 
L 196.674988 -38.016 
L 205.449435 -38.016 
L 214.223882 -38.016 
L 222.998329 -38.016 
L 231.772776 -38.016 
L 240.547224 -38.016 
L 249.321671 -38.016 
L 258.096118 -38.016 
L 258.096118 -38.852772 
L 258.096118 -38.852772 
L 249.321671 -38.749989 
L 240.547224 -38.629559 
L 231.772776 -38.518169 
L 222.998329 -38.410325 
L 214.223882 -38.319083 
L 205.449435 -38.240078 
L 196.674988 -38.173408 
L 187.900541 -38.134759 
L 179.126093 -38.116667 
L 170.351646 -38.104333 
L 161.577199 -38.099344 
L 152.802752 -38.098623 
L 144.028305 -38.097902 
L 135.253857 -38.0948 
L 117.704963 -38.084726 
L 108.930516 -38.072873 
L 100.156069 -38.061417 
L 91.381622 -38.04996 
L 82.607174 -38.03854 
L 73.832727 -38.02712 
z
" id="m1d200b19fe" style="stroke:#7ea297;stroke-opacity:0.3;"/>
    </defs>
    <g clip-path="url(#pcf146b2b49)">
     <use style="fill:#7ea297;fill-opacity:0.3;stroke:#7ea297;stroke-opacity:0.3;" x="0" xlink:href="#m1d200b19fe" y="345.6"/>
    </g>
   </g>
   <g id="line2d_1">
    <path clip-path="url(#pcf146b2b49)" d="M 73.832727 307.57288 
L 82.607174 307.56146 
L 91.381622 307.55004 
L 100.156069 307.538583 
L 108.930516 307.527127 
L 117.704963 307.515274 
L 135.253857 307.5052 
L 144.028305 307.502098 
L 152.802752 307.501377 
L 161.577199 307.500656 
L 170.351646 307.495667 
L 179.126093 307.483333 
L 187.900541 307.465241 
L 196.674988 307.426592 
L 205.449435 307.359922 
L 214.223882 307.280917 
L 222.998329 307.189675 
L 231.772776 307.081831 
L 240.547224 306.970441 
L 249.321671 306.850011 
L 258.096118 306.747228 
L 284.419459 306.670748 
L 293.193907 306.606398 
L 301.968354 306.553961 
L 310.742801 306.521984 
L 319.517248 306.500382 
L 328.291695 306.483263 
L 337.066143 306.463656 
L 345.84059 306.440046 
L 363.389484 306.310264 
L 372.163931 306.108629 
L 380.938378 305.830923 
L 389.712826 305.419312 
L 398.487273 305.018423 
" style="fill:none;stroke:#60897e;stroke-linecap:square;stroke-width:2;"/>
   </g>
   <g id="line2d_2">
    <path clip-path="url(#pcf146b2b49)" d="M 258.096118 306.747228 
L 284.419459 306.670748 
L 293.193907 306.606398 
L 301.968354 306.553961 
L 310.742801 306.521984 
L 319.517248 306.500382 
L 328.291695 306.483263 
L 337.066143 306.463656 
L 345.84059 306.440046 
L 363.389484 306.310264 
L 372.163931 306.108629 
L 380.938378 305.830923 
L 389.712826 305.419312 
L 398.487273 305.018423 
" style="fill:none;stroke:#427165;stroke-linecap:square;stroke-width:2;"/>
   </g>
  </g>
 </g>
 <defs>
  <clipPath id="pcf146b2b49">
   <rect height="266.112" width="357.12" x="57.6" y="41.472"/>
  </clipPath>
 </defs>
</svg>
