<?xml version="1.0" encoding="utf-8" standalone="no"?>
<!DOCTYPE svg PUBLIC "-//W3C//DTD SVG 1.1//EN"
  "http://www.w3.org/Graphics/SVG/1.1/DTD/svg11.dtd">
<svg height="345.6pt" version="1.1" viewBox="0 0 460.8 345.6" width="460.8pt" xmlns="http://www.w3.org/2000/svg" xmlns:xlink="http://www.w3.org/1999/xlink">
 <metadata>
  <rdf:RDF xmlns:cc="http://creativecommons.org/ns#" xmlns:dc="http://purl.org/dc/elements/1.1/" xmlns:rdf="http://www.w3.org/1999/02/22-rdf-syntax-ns#">
   <cc:Work>
    <dc:type rdf:resource="http://purl.org/dc/dcmitype/StillImage"/>
    <dc:date>2021-05-17T13:25:22.525296</dc:date>
    <dc:format>image/svg+xml</dc:format>
    <dc:creator>
     <cc:Agent>
      <dc:title>Matplotlib v3.4.2, https://matplotlib.org/</dc:title>
     </cc:Agent>
    </dc:creator>
   </cc:Work>
  </rdf:RDF>
 </metadata>
 <defs>
  <style type="text/css">*{stroke-linecap:butt;stroke-linejoin:round;}</style>
 </defs>
 <g id="figure_1">
  <g id="patch_1">
   <path d="M 0 345.6 
L 460.8 345.6 
L 460.8 0 
L 0 0 
z
" style="fill:none;"/>
  </g>
  <g id="axes_1">
   <g id="matplotlib.axis_1"/>
   <g id="matplotlib.axis_2"/>
   <g id="PolyCollection_1">
    <defs>
     <path d="M 258.096118 -38.713487 
L 258.096118 -38.016 
L 284.419459 -38.016 
L 293.193907 -38.016 
L 301.968354 -38.016 
L 310.742801 -38.016 
L 319.517248 -38.016 
L 328.291695 -38.016 
L 337.066143 -38.016 
L 345.84059 -38.016 
L 363.389484 -38.016 
L 372.163931 -38.016 
L 380.938378 -38.016 
L 389.712826 -38.016 
L 398.487273 -38.016 
L 398.487273 -39.198913 
L 398.487273 -39.198913 
L 389.712826 -39.123625 
L 380.938378 -39.044791 
L 372.163931 -38.988218 
L 363.389484 -38.95891 
L 345.84059 -38.941478 
L 337.066143 -38.928762 
L 328.291695 -38.910695 
L 319.517248 -38.883235 
L 310.742801 -38.848453 
L 301.968354 -38.819601 
L 293.193907 -38.785218 
L 284.419459 -38.750725 
L 258.096118 -38.713487 
z
" id="m1ec9bf5505" style="stroke:#7ea297;stroke-opacity:0.5;"/>
    </defs>
    <g clip-path="url(#p3414bb450d)">
     <use style="fill:#7ea297;fill-opacity:0.5;stroke:#7ea297;stroke-opacity:0.5;" x="0" xlink:href="#m1ec9bf5505" y="345.6"/>
    </g>
   </g>
   <g id="PolyCollection_2">
    <defs>
     <path d="M 73.832727 -38.031612 
L 73.832727 -38.016 
L 82.607174 -38.016 
L 91.381622 -38.016 
L 100.156069 -38.016 
L 108.930516 -38.016 
L 117.704963 -38.016 
L 135.253857 -38.016 
L 144.028305 -38.016 
L 152.802752 -38.016 
L 161.577199 -38.016 
L 170.351646 -38.016 
L 179.126093 -38.016 
L 187.900541 -38.016 
L 196.674988 -38.016 
L 205.449435 -38.016 
L 214.223882 -38.016 
L 222.998329 -38.016 
L 231.772776 -38.016 
L 240.547224 -38.016 
L 249.321671 -38.016 
L 258.096118 -38.016 
L 258.096118 -38.713487 
L 258.096118 -38.713487 
L 249.321671 -38.654307 
L 240.547224 -38.576963 
L 231.772776 -38.496654 
L 222.998329 -38.41549 
L 214.223882 -38.337581 
L 205.449435 -38.260334 
L 196.674988 -38.186162 
L 187.900541 -38.139298 
L 179.126093 -38.120155 
L 170.351646 -38.114845 
L 161.577199 -38.110997 
L 152.802752 -38.110997 
L 144.028305 -38.110611 
L 135.253857 -38.107535 
L 117.704963 -38.099081 
L 108.930516 -38.08551 
L 100.156069 -38.071939 
L 91.381622 -38.058368 
L 82.607174 -38.044797 
L 73.832727 -38.031612 
z
" id="m3fa676d3a5" style="stroke:#7ea297;stroke-opacity:0.3;"/>
    </defs>
    <g clip-path="url(#p3414bb450d)">
     <use style="fill:#7ea297;fill-opacity:0.3;stroke:#7ea297;stroke-opacity:0.3;" x="0" xlink:href="#m3fa676d3a5" y="345.6"/>
    </g>
   </g>
   <g id="line2d_1">
    <path clip-path="url(#p3414bb450d)" d="M 73.832727 307.568388 
L 82.607174 307.555203 
L 91.381622 307.541632 
L 100.156069 307.528061 
L 108.930516 307.51449 
L 117.704963 307.500919 
L 135.253857 307.492465 
L 144.028305 307.489389 
L 152.802752 307.489003 
L 161.577199 307.489003 
L 170.351646 307.485155 
L 179.126093 307.479845 
L 187.900541 307.460702 
L 196.674988 307.413838 
L 205.449435 307.339666 
L 214.223882 307.262419 
L 222.998329 307.18451 
L 231.772776 307.103346 
L 240.547224 307.023037 
L 249.321671 306.945693 
L 258.096118 306.886513 
L 284.419459 306.849275 
L 293.193907 306.814782 
L 301.968354 306.780399 
L 310.742801 306.751547 
L 319.517248 306.716765 
L 328.291695 306.689305 
L 337.066143 306.671238 
L 345.84059 306.658522 
L 363.389484 306.64109 
L 372.163931 306.611782 
L 380.938378 306.555209 
L 389.712826 306.476375 
L 398.487273 306.401087 
" style="fill:none;stroke:#60897e;stroke-linecap:square;stroke-width:2;"/>
   </g>
   <g id="line2d_2">
    <path clip-path="url(#p3414bb450d)" d="M 258.096118 306.886513 
L 284.419459 306.849275 
L 293.193907 306.814782 
L 301.968354 306.780399 
L 310.742801 306.751547 
L 319.517248 306.716765 
L 328.291695 306.689305 
L 337.066143 306.671238 
L 345.84059 306.658522 
L 363.389484 306.64109 
L 372.163931 306.611782 
L 380.938378 306.555209 
L 389.712826 306.476375 
L 398.487273 306.401087 
" style="fill:none;stroke:#427165;stroke-linecap:square;stroke-width:2;"/>
   </g>
  </g>
 </g>
 <defs>
  <clipPath id="p3414bb450d">
   <rect height="266.112" width="357.12" x="57.6" y="41.472"/>
  </clipPath>
 </defs>
</svg>
