<?xml version="1.0" encoding="utf-8" standalone="no"?>
<!DOCTYPE svg PUBLIC "-//W3C//DTD SVG 1.1//EN"
  "http://www.w3.org/Graphics/SVG/1.1/DTD/svg11.dtd">
<!-- Created with matplotlib (https://matplotlib.org/) -->
<svg height="288pt" version="1.1" viewBox="0 0 432 288" width="432pt" xmlns="http://www.w3.org/2000/svg" xmlns:xlink="http://www.w3.org/1999/xlink">
 <metadata>
  <rdf:RDF xmlns:cc="http://creativecommons.org/ns#" xmlns:dc="http://purl.org/dc/elements/1.1/" xmlns:rdf="http://www.w3.org/1999/02/22-rdf-syntax-ns#">
   <cc:Work>
    <dc:type rdf:resource="http://purl.org/dc/dcmitype/StillImage"/>
    <dc:date>2021-05-14T21:42:58.615495</dc:date>
    <dc:format>image/svg+xml</dc:format>
    <dc:creator>
     <cc:Agent>
      <dc:title>Matplotlib v3.3.2, https://matplotlib.org/</dc:title>
     </cc:Agent>
    </dc:creator>
   </cc:Work>
  </rdf:RDF>
 </metadata>
 <defs>
  <style type="text/css">*{stroke-linecap:butt;stroke-linejoin:round;}</style>
 </defs>
 <g id="figure_1">
  <g id="patch_1">
   <path d="M 0 288 
L 432 288 
L 432 0 
L 0 0 
z
" style="fill:none;"/>
  </g>
  <g id="axes_1">
   <g id="matplotlib.axis_1"/>
   <g id="matplotlib.axis_2"/>
   <g id="PolyCollection_1">
    <defs>
     <path d="M 234.444156 -36.458363 
L 234.444156 -36 
L 243.14026 -36 
L 251.836364 -36 
L 277.924675 -36 
L 286.620779 -36 
L 295.316883 -36 
L 304.012987 -36 
L 312.709091 -36 
L 321.405195 -36 
L 330.101299 -36 
L 338.797403 -36 
L 356.18961 -36 
L 364.885714 -36 
L 373.581818 -36 
L 373.581818 -36.840625 
L 373.581818 -36.840625 
L 364.885714 -36.794399 
L 356.18961 -36.770452 
L 338.797403 -36.756207 
L 330.101299 -36.745817 
L 321.405195 -36.731055 
L 312.709091 -36.708618 
L 304.012987 -36.680197 
L 295.316883 -36.656622 
L 286.620779 -36.628528 
L 277.924675 -36.600343 
L 251.836364 -36.569917 
L 243.14026 -36.52156 
L 234.444156 -36.458363 
z
" id="m0efdd3f585" style="stroke:#7ea297;stroke-opacity:0.5;"/>
    </defs>
    <g clip-path="url(#pbb1a8f5a70)">
     <use style="fill:#7ea297;fill-opacity:0.5;stroke:#7ea297;stroke-opacity:0.5;" x="0" xlink:href="#m0efdd3f585" y="288"/>
    </g>
   </g>
   <g id="PolyCollection_2">
    <defs>
     <path d="M 69.218182 -36.012757 
L 69.218182 -36 
L 77.914286 -36 
L 86.61039 -36 
L 95.306494 -36 
L 104.002597 -36 
L 112.698701 -36 
L 130.090909 -36 
L 138.787013 -36 
L 147.483117 -36 
L 156.179221 -36 
L 164.875325 -36 
L 173.571429 -36 
L 182.267532 -36 
L 190.963636 -36 
L 199.65974 -36 
L 208.355844 -36 
L 217.051948 -36 
L 225.748052 -36 
L 234.444156 -36 
L 234.444156 -36.458363 
L 234.444156 -36.458363 
L 225.748052 -36.392742 
L 217.051948 -36.326423 
L 208.355844 -36.262764 
L 199.65974 -36.199645 
L 190.963636 -36.139039 
L 182.267532 -36.100747 
L 173.571429 -36.085105 
L 164.875325 -36.080766 
L 156.179221 -36.077622 
L 147.483117 -36.077622 
L 138.787013 -36.077307 
L 130.090909 -36.074794 
L 112.698701 -36.067886 
L 104.002597 -36.056797 
L 95.306494 -36.045708 
L 86.61039 -36.034619 
L 77.914286 -36.02353 
L 69.218182 -36.012757 
z
" id="ma34b6febec" style="stroke:#7ea297;stroke-opacity:0.3;"/>
    </defs>
    <g clip-path="url(#pbb1a8f5a70)">
     <use style="fill:#7ea297;fill-opacity:0.3;stroke:#7ea297;stroke-opacity:0.3;" x="0" xlink:href="#ma34b6febec" y="288"/>
    </g>
   </g>
   <g id="line2d_1">
    <path clip-path="url(#pbb1a8f5a70)" d="M 69.218182 251.987243 
L 77.914286 251.97647 
L 86.61039 251.965381 
L 95.306494 251.954292 
L 104.002597 251.943203 
L 112.698701 251.932114 
L 130.090909 251.925206 
L 138.787013 251.922693 
L 147.483117 251.922378 
L 156.179221 251.922378 
L 164.875325 251.919234 
L 173.571429 251.914895 
L 182.267532 251.899253 
L 190.963636 251.860961 
L 199.65974 251.800355 
L 208.355844 251.737236 
L 217.051948 251.673577 
L 225.748052 251.607258 
L 234.444156 251.541637 
L 243.14026 251.47844 
L 251.836364 251.430083 
L 277.924675 251.399657 
L 286.620779 251.371472 
L 295.316883 251.343378 
L 304.012987 251.319803 
L 312.709091 251.291382 
L 321.405195 251.268945 
L 330.101299 251.254183 
L 338.797403 251.243793 
L 356.18961 251.229548 
L 364.885714 251.205601 
L 373.581818 251.159375 
" style="fill:none;stroke:#60897e;stroke-linecap:square;stroke-width:2;"/>
   </g>
   <g id="line2d_2">
    <path clip-path="url(#pbb1a8f5a70)" d="M 234.444156 251.541637 
L 243.14026 251.47844 
L 251.836364 251.430083 
L 277.924675 251.399657 
L 286.620779 251.371472 
L 295.316883 251.343378 
L 304.012987 251.319803 
L 312.709091 251.291382 
L 321.405195 251.268945 
L 330.101299 251.254183 
L 338.797403 251.243793 
L 356.18961 251.229548 
L 364.885714 251.205601 
L 373.581818 251.159375 
" style="fill:none;stroke:#427165;stroke-linecap:square;stroke-width:2;"/>
   </g>
  </g>
 </g>
 <defs>
  <clipPath id="pbb1a8f5a70">
   <rect height="217.44" width="334.8" x="54" y="34.56"/>
  </clipPath>
 </defs>
</svg>
