<?xml version="1.0" encoding="utf-8" standalone="no"?>
<!DOCTYPE svg PUBLIC "-//W3C//DTD SVG 1.1//EN"
  "http://www.w3.org/Graphics/SVG/1.1/DTD/svg11.dtd">
<svg height="345.6pt" version="1.1" viewBox="0 0 460.8 345.6" width="460.8pt" xmlns="http://www.w3.org/2000/svg" xmlns:xlink="http://www.w3.org/1999/xlink">
 <metadata>
  <rdf:RDF xmlns:cc="http://creativecommons.org/ns#" xmlns:dc="http://purl.org/dc/elements/1.1/" xmlns:rdf="http://www.w3.org/1999/02/22-rdf-syntax-ns#">
   <cc:Work>
    <dc:type rdf:resource="http://purl.org/dc/dcmitype/StillImage"/>
    <dc:date>2021-05-18T13:26:36.491814</dc:date>
    <dc:format>image/svg+xml</dc:format>
    <dc:creator>
     <cc:Agent>
      <dc:title>Matplotlib v3.4.2, https://matplotlib.org/</dc:title>
     </cc:Agent>
    </dc:creator>
   </cc:Work>
  </rdf:RDF>
 </metadata>
 <defs>
  <style type="text/css">*{stroke-linecap:butt;stroke-linejoin:round;}</style>
 </defs>
 <g id="figure_1">
  <g id="patch_1">
   <path d="M 0 345.6 
L 460.8 345.6 
L 460.8 0 
L 0 0 
z
" style="fill:none;"/>
  </g>
  <g id="axes_1">
   <g id="matplotlib.axis_1"/>
   <g id="matplotlib.axis_2"/>
   <g id="PolyCollection_1">
    <defs>
     <path d="M 281.944615 -38.764489 
L 281.944615 -38.016 
L 290.269091 -38.016 
L 298.593566 -38.016 
L 306.918042 -38.016 
L 315.242517 -38.016 
L 323.566993 -38.016 
L 331.891469 -38.016 
L 348.54042 -38.016 
L 356.864895 -38.016 
L 365.189371 -38.016 
L 373.513846 -38.016 
L 381.838322 -38.016 
L 390.162797 -38.016 
L 398.487273 -38.016 
L 398.487273 -39.608451 
L 398.487273 -39.608451 
L 390.162797 -39.495392 
L 381.838322 -39.388729 
L 373.513846 -39.279183 
L 365.189371 -39.154007 
L 356.864895 -39.041845 
L 348.54042 -38.949396 
L 331.891469 -38.912871 
L 323.566993 -38.888422 
L 315.242517 -38.858312 
L 306.918042 -38.827795 
L 298.593566 -38.807735 
L 290.269091 -38.78686 
L 281.944615 -38.764489 
z
" id="m4f9c9614a9" style="stroke:#7ea297;stroke-opacity:0.5;"/>
    </defs>
    <g clip-path="url(#p2b1b3284e9)">
     <use style="fill:#7ea297;fill-opacity:0.5;stroke:#7ea297;stroke-opacity:0.5;" x="0" xlink:href="#m4f9c9614a9" y="345.6"/>
    </g>
   </g>
   <g id="PolyCollection_2">
    <defs>
     <path d="M 73.832727 -38.01602 
L 73.832727 -38.016 
L 82.157203 -38.016 
L 90.481678 -38.016 
L 98.806154 -38.016 
L 107.130629 -38.016 
L 115.455105 -38.016 
L 132.104056 -38.016 
L 140.428531 -38.016 
L 148.753007 -38.016 
L 157.077483 -38.016 
L 165.401958 -38.016 
L 173.726434 -38.016 
L 182.050909 -38.016 
L 190.375385 -38.016 
L 198.69986 -38.016 
L 207.024336 -38.016 
L 215.348811 -38.016 
L 223.673287 -38.016 
L 231.997762 -38.016 
L 240.322238 -38.016 
L 248.646713 -38.016 
L 273.62014 -38.016 
L 281.944615 -38.016 
L 281.944615 -38.764489 
L 281.944615 -38.764489 
L 273.62014 -38.739277 
L 248.646713 -38.714248 
L 240.322238 -38.684473 
L 231.997762 -38.644557 
L 223.673287 -38.553147 
L 215.348811 -38.466116 
L 207.024336 -38.378412 
L 198.69986 -38.293427 
L 190.375385 -38.204767 
L 182.050909 -38.126279 
L 173.726434 -38.060478 
L 165.401958 -38.051344 
L 157.077483 -38.042159 
L 148.753007 -38.035958 
L 140.428531 -38.030256 
L 132.104056 -38.027313 
L 115.455105 -38.025195 
L 107.130629 -38.023118 
L 98.806154 -38.02104 
L 90.481678 -38.019024 
L 82.157203 -38.01709 
L 73.832727 -38.01602 
z
" id="m6696a4dc78" style="stroke:#7ea297;stroke-opacity:0.3;"/>
    </defs>
    <g clip-path="url(#p2b1b3284e9)">
     <use style="fill:#7ea297;fill-opacity:0.3;stroke:#7ea297;stroke-opacity:0.3;" x="0" xlink:href="#m6696a4dc78" y="345.6"/>
    </g>
   </g>
   <g id="line2d_1">
    <path clip-path="url(#p2b1b3284e9)" d="M 73.832727 307.58398 
L 82.157203 307.58291 
L 90.481678 307.580976 
L 98.806154 307.57896 
L 107.130629 307.576882 
L 115.455105 307.574805 
L 132.104056 307.572687 
L 140.428531 307.569744 
L 148.753007 307.564042 
L 157.077483 307.557841 
L 165.401958 307.548656 
L 173.726434 307.539522 
L 182.050909 307.473721 
L 190.375385 307.395233 
L 198.69986 307.306573 
L 207.024336 307.221588 
L 215.348811 307.133884 
L 223.673287 307.046853 
L 231.997762 306.955443 
L 240.322238 306.915527 
L 248.646713 306.885752 
L 273.62014 306.860723 
L 281.944615 306.835511 
L 290.269091 306.81314 
L 298.593566 306.792265 
L 306.918042 306.772205 
L 315.242517 306.741688 
L 323.566993 306.711578 
L 331.891469 306.687129 
L 348.54042 306.650604 
L 356.864895 306.558155 
L 365.189371 306.445993 
L 373.513846 306.320817 
L 381.838322 306.211271 
L 390.162797 306.104608 
L 398.487273 305.991549 
" style="fill:none;stroke:#60897e;stroke-linecap:square;stroke-width:2;"/>
   </g>
   <g id="line2d_2">
    <path clip-path="url(#p2b1b3284e9)" d="M 281.944615 306.835511 
L 290.269091 306.81314 
L 298.593566 306.792265 
L 306.918042 306.772205 
L 315.242517 306.741688 
L 323.566993 306.711578 
L 331.891469 306.687129 
L 348.54042 306.650604 
L 356.864895 306.558155 
L 365.189371 306.445993 
L 373.513846 306.320817 
L 381.838322 306.211271 
L 390.162797 306.104608 
L 398.487273 305.991549 
" style="fill:none;stroke:#427165;stroke-linecap:square;stroke-width:2;"/>
   </g>
  </g>
 </g>
 <defs>
  <clipPath id="p2b1b3284e9">
   <rect height="266.112" width="357.12" x="57.6" y="41.472"/>
  </clipPath>
 </defs>
</svg>
