<?xml version="1.0" encoding="utf-8" standalone="no"?>
<!DOCTYPE svg PUBLIC "-//W3C//DTD SVG 1.1//EN"
  "http://www.w3.org/Graphics/SVG/1.1/DTD/svg11.dtd">
<!-- Created with matplotlib (https://matplotlib.org/) -->
<svg height="288pt" version="1.1" viewBox="0 0 432 288" width="432pt" xmlns="http://www.w3.org/2000/svg" xmlns:xlink="http://www.w3.org/1999/xlink">
 <metadata>
  <rdf:RDF xmlns:cc="http://creativecommons.org/ns#" xmlns:dc="http://purl.org/dc/elements/1.1/" xmlns:rdf="http://www.w3.org/1999/02/22-rdf-syntax-ns#">
   <cc:Work>
    <dc:type rdf:resource="http://purl.org/dc/dcmitype/StillImage"/>
    <dc:date>2021-05-14T21:42:58.679216</dc:date>
    <dc:format>image/svg+xml</dc:format>
    <dc:creator>
     <cc:Agent>
      <dc:title>Matplotlib v3.3.2, https://matplotlib.org/</dc:title>
     </cc:Agent>
    </dc:creator>
   </cc:Work>
  </rdf:RDF>
 </metadata>
 <defs>
  <style type="text/css">*{stroke-linecap:butt;stroke-linejoin:round;}</style>
 </defs>
 <g id="figure_1">
  <g id="patch_1">
   <path d="M 0 288 
L 432 288 
L 432 0 
L 0 0 
z
" style="fill:none;"/>
  </g>
  <g id="axes_1">
   <g id="matplotlib.axis_1"/>
   <g id="matplotlib.axis_2"/>
   <g id="PolyCollection_1">
    <defs>
     <path d="M 234.444156 -36.513594 
L 234.444156 -36 
L 243.14026 -36 
L 251.836364 -36 
L 277.924675 -36 
L 286.620779 -36 
L 295.316883 -36 
L 304.012987 -36 
L 312.709091 -36 
L 321.405195 -36 
L 330.101299 -36 
L 338.797403 -36 
L 356.18961 -36 
L 364.885714 -36 
L 373.581818 -36 
L 373.581818 -36.929865 
L 373.581818 -36.929865 
L 364.885714 -36.838218 
L 356.18961 -36.762678 
L 338.797403 -36.732833 
L 330.101299 -36.712856 
L 321.405195 -36.688253 
L 312.709091 -36.663317 
L 304.012987 -36.646926 
L 295.316883 -36.62987 
L 286.620779 -36.61159 
L 277.924675 -36.590989 
L 251.836364 -36.570538 
L 243.14026 -36.546209 
L 234.444156 -36.513594 
z
" id="mbb68d8c469" style="stroke:#7ea297;stroke-opacity:0.5;"/>
    </defs>
    <g clip-path="url(#pc16165bc45)">
     <use style="fill:#7ea297;fill-opacity:0.5;stroke:#7ea297;stroke-opacity:0.5;" x="0" xlink:href="#mbb68d8c469" y="288"/>
    </g>
   </g>
   <g id="PolyCollection_2">
    <defs>
     <path d="M 69.218182 -36.000017 
L 69.218182 -36 
L 77.914286 -36 
L 86.61039 -36 
L 95.306494 -36 
L 104.002597 -36 
L 112.698701 -36 
L 130.090909 -36 
L 138.787013 -36 
L 147.483117 -36 
L 156.179221 -36 
L 164.875325 -36 
L 173.571429 -36 
L 182.267532 -36 
L 190.963636 -36 
L 199.65974 -36 
L 208.355844 -36 
L 217.051948 -36 
L 225.748052 -36 
L 234.444156 -36 
L 234.444156 -36.513594 
L 234.444156 -36.513594 
L 225.748052 -36.438903 
L 217.051948 -36.367789 
L 208.355844 -36.296127 
L 199.65974 -36.226686 
L 190.963636 -36.154241 
L 182.267532 -36.090109 
L 173.571429 -36.036343 
L 164.875325 -36.02888 
L 156.179221 -36.021375 
L 147.483117 -36.016308 
L 138.787013 -36.011648 
L 130.090909 -36.009244 
L 112.698701 -36.007513 
L 104.002597 -36.005816 
L 95.306494 -36.004119 
L 86.61039 -36.002471 
L 77.914286 -36.00089 
L 69.218182 -36.000017 
z
" id="m38820e5661" style="stroke:#7ea297;stroke-opacity:0.3;"/>
    </defs>
    <g clip-path="url(#pc16165bc45)">
     <use style="fill:#7ea297;fill-opacity:0.3;stroke:#7ea297;stroke-opacity:0.3;" x="0" xlink:href="#m38820e5661" y="288"/>
    </g>
   </g>
   <g id="line2d_1">
    <path clip-path="url(#pc16165bc45)" d="M 69.218182 251.999983 
L 77.914286 251.99911 
L 86.61039 251.997529 
L 95.306494 251.995881 
L 104.002597 251.994184 
L 112.698701 251.992487 
L 130.090909 251.990756 
L 138.787013 251.988352 
L 147.483117 251.983692 
L 156.179221 251.978625 
L 164.875325 251.97112 
L 173.571429 251.963657 
L 182.267532 251.909891 
L 190.963636 251.845759 
L 199.65974 251.773314 
L 208.355844 251.703873 
L 217.051948 251.632211 
L 225.748052 251.561097 
L 234.444156 251.486406 
L 243.14026 251.453791 
L 251.836364 251.429462 
L 277.924675 251.409011 
L 286.620779 251.38841 
L 295.316883 251.37013 
L 304.012987 251.353074 
L 312.709091 251.336683 
L 321.405195 251.311747 
L 330.101299 251.287144 
L 338.797403 251.267167 
L 356.18961 251.237322 
L 364.885714 251.161782 
L 373.581818 251.070135 
" style="fill:none;stroke:#60897e;stroke-linecap:square;stroke-width:2;"/>
   </g>
   <g id="line2d_2">
    <path clip-path="url(#pc16165bc45)" d="M 234.444156 251.486406 
L 243.14026 251.453791 
L 251.836364 251.429462 
L 277.924675 251.409011 
L 286.620779 251.38841 
L 295.316883 251.37013 
L 304.012987 251.353074 
L 312.709091 251.336683 
L 321.405195 251.311747 
L 330.101299 251.287144 
L 338.797403 251.267167 
L 356.18961 251.237322 
L 364.885714 251.161782 
L 373.581818 251.070135 
" style="fill:none;stroke:#427165;stroke-linecap:square;stroke-width:2;"/>
   </g>
  </g>
 </g>
 <defs>
  <clipPath id="pc16165bc45">
   <rect height="217.44" width="334.8" x="54" y="34.56"/>
  </clipPath>
 </defs>
</svg>
