<?xml version="1.0" encoding="utf-8" standalone="no"?>
<!DOCTYPE svg PUBLIC "-//W3C//DTD SVG 1.1//EN"
  "http://www.w3.org/Graphics/SVG/1.1/DTD/svg11.dtd">
<svg height="345.6pt" version="1.1" viewBox="0 0 460.8 345.6" width="460.8pt" xmlns="http://www.w3.org/2000/svg" xmlns:xlink="http://www.w3.org/1999/xlink">
 <metadata>
  <rdf:RDF xmlns:cc="http://creativecommons.org/ns#" xmlns:dc="http://purl.org/dc/elements/1.1/" xmlns:rdf="http://www.w3.org/1999/02/22-rdf-syntax-ns#">
   <cc:Work>
    <dc:type rdf:resource="http://purl.org/dc/dcmitype/StillImage"/>
    <dc:date>2021-05-21T13:25:47.829891</dc:date>
    <dc:format>image/svg+xml</dc:format>
    <dc:creator>
     <cc:Agent>
      <dc:title>Matplotlib v3.4.2, https://matplotlib.org/</dc:title>
     </cc:Agent>
    </dc:creator>
   </cc:Work>
  </rdf:RDF>
 </metadata>
 <defs>
  <style type="text/css">*{stroke-linecap:butt;stroke-linejoin:round;}</style>
 </defs>
 <g id="figure_1">
  <g id="patch_1">
   <path d="M 0 345.6 
L 460.8 345.6 
L 460.8 0 
L 0 0 
z
" style="fill:none;"/>
  </g>
  <g id="axes_1">
   <g id="matplotlib.axis_1"/>
   <g id="matplotlib.axis_2"/>
   <g id="PolyCollection_1">
    <defs>
     <path d="M 287.629623 -38.807735 
L 287.629623 -38.016 
L 295.548027 -38.016 
L 303.46643 -38.016 
L 311.384834 -38.016 
L 319.303237 -38.016 
L 335.140044 -38.016 
L 343.058448 -38.016 
L 350.976851 -38.016 
L 358.895255 -38.016 
L 366.813659 -38.016 
L 374.732062 -38.016 
L 382.650466 -38.016 
L 390.568869 -38.016 
L 398.487273 -38.016 
L 398.487273 -39.775029 
L 398.487273 -39.775029 
L 390.568869 -39.716734 
L 382.650466 -39.608451 
L 374.732062 -39.495392 
L 366.813659 -39.388729 
L 358.895255 -39.279183 
L 350.976851 -39.154007 
L 343.058448 -39.041845 
L 335.140044 -38.949396 
L 319.303237 -38.912871 
L 311.384834 -38.888422 
L 303.46643 -38.858312 
L 295.548027 -38.827795 
L 287.629623 -38.807735 
z
" id="mdbd6c890d8" style="stroke:#7ea297;stroke-opacity:0.5;"/>
    </defs>
    <g clip-path="url(#pb8a377439a)">
     <use style="fill:#7ea297;fill-opacity:0.5;stroke:#7ea297;stroke-opacity:0.5;" x="0" xlink:href="#mdbd6c890d8" y="345.6"/>
    </g>
   </g>
   <g id="PolyCollection_2">
    <defs>
     <path d="M 73.832727 -38.01602 
L 73.832727 -38.016 
L 81.751131 -38.016 
L 89.669534 -38.016 
L 97.587938 -38.016 
L 105.506341 -38.016 
L 113.424745 -38.016 
L 129.261552 -38.016 
L 137.179956 -38.016 
L 145.098359 -38.016 
L 153.016763 -38.016 
L 160.935166 -38.016 
L 168.85357 -38.016 
L 176.771973 -38.016 
L 184.690377 -38.016 
L 192.60878 -38.016 
L 200.527184 -38.016 
L 208.445588 -38.016 
L 216.363991 -38.016 
L 224.282395 -38.016 
L 232.200798 -38.016 
L 240.119202 -38.016 
L 263.874412 -38.016 
L 271.792816 -38.016 
L 279.71122 -38.016 
L 287.629623 -38.016 
L 287.629623 -38.807735 
L 287.629623 -38.807735 
L 279.71122 -38.78686 
L 271.792816 -38.764489 
L 263.874412 -38.739277 
L 240.119202 -38.714248 
L 232.200798 -38.684473 
L 224.282395 -38.644557 
L 216.363991 -38.553147 
L 208.445588 -38.466116 
L 200.527184 -38.378412 
L 192.60878 -38.293427 
L 184.690377 -38.204767 
L 176.771973 -38.126279 
L 168.85357 -38.060478 
L 160.935166 -38.051344 
L 153.016763 -38.042159 
L 145.098359 -38.035958 
L 137.179956 -38.030256 
L 129.261552 -38.027313 
L 113.424745 -38.025195 
L 105.506341 -38.023118 
L 97.587938 -38.02104 
L 89.669534 -38.019024 
L 81.751131 -38.01709 
L 73.832727 -38.01602 
z
" id="mf7a81d51ee" style="stroke:#7ea297;stroke-opacity:0.3;"/>
    </defs>
    <g clip-path="url(#pb8a377439a)">
     <use style="fill:#7ea297;fill-opacity:0.3;stroke:#7ea297;stroke-opacity:0.3;" x="0" xlink:href="#mf7a81d51ee" y="345.6"/>
    </g>
   </g>
   <g id="line2d_1">
    <path clip-path="url(#pb8a377439a)" d="M 73.832727 307.58398 
L 81.751131 307.58291 
L 89.669534 307.580976 
L 97.587938 307.57896 
L 105.506341 307.576882 
L 113.424745 307.574805 
L 129.261552 307.572687 
L 137.179956 307.569744 
L 145.098359 307.564042 
L 153.016763 307.557841 
L 160.935166 307.548656 
L 168.85357 307.539522 
L 176.771973 307.473721 
L 184.690377 307.395233 
L 192.60878 307.306573 
L 200.527184 307.221588 
L 208.445588 307.133884 
L 216.363991 307.046853 
L 224.282395 306.955443 
L 232.200798 306.915527 
L 240.119202 306.885752 
L 263.874412 306.860723 
L 271.792816 306.835511 
L 279.71122 306.81314 
L 287.629623 306.792265 
L 295.548027 306.772205 
L 303.46643 306.741688 
L 311.384834 306.711578 
L 319.303237 306.687129 
L 335.140044 306.650604 
L 343.058448 306.558155 
L 350.976851 306.445993 
L 358.895255 306.320817 
L 366.813659 306.211271 
L 374.732062 306.104608 
L 382.650466 305.991549 
L 390.568869 305.883266 
L 398.487273 305.824971 
" style="fill:none;stroke:#60897e;stroke-linecap:square;stroke-width:2;"/>
   </g>
   <g id="line2d_2">
    <path clip-path="url(#pb8a377439a)" d="M 287.629623 306.792265 
L 295.548027 306.772205 
L 303.46643 306.741688 
L 311.384834 306.711578 
L 319.303237 306.687129 
L 335.140044 306.650604 
L 343.058448 306.558155 
L 350.976851 306.445993 
L 358.895255 306.320817 
L 366.813659 306.211271 
L 374.732062 306.104608 
L 382.650466 305.991549 
L 390.568869 305.883266 
L 398.487273 305.824971 
" style="fill:none;stroke:#427165;stroke-linecap:square;stroke-width:2;"/>
   </g>
  </g>
 </g>
 <defs>
  <clipPath id="pb8a377439a">
   <rect height="266.112" width="357.12" x="57.6" y="41.472"/>
  </clipPath>
 </defs>
</svg>
