<?xml version="1.0" encoding="utf-8" standalone="no"?>
<!DOCTYPE svg PUBLIC "-//W3C//DTD SVG 1.1//EN"
  "http://www.w3.org/Graphics/SVG/1.1/DTD/svg11.dtd">
<svg height="345.6pt" version="1.1" viewBox="0 0 460.8 345.6" width="460.8pt" xmlns="http://www.w3.org/2000/svg" xmlns:xlink="http://www.w3.org/1999/xlink">
 <metadata>
  <rdf:RDF xmlns:cc="http://creativecommons.org/ns#" xmlns:dc="http://purl.org/dc/elements/1.1/" xmlns:rdf="http://www.w3.org/1999/02/22-rdf-syntax-ns#">
   <cc:Work>
    <dc:type rdf:resource="http://purl.org/dc/dcmitype/StillImage"/>
    <dc:date>2021-05-15T11:19:07.697246</dc:date>
    <dc:format>image/svg+xml</dc:format>
    <dc:creator>
     <cc:Agent>
      <dc:title>Matplotlib v3.4.2, https://matplotlib.org/</dc:title>
     </cc:Agent>
    </dc:creator>
   </cc:Work>
  </rdf:RDF>
 </metadata>
 <defs>
  <style type="text/css">*{stroke-linecap:butt;stroke-linejoin:round;}</style>
 </defs>
 <g id="figure_1">
  <g id="patch_1">
   <path d="M 0 345.6 
L 460.8 345.6 
L 460.8 0 
L 0 0 
z
" style="fill:none;"/>
  </g>
  <g id="axes_1">
   <g id="matplotlib.axis_1"/>
   <g id="matplotlib.axis_2"/>
   <g id="PolyCollection_1">
    <defs>
     <path d="M 250.073766 -38.644557 
L 250.073766 -38.016 
L 259.34961 -38.016 
L 268.625455 -38.016 
L 296.452987 -38.016 
L 305.728831 -38.016 
L 315.004675 -38.016 
L 324.280519 -38.016 
L 333.556364 -38.016 
L 342.832208 -38.016 
L 352.108052 -38.016 
L 361.383896 -38.016 
L 379.935584 -38.016 
L 389.211429 -38.016 
L 398.487273 -38.016 
L 398.487273 -39.154007 
L 398.487273 -39.154007 
L 389.211429 -39.041845 
L 379.935584 -38.949396 
L 361.383896 -38.912871 
L 352.108052 -38.888422 
L 342.832208 -38.858312 
L 333.556364 -38.827795 
L 324.280519 -38.807735 
L 315.004675 -38.78686 
L 305.728831 -38.764489 
L 296.452987 -38.739277 
L 268.625455 -38.714248 
L 259.34961 -38.684473 
L 250.073766 -38.644557 
z
" id="m9b9da13056" style="stroke:#7ea297;stroke-opacity:0.5;"/>
    </defs>
    <g clip-path="url(#p382b7c7772)">
     <use style="fill:#7ea297;fill-opacity:0.5;stroke:#7ea297;stroke-opacity:0.5;" x="0" xlink:href="#m9b9da13056" y="345.6"/>
    </g>
   </g>
   <g id="PolyCollection_2">
    <defs>
     <path d="M 73.832727 -38.01602 
L 73.832727 -38.016 
L 83.108571 -38.016 
L 92.384416 -38.016 
L 101.66026 -38.016 
L 110.936104 -38.016 
L 120.211948 -38.016 
L 138.763636 -38.016 
L 148.039481 -38.016 
L 157.315325 -38.016 
L 166.591169 -38.016 
L 175.867013 -38.016 
L 185.142857 -38.016 
L 194.418701 -38.016 
L 203.694545 -38.016 
L 212.97039 -38.016 
L 222.246234 -38.016 
L 231.522078 -38.016 
L 240.797922 -38.016 
L 250.073766 -38.016 
L 250.073766 -38.644557 
L 250.073766 -38.644557 
L 240.797922 -38.553147 
L 231.522078 -38.466116 
L 222.246234 -38.378412 
L 212.97039 -38.293427 
L 203.694545 -38.204767 
L 194.418701 -38.126279 
L 185.142857 -38.060478 
L 175.867013 -38.051344 
L 166.591169 -38.042159 
L 157.315325 -38.035958 
L 148.039481 -38.030256 
L 138.763636 -38.027313 
L 120.211948 -38.025195 
L 110.936104 -38.023118 
L 101.66026 -38.02104 
L 92.384416 -38.019024 
L 83.108571 -38.01709 
L 73.832727 -38.01602 
z
" id="mde53c0d64d" style="stroke:#7ea297;stroke-opacity:0.3;"/>
    </defs>
    <g clip-path="url(#p382b7c7772)">
     <use style="fill:#7ea297;fill-opacity:0.3;stroke:#7ea297;stroke-opacity:0.3;" x="0" xlink:href="#mde53c0d64d" y="345.6"/>
    </g>
   </g>
   <g id="line2d_1">
    <path clip-path="url(#p382b7c7772)" d="M 73.832727 307.58398 
L 83.108571 307.58291 
L 92.384416 307.580976 
L 101.66026 307.57896 
L 110.936104 307.576882 
L 120.211948 307.574805 
L 138.763636 307.572687 
L 148.039481 307.569744 
L 157.315325 307.564042 
L 166.591169 307.557841 
L 175.867013 307.548656 
L 185.142857 307.539522 
L 194.418701 307.473721 
L 203.694545 307.395233 
L 212.97039 307.306573 
L 222.246234 307.221588 
L 231.522078 307.133884 
L 240.797922 307.046853 
L 250.073766 306.955443 
L 259.34961 306.915527 
L 268.625455 306.885752 
L 296.452987 306.860723 
L 305.728831 306.835511 
L 315.004675 306.81314 
L 324.280519 306.792265 
L 333.556364 306.772205 
L 342.832208 306.741688 
L 352.108052 306.711578 
L 361.383896 306.687129 
L 379.935584 306.650604 
L 389.211429 306.558155 
L 398.487273 306.445993 
" style="fill:none;stroke:#60897e;stroke-linecap:square;stroke-width:2;"/>
   </g>
   <g id="line2d_2">
    <path clip-path="url(#p382b7c7772)" d="M 250.073766 306.955443 
L 259.34961 306.915527 
L 268.625455 306.885752 
L 296.452987 306.860723 
L 305.728831 306.835511 
L 315.004675 306.81314 
L 324.280519 306.792265 
L 333.556364 306.772205 
L 342.832208 306.741688 
L 352.108052 306.711578 
L 361.383896 306.687129 
L 379.935584 306.650604 
L 389.211429 306.558155 
L 398.487273 306.445993 
" style="fill:none;stroke:#427165;stroke-linecap:square;stroke-width:2;"/>
   </g>
  </g>
 </g>
 <defs>
  <clipPath id="p382b7c7772">
   <rect height="266.112" width="357.12" x="57.6" y="41.472"/>
  </clipPath>
 </defs>
</svg>
