<?xml version="1.0" encoding="utf-8" standalone="no"?>
<!DOCTYPE svg PUBLIC "-//W3C//DTD SVG 1.1//EN"
  "http://www.w3.org/Graphics/SVG/1.1/DTD/svg11.dtd">
<svg height="345.6pt" version="1.1" viewBox="0 0 460.8 345.6" width="460.8pt" xmlns="http://www.w3.org/2000/svg" xmlns:xlink="http://www.w3.org/1999/xlink">
 <metadata>
  <rdf:RDF xmlns:cc="http://creativecommons.org/ns#" xmlns:dc="http://purl.org/dc/elements/1.1/" xmlns:rdf="http://www.w3.org/1999/02/22-rdf-syntax-ns#">
   <cc:Work>
    <dc:type rdf:resource="http://purl.org/dc/dcmitype/StillImage"/>
    <dc:date>2021-05-17T13:25:23.117909</dc:date>
    <dc:format>image/svg+xml</dc:format>
    <dc:creator>
     <cc:Agent>
      <dc:title>Matplotlib v3.4.2, https://matplotlib.org/</dc:title>
     </cc:Agent>
    </dc:creator>
   </cc:Work>
  </rdf:RDF>
 </metadata>
 <defs>
  <style type="text/css">*{stroke-linecap:butt;stroke-linejoin:round;}</style>
 </defs>
 <g id="figure_1">
  <g id="patch_1">
   <path d="M 0 345.6 
L 460.8 345.6 
L 460.8 0 
L 0 0 
z
" style="fill:none;"/>
  </g>
  <g id="axes_1">
   <g id="matplotlib.axis_1"/>
   <g id="matplotlib.axis_2"/>
   <g id="PolyCollection_1">
    <defs>
     <path d="M 258.096118 -38.867893 
L 258.096118 -38.016 
L 284.419459 -38.016 
L 293.193907 -38.016 
L 301.968354 -38.016 
L 310.742801 -38.016 
L 319.517248 -38.016 
L 328.291695 -38.016 
L 337.066143 -38.016 
L 345.84059 -38.016 
L 363.389484 -38.016 
L 372.163931 -38.016 
L 380.938378 -38.016 
L 389.712826 -38.016 
L 398.487273 -38.016 
L 398.487273 -39.938849 
L 398.487273 -39.938849 
L 389.712826 -39.797062 
L 380.938378 -39.625261 
L 372.163931 -39.480594 
L 363.389484 -39.368431 
L 345.84059 -39.278636 
L 337.066143 -39.233365 
L 328.291695 -39.17291 
L 319.517248 -39.10271 
L 310.742801 -39.050433 
L 301.968354 -38.998157 
L 293.193907 -38.946485 
L 284.419459 -38.907082 
L 258.096118 -38.867893 
z
" id="m572105a203" style="stroke:#7ea297;stroke-opacity:0.5;"/>
    </defs>
    <g clip-path="url(#pbc43adc7d7)">
     <use style="fill:#7ea297;fill-opacity:0.5;stroke:#7ea297;stroke-opacity:0.5;" x="0" xlink:href="#m572105a203" y="345.6"/>
    </g>
   </g>
   <g id="PolyCollection_2">
    <defs>
     <path d="M 73.832727 -38.039933 
L 73.832727 -38.016 
L 82.607174 -38.016 
L 91.381622 -38.016 
L 100.156069 -38.016 
L 108.930516 -38.016 
L 117.704963 -38.016 
L 135.253857 -38.016 
L 144.028305 -38.016 
L 152.802752 -38.016 
L 161.577199 -38.016 
L 170.351646 -38.016 
L 179.126093 -38.016 
L 187.900541 -38.016 
L 196.674988 -38.016 
L 205.449435 -38.016 
L 214.223882 -38.016 
L 222.998329 -38.016 
L 231.772776 -38.016 
L 240.547224 -38.016 
L 249.321671 -38.016 
L 258.096118 -38.016 
L 258.096118 -38.867893 
L 258.096118 -38.867893 
L 249.321671 -38.836065 
L 240.547224 -38.779912 
L 231.772776 -38.695203 
L 222.998329 -38.610493 
L 214.223882 -38.525713 
L 205.449435 -38.440968 
L 196.674988 -38.356224 
L 187.900541 -38.279231 
L 179.126093 -38.236592 
L 170.351646 -38.234601 
L 161.577199 -38.232289 
L 152.802752 -38.228342 
L 144.028305 -38.223648 
L 135.253857 -38.206649 
L 117.704963 -38.183854 
L 108.930516 -38.154124 
L 100.156069 -38.124394 
L 91.381622 -38.094877 
L 82.607174 -38.067032 
L 73.832727 -38.039933 
z
" id="m10a7dc9206" style="stroke:#7ea297;stroke-opacity:0.3;"/>
    </defs>
    <g clip-path="url(#pbc43adc7d7)">
     <use style="fill:#7ea297;fill-opacity:0.3;stroke:#7ea297;stroke-opacity:0.3;" x="0" xlink:href="#m10a7dc9206" y="345.6"/>
    </g>
   </g>
   <g id="line2d_1">
    <path clip-path="url(#pbc43adc7d7)" d="M 73.832727 307.560067 
L 82.607174 307.532968 
L 91.381622 307.505123 
L 100.156069 307.475606 
L 108.930516 307.445876 
L 117.704963 307.416146 
L 135.253857 307.393351 
L 144.028305 307.376352 
L 152.802752 307.371658 
L 161.577199 307.367711 
L 170.351646 307.365399 
L 179.126093 307.363408 
L 187.900541 307.320769 
L 196.674988 307.243776 
L 205.449435 307.159032 
L 214.223882 307.074287 
L 222.998329 306.989507 
L 231.772776 306.904797 
L 240.547224 306.820088 
L 249.321671 306.763935 
L 258.096118 306.732107 
L 284.419459 306.692918 
L 293.193907 306.653515 
L 301.968354 306.601843 
L 310.742801 306.549567 
L 319.517248 306.49729 
L 328.291695 306.42709 
L 337.066143 306.366635 
L 345.84059 306.321364 
L 363.389484 306.231569 
L 372.163931 306.119406 
L 380.938378 305.974739 
L 389.712826 305.802938 
L 398.487273 305.661151 
" style="fill:none;stroke:#60897e;stroke-linecap:square;stroke-width:2;"/>
   </g>
   <g id="line2d_2">
    <path clip-path="url(#pbc43adc7d7)" d="M 258.096118 306.732107 
L 284.419459 306.692918 
L 293.193907 306.653515 
L 301.968354 306.601843 
L 310.742801 306.549567 
L 319.517248 306.49729 
L 328.291695 306.42709 
L 337.066143 306.366635 
L 345.84059 306.321364 
L 363.389484 306.231569 
L 372.163931 306.119406 
L 380.938378 305.974739 
L 389.712826 305.802938 
L 398.487273 305.661151 
" style="fill:none;stroke:#427165;stroke-linecap:square;stroke-width:2;"/>
   </g>
  </g>
 </g>
 <defs>
  <clipPath id="pbc43adc7d7">
   <rect height="266.112" width="357.12" x="57.6" y="41.472"/>
  </clipPath>
 </defs>
</svg>
