<?xml version="1.0" encoding="utf-8" standalone="no"?>
<!DOCTYPE svg PUBLIC "-//W3C//DTD SVG 1.1//EN"
  "http://www.w3.org/Graphics/SVG/1.1/DTD/svg11.dtd">
<svg height="345.6pt" version="1.1" viewBox="0 0 460.8 345.6" width="460.8pt" xmlns="http://www.w3.org/2000/svg" xmlns:xlink="http://www.w3.org/1999/xlink">
 <metadata>
  <rdf:RDF xmlns:cc="http://creativecommons.org/ns#" xmlns:dc="http://purl.org/dc/elements/1.1/" xmlns:rdf="http://www.w3.org/1999/02/22-rdf-syntax-ns#">
   <cc:Work>
    <dc:type rdf:resource="http://purl.org/dc/dcmitype/StillImage"/>
    <dc:date>2021-05-18T13:26:34.278979</dc:date>
    <dc:format>image/svg+xml</dc:format>
    <dc:creator>
     <cc:Agent>
      <dc:title>Matplotlib v3.4.2, https://matplotlib.org/</dc:title>
     </cc:Agent>
    </dc:creator>
   </cc:Work>
  </rdf:RDF>
 </metadata>
 <defs>
  <style type="text/css">*{stroke-linecap:butt;stroke-linejoin:round;}</style>
 </defs>
 <g id="figure_1">
  <g id="patch_1">
   <path d="M 0 345.6 
L 460.8 345.6 
L 460.8 0 
L 0 0 
z
" style="fill:none;"/>
  </g>
  <g id="axes_1">
   <g id="matplotlib.axis_1"/>
   <g id="matplotlib.axis_2"/>
   <g id="PolyCollection_1">
    <defs>
     <path d="M 281.944615 -39.034543 
L 281.944615 -38.016 
L 290.269091 -38.016 
L 298.593566 -38.016 
L 306.918042 -38.016 
L 315.242517 -38.016 
L 323.566993 -38.016 
L 331.891469 -38.016 
L 348.54042 -38.016 
L 356.864895 -38.016 
L 365.189371 -38.016 
L 373.513846 -38.016 
L 381.838322 -38.016 
L 390.162797 -38.016 
L 398.487273 -38.016 
L 398.487273 -39.704852 
L 398.487273 -39.704852 
L 390.162797 -39.633631 
L 381.838322 -39.563237 
L 373.513846 -39.491712 
L 365.189371 -39.423059 
L 356.864895 -39.371708 
L 348.54042 -39.344639 
L 331.891469 -39.335582 
L 323.566993 -39.323095 
L 315.242517 -39.298865 
L 306.918042 -39.252905 
L 298.593566 -39.192818 
L 290.269091 -39.112726 
L 281.944615 -39.034543 
z
" id="m11fc982d25" style="stroke:#7ea297;stroke-opacity:0.5;"/>
    </defs>
    <g clip-path="url(#p326cfcac02)">
     <use style="fill:#7ea297;fill-opacity:0.5;stroke:#7ea297;stroke-opacity:0.5;" x="0" xlink:href="#m11fc982d25" y="345.6"/>
    </g>
   </g>
   <g id="PolyCollection_2">
    <defs>
     <path d="M 73.832727 -38.057651 
L 73.832727 -38.016 
L 82.157203 -38.016 
L 90.481678 -38.016 
L 98.806154 -38.016 
L 107.130629 -38.016 
L 115.455105 -38.016 
L 132.104056 -38.016 
L 140.428531 -38.016 
L 148.753007 -38.016 
L 157.077483 -38.016 
L 165.401958 -38.016 
L 173.726434 -38.016 
L 182.050909 -38.016 
L 190.375385 -38.016 
L 198.69986 -38.016 
L 207.024336 -38.016 
L 215.348811 -38.016 
L 223.673287 -38.016 
L 231.997762 -38.016 
L 240.322238 -38.016 
L 248.646713 -38.016 
L 273.62014 -38.016 
L 281.944615 -38.016 
L 281.944615 -39.034543 
L 281.944615 -39.034543 
L 273.62014 -38.962088 
L 248.646713 -38.894128 
L 240.322238 -38.813984 
L 231.997762 -38.717502 
L 223.673287 -38.602314 
L 215.348811 -38.507926 
L 207.024336 -38.415888 
L 198.69986 -38.3239 
L 190.375385 -38.231912 
L 182.050909 -38.163884 
L 173.726434 -38.133925 
L 165.401958 -38.133925 
L 157.077483 -38.133705 
L 148.753007 -38.133486 
L 140.428531 -38.133266 
L 132.104056 -38.132455 
L 115.455105 -38.128755 
L 107.130629 -38.121151 
L 98.806154 -38.107532 
L 90.481678 -38.090905 
L 82.157203 -38.074278 
L 73.832727 -38.057651 
z
" id="m7223d2aafc" style="stroke:#7ea297;stroke-opacity:0.3;"/>
    </defs>
    <g clip-path="url(#p326cfcac02)">
     <use style="fill:#7ea297;fill-opacity:0.3;stroke:#7ea297;stroke-opacity:0.3;" x="0" xlink:href="#m7223d2aafc" y="345.6"/>
    </g>
   </g>
   <g id="line2d_1">
    <path clip-path="url(#p326cfcac02)" d="M 73.832727 307.542349 
L 82.157203 307.525722 
L 90.481678 307.509095 
L 98.806154 307.492468 
L 107.130629 307.478849 
L 115.455105 307.471245 
L 132.104056 307.467545 
L 140.428531 307.466734 
L 148.753007 307.466514 
L 157.077483 307.466295 
L 165.401958 307.466075 
L 173.726434 307.466075 
L 182.050909 307.436116 
L 190.375385 307.368088 
L 198.69986 307.2761 
L 207.024336 307.184112 
L 215.348811 307.092074 
L 223.673287 306.997686 
L 231.997762 306.882498 
L 240.322238 306.786016 
L 248.646713 306.705872 
L 273.62014 306.637912 
L 281.944615 306.565457 
L 290.269091 306.487274 
L 298.593566 306.407182 
L 306.918042 306.347095 
L 315.242517 306.301135 
L 323.566993 306.276905 
L 331.891469 306.264418 
L 348.54042 306.255361 
L 356.864895 306.228292 
L 365.189371 306.176941 
L 373.513846 306.108288 
L 381.838322 306.036763 
L 390.162797 305.966369 
L 398.487273 305.895148 
" style="fill:none;stroke:#60897e;stroke-linecap:square;stroke-width:2;"/>
   </g>
   <g id="line2d_2">
    <path clip-path="url(#p326cfcac02)" d="M 281.944615 306.565457 
L 290.269091 306.487274 
L 298.593566 306.407182 
L 306.918042 306.347095 
L 315.242517 306.301135 
L 323.566993 306.276905 
L 331.891469 306.264418 
L 348.54042 306.255361 
L 356.864895 306.228292 
L 365.189371 306.176941 
L 373.513846 306.108288 
L 381.838322 306.036763 
L 390.162797 305.966369 
L 398.487273 305.895148 
" style="fill:none;stroke:#427165;stroke-linecap:square;stroke-width:2;"/>
   </g>
  </g>
 </g>
 <defs>
  <clipPath id="p326cfcac02">
   <rect height="266.112" width="357.12" x="57.6" y="41.472"/>
  </clipPath>
 </defs>
</svg>
