<?xml version="1.0" encoding="utf-8" standalone="no"?>
<!DOCTYPE svg PUBLIC "-//W3C//DTD SVG 1.1//EN"
  "http://www.w3.org/Graphics/SVG/1.1/DTD/svg11.dtd">
<svg height="345.6pt" version="1.1" viewBox="0 0 460.8 345.6" width="460.8pt" xmlns="http://www.w3.org/2000/svg" xmlns:xlink="http://www.w3.org/1999/xlink">
 <metadata>
  <rdf:RDF xmlns:cc="http://creativecommons.org/ns#" xmlns:dc="http://purl.org/dc/elements/1.1/" xmlns:rdf="http://www.w3.org/1999/02/22-rdf-syntax-ns#">
   <cc:Work>
    <dc:type rdf:resource="http://purl.org/dc/dcmitype/StillImage"/>
    <dc:date>2021-05-19T13:25:25.195389</dc:date>
    <dc:format>image/svg+xml</dc:format>
    <dc:creator>
     <cc:Agent>
      <dc:title>Matplotlib v3.4.2, https://matplotlib.org/</dc:title>
     </cc:Agent>
    </dc:creator>
   </cc:Work>
  </rdf:RDF>
 </metadata>
 <defs>
  <style type="text/css">*{stroke-linecap:butt;stroke-linejoin:round;}</style>
 </defs>
 <g id="figure_1">
  <g id="patch_1">
   <path d="M 0 345.6 
L 460.8 345.6 
L 460.8 0 
L 0 0 
z
" style="fill:none;"/>
  </g>
  <g id="axes_1">
   <g id="matplotlib.axis_1"/>
   <g id="matplotlib.axis_2"/>
   <g id="PolyCollection_1">
    <defs>
     <path d="M 281.944615 -39.194239 
L 281.944615 -38.016 
L 290.269091 -38.016 
L 298.593566 -38.016 
L 306.918042 -38.016 
L 315.242517 -38.016 
L 323.566993 -38.016 
L 331.891469 -38.016 
L 348.54042 -38.016 
L 356.864895 -38.016 
L 365.189371 -38.016 
L 373.513846 -38.016 
L 381.838322 -38.016 
L 390.162797 -38.016 
L 398.487273 -38.016 
L 398.487273 -40.334027 
L 398.487273 -40.334027 
L 390.162797 -40.201899 
L 381.838322 -40.069821 
L 373.513846 -39.937743 
L 365.189371 -39.763223 
L 356.864895 -39.589006 
L 348.54042 -39.423732 
L 331.891469 -39.348346 
L 323.566993 -39.305903 
L 315.242517 -39.263461 
L 306.918042 -39.214551 
L 298.593566 -39.208083 
L 290.269091 -39.201616 
L 281.944615 -39.194239 
z
" id="m7b25e8d7fc" style="stroke:#7ea297;stroke-opacity:0.5;"/>
    </defs>
    <g clip-path="url(#p73d500b788)">
     <use style="fill:#7ea297;fill-opacity:0.5;stroke:#7ea297;stroke-opacity:0.5;" x="0" xlink:href="#m7b25e8d7fc" y="345.6"/>
    </g>
   </g>
   <g id="PolyCollection_2">
    <defs>
     <path d="M 73.832727 -38.022467 
L 73.832727 -38.016 
L 82.157203 -38.016 
L 90.481678 -38.016 
L 98.806154 -38.016 
L 107.130629 -38.016 
L 115.455105 -38.016 
L 132.104056 -38.016 
L 140.428531 -38.016 
L 148.753007 -38.016 
L 157.077483 -38.016 
L 165.401958 -38.016 
L 173.726434 -38.016 
L 182.050909 -38.016 
L 190.375385 -38.016 
L 198.69986 -38.016 
L 207.024336 -38.016 
L 215.348811 -38.016 
L 223.673287 -38.016 
L 231.997762 -38.016 
L 240.322238 -38.016 
L 248.646713 -38.016 
L 273.62014 -38.016 
L 281.944615 -38.016 
L 281.944615 -39.194239 
L 281.944615 -39.194239 
L 273.62014 -39.187771 
L 248.646713 -39.181304 
L 240.322238 -39.17418 
L 231.997762 -39.162457 
L 223.673287 -39.068073 
L 215.348811 -38.947869 
L 207.024336 -38.828575 
L 198.69986 -38.708068 
L 190.375385 -38.587157 
L 182.050909 -38.428603 
L 173.726434 -38.281115 
L 165.401958 -38.216289 
L 157.077483 -38.177282 
L 148.753007 -38.138275 
L 140.428531 -38.099572 
L 132.104056 -38.061272 
L 115.455105 -38.054805 
L 107.130629 -38.048337 
L 98.806154 -38.04187 
L 90.481678 -38.035402 
L 82.157203 -38.028935 
L 73.832727 -38.022467 
z
" id="m1c46c62fab" style="stroke:#7ea297;stroke-opacity:0.3;"/>
    </defs>
    <g clip-path="url(#p73d500b788)">
     <use style="fill:#7ea297;fill-opacity:0.3;stroke:#7ea297;stroke-opacity:0.3;" x="0" xlink:href="#m1c46c62fab" y="345.6"/>
    </g>
   </g>
   <g id="line2d_1">
    <path clip-path="url(#p73d500b788)" d="M 73.832727 307.577533 
L 82.157203 307.571065 
L 90.481678 307.564598 
L 98.806154 307.55813 
L 107.130629 307.551663 
L 115.455105 307.545195 
L 132.104056 307.538728 
L 140.428531 307.500428 
L 148.753007 307.461725 
L 157.077483 307.422718 
L 165.401958 307.383711 
L 173.726434 307.318885 
L 182.050909 307.171397 
L 190.375385 307.012843 
L 198.69986 306.891932 
L 207.024336 306.771425 
L 215.348811 306.652131 
L 223.673287 306.531927 
L 231.997762 306.437543 
L 240.322238 306.42582 
L 248.646713 306.418696 
L 273.62014 306.412229 
L 281.944615 306.405761 
L 290.269091 306.398384 
L 298.593566 306.391917 
L 306.918042 306.385449 
L 315.242517 306.336539 
L 323.566993 306.294097 
L 331.891469 306.251654 
L 348.54042 306.176268 
L 356.864895 306.010994 
L 365.189371 305.836777 
L 373.513846 305.662257 
L 381.838322 305.530179 
L 390.162797 305.398101 
L 398.487273 305.265973 
" style="fill:none;stroke:#60897e;stroke-linecap:square;stroke-width:2;"/>
   </g>
   <g id="line2d_2">
    <path clip-path="url(#p73d500b788)" d="M 281.944615 306.405761 
L 290.269091 306.398384 
L 298.593566 306.391917 
L 306.918042 306.385449 
L 315.242517 306.336539 
L 323.566993 306.294097 
L 331.891469 306.251654 
L 348.54042 306.176268 
L 356.864895 306.010994 
L 365.189371 305.836777 
L 373.513846 305.662257 
L 381.838322 305.530179 
L 390.162797 305.398101 
L 398.487273 305.265973 
" style="fill:none;stroke:#427165;stroke-linecap:square;stroke-width:2;"/>
   </g>
  </g>
 </g>
 <defs>
  <clipPath id="p73d500b788">
   <rect height="266.112" width="357.12" x="57.6" y="41.472"/>
  </clipPath>
 </defs>
</svg>
