<?xml version="1.0" encoding="utf-8" standalone="no"?>
<!DOCTYPE svg PUBLIC "-//W3C//DTD SVG 1.1//EN"
  "http://www.w3.org/Graphics/SVG/1.1/DTD/svg11.dtd">
<svg height="345.6pt" version="1.1" viewBox="0 0 460.8 345.6" width="460.8pt" xmlns="http://www.w3.org/2000/svg" xmlns:xlink="http://www.w3.org/1999/xlink">
 <metadata>
  <rdf:RDF xmlns:cc="http://creativecommons.org/ns#" xmlns:dc="http://purl.org/dc/elements/1.1/" xmlns:rdf="http://www.w3.org/1999/02/22-rdf-syntax-ns#">
   <cc:Work>
    <dc:type rdf:resource="http://purl.org/dc/dcmitype/StillImage"/>
    <dc:date>2021-05-18T13:26:34.100377</dc:date>
    <dc:format>image/svg+xml</dc:format>
    <dc:creator>
     <cc:Agent>
      <dc:title>Matplotlib v3.4.2, https://matplotlib.org/</dc:title>
     </cc:Agent>
    </dc:creator>
   </cc:Work>
  </rdf:RDF>
 </metadata>
 <defs>
  <style type="text/css">*{stroke-linecap:butt;stroke-linejoin:round;}</style>
 </defs>
 <g id="figure_1">
  <g id="patch_1">
   <path d="M 0 345.6 
L 460.8 345.6 
L 460.8 0 
L 0 0 
z
" style="fill:none;"/>
  </g>
  <g id="axes_1">
   <g id="matplotlib.axis_1"/>
   <g id="matplotlib.axis_2"/>
   <g id="PolyCollection_1">
    <defs>
     <path d="M 281.944615 -39.262657 
L 281.944615 -38.016 
L 290.269091 -38.016 
L 298.593566 -38.016 
L 306.918042 -38.016 
L 315.242517 -38.016 
L 323.566993 -38.016 
L 331.891469 -38.016 
L 348.54042 -38.016 
L 356.864895 -38.016 
L 365.189371 -38.016 
L 373.513846 -38.016 
L 381.838322 -38.016 
L 390.162797 -38.016 
L 398.487273 -38.016 
L 398.487273 -40.091584 
L 398.487273 -40.091584 
L 390.162797 -39.970206 
L 381.838322 -39.864276 
L 373.513846 -39.758347 
L 365.189371 -39.651561 
L 356.864895 -39.544821 
L 348.54042 -39.436144 
L 331.891469 -39.43182 
L 323.566993 -39.427496 
L 315.242517 -39.403176 
L 306.918042 -39.373135 
L 298.593566 -39.34368 
L 290.269091 -39.314225 
L 281.944615 -39.262657 
z
" id="mf393fa70f5" style="stroke:#7ea297;stroke-opacity:0.5;"/>
    </defs>
    <g clip-path="url(#p981df8bf7c)">
     <use style="fill:#7ea297;fill-opacity:0.5;stroke:#7ea297;stroke-opacity:0.5;" x="0" xlink:href="#mf393fa70f5" y="345.6"/>
    </g>
   </g>
   <g id="PolyCollection_2">
    <defs>
     <path d="M 73.832727 -38.05122 
L 73.832727 -38.016 
L 82.157203 -38.016 
L 90.481678 -38.016 
L 98.806154 -38.016 
L 107.130629 -38.016 
L 115.455105 -38.016 
L 132.104056 -38.016 
L 140.428531 -38.016 
L 148.753007 -38.016 
L 157.077483 -38.016 
L 165.401958 -38.016 
L 173.726434 -38.016 
L 182.050909 -38.016 
L 190.375385 -38.016 
L 198.69986 -38.016 
L 207.024336 -38.016 
L 215.348811 -38.016 
L 223.673287 -38.016 
L 231.997762 -38.016 
L 240.322238 -38.016 
L 248.646713 -38.016 
L 273.62014 -38.016 
L 281.944615 -38.016 
L 281.944615 -39.262657 
L 281.944615 -39.262657 
L 273.62014 -39.210998 
L 248.646713 -39.159474 
L 240.322238 -39.127902 
L 231.997762 -39.10169 
L 223.673287 -38.974142 
L 215.348811 -38.841324 
L 207.024336 -38.733683 
L 198.69986 -38.626402 
L 190.375385 -38.519121 
L 182.050909 -38.411525 
L 173.726434 -38.304289 
L 165.401958 -38.29866 
L 157.077483 -38.298299 
L 148.753007 -38.297939 
L 140.428531 -38.297579 
L 132.104056 -38.282176 
L 115.455105 -38.25209 
L 107.130629 -38.211916 
L 98.806154 -38.171742 
L 90.481678 -38.131568 
L 82.157203 -38.091394 
L 73.832727 -38.05122 
z
" id="ma29193019f" style="stroke:#7ea297;stroke-opacity:0.3;"/>
    </defs>
    <g clip-path="url(#p981df8bf7c)">
     <use style="fill:#7ea297;fill-opacity:0.3;stroke:#7ea297;stroke-opacity:0.3;" x="0" xlink:href="#ma29193019f" y="345.6"/>
    </g>
   </g>
   <g id="line2d_1">
    <path clip-path="url(#p981df8bf7c)" d="M 73.832727 307.54878 
L 82.157203 307.508606 
L 90.481678 307.468432 
L 98.806154 307.428258 
L 107.130629 307.388084 
L 115.455105 307.34791 
L 132.104056 307.317824 
L 140.428531 307.302421 
L 148.753007 307.302061 
L 157.077483 307.301701 
L 165.401958 307.30134 
L 173.726434 307.295711 
L 182.050909 307.188475 
L 190.375385 307.080879 
L 198.69986 306.973598 
L 207.024336 306.866317 
L 215.348811 306.758676 
L 223.673287 306.625858 
L 231.997762 306.49831 
L 240.322238 306.472098 
L 248.646713 306.440526 
L 273.62014 306.389002 
L 281.944615 306.337343 
L 290.269091 306.285775 
L 298.593566 306.25632 
L 306.918042 306.226865 
L 315.242517 306.196824 
L 323.566993 306.172504 
L 331.891469 306.16818 
L 348.54042 306.163856 
L 356.864895 306.055179 
L 365.189371 305.948439 
L 373.513846 305.841653 
L 381.838322 305.735724 
L 390.162797 305.629794 
L 398.487273 305.508416 
" style="fill:none;stroke:#60897e;stroke-linecap:square;stroke-width:2;"/>
   </g>
   <g id="line2d_2">
    <path clip-path="url(#p981df8bf7c)" d="M 281.944615 306.337343 
L 290.269091 306.285775 
L 298.593566 306.25632 
L 306.918042 306.226865 
L 315.242517 306.196824 
L 323.566993 306.172504 
L 331.891469 306.16818 
L 348.54042 306.163856 
L 356.864895 306.055179 
L 365.189371 305.948439 
L 373.513846 305.841653 
L 381.838322 305.735724 
L 390.162797 305.629794 
L 398.487273 305.508416 
" style="fill:none;stroke:#427165;stroke-linecap:square;stroke-width:2;"/>
   </g>
  </g>
 </g>
 <defs>
  <clipPath id="p981df8bf7c">
   <rect height="266.112" width="357.12" x="57.6" y="41.472"/>
  </clipPath>
 </defs>
</svg>
