<?xml version="1.0" encoding="utf-8" standalone="no"?>
<!DOCTYPE svg PUBLIC "-//W3C//DTD SVG 1.1//EN"
  "http://www.w3.org/Graphics/SVG/1.1/DTD/svg11.dtd">
<svg height="345.6pt" version="1.1" viewBox="0 0 460.8 345.6" width="460.8pt" xmlns="http://www.w3.org/2000/svg" xmlns:xlink="http://www.w3.org/1999/xlink">
 <metadata>
  <rdf:RDF xmlns:cc="http://creativecommons.org/ns#" xmlns:dc="http://purl.org/dc/elements/1.1/" xmlns:rdf="http://www.w3.org/1999/02/22-rdf-syntax-ns#">
   <cc:Work>
    <dc:type rdf:resource="http://purl.org/dc/dcmitype/StillImage"/>
    <dc:date>2021-05-15T11:19:06.607844</dc:date>
    <dc:format>image/svg+xml</dc:format>
    <dc:creator>
     <cc:Agent>
      <dc:title>Matplotlib v3.4.2, https://matplotlib.org/</dc:title>
     </cc:Agent>
    </dc:creator>
   </cc:Work>
  </rdf:RDF>
 </metadata>
 <defs>
  <style type="text/css">*{stroke-linecap:butt;stroke-linejoin:round;}</style>
 </defs>
 <g id="figure_1">
  <g id="patch_1">
   <path d="M 0 345.6 
L 460.8 345.6 
L 460.8 0 
L 0 0 
z
" style="fill:none;"/>
  </g>
  <g id="axes_1">
   <g id="matplotlib.axis_1"/>
   <g id="matplotlib.axis_2"/>
   <g id="PolyCollection_1">
    <defs>
     <path d="M 250.073766 -38.885756 
L 250.073766 -38.016 
L 259.34961 -38.016 
L 268.625455 -38.016 
L 296.452987 -38.016 
L 305.728831 -38.016 
L 315.004675 -38.016 
L 324.280519 -38.016 
L 333.556364 -38.016 
L 342.832208 -38.016 
L 352.108052 -38.016 
L 361.383896 -38.016 
L 379.935584 -38.016 
L 389.211429 -38.016 
L 398.487273 -38.016 
L 398.487273 -39.465245 
L 398.487273 -39.465245 
L 389.211429 -39.373576 
L 379.935584 -39.282877 
L 361.383896 -39.210235 
L 352.108052 -39.20546 
L 342.832208 -39.200087 
L 333.556364 -39.177515 
L 324.280519 -39.139944 
L 315.004675 -39.099912 
L 305.728831 -39.047977 
L 296.452987 -39.005108 
L 268.625455 -38.962389 
L 259.34961 -38.919372 
L 250.073766 -38.885756 
z
" id="m5e9a4da854" style="stroke:#7ea297;stroke-opacity:0.5;"/>
    </defs>
    <g clip-path="url(#p2c6c040d7c)">
     <use style="fill:#7ea297;fill-opacity:0.5;stroke:#7ea297;stroke-opacity:0.5;" x="0" xlink:href="#m5e9a4da854" y="345.6"/>
    </g>
   </g>
   <g id="PolyCollection_2">
    <defs>
     <path d="M 73.832727 -38.046967 
L 73.832727 -38.016 
L 83.108571 -38.016 
L 92.384416 -38.016 
L 101.66026 -38.016 
L 110.936104 -38.016 
L 120.211948 -38.016 
L 138.763636 -38.016 
L 148.039481 -38.016 
L 157.315325 -38.016 
L 166.591169 -38.016 
L 175.867013 -38.016 
L 185.142857 -38.016 
L 194.418701 -38.016 
L 203.694545 -38.016 
L 212.97039 -38.016 
L 222.246234 -38.016 
L 231.522078 -38.016 
L 240.797922 -38.016 
L 250.073766 -38.016 
L 250.073766 -38.885756 
L 250.073766 -38.885756 
L 240.797922 -38.782707 
L 231.522078 -38.680107 
L 222.246234 -38.586833 
L 212.97039 -38.492067 
L 203.694545 -38.397264 
L 194.418701 -38.303207 
L 185.142857 -38.216948 
L 175.867013 -38.211277 
L 166.591169 -38.208143 
L 157.315325 -38.207695 
L 148.039481 -38.207248 
L 138.763636 -38.20389 
L 120.211948 -38.183034 
L 110.936104 -38.155873 
L 101.66026 -38.128712 
L 92.384416 -38.101364 
L 83.108571 -38.074053 
L 73.832727 -38.046967 
z
" id="md07567d8b6" style="stroke:#7ea297;stroke-opacity:0.3;"/>
    </defs>
    <g clip-path="url(#p2c6c040d7c)">
     <use style="fill:#7ea297;fill-opacity:0.3;stroke:#7ea297;stroke-opacity:0.3;" x="0" xlink:href="#md07567d8b6" y="345.6"/>
    </g>
   </g>
   <g id="line2d_1">
    <path clip-path="url(#p2c6c040d7c)" d="M 73.832727 307.553033 
L 83.108571 307.525947 
L 92.384416 307.498636 
L 101.66026 307.471288 
L 110.936104 307.444127 
L 120.211948 307.416966 
L 138.763636 307.39611 
L 148.039481 307.392752 
L 157.315325 307.392305 
L 166.591169 307.391857 
L 175.867013 307.388723 
L 185.142857 307.383052 
L 194.418701 307.296793 
L 203.694545 307.202736 
L 212.97039 307.107933 
L 222.246234 307.013167 
L 231.522078 306.919893 
L 240.797922 306.817293 
L 250.073766 306.714244 
L 259.34961 306.680628 
L 268.625455 306.637611 
L 296.452987 306.594892 
L 305.728831 306.552023 
L 315.004675 306.500088 
L 324.280519 306.460056 
L 333.556364 306.422485 
L 342.832208 306.399913 
L 352.108052 306.39454 
L 361.383896 306.389765 
L 379.935584 306.317123 
L 389.211429 306.226424 
L 398.487273 306.134755 
" style="fill:none;stroke:#60897e;stroke-linecap:square;stroke-width:2;"/>
   </g>
   <g id="line2d_2">
    <path clip-path="url(#p2c6c040d7c)" d="M 250.073766 306.714244 
L 259.34961 306.680628 
L 268.625455 306.637611 
L 296.452987 306.594892 
L 305.728831 306.552023 
L 315.004675 306.500088 
L 324.280519 306.460056 
L 333.556364 306.422485 
L 342.832208 306.399913 
L 352.108052 306.39454 
L 361.383896 306.389765 
L 379.935584 306.317123 
L 389.211429 306.226424 
L 398.487273 306.134755 
" style="fill:none;stroke:#427165;stroke-linecap:square;stroke-width:2;"/>
   </g>
  </g>
 </g>
 <defs>
  <clipPath id="p2c6c040d7c">
   <rect height="266.112" width="357.12" x="57.6" y="41.472"/>
  </clipPath>
 </defs>
</svg>
