<?xml version="1.0" encoding="utf-8" standalone="no"?>
<!DOCTYPE svg PUBLIC "-//W3C//DTD SVG 1.1//EN"
  "http://www.w3.org/Graphics/SVG/1.1/DTD/svg11.dtd">
<svg height="345.6pt" version="1.1" viewBox="0 0 460.8 345.6" width="460.8pt" xmlns="http://www.w3.org/2000/svg" xmlns:xlink="http://www.w3.org/1999/xlink">
 <metadata>
  <rdf:RDF xmlns:cc="http://creativecommons.org/ns#" xmlns:dc="http://purl.org/dc/elements/1.1/" xmlns:rdf="http://www.w3.org/1999/02/22-rdf-syntax-ns#">
   <cc:Work>
    <dc:type rdf:resource="http://purl.org/dc/dcmitype/StillImage"/>
    <dc:date>2021-05-21T13:25:45.391497</dc:date>
    <dc:format>image/svg+xml</dc:format>
    <dc:creator>
     <cc:Agent>
      <dc:title>Matplotlib v3.4.2, https://matplotlib.org/</dc:title>
     </cc:Agent>
    </dc:creator>
   </cc:Work>
  </rdf:RDF>
 </metadata>
 <defs>
  <style type="text/css">*{stroke-linecap:butt;stroke-linejoin:round;}</style>
 </defs>
 <g id="figure_1">
  <g id="patch_1">
   <path d="M 0 345.6 
L 460.8 345.6 
L 460.8 0 
L 0 0 
z
" style="fill:none;"/>
  </g>
  <g id="axes_1">
   <g id="matplotlib.axis_1"/>
   <g id="matplotlib.axis_2"/>
   <g id="PolyCollection_1">
    <defs>
     <path d="M 287.629623 -39.122004 
L 287.629623 -38.016 
L 295.548027 -38.016 
L 303.46643 -38.016 
L 311.384834 -38.016 
L 319.303237 -38.016 
L 335.140044 -38.016 
L 343.058448 -38.016 
L 350.976851 -38.016 
L 358.895255 -38.016 
L 366.813659 -38.016 
L 374.732062 -38.016 
L 382.650466 -38.016 
L 390.568869 -38.016 
L 398.487273 -38.016 
L 398.487273 -39.927656 
L 398.487273 -39.927656 
L 390.568869 -39.871613 
L 382.650466 -39.822317 
L 374.732062 -39.771527 
L 366.813659 -39.728523 
L 358.895255 -39.674577 
L 350.976851 -39.594934 
L 343.058448 -39.51347 
L 335.140044 -39.433912 
L 319.303237 -39.356112 
L 311.384834 -39.288704 
L 303.46643 -39.219706 
L 295.548027 -39.158822 
L 287.629623 -39.122004 
z
" id="m27b0f14996" style="stroke:#7ea297;stroke-opacity:0.5;"/>
    </defs>
    <g clip-path="url(#p49b3c45f16)">
     <use style="fill:#7ea297;fill-opacity:0.5;stroke:#7ea297;stroke-opacity:0.5;" x="0" xlink:href="#m27b0f14996" y="345.6"/>
    </g>
   </g>
   <g id="PolyCollection_2">
    <defs>
     <path d="M 73.832727 -38.062616 
L 73.832727 -38.016 
L 81.751131 -38.016 
L 89.669534 -38.016 
L 97.587938 -38.016 
L 105.506341 -38.016 
L 113.424745 -38.016 
L 129.261552 -38.016 
L 137.179956 -38.016 
L 145.098359 -38.016 
L 153.016763 -38.016 
L 160.935166 -38.016 
L 168.85357 -38.016 
L 176.771973 -38.016 
L 184.690377 -38.016 
L 192.60878 -38.016 
L 200.527184 -38.016 
L 208.445588 -38.016 
L 216.363991 -38.016 
L 224.282395 -38.016 
L 232.200798 -38.016 
L 240.119202 -38.016 
L 263.874412 -38.016 
L 271.792816 -38.016 
L 279.71122 -38.016 
L 287.629623 -38.016 
L 287.629623 -39.122004 
L 287.629623 -39.122004 
L 279.71122 -39.100237 
L 271.792816 -39.081648 
L 263.874412 -39.065823 
L 240.119202 -39.044935 
L 232.200798 -38.981329 
L 224.282395 -38.898933 
L 216.363991 -38.802703 
L 208.445588 -38.704439 
L 200.527184 -38.613823 
L 192.60878 -38.526384 
L 184.690377 -38.444009 
L 176.771973 -38.40414 
L 168.85357 -38.38447 
L 160.935166 -38.380064 
L 153.016763 -38.373973 
L 145.098359 -38.367925 
L 137.179956 -38.36175 
L 129.261552 -38.34011 
L 113.424745 -38.302773 
L 105.506341 -38.253572 
L 97.587938 -38.202783 
L 89.669534 -38.156018 
L 81.751131 -38.109254 
L 73.832727 -38.062616 
z
" id="m218f0de7fa" style="stroke:#7ea297;stroke-opacity:0.3;"/>
    </defs>
    <g clip-path="url(#p49b3c45f16)">
     <use style="fill:#7ea297;fill-opacity:0.3;stroke:#7ea297;stroke-opacity:0.3;" x="0" xlink:href="#m218f0de7fa" y="345.6"/>
    </g>
   </g>
   <g id="line2d_1">
    <path clip-path="url(#p49b3c45f16)" d="M 73.832727 307.537384 
L 81.751131 307.490746 
L 89.669534 307.443982 
L 97.587938 307.397217 
L 105.506341 307.346428 
L 113.424745 307.297227 
L 129.261552 307.25989 
L 137.179956 307.23825 
L 145.098359 307.232075 
L 153.016763 307.226027 
L 160.935166 307.219936 
L 168.85357 307.21553 
L 176.771973 307.19586 
L 184.690377 307.155991 
L 192.60878 307.073616 
L 200.527184 306.986177 
L 208.445588 306.895561 
L 216.363991 306.797297 
L 224.282395 306.701067 
L 232.200798 306.618671 
L 240.119202 306.555065 
L 263.874412 306.534177 
L 271.792816 306.518352 
L 279.71122 306.499763 
L 287.629623 306.477996 
L 295.548027 306.441178 
L 303.46643 306.380294 
L 311.384834 306.311296 
L 319.303237 306.243888 
L 335.140044 306.166088 
L 343.058448 306.08653 
L 350.976851 306.005066 
L 358.895255 305.925423 
L 366.813659 305.871477 
L 374.732062 305.828473 
L 382.650466 305.777683 
L 390.568869 305.728387 
L 398.487273 305.672344 
" style="fill:none;stroke:#60897e;stroke-linecap:square;stroke-width:2;"/>
   </g>
   <g id="line2d_2">
    <path clip-path="url(#p49b3c45f16)" d="M 287.629623 306.477996 
L 295.548027 306.441178 
L 303.46643 306.380294 
L 311.384834 306.311296 
L 319.303237 306.243888 
L 335.140044 306.166088 
L 343.058448 306.08653 
L 350.976851 306.005066 
L 358.895255 305.925423 
L 366.813659 305.871477 
L 374.732062 305.828473 
L 382.650466 305.777683 
L 390.568869 305.728387 
L 398.487273 305.672344 
" style="fill:none;stroke:#427165;stroke-linecap:square;stroke-width:2;"/>
   </g>
  </g>
 </g>
 <defs>
  <clipPath id="p49b3c45f16">
   <rect height="266.112" width="357.12" x="57.6" y="41.472"/>
  </clipPath>
 </defs>
</svg>
