<?xml version="1.0" encoding="utf-8" standalone="no"?>
<!DOCTYPE svg PUBLIC "-//W3C//DTD SVG 1.1//EN"
  "http://www.w3.org/Graphics/SVG/1.1/DTD/svg11.dtd">
<svg height="345.6pt" version="1.1" viewBox="0 0 460.8 345.6" width="460.8pt" xmlns="http://www.w3.org/2000/svg" xmlns:xlink="http://www.w3.org/1999/xlink">
 <metadata>
  <rdf:RDF xmlns:cc="http://creativecommons.org/ns#" xmlns:dc="http://purl.org/dc/elements/1.1/" xmlns:rdf="http://www.w3.org/1999/02/22-rdf-syntax-ns#">
   <cc:Work>
    <dc:type rdf:resource="http://purl.org/dc/dcmitype/StillImage"/>
    <dc:date>2021-05-21T13:25:47.888469</dc:date>
    <dc:format>image/svg+xml</dc:format>
    <dc:creator>
     <cc:Agent>
      <dc:title>Matplotlib v3.4.2, https://matplotlib.org/</dc:title>
     </cc:Agent>
    </dc:creator>
   </cc:Work>
  </rdf:RDF>
 </metadata>
 <defs>
  <style type="text/css">*{stroke-linecap:butt;stroke-linejoin:round;}</style>
 </defs>
 <g id="figure_1">
  <g id="patch_1">
   <path d="M 0 345.6 
L 460.8 345.6 
L 460.8 0 
L 0 0 
z
" style="fill:none;"/>
  </g>
  <g id="axes_1">
   <g id="matplotlib.axis_1"/>
   <g id="matplotlib.axis_2"/>
   <g id="PolyCollection_1">
    <defs>
     <path d="M 287.629623 -39.252418 
L 287.629623 -38.016 
L 295.548027 -38.016 
L 303.46643 -38.016 
L 311.384834 -38.016 
L 319.303237 -38.016 
L 335.140044 -38.016 
L 343.058448 -38.016 
L 350.976851 -38.016 
L 358.895255 -38.016 
L 366.813659 -38.016 
L 374.732062 -38.016 
L 382.650466 -38.016 
L 390.568869 -38.016 
L 398.487273 -38.016 
L 398.487273 -40.513446 
L 398.487273 -40.513446 
L 390.568869 -40.399602 
L 382.650466 -40.285105 
L 374.732062 -40.165564 
L 366.813659 -40.050108 
L 358.895255 -39.933829 
L 350.976851 -39.815052 
L 343.058448 -39.684467 
L 335.140044 -39.553907 
L 319.303237 -39.424814 
L 311.384834 -39.325384 
L 303.46643 -39.301769 
L 295.548027 -39.277827 
L 287.629623 -39.252418 
z
" id="m7c1fb171c7" style="stroke:#7ea297;stroke-opacity:0.5;"/>
    </defs>
    <g clip-path="url(#pa83a02e337)">
     <use style="fill:#7ea297;fill-opacity:0.5;stroke:#7ea297;stroke-opacity:0.5;" x="0" xlink:href="#m7c1fb171c7" y="345.6"/>
    </g>
   </g>
   <g id="PolyCollection_2">
    <defs>
     <path d="M 73.832727 -38.088396 
L 73.832727 -38.016 
L 81.751131 -38.016 
L 89.669534 -38.016 
L 97.587938 -38.016 
L 105.506341 -38.016 
L 113.424745 -38.016 
L 129.261552 -38.016 
L 137.179956 -38.016 
L 145.098359 -38.016 
L 153.016763 -38.016 
L 160.935166 -38.016 
L 168.85357 -38.016 
L 176.771973 -38.016 
L 184.690377 -38.016 
L 192.60878 -38.016 
L 200.527184 -38.016 
L 208.445588 -38.016 
L 216.363991 -38.016 
L 224.282395 -38.016 
L 232.200798 -38.016 
L 240.119202 -38.016 
L 263.874412 -38.016 
L 271.792816 -38.016 
L 279.71122 -38.016 
L 287.629623 -38.016 
L 287.629623 -39.252418 
L 287.629623 -39.252418 
L 279.71122 -39.243508 
L 271.792816 -39.20771 
L 263.874412 -39.172603 
L 240.119202 -39.137508 
L 232.200798 -39.093976 
L 224.282395 -39.049777 
L 216.363991 -39.009033 
L 208.445588 -38.963549 
L 200.527184 -38.873563 
L 192.60878 -38.744797 
L 184.690377 -38.616043 
L 176.771973 -38.495848 
L 168.85357 -38.376938 
L 160.935166 -38.258536 
L 153.016763 -38.148245 
L 145.098359 -38.109344 
L 137.179956 -38.109344 
L 129.261552 -38.109344 
L 113.424745 -38.109344 
L 105.506341 -38.109344 
L 97.587938 -38.108641 
L 89.669534 -38.104204 
L 81.751131 -38.098821 
L 73.832727 -38.088396 
z
" id="me6d0c50a90" style="stroke:#7ea297;stroke-opacity:0.3;"/>
    </defs>
    <g clip-path="url(#pa83a02e337)">
     <use style="fill:#7ea297;fill-opacity:0.3;stroke:#7ea297;stroke-opacity:0.3;" x="0" xlink:href="#me6d0c50a90" y="345.6"/>
    </g>
   </g>
   <g id="line2d_1">
    <path clip-path="url(#pa83a02e337)" d="M 73.832727 307.511604 
L 81.751131 307.501179 
L 89.669534 307.495796 
L 97.587938 307.491359 
L 105.506341 307.490656 
L 113.424745 307.490656 
L 129.261552 307.490656 
L 137.179956 307.490656 
L 145.098359 307.490656 
L 153.016763 307.451755 
L 160.935166 307.341464 
L 168.85357 307.223062 
L 176.771973 307.104152 
L 184.690377 306.983957 
L 192.60878 306.855203 
L 200.527184 306.726437 
L 208.445588 306.636451 
L 216.363991 306.590967 
L 224.282395 306.550223 
L 232.200798 306.506024 
L 240.119202 306.462492 
L 263.874412 306.427397 
L 271.792816 306.39229 
L 279.71122 306.356492 
L 287.629623 306.347582 
L 295.548027 306.322173 
L 303.46643 306.298231 
L 311.384834 306.274616 
L 319.303237 306.175186 
L 335.140044 306.046093 
L 343.058448 305.915533 
L 350.976851 305.784948 
L 358.895255 305.666171 
L 366.813659 305.549892 
L 374.732062 305.434436 
L 382.650466 305.314895 
L 390.568869 305.200398 
L 398.487273 305.086554 
" style="fill:none;stroke:#60897e;stroke-linecap:square;stroke-width:2;"/>
   </g>
   <g id="line2d_2">
    <path clip-path="url(#pa83a02e337)" d="M 287.629623 306.347582 
L 295.548027 306.322173 
L 303.46643 306.298231 
L 311.384834 306.274616 
L 319.303237 306.175186 
L 335.140044 306.046093 
L 343.058448 305.915533 
L 350.976851 305.784948 
L 358.895255 305.666171 
L 366.813659 305.549892 
L 374.732062 305.434436 
L 382.650466 305.314895 
L 390.568869 305.200398 
L 398.487273 305.086554 
" style="fill:none;stroke:#427165;stroke-linecap:square;stroke-width:2;"/>
   </g>
  </g>
 </g>
 <defs>
  <clipPath id="pa83a02e337">
   <rect height="266.112" width="357.12" x="57.6" y="41.472"/>
  </clipPath>
 </defs>
</svg>
