<?xml version="1.0" encoding="utf-8" standalone="no"?>
<!DOCTYPE svg PUBLIC "-//W3C//DTD SVG 1.1//EN"
  "http://www.w3.org/Graphics/SVG/1.1/DTD/svg11.dtd">
<svg height="345.6pt" version="1.1" viewBox="0 0 460.8 345.6" width="460.8pt" xmlns="http://www.w3.org/2000/svg" xmlns:xlink="http://www.w3.org/1999/xlink">
 <metadata>
  <rdf:RDF xmlns:cc="http://creativecommons.org/ns#" xmlns:dc="http://purl.org/dc/elements/1.1/" xmlns:rdf="http://www.w3.org/1999/02/22-rdf-syntax-ns#">
   <cc:Work>
    <dc:type rdf:resource="http://purl.org/dc/dcmitype/StillImage"/>
    <dc:date>2021-05-17T10:41:13.140883</dc:date>
    <dc:format>image/svg+xml</dc:format>
    <dc:creator>
     <cc:Agent>
      <dc:title>Matplotlib v3.4.2, https://matplotlib.org/</dc:title>
     </cc:Agent>
    </dc:creator>
   </cc:Work>
  </rdf:RDF>
 </metadata>
 <defs>
  <style type="text/css">*{stroke-linecap:butt;stroke-linejoin:round;}</style>
 </defs>
 <g id="figure_1">
  <g id="patch_1">
   <path d="M 0 345.6 
L 460.8 345.6 
L 460.8 0 
L 0 0 
z
" style="fill:none;"/>
  </g>
  <g id="axes_1">
   <g id="matplotlib.axis_1"/>
   <g id="matplotlib.axis_2"/>
   <g id="PolyCollection_1">
    <defs>
     <path d="M 258.096118 -39.070026 
L 258.096118 -38.016 
L 284.419459 -38.016 
L 293.193907 -38.016 
L 301.968354 -38.016 
L 310.742801 -38.016 
L 319.517248 -38.016 
L 328.291695 -38.016 
L 337.066143 -38.016 
L 345.84059 -38.016 
L 363.389484 -38.016 
L 372.163931 -38.016 
L 380.938378 -38.016 
L 389.712826 -38.016 
L 398.487273 -38.016 
L 398.487273 -39.715166 
L 398.487273 -39.715166 
L 389.712826 -39.602649 
L 380.938378 -39.490041 
L 372.163931 -39.378327 
L 363.389484 -39.288574 
L 345.84059 -39.285122 
L 337.066143 -39.283188 
L 328.291695 -39.273993 
L 319.517248 -39.240454 
L 310.742801 -39.205726 
L 301.968354 -39.170998 
L 293.193907 -39.137311 
L 284.419459 -39.102969 
L 258.096118 -39.070026 
z
" id="m926e0e28bd" style="stroke:#7ea297;stroke-opacity:0.5;"/>
    </defs>
    <g clip-path="url(#p978b52233b)">
     <use style="fill:#7ea297;fill-opacity:0.5;stroke:#7ea297;stroke-opacity:0.5;" x="0" xlink:href="#m926e0e28bd" y="345.6"/>
    </g>
   </g>
   <g id="PolyCollection_2">
    <defs>
     <path d="M 73.832727 -38.040372 
L 73.832727 -38.016 
L 82.607174 -38.016 
L 91.381622 -38.016 
L 100.156069 -38.016 
L 108.930516 -38.016 
L 117.704963 -38.016 
L 135.253857 -38.016 
L 144.028305 -38.016 
L 152.802752 -38.016 
L 161.577199 -38.016 
L 170.351646 -38.016 
L 179.126093 -38.016 
L 187.900541 -38.016 
L 196.674988 -38.016 
L 205.449435 -38.016 
L 214.223882 -38.016 
L 222.998329 -38.016 
L 231.772776 -38.016 
L 240.547224 -38.016 
L 249.321671 -38.016 
L 258.096118 -38.016 
L 258.096118 -39.070026 
L 258.096118 -39.070026 
L 249.321671 -39.042916 
L 240.547224 -39.013455 
L 231.772776 -38.897098 
L 222.998329 -38.780235 
L 214.223882 -38.662718 
L 205.449435 -38.545855 
L 196.674988 -38.428992 
L 187.900541 -38.313588 
L 179.126093 -38.224877 
L 170.351646 -38.224341 
L 161.577199 -38.224311 
L 152.802752 -38.224311 
L 144.028305 -38.224252 
L 135.253857 -38.216068 
L 117.704963 -38.189107 
L 108.930516 -38.159348 
L 100.156069 -38.129589 
L 91.381622 -38.09983 
L 82.607174 -38.070072 
L 73.832727 -38.040372 
z
" id="mbdd649f1d4" style="stroke:#7ea297;stroke-opacity:0.3;"/>
    </defs>
    <g clip-path="url(#p978b52233b)">
     <use style="fill:#7ea297;fill-opacity:0.3;stroke:#7ea297;stroke-opacity:0.3;" x="0" xlink:href="#mbdd649f1d4" y="345.6"/>
    </g>
   </g>
   <g id="line2d_1">
    <path clip-path="url(#p978b52233b)" d="M 73.832727 307.559628 
L 82.607174 307.529928 
L 91.381622 307.50017 
L 100.156069 307.470411 
L 108.930516 307.440652 
L 117.704963 307.410893 
L 135.253857 307.383932 
L 144.028305 307.375748 
L 152.802752 307.375689 
L 161.577199 307.375689 
L 170.351646 307.375659 
L 179.126093 307.375123 
L 187.900541 307.286412 
L 196.674988 307.171008 
L 205.449435 307.054145 
L 214.223882 306.937282 
L 222.998329 306.819765 
L 231.772776 306.702902 
L 240.547224 306.586545 
L 249.321671 306.557084 
L 258.096118 306.529974 
L 284.419459 306.497031 
L 293.193907 306.462689 
L 301.968354 306.429002 
L 310.742801 306.394274 
L 319.517248 306.359546 
L 328.291695 306.326007 
L 337.066143 306.316812 
L 345.84059 306.314878 
L 363.389484 306.311426 
L 372.163931 306.221673 
L 380.938378 306.109959 
L 389.712826 305.997351 
L 398.487273 305.884834 
" style="fill:none;stroke:#60897e;stroke-linecap:square;stroke-width:2;"/>
   </g>
   <g id="line2d_2">
    <path clip-path="url(#p978b52233b)" d="M 258.096118 306.529974 
L 284.419459 306.497031 
L 293.193907 306.462689 
L 301.968354 306.429002 
L 310.742801 306.394274 
L 319.517248 306.359546 
L 328.291695 306.326007 
L 337.066143 306.316812 
L 345.84059 306.314878 
L 363.389484 306.311426 
L 372.163931 306.221673 
L 380.938378 306.109959 
L 389.712826 305.997351 
L 398.487273 305.884834 
" style="fill:none;stroke:#427165;stroke-linecap:square;stroke-width:2;"/>
   </g>
  </g>
 </g>
 <defs>
  <clipPath id="p978b52233b">
   <rect height="266.112" width="357.12" x="57.6" y="41.472"/>
  </clipPath>
 </defs>
</svg>
