<?xml version="1.0" encoding="utf-8" standalone="no"?>
<!DOCTYPE svg PUBLIC "-//W3C//DTD SVG 1.1//EN"
  "http://www.w3.org/Graphics/SVG/1.1/DTD/svg11.dtd">
<svg height="345.6pt" version="1.1" viewBox="0 0 460.8 345.6" width="460.8pt" xmlns="http://www.w3.org/2000/svg" xmlns:xlink="http://www.w3.org/1999/xlink">
 <metadata>
  <rdf:RDF xmlns:cc="http://creativecommons.org/ns#" xmlns:dc="http://purl.org/dc/elements/1.1/" xmlns:rdf="http://www.w3.org/1999/02/22-rdf-syntax-ns#">
   <cc:Work>
    <dc:type rdf:resource="http://purl.org/dc/dcmitype/StillImage"/>
    <dc:date>2021-05-20T13:25:47.971818</dc:date>
    <dc:format>image/svg+xml</dc:format>
    <dc:creator>
     <cc:Agent>
      <dc:title>Matplotlib v3.4.2, https://matplotlib.org/</dc:title>
     </cc:Agent>
    </dc:creator>
   </cc:Work>
  </rdf:RDF>
 </metadata>
 <defs>
  <style type="text/css">*{stroke-linecap:butt;stroke-linejoin:round;}</style>
 </defs>
 <g id="figure_1">
  <g id="patch_1">
   <path d="M 0 345.6 
L 460.8 345.6 
L 460.8 0 
L 0 0 
z
" style="fill:none;"/>
  </g>
  <g id="axes_1">
   <g id="matplotlib.axis_1"/>
   <g id="matplotlib.axis_2"/>
   <g id="PolyCollection_1">
    <defs>
     <path d="M 284.858182 -38.471797 
L 284.858182 -38.016 
L 292.974545 -38.016 
L 301.090909 -38.016 
L 309.207273 -38.016 
L 317.323636 -38.016 
L 325.44 -38.016 
L 341.672727 -38.016 
L 349.789091 -38.016 
L 357.905455 -38.016 
L 366.021818 -38.016 
L 374.138182 -38.016 
L 382.254545 -38.016 
L 390.370909 -38.016 
L 398.487273 -38.016 
L 398.487273 -39.144967 
L 398.487273 -39.144967 
L 390.370909 -39.127228 
L 382.254545 -39.092946 
L 374.138182 -39.058504 
L 366.021818 -39.020096 
L 357.905455 -38.94316 
L 349.789091 -38.862536 
L 341.672727 -38.774578 
L 325.44 -38.695728 
L 317.323636 -38.635336 
L 309.207273 -38.575262 
L 301.090909 -38.515925 
L 292.974545 -38.490831 
L 284.858182 -38.471797 
z
" id="meb560d59e5" style="stroke:#7ea297;stroke-opacity:0.5;"/>
    </defs>
    <g clip-path="url(#p4edf50c15d)">
     <use style="fill:#7ea297;fill-opacity:0.5;stroke:#7ea297;stroke-opacity:0.5;" x="0" xlink:href="#meb560d59e5" y="345.6"/>
    </g>
   </g>
   <g id="PolyCollection_2">
    <defs>
     <path d="M 73.832727 -38.03051 
L 73.832727 -38.016 
L 81.949091 -38.016 
L 90.065455 -38.016 
L 98.181818 -38.016 
L 106.298182 -38.016 
L 114.414545 -38.016 
L 130.647273 -38.016 
L 138.763636 -38.016 
L 146.88 -38.016 
L 154.996364 -38.016 
L 163.112727 -38.016 
L 171.229091 -38.016 
L 179.345455 -38.016 
L 187.461818 -38.016 
L 195.578182 -38.016 
L 203.694545 -38.016 
L 211.810909 -38.016 
L 219.927273 -38.016 
L 228.043636 -38.016 
L 236.16 -38.016 
L 244.276364 -38.016 
L 268.625455 -38.016 
L 276.741818 -38.016 
L 284.858182 -38.016 
L 284.858182 -38.471797 
L 284.858182 -38.471797 
L 276.741818 -38.458901 
L 268.625455 -38.447719 
L 244.276364 -38.43861 
L 236.16 -38.424299 
L 228.043636 -38.391831 
L 219.927273 -38.346825 
L 211.810909 -38.302557 
L 203.694545 -38.25795 
L 195.578182 -38.213343 
L 187.461818 -38.168756 
L 179.345455 -38.128295 
L 171.229091 -38.108004 
L 163.112727 -38.104536 
L 154.996364 -38.101268 
L 146.88 -38.100191 
L 138.763636 -38.099115 
L 130.647273 -38.096743 
L 114.414545 -38.089109 
L 106.298182 -38.077389 
L 98.181818 -38.06567 
L 90.065455 -38.05395 
L 81.949091 -38.04223 
L 73.832727 -38.03051 
z
" id="mdf53da2c5d" style="stroke:#7ea297;stroke-opacity:0.3;"/>
    </defs>
    <g clip-path="url(#p4edf50c15d)">
     <use style="fill:#7ea297;fill-opacity:0.3;stroke:#7ea297;stroke-opacity:0.3;" x="0" xlink:href="#mdf53da2c5d" y="345.6"/>
    </g>
   </g>
   <g id="line2d_1">
    <path clip-path="url(#p4edf50c15d)" d="M 73.832727 307.56949 
L 81.949091 307.55777 
L 90.065455 307.54605 
L 98.181818 307.53433 
L 106.298182 307.522611 
L 114.414545 307.510891 
L 130.647273 307.503257 
L 138.763636 307.500885 
L 146.88 307.499809 
L 154.996364 307.498732 
L 163.112727 307.495464 
L 171.229091 307.491996 
L 179.345455 307.471705 
L 187.461818 307.431244 
L 195.578182 307.386657 
L 203.694545 307.34205 
L 211.810909 307.297443 
L 219.927273 307.253175 
L 228.043636 307.208169 
L 236.16 307.175701 
L 244.276364 307.16139 
L 268.625455 307.152281 
L 276.741818 307.141099 
L 284.858182 307.128203 
L 292.974545 307.109169 
L 301.090909 307.084075 
L 309.207273 307.024738 
L 317.323636 306.964664 
L 325.44 306.904272 
L 341.672727 306.825422 
L 349.789091 306.737464 
L 357.905455 306.65684 
L 366.021818 306.579904 
L 374.138182 306.541496 
L 382.254545 306.507054 
L 390.370909 306.472772 
L 398.487273 306.455033 
" style="fill:none;stroke:#60897e;stroke-linecap:square;stroke-width:2;"/>
   </g>
   <g id="line2d_2">
    <path clip-path="url(#p4edf50c15d)" d="M 284.858182 307.128203 
L 292.974545 307.109169 
L 301.090909 307.084075 
L 309.207273 307.024738 
L 317.323636 306.964664 
L 325.44 306.904272 
L 341.672727 306.825422 
L 349.789091 306.737464 
L 357.905455 306.65684 
L 366.021818 306.579904 
L 374.138182 306.541496 
L 382.254545 306.507054 
L 390.370909 306.472772 
L 398.487273 306.455033 
" style="fill:none;stroke:#427165;stroke-linecap:square;stroke-width:2;"/>
   </g>
  </g>
 </g>
 <defs>
  <clipPath id="p4edf50c15d">
   <rect height="266.112" width="357.12" x="57.6" y="41.472"/>
  </clipPath>
 </defs>
</svg>
