<?xml version="1.0" encoding="utf-8" standalone="no"?>
<!DOCTYPE svg PUBLIC "-//W3C//DTD SVG 1.1//EN"
  "http://www.w3.org/Graphics/SVG/1.1/DTD/svg11.dtd">
<!-- Created with matplotlib (https://matplotlib.org/) -->
<svg height="288pt" version="1.1" viewBox="0 0 432 288" width="432pt" xmlns="http://www.w3.org/2000/svg" xmlns:xlink="http://www.w3.org/1999/xlink">
 <metadata>
  <rdf:RDF xmlns:cc="http://creativecommons.org/ns#" xmlns:dc="http://purl.org/dc/elements/1.1/" xmlns:rdf="http://www.w3.org/1999/02/22-rdf-syntax-ns#">
   <cc:Work>
    <dc:type rdf:resource="http://purl.org/dc/dcmitype/StillImage"/>
    <dc:date>2021-05-11T17:45:23.505552</dc:date>
    <dc:format>image/svg+xml</dc:format>
    <dc:creator>
     <cc:Agent>
      <dc:title>Matplotlib v3.3.2, https://matplotlib.org/</dc:title>
     </cc:Agent>
    </dc:creator>
   </cc:Work>
  </rdf:RDF>
 </metadata>
 <defs>
  <style type="text/css">*{stroke-linecap:butt;stroke-linejoin:round;}</style>
 </defs>
 <g id="figure_1">
  <g id="patch_1">
   <path d="M 0 288 
L 432 288 
L 432 0 
L 0 0 
z
" style="fill:none;"/>
  </g>
  <g id="axes_1">
   <g id="matplotlib.axis_1"/>
   <g id="matplotlib.axis_2"/>
   <g id="PolyCollection_1">
    <defs>
     <path d="M 294.447273 -36.123807 
L 294.447273 -36 
L 300.534545 -36 
L 306.621818 -36 
L 312.709091 -36 
L 318.796364 -36 
L 324.883636 -36 
L 330.970909 -36 
L 337.058182 -36 
L 343.145455 -36 
L 349.232727 -36 
L 355.32 -36 
L 361.407273 -36 
L 367.494545 -36 
L 373.581818 -36 
L 373.581818 -36.49904 
L 373.581818 -36.49904 
L 367.494545 -36.437315 
L 361.407273 -36.371975 
L 355.32 -36.306635 
L 349.232727 -36.241295 
L 343.145455 -36.177975 
L 337.058182 -36.146445 
L 330.970909 -36.141396 
L 324.883636 -36.136413 
L 318.796364 -36.135045 
L 312.709091 -36.133677 
L 306.621818 -36.132309 
L 300.534545 -36.132276 
L 294.447273 -36.123807 
z
" id="mb0cc3d89ab" style="stroke:#7ea297;stroke-opacity:0.5;"/>
    </defs>
    <g clip-path="url(#p5bde5566d4)">
     <use style="fill:#7ea297;fill-opacity:0.5;stroke:#7ea297;stroke-opacity:0.5;" x="0" xlink:href="#mb0cc3d89ab" y="288"/>
    </g>
   </g>
   <g id="PolyCollection_2">
    <defs>
     <path d="M 69.218182 -36 
L 69.218182 -36 
L 75.305455 -36 
L 81.392727 -36 
L 87.48 -36 
L 93.567273 -36 
L 99.654545 -36 
L 105.741818 -36 
L 111.829091 -36 
L 117.916364 -36 
L 124.003636 -36 
L 130.090909 -36 
L 136.178182 -36 
L 142.265455 -36 
L 148.352727 -36 
L 154.44 -36 
L 160.527273 -36 
L 166.614545 -36 
L 172.701818 -36 
L 178.789091 -36 
L 184.876364 -36 
L 190.963636 -36 
L 197.050909 -36 
L 203.138182 -36 
L 209.225455 -36 
L 215.312727 -36 
L 221.4 -36 
L 227.487273 -36 
L 233.574545 -36 
L 239.661818 -36 
L 245.749091 -36 
L 251.836364 -36 
L 257.923636 -36 
L 264.010909 -36 
L 270.098182 -36 
L 276.185455 -36 
L 282.272727 -36 
L 288.36 -36 
L 294.447273 -36 
L 294.447273 -36.123807 
L 294.447273 -36.123807 
L 288.36 -36.104915 
L 282.272727 -36.086023 
L 276.185455 -36.067131 
L 270.098182 -36.04824 
L 264.010909 -36.029348 
L 257.923636 -36.010456 
L 251.836364 -36 
L 245.749091 -36 
L 239.661818 -36 
L 233.574545 -36 
L 227.487273 -36 
L 221.4 -36 
L 215.312727 -36 
L 209.225455 -36 
L 203.138182 -36 
L 197.050909 -36 
L 190.963636 -36 
L 184.876364 -36 
L 178.789091 -36 
L 172.701818 -36 
L 166.614545 -36 
L 160.527273 -36 
L 154.44 -36 
L 148.352727 -36 
L 142.265455 -36 
L 136.178182 -36 
L 130.090909 -36 
L 124.003636 -36 
L 117.916364 -36 
L 111.829091 -36 
L 105.741818 -36 
L 99.654545 -36 
L 93.567273 -36 
L 87.48 -36 
L 81.392727 -36 
L 75.305455 -36 
L 69.218182 -36 
z
" id="m5e450cbebd" style="stroke:#7ea297;stroke-opacity:0.3;"/>
    </defs>
    <g clip-path="url(#p5bde5566d4)">
     <use style="fill:#7ea297;fill-opacity:0.3;stroke:#7ea297;stroke-opacity:0.3;" x="0" xlink:href="#m5e450cbebd" y="288"/>
    </g>
   </g>
   <g id="line2d_1">
    <path clip-path="url(#p5bde5566d4)" d="M 69.218182 252 
L 75.305455 252 
L 81.392727 252 
L 87.48 252 
L 93.567273 252 
L 99.654545 252 
L 105.741818 252 
L 111.829091 252 
L 117.916364 252 
L 124.003636 252 
L 130.090909 252 
L 136.178182 252 
L 142.265455 252 
L 148.352727 252 
L 154.44 252 
L 160.527273 252 
L 166.614545 252 
L 172.701818 252 
L 178.789091 252 
L 184.876364 252 
L 190.963636 252 
L 197.050909 252 
L 203.138182 252 
L 209.225455 252 
L 215.312727 252 
L 221.4 252 
L 227.487273 252 
L 233.574545 252 
L 239.661818 252 
L 245.749091 252 
L 251.836364 252 
L 257.923636 251.989544 
L 264.010909 251.970652 
L 270.098182 251.95176 
L 276.185455 251.932869 
L 282.272727 251.913977 
L 288.36 251.895085 
L 294.447273 251.876193 
L 300.534545 251.867724 
L 306.621818 251.867691 
L 312.709091 251.866323 
L 318.796364 251.864955 
L 324.883636 251.863587 
L 330.970909 251.858604 
L 337.058182 251.853555 
L 343.145455 251.822025 
L 349.232727 251.758705 
L 355.32 251.693365 
L 361.407273 251.628025 
L 367.494545 251.562685 
L 373.581818 251.50096 
" style="fill:none;stroke:#60897e;stroke-linecap:square;stroke-width:2;"/>
   </g>
   <g id="line2d_2">
    <path clip-path="url(#p5bde5566d4)" d="M 294.447273 251.876193 
L 300.534545 251.867724 
L 306.621818 251.867691 
L 312.709091 251.866323 
L 318.796364 251.864955 
L 324.883636 251.863587 
L 330.970909 251.858604 
L 337.058182 251.853555 
L 343.145455 251.822025 
L 349.232727 251.758705 
L 355.32 251.693365 
L 361.407273 251.628025 
L 367.494545 251.562685 
L 373.581818 251.50096 
" style="fill:none;stroke:#427165;stroke-linecap:square;stroke-width:2;"/>
   </g>
  </g>
 </g>
 <defs>
  <clipPath id="p5bde5566d4">
   <rect height="217.44" width="334.8" x="54" y="34.56"/>
  </clipPath>
 </defs>
</svg>
