<?xml version="1.0" encoding="utf-8" standalone="no"?>
<!DOCTYPE svg PUBLIC "-//W3C//DTD SVG 1.1//EN"
  "http://www.w3.org/Graphics/SVG/1.1/DTD/svg11.dtd">
<svg height="345.6pt" version="1.1" viewBox="0 0 460.8 345.6" width="460.8pt" xmlns="http://www.w3.org/2000/svg" xmlns:xlink="http://www.w3.org/1999/xlink">
 <metadata>
  <rdf:RDF xmlns:cc="http://creativecommons.org/ns#" xmlns:dc="http://purl.org/dc/elements/1.1/" xmlns:rdf="http://www.w3.org/1999/02/22-rdf-syntax-ns#">
   <cc:Work>
    <dc:type rdf:resource="http://purl.org/dc/dcmitype/StillImage"/>
    <dc:date>2021-05-19T13:25:27.138354</dc:date>
    <dc:format>image/svg+xml</dc:format>
    <dc:creator>
     <cc:Agent>
      <dc:title>Matplotlib v3.4.2, https://matplotlib.org/</dc:title>
     </cc:Agent>
    </dc:creator>
   </cc:Work>
  </rdf:RDF>
 </metadata>
 <defs>
  <style type="text/css">*{stroke-linecap:butt;stroke-linejoin:round;}</style>
 </defs>
 <g id="figure_1">
  <g id="patch_1">
   <path d="M 0 345.6 
L 460.8 345.6 
L 460.8 0 
L 0 0 
z
" style="fill:none;"/>
  </g>
  <g id="axes_1">
   <g id="matplotlib.axis_1"/>
   <g id="matplotlib.axis_2"/>
   <g id="PolyCollection_1">
    <defs>
     <path d="M 281.944615 -38.60427 
L 281.944615 -38.016 
L 290.269091 -38.016 
L 298.593566 -38.016 
L 306.918042 -38.016 
L 315.242517 -38.016 
L 323.566993 -38.016 
L 331.891469 -38.016 
L 348.54042 -38.016 
L 356.864895 -38.016 
L 365.189371 -38.016 
L 373.513846 -38.016 
L 381.838322 -38.016 
L 390.162797 -38.016 
L 398.487273 -38.016 
L 398.487273 -39.225619 
L 398.487273 -39.225619 
L 390.162797 -39.142555 
L 381.838322 -39.078943 
L 373.513846 -39.013897 
L 365.189371 -38.9402 
L 356.864895 -38.884668 
L 348.54042 -38.853433 
L 331.891469 -38.825608 
L 323.566993 -38.789748 
L 315.242517 -38.746716 
L 306.918042 -38.697872 
L 298.593566 -38.65768 
L 290.269091 -38.630206 
L 281.944615 -38.60427 
z
" id="m65686ef8dc" style="stroke:#7ea297;stroke-opacity:0.5;"/>
    </defs>
    <g clip-path="url(#p50f88917ce)">
     <use style="fill:#7ea297;fill-opacity:0.5;stroke:#7ea297;stroke-opacity:0.5;" x="0" xlink:href="#m65686ef8dc" y="345.6"/>
    </g>
   </g>
   <g id="PolyCollection_2">
    <defs>
     <path d="M 73.832727 -38.037633 
L 73.832727 -38.016 
L 82.157203 -38.016 
L 90.481678 -38.016 
L 98.806154 -38.016 
L 107.130629 -38.016 
L 115.455105 -38.016 
L 132.104056 -38.016 
L 140.428531 -38.016 
L 148.753007 -38.016 
L 157.077483 -38.016 
L 165.401958 -38.016 
L 173.726434 -38.016 
L 182.050909 -38.016 
L 190.375385 -38.016 
L 198.69986 -38.016 
L 207.024336 -38.016 
L 215.348811 -38.016 
L 223.673287 -38.016 
L 231.997762 -38.016 
L 240.322238 -38.016 
L 248.646713 -38.016 
L 273.62014 -38.016 
L 281.944615 -38.016 
L 281.944615 -38.60427 
L 281.944615 -38.60427 
L 273.62014 -38.576855 
L 248.646713 -38.559188 
L 240.322238 -38.530397 
L 231.997762 -38.483428 
L 223.673287 -38.421031 
L 215.348811 -38.358663 
L 207.024336 -38.29672 
L 198.69986 -38.236124 
L 190.375385 -38.176713 
L 182.050909 -38.135159 
L 173.726434 -38.118707 
L 165.401958 -38.117682 
L 157.077483 -38.116804 
L 148.753007 -38.115911 
L 140.428531 -38.115326 
L 132.104056 -38.113496 
L 115.455105 -38.104611 
L 107.130629 -38.092258 
L 98.806154 -38.079904 
L 90.481678 -38.065795 
L 82.157203 -38.051685 
L 73.832727 -38.037633 
z
" id="m737ba4043d" style="stroke:#7ea297;stroke-opacity:0.3;"/>
    </defs>
    <g clip-path="url(#p50f88917ce)">
     <use style="fill:#7ea297;fill-opacity:0.3;stroke:#7ea297;stroke-opacity:0.3;" x="0" xlink:href="#m737ba4043d" y="345.6"/>
    </g>
   </g>
   <g id="line2d_1">
    <path clip-path="url(#p50f88917ce)" d="M 73.832727 307.562367 
L 82.157203 307.548315 
L 90.481678 307.534205 
L 98.806154 307.520096 
L 107.130629 307.507742 
L 115.455105 307.495389 
L 132.104056 307.486504 
L 140.428531 307.484674 
L 148.753007 307.484089 
L 157.077483 307.483196 
L 165.401958 307.482318 
L 173.726434 307.481293 
L 182.050909 307.464841 
L 190.375385 307.423287 
L 198.69986 307.363876 
L 207.024336 307.30328 
L 215.348811 307.241337 
L 223.673287 307.178969 
L 231.997762 307.116572 
L 240.322238 307.069603 
L 248.646713 307.040812 
L 273.62014 307.023145 
L 281.944615 306.99573 
L 290.269091 306.969794 
L 298.593566 306.94232 
L 306.918042 306.902128 
L 315.242517 306.853284 
L 323.566993 306.810252 
L 331.891469 306.774392 
L 348.54042 306.746567 
L 356.864895 306.715332 
L 365.189371 306.6598 
L 373.513846 306.586103 
L 381.838322 306.521057 
L 390.162797 306.457445 
L 398.487273 306.374381 
" style="fill:none;stroke:#60897e;stroke-linecap:square;stroke-width:2;"/>
   </g>
   <g id="line2d_2">
    <path clip-path="url(#p50f88917ce)" d="M 281.944615 306.99573 
L 290.269091 306.969794 
L 298.593566 306.94232 
L 306.918042 306.902128 
L 315.242517 306.853284 
L 323.566993 306.810252 
L 331.891469 306.774392 
L 348.54042 306.746567 
L 356.864895 306.715332 
L 365.189371 306.6598 
L 373.513846 306.586103 
L 381.838322 306.521057 
L 390.162797 306.457445 
L 398.487273 306.374381 
" style="fill:none;stroke:#427165;stroke-linecap:square;stroke-width:2;"/>
   </g>
  </g>
 </g>
 <defs>
  <clipPath id="p50f88917ce">
   <rect height="266.112" width="357.12" x="57.6" y="41.472"/>
  </clipPath>
 </defs>
</svg>
