<?xml version="1.0" encoding="utf-8" standalone="no"?>
<!DOCTYPE svg PUBLIC "-//W3C//DTD SVG 1.1//EN"
  "http://www.w3.org/Graphics/SVG/1.1/DTD/svg11.dtd">
<!-- Created with matplotlib (https://matplotlib.org/) -->
<svg height="288pt" version="1.1" viewBox="0 0 432 288" width="432pt" xmlns="http://www.w3.org/2000/svg" xmlns:xlink="http://www.w3.org/1999/xlink">
 <metadata>
  <rdf:RDF xmlns:cc="http://creativecommons.org/ns#" xmlns:dc="http://purl.org/dc/elements/1.1/" xmlns:rdf="http://www.w3.org/1999/02/22-rdf-syntax-ns#">
   <cc:Work>
    <dc:type rdf:resource="http://purl.org/dc/dcmitype/StillImage"/>
    <dc:date>2021-05-11T17:45:23.544987</dc:date>
    <dc:format>image/svg+xml</dc:format>
    <dc:creator>
     <cc:Agent>
      <dc:title>Matplotlib v3.3.2, https://matplotlib.org/</dc:title>
     </cc:Agent>
    </dc:creator>
   </cc:Work>
  </rdf:RDF>
 </metadata>
 <defs>
  <style type="text/css">*{stroke-linecap:butt;stroke-linejoin:round;}</style>
 </defs>
 <g id="figure_1">
  <g id="patch_1">
   <path d="M 0 288 
L 432 288 
L 432 0 
L 0 0 
z
" style="fill:none;"/>
  </g>
  <g id="axes_1">
   <g id="matplotlib.axis_1"/>
   <g id="matplotlib.axis_2"/>
   <g id="PolyCollection_1">
    <defs>
     <path d="M 295.99893 -36.132367 
L 295.99893 -36 
L 301.966845 -36 
L 307.934759 -36 
L 313.902674 -36 
L 319.870588 -36 
L 325.838503 -36 
L 331.806417 -36 
L 337.774332 -36 
L 343.742246 -36 
L 349.71016 -36 
L 355.678075 -36 
L 361.645989 -36 
L 367.613904 -36 
L 373.581818 -36 
L 373.581818 -36.573463 
L 373.581818 -36.573463 
L 367.613904 -36.496217 
L 361.645989 -36.42072 
L 355.678075 -36.343188 
L 349.71016 -36.265688 
L 343.742246 -36.188187 
L 337.774332 -36.147244 
L 331.806417 -36.141109 
L 325.838503 -36.136754 
L 319.870588 -36.132399 
L 313.902674 -36.132399 
L 307.934759 -36.132399 
L 301.966845 -36.132399 
L 295.99893 -36.132367 
z
" id="mea2a69e810" style="stroke:#7ea297;stroke-opacity:0.5;"/>
    </defs>
    <g clip-path="url(#p1aaa08b7f2)">
     <use style="fill:#7ea297;fill-opacity:0.5;stroke:#7ea297;stroke-opacity:0.5;" x="0" xlink:href="#mea2a69e810" y="288"/>
    </g>
   </g>
   <g id="PolyCollection_2">
    <defs>
     <path d="M 69.218182 -36 
L 69.218182 -36 
L 75.186096 -36 
L 81.154011 -36 
L 87.121925 -36 
L 93.08984 -36 
L 99.057754 -36 
L 105.025668 -36 
L 110.993583 -36 
L 116.961497 -36 
L 122.929412 -36 
L 128.897326 -36 
L 134.865241 -36 
L 140.833155 -36 
L 146.80107 -36 
L 152.768984 -36 
L 158.736898 -36 
L 164.704813 -36 
L 170.672727 -36 
L 176.640642 -36 
L 182.608556 -36 
L 188.576471 -36 
L 194.544385 -36 
L 200.512299 -36 
L 206.480214 -36 
L 212.448128 -36 
L 218.416043 -36 
L 224.383957 -36 
L 230.351872 -36 
L 236.319786 -36 
L 242.287701 -36 
L 248.255615 -36 
L 254.223529 -36 
L 260.191444 -36 
L 266.159358 -36 
L 272.127273 -36 
L 278.095187 -36 
L 284.063102 -36 
L 290.031016 -36 
L 295.99893 -36 
L 295.99893 -36.132367 
L 295.99893 -36.132367 
L 290.031016 -36.116822 
L 284.063102 -36.097908 
L 278.095187 -36.078994 
L 272.127273 -36.06008 
L 266.159358 -36.041166 
L 260.191444 -36.022252 
L 254.223529 -36.00337 
L 248.255615 -36 
L 242.287701 -36 
L 236.319786 -36 
L 230.351872 -36 
L 224.383957 -36 
L 218.416043 -36 
L 212.448128 -36 
L 206.480214 -36 
L 200.512299 -36 
L 194.544385 -36 
L 188.576471 -36 
L 182.608556 -36 
L 176.640642 -36 
L 170.672727 -36 
L 164.704813 -36 
L 158.736898 -36 
L 152.768984 -36 
L 146.80107 -36 
L 140.833155 -36 
L 134.865241 -36 
L 128.897326 -36 
L 122.929412 -36 
L 116.961497 -36 
L 110.993583 -36 
L 105.025668 -36 
L 99.057754 -36 
L 93.08984 -36 
L 87.121925 -36 
L 81.154011 -36 
L 75.186096 -36 
L 69.218182 -36 
z
" id="madc4d07e41" style="stroke:#7ea297;stroke-opacity:0.3;"/>
    </defs>
    <g clip-path="url(#p1aaa08b7f2)">
     <use style="fill:#7ea297;fill-opacity:0.3;stroke:#7ea297;stroke-opacity:0.3;" x="0" xlink:href="#madc4d07e41" y="288"/>
    </g>
   </g>
   <g id="line2d_1">
    <path clip-path="url(#p1aaa08b7f2)" d="M 69.218182 252 
L 75.186096 252 
L 81.154011 252 
L 87.121925 252 
L 93.08984 252 
L 99.057754 252 
L 105.025668 252 
L 110.993583 252 
L 116.961497 252 
L 122.929412 252 
L 128.897326 252 
L 134.865241 252 
L 140.833155 252 
L 146.80107 252 
L 152.768984 252 
L 158.736898 252 
L 164.704813 252 
L 170.672727 252 
L 176.640642 252 
L 182.608556 252 
L 188.576471 252 
L 194.544385 252 
L 200.512299 252 
L 206.480214 252 
L 212.448128 252 
L 218.416043 252 
L 224.383957 252 
L 230.351872 252 
L 236.319786 252 
L 242.287701 252 
L 248.255615 252 
L 254.223529 251.99663 
L 260.191444 251.977748 
L 266.159358 251.958834 
L 272.127273 251.93992 
L 278.095187 251.921006 
L 284.063102 251.902092 
L 290.031016 251.883178 
L 295.99893 251.867633 
L 301.966845 251.867601 
L 307.934759 251.867601 
L 313.902674 251.867601 
L 319.870588 251.867601 
L 325.838503 251.863246 
L 331.806417 251.858891 
L 337.774332 251.852756 
L 343.742246 251.811813 
L 349.71016 251.734312 
L 355.678075 251.656812 
L 361.645989 251.57928 
L 367.613904 251.503783 
L 373.581818 251.426537 
" style="fill:none;stroke:#60897e;stroke-linecap:square;stroke-width:2;"/>
   </g>
   <g id="line2d_2">
    <path clip-path="url(#p1aaa08b7f2)" d="M 295.99893 251.867633 
L 301.966845 251.867601 
L 307.934759 251.867601 
L 313.902674 251.867601 
L 319.870588 251.867601 
L 325.838503 251.863246 
L 331.806417 251.858891 
L 337.774332 251.852756 
L 343.742246 251.811813 
L 349.71016 251.734312 
L 355.678075 251.656812 
L 361.645989 251.57928 
L 367.613904 251.503783 
L 373.581818 251.426537 
" style="fill:none;stroke:#427165;stroke-linecap:square;stroke-width:2;"/>
   </g>
  </g>
 </g>
 <defs>
  <clipPath id="p1aaa08b7f2">
   <rect height="217.44" width="334.8" x="54" y="34.56"/>
  </clipPath>
 </defs>
</svg>
