<?xml version="1.0" encoding="utf-8" standalone="no"?>
<!DOCTYPE svg PUBLIC "-//W3C//DTD SVG 1.1//EN"
  "http://www.w3.org/Graphics/SVG/1.1/DTD/svg11.dtd">
<svg height="345.6pt" version="1.1" viewBox="0 0 460.8 345.6" width="460.8pt" xmlns="http://www.w3.org/2000/svg" xmlns:xlink="http://www.w3.org/1999/xlink">
 <metadata>
  <rdf:RDF xmlns:cc="http://creativecommons.org/ns#" xmlns:dc="http://purl.org/dc/elements/1.1/" xmlns:rdf="http://www.w3.org/1999/02/22-rdf-syntax-ns#">
   <cc:Work>
    <dc:type rdf:resource="http://purl.org/dc/dcmitype/StillImage"/>
    <dc:date>2021-05-20T13:25:49.000153</dc:date>
    <dc:format>image/svg+xml</dc:format>
    <dc:creator>
     <cc:Agent>
      <dc:title>Matplotlib v3.4.2, https://matplotlib.org/</dc:title>
     </cc:Agent>
    </dc:creator>
   </cc:Work>
  </rdf:RDF>
 </metadata>
 <defs>
  <style type="text/css">*{stroke-linecap:butt;stroke-linejoin:round;}</style>
 </defs>
 <g id="figure_1">
  <g id="patch_1">
   <path d="M 0 345.6 
L 460.8 345.6 
L 460.8 0 
L 0 0 
z
" style="fill:none;"/>
  </g>
  <g id="axes_1">
   <g id="matplotlib.axis_1"/>
   <g id="matplotlib.axis_2"/>
   <g id="PolyCollection_1">
    <defs>
     <path d="M 284.858182 -38.979413 
L 284.858182 -38.016 
L 292.974545 -38.016 
L 301.090909 -38.016 
L 309.207273 -38.016 
L 317.323636 -38.016 
L 325.44 -38.016 
L 341.672727 -38.016 
L 349.789091 -38.016 
L 357.905455 -38.016 
L 366.021818 -38.016 
L 374.138182 -38.016 
L 382.254545 -38.016 
L 390.370909 -38.016 
L 398.487273 -38.016 
L 398.487273 -39.750365 
L 398.487273 -39.750365 
L 390.370909 -39.62587 
L 382.254545 -39.518528 
L 374.138182 -39.450679 
L 366.021818 -39.382432 
L 357.905455 -39.308384 
L 349.789091 -39.223001 
L 341.672727 -39.142523 
L 325.44 -39.115741 
L 317.323636 -39.095158 
L 309.207273 -39.074309 
L 301.090909 -39.035496 
L 292.974545 -39.0024 
L 284.858182 -38.979413 
z
" id="m85f41095c4" style="stroke:#7ea297;stroke-opacity:0.5;"/>
    </defs>
    <g clip-path="url(#pe1ffcbc935)">
     <use style="fill:#7ea297;fill-opacity:0.5;stroke:#7ea297;stroke-opacity:0.5;" x="0" xlink:href="#m85f41095c4" y="345.6"/>
    </g>
   </g>
   <g id="PolyCollection_2">
    <defs>
     <path d="M 73.832727 -38.02896 
L 73.832727 -38.016 
L 81.949091 -38.016 
L 90.065455 -38.016 
L 98.181818 -38.016 
L 106.298182 -38.016 
L 114.414545 -38.016 
L 130.647273 -38.016 
L 138.763636 -38.016 
L 146.88 -38.016 
L 154.996364 -38.016 
L 163.112727 -38.016 
L 171.229091 -38.016 
L 179.345455 -38.016 
L 187.461818 -38.016 
L 195.578182 -38.016 
L 203.694545 -38.016 
L 211.810909 -38.016 
L 219.927273 -38.016 
L 228.043636 -38.016 
L 236.16 -38.016 
L 244.276364 -38.016 
L 268.625455 -38.016 
L 276.741818 -38.016 
L 284.858182 -38.016 
L 284.858182 -38.979413 
L 284.858182 -38.979413 
L 276.741818 -38.917596 
L 268.625455 -38.856608 
L 244.276364 -38.797377 
L 236.16 -38.735809 
L 228.043636 -38.689686 
L 219.927273 -38.586388 
L 211.810909 -38.477736 
L 203.694545 -38.408661 
L 195.578182 -38.339104 
L 187.461818 -38.269681 
L 179.345455 -38.203025 
L 171.229091 -38.138507 
L 163.112727 -38.131248 
L 154.996364 -38.130634 
L 146.88 -38.130021 
L 138.763636 -38.129325 
L 130.647273 -38.125712 
L 114.414545 -38.109139 
L 106.298182 -38.092948 
L 98.181818 -38.076756 
L 90.065455 -38.060796 
L 81.949091 -38.044837 
L 73.832727 -38.02896 
z
" id="m609a8dcfef" style="stroke:#7ea297;stroke-opacity:0.3;"/>
    </defs>
    <g clip-path="url(#pe1ffcbc935)">
     <use style="fill:#7ea297;fill-opacity:0.3;stroke:#7ea297;stroke-opacity:0.3;" x="0" xlink:href="#m609a8dcfef" y="345.6"/>
    </g>
   </g>
   <g id="line2d_1">
    <path clip-path="url(#pe1ffcbc935)" d="M 73.832727 307.57104 
L 81.949091 307.555163 
L 90.065455 307.539204 
L 98.181818 307.523244 
L 106.298182 307.507052 
L 114.414545 307.490861 
L 130.647273 307.474288 
L 138.763636 307.470675 
L 146.88 307.469979 
L 154.996364 307.469366 
L 163.112727 307.468752 
L 171.229091 307.461493 
L 179.345455 307.396975 
L 187.461818 307.330319 
L 195.578182 307.260896 
L 203.694545 307.191339 
L 211.810909 307.122264 
L 219.927273 307.013612 
L 228.043636 306.910314 
L 236.16 306.864191 
L 244.276364 306.802623 
L 268.625455 306.743392 
L 276.741818 306.682404 
L 284.858182 306.620587 
L 292.974545 306.5976 
L 301.090909 306.564504 
L 309.207273 306.525691 
L 317.323636 306.504842 
L 325.44 306.484259 
L 341.672727 306.457477 
L 349.789091 306.376999 
L 357.905455 306.291616 
L 366.021818 306.217568 
L 374.138182 306.149321 
L 382.254545 306.081472 
L 390.370909 305.97413 
L 398.487273 305.849635 
" style="fill:none;stroke:#60897e;stroke-linecap:square;stroke-width:2;"/>
   </g>
   <g id="line2d_2">
    <path clip-path="url(#pe1ffcbc935)" d="M 284.858182 306.620587 
L 292.974545 306.5976 
L 301.090909 306.564504 
L 309.207273 306.525691 
L 317.323636 306.504842 
L 325.44 306.484259 
L 341.672727 306.457477 
L 349.789091 306.376999 
L 357.905455 306.291616 
L 366.021818 306.217568 
L 374.138182 306.149321 
L 382.254545 306.081472 
L 390.370909 305.97413 
L 398.487273 305.849635 
" style="fill:none;stroke:#427165;stroke-linecap:square;stroke-width:2;"/>
   </g>
  </g>
 </g>
 <defs>
  <clipPath id="pe1ffcbc935">
   <rect height="266.112" width="357.12" x="57.6" y="41.472"/>
  </clipPath>
 </defs>
</svg>
