<?xml version="1.0" encoding="utf-8" standalone="no"?>
<!DOCTYPE svg PUBLIC "-//W3C//DTD SVG 1.1//EN"
  "http://www.w3.org/Graphics/SVG/1.1/DTD/svg11.dtd">
<svg height="345.6pt" version="1.1" viewBox="0 0 460.8 345.6" width="460.8pt" xmlns="http://www.w3.org/2000/svg" xmlns:xlink="http://www.w3.org/1999/xlink">
 <metadata>
  <rdf:RDF xmlns:cc="http://creativecommons.org/ns#" xmlns:dc="http://purl.org/dc/elements/1.1/" xmlns:rdf="http://www.w3.org/1999/02/22-rdf-syntax-ns#">
   <cc:Work>
    <dc:type rdf:resource="http://purl.org/dc/dcmitype/StillImage"/>
    <dc:date>2021-05-17T13:25:22.171287</dc:date>
    <dc:format>image/svg+xml</dc:format>
    <dc:creator>
     <cc:Agent>
      <dc:title>Matplotlib v3.4.2, https://matplotlib.org/</dc:title>
     </cc:Agent>
    </dc:creator>
   </cc:Work>
  </rdf:RDF>
 </metadata>
 <defs>
  <style type="text/css">*{stroke-linecap:butt;stroke-linejoin:round;}</style>
 </defs>
 <g id="figure_1">
  <g id="patch_1">
   <path d="M 0 345.6 
L 460.8 345.6 
L 460.8 0 
L 0 0 
z
" style="fill:none;"/>
  </g>
  <g id="axes_1">
   <g id="matplotlib.axis_1"/>
   <g id="matplotlib.axis_2"/>
   <g id="PolyCollection_1">
    <defs>
     <path d="M 258.096118 -38.797377 
L 258.096118 -38.016 
L 284.419459 -38.016 
L 293.193907 -38.016 
L 301.968354 -38.016 
L 310.742801 -38.016 
L 319.517248 -38.016 
L 328.291695 -38.016 
L 337.066143 -38.016 
L 345.84059 -38.016 
L 363.389484 -38.016 
L 372.163931 -38.016 
L 380.938378 -38.016 
L 389.712826 -38.016 
L 398.487273 -38.016 
L 398.487273 -39.450679 
L 398.487273 -39.450679 
L 389.712826 -39.382432 
L 380.938378 -39.308384 
L 372.163931 -39.223001 
L 363.389484 -39.142523 
L 345.84059 -39.115741 
L 337.066143 -39.095158 
L 328.291695 -39.074309 
L 319.517248 -39.035496 
L 310.742801 -39.0024 
L 301.968354 -38.979413 
L 293.193907 -38.917596 
L 284.419459 -38.856608 
L 258.096118 -38.797377 
z
" id="m3b5606c9a6" style="stroke:#7ea297;stroke-opacity:0.5;"/>
    </defs>
    <g clip-path="url(#pf83cf5abd9)">
     <use style="fill:#7ea297;fill-opacity:0.5;stroke:#7ea297;stroke-opacity:0.5;" x="0" xlink:href="#m3b5606c9a6" y="345.6"/>
    </g>
   </g>
   <g id="PolyCollection_2">
    <defs>
     <path d="M 73.832727 -38.02896 
L 73.832727 -38.016 
L 82.607174 -38.016 
L 91.381622 -38.016 
L 100.156069 -38.016 
L 108.930516 -38.016 
L 117.704963 -38.016 
L 135.253857 -38.016 
L 144.028305 -38.016 
L 152.802752 -38.016 
L 161.577199 -38.016 
L 170.351646 -38.016 
L 179.126093 -38.016 
L 187.900541 -38.016 
L 196.674988 -38.016 
L 205.449435 -38.016 
L 214.223882 -38.016 
L 222.998329 -38.016 
L 231.772776 -38.016 
L 240.547224 -38.016 
L 249.321671 -38.016 
L 258.096118 -38.016 
L 258.096118 -38.797377 
L 258.096118 -38.797377 
L 249.321671 -38.735809 
L 240.547224 -38.689686 
L 231.772776 -38.586388 
L 222.998329 -38.477736 
L 214.223882 -38.408661 
L 205.449435 -38.339104 
L 196.674988 -38.269681 
L 187.900541 -38.203025 
L 179.126093 -38.138507 
L 170.351646 -38.131248 
L 161.577199 -38.130634 
L 152.802752 -38.130021 
L 144.028305 -38.129325 
L 135.253857 -38.125712 
L 117.704963 -38.109139 
L 108.930516 -38.092948 
L 100.156069 -38.076756 
L 91.381622 -38.060796 
L 82.607174 -38.044837 
L 73.832727 -38.02896 
z
" id="m83b085bb6f" style="stroke:#7ea297;stroke-opacity:0.3;"/>
    </defs>
    <g clip-path="url(#pf83cf5abd9)">
     <use style="fill:#7ea297;fill-opacity:0.3;stroke:#7ea297;stroke-opacity:0.3;" x="0" xlink:href="#m83b085bb6f" y="345.6"/>
    </g>
   </g>
   <g id="line2d_1">
    <path clip-path="url(#pf83cf5abd9)" d="M 73.832727 307.57104 
L 82.607174 307.555163 
L 91.381622 307.539204 
L 100.156069 307.523244 
L 108.930516 307.507052 
L 117.704963 307.490861 
L 135.253857 307.474288 
L 144.028305 307.470675 
L 152.802752 307.469979 
L 161.577199 307.469366 
L 170.351646 307.468752 
L 179.126093 307.461493 
L 187.900541 307.396975 
L 196.674988 307.330319 
L 205.449435 307.260896 
L 214.223882 307.191339 
L 222.998329 307.122264 
L 231.772776 307.013612 
L 240.547224 306.910314 
L 249.321671 306.864191 
L 258.096118 306.802623 
L 284.419459 306.743392 
L 293.193907 306.682404 
L 301.968354 306.620587 
L 310.742801 306.5976 
L 319.517248 306.564504 
L 328.291695 306.525691 
L 337.066143 306.504842 
L 345.84059 306.484259 
L 363.389484 306.457477 
L 372.163931 306.376999 
L 380.938378 306.291616 
L 389.712826 306.217568 
L 398.487273 306.149321 
" style="fill:none;stroke:#60897e;stroke-linecap:square;stroke-width:2;"/>
   </g>
   <g id="line2d_2">
    <path clip-path="url(#pf83cf5abd9)" d="M 258.096118 306.802623 
L 284.419459 306.743392 
L 293.193907 306.682404 
L 301.968354 306.620587 
L 310.742801 306.5976 
L 319.517248 306.564504 
L 328.291695 306.525691 
L 337.066143 306.504842 
L 345.84059 306.484259 
L 363.389484 306.457477 
L 372.163931 306.376999 
L 380.938378 306.291616 
L 389.712826 306.217568 
L 398.487273 306.149321 
" style="fill:none;stroke:#427165;stroke-linecap:square;stroke-width:2;"/>
   </g>
  </g>
 </g>
 <defs>
  <clipPath id="pf83cf5abd9">
   <rect height="266.112" width="357.12" x="57.6" y="41.472"/>
  </clipPath>
 </defs>
</svg>
