<?xml version="1.0" encoding="utf-8" standalone="no"?>
<!DOCTYPE svg PUBLIC "-//W3C//DTD SVG 1.1//EN"
  "http://www.w3.org/Graphics/SVG/1.1/DTD/svg11.dtd">
<svg height="345.6pt" version="1.1" viewBox="0 0 460.8 345.6" width="460.8pt" xmlns="http://www.w3.org/2000/svg" xmlns:xlink="http://www.w3.org/1999/xlink">
 <metadata>
  <rdf:RDF xmlns:cc="http://creativecommons.org/ns#" xmlns:dc="http://purl.org/dc/elements/1.1/" xmlns:rdf="http://www.w3.org/1999/02/22-rdf-syntax-ns#">
   <cc:Work>
    <dc:type rdf:resource="http://purl.org/dc/dcmitype/StillImage"/>
    <dc:date>2021-05-19T13:25:27.233721</dc:date>
    <dc:format>image/svg+xml</dc:format>
    <dc:creator>
     <cc:Agent>
      <dc:title>Matplotlib v3.4.2, https://matplotlib.org/</dc:title>
     </cc:Agent>
    </dc:creator>
   </cc:Work>
  </rdf:RDF>
 </metadata>
 <defs>
  <style type="text/css">*{stroke-linecap:butt;stroke-linejoin:round;}</style>
 </defs>
 <g id="figure_1">
  <g id="patch_1">
   <path d="M 0 345.6 
L 460.8 345.6 
L 460.8 0 
L 0 0 
z
" style="fill:none;"/>
  </g>
  <g id="axes_1">
   <g id="matplotlib.axis_1"/>
   <g id="matplotlib.axis_2"/>
   <g id="PolyCollection_1">
    <defs>
     <path d="M 281.944615 -38.917596 
L 281.944615 -38.016 
L 290.269091 -38.016 
L 298.593566 -38.016 
L 306.918042 -38.016 
L 315.242517 -38.016 
L 323.566993 -38.016 
L 331.891469 -38.016 
L 348.54042 -38.016 
L 356.864895 -38.016 
L 365.189371 -38.016 
L 373.513846 -38.016 
L 381.838322 -38.016 
L 390.162797 -38.016 
L 398.487273 -38.016 
L 398.487273 -39.62587 
L 398.487273 -39.62587 
L 390.162797 -39.518528 
L 381.838322 -39.450679 
L 373.513846 -39.382432 
L 365.189371 -39.308384 
L 356.864895 -39.223001 
L 348.54042 -39.142523 
L 331.891469 -39.115741 
L 323.566993 -39.095158 
L 315.242517 -39.074309 
L 306.918042 -39.035496 
L 298.593566 -39.0024 
L 290.269091 -38.979413 
L 281.944615 -38.917596 
z
" id="m9cfd7ea98b" style="stroke:#7ea297;stroke-opacity:0.5;"/>
    </defs>
    <g clip-path="url(#p60428a660d)">
     <use style="fill:#7ea297;fill-opacity:0.5;stroke:#7ea297;stroke-opacity:0.5;" x="0" xlink:href="#m9cfd7ea98b" y="345.6"/>
    </g>
   </g>
   <g id="PolyCollection_2">
    <defs>
     <path d="M 73.832727 -38.02896 
L 73.832727 -38.016 
L 82.157203 -38.016 
L 90.481678 -38.016 
L 98.806154 -38.016 
L 107.130629 -38.016 
L 115.455105 -38.016 
L 132.104056 -38.016 
L 140.428531 -38.016 
L 148.753007 -38.016 
L 157.077483 -38.016 
L 165.401958 -38.016 
L 173.726434 -38.016 
L 182.050909 -38.016 
L 190.375385 -38.016 
L 198.69986 -38.016 
L 207.024336 -38.016 
L 215.348811 -38.016 
L 223.673287 -38.016 
L 231.997762 -38.016 
L 240.322238 -38.016 
L 248.646713 -38.016 
L 273.62014 -38.016 
L 281.944615 -38.016 
L 281.944615 -38.917596 
L 281.944615 -38.917596 
L 273.62014 -38.856608 
L 248.646713 -38.797377 
L 240.322238 -38.735809 
L 231.997762 -38.689686 
L 223.673287 -38.586388 
L 215.348811 -38.477736 
L 207.024336 -38.408661 
L 198.69986 -38.339104 
L 190.375385 -38.269681 
L 182.050909 -38.203025 
L 173.726434 -38.138507 
L 165.401958 -38.131248 
L 157.077483 -38.130634 
L 148.753007 -38.130021 
L 140.428531 -38.129325 
L 132.104056 -38.125712 
L 115.455105 -38.109139 
L 107.130629 -38.092948 
L 98.806154 -38.076756 
L 90.481678 -38.060796 
L 82.157203 -38.044837 
L 73.832727 -38.02896 
z
" id="mbfa9030508" style="stroke:#7ea297;stroke-opacity:0.3;"/>
    </defs>
    <g clip-path="url(#p60428a660d)">
     <use style="fill:#7ea297;fill-opacity:0.3;stroke:#7ea297;stroke-opacity:0.3;" x="0" xlink:href="#mbfa9030508" y="345.6"/>
    </g>
   </g>
   <g id="line2d_1">
    <path clip-path="url(#p60428a660d)" d="M 73.832727 307.57104 
L 82.157203 307.555163 
L 90.481678 307.539204 
L 98.806154 307.523244 
L 107.130629 307.507052 
L 115.455105 307.490861 
L 132.104056 307.474288 
L 140.428531 307.470675 
L 148.753007 307.469979 
L 157.077483 307.469366 
L 165.401958 307.468752 
L 173.726434 307.461493 
L 182.050909 307.396975 
L 190.375385 307.330319 
L 198.69986 307.260896 
L 207.024336 307.191339 
L 215.348811 307.122264 
L 223.673287 307.013612 
L 231.997762 306.910314 
L 240.322238 306.864191 
L 248.646713 306.802623 
L 273.62014 306.743392 
L 281.944615 306.682404 
L 290.269091 306.620587 
L 298.593566 306.5976 
L 306.918042 306.564504 
L 315.242517 306.525691 
L 323.566993 306.504842 
L 331.891469 306.484259 
L 348.54042 306.457477 
L 356.864895 306.376999 
L 365.189371 306.291616 
L 373.513846 306.217568 
L 381.838322 306.149321 
L 390.162797 306.081472 
L 398.487273 305.97413 
" style="fill:none;stroke:#60897e;stroke-linecap:square;stroke-width:2;"/>
   </g>
   <g id="line2d_2">
    <path clip-path="url(#p60428a660d)" d="M 281.944615 306.682404 
L 290.269091 306.620587 
L 298.593566 306.5976 
L 306.918042 306.564504 
L 315.242517 306.525691 
L 323.566993 306.504842 
L 331.891469 306.484259 
L 348.54042 306.457477 
L 356.864895 306.376999 
L 365.189371 306.291616 
L 373.513846 306.217568 
L 381.838322 306.149321 
L 390.162797 306.081472 
L 398.487273 305.97413 
" style="fill:none;stroke:#427165;stroke-linecap:square;stroke-width:2;"/>
   </g>
  </g>
 </g>
 <defs>
  <clipPath id="p60428a660d">
   <rect height="266.112" width="357.12" x="57.6" y="41.472"/>
  </clipPath>
 </defs>
</svg>
