<?xml version="1.0" encoding="utf-8" standalone="no"?>
<!DOCTYPE svg PUBLIC "-//W3C//DTD SVG 1.1//EN"
  "http://www.w3.org/Graphics/SVG/1.1/DTD/svg11.dtd">
<!-- Created with matplotlib (https://matplotlib.org/) -->
<svg height="345.6pt" version="1.1" viewBox="0 0 460.8 345.6" width="460.8pt" xmlns="http://www.w3.org/2000/svg" xmlns:xlink="http://www.w3.org/1999/xlink">
 <metadata>
  <rdf:RDF xmlns:cc="http://creativecommons.org/ns#" xmlns:dc="http://purl.org/dc/elements/1.1/" xmlns:rdf="http://www.w3.org/1999/02/22-rdf-syntax-ns#">
   <cc:Work>
    <dc:type rdf:resource="http://purl.org/dc/dcmitype/StillImage"/>
    <dc:date>2021-05-15T09:28:37.668718</dc:date>
    <dc:format>image/svg+xml</dc:format>
    <dc:creator>
     <cc:Agent>
      <dc:title>Matplotlib v3.3.2, https://matplotlib.org/</dc:title>
     </cc:Agent>
    </dc:creator>
   </cc:Work>
  </rdf:RDF>
 </metadata>
 <defs>
  <style type="text/css">*{stroke-linecap:butt;stroke-linejoin:round;}</style>
 </defs>
 <g id="figure_1">
  <g id="patch_1">
   <path d="M 0 345.6 
L 460.8 345.6 
L 460.8 0 
L 0 0 
z
" style="fill:none;"/>
  </g>
  <g id="axes_1">
   <g id="matplotlib.axis_1"/>
   <g id="matplotlib.axis_2"/>
   <g id="PolyCollection_1">
    <defs>
     <path d="M 250.073766 -38.651331 
L 250.073766 -38.016 
L 259.34961 -38.016 
L 268.625455 -38.016 
L 296.452987 -38.016 
L 305.728831 -38.016 
L 315.004675 -38.016 
L 324.280519 -38.016 
L 333.556364 -38.016 
L 342.832208 -38.016 
L 352.108052 -38.016 
L 361.383896 -38.016 
L 379.935584 -38.016 
L 389.211429 -38.016 
L 398.487273 -38.016 
L 398.487273 -39.638675 
L 398.487273 -39.638675 
L 389.211429 -39.503695 
L 379.935584 -39.379713 
L 361.383896 -39.311813 
L 352.108052 -39.246456 
L 342.832208 -39.17344 
L 333.556364 -39.082773 
L 324.280519 -39.026402 
L 315.004675 -38.968042 
L 305.728831 -38.898127 
L 296.452987 -38.832585 
L 268.625455 -38.767043 
L 259.34961 -38.708763 
L 250.073766 -38.651331 
z
" id="mfa72bf3592" style="stroke:#7ea297;stroke-opacity:0.5;"/>
    </defs>
    <g clip-path="url(#p26c2a023a9)">
     <use style="fill:#7ea297;fill-opacity:0.5;stroke:#7ea297;stroke-opacity:0.5;" x="0" xlink:href="#mfa72bf3592" y="345.6"/>
    </g>
   </g>
   <g id="PolyCollection_2">
    <defs>
     <path d="M 73.832727 -38.027767 
L 73.832727 -38.016 
L 83.108571 -38.016 
L 92.384416 -38.016 
L 101.66026 -38.016 
L 110.936104 -38.016 
L 120.211948 -38.016 
L 138.763636 -38.016 
L 148.039481 -38.016 
L 157.315325 -38.016 
L 166.591169 -38.016 
L 175.867013 -38.016 
L 185.142857 -38.016 
L 194.418701 -38.016 
L 203.694545 -38.016 
L 212.97039 -38.016 
L 222.246234 -38.016 
L 231.522078 -38.016 
L 240.797922 -38.016 
L 250.073766 -38.016 
L 250.073766 -38.651331 
L 250.073766 -38.651331 
L 240.797922 -38.551997 
L 231.522078 -38.478584 
L 222.246234 -38.416752 
L 212.97039 -38.353543 
L 203.694545 -38.290359 
L 194.418701 -38.223201 
L 185.142857 -38.173083 
L 175.867013 -38.168525 
L 166.591169 -38.163966 
L 157.315325 -38.159461 
L 148.039481 -38.154982 
L 138.763636 -38.14295 
L 120.211948 -38.123841 
L 110.936104 -38.104573 
L 101.66026 -38.085305 
L 92.384416 -38.066038 
L 83.108571 -38.046903 
L 73.832727 -38.027767 
z
" id="me77e32eff1" style="stroke:#7ea297;stroke-opacity:0.3;"/>
    </defs>
    <g clip-path="url(#p26c2a023a9)">
     <use style="fill:#7ea297;fill-opacity:0.3;stroke:#7ea297;stroke-opacity:0.3;" x="0" xlink:href="#me77e32eff1" y="345.6"/>
    </g>
   </g>
   <g id="line2d_1">
    <path clip-path="url(#p26c2a023a9)" d="M 73.832727 307.572233 
L 83.108571 307.553097 
L 92.384416 307.533962 
L 101.66026 307.514695 
L 110.936104 307.495427 
L 120.211948 307.476159 
L 138.763636 307.45705 
L 148.039481 307.445018 
L 157.315325 307.440539 
L 166.591169 307.436034 
L 175.867013 307.431475 
L 185.142857 307.426917 
L 194.418701 307.376799 
L 203.694545 307.309641 
L 212.97039 307.246457 
L 222.246234 307.183248 
L 231.522078 307.121416 
L 240.797922 307.048003 
L 250.073766 306.948669 
L 259.34961 306.891237 
L 268.625455 306.832957 
L 296.452987 306.767415 
L 305.728831 306.701873 
L 315.004675 306.631958 
L 324.280519 306.573598 
L 333.556364 306.517227 
L 342.832208 306.42656 
L 352.108052 306.353544 
L 361.383896 306.288187 
L 379.935584 306.220287 
L 389.211429 306.096305 
L 398.487273 305.961325 
" style="fill:none;stroke:#60897e;stroke-linecap:square;stroke-width:2;"/>
   </g>
   <g id="line2d_2">
    <path clip-path="url(#p26c2a023a9)" d="M 250.073766 306.948669 
L 259.34961 306.891237 
L 268.625455 306.832957 
L 296.452987 306.767415 
L 305.728831 306.701873 
L 315.004675 306.631958 
L 324.280519 306.573598 
L 333.556364 306.517227 
L 342.832208 306.42656 
L 352.108052 306.353544 
L 361.383896 306.288187 
L 379.935584 306.220287 
L 389.211429 306.096305 
L 398.487273 305.961325 
" style="fill:none;stroke:#427165;stroke-linecap:square;stroke-width:2;"/>
   </g>
  </g>
 </g>
 <defs>
  <clipPath id="p26c2a023a9">
   <rect height="266.112" width="357.12" x="57.6" y="41.472"/>
  </clipPath>
 </defs>
</svg>
