<?xml version="1.0" encoding="utf-8" standalone="no"?>
<!DOCTYPE svg PUBLIC "-//W3C//DTD SVG 1.1//EN"
  "http://www.w3.org/Graphics/SVG/1.1/DTD/svg11.dtd">
<!-- Created with matplotlib (https://matplotlib.org/) -->
<svg height="288pt" version="1.1" viewBox="0 0 432 288" width="432pt" xmlns="http://www.w3.org/2000/svg" xmlns:xlink="http://www.w3.org/1999/xlink">
 <metadata>
  <rdf:RDF xmlns:cc="http://creativecommons.org/ns#" xmlns:dc="http://purl.org/dc/elements/1.1/" xmlns:rdf="http://www.w3.org/1999/02/22-rdf-syntax-ns#">
   <cc:Work>
    <dc:type rdf:resource="http://purl.org/dc/dcmitype/StillImage"/>
    <dc:date>2021-05-14T21:42:57.142949</dc:date>
    <dc:format>image/svg+xml</dc:format>
    <dc:creator>
     <cc:Agent>
      <dc:title>Matplotlib v3.3.2, https://matplotlib.org/</dc:title>
     </cc:Agent>
    </dc:creator>
   </cc:Work>
  </rdf:RDF>
 </metadata>
 <defs>
  <style type="text/css">*{stroke-linecap:butt;stroke-linejoin:round;}</style>
 </defs>
 <g id="figure_1">
  <g id="patch_1">
   <path d="M 0 288 
L 432 288 
L 432 0 
L 0 0 
z
" style="fill:none;"/>
  </g>
  <g id="axes_1">
   <g id="matplotlib.axis_1"/>
   <g id="matplotlib.axis_2"/>
   <g id="PolyCollection_1">
    <defs>
     <path d="M 295.036364 -37.075529 
L 295.036364 -36 
L 299.945455 -36 
L 304.854545 -36 
L 319.581818 -36 
L 324.490909 -36 
L 329.4 -36 
L 334.309091 -36 
L 339.218182 -36 
L 344.127273 -36 
L 349.036364 -36 
L 353.945455 -36 
L 363.763636 -36 
L 368.672727 -36 
L 373.581818 -36 
L 373.581818 -37.93596 
L 373.581818 -37.93596 
L 368.672727 -37.86436 
L 363.763636 -37.805955 
L 353.945455 -37.762521 
L 349.036364 -37.724719 
L 344.127273 -37.672721 
L 339.218182 -37.600981 
L 334.309091 -37.529685 
L 329.4 -37.453924 
L 324.490909 -37.372018 
L 319.581818 -37.296161 
L 304.854545 -37.219887 
L 299.945455 -37.142237 
L 295.036364 -37.075529 
z
" id="m805866326a" style="stroke:#7ea297;stroke-opacity:0.5;"/>
    </defs>
    <g clip-path="url(#pdd10fc0144)">
     <use style="fill:#7ea297;fill-opacity:0.5;stroke:#7ea297;stroke-opacity:0.5;" x="0" xlink:href="#m805866326a" y="288"/>
    </g>
   </g>
   <g id="PolyCollection_2">
    <defs>
     <path d="M 69.218182 -36.100803 
L 69.218182 -36 
L 74.127273 -36 
L 79.036364 -36 
L 83.945455 -36 
L 88.854545 -36 
L 93.763636 -36 
L 98.672727 -36 
L 103.581818 -36 
L 108.490909 -36 
L 113.4 -36 
L 118.309091 -36 
L 128.127273 -36 
L 133.036364 -36 
L 137.945455 -36 
L 142.854545 -36 
L 147.763636 -36 
L 152.672727 -36 
L 157.581818 -36 
L 162.490909 -36 
L 167.4 -36 
L 172.309091 -36 
L 177.218182 -36 
L 182.127273 -36 
L 187.036364 -36 
L 191.945455 -36 
L 196.854545 -36 
L 201.763636 -36 
L 206.672727 -36 
L 211.581818 -36 
L 216.490909 -36 
L 221.4 -36 
L 226.309091 -36 
L 236.127273 -36 
L 241.036364 -36 
L 245.945455 -36 
L 250.854545 -36 
L 255.763636 -36 
L 260.672727 -36 
L 265.581818 -36 
L 270.490909 -36 
L 275.4 -36 
L 280.309091 -36 
L 285.218182 -36 
L 290.127273 -36 
L 295.036364 -36 
L 295.036364 -37.075529 
L 295.036364 -37.075529 
L 290.127273 -37.004355 
L 285.218182 -36.936471 
L 280.309091 -36.874558 
L 275.4 -36.813107 
L 270.490909 -36.756469 
L 265.581818 -36.716186 
L 260.672727 -36.682719 
L 255.763636 -36.662665 
L 250.854545 -36.64832 
L 245.945455 -36.63341 
L 241.036364 -36.61655 
L 236.127273 -36.580184 
L 226.309091 -36.536002 
L 221.4 -36.484656 
L 216.490909 -36.432309 
L 211.581818 -36.378526 
L 206.672727 -36.326275 
L 201.763636 -36.276392 
L 196.854545 -36.243977 
L 191.945455 -36.22206 
L 187.036364 -36.209013 
L 182.127273 -36.196139 
L 177.218182 -36.18707 
L 172.309091 -36.173744 
L 167.4 -36.160435 
L 162.490909 -36.149616 
L 157.581818 -36.140137 
L 152.672727 -36.129997 
L 147.763636 -36.121031 
L 142.854545 -36.113258 
L 137.945455 -36.111605 
L 133.036364 -36.109951 
L 128.127273 -36.108349 
L 118.309091 -36.107122 
L 113.4 -36.107192 
L 108.490909 -36.107218 
L 103.581818 -36.107244 
L 98.672727 -36.107261 
L 93.763636 -36.107209 
L 88.854545 -36.106687 
L 83.945455 -36.105842 
L 79.036364 -36.104929 
L 74.127273 -36.102866 
L 69.218182 -36.100803 
z
" id="m7379211a26" style="stroke:#7ea297;stroke-opacity:0.3;"/>
    </defs>
    <g clip-path="url(#pdd10fc0144)">
     <use style="fill:#7ea297;fill-opacity:0.3;stroke:#7ea297;stroke-opacity:0.3;" x="0" xlink:href="#m7379211a26" y="288"/>
    </g>
   </g>
   <g id="line2d_1">
    <path clip-path="url(#pdd10fc0144)" d="M 69.218182 251.899197 
L 74.127273 251.897134 
L 79.036364 251.895071 
L 83.945455 251.894158 
L 88.854545 251.893313 
L 93.763636 251.892791 
L 98.672727 251.892739 
L 103.581818 251.892756 
L 108.490909 251.892782 
L 113.4 251.892808 
L 118.309091 251.892878 
L 128.127273 251.891651 
L 133.036364 251.890049 
L 137.945455 251.888395 
L 142.854545 251.886742 
L 147.763636 251.878969 
L 152.672727 251.870003 
L 157.581818 251.859863 
L 162.490909 251.850384 
L 167.4 251.839565 
L 172.309091 251.826256 
L 177.218182 251.81293 
L 182.127273 251.803861 
L 187.036364 251.790987 
L 191.945455 251.77794 
L 196.854545 251.756023 
L 201.763636 251.723608 
L 206.672727 251.673725 
L 211.581818 251.621474 
L 216.490909 251.567691 
L 221.4 251.515344 
L 226.309091 251.463998 
L 236.127273 251.419816 
L 241.036364 251.38345 
L 245.945455 251.36659 
L 250.854545 251.35168 
L 255.763636 251.337335 
L 260.672727 251.317281 
L 265.581818 251.283814 
L 270.490909 251.243531 
L 275.4 251.186893 
L 280.309091 251.125442 
L 285.218182 251.063529 
L 290.127273 250.995645 
L 295.036364 250.924471 
L 299.945455 250.857763 
L 304.854545 250.780113 
L 319.581818 250.703839 
L 324.490909 250.627982 
L 329.4 250.546076 
L 334.309091 250.470315 
L 339.218182 250.399019 
L 344.127273 250.327279 
L 349.036364 250.275281 
L 353.945455 250.237479 
L 363.763636 250.194045 
L 368.672727 250.13564 
L 373.581818 250.06404 
" style="fill:none;stroke:#60897e;stroke-linecap:square;stroke-width:2;"/>
   </g>
   <g id="line2d_2">
    <path clip-path="url(#pdd10fc0144)" d="M 295.036364 250.924471 
L 299.945455 250.857763 
L 304.854545 250.780113 
L 319.581818 250.703839 
L 324.490909 250.627982 
L 329.4 250.546076 
L 334.309091 250.470315 
L 339.218182 250.399019 
L 344.127273 250.327279 
L 349.036364 250.275281 
L 353.945455 250.237479 
L 363.763636 250.194045 
L 368.672727 250.13564 
L 373.581818 250.06404 
" style="fill:none;stroke:#427165;stroke-linecap:square;stroke-width:2;"/>
   </g>
  </g>
 </g>
 <defs>
  <clipPath id="pdd10fc0144">
   <rect height="217.44" width="334.8" x="54" y="34.56"/>
  </clipPath>
 </defs>
</svg>
