<?xml version="1.0" encoding="utf-8" standalone="no"?>
<!DOCTYPE svg PUBLIC "-//W3C//DTD SVG 1.1//EN"
  "http://www.w3.org/Graphics/SVG/1.1/DTD/svg11.dtd">
<svg height="345.6pt" version="1.1" viewBox="0 0 460.8 345.6" width="460.8pt" xmlns="http://www.w3.org/2000/svg" xmlns:xlink="http://www.w3.org/1999/xlink">
 <metadata>
  <rdf:RDF xmlns:cc="http://creativecommons.org/ns#" xmlns:dc="http://purl.org/dc/elements/1.1/" xmlns:rdf="http://www.w3.org/1999/02/22-rdf-syntax-ns#">
   <cc:Work>
    <dc:type rdf:resource="http://purl.org/dc/dcmitype/StillImage"/>
    <dc:date>2021-05-20T13:25:46.719748</dc:date>
    <dc:format>image/svg+xml</dc:format>
    <dc:creator>
     <cc:Agent>
      <dc:title>Matplotlib v3.4.2, https://matplotlib.org/</dc:title>
     </cc:Agent>
    </dc:creator>
   </cc:Work>
  </rdf:RDF>
 </metadata>
 <defs>
  <style type="text/css">*{stroke-linecap:butt;stroke-linejoin:round;}</style>
 </defs>
 <g id="figure_1">
  <g id="patch_1">
   <path d="M 0 345.6 
L 460.8 345.6 
L 460.8 0 
L 0 0 
z
" style="fill:none;"/>
  </g>
  <g id="axes_1">
   <g id="matplotlib.axis_1"/>
   <g id="matplotlib.axis_2"/>
   <g id="PolyCollection_1">
    <defs>
     <path d="M 330.649009 -39.795372 
L 330.649009 -38.016 
L 335.4946 -38.016 
L 340.34019 -38.016 
L 345.18578 -38.016 
L 350.03137 -38.016 
L 354.876961 -38.016 
L 364.568141 -38.016 
L 369.413731 -38.016 
L 374.259322 -38.016 
L 379.104912 -38.016 
L 383.950502 -38.016 
L 388.796092 -38.016 
L 393.641682 -38.016 
L 398.487273 -38.016 
L 398.487273 -40.972761 
L 398.487273 -40.972761 
L 393.641682 -40.84786 
L 388.796092 -40.728052 
L 383.950502 -40.612813 
L 379.104912 -40.50502 
L 374.259322 -40.385308 
L 369.413731 -40.29768 
L 364.568141 -40.226202 
L 354.876961 -40.173046 
L 350.03137 -40.126782 
L 345.18578 -40.063144 
L 340.34019 -39.975346 
L 335.4946 -39.888092 
L 330.649009 -39.795372 
z
" id="m35d7de8dd5" style="stroke:#7ea297;stroke-opacity:0.5;"/>
    </defs>
    <g clip-path="url(#p89aba9e652)">
     <use style="fill:#7ea297;fill-opacity:0.5;stroke:#7ea297;stroke-opacity:0.5;" x="0" xlink:href="#m35d7de8dd5" y="345.6"/>
    </g>
   </g>
   <g id="PolyCollection_2">
    <defs>
     <path d="M 73.832727 -38.139367 
L 73.832727 -38.016 
L 78.678318 -38.016 
L 83.523908 -38.016 
L 88.369498 -38.016 
L 93.215088 -38.016 
L 98.060678 -38.016 
L 102.906269 -38.016 
L 107.751859 -38.016 
L 112.597449 -38.016 
L 117.443039 -38.016 
L 122.28863 -38.016 
L 131.97981 -38.016 
L 136.8254 -38.016 
L 141.670991 -38.016 
L 146.516581 -38.016 
L 151.362171 -38.016 
L 156.207761 -38.016 
L 161.053351 -38.016 
L 165.898942 -38.016 
L 170.744532 -38.016 
L 175.590122 -38.016 
L 180.435712 -38.016 
L 185.281303 -38.016 
L 190.126893 -38.016 
L 194.972483 -38.016 
L 199.818073 -38.016 
L 204.663664 -38.016 
L 209.509254 -38.016 
L 214.354844 -38.016 
L 219.200434 -38.016 
L 224.046024 -38.016 
L 228.891615 -38.016 
L 238.582795 -38.016 
L 243.428385 -38.016 
L 248.273976 -38.016 
L 253.119566 -38.016 
L 257.965156 -38.016 
L 262.810746 -38.016 
L 267.656336 -38.016 
L 272.501927 -38.016 
L 277.347517 -38.016 
L 282.193107 -38.016 
L 287.038697 -38.016 
L 291.884288 -38.016 
L 296.729878 -38.016 
L 301.575468 -38.016 
L 306.421058 -38.016 
L 320.957829 -38.016 
L 325.803419 -38.016 
L 330.649009 -38.016 
L 330.649009 -39.795372 
L 330.649009 -39.795372 
L 325.803419 -39.695132 
L 320.957829 -39.602296 
L 306.421058 -39.508948 
L 301.575468 -39.413917 
L 296.729878 -39.332276 
L 291.884288 -39.245171 
L 287.038697 -39.162092 
L 282.193107 -39.086321 
L 277.347517 -39.011114 
L 272.501927 -38.941798 
L 267.656336 -38.892498 
L 262.810746 -38.851539 
L 257.965156 -38.826996 
L 253.119566 -38.809441 
L 248.273976 -38.791193 
L 243.428385 -38.770559 
L 238.582795 -38.726053 
L 228.891615 -38.671981 
L 224.046024 -38.609142 
L 219.200434 -38.545078 
L 214.354844 -38.479256 
L 209.509254 -38.415309 
L 204.663664 -38.354259 
L 199.818073 -38.31459 
L 194.972483 -38.287767 
L 190.126893 -38.271798 
L 185.281303 -38.256043 
L 180.435712 -38.244944 
L 175.590122 -38.228635 
L 170.744532 -38.212347 
L 165.898942 -38.199106 
L 161.053351 -38.187505 
L 156.207761 -38.175095 
L 151.362171 -38.164123 
L 146.516581 -38.15461 
L 141.670991 -38.152586 
L 136.8254 -38.150562 
L 131.97981 -38.148602 
L 122.28863 -38.1471 
L 117.443039 -38.147186 
L 112.597449 -38.147217 
L 107.751859 -38.147249 
L 102.906269 -38.147271 
L 98.060678 -38.147207 
L 93.215088 -38.146568 
L 88.369498 -38.145534 
L 83.523908 -38.144416 
L 78.678318 -38.141891 
L 73.832727 -38.139367 
z
" id="m567f70fbea" style="stroke:#7ea297;stroke-opacity:0.3;"/>
    </defs>
    <g clip-path="url(#p89aba9e652)">
     <use style="fill:#7ea297;fill-opacity:0.3;stroke:#7ea297;stroke-opacity:0.3;" x="0" xlink:href="#m567f70fbea" y="345.6"/>
    </g>
   </g>
   <g id="line2d_1">
    <path clip-path="url(#p89aba9e652)" d="M 73.832727 307.460633 
L 78.678318 307.458109 
L 83.523908 307.455584 
L 88.369498 307.454466 
L 93.215088 307.453432 
L 98.060678 307.452793 
L 102.906269 307.452729 
L 107.751859 307.452751 
L 112.597449 307.452783 
L 117.443039 307.452814 
L 122.28863 307.4529 
L 131.97981 307.451398 
L 136.8254 307.449438 
L 141.670991 307.447414 
L 146.516581 307.44539 
L 151.362171 307.435877 
L 156.207761 307.424905 
L 161.053351 307.412495 
L 165.898942 307.400894 
L 170.744532 307.387653 
L 175.590122 307.371365 
L 180.435712 307.355056 
L 185.281303 307.343957 
L 190.126893 307.328202 
L 194.972483 307.312233 
L 199.818073 307.28541 
L 204.663664 307.245741 
L 209.509254 307.184691 
L 214.354844 307.120744 
L 219.200434 307.054922 
L 224.046024 306.990858 
L 228.891615 306.928019 
L 238.582795 306.873947 
L 243.428385 306.829441 
L 248.273976 306.808807 
L 253.119566 306.790559 
L 257.965156 306.773004 
L 262.810746 306.748461 
L 267.656336 306.707502 
L 272.501927 306.658202 
L 277.347517 306.588886 
L 282.193107 306.513679 
L 287.038697 306.437908 
L 291.884288 306.354829 
L 296.729878 306.267724 
L 301.575468 306.186083 
L 306.421058 306.091052 
L 320.957829 305.997704 
L 325.803419 305.904868 
L 330.649009 305.804628 
L 335.4946 305.711908 
L 340.34019 305.624654 
L 345.18578 305.536856 
L 350.03137 305.473218 
L 354.876961 305.426954 
L 364.568141 305.373798 
L 369.413731 305.30232 
L 374.259322 305.214692 
L 379.104912 305.09498 
L 383.950502 304.987187 
L 388.796092 304.871948 
L 393.641682 304.75214 
L 398.487273 304.627239 
" style="fill:none;stroke:#60897e;stroke-linecap:square;stroke-width:2;"/>
   </g>
   <g id="line2d_2">
    <path clip-path="url(#p89aba9e652)" d="M 330.649009 305.804628 
L 335.4946 305.711908 
L 340.34019 305.624654 
L 345.18578 305.536856 
L 350.03137 305.473218 
L 354.876961 305.426954 
L 364.568141 305.373798 
L 369.413731 305.30232 
L 374.259322 305.214692 
L 379.104912 305.09498 
L 383.950502 304.987187 
L 388.796092 304.871948 
L 393.641682 304.75214 
L 398.487273 304.627239 
" style="fill:none;stroke:#427165;stroke-linecap:square;stroke-width:2;"/>
   </g>
  </g>
 </g>
 <defs>
  <clipPath id="p89aba9e652">
   <rect height="266.112" width="357.12" x="57.6" y="41.472"/>
  </clipPath>
 </defs>
</svg>
