<?xml version="1.0" encoding="utf-8" standalone="no"?>
<!DOCTYPE svg PUBLIC "-//W3C//DTD SVG 1.1//EN"
  "http://www.w3.org/Graphics/SVG/1.1/DTD/svg11.dtd">
<svg height="345.6pt" version="1.1" viewBox="0 0 460.8 345.6" width="460.8pt" xmlns="http://www.w3.org/2000/svg" xmlns:xlink="http://www.w3.org/1999/xlink">
 <metadata>
  <rdf:RDF xmlns:cc="http://creativecommons.org/ns#" xmlns:dc="http://purl.org/dc/elements/1.1/" xmlns:rdf="http://www.w3.org/1999/02/22-rdf-syntax-ns#">
   <cc:Work>
    <dc:type rdf:resource="http://purl.org/dc/dcmitype/StillImage"/>
    <dc:date>2021-05-15T13:25:56.366224</dc:date>
    <dc:format>image/svg+xml</dc:format>
    <dc:creator>
     <cc:Agent>
      <dc:title>Matplotlib v3.4.2, https://matplotlib.org/</dc:title>
     </cc:Agent>
    </dc:creator>
   </cc:Work>
  </rdf:RDF>
 </metadata>
 <defs>
  <style type="text/css">*{stroke-linecap:butt;stroke-linejoin:round;}</style>
 </defs>
 <g id="figure_1">
  <g id="patch_1">
   <path d="M 0 345.6 
L 460.8 345.6 
L 460.8 0 
L 0 0 
z
" style="fill:none;"/>
  </g>
  <g id="axes_1">
   <g id="matplotlib.axis_1"/>
   <g id="matplotlib.axis_2"/>
   <g id="PolyCollection_1">
    <defs>
     <path d="M 314.705455 -39.332276 
L 314.705455 -38.016 
L 319.941818 -38.016 
L 325.178182 -38.016 
L 340.887273 -38.016 
L 346.123636 -38.016 
L 351.36 -38.016 
L 356.596364 -38.016 
L 361.832727 -38.016 
L 367.069091 -38.016 
L 372.305455 -38.016 
L 377.541818 -38.016 
L 388.014545 -38.016 
L 393.250909 -38.016 
L 398.487273 -38.016 
L 398.487273 -40.385308 
L 398.487273 -40.385308 
L 393.250909 -40.29768 
L 388.014545 -40.226202 
L 377.541818 -40.173046 
L 372.305455 -40.126782 
L 367.069091 -40.063144 
L 361.832727 -39.975346 
L 356.596364 -39.888092 
L 351.36 -39.795372 
L 346.123636 -39.695132 
L 340.887273 -39.602296 
L 325.178182 -39.508948 
L 319.941818 -39.413917 
L 314.705455 -39.332276 
z
" id="mad9f36e66b" style="stroke:#7ea297;stroke-opacity:0.5;"/>
    </defs>
    <g clip-path="url(#pcb0bad136e)">
     <use style="fill:#7ea297;fill-opacity:0.5;stroke:#7ea297;stroke-opacity:0.5;" x="0" xlink:href="#mad9f36e66b" y="345.6"/>
    </g>
   </g>
   <g id="PolyCollection_2">
    <defs>
     <path d="M 73.832727 -38.139367 
L 73.832727 -38.016 
L 79.069091 -38.016 
L 84.305455 -38.016 
L 89.541818 -38.016 
L 94.778182 -38.016 
L 100.014545 -38.016 
L 105.250909 -38.016 
L 110.487273 -38.016 
L 115.723636 -38.016 
L 120.96 -38.016 
L 126.196364 -38.016 
L 136.669091 -38.016 
L 141.905455 -38.016 
L 147.141818 -38.016 
L 152.378182 -38.016 
L 157.614545 -38.016 
L 162.850909 -38.016 
L 168.087273 -38.016 
L 173.323636 -38.016 
L 178.56 -38.016 
L 183.796364 -38.016 
L 189.032727 -38.016 
L 194.269091 -38.016 
L 199.505455 -38.016 
L 204.741818 -38.016 
L 209.978182 -38.016 
L 215.214545 -38.016 
L 220.450909 -38.016 
L 225.687273 -38.016 
L 230.923636 -38.016 
L 236.16 -38.016 
L 241.396364 -38.016 
L 251.869091 -38.016 
L 257.105455 -38.016 
L 262.341818 -38.016 
L 267.578182 -38.016 
L 272.814545 -38.016 
L 278.050909 -38.016 
L 283.287273 -38.016 
L 288.523636 -38.016 
L 293.76 -38.016 
L 298.996364 -38.016 
L 304.232727 -38.016 
L 309.469091 -38.016 
L 314.705455 -38.016 
L 314.705455 -39.332276 
L 314.705455 -39.332276 
L 309.469091 -39.245171 
L 304.232727 -39.162092 
L 298.996364 -39.086321 
L 293.76 -39.011114 
L 288.523636 -38.941798 
L 283.287273 -38.892498 
L 278.050909 -38.851539 
L 272.814545 -38.826996 
L 267.578182 -38.809441 
L 262.341818 -38.791193 
L 257.105455 -38.770559 
L 251.869091 -38.726053 
L 241.396364 -38.671981 
L 236.16 -38.609142 
L 230.923636 -38.545078 
L 225.687273 -38.479256 
L 220.450909 -38.415309 
L 215.214545 -38.354259 
L 209.978182 -38.31459 
L 204.741818 -38.287767 
L 199.505455 -38.271798 
L 194.269091 -38.256043 
L 189.032727 -38.244944 
L 183.796364 -38.228635 
L 178.56 -38.212347 
L 173.323636 -38.199106 
L 168.087273 -38.187505 
L 162.850909 -38.175095 
L 157.614545 -38.164123 
L 152.378182 -38.15461 
L 147.141818 -38.152586 
L 141.905455 -38.150562 
L 136.669091 -38.148602 
L 126.196364 -38.1471 
L 120.96 -38.147186 
L 115.723636 -38.147217 
L 110.487273 -38.147249 
L 105.250909 -38.147271 
L 100.014545 -38.147207 
L 94.778182 -38.146568 
L 89.541818 -38.145534 
L 84.305455 -38.144416 
L 79.069091 -38.141891 
L 73.832727 -38.139367 
z
" id="mf348b36431" style="stroke:#7ea297;stroke-opacity:0.3;"/>
    </defs>
    <g clip-path="url(#pcb0bad136e)">
     <use style="fill:#7ea297;fill-opacity:0.3;stroke:#7ea297;stroke-opacity:0.3;" x="0" xlink:href="#mf348b36431" y="345.6"/>
    </g>
   </g>
   <g id="line2d_1">
    <path clip-path="url(#pcb0bad136e)" d="M 73.832727 307.460633 
L 79.069091 307.458109 
L 84.305455 307.455584 
L 89.541818 307.454466 
L 94.778182 307.453432 
L 100.014545 307.452793 
L 105.250909 307.452729 
L 110.487273 307.452751 
L 115.723636 307.452783 
L 120.96 307.452814 
L 126.196364 307.4529 
L 136.669091 307.451398 
L 141.905455 307.449438 
L 147.141818 307.447414 
L 152.378182 307.44539 
L 157.614545 307.435877 
L 162.850909 307.424905 
L 168.087273 307.412495 
L 173.323636 307.400894 
L 178.56 307.387653 
L 183.796364 307.371365 
L 189.032727 307.355056 
L 194.269091 307.343957 
L 199.505455 307.328202 
L 204.741818 307.312233 
L 209.978182 307.28541 
L 215.214545 307.245741 
L 220.450909 307.184691 
L 225.687273 307.120744 
L 230.923636 307.054922 
L 236.16 306.990858 
L 241.396364 306.928019 
L 251.869091 306.873947 
L 257.105455 306.829441 
L 262.341818 306.808807 
L 267.578182 306.790559 
L 272.814545 306.773004 
L 278.050909 306.748461 
L 283.287273 306.707502 
L 288.523636 306.658202 
L 293.76 306.588886 
L 298.996364 306.513679 
L 304.232727 306.437908 
L 309.469091 306.354829 
L 314.705455 306.267724 
L 319.941818 306.186083 
L 325.178182 306.091052 
L 340.887273 305.997704 
L 346.123636 305.904868 
L 351.36 305.804628 
L 356.596364 305.711908 
L 361.832727 305.624654 
L 367.069091 305.536856 
L 372.305455 305.473218 
L 377.541818 305.426954 
L 388.014545 305.373798 
L 393.250909 305.30232 
L 398.487273 305.214692 
" style="fill:none;stroke:#60897e;stroke-linecap:square;stroke-width:2;"/>
   </g>
   <g id="line2d_2">
    <path clip-path="url(#pcb0bad136e)" d="M 314.705455 306.267724 
L 319.941818 306.186083 
L 325.178182 306.091052 
L 340.887273 305.997704 
L 346.123636 305.904868 
L 351.36 305.804628 
L 356.596364 305.711908 
L 361.832727 305.624654 
L 367.069091 305.536856 
L 372.305455 305.473218 
L 377.541818 305.426954 
L 388.014545 305.373798 
L 393.250909 305.30232 
L 398.487273 305.214692 
" style="fill:none;stroke:#427165;stroke-linecap:square;stroke-width:2;"/>
   </g>
  </g>
 </g>
 <defs>
  <clipPath id="pcb0bad136e">
   <rect height="266.112" width="357.12" x="57.6" y="41.472"/>
  </clipPath>
 </defs>
</svg>
