<?xml version="1.0" encoding="utf-8" standalone="no"?>
<!DOCTYPE svg PUBLIC "-//W3C//DTD SVG 1.1//EN"
  "http://www.w3.org/Graphics/SVG/1.1/DTD/svg11.dtd">
<svg height="345.6pt" version="1.1" viewBox="0 0 460.8 345.6" width="460.8pt" xmlns="http://www.w3.org/2000/svg" xmlns:xlink="http://www.w3.org/1999/xlink">
 <metadata>
  <rdf:RDF xmlns:cc="http://creativecommons.org/ns#" xmlns:dc="http://purl.org/dc/elements/1.1/" xmlns:rdf="http://www.w3.org/1999/02/22-rdf-syntax-ns#">
   <cc:Work>
    <dc:type rdf:resource="http://purl.org/dc/dcmitype/StillImage"/>
    <dc:date>2021-05-20T13:25:47.820084</dc:date>
    <dc:format>image/svg+xml</dc:format>
    <dc:creator>
     <cc:Agent>
      <dc:title>Matplotlib v3.4.2, https://matplotlib.org/</dc:title>
     </cc:Agent>
    </dc:creator>
   </cc:Work>
  </rdf:RDF>
 </metadata>
 <defs>
  <style type="text/css">*{stroke-linecap:butt;stroke-linejoin:round;}</style>
 </defs>
 <g id="figure_1">
  <g id="patch_1">
   <path d="M 0 345.6 
L 460.8 345.6 
L 460.8 0 
L 0 0 
z
" style="fill:none;"/>
  </g>
  <g id="axes_1">
   <g id="matplotlib.axis_1"/>
   <g id="matplotlib.axis_2"/>
   <g id="PolyCollection_1">
    <defs>
     <path d="M 284.858182 -38.877008 
L 284.858182 -38.016 
L 292.974545 -38.016 
L 301.090909 -38.016 
L 309.207273 -38.016 
L 317.323636 -38.016 
L 325.44 -38.016 
L 341.672727 -38.016 
L 349.789091 -38.016 
L 357.905455 -38.016 
L 366.021818 -38.016 
L 374.138182 -38.016 
L 382.254545 -38.016 
L 390.370909 -38.016 
L 398.487273 -38.016 
L 398.487273 -39.566311 
L 398.487273 -39.566311 
L 390.370909 -39.438515 
L 382.254545 -39.316978 
L 374.138182 -39.209808 
L 366.021818 -39.113903 
L 357.905455 -39.017659 
L 349.789091 -38.978442 
L 341.672727 -38.950411 
L 325.44 -38.943527 
L 317.323636 -38.935652 
L 309.207273 -38.926369 
L 301.090909 -38.916591 
L 292.974545 -38.904622 
L 284.858182 -38.877008 
z
" id="mdf583a20fc" style="stroke:#7ea297;stroke-opacity:0.5;"/>
    </defs>
    <g clip-path="url(#p92275db538)">
     <use style="fill:#7ea297;fill-opacity:0.5;stroke:#7ea297;stroke-opacity:0.5;" x="0" xlink:href="#mdf583a20fc" y="345.6"/>
    </g>
   </g>
   <g id="PolyCollection_2">
    <defs>
     <path d="M 73.832727 -38.135816 
L 73.832727 -38.016 
L 81.949091 -38.016 
L 90.065455 -38.016 
L 98.181818 -38.016 
L 106.298182 -38.016 
L 114.414545 -38.016 
L 130.647273 -38.016 
L 138.763636 -38.016 
L 146.88 -38.016 
L 154.996364 -38.016 
L 163.112727 -38.016 
L 171.229091 -38.016 
L 179.345455 -38.016 
L 187.461818 -38.016 
L 195.578182 -38.016 
L 203.694545 -38.016 
L 211.810909 -38.016 
L 219.927273 -38.016 
L 228.043636 -38.016 
L 236.16 -38.016 
L 244.276364 -38.016 
L 268.625455 -38.016 
L 276.741818 -38.016 
L 284.858182 -38.016 
L 284.858182 -38.877008 
L 284.858182 -38.877008 
L 276.741818 -38.825118 
L 268.625455 -38.769291 
L 244.276364 -38.714064 
L 236.16 -38.633725 
L 228.043636 -38.547963 
L 219.927273 -38.448929 
L 211.810909 -38.367287 
L 203.694545 -38.314693 
L 195.578182 -38.266037 
L 187.461818 -38.217797 
L 179.345455 -38.196076 
L 171.229091 -38.180275 
L 163.112727 -38.180275 
L 154.996364 -38.180275 
L 146.88 -38.180275 
L 138.763636 -38.180275 
L 130.647273 -38.180249 
L 114.414545 -38.180223 
L 106.298182 -38.180197 
L 98.181818 -38.178554 
L 90.065455 -38.169949 
L 81.949091 -38.159284 
L 73.832727 -38.135816 
z
" id="m59f8e67771" style="stroke:#7ea297;stroke-opacity:0.3;"/>
    </defs>
    <g clip-path="url(#p92275db538)">
     <use style="fill:#7ea297;fill-opacity:0.3;stroke:#7ea297;stroke-opacity:0.3;" x="0" xlink:href="#m59f8e67771" y="345.6"/>
    </g>
   </g>
   <g id="line2d_1">
    <path clip-path="url(#p92275db538)" d="M 73.832727 307.464184 
L 81.949091 307.440716 
L 90.065455 307.430051 
L 98.181818 307.421446 
L 106.298182 307.419803 
L 114.414545 307.419777 
L 130.647273 307.419751 
L 138.763636 307.419725 
L 146.88 307.419725 
L 154.996364 307.419725 
L 163.112727 307.419725 
L 171.229091 307.419725 
L 179.345455 307.403924 
L 187.461818 307.382203 
L 195.578182 307.333963 
L 203.694545 307.285307 
L 211.810909 307.232713 
L 219.927273 307.151071 
L 228.043636 307.052037 
L 236.16 306.966275 
L 244.276364 306.885936 
L 268.625455 306.830709 
L 276.741818 306.774882 
L 284.858182 306.722992 
L 292.974545 306.695378 
L 301.090909 306.683409 
L 309.207273 306.673631 
L 317.323636 306.664348 
L 325.44 306.656473 
L 341.672727 306.649589 
L 349.789091 306.621558 
L 357.905455 306.582341 
L 366.021818 306.486097 
L 374.138182 306.390192 
L 382.254545 306.283022 
L 390.370909 306.161485 
L 398.487273 306.033689 
" style="fill:none;stroke:#60897e;stroke-linecap:square;stroke-width:2;"/>
   </g>
   <g id="line2d_2">
    <path clip-path="url(#p92275db538)" d="M 284.858182 306.722992 
L 292.974545 306.695378 
L 301.090909 306.683409 
L 309.207273 306.673631 
L 317.323636 306.664348 
L 325.44 306.656473 
L 341.672727 306.649589 
L 349.789091 306.621558 
L 357.905455 306.582341 
L 366.021818 306.486097 
L 374.138182 306.390192 
L 382.254545 306.283022 
L 390.370909 306.161485 
L 398.487273 306.033689 
" style="fill:none;stroke:#427165;stroke-linecap:square;stroke-width:2;"/>
   </g>
  </g>
 </g>
 <defs>
  <clipPath id="p92275db538">
   <rect height="266.112" width="357.12" x="57.6" y="41.472"/>
  </clipPath>
 </defs>
</svg>
