<?xml version="1.0" encoding="utf-8" standalone="no"?>
<!DOCTYPE svg PUBLIC "-//W3C//DTD SVG 1.1//EN"
  "http://www.w3.org/Graphics/SVG/1.1/DTD/svg11.dtd">
<svg height="345.6pt" version="1.1" viewBox="0 0 460.8 345.6" width="460.8pt" xmlns="http://www.w3.org/2000/svg" xmlns:xlink="http://www.w3.org/1999/xlink">
 <metadata>
  <rdf:RDF xmlns:cc="http://creativecommons.org/ns#" xmlns:dc="http://purl.org/dc/elements/1.1/" xmlns:rdf="http://www.w3.org/1999/02/22-rdf-syntax-ns#">
   <cc:Work>
    <dc:type rdf:resource="http://purl.org/dc/dcmitype/StillImage"/>
    <dc:date>2021-05-18T13:26:34.591830</dc:date>
    <dc:format>image/svg+xml</dc:format>
    <dc:creator>
     <cc:Agent>
      <dc:title>Matplotlib v3.4.2, https://matplotlib.org/</dc:title>
     </cc:Agent>
    </dc:creator>
   </cc:Work>
  </rdf:RDF>
 </metadata>
 <defs>
  <style type="text/css">*{stroke-linecap:butt;stroke-linejoin:round;}</style>
 </defs>
 <g id="figure_1">
  <g id="patch_1">
   <path d="M 0 345.6 
L 460.8 345.6 
L 460.8 0 
L 0 0 
z
" style="fill:none;"/>
  </g>
  <g id="axes_1">
   <g id="matplotlib.axis_1"/>
   <g id="matplotlib.axis_2"/>
   <g id="PolyCollection_1">
    <defs>
     <path d="M 281.944615 -38.825118 
L 281.944615 -38.016 
L 290.269091 -38.016 
L 298.593566 -38.016 
L 306.918042 -38.016 
L 315.242517 -38.016 
L 323.566993 -38.016 
L 331.891469 -38.016 
L 348.54042 -38.016 
L 356.864895 -38.016 
L 365.189371 -38.016 
L 373.513846 -38.016 
L 381.838322 -38.016 
L 390.162797 -38.016 
L 398.487273 -38.016 
L 398.487273 -39.438515 
L 398.487273 -39.438515 
L 390.162797 -39.316978 
L 381.838322 -39.209808 
L 373.513846 -39.113903 
L 365.189371 -39.017659 
L 356.864895 -38.978442 
L 348.54042 -38.950411 
L 331.891469 -38.943527 
L 323.566993 -38.935652 
L 315.242517 -38.926369 
L 306.918042 -38.916591 
L 298.593566 -38.904622 
L 290.269091 -38.877008 
L 281.944615 -38.825118 
z
" id="m831a4c8b3e" style="stroke:#7ea297;stroke-opacity:0.5;"/>
    </defs>
    <g clip-path="url(#p770016ed72)">
     <use style="fill:#7ea297;fill-opacity:0.5;stroke:#7ea297;stroke-opacity:0.5;" x="0" xlink:href="#m831a4c8b3e" y="345.6"/>
    </g>
   </g>
   <g id="PolyCollection_2">
    <defs>
     <path d="M 73.832727 -38.135816 
L 73.832727 -38.016 
L 82.157203 -38.016 
L 90.481678 -38.016 
L 98.806154 -38.016 
L 107.130629 -38.016 
L 115.455105 -38.016 
L 132.104056 -38.016 
L 140.428531 -38.016 
L 148.753007 -38.016 
L 157.077483 -38.016 
L 165.401958 -38.016 
L 173.726434 -38.016 
L 182.050909 -38.016 
L 190.375385 -38.016 
L 198.69986 -38.016 
L 207.024336 -38.016 
L 215.348811 -38.016 
L 223.673287 -38.016 
L 231.997762 -38.016 
L 240.322238 -38.016 
L 248.646713 -38.016 
L 273.62014 -38.016 
L 281.944615 -38.016 
L 281.944615 -38.825118 
L 281.944615 -38.825118 
L 273.62014 -38.769291 
L 248.646713 -38.714064 
L 240.322238 -38.633725 
L 231.997762 -38.547963 
L 223.673287 -38.448929 
L 215.348811 -38.367287 
L 207.024336 -38.314693 
L 198.69986 -38.266037 
L 190.375385 -38.217797 
L 182.050909 -38.196076 
L 173.726434 -38.180275 
L 165.401958 -38.180275 
L 157.077483 -38.180275 
L 148.753007 -38.180275 
L 140.428531 -38.180275 
L 132.104056 -38.180249 
L 115.455105 -38.180223 
L 107.130629 -38.180197 
L 98.806154 -38.178554 
L 90.481678 -38.169949 
L 82.157203 -38.159284 
L 73.832727 -38.135816 
z
" id="mc211677bc9" style="stroke:#7ea297;stroke-opacity:0.3;"/>
    </defs>
    <g clip-path="url(#p770016ed72)">
     <use style="fill:#7ea297;fill-opacity:0.3;stroke:#7ea297;stroke-opacity:0.3;" x="0" xlink:href="#mc211677bc9" y="345.6"/>
    </g>
   </g>
   <g id="line2d_1">
    <path clip-path="url(#p770016ed72)" d="M 73.832727 307.464184 
L 82.157203 307.440716 
L 90.481678 307.430051 
L 98.806154 307.421446 
L 107.130629 307.419803 
L 115.455105 307.419777 
L 132.104056 307.419751 
L 140.428531 307.419725 
L 148.753007 307.419725 
L 157.077483 307.419725 
L 165.401958 307.419725 
L 173.726434 307.419725 
L 182.050909 307.403924 
L 190.375385 307.382203 
L 198.69986 307.333963 
L 207.024336 307.285307 
L 215.348811 307.232713 
L 223.673287 307.151071 
L 231.997762 307.052037 
L 240.322238 306.966275 
L 248.646713 306.885936 
L 273.62014 306.830709 
L 281.944615 306.774882 
L 290.269091 306.722992 
L 298.593566 306.695378 
L 306.918042 306.683409 
L 315.242517 306.673631 
L 323.566993 306.664348 
L 331.891469 306.656473 
L 348.54042 306.649589 
L 356.864895 306.621558 
L 365.189371 306.582341 
L 373.513846 306.486097 
L 381.838322 306.390192 
L 390.162797 306.283022 
L 398.487273 306.161485 
" style="fill:none;stroke:#60897e;stroke-linecap:square;stroke-width:2;"/>
   </g>
   <g id="line2d_2">
    <path clip-path="url(#p770016ed72)" d="M 281.944615 306.774882 
L 290.269091 306.722992 
L 298.593566 306.695378 
L 306.918042 306.683409 
L 315.242517 306.673631 
L 323.566993 306.664348 
L 331.891469 306.656473 
L 348.54042 306.649589 
L 356.864895 306.621558 
L 365.189371 306.582341 
L 373.513846 306.486097 
L 381.838322 306.390192 
L 390.162797 306.283022 
L 398.487273 306.161485 
" style="fill:none;stroke:#427165;stroke-linecap:square;stroke-width:2;"/>
   </g>
  </g>
 </g>
 <defs>
  <clipPath id="p770016ed72">
   <rect height="266.112" width="357.12" x="57.6" y="41.472"/>
  </clipPath>
 </defs>
</svg>
