<?xml version="1.0" encoding="utf-8" standalone="no"?>
<!DOCTYPE svg PUBLIC "-//W3C//DTD SVG 1.1//EN"
  "http://www.w3.org/Graphics/SVG/1.1/DTD/svg11.dtd">
<svg height="345.6pt" version="1.1" viewBox="0 0 460.8 345.6" width="460.8pt" xmlns="http://www.w3.org/2000/svg" xmlns:xlink="http://www.w3.org/1999/xlink">
 <metadata>
  <rdf:RDF xmlns:cc="http://creativecommons.org/ns#" xmlns:dc="http://purl.org/dc/elements/1.1/" xmlns:rdf="http://www.w3.org/1999/02/22-rdf-syntax-ns#">
   <cc:Work>
    <dc:type rdf:resource="http://purl.org/dc/dcmitype/StillImage"/>
    <dc:date>2021-05-20T13:25:48.734302</dc:date>
    <dc:format>image/svg+xml</dc:format>
    <dc:creator>
     <cc:Agent>
      <dc:title>Matplotlib v3.4.2, https://matplotlib.org/</dc:title>
     </cc:Agent>
    </dc:creator>
   </cc:Work>
  </rdf:RDF>
 </metadata>
 <defs>
  <style type="text/css">*{stroke-linecap:butt;stroke-linejoin:round;}</style>
 </defs>
 <g id="figure_1">
  <g id="patch_1">
   <path d="M 0 345.6 
L 460.8 345.6 
L 460.8 0 
L 0 0 
z
" style="fill:none;"/>
  </g>
  <g id="axes_1">
   <g id="matplotlib.axis_1"/>
   <g id="matplotlib.axis_2"/>
   <g id="PolyCollection_1">
    <defs>
     <path d="M 284.858182 -39.177081 
L 284.858182 -38.016 
L 292.974545 -38.016 
L 301.090909 -38.016 
L 309.207273 -38.016 
L 317.323636 -38.016 
L 325.44 -38.016 
L 341.672727 -38.016 
L 349.789091 -38.016 
L 357.905455 -38.016 
L 366.021818 -38.016 
L 374.138182 -38.016 
L 382.254545 -38.016 
L 390.370909 -38.016 
L 398.487273 -38.016 
L 398.487273 -40.03632 
L 398.487273 -40.03632 
L 390.370909 -39.927665 
L 382.254545 -39.804973 
L 374.138182 -39.695102 
L 366.021818 -39.585752 
L 357.905455 -39.469231 
L 349.789091 -39.385219 
L 341.672727 -39.336368 
L 325.44 -39.310161 
L 317.323636 -39.298948 
L 309.207273 -39.282519 
L 301.090909 -39.249401 
L 292.974545 -39.211981 
L 284.858182 -39.177081 
z
" id="m42f2f476ac" style="stroke:#7ea297;stroke-opacity:0.5;"/>
    </defs>
    <g clip-path="url(#pbe346f6a8b)">
     <use style="fill:#7ea297;fill-opacity:0.5;stroke:#7ea297;stroke-opacity:0.5;" x="0" xlink:href="#m42f2f476ac" y="345.6"/>
    </g>
   </g>
   <g id="PolyCollection_2">
    <defs>
     <path d="M 73.832727 -38.068067 
L 73.832727 -38.016 
L 81.949091 -38.016 
L 90.065455 -38.016 
L 98.181818 -38.016 
L 106.298182 -38.016 
L 114.414545 -38.016 
L 130.647273 -38.016 
L 138.763636 -38.016 
L 146.88 -38.016 
L 154.996364 -38.016 
L 163.112727 -38.016 
L 171.229091 -38.016 
L 179.345455 -38.016 
L 187.461818 -38.016 
L 195.578182 -38.016 
L 203.694545 -38.016 
L 211.810909 -38.016 
L 219.927273 -38.016 
L 228.043636 -38.016 
L 236.16 -38.016 
L 244.276364 -38.016 
L 268.625455 -38.016 
L 276.741818 -38.016 
L 284.858182 -38.016 
L 284.858182 -39.177081 
L 284.858182 -39.177081 
L 276.741818 -39.138356 
L 268.625455 -39.094069 
L 244.276364 -39.048869 
L 236.16 -38.967682 
L 228.043636 -38.865634 
L 219.927273 -38.758675 
L 211.810909 -38.653106 
L 203.694545 -38.551405 
L 195.578182 -38.455268 
L 187.461818 -38.36013 
L 179.345455 -38.306194 
L 171.229091 -38.289766 
L 163.112727 -38.289722 
L 154.996364 -38.289679 
L 146.88 -38.289635 
L 138.763636 -38.289592 
L 130.647273 -38.281421 
L 114.414545 -38.255431 
L 106.298182 -38.220444 
L 98.181818 -38.185284 
L 90.065455 -38.146211 
L 81.949091 -38.107139 
L 73.832727 -38.068067 
z
" id="m4e1b13e99b" style="stroke:#7ea297;stroke-opacity:0.3;"/>
    </defs>
    <g clip-path="url(#pbe346f6a8b)">
     <use style="fill:#7ea297;fill-opacity:0.3;stroke:#7ea297;stroke-opacity:0.3;" x="0" xlink:href="#m4e1b13e99b" y="345.6"/>
    </g>
   </g>
   <g id="line2d_1">
    <path clip-path="url(#pbe346f6a8b)" d="M 73.832727 307.531933 
L 81.949091 307.492861 
L 90.065455 307.453789 
L 98.181818 307.414716 
L 106.298182 307.379556 
L 114.414545 307.344569 
L 130.647273 307.318579 
L 138.763636 307.310408 
L 146.88 307.310365 
L 154.996364 307.310321 
L 163.112727 307.310278 
L 171.229091 307.310234 
L 179.345455 307.293806 
L 187.461818 307.23987 
L 195.578182 307.144732 
L 203.694545 307.048595 
L 211.810909 306.946894 
L 219.927273 306.841325 
L 228.043636 306.734366 
L 236.16 306.632318 
L 244.276364 306.551131 
L 268.625455 306.505931 
L 276.741818 306.461644 
L 284.858182 306.422919 
L 292.974545 306.388019 
L 301.090909 306.350599 
L 309.207273 306.317481 
L 317.323636 306.301052 
L 325.44 306.289839 
L 341.672727 306.263632 
L 349.789091 306.214781 
L 357.905455 306.130769 
L 366.021818 306.014248 
L 374.138182 305.904898 
L 382.254545 305.795027 
L 390.370909 305.672335 
L 398.487273 305.56368 
" style="fill:none;stroke:#60897e;stroke-linecap:square;stroke-width:2;"/>
   </g>
   <g id="line2d_2">
    <path clip-path="url(#pbe346f6a8b)" d="M 284.858182 306.422919 
L 292.974545 306.388019 
L 301.090909 306.350599 
L 309.207273 306.317481 
L 317.323636 306.301052 
L 325.44 306.289839 
L 341.672727 306.263632 
L 349.789091 306.214781 
L 357.905455 306.130769 
L 366.021818 306.014248 
L 374.138182 305.904898 
L 382.254545 305.795027 
L 390.370909 305.672335 
L 398.487273 305.56368 
" style="fill:none;stroke:#427165;stroke-linecap:square;stroke-width:2;"/>
   </g>
  </g>
 </g>
 <defs>
  <clipPath id="pbe346f6a8b">
   <rect height="266.112" width="357.12" x="57.6" y="41.472"/>
  </clipPath>
 </defs>
</svg>
