<?xml version="1.0" encoding="utf-8" standalone="no"?>
<!DOCTYPE svg PUBLIC "-//W3C//DTD SVG 1.1//EN"
  "http://www.w3.org/Graphics/SVG/1.1/DTD/svg11.dtd">
<svg height="345.6pt" version="1.1" viewBox="0 0 460.8 345.6" width="460.8pt" xmlns="http://www.w3.org/2000/svg" xmlns:xlink="http://www.w3.org/1999/xlink">
 <metadata>
  <rdf:RDF xmlns:cc="http://creativecommons.org/ns#" xmlns:dc="http://purl.org/dc/elements/1.1/" xmlns:rdf="http://www.w3.org/1999/02/22-rdf-syntax-ns#">
   <cc:Work>
    <dc:type rdf:resource="http://purl.org/dc/dcmitype/StillImage"/>
    <dc:date>2021-05-15T13:25:59.625005</dc:date>
    <dc:format>image/svg+xml</dc:format>
    <dc:creator>
     <cc:Agent>
      <dc:title>Matplotlib v3.4.2, https://matplotlib.org/</dc:title>
     </cc:Agent>
    </dc:creator>
   </cc:Work>
  </rdf:RDF>
 </metadata>
 <defs>
  <style type="text/css">*{stroke-linecap:butt;stroke-linejoin:round;}</style>
 </defs>
 <g id="figure_1">
  <g id="patch_1">
   <path d="M 0 345.6 
L 460.8 345.6 
L 460.8 0 
L 0 0 
z
" style="fill:none;"/>
  </g>
  <g id="axes_1">
   <g id="matplotlib.axis_1"/>
   <g id="matplotlib.axis_2"/>
   <g id="PolyCollection_1">
    <defs>
     <path d="M 250.073766 -38.865634 
L 250.073766 -38.016 
L 259.34961 -38.016 
L 268.625455 -38.016 
L 296.452987 -38.016 
L 305.728831 -38.016 
L 315.004675 -38.016 
L 324.280519 -38.016 
L 333.556364 -38.016 
L 342.832208 -38.016 
L 352.108052 -38.016 
L 361.383896 -38.016 
L 379.935584 -38.016 
L 389.211429 -38.016 
L 398.487273 -38.016 
L 398.487273 -39.469231 
L 398.487273 -39.469231 
L 389.211429 -39.385219 
L 379.935584 -39.336368 
L 361.383896 -39.310161 
L 352.108052 -39.298948 
L 342.832208 -39.282519 
L 333.556364 -39.249401 
L 324.280519 -39.211981 
L 315.004675 -39.177081 
L 305.728831 -39.138356 
L 296.452987 -39.094069 
L 268.625455 -39.048869 
L 259.34961 -38.967682 
L 250.073766 -38.865634 
z
" id="mc6aeeb1492" style="stroke:#7ea297;stroke-opacity:0.5;"/>
    </defs>
    <g clip-path="url(#p164a66545b)">
     <use style="fill:#7ea297;fill-opacity:0.5;stroke:#7ea297;stroke-opacity:0.5;" x="0" xlink:href="#mc6aeeb1492" y="345.6"/>
    </g>
   </g>
   <g id="PolyCollection_2">
    <defs>
     <path d="M 73.832727 -38.068067 
L 73.832727 -38.016 
L 83.108571 -38.016 
L 92.384416 -38.016 
L 101.66026 -38.016 
L 110.936104 -38.016 
L 120.211948 -38.016 
L 138.763636 -38.016 
L 148.039481 -38.016 
L 157.315325 -38.016 
L 166.591169 -38.016 
L 175.867013 -38.016 
L 185.142857 -38.016 
L 194.418701 -38.016 
L 203.694545 -38.016 
L 212.97039 -38.016 
L 222.246234 -38.016 
L 231.522078 -38.016 
L 240.797922 -38.016 
L 250.073766 -38.016 
L 250.073766 -38.865634 
L 250.073766 -38.865634 
L 240.797922 -38.758675 
L 231.522078 -38.653106 
L 222.246234 -38.551405 
L 212.97039 -38.455268 
L 203.694545 -38.36013 
L 194.418701 -38.306194 
L 185.142857 -38.289766 
L 175.867013 -38.289722 
L 166.591169 -38.289679 
L 157.315325 -38.289635 
L 148.039481 -38.289592 
L 138.763636 -38.281421 
L 120.211948 -38.255431 
L 110.936104 -38.220444 
L 101.66026 -38.185284 
L 92.384416 -38.146211 
L 83.108571 -38.107139 
L 73.832727 -38.068067 
z
" id="md52407093a" style="stroke:#7ea297;stroke-opacity:0.3;"/>
    </defs>
    <g clip-path="url(#p164a66545b)">
     <use style="fill:#7ea297;fill-opacity:0.3;stroke:#7ea297;stroke-opacity:0.3;" x="0" xlink:href="#md52407093a" y="345.6"/>
    </g>
   </g>
   <g id="line2d_1">
    <path clip-path="url(#p164a66545b)" d="M 73.832727 307.531933 
L 83.108571 307.492861 
L 92.384416 307.453789 
L 101.66026 307.414716 
L 110.936104 307.379556 
L 120.211948 307.344569 
L 138.763636 307.318579 
L 148.039481 307.310408 
L 157.315325 307.310365 
L 166.591169 307.310321 
L 175.867013 307.310278 
L 185.142857 307.310234 
L 194.418701 307.293806 
L 203.694545 307.23987 
L 212.97039 307.144732 
L 222.246234 307.048595 
L 231.522078 306.946894 
L 240.797922 306.841325 
L 250.073766 306.734366 
L 259.34961 306.632318 
L 268.625455 306.551131 
L 296.452987 306.505931 
L 305.728831 306.461644 
L 315.004675 306.422919 
L 324.280519 306.388019 
L 333.556364 306.350599 
L 342.832208 306.317481 
L 352.108052 306.301052 
L 361.383896 306.289839 
L 379.935584 306.263632 
L 389.211429 306.214781 
L 398.487273 306.130769 
" style="fill:none;stroke:#60897e;stroke-linecap:square;stroke-width:2;"/>
   </g>
   <g id="line2d_2">
    <path clip-path="url(#p164a66545b)" d="M 250.073766 306.734366 
L 259.34961 306.632318 
L 268.625455 306.551131 
L 296.452987 306.505931 
L 305.728831 306.461644 
L 315.004675 306.422919 
L 324.280519 306.388019 
L 333.556364 306.350599 
L 342.832208 306.317481 
L 352.108052 306.301052 
L 361.383896 306.289839 
L 379.935584 306.263632 
L 389.211429 306.214781 
L 398.487273 306.130769 
" style="fill:none;stroke:#427165;stroke-linecap:square;stroke-width:2;"/>
   </g>
  </g>
 </g>
 <defs>
  <clipPath id="p164a66545b">
   <rect height="266.112" width="357.12" x="57.6" y="41.472"/>
  </clipPath>
 </defs>
</svg>
