<?xml version="1.0" encoding="utf-8" standalone="no"?>
<!DOCTYPE svg PUBLIC "-//W3C//DTD SVG 1.1//EN"
  "http://www.w3.org/Graphics/SVG/1.1/DTD/svg11.dtd">
<svg height="345.6pt" version="1.1" viewBox="0 0 460.8 345.6" width="460.8pt" xmlns="http://www.w3.org/2000/svg" xmlns:xlink="http://www.w3.org/1999/xlink">
 <metadata>
  <rdf:RDF xmlns:cc="http://creativecommons.org/ns#" xmlns:dc="http://purl.org/dc/elements/1.1/" xmlns:rdf="http://www.w3.org/1999/02/22-rdf-syntax-ns#">
   <cc:Work>
    <dc:type rdf:resource="http://purl.org/dc/dcmitype/StillImage"/>
    <dc:date>2021-05-17T10:41:13.979741</dc:date>
    <dc:format>image/svg+xml</dc:format>
    <dc:creator>
     <cc:Agent>
      <dc:title>Matplotlib v3.4.2, https://matplotlib.org/</dc:title>
     </cc:Agent>
    </dc:creator>
   </cc:Work>
  </rdf:RDF>
 </metadata>
 <defs>
  <style type="text/css">*{stroke-linecap:butt;stroke-linejoin:round;}</style>
 </defs>
 <g id="figure_1">
  <g id="patch_1">
   <path d="M 0 345.6 
L 460.8 345.6 
L 460.8 0 
L 0 0 
z
" style="fill:none;"/>
  </g>
  <g id="axes_1">
   <g id="matplotlib.axis_1"/>
   <g id="matplotlib.axis_2"/>
   <g id="PolyCollection_1">
    <defs>
     <path d="M 258.096118 -39.048869 
L 258.096118 -38.016 
L 284.419459 -38.016 
L 293.193907 -38.016 
L 301.968354 -38.016 
L 310.742801 -38.016 
L 319.517248 -38.016 
L 328.291695 -38.016 
L 337.066143 -38.016 
L 345.84059 -38.016 
L 363.389484 -38.016 
L 372.163931 -38.016 
L 380.938378 -38.016 
L 389.712826 -38.016 
L 398.487273 -38.016 
L 398.487273 -39.695102 
L 398.487273 -39.695102 
L 389.712826 -39.585752 
L 380.938378 -39.469231 
L 372.163931 -39.385219 
L 363.389484 -39.336368 
L 345.84059 -39.310161 
L 337.066143 -39.298948 
L 328.291695 -39.282519 
L 319.517248 -39.249401 
L 310.742801 -39.211981 
L 301.968354 -39.177081 
L 293.193907 -39.138356 
L 284.419459 -39.094069 
L 258.096118 -39.048869 
z
" id="m87b95b5f90" style="stroke:#7ea297;stroke-opacity:0.5;"/>
    </defs>
    <g clip-path="url(#ped87cc42a2)">
     <use style="fill:#7ea297;fill-opacity:0.5;stroke:#7ea297;stroke-opacity:0.5;" x="0" xlink:href="#m87b95b5f90" y="345.6"/>
    </g>
   </g>
   <g id="PolyCollection_2">
    <defs>
     <path d="M 73.832727 -38.068067 
L 73.832727 -38.016 
L 82.607174 -38.016 
L 91.381622 -38.016 
L 100.156069 -38.016 
L 108.930516 -38.016 
L 117.704963 -38.016 
L 135.253857 -38.016 
L 144.028305 -38.016 
L 152.802752 -38.016 
L 161.577199 -38.016 
L 170.351646 -38.016 
L 179.126093 -38.016 
L 187.900541 -38.016 
L 196.674988 -38.016 
L 205.449435 -38.016 
L 214.223882 -38.016 
L 222.998329 -38.016 
L 231.772776 -38.016 
L 240.547224 -38.016 
L 249.321671 -38.016 
L 258.096118 -38.016 
L 258.096118 -39.048869 
L 258.096118 -39.048869 
L 249.321671 -38.967682 
L 240.547224 -38.865634 
L 231.772776 -38.758675 
L 222.998329 -38.653106 
L 214.223882 -38.551405 
L 205.449435 -38.455268 
L 196.674988 -38.36013 
L 187.900541 -38.306194 
L 179.126093 -38.289766 
L 170.351646 -38.289722 
L 161.577199 -38.289679 
L 152.802752 -38.289635 
L 144.028305 -38.289592 
L 135.253857 -38.281421 
L 117.704963 -38.255431 
L 108.930516 -38.220444 
L 100.156069 -38.185284 
L 91.381622 -38.146211 
L 82.607174 -38.107139 
L 73.832727 -38.068067 
z
" id="m7c8ed53cc1" style="stroke:#7ea297;stroke-opacity:0.3;"/>
    </defs>
    <g clip-path="url(#ped87cc42a2)">
     <use style="fill:#7ea297;fill-opacity:0.3;stroke:#7ea297;stroke-opacity:0.3;" x="0" xlink:href="#m7c8ed53cc1" y="345.6"/>
    </g>
   </g>
   <g id="line2d_1">
    <path clip-path="url(#ped87cc42a2)" d="M 73.832727 307.531933 
L 82.607174 307.492861 
L 91.381622 307.453789 
L 100.156069 307.414716 
L 108.930516 307.379556 
L 117.704963 307.344569 
L 135.253857 307.318579 
L 144.028305 307.310408 
L 152.802752 307.310365 
L 161.577199 307.310321 
L 170.351646 307.310278 
L 179.126093 307.310234 
L 187.900541 307.293806 
L 196.674988 307.23987 
L 205.449435 307.144732 
L 214.223882 307.048595 
L 222.998329 306.946894 
L 231.772776 306.841325 
L 240.547224 306.734366 
L 249.321671 306.632318 
L 258.096118 306.551131 
L 284.419459 306.505931 
L 293.193907 306.461644 
L 301.968354 306.422919 
L 310.742801 306.388019 
L 319.517248 306.350599 
L 328.291695 306.317481 
L 337.066143 306.301052 
L 345.84059 306.289839 
L 363.389484 306.263632 
L 372.163931 306.214781 
L 380.938378 306.130769 
L 389.712826 306.014248 
L 398.487273 305.904898 
" style="fill:none;stroke:#60897e;stroke-linecap:square;stroke-width:2;"/>
   </g>
   <g id="line2d_2">
    <path clip-path="url(#ped87cc42a2)" d="M 258.096118 306.551131 
L 284.419459 306.505931 
L 293.193907 306.461644 
L 301.968354 306.422919 
L 310.742801 306.388019 
L 319.517248 306.350599 
L 328.291695 306.317481 
L 337.066143 306.301052 
L 345.84059 306.289839 
L 363.389484 306.263632 
L 372.163931 306.214781 
L 380.938378 306.130769 
L 389.712826 306.014248 
L 398.487273 305.904898 
" style="fill:none;stroke:#427165;stroke-linecap:square;stroke-width:2;"/>
   </g>
  </g>
 </g>
 <defs>
  <clipPath id="ped87cc42a2">
   <rect height="266.112" width="357.12" x="57.6" y="41.472"/>
  </clipPath>
 </defs>
</svg>
