<?xml version="1.0" encoding="utf-8" standalone="no"?>
<!DOCTYPE svg PUBLIC "-//W3C//DTD SVG 1.1//EN"
  "http://www.w3.org/Graphics/SVG/1.1/DTD/svg11.dtd">
<svg height="345.6pt" version="1.1" viewBox="0 0 460.8 345.6" width="460.8pt" xmlns="http://www.w3.org/2000/svg" xmlns:xlink="http://www.w3.org/1999/xlink">
 <metadata>
  <rdf:RDF xmlns:cc="http://creativecommons.org/ns#" xmlns:dc="http://purl.org/dc/elements/1.1/" xmlns:rdf="http://www.w3.org/1999/02/22-rdf-syntax-ns#">
   <cc:Work>
    <dc:type rdf:resource="http://purl.org/dc/dcmitype/StillImage"/>
    <dc:date>2021-05-18T13:26:35.405705</dc:date>
    <dc:format>image/svg+xml</dc:format>
    <dc:creator>
     <cc:Agent>
      <dc:title>Matplotlib v3.4.2, https://matplotlib.org/</dc:title>
     </cc:Agent>
    </dc:creator>
   </cc:Work>
  </rdf:RDF>
 </metadata>
 <defs>
  <style type="text/css">*{stroke-linecap:butt;stroke-linejoin:round;}</style>
 </defs>
 <g id="figure_1">
  <g id="patch_1">
   <path d="M 0 345.6 
L 460.8 345.6 
L 460.8 0 
L 0 0 
z
" style="fill:none;"/>
  </g>
  <g id="axes_1">
   <g id="matplotlib.axis_1"/>
   <g id="matplotlib.axis_2"/>
   <g id="PolyCollection_1">
    <defs>
     <path d="M 281.944615 -38.976617 
L 281.944615 -38.016 
L 290.269091 -38.016 
L 298.593566 -38.016 
L 306.918042 -38.016 
L 315.242517 -38.016 
L 323.566993 -38.016 
L 331.891469 -38.016 
L 348.54042 -38.016 
L 356.864895 -38.016 
L 365.189371 -38.016 
L 373.513846 -38.016 
L 381.838322 -38.016 
L 390.162797 -38.016 
L 398.487273 -38.016 
L 398.487273 -40.413332 
L 398.487273 -40.413332 
L 390.162797 -40.306977 
L 381.838322 -40.200743 
L 373.513846 -40.095567 
L 365.189371 -39.924218 
L 356.864895 -39.753968 
L 348.54042 -39.602752 
L 331.891469 -39.469269 
L 323.566993 -39.350752 
L 315.242517 -39.226949 
L 306.918042 -39.091473 
L 298.593566 -39.020908 
L 290.269091 -38.999433 
L 281.944615 -38.976617 
z
" id="m7ce78bff68" style="stroke:#7ea297;stroke-opacity:0.5;"/>
    </defs>
    <g clip-path="url(#pc50fc89c5d)">
     <use style="fill:#7ea297;fill-opacity:0.5;stroke:#7ea297;stroke-opacity:0.5;" x="0" xlink:href="#m7ce78bff68" y="345.6"/>
    </g>
   </g>
   <g id="PolyCollection_2">
    <defs>
     <path d="M 73.832727 -38.048496 
L 73.832727 -38.016 
L 82.157203 -38.016 
L 90.481678 -38.016 
L 98.806154 -38.016 
L 107.130629 -38.016 
L 115.455105 -38.016 
L 132.104056 -38.016 
L 140.428531 -38.016 
L 148.753007 -38.016 
L 157.077483 -38.016 
L 165.401958 -38.016 
L 173.726434 -38.016 
L 182.050909 -38.016 
L 190.375385 -38.016 
L 198.69986 -38.016 
L 207.024336 -38.016 
L 215.348811 -38.016 
L 223.673287 -38.016 
L 231.997762 -38.016 
L 240.322238 -38.016 
L 248.646713 -38.016 
L 273.62014 -38.016 
L 281.944615 -38.016 
L 281.944615 -38.976617 
L 281.944615 -38.976617 
L 273.62014 -38.953719 
L 248.646713 -38.92777 
L 240.322238 -38.840571 
L 231.997762 -38.746579 
L 223.673287 -38.653849 
L 215.348811 -38.561728 
L 207.024336 -38.47095 
L 198.69986 -38.380253 
L 190.375385 -38.292565 
L 182.050909 -38.27223 
L 173.726434 -38.27223 
L 165.401958 -38.27223 
L 157.077483 -38.272107 
L 148.753007 -38.271985 
L 140.428531 -38.271823 
L 132.104056 -38.267715 
L 115.455105 -38.231111 
L 107.130629 -38.194507 
L 98.806154 -38.157902 
L 90.481678 -38.12142 
L 82.157203 -38.084938 
L 73.832727 -38.048496 
z
" id="maec49c77bf" style="stroke:#7ea297;stroke-opacity:0.3;"/>
    </defs>
    <g clip-path="url(#pc50fc89c5d)">
     <use style="fill:#7ea297;fill-opacity:0.3;stroke:#7ea297;stroke-opacity:0.3;" x="0" xlink:href="#maec49c77bf" y="345.6"/>
    </g>
   </g>
   <g id="line2d_1">
    <path clip-path="url(#pc50fc89c5d)" d="M 73.832727 307.551504 
L 82.157203 307.515062 
L 90.481678 307.47858 
L 98.806154 307.442098 
L 107.130629 307.405493 
L 115.455105 307.368889 
L 132.104056 307.332285 
L 140.428531 307.328177 
L 148.753007 307.328015 
L 157.077483 307.327893 
L 165.401958 307.32777 
L 173.726434 307.32777 
L 182.050909 307.32777 
L 190.375385 307.307435 
L 198.69986 307.219747 
L 207.024336 307.12905 
L 215.348811 307.038272 
L 223.673287 306.946151 
L 231.997762 306.853421 
L 240.322238 306.759429 
L 248.646713 306.67223 
L 273.62014 306.646281 
L 281.944615 306.623383 
L 290.269091 306.600567 
L 298.593566 306.579092 
L 306.918042 306.508527 
L 315.242517 306.373051 
L 323.566993 306.249248 
L 331.891469 306.130731 
L 348.54042 305.997248 
L 356.864895 305.846032 
L 365.189371 305.675782 
L 373.513846 305.504433 
L 381.838322 305.399257 
L 390.162797 305.293023 
L 398.487273 305.186668 
" style="fill:none;stroke:#60897e;stroke-linecap:square;stroke-width:2;"/>
   </g>
   <g id="line2d_2">
    <path clip-path="url(#pc50fc89c5d)" d="M 281.944615 306.623383 
L 290.269091 306.600567 
L 298.593566 306.579092 
L 306.918042 306.508527 
L 315.242517 306.373051 
L 323.566993 306.249248 
L 331.891469 306.130731 
L 348.54042 305.997248 
L 356.864895 305.846032 
L 365.189371 305.675782 
L 373.513846 305.504433 
L 381.838322 305.399257 
L 390.162797 305.293023 
L 398.487273 305.186668 
" style="fill:none;stroke:#427165;stroke-linecap:square;stroke-width:2;"/>
   </g>
  </g>
 </g>
 <defs>
  <clipPath id="pc50fc89c5d">
   <rect height="266.112" width="357.12" x="57.6" y="41.472"/>
  </clipPath>
 </defs>
</svg>
