<?xml version="1.0" encoding="utf-8" standalone="no"?>
<!DOCTYPE svg PUBLIC "-//W3C//DTD SVG 1.1//EN"
  "http://www.w3.org/Graphics/SVG/1.1/DTD/svg11.dtd">
<svg height="345.6pt" version="1.1" viewBox="0 0 460.8 345.6" width="460.8pt" xmlns="http://www.w3.org/2000/svg" xmlns:xlink="http://www.w3.org/1999/xlink">
 <metadata>
  <rdf:RDF xmlns:cc="http://creativecommons.org/ns#" xmlns:dc="http://purl.org/dc/elements/1.1/" xmlns:rdf="http://www.w3.org/1999/02/22-rdf-syntax-ns#">
   <cc:Work>
    <dc:type rdf:resource="http://purl.org/dc/dcmitype/StillImage"/>
    <dc:date>2021-05-17T10:41:13.753304</dc:date>
    <dc:format>image/svg+xml</dc:format>
    <dc:creator>
     <cc:Agent>
      <dc:title>Matplotlib v3.4.2, https://matplotlib.org/</dc:title>
     </cc:Agent>
    </dc:creator>
   </cc:Work>
  </rdf:RDF>
 </metadata>
 <defs>
  <style type="text/css">*{stroke-linecap:butt;stroke-linejoin:round;}</style>
 </defs>
 <g id="figure_1">
  <g id="patch_1">
   <path d="M 0 345.6 
L 460.8 345.6 
L 460.8 0 
L 0 0 
z
" style="fill:none;"/>
  </g>
  <g id="axes_1">
   <g id="matplotlib.axis_1"/>
   <g id="matplotlib.axis_2"/>
   <g id="PolyCollection_1">
    <defs>
     <path d="M 258.096118 -38.92777 
L 258.096118 -38.016 
L 284.419459 -38.016 
L 293.193907 -38.016 
L 301.968354 -38.016 
L 310.742801 -38.016 
L 319.517248 -38.016 
L 328.291695 -38.016 
L 337.066143 -38.016 
L 345.84059 -38.016 
L 363.389484 -38.016 
L 372.163931 -38.016 
L 380.938378 -38.016 
L 389.712826 -38.016 
L 398.487273 -38.016 
L 398.487273 -40.200743 
L 398.487273 -40.200743 
L 389.712826 -40.095567 
L 380.938378 -39.924218 
L 372.163931 -39.753968 
L 363.389484 -39.602752 
L 345.84059 -39.469269 
L 337.066143 -39.350752 
L 328.291695 -39.226949 
L 319.517248 -39.091473 
L 310.742801 -39.020908 
L 301.968354 -38.999433 
L 293.193907 -38.976617 
L 284.419459 -38.953719 
L 258.096118 -38.92777 
z
" id="m472786639a" style="stroke:#7ea297;stroke-opacity:0.5;"/>
    </defs>
    <g clip-path="url(#p27447b3e54)">
     <use style="fill:#7ea297;fill-opacity:0.5;stroke:#7ea297;stroke-opacity:0.5;" x="0" xlink:href="#m472786639a" y="345.6"/>
    </g>
   </g>
   <g id="PolyCollection_2">
    <defs>
     <path d="M 73.832727 -38.048496 
L 73.832727 -38.016 
L 82.607174 -38.016 
L 91.381622 -38.016 
L 100.156069 -38.016 
L 108.930516 -38.016 
L 117.704963 -38.016 
L 135.253857 -38.016 
L 144.028305 -38.016 
L 152.802752 -38.016 
L 161.577199 -38.016 
L 170.351646 -38.016 
L 179.126093 -38.016 
L 187.900541 -38.016 
L 196.674988 -38.016 
L 205.449435 -38.016 
L 214.223882 -38.016 
L 222.998329 -38.016 
L 231.772776 -38.016 
L 240.547224 -38.016 
L 249.321671 -38.016 
L 258.096118 -38.016 
L 258.096118 -38.92777 
L 258.096118 -38.92777 
L 249.321671 -38.840571 
L 240.547224 -38.746579 
L 231.772776 -38.653849 
L 222.998329 -38.561728 
L 214.223882 -38.47095 
L 205.449435 -38.380253 
L 196.674988 -38.292565 
L 187.900541 -38.27223 
L 179.126093 -38.27223 
L 170.351646 -38.27223 
L 161.577199 -38.272107 
L 152.802752 -38.271985 
L 144.028305 -38.271823 
L 135.253857 -38.267715 
L 117.704963 -38.231111 
L 108.930516 -38.194507 
L 100.156069 -38.157902 
L 91.381622 -38.12142 
L 82.607174 -38.084938 
L 73.832727 -38.048496 
z
" id="m54d977c367" style="stroke:#7ea297;stroke-opacity:0.3;"/>
    </defs>
    <g clip-path="url(#p27447b3e54)">
     <use style="fill:#7ea297;fill-opacity:0.3;stroke:#7ea297;stroke-opacity:0.3;" x="0" xlink:href="#m54d977c367" y="345.6"/>
    </g>
   </g>
   <g id="line2d_1">
    <path clip-path="url(#p27447b3e54)" d="M 73.832727 307.551504 
L 82.607174 307.515062 
L 91.381622 307.47858 
L 100.156069 307.442098 
L 108.930516 307.405493 
L 117.704963 307.368889 
L 135.253857 307.332285 
L 144.028305 307.328177 
L 152.802752 307.328015 
L 161.577199 307.327893 
L 170.351646 307.32777 
L 179.126093 307.32777 
L 187.900541 307.32777 
L 196.674988 307.307435 
L 205.449435 307.219747 
L 214.223882 307.12905 
L 222.998329 307.038272 
L 231.772776 306.946151 
L 240.547224 306.853421 
L 249.321671 306.759429 
L 258.096118 306.67223 
L 284.419459 306.646281 
L 293.193907 306.623383 
L 301.968354 306.600567 
L 310.742801 306.579092 
L 319.517248 306.508527 
L 328.291695 306.373051 
L 337.066143 306.249248 
L 345.84059 306.130731 
L 363.389484 305.997248 
L 372.163931 305.846032 
L 380.938378 305.675782 
L 389.712826 305.504433 
L 398.487273 305.399257 
" style="fill:none;stroke:#60897e;stroke-linecap:square;stroke-width:2;"/>
   </g>
   <g id="line2d_2">
    <path clip-path="url(#p27447b3e54)" d="M 258.096118 306.67223 
L 284.419459 306.646281 
L 293.193907 306.623383 
L 301.968354 306.600567 
L 310.742801 306.579092 
L 319.517248 306.508527 
L 328.291695 306.373051 
L 337.066143 306.249248 
L 345.84059 306.130731 
L 363.389484 305.997248 
L 372.163931 305.846032 
L 380.938378 305.675782 
L 389.712826 305.504433 
L 398.487273 305.399257 
" style="fill:none;stroke:#427165;stroke-linecap:square;stroke-width:2;"/>
   </g>
  </g>
 </g>
 <defs>
  <clipPath id="p27447b3e54">
   <rect height="266.112" width="357.12" x="57.6" y="41.472"/>
  </clipPath>
 </defs>
</svg>
