<?xml version="1.0" encoding="utf-8" standalone="no"?>
<!DOCTYPE svg PUBLIC "-//W3C//DTD SVG 1.1//EN"
  "http://www.w3.org/Graphics/SVG/1.1/DTD/svg11.dtd">
<!-- Created with matplotlib (https://matplotlib.org/) -->
<svg height="345.6pt" version="1.1" viewBox="0 0 460.8 345.6" width="460.8pt" xmlns="http://www.w3.org/2000/svg" xmlns:xlink="http://www.w3.org/1999/xlink">
 <metadata>
  <rdf:RDF xmlns:cc="http://creativecommons.org/ns#" xmlns:dc="http://purl.org/dc/elements/1.1/" xmlns:rdf="http://www.w3.org/1999/02/22-rdf-syntax-ns#">
   <cc:Work>
    <dc:type rdf:resource="http://purl.org/dc/dcmitype/StillImage"/>
    <dc:date>2021-05-15T09:28:37.879470</dc:date>
    <dc:format>image/svg+xml</dc:format>
    <dc:creator>
     <cc:Agent>
      <dc:title>Matplotlib v3.3.2, https://matplotlib.org/</dc:title>
     </cc:Agent>
    </dc:creator>
   </cc:Work>
  </rdf:RDF>
 </metadata>
 <defs>
  <style type="text/css">*{stroke-linecap:butt;stroke-linejoin:round;}</style>
 </defs>
 <g id="figure_1">
  <g id="patch_1">
   <path d="M 0 345.6 
L 460.8 345.6 
L 460.8 0 
L 0 0 
z
" style="fill:none;"/>
  </g>
  <g id="axes_1">
   <g id="matplotlib.axis_1"/>
   <g id="matplotlib.axis_2"/>
   <g id="PolyCollection_1">
    <defs>
     <path d="M 250.073766 -38.746579 
L 250.073766 -38.016 
L 259.34961 -38.016 
L 268.625455 -38.016 
L 296.452987 -38.016 
L 305.728831 -38.016 
L 315.004675 -38.016 
L 324.280519 -38.016 
L 333.556364 -38.016 
L 342.832208 -38.016 
L 352.108052 -38.016 
L 361.383896 -38.016 
L 379.935584 -38.016 
L 389.211429 -38.016 
L 398.487273 -38.016 
L 398.487273 -39.924218 
L 398.487273 -39.924218 
L 389.211429 -39.753968 
L 379.935584 -39.602752 
L 361.383896 -39.469269 
L 352.108052 -39.350752 
L 342.832208 -39.226949 
L 333.556364 -39.091473 
L 324.280519 -39.020908 
L 315.004675 -38.999433 
L 305.728831 -38.976617 
L 296.452987 -38.953719 
L 268.625455 -38.92777 
L 259.34961 -38.840571 
L 250.073766 -38.746579 
z
" id="m8938a5a890" style="stroke:#7ea297;stroke-opacity:0.5;"/>
    </defs>
    <g clip-path="url(#pf4e4738d2d)">
     <use style="fill:#7ea297;fill-opacity:0.5;stroke:#7ea297;stroke-opacity:0.5;" x="0" xlink:href="#m8938a5a890" y="345.6"/>
    </g>
   </g>
   <g id="PolyCollection_2">
    <defs>
     <path d="M 73.832727 -38.048496 
L 73.832727 -38.016 
L 83.108571 -38.016 
L 92.384416 -38.016 
L 101.66026 -38.016 
L 110.936104 -38.016 
L 120.211948 -38.016 
L 138.763636 -38.016 
L 148.039481 -38.016 
L 157.315325 -38.016 
L 166.591169 -38.016 
L 175.867013 -38.016 
L 185.142857 -38.016 
L 194.418701 -38.016 
L 203.694545 -38.016 
L 212.97039 -38.016 
L 222.246234 -38.016 
L 231.522078 -38.016 
L 240.797922 -38.016 
L 250.073766 -38.016 
L 250.073766 -38.746579 
L 250.073766 -38.746579 
L 240.797922 -38.653849 
L 231.522078 -38.561728 
L 222.246234 -38.47095 
L 212.97039 -38.380253 
L 203.694545 -38.292565 
L 194.418701 -38.27223 
L 185.142857 -38.27223 
L 175.867013 -38.27223 
L 166.591169 -38.272107 
L 157.315325 -38.271985 
L 148.039481 -38.271823 
L 138.763636 -38.267715 
L 120.211948 -38.231111 
L 110.936104 -38.194507 
L 101.66026 -38.157902 
L 92.384416 -38.12142 
L 83.108571 -38.084938 
L 73.832727 -38.048496 
z
" id="m3caaa15cf1" style="stroke:#7ea297;stroke-opacity:0.3;"/>
    </defs>
    <g clip-path="url(#pf4e4738d2d)">
     <use style="fill:#7ea297;fill-opacity:0.3;stroke:#7ea297;stroke-opacity:0.3;" x="0" xlink:href="#m3caaa15cf1" y="345.6"/>
    </g>
   </g>
   <g id="line2d_1">
    <path clip-path="url(#pf4e4738d2d)" d="M 73.832727 307.551504 
L 83.108571 307.515062 
L 92.384416 307.47858 
L 101.66026 307.442098 
L 110.936104 307.405493 
L 120.211948 307.368889 
L 138.763636 307.332285 
L 148.039481 307.328177 
L 157.315325 307.328015 
L 166.591169 307.327893 
L 175.867013 307.32777 
L 185.142857 307.32777 
L 194.418701 307.32777 
L 203.694545 307.307435 
L 212.97039 307.219747 
L 222.246234 307.12905 
L 231.522078 307.038272 
L 240.797922 306.946151 
L 250.073766 306.853421 
L 259.34961 306.759429 
L 268.625455 306.67223 
L 296.452987 306.646281 
L 305.728831 306.623383 
L 315.004675 306.600567 
L 324.280519 306.579092 
L 333.556364 306.508527 
L 342.832208 306.373051 
L 352.108052 306.249248 
L 361.383896 306.130731 
L 379.935584 305.997248 
L 389.211429 305.846032 
L 398.487273 305.675782 
" style="fill:none;stroke:#60897e;stroke-linecap:square;stroke-width:2;"/>
   </g>
   <g id="line2d_2">
    <path clip-path="url(#pf4e4738d2d)" d="M 250.073766 306.853421 
L 259.34961 306.759429 
L 268.625455 306.67223 
L 296.452987 306.646281 
L 305.728831 306.623383 
L 315.004675 306.600567 
L 324.280519 306.579092 
L 333.556364 306.508527 
L 342.832208 306.373051 
L 352.108052 306.249248 
L 361.383896 306.130731 
L 379.935584 305.997248 
L 389.211429 305.846032 
L 398.487273 305.675782 
" style="fill:none;stroke:#427165;stroke-linecap:square;stroke-width:2;"/>
   </g>
  </g>
 </g>
 <defs>
  <clipPath id="pf4e4738d2d">
   <rect height="266.112" width="357.12" x="57.6" y="41.472"/>
  </clipPath>
 </defs>
</svg>
