<?xml version="1.0" encoding="utf-8" standalone="no"?>
<!DOCTYPE svg PUBLIC "-//W3C//DTD SVG 1.1//EN"
  "http://www.w3.org/Graphics/SVG/1.1/DTD/svg11.dtd">
<svg height="345.6pt" version="1.1" viewBox="0 0 460.8 345.6" width="460.8pt" xmlns="http://www.w3.org/2000/svg" xmlns:xlink="http://www.w3.org/1999/xlink">
 <metadata>
  <rdf:RDF xmlns:cc="http://creativecommons.org/ns#" xmlns:dc="http://purl.org/dc/elements/1.1/" xmlns:rdf="http://www.w3.org/1999/02/22-rdf-syntax-ns#">
   <cc:Work>
    <dc:type rdf:resource="http://purl.org/dc/dcmitype/StillImage"/>
    <dc:date>2021-05-20T13:25:48.506906</dc:date>
    <dc:format>image/svg+xml</dc:format>
    <dc:creator>
     <cc:Agent>
      <dc:title>Matplotlib v3.4.2, https://matplotlib.org/</dc:title>
     </cc:Agent>
    </dc:creator>
   </cc:Work>
  </rdf:RDF>
 </metadata>
 <defs>
  <style type="text/css">*{stroke-linecap:butt;stroke-linejoin:round;}</style>
 </defs>
 <g id="figure_1">
  <g id="patch_1">
   <path d="M 0 345.6 
L 460.8 345.6 
L 460.8 0 
L 0 0 
z
" style="fill:none;"/>
  </g>
  <g id="axes_1">
   <g id="matplotlib.axis_1"/>
   <g id="matplotlib.axis_2"/>
   <g id="PolyCollection_1">
    <defs>
     <path d="M 284.858182 -38.999433 
L 284.858182 -38.016 
L 292.974545 -38.016 
L 301.090909 -38.016 
L 309.207273 -38.016 
L 317.323636 -38.016 
L 325.44 -38.016 
L 341.672727 -38.016 
L 349.789091 -38.016 
L 357.905455 -38.016 
L 366.021818 -38.016 
L 374.138182 -38.016 
L 382.254545 -38.016 
L 390.370909 -38.016 
L 398.487273 -38.016 
L 398.487273 -40.532906 
L 398.487273 -40.532906 
L 390.370909 -40.413332 
L 382.254545 -40.306977 
L 374.138182 -40.200743 
L 366.021818 -40.095567 
L 357.905455 -39.924218 
L 349.789091 -39.753968 
L 341.672727 -39.602752 
L 325.44 -39.469269 
L 317.323636 -39.350752 
L 309.207273 -39.226949 
L 301.090909 -39.091473 
L 292.974545 -39.020908 
L 284.858182 -38.999433 
z
" id="mcc6f2373e3" style="stroke:#7ea297;stroke-opacity:0.5;"/>
    </defs>
    <g clip-path="url(#p2170b11e5b)">
     <use style="fill:#7ea297;fill-opacity:0.5;stroke:#7ea297;stroke-opacity:0.5;" x="0" xlink:href="#mcc6f2373e3" y="345.6"/>
    </g>
   </g>
   <g id="PolyCollection_2">
    <defs>
     <path d="M 73.832727 -38.048496 
L 73.832727 -38.016 
L 81.949091 -38.016 
L 90.065455 -38.016 
L 98.181818 -38.016 
L 106.298182 -38.016 
L 114.414545 -38.016 
L 130.647273 -38.016 
L 138.763636 -38.016 
L 146.88 -38.016 
L 154.996364 -38.016 
L 163.112727 -38.016 
L 171.229091 -38.016 
L 179.345455 -38.016 
L 187.461818 -38.016 
L 195.578182 -38.016 
L 203.694545 -38.016 
L 211.810909 -38.016 
L 219.927273 -38.016 
L 228.043636 -38.016 
L 236.16 -38.016 
L 244.276364 -38.016 
L 268.625455 -38.016 
L 276.741818 -38.016 
L 284.858182 -38.016 
L 284.858182 -38.999433 
L 284.858182 -38.999433 
L 276.741818 -38.976617 
L 268.625455 -38.953719 
L 244.276364 -38.92777 
L 236.16 -38.840571 
L 228.043636 -38.746579 
L 219.927273 -38.653849 
L 211.810909 -38.561728 
L 203.694545 -38.47095 
L 195.578182 -38.380253 
L 187.461818 -38.292565 
L 179.345455 -38.27223 
L 171.229091 -38.27223 
L 163.112727 -38.27223 
L 154.996364 -38.272107 
L 146.88 -38.271985 
L 138.763636 -38.271823 
L 130.647273 -38.267715 
L 114.414545 -38.231111 
L 106.298182 -38.194507 
L 98.181818 -38.157902 
L 90.065455 -38.12142 
L 81.949091 -38.084938 
L 73.832727 -38.048496 
z
" id="m367ffb2438" style="stroke:#7ea297;stroke-opacity:0.3;"/>
    </defs>
    <g clip-path="url(#p2170b11e5b)">
     <use style="fill:#7ea297;fill-opacity:0.3;stroke:#7ea297;stroke-opacity:0.3;" x="0" xlink:href="#m367ffb2438" y="345.6"/>
    </g>
   </g>
   <g id="line2d_1">
    <path clip-path="url(#p2170b11e5b)" d="M 73.832727 307.551504 
L 81.949091 307.515062 
L 90.065455 307.47858 
L 98.181818 307.442098 
L 106.298182 307.405493 
L 114.414545 307.368889 
L 130.647273 307.332285 
L 138.763636 307.328177 
L 146.88 307.328015 
L 154.996364 307.327893 
L 163.112727 307.32777 
L 171.229091 307.32777 
L 179.345455 307.32777 
L 187.461818 307.307435 
L 195.578182 307.219747 
L 203.694545 307.12905 
L 211.810909 307.038272 
L 219.927273 306.946151 
L 228.043636 306.853421 
L 236.16 306.759429 
L 244.276364 306.67223 
L 268.625455 306.646281 
L 276.741818 306.623383 
L 284.858182 306.600567 
L 292.974545 306.579092 
L 301.090909 306.508527 
L 309.207273 306.373051 
L 317.323636 306.249248 
L 325.44 306.130731 
L 341.672727 305.997248 
L 349.789091 305.846032 
L 357.905455 305.675782 
L 366.021818 305.504433 
L 374.138182 305.399257 
L 382.254545 305.293023 
L 390.370909 305.186668 
L 398.487273 305.067094 
" style="fill:none;stroke:#60897e;stroke-linecap:square;stroke-width:2;"/>
   </g>
   <g id="line2d_2">
    <path clip-path="url(#p2170b11e5b)" d="M 284.858182 306.600567 
L 292.974545 306.579092 
L 301.090909 306.508527 
L 309.207273 306.373051 
L 317.323636 306.249248 
L 325.44 306.130731 
L 341.672727 305.997248 
L 349.789091 305.846032 
L 357.905455 305.675782 
L 366.021818 305.504433 
L 374.138182 305.399257 
L 382.254545 305.293023 
L 390.370909 305.186668 
L 398.487273 305.067094 
" style="fill:none;stroke:#427165;stroke-linecap:square;stroke-width:2;"/>
   </g>
  </g>
 </g>
 <defs>
  <clipPath id="p2170b11e5b">
   <rect height="266.112" width="357.12" x="57.6" y="41.472"/>
  </clipPath>
 </defs>
</svg>
