<?xml version="1.0" encoding="utf-8" standalone="no"?>
<!DOCTYPE svg PUBLIC "-//W3C//DTD SVG 1.1//EN"
  "http://www.w3.org/Graphics/SVG/1.1/DTD/svg11.dtd">
<!-- Created with matplotlib (https://matplotlib.org/) -->
<svg height="345.6pt" version="1.1" viewBox="0 0 460.8 345.6" width="460.8pt" xmlns="http://www.w3.org/2000/svg" xmlns:xlink="http://www.w3.org/1999/xlink">
 <metadata>
  <rdf:RDF xmlns:cc="http://creativecommons.org/ns#" xmlns:dc="http://purl.org/dc/elements/1.1/" xmlns:rdf="http://www.w3.org/1999/02/22-rdf-syntax-ns#">
   <cc:Work>
    <dc:type rdf:resource="http://purl.org/dc/dcmitype/StillImage"/>
    <dc:date>2021-05-15T09:28:37.420085</dc:date>
    <dc:format>image/svg+xml</dc:format>
    <dc:creator>
     <cc:Agent>
      <dc:title>Matplotlib v3.3.2, https://matplotlib.org/</dc:title>
     </cc:Agent>
    </dc:creator>
   </cc:Work>
  </rdf:RDF>
 </metadata>
 <defs>
  <style type="text/css">*{stroke-linecap:butt;stroke-linejoin:round;}</style>
 </defs>
 <g id="figure_1">
  <g id="patch_1">
   <path d="M 0 345.6 
L 460.8 345.6 
L 460.8 0 
L 0 0 
z
" style="fill:none;"/>
  </g>
  <g id="axes_1">
   <g id="matplotlib.axis_1"/>
   <g id="matplotlib.axis_2"/>
   <g id="PolyCollection_1">
    <defs>
     <path d="M 250.073766 -38.742913 
L 250.073766 -38.016 
L 259.34961 -38.016 
L 268.625455 -38.016 
L 296.452987 -38.016 
L 305.728831 -38.016 
L 315.004675 -38.016 
L 324.280519 -38.016 
L 333.556364 -38.016 
L 342.832208 -38.016 
L 352.108052 -38.016 
L 361.383896 -38.016 
L 379.935584 -38.016 
L 389.211429 -38.016 
L 398.487273 -38.016 
L 398.487273 -39.846015 
L 398.487273 -39.846015 
L 389.211429 -39.842478 
L 379.935584 -39.816322 
L 361.383896 -39.718642 
L 352.108052 -39.6288 
L 342.832208 -39.524882 
L 333.556364 -39.416502 
L 324.280519 -39.288512 
L 315.004675 -39.162358 
L 305.728831 -39.006451 
L 296.452987 -38.962403 
L 268.625455 -38.913145 
L 259.34961 -38.826238 
L 250.073766 -38.742913 
z
" id="mb83e871f64" style="stroke:#7ea297;stroke-opacity:0.5;"/>
    </defs>
    <g clip-path="url(#p82b1adbd99)">
     <use style="fill:#7ea297;fill-opacity:0.5;stroke:#7ea297;stroke-opacity:0.5;" x="0" xlink:href="#mb83e871f64" y="345.6"/>
    </g>
   </g>
   <g id="PolyCollection_2">
    <defs>
     <path d="M 73.832727 -38.053736 
L 73.832727 -38.016 
L 83.108571 -38.016 
L 92.384416 -38.016 
L 101.66026 -38.016 
L 110.936104 -38.016 
L 120.211948 -38.016 
L 138.763636 -38.016 
L 148.039481 -38.016 
L 157.315325 -38.016 
L 166.591169 -38.016 
L 175.867013 -38.016 
L 185.142857 -38.016 
L 194.418701 -38.016 
L 203.694545 -38.016 
L 212.97039 -38.016 
L 222.246234 -38.016 
L 231.522078 -38.016 
L 240.797922 -38.016 
L 250.073766 -38.016 
L 250.073766 -38.742913 
L 250.073766 -38.742913 
L 240.797922 -38.663419 
L 231.522078 -38.585656 
L 222.246234 -38.548287 
L 212.97039 -38.471904 
L 203.694545 -38.405194 
L 194.418701 -38.390531 
L 185.142857 -38.384689 
L 175.867013 -38.381944 
L 166.591169 -38.379156 
L 157.315325 -38.376822 
L 148.039481 -38.370437 
L 138.763636 -38.343019 
L 120.211948 -38.300322 
L 110.936104 -38.250682 
L 101.66026 -38.200895 
L 92.384416 -38.149229 
L 83.108571 -38.099457 
L 73.832727 -38.053736 
z
" id="md54ba0f2e0" style="stroke:#7ea297;stroke-opacity:0.3;"/>
    </defs>
    <g clip-path="url(#p82b1adbd99)">
     <use style="fill:#7ea297;fill-opacity:0.3;stroke:#7ea297;stroke-opacity:0.3;" x="0" xlink:href="#md54ba0f2e0" y="345.6"/>
    </g>
   </g>
   <g id="line2d_1">
    <path clip-path="url(#p82b1adbd99)" d="M 73.832727 307.546264 
L 83.108571 307.500543 
L 92.384416 307.450771 
L 101.66026 307.399105 
L 110.936104 307.349318 
L 120.211948 307.299678 
L 138.763636 307.256981 
L 148.039481 307.229563 
L 157.315325 307.223178 
L 166.591169 307.220844 
L 175.867013 307.218056 
L 185.142857 307.215311 
L 194.418701 307.209469 
L 203.694545 307.194806 
L 212.97039 307.128096 
L 222.246234 307.051713 
L 231.522078 307.014344 
L 240.797922 306.936581 
L 250.073766 306.857087 
L 259.34961 306.773762 
L 268.625455 306.686855 
L 296.452987 306.637597 
L 305.728831 306.593549 
L 315.004675 306.437642 
L 324.280519 306.311488 
L 333.556364 306.183498 
L 342.832208 306.075118 
L 352.108052 305.9712 
L 361.383896 305.881358 
L 379.935584 305.783678 
L 389.211429 305.757522 
L 398.487273 305.753985 
" style="fill:none;stroke:#60897e;stroke-linecap:square;stroke-width:2;"/>
   </g>
   <g id="line2d_2">
    <path clip-path="url(#p82b1adbd99)" d="M 250.073766 306.857087 
L 259.34961 306.773762 
L 268.625455 306.686855 
L 296.452987 306.637597 
L 305.728831 306.593549 
L 315.004675 306.437642 
L 324.280519 306.311488 
L 333.556364 306.183498 
L 342.832208 306.075118 
L 352.108052 305.9712 
L 361.383896 305.881358 
L 379.935584 305.783678 
L 389.211429 305.757522 
L 398.487273 305.753985 
" style="fill:none;stroke:#427165;stroke-linecap:square;stroke-width:2;"/>
   </g>
  </g>
 </g>
 <defs>
  <clipPath id="p82b1adbd99">
   <rect height="266.112" width="357.12" x="57.6" y="41.472"/>
  </clipPath>
 </defs>
</svg>
