<?xml version="1.0" encoding="utf-8" standalone="no"?>
<!DOCTYPE svg PUBLIC "-//W3C//DTD SVG 1.1//EN"
  "http://www.w3.org/Graphics/SVG/1.1/DTD/svg11.dtd">
<svg height="345.6pt" version="1.1" viewBox="0 0 460.8 345.6" width="460.8pt" xmlns="http://www.w3.org/2000/svg" xmlns:xlink="http://www.w3.org/1999/xlink">
 <metadata>
  <rdf:RDF xmlns:cc="http://creativecommons.org/ns#" xmlns:dc="http://purl.org/dc/elements/1.1/" xmlns:rdf="http://www.w3.org/1999/02/22-rdf-syntax-ns#">
   <cc:Work>
    <dc:type rdf:resource="http://purl.org/dc/dcmitype/StillImage"/>
    <dc:date>2021-05-20T13:25:47.591824</dc:date>
    <dc:format>image/svg+xml</dc:format>
    <dc:creator>
     <cc:Agent>
      <dc:title>Matplotlib v3.4.2, https://matplotlib.org/</dc:title>
     </cc:Agent>
    </dc:creator>
   </cc:Work>
  </rdf:RDF>
 </metadata>
 <defs>
  <style type="text/css">*{stroke-linecap:butt;stroke-linejoin:round;}</style>
 </defs>
 <g id="figure_1">
  <g id="patch_1">
   <path d="M 0 345.6 
L 460.8 345.6 
L 460.8 0 
L 0 0 
z
" style="fill:none;"/>
  </g>
  <g id="axes_1">
   <g id="matplotlib.axis_1"/>
   <g id="matplotlib.axis_2"/>
   <g id="PolyCollection_1">
    <defs>
     <path d="M 284.858182 -39.162358 
L 284.858182 -38.016 
L 292.974545 -38.016 
L 301.090909 -38.016 
L 309.207273 -38.016 
L 317.323636 -38.016 
L 325.44 -38.016 
L 341.672727 -38.016 
L 349.789091 -38.016 
L 357.905455 -38.016 
L 366.021818 -38.016 
L 374.138182 -38.016 
L 382.254545 -38.016 
L 390.370909 -38.016 
L 398.487273 -38.016 
L 398.487273 -39.976118 
L 398.487273 -39.976118 
L 390.370909 -39.95896 
L 382.254545 -39.929575 
L 374.138182 -39.902906 
L 366.021818 -39.868135 
L 357.905455 -39.846015 
L 349.789091 -39.842478 
L 341.672727 -39.816322 
L 325.44 -39.718642 
L 317.323636 -39.6288 
L 309.207273 -39.524882 
L 301.090909 -39.416502 
L 292.974545 -39.288512 
L 284.858182 -39.162358 
z
" id="mcca6c0d5e9" style="stroke:#7ea297;stroke-opacity:0.5;"/>
    </defs>
    <g clip-path="url(#pf16825156d)">
     <use style="fill:#7ea297;fill-opacity:0.5;stroke:#7ea297;stroke-opacity:0.5;" x="0" xlink:href="#mcca6c0d5e9" y="345.6"/>
    </g>
   </g>
   <g id="PolyCollection_2">
    <defs>
     <path d="M 73.832727 -38.053736 
L 73.832727 -38.016 
L 81.949091 -38.016 
L 90.065455 -38.016 
L 98.181818 -38.016 
L 106.298182 -38.016 
L 114.414545 -38.016 
L 130.647273 -38.016 
L 138.763636 -38.016 
L 146.88 -38.016 
L 154.996364 -38.016 
L 163.112727 -38.016 
L 171.229091 -38.016 
L 179.345455 -38.016 
L 187.461818 -38.016 
L 195.578182 -38.016 
L 203.694545 -38.016 
L 211.810909 -38.016 
L 219.927273 -38.016 
L 228.043636 -38.016 
L 236.16 -38.016 
L 244.276364 -38.016 
L 268.625455 -38.016 
L 276.741818 -38.016 
L 284.858182 -38.016 
L 284.858182 -39.162358 
L 284.858182 -39.162358 
L 276.741818 -39.006451 
L 268.625455 -38.962403 
L 244.276364 -38.913145 
L 236.16 -38.826238 
L 228.043636 -38.742913 
L 219.927273 -38.663419 
L 211.810909 -38.585656 
L 203.694545 -38.548287 
L 195.578182 -38.471904 
L 187.461818 -38.405194 
L 179.345455 -38.390531 
L 171.229091 -38.384689 
L 163.112727 -38.381944 
L 154.996364 -38.379156 
L 146.88 -38.376822 
L 138.763636 -38.370437 
L 130.647273 -38.343019 
L 114.414545 -38.300322 
L 106.298182 -38.250682 
L 98.181818 -38.200895 
L 90.065455 -38.149229 
L 81.949091 -38.099457 
L 73.832727 -38.053736 
z
" id="m7638e5cb04" style="stroke:#7ea297;stroke-opacity:0.3;"/>
    </defs>
    <g clip-path="url(#pf16825156d)">
     <use style="fill:#7ea297;fill-opacity:0.3;stroke:#7ea297;stroke-opacity:0.3;" x="0" xlink:href="#m7638e5cb04" y="345.6"/>
    </g>
   </g>
   <g id="line2d_1">
    <path clip-path="url(#pf16825156d)" d="M 73.832727 307.546264 
L 81.949091 307.500543 
L 90.065455 307.450771 
L 98.181818 307.399105 
L 106.298182 307.349318 
L 114.414545 307.299678 
L 130.647273 307.256981 
L 138.763636 307.229563 
L 146.88 307.223178 
L 154.996364 307.220844 
L 163.112727 307.218056 
L 171.229091 307.215311 
L 179.345455 307.209469 
L 187.461818 307.194806 
L 195.578182 307.128096 
L 203.694545 307.051713 
L 211.810909 307.014344 
L 219.927273 306.936581 
L 228.043636 306.857087 
L 236.16 306.773762 
L 244.276364 306.686855 
L 268.625455 306.637597 
L 276.741818 306.593549 
L 284.858182 306.437642 
L 292.974545 306.311488 
L 301.090909 306.183498 
L 309.207273 306.075118 
L 317.323636 305.9712 
L 325.44 305.881358 
L 341.672727 305.783678 
L 349.789091 305.757522 
L 357.905455 305.753985 
L 366.021818 305.731865 
L 374.138182 305.697094 
L 382.254545 305.670425 
L 390.370909 305.64104 
L 398.487273 305.623882 
" style="fill:none;stroke:#60897e;stroke-linecap:square;stroke-width:2;"/>
   </g>
   <g id="line2d_2">
    <path clip-path="url(#pf16825156d)" d="M 284.858182 306.437642 
L 292.974545 306.311488 
L 301.090909 306.183498 
L 309.207273 306.075118 
L 317.323636 305.9712 
L 325.44 305.881358 
L 341.672727 305.783678 
L 349.789091 305.757522 
L 357.905455 305.753985 
L 366.021818 305.731865 
L 374.138182 305.697094 
L 382.254545 305.670425 
L 390.370909 305.64104 
L 398.487273 305.623882 
" style="fill:none;stroke:#427165;stroke-linecap:square;stroke-width:2;"/>
   </g>
  </g>
 </g>
 <defs>
  <clipPath id="pf16825156d">
   <rect height="266.112" width="357.12" x="57.6" y="41.472"/>
  </clipPath>
 </defs>
</svg>
