<?xml version="1.0" encoding="utf-8" standalone="no"?>
<!DOCTYPE svg PUBLIC "-//W3C//DTD SVG 1.1//EN"
  "http://www.w3.org/Graphics/SVG/1.1/DTD/svg11.dtd">
<svg height="345.6pt" version="1.1" viewBox="0 0 460.8 345.6" width="460.8pt" xmlns="http://www.w3.org/2000/svg" xmlns:xlink="http://www.w3.org/1999/xlink">
 <metadata>
  <rdf:RDF xmlns:cc="http://creativecommons.org/ns#" xmlns:dc="http://purl.org/dc/elements/1.1/" xmlns:rdf="http://www.w3.org/1999/02/22-rdf-syntax-ns#">
   <cc:Work>
    <dc:type rdf:resource="http://purl.org/dc/dcmitype/StillImage"/>
    <dc:date>2021-05-20T13:25:47.286687</dc:date>
    <dc:format>image/svg+xml</dc:format>
    <dc:creator>
     <cc:Agent>
      <dc:title>Matplotlib v3.4.2, https://matplotlib.org/</dc:title>
     </cc:Agent>
    </dc:creator>
   </cc:Work>
  </rdf:RDF>
 </metadata>
 <defs>
  <style type="text/css">*{stroke-linecap:butt;stroke-linejoin:round;}</style>
 </defs>
 <g id="figure_1">
  <g id="patch_1">
   <path d="M 0 345.6 
L 460.8 345.6 
L 460.8 0 
L 0 0 
z
" style="fill:none;"/>
  </g>
  <g id="axes_1">
   <g id="matplotlib.axis_1"/>
   <g id="matplotlib.axis_2"/>
   <g id="PolyCollection_1">
    <defs>
     <path d="M 287.629623 -40.120481 
L 287.629623 -38.016 
L 295.548027 -38.016 
L 303.46643 -38.016 
L 311.384834 -38.016 
L 319.303237 -38.016 
L 327.221641 -38.016 
L 343.058448 -38.016 
L 350.976851 -38.016 
L 358.895255 -38.016 
L 366.813659 -38.016 
L 374.732062 -38.016 
L 382.650466 -38.016 
L 390.568869 -38.016 
L 398.487273 -38.016 
L 398.487273 -41.516143 
L 398.487273 -41.516143 
L 390.568869 -41.364974 
L 382.650466 -41.190023 
L 374.732062 -41.040925 
L 366.813659 -40.897771 
L 358.895255 -40.750944 
L 350.976851 -40.646268 
L 343.058448 -40.578131 
L 327.221641 -40.518478 
L 319.303237 -40.488752 
L 311.384834 -40.431103 
L 303.46643 -40.34807 
L 295.548027 -40.234242 
L 287.629623 -40.120481 
z
" id="m4326a03ed1" style="stroke:#7ea297;stroke-opacity:0.5;"/>
    </defs>
    <g clip-path="url(#pfd86317b22)">
     <use style="fill:#7ea297;fill-opacity:0.5;stroke:#7ea297;stroke-opacity:0.5;" x="0" xlink:href="#m4326a03ed1" y="345.6"/>
    </g>
   </g>
   <g id="PolyCollection_2">
    <defs>
     <path d="M 73.832727 -38.054544 
L 73.832727 -38.016 
L 81.751131 -38.016 
L 89.669534 -38.016 
L 97.587938 -38.016 
L 105.506341 -38.016 
L 113.424745 -38.016 
L 121.343149 -38.016 
L 137.179956 -38.016 
L 145.098359 -38.016 
L 153.016763 -38.016 
L 160.935166 -38.016 
L 168.85357 -38.016 
L 176.771973 -38.016 
L 184.690377 -38.016 
L 192.60878 -38.016 
L 200.527184 -38.016 
L 208.445588 -38.016 
L 216.363991 -38.016 
L 224.282395 -38.016 
L 232.200798 -38.016 
L 240.119202 -38.016 
L 248.037605 -38.016 
L 271.792816 -38.016 
L 279.71122 -38.016 
L 287.629623 -38.016 
L 287.629623 -40.120481 
L 287.629623 -40.120481 
L 279.71122 -39.997168 
L 271.792816 -39.87205 
L 248.037605 -39.741122 
L 240.119202 -39.605183 
L 232.200798 -39.451341 
L 224.282395 -39.328228 
L 216.363991 -39.204781 
L 208.445588 -39.077459 
L 200.527184 -38.955014 
L 192.60878 -38.840652 
L 184.690377 -38.75508 
L 176.771973 -38.714599 
L 168.85357 -38.677859 
L 160.935166 -38.649936 
L 153.016763 -38.640785 
L 145.098359 -38.629028 
L 137.179956 -38.59683 
L 121.343149 -38.532768 
L 113.424745 -38.45214 
L 105.506341 -38.366168 
L 97.587938 -38.280597 
L 89.669534 -38.196695 
L 81.751131 -38.115399 
L 73.832727 -38.054544 
z
" id="maa9d5d1a6c" style="stroke:#7ea297;stroke-opacity:0.3;"/>
    </defs>
    <g clip-path="url(#pfd86317b22)">
     <use style="fill:#7ea297;fill-opacity:0.3;stroke:#7ea297;stroke-opacity:0.3;" x="0" xlink:href="#maa9d5d1a6c" y="345.6"/>
    </g>
   </g>
   <g id="line2d_1">
    <path clip-path="url(#pfd86317b22)" d="M 73.832727 307.545456 
L 81.751131 307.484601 
L 89.669534 307.403305 
L 97.587938 307.319403 
L 105.506341 307.233832 
L 113.424745 307.14786 
L 121.343149 307.067232 
L 137.179956 307.00317 
L 145.098359 306.970972 
L 153.016763 306.959215 
L 160.935166 306.950064 
L 168.85357 306.922141 
L 176.771973 306.885401 
L 184.690377 306.84492 
L 192.60878 306.759348 
L 200.527184 306.644986 
L 208.445588 306.522541 
L 216.363991 306.395219 
L 224.282395 306.271772 
L 232.200798 306.148659 
L 240.119202 305.994817 
L 248.037605 305.858878 
L 271.792816 305.72795 
L 279.71122 305.602832 
L 287.629623 305.479519 
L 295.548027 305.365758 
L 303.46643 305.25193 
L 311.384834 305.168897 
L 319.303237 305.111248 
L 327.221641 305.081522 
L 343.058448 305.021869 
L 350.976851 304.953732 
L 358.895255 304.849056 
L 366.813659 304.702229 
L 374.732062 304.559075 
L 382.650466 304.409977 
L 390.568869 304.235026 
L 398.487273 304.083857 
" style="fill:none;stroke:#60897e;stroke-linecap:square;stroke-width:2;"/>
   </g>
   <g id="line2d_2">
    <path clip-path="url(#pfd86317b22)" d="M 287.629623 305.479519 
L 295.548027 305.365758 
L 303.46643 305.25193 
L 311.384834 305.168897 
L 319.303237 305.111248 
L 327.221641 305.081522 
L 343.058448 305.021869 
L 350.976851 304.953732 
L 358.895255 304.849056 
L 366.813659 304.702229 
L 374.732062 304.559075 
L 382.650466 304.409977 
L 390.568869 304.235026 
L 398.487273 304.083857 
" style="fill:none;stroke:#427165;stroke-linecap:square;stroke-width:2;"/>
   </g>
  </g>
 </g>
 <defs>
  <clipPath id="pfd86317b22">
   <rect height="266.112" width="357.12" x="57.6" y="41.472"/>
  </clipPath>
 </defs>
</svg>
