<?xml version="1.0" encoding="utf-8" standalone="no"?>
<!DOCTYPE svg PUBLIC "-//W3C//DTD SVG 1.1//EN"
  "http://www.w3.org/Graphics/SVG/1.1/DTD/svg11.dtd">
<svg height="345.6pt" version="1.1" viewBox="0 0 460.8 345.6" width="460.8pt" xmlns="http://www.w3.org/2000/svg" xmlns:xlink="http://www.w3.org/1999/xlink">
 <metadata>
  <rdf:RDF xmlns:cc="http://creativecommons.org/ns#" xmlns:dc="http://purl.org/dc/elements/1.1/" xmlns:rdf="http://www.w3.org/1999/02/22-rdf-syntax-ns#">
   <cc:Work>
    <dc:type rdf:resource="http://purl.org/dc/dcmitype/StillImage"/>
    <dc:date>2021-05-20T13:25:48.163470</dc:date>
    <dc:format>image/svg+xml</dc:format>
    <dc:creator>
     <cc:Agent>
      <dc:title>Matplotlib v3.4.2, https://matplotlib.org/</dc:title>
     </cc:Agent>
    </dc:creator>
   </cc:Work>
  </rdf:RDF>
 </metadata>
 <defs>
  <style type="text/css">*{stroke-linecap:butt;stroke-linejoin:round;}</style>
 </defs>
 <g id="figure_1">
  <g id="patch_1">
   <path d="M 0 345.6 
L 460.8 345.6 
L 460.8 0 
L 0 0 
z
" style="fill:none;"/>
  </g>
  <g id="axes_1">
   <g id="matplotlib.axis_1"/>
   <g id="matplotlib.axis_2"/>
   <g id="PolyCollection_1">
    <defs>
     <path d="M 284.858182 -38.887131 
L 284.858182 -38.016 
L 292.974545 -38.016 
L 301.090909 -38.016 
L 309.207273 -38.016 
L 317.323636 -38.016 
L 325.44 -38.016 
L 341.672727 -38.016 
L 349.789091 -38.016 
L 357.905455 -38.016 
L 366.021818 -38.016 
L 374.138182 -38.016 
L 382.254545 -38.016 
L 390.370909 -38.016 
L 398.487273 -38.016 
L 398.487273 -39.527054 
L 398.487273 -39.527054 
L 390.370909 -39.424259 
L 382.254545 -39.339698 
L 374.138182 -39.269097 
L 366.021818 -39.197582 
L 357.905455 -39.136775 
L 349.789091 -39.121883 
L 341.672727 -39.111578 
L 325.44 -39.09391 
L 317.323636 -39.08059 
L 309.207273 -39.051465 
L 301.090909 -39.014629 
L 292.974545 -38.959486 
L 284.858182 -38.887131 
z
" id="mfc76b7ee5d" style="stroke:#7ea297;stroke-opacity:0.5;"/>
    </defs>
    <g clip-path="url(#p63498bc0e8)">
     <use style="fill:#7ea297;fill-opacity:0.5;stroke:#7ea297;stroke-opacity:0.5;" x="0" xlink:href="#mfc76b7ee5d" y="345.6"/>
    </g>
   </g>
   <g id="PolyCollection_2">
    <defs>
     <path d="M 73.832727 -38.064182 
L 73.832727 -38.016 
L 81.949091 -38.016 
L 90.065455 -38.016 
L 98.181818 -38.016 
L 106.298182 -38.016 
L 114.414545 -38.016 
L 130.647273 -38.016 
L 138.763636 -38.016 
L 146.88 -38.016 
L 154.996364 -38.016 
L 163.112727 -38.016 
L 171.229091 -38.016 
L 179.345455 -38.016 
L 187.461818 -38.016 
L 195.578182 -38.016 
L 203.694545 -38.016 
L 211.810909 -38.016 
L 219.927273 -38.016 
L 228.043636 -38.016 
L 236.16 -38.016 
L 244.276364 -38.016 
L 268.625455 -38.016 
L 276.741818 -38.016 
L 284.858182 -38.016 
L 284.858182 -38.887131 
L 284.858182 -38.887131 
L 276.741818 -38.802497 
L 268.625455 -38.73725 
L 244.276364 -38.663177 
L 236.16 -38.574432 
L 228.043636 -38.48439 
L 219.927273 -38.395682 
L 211.810909 -38.321372 
L 203.694545 -38.259687 
L 195.578182 -38.201036 
L 187.461818 -38.151648 
L 179.345455 -38.132737 
L 171.229091 -38.123802 
L 163.112727 -38.121134 
L 154.996364 -38.121134 
L 146.88 -38.121134 
L 138.763636 -38.121134 
L 130.647273 -38.121061 
L 114.414545 -38.116475 
L 106.298182 -38.10849 
L 98.181818 -38.100506 
L 90.065455 -38.09232 
L 81.949091 -38.079201 
L 73.832727 -38.064182 
z
" id="m7542c885cc" style="stroke:#7ea297;stroke-opacity:0.3;"/>
    </defs>
    <g clip-path="url(#p63498bc0e8)">
     <use style="fill:#7ea297;fill-opacity:0.3;stroke:#7ea297;stroke-opacity:0.3;" x="0" xlink:href="#m7542c885cc" y="345.6"/>
    </g>
   </g>
   <g id="line2d_1">
    <path clip-path="url(#p63498bc0e8)" d="M 73.832727 307.535818 
L 81.949091 307.520799 
L 90.065455 307.50768 
L 98.181818 307.499494 
L 106.298182 307.49151 
L 114.414545 307.483525 
L 130.647273 307.478939 
L 138.763636 307.478866 
L 146.88 307.478866 
L 154.996364 307.478866 
L 163.112727 307.478866 
L 171.229091 307.476198 
L 179.345455 307.467263 
L 187.461818 307.448352 
L 195.578182 307.398964 
L 203.694545 307.340313 
L 211.810909 307.278628 
L 219.927273 307.204318 
L 228.043636 307.11561 
L 236.16 307.025568 
L 244.276364 306.936823 
L 268.625455 306.86275 
L 276.741818 306.797503 
L 284.858182 306.712869 
L 292.974545 306.640514 
L 301.090909 306.585371 
L 309.207273 306.548535 
L 317.323636 306.51941 
L 325.44 306.50609 
L 341.672727 306.488422 
L 349.789091 306.478117 
L 357.905455 306.463225 
L 366.021818 306.402418 
L 374.138182 306.330903 
L 382.254545 306.260302 
L 390.370909 306.175741 
L 398.487273 306.072946 
" style="fill:none;stroke:#60897e;stroke-linecap:square;stroke-width:2;"/>
   </g>
   <g id="line2d_2">
    <path clip-path="url(#p63498bc0e8)" d="M 284.858182 306.712869 
L 292.974545 306.640514 
L 301.090909 306.585371 
L 309.207273 306.548535 
L 317.323636 306.51941 
L 325.44 306.50609 
L 341.672727 306.488422 
L 349.789091 306.478117 
L 357.905455 306.463225 
L 366.021818 306.402418 
L 374.138182 306.330903 
L 382.254545 306.260302 
L 390.370909 306.175741 
L 398.487273 306.072946 
" style="fill:none;stroke:#427165;stroke-linecap:square;stroke-width:2;"/>
   </g>
  </g>
 </g>
 <defs>
  <clipPath id="p63498bc0e8">
   <rect height="266.112" width="357.12" x="57.6" y="41.472"/>
  </clipPath>
 </defs>
</svg>
