<?xml version="1.0" encoding="utf-8" standalone="no"?>
<!DOCTYPE svg PUBLIC "-//W3C//DTD SVG 1.1//EN"
  "http://www.w3.org/Graphics/SVG/1.1/DTD/svg11.dtd">
<!-- Created with matplotlib (https://matplotlib.org/) -->
<svg height="288pt" version="1.1" viewBox="0 0 432 288" width="432pt" xmlns="http://www.w3.org/2000/svg" xmlns:xlink="http://www.w3.org/1999/xlink">
 <metadata>
  <rdf:RDF xmlns:cc="http://creativecommons.org/ns#" xmlns:dc="http://purl.org/dc/elements/1.1/" xmlns:rdf="http://www.w3.org/1999/02/22-rdf-syntax-ns#">
   <cc:Work>
    <dc:type rdf:resource="http://purl.org/dc/dcmitype/StillImage"/>
    <dc:date>2021-05-14T21:42:57.941520</dc:date>
    <dc:format>image/svg+xml</dc:format>
    <dc:creator>
     <cc:Agent>
      <dc:title>Matplotlib v3.3.2, https://matplotlib.org/</dc:title>
     </cc:Agent>
    </dc:creator>
   </cc:Work>
  </rdf:RDF>
 </metadata>
 <defs>
  <style type="text/css">*{stroke-linecap:butt;stroke-linejoin:round;}</style>
 </defs>
 <g id="figure_1">
  <g id="patch_1">
   <path d="M 0 288 
L 432 288 
L 432 0 
L 0 0 
z
" style="fill:none;"/>
  </g>
  <g id="axes_1">
   <g id="matplotlib.axis_1"/>
   <g id="matplotlib.axis_2"/>
   <g id="PolyCollection_1">
    <defs>
     <path d="M 234.444156 -36.382721 
L 234.444156 -36 
L 243.14026 -36 
L 251.836364 -36 
L 277.924675 -36 
L 286.620779 -36 
L 295.316883 -36 
L 304.012987 -36 
L 312.709091 -36 
L 321.405195 -36 
L 330.101299 -36 
L 338.797403 -36 
L 356.18961 -36 
L 364.885714 -36 
L 373.581818 -36 
L 373.581818 -36.915784 
L 373.581818 -36.915784 
L 364.885714 -36.903617 
L 356.18961 -36.895196 
L 338.797403 -36.880759 
L 330.101299 -36.869876 
L 321.405195 -36.846078 
L 312.709091 -36.81598 
L 304.012987 -36.770922 
L 295.316883 -36.711801 
L 286.620779 -36.642647 
L 277.924675 -36.589333 
L 251.836364 -36.528808 
L 243.14026 -36.456295 
L 234.444156 -36.382721 
z
" id="m0de3ea72c8" style="stroke:#7ea297;stroke-opacity:0.5;"/>
    </defs>
    <g clip-path="url(#p9ae07ecc5e)">
     <use style="fill:#7ea297;fill-opacity:0.5;stroke:#7ea297;stroke-opacity:0.5;" x="0" xlink:href="#m0de3ea72c8" y="288"/>
    </g>
   </g>
   <g id="PolyCollection_2">
    <defs>
     <path d="M 69.218182 -36.039369 
L 69.218182 -36 
L 77.914286 -36 
L 86.61039 -36 
L 95.306494 -36 
L 104.002597 -36 
L 112.698701 -36 
L 130.090909 -36 
L 138.787013 -36 
L 147.483117 -36 
L 156.179221 -36 
L 164.875325 -36 
L 173.571429 -36 
L 182.267532 -36 
L 190.963636 -36 
L 199.65974 -36 
L 208.355844 -36 
L 217.051948 -36 
L 225.748052 -36 
L 234.444156 -36 
L 234.444156 -36.382721 
L 234.444156 -36.382721 
L 225.748052 -36.310238 
L 217.051948 -36.249519 
L 208.355844 -36.199117 
L 199.65974 -36.151193 
L 190.963636 -36.110838 
L 182.267532 -36.095385 
L 173.571429 -36.088085 
L 164.875325 -36.085905 
L 156.179221 -36.085905 
L 147.483117 -36.085905 
L 138.787013 -36.085905 
L 130.090909 -36.085845 
L 112.698701 -36.082098 
L 104.002597 -36.075574 
L 95.306494 -36.06905 
L 86.61039 -36.062361 
L 77.914286 -36.051642 
L 69.218182 -36.039369 
z
" id="mc73f32d3a6" style="stroke:#7ea297;stroke-opacity:0.3;"/>
    </defs>
    <g clip-path="url(#p9ae07ecc5e)">
     <use style="fill:#7ea297;fill-opacity:0.3;stroke:#7ea297;stroke-opacity:0.3;" x="0" xlink:href="#mc73f32d3a6" y="288"/>
    </g>
   </g>
   <g id="line2d_1">
    <path clip-path="url(#p9ae07ecc5e)" d="M 69.218182 251.960631 
L 77.914286 251.948358 
L 86.61039 251.937639 
L 95.306494 251.93095 
L 104.002597 251.924426 
L 112.698701 251.917902 
L 130.090909 251.914155 
L 138.787013 251.914095 
L 147.483117 251.914095 
L 156.179221 251.914095 
L 164.875325 251.914095 
L 173.571429 251.911915 
L 182.267532 251.904615 
L 190.963636 251.889162 
L 199.65974 251.848807 
L 208.355844 251.800883 
L 217.051948 251.750481 
L 225.748052 251.689762 
L 234.444156 251.617279 
L 243.14026 251.543705 
L 251.836364 251.471192 
L 277.924675 251.410667 
L 286.620779 251.357353 
L 295.316883 251.288199 
L 304.012987 251.229078 
L 312.709091 251.18402 
L 321.405195 251.153922 
L 330.101299 251.130124 
L 338.797403 251.119241 
L 356.18961 251.104804 
L 364.885714 251.096383 
L 373.581818 251.084216 
" style="fill:none;stroke:#60897e;stroke-linecap:square;stroke-width:2;"/>
   </g>
   <g id="line2d_2">
    <path clip-path="url(#p9ae07ecc5e)" d="M 234.444156 251.617279 
L 243.14026 251.543705 
L 251.836364 251.471192 
L 277.924675 251.410667 
L 286.620779 251.357353 
L 295.316883 251.288199 
L 304.012987 251.229078 
L 312.709091 251.18402 
L 321.405195 251.153922 
L 330.101299 251.130124 
L 338.797403 251.119241 
L 356.18961 251.104804 
L 364.885714 251.096383 
L 373.581818 251.084216 
" style="fill:none;stroke:#427165;stroke-linecap:square;stroke-width:2;"/>
   </g>
  </g>
 </g>
 <defs>
  <clipPath id="p9ae07ecc5e">
   <rect height="217.44" width="334.8" x="54" y="34.56"/>
  </clipPath>
 </defs>
</svg>
