<?xml version="1.0" encoding="utf-8" standalone="no"?>
<!DOCTYPE svg PUBLIC "-//W3C//DTD SVG 1.1//EN"
  "http://www.w3.org/Graphics/SVG/1.1/DTD/svg11.dtd">
<svg height="345.6pt" version="1.1" viewBox="0 0 460.8 345.6" width="460.8pt" xmlns="http://www.w3.org/2000/svg" xmlns:xlink="http://www.w3.org/1999/xlink">
 <metadata>
  <rdf:RDF xmlns:cc="http://creativecommons.org/ns#" xmlns:dc="http://purl.org/dc/elements/1.1/" xmlns:rdf="http://www.w3.org/1999/02/22-rdf-syntax-ns#">
   <cc:Work>
    <dc:type rdf:resource="http://purl.org/dc/dcmitype/StillImage"/>
    <dc:date>2021-05-17T10:41:13.406750</dc:date>
    <dc:format>image/svg+xml</dc:format>
    <dc:creator>
     <cc:Agent>
      <dc:title>Matplotlib v3.4.2, https://matplotlib.org/</dc:title>
     </cc:Agent>
    </dc:creator>
   </cc:Work>
  </rdf:RDF>
 </metadata>
 <defs>
  <style type="text/css">*{stroke-linecap:butt;stroke-linejoin:round;}</style>
 </defs>
 <g id="figure_1">
  <g id="patch_1">
   <path d="M 0 345.6 
L 460.8 345.6 
L 460.8 0 
L 0 0 
z
" style="fill:none;"/>
  </g>
  <g id="axes_1">
   <g id="matplotlib.axis_1"/>
   <g id="matplotlib.axis_2"/>
   <g id="PolyCollection_1">
    <defs>
     <path d="M 258.096118 -38.663177 
L 258.096118 -38.016 
L 284.419459 -38.016 
L 293.193907 -38.016 
L 301.968354 -38.016 
L 310.742801 -38.016 
L 319.517248 -38.016 
L 328.291695 -38.016 
L 337.066143 -38.016 
L 345.84059 -38.016 
L 363.389484 -38.016 
L 372.163931 -38.016 
L 380.938378 -38.016 
L 389.712826 -38.016 
L 398.487273 -38.016 
L 398.487273 -39.269097 
L 398.487273 -39.269097 
L 389.712826 -39.197582 
L 380.938378 -39.136775 
L 372.163931 -39.121883 
L 363.389484 -39.111578 
L 345.84059 -39.09391 
L 337.066143 -39.08059 
L 328.291695 -39.051465 
L 319.517248 -39.014629 
L 310.742801 -38.959486 
L 301.968354 -38.887131 
L 293.193907 -38.802497 
L 284.419459 -38.73725 
L 258.096118 -38.663177 
z
" id="mcbe0003a62" style="stroke:#7ea297;stroke-opacity:0.5;"/>
    </defs>
    <g clip-path="url(#p99f3b20563)">
     <use style="fill:#7ea297;fill-opacity:0.5;stroke:#7ea297;stroke-opacity:0.5;" x="0" xlink:href="#mcbe0003a62" y="345.6"/>
    </g>
   </g>
   <g id="PolyCollection_2">
    <defs>
     <path d="M 73.832727 -38.064182 
L 73.832727 -38.016 
L 82.607174 -38.016 
L 91.381622 -38.016 
L 100.156069 -38.016 
L 108.930516 -38.016 
L 117.704963 -38.016 
L 135.253857 -38.016 
L 144.028305 -38.016 
L 152.802752 -38.016 
L 161.577199 -38.016 
L 170.351646 -38.016 
L 179.126093 -38.016 
L 187.900541 -38.016 
L 196.674988 -38.016 
L 205.449435 -38.016 
L 214.223882 -38.016 
L 222.998329 -38.016 
L 231.772776 -38.016 
L 240.547224 -38.016 
L 249.321671 -38.016 
L 258.096118 -38.016 
L 258.096118 -38.663177 
L 258.096118 -38.663177 
L 249.321671 -38.574432 
L 240.547224 -38.48439 
L 231.772776 -38.395682 
L 222.998329 -38.321372 
L 214.223882 -38.259687 
L 205.449435 -38.201036 
L 196.674988 -38.151648 
L 187.900541 -38.132737 
L 179.126093 -38.123802 
L 170.351646 -38.121134 
L 161.577199 -38.121134 
L 152.802752 -38.121134 
L 144.028305 -38.121134 
L 135.253857 -38.121061 
L 117.704963 -38.116475 
L 108.930516 -38.10849 
L 100.156069 -38.100506 
L 91.381622 -38.09232 
L 82.607174 -38.079201 
L 73.832727 -38.064182 
z
" id="maeb6953dd5" style="stroke:#7ea297;stroke-opacity:0.3;"/>
    </defs>
    <g clip-path="url(#p99f3b20563)">
     <use style="fill:#7ea297;fill-opacity:0.3;stroke:#7ea297;stroke-opacity:0.3;" x="0" xlink:href="#maeb6953dd5" y="345.6"/>
    </g>
   </g>
   <g id="line2d_1">
    <path clip-path="url(#p99f3b20563)" d="M 73.832727 307.535818 
L 82.607174 307.520799 
L 91.381622 307.50768 
L 100.156069 307.499494 
L 108.930516 307.49151 
L 117.704963 307.483525 
L 135.253857 307.478939 
L 144.028305 307.478866 
L 152.802752 307.478866 
L 161.577199 307.478866 
L 170.351646 307.478866 
L 179.126093 307.476198 
L 187.900541 307.467263 
L 196.674988 307.448352 
L 205.449435 307.398964 
L 214.223882 307.340313 
L 222.998329 307.278628 
L 231.772776 307.204318 
L 240.547224 307.11561 
L 249.321671 307.025568 
L 258.096118 306.936823 
L 284.419459 306.86275 
L 293.193907 306.797503 
L 301.968354 306.712869 
L 310.742801 306.640514 
L 319.517248 306.585371 
L 328.291695 306.548535 
L 337.066143 306.51941 
L 345.84059 306.50609 
L 363.389484 306.488422 
L 372.163931 306.478117 
L 380.938378 306.463225 
L 389.712826 306.402418 
L 398.487273 306.330903 
" style="fill:none;stroke:#60897e;stroke-linecap:square;stroke-width:2;"/>
   </g>
   <g id="line2d_2">
    <path clip-path="url(#p99f3b20563)" d="M 258.096118 306.936823 
L 284.419459 306.86275 
L 293.193907 306.797503 
L 301.968354 306.712869 
L 310.742801 306.640514 
L 319.517248 306.585371 
L 328.291695 306.548535 
L 337.066143 306.51941 
L 345.84059 306.50609 
L 363.389484 306.488422 
L 372.163931 306.478117 
L 380.938378 306.463225 
L 389.712826 306.402418 
L 398.487273 306.330903 
" style="fill:none;stroke:#427165;stroke-linecap:square;stroke-width:2;"/>
   </g>
  </g>
 </g>
 <defs>
  <clipPath id="p99f3b20563">
   <rect height="266.112" width="357.12" x="57.6" y="41.472"/>
  </clipPath>
 </defs>
</svg>
