<?xml version="1.0" encoding="utf-8" standalone="no"?>
<!DOCTYPE svg PUBLIC "-//W3C//DTD SVG 1.1//EN"
  "http://www.w3.org/Graphics/SVG/1.1/DTD/svg11.dtd">
<svg height="345.6pt" version="1.1" viewBox="0 0 460.8 345.6" width="460.8pt" xmlns="http://www.w3.org/2000/svg" xmlns:xlink="http://www.w3.org/1999/xlink">
 <metadata>
  <rdf:RDF xmlns:cc="http://creativecommons.org/ns#" xmlns:dc="http://purl.org/dc/elements/1.1/" xmlns:rdf="http://www.w3.org/1999/02/22-rdf-syntax-ns#">
   <cc:Work>
    <dc:type rdf:resource="http://purl.org/dc/dcmitype/StillImage"/>
    <dc:date>2021-05-20T13:25:47.172349</dc:date>
    <dc:format>image/svg+xml</dc:format>
    <dc:creator>
     <cc:Agent>
      <dc:title>Matplotlib v3.4.2, https://matplotlib.org/</dc:title>
     </cc:Agent>
    </dc:creator>
   </cc:Work>
  </rdf:RDF>
 </metadata>
 <defs>
  <style type="text/css">*{stroke-linecap:butt;stroke-linejoin:round;}</style>
 </defs>
 <g id="figure_1">
  <g id="patch_1">
   <path d="M 0 345.6 
L 460.8 345.6 
L 460.8 0 
L 0 0 
z
" style="fill:none;"/>
  </g>
  <g id="axes_1">
   <g id="matplotlib.axis_1"/>
   <g id="matplotlib.axis_2"/>
   <g id="PolyCollection_1">
    <defs>
     <path d="M 330.649009 -49.608593 
L 330.649009 -38.016 
L 335.4946 -38.016 
L 340.34019 -38.016 
L 345.18578 -38.016 
L 350.03137 -38.016 
L 354.876961 -38.016 
L 364.568141 -38.016 
L 369.413731 -38.016 
L 374.259322 -38.016 
L 379.104912 -38.016 
L 383.950502 -38.016 
L 388.796092 -38.016 
L 393.641682 -38.016 
L 398.487273 -38.016 
L 398.487273 -54.407577 
L 398.487273 -54.407577 
L 393.641682 -54.201435 
L 388.796092 -53.928906 
L 383.950502 -53.660659 
L 379.104912 -53.419948 
L 374.259322 -53.18386 
L 369.413731 -52.98081 
L 364.568141 -52.719738 
L 354.876961 -52.427017 
L 350.03137 -52.198132 
L 345.18578 -51.740901 
L 340.34019 -51.143038 
L 335.4946 -50.388378 
L 330.649009 -49.608593 
z
" id="m9b10957b3c" style="stroke:#7ea297;stroke-opacity:0.5;"/>
    </defs>
    <g clip-path="url(#pbb7a5510fe)">
     <use style="fill:#7ea297;fill-opacity:0.5;stroke:#7ea297;stroke-opacity:0.5;" x="0" xlink:href="#m9b10957b3c" y="345.6"/>
    </g>
   </g>
   <g id="PolyCollection_2">
    <defs>
     <path d="M 73.832727 -38.342099 
L 73.832727 -38.016 
L 78.678318 -38.016 
L 83.523908 -38.016 
L 88.369498 -38.016 
L 93.215088 -38.016 
L 98.060678 -38.016 
L 102.906269 -38.016 
L 107.751859 -38.016 
L 112.597449 -38.016 
L 117.443039 -38.016 
L 122.28863 -38.016 
L 131.97981 -38.016 
L 136.8254 -38.016 
L 141.670991 -38.016 
L 146.516581 -38.016 
L 151.362171 -38.016 
L 156.207761 -38.016 
L 161.053351 -38.016 
L 165.898942 -38.016 
L 170.744532 -38.016 
L 175.590122 -38.016 
L 180.435712 -38.016 
L 185.281303 -38.016 
L 190.126893 -38.016 
L 194.972483 -38.016 
L 199.818073 -38.016 
L 204.663664 -38.016 
L 209.509254 -38.016 
L 214.354844 -38.016 
L 219.200434 -38.016 
L 224.046024 -38.016 
L 228.891615 -38.016 
L 238.582795 -38.016 
L 243.428385 -38.016 
L 248.273976 -38.016 
L 253.119566 -38.016 
L 257.965156 -38.016 
L 262.810746 -38.016 
L 267.656336 -38.016 
L 272.501927 -38.016 
L 277.347517 -38.016 
L 282.193107 -38.016 
L 287.038697 -38.016 
L 291.884288 -38.016 
L 296.729878 -38.016 
L 301.575468 -38.016 
L 306.421058 -38.016 
L 320.957829 -38.016 
L 325.803419 -38.016 
L 330.649009 -38.016 
L 330.649009 -49.608593 
L 330.649009 -49.608593 
L 325.803419 -48.824071 
L 320.957829 -48.058692 
L 306.421058 -47.291753 
L 301.575468 -46.712806 
L 296.729878 -46.263657 
L 291.884288 -45.951085 
L 287.038697 -45.675039 
L 282.193107 -45.431265 
L 277.347517 -45.204621 
L 272.501927 -45.002847 
L 267.656336 -44.832211 
L 262.810746 -44.675897 
L 257.965156 -44.53518 
L 253.119566 -44.37878 
L 248.273976 -44.194589 
L 243.428385 -43.94313 
L 238.582795 -43.580023 
L 228.891615 -43.092618 
L 224.046024 -42.446318 
L 219.200434 -41.722768 
L 214.354844 -41.029846 
L 209.509254 -40.409466 
L 204.663664 -39.868604 
L 199.818073 -39.431054 
L 194.972483 -39.132037 
L 190.126893 -38.981196 
L 185.281303 -38.900458 
L 180.435712 -38.842493 
L 175.590122 -38.790085 
L 170.744532 -38.739748 
L 165.898942 -38.701889 
L 161.053351 -38.667149 
L 156.207761 -38.630963 
L 151.362171 -38.601867 
L 146.516581 -38.582441 
L 141.670991 -38.563015 
L 136.8254 -38.54359 
L 131.97981 -38.52422 
L 122.28863 -38.512054 
L 117.443039 -38.512083 
L 112.597449 -38.512168 
L 107.751859 -38.512253 
L 102.906269 -38.51231 
L 98.060678 -38.5021 
L 93.215088 -38.484376 
L 88.369498 -38.457946 
L 83.523908 -38.424 
L 78.678318 -38.38305 
L 73.832727 -38.342099 
z
" id="m6521200616" style="stroke:#7ea297;stroke-opacity:0.3;"/>
    </defs>
    <g clip-path="url(#pbb7a5510fe)">
     <use style="fill:#7ea297;fill-opacity:0.3;stroke:#7ea297;stroke-opacity:0.3;" x="0" xlink:href="#m6521200616" y="345.6"/>
    </g>
   </g>
   <g id="line2d_1">
    <path clip-path="url(#pbb7a5510fe)" d="M 73.832727 307.257901 
L 78.678318 307.21695 
L 83.523908 307.176 
L 88.369498 307.142054 
L 93.215088 307.115624 
L 98.060678 307.0979 
L 102.906269 307.08769 
L 107.751859 307.087747 
L 112.597449 307.087832 
L 117.443039 307.087917 
L 122.28863 307.087946 
L 131.97981 307.07578 
L 136.8254 307.05641 
L 141.670991 307.036985 
L 146.516581 307.017559 
L 151.362171 306.998133 
L 156.207761 306.969037 
L 161.053351 306.932851 
L 165.898942 306.898111 
L 170.744532 306.860252 
L 175.590122 306.809915 
L 180.435712 306.757507 
L 185.281303 306.699542 
L 190.126893 306.618804 
L 194.972483 306.467963 
L 199.818073 306.168946 
L 204.663664 305.731396 
L 209.509254 305.190534 
L 214.354844 304.570154 
L 219.200434 303.877232 
L 224.046024 303.153682 
L 228.891615 302.507382 
L 238.582795 302.019977 
L 243.428385 301.65687 
L 248.273976 301.405411 
L 253.119566 301.22122 
L 257.965156 301.06482 
L 262.810746 300.924103 
L 267.656336 300.767789 
L 272.501927 300.597153 
L 277.347517 300.395379 
L 282.193107 300.168735 
L 287.038697 299.924961 
L 291.884288 299.648915 
L 296.729878 299.336343 
L 301.575468 298.887194 
L 306.421058 298.308247 
L 320.957829 297.541308 
L 325.803419 296.775929 
L 330.649009 295.991407 
L 335.4946 295.211622 
L 340.34019 294.456962 
L 345.18578 293.859099 
L 350.03137 293.401868 
L 354.876961 293.172983 
L 364.568141 292.880262 
L 369.413731 292.61919 
L 374.259322 292.41614 
L 379.104912 292.180052 
L 383.950502 291.939341 
L 388.796092 291.671094 
L 393.641682 291.398565 
L 398.487273 291.192423 
" style="fill:none;stroke:#60897e;stroke-linecap:square;stroke-width:2;"/>
   </g>
   <g id="line2d_2">
    <path clip-path="url(#pbb7a5510fe)" d="M 330.649009 295.991407 
L 335.4946 295.211622 
L 340.34019 294.456962 
L 345.18578 293.859099 
L 350.03137 293.401868 
L 354.876961 293.172983 
L 364.568141 292.880262 
L 369.413731 292.61919 
L 374.259322 292.41614 
L 379.104912 292.180052 
L 383.950502 291.939341 
L 388.796092 291.671094 
L 393.641682 291.398565 
L 398.487273 291.192423 
" style="fill:none;stroke:#427165;stroke-linecap:square;stroke-width:2;"/>
   </g>
  </g>
 </g>
 <defs>
  <clipPath id="pbb7a5510fe">
   <rect height="266.112" width="357.12" x="57.6" y="41.472"/>
  </clipPath>
 </defs>
</svg>
