<?xml version="1.0" encoding="utf-8" standalone="no"?>
<!DOCTYPE svg PUBLIC "-//W3C//DTD SVG 1.1//EN"
  "http://www.w3.org/Graphics/SVG/1.1/DTD/svg11.dtd">
<svg height="345.6pt" version="1.1" viewBox="0 0 460.8 345.6" width="460.8pt" xmlns="http://www.w3.org/2000/svg" xmlns:xlink="http://www.w3.org/1999/xlink">
 <metadata>
  <rdf:RDF xmlns:cc="http://creativecommons.org/ns#" xmlns:dc="http://purl.org/dc/elements/1.1/" xmlns:rdf="http://www.w3.org/1999/02/22-rdf-syntax-ns#">
   <cc:Work>
    <dc:type rdf:resource="http://purl.org/dc/dcmitype/StillImage"/>
    <dc:date>2021-05-19T13:25:25.011137</dc:date>
    <dc:format>image/svg+xml</dc:format>
    <dc:creator>
     <cc:Agent>
      <dc:title>Matplotlib v3.4.2, https://matplotlib.org/</dc:title>
     </cc:Agent>
    </dc:creator>
   </cc:Work>
  </rdf:RDF>
 </metadata>
 <defs>
  <style type="text/css">*{stroke-linecap:butt;stroke-linejoin:round;}</style>
 </defs>
 <g id="figure_1">
  <g id="patch_1">
   <path d="M 0 345.6 
L 460.8 345.6 
L 460.8 0 
L 0 0 
z
" style="fill:none;"/>
  </g>
  <g id="axes_1">
   <g id="matplotlib.axis_1"/>
   <g id="matplotlib.axis_2"/>
   <g id="PolyCollection_1">
    <defs>
     <path d="M 329.621157 -48.824071 
L 329.621157 -38.016 
L 334.540165 -38.016 
L 339.459174 -38.016 
L 344.378182 -38.016 
L 349.29719 -38.016 
L 354.216198 -38.016 
L 359.135207 -38.016 
L 368.973223 -38.016 
L 373.892231 -38.016 
L 378.81124 -38.016 
L 383.730248 -38.016 
L 388.649256 -38.016 
L 393.568264 -38.016 
L 398.487273 -38.016 
L 398.487273 -54.201435 
L 398.487273 -54.201435 
L 393.568264 -53.928906 
L 388.649256 -53.660659 
L 383.730248 -53.419948 
L 378.81124 -53.18386 
L 373.892231 -52.98081 
L 368.973223 -52.719738 
L 359.135207 -52.427017 
L 354.216198 -52.198132 
L 349.29719 -51.740901 
L 344.378182 -51.143038 
L 339.459174 -50.388378 
L 334.540165 -49.608593 
L 329.621157 -48.824071 
z
" id="m579984f6e1" style="stroke:#7ea297;stroke-opacity:0.5;"/>
    </defs>
    <g clip-path="url(#p061ea178c9)">
     <use style="fill:#7ea297;fill-opacity:0.5;stroke:#7ea297;stroke-opacity:0.5;" x="0" xlink:href="#m579984f6e1" y="345.6"/>
    </g>
   </g>
   <g id="PolyCollection_2">
    <defs>
     <path d="M 73.832727 -38.342099 
L 73.832727 -38.016 
L 78.751736 -38.016 
L 83.670744 -38.016 
L 88.589752 -38.016 
L 93.50876 -38.016 
L 98.427769 -38.016 
L 103.346777 -38.016 
L 108.265785 -38.016 
L 113.184793 -38.016 
L 118.103802 -38.016 
L 123.02281 -38.016 
L 132.860826 -38.016 
L 137.779835 -38.016 
L 142.698843 -38.016 
L 147.617851 -38.016 
L 152.53686 -38.016 
L 157.455868 -38.016 
L 162.374876 -38.016 
L 167.293884 -38.016 
L 172.212893 -38.016 
L 177.131901 -38.016 
L 182.050909 -38.016 
L 186.969917 -38.016 
L 191.888926 -38.016 
L 196.807934 -38.016 
L 201.726942 -38.016 
L 206.64595 -38.016 
L 211.564959 -38.016 
L 216.483967 -38.016 
L 221.402975 -38.016 
L 226.321983 -38.016 
L 231.240992 -38.016 
L 241.079008 -38.016 
L 245.998017 -38.016 
L 250.917025 -38.016 
L 255.836033 -38.016 
L 260.755041 -38.016 
L 265.67405 -38.016 
L 270.593058 -38.016 
L 275.512066 -38.016 
L 280.431074 -38.016 
L 285.350083 -38.016 
L 290.269091 -38.016 
L 295.188099 -38.016 
L 300.107107 -38.016 
L 305.026116 -38.016 
L 309.945124 -38.016 
L 324.702149 -38.016 
L 329.621157 -38.016 
L 329.621157 -48.824071 
L 329.621157 -48.824071 
L 324.702149 -48.058692 
L 309.945124 -47.291753 
L 305.026116 -46.712806 
L 300.107107 -46.263657 
L 295.188099 -45.951085 
L 290.269091 -45.675039 
L 285.350083 -45.431265 
L 280.431074 -45.204621 
L 275.512066 -45.002847 
L 270.593058 -44.832211 
L 265.67405 -44.675897 
L 260.755041 -44.53518 
L 255.836033 -44.37878 
L 250.917025 -44.194589 
L 245.998017 -43.94313 
L 241.079008 -43.580023 
L 231.240992 -43.092618 
L 226.321983 -42.446318 
L 221.402975 -41.722768 
L 216.483967 -41.029846 
L 211.564959 -40.409466 
L 206.64595 -39.868604 
L 201.726942 -39.431054 
L 196.807934 -39.132037 
L 191.888926 -38.981196 
L 186.969917 -38.900458 
L 182.050909 -38.842493 
L 177.131901 -38.790085 
L 172.212893 -38.739748 
L 167.293884 -38.701889 
L 162.374876 -38.667149 
L 157.455868 -38.630963 
L 152.53686 -38.601867 
L 147.617851 -38.582441 
L 142.698843 -38.563015 
L 137.779835 -38.54359 
L 132.860826 -38.52422 
L 123.02281 -38.512054 
L 118.103802 -38.512083 
L 113.184793 -38.512168 
L 108.265785 -38.512253 
L 103.346777 -38.51231 
L 98.427769 -38.5021 
L 93.50876 -38.484376 
L 88.589752 -38.457946 
L 83.670744 -38.424 
L 78.751736 -38.38305 
L 73.832727 -38.342099 
z
" id="m56feaed427" style="stroke:#7ea297;stroke-opacity:0.3;"/>
    </defs>
    <g clip-path="url(#p061ea178c9)">
     <use style="fill:#7ea297;fill-opacity:0.3;stroke:#7ea297;stroke-opacity:0.3;" x="0" xlink:href="#m56feaed427" y="345.6"/>
    </g>
   </g>
   <g id="line2d_1">
    <path clip-path="url(#p061ea178c9)" d="M 73.832727 307.257901 
L 78.751736 307.21695 
L 83.670744 307.176 
L 88.589752 307.142054 
L 93.50876 307.115624 
L 98.427769 307.0979 
L 103.346777 307.08769 
L 108.265785 307.087747 
L 113.184793 307.087832 
L 118.103802 307.087917 
L 123.02281 307.087946 
L 132.860826 307.07578 
L 137.779835 307.05641 
L 142.698843 307.036985 
L 147.617851 307.017559 
L 152.53686 306.998133 
L 157.455868 306.969037 
L 162.374876 306.932851 
L 167.293884 306.898111 
L 172.212893 306.860252 
L 177.131901 306.809915 
L 182.050909 306.757507 
L 186.969917 306.699542 
L 191.888926 306.618804 
L 196.807934 306.467963 
L 201.726942 306.168946 
L 206.64595 305.731396 
L 211.564959 305.190534 
L 216.483967 304.570154 
L 221.402975 303.877232 
L 226.321983 303.153682 
L 231.240992 302.507382 
L 241.079008 302.019977 
L 245.998017 301.65687 
L 250.917025 301.405411 
L 255.836033 301.22122 
L 260.755041 301.06482 
L 265.67405 300.924103 
L 270.593058 300.767789 
L 275.512066 300.597153 
L 280.431074 300.395379 
L 285.350083 300.168735 
L 290.269091 299.924961 
L 295.188099 299.648915 
L 300.107107 299.336343 
L 305.026116 298.887194 
L 309.945124 298.308247 
L 324.702149 297.541308 
L 329.621157 296.775929 
L 334.540165 295.991407 
L 339.459174 295.211622 
L 344.378182 294.456962 
L 349.29719 293.859099 
L 354.216198 293.401868 
L 359.135207 293.172983 
L 368.973223 292.880262 
L 373.892231 292.61919 
L 378.81124 292.41614 
L 383.730248 292.180052 
L 388.649256 291.939341 
L 393.568264 291.671094 
L 398.487273 291.398565 
" style="fill:none;stroke:#60897e;stroke-linecap:square;stroke-width:2;"/>
   </g>
   <g id="line2d_2">
    <path clip-path="url(#p061ea178c9)" d="M 329.621157 296.775929 
L 334.540165 295.991407 
L 339.459174 295.211622 
L 344.378182 294.456962 
L 349.29719 293.859099 
L 354.216198 293.401868 
L 359.135207 293.172983 
L 368.973223 292.880262 
L 373.892231 292.61919 
L 378.81124 292.41614 
L 383.730248 292.180052 
L 388.649256 291.939341 
L 393.568264 291.671094 
L 398.487273 291.398565 
" style="fill:none;stroke:#427165;stroke-linecap:square;stroke-width:2;"/>
   </g>
  </g>
 </g>
 <defs>
  <clipPath id="p061ea178c9">
   <rect height="266.112" width="357.12" x="57.6" y="41.472"/>
  </clipPath>
 </defs>
</svg>
