<?xml version="1.0" encoding="utf-8" standalone="no"?>
<!DOCTYPE svg PUBLIC "-//W3C//DTD SVG 1.1//EN"
  "http://www.w3.org/Graphics/SVG/1.1/DTD/svg11.dtd">
<!-- Created with matplotlib (https://matplotlib.org/) -->
<svg height="288pt" version="1.1" viewBox="0 0 432 288" width="432pt" xmlns="http://www.w3.org/2000/svg" xmlns:xlink="http://www.w3.org/1999/xlink">
 <metadata>
  <rdf:RDF xmlns:cc="http://creativecommons.org/ns#" xmlns:dc="http://purl.org/dc/elements/1.1/" xmlns:rdf="http://www.w3.org/1999/02/22-rdf-syntax-ns#">
   <cc:Work>
    <dc:type rdf:resource="http://purl.org/dc/dcmitype/StillImage"/>
    <dc:date>2021-05-14T21:42:58.210246</dc:date>
    <dc:format>image/svg+xml</dc:format>
    <dc:creator>
     <cc:Agent>
      <dc:title>Matplotlib v3.3.2, https://matplotlib.org/</dc:title>
     </cc:Agent>
    </dc:creator>
   </cc:Work>
  </rdf:RDF>
 </metadata>
 <defs>
  <style type="text/css">*{stroke-linecap:butt;stroke-linejoin:round;}</style>
 </defs>
 <g id="figure_1">
  <g id="patch_1">
   <path d="M 0 288 
L 432 288 
L 432 0 
L 0 0 
z
" style="fill:none;"/>
  </g>
  <g id="axes_1">
   <g id="matplotlib.axis_1"/>
   <g id="matplotlib.axis_2"/>
   <g id="PolyCollection_1">
    <defs>
     <path d="M 234.444156 -36.531573 
L 234.444156 -36 
L 243.14026 -36 
L 251.836364 -36 
L 277.924675 -36 
L 286.620779 -36 
L 295.316883 -36 
L 304.012987 -36 
L 312.709091 -36 
L 321.405195 -36 
L 330.101299 -36 
L 338.797403 -36 
L 356.18961 -36 
L 364.885714 -36 
L 373.581818 -36 
L 373.581818 -37.493245 
L 373.581818 -37.493245 
L 364.885714 -37.319863 
L 356.18961 -37.174839 
L 338.797403 -37.052394 
L 330.101299 -36.958674 
L 321.405195 -36.86179 
L 312.709091 -36.762346 
L 304.012987 -36.697879 
L 295.316883 -36.672081 
L 286.620779 -36.645204 
L 277.924675 -36.633777 
L 251.836364 -36.620521 
L 243.14026 -36.583644 
L 234.444156 -36.531573 
z
" id="mb1864608df" style="stroke:#7ea297;stroke-opacity:0.5;"/>
    </defs>
    <g clip-path="url(#p7315c1e576)">
     <use style="fill:#7ea297;fill-opacity:0.5;stroke:#7ea297;stroke-opacity:0.5;" x="0" xlink:href="#mb1864608df" y="288"/>
    </g>
   </g>
   <g id="PolyCollection_2">
    <defs>
     <path d="M 69.218182 -36.008356 
L 69.218182 -36 
L 77.914286 -36 
L 86.61039 -36 
L 95.306494 -36 
L 104.002597 -36 
L 112.698701 -36 
L 130.090909 -36 
L 138.787013 -36 
L 147.483117 -36 
L 156.179221 -36 
L 164.875325 -36 
L 173.571429 -36 
L 182.267532 -36 
L 190.963636 -36 
L 199.65974 -36 
L 208.355844 -36 
L 217.051948 -36 
L 225.748052 -36 
L 234.444156 -36 
L 234.444156 -36.531573 
L 234.444156 -36.531573 
L 225.748052 -36.46045 
L 217.051948 -36.388834 
L 208.355844 -36.316596 
L 199.65974 -36.243188 
L 190.963636 -36.1717 
L 182.267532 -36.122828 
L 173.571429 -36.096591 
L 164.875325 -36.0899 
L 156.179221 -36.083702 
L 147.483117 -36.079204 
L 138.787013 -36.074798 
L 130.090909 -36.06668 
L 112.698701 -36.058635 
L 104.002597 -36.048579 
L 95.306494 -36.038523 
L 86.61039 -36.028467 
L 77.914286 -36.018411 
L 69.218182 -36.008356 
z
" id="mbf2db72e1c" style="stroke:#7ea297;stroke-opacity:0.3;"/>
    </defs>
    <g clip-path="url(#p7315c1e576)">
     <use style="fill:#7ea297;fill-opacity:0.3;stroke:#7ea297;stroke-opacity:0.3;" x="0" xlink:href="#mbf2db72e1c" y="288"/>
    </g>
   </g>
   <g id="line2d_1">
    <path clip-path="url(#p7315c1e576)" d="M 69.218182 251.991644 
L 77.914286 251.981589 
L 86.61039 251.971533 
L 95.306494 251.961477 
L 104.002597 251.951421 
L 112.698701 251.941365 
L 130.090909 251.93332 
L 138.787013 251.925202 
L 147.483117 251.920796 
L 156.179221 251.916298 
L 164.875325 251.9101 
L 173.571429 251.903409 
L 182.267532 251.877172 
L 190.963636 251.8283 
L 199.65974 251.756812 
L 208.355844 251.683404 
L 217.051948 251.611166 
L 225.748052 251.53955 
L 234.444156 251.468427 
L 243.14026 251.416356 
L 251.836364 251.379479 
L 277.924675 251.366223 
L 286.620779 251.354796 
L 295.316883 251.327919 
L 304.012987 251.302121 
L 312.709091 251.237654 
L 321.405195 251.13821 
L 330.101299 251.041326 
L 338.797403 250.947606 
L 356.18961 250.825161 
L 364.885714 250.680137 
L 373.581818 250.506755 
" style="fill:none;stroke:#60897e;stroke-linecap:square;stroke-width:2;"/>
   </g>
   <g id="line2d_2">
    <path clip-path="url(#p7315c1e576)" d="M 234.444156 251.468427 
L 243.14026 251.416356 
L 251.836364 251.379479 
L 277.924675 251.366223 
L 286.620779 251.354796 
L 295.316883 251.327919 
L 304.012987 251.302121 
L 312.709091 251.237654 
L 321.405195 251.13821 
L 330.101299 251.041326 
L 338.797403 250.947606 
L 356.18961 250.825161 
L 364.885714 250.680137 
L 373.581818 250.506755 
" style="fill:none;stroke:#427165;stroke-linecap:square;stroke-width:2;"/>
   </g>
  </g>
 </g>
 <defs>
  <clipPath id="p7315c1e576">
   <rect height="217.44" width="334.8" x="54" y="34.56"/>
  </clipPath>
 </defs>
</svg>
