<?xml version="1.0" encoding="utf-8" standalone="no"?>
<!DOCTYPE svg PUBLIC "-//W3C//DTD SVG 1.1//EN"
  "http://www.w3.org/Graphics/SVG/1.1/DTD/svg11.dtd">
<svg height="345.6pt" version="1.1" viewBox="0 0 460.8 345.6" width="460.8pt" xmlns="http://www.w3.org/2000/svg" xmlns:xlink="http://www.w3.org/1999/xlink">
 <metadata>
  <rdf:RDF xmlns:cc="http://creativecommons.org/ns#" xmlns:dc="http://purl.org/dc/elements/1.1/" xmlns:rdf="http://www.w3.org/1999/02/22-rdf-syntax-ns#">
   <cc:Work>
    <dc:type rdf:resource="http://purl.org/dc/dcmitype/StillImage"/>
    <dc:date>2021-05-18T13:26:35.586079</dc:date>
    <dc:format>image/svg+xml</dc:format>
    <dc:creator>
     <cc:Agent>
      <dc:title>Matplotlib v3.4.2, https://matplotlib.org/</dc:title>
     </cc:Agent>
    </dc:creator>
   </cc:Work>
  </rdf:RDF>
 </metadata>
 <defs>
  <style type="text/css">*{stroke-linecap:butt;stroke-linejoin:round;}</style>
 </defs>
 <g id="figure_1">
  <g id="patch_1">
   <path d="M 0 345.6 
L 460.8 345.6 
L 460.8 0 
L 0 0 
z
" style="fill:none;"/>
  </g>
  <g id="axes_1">
   <g id="matplotlib.axis_1"/>
   <g id="matplotlib.axis_2"/>
   <g id="PolyCollection_1">
    <defs>
     <path d="M 281.944615 -38.805627 
L 281.944615 -38.016 
L 290.269091 -38.016 
L 298.593566 -38.016 
L 306.918042 -38.016 
L 315.242517 -38.016 
L 323.566993 -38.016 
L 331.891469 -38.016 
L 348.54042 -38.016 
L 356.864895 -38.016 
L 365.189371 -38.016 
L 373.513846 -38.016 
L 381.838322 -38.016 
L 390.162797 -38.016 
L 398.487273 -38.016 
L 398.487273 -40.571699 
L 398.487273 -40.571699 
L 390.162797 -40.40285 
L 381.838322 -40.23485 
L 373.513846 -40.060877 
L 365.189371 -39.843494 
L 356.864895 -39.631302 
L 348.54042 -39.453816 
L 331.891469 -39.303963 
L 323.566993 -39.189264 
L 315.242517 -39.070693 
L 306.918042 -38.94899 
L 298.593566 -38.870093 
L 290.269091 -38.83852 
L 281.944615 -38.805627 
z
" id="m76342aa4a2" style="stroke:#7ea297;stroke-opacity:0.5;"/>
    </defs>
    <g clip-path="url(#p96a469e444)">
     <use style="fill:#7ea297;fill-opacity:0.5;stroke:#7ea297;stroke-opacity:0.5;" x="0" xlink:href="#m76342aa4a2" y="345.6"/>
    </g>
   </g>
   <g id="PolyCollection_2">
    <defs>
     <path d="M 73.832727 -38.026226 
L 73.832727 -38.016 
L 82.157203 -38.016 
L 90.481678 -38.016 
L 98.806154 -38.016 
L 107.130629 -38.016 
L 115.455105 -38.016 
L 132.104056 -38.016 
L 140.428531 -38.016 
L 148.753007 -38.016 
L 157.077483 -38.016 
L 165.401958 -38.016 
L 173.726434 -38.016 
L 182.050909 -38.016 
L 190.375385 -38.016 
L 198.69986 -38.016 
L 207.024336 -38.016 
L 215.348811 -38.016 
L 223.673287 -38.016 
L 231.997762 -38.016 
L 240.322238 -38.016 
L 248.646713 -38.016 
L 273.62014 -38.016 
L 281.944615 -38.016 
L 281.944615 -38.805627 
L 281.944615 -38.805627 
L 273.62014 -38.791642 
L 248.646713 -38.77542 
L 240.322238 -38.730287 
L 231.997762 -38.66656 
L 223.673287 -38.579518 
L 215.348811 -38.491871 
L 207.024336 -38.403463 
L 198.69986 -38.313623 
L 190.375385 -38.226133 
L 182.050909 -38.166322 
L 173.726434 -38.134212 
L 165.401958 -38.126023 
L 157.077483 -38.118437 
L 148.753007 -38.112933 
L 140.428531 -38.10754 
L 132.104056 -38.097605 
L 115.455105 -38.08776 
L 107.130629 -38.075453 
L 98.806154 -38.063146 
L 90.481678 -38.050839 
L 82.157203 -38.038533 
L 73.832727 -38.026226 
z
" id="m2598e57c4c" style="stroke:#7ea297;stroke-opacity:0.3;"/>
    </defs>
    <g clip-path="url(#p96a469e444)">
     <use style="fill:#7ea297;fill-opacity:0.3;stroke:#7ea297;stroke-opacity:0.3;" x="0" xlink:href="#m2598e57c4c" y="345.6"/>
    </g>
   </g>
   <g id="line2d_1">
    <path clip-path="url(#p96a469e444)" d="M 73.832727 307.573774 
L 82.157203 307.561467 
L 90.481678 307.549161 
L 98.806154 307.536854 
L 107.130629 307.524547 
L 115.455105 307.51224 
L 132.104056 307.502395 
L 140.428531 307.49246 
L 148.753007 307.487067 
L 157.077483 307.481563 
L 165.401958 307.473977 
L 173.726434 307.465788 
L 182.050909 307.433678 
L 190.375385 307.373867 
L 198.69986 307.286377 
L 207.024336 307.196537 
L 215.348811 307.108129 
L 223.673287 307.020482 
L 231.997762 306.93344 
L 240.322238 306.869713 
L 248.646713 306.82458 
L 273.62014 306.808358 
L 281.944615 306.794373 
L 290.269091 306.76148 
L 298.593566 306.729907 
L 306.918042 306.65101 
L 315.242517 306.529307 
L 323.566993 306.410736 
L 331.891469 306.296037 
L 348.54042 306.146184 
L 356.864895 305.968698 
L 365.189371 305.756506 
L 373.513846 305.539123 
L 381.838322 305.36515 
L 390.162797 305.19715 
L 398.487273 305.028301 
" style="fill:none;stroke:#60897e;stroke-linecap:square;stroke-width:2;"/>
   </g>
   <g id="line2d_2">
    <path clip-path="url(#p96a469e444)" d="M 281.944615 306.794373 
L 290.269091 306.76148 
L 298.593566 306.729907 
L 306.918042 306.65101 
L 315.242517 306.529307 
L 323.566993 306.410736 
L 331.891469 306.296037 
L 348.54042 306.146184 
L 356.864895 305.968698 
L 365.189371 305.756506 
L 373.513846 305.539123 
L 381.838322 305.36515 
L 390.162797 305.19715 
L 398.487273 305.028301 
" style="fill:none;stroke:#427165;stroke-linecap:square;stroke-width:2;"/>
   </g>
  </g>
 </g>
 <defs>
  <clipPath id="p96a469e444">
   <rect height="266.112" width="357.12" x="57.6" y="41.472"/>
  </clipPath>
 </defs>
</svg>
