<?xml version="1.0" encoding="utf-8" standalone="no"?>
<!DOCTYPE svg PUBLIC "-//W3C//DTD SVG 1.1//EN"
  "http://www.w3.org/Graphics/SVG/1.1/DTD/svg11.dtd">
<svg height="345.6pt" version="1.1" viewBox="0 0 460.8 345.6" width="460.8pt" xmlns="http://www.w3.org/2000/svg" xmlns:xlink="http://www.w3.org/1999/xlink">
 <metadata>
  <rdf:RDF xmlns:cc="http://creativecommons.org/ns#" xmlns:dc="http://purl.org/dc/elements/1.1/" xmlns:rdf="http://www.w3.org/1999/02/22-rdf-syntax-ns#">
   <cc:Work>
    <dc:type rdf:resource="http://purl.org/dc/dcmitype/StillImage"/>
    <dc:date>2021-05-15T11:19:06.896606</dc:date>
    <dc:format>image/svg+xml</dc:format>
    <dc:creator>
     <cc:Agent>
      <dc:title>Matplotlib v3.4.2, https://matplotlib.org/</dc:title>
     </cc:Agent>
    </dc:creator>
   </cc:Work>
  </rdf:RDF>
 </metadata>
 <defs>
  <style type="text/css">*{stroke-linecap:butt;stroke-linejoin:round;}</style>
 </defs>
 <g id="figure_1">
  <g id="patch_1">
   <path d="M 0 345.6 
L 460.8 345.6 
L 460.8 0 
L 0 0 
z
" style="fill:none;"/>
  </g>
  <g id="axes_1">
   <g id="matplotlib.axis_1"/>
   <g id="matplotlib.axis_2"/>
   <g id="PolyCollection_1">
    <defs>
     <path d="M 250.073766 -38.679286 
L 250.073766 -38.016 
L 259.34961 -38.016 
L 268.625455 -38.016 
L 296.452987 -38.016 
L 305.728831 -38.016 
L 315.004675 -38.016 
L 324.280519 -38.016 
L 333.556364 -38.016 
L 342.832208 -38.016 
L 352.108052 -38.016 
L 361.383896 -38.016 
L 379.935584 -38.016 
L 389.211429 -38.016 
L 398.487273 -38.016 
L 398.487273 -39.717904 
L 398.487273 -39.717904 
L 389.211429 -39.674303 
L 379.935584 -39.647594 
L 361.383896 -39.585354 
L 352.108052 -39.541896 
L 342.832208 -39.463445 
L 333.556364 -39.359819 
L 324.280519 -39.235589 
L 315.004675 -39.116715 
L 305.728831 -38.997734 
L 296.452987 -38.925139 
L 268.625455 -38.854686 
L 259.34961 -38.762165 
L 250.073766 -38.679286 
z
" id="m0ea83f2d2b" style="stroke:#7ea297;stroke-opacity:0.5;"/>
    </defs>
    <g clip-path="url(#pa53f06ab7f)">
     <use style="fill:#7ea297;fill-opacity:0.5;stroke:#7ea297;stroke-opacity:0.5;" x="0" xlink:href="#m0ea83f2d2b" y="345.6"/>
    </g>
   </g>
   <g id="PolyCollection_2">
    <defs>
     <path d="M 73.832727 -38.038496 
L 73.832727 -38.016 
L 83.108571 -38.016 
L 92.384416 -38.016 
L 101.66026 -38.016 
L 110.936104 -38.016 
L 120.211948 -38.016 
L 138.763636 -38.016 
L 148.039481 -38.016 
L 157.315325 -38.016 
L 166.591169 -38.016 
L 175.867013 -38.016 
L 185.142857 -38.016 
L 194.418701 -38.016 
L 203.694545 -38.016 
L 212.97039 -38.016 
L 222.246234 -38.016 
L 231.522078 -38.016 
L 240.797922 -38.016 
L 250.073766 -38.016 
L 250.073766 -38.679286 
L 250.073766 -38.679286 
L 240.797922 -38.597692 
L 231.522078 -38.516169 
L 222.246234 -38.434789 
L 212.97039 -38.353445 
L 203.694545 -38.272209 
L 194.418701 -38.248034 
L 185.142857 -38.239464 
L 175.867013 -38.239464 
L 166.591169 -38.239464 
L 157.315325 -38.239464 
L 148.039481 -38.23725 
L 138.763636 -38.222645 
L 120.211948 -38.193043 
L 110.936104 -38.161691 
L 101.66026 -38.130339 
L 92.384416 -38.098987 
L 83.108571 -38.067635 
L 73.832727 -38.038496 
z
" id="m058a32e213" style="stroke:#7ea297;stroke-opacity:0.3;"/>
    </defs>
    <g clip-path="url(#pa53f06ab7f)">
     <use style="fill:#7ea297;fill-opacity:0.3;stroke:#7ea297;stroke-opacity:0.3;" x="0" xlink:href="#m058a32e213" y="345.6"/>
    </g>
   </g>
   <g id="line2d_1">
    <path clip-path="url(#pa53f06ab7f)" d="M 73.832727 307.561504 
L 83.108571 307.532365 
L 92.384416 307.501013 
L 101.66026 307.469661 
L 110.936104 307.438309 
L 120.211948 307.406957 
L 138.763636 307.377355 
L 148.039481 307.36275 
L 157.315325 307.360536 
L 166.591169 307.360536 
L 175.867013 307.360536 
L 185.142857 307.360536 
L 194.418701 307.351966 
L 203.694545 307.327791 
L 212.97039 307.246555 
L 222.246234 307.165211 
L 231.522078 307.083831 
L 240.797922 307.002308 
L 250.073766 306.920714 
L 259.34961 306.837835 
L 268.625455 306.745314 
L 296.452987 306.674861 
L 305.728831 306.602266 
L 315.004675 306.483285 
L 324.280519 306.364411 
L 333.556364 306.240181 
L 342.832208 306.136555 
L 352.108052 306.058104 
L 361.383896 306.014646 
L 379.935584 305.952406 
L 389.211429 305.925697 
L 398.487273 305.882096 
" style="fill:none;stroke:#60897e;stroke-linecap:square;stroke-width:2;"/>
   </g>
   <g id="line2d_2">
    <path clip-path="url(#pa53f06ab7f)" d="M 250.073766 306.920714 
L 259.34961 306.837835 
L 268.625455 306.745314 
L 296.452987 306.674861 
L 305.728831 306.602266 
L 315.004675 306.483285 
L 324.280519 306.364411 
L 333.556364 306.240181 
L 342.832208 306.136555 
L 352.108052 306.058104 
L 361.383896 306.014646 
L 379.935584 305.952406 
L 389.211429 305.925697 
L 398.487273 305.882096 
" style="fill:none;stroke:#427165;stroke-linecap:square;stroke-width:2;"/>
   </g>
  </g>
 </g>
 <defs>
  <clipPath id="pa53f06ab7f">
   <rect height="266.112" width="357.12" x="57.6" y="41.472"/>
  </clipPath>
 </defs>
</svg>
