<?xml version="1.0" encoding="utf-8" standalone="no"?>
<!DOCTYPE svg PUBLIC "-//W3C//DTD SVG 1.1//EN"
  "http://www.w3.org/Graphics/SVG/1.1/DTD/svg11.dtd">
<svg height="345.6pt" version="1.1" viewBox="0 0 460.8 345.6" width="460.8pt" xmlns="http://www.w3.org/2000/svg" xmlns:xlink="http://www.w3.org/1999/xlink">
 <metadata>
  <rdf:RDF xmlns:cc="http://creativecommons.org/ns#" xmlns:dc="http://purl.org/dc/elements/1.1/" xmlns:rdf="http://www.w3.org/1999/02/22-rdf-syntax-ns#">
   <cc:Work>
    <dc:type rdf:resource="http://purl.org/dc/dcmitype/StillImage"/>
    <dc:date>2021-05-21T13:25:44.209052</dc:date>
    <dc:format>image/svg+xml</dc:format>
    <dc:creator>
     <cc:Agent>
      <dc:title>Matplotlib v3.4.2, https://matplotlib.org/</dc:title>
     </cc:Agent>
    </dc:creator>
   </cc:Work>
  </rdf:RDF>
 </metadata>
 <defs>
  <style type="text/css">*{stroke-linecap:butt;stroke-linejoin:round;}</style>
 </defs>
 <g id="figure_1">
  <g id="patch_1">
   <path d="M 0 345.6 
L 460.8 345.6 
L 460.8 0 
L 0 0 
z
" style="fill:none;"/>
  </g>
  <g id="axes_1">
   <g id="matplotlib.axis_1"/>
   <g id="matplotlib.axis_2"/>
   <g id="PolyCollection_1">
    <defs>
     <path d="M 331.646631 -39.035481 
L 331.646631 -38.016 
L 336.420963 -38.016 
L 341.195294 -38.016 
L 345.969626 -38.016 
L 350.743957 -38.016 
L 360.29262 -38.016 
L 365.066952 -38.016 
L 369.841283 -38.016 
L 374.615615 -38.016 
L 379.389947 -38.016 
L 384.164278 -38.016 
L 388.93861 -38.016 
L 393.712941 -38.016 
L 398.487273 -38.016 
L 398.487273 -39.977361 
L 398.487273 -39.977361 
L 393.712941 -39.923134 
L 388.93861 -39.869695 
L 384.164278 -39.816015 
L 379.389947 -39.762423 
L 374.615615 -39.707824 
L 369.841283 -39.611529 
L 365.066952 -39.510116 
L 360.29262 -39.411109 
L 350.743957 -39.323647 
L 345.969626 -39.25324 
L 341.195294 -39.174808 
L 336.420963 -39.085881 
L 331.646631 -39.035481 
z
" id="m6f55f7cb54" style="stroke:#7ea297;stroke-opacity:0.5;"/>
    </defs>
    <g clip-path="url(#p601740ced4)">
     <use style="fill:#7ea297;fill-opacity:0.5;stroke:#7ea297;stroke-opacity:0.5;" x="0" xlink:href="#m6f55f7cb54" y="345.6"/>
    </g>
   </g>
   <g id="PolyCollection_2">
    <defs>
     <path d="M 73.832727 -38.208898 
L 73.832727 -38.016 
L 78.607059 -38.016 
L 83.38139 -38.016 
L 88.155722 -38.016 
L 92.930053 -38.016 
L 97.704385 -38.016 
L 102.478717 -38.016 
L 107.253048 -38.016 
L 112.02738 -38.016 
L 116.801711 -38.016 
L 121.576043 -38.016 
L 131.124706 -38.016 
L 135.899037 -38.016 
L 140.673369 -38.016 
L 145.447701 -38.016 
L 150.222032 -38.016 
L 154.996364 -38.016 
L 159.770695 -38.016 
L 164.545027 -38.016 
L 169.319358 -38.016 
L 174.09369 -38.016 
L 178.868021 -38.016 
L 183.642353 -38.016 
L 188.416684 -38.016 
L 193.191016 -38.016 
L 197.965348 -38.016 
L 202.739679 -38.016 
L 207.514011 -38.016 
L 212.288342 -38.016 
L 217.062674 -38.016 
L 221.837005 -38.016 
L 226.611337 -38.016 
L 236.16 -38.016 
L 240.934332 -38.016 
L 245.708663 -38.016 
L 250.482995 -38.016 
L 255.257326 -38.016 
L 260.031658 -38.016 
L 264.805989 -38.016 
L 269.580321 -38.016 
L 274.354652 -38.016 
L 279.128984 -38.016 
L 283.903316 -38.016 
L 288.677647 -38.016 
L 293.451979 -38.016 
L 298.22631 -38.016 
L 303.000642 -38.016 
L 317.323636 -38.016 
L 322.097968 -38.016 
L 326.872299 -38.016 
L 331.646631 -38.016 
L 331.646631 -39.035481 
L 331.646631 -39.035481 
L 326.872299 -38.9982 
L 322.097968 -38.969403 
L 317.323636 -38.9396 
L 303.000642 -38.901226 
L 298.22631 -38.84138 
L 293.451979 -38.785973 
L 288.677647 -38.723438 
L 283.903316 -38.663461 
L 279.128984 -38.602937 
L 274.354652 -38.544337 
L 269.580321 -38.493959 
L 264.805989 -38.473362 
L 260.031658 -38.459258 
L 255.257326 -38.455454 
L 250.482995 -38.451933 
L 245.708663 -38.450906 
L 240.934332 -38.449113 
L 236.16 -38.445855 
L 226.611337 -38.439514 
L 221.837005 -38.430265 
L 217.062674 -38.421015 
L 212.288342 -38.411701 
L 207.514011 -38.402386 
L 202.739679 -38.393837 
L 197.965348 -38.38708 
L 193.191016 -38.38286 
L 188.416684 -38.377503 
L 183.642353 -38.363356 
L 178.868021 -38.34477 
L 174.09369 -38.326185 
L 169.319358 -38.307599 
L 164.545027 -38.288073 
L 159.770695 -38.267126 
L 154.996364 -38.2462 
L 150.222032 -38.234065 
L 145.447701 -38.226434 
L 140.673369 -38.218803 
L 135.899037 -38.211172 
L 131.124706 -38.204568 
L 121.576043 -38.199977 
L 116.801711 -38.201245 
L 112.02738 -38.202513 
L 107.253048 -38.203781 
L 102.478717 -38.205049 
L 97.704385 -38.206318 
L 92.930053 -38.207586 
L 88.155722 -38.208854 
L 83.38139 -38.208854 
L 78.607059 -38.208876 
L 73.832727 -38.208898 
z
" id="mc218cd6055" style="stroke:#7ea297;stroke-opacity:0.3;"/>
    </defs>
    <g clip-path="url(#p601740ced4)">
     <use style="fill:#7ea297;fill-opacity:0.3;stroke:#7ea297;stroke-opacity:0.3;" x="0" xlink:href="#mc218cd6055" y="345.6"/>
    </g>
   </g>
   <g id="line2d_1">
    <path clip-path="url(#p601740ced4)" d="M 73.832727 307.391102 
L 78.607059 307.391124 
L 83.38139 307.391146 
L 88.155722 307.391146 
L 92.930053 307.392414 
L 97.704385 307.393682 
L 102.478717 307.394951 
L 107.253048 307.396219 
L 112.02738 307.397487 
L 116.801711 307.398755 
L 121.576043 307.400023 
L 131.124706 307.395432 
L 135.899037 307.388828 
L 140.673369 307.381197 
L 145.447701 307.373566 
L 150.222032 307.365935 
L 154.996364 307.3538 
L 159.770695 307.332874 
L 164.545027 307.311927 
L 169.319358 307.292401 
L 174.09369 307.273815 
L 178.868021 307.25523 
L 183.642353 307.236644 
L 188.416684 307.222497 
L 193.191016 307.21714 
L 197.965348 307.21292 
L 202.739679 307.206163 
L 207.514011 307.197614 
L 212.288342 307.188299 
L 217.062674 307.178985 
L 221.837005 307.169735 
L 226.611337 307.160486 
L 236.16 307.154145 
L 240.934332 307.150887 
L 245.708663 307.149094 
L 250.482995 307.148067 
L 255.257326 307.144546 
L 260.031658 307.140742 
L 264.805989 307.126638 
L 269.580321 307.106041 
L 274.354652 307.055663 
L 279.128984 306.997063 
L 283.903316 306.936539 
L 288.677647 306.876562 
L 293.451979 306.814027 
L 298.22631 306.75862 
L 303.000642 306.698774 
L 317.323636 306.6604 
L 322.097968 306.630597 
L 326.872299 306.6018 
L 331.646631 306.564519 
L 336.420963 306.514119 
L 341.195294 306.425192 
L 345.969626 306.34676 
L 350.743957 306.276353 
L 360.29262 306.188891 
L 365.066952 306.089884 
L 369.841283 305.988471 
L 374.615615 305.892176 
L 379.389947 305.837577 
L 384.164278 305.783985 
L 388.93861 305.730305 
L 393.712941 305.676866 
L 398.487273 305.622639 
" style="fill:none;stroke:#60897e;stroke-linecap:square;stroke-width:2;"/>
   </g>
   <g id="line2d_2">
    <path clip-path="url(#p601740ced4)" d="M 331.646631 306.564519 
L 336.420963 306.514119 
L 341.195294 306.425192 
L 345.969626 306.34676 
L 350.743957 306.276353 
L 360.29262 306.188891 
L 365.066952 306.089884 
L 369.841283 305.988471 
L 374.615615 305.892176 
L 379.389947 305.837577 
L 384.164278 305.783985 
L 388.93861 305.730305 
L 393.712941 305.676866 
L 398.487273 305.622639 
" style="fill:none;stroke:#427165;stroke-linecap:square;stroke-width:2;"/>
   </g>
  </g>
 </g>
 <defs>
  <clipPath id="p601740ced4">
   <rect height="266.112" width="357.12" x="57.6" y="41.472"/>
  </clipPath>
 </defs>
</svg>
