<?xml version="1.0" encoding="utf-8" standalone="no"?>
<!DOCTYPE svg PUBLIC "-//W3C//DTD SVG 1.1//EN"
  "http://www.w3.org/Graphics/SVG/1.1/DTD/svg11.dtd">
<svg height="345.6pt" version="1.1" viewBox="0 0 460.8 345.6" width="460.8pt" xmlns="http://www.w3.org/2000/svg" xmlns:xlink="http://www.w3.org/1999/xlink">
 <metadata>
  <rdf:RDF xmlns:cc="http://creativecommons.org/ns#" xmlns:dc="http://purl.org/dc/elements/1.1/" xmlns:rdf="http://www.w3.org/1999/02/22-rdf-syntax-ns#">
   <cc:Work>
    <dc:type rdf:resource="http://purl.org/dc/dcmitype/StillImage"/>
    <dc:date>2021-05-18T13:26:34.502550</dc:date>
    <dc:format>image/svg+xml</dc:format>
    <dc:creator>
     <cc:Agent>
      <dc:title>Matplotlib v3.4.2, https://matplotlib.org/</dc:title>
     </cc:Agent>
    </dc:creator>
   </cc:Work>
  </rdf:RDF>
 </metadata>
 <defs>
  <style type="text/css">*{stroke-linecap:butt;stroke-linejoin:round;}</style>
 </defs>
 <g id="figure_1">
  <g id="patch_1">
   <path d="M 0 345.6 
L 460.8 345.6 
L 460.8 0 
L 0 0 
z
" style="fill:none;"/>
  </g>
  <g id="axes_1">
   <g id="matplotlib.axis_1"/>
   <g id="matplotlib.axis_2"/>
   <g id="PolyCollection_1">
    <defs>
     <path d="M 281.944615 -38.777214 
L 281.944615 -38.016 
L 290.269091 -38.016 
L 298.593566 -38.016 
L 306.918042 -38.016 
L 315.242517 -38.016 
L 323.566993 -38.016 
L 331.891469 -38.016 
L 348.54042 -38.016 
L 356.864895 -38.016 
L 365.189371 -38.016 
L 373.513846 -38.016 
L 381.838322 -38.016 
L 390.162797 -38.016 
L 398.487273 -38.016 
L 398.487273 -39.701642 
L 398.487273 -39.701642 
L 390.162797 -39.607963 
L 381.838322 -39.542285 
L 373.513846 -39.47322 
L 365.189371 -39.354502 
L 356.864895 -39.239428 
L 348.54042 -39.153378 
L 331.891469 -39.072997 
L 323.566993 -39.004975 
L 315.242517 -38.935292 
L 306.918042 -38.866056 
L 298.593566 -38.838864 
L 290.269091 -38.822178 
L 281.944615 -38.777214 
z
" id="mcd228adb28" style="stroke:#7ea297;stroke-opacity:0.5;"/>
    </defs>
    <g clip-path="url(#p8d91afa1dd)">
     <use style="fill:#7ea297;fill-opacity:0.5;stroke:#7ea297;stroke-opacity:0.5;" x="0" xlink:href="#mcd228adb28" y="345.6"/>
    </g>
   </g>
   <g id="PolyCollection_2">
    <defs>
     <path d="M 73.832727 -38.072024 
L 73.832727 -38.016 
L 82.157203 -38.016 
L 90.481678 -38.016 
L 98.806154 -38.016 
L 107.130629 -38.016 
L 115.455105 -38.016 
L 132.104056 -38.016 
L 140.428531 -38.016 
L 148.753007 -38.016 
L 157.077483 -38.016 
L 165.401958 -38.016 
L 173.726434 -38.016 
L 182.050909 -38.016 
L 190.375385 -38.016 
L 198.69986 -38.016 
L 207.024336 -38.016 
L 215.348811 -38.016 
L 223.673287 -38.016 
L 231.997762 -38.016 
L 240.322238 -38.016 
L 248.646713 -38.016 
L 273.62014 -38.016 
L 281.944615 -38.016 
L 281.944615 -38.777214 
L 281.944615 -38.777214 
L 273.62014 -38.732463 
L 248.646713 -38.687414 
L 240.322238 -38.619115 
L 231.997762 -38.526992 
L 223.673287 -38.43911 
L 215.348811 -38.354126 
L 207.024336 -38.298293 
L 198.69986 -38.242824 
L 190.375385 -38.18778 
L 182.050909 -38.157648 
L 173.726434 -38.154281 
L 165.401958 -38.154281 
L 157.077483 -38.154281 
L 148.753007 -38.154281 
L 140.428531 -38.153684 
L 132.104056 -38.15249 
L 115.455105 -38.147184 
L 107.130629 -38.136124 
L 98.806154 -38.124979 
L 90.481678 -38.107676 
L 82.157203 -38.090372 
L 73.832727 -38.072024 
z
" id="mb73235dc67" style="stroke:#7ea297;stroke-opacity:0.3;"/>
    </defs>
    <g clip-path="url(#p8d91afa1dd)">
     <use style="fill:#7ea297;fill-opacity:0.3;stroke:#7ea297;stroke-opacity:0.3;" x="0" xlink:href="#mb73235dc67" y="345.6"/>
    </g>
   </g>
   <g id="line2d_1">
    <path clip-path="url(#p8d91afa1dd)" d="M 73.832727 307.527976 
L 82.157203 307.509628 
L 90.481678 307.492324 
L 98.806154 307.475021 
L 107.130629 307.463876 
L 115.455105 307.452816 
L 132.104056 307.44751 
L 140.428531 307.446316 
L 148.753007 307.445719 
L 157.077483 307.445719 
L 165.401958 307.445719 
L 173.726434 307.445719 
L 182.050909 307.442352 
L 190.375385 307.41222 
L 198.69986 307.357176 
L 207.024336 307.301707 
L 215.348811 307.245874 
L 223.673287 307.16089 
L 231.997762 307.073008 
L 240.322238 306.980885 
L 248.646713 306.912586 
L 273.62014 306.867537 
L 281.944615 306.822786 
L 290.269091 306.777822 
L 298.593566 306.761136 
L 306.918042 306.733944 
L 315.242517 306.664708 
L 323.566993 306.595025 
L 331.891469 306.527003 
L 348.54042 306.446622 
L 356.864895 306.360572 
L 365.189371 306.245498 
L 373.513846 306.12678 
L 381.838322 306.057715 
L 390.162797 305.992037 
L 398.487273 305.898358 
" style="fill:none;stroke:#60897e;stroke-linecap:square;stroke-width:2;"/>
   </g>
   <g id="line2d_2">
    <path clip-path="url(#p8d91afa1dd)" d="M 281.944615 306.822786 
L 290.269091 306.777822 
L 298.593566 306.761136 
L 306.918042 306.733944 
L 315.242517 306.664708 
L 323.566993 306.595025 
L 331.891469 306.527003 
L 348.54042 306.446622 
L 356.864895 306.360572 
L 365.189371 306.245498 
L 373.513846 306.12678 
L 381.838322 306.057715 
L 390.162797 305.992037 
L 398.487273 305.898358 
" style="fill:none;stroke:#427165;stroke-linecap:square;stroke-width:2;"/>
   </g>
  </g>
 </g>
 <defs>
  <clipPath id="p8d91afa1dd">
   <rect height="266.112" width="357.12" x="57.6" y="41.472"/>
  </clipPath>
 </defs>
</svg>
