<?xml version="1.0" encoding="utf-8" standalone="no"?>
<!DOCTYPE svg PUBLIC "-//W3C//DTD SVG 1.1//EN"
  "http://www.w3.org/Graphics/SVG/1.1/DTD/svg11.dtd">
<!-- Created with matplotlib (https://matplotlib.org/) -->
<svg height="288pt" version="1.1" viewBox="0 0 432 288" width="432pt" xmlns="http://www.w3.org/2000/svg" xmlns:xlink="http://www.w3.org/1999/xlink">
 <metadata>
  <rdf:RDF xmlns:cc="http://creativecommons.org/ns#" xmlns:dc="http://purl.org/dc/elements/1.1/" xmlns:rdf="http://www.w3.org/1999/02/22-rdf-syntax-ns#">
   <cc:Work>
    <dc:type rdf:resource="http://purl.org/dc/dcmitype/StillImage"/>
    <dc:date>2021-05-11T17:45:22.710275</dc:date>
    <dc:format>image/svg+xml</dc:format>
    <dc:creator>
     <cc:Agent>
      <dc:title>Matplotlib v3.3.2, https://matplotlib.org/</dc:title>
     </cc:Agent>
    </dc:creator>
   </cc:Work>
  </rdf:RDF>
 </metadata>
 <defs>
  <style type="text/css">*{stroke-linecap:butt;stroke-linejoin:round;}</style>
 </defs>
 <g id="figure_1">
  <g id="patch_1">
   <path d="M 0 288 
L 432 288 
L 432 0 
L 0 0 
z
" style="fill:none;"/>
  </g>
  <g id="axes_1">
   <g id="matplotlib.axis_1"/>
   <g id="matplotlib.axis_2"/>
   <g id="PolyCollection_1">
    <defs>
     <path d="M 295.99893 -36.192685 
L 295.99893 -36 
L 301.966845 -36 
L 307.934759 -36 
L 313.902674 -36 
L 319.870588 -36 
L 325.838503 -36 
L 331.806417 -36 
L 337.774332 -36 
L 343.742246 -36 
L 349.71016 -36 
L 355.678075 -36 
L 361.645989 -36 
L 367.613904 -36 
L 373.581818 -36 
L 373.581818 -36.735499 
L 373.581818 -36.735499 
L 367.613904 -36.60609 
L 361.645989 -36.481452 
L 355.678075 -36.402017 
L 349.71016 -36.322582 
L 343.742246 -36.243147 
L 337.774332 -36.202193 
L 331.806417 -36.195576 
L 325.838503 -36.1938 
L 319.870588 -36.1938 
L 313.902674 -36.1938 
L 307.934759 -36.1938 
L 301.966845 -36.1938 
L 295.99893 -36.192685 
z
" id="m0b32de0329" style="stroke:#7ea297;stroke-opacity:0.5;"/>
    </defs>
    <g clip-path="url(#pec8216cef6)">
     <use style="fill:#7ea297;fill-opacity:0.5;stroke:#7ea297;stroke-opacity:0.5;" x="0" xlink:href="#m0b32de0329" y="288"/>
    </g>
   </g>
   <g id="PolyCollection_2">
    <defs>
     <path d="M 69.218182 -36 
L 69.218182 -36 
L 75.186096 -36 
L 81.154011 -36 
L 87.121925 -36 
L 93.08984 -36 
L 99.057754 -36 
L 105.025668 -36 
L 110.993583 -36 
L 116.961497 -36 
L 122.929412 -36 
L 128.897326 -36 
L 134.865241 -36 
L 140.833155 -36 
L 146.80107 -36 
L 152.768984 -36 
L 158.736898 -36 
L 164.704813 -36 
L 170.672727 -36 
L 176.640642 -36 
L 182.608556 -36 
L 188.576471 -36 
L 194.544385 -36 
L 200.512299 -36 
L 206.480214 -36 
L 212.448128 -36 
L 218.416043 -36 
L 224.383957 -36 
L 230.351872 -36 
L 236.319786 -36 
L 242.287701 -36 
L 248.255615 -36 
L 254.223529 -36 
L 260.191444 -36 
L 266.159358 -36 
L 272.127273 -36 
L 278.095187 -36 
L 284.063102 -36 
L 290.031016 -36 
L 295.99893 -36 
L 295.99893 -36.192685 
L 295.99893 -36.192685 
L 290.031016 -36.185929 
L 284.063102 -36.171547 
L 278.095187 -36.157164 
L 272.127273 -36.135468 
L 266.159358 -36.113773 
L 260.191444 -36.091937 
L 254.223529 -36.065366 
L 248.255615 -36.044436 
L 242.287701 -36.031133 
L 236.319786 -36.01783 
L 230.351872 -36.01184 
L 224.383957 -36.005851 
L 218.416043 -36 
L 212.448128 -36 
L 206.480214 -36 
L 200.512299 -36 
L 194.544385 -36 
L 188.576471 -36 
L 182.608556 -36 
L 176.640642 -36 
L 170.672727 -36 
L 164.704813 -36 
L 158.736898 -36 
L 152.768984 -36 
L 146.80107 -36 
L 140.833155 -36 
L 134.865241 -36 
L 128.897326 -36 
L 122.929412 -36 
L 116.961497 -36 
L 110.993583 -36 
L 105.025668 -36 
L 99.057754 -36 
L 93.08984 -36 
L 87.121925 -36 
L 81.154011 -36 
L 75.186096 -36 
L 69.218182 -36 
z
" id="me921718077" style="stroke:#7ea297;stroke-opacity:0.3;"/>
    </defs>
    <g clip-path="url(#pec8216cef6)">
     <use style="fill:#7ea297;fill-opacity:0.3;stroke:#7ea297;stroke-opacity:0.3;" x="0" xlink:href="#me921718077" y="288"/>
    </g>
   </g>
   <g id="line2d_1">
    <path clip-path="url(#pec8216cef6)" d="M 69.218182 252 
L 75.186096 252 
L 81.154011 252 
L 87.121925 252 
L 93.08984 252 
L 99.057754 252 
L 105.025668 252 
L 110.993583 252 
L 116.961497 252 
L 122.929412 252 
L 128.897326 252 
L 134.865241 252 
L 140.833155 252 
L 146.80107 252 
L 152.768984 252 
L 158.736898 252 
L 164.704813 252 
L 170.672727 252 
L 176.640642 252 
L 182.608556 252 
L 188.576471 252 
L 194.544385 252 
L 200.512299 252 
L 206.480214 252 
L 212.448128 252 
L 218.416043 252 
L 224.383957 251.994149 
L 230.351872 251.98816 
L 236.319786 251.98217 
L 242.287701 251.968867 
L 248.255615 251.955564 
L 254.223529 251.934634 
L 260.191444 251.908063 
L 266.159358 251.886227 
L 272.127273 251.864532 
L 278.095187 251.842836 
L 284.063102 251.828453 
L 290.031016 251.814071 
L 295.99893 251.807315 
L 301.966845 251.8062 
L 307.934759 251.8062 
L 313.902674 251.8062 
L 319.870588 251.8062 
L 325.838503 251.8062 
L 331.806417 251.804424 
L 337.774332 251.797807 
L 343.742246 251.756853 
L 349.71016 251.677418 
L 355.678075 251.597983 
L 361.645989 251.518548 
L 367.613904 251.39391 
L 373.581818 251.264501 
" style="fill:none;stroke:#60897e;stroke-linecap:square;stroke-width:2;"/>
   </g>
   <g id="line2d_2">
    <path clip-path="url(#pec8216cef6)" d="M 295.99893 251.807315 
L 301.966845 251.8062 
L 307.934759 251.8062 
L 313.902674 251.8062 
L 319.870588 251.8062 
L 325.838503 251.8062 
L 331.806417 251.804424 
L 337.774332 251.797807 
L 343.742246 251.756853 
L 349.71016 251.677418 
L 355.678075 251.597983 
L 361.645989 251.518548 
L 367.613904 251.39391 
L 373.581818 251.264501 
" style="fill:none;stroke:#427165;stroke-linecap:square;stroke-width:2;"/>
   </g>
  </g>
 </g>
 <defs>
  <clipPath id="pec8216cef6">
   <rect height="217.44" width="334.8" x="54" y="34.56"/>
  </clipPath>
 </defs>
</svg>
