<?xml version="1.0" encoding="utf-8" standalone="no"?>
<!DOCTYPE svg PUBLIC "-//W3C//DTD SVG 1.1//EN"
  "http://www.w3.org/Graphics/SVG/1.1/DTD/svg11.dtd">
<!-- Created with matplotlib (https://matplotlib.org/) -->
<svg height="345.6pt" version="1.1" viewBox="0 0 460.8 345.6" width="460.8pt" xmlns="http://www.w3.org/2000/svg" xmlns:xlink="http://www.w3.org/1999/xlink">
 <metadata>
  <rdf:RDF xmlns:cc="http://creativecommons.org/ns#" xmlns:dc="http://purl.org/dc/elements/1.1/" xmlns:rdf="http://www.w3.org/1999/02/22-rdf-syntax-ns#">
   <cc:Work>
    <dc:type rdf:resource="http://purl.org/dc/dcmitype/StillImage"/>
    <dc:date>2021-05-15T09:28:37.496551</dc:date>
    <dc:format>image/svg+xml</dc:format>
    <dc:creator>
     <cc:Agent>
      <dc:title>Matplotlib v3.3.2, https://matplotlib.org/</dc:title>
     </cc:Agent>
    </dc:creator>
   </cc:Work>
  </rdf:RDF>
 </metadata>
 <defs>
  <style type="text/css">*{stroke-linecap:butt;stroke-linejoin:round;}</style>
 </defs>
 <g id="figure_1">
  <g id="patch_1">
   <path d="M 0 345.6 
L 460.8 345.6 
L 460.8 0 
L 0 0 
z
" style="fill:none;"/>
  </g>
  <g id="axes_1">
   <g id="matplotlib.axis_1"/>
   <g id="matplotlib.axis_2"/>
   <g id="PolyCollection_1">
    <defs>
     <path d="M 250.073766 -38.526992 
L 250.073766 -38.016 
L 259.34961 -38.016 
L 268.625455 -38.016 
L 296.452987 -38.016 
L 305.728831 -38.016 
L 315.004675 -38.016 
L 324.280519 -38.016 
L 333.556364 -38.016 
L 342.832208 -38.016 
L 352.108052 -38.016 
L 361.383896 -38.016 
L 379.935584 -38.016 
L 389.211429 -38.016 
L 398.487273 -38.016 
L 398.487273 -39.354502 
L 398.487273 -39.354502 
L 389.211429 -39.239428 
L 379.935584 -39.153378 
L 361.383896 -39.072997 
L 352.108052 -39.004975 
L 342.832208 -38.935292 
L 333.556364 -38.866056 
L 324.280519 -38.838864 
L 315.004675 -38.822178 
L 305.728831 -38.777214 
L 296.452987 -38.732463 
L 268.625455 -38.687414 
L 259.34961 -38.619115 
L 250.073766 -38.526992 
z
" id="meff58298d7" style="stroke:#7ea297;stroke-opacity:0.5;"/>
    </defs>
    <g clip-path="url(#p2d3f68ffe2)">
     <use style="fill:#7ea297;fill-opacity:0.5;stroke:#7ea297;stroke-opacity:0.5;" x="0" xlink:href="#meff58298d7" y="345.6"/>
    </g>
   </g>
   <g id="PolyCollection_2">
    <defs>
     <path d="M 73.832727 -38.072024 
L 73.832727 -38.016 
L 83.108571 -38.016 
L 92.384416 -38.016 
L 101.66026 -38.016 
L 110.936104 -38.016 
L 120.211948 -38.016 
L 138.763636 -38.016 
L 148.039481 -38.016 
L 157.315325 -38.016 
L 166.591169 -38.016 
L 175.867013 -38.016 
L 185.142857 -38.016 
L 194.418701 -38.016 
L 203.694545 -38.016 
L 212.97039 -38.016 
L 222.246234 -38.016 
L 231.522078 -38.016 
L 240.797922 -38.016 
L 250.073766 -38.016 
L 250.073766 -38.526992 
L 250.073766 -38.526992 
L 240.797922 -38.43911 
L 231.522078 -38.354126 
L 222.246234 -38.298293 
L 212.97039 -38.242824 
L 203.694545 -38.18778 
L 194.418701 -38.157648 
L 185.142857 -38.154281 
L 175.867013 -38.154281 
L 166.591169 -38.154281 
L 157.315325 -38.154281 
L 148.039481 -38.153684 
L 138.763636 -38.15249 
L 120.211948 -38.147184 
L 110.936104 -38.136124 
L 101.66026 -38.124979 
L 92.384416 -38.107676 
L 83.108571 -38.090372 
L 73.832727 -38.072024 
z
" id="m5efea394ae" style="stroke:#7ea297;stroke-opacity:0.3;"/>
    </defs>
    <g clip-path="url(#p2d3f68ffe2)">
     <use style="fill:#7ea297;fill-opacity:0.3;stroke:#7ea297;stroke-opacity:0.3;" x="0" xlink:href="#m5efea394ae" y="345.6"/>
    </g>
   </g>
   <g id="line2d_1">
    <path clip-path="url(#p2d3f68ffe2)" d="M 73.832727 307.527976 
L 83.108571 307.509628 
L 92.384416 307.492324 
L 101.66026 307.475021 
L 110.936104 307.463876 
L 120.211948 307.452816 
L 138.763636 307.44751 
L 148.039481 307.446316 
L 157.315325 307.445719 
L 166.591169 307.445719 
L 175.867013 307.445719 
L 185.142857 307.445719 
L 194.418701 307.442352 
L 203.694545 307.41222 
L 212.97039 307.357176 
L 222.246234 307.301707 
L 231.522078 307.245874 
L 240.797922 307.16089 
L 250.073766 307.073008 
L 259.34961 306.980885 
L 268.625455 306.912586 
L 296.452987 306.867537 
L 305.728831 306.822786 
L 315.004675 306.777822 
L 324.280519 306.761136 
L 333.556364 306.733944 
L 342.832208 306.664708 
L 352.108052 306.595025 
L 361.383896 306.527003 
L 379.935584 306.446622 
L 389.211429 306.360572 
L 398.487273 306.245498 
" style="fill:none;stroke:#60897e;stroke-linecap:square;stroke-width:2;"/>
   </g>
   <g id="line2d_2">
    <path clip-path="url(#p2d3f68ffe2)" d="M 250.073766 307.073008 
L 259.34961 306.980885 
L 268.625455 306.912586 
L 296.452987 306.867537 
L 305.728831 306.822786 
L 315.004675 306.777822 
L 324.280519 306.761136 
L 333.556364 306.733944 
L 342.832208 306.664708 
L 352.108052 306.595025 
L 361.383896 306.527003 
L 379.935584 306.446622 
L 389.211429 306.360572 
L 398.487273 306.245498 
" style="fill:none;stroke:#427165;stroke-linecap:square;stroke-width:2;"/>
   </g>
  </g>
 </g>
 <defs>
  <clipPath id="p2d3f68ffe2">
   <rect height="266.112" width="357.12" x="57.6" y="41.472"/>
  </clipPath>
 </defs>
</svg>
