<?xml version="1.0" encoding="utf-8" standalone="no"?>
<!DOCTYPE svg PUBLIC "-//W3C//DTD SVG 1.1//EN"
  "http://www.w3.org/Graphics/SVG/1.1/DTD/svg11.dtd">
<svg height="345.6pt" version="1.1" viewBox="0 0 460.8 345.6" width="460.8pt" xmlns="http://www.w3.org/2000/svg" xmlns:xlink="http://www.w3.org/1999/xlink">
 <metadata>
  <rdf:RDF xmlns:cc="http://creativecommons.org/ns#" xmlns:dc="http://purl.org/dc/elements/1.1/" xmlns:rdf="http://www.w3.org/1999/02/22-rdf-syntax-ns#">
   <cc:Work>
    <dc:type rdf:resource="http://purl.org/dc/dcmitype/StillImage"/>
    <dc:date>2021-05-18T13:26:36.310488</dc:date>
    <dc:format>image/svg+xml</dc:format>
    <dc:creator>
     <cc:Agent>
      <dc:title>Matplotlib v3.4.2, https://matplotlib.org/</dc:title>
     </cc:Agent>
    </dc:creator>
   </cc:Work>
  </rdf:RDF>
 </metadata>
 <defs>
  <style type="text/css">*{stroke-linecap:butt;stroke-linejoin:round;}</style>
 </defs>
 <g id="figure_1">
  <g id="patch_1">
   <path d="M 0 345.6 
L 460.8 345.6 
L 460.8 0 
L 0 0 
z
" style="fill:none;"/>
  </g>
  <g id="axes_1">
   <g id="matplotlib.axis_1"/>
   <g id="matplotlib.axis_2"/>
   <g id="PolyCollection_1">
    <defs>
     <path d="M 281.944615 -38.887288 
L 281.944615 -38.016 
L 290.269091 -38.016 
L 298.593566 -38.016 
L 306.918042 -38.016 
L 315.242517 -38.016 
L 323.566993 -38.016 
L 331.891469 -38.016 
L 348.54042 -38.016 
L 356.864895 -38.016 
L 365.189371 -38.016 
L 373.513846 -38.016 
L 381.838322 -38.016 
L 390.162797 -38.016 
L 398.487273 -38.016 
L 398.487273 -39.744183 
L 398.487273 -39.744183 
L 390.162797 -39.6496 
L 381.838322 -39.572174 
L 373.513846 -39.495361 
L 365.189371 -39.385387 
L 356.864895 -39.324281 
L 348.54042 -39.270903 
L 331.891469 -39.226841 
L 323.566993 -39.188808 
L 315.242517 -39.121854 
L 306.918042 -39.048327 
L 298.593566 -39.005149 
L 290.269091 -38.951001 
L 281.944615 -38.887288 
z
" id="ma1bdadca2a" style="stroke:#7ea297;stroke-opacity:0.5;"/>
    </defs>
    <g clip-path="url(#pb66c808c98)">
     <use style="fill:#7ea297;fill-opacity:0.5;stroke:#7ea297;stroke-opacity:0.5;" x="0" xlink:href="#ma1bdadca2a" y="345.6"/>
    </g>
   </g>
   <g id="PolyCollection_2">
    <defs>
     <path d="M 73.832727 -38.025769 
L 73.832727 -38.016 
L 82.157203 -38.016 
L 90.481678 -38.016 
L 98.806154 -38.016 
L 107.130629 -38.016 
L 115.455105 -38.016 
L 132.104056 -38.016 
L 140.428531 -38.016 
L 148.753007 -38.016 
L 157.077483 -38.016 
L 165.401958 -38.016 
L 173.726434 -38.016 
L 182.050909 -38.016 
L 190.375385 -38.016 
L 198.69986 -38.016 
L 207.024336 -38.016 
L 215.348811 -38.016 
L 223.673287 -38.016 
L 231.997762 -38.016 
L 240.322238 -38.016 
L 248.646713 -38.016 
L 273.62014 -38.016 
L 281.944615 -38.016 
L 281.944615 -38.887288 
L 281.944615 -38.887288 
L 273.62014 -38.823462 
L 248.646713 -38.759658 
L 240.322238 -38.685564 
L 231.997762 -38.607436 
L 223.673287 -38.522281 
L 215.348811 -38.446238 
L 207.024336 -38.381687 
L 198.69986 -38.31752 
L 190.375385 -38.253354 
L 182.050909 -38.228377 
L 173.726434 -38.214097 
L 165.401958 -38.209655 
L 157.077483 -38.209632 
L 148.753007 -38.209632 
L 140.428531 -38.209247 
L 132.104056 -38.189528 
L 115.455105 -38.163689 
L 107.130629 -38.136037 
L 98.806154 -38.108385 
L 90.481678 -38.080733 
L 82.157203 -38.053058 
L 73.832727 -38.025769 
z
" id="m29bc4c343a" style="stroke:#7ea297;stroke-opacity:0.3;"/>
    </defs>
    <g clip-path="url(#pb66c808c98)">
     <use style="fill:#7ea297;fill-opacity:0.3;stroke:#7ea297;stroke-opacity:0.3;" x="0" xlink:href="#m29bc4c343a" y="345.6"/>
    </g>
   </g>
   <g id="line2d_1">
    <path clip-path="url(#pb66c808c98)" d="M 73.832727 307.574231 
L 82.157203 307.546942 
L 90.481678 307.519267 
L 98.806154 307.491615 
L 107.130629 307.463963 
L 115.455105 307.436311 
L 132.104056 307.410472 
L 140.428531 307.390753 
L 148.753007 307.390368 
L 157.077483 307.390368 
L 165.401958 307.390345 
L 173.726434 307.385903 
L 182.050909 307.371623 
L 190.375385 307.346646 
L 198.69986 307.28248 
L 207.024336 307.218313 
L 215.348811 307.153762 
L 223.673287 307.077719 
L 231.997762 306.992564 
L 240.322238 306.914436 
L 248.646713 306.840342 
L 273.62014 306.776538 
L 281.944615 306.712712 
L 290.269091 306.648999 
L 298.593566 306.594851 
L 306.918042 306.551673 
L 315.242517 306.478146 
L 323.566993 306.411192 
L 331.891469 306.373159 
L 348.54042 306.329097 
L 356.864895 306.275719 
L 365.189371 306.214613 
L 373.513846 306.104639 
L 381.838322 306.027826 
L 390.162797 305.9504 
L 398.487273 305.855817 
" style="fill:none;stroke:#60897e;stroke-linecap:square;stroke-width:2;"/>
   </g>
   <g id="line2d_2">
    <path clip-path="url(#pb66c808c98)" d="M 281.944615 306.712712 
L 290.269091 306.648999 
L 298.593566 306.594851 
L 306.918042 306.551673 
L 315.242517 306.478146 
L 323.566993 306.411192 
L 331.891469 306.373159 
L 348.54042 306.329097 
L 356.864895 306.275719 
L 365.189371 306.214613 
L 373.513846 306.104639 
L 381.838322 306.027826 
L 390.162797 305.9504 
L 398.487273 305.855817 
" style="fill:none;stroke:#427165;stroke-linecap:square;stroke-width:2;"/>
   </g>
  </g>
 </g>
 <defs>
  <clipPath id="pb66c808c98">
   <rect height="266.112" width="357.12" x="57.6" y="41.472"/>
  </clipPath>
 </defs>
</svg>
