<?xml version="1.0" encoding="utf-8" standalone="no"?>
<!DOCTYPE svg PUBLIC "-//W3C//DTD SVG 1.1//EN"
  "http://www.w3.org/Graphics/SVG/1.1/DTD/svg11.dtd">
<svg height="345.6pt" version="1.1" viewBox="0 0 460.8 345.6" width="460.8pt" xmlns="http://www.w3.org/2000/svg" xmlns:xlink="http://www.w3.org/1999/xlink">
 <metadata>
  <rdf:RDF xmlns:cc="http://creativecommons.org/ns#" xmlns:dc="http://purl.org/dc/elements/1.1/" xmlns:rdf="http://www.w3.org/1999/02/22-rdf-syntax-ns#">
   <cc:Work>
    <dc:type rdf:resource="http://purl.org/dc/dcmitype/StillImage"/>
    <dc:date>2021-05-17T10:41:12.051403</dc:date>
    <dc:format>image/svg+xml</dc:format>
    <dc:creator>
     <cc:Agent>
      <dc:title>Matplotlib v3.4.2, https://matplotlib.org/</dc:title>
     </cc:Agent>
    </dc:creator>
   </cc:Work>
  </rdf:RDF>
 </metadata>
 <defs>
  <style type="text/css">*{stroke-linecap:butt;stroke-linejoin:round;}</style>
 </defs>
 <g id="figure_1">
  <g id="patch_1">
   <path d="M 0 345.6 
L 460.8 345.6 
L 460.8 0 
L 0 0 
z
" style="fill:none;"/>
  </g>
  <g id="axes_1">
   <g id="matplotlib.axis_1"/>
   <g id="matplotlib.axis_2"/>
   <g id="PolyCollection_1">
    <defs>
     <path d="M 317.323636 -39.16784 
L 317.323636 -38.016 
L 332.541818 -38.016 
L 337.614545 -38.016 
L 342.687273 -38.016 
L 347.76 -38.016 
L 352.832727 -38.016 
L 357.905455 -38.016 
L 362.978182 -38.016 
L 368.050909 -38.016 
L 378.196364 -38.016 
L 383.269091 -38.016 
L 388.341818 -38.016 
L 393.414545 -38.016 
L 398.487273 -38.016 
L 398.487273 -40.126158 
L 398.487273 -40.126158 
L 393.414545 -40.016267 
L 388.341818 -39.881851 
L 383.269091 -39.739466 
L 378.196364 -39.616486 
L 368.050909 -39.515122 
L 362.978182 -39.444146 
L 357.905455 -39.371023 
L 352.832727 -39.2947 
L 347.76 -39.238011 
L 342.687273 -39.213774 
L 337.614545 -39.197712 
L 332.541818 -39.180392 
L 317.323636 -39.16784 
z
" id="m638e9841f5" style="stroke:#7ea297;stroke-opacity:0.5;"/>
    </defs>
    <g clip-path="url(#p12bf26bc5a)">
     <use style="fill:#7ea297;fill-opacity:0.5;stroke:#7ea297;stroke-opacity:0.5;" x="0" xlink:href="#m638e9841f5" y="345.6"/>
    </g>
   </g>
   <g id="PolyCollection_2">
    <defs>
     <path d="M 73.832727 -38.25624 
L 73.832727 -38.016 
L 78.905455 -38.016 
L 83.978182 -38.016 
L 89.050909 -38.016 
L 94.123636 -38.016 
L 99.196364 -38.016 
L 104.269091 -38.016 
L 109.341818 -38.016 
L 114.414545 -38.016 
L 119.487273 -38.016 
L 124.56 -38.016 
L 134.705455 -38.016 
L 139.778182 -38.016 
L 144.850909 -38.016 
L 149.923636 -38.016 
L 154.996364 -38.016 
L 160.069091 -38.016 
L 165.141818 -38.016 
L 170.214545 -38.016 
L 175.287273 -38.016 
L 180.36 -38.016 
L 185.432727 -38.016 
L 190.505455 -38.016 
L 195.578182 -38.016 
L 200.650909 -38.016 
L 205.723636 -38.016 
L 210.796364 -38.016 
L 215.869091 -38.016 
L 220.941818 -38.016 
L 226.014545 -38.016 
L 231.087273 -38.016 
L 236.16 -38.016 
L 246.305455 -38.016 
L 251.378182 -38.016 
L 256.450909 -38.016 
L 261.523636 -38.016 
L 266.596364 -38.016 
L 271.669091 -38.016 
L 276.741818 -38.016 
L 281.814545 -38.016 
L 286.887273 -38.016 
L 291.96 -38.016 
L 297.032727 -38.016 
L 302.105455 -38.016 
L 307.178182 -38.016 
L 312.250909 -38.016 
L 317.323636 -38.016 
L 317.323636 -39.16784 
L 317.323636 -39.16784 
L 312.250909 -39.130824 
L 307.178182 -39.089349 
L 302.105455 -39.030657 
L 297.032727 -38.952352 
L 291.96 -38.872149 
L 286.887273 -38.793245 
L 281.814545 -38.714755 
L 276.741818 -38.663143 
L 271.669091 -38.620224 
L 266.596364 -38.599414 
L 261.523636 -38.598588 
L 256.450909 -38.598485 
L 251.378182 -38.598382 
L 246.305455 -38.596297 
L 236.16 -38.591734 
L 231.087273 -38.581866 
L 226.014545 -38.571709 
L 220.941818 -38.561614 
L 215.869091 -38.551519 
L 210.796364 -38.541423 
L 205.723636 -38.533207 
L 200.650909 -38.526394 
L 195.578182 -38.523958 
L 190.505455 -38.520923 
L 185.432727 -38.513925 
L 180.36 -38.505997 
L 175.287273 -38.497987 
L 170.214545 -38.47854 
L 165.141818 -38.448213 
L 160.069091 -38.415595 
L 154.996364 -38.382192 
L 149.923636 -38.35265 
L 144.850909 -38.324037 
L 139.778182 -38.295506 
L 134.705455 -38.278495 
L 124.56 -38.273148 
L 119.487273 -38.271579 
L 114.414545 -38.271682 
L 109.341818 -38.271889 
L 104.269091 -38.272095 
L 99.196364 -38.271992 
L 94.123636 -38.271331 
L 89.050909 -38.274758 
L 83.978182 -38.268586 
L 78.905455 -38.262413 
L 73.832727 -38.25624 
z
" id="m9e1f139e61" style="stroke:#7ea297;stroke-opacity:0.3;"/>
    </defs>
    <g clip-path="url(#p12bf26bc5a)">
     <use style="fill:#7ea297;fill-opacity:0.3;stroke:#7ea297;stroke-opacity:0.3;" x="0" xlink:href="#m9e1f139e61" y="345.6"/>
    </g>
   </g>
   <g id="line2d_1">
    <path clip-path="url(#p12bf26bc5a)" d="M 73.832727 307.34376 
L 78.905455 307.337587 
L 83.978182 307.331414 
L 89.050909 307.325242 
L 94.123636 307.328669 
L 99.196364 307.328008 
L 104.269091 307.327905 
L 109.341818 307.328111 
L 114.414545 307.328318 
L 119.487273 307.328421 
L 124.56 307.326852 
L 134.705455 307.321505 
L 139.778182 307.304494 
L 144.850909 307.275963 
L 149.923636 307.24735 
L 154.996364 307.217808 
L 160.069091 307.184405 
L 165.141818 307.151787 
L 170.214545 307.12146 
L 175.287273 307.102013 
L 180.36 307.094003 
L 185.432727 307.086075 
L 190.505455 307.079077 
L 195.578182 307.076042 
L 200.650909 307.073606 
L 205.723636 307.066793 
L 210.796364 307.058577 
L 215.869091 307.048481 
L 220.941818 307.038386 
L 226.014545 307.028291 
L 231.087273 307.018134 
L 236.16 307.008266 
L 246.305455 307.003703 
L 251.378182 307.001618 
L 256.450909 307.001515 
L 261.523636 307.001412 
L 266.596364 307.000586 
L 271.669091 306.979776 
L 276.741818 306.936857 
L 281.814545 306.885245 
L 286.887273 306.806755 
L 291.96 306.727851 
L 297.032727 306.647648 
L 302.105455 306.569343 
L 307.178182 306.510651 
L 312.250909 306.469176 
L 317.323636 306.43216 
L 332.541818 306.419608 
L 337.614545 306.402288 
L 342.687273 306.386226 
L 347.76 306.361989 
L 352.832727 306.3053 
L 357.905455 306.228977 
L 362.978182 306.155854 
L 368.050909 306.084878 
L 378.196364 305.983514 
L 383.269091 305.860534 
L 388.341818 305.718149 
L 393.414545 305.583733 
L 398.487273 305.473842 
" style="fill:none;stroke:#60897e;stroke-linecap:square;stroke-width:2;"/>
   </g>
   <g id="line2d_2">
    <path clip-path="url(#p12bf26bc5a)" d="M 317.323636 306.43216 
L 332.541818 306.419608 
L 337.614545 306.402288 
L 342.687273 306.386226 
L 347.76 306.361989 
L 352.832727 306.3053 
L 357.905455 306.228977 
L 362.978182 306.155854 
L 368.050909 306.084878 
L 378.196364 305.983514 
L 383.269091 305.860534 
L 388.341818 305.718149 
L 393.414545 305.583733 
L 398.487273 305.473842 
" style="fill:none;stroke:#427165;stroke-linecap:square;stroke-width:2;"/>
   </g>
  </g>
 </g>
 <defs>
  <clipPath id="p12bf26bc5a">
   <rect height="266.112" width="357.12" x="57.6" y="41.472"/>
  </clipPath>
 </defs>
</svg>
