<?xml version="1.0" encoding="utf-8" standalone="no"?>
<!DOCTYPE svg PUBLIC "-//W3C//DTD SVG 1.1//EN"
  "http://www.w3.org/Graphics/SVG/1.1/DTD/svg11.dtd">
<svg height="345.6pt" version="1.1" viewBox="0 0 460.8 345.6" width="460.8pt" xmlns="http://www.w3.org/2000/svg" xmlns:xlink="http://www.w3.org/1999/xlink">
 <metadata>
  <rdf:RDF xmlns:cc="http://creativecommons.org/ns#" xmlns:dc="http://purl.org/dc/elements/1.1/" xmlns:rdf="http://www.w3.org/1999/02/22-rdf-syntax-ns#">
   <cc:Work>
    <dc:type rdf:resource="http://purl.org/dc/dcmitype/StillImage"/>
    <dc:date>2021-05-19T13:25:24.844821</dc:date>
    <dc:format>image/svg+xml</dc:format>
    <dc:creator>
     <cc:Agent>
      <dc:title>Matplotlib v3.4.2, https://matplotlib.org/</dc:title>
     </cc:Agent>
    </dc:creator>
   </cc:Work>
  </rdf:RDF>
 </metadata>
 <defs>
  <style type="text/css">*{stroke-linecap:butt;stroke-linejoin:round;}</style>
 </defs>
 <g id="figure_1">
  <g id="patch_1">
   <path d="M 0 345.6 
L 460.8 345.6 
L 460.8 0 
L 0 0 
z
" style="fill:none;"/>
  </g>
  <g id="axes_1">
   <g id="matplotlib.axis_1"/>
   <g id="matplotlib.axis_2"/>
   <g id="PolyCollection_1">
    <defs>
     <path d="M 329.621157 -73.227845 
L 329.621157 -38.016 
L 334.540165 -38.016 
L 339.459174 -38.016 
L 344.378182 -38.016 
L 349.29719 -38.016 
L 354.216198 -38.016 
L 359.135207 -38.016 
L 368.973223 -38.016 
L 373.892231 -38.016 
L 378.81124 -38.016 
L 383.730248 -38.016 
L 388.649256 -38.016 
L 393.568264 -38.016 
L 398.487273 -38.016 
L 398.487273 -88.264295 
L 398.487273 -88.264295 
L 393.568264 -89.72709 
L 388.649256 -89.738925 
L 383.730248 -89.749366 
L 378.81124 -88.819944 
L 373.892231 -87.341877 
L 368.973223 -85.362084 
L 359.135207 -83.258943 
L 354.216198 -80.209844 
L 349.29719 -78.500774 
L 344.378182 -76.659635 
L 339.459174 -75.612669 
L 334.540165 -74.502051 
L 329.621157 -73.227845 
z
" id="m67a54942b9" style="stroke:#7ea297;stroke-opacity:0.5;"/>
    </defs>
    <g clip-path="url(#pf38656a028)">
     <use style="fill:#7ea297;fill-opacity:0.5;stroke:#7ea297;stroke-opacity:0.5;" x="0" xlink:href="#m67a54942b9" y="345.6"/>
    </g>
   </g>
   <g id="PolyCollection_2">
    <defs>
     <path d="M 73.832727 -40.500209 
L 73.832727 -38.016 
L 78.751736 -38.016 
L 83.670744 -38.016 
L 88.589752 -38.016 
L 93.50876 -38.016 
L 98.427769 -38.016 
L 103.346777 -38.016 
L 108.265785 -38.016 
L 113.184793 -38.016 
L 118.103802 -38.016 
L 123.02281 -38.016 
L 132.860826 -38.016 
L 137.779835 -38.016 
L 142.698843 -38.016 
L 147.617851 -38.016 
L 152.53686 -38.016 
L 157.455868 -38.016 
L 162.374876 -38.016 
L 167.293884 -38.016 
L 172.212893 -38.016 
L 177.131901 -38.016 
L 182.050909 -38.016 
L 186.969917 -38.016 
L 191.888926 -38.016 
L 196.807934 -38.016 
L 201.726942 -38.016 
L 206.64595 -38.016 
L 211.564959 -38.016 
L 216.483967 -38.016 
L 221.402975 -38.016 
L 226.321983 -38.016 
L 231.240992 -38.016 
L 241.079008 -38.016 
L 245.998017 -38.016 
L 250.917025 -38.016 
L 255.836033 -38.016 
L 260.755041 -38.016 
L 265.67405 -38.016 
L 270.593058 -38.016 
L 275.512066 -38.016 
L 280.431074 -38.016 
L 285.350083 -38.016 
L 290.269091 -38.016 
L 295.188099 -38.016 
L 300.107107 -38.016 
L 305.026116 -38.016 
L 309.945124 -38.016 
L 324.702149 -38.016 
L 329.621157 -38.016 
L 329.621157 -73.227845 
L 329.621157 -73.227845 
L 324.702149 -72.40705 
L 309.945124 -71.638395 
L 305.026116 -70.986343 
L 300.107107 -70.377224 
L 295.188099 -69.769272 
L 290.269091 -69.148965 
L 285.350083 -68.589846 
L 280.431074 -67.974501 
L 275.512066 -67.359707 
L 270.593058 -66.679023 
L 265.67405 -66.016985 
L 260.755041 -65.499403 
L 255.836033 -65.122323 
L 250.917025 -64.881367 
L 245.998017 -64.563237 
L 241.079008 -63.977107 
L 231.240992 -63.278006 
L 226.321983 -62.383604 
L 221.402975 -61.330315 
L 216.483967 -60.090383 
L 211.564959 -58.829406 
L 206.64595 -57.602412 
L 201.726942 -56.512677 
L 196.807934 -55.585946 
L 191.888926 -54.849912 
L 186.969917 -54.212322 
L 182.050909 -53.678852 
L 177.131901 -53.095803 
L 172.212893 -52.538759 
L 167.293884 -51.986936 
L 162.374876 -51.412772 
L 157.455868 -50.658547 
L 152.53686 -49.853932 
L 147.617851 -49.066794 
L 142.698843 -48.309359 
L 137.779835 -47.468135 
L 132.860826 -46.621301 
L 123.02281 -45.780369 
L 118.103802 -45.109576 
L 113.184793 -44.444035 
L 108.265785 -43.797334 
L 103.346777 -43.204168 
L 98.427769 -42.620017 
L 93.50876 -42.093096 
L 88.589752 -41.606255 
L 83.670744 -41.159459 
L 78.751736 -40.806633 
L 73.832727 -40.500209 
z
" id="m3735ad1ffd" style="stroke:#7ea297;stroke-opacity:0.3;"/>
    </defs>
    <g clip-path="url(#pf38656a028)">
     <use style="fill:#7ea297;fill-opacity:0.3;stroke:#7ea297;stroke-opacity:0.3;" x="0" xlink:href="#m3735ad1ffd" y="345.6"/>
    </g>
   </g>
   <g id="line2d_1">
    <path clip-path="url(#pf38656a028)" d="M 73.832727 305.099791 
L 78.751736 304.793367 
L 83.670744 304.440541 
L 88.589752 303.993745 
L 93.50876 303.506904 
L 98.427769 302.979983 
L 103.346777 302.395832 
L 108.265785 301.802666 
L 113.184793 301.155965 
L 118.103802 300.490424 
L 123.02281 299.819631 
L 132.860826 298.978699 
L 137.779835 298.131865 
L 142.698843 297.290641 
L 147.617851 296.533206 
L 152.53686 295.746068 
L 157.455868 294.941453 
L 162.374876 294.187228 
L 167.293884 293.613064 
L 172.212893 293.061241 
L 177.131901 292.504197 
L 182.050909 291.921148 
L 186.969917 291.387678 
L 191.888926 290.750088 
L 196.807934 290.014054 
L 201.726942 289.087323 
L 206.64595 287.997588 
L 211.564959 286.770594 
L 216.483967 285.509617 
L 221.402975 284.269685 
L 226.321983 283.216396 
L 231.240992 282.321994 
L 241.079008 281.622893 
L 245.998017 281.036763 
L 250.917025 280.718633 
L 255.836033 280.477677 
L 260.755041 280.100597 
L 265.67405 279.583015 
L 270.593058 278.920977 
L 275.512066 278.240293 
L 280.431074 277.625499 
L 285.350083 277.010154 
L 290.269091 276.451035 
L 295.188099 275.830728 
L 300.107107 275.222776 
L 305.026116 274.613657 
L 309.945124 273.961605 
L 324.702149 273.19295 
L 329.621157 272.372155 
L 334.540165 271.097949 
L 339.459174 269.987331 
L 344.378182 268.940365 
L 349.29719 267.099226 
L 354.216198 265.390156 
L 359.135207 262.341057 
L 368.973223 260.237916 
L 373.892231 258.258123 
L 378.81124 256.780056 
L 383.730248 255.850634 
L 388.649256 255.861075 
L 393.568264 255.87291 
L 398.487273 257.335705 
" style="fill:none;stroke:#60897e;stroke-linecap:square;stroke-width:2;"/>
   </g>
   <g id="line2d_2">
    <path clip-path="url(#pf38656a028)" d="M 329.621157 272.372155 
L 334.540165 271.097949 
L 339.459174 269.987331 
L 344.378182 268.940365 
L 349.29719 267.099226 
L 354.216198 265.390156 
L 359.135207 262.341057 
L 368.973223 260.237916 
L 373.892231 258.258123 
L 378.81124 256.780056 
L 383.730248 255.850634 
L 388.649256 255.861075 
L 393.568264 255.87291 
L 398.487273 257.335705 
" style="fill:none;stroke:#427165;stroke-linecap:square;stroke-width:2;"/>
   </g>
  </g>
 </g>
 <defs>
  <clipPath id="pf38656a028">
   <rect height="266.112" width="357.12" x="57.6" y="41.472"/>
  </clipPath>
 </defs>
</svg>
