<?xml version="1.0" encoding="utf-8" standalone="no"?>
<!DOCTYPE svg PUBLIC "-//W3C//DTD SVG 1.1//EN"
  "http://www.w3.org/Graphics/SVG/1.1/DTD/svg11.dtd">
<!-- Created with matplotlib (https://matplotlib.org/) -->
<svg height="288pt" version="1.1" viewBox="0 0 432 288" width="432pt" xmlns="http://www.w3.org/2000/svg" xmlns:xlink="http://www.w3.org/1999/xlink">
 <metadata>
  <rdf:RDF xmlns:cc="http://creativecommons.org/ns#" xmlns:dc="http://purl.org/dc/elements/1.1/" xmlns:rdf="http://www.w3.org/1999/02/22-rdf-syntax-ns#">
   <cc:Work>
    <dc:type rdf:resource="http://purl.org/dc/dcmitype/StillImage"/>
    <dc:date>2021-05-14T21:42:57.311291</dc:date>
    <dc:format>image/svg+xml</dc:format>
    <dc:creator>
     <cc:Agent>
      <dc:title>Matplotlib v3.3.2, https://matplotlib.org/</dc:title>
     </cc:Agent>
    </dc:creator>
   </cc:Work>
  </rdf:RDF>
 </metadata>
 <defs>
  <style type="text/css">*{stroke-linecap:butt;stroke-linejoin:round;}</style>
 </defs>
 <g id="figure_1">
  <g id="patch_1">
   <path d="M 0 288 
L 432 288 
L 432 0 
L 0 0 
z
" style="fill:none;"/>
  </g>
  <g id="axes_1">
   <g id="matplotlib.axis_1"/>
   <g id="matplotlib.axis_2"/>
   <g id="PolyCollection_1">
    <defs>
     <path d="M 295.036364 -62.442342 
L 295.036364 -36 
L 299.945455 -36 
L 304.854545 -36 
L 319.581818 -36 
L 324.490909 -36 
L 329.4 -36 
L 334.309091 -36 
L 339.218182 -36 
L 344.127273 -36 
L 349.036364 -36 
L 353.945455 -36 
L 363.763636 -36 
L 368.672727 -36 
L 373.581818 -36 
L 373.581818 -77.511881 
L 373.581818 -77.511881 
L 368.672727 -76.304152 
L 363.763636 -74.686465 
L 353.945455 -72.967989 
L 349.036364 -70.476571 
L 344.127273 -69.080092 
L 339.218182 -67.575697 
L 334.309091 -66.720222 
L 329.4 -65.812737 
L 324.490909 -64.771583 
L 319.581818 -64.100912 
L 304.854545 -63.472844 
L 299.945455 -62.940053 
L 295.036364 -62.442342 
z
" id="mdefb6148c2" style="stroke:#7ea297;stroke-opacity:0.5;"/>
    </defs>
    <g clip-path="url(#p2a87fc5ef6)">
     <use style="fill:#7ea297;fill-opacity:0.5;stroke:#7ea297;stroke-opacity:0.5;" x="0" xlink:href="#mdefb6148c2" y="288"/>
    </g>
   </g>
   <g id="PolyCollection_2">
    <defs>
     <path d="M 69.218182 -38.029846 
L 69.218182 -36 
L 74.127273 -36 
L 79.036364 -36 
L 83.945455 -36 
L 88.854545 -36 
L 93.763636 -36 
L 98.672727 -36 
L 103.581818 -36 
L 108.490909 -36 
L 113.4 -36 
L 118.309091 -36 
L 128.127273 -36 
L 133.036364 -36 
L 137.945455 -36 
L 142.854545 -36 
L 147.763636 -36 
L 152.672727 -36 
L 157.581818 -36 
L 162.490909 -36 
L 167.4 -36 
L 172.309091 -36 
L 177.218182 -36 
L 182.127273 -36 
L 187.036364 -36 
L 191.945455 -36 
L 196.854545 -36 
L 201.763636 -36 
L 206.672727 -36 
L 211.581818 -36 
L 216.490909 -36 
L 221.4 -36 
L 226.309091 -36 
L 236.127273 -36 
L 241.036364 -36 
L 245.945455 -36 
L 250.854545 -36 
L 255.763636 -36 
L 260.672727 -36 
L 265.581818 -36 
L 270.490909 -36 
L 275.4 -36 
L 280.309091 -36 
L 285.218182 -36 
L 290.127273 -36 
L 295.036364 -36 
L 295.036364 -62.442342 
L 295.036364 -62.442342 
L 290.127273 -61.945584 
L 285.218182 -61.438732 
L 280.309091 -60.981877 
L 275.4 -60.479078 
L 270.490909 -59.97673 
L 265.581818 -59.420544 
L 260.672727 -58.879593 
L 255.763636 -58.456677 
L 250.854545 -58.148565 
L 245.945455 -57.95168 
L 241.036364 -57.691736 
L 236.127273 -57.212809 
L 226.309091 -56.641574 
L 221.4 -55.910758 
L 216.490909 -55.050117 
L 211.581818 -54.036969 
L 206.672727 -53.006625 
L 201.763636 -52.004049 
L 196.854545 -51.113627 
L 191.945455 -50.356395 
L 187.036364 -49.754982 
L 182.127273 -49.234008 
L 177.218182 -48.79811 
L 172.309091 -48.321701 
L 167.4 -47.86654 
L 162.490909 -47.415646 
L 157.581818 -46.946496 
L 152.672727 -46.330219 
L 147.763636 -45.672769 
L 142.854545 -45.029599 
L 137.945455 -44.410699 
L 133.036364 -43.723335 
L 128.127273 -43.031388 
L 118.309091 -42.344263 
L 113.4 -41.796158 
L 108.490909 -41.252345 
L 103.581818 -40.723926 
L 98.672727 -40.23925 
L 93.763636 -39.76194 
L 88.854545 -39.331394 
L 83.945455 -38.933596 
L 79.036364 -38.568519 
L 74.127273 -38.280225 
L 69.218182 -38.029846 
z
" id="mb7eff364c1" style="stroke:#7ea297;stroke-opacity:0.3;"/>
    </defs>
    <g clip-path="url(#p2a87fc5ef6)">
     <use style="fill:#7ea297;fill-opacity:0.3;stroke:#7ea297;stroke-opacity:0.3;" x="0" xlink:href="#mb7eff364c1" y="288"/>
    </g>
   </g>
   <g id="line2d_1">
    <path clip-path="url(#p2a87fc5ef6)" d="M 69.218182 249.970154 
L 74.127273 249.719775 
L 79.036364 249.431481 
L 83.945455 249.066404 
L 88.854545 248.668606 
L 93.763636 248.23806 
L 98.672727 247.76075 
L 103.581818 247.276074 
L 108.490909 246.747655 
L 113.4 246.203842 
L 118.309091 245.655737 
L 128.127273 244.968612 
L 133.036364 244.276665 
L 137.945455 243.589301 
L 142.854545 242.970401 
L 147.763636 242.327231 
L 152.672727 241.669781 
L 157.581818 241.053504 
L 162.490909 240.584354 
L 167.4 240.13346 
L 172.309091 239.678299 
L 177.218182 239.20189 
L 182.127273 238.765992 
L 187.036364 238.245018 
L 191.945455 237.643605 
L 196.854545 236.886373 
L 201.763636 235.995951 
L 206.672727 234.993375 
L 211.581818 233.963031 
L 216.490909 232.949883 
L 221.4 232.089242 
L 226.309091 231.358426 
L 236.127273 230.787191 
L 241.036364 230.308264 
L 245.945455 230.04832 
L 250.854545 229.851435 
L 255.763636 229.543323 
L 260.672727 229.120407 
L 265.581818 228.579456 
L 270.490909 228.02327 
L 275.4 227.520922 
L 280.309091 227.018123 
L 285.218182 226.561268 
L 290.127273 226.054416 
L 295.036364 225.557658 
L 299.945455 225.059947 
L 304.854545 224.527156 
L 319.581818 223.899088 
L 324.490909 223.228417 
L 329.4 222.187263 
L 334.309091 221.279778 
L 339.218182 220.424303 
L 344.127273 218.919908 
L 349.036364 217.523429 
L 353.945455 215.032011 
L 363.763636 213.313535 
L 368.672727 211.695848 
L 373.581818 210.488119 
" style="fill:none;stroke:#60897e;stroke-linecap:square;stroke-width:2;"/>
   </g>
   <g id="line2d_2">
    <path clip-path="url(#p2a87fc5ef6)" d="M 295.036364 225.557658 
L 299.945455 225.059947 
L 304.854545 224.527156 
L 319.581818 223.899088 
L 324.490909 223.228417 
L 329.4 222.187263 
L 334.309091 221.279778 
L 339.218182 220.424303 
L 344.127273 218.919908 
L 349.036364 217.523429 
L 353.945455 215.032011 
L 363.763636 213.313535 
L 368.672727 211.695848 
L 373.581818 210.488119 
" style="fill:none;stroke:#427165;stroke-linecap:square;stroke-width:2;"/>
   </g>
  </g>
 </g>
 <defs>
  <clipPath id="p2a87fc5ef6">
   <rect height="217.44" width="334.8" x="54" y="34.56"/>
  </clipPath>
 </defs>
</svg>
