<?xml version="1.0" encoding="utf-8" standalone="no"?>
<!DOCTYPE svg PUBLIC "-//W3C//DTD SVG 1.1//EN"
  "http://www.w3.org/Graphics/SVG/1.1/DTD/svg11.dtd">
<svg height="345.6pt" version="1.1" viewBox="0 0 460.8 345.6" width="460.8pt" xmlns="http://www.w3.org/2000/svg" xmlns:xlink="http://www.w3.org/1999/xlink">
 <metadata>
  <rdf:RDF xmlns:cc="http://creativecommons.org/ns#" xmlns:dc="http://purl.org/dc/elements/1.1/" xmlns:rdf="http://www.w3.org/1999/02/22-rdf-syntax-ns#">
   <cc:Work>
    <dc:type rdf:resource="http://purl.org/dc/dcmitype/StillImage"/>
    <dc:date>2021-05-20T13:25:47.034122</dc:date>
    <dc:format>image/svg+xml</dc:format>
    <dc:creator>
     <cc:Agent>
      <dc:title>Matplotlib v3.4.2, https://matplotlib.org/</dc:title>
     </cc:Agent>
    </dc:creator>
   </cc:Work>
  </rdf:RDF>
 </metadata>
 <defs>
  <style type="text/css">*{stroke-linecap:butt;stroke-linejoin:round;}</style>
 </defs>
 <g id="figure_1">
  <g id="patch_1">
   <path d="M 0 345.6 
L 460.8 345.6 
L 460.8 0 
L 0 0 
z
" style="fill:none;"/>
  </g>
  <g id="axes_1">
   <g id="matplotlib.axis_1"/>
   <g id="matplotlib.axis_2"/>
   <g id="PolyCollection_1">
    <defs>
     <path d="M 330.649009 -74.502051 
L 330.649009 -38.016 
L 335.4946 -38.016 
L 340.34019 -38.016 
L 345.18578 -38.016 
L 350.03137 -38.016 
L 354.876961 -38.016 
L 364.568141 -38.016 
L 369.413731 -38.016 
L 374.259322 -38.016 
L 379.104912 -38.016 
L 383.950502 -38.016 
L 388.796092 -38.016 
L 393.641682 -38.016 
L 398.487273 -38.016 
L 398.487273 -88.310437 
L 398.487273 -88.310437 
L 393.641682 -88.264295 
L 388.796092 -89.72709 
L 383.950502 -89.738925 
L 379.104912 -89.749366 
L 374.259322 -88.819944 
L 369.413731 -87.341877 
L 364.568141 -85.362084 
L 354.876961 -83.258943 
L 350.03137 -80.209844 
L 345.18578 -78.500774 
L 340.34019 -76.659635 
L 335.4946 -75.612669 
L 330.649009 -74.502051 
z
" id="m267747268d" style="stroke:#7ea297;stroke-opacity:0.5;"/>
    </defs>
    <g clip-path="url(#p6605a9c3b8)">
     <use style="fill:#7ea297;fill-opacity:0.5;stroke:#7ea297;stroke-opacity:0.5;" x="0" xlink:href="#m267747268d" y="345.6"/>
    </g>
   </g>
   <g id="PolyCollection_2">
    <defs>
     <path d="M 73.832727 -40.500209 
L 73.832727 -38.016 
L 78.678318 -38.016 
L 83.523908 -38.016 
L 88.369498 -38.016 
L 93.215088 -38.016 
L 98.060678 -38.016 
L 102.906269 -38.016 
L 107.751859 -38.016 
L 112.597449 -38.016 
L 117.443039 -38.016 
L 122.28863 -38.016 
L 131.97981 -38.016 
L 136.8254 -38.016 
L 141.670991 -38.016 
L 146.516581 -38.016 
L 151.362171 -38.016 
L 156.207761 -38.016 
L 161.053351 -38.016 
L 165.898942 -38.016 
L 170.744532 -38.016 
L 175.590122 -38.016 
L 180.435712 -38.016 
L 185.281303 -38.016 
L 190.126893 -38.016 
L 194.972483 -38.016 
L 199.818073 -38.016 
L 204.663664 -38.016 
L 209.509254 -38.016 
L 214.354844 -38.016 
L 219.200434 -38.016 
L 224.046024 -38.016 
L 228.891615 -38.016 
L 238.582795 -38.016 
L 243.428385 -38.016 
L 248.273976 -38.016 
L 253.119566 -38.016 
L 257.965156 -38.016 
L 262.810746 -38.016 
L 267.656336 -38.016 
L 272.501927 -38.016 
L 277.347517 -38.016 
L 282.193107 -38.016 
L 287.038697 -38.016 
L 291.884288 -38.016 
L 296.729878 -38.016 
L 301.575468 -38.016 
L 306.421058 -38.016 
L 320.957829 -38.016 
L 325.803419 -38.016 
L 330.649009 -38.016 
L 330.649009 -74.502051 
L 330.649009 -74.502051 
L 325.803419 -73.227845 
L 320.957829 -72.40705 
L 306.421058 -71.638395 
L 301.575468 -70.986343 
L 296.729878 -70.377224 
L 291.884288 -69.769272 
L 287.038697 -69.148965 
L 282.193107 -68.589846 
L 277.347517 -67.974501 
L 272.501927 -67.359707 
L 267.656336 -66.679023 
L 262.810746 -66.016985 
L 257.965156 -65.499403 
L 253.119566 -65.122323 
L 248.273976 -64.881367 
L 243.428385 -64.563237 
L 238.582795 -63.977107 
L 228.891615 -63.278006 
L 224.046024 -62.383604 
L 219.200434 -61.330315 
L 214.354844 -60.090383 
L 209.509254 -58.829406 
L 204.663664 -57.602412 
L 199.818073 -56.512677 
L 194.972483 -55.585946 
L 190.126893 -54.849912 
L 185.281303 -54.212322 
L 180.435712 -53.678852 
L 175.590122 -53.095803 
L 170.744532 -52.538759 
L 165.898942 -51.986936 
L 161.053351 -51.412772 
L 156.207761 -50.658547 
L 151.362171 -49.853932 
L 146.516581 -49.066794 
L 141.670991 -48.309359 
L 136.8254 -47.468135 
L 131.97981 -46.621301 
L 122.28863 -45.780369 
L 117.443039 -45.109576 
L 112.597449 -44.444035 
L 107.751859 -43.797334 
L 102.906269 -43.204168 
L 98.060678 -42.620017 
L 93.215088 -42.093096 
L 88.369498 -41.606255 
L 83.523908 -41.159459 
L 78.678318 -40.806633 
L 73.832727 -40.500209 
z
" id="m6cbbe000e0" style="stroke:#7ea297;stroke-opacity:0.3;"/>
    </defs>
    <g clip-path="url(#p6605a9c3b8)">
     <use style="fill:#7ea297;fill-opacity:0.3;stroke:#7ea297;stroke-opacity:0.3;" x="0" xlink:href="#m6cbbe000e0" y="345.6"/>
    </g>
   </g>
   <g id="line2d_1">
    <path clip-path="url(#p6605a9c3b8)" d="M 73.832727 305.099791 
L 78.678318 304.793367 
L 83.523908 304.440541 
L 88.369498 303.993745 
L 93.215088 303.506904 
L 98.060678 302.979983 
L 102.906269 302.395832 
L 107.751859 301.802666 
L 112.597449 301.155965 
L 117.443039 300.490424 
L 122.28863 299.819631 
L 131.97981 298.978699 
L 136.8254 298.131865 
L 141.670991 297.290641 
L 146.516581 296.533206 
L 151.362171 295.746068 
L 156.207761 294.941453 
L 161.053351 294.187228 
L 165.898942 293.613064 
L 170.744532 293.061241 
L 175.590122 292.504197 
L 180.435712 291.921148 
L 185.281303 291.387678 
L 190.126893 290.750088 
L 194.972483 290.014054 
L 199.818073 289.087323 
L 204.663664 287.997588 
L 209.509254 286.770594 
L 214.354844 285.509617 
L 219.200434 284.269685 
L 224.046024 283.216396 
L 228.891615 282.321994 
L 238.582795 281.622893 
L 243.428385 281.036763 
L 248.273976 280.718633 
L 253.119566 280.477677 
L 257.965156 280.100597 
L 262.810746 279.583015 
L 267.656336 278.920977 
L 272.501927 278.240293 
L 277.347517 277.625499 
L 282.193107 277.010154 
L 287.038697 276.451035 
L 291.884288 275.830728 
L 296.729878 275.222776 
L 301.575468 274.613657 
L 306.421058 273.961605 
L 320.957829 273.19295 
L 325.803419 272.372155 
L 330.649009 271.097949 
L 335.4946 269.987331 
L 340.34019 268.940365 
L 345.18578 267.099226 
L 350.03137 265.390156 
L 354.876961 262.341057 
L 364.568141 260.237916 
L 369.413731 258.258123 
L 374.259322 256.780056 
L 379.104912 255.850634 
L 383.950502 255.861075 
L 388.796092 255.87291 
L 393.641682 257.335705 
L 398.487273 257.289563 
" style="fill:none;stroke:#60897e;stroke-linecap:square;stroke-width:2;"/>
   </g>
   <g id="line2d_2">
    <path clip-path="url(#p6605a9c3b8)" d="M 330.649009 271.097949 
L 335.4946 269.987331 
L 340.34019 268.940365 
L 345.18578 267.099226 
L 350.03137 265.390156 
L 354.876961 262.341057 
L 364.568141 260.237916 
L 369.413731 258.258123 
L 374.259322 256.780056 
L 379.104912 255.850634 
L 383.950502 255.861075 
L 388.796092 255.87291 
L 393.641682 257.335705 
L 398.487273 257.289563 
" style="fill:none;stroke:#427165;stroke-linecap:square;stroke-width:2;"/>
   </g>
  </g>
 </g>
 <defs>
  <clipPath id="p6605a9c3b8">
   <rect height="266.112" width="357.12" x="57.6" y="41.472"/>
  </clipPath>
 </defs>
</svg>
