<?xml version="1.0" encoding="utf-8" standalone="no"?>
<!DOCTYPE svg PUBLIC "-//W3C//DTD SVG 1.1//EN"
  "http://www.w3.org/Graphics/SVG/1.1/DTD/svg11.dtd">
<svg height="345.6pt" version="1.1" viewBox="0 0 460.8 345.6" width="460.8pt" xmlns="http://www.w3.org/2000/svg" xmlns:xlink="http://www.w3.org/1999/xlink">
 <metadata>
  <rdf:RDF xmlns:cc="http://creativecommons.org/ns#" xmlns:dc="http://purl.org/dc/elements/1.1/" xmlns:rdf="http://www.w3.org/1999/02/22-rdf-syntax-ns#">
   <cc:Work>
    <dc:type rdf:resource="http://purl.org/dc/dcmitype/StillImage"/>
    <dc:date>2021-05-17T10:41:12.320759</dc:date>
    <dc:format>image/svg+xml</dc:format>
    <dc:creator>
     <cc:Agent>
      <dc:title>Matplotlib v3.4.2, https://matplotlib.org/</dc:title>
     </cc:Agent>
    </dc:creator>
   </cc:Work>
  </rdf:RDF>
 </metadata>
 <defs>
  <style type="text/css">*{stroke-linecap:butt;stroke-linejoin:round;}</style>
 </defs>
 <g id="figure_1">
  <g id="patch_1">
   <path d="M 0 345.6 
L 460.8 345.6 
L 460.8 0 
L 0 0 
z
" style="fill:none;"/>
  </g>
  <g id="axes_1">
   <g id="matplotlib.axis_1"/>
   <g id="matplotlib.axis_2"/>
   <g id="PolyCollection_1">
    <defs>
     <path d="M 317.323636 -42.133285 
L 317.323636 -38.016 
L 332.541818 -38.016 
L 337.614545 -38.016 
L 342.687273 -38.016 
L 347.76 -38.016 
L 352.832727 -38.016 
L 357.905455 -38.016 
L 362.978182 -38.016 
L 368.050909 -38.016 
L 378.196364 -38.016 
L 383.269091 -38.016 
L 388.341818 -38.016 
L 393.414545 -38.016 
L 398.487273 -38.016 
L 398.487273 -43.416571 
L 398.487273 -43.416571 
L 393.414545 -43.202195 
L 388.341818 -42.987819 
L 383.269091 -42.852523 
L 378.196364 -42.801255 
L 368.050909 -42.801552 
L 362.978182 -42.801849 
L 357.905455 -42.802146 
L 352.832727 -42.79403 
L 347.76 -42.744246 
L 342.687273 -42.604001 
L 337.614545 -42.63983 
L 332.541818 -42.386557 
L 317.323636 -42.133285 
z
" id="m920752cbbf" style="stroke:#7ea297;stroke-opacity:0.5;"/>
    </defs>
    <g clip-path="url(#p87b251079f)">
     <use style="fill:#7ea297;fill-opacity:0.5;stroke:#7ea297;stroke-opacity:0.5;" x="0" xlink:href="#m920752cbbf" y="345.6"/>
    </g>
   </g>
   <g id="PolyCollection_2">
    <defs>
     <path d="M 73.832727 -38.698519 
L 73.832727 -38.016 
L 78.905455 -38.016 
L 83.978182 -38.016 
L 89.050909 -38.016 
L 94.123636 -38.016 
L 99.196364 -38.016 
L 104.269091 -38.016 
L 109.341818 -38.016 
L 114.414545 -38.016 
L 119.487273 -38.016 
L 124.56 -38.016 
L 134.705455 -38.016 
L 139.778182 -38.016 
L 144.850909 -38.016 
L 149.923636 -38.016 
L 154.996364 -38.016 
L 160.069091 -38.016 
L 165.141818 -38.016 
L 170.214545 -38.016 
L 175.287273 -38.016 
L 180.36 -38.016 
L 185.432727 -38.016 
L 190.505455 -38.016 
L 195.578182 -38.016 
L 200.650909 -38.016 
L 205.723636 -38.016 
L 210.796364 -38.016 
L 215.869091 -38.016 
L 220.941818 -38.016 
L 226.014545 -38.016 
L 231.087273 -38.016 
L 236.16 -38.016 
L 246.305455 -38.016 
L 251.378182 -38.016 
L 256.450909 -38.016 
L 261.523636 -38.016 
L 266.596364 -38.016 
L 271.669091 -38.016 
L 276.741818 -38.016 
L 281.814545 -38.016 
L 286.887273 -38.016 
L 291.96 -38.016 
L 297.032727 -38.016 
L 302.105455 -38.016 
L 307.178182 -38.016 
L 312.250909 -38.016 
L 317.323636 -38.016 
L 317.323636 -42.133285 
L 317.323636 -42.133285 
L 312.250909 -41.778565 
L 307.178182 -41.392174 
L 302.105455 -41.005386 
L 297.032727 -40.709061 
L 291.96 -40.236662 
L 286.887273 -40.053066 
L 281.814545 -39.869471 
L 276.741818 -39.787323 
L 271.669091 -39.74526 
L 266.596364 -39.74526 
L 261.523636 -39.74526 
L 256.450909 -39.74526 
L 251.378182 -39.74526 
L 246.305455 -39.74526 
L 236.16 -39.73655 
L 231.087273 -39.687063 
L 226.014545 -39.637577 
L 220.941818 -39.58809 
L 215.869091 -39.538604 
L 210.796364 -39.489117 
L 205.723636 -39.43963 
L 200.650909 -39.396379 
L 195.578182 -39.393806 
L 190.505455 -39.389055 
L 185.432727 -39.373318 
L 180.36 -39.357582 
L 175.287273 -39.341845 
L 170.214545 -39.313539 
L 165.141818 -39.272168 
L 160.069091 -39.180816 
L 154.996364 -39.086989 
L 149.923636 -39.004148 
L 144.850909 -38.921308 
L 139.778182 -38.838467 
L 134.705455 -38.768196 
L 124.56 -38.713464 
L 119.487273 -38.708812 
L 114.414545 -38.708812 
L 109.341818 -38.708812 
L 104.269091 -38.708812 
L 99.196364 -38.708812 
L 94.123636 -38.708812 
L 89.050909 -38.727518 
L 83.978182 -38.746224 
L 78.905455 -38.722372 
L 73.832727 -38.698519 
z
" id="md962cd2e98" style="stroke:#7ea297;stroke-opacity:0.3;"/>
    </defs>
    <g clip-path="url(#p87b251079f)">
     <use style="fill:#7ea297;fill-opacity:0.3;stroke:#7ea297;stroke-opacity:0.3;" x="0" xlink:href="#md962cd2e98" y="345.6"/>
    </g>
   </g>
   <g id="line2d_1">
    <path clip-path="url(#p87b251079f)" d="M 73.832727 306.901481 
L 78.905455 306.877628 
L 83.978182 306.853776 
L 89.050909 306.872482 
L 94.123636 306.891188 
L 99.196364 306.891188 
L 104.269091 306.891188 
L 109.341818 306.891188 
L 114.414545 306.891188 
L 119.487273 306.891188 
L 124.56 306.886536 
L 134.705455 306.831804 
L 139.778182 306.761533 
L 144.850909 306.678692 
L 149.923636 306.595852 
L 154.996364 306.513011 
L 160.069091 306.419184 
L 165.141818 306.327832 
L 170.214545 306.286461 
L 175.287273 306.258155 
L 180.36 306.242418 
L 185.432727 306.226682 
L 190.505455 306.210945 
L 195.578182 306.206194 
L 200.650909 306.203621 
L 205.723636 306.16037 
L 210.796364 306.110883 
L 215.869091 306.061396 
L 220.941818 306.01191 
L 226.014545 305.962423 
L 231.087273 305.912937 
L 236.16 305.86345 
L 246.305455 305.85474 
L 251.378182 305.85474 
L 256.450909 305.85474 
L 261.523636 305.85474 
L 266.596364 305.85474 
L 271.669091 305.85474 
L 276.741818 305.812677 
L 281.814545 305.730529 
L 286.887273 305.546934 
L 291.96 305.363338 
L 297.032727 304.890939 
L 302.105455 304.594614 
L 307.178182 304.207826 
L 312.250909 303.821435 
L 317.323636 303.466715 
L 332.541818 303.213443 
L 337.614545 302.96017 
L 342.687273 302.995999 
L 347.76 302.855754 
L 352.832727 302.80597 
L 357.905455 302.797854 
L 362.978182 302.798151 
L 368.050909 302.798448 
L 378.196364 302.798745 
L 383.269091 302.747477 
L 388.341818 302.612181 
L 393.414545 302.397805 
L 398.487273 302.183429 
" style="fill:none;stroke:#60897e;stroke-linecap:square;stroke-width:2;"/>
   </g>
   <g id="line2d_2">
    <path clip-path="url(#p87b251079f)" d="M 317.323636 303.466715 
L 332.541818 303.213443 
L 337.614545 302.96017 
L 342.687273 302.995999 
L 347.76 302.855754 
L 352.832727 302.80597 
L 357.905455 302.797854 
L 362.978182 302.798151 
L 368.050909 302.798448 
L 378.196364 302.798745 
L 383.269091 302.747477 
L 388.341818 302.612181 
L 393.414545 302.397805 
L 398.487273 302.183429 
" style="fill:none;stroke:#427165;stroke-linecap:square;stroke-width:2;"/>
   </g>
  </g>
 </g>
 <defs>
  <clipPath id="p87b251079f">
   <rect height="266.112" width="357.12" x="57.6" y="41.472"/>
  </clipPath>
 </defs>
</svg>
