<?xml version="1.0" encoding="utf-8" standalone="no"?>
<!DOCTYPE svg PUBLIC "-//W3C//DTD SVG 1.1//EN"
  "http://www.w3.org/Graphics/SVG/1.1/DTD/svg11.dtd">
<!-- Created with matplotlib (https://matplotlib.org/) -->
<svg height="288pt" version="1.1" viewBox="0 0 432 288" width="432pt" xmlns="http://www.w3.org/2000/svg" xmlns:xlink="http://www.w3.org/1999/xlink">
 <metadata>
  <rdf:RDF xmlns:cc="http://creativecommons.org/ns#" xmlns:dc="http://purl.org/dc/elements/1.1/" xmlns:rdf="http://www.w3.org/1999/02/22-rdf-syntax-ns#">
   <cc:Work>
    <dc:type rdf:resource="http://purl.org/dc/dcmitype/StillImage"/>
    <dc:date>2021-05-14T21:42:57.332117</dc:date>
    <dc:format>image/svg+xml</dc:format>
    <dc:creator>
     <cc:Agent>
      <dc:title>Matplotlib v3.3.2, https://matplotlib.org/</dc:title>
     </cc:Agent>
    </dc:creator>
   </cc:Work>
  </rdf:RDF>
 </metadata>
 <defs>
  <style type="text/css">*{stroke-linecap:butt;stroke-linejoin:round;}</style>
 </defs>
 <g id="figure_1">
  <g id="patch_1">
   <path d="M 0 288 
L 432 288 
L 432 0 
L 0 0 
z
" style="fill:none;"/>
  </g>
  <g id="axes_1">
   <g id="matplotlib.axis_1"/>
   <g id="matplotlib.axis_2"/>
   <g id="PolyCollection_1">
    <defs>
     <path d="M 295.036364 -38.75867 
L 295.036364 -36 
L 299.945455 -36 
L 304.854545 -36 
L 319.581818 -36 
L 324.490909 -36 
L 329.4 -36 
L 334.309091 -36 
L 339.218182 -36 
L 344.127273 -36 
L 349.036364 -36 
L 353.945455 -36 
L 363.763636 -36 
L 368.672727 -36 
L 373.581818 -36 
L 373.581818 -40.062472 
L 373.581818 -40.062472 
L 368.672727 -39.951921 
L 363.763636 -39.91003 
L 353.945455 -39.910272 
L 349.036364 -39.910515 
L 344.127273 -39.910758 
L 339.218182 -39.904126 
L 334.309091 -39.863448 
L 329.4 -39.748854 
L 324.490909 -39.778129 
L 319.581818 -39.57118 
L 304.854545 -39.364232 
L 299.945455 -39.07439 
L 295.036364 -38.75867 
z
" id="mc03c9cc7c7" style="stroke:#7ea297;stroke-opacity:0.5;"/>
    </defs>
    <g clip-path="url(#pb505c8bffd)">
     <use style="fill:#7ea297;fill-opacity:0.5;stroke:#7ea297;stroke-opacity:0.5;" x="0" xlink:href="#mc03c9cc7c7" y="288"/>
    </g>
   </g>
   <g id="PolyCollection_2">
    <defs>
     <path d="M 69.218182 -36.557686 
L 69.218182 -36 
L 74.127273 -36 
L 79.036364 -36 
L 83.945455 -36 
L 88.854545 -36 
L 93.763636 -36 
L 98.672727 -36 
L 103.581818 -36 
L 108.490909 -36 
L 113.4 -36 
L 118.309091 -36 
L 128.127273 -36 
L 133.036364 -36 
L 137.945455 -36 
L 142.854545 -36 
L 147.763636 -36 
L 152.672727 -36 
L 157.581818 -36 
L 162.490909 -36 
L 167.4 -36 
L 172.309091 -36 
L 177.218182 -36 
L 182.127273 -36 
L 187.036364 -36 
L 191.945455 -36 
L 196.854545 -36 
L 201.763636 -36 
L 206.672727 -36 
L 211.581818 -36 
L 216.490909 -36 
L 221.4 -36 
L 226.309091 -36 
L 236.127273 -36 
L 241.036364 -36 
L 245.945455 -36 
L 250.854545 -36 
L 255.763636 -36 
L 260.672727 -36 
L 265.581818 -36 
L 270.490909 -36 
L 275.4 -36 
L 280.309091 -36 
L 285.218182 -36 
L 290.127273 -36 
L 295.036364 -36 
L 295.036364 -38.75867 
L 295.036364 -38.75867 
L 290.127273 -38.442626 
L 285.218182 -38.200499 
L 280.309091 -37.814502 
L 275.4 -37.664486 
L 270.490909 -37.51447 
L 265.581818 -37.447347 
L 260.672727 -37.412977 
L 255.763636 -37.412977 
L 250.854545 -37.412977 
L 245.945455 -37.412977 
L 241.036364 -37.412977 
L 236.127273 -37.412977 
L 226.309091 -37.405861 
L 221.4 -37.365425 
L 216.490909 -37.32499 
L 211.581818 -37.284554 
L 206.672727 -37.244119 
L 201.763636 -37.203683 
L 196.854545 -37.163248 
L 191.945455 -37.127907 
L 187.036364 -37.125805 
L 182.127273 -37.121923 
L 177.218182 -37.109064 
L 172.309091 -37.096206 
L 167.4 -37.083347 
L 162.490909 -37.060218 
L 157.581818 -37.026414 
L 152.672727 -36.95177 
L 147.763636 -36.875105 
L 142.854545 -36.807416 
L 137.945455 -36.739727 
L 133.036364 -36.672038 
L 128.127273 -36.614619 
L 118.309091 -36.569898 
L 113.4 -36.566097 
L 108.490909 -36.566097 
L 103.581818 -36.566097 
L 98.672727 -36.566097 
L 93.763636 -36.566097 
L 88.854545 -36.566097 
L 83.945455 -36.581381 
L 79.036364 -36.596666 
L 74.127273 -36.577176 
L 69.218182 -36.557686 
z
" id="m847c67ce87" style="stroke:#7ea297;stroke-opacity:0.3;"/>
    </defs>
    <g clip-path="url(#pb505c8bffd)">
     <use style="fill:#7ea297;fill-opacity:0.3;stroke:#7ea297;stroke-opacity:0.3;" x="0" xlink:href="#m847c67ce87" y="288"/>
    </g>
   </g>
   <g id="line2d_1">
    <path clip-path="url(#pb505c8bffd)" d="M 69.218182 251.442314 
L 74.127273 251.422824 
L 79.036364 251.403334 
L 83.945455 251.418619 
L 88.854545 251.433903 
L 93.763636 251.433903 
L 98.672727 251.433903 
L 103.581818 251.433903 
L 108.490909 251.433903 
L 113.4 251.433903 
L 118.309091 251.430102 
L 128.127273 251.385381 
L 133.036364 251.327962 
L 137.945455 251.260273 
L 142.854545 251.192584 
L 147.763636 251.124895 
L 152.672727 251.04823 
L 157.581818 250.973586 
L 162.490909 250.939782 
L 167.4 250.916653 
L 172.309091 250.903794 
L 177.218182 250.890936 
L 182.127273 250.878077 
L 187.036364 250.874195 
L 191.945455 250.872093 
L 196.854545 250.836752 
L 201.763636 250.796317 
L 206.672727 250.755881 
L 211.581818 250.715446 
L 216.490909 250.67501 
L 221.4 250.634575 
L 226.309091 250.594139 
L 236.127273 250.587023 
L 241.036364 250.587023 
L 245.945455 250.587023 
L 250.854545 250.587023 
L 255.763636 250.587023 
L 260.672727 250.587023 
L 265.581818 250.552653 
L 270.490909 250.48553 
L 275.4 250.335514 
L 280.309091 250.185498 
L 285.218182 249.799501 
L 290.127273 249.557374 
L 295.036364 249.24133 
L 299.945455 248.92561 
L 304.854545 248.635768 
L 319.581818 248.42882 
L 324.490909 248.221871 
L 329.4 248.251146 
L 334.309091 248.136552 
L 339.218182 248.095874 
L 344.127273 248.089242 
L 349.036364 248.089485 
L 353.945455 248.089728 
L 363.763636 248.08997 
L 368.672727 248.048079 
L 373.581818 247.937528 
" style="fill:none;stroke:#60897e;stroke-linecap:square;stroke-width:2;"/>
   </g>
   <g id="line2d_2">
    <path clip-path="url(#pb505c8bffd)" d="M 295.036364 249.24133 
L 299.945455 248.92561 
L 304.854545 248.635768 
L 319.581818 248.42882 
L 324.490909 248.221871 
L 329.4 248.251146 
L 334.309091 248.136552 
L 339.218182 248.095874 
L 344.127273 248.089242 
L 349.036364 248.089485 
L 353.945455 248.089728 
L 363.763636 248.08997 
L 368.672727 248.048079 
L 373.581818 247.937528 
" style="fill:none;stroke:#427165;stroke-linecap:square;stroke-width:2;"/>
   </g>
  </g>
 </g>
 <defs>
  <clipPath id="pb505c8bffd">
   <rect height="217.44" width="334.8" x="54" y="34.56"/>
  </clipPath>
 </defs>
</svg>
