<?xml version="1.0" encoding="utf-8" standalone="no"?>
<!DOCTYPE svg PUBLIC "-//W3C//DTD SVG 1.1//EN"
  "http://www.w3.org/Graphics/SVG/1.1/DTD/svg11.dtd">
<svg height="345.6pt" version="1.1" viewBox="0 0 460.8 345.6" width="460.8pt" xmlns="http://www.w3.org/2000/svg" xmlns:xlink="http://www.w3.org/1999/xlink">
 <metadata>
  <rdf:RDF xmlns:cc="http://creativecommons.org/ns#" xmlns:dc="http://purl.org/dc/elements/1.1/" xmlns:rdf="http://www.w3.org/1999/02/22-rdf-syntax-ns#">
   <cc:Work>
    <dc:type rdf:resource="http://purl.org/dc/dcmitype/StillImage"/>
    <dc:date>2021-05-18T13:26:33.711900</dc:date>
    <dc:format>image/svg+xml</dc:format>
    <dc:creator>
     <cc:Agent>
      <dc:title>Matplotlib v3.4.2, https://matplotlib.org/</dc:title>
     </cc:Agent>
    </dc:creator>
   </cc:Work>
  </rdf:RDF>
 </metadata>
 <defs>
  <style type="text/css">*{stroke-linecap:butt;stroke-linejoin:round;}</style>
 </defs>
 <g id="figure_1">
  <g id="patch_1">
   <path d="M 0 345.6 
L 460.8 345.6 
L 460.8 0 
L 0 0 
z
" style="fill:none;"/>
  </g>
  <g id="axes_1">
   <g id="matplotlib.axis_1"/>
   <g id="matplotlib.axis_2"/>
   <g id="PolyCollection_1">
    <defs>
     <path d="M 329.621157 -42.63983 
L 329.621157 -38.016 
L 334.540165 -38.016 
L 339.459174 -38.016 
L 344.378182 -38.016 
L 349.29719 -38.016 
L 354.216198 -38.016 
L 359.135207 -38.016 
L 368.973223 -38.016 
L 373.892231 -38.016 
L 378.81124 -38.016 
L 383.730248 -38.016 
L 388.649256 -38.016 
L 393.568264 -38.016 
L 398.487273 -38.016 
L 398.487273 -43.973889 
L 398.487273 -43.973889 
L 393.568264 -43.630947 
L 388.649256 -43.416571 
L 383.730248 -43.202195 
L 378.81124 -42.987819 
L 373.892231 -42.852523 
L 368.973223 -42.801255 
L 359.135207 -42.801552 
L 354.216198 -42.801849 
L 349.29719 -42.802146 
L 344.378182 -42.79403 
L 339.459174 -42.744246 
L 334.540165 -42.604001 
L 329.621157 -42.63983 
z
" id="m0c4eadbfc9" style="stroke:#7ea297;stroke-opacity:0.5;"/>
    </defs>
    <g clip-path="url(#p4fb2507bfe)">
     <use style="fill:#7ea297;fill-opacity:0.5;stroke:#7ea297;stroke-opacity:0.5;" x="0" xlink:href="#m0c4eadbfc9" y="345.6"/>
    </g>
   </g>
   <g id="PolyCollection_2">
    <defs>
     <path d="M 73.832727 -38.698519 
L 73.832727 -38.016 
L 78.751736 -38.016 
L 83.670744 -38.016 
L 88.589752 -38.016 
L 93.50876 -38.016 
L 98.427769 -38.016 
L 103.346777 -38.016 
L 108.265785 -38.016 
L 113.184793 -38.016 
L 118.103802 -38.016 
L 123.02281 -38.016 
L 132.860826 -38.016 
L 137.779835 -38.016 
L 142.698843 -38.016 
L 147.617851 -38.016 
L 152.53686 -38.016 
L 157.455868 -38.016 
L 162.374876 -38.016 
L 167.293884 -38.016 
L 172.212893 -38.016 
L 177.131901 -38.016 
L 182.050909 -38.016 
L 186.969917 -38.016 
L 191.888926 -38.016 
L 196.807934 -38.016 
L 201.726942 -38.016 
L 206.64595 -38.016 
L 211.564959 -38.016 
L 216.483967 -38.016 
L 221.402975 -38.016 
L 226.321983 -38.016 
L 231.240992 -38.016 
L 241.079008 -38.016 
L 245.998017 -38.016 
L 250.917025 -38.016 
L 255.836033 -38.016 
L 260.755041 -38.016 
L 265.67405 -38.016 
L 270.593058 -38.016 
L 275.512066 -38.016 
L 280.431074 -38.016 
L 285.350083 -38.016 
L 290.269091 -38.016 
L 295.188099 -38.016 
L 300.107107 -38.016 
L 305.026116 -38.016 
L 309.945124 -38.016 
L 324.702149 -38.016 
L 329.621157 -38.016 
L 329.621157 -42.63983 
L 329.621157 -42.63983 
L 324.702149 -42.386557 
L 309.945124 -42.133285 
L 305.026116 -41.778565 
L 300.107107 -41.392174 
L 295.188099 -41.005386 
L 290.269091 -40.709061 
L 285.350083 -40.236662 
L 280.431074 -40.053066 
L 275.512066 -39.869471 
L 270.593058 -39.787323 
L 265.67405 -39.74526 
L 260.755041 -39.74526 
L 255.836033 -39.74526 
L 250.917025 -39.74526 
L 245.998017 -39.74526 
L 241.079008 -39.74526 
L 231.240992 -39.73655 
L 226.321983 -39.687063 
L 221.402975 -39.637577 
L 216.483967 -39.58809 
L 211.564959 -39.538604 
L 206.64595 -39.489117 
L 201.726942 -39.43963 
L 196.807934 -39.396379 
L 191.888926 -39.393806 
L 186.969917 -39.389055 
L 182.050909 -39.373318 
L 177.131901 -39.357582 
L 172.212893 -39.341845 
L 167.293884 -39.313539 
L 162.374876 -39.272168 
L 157.455868 -39.180816 
L 152.53686 -39.086989 
L 147.617851 -39.004148 
L 142.698843 -38.921308 
L 137.779835 -38.838467 
L 132.860826 -38.768196 
L 123.02281 -38.713464 
L 118.103802 -38.708812 
L 113.184793 -38.708812 
L 108.265785 -38.708812 
L 103.346777 -38.708812 
L 98.427769 -38.708812 
L 93.50876 -38.708812 
L 88.589752 -38.727518 
L 83.670744 -38.746224 
L 78.751736 -38.722372 
L 73.832727 -38.698519 
z
" id="mf6889f4161" style="stroke:#7ea297;stroke-opacity:0.3;"/>
    </defs>
    <g clip-path="url(#p4fb2507bfe)">
     <use style="fill:#7ea297;fill-opacity:0.3;stroke:#7ea297;stroke-opacity:0.3;" x="0" xlink:href="#mf6889f4161" y="345.6"/>
    </g>
   </g>
   <g id="line2d_1">
    <path clip-path="url(#p4fb2507bfe)" d="M 73.832727 306.901481 
L 78.751736 306.877628 
L 83.670744 306.853776 
L 88.589752 306.872482 
L 93.50876 306.891188 
L 98.427769 306.891188 
L 103.346777 306.891188 
L 108.265785 306.891188 
L 113.184793 306.891188 
L 118.103802 306.891188 
L 123.02281 306.886536 
L 132.860826 306.831804 
L 137.779835 306.761533 
L 142.698843 306.678692 
L 147.617851 306.595852 
L 152.53686 306.513011 
L 157.455868 306.419184 
L 162.374876 306.327832 
L 167.293884 306.286461 
L 172.212893 306.258155 
L 177.131901 306.242418 
L 182.050909 306.226682 
L 186.969917 306.210945 
L 191.888926 306.206194 
L 196.807934 306.203621 
L 201.726942 306.16037 
L 206.64595 306.110883 
L 211.564959 306.061396 
L 216.483967 306.01191 
L 221.402975 305.962423 
L 226.321983 305.912937 
L 231.240992 305.86345 
L 241.079008 305.85474 
L 245.998017 305.85474 
L 250.917025 305.85474 
L 255.836033 305.85474 
L 260.755041 305.85474 
L 265.67405 305.85474 
L 270.593058 305.812677 
L 275.512066 305.730529 
L 280.431074 305.546934 
L 285.350083 305.363338 
L 290.269091 304.890939 
L 295.188099 304.594614 
L 300.107107 304.207826 
L 305.026116 303.821435 
L 309.945124 303.466715 
L 324.702149 303.213443 
L 329.621157 302.96017 
L 334.540165 302.995999 
L 339.459174 302.855754 
L 344.378182 302.80597 
L 349.29719 302.797854 
L 354.216198 302.798151 
L 359.135207 302.798448 
L 368.973223 302.798745 
L 373.892231 302.747477 
L 378.81124 302.612181 
L 383.730248 302.397805 
L 388.649256 302.183429 
L 393.568264 301.969053 
L 398.487273 301.626111 
" style="fill:none;stroke:#60897e;stroke-linecap:square;stroke-width:2;"/>
   </g>
   <g id="line2d_2">
    <path clip-path="url(#p4fb2507bfe)" d="M 329.621157 302.96017 
L 334.540165 302.995999 
L 339.459174 302.855754 
L 344.378182 302.80597 
L 349.29719 302.797854 
L 354.216198 302.798151 
L 359.135207 302.798448 
L 368.973223 302.798745 
L 373.892231 302.747477 
L 378.81124 302.612181 
L 383.730248 302.397805 
L 388.649256 302.183429 
L 393.568264 301.969053 
L 398.487273 301.626111 
" style="fill:none;stroke:#427165;stroke-linecap:square;stroke-width:2;"/>
   </g>
  </g>
 </g>
 <defs>
  <clipPath id="p4fb2507bfe">
   <rect height="266.112" width="357.12" x="57.6" y="41.472"/>
  </clipPath>
 </defs>
</svg>
