<?xml version="1.0" encoding="utf-8" standalone="no"?>
<!DOCTYPE svg PUBLIC "-//W3C//DTD SVG 1.1//EN"
  "http://www.w3.org/Graphics/SVG/1.1/DTD/svg11.dtd">
<svg height="345.6pt" version="1.1" viewBox="0 0 460.8 345.6" width="460.8pt" xmlns="http://www.w3.org/2000/svg" xmlns:xlink="http://www.w3.org/1999/xlink">
 <metadata>
  <rdf:RDF xmlns:cc="http://creativecommons.org/ns#" xmlns:dc="http://purl.org/dc/elements/1.1/" xmlns:rdf="http://www.w3.org/1999/02/22-rdf-syntax-ns#">
   <cc:Work>
    <dc:type rdf:resource="http://purl.org/dc/dcmitype/StillImage"/>
    <dc:date>2021-05-15T11:19:07.095103</dc:date>
    <dc:format>image/svg+xml</dc:format>
    <dc:creator>
     <cc:Agent>
      <dc:title>Matplotlib v3.4.2, https://matplotlib.org/</dc:title>
     </cc:Agent>
    </dc:creator>
   </cc:Work>
  </rdf:RDF>
 </metadata>
 <defs>
  <style type="text/css">*{stroke-linecap:butt;stroke-linejoin:round;}</style>
 </defs>
 <g id="figure_1">
  <g id="patch_1">
   <path d="M 0 345.6 
L 460.8 345.6 
L 460.8 0 
L 0 0 
z
" style="fill:none;"/>
  </g>
  <g id="axes_1">
   <g id="matplotlib.axis_1"/>
   <g id="matplotlib.axis_2"/>
   <g id="PolyCollection_1">
    <defs>
     <path d="M 250.073766 -40.286144 
L 250.073766 -38.016 
L 259.34961 -38.016 
L 268.625455 -38.016 
L 296.452987 -38.016 
L 305.728831 -38.016 
L 315.004675 -38.016 
L 324.280519 -38.016 
L 333.556364 -38.016 
L 342.832208 -38.016 
L 352.108052 -38.016 
L 361.383896 -38.016 
L 379.935584 -38.016 
L 389.211429 -38.016 
L 398.487273 -38.016 
L 398.487273 -41.739328 
L 398.487273 -41.739328 
L 389.211429 -41.425427 
L 379.935584 -41.134237 
L 361.383896 -40.985364 
L 352.108052 -40.9602 
L 342.832208 -40.917537 
L 333.556364 -40.871732 
L 324.280519 -40.806839 
L 315.004675 -40.744742 
L 305.728831 -40.654479 
L 296.452987 -40.571914 
L 268.625455 -40.488899 
L 259.34961 -40.400983 
L 250.073766 -40.286144 
z
" id="mf2d32f2615" style="stroke:#7ea297;stroke-opacity:0.5;"/>
    </defs>
    <g clip-path="url(#pc9098023ca)">
     <use style="fill:#7ea297;fill-opacity:0.5;stroke:#7ea297;stroke-opacity:0.5;" x="0" xlink:href="#mf2d32f2615" y="345.6"/>
    </g>
   </g>
   <g id="PolyCollection_2">
    <defs>
     <path d="M 73.832727 -38.147063 
L 73.832727 -38.016 
L 83.108571 -38.016 
L 92.384416 -38.016 
L 101.66026 -38.016 
L 110.936104 -38.016 
L 120.211948 -38.016 
L 138.763636 -38.016 
L 148.039481 -38.016 
L 157.315325 -38.016 
L 166.591169 -38.016 
L 175.867013 -38.016 
L 185.142857 -38.016 
L 194.418701 -38.016 
L 203.694545 -38.016 
L 212.97039 -38.016 
L 222.246234 -38.016 
L 231.522078 -38.016 
L 240.797922 -38.016 
L 250.073766 -38.016 
L 250.073766 -40.286144 
L 250.073766 -40.286144 
L 240.797922 -40.04925 
L 231.522078 -39.7592 
L 222.246234 -39.499284 
L 212.97039 -39.242992 
L 203.694545 -38.990117 
L 194.418701 -38.756952 
L 185.142857 -38.541735 
L 175.867013 -38.464347 
L 166.591169 -38.446605 
L 157.315325 -38.428863 
L 148.039481 -38.409499 
L 138.763636 -38.374498 
L 120.211948 -38.340982 
L 110.936104 -38.312677 
L 101.66026 -38.281853 
L 92.384416 -38.236394 
L 83.108571 -38.190934 
L 73.832727 -38.147063 
z
" id="m5c734330e5" style="stroke:#7ea297;stroke-opacity:0.3;"/>
    </defs>
    <g clip-path="url(#pc9098023ca)">
     <use style="fill:#7ea297;fill-opacity:0.3;stroke:#7ea297;stroke-opacity:0.3;" x="0" xlink:href="#m5c734330e5" y="345.6"/>
    </g>
   </g>
   <g id="line2d_1">
    <path clip-path="url(#pc9098023ca)" d="M 73.832727 307.452937 
L 83.108571 307.409066 
L 92.384416 307.363606 
L 101.66026 307.318147 
L 110.936104 307.287323 
L 120.211948 307.259018 
L 138.763636 307.225502 
L 148.039481 307.190501 
L 157.315325 307.171137 
L 166.591169 307.153395 
L 175.867013 307.135653 
L 185.142857 307.058265 
L 194.418701 306.843048 
L 203.694545 306.609883 
L 212.97039 306.357008 
L 222.246234 306.100716 
L 231.522078 305.8408 
L 240.797922 305.55075 
L 250.073766 305.313856 
L 259.34961 305.199017 
L 268.625455 305.111101 
L 296.452987 305.028086 
L 305.728831 304.945521 
L 315.004675 304.855258 
L 324.280519 304.793161 
L 333.556364 304.728268 
L 342.832208 304.682463 
L 352.108052 304.6398 
L 361.383896 304.614636 
L 379.935584 304.465763 
L 389.211429 304.174573 
L 398.487273 303.860672 
" style="fill:none;stroke:#60897e;stroke-linecap:square;stroke-width:2;"/>
   </g>
   <g id="line2d_2">
    <path clip-path="url(#pc9098023ca)" d="M 250.073766 305.313856 
L 259.34961 305.199017 
L 268.625455 305.111101 
L 296.452987 305.028086 
L 305.728831 304.945521 
L 315.004675 304.855258 
L 324.280519 304.793161 
L 333.556364 304.728268 
L 342.832208 304.682463 
L 352.108052 304.6398 
L 361.383896 304.614636 
L 379.935584 304.465763 
L 389.211429 304.174573 
L 398.487273 303.860672 
" style="fill:none;stroke:#427165;stroke-linecap:square;stroke-width:2;"/>
   </g>
  </g>
 </g>
 <defs>
  <clipPath id="pc9098023ca">
   <rect height="266.112" width="357.12" x="57.6" y="41.472"/>
  </clipPath>
 </defs>
</svg>
