<?xml version="1.0" encoding="utf-8" standalone="no"?>
<!DOCTYPE svg PUBLIC "-//W3C//DTD SVG 1.1//EN"
  "http://www.w3.org/Graphics/SVG/1.1/DTD/svg11.dtd">
<svg height="345.6pt" version="1.1" viewBox="0 0 460.8 345.6" width="460.8pt" xmlns="http://www.w3.org/2000/svg" xmlns:xlink="http://www.w3.org/1999/xlink">
 <metadata>
  <rdf:RDF xmlns:cc="http://creativecommons.org/ns#" xmlns:dc="http://purl.org/dc/elements/1.1/" xmlns:rdf="http://www.w3.org/1999/02/22-rdf-syntax-ns#">
   <cc:Work>
    <dc:type rdf:resource="http://purl.org/dc/dcmitype/StillImage"/>
    <dc:date>2021-05-17T10:41:14.055832</dc:date>
    <dc:format>image/svg+xml</dc:format>
    <dc:creator>
     <cc:Agent>
      <dc:title>Matplotlib v3.4.2, https://matplotlib.org/</dc:title>
     </cc:Agent>
    </dc:creator>
   </cc:Work>
  </rdf:RDF>
 </metadata>
 <defs>
  <style type="text/css">*{stroke-linecap:butt;stroke-linejoin:round;}</style>
 </defs>
 <g id="figure_1">
  <g id="patch_1">
   <path d="M 0 345.6 
L 460.8 345.6 
L 460.8 0 
L 0 0 
z
" style="fill:none;"/>
  </g>
  <g id="axes_1">
   <g id="matplotlib.axis_1"/>
   <g id="matplotlib.axis_2"/>
   <g id="PolyCollection_1">
    <defs>
     <path d="M 258.096118 -40.488899 
L 258.096118 -38.016 
L 284.419459 -38.016 
L 293.193907 -38.016 
L 301.968354 -38.016 
L 310.742801 -38.016 
L 319.517248 -38.016 
L 328.291695 -38.016 
L 337.066143 -38.016 
L 345.84059 -38.016 
L 363.389484 -38.016 
L 372.163931 -38.016 
L 380.938378 -38.016 
L 389.712826 -38.016 
L 398.487273 -38.016 
L 398.487273 -42.379075 
L 398.487273 -42.379075 
L 389.712826 -42.057545 
L 380.938378 -41.739328 
L 372.163931 -41.425427 
L 363.389484 -41.134237 
L 345.84059 -40.985364 
L 337.066143 -40.9602 
L 328.291695 -40.917537 
L 319.517248 -40.871732 
L 310.742801 -40.806839 
L 301.968354 -40.744742 
L 293.193907 -40.654479 
L 284.419459 -40.571914 
L 258.096118 -40.488899 
z
" id="m4aedf8f953" style="stroke:#7ea297;stroke-opacity:0.5;"/>
    </defs>
    <g clip-path="url(#p57da7b48a8)">
     <use style="fill:#7ea297;fill-opacity:0.5;stroke:#7ea297;stroke-opacity:0.5;" x="0" xlink:href="#m4aedf8f953" y="345.6"/>
    </g>
   </g>
   <g id="PolyCollection_2">
    <defs>
     <path d="M 73.832727 -38.147063 
L 73.832727 -38.016 
L 82.607174 -38.016 
L 91.381622 -38.016 
L 100.156069 -38.016 
L 108.930516 -38.016 
L 117.704963 -38.016 
L 135.253857 -38.016 
L 144.028305 -38.016 
L 152.802752 -38.016 
L 161.577199 -38.016 
L 170.351646 -38.016 
L 179.126093 -38.016 
L 187.900541 -38.016 
L 196.674988 -38.016 
L 205.449435 -38.016 
L 214.223882 -38.016 
L 222.998329 -38.016 
L 231.772776 -38.016 
L 240.547224 -38.016 
L 249.321671 -38.016 
L 258.096118 -38.016 
L 258.096118 -40.488899 
L 258.096118 -40.488899 
L 249.321671 -40.400983 
L 240.547224 -40.286144 
L 231.772776 -40.04925 
L 222.998329 -39.7592 
L 214.223882 -39.499284 
L 205.449435 -39.242992 
L 196.674988 -38.990117 
L 187.900541 -38.756952 
L 179.126093 -38.541735 
L 170.351646 -38.464347 
L 161.577199 -38.446605 
L 152.802752 -38.428863 
L 144.028305 -38.409499 
L 135.253857 -38.374498 
L 117.704963 -38.340982 
L 108.930516 -38.312677 
L 100.156069 -38.281853 
L 91.381622 -38.236394 
L 82.607174 -38.190934 
L 73.832727 -38.147063 
z
" id="mc40de6a884" style="stroke:#7ea297;stroke-opacity:0.3;"/>
    </defs>
    <g clip-path="url(#p57da7b48a8)">
     <use style="fill:#7ea297;fill-opacity:0.3;stroke:#7ea297;stroke-opacity:0.3;" x="0" xlink:href="#mc40de6a884" y="345.6"/>
    </g>
   </g>
   <g id="line2d_1">
    <path clip-path="url(#p57da7b48a8)" d="M 73.832727 307.452937 
L 82.607174 307.409066 
L 91.381622 307.363606 
L 100.156069 307.318147 
L 108.930516 307.287323 
L 117.704963 307.259018 
L 135.253857 307.225502 
L 144.028305 307.190501 
L 152.802752 307.171137 
L 161.577199 307.153395 
L 170.351646 307.135653 
L 179.126093 307.058265 
L 187.900541 306.843048 
L 196.674988 306.609883 
L 205.449435 306.357008 
L 214.223882 306.100716 
L 222.998329 305.8408 
L 231.772776 305.55075 
L 240.547224 305.313856 
L 249.321671 305.199017 
L 258.096118 305.111101 
L 284.419459 305.028086 
L 293.193907 304.945521 
L 301.968354 304.855258 
L 310.742801 304.793161 
L 319.517248 304.728268 
L 328.291695 304.682463 
L 337.066143 304.6398 
L 345.84059 304.614636 
L 363.389484 304.465763 
L 372.163931 304.174573 
L 380.938378 303.860672 
L 389.712826 303.542455 
L 398.487273 303.220925 
" style="fill:none;stroke:#60897e;stroke-linecap:square;stroke-width:2;"/>
   </g>
   <g id="line2d_2">
    <path clip-path="url(#p57da7b48a8)" d="M 258.096118 305.111101 
L 284.419459 305.028086 
L 293.193907 304.945521 
L 301.968354 304.855258 
L 310.742801 304.793161 
L 319.517248 304.728268 
L 328.291695 304.682463 
L 337.066143 304.6398 
L 345.84059 304.614636 
L 363.389484 304.465763 
L 372.163931 304.174573 
L 380.938378 303.860672 
L 389.712826 303.542455 
L 398.487273 303.220925 
" style="fill:none;stroke:#427165;stroke-linecap:square;stroke-width:2;"/>
   </g>
  </g>
 </g>
 <defs>
  <clipPath id="p57da7b48a8">
   <rect height="266.112" width="357.12" x="57.6" y="41.472"/>
  </clipPath>
 </defs>
</svg>
