<?xml version="1.0" encoding="utf-8" standalone="no"?>
<!DOCTYPE svg PUBLIC "-//W3C//DTD SVG 1.1//EN"
  "http://www.w3.org/Graphics/SVG/1.1/DTD/svg11.dtd">
<svg height="345.6pt" version="1.1" viewBox="0 0 460.8 345.6" width="460.8pt" xmlns="http://www.w3.org/2000/svg" xmlns:xlink="http://www.w3.org/1999/xlink">
 <metadata>
  <rdf:RDF xmlns:cc="http://creativecommons.org/ns#" xmlns:dc="http://purl.org/dc/elements/1.1/" xmlns:rdf="http://www.w3.org/1999/02/22-rdf-syntax-ns#">
   <cc:Work>
    <dc:type rdf:resource="http://purl.org/dc/dcmitype/StillImage"/>
    <dc:date>2021-05-20T13:25:48.810325</dc:date>
    <dc:format>image/svg+xml</dc:format>
    <dc:creator>
     <cc:Agent>
      <dc:title>Matplotlib v3.4.2, https://matplotlib.org/</dc:title>
     </cc:Agent>
    </dc:creator>
   </cc:Work>
  </rdf:RDF>
 </metadata>
 <defs>
  <style type="text/css">*{stroke-linecap:butt;stroke-linejoin:round;}</style>
 </defs>
 <g id="figure_1">
  <g id="patch_1">
   <path d="M 0 345.6 
L 460.8 345.6 
L 460.8 0 
L 0 0 
z
" style="fill:none;"/>
  </g>
  <g id="axes_1">
   <g id="matplotlib.axis_1"/>
   <g id="matplotlib.axis_2"/>
   <g id="PolyCollection_1">
    <defs>
     <path d="M 284.858182 -40.744742 
L 284.858182 -38.016 
L 292.974545 -38.016 
L 301.090909 -38.016 
L 309.207273 -38.016 
L 317.323636 -38.016 
L 325.44 -38.016 
L 341.672727 -38.016 
L 349.789091 -38.016 
L 357.905455 -38.016 
L 366.021818 -38.016 
L 374.138182 -38.016 
L 382.254545 -38.016 
L 390.370909 -38.016 
L 398.487273 -38.016 
L 398.487273 -43.29641 
L 398.487273 -43.29641 
L 390.370909 -43.070252 
L 382.254545 -42.717691 
L 374.138182 -42.379075 
L 366.021818 -42.057545 
L 357.905455 -41.739328 
L 349.789091 -41.425427 
L 341.672727 -41.134237 
L 325.44 -40.985364 
L 317.323636 -40.9602 
L 309.207273 -40.917537 
L 301.090909 -40.871732 
L 292.974545 -40.806839 
L 284.858182 -40.744742 
z
" id="m94cabf5c3c" style="stroke:#7ea297;stroke-opacity:0.5;"/>
    </defs>
    <g clip-path="url(#pccf3cc5837)">
     <use style="fill:#7ea297;fill-opacity:0.5;stroke:#7ea297;stroke-opacity:0.5;" x="0" xlink:href="#m94cabf5c3c" y="345.6"/>
    </g>
   </g>
   <g id="PolyCollection_2">
    <defs>
     <path d="M 73.832727 -38.147063 
L 73.832727 -38.016 
L 81.949091 -38.016 
L 90.065455 -38.016 
L 98.181818 -38.016 
L 106.298182 -38.016 
L 114.414545 -38.016 
L 130.647273 -38.016 
L 138.763636 -38.016 
L 146.88 -38.016 
L 154.996364 -38.016 
L 163.112727 -38.016 
L 171.229091 -38.016 
L 179.345455 -38.016 
L 187.461818 -38.016 
L 195.578182 -38.016 
L 203.694545 -38.016 
L 211.810909 -38.016 
L 219.927273 -38.016 
L 228.043636 -38.016 
L 236.16 -38.016 
L 244.276364 -38.016 
L 268.625455 -38.016 
L 276.741818 -38.016 
L 284.858182 -38.016 
L 284.858182 -40.744742 
L 284.858182 -40.744742 
L 276.741818 -40.654479 
L 268.625455 -40.571914 
L 244.276364 -40.488899 
L 236.16 -40.400983 
L 228.043636 -40.286144 
L 219.927273 -40.04925 
L 211.810909 -39.7592 
L 203.694545 -39.499284 
L 195.578182 -39.242992 
L 187.461818 -38.990117 
L 179.345455 -38.756952 
L 171.229091 -38.541735 
L 163.112727 -38.464347 
L 154.996364 -38.446605 
L 146.88 -38.428863 
L 138.763636 -38.409499 
L 130.647273 -38.374498 
L 114.414545 -38.340982 
L 106.298182 -38.312677 
L 98.181818 -38.281853 
L 90.065455 -38.236394 
L 81.949091 -38.190934 
L 73.832727 -38.147063 
z
" id="m92d7208091" style="stroke:#7ea297;stroke-opacity:0.3;"/>
    </defs>
    <g clip-path="url(#pccf3cc5837)">
     <use style="fill:#7ea297;fill-opacity:0.3;stroke:#7ea297;stroke-opacity:0.3;" x="0" xlink:href="#m92d7208091" y="345.6"/>
    </g>
   </g>
   <g id="line2d_1">
    <path clip-path="url(#pccf3cc5837)" d="M 73.832727 307.452937 
L 81.949091 307.409066 
L 90.065455 307.363606 
L 98.181818 307.318147 
L 106.298182 307.287323 
L 114.414545 307.259018 
L 130.647273 307.225502 
L 138.763636 307.190501 
L 146.88 307.171137 
L 154.996364 307.153395 
L 163.112727 307.135653 
L 171.229091 307.058265 
L 179.345455 306.843048 
L 187.461818 306.609883 
L 195.578182 306.357008 
L 203.694545 306.100716 
L 211.810909 305.8408 
L 219.927273 305.55075 
L 228.043636 305.313856 
L 236.16 305.199017 
L 244.276364 305.111101 
L 268.625455 305.028086 
L 276.741818 304.945521 
L 284.858182 304.855258 
L 292.974545 304.793161 
L 301.090909 304.728268 
L 309.207273 304.682463 
L 317.323636 304.6398 
L 325.44 304.614636 
L 341.672727 304.465763 
L 349.789091 304.174573 
L 357.905455 303.860672 
L 366.021818 303.542455 
L 374.138182 303.220925 
L 382.254545 302.882309 
L 390.370909 302.529748 
L 398.487273 302.30359 
" style="fill:none;stroke:#60897e;stroke-linecap:square;stroke-width:2;"/>
   </g>
   <g id="line2d_2">
    <path clip-path="url(#pccf3cc5837)" d="M 284.858182 304.855258 
L 292.974545 304.793161 
L 301.090909 304.728268 
L 309.207273 304.682463 
L 317.323636 304.6398 
L 325.44 304.614636 
L 341.672727 304.465763 
L 349.789091 304.174573 
L 357.905455 303.860672 
L 366.021818 303.542455 
L 374.138182 303.220925 
L 382.254545 302.882309 
L 390.370909 302.529748 
L 398.487273 302.30359 
" style="fill:none;stroke:#427165;stroke-linecap:square;stroke-width:2;"/>
   </g>
  </g>
 </g>
 <defs>
  <clipPath id="pccf3cc5837">
   <rect height="266.112" width="357.12" x="57.6" y="41.472"/>
  </clipPath>
 </defs>
</svg>
