<?xml version="1.0" encoding="utf-8" standalone="no"?>
<!DOCTYPE svg PUBLIC "-//W3C//DTD SVG 1.1//EN"
  "http://www.w3.org/Graphics/SVG/1.1/DTD/svg11.dtd">
<svg height="345.6pt" version="1.1" viewBox="0 0 460.8 345.6" width="460.8pt" xmlns="http://www.w3.org/2000/svg" xmlns:xlink="http://www.w3.org/1999/xlink">
 <metadata>
  <rdf:RDF xmlns:cc="http://creativecommons.org/ns#" xmlns:dc="http://purl.org/dc/elements/1.1/" xmlns:rdf="http://www.w3.org/1999/02/22-rdf-syntax-ns#">
   <cc:Work>
    <dc:type rdf:resource="http://purl.org/dc/dcmitype/StillImage"/>
    <dc:date>2021-05-17T13:25:21.240669</dc:date>
    <dc:format>image/svg+xml</dc:format>
    <dc:creator>
     <cc:Agent>
      <dc:title>Matplotlib v3.4.2, https://matplotlib.org/</dc:title>
     </cc:Agent>
    </dc:creator>
   </cc:Work>
  </rdf:RDF>
 </metadata>
 <defs>
  <style type="text/css">*{stroke-linecap:butt;stroke-linejoin:round;}</style>
 </defs>
 <g id="figure_1">
  <g id="patch_1">
   <path d="M 0 345.6 
L 460.8 345.6 
L 460.8 0 
L 0 0 
z
" style="fill:none;"/>
  </g>
  <g id="axes_1">
   <g id="matplotlib.axis_1"/>
   <g id="matplotlib.axis_2"/>
   <g id="PolyCollection_1">
    <defs>
     <path d="M 258.096118 -38.930865 
L 258.096118 -38.016 
L 284.419459 -38.016 
L 293.193907 -38.016 
L 301.968354 -38.016 
L 310.742801 -38.016 
L 319.517248 -38.016 
L 328.291695 -38.016 
L 337.066143 -38.016 
L 345.84059 -38.016 
L 363.389484 -38.016 
L 372.163931 -38.016 
L 380.938378 -38.016 
L 389.712826 -38.016 
L 398.487273 -38.016 
L 398.487273 -39.308017 
L 398.487273 -39.308017 
L 389.712826 -39.256989 
L 380.938378 -39.195113 
L 372.163931 -39.136227 
L 363.389484 -39.091892 
L 345.84059 -39.056431 
L 337.066143 -39.031119 
L 328.291695 -39.005452 
L 319.517248 -38.979147 
L 310.742801 -38.962771 
L 301.968354 -38.954914 
L 293.193907 -38.946334 
L 284.419459 -38.939053 
L 258.096118 -38.930865 
z
" id="mf2d34f167b" style="stroke:#7ea297;stroke-opacity:0.5;"/>
    </defs>
    <g clip-path="url(#p4fe40aac82)">
     <use style="fill:#7ea297;fill-opacity:0.5;stroke:#7ea297;stroke-opacity:0.5;" x="0" xlink:href="#mf2d34f167b" y="345.6"/>
    </g>
   </g>
   <g id="PolyCollection_2">
    <defs>
     <path d="M 73.832727 -38.032523 
L 73.832727 -38.016 
L 82.607174 -38.016 
L 91.381622 -38.016 
L 100.156069 -38.016 
L 108.930516 -38.016 
L 117.704963 -38.016 
L 135.253857 -38.016 
L 144.028305 -38.016 
L 152.802752 -38.016 
L 161.577199 -38.016 
L 170.351646 -38.016 
L 179.126093 -38.016 
L 187.900541 -38.016 
L 196.674988 -38.016 
L 205.449435 -38.016 
L 214.223882 -38.016 
L 222.998329 -38.016 
L 231.772776 -38.016 
L 240.547224 -38.016 
L 249.321671 -38.016 
L 258.096118 -38.016 
L 258.096118 -38.930865 
L 258.096118 -38.930865 
L 249.321671 -38.880204 
L 240.547224 -38.792477 
L 231.772776 -38.673114 
L 222.998329 -38.554608 
L 214.223882 -38.439424 
L 205.449435 -38.325404 
L 196.674988 -38.21228 
L 187.900541 -38.141971 
L 179.126093 -38.10939 
L 170.351646 -38.109366 
L 161.577199 -38.109341 
L 152.802752 -38.109317 
L 144.028305 -38.109292 
L 135.253857 -38.108704 
L 117.704963 -38.099069 
L 108.930516 -38.085819 
L 100.156069 -38.072495 
L 91.381622 -38.059171 
L 82.607174 -38.045847 
L 73.832727 -38.032523 
z
" id="m9051af6b98" style="stroke:#7ea297;stroke-opacity:0.3;"/>
    </defs>
    <g clip-path="url(#p4fe40aac82)">
     <use style="fill:#7ea297;fill-opacity:0.3;stroke:#7ea297;stroke-opacity:0.3;" x="0" xlink:href="#m9051af6b98" y="345.6"/>
    </g>
   </g>
   <g id="line2d_1">
    <path clip-path="url(#p4fe40aac82)" d="M 73.832727 307.567477 
L 82.607174 307.554153 
L 91.381622 307.540829 
L 100.156069 307.527505 
L 108.930516 307.514181 
L 117.704963 307.500931 
L 135.253857 307.491296 
L 144.028305 307.490708 
L 152.802752 307.490683 
L 161.577199 307.490659 
L 170.351646 307.490634 
L 179.126093 307.49061 
L 187.900541 307.458029 
L 196.674988 307.38772 
L 205.449435 307.274596 
L 214.223882 307.160576 
L 222.998329 307.045392 
L 231.772776 306.926886 
L 240.547224 306.807523 
L 249.321671 306.719796 
L 258.096118 306.669135 
L 284.419459 306.660947 
L 293.193907 306.653666 
L 301.968354 306.645086 
L 310.742801 306.637229 
L 319.517248 306.620853 
L 328.291695 306.594548 
L 337.066143 306.568881 
L 345.84059 306.543569 
L 363.389484 306.508108 
L 372.163931 306.463773 
L 380.938378 306.404887 
L 389.712826 306.343011 
L 398.487273 306.291983 
" style="fill:none;stroke:#60897e;stroke-linecap:square;stroke-width:2;"/>
   </g>
   <g id="line2d_2">
    <path clip-path="url(#p4fe40aac82)" d="M 258.096118 306.669135 
L 284.419459 306.660947 
L 293.193907 306.653666 
L 301.968354 306.645086 
L 310.742801 306.637229 
L 319.517248 306.620853 
L 328.291695 306.594548 
L 337.066143 306.568881 
L 345.84059 306.543569 
L 363.389484 306.508108 
L 372.163931 306.463773 
L 380.938378 306.404887 
L 389.712826 306.343011 
L 398.487273 306.291983 
" style="fill:none;stroke:#427165;stroke-linecap:square;stroke-width:2;"/>
   </g>
  </g>
 </g>
 <defs>
  <clipPath id="p4fe40aac82">
   <rect height="266.112" width="357.12" x="57.6" y="41.472"/>
  </clipPath>
 </defs>
</svg>
