<?xml version="1.0" encoding="utf-8" standalone="no"?>
<!DOCTYPE svg PUBLIC "-//W3C//DTD SVG 1.1//EN"
  "http://www.w3.org/Graphics/SVG/1.1/DTD/svg11.dtd">
<svg height="345.6pt" version="1.1" viewBox="0 0 460.8 345.6" width="460.8pt" xmlns="http://www.w3.org/2000/svg" xmlns:xlink="http://www.w3.org/1999/xlink">
 <metadata>
  <rdf:RDF xmlns:cc="http://creativecommons.org/ns#" xmlns:dc="http://purl.org/dc/elements/1.1/" xmlns:rdf="http://www.w3.org/1999/02/22-rdf-syntax-ns#">
   <cc:Work>
    <dc:type rdf:resource="http://purl.org/dc/dcmitype/StillImage"/>
    <dc:date>2021-05-21T13:25:45.979226</dc:date>
    <dc:format>image/svg+xml</dc:format>
    <dc:creator>
     <cc:Agent>
      <dc:title>Matplotlib v3.4.2, https://matplotlib.org/</dc:title>
     </cc:Agent>
    </dc:creator>
   </cc:Work>
  </rdf:RDF>
 </metadata>
 <defs>
  <style type="text/css">*{stroke-linecap:butt;stroke-linejoin:round;}</style>
 </defs>
 <g id="figure_1">
  <g id="patch_1">
   <path d="M 0 345.6 
L 460.8 345.6 
L 460.8 0 
L 0 0 
z
" style="fill:none;"/>
  </g>
  <g id="axes_1">
   <g id="matplotlib.axis_1"/>
   <g id="matplotlib.axis_2"/>
   <g id="PolyCollection_1">
    <defs>
     <path d="M 287.629623 -38.962771 
L 287.629623 -38.016 
L 295.548027 -38.016 
L 303.46643 -38.016 
L 311.384834 -38.016 
L 319.303237 -38.016 
L 335.140044 -38.016 
L 343.058448 -38.016 
L 350.976851 -38.016 
L 358.895255 -38.016 
L 366.813659 -38.016 
L 374.732062 -38.016 
L 382.650466 -38.016 
L 390.568869 -38.016 
L 398.487273 -38.016 
L 398.487273 -39.523381 
L 398.487273 -39.523381 
L 390.568869 -39.459054 
L 382.650466 -39.413039 
L 374.732062 -39.359094 
L 366.813659 -39.308017 
L 358.895255 -39.256989 
L 350.976851 -39.195113 
L 343.058448 -39.136227 
L 335.140044 -39.091892 
L 319.303237 -39.056431 
L 311.384834 -39.031119 
L 303.46643 -39.005452 
L 295.548027 -38.979147 
L 287.629623 -38.962771 
z
" id="m47f90e2a55" style="stroke:#7ea297;stroke-opacity:0.5;"/>
    </defs>
    <g clip-path="url(#pa3a0b8c2a3)">
     <use style="fill:#7ea297;fill-opacity:0.5;stroke:#7ea297;stroke-opacity:0.5;" x="0" xlink:href="#m47f90e2a55" y="345.6"/>
    </g>
   </g>
   <g id="PolyCollection_2">
    <defs>
     <path d="M 73.832727 -38.032523 
L 73.832727 -38.016 
L 81.751131 -38.016 
L 89.669534 -38.016 
L 97.587938 -38.016 
L 105.506341 -38.016 
L 113.424745 -38.016 
L 129.261552 -38.016 
L 137.179956 -38.016 
L 145.098359 -38.016 
L 153.016763 -38.016 
L 160.935166 -38.016 
L 168.85357 -38.016 
L 176.771973 -38.016 
L 184.690377 -38.016 
L 192.60878 -38.016 
L 200.527184 -38.016 
L 208.445588 -38.016 
L 216.363991 -38.016 
L 224.282395 -38.016 
L 232.200798 -38.016 
L 240.119202 -38.016 
L 263.874412 -38.016 
L 271.792816 -38.016 
L 279.71122 -38.016 
L 287.629623 -38.016 
L 287.629623 -38.962771 
L 287.629623 -38.962771 
L 279.71122 -38.954914 
L 271.792816 -38.946334 
L 263.874412 -38.939053 
L 240.119202 -38.930865 
L 232.200798 -38.880204 
L 224.282395 -38.792477 
L 216.363991 -38.673114 
L 208.445588 -38.554608 
L 200.527184 -38.439424 
L 192.60878 -38.325404 
L 184.690377 -38.21228 
L 176.771973 -38.141971 
L 168.85357 -38.10939 
L 160.935166 -38.109366 
L 153.016763 -38.109341 
L 145.098359 -38.109317 
L 137.179956 -38.109292 
L 129.261552 -38.108704 
L 113.424745 -38.099069 
L 105.506341 -38.085819 
L 97.587938 -38.072495 
L 89.669534 -38.059171 
L 81.751131 -38.045847 
L 73.832727 -38.032523 
z
" id="m6d91994f9e" style="stroke:#7ea297;stroke-opacity:0.3;"/>
    </defs>
    <g clip-path="url(#pa3a0b8c2a3)">
     <use style="fill:#7ea297;fill-opacity:0.3;stroke:#7ea297;stroke-opacity:0.3;" x="0" xlink:href="#m6d91994f9e" y="345.6"/>
    </g>
   </g>
   <g id="line2d_1">
    <path clip-path="url(#pa3a0b8c2a3)" d="M 73.832727 307.567477 
L 81.751131 307.554153 
L 89.669534 307.540829 
L 97.587938 307.527505 
L 105.506341 307.514181 
L 113.424745 307.500931 
L 129.261552 307.491296 
L 137.179956 307.490708 
L 145.098359 307.490683 
L 153.016763 307.490659 
L 160.935166 307.490634 
L 168.85357 307.49061 
L 176.771973 307.458029 
L 184.690377 307.38772 
L 192.60878 307.274596 
L 200.527184 307.160576 
L 208.445588 307.045392 
L 216.363991 306.926886 
L 224.282395 306.807523 
L 232.200798 306.719796 
L 240.119202 306.669135 
L 263.874412 306.660947 
L 271.792816 306.653666 
L 279.71122 306.645086 
L 287.629623 306.637229 
L 295.548027 306.620853 
L 303.46643 306.594548 
L 311.384834 306.568881 
L 319.303237 306.543569 
L 335.140044 306.508108 
L 343.058448 306.463773 
L 350.976851 306.404887 
L 358.895255 306.343011 
L 366.813659 306.291983 
L 374.732062 306.240906 
L 382.650466 306.186961 
L 390.568869 306.140946 
L 398.487273 306.076619 
" style="fill:none;stroke:#60897e;stroke-linecap:square;stroke-width:2;"/>
   </g>
   <g id="line2d_2">
    <path clip-path="url(#pa3a0b8c2a3)" d="M 287.629623 306.637229 
L 295.548027 306.620853 
L 303.46643 306.594548 
L 311.384834 306.568881 
L 319.303237 306.543569 
L 335.140044 306.508108 
L 343.058448 306.463773 
L 350.976851 306.404887 
L 358.895255 306.343011 
L 366.813659 306.291983 
L 374.732062 306.240906 
L 382.650466 306.186961 
L 390.568869 306.140946 
L 398.487273 306.076619 
" style="fill:none;stroke:#427165;stroke-linecap:square;stroke-width:2;"/>
   </g>
  </g>
 </g>
 <defs>
  <clipPath id="pa3a0b8c2a3">
   <rect height="266.112" width="357.12" x="57.6" y="41.472"/>
  </clipPath>
 </defs>
</svg>
