<?xml version="1.0" encoding="utf-8" standalone="no"?>
<!DOCTYPE svg PUBLIC "-//W3C//DTD SVG 1.1//EN"
  "http://www.w3.org/Graphics/SVG/1.1/DTD/svg11.dtd">
<svg height="345.6pt" version="1.1" viewBox="0 0 460.8 345.6" width="460.8pt" xmlns="http://www.w3.org/2000/svg" xmlns:xlink="http://www.w3.org/1999/xlink">
 <metadata>
  <rdf:RDF xmlns:cc="http://creativecommons.org/ns#" xmlns:dc="http://purl.org/dc/elements/1.1/" xmlns:rdf="http://www.w3.org/1999/02/22-rdf-syntax-ns#">
   <cc:Work>
    <dc:type rdf:resource="http://purl.org/dc/dcmitype/StillImage"/>
    <dc:date>2021-05-20T13:25:47.248855</dc:date>
    <dc:format>image/svg+xml</dc:format>
    <dc:creator>
     <cc:Agent>
      <dc:title>Matplotlib v3.4.2, https://matplotlib.org/</dc:title>
     </cc:Agent>
    </dc:creator>
   </cc:Work>
  </rdf:RDF>
 </metadata>
 <defs>
  <style type="text/css">*{stroke-linecap:butt;stroke-linejoin:round;}</style>
 </defs>
 <g id="figure_1">
  <g id="patch_1">
   <path d="M 0 345.6 
L 460.8 345.6 
L 460.8 0 
L 0 0 
z
" style="fill:none;"/>
  </g>
  <g id="axes_1">
   <g id="matplotlib.axis_1"/>
   <g id="matplotlib.axis_2"/>
   <g id="PolyCollection_1">
    <defs>
     <path d="M 287.629623 -41.296498 
L 287.629623 -38.016 
L 295.548027 -38.016 
L 303.46643 -38.016 
L 311.384834 -38.016 
L 319.303237 -38.016 
L 327.221641 -38.016 
L 343.058448 -38.016 
L 350.976851 -38.016 
L 358.895255 -38.016 
L 366.813659 -38.016 
L 374.732062 -38.016 
L 382.650466 -38.016 
L 390.568869 -38.016 
L 398.487273 -38.016 
L 398.487273 -42.988269 
L 398.487273 -42.988269 
L 390.568869 -42.894257 
L 382.650466 -42.902652 
L 374.732062 -42.857655 
L 366.813659 -42.776932 
L 358.895255 -42.747451 
L 350.976851 -42.758352 
L 343.058448 -42.805935 
L 327.221641 -42.653837 
L 319.303237 -42.400328 
L 311.384834 -42.188037 
L 303.46643 -41.969498 
L 295.548027 -41.646684 
L 287.629623 -41.296498 
z
" id="m6a25355bbe" style="stroke:#7ea297;stroke-opacity:0.5;"/>
    </defs>
    <g clip-path="url(#p98e3a7d7ea)">
     <use style="fill:#7ea297;fill-opacity:0.5;stroke:#7ea297;stroke-opacity:0.5;" x="0" xlink:href="#m6a25355bbe" y="345.6"/>
    </g>
   </g>
   <g id="PolyCollection_2">
    <defs>
     <path d="M 73.832727 -38.275318 
L 73.832727 -38.016 
L 81.751131 -38.016 
L 89.669534 -38.016 
L 97.587938 -38.016 
L 105.506341 -38.016 
L 113.424745 -38.016 
L 121.343149 -38.016 
L 137.179956 -38.016 
L 145.098359 -38.016 
L 153.016763 -38.016 
L 160.935166 -38.016 
L 168.85357 -38.016 
L 176.771973 -38.016 
L 184.690377 -38.016 
L 192.60878 -38.016 
L 200.527184 -38.016 
L 208.445588 -38.016 
L 216.363991 -38.016 
L 224.282395 -38.016 
L 232.200798 -38.016 
L 240.119202 -38.016 
L 248.037605 -38.016 
L 271.792816 -38.016 
L 279.71122 -38.016 
L 287.629623 -38.016 
L 287.629623 -41.296498 
L 287.629623 -41.296498 
L 279.71122 -40.901276 
L 271.792816 -40.693957 
L 248.037605 -40.470605 
L 240.119202 -40.231657 
L 232.200798 -40.022747 
L 224.282395 -39.86142 
L 216.363991 -39.723525 
L 208.445588 -39.623307 
L 200.527184 -39.539839 
L 192.60878 -39.472284 
L 184.690377 -39.443838 
L 176.771973 -39.426651 
L 168.85357 -39.414914 
L 160.935166 -39.407912 
L 153.016763 -39.407912 
L 145.098359 -39.407872 
L 137.179956 -39.364507 
L 121.343149 -39.268625 
L 113.424745 -39.126395 
L 105.506341 -38.969841 
L 97.587938 -38.796539 
L 89.669534 -38.615756 
L 81.751131 -38.428529 
L 73.832727 -38.275318 
z
" id="mc63f3ec5d1" style="stroke:#7ea297;stroke-opacity:0.3;"/>
    </defs>
    <g clip-path="url(#p98e3a7d7ea)">
     <use style="fill:#7ea297;fill-opacity:0.3;stroke:#7ea297;stroke-opacity:0.3;" x="0" xlink:href="#mc63f3ec5d1" y="345.6"/>
    </g>
   </g>
   <g id="line2d_1">
    <path clip-path="url(#p98e3a7d7ea)" d="M 73.832727 307.324682 
L 81.751131 307.171471 
L 89.669534 306.984244 
L 97.587938 306.803461 
L 105.506341 306.630159 
L 113.424745 306.473605 
L 121.343149 306.331375 
L 137.179956 306.235493 
L 145.098359 306.192128 
L 153.016763 306.192088 
L 160.935166 306.192088 
L 168.85357 306.185086 
L 176.771973 306.173349 
L 184.690377 306.156162 
L 192.60878 306.127716 
L 200.527184 306.060161 
L 208.445588 305.976693 
L 216.363991 305.876475 
L 224.282395 305.73858 
L 232.200798 305.577253 
L 240.119202 305.368343 
L 248.037605 305.129395 
L 271.792816 304.906043 
L 279.71122 304.698724 
L 287.629623 304.303502 
L 295.548027 303.953316 
L 303.46643 303.630502 
L 311.384834 303.411963 
L 319.303237 303.199672 
L 327.221641 302.946163 
L 343.058448 302.794065 
L 350.976851 302.841648 
L 358.895255 302.852549 
L 366.813659 302.823068 
L 374.732062 302.742345 
L 382.650466 302.697348 
L 390.568869 302.705743 
L 398.487273 302.611731 
" style="fill:none;stroke:#60897e;stroke-linecap:square;stroke-width:2;"/>
   </g>
   <g id="line2d_2">
    <path clip-path="url(#p98e3a7d7ea)" d="M 287.629623 304.303502 
L 295.548027 303.953316 
L 303.46643 303.630502 
L 311.384834 303.411963 
L 319.303237 303.199672 
L 327.221641 302.946163 
L 343.058448 302.794065 
L 350.976851 302.841648 
L 358.895255 302.852549 
L 366.813659 302.823068 
L 374.732062 302.742345 
L 382.650466 302.697348 
L 390.568869 302.705743 
L 398.487273 302.611731 
" style="fill:none;stroke:#427165;stroke-linecap:square;stroke-width:2;"/>
   </g>
  </g>
 </g>
 <defs>
  <clipPath id="p98e3a7d7ea">
   <rect height="266.112" width="357.12" x="57.6" y="41.472"/>
  </clipPath>
 </defs>
</svg>
