<?xml version="1.0" encoding="utf-8" standalone="no"?>
<!DOCTYPE svg PUBLIC "-//W3C//DTD SVG 1.1//EN"
  "http://www.w3.org/Graphics/SVG/1.1/DTD/svg11.dtd">
<!-- Created with matplotlib (https://matplotlib.org/) -->
<svg height="345.6pt" version="1.1" viewBox="0 0 460.8 345.6" width="460.8pt" xmlns="http://www.w3.org/2000/svg" xmlns:xlink="http://www.w3.org/1999/xlink">
 <metadata>
  <rdf:RDF xmlns:cc="http://creativecommons.org/ns#" xmlns:dc="http://purl.org/dc/elements/1.1/" xmlns:rdf="http://www.w3.org/1999/02/22-rdf-syntax-ns#">
   <cc:Work>
    <dc:type rdf:resource="http://purl.org/dc/dcmitype/StillImage"/>
    <dc:date>2021-05-15T09:28:37.079427</dc:date>
    <dc:format>image/svg+xml</dc:format>
    <dc:creator>
     <cc:Agent>
      <dc:title>Matplotlib v3.3.2, https://matplotlib.org/</dc:title>
     </cc:Agent>
    </dc:creator>
   </cc:Work>
  </rdf:RDF>
 </metadata>
 <defs>
  <style type="text/css">*{stroke-linecap:butt;stroke-linejoin:round;}</style>
 </defs>
 <g id="figure_1">
  <g id="patch_1">
   <path d="M 0 345.6 
L 460.8 345.6 
L 460.8 0 
L 0 0 
z
" style="fill:none;"/>
  </g>
  <g id="axes_1">
   <g id="matplotlib.axis_1"/>
   <g id="matplotlib.axis_2"/>
   <g id="PolyCollection_1">
    <defs>
     <path d="M 314.705455 -78.004614 
L 314.705455 -38.016 
L 319.941818 -38.016 
L 325.178182 -38.016 
L 340.887273 -38.016 
L 346.123636 -38.016 
L 351.36 -38.016 
L 356.596364 -38.016 
L 361.832727 -38.016 
L 367.069091 -38.016 
L 372.305455 -38.016 
L 377.541818 -38.016 
L 388.014545 -38.016 
L 393.250909 -38.016 
L 398.487273 -38.016 
L 398.487273 -99.845118 
L 398.487273 -99.845118 
L 393.250909 -99.60256 
L 388.014545 -99.36413 
L 377.541818 -99.025309 
L 372.305455 -98.851405 
L 367.069091 -98.177617 
L 361.832727 -97.089064 
L 356.596364 -95.514339 
L 351.36 -93.491324 
L 346.123636 -90.829697 
L 340.887273 -87.848832 
L 325.178182 -84.523277 
L 319.941818 -81.217397 
L 314.705455 -78.004614 
z
" id="m6ae370b4db" style="stroke:#7ea297;stroke-opacity:0.5;"/>
    </defs>
    <g clip-path="url(#p20e193e01b)">
     <use style="fill:#7ea297;fill-opacity:0.5;stroke:#7ea297;stroke-opacity:0.5;" x="0" xlink:href="#m6ae370b4db" y="345.6"/>
    </g>
   </g>
   <g id="PolyCollection_2">
    <defs>
     <path d="M 73.832727 -38.547527 
L 73.832727 -38.016 
L 79.069091 -38.016 
L 84.305455 -38.016 
L 89.541818 -38.016 
L 94.778182 -38.016 
L 100.014545 -38.016 
L 105.250909 -38.016 
L 110.487273 -38.016 
L 115.723636 -38.016 
L 120.96 -38.016 
L 126.196364 -38.016 
L 136.669091 -38.016 
L 141.905455 -38.016 
L 147.141818 -38.016 
L 152.378182 -38.016 
L 157.614545 -38.016 
L 162.850909 -38.016 
L 168.087273 -38.016 
L 173.323636 -38.016 
L 178.56 -38.016 
L 183.796364 -38.016 
L 189.032727 -38.016 
L 194.269091 -38.016 
L 199.505455 -38.016 
L 204.741818 -38.016 
L 209.978182 -38.016 
L 215.214545 -38.016 
L 220.450909 -38.016 
L 225.687273 -38.016 
L 230.923636 -38.016 
L 236.16 -38.016 
L 241.396364 -38.016 
L 251.869091 -38.016 
L 257.105455 -38.016 
L 262.341818 -38.016 
L 267.578182 -38.016 
L 272.814545 -38.016 
L 278.050909 -38.016 
L 283.287273 -38.016 
L 288.523636 -38.016 
L 293.76 -38.016 
L 298.996364 -38.016 
L 304.232727 -38.016 
L 309.469091 -38.016 
L 314.705455 -38.016 
L 314.705455 -78.004614 
L 314.705455 -78.004614 
L 309.469091 -75.280891 
L 304.232727 -73.011328 
L 298.996364 -71.36506 
L 293.76 -70.004047 
L 288.523636 -68.98479 
L 283.287273 -68.472524 
L 278.050909 -68.286787 
L 272.814545 -68.104078 
L 267.578182 -67.865051 
L 262.341818 -67.313253 
L 257.105455 -66.559438 
L 251.869091 -65.228418 
L 241.396364 -63.340417 
L 236.16 -60.875625 
L 230.923636 -57.978823 
L 225.687273 -54.793006 
L 220.450909 -51.638054 
L 215.214545 -48.620363 
L 209.978182 -45.957497 
L 204.741818 -43.76865 
L 199.505455 -42.16517 
L 194.269091 -40.97852 
L 189.032727 -40.142339 
L 183.796364 -39.603657 
L 178.56 -39.243191 
L 173.323636 -39.090016 
L 168.087273 -39.01751 
L 162.850909 -38.935877 
L 157.614545 -38.868233 
L 152.378182 -38.808384 
L 147.141818 -38.75303 
L 141.905455 -38.705472 
L 136.669091 -38.677864 
L 126.196364 -38.661217 
L 120.96 -38.659978 
L 115.723636 -38.659703 
L 110.487273 -38.659428 
L 105.250909 -38.659153 
L 100.014545 -38.658878 
L 94.778182 -38.658602 
L 89.541818 -38.641129 
L 84.305455 -38.612742 
L 79.069091 -38.580135 
L 73.832727 -38.547527 
z
" id="mc8193ec08e" style="stroke:#7ea297;stroke-opacity:0.3;"/>
    </defs>
    <g clip-path="url(#p20e193e01b)">
     <use style="fill:#7ea297;fill-opacity:0.3;stroke:#7ea297;stroke-opacity:0.3;" x="0" xlink:href="#mc8193ec08e" y="345.6"/>
    </g>
   </g>
   <g id="line2d_1">
    <path clip-path="url(#p20e193e01b)" d="M 73.832727 307.052473 
L 79.069091 307.019865 
L 84.305455 306.987258 
L 89.541818 306.958871 
L 94.778182 306.941398 
L 100.014545 306.941122 
L 105.250909 306.940847 
L 110.487273 306.940572 
L 115.723636 306.940297 
L 120.96 306.940022 
L 126.196364 306.938783 
L 136.669091 306.922136 
L 141.905455 306.894528 
L 147.141818 306.84697 
L 152.378182 306.791616 
L 157.614545 306.731767 
L 162.850909 306.664123 
L 168.087273 306.58249 
L 173.323636 306.509984 
L 178.56 306.356809 
L 183.796364 305.996343 
L 189.032727 305.457661 
L 194.269091 304.62148 
L 199.505455 303.43483 
L 204.741818 301.83135 
L 209.978182 299.642503 
L 215.214545 296.979637 
L 220.450909 293.961946 
L 225.687273 290.806994 
L 230.923636 287.621177 
L 236.16 284.724375 
L 241.396364 282.259583 
L 251.869091 280.371582 
L 257.105455 279.040562 
L 262.341818 278.286747 
L 267.578182 277.734949 
L 272.814545 277.495922 
L 278.050909 277.313213 
L 283.287273 277.127476 
L 288.523636 276.61521 
L 293.76 275.595953 
L 298.996364 274.23494 
L 304.232727 272.588672 
L 309.469091 270.319109 
L 314.705455 267.595386 
L 319.941818 264.382603 
L 325.178182 261.076723 
L 340.887273 257.751168 
L 346.123636 254.770303 
L 351.36 252.108676 
L 356.596364 250.085661 
L 361.832727 248.510936 
L 367.069091 247.422383 
L 372.305455 246.748595 
L 377.541818 246.574691 
L 388.014545 246.23587 
L 393.250909 245.99744 
L 398.487273 245.754882 
" style="fill:none;stroke:#60897e;stroke-linecap:square;stroke-width:2;"/>
   </g>
   <g id="line2d_2">
    <path clip-path="url(#p20e193e01b)" d="M 314.705455 267.595386 
L 319.941818 264.382603 
L 325.178182 261.076723 
L 340.887273 257.751168 
L 346.123636 254.770303 
L 351.36 252.108676 
L 356.596364 250.085661 
L 361.832727 248.510936 
L 367.069091 247.422383 
L 372.305455 246.748595 
L 377.541818 246.574691 
L 388.014545 246.23587 
L 393.250909 245.99744 
L 398.487273 245.754882 
" style="fill:none;stroke:#427165;stroke-linecap:square;stroke-width:2;"/>
   </g>
  </g>
 </g>
 <defs>
  <clipPath id="p20e193e01b">
   <rect height="266.112" width="357.12" x="57.6" y="41.472"/>
  </clipPath>
 </defs>
</svg>
