<?xml version="1.0" encoding="utf-8" standalone="no"?>
<!DOCTYPE svg PUBLIC "-//W3C//DTD SVG 1.1//EN"
  "http://www.w3.org/Graphics/SVG/1.1/DTD/svg11.dtd">
<!-- Created with matplotlib (https://matplotlib.org/) -->
<svg height="288pt" version="1.1" viewBox="0 0 432 288" width="432pt" xmlns="http://www.w3.org/2000/svg" xmlns:xlink="http://www.w3.org/1999/xlink">
 <metadata>
  <rdf:RDF xmlns:cc="http://creativecommons.org/ns#" xmlns:dc="http://purl.org/dc/elements/1.1/" xmlns:rdf="http://www.w3.org/1999/02/22-rdf-syntax-ns#">
   <cc:Work>
    <dc:type rdf:resource="http://purl.org/dc/dcmitype/StillImage"/>
    <dc:date>2021-05-14T21:42:57.353510</dc:date>
    <dc:format>image/svg+xml</dc:format>
    <dc:creator>
     <cc:Agent>
      <dc:title>Matplotlib v3.3.2, https://matplotlib.org/</dc:title>
     </cc:Agent>
    </dc:creator>
   </cc:Work>
  </rdf:RDF>
 </metadata>
 <defs>
  <style type="text/css">*{stroke-linecap:butt;stroke-linejoin:round;}</style>
 </defs>
 <g id="figure_1">
  <g id="patch_1">
   <path d="M 0 288 
L 432 288 
L 432 0 
L 0 0 
z
" style="fill:none;"/>
  </g>
  <g id="axes_1">
   <g id="matplotlib.axis_1"/>
   <g id="matplotlib.axis_2"/>
   <g id="PolyCollection_1">
    <defs>
     <path d="M 295.036364 -40.435244 
L 295.036364 -36 
L 299.945455 -36 
L 304.854545 -36 
L 319.581818 -36 
L 324.490909 -36 
L 329.4 -36 
L 334.309091 -36 
L 339.218182 -36 
L 344.127273 -36 
L 349.036364 -36 
L 353.945455 -36 
L 363.763636 -36 
L 368.672727 -36 
L 373.581818 -36 
L 373.581818 -42.278795 
L 373.581818 -42.278795 
L 368.672727 -42.166847 
L 363.763636 -42.091133 
L 353.945455 -42.047349 
L 349.036364 -42.020715 
L 344.127273 -41.989993 
L 339.218182 -41.960231 
L 334.309091 -41.94394 
L 329.4 -41.890366 
L 324.490909 -41.753064 
L 319.581818 -41.531946 
L 304.854545 -41.232525 
L 299.945455 -40.850089 
L 295.036364 -40.435244 
z
" id="mbb4806510e" style="stroke:#7ea297;stroke-opacity:0.5;"/>
    </defs>
    <g clip-path="url(#p182d4669e4)">
     <use style="fill:#7ea297;fill-opacity:0.5;stroke:#7ea297;stroke-opacity:0.5;" x="0" xlink:href="#mbb4806510e" y="288"/>
    </g>
   </g>
   <g id="PolyCollection_2">
    <defs>
     <path d="M 69.218182 -36.118872 
L 69.218182 -36 
L 74.127273 -36 
L 79.036364 -36 
L 83.945455 -36 
L 88.854545 -36 
L 93.763636 -36 
L 98.672727 -36 
L 103.581818 -36 
L 108.490909 -36 
L 113.4 -36 
L 118.309091 -36 
L 128.127273 -36 
L 133.036364 -36 
L 137.945455 -36 
L 142.854545 -36 
L 147.763636 -36 
L 152.672727 -36 
L 157.581818 -36 
L 162.490909 -36 
L 167.4 -36 
L 172.309091 -36 
L 177.218182 -36 
L 182.127273 -36 
L 187.036364 -36 
L 191.945455 -36 
L 196.854545 -36 
L 201.763636 -36 
L 206.672727 -36 
L 211.581818 -36 
L 216.490909 -36 
L 221.4 -36 
L 226.309091 -36 
L 236.127273 -36 
L 241.036364 -36 
L 245.945455 -36 
L 250.854545 -36 
L 255.763636 -36 
L 260.672727 -36 
L 265.581818 -36 
L 270.490909 -36 
L 275.4 -36 
L 280.309091 -36 
L 285.218182 -36 
L 290.127273 -36 
L 295.036364 -36 
L 295.036364 -40.435244 
L 295.036364 -40.435244 
L 290.127273 -40.009664 
L 285.218182 -39.619664 
L 280.309091 -39.309829 
L 275.4 -39.083896 
L 270.490909 -38.936717 
L 265.581818 -38.874052 
L 260.672727 -38.843432 
L 255.763636 -38.8289 
L 250.854545 -38.81959 
L 245.945455 -38.807939 
L 241.036364 -38.7914 
L 236.127273 -38.772475 
L 226.309091 -38.742961 
L 221.4 -38.607506 
L 216.490909 -38.405676 
L 211.581818 -38.137414 
L 206.672727 -37.830066 
L 201.763636 -37.492636 
L 196.854545 -37.106549 
L 191.945455 -36.769672 
L 187.036364 -36.532961 
L 182.127273 -36.358856 
L 177.218182 -36.245294 
L 172.309091 -36.177232 
L 167.4 -36.144183 
L 162.490909 -36.162627 
L 157.581818 -36.145346 
L 152.672727 -36.134742 
L 147.763636 -36.128749 
L 142.854545 -36.128662 
L 137.945455 -36.128574 
L 133.036364 -36.128691 
L 128.127273 -36.128778 
L 118.309091 -36.128938 
L 113.4 -36.128909 
L 108.490909 -36.128909 
L 103.581818 -36.128909 
L 98.672727 -36.128909 
L 93.763636 -36.128705 
L 88.854545 -36.128502 
L 83.945455 -36.128298 
L 79.036364 -36.127367 
L 74.127273 -36.12312 
L 69.218182 -36.118872 
z
" id="m4aa0f2e38e" style="stroke:#7ea297;stroke-opacity:0.3;"/>
    </defs>
    <g clip-path="url(#p182d4669e4)">
     <use style="fill:#7ea297;fill-opacity:0.3;stroke:#7ea297;stroke-opacity:0.3;" x="0" xlink:href="#m4aa0f2e38e" y="288"/>
    </g>
   </g>
   <g id="line2d_1">
    <path clip-path="url(#p182d4669e4)" d="M 69.218182 251.881128 
L 74.127273 251.87688 
L 79.036364 251.872633 
L 83.945455 251.871702 
L 88.854545 251.871498 
L 93.763636 251.871295 
L 98.672727 251.871091 
L 103.581818 251.871091 
L 108.490909 251.871091 
L 113.4 251.871091 
L 118.309091 251.871062 
L 128.127273 251.871222 
L 133.036364 251.871309 
L 137.945455 251.871426 
L 142.854545 251.871338 
L 147.763636 251.871251 
L 152.672727 251.865258 
L 157.581818 251.854654 
L 162.490909 251.837373 
L 167.4 251.855817 
L 172.309091 251.822768 
L 177.218182 251.754706 
L 182.127273 251.641144 
L 187.036364 251.467039 
L 191.945455 251.230328 
L 196.854545 250.893451 
L 201.763636 250.507364 
L 206.672727 250.169934 
L 211.581818 249.862586 
L 216.490909 249.594324 
L 221.4 249.392494 
L 226.309091 249.257039 
L 236.127273 249.227525 
L 241.036364 249.2086 
L 245.945455 249.192061 
L 250.854545 249.18041 
L 255.763636 249.1711 
L 260.672727 249.156568 
L 265.581818 249.125948 
L 270.490909 249.063283 
L 275.4 248.916104 
L 280.309091 248.690171 
L 285.218182 248.380336 
L 290.127273 247.990336 
L 295.036364 247.564756 
L 299.945455 247.149911 
L 304.854545 246.767475 
L 319.581818 246.468054 
L 324.490909 246.246936 
L 329.4 246.109634 
L 334.309091 246.05606 
L 339.218182 246.039769 
L 344.127273 246.010007 
L 349.036364 245.979285 
L 353.945455 245.952651 
L 363.763636 245.908867 
L 368.672727 245.833153 
L 373.581818 245.721205 
" style="fill:none;stroke:#60897e;stroke-linecap:square;stroke-width:2;"/>
   </g>
   <g id="line2d_2">
    <path clip-path="url(#p182d4669e4)" d="M 295.036364 247.564756 
L 299.945455 247.149911 
L 304.854545 246.767475 
L 319.581818 246.468054 
L 324.490909 246.246936 
L 329.4 246.109634 
L 334.309091 246.05606 
L 339.218182 246.039769 
L 344.127273 246.010007 
L 349.036364 245.979285 
L 353.945455 245.952651 
L 363.763636 245.908867 
L 368.672727 245.833153 
L 373.581818 245.721205 
" style="fill:none;stroke:#427165;stroke-linecap:square;stroke-width:2;"/>
   </g>
  </g>
 </g>
 <defs>
  <clipPath id="p182d4669e4">
   <rect height="217.44" width="334.8" x="54" y="34.56"/>
  </clipPath>
 </defs>
</svg>
