<?xml version="1.0" encoding="utf-8" standalone="no"?>
<!DOCTYPE svg PUBLIC "-//W3C//DTD SVG 1.1//EN"
  "http://www.w3.org/Graphics/SVG/1.1/DTD/svg11.dtd">
<svg height="345.6pt" version="1.1" viewBox="0 0 460.8 345.6" width="460.8pt" xmlns="http://www.w3.org/2000/svg" xmlns:xlink="http://www.w3.org/1999/xlink">
 <metadata>
  <rdf:RDF xmlns:cc="http://creativecommons.org/ns#" xmlns:dc="http://purl.org/dc/elements/1.1/" xmlns:rdf="http://www.w3.org/1999/02/22-rdf-syntax-ns#">
   <cc:Work>
    <dc:type rdf:resource="http://purl.org/dc/dcmitype/StillImage"/>
    <dc:date>2021-05-21T13:25:46.968469</dc:date>
    <dc:format>image/svg+xml</dc:format>
    <dc:creator>
     <cc:Agent>
      <dc:title>Matplotlib v3.4.2, https://matplotlib.org/</dc:title>
     </cc:Agent>
    </dc:creator>
   </cc:Work>
  </rdf:RDF>
 </metadata>
 <defs>
  <style type="text/css">*{stroke-linecap:butt;stroke-linejoin:round;}</style>
 </defs>
 <g id="figure_1">
  <g id="patch_1">
   <path d="M 0 345.6 
L 460.8 345.6 
L 460.8 0 
L 0 0 
z
" style="fill:none;"/>
  </g>
  <g id="axes_1">
   <g id="matplotlib.axis_1"/>
   <g id="matplotlib.axis_2"/>
   <g id="PolyCollection_1">
    <defs>
     <path d="M 287.629623 -45.829374 
L 287.629623 -38.016 
L 295.548027 -38.016 
L 303.46643 -38.016 
L 311.384834 -38.016 
L 319.303237 -38.016 
L 335.140044 -38.016 
L 343.058448 -38.016 
L 350.976851 -38.016 
L 358.895255 -38.016 
L 366.813659 -38.016 
L 374.732062 -38.016 
L 382.650466 -38.016 
L 390.568869 -38.016 
L 398.487273 -38.016 
L 398.487273 -54.907002 
L 398.487273 -54.907002 
L 390.568869 -54.319566 
L 382.650466 -53.718831 
L 374.732062 -53.05101 
L 366.813659 -52.453404 
L 358.895255 -51.855113 
L 350.976851 -50.990242 
L 343.058448 -50.132412 
L 335.140044 -49.284165 
L 319.303237 -48.488237 
L 311.384834 -47.82824 
L 303.46643 -47.128735 
L 295.548027 -46.379551 
L 287.629623 -45.829374 
z
" id="ma6e4a6840a" style="stroke:#7ea297;stroke-opacity:0.5;"/>
    </defs>
    <g clip-path="url(#p55e7d2fbb1)">
     <use style="fill:#7ea297;fill-opacity:0.5;stroke:#7ea297;stroke-opacity:0.5;" x="0" xlink:href="#ma6e4a6840a" y="345.6"/>
    </g>
   </g>
   <g id="PolyCollection_2">
    <defs>
     <path d="M 73.832727 -38.559038 
L 73.832727 -38.016 
L 81.751131 -38.016 
L 89.669534 -38.016 
L 97.587938 -38.016 
L 105.506341 -38.016 
L 113.424745 -38.016 
L 129.261552 -38.016 
L 137.179956 -38.016 
L 145.098359 -38.016 
L 153.016763 -38.016 
L 160.935166 -38.016 
L 168.85357 -38.016 
L 176.771973 -38.016 
L 184.690377 -38.016 
L 192.60878 -38.016 
L 200.527184 -38.016 
L 208.445588 -38.016 
L 216.363991 -38.016 
L 224.282395 -38.016 
L 232.200798 -38.016 
L 240.119202 -38.016 
L 263.874412 -38.016 
L 271.792816 -38.016 
L 279.71122 -38.016 
L 287.629623 -38.016 
L 287.629623 -45.829374 
L 287.629623 -45.829374 
L 279.71122 -45.411216 
L 271.792816 -45.066989 
L 263.874412 -44.801386 
L 240.119202 -44.521604 
L 232.200798 -44.029222 
L 224.282395 -43.483641 
L 216.363991 -42.879678 
L 208.445588 -42.245889 
L 200.527184 -41.70686 
L 192.60878 -41.135169 
L 184.690377 -40.563771 
L 176.771973 -40.246926 
L 168.85357 -40.033348 
L 160.935166 -39.945727 
L 153.016763 -39.945727 
L 145.098359 -39.945727 
L 137.179956 -39.94514 
L 129.261552 -39.890279 
L 113.424745 -39.790922 
L 105.506341 -39.609127 
L 97.587938 -39.385477 
L 89.669534 -39.109802 
L 81.751131 -38.834127 
L 73.832727 -38.559038 
z
" id="m13588b1f35" style="stroke:#7ea297;stroke-opacity:0.3;"/>
    </defs>
    <g clip-path="url(#p55e7d2fbb1)">
     <use style="fill:#7ea297;fill-opacity:0.3;stroke:#7ea297;stroke-opacity:0.3;" x="0" xlink:href="#m13588b1f35" y="345.6"/>
    </g>
   </g>
   <g id="line2d_1">
    <path clip-path="url(#p55e7d2fbb1)" d="M 73.832727 307.040962 
L 81.751131 306.765873 
L 89.669534 306.490198 
L 97.587938 306.214523 
L 105.506341 305.990873 
L 113.424745 305.809078 
L 129.261552 305.709721 
L 137.179956 305.65486 
L 145.098359 305.654273 
L 153.016763 305.654273 
L 160.935166 305.654273 
L 168.85357 305.566652 
L 176.771973 305.353074 
L 184.690377 305.036229 
L 192.60878 304.464831 
L 200.527184 303.89314 
L 208.445588 303.354111 
L 216.363991 302.720322 
L 224.282395 302.116359 
L 232.200798 301.570778 
L 240.119202 301.078396 
L 263.874412 300.798614 
L 271.792816 300.533011 
L 279.71122 300.188784 
L 287.629623 299.770626 
L 295.548027 299.220449 
L 303.46643 298.471265 
L 311.384834 297.77176 
L 319.303237 297.111763 
L 335.140044 296.315835 
L 343.058448 295.467588 
L 350.976851 294.609758 
L 358.895255 293.744887 
L 366.813659 293.146596 
L 374.732062 292.54899 
L 382.650466 291.881169 
L 390.568869 291.280434 
L 398.487273 290.692998 
" style="fill:none;stroke:#60897e;stroke-linecap:square;stroke-width:2;"/>
   </g>
   <g id="line2d_2">
    <path clip-path="url(#p55e7d2fbb1)" d="M 287.629623 299.770626 
L 295.548027 299.220449 
L 303.46643 298.471265 
L 311.384834 297.77176 
L 319.303237 297.111763 
L 335.140044 296.315835 
L 343.058448 295.467588 
L 350.976851 294.609758 
L 358.895255 293.744887 
L 366.813659 293.146596 
L 374.732062 292.54899 
L 382.650466 291.881169 
L 390.568869 291.280434 
L 398.487273 290.692998 
" style="fill:none;stroke:#427165;stroke-linecap:square;stroke-width:2;"/>
   </g>
  </g>
 </g>
 <defs>
  <clipPath id="p55e7d2fbb1">
   <rect height="266.112" width="357.12" x="57.6" y="41.472"/>
  </clipPath>
 </defs>
</svg>
