<?xml version="1.0" encoding="utf-8" standalone="no"?>
<!DOCTYPE svg PUBLIC "-//W3C//DTD SVG 1.1//EN"
  "http://www.w3.org/Graphics/SVG/1.1/DTD/svg11.dtd">
<svg height="345.6pt" version="1.1" viewBox="0 0 460.8 345.6" width="460.8pt" xmlns="http://www.w3.org/2000/svg" xmlns:xlink="http://www.w3.org/1999/xlink">
 <metadata>
  <rdf:RDF xmlns:cc="http://creativecommons.org/ns#" xmlns:dc="http://purl.org/dc/elements/1.1/" xmlns:rdf="http://www.w3.org/1999/02/22-rdf-syntax-ns#">
   <cc:Work>
    <dc:type rdf:resource="http://purl.org/dc/dcmitype/StillImage"/>
    <dc:date>2021-05-20T13:25:47.630420</dc:date>
    <dc:format>image/svg+xml</dc:format>
    <dc:creator>
     <cc:Agent>
      <dc:title>Matplotlib v3.4.2, https://matplotlib.org/</dc:title>
     </cc:Agent>
    </dc:creator>
   </cc:Work>
  </rdf:RDF>
 </metadata>
 <defs>
  <style type="text/css">*{stroke-linecap:butt;stroke-linejoin:round;}</style>
 </defs>
 <g id="figure_1">
  <g id="patch_1">
   <path d="M 0 345.6 
L 460.8 345.6 
L 460.8 0 
L 0 0 
z
" style="fill:none;"/>
  </g>
  <g id="axes_1">
   <g id="matplotlib.axis_1"/>
   <g id="matplotlib.axis_2"/>
   <g id="PolyCollection_1">
    <defs>
     <path d="M 284.858182 -39.309696 
L 284.858182 -38.016 
L 292.974545 -38.016 
L 301.090909 -38.016 
L 309.207273 -38.016 
L 317.323636 -38.016 
L 325.44 -38.016 
L 341.672727 -38.016 
L 349.789091 -38.016 
L 357.905455 -38.016 
L 366.021818 -38.016 
L 374.138182 -38.016 
L 382.254545 -38.016 
L 390.370909 -38.016 
L 398.487273 -38.016 
L 398.487273 -40.302299 
L 398.487273 -40.302299 
L 390.370909 -40.187514 
L 382.254545 -40.090348 
L 374.138182 -40.023157 
L 366.021818 -39.955965 
L 357.905455 -39.879218 
L 349.789091 -39.79534 
L 341.672727 -39.720459 
L 325.44 -39.663906 
L 317.323636 -39.617507 
L 309.207273 -39.551548 
L 301.090909 -39.472971 
L 292.974545 -39.394954 
L 284.858182 -39.309696 
z
" id="m96ee700803" style="stroke:#7ea297;stroke-opacity:0.5;"/>
    </defs>
    <g clip-path="url(#p11272d471f)">
     <use style="fill:#7ea297;fill-opacity:0.5;stroke:#7ea297;stroke-opacity:0.5;" x="0" xlink:href="#m96ee700803" y="345.6"/>
    </g>
   </g>
   <g id="PolyCollection_2">
    <defs>
     <path d="M 73.832727 -38.074792 
L 73.832727 -38.016 
L 81.949091 -38.016 
L 90.065455 -38.016 
L 98.181818 -38.016 
L 106.298182 -38.016 
L 114.414545 -38.016 
L 130.647273 -38.016 
L 138.763636 -38.016 
L 146.88 -38.016 
L 154.996364 -38.016 
L 163.112727 -38.016 
L 171.229091 -38.016 
L 179.345455 -38.016 
L 187.461818 -38.016 
L 195.578182 -38.016 
L 203.694545 -38.016 
L 211.810909 -38.016 
L 219.927273 -38.016 
L 228.043636 -38.016 
L 236.16 -38.016 
L 244.276364 -38.016 
L 268.625455 -38.016 
L 276.741818 -38.016 
L 284.858182 -38.016 
L 284.858182 -39.309696 
L 284.858182 -39.309696 
L 276.741818 -39.209767 
L 268.625455 -39.109652 
L 244.276364 -39.015883 
L 236.16 -38.938725 
L 228.043636 -38.871757 
L 219.927273 -38.78997 
L 211.810909 -38.719942 
L 203.694545 -38.670967 
L 195.578182 -38.622178 
L 187.461818 -38.573353 
L 179.345455 -38.513627 
L 171.229091 -38.441359 
L 163.112727 -38.392906 
L 154.996364 -38.355391 
L 146.88 -38.325715 
L 138.763636 -38.296039 
L 130.647273 -38.255724 
L 114.414545 -38.22239 
L 106.298182 -38.200067 
L 98.181818 -38.174572 
L 90.065455 -38.141312 
L 81.949091 -38.108052 
L 73.832727 -38.074792 
z
" id="m35a15f1748" style="stroke:#7ea297;stroke-opacity:0.3;"/>
    </defs>
    <g clip-path="url(#p11272d471f)">
     <use style="fill:#7ea297;fill-opacity:0.3;stroke:#7ea297;stroke-opacity:0.3;" x="0" xlink:href="#m35a15f1748" y="345.6"/>
    </g>
   </g>
   <g id="line2d_1">
    <path clip-path="url(#p11272d471f)" d="M 73.832727 307.525208 
L 81.949091 307.491948 
L 90.065455 307.458688 
L 98.181818 307.425428 
L 106.298182 307.399933 
L 114.414545 307.37761 
L 130.647273 307.344276 
L 138.763636 307.303961 
L 146.88 307.274285 
L 154.996364 307.244609 
L 163.112727 307.207094 
L 171.229091 307.158641 
L 179.345455 307.086373 
L 187.461818 307.026647 
L 195.578182 306.977822 
L 203.694545 306.929033 
L 211.810909 306.880058 
L 219.927273 306.81003 
L 228.043636 306.728243 
L 236.16 306.661275 
L 244.276364 306.584117 
L 268.625455 306.490348 
L 276.741818 306.390233 
L 284.858182 306.290304 
L 292.974545 306.205046 
L 301.090909 306.127029 
L 309.207273 306.048452 
L 317.323636 305.982493 
L 325.44 305.936094 
L 341.672727 305.879541 
L 349.789091 305.80466 
L 357.905455 305.720782 
L 366.021818 305.644035 
L 374.138182 305.576843 
L 382.254545 305.509652 
L 390.370909 305.412486 
L 398.487273 305.297701 
" style="fill:none;stroke:#60897e;stroke-linecap:square;stroke-width:2;"/>
   </g>
   <g id="line2d_2">
    <path clip-path="url(#p11272d471f)" d="M 284.858182 306.290304 
L 292.974545 306.205046 
L 301.090909 306.127029 
L 309.207273 306.048452 
L 317.323636 305.982493 
L 325.44 305.936094 
L 341.672727 305.879541 
L 349.789091 305.80466 
L 357.905455 305.720782 
L 366.021818 305.644035 
L 374.138182 305.576843 
L 382.254545 305.509652 
L 390.370909 305.412486 
L 398.487273 305.297701 
" style="fill:none;stroke:#427165;stroke-linecap:square;stroke-width:2;"/>
   </g>
  </g>
 </g>
 <defs>
  <clipPath id="p11272d471f">
   <rect height="266.112" width="357.12" x="57.6" y="41.472"/>
  </clipPath>
 </defs>
</svg>
