<?xml version="1.0" encoding="utf-8" standalone="no"?>
<!DOCTYPE svg PUBLIC "-//W3C//DTD SVG 1.1//EN"
  "http://www.w3.org/Graphics/SVG/1.1/DTD/svg11.dtd">
<svg height="345.6pt" version="1.1" viewBox="0 0 460.8 345.6" width="460.8pt" xmlns="http://www.w3.org/2000/svg" xmlns:xlink="http://www.w3.org/1999/xlink">
 <metadata>
  <rdf:RDF xmlns:cc="http://creativecommons.org/ns#" xmlns:dc="http://purl.org/dc/elements/1.1/" xmlns:rdf="http://www.w3.org/1999/02/22-rdf-syntax-ns#">
   <cc:Work>
    <dc:type rdf:resource="http://purl.org/dc/dcmitype/StillImage"/>
    <dc:date>2021-05-20T13:25:49.197999</dc:date>
    <dc:format>image/svg+xml</dc:format>
    <dc:creator>
     <cc:Agent>
      <dc:title>Matplotlib v3.4.2, https://matplotlib.org/</dc:title>
     </cc:Agent>
    </dc:creator>
   </cc:Work>
  </rdf:RDF>
 </metadata>
 <defs>
  <style type="text/css">*{stroke-linecap:butt;stroke-linejoin:round;}</style>
 </defs>
 <g id="figure_1">
  <g id="patch_1">
   <path d="M 0 345.6 
L 460.8 345.6 
L 460.8 0 
L 0 0 
z
" style="fill:none;"/>
  </g>
  <g id="axes_1">
   <g id="matplotlib.axis_1"/>
   <g id="matplotlib.axis_2"/>
   <g id="PolyCollection_1">
    <defs>
     <path d="M 284.858182 -39.464915 
L 284.858182 -38.016 
L 292.974545 -38.016 
L 301.090909 -38.016 
L 309.207273 -38.016 
L 317.323636 -38.016 
L 325.44 -38.016 
L 341.672727 -38.016 
L 349.789091 -38.016 
L 357.905455 -38.016 
L 366.021818 -38.016 
L 374.138182 -38.016 
L 382.254545 -38.016 
L 390.370909 -38.016 
L 398.487273 -38.016 
L 398.487273 -40.887393 
L 398.487273 -40.887393 
L 390.370909 -40.764745 
L 382.254545 -40.615407 
L 374.138182 -40.477312 
L 366.021818 -40.33267 
L 357.905455 -40.168736 
L 349.789091 -40.057265 
L 341.672727 -39.94739 
L 325.44 -39.848346 
L 317.323636 -39.785851 
L 309.207273 -39.718513 
L 301.090909 -39.637431 
L 292.974545 -39.54955 
L 284.858182 -39.464915 
z
" id="mbcc3a54ffb" style="stroke:#7ea297;stroke-opacity:0.5;"/>
    </defs>
    <g clip-path="url(#p9f12fee247)">
     <use style="fill:#7ea297;fill-opacity:0.5;stroke:#7ea297;stroke-opacity:0.5;" x="0" xlink:href="#mbcc3a54ffb" y="345.6"/>
    </g>
   </g>
   <g id="PolyCollection_2">
    <defs>
     <path d="M 73.832727 -38.134922 
L 73.832727 -38.016 
L 81.949091 -38.016 
L 90.065455 -38.016 
L 98.181818 -38.016 
L 106.298182 -38.016 
L 114.414545 -38.016 
L 130.647273 -38.016 
L 138.763636 -38.016 
L 146.88 -38.016 
L 154.996364 -38.016 
L 163.112727 -38.016 
L 171.229091 -38.016 
L 179.345455 -38.016 
L 187.461818 -38.016 
L 195.578182 -38.016 
L 203.694545 -38.016 
L 211.810909 -38.016 
L 219.927273 -38.016 
L 228.043636 -38.016 
L 236.16 -38.016 
L 244.276364 -38.016 
L 268.625455 -38.016 
L 276.741818 -38.016 
L 284.858182 -38.016 
L 284.858182 -39.464915 
L 284.858182 -39.464915 
L 276.741818 -39.380653 
L 268.625455 -39.303296 
L 244.276364 -39.231528 
L 236.16 -39.146999 
L 228.043636 -39.04419 
L 219.927273 -38.941566 
L 211.810909 -38.845343 
L 203.694545 -38.75653 
L 195.578182 -38.668024 
L 187.461818 -38.579717 
L 179.345455 -38.513709 
L 171.229091 -38.486766 
L 163.112727 -38.485729 
L 154.996364 -38.484691 
L 146.88 -38.48364 
L 138.763636 -38.482163 
L 130.647273 -38.469456 
L 114.414545 -38.438162 
L 106.298182 -38.386179 
L 98.181818 -38.333024 
L 90.065455 -38.26691 
L 81.949091 -38.20081 
L 73.832727 -38.134922 
z
" id="m7c72362e8a" style="stroke:#7ea297;stroke-opacity:0.3;"/>
    </defs>
    <g clip-path="url(#p9f12fee247)">
     <use style="fill:#7ea297;fill-opacity:0.3;stroke:#7ea297;stroke-opacity:0.3;" x="0" xlink:href="#m7c72362e8a" y="345.6"/>
    </g>
   </g>
   <g id="line2d_1">
    <path clip-path="url(#p9f12fee247)" d="M 73.832727 307.465078 
L 81.949091 307.39919 
L 90.065455 307.33309 
L 98.181818 307.266976 
L 106.298182 307.213821 
L 114.414545 307.161838 
L 130.647273 307.130544 
L 138.763636 307.117837 
L 146.88 307.11636 
L 154.996364 307.115309 
L 163.112727 307.114271 
L 171.229091 307.113234 
L 179.345455 307.086291 
L 187.461818 307.020283 
L 195.578182 306.931976 
L 203.694545 306.84347 
L 211.810909 306.754657 
L 219.927273 306.658434 
L 228.043636 306.55581 
L 236.16 306.453001 
L 244.276364 306.368472 
L 268.625455 306.296704 
L 276.741818 306.219347 
L 284.858182 306.135085 
L 292.974545 306.05045 
L 301.090909 305.962569 
L 309.207273 305.881487 
L 317.323636 305.814149 
L 325.44 305.751654 
L 341.672727 305.65261 
L 349.789091 305.542735 
L 357.905455 305.431264 
L 366.021818 305.26733 
L 374.138182 305.122688 
L 382.254545 304.984593 
L 390.370909 304.835255 
L 398.487273 304.712607 
" style="fill:none;stroke:#60897e;stroke-linecap:square;stroke-width:2;"/>
   </g>
   <g id="line2d_2">
    <path clip-path="url(#p9f12fee247)" d="M 284.858182 306.135085 
L 292.974545 306.05045 
L 301.090909 305.962569 
L 309.207273 305.881487 
L 317.323636 305.814149 
L 325.44 305.751654 
L 341.672727 305.65261 
L 349.789091 305.542735 
L 357.905455 305.431264 
L 366.021818 305.26733 
L 374.138182 305.122688 
L 382.254545 304.984593 
L 390.370909 304.835255 
L 398.487273 304.712607 
" style="fill:none;stroke:#427165;stroke-linecap:square;stroke-width:2;"/>
   </g>
  </g>
 </g>
 <defs>
  <clipPath id="p9f12fee247">
   <rect height="266.112" width="357.12" x="57.6" y="41.472"/>
  </clipPath>
 </defs>
</svg>
