<?xml version="1.0" encoding="utf-8" standalone="no"?>
<!DOCTYPE svg PUBLIC "-//W3C//DTD SVG 1.1//EN"
  "http://www.w3.org/Graphics/SVG/1.1/DTD/svg11.dtd">
<svg height="345.6pt" version="1.1" viewBox="0 0 460.8 345.6" width="460.8pt" xmlns="http://www.w3.org/2000/svg" xmlns:xlink="http://www.w3.org/1999/xlink">
 <metadata>
  <rdf:RDF xmlns:cc="http://creativecommons.org/ns#" xmlns:dc="http://purl.org/dc/elements/1.1/" xmlns:rdf="http://www.w3.org/1999/02/22-rdf-syntax-ns#">
   <cc:Work>
    <dc:type rdf:resource="http://purl.org/dc/dcmitype/StillImage"/>
    <dc:date>2021-05-15T13:26:00.167016</dc:date>
    <dc:format>image/svg+xml</dc:format>
    <dc:creator>
     <cc:Agent>
      <dc:title>Matplotlib v3.4.2, https://matplotlib.org/</dc:title>
     </cc:Agent>
    </dc:creator>
   </cc:Work>
  </rdf:RDF>
 </metadata>
 <defs>
  <style type="text/css">*{stroke-linecap:butt;stroke-linejoin:round;}</style>
 </defs>
 <g id="figure_1">
  <g id="patch_1">
   <path d="M 0 345.6 
L 460.8 345.6 
L 460.8 0 
L 0 0 
z
" style="fill:none;"/>
  </g>
  <g id="axes_1">
   <g id="matplotlib.axis_1"/>
   <g id="matplotlib.axis_2"/>
   <g id="PolyCollection_1">
    <defs>
     <path d="M 250.073766 -39.296013 
L 250.073766 -38.016 
L 259.34961 -38.016 
L 268.625455 -38.016 
L 296.452987 -38.016 
L 305.728831 -38.016 
L 315.004675 -38.016 
L 324.280519 -38.016 
L 333.556364 -38.016 
L 342.832208 -38.016 
L 352.108052 -38.016 
L 361.383896 -38.016 
L 379.935584 -38.016 
L 389.211429 -38.016 
L 398.487273 -38.016 
L 398.487273 -40.493272 
L 398.487273 -40.493272 
L 389.211429 -40.34577 
L 379.935584 -40.198268 
L 361.383896 -40.055458 
L 352.108052 -39.964083 
L 342.832208 -39.85089 
L 333.556364 -39.711306 
L 324.280519 -39.608729 
L 315.004675 -39.554889 
L 305.728831 -39.500522 
L 296.452987 -39.447562 
L 268.625455 -39.393957 
L 259.34961 -39.355307 
L 250.073766 -39.296013 
z
" id="m2fc0c5e68d" style="stroke:#7ea297;stroke-opacity:0.5;"/>
    </defs>
    <g clip-path="url(#pb52618b6aa)">
     <use style="fill:#7ea297;fill-opacity:0.5;stroke:#7ea297;stroke-opacity:0.5;" x="0" xlink:href="#m2fc0c5e68d" y="345.6"/>
    </g>
   </g>
   <g id="PolyCollection_2">
    <defs>
     <path d="M 73.832727 -38.035354 
L 73.832727 -38.016 
L 83.108571 -38.016 
L 92.384416 -38.016 
L 101.66026 -38.016 
L 110.936104 -38.016 
L 120.211948 -38.016 
L 138.763636 -38.016 
L 148.039481 -38.016 
L 157.315325 -38.016 
L 166.591169 -38.016 
L 175.867013 -38.016 
L 185.142857 -38.016 
L 194.418701 -38.016 
L 203.694545 -38.016 
L 212.97039 -38.016 
L 222.246234 -38.016 
L 231.522078 -38.016 
L 240.797922 -38.016 
L 250.073766 -38.016 
L 250.073766 -39.296013 
L 250.073766 -39.296013 
L 240.797922 -39.18458 
L 231.522078 -39.045054 
L 222.246234 -38.906056 
L 212.97039 -38.766941 
L 203.694545 -38.628705 
L 194.418701 -38.497332 
L 185.142857 -38.413112 
L 175.867013 -38.385078 
L 166.591169 -38.375694 
L 157.315325 -38.365782 
L 148.039481 -38.350416 
L 138.763636 -38.313291 
L 120.211948 -38.26432 
L 110.936104 -38.211594 
L 101.66026 -38.158869 
L 92.384416 -38.115527 
L 83.108571 -38.072714 
L 73.832727 -38.035354 
z
" id="m1e8327464e" style="stroke:#7ea297;stroke-opacity:0.3;"/>
    </defs>
    <g clip-path="url(#pb52618b6aa)">
     <use style="fill:#7ea297;fill-opacity:0.3;stroke:#7ea297;stroke-opacity:0.3;" x="0" xlink:href="#m1e8327464e" y="345.6"/>
    </g>
   </g>
   <g id="line2d_1">
    <path clip-path="url(#pb52618b6aa)" d="M 73.832727 307.564646 
L 83.108571 307.527286 
L 92.384416 307.484473 
L 101.66026 307.441131 
L 110.936104 307.388406 
L 120.211948 307.33568 
L 138.763636 307.286709 
L 148.039481 307.249584 
L 157.315325 307.234218 
L 166.591169 307.224306 
L 175.867013 307.214922 
L 185.142857 307.186888 
L 194.418701 307.102668 
L 203.694545 306.971295 
L 212.97039 306.833059 
L 222.246234 306.693944 
L 231.522078 306.554946 
L 240.797922 306.41542 
L 250.073766 306.303987 
L 259.34961 306.244693 
L 268.625455 306.206043 
L 296.452987 306.152438 
L 305.728831 306.099478 
L 315.004675 306.045111 
L 324.280519 305.991271 
L 333.556364 305.888694 
L 342.832208 305.74911 
L 352.108052 305.635917 
L 361.383896 305.544542 
L 379.935584 305.401732 
L 389.211429 305.25423 
L 398.487273 305.106728 
" style="fill:none;stroke:#60897e;stroke-linecap:square;stroke-width:2;"/>
   </g>
   <g id="line2d_2">
    <path clip-path="url(#pb52618b6aa)" d="M 250.073766 306.303987 
L 259.34961 306.244693 
L 268.625455 306.206043 
L 296.452987 306.152438 
L 305.728831 306.099478 
L 315.004675 306.045111 
L 324.280519 305.991271 
L 333.556364 305.888694 
L 342.832208 305.74911 
L 352.108052 305.635917 
L 361.383896 305.544542 
L 379.935584 305.401732 
L 389.211429 305.25423 
L 398.487273 305.106728 
" style="fill:none;stroke:#427165;stroke-linecap:square;stroke-width:2;"/>
   </g>
  </g>
 </g>
 <defs>
  <clipPath id="pb52618b6aa">
   <rect height="266.112" width="357.12" x="57.6" y="41.472"/>
  </clipPath>
 </defs>
</svg>
