<?xml version="1.0" encoding="utf-8" standalone="no"?>
<!DOCTYPE svg PUBLIC "-//W3C//DTD SVG 1.1//EN"
  "http://www.w3.org/Graphics/SVG/1.1/DTD/svg11.dtd">
<svg height="345.6pt" version="1.1" viewBox="0 0 460.8 345.6" width="460.8pt" xmlns="http://www.w3.org/2000/svg" xmlns:xlink="http://www.w3.org/1999/xlink">
 <metadata>
  <rdf:RDF xmlns:cc="http://creativecommons.org/ns#" xmlns:dc="http://purl.org/dc/elements/1.1/" xmlns:rdf="http://www.w3.org/1999/02/22-rdf-syntax-ns#">
   <cc:Work>
    <dc:type rdf:resource="http://purl.org/dc/dcmitype/StillImage"/>
    <dc:date>2021-05-21T13:25:46.377716</dc:date>
    <dc:format>image/svg+xml</dc:format>
    <dc:creator>
     <cc:Agent>
      <dc:title>Matplotlib v3.4.2, https://matplotlib.org/</dc:title>
     </cc:Agent>
    </dc:creator>
   </cc:Work>
  </rdf:RDF>
 </metadata>
 <defs>
  <style type="text/css">*{stroke-linecap:butt;stroke-linejoin:round;}</style>
 </defs>
 <g id="figure_1">
  <g id="patch_1">
   <path d="M 0 345.6 
L 460.8 345.6 
L 460.8 0 
L 0 0 
z
" style="fill:none;"/>
  </g>
  <g id="axes_1">
   <g id="matplotlib.axis_1"/>
   <g id="matplotlib.axis_2"/>
   <g id="PolyCollection_1">
    <defs>
     <path d="M 287.629623 -39.022476 
L 287.629623 -38.016 
L 295.548027 -38.016 
L 303.46643 -38.016 
L 311.384834 -38.016 
L 319.303237 -38.016 
L 335.140044 -38.016 
L 343.058448 -38.016 
L 350.976851 -38.016 
L 358.895255 -38.016 
L 366.813659 -38.016 
L 374.732062 -38.016 
L 382.650466 -38.016 
L 390.568869 -38.016 
L 398.487273 -38.016 
L 398.487273 -40.131028 
L 398.487273 -40.131028 
L 390.568869 -40.074303 
L 382.650466 -39.980767 
L 374.732062 -39.888576 
L 366.813659 -39.794967 
L 358.895255 -39.700123 
L 350.976851 -39.55077 
L 343.058448 -39.414209 
L 335.140044 -39.314459 
L 319.303237 -39.253373 
L 311.384834 -39.193559 
L 303.46643 -39.130948 
L 295.548027 -39.058415 
L 287.629623 -39.022476 
z
" id="mc8a15303a1" style="stroke:#7ea297;stroke-opacity:0.5;"/>
    </defs>
    <g clip-path="url(#pd76c2a2f08)">
     <use style="fill:#7ea297;fill-opacity:0.5;stroke:#7ea297;stroke-opacity:0.5;" x="0" xlink:href="#mc8a15303a1" y="345.6"/>
    </g>
   </g>
   <g id="PolyCollection_2">
    <defs>
     <path d="M 73.832727 -38.061242 
L 73.832727 -38.016 
L 81.751131 -38.016 
L 89.669534 -38.016 
L 97.587938 -38.016 
L 105.506341 -38.016 
L 113.424745 -38.016 
L 129.261552 -38.016 
L 137.179956 -38.016 
L 145.098359 -38.016 
L 153.016763 -38.016 
L 160.935166 -38.016 
L 168.85357 -38.016 
L 176.771973 -38.016 
L 184.690377 -38.016 
L 192.60878 -38.016 
L 200.527184 -38.016 
L 208.445588 -38.016 
L 216.363991 -38.016 
L 224.282395 -38.016 
L 232.200798 -38.016 
L 240.119202 -38.016 
L 263.874412 -38.016 
L 271.792816 -38.016 
L 279.71122 -38.016 
L 287.629623 -38.016 
L 287.629623 -39.022476 
L 287.629623 -39.022476 
L 279.71122 -38.989117 
L 271.792816 -38.956049 
L 263.874412 -38.922544 
L 240.119202 -38.88904 
L 232.200798 -38.844888 
L 224.282395 -38.782313 
L 216.363991 -38.697026 
L 208.445588 -38.611739 
L 200.527184 -38.526124 
L 192.60878 -38.440946 
L 184.690377 -38.355768 
L 176.771973 -38.285561 
L 168.85357 -38.244935 
L 160.935166 -38.244935 
L 153.016763 -38.244935 
L 145.098359 -38.244935 
L 137.179956 -38.244935 
L 129.261552 -38.240574 
L 113.424745 -38.22473 
L 105.506341 -38.192025 
L 97.587938 -38.15932 
L 89.669534 -38.126615 
L 81.751131 -38.093947 
L 73.832727 -38.061242 
z
" id="m0cf2848b8c" style="stroke:#7ea297;stroke-opacity:0.3;"/>
    </defs>
    <g clip-path="url(#pd76c2a2f08)">
     <use style="fill:#7ea297;fill-opacity:0.3;stroke:#7ea297;stroke-opacity:0.3;" x="0" xlink:href="#m0cf2848b8c" y="345.6"/>
    </g>
   </g>
   <g id="line2d_1">
    <path clip-path="url(#pd76c2a2f08)" d="M 73.832727 307.538758 
L 81.751131 307.506053 
L 89.669534 307.473385 
L 97.587938 307.44068 
L 105.506341 307.407975 
L 113.424745 307.37527 
L 129.261552 307.359426 
L 137.179956 307.355065 
L 145.098359 307.355065 
L 153.016763 307.355065 
L 160.935166 307.355065 
L 168.85357 307.355065 
L 176.771973 307.314439 
L 184.690377 307.244232 
L 192.60878 307.159054 
L 200.527184 307.073876 
L 208.445588 306.988261 
L 216.363991 306.902974 
L 224.282395 306.817687 
L 232.200798 306.755112 
L 240.119202 306.71096 
L 263.874412 306.677456 
L 271.792816 306.643951 
L 279.71122 306.610883 
L 287.629623 306.577524 
L 295.548027 306.541585 
L 303.46643 306.469052 
L 311.384834 306.406441 
L 319.303237 306.346627 
L 335.140044 306.285541 
L 343.058448 306.185791 
L 350.976851 306.04923 
L 358.895255 305.899877 
L 366.813659 305.805033 
L 374.732062 305.711424 
L 382.650466 305.619233 
L 390.568869 305.525697 
L 398.487273 305.468972 
" style="fill:none;stroke:#60897e;stroke-linecap:square;stroke-width:2;"/>
   </g>
   <g id="line2d_2">
    <path clip-path="url(#pd76c2a2f08)" d="M 287.629623 306.577524 
L 295.548027 306.541585 
L 303.46643 306.469052 
L 311.384834 306.406441 
L 319.303237 306.346627 
L 335.140044 306.285541 
L 343.058448 306.185791 
L 350.976851 306.04923 
L 358.895255 305.899877 
L 366.813659 305.805033 
L 374.732062 305.711424 
L 382.650466 305.619233 
L 390.568869 305.525697 
L 398.487273 305.468972 
" style="fill:none;stroke:#427165;stroke-linecap:square;stroke-width:2;"/>
   </g>
  </g>
 </g>
 <defs>
  <clipPath id="pd76c2a2f08">
   <rect height="266.112" width="357.12" x="57.6" y="41.472"/>
  </clipPath>
 </defs>
</svg>
