<?xml version="1.0" encoding="utf-8" standalone="no"?>
<!DOCTYPE svg PUBLIC "-//W3C//DTD SVG 1.1//EN"
  "http://www.w3.org/Graphics/SVG/1.1/DTD/svg11.dtd">
<!-- Created with matplotlib (https://matplotlib.org/) -->
<svg height="288pt" version="1.1" viewBox="0 0 432 288" width="432pt" xmlns="http://www.w3.org/2000/svg" xmlns:xlink="http://www.w3.org/1999/xlink">
 <metadata>
  <rdf:RDF xmlns:cc="http://creativecommons.org/ns#" xmlns:dc="http://purl.org/dc/elements/1.1/" xmlns:rdf="http://www.w3.org/1999/02/22-rdf-syntax-ns#">
   <cc:Work>
    <dc:type rdf:resource="http://purl.org/dc/dcmitype/StillImage"/>
    <dc:date>2021-05-14T21:42:58.070455</dc:date>
    <dc:format>image/svg+xml</dc:format>
    <dc:creator>
     <cc:Agent>
      <dc:title>Matplotlib v3.3.2, https://matplotlib.org/</dc:title>
     </cc:Agent>
    </dc:creator>
   </cc:Work>
  </rdf:RDF>
 </metadata>
 <defs>
  <style type="text/css">*{stroke-linecap:butt;stroke-linejoin:round;}</style>
 </defs>
 <g id="figure_1">
  <g id="patch_1">
   <path d="M 0 288 
L 432 288 
L 432 0 
L 0 0 
z
" style="fill:none;"/>
  </g>
  <g id="axes_1">
   <g id="matplotlib.axis_1"/>
   <g id="matplotlib.axis_2"/>
   <g id="PolyCollection_1">
    <defs>
     <path d="M 234.444156 -36.458061 
L 234.444156 -36 
L 243.14026 -36 
L 251.836364 -36 
L 277.924675 -36 
L 286.620779 -36 
L 295.316883 -36 
L 304.012987 -36 
L 312.709091 -36 
L 321.405195 -36 
L 330.101299 -36 
L 338.797403 -36 
L 356.18961 -36 
L 364.885714 -36 
L 373.581818 -36 
L 373.581818 -36.904227 
L 373.581818 -36.904227 
L 364.885714 -36.860714 
L 356.18961 -36.81718 
L 338.797403 -36.770608 
L 330.101299 -36.729641 
L 321.405195 -36.680802 
L 312.709091 -36.622057 
L 304.012987 -36.577838 
L 295.316883 -36.557088 
L 286.620779 -36.535438 
L 277.924675 -36.517661 
L 251.836364 -36.498685 
L 243.14026 -36.483561 
L 234.444156 -36.458061 
z
" id="mbe1d30f42f" style="stroke:#7ea297;stroke-opacity:0.5;"/>
    </defs>
    <g clip-path="url(#p4107789535)">
     <use style="fill:#7ea297;fill-opacity:0.5;stroke:#7ea297;stroke-opacity:0.5;" x="0" xlink:href="#mbe1d30f42f" y="288"/>
    </g>
   </g>
   <g id="PolyCollection_2">
    <defs>
     <path d="M 69.218182 -36.00952 
L 69.218182 -36 
L 77.914286 -36 
L 86.61039 -36 
L 95.306494 -36 
L 104.002597 -36 
L 112.698701 -36 
L 130.090909 -36 
L 138.787013 -36 
L 147.483117 -36 
L 156.179221 -36 
L 164.875325 -36 
L 173.571429 -36 
L 182.267532 -36 
L 190.963636 -36 
L 199.65974 -36 
L 208.355844 -36 
L 217.051948 -36 
L 225.748052 -36 
L 234.444156 -36 
L 234.444156 -36.458061 
L 234.444156 -36.458061 
L 225.748052 -36.407189 
L 217.051948 -36.356296 
L 208.355844 -36.306322 
L 199.65974 -36.255429 
L 190.963636 -36.205776 
L 182.267532 -36.160146 
L 173.571429 -36.134774 
L 164.875325 -36.134774 
L 156.179221 -36.134774 
L 147.483117 -36.134774 
L 138.787013 -36.13364 
L 130.090909 -36.123907 
L 112.698701 -36.104653 
L 104.002597 -36.0854 
L 95.306494 -36.066146 
L 86.61039 -36.046893 
L 77.914286 -36.027639 
L 69.218182 -36.00952 
z
" id="m7c8c32df8b" style="stroke:#7ea297;stroke-opacity:0.3;"/>
    </defs>
    <g clip-path="url(#p4107789535)">
     <use style="fill:#7ea297;fill-opacity:0.3;stroke:#7ea297;stroke-opacity:0.3;" x="0" xlink:href="#m7c8c32df8b" y="288"/>
    </g>
   </g>
   <g id="line2d_1">
    <path clip-path="url(#p4107789535)" d="M 69.218182 251.99048 
L 77.914286 251.972361 
L 86.61039 251.953107 
L 95.306494 251.933854 
L 104.002597 251.9146 
L 112.698701 251.895347 
L 130.090909 251.876093 
L 138.787013 251.86636 
L 147.483117 251.865226 
L 156.179221 251.865226 
L 164.875325 251.865226 
L 173.571429 251.865226 
L 182.267532 251.839854 
L 190.963636 251.794224 
L 199.65974 251.744571 
L 208.355844 251.693678 
L 217.051948 251.643704 
L 225.748052 251.592811 
L 234.444156 251.541939 
L 243.14026 251.516439 
L 251.836364 251.501315 
L 277.924675 251.482339 
L 286.620779 251.464562 
L 295.316883 251.442912 
L 304.012987 251.422162 
L 312.709091 251.377943 
L 321.405195 251.319198 
L 330.101299 251.270359 
L 338.797403 251.229392 
L 356.18961 251.18282 
L 364.885714 251.139286 
L 373.581818 251.095773 
" style="fill:none;stroke:#60897e;stroke-linecap:square;stroke-width:2;"/>
   </g>
   <g id="line2d_2">
    <path clip-path="url(#p4107789535)" d="M 234.444156 251.541939 
L 243.14026 251.516439 
L 251.836364 251.501315 
L 277.924675 251.482339 
L 286.620779 251.464562 
L 295.316883 251.442912 
L 304.012987 251.422162 
L 312.709091 251.377943 
L 321.405195 251.319198 
L 330.101299 251.270359 
L 338.797403 251.229392 
L 356.18961 251.18282 
L 364.885714 251.139286 
L 373.581818 251.095773 
" style="fill:none;stroke:#427165;stroke-linecap:square;stroke-width:2;"/>
   </g>
  </g>
 </g>
 <defs>
  <clipPath id="p4107789535">
   <rect height="217.44" width="334.8" x="54" y="34.56"/>
  </clipPath>
 </defs>
</svg>
