<?xml version="1.0" encoding="utf-8" standalone="no"?>
<!DOCTYPE svg PUBLIC "-//W3C//DTD SVG 1.1//EN"
  "http://www.w3.org/Graphics/SVG/1.1/DTD/svg11.dtd">
<svg height="345.6pt" version="1.1" viewBox="0 0 460.8 345.6" width="460.8pt" xmlns="http://www.w3.org/2000/svg" xmlns:xlink="http://www.w3.org/1999/xlink">
 <metadata>
  <rdf:RDF xmlns:cc="http://creativecommons.org/ns#" xmlns:dc="http://purl.org/dc/elements/1.1/" xmlns:rdf="http://www.w3.org/1999/02/22-rdf-syntax-ns#">
   <cc:Work>
    <dc:type rdf:resource="http://purl.org/dc/dcmitype/StillImage"/>
    <dc:date>2021-05-21T13:25:46.264207</dc:date>
    <dc:format>image/svg+xml</dc:format>
    <dc:creator>
     <cc:Agent>
      <dc:title>Matplotlib v3.4.2, https://matplotlib.org/</dc:title>
     </cc:Agent>
    </dc:creator>
   </cc:Work>
  </rdf:RDF>
 </metadata>
 <defs>
  <style type="text/css">*{stroke-linecap:butt;stroke-linejoin:round;}</style>
 </defs>
 <g id="figure_1">
  <g id="patch_1">
   <path d="M 0 345.6 
L 460.8 345.6 
L 460.8 0 
L 0 0 
z
" style="fill:none;"/>
  </g>
  <g id="axes_1">
   <g id="matplotlib.axis_1"/>
   <g id="matplotlib.axis_2"/>
   <g id="PolyCollection_1">
    <defs>
     <path d="M 287.629623 -38.723182 
L 287.629623 -38.016 
L 295.548027 -38.016 
L 303.46643 -38.016 
L 311.384834 -38.016 
L 319.303237 -38.016 
L 335.140044 -38.016 
L 343.058448 -38.016 
L 350.976851 -38.016 
L 358.895255 -38.016 
L 366.813659 -38.016 
L 374.732062 -38.016 
L 382.650466 -38.016 
L 390.568869 -38.016 
L 398.487273 -38.016 
L 398.487273 -39.372923 
L 398.487273 -39.372923 
L 390.568869 -39.310219 
L 382.650466 -39.249348 
L 374.732062 -39.197849 
L 366.813659 -39.178684 
L 358.895255 -39.159546 
L 350.976851 -39.12263 
L 343.058448 -39.069378 
L 335.140044 -39.016099 
L 319.303237 -38.959102 
L 311.384834 -38.908965 
L 303.46643 -38.849193 
L 295.548027 -38.777299 
L 287.629623 -38.723182 
z
" id="m2b384ccad5" style="stroke:#7ea297;stroke-opacity:0.5;"/>
    </defs>
    <g clip-path="url(#p8d446ba7a5)">
     <use style="fill:#7ea297;fill-opacity:0.5;stroke:#7ea297;stroke-opacity:0.5;" x="0" xlink:href="#m2b384ccad5" y="345.6"/>
    </g>
   </g>
   <g id="PolyCollection_2">
    <defs>
     <path d="M 73.832727 -38.027651 
L 73.832727 -38.016 
L 81.751131 -38.016 
L 89.669534 -38.016 
L 97.587938 -38.016 
L 105.506341 -38.016 
L 113.424745 -38.016 
L 129.261552 -38.016 
L 137.179956 -38.016 
L 145.098359 -38.016 
L 153.016763 -38.016 
L 160.935166 -38.016 
L 168.85357 -38.016 
L 176.771973 -38.016 
L 184.690377 -38.016 
L 192.60878 -38.016 
L 200.527184 -38.016 
L 208.445588 -38.016 
L 216.363991 -38.016 
L 224.282395 -38.016 
L 232.200798 -38.016 
L 240.119202 -38.016 
L 263.874412 -38.016 
L 271.792816 -38.016 
L 279.71122 -38.016 
L 287.629623 -38.016 
L 287.629623 -38.723182 
L 287.629623 -38.723182 
L 279.71122 -38.697787 
L 271.792816 -38.671291 
L 263.874412 -38.649535 
L 240.119202 -38.626312 
L 232.200798 -38.607802 
L 224.282395 -38.576594 
L 216.363991 -38.514334 
L 208.445588 -38.452049 
L 200.527184 -38.39089 
L 192.60878 -38.328604 
L 184.690377 -38.267838 
L 176.771973 -38.211993 
L 168.85357 -38.180942 
L 160.935166 -38.180942 
L 153.016763 -38.180942 
L 145.098359 -38.180942 
L 137.179956 -38.179554 
L 129.261552 -38.167642 
L 113.424745 -38.144079 
L 105.506341 -38.120516 
L 97.587938 -38.096953 
L 89.669534 -38.073389 
L 81.751131 -38.049826 
L 73.832727 -38.027651 
z
" id="m8c1fd41d1d" style="stroke:#7ea297;stroke-opacity:0.3;"/>
    </defs>
    <g clip-path="url(#p8d446ba7a5)">
     <use style="fill:#7ea297;fill-opacity:0.3;stroke:#7ea297;stroke-opacity:0.3;" x="0" xlink:href="#m8c1fd41d1d" y="345.6"/>
    </g>
   </g>
   <g id="line2d_1">
    <path clip-path="url(#p8d446ba7a5)" d="M 73.832727 307.572349 
L 81.751131 307.550174 
L 89.669534 307.526611 
L 97.587938 307.503047 
L 105.506341 307.479484 
L 113.424745 307.455921 
L 129.261552 307.432358 
L 137.179956 307.420446 
L 145.098359 307.419058 
L 153.016763 307.419058 
L 160.935166 307.419058 
L 168.85357 307.419058 
L 176.771973 307.388007 
L 184.690377 307.332162 
L 192.60878 307.271396 
L 200.527184 307.20911 
L 208.445588 307.147951 
L 216.363991 307.085666 
L 224.282395 307.023406 
L 232.200798 306.992198 
L 240.119202 306.973688 
L 263.874412 306.950465 
L 271.792816 306.928709 
L 279.71122 306.902213 
L 287.629623 306.876818 
L 295.548027 306.822701 
L 303.46643 306.750807 
L 311.384834 306.691035 
L 319.303237 306.640898 
L 335.140044 306.583901 
L 343.058448 306.530622 
L 350.976851 306.47737 
L 358.895255 306.440454 
L 366.813659 306.421316 
L 374.732062 306.402151 
L 382.650466 306.350652 
L 390.568869 306.289781 
L 398.487273 306.227077 
" style="fill:none;stroke:#60897e;stroke-linecap:square;stroke-width:2;"/>
   </g>
   <g id="line2d_2">
    <path clip-path="url(#p8d446ba7a5)" d="M 287.629623 306.876818 
L 295.548027 306.822701 
L 303.46643 306.750807 
L 311.384834 306.691035 
L 319.303237 306.640898 
L 335.140044 306.583901 
L 343.058448 306.530622 
L 350.976851 306.47737 
L 358.895255 306.440454 
L 366.813659 306.421316 
L 374.732062 306.402151 
L 382.650466 306.350652 
L 390.568869 306.289781 
L 398.487273 306.227077 
" style="fill:none;stroke:#427165;stroke-linecap:square;stroke-width:2;"/>
   </g>
  </g>
 </g>
 <defs>
  <clipPath id="p8d446ba7a5">
   <rect height="266.112" width="357.12" x="57.6" y="41.472"/>
  </clipPath>
 </defs>
</svg>
