<?xml version="1.0" encoding="utf-8" standalone="no"?>
<!DOCTYPE svg PUBLIC "-//W3C//DTD SVG 1.1//EN"
  "http://www.w3.org/Graphics/SVG/1.1/DTD/svg11.dtd">
<svg height="345.6pt" version="1.1" viewBox="0 0 460.8 345.6" width="460.8pt" xmlns="http://www.w3.org/2000/svg" xmlns:xlink="http://www.w3.org/1999/xlink">
 <metadata>
  <rdf:RDF xmlns:cc="http://creativecommons.org/ns#" xmlns:dc="http://purl.org/dc/elements/1.1/" xmlns:rdf="http://www.w3.org/1999/02/22-rdf-syntax-ns#">
   <cc:Work>
    <dc:type rdf:resource="http://purl.org/dc/dcmitype/StillImage"/>
    <dc:date>2021-05-21T13:25:46.091897</dc:date>
    <dc:format>image/svg+xml</dc:format>
    <dc:creator>
     <cc:Agent>
      <dc:title>Matplotlib v3.4.2, https://matplotlib.org/</dc:title>
     </cc:Agent>
    </dc:creator>
   </cc:Work>
  </rdf:RDF>
 </metadata>
 <defs>
  <style type="text/css">*{stroke-linecap:butt;stroke-linejoin:round;}</style>
 </defs>
 <g id="figure_1">
  <g id="patch_1">
   <path d="M 0 345.6 
L 460.8 345.6 
L 460.8 0 
L 0 0 
z
" style="fill:none;"/>
  </g>
  <g id="axes_1">
   <g id="matplotlib.axis_1"/>
   <g id="matplotlib.axis_2"/>
   <g id="PolyCollection_1">
    <defs>
     <path d="M 287.629623 -39.31655 
L 287.629623 -38.016 
L 295.548027 -38.016 
L 303.46643 -38.016 
L 311.384834 -38.016 
L 319.303237 -38.016 
L 335.140044 -38.016 
L 343.058448 -38.016 
L 350.976851 -38.016 
L 358.895255 -38.016 
L 366.813659 -38.016 
L 374.732062 -38.016 
L 382.650466 -38.016 
L 390.568869 -38.016 
L 398.487273 -38.016 
L 398.487273 -40.062713 
L 398.487273 -40.062713 
L 390.568869 -39.986154 
L 382.650466 -39.920276 
L 374.732062 -39.847522 
L 366.813659 -39.791568 
L 358.895255 -39.735614 
L 350.976851 -39.673587 
L 343.058448 -39.617633 
L 335.140044 -39.551661 
L 319.303237 -39.500007 
L 311.384834 -39.459814 
L 303.46643 -39.419526 
L 295.548027 -39.370732 
L 287.629623 -39.31655 
z
" id="m98935ee095" style="stroke:#7ea297;stroke-opacity:0.5;"/>
    </defs>
    <g clip-path="url(#ped7c3fb144)">
     <use style="fill:#7ea297;fill-opacity:0.5;stroke:#7ea297;stroke-opacity:0.5;" x="0" xlink:href="#m98935ee095" y="345.6"/>
    </g>
   </g>
   <g id="PolyCollection_2">
    <defs>
     <path d="M 73.832727 -38.127837 
L 73.832727 -38.016 
L 81.751131 -38.016 
L 89.669534 -38.016 
L 97.587938 -38.016 
L 105.506341 -38.016 
L 113.424745 -38.016 
L 129.261552 -38.016 
L 137.179956 -38.016 
L 145.098359 -38.016 
L 153.016763 -38.016 
L 160.935166 -38.016 
L 168.85357 -38.016 
L 176.771973 -38.016 
L 184.690377 -38.016 
L 192.60878 -38.016 
L 200.527184 -38.016 
L 208.445588 -38.016 
L 216.363991 -38.016 
L 224.282395 -38.016 
L 232.200798 -38.016 
L 240.119202 -38.016 
L 263.874412 -38.016 
L 271.792816 -38.016 
L 279.71122 -38.016 
L 287.629623 -38.016 
L 287.629623 -39.31655 
L 287.629623 -39.31655 
L 279.71122 -39.266764 
L 271.792816 -39.224042 
L 263.874412 -39.180304 
L 240.119202 -39.148334 
L 232.200798 -39.094956 
L 224.282395 -39.007386 
L 216.363991 -38.914074 
L 208.445588 -38.817667 
L 200.527184 -38.724214 
L 192.60878 -38.631777 
L 184.690377 -38.539339 
L 176.771973 -38.468404 
L 168.85357 -38.440191 
L 160.935166 -38.42918 
L 153.016763 -38.427809 
L 145.098359 -38.426439 
L 137.179956 -38.425068 
L 129.261552 -38.416184 
L 113.424745 -38.390688 
L 105.506341 -38.345887 
L 97.587938 -38.300779 
L 89.669534 -38.243124 
L 81.751131 -38.185492 
L 73.832727 -38.127837 
z
" id="m9a608289b8" style="stroke:#7ea297;stroke-opacity:0.3;"/>
    </defs>
    <g clip-path="url(#ped7c3fb144)">
     <use style="fill:#7ea297;fill-opacity:0.3;stroke:#7ea297;stroke-opacity:0.3;" x="0" xlink:href="#m9a608289b8" y="345.6"/>
    </g>
   </g>
   <g id="line2d_1">
    <path clip-path="url(#ped7c3fb144)" d="M 73.832727 307.472163 
L 81.751131 307.414508 
L 89.669534 307.356876 
L 97.587938 307.299221 
L 105.506341 307.254113 
L 113.424745 307.209312 
L 129.261552 307.183816 
L 137.179956 307.174932 
L 145.098359 307.173561 
L 153.016763 307.172191 
L 160.935166 307.17082 
L 168.85357 307.159809 
L 176.771973 307.131596 
L 184.690377 307.060661 
L 192.60878 306.968223 
L 200.527184 306.875786 
L 208.445588 306.782333 
L 216.363991 306.685926 
L 224.282395 306.592614 
L 232.200798 306.505044 
L 240.119202 306.451666 
L 263.874412 306.419696 
L 271.792816 306.375958 
L 279.71122 306.333236 
L 287.629623 306.28345 
L 295.548027 306.229268 
L 303.46643 306.180474 
L 311.384834 306.140186 
L 319.303237 306.099993 
L 335.140044 306.048339 
L 343.058448 305.982367 
L 350.976851 305.926413 
L 358.895255 305.864386 
L 366.813659 305.808432 
L 374.732062 305.752478 
L 382.650466 305.679724 
L 390.568869 305.613846 
L 398.487273 305.537287 
" style="fill:none;stroke:#60897e;stroke-linecap:square;stroke-width:2;"/>
   </g>
   <g id="line2d_2">
    <path clip-path="url(#ped7c3fb144)" d="M 287.629623 306.28345 
L 295.548027 306.229268 
L 303.46643 306.180474 
L 311.384834 306.140186 
L 319.303237 306.099993 
L 335.140044 306.048339 
L 343.058448 305.982367 
L 350.976851 305.926413 
L 358.895255 305.864386 
L 366.813659 305.808432 
L 374.732062 305.752478 
L 382.650466 305.679724 
L 390.568869 305.613846 
L 398.487273 305.537287 
" style="fill:none;stroke:#427165;stroke-linecap:square;stroke-width:2;"/>
   </g>
  </g>
 </g>
 <defs>
  <clipPath id="ped7c3fb144">
   <rect height="266.112" width="357.12" x="57.6" y="41.472"/>
  </clipPath>
 </defs>
</svg>
