<?xml version="1.0" encoding="utf-8" standalone="no"?>
<!DOCTYPE svg PUBLIC "-//W3C//DTD SVG 1.1//EN"
  "http://www.w3.org/Graphics/SVG/1.1/DTD/svg11.dtd">
<svg height="360pt" version="1.1" viewBox="0 0 720 360" width="720pt" xmlns="http://www.w3.org/2000/svg" xmlns:xlink="http://www.w3.org/1999/xlink">
 <metadata>
  <rdf:RDF xmlns:cc="http://creativecommons.org/ns#" xmlns:dc="http://purl.org/dc/elements/1.1/" xmlns:rdf="http://www.w3.org/1999/02/22-rdf-syntax-ns#">
   <cc:Work>
    <dc:type rdf:resource="http://purl.org/dc/dcmitype/StillImage"/>
    <dc:date>2021-07-04T19:31:59.533456</dc:date>
    <dc:format>image/svg+xml</dc:format>
    <dc:creator>
     <cc:Agent>
      <dc:title>Matplotlib v3.4.2, https://matplotlib.org/</dc:title>
     </cc:Agent>
    </dc:creator>
   </cc:Work>
  </rdf:RDF>
 </metadata>
 <defs>
  <style type="text/css">*{stroke-linecap:butt;stroke-linejoin:round;}</style>
 </defs>
 <g id="figure_1">
  <g id="patch_1">
   <path d="M 0 360 
L 720 360 
L 720 0 
L 0 0 
z
" style="fill:none;"/>
  </g>
  <g id="axes_1">
   <g id="matplotlib.axis_1"/>
   <g id="matplotlib.axis_2"/>
   <g id="PolyCollection_1">
    <defs>
     <path d="M 115.363636 -156.609045 
L 115.363636 -39.6 
L 154.384615 -39.6 
L 193.405594 -39.6 
L 232.426573 -39.6 
L 271.447552 -39.6 
L 310.468531 -39.6 
L 349.48951 -39.6 
L 388.51049 -39.6 
L 427.531469 -39.6 
L 466.552448 -39.6 
L 505.573427 -39.6 
L 544.594406 -39.6 
L 583.615385 -39.6 
L 622.636364 -39.6 
L 622.636364 -300.858291 
L 622.636364 -300.858291 
L 583.615385 -305.346734 
L 544.594406 -299.155779 
L 505.573427 -297.60804 
L 466.552448 -287.702513 
L 427.531469 -316.8 
L 388.51049 -285.380905 
L 349.48951 -288.940704 
L 310.468531 -261.545729 
L 271.447552 -255.045226 
L 232.426573 -226.876382 
L 193.405594 -221.459296 
L 154.384615 -177.503518 
L 115.363636 -156.609045 
z
" id="m898a9d3dde" style="stroke:#dc3545;stroke-opacity:0.3;"/>
    </defs>
    <g clip-path="url(#p83a28e4581)">
     <use style="fill:#dc3545;fill-opacity:0.3;stroke:#dc3545;stroke-opacity:0.3;" x="0" xlink:href="#m898a9d3dde" y="360"/>
    </g>
   </g>
   <g id="line2d_1">
    <path clip-path="url(#p83a28e4581)" d="M 115.363636 203.390955 
L 154.384615 182.496482 
L 193.405594 138.540704 
L 232.426573 133.123618 
L 271.447552 104.954774 
L 310.468531 98.454271 
L 349.48951 71.059296 
L 388.51049 74.619095 
L 427.531469 43.2 
L 466.552448 72.297487 
L 505.573427 62.39196 
L 544.594406 60.844221 
L 583.615385 54.653266 
L 622.636364 59.141709 
" style="fill:none;stroke:#dc3545;stroke-linecap:square;stroke-width:25;"/>
   </g>
  </g>
 </g>
 <defs>
  <clipPath id="p83a28e4581">
   <rect height="277.2" width="558" x="90" y="43.2"/>
  </clipPath>
 </defs>
</svg>
