<?xml version="1.0" encoding="utf-8" standalone="no"?>
<!DOCTYPE svg PUBLIC "-//W3C//DTD SVG 1.1//EN"
  "http://www.w3.org/Graphics/SVG/1.1/DTD/svg11.dtd">
<svg height="360pt" version="1.1" viewBox="0 0 720 360" width="720pt" xmlns="http://www.w3.org/2000/svg" xmlns:xlink="http://www.w3.org/1999/xlink">
 <metadata>
  <rdf:RDF xmlns:cc="http://creativecommons.org/ns#" xmlns:dc="http://purl.org/dc/elements/1.1/" xmlns:rdf="http://www.w3.org/1999/02/22-rdf-syntax-ns#">
   <cc:Work>
    <dc:type rdf:resource="http://purl.org/dc/dcmitype/StillImage"/>
    <dc:date>2021-05-17T13:25:15.800065</dc:date>
    <dc:format>image/svg+xml</dc:format>
    <dc:creator>
     <cc:Agent>
      <dc:title>Matplotlib v3.4.2, https://matplotlib.org/</dc:title>
     </cc:Agent>
    </dc:creator>
   </cc:Work>
  </rdf:RDF>
 </metadata>
 <defs>
  <style type="text/css">*{stroke-linecap:butt;stroke-linejoin:round;}</style>
 </defs>
 <g id="figure_1">
  <g id="patch_1">
   <path d="M 0 360 
L 720 360 
L 720 0 
L 0 0 
z
" style="fill:none;"/>
  </g>
  <g id="axes_1">
   <g id="matplotlib.axis_1"/>
   <g id="matplotlib.axis_2"/>
   <g id="PolyCollection_1">
    <defs>
     <path d="M 115.363636 -316.8 
L 115.363636 -39.6 
L 154.384615 -39.6 
L 193.405594 -39.6 
L 232.426573 -39.6 
L 271.447552 -39.6 
L 310.468531 -39.6 
L 349.48951 -39.6 
L 388.51049 -39.6 
L 427.531469 -39.6 
L 466.552448 -39.6 
L 505.573427 -39.6 
L 544.594406 -39.6 
L 583.615385 -39.6 
L 622.636364 -39.6 
L 622.636364 -168.132203 
L 622.636364 -168.132203 
L 583.615385 -175.515254 
L 544.594406 -192.294915 
L 505.573427 -205.718644 
L 466.552448 -214.108475 
L 427.531469 -220.820339 
L 388.51049 -238.60678 
L 349.48951 -245.654237 
L 310.468531 -274.515254 
L 271.447552 -272.166102 
L 232.426573 -290.288136 
L 193.405594 -304.383051 
L 154.384615 -316.464407 
L 115.363636 -316.8 
z
" id="m23979bc5de" style="stroke:#dc3545;stroke-opacity:0.3;"/>
    </defs>
    <g clip-path="url(#p2cc6a8440e)">
     <use style="fill:#dc3545;fill-opacity:0.3;stroke:#dc3545;stroke-opacity:0.3;" x="0" xlink:href="#m23979bc5de" y="360"/>
    </g>
   </g>
   <g id="line2d_1">
    <path clip-path="url(#p2cc6a8440e)" d="M 115.363636 43.2 
L 154.384615 43.535593 
L 193.405594 55.616949 
L 232.426573 69.711864 
L 271.447552 87.833898 
L 310.468531 85.484746 
L 349.48951 114.345763 
L 388.51049 121.39322 
L 427.531469 139.179661 
L 466.552448 145.891525 
L 505.573427 154.281356 
L 544.594406 167.705085 
L 583.615385 184.484746 
L 622.636364 191.867797 
" style="fill:none;stroke:#dc3545;stroke-linecap:square;stroke-width:25;"/>
   </g>
  </g>
 </g>
 <defs>
  <clipPath id="p2cc6a8440e">
   <rect height="277.2" width="558" x="90" y="43.2"/>
  </clipPath>
 </defs>
</svg>
