<?xml version="1.0" encoding="utf-8" standalone="no"?>
<!DOCTYPE svg PUBLIC "-//W3C//DTD SVG 1.1//EN"
  "http://www.w3.org/Graphics/SVG/1.1/DTD/svg11.dtd">
<svg height="360pt" version="1.1" viewBox="0 0 720 360" width="720pt" xmlns="http://www.w3.org/2000/svg" xmlns:xlink="http://www.w3.org/1999/xlink">
 <metadata>
  <rdf:RDF xmlns:cc="http://creativecommons.org/ns#" xmlns:dc="http://purl.org/dc/elements/1.1/" xmlns:rdf="http://www.w3.org/1999/02/22-rdf-syntax-ns#">
   <cc:Work>
    <dc:type rdf:resource="http://purl.org/dc/dcmitype/StillImage"/>
    <dc:date>2021-07-30T19:31:33.149962</dc:date>
    <dc:format>image/svg+xml</dc:format>
    <dc:creator>
     <cc:Agent>
      <dc:title>Matplotlib v3.4.2, https://matplotlib.org/</dc:title>
     </cc:Agent>
    </dc:creator>
   </cc:Work>
  </rdf:RDF>
 </metadata>
 <defs>
  <style type="text/css">*{stroke-linecap:butt;stroke-linejoin:round;}</style>
 </defs>
 <g id="figure_1">
  <g id="patch_1">
   <path d="M 0 360 
L 720 360 
L 720 0 
L 0 0 
z
" style="fill:none;"/>
  </g>
  <g id="axes_1">
   <g id="matplotlib.axis_1"/>
   <g id="matplotlib.axis_2"/>
   <g id="PolyCollection_1">
    <defs>
     <path d="M 115.363636 -96.269624 
L 115.363636 -39.6 
L 154.384615 -39.6 
L 193.405594 -39.6 
L 232.426573 -39.6 
L 271.447552 -39.6 
L 310.468531 -39.6 
L 349.48951 -39.6 
L 388.51049 -39.6 
L 427.531469 -39.6 
L 466.552448 -39.6 
L 505.573427 -39.6 
L 544.594406 -39.6 
L 583.615385 -39.6 
L 622.636364 -39.6 
L 622.636364 -297.731919 
L 622.636364 -297.731919 
L 583.615385 -316.8 
L 544.594406 -303.345419 
L 505.573427 -284.277338 
L 466.552448 -237.854581 
L 427.531469 -213.262102 
L 388.51049 -204.886403 
L 349.48951 -183.145227 
L 310.468531 -151.335391 
L 271.447552 -137.969913 
L 232.426573 -115.605014 
L 193.405594 -111.595371 
L 154.384615 -108.298554 
L 115.363636 -96.269624 
z
" id="mf3dcd2fab4" style="stroke:#dc3545;stroke-opacity:0.3;"/>
    </defs>
    <g clip-path="url(#p94326ee702)">
     <use style="fill:#dc3545;fill-opacity:0.3;stroke:#dc3545;stroke-opacity:0.3;" x="0" xlink:href="#mf3dcd2fab4" y="360"/>
    </g>
   </g>
   <g id="line2d_1">
    <path clip-path="url(#p94326ee702)" d="M 115.363636 263.730376 
L 154.384615 251.701446 
L 193.405594 248.404629 
L 232.426573 244.394986 
L 271.447552 222.030087 
L 310.468531 208.664609 
L 349.48951 176.854773 
L 388.51049 155.113597 
L 427.531469 146.737898 
L 466.552448 122.145419 
L 505.573427 75.722662 
L 544.594406 56.654581 
L 583.615385 43.2 
L 622.636364 62.268081 
" style="fill:none;stroke:#dc3545;stroke-linecap:square;stroke-width:25;"/>
   </g>
  </g>
 </g>
 <defs>
  <clipPath id="p94326ee702">
   <rect height="277.2" width="558" x="90" y="43.2"/>
  </clipPath>
 </defs>
</svg>
