<?xml version="1.0" encoding="utf-8" standalone="no"?>
<!DOCTYPE svg PUBLIC "-//W3C//DTD SVG 1.1//EN"
  "http://www.w3.org/Graphics/SVG/1.1/DTD/svg11.dtd">
<svg height="360pt" version="1.1" viewBox="0 0 720 360" width="720pt" xmlns="http://www.w3.org/2000/svg" xmlns:xlink="http://www.w3.org/1999/xlink">
 <metadata>
  <rdf:RDF xmlns:cc="http://creativecommons.org/ns#" xmlns:dc="http://purl.org/dc/elements/1.1/" xmlns:rdf="http://www.w3.org/1999/02/22-rdf-syntax-ns#">
   <cc:Work>
    <dc:type rdf:resource="http://purl.org/dc/dcmitype/StillImage"/>
    <dc:date>2021-07-26T13:24:19.086046</dc:date>
    <dc:format>image/svg+xml</dc:format>
    <dc:creator>
     <cc:Agent>
      <dc:title>Matplotlib v3.4.2, https://matplotlib.org/</dc:title>
     </cc:Agent>
    </dc:creator>
   </cc:Work>
  </rdf:RDF>
 </metadata>
 <defs>
  <style type="text/css">*{stroke-linecap:butt;stroke-linejoin:round;}</style>
 </defs>
 <g id="figure_1">
  <g id="patch_1">
   <path d="M 0 360 
L 720 360 
L 720 0 
L 0 0 
z
" style="fill:none;"/>
  </g>
  <g id="axes_1">
   <g id="matplotlib.axis_1"/>
   <g id="matplotlib.axis_2"/>
   <g id="PolyCollection_1">
    <defs>
     <path d="M 115.363636 -137.673684 
L 115.363636 -39.6 
L 154.384615 -39.6 
L 193.405594 -39.6 
L 232.426573 -39.6 
L 271.447552 -39.6 
L 310.468531 -39.6 
L 349.48951 -39.6 
L 388.51049 -39.6 
L 427.531469 -39.6 
L 466.552448 -39.6 
L 505.573427 -39.6 
L 544.594406 -39.6 
L 583.615385 -39.6 
L 622.636364 -39.6 
L 622.636364 -316.8 
L 622.636364 -316.8 
L 583.615385 -267.357895 
L 544.594406 -238.989474 
L 505.573427 -235.747368 
L 466.552448 -221.157895 
L 427.531469 -213.052632 
L 388.51049 -200.894737 
L 349.48951 -179.821053 
L 310.468531 -166.042105 
L 271.447552 -166.042105 
L 232.426573 -158.747368 
L 193.405594 -153.884211 
L 154.384615 -142.536842 
L 115.363636 -137.673684 
z
" id="m5ef3da2fdd" style="stroke:#dc3545;stroke-opacity:0.3;"/>
    </defs>
    <g clip-path="url(#p8b0f8d2b01)">
     <use style="fill:#dc3545;fill-opacity:0.3;stroke:#dc3545;stroke-opacity:0.3;" x="0" xlink:href="#m5ef3da2fdd" y="360"/>
    </g>
   </g>
   <g id="line2d_1">
    <path clip-path="url(#p8b0f8d2b01)" d="M 115.363636 222.326316 
L 154.384615 217.463158 
L 193.405594 206.115789 
L 232.426573 201.252632 
L 271.447552 193.957895 
L 310.468531 193.957895 
L 349.48951 180.178947 
L 388.51049 159.105263 
L 427.531469 146.947368 
L 466.552448 138.842105 
L 505.573427 124.252632 
L 544.594406 121.010526 
L 583.615385 92.642105 
L 622.636364 43.2 
" style="fill:none;stroke:#dc3545;stroke-linecap:square;stroke-width:25;"/>
   </g>
  </g>
 </g>
 <defs>
  <clipPath id="p8b0f8d2b01">
   <rect height="277.2" width="558" x="90" y="43.2"/>
  </clipPath>
 </defs>
</svg>
