<?xml version="1.0" encoding="utf-8" standalone="no"?>
<!DOCTYPE svg PUBLIC "-//W3C//DTD SVG 1.1//EN"
  "http://www.w3.org/Graphics/SVG/1.1/DTD/svg11.dtd">
<svg height="360pt" version="1.1" viewBox="0 0 720 360" width="720pt" xmlns="http://www.w3.org/2000/svg" xmlns:xlink="http://www.w3.org/1999/xlink">
 <metadata>
  <rdf:RDF xmlns:cc="http://creativecommons.org/ns#" xmlns:dc="http://purl.org/dc/elements/1.1/" xmlns:rdf="http://www.w3.org/1999/02/22-rdf-syntax-ns#">
   <cc:Work>
    <dc:type rdf:resource="http://purl.org/dc/dcmitype/StillImage"/>
    <dc:date>2021-07-01T13:24:55.159616</dc:date>
    <dc:format>image/svg+xml</dc:format>
    <dc:creator>
     <cc:Agent>
      <dc:title>Matplotlib v3.4.2, https://matplotlib.org/</dc:title>
     </cc:Agent>
    </dc:creator>
   </cc:Work>
  </rdf:RDF>
 </metadata>
 <defs>
  <style type="text/css">*{stroke-linecap:butt;stroke-linejoin:round;}</style>
 </defs>
 <g id="figure_1">
  <g id="patch_1">
   <path d="M 0 360 
L 720 360 
L 720 0 
L 0 0 
z
" style="fill:none;"/>
  </g>
  <g id="axes_1">
   <g id="matplotlib.axis_1"/>
   <g id="matplotlib.axis_2"/>
   <g id="PolyCollection_1">
    <defs>
     <path d="M 115.363636 -269.473171 
L 115.363636 -39.6 
L 154.384615 -39.6 
L 193.405594 -39.6 
L 232.426573 -39.6 
L 271.447552 -39.6 
L 310.468531 -39.6 
L 349.48951 -39.6 
L 388.51049 -39.6 
L 427.531469 -39.6 
L 466.552448 -39.6 
L 505.573427 -39.6 
L 544.594406 -39.6 
L 583.615385 -39.6 
L 622.636364 -39.6 
L 622.636364 -240.17561 
L 622.636364 -240.17561 
L 583.615385 -253.697561 
L 544.594406 -278.487805 
L 505.573427 -287.502439 
L 466.552448 -292.009756 
L 427.531469 -316.8 
L 388.51049 -282.995122 
L 349.48951 -294.263415 
L 310.468531 -280.741463 
L 271.447552 -242.429268 
L 232.426573 -228.907317 
L 193.405594 -197.356098 
L 154.384615 -186.087805 
L 115.363636 -269.473171 
z
" id="m83376f6de0" style="stroke:#dc3545;stroke-opacity:0.3;"/>
    </defs>
    <g clip-path="url(#pcb7cb4591a)">
     <use style="fill:#dc3545;fill-opacity:0.3;stroke:#dc3545;stroke-opacity:0.3;" x="0" xlink:href="#m83376f6de0" y="360"/>
    </g>
   </g>
   <g id="line2d_1">
    <path clip-path="url(#pcb7cb4591a)" d="M 115.363636 90.526829 
L 154.384615 173.912195 
L 193.405594 162.643902 
L 232.426573 131.092683 
L 271.447552 117.570732 
L 310.468531 79.258537 
L 349.48951 65.736585 
L 388.51049 77.004878 
L 427.531469 43.2 
L 466.552448 67.990244 
L 505.573427 72.497561 
L 544.594406 81.512195 
L 583.615385 106.302439 
L 622.636364 119.82439 
" style="fill:none;stroke:#dc3545;stroke-linecap:square;stroke-width:25;"/>
   </g>
  </g>
 </g>
 <defs>
  <clipPath id="pcb7cb4591a">
   <rect height="277.2" width="558" x="90" y="43.2"/>
  </clipPath>
 </defs>
</svg>
