<?xml version="1.0" encoding="utf-8" standalone="no"?>
<!DOCTYPE svg PUBLIC "-//W3C//DTD SVG 1.1//EN"
  "http://www.w3.org/Graphics/SVG/1.1/DTD/svg11.dtd">
<svg height="360pt" version="1.1" viewBox="0 0 720 360" width="720pt" xmlns="http://www.w3.org/2000/svg" xmlns:xlink="http://www.w3.org/1999/xlink">
 <metadata>
  <rdf:RDF xmlns:cc="http://creativecommons.org/ns#" xmlns:dc="http://purl.org/dc/elements/1.1/" xmlns:rdf="http://www.w3.org/1999/02/22-rdf-syntax-ns#">
   <cc:Work>
    <dc:type rdf:resource="http://purl.org/dc/dcmitype/StillImage"/>
    <dc:date>2021-07-04T19:31:59.499126</dc:date>
    <dc:format>image/svg+xml</dc:format>
    <dc:creator>
     <cc:Agent>
      <dc:title>Matplotlib v3.4.2, https://matplotlib.org/</dc:title>
     </cc:Agent>
    </dc:creator>
   </cc:Work>
  </rdf:RDF>
 </metadata>
 <defs>
  <style type="text/css">*{stroke-linecap:butt;stroke-linejoin:round;}</style>
 </defs>
 <g id="figure_1">
  <g id="patch_1">
   <path d="M 0 360 
L 720 360 
L 720 0 
L 0 0 
z
" style="fill:none;"/>
  </g>
  <g id="axes_1">
   <g id="matplotlib.axis_1"/>
   <g id="matplotlib.axis_2"/>
   <g id="PolyCollection_1">
    <defs>
     <path d="M 115.363636 -303.1248 
L 115.363636 -39.6 
L 154.384615 -39.6 
L 193.405594 -39.6 
L 232.426573 -39.6 
L 271.447552 -39.6 
L 310.468531 -39.6 
L 349.48951 -39.6 
L 388.51049 -39.6 
L 427.531469 -39.6 
L 466.552448 -39.6 
L 505.573427 -39.6 
L 544.594406 -39.6 
L 583.615385 -39.6 
L 622.636364 -39.6 
L 622.636364 -208.8768 
L 622.636364 -208.8768 
L 583.615385 -209.2464 
L 544.594406 -220.3344 
L 505.573427 -212.2032 
L 466.552448 -197.7888 
L 427.531469 -204.8112 
L 388.51049 -216.6384 
L 349.48951 -204.8112 
L 310.468531 -197.4192 
L 271.447552 -192.2448 
L 232.426573 -177.8304 
L 193.405594 -202.5936 
L 154.384615 -316.8 
L 115.363636 -303.1248 
z
" id="m25b72c0a89" style="stroke:#dc3545;stroke-opacity:0.3;"/>
    </defs>
    <g clip-path="url(#pc3e62ae153)">
     <use style="fill:#dc3545;fill-opacity:0.3;stroke:#dc3545;stroke-opacity:0.3;" x="0" xlink:href="#m25b72c0a89" y="360"/>
    </g>
   </g>
   <g id="line2d_1">
    <path clip-path="url(#pc3e62ae153)" d="M 115.363636 56.8752 
L 154.384615 43.2 
L 193.405594 157.4064 
L 232.426573 182.1696 
L 271.447552 167.7552 
L 310.468531 162.5808 
L 349.48951 155.1888 
L 388.51049 143.3616 
L 427.531469 155.1888 
L 466.552448 162.2112 
L 505.573427 147.7968 
L 544.594406 139.6656 
L 583.615385 150.7536 
L 622.636364 151.1232 
" style="fill:none;stroke:#dc3545;stroke-linecap:square;stroke-width:25;"/>
   </g>
  </g>
 </g>
 <defs>
  <clipPath id="pc3e62ae153">
   <rect height="277.2" width="558" x="90" y="43.2"/>
  </clipPath>
 </defs>
</svg>
