<?xml version="1.0" encoding="utf-8" standalone="no"?>
<!DOCTYPE svg PUBLIC "-//W3C//DTD SVG 1.1//EN"
  "http://www.w3.org/Graphics/SVG/1.1/DTD/svg11.dtd">
<svg height="360pt" version="1.1" viewBox="0 0 720 360" width="720pt" xmlns="http://www.w3.org/2000/svg" xmlns:xlink="http://www.w3.org/1999/xlink">
 <metadata>
  <rdf:RDF xmlns:cc="http://creativecommons.org/ns#" xmlns:dc="http://purl.org/dc/elements/1.1/" xmlns:rdf="http://www.w3.org/1999/02/22-rdf-syntax-ns#">
   <cc:Work>
    <dc:type rdf:resource="http://purl.org/dc/dcmitype/StillImage"/>
    <dc:date>2021-06-04T14:50:10.307474</dc:date>
    <dc:format>image/svg+xml</dc:format>
    <dc:creator>
     <cc:Agent>
      <dc:title>Matplotlib v3.4.2, https://matplotlib.org/</dc:title>
     </cc:Agent>
    </dc:creator>
   </cc:Work>
  </rdf:RDF>
 </metadata>
 <defs>
  <style type="text/css">*{stroke-linecap:butt;stroke-linejoin:round;}</style>
 </defs>
 <g id="figure_1">
  <g id="patch_1">
   <path d="M 0 360 
L 720 360 
L 720 0 
L 0 0 
z
" style="fill:none;"/>
  </g>
  <g id="axes_1">
   <g id="matplotlib.axis_1"/>
   <g id="matplotlib.axis_2"/>
   <g id="PolyCollection_1">
    <defs>
     <path d="M 115.363636 -234.229787 
L 115.363636 -39.6 
L 154.384615 -39.6 
L 193.405594 -39.6 
L 232.426573 -39.6 
L 271.447552 -39.6 
L 310.468531 -39.6 
L 349.48951 -39.6 
L 388.51049 -39.6 
L 427.531469 -39.6 
L 466.552448 -39.6 
L 505.573427 -39.6 
L 544.594406 -39.6 
L 583.615385 -39.6 
L 622.636364 -39.6 
L 622.636364 -86.782979 
L 622.636364 -86.782979 
L 583.615385 -92.680851 
L 544.594406 -175.251064 
L 505.573427 -169.353191 
L 466.552448 -181.148936 
L 427.531469 -204.740426 
L 388.51049 -287.310638 
L 349.48951 -316.8 
L 310.468531 -316.8 
L 271.447552 -240.12766 
L 232.426573 -251.923404 
L 193.405594 -263.719149 
L 154.384615 -257.821277 
L 115.363636 -234.229787 
z
" id="mfa50257945" style="stroke:#dc3545;stroke-opacity:0.3;"/>
    </defs>
    <g clip-path="url(#pf4cbf5e16b)">
     <use style="fill:#dc3545;fill-opacity:0.3;stroke:#dc3545;stroke-opacity:0.3;" x="0" xlink:href="#mfa50257945" y="360"/>
    </g>
   </g>
   <g id="line2d_1">
    <path clip-path="url(#pf4cbf5e16b)" d="M 115.363636 125.770213 
L 154.384615 102.178723 
L 193.405594 96.280851 
L 232.426573 108.076596 
L 271.447552 119.87234 
L 310.468531 43.2 
L 349.48951 43.2 
L 388.51049 72.689362 
L 427.531469 155.259574 
L 466.552448 178.851064 
L 505.573427 190.646809 
L 544.594406 184.748936 
L 583.615385 267.319149 
L 622.636364 273.217021 
" style="fill:none;stroke:#dc3545;stroke-linecap:square;stroke-width:25;"/>
   </g>
  </g>
 </g>
 <defs>
  <clipPath id="pf4cbf5e16b">
   <rect height="277.2" width="558" x="90" y="43.2"/>
  </clipPath>
 </defs>
</svg>
