<?xml version="1.0" encoding="utf-8" standalone="no"?>
<!DOCTYPE svg PUBLIC "-//W3C//DTD SVG 1.1//EN"
  "http://www.w3.org/Graphics/SVG/1.1/DTD/svg11.dtd">
<svg height="360pt" version="1.1" viewBox="0 0 720 360" width="720pt" xmlns="http://www.w3.org/2000/svg" xmlns:xlink="http://www.w3.org/1999/xlink">
 <metadata>
  <rdf:RDF xmlns:cc="http://creativecommons.org/ns#" xmlns:dc="http://purl.org/dc/elements/1.1/" xmlns:rdf="http://www.w3.org/1999/02/22-rdf-syntax-ns#">
   <cc:Work>
    <dc:type rdf:resource="http://purl.org/dc/dcmitype/StillImage"/>
    <dc:date>2021-07-01T13:24:55.449991</dc:date>
    <dc:format>image/svg+xml</dc:format>
    <dc:creator>
     <cc:Agent>
      <dc:title>Matplotlib v3.4.2, https://matplotlib.org/</dc:title>
     </cc:Agent>
    </dc:creator>
   </cc:Work>
  </rdf:RDF>
 </metadata>
 <defs>
  <style type="text/css">*{stroke-linecap:butt;stroke-linejoin:round;}</style>
 </defs>
 <g id="figure_1">
  <g id="patch_1">
   <path d="M 0 360 
L 720 360 
L 720 0 
L 0 0 
z
" style="fill:none;"/>
  </g>
  <g id="axes_1">
   <g id="matplotlib.axis_1"/>
   <g id="matplotlib.axis_2"/>
   <g id="PolyCollection_1">
    <defs>
     <path d="M 115.363636 -254.206452 
L 115.363636 -39.6 
L 154.384615 -39.6 
L 193.405594 -39.6 
L 232.426573 -39.6 
L 271.447552 -39.6 
L 310.468531 -39.6 
L 349.48951 -39.6 
L 388.51049 -39.6 
L 427.531469 -39.6 
L 466.552448 -39.6 
L 505.573427 -39.6 
L 544.594406 -39.6 
L 583.615385 -39.6 
L 622.636364 -39.6 
L 622.636364 -313.819355 
L 622.636364 -313.819355 
L 583.615385 -286.993548 
L 544.594406 -263.148387 
L 505.573427 -248.245161 
L 466.552448 -221.419355 
L 427.531469 -236.322581 
L 388.51049 -248.245161 
L 349.48951 -248.245161 
L 310.468531 -292.954839 
L 271.447552 -307.858065 
L 232.426573 -301.896774 
L 193.405594 -316.8 
L 154.384615 -269.109677 
L 115.363636 -254.206452 
z
" id="m85bab7d90b" style="stroke:#dc3545;stroke-opacity:0.3;"/>
    </defs>
    <g clip-path="url(#p71bf4cd2d0)">
     <use style="fill:#dc3545;fill-opacity:0.3;stroke:#dc3545;stroke-opacity:0.3;" x="0" xlink:href="#m85bab7d90b" y="360"/>
    </g>
   </g>
   <g id="line2d_1">
    <path clip-path="url(#p71bf4cd2d0)" d="M 115.363636 105.793548 
L 154.384615 90.890323 
L 193.405594 43.2 
L 232.426573 58.103226 
L 271.447552 52.141935 
L 310.468531 67.045161 
L 349.48951 111.754839 
L 388.51049 111.754839 
L 427.531469 123.677419 
L 466.552448 138.580645 
L 505.573427 111.754839 
L 544.594406 96.851613 
L 583.615385 73.006452 
L 622.636364 46.180645 
" style="fill:none;stroke:#dc3545;stroke-linecap:square;stroke-width:25;"/>
   </g>
  </g>
 </g>
 <defs>
  <clipPath id="p71bf4cd2d0">
   <rect height="277.2" width="558" x="90" y="43.2"/>
  </clipPath>
 </defs>
</svg>
