<?xml version="1.0" encoding="utf-8" standalone="no"?>
<!DOCTYPE svg PUBLIC "-//W3C//DTD SVG 1.1//EN"
  "http://www.w3.org/Graphics/SVG/1.1/DTD/svg11.dtd">
<svg height="360pt" version="1.1" viewBox="0 0 720 360" width="720pt" xmlns="http://www.w3.org/2000/svg" xmlns:xlink="http://www.w3.org/1999/xlink">
 <metadata>
  <rdf:RDF xmlns:cc="http://creativecommons.org/ns#" xmlns:dc="http://purl.org/dc/elements/1.1/" xmlns:rdf="http://www.w3.org/1999/02/22-rdf-syntax-ns#">
   <cc:Work>
    <dc:type rdf:resource="http://purl.org/dc/dcmitype/StillImage"/>
    <dc:date>2021-08-05T08:59:28.343249</dc:date>
    <dc:format>image/svg+xml</dc:format>
    <dc:creator>
     <cc:Agent>
      <dc:title>Matplotlib v3.4.2, https://matplotlib.org/</dc:title>
     </cc:Agent>
    </dc:creator>
   </cc:Work>
  </rdf:RDF>
 </metadata>
 <defs>
  <style type="text/css">*{stroke-linecap:butt;stroke-linejoin:round;}</style>
 </defs>
 <g id="figure_1">
  <g id="patch_1">
   <path d="M 0 360 
L 720 360 
L 720 0 
L 0 0 
z
" style="fill:none;"/>
  </g>
  <g id="axes_1">
   <g id="matplotlib.axis_1"/>
   <g id="matplotlib.axis_2"/>
   <g id="PolyCollection_1">
    <defs>
     <path d="M 115.363636 -195.095455 
L 115.363636 -39.6 
L 154.384615 -39.6 
L 193.405594 -39.6 
L 232.426573 -39.6 
L 271.447552 -39.6 
L 310.468531 -39.6 
L 349.48951 -39.6 
L 388.51049 -39.6 
L 427.531469 -39.6 
L 466.552448 -39.6 
L 505.573427 -39.6 
L 544.594406 -39.6 
L 583.615385 -39.6 
L 622.636364 -39.6 
L 622.636364 -282.722727 
L 622.636364 -282.722727 
L 583.615385 -236.331818 
L 544.594406 -274.990909 
L 505.573427 -266.972727 
L 466.552448 -316.8 
L 427.531469 -266.686364 
L 388.51049 -257.809091 
L 349.48951 -274.704545 
L 310.468531 -268.118182 
L 271.447552 -239.481818 
L 232.426573 -242.059091 
L 193.405594 -211.990909 
L 154.384615 -195.668182 
L 115.363636 -195.095455 
z
" id="m6cc4077509" style="stroke:#dc3545;stroke-opacity:0.3;"/>
    </defs>
    <g clip-path="url(#p2e2271e3c8)">
     <use style="fill:#dc3545;fill-opacity:0.3;stroke:#dc3545;stroke-opacity:0.3;" x="0" xlink:href="#m6cc4077509" y="360"/>
    </g>
   </g>
   <g id="line2d_1">
    <path clip-path="url(#p2e2271e3c8)" d="M 115.363636 164.904545 
L 154.384615 164.331818 
L 193.405594 148.009091 
L 232.426573 117.940909 
L 271.447552 120.518182 
L 310.468531 91.881818 
L 349.48951 85.295455 
L 388.51049 102.190909 
L 427.531469 93.313636 
L 466.552448 43.2 
L 505.573427 93.027273 
L 544.594406 85.009091 
L 583.615385 123.668182 
L 622.636364 77.277273 
" style="fill:none;stroke:#dc3545;stroke-linecap:square;stroke-width:25;"/>
   </g>
  </g>
 </g>
 <defs>
  <clipPath id="p2e2271e3c8">
   <rect height="277.2" width="558" x="90" y="43.2"/>
  </clipPath>
 </defs>
</svg>
