<?xml version="1.0" encoding="utf-8" standalone="no"?>
<!DOCTYPE svg PUBLIC "-//W3C//DTD SVG 1.1//EN"
  "http://www.w3.org/Graphics/SVG/1.1/DTD/svg11.dtd">
<svg height="360pt" version="1.1" viewBox="0 0 720 360" width="720pt" xmlns="http://www.w3.org/2000/svg" xmlns:xlink="http://www.w3.org/1999/xlink">
 <metadata>
  <rdf:RDF xmlns:cc="http://creativecommons.org/ns#" xmlns:dc="http://purl.org/dc/elements/1.1/" xmlns:rdf="http://www.w3.org/1999/02/22-rdf-syntax-ns#">
   <cc:Work>
    <dc:type rdf:resource="http://purl.org/dc/dcmitype/StillImage"/>
    <dc:date>2021-07-18T19:29:51.782290</dc:date>
    <dc:format>image/svg+xml</dc:format>
    <dc:creator>
     <cc:Agent>
      <dc:title>Matplotlib v3.4.2, https://matplotlib.org/</dc:title>
     </cc:Agent>
    </dc:creator>
   </cc:Work>
  </rdf:RDF>
 </metadata>
 <defs>
  <style type="text/css">*{stroke-linecap:butt;stroke-linejoin:round;}</style>
 </defs>
 <g id="figure_1">
  <g id="patch_1">
   <path d="M 0 360 
L 720 360 
L 720 0 
L 0 0 
z
" style="fill:none;"/>
  </g>
  <g id="axes_1">
   <g id="matplotlib.axis_1"/>
   <g id="matplotlib.axis_2"/>
   <g id="PolyCollection_1">
    <defs>
     <path d="M 115.363636 -226.441989 
L 115.363636 -39.6 
L 154.384615 -39.6 
L 193.405594 -39.6 
L 232.426573 -39.6 
L 271.447552 -39.6 
L 310.468531 -39.6 
L 349.48951 -39.6 
L 388.51049 -39.6 
L 427.531469 -39.6 
L 466.552448 -39.6 
L 505.573427 -39.6 
L 544.594406 -39.6 
L 583.615385 -39.6 
L 622.636364 -39.6 
L 622.636364 -310.674033 
L 622.636364 -310.674033 
L 583.615385 -315.268508 
L 544.594406 -286.170166 
L 505.573427 -316.8 
L 466.552448 -289.233149 
L 427.531469 -284.638674 
L 388.51049 -292.296133 
L 349.48951 -260.134807 
L 310.468531 -270.855249 
L 271.447552 -283.107182 
L 232.426573 -254.00884 
L 193.405594 -273.918232 
L 154.384615 -267.792265 
L 115.363636 -226.441989 
z
" id="m8f6e2e64a2" style="stroke:#dc3545;stroke-opacity:0.3;"/>
    </defs>
    <g clip-path="url(#pddc1c6f069)">
     <use style="fill:#dc3545;fill-opacity:0.3;stroke:#dc3545;stroke-opacity:0.3;" x="0" xlink:href="#m8f6e2e64a2" y="360"/>
    </g>
   </g>
   <g id="line2d_1">
    <path clip-path="url(#pddc1c6f069)" d="M 115.363636 133.558011 
L 154.384615 92.207735 
L 193.405594 86.081768 
L 232.426573 105.99116 
L 271.447552 76.892818 
L 310.468531 89.144751 
L 349.48951 99.865193 
L 388.51049 67.703867 
L 427.531469 75.361326 
L 466.552448 70.766851 
L 505.573427 43.2 
L 544.594406 73.829834 
L 583.615385 44.731492 
L 622.636364 49.325967 
" style="fill:none;stroke:#dc3545;stroke-linecap:square;stroke-width:25;"/>
   </g>
  </g>
 </g>
 <defs>
  <clipPath id="pddc1c6f069">
   <rect height="277.2" width="558" x="90" y="43.2"/>
  </clipPath>
 </defs>
</svg>
