<?xml version="1.0" encoding="utf-8" standalone="no"?>
<!DOCTYPE svg PUBLIC "-//W3C//DTD SVG 1.1//EN"
  "http://www.w3.org/Graphics/SVG/1.1/DTD/svg11.dtd">
<svg height="360pt" version="1.1" viewBox="0 0 720 360" width="720pt" xmlns="http://www.w3.org/2000/svg" xmlns:xlink="http://www.w3.org/1999/xlink">
 <metadata>
  <rdf:RDF xmlns:cc="http://creativecommons.org/ns#" xmlns:dc="http://purl.org/dc/elements/1.1/" xmlns:rdf="http://www.w3.org/1999/02/22-rdf-syntax-ns#">
   <cc:Work>
    <dc:type rdf:resource="http://purl.org/dc/dcmitype/StillImage"/>
    <dc:date>2021-06-09T13:32:54.466362</dc:date>
    <dc:format>image/svg+xml</dc:format>
    <dc:creator>
     <cc:Agent>
      <dc:title>Matplotlib v3.4.2, https://matplotlib.org/</dc:title>
     </cc:Agent>
    </dc:creator>
   </cc:Work>
  </rdf:RDF>
 </metadata>
 <defs>
  <style type="text/css">*{stroke-linecap:butt;stroke-linejoin:round;}</style>
 </defs>
 <g id="figure_1">
  <g id="patch_1">
   <path d="M 0 360 
L 720 360 
L 720 0 
L 0 0 
z
" style="fill:none;"/>
  </g>
  <g id="axes_1">
   <g id="matplotlib.axis_1"/>
   <g id="matplotlib.axis_2"/>
   <g id="PolyCollection_1">
    <defs>
     <path d="M 115.363636 -210.090265 
L 115.363636 -39.6 
L 154.384615 -39.6 
L 193.405594 -39.6 
L 232.426573 -39.6 
L 271.447552 -39.6 
L 310.468531 -39.6 
L 349.48951 -39.6 
L 388.51049 -39.6 
L 427.531469 -39.6 
L 466.552448 -39.6 
L 505.573427 -39.6 
L 544.594406 -39.6 
L 583.615385 -39.6 
L 622.636364 -39.6 
L 622.636364 -282.456637 
L 622.636364 -282.456637 
L 583.615385 -278.776991 
L 544.594406 -282.456637 
L 505.573427 -316.8 
L 466.552448 -272.644248 
L 427.531469 -295.948673 
L 388.51049 -268.964602 
L 349.48951 -241.980531 
L 310.468531 -257.925664 
L 271.447552 -255.472566 
L 232.426573 -240.753982 
L 193.405594 -212.543363 
L 154.384615 -205.184071 
L 115.363636 -210.090265 
z
" id="m8692ddb00b" style="stroke:#dc3545;stroke-opacity:0.3;"/>
    </defs>
    <g clip-path="url(#pfd5b44c1f5)">
     <use style="fill:#dc3545;fill-opacity:0.3;stroke:#dc3545;stroke-opacity:0.3;" x="0" xlink:href="#m8692ddb00b" y="360"/>
    </g>
   </g>
   <g id="line2d_1">
    <path clip-path="url(#pfd5b44c1f5)" d="M 115.363636 149.909735 
L 154.384615 154.815929 
L 193.405594 147.456637 
L 232.426573 119.246018 
L 271.447552 104.527434 
L 310.468531 102.074336 
L 349.48951 118.019469 
L 388.51049 91.035398 
L 427.531469 64.051327 
L 466.552448 87.355752 
L 505.573427 43.2 
L 544.594406 77.543363 
L 583.615385 81.223009 
L 622.636364 77.543363 
" style="fill:none;stroke:#dc3545;stroke-linecap:square;stroke-width:25;"/>
   </g>
  </g>
 </g>
 <defs>
  <clipPath id="pfd5b44c1f5">
   <rect height="277.2" width="558" x="90" y="43.2"/>
  </clipPath>
 </defs>
</svg>
