<?xml version="1.0" encoding="utf-8" standalone="no"?>
<!DOCTYPE svg PUBLIC "-//W3C//DTD SVG 1.1//EN"
  "http://www.w3.org/Graphics/SVG/1.1/DTD/svg11.dtd">
<svg height="360pt" version="1.1" viewBox="0 0 720 360" width="720pt" xmlns="http://www.w3.org/2000/svg" xmlns:xlink="http://www.w3.org/1999/xlink">
 <metadata>
  <rdf:RDF xmlns:cc="http://creativecommons.org/ns#" xmlns:dc="http://purl.org/dc/elements/1.1/" xmlns:rdf="http://www.w3.org/1999/02/22-rdf-syntax-ns#">
   <cc:Work>
    <dc:type rdf:resource="http://purl.org/dc/dcmitype/StillImage"/>
    <dc:date>2021-07-29T13:25:24.964016</dc:date>
    <dc:format>image/svg+xml</dc:format>
    <dc:creator>
     <cc:Agent>
      <dc:title>Matplotlib v3.4.2, https://matplotlib.org/</dc:title>
     </cc:Agent>
    </dc:creator>
   </cc:Work>
  </rdf:RDF>
 </metadata>
 <defs>
  <style type="text/css">*{stroke-linecap:butt;stroke-linejoin:round;}</style>
 </defs>
 <g id="figure_1">
  <g id="patch_1">
   <path d="M 0 360 
L 720 360 
L 720 0 
L 0 0 
z
" style="fill:none;"/>
  </g>
  <g id="axes_1">
   <g id="matplotlib.axis_1"/>
   <g id="matplotlib.axis_2"/>
   <g id="PolyCollection_1">
    <defs>
     <path d="M 115.363636 -151.844295 
L 115.363636 -39.6 
L 154.384615 -39.6 
L 193.405594 -39.6 
L 232.426573 -39.6 
L 271.447552 -39.6 
L 310.468531 -39.6 
L 349.48951 -39.6 
L 388.51049 -39.6 
L 427.531469 -39.6 
L 466.552448 -39.6 
L 505.573427 -39.6 
L 544.594406 -39.6 
L 583.615385 -39.6 
L 622.636364 -39.6 
L 622.636364 -316.8 
L 622.636364 -316.8 
L 583.615385 -312.45906 
L 544.594406 -167.347651 
L 505.573427 -210.136913 
L 466.552448 -200.214765 
L 427.531469 -204.555705 
L 388.51049 -179.750336 
L 349.48951 -175.409396 
L 310.468531 -173.548993 
L 271.447552 -187.191946 
L 232.426573 -149.983893 
L 193.405594 -151.844295 
L 154.384615 -140.061745 
L 115.363636 -151.844295 
z
" id="m72e3ad049b" style="stroke:#dc3545;stroke-opacity:0.3;"/>
    </defs>
    <g clip-path="url(#p1a608a8f31)">
     <use style="fill:#dc3545;fill-opacity:0.3;stroke:#dc3545;stroke-opacity:0.3;" x="0" xlink:href="#m72e3ad049b" y="360"/>
    </g>
   </g>
   <g id="line2d_1">
    <path clip-path="url(#p1a608a8f31)" d="M 115.363636 208.155705 
L 154.384615 219.938255 
L 193.405594 208.155705 
L 232.426573 210.016107 
L 271.447552 172.808054 
L 310.468531 186.451007 
L 349.48951 184.590604 
L 388.51049 180.249664 
L 427.531469 155.444295 
L 466.552448 159.785235 
L 505.573427 149.863087 
L 544.594406 192.652349 
L 583.615385 47.54094 
L 622.636364 43.2 
" style="fill:none;stroke:#dc3545;stroke-linecap:square;stroke-width:25;"/>
   </g>
  </g>
 </g>
 <defs>
  <clipPath id="p1a608a8f31">
   <rect height="277.2" width="558" x="90" y="43.2"/>
  </clipPath>
 </defs>
</svg>
