<?xml version="1.0" encoding="utf-8" standalone="no"?>
<!DOCTYPE svg PUBLIC "-//W3C//DTD SVG 1.1//EN"
  "http://www.w3.org/Graphics/SVG/1.1/DTD/svg11.dtd">
<svg height="360pt" version="1.1" viewBox="0 0 720 360" width="720pt" xmlns="http://www.w3.org/2000/svg" xmlns:xlink="http://www.w3.org/1999/xlink">
 <metadata>
  <rdf:RDF xmlns:cc="http://creativecommons.org/ns#" xmlns:dc="http://purl.org/dc/elements/1.1/" xmlns:rdf="http://www.w3.org/1999/02/22-rdf-syntax-ns#">
   <cc:Work>
    <dc:type rdf:resource="http://purl.org/dc/dcmitype/StillImage"/>
    <dc:date>2021-07-01T19:29:37.219795</dc:date>
    <dc:format>image/svg+xml</dc:format>
    <dc:creator>
     <cc:Agent>
      <dc:title>Matplotlib v3.4.2, https://matplotlib.org/</dc:title>
     </cc:Agent>
    </dc:creator>
   </cc:Work>
  </rdf:RDF>
 </metadata>
 <defs>
  <style type="text/css">*{stroke-linecap:butt;stroke-linejoin:round;}</style>
 </defs>
 <g id="figure_1">
  <g id="patch_1">
   <path d="M 0 360 
L 720 360 
L 720 0 
L 0 0 
z
" style="fill:none;"/>
  </g>
  <g id="axes_1">
   <g id="matplotlib.axis_1"/>
   <g id="matplotlib.axis_2"/>
   <g id="PolyCollection_1">
    <defs>
     <path d="M 115.363636 -220.144737 
L 115.363636 -39.6 
L 154.384615 -39.6 
L 193.405594 -39.6 
L 232.426573 -39.6 
L 271.447552 -39.6 
L 310.468531 -39.6 
L 349.48951 -39.6 
L 388.51049 -39.6 
L 427.531469 -39.6 
L 466.552448 -39.6 
L 505.573427 -39.6 
L 544.594406 -39.6 
L 583.615385 -39.6 
L 622.636364 -39.6 
L 622.636364 -311.328947 
L 622.636364 -311.328947 
L 583.615385 -316.8 
L 544.594406 -269.384211 
L 505.573427 -300.386842 
L 466.552448 -269.384211 
L 427.531469 -267.560526 
L 388.51049 -242.028947 
L 349.48951 -234.734211 
L 310.468531 -240.205263 
L 271.447552 -236.557895 
L 232.426573 -181.847368 
L 193.405594 -231.086842 
L 154.384615 -229.263158 
L 115.363636 -220.144737 
z
" id="me6690397e7" style="stroke:#dc3545;stroke-opacity:0.3;"/>
    </defs>
    <g clip-path="url(#p7e84614c73)">
     <use style="fill:#dc3545;fill-opacity:0.3;stroke:#dc3545;stroke-opacity:0.3;" x="0" xlink:href="#me6690397e7" y="360"/>
    </g>
   </g>
   <g id="line2d_1">
    <path clip-path="url(#p7e84614c73)" d="M 115.363636 139.855263 
L 154.384615 130.736842 
L 193.405594 128.913158 
L 232.426573 178.152632 
L 271.447552 123.442105 
L 310.468531 119.794737 
L 349.48951 125.265789 
L 388.51049 117.971053 
L 427.531469 92.439474 
L 466.552448 90.615789 
L 505.573427 59.613158 
L 544.594406 90.615789 
L 583.615385 43.2 
L 622.636364 48.671053 
" style="fill:none;stroke:#dc3545;stroke-linecap:square;stroke-width:25;"/>
   </g>
  </g>
 </g>
 <defs>
  <clipPath id="p7e84614c73">
   <rect height="277.2" width="558" x="90" y="43.2"/>
  </clipPath>
 </defs>
</svg>
