<?xml version="1.0" encoding="utf-8" standalone="no"?>
<!DOCTYPE svg PUBLIC "-//W3C//DTD SVG 1.1//EN"
  "http://www.w3.org/Graphics/SVG/1.1/DTD/svg11.dtd">
<svg height="360pt" version="1.1" viewBox="0 0 720 360" width="720pt" xmlns="http://www.w3.org/2000/svg" xmlns:xlink="http://www.w3.org/1999/xlink">
 <metadata>
  <rdf:RDF xmlns:cc="http://creativecommons.org/ns#" xmlns:dc="http://purl.org/dc/elements/1.1/" xmlns:rdf="http://www.w3.org/1999/02/22-rdf-syntax-ns#">
   <cc:Work>
    <dc:type rdf:resource="http://purl.org/dc/dcmitype/StillImage"/>
    <dc:date>2021-06-11T14:14:05.279812</dc:date>
    <dc:format>image/svg+xml</dc:format>
    <dc:creator>
     <cc:Agent>
      <dc:title>Matplotlib v3.4.2, https://matplotlib.org/</dc:title>
     </cc:Agent>
    </dc:creator>
   </cc:Work>
  </rdf:RDF>
 </metadata>
 <defs>
  <style type="text/css">*{stroke-linecap:butt;stroke-linejoin:round;}</style>
 </defs>
 <g id="figure_1">
  <g id="patch_1">
   <path d="M 0 360 
L 720 360 
L 720 0 
L 0 0 
z
" style="fill:none;"/>
  </g>
  <g id="axes_1">
   <g id="matplotlib.axis_1"/>
   <g id="matplotlib.axis_2"/>
   <g id="PolyCollection_1">
    <defs>
     <path d="M 115.363636 -199.703432 
L 115.363636 -39.6 
L 154.384615 -39.6 
L 193.405594 -39.6 
L 232.426573 -39.6 
L 271.447552 -39.6 
L 310.468531 -39.6 
L 349.48951 -39.6 
L 388.51049 -39.6 
L 427.531469 -39.6 
L 466.552448 -39.6 
L 505.573427 -39.6 
L 544.594406 -39.6 
L 583.615385 -39.6 
L 622.636364 -39.6 
L 622.636364 -277.276559 
L 622.636364 -277.276559 
L 583.615385 -278.884292 
L 544.594406 -275.534848 
L 505.573427 -273.659159 
L 466.552448 -278.616336 
L 427.531469 -297.373224 
L 388.51049 -307.019623 
L 349.48951 -310.369067 
L 310.468531 -316.8 
L 271.447552 -267.764137 
L 232.426573 -250.079072 
L 193.405594 -227.034896 
L 154.384615 -215.914741 
L 115.363636 -199.703432 
z
" id="ma7e776e11c" style="stroke:#dc3545;stroke-opacity:0.3;"/>
    </defs>
    <g clip-path="url(#pe07a2900a1)">
     <use style="fill:#dc3545;fill-opacity:0.3;stroke:#dc3545;stroke-opacity:0.3;" x="0" xlink:href="#ma7e776e11c" y="360"/>
    </g>
   </g>
   <g id="line2d_1">
    <path clip-path="url(#pe07a2900a1)" d="M 115.363636 160.296568 
L 154.384615 144.085259 
L 193.405594 132.965104 
L 232.426573 109.920928 
L 271.447552 92.235863 
L 310.468531 43.2 
L 349.48951 49.630933 
L 388.51049 52.980377 
L 427.531469 62.626776 
L 466.552448 81.383664 
L 505.573427 86.340841 
L 544.594406 84.465152 
L 583.615385 81.115708 
L 622.636364 82.723441 
" style="fill:none;stroke:#dc3545;stroke-linecap:square;stroke-width:25;"/>
   </g>
  </g>
 </g>
 <defs>
  <clipPath id="pe07a2900a1">
   <rect height="277.2" width="558" x="90" y="43.2"/>
  </clipPath>
 </defs>
</svg>
