<?xml version="1.0" encoding="utf-8" standalone="no"?>
<!DOCTYPE svg PUBLIC "-//W3C//DTD SVG 1.1//EN"
  "http://www.w3.org/Graphics/SVG/1.1/DTD/svg11.dtd">
<svg height="360pt" version="1.1" viewBox="0 0 720 360" width="720pt" xmlns="http://www.w3.org/2000/svg" xmlns:xlink="http://www.w3.org/1999/xlink">
 <metadata>
  <rdf:RDF xmlns:cc="http://creativecommons.org/ns#" xmlns:dc="http://purl.org/dc/elements/1.1/" xmlns:rdf="http://www.w3.org/1999/02/22-rdf-syntax-ns#">
   <cc:Work>
    <dc:type rdf:resource="http://purl.org/dc/dcmitype/StillImage"/>
    <dc:date>2021-07-16T18:02:51.785970</dc:date>
    <dc:format>image/svg+xml</dc:format>
    <dc:creator>
     <cc:Agent>
      <dc:title>Matplotlib v3.4.2, https://matplotlib.org/</dc:title>
     </cc:Agent>
    </dc:creator>
   </cc:Work>
  </rdf:RDF>
 </metadata>
 <defs>
  <style type="text/css">*{stroke-linecap:butt;stroke-linejoin:round;}</style>
 </defs>
 <g id="figure_1">
  <g id="patch_1">
   <path d="M 0 360 
L 720 360 
L 720 0 
L 0 0 
z
" style="fill:none;"/>
  </g>
  <g id="axes_1">
   <g id="matplotlib.axis_1"/>
   <g id="matplotlib.axis_2"/>
   <g id="PolyCollection_1">
    <defs>
     <path d="M 115.363636 -167.752764 
L 115.363636 -39.6 
L 154.384615 -39.6 
L 193.405594 -39.6 
L 232.426573 -39.6 
L 271.447552 -39.6 
L 310.468531 -39.6 
L 349.48951 -39.6 
L 388.51049 -39.6 
L 427.531469 -39.6 
L 466.552448 -39.6 
L 505.573427 -39.6 
L 544.594406 -39.6 
L 583.615385 -39.6 
L 622.636364 -39.6 
L 622.636364 -266.653266 
L 622.636364 -266.653266 
L 583.615385 -276.40402 
L 544.594406 -302.870352 
L 505.573427 -316.8 
L 466.552448 -155.21608 
L 427.531469 -152.430151 
L 388.51049 -142.679397 
L 349.48951 -146.858291 
L 310.468531 -156.609045 
L 271.447552 -148.251256 
L 232.426573 -152.430151 
L 193.405594 -160.78794 
L 154.384615 -169.145729 
L 115.363636 -167.752764 
z
" id="m71fbe2fa6a" style="stroke:#dc3545;stroke-opacity:0.3;"/>
    </defs>
    <g clip-path="url(#pc8e7922a92)">
     <use style="fill:#dc3545;fill-opacity:0.3;stroke:#dc3545;stroke-opacity:0.3;" x="0" xlink:href="#m71fbe2fa6a" y="360"/>
    </g>
   </g>
   <g id="line2d_1">
    <path clip-path="url(#pc8e7922a92)" d="M 115.363636 192.247236 
L 154.384615 190.854271 
L 193.405594 199.21206 
L 232.426573 207.569849 
L 271.447552 211.748744 
L 310.468531 203.390955 
L 349.48951 213.141709 
L 388.51049 217.320603 
L 427.531469 207.569849 
L 466.552448 204.78392 
L 505.573427 43.2 
L 544.594406 57.129648 
L 583.615385 83.59598 
L 622.636364 93.346734 
" style="fill:none;stroke:#dc3545;stroke-linecap:square;stroke-width:25;"/>
   </g>
  </g>
 </g>
 <defs>
  <clipPath id="pc8e7922a92">
   <rect height="277.2" width="558" x="90" y="43.2"/>
  </clipPath>
 </defs>
</svg>
