<?xml version="1.0" encoding="utf-8" standalone="no"?>
<!DOCTYPE svg PUBLIC "-//W3C//DTD SVG 1.1//EN"
  "http://www.w3.org/Graphics/SVG/1.1/DTD/svg11.dtd">
<svg height="360pt" version="1.1" viewBox="0 0 720 360" width="720pt" xmlns="http://www.w3.org/2000/svg" xmlns:xlink="http://www.w3.org/1999/xlink">
 <metadata>
  <rdf:RDF xmlns:cc="http://creativecommons.org/ns#" xmlns:dc="http://purl.org/dc/elements/1.1/" xmlns:rdf="http://www.w3.org/1999/02/22-rdf-syntax-ns#">
   <cc:Work>
    <dc:type rdf:resource="http://purl.org/dc/dcmitype/StillImage"/>
    <dc:date>2021-05-27T13:49:04.561193</dc:date>
    <dc:format>image/svg+xml</dc:format>
    <dc:creator>
     <cc:Agent>
      <dc:title>Matplotlib v3.4.2, https://matplotlib.org/</dc:title>
     </cc:Agent>
    </dc:creator>
   </cc:Work>
  </rdf:RDF>
 </metadata>
 <defs>
  <style type="text/css">*{stroke-linecap:butt;stroke-linejoin:round;}</style>
 </defs>
 <g id="figure_1">
  <g id="patch_1">
   <path d="M 0 360 
L 720 360 
L 720 0 
L 0 0 
z
" style="fill:none;"/>
  </g>
  <g id="axes_1">
   <g id="matplotlib.axis_1"/>
   <g id="matplotlib.axis_2"/>
   <g id="PolyCollection_1">
    <defs>
     <path d="M 115.363636 -169.644444 
L 115.363636 -39.6 
L 154.384615 -39.6 
L 193.405594 -39.6 
L 232.426573 -39.6 
L 271.447552 -39.6 
L 310.468531 -39.6 
L 349.48951 -39.6 
L 388.51049 -39.6 
L 427.531469 -39.6 
L 466.552448 -39.6 
L 505.573427 -39.6 
L 544.594406 -39.6 
L 583.615385 -39.6 
L 622.636364 -39.6 
L 622.636364 -255.2 
L 622.636364 -255.2 
L 583.615385 -275.733333 
L 544.594406 -313.377778 
L 505.573427 -316.8 
L 466.552448 -258.622222 
L 427.531469 -316.8 
L 388.51049 -272.311111 
L 349.48951 -272.311111 
L 310.468531 -220.977778 
L 271.447552 -179.911111 
L 232.426573 -169.644444 
L 193.405594 -162.8 
L 154.384615 -138.844444 
L 115.363636 -169.644444 
z
" id="m7de5126f62" style="stroke:#dc3545;stroke-opacity:0.3;"/>
    </defs>
    <g clip-path="url(#p08c4c22eb3)">
     <use style="fill:#dc3545;fill-opacity:0.3;stroke:#dc3545;stroke-opacity:0.3;" x="0" xlink:href="#m7de5126f62" y="360"/>
    </g>
   </g>
   <g id="line2d_1">
    <path clip-path="url(#p08c4c22eb3)" d="M 115.363636 190.355556 
L 154.384615 221.155556 
L 193.405594 197.2 
L 232.426573 190.355556 
L 271.447552 180.088889 
L 310.468531 139.022222 
L 349.48951 87.688889 
L 388.51049 87.688889 
L 427.531469 43.2 
L 466.552448 101.377778 
L 505.573427 43.2 
L 544.594406 46.622222 
L 583.615385 84.266667 
L 622.636364 104.8 
" style="fill:none;stroke:#dc3545;stroke-linecap:square;stroke-width:25;"/>
   </g>
  </g>
 </g>
 <defs>
  <clipPath id="p08c4c22eb3">
   <rect height="277.2" width="558" x="90" y="43.2"/>
  </clipPath>
 </defs>
</svg>
