<?xml version="1.0" encoding="utf-8" standalone="no"?>
<!DOCTYPE svg PUBLIC "-//W3C//DTD SVG 1.1//EN"
  "http://www.w3.org/Graphics/SVG/1.1/DTD/svg11.dtd">
<svg height="360pt" version="1.1" viewBox="0 0 720 360" width="720pt" xmlns="http://www.w3.org/2000/svg" xmlns:xlink="http://www.w3.org/1999/xlink">
 <metadata>
  <rdf:RDF xmlns:cc="http://creativecommons.org/ns#" xmlns:dc="http://purl.org/dc/elements/1.1/" xmlns:rdf="http://www.w3.org/1999/02/22-rdf-syntax-ns#">
   <cc:Work>
    <dc:type rdf:resource="http://purl.org/dc/dcmitype/StillImage"/>
    <dc:date>2021-07-21T13:28:28.877825</dc:date>
    <dc:format>image/svg+xml</dc:format>
    <dc:creator>
     <cc:Agent>
      <dc:title>Matplotlib v3.4.2, https://matplotlib.org/</dc:title>
     </cc:Agent>
    </dc:creator>
   </cc:Work>
  </rdf:RDF>
 </metadata>
 <defs>
  <style type="text/css">*{stroke-linecap:butt;stroke-linejoin:round;}</style>
 </defs>
 <g id="figure_1">
  <g id="patch_1">
   <path d="M 0 360 
L 720 360 
L 720 0 
L 0 0 
z
" style="fill:none;"/>
  </g>
  <g id="axes_1">
   <g id="matplotlib.axis_1"/>
   <g id="matplotlib.axis_2"/>
   <g id="PolyCollection_1">
    <defs>
     <path d="M 115.363636 -237.057534 
L 115.363636 -39.6 
L 154.384615 -39.6 
L 193.405594 -39.6 
L 232.426573 -39.6 
L 271.447552 -39.6 
L 310.468531 -39.6 
L 349.48951 -39.6 
L 388.51049 -39.6 
L 427.531469 -39.6 
L 466.552448 -39.6 
L 505.573427 -39.6 
L 544.594406 -39.6 
L 583.615385 -39.6 
L 622.636364 -39.6 
L 622.636364 -163.010959 
L 622.636364 -163.010959 
L 583.615385 -168.706849 
L 544.594406 -214.273973 
L 505.573427 -248.449315 
L 466.552448 -276.928767 
L 427.531469 -282.624658 
L 388.51049 -309.205479 
L 349.48951 -297.813699 
L 310.468531 -316.8 
L 271.447552 -292.117808 
L 232.426573 -261.739726 
L 193.405594 -233.260274 
L 154.384615 -250.347945 
L 115.363636 -237.057534 
z
" id="mdb995826e6" style="stroke:#dc3545;stroke-opacity:0.3;"/>
    </defs>
    <g clip-path="url(#p8f6582f87f)">
     <use style="fill:#dc3545;fill-opacity:0.3;stroke:#dc3545;stroke-opacity:0.3;" x="0" xlink:href="#mdb995826e6" y="360"/>
    </g>
   </g>
   <g id="line2d_1">
    <path clip-path="url(#p8f6582f87f)" d="M 115.363636 122.942466 
L 154.384615 109.652055 
L 193.405594 126.739726 
L 232.426573 98.260274 
L 271.447552 67.882192 
L 310.468531 43.2 
L 349.48951 62.186301 
L 388.51049 50.794521 
L 427.531469 77.375342 
L 466.552448 83.071233 
L 505.573427 111.550685 
L 544.594406 145.726027 
L 583.615385 191.293151 
L 622.636364 196.989041 
" style="fill:none;stroke:#dc3545;stroke-linecap:square;stroke-width:25;"/>
   </g>
  </g>
 </g>
 <defs>
  <clipPath id="p8f6582f87f">
   <rect height="277.2" width="558" x="90" y="43.2"/>
  </clipPath>
 </defs>
</svg>
