<?xml version="1.0" encoding="utf-8" standalone="no"?>
<!DOCTYPE svg PUBLIC "-//W3C//DTD SVG 1.1//EN"
  "http://www.w3.org/Graphics/SVG/1.1/DTD/svg11.dtd">
<!-- Created with matplotlib (https://matplotlib.org/) -->
<svg height="360pt" version="1.1" viewBox="0 0 720 360" width="720pt" xmlns="http://www.w3.org/2000/svg" xmlns:xlink="http://www.w3.org/1999/xlink">
 <metadata>
  <rdf:RDF xmlns:cc="http://creativecommons.org/ns#" xmlns:dc="http://purl.org/dc/elements/1.1/" xmlns:rdf="http://www.w3.org/1999/02/22-rdf-syntax-ns#">
   <cc:Work>
    <dc:type rdf:resource="http://purl.org/dc/dcmitype/StillImage"/>
    <dc:date>2021-05-16T10:12:53.512962</dc:date>
    <dc:format>image/svg+xml</dc:format>
    <dc:creator>
     <cc:Agent>
      <dc:title>Matplotlib v3.3.2, https://matplotlib.org/</dc:title>
     </cc:Agent>
    </dc:creator>
   </cc:Work>
  </rdf:RDF>
 </metadata>
 <defs>
  <style type="text/css">*{stroke-linecap:butt;stroke-linejoin:round;}</style>
 </defs>
 <g id="figure_1">
  <g id="patch_1">
   <path d="M 0 360 
L 720 360 
L 720 0 
L 0 0 
z
" style="fill:none;"/>
  </g>
  <g id="axes_1">
   <g id="matplotlib.axis_1"/>
   <g id="matplotlib.axis_2"/>
   <g id="PolyCollection_1">
    <defs>
     <path d="M 115.363636 -167.576471 
L 115.363636 -45 
L 154.384615 -45 
L 193.405594 -45 
L 232.426573 -45 
L 271.447552 -45 
L 310.468531 -45 
L 349.48951 -45 
L 388.51049 -45 
L 427.531469 -45 
L 466.552448 -45 
L 505.573427 -45 
L 544.594406 -45 
L 583.615385 -45 
L 622.636364 -45 
L 622.636364 -114.282353 
L 622.636364 -114.282353 
L 583.615385 -172.905882 
L 544.594406 -183.564706 
L 505.573427 -202.217647 
L 466.552448 -207.547059 
L 427.531469 -210.211765 
L 388.51049 -234.194118 
L 349.48951 -228.864706 
L 310.468531 -188.894118 
L 271.447552 -196.888235 
L 232.426573 -180.9 
L 193.405594 -194.223529 
L 154.384615 -191.558824 
L 115.363636 -167.576471 
z
" id="mbea77e923a" style="stroke:#dc3545;stroke-opacity:0.3;"/>
    </defs>
    <g clip-path="url(#pfd8b63461c)">
     <use style="fill:#dc3545;fill-opacity:0.3;stroke:#dc3545;stroke-opacity:0.3;" x="0" xlink:href="#mbea77e923a" y="360"/>
    </g>
   </g>
   <g id="line2d_1">
    <path clip-path="url(#pfd8b63461c)" d="M 115.363636 192.423529 
L 154.384615 168.441176 
L 193.405594 165.776471 
L 232.426573 179.1 
L 271.447552 163.111765 
L 310.468531 171.105882 
L 349.48951 131.135294 
L 388.51049 125.805882 
L 427.531469 149.788235 
L 466.552448 152.452941 
L 505.573427 157.782353 
L 544.594406 176.435294 
L 583.615385 187.094118 
L 622.636364 245.717647 
" style="fill:none;stroke:#dc3545;stroke-linecap:square;stroke-width:25;"/>
   </g>
  </g>
 </g>
 <defs>
  <clipPath id="pfd8b63461c">
   <rect height="271.8" width="558" x="90" y="43.2"/>
  </clipPath>
 </defs>
</svg>
