<?xml version="1.0" encoding="utf-8" standalone="no"?>
<!DOCTYPE svg PUBLIC "-//W3C//DTD SVG 1.1//EN"
  "http://www.w3.org/Graphics/SVG/1.1/DTD/svg11.dtd">
<svg height="360pt" version="1.1" viewBox="0 0 720 360" width="720pt" xmlns="http://www.w3.org/2000/svg" xmlns:xlink="http://www.w3.org/1999/xlink">
 <metadata>
  <rdf:RDF xmlns:cc="http://creativecommons.org/ns#" xmlns:dc="http://purl.org/dc/elements/1.1/" xmlns:rdf="http://www.w3.org/1999/02/22-rdf-syntax-ns#">
   <cc:Work>
    <dc:type rdf:resource="http://purl.org/dc/dcmitype/StillImage"/>
    <dc:date>2021-07-24T08:58:41.620631</dc:date>
    <dc:format>image/svg+xml</dc:format>
    <dc:creator>
     <cc:Agent>
      <dc:title>Matplotlib v3.4.2, https://matplotlib.org/</dc:title>
     </cc:Agent>
    </dc:creator>
   </cc:Work>
  </rdf:RDF>
 </metadata>
 <defs>
  <style type="text/css">*{stroke-linecap:butt;stroke-linejoin:round;}</style>
 </defs>
 <g id="figure_1">
  <g id="patch_1">
   <path d="M 0 360 
L 720 360 
L 720 0 
L 0 0 
z
" style="fill:none;"/>
  </g>
  <g id="axes_1">
   <g id="matplotlib.axis_1"/>
   <g id="matplotlib.axis_2"/>
   <g id="PolyCollection_1">
    <defs>
     <path d="M 115.363636 -197.603132 
L 115.363636 -39.6 
L 154.384615 -39.6 
L 193.405594 -39.6 
L 232.426573 -39.6 
L 271.447552 -39.6 
L 310.468531 -39.6 
L 349.48951 -39.6 
L 388.51049 -39.6 
L 427.531469 -39.6 
L 466.552448 -39.6 
L 505.573427 -39.6 
L 544.594406 -39.6 
L 583.615385 -39.6 
L 622.636364 -39.6 
L 622.636364 -300.218353 
L 622.636364 -300.218353 
L 583.615385 -316.8 
L 544.594406 -315.584591 
L 505.573427 -288.585155 
L 466.552448 -298.482054 
L 427.531469 -292.318196 
L 388.51049 -289.800564 
L 349.48951 -279.816849 
L 310.468531 -268.010022 
L 271.447552 -255.161416 
L 232.426573 -244.309552 
L 193.405594 -219.133229 
L 154.384615 -208.36818 
L 115.363636 -197.603132 
z
" id="m989c62ac1c" style="stroke:#dc3545;stroke-opacity:0.3;"/>
    </defs>
    <g clip-path="url(#p36cddaee1e)">
     <use style="fill:#dc3545;fill-opacity:0.3;stroke:#dc3545;stroke-opacity:0.3;" x="0" xlink:href="#m989c62ac1c" y="360"/>
    </g>
   </g>
   <g id="line2d_1">
    <path clip-path="url(#p36cddaee1e)" d="M 115.363636 162.396868 
L 154.384615 151.63182 
L 193.405594 140.866771 
L 232.426573 115.690448 
L 271.447552 104.838584 
L 310.468531 91.989978 
L 349.48951 80.183151 
L 388.51049 70.199436 
L 427.531469 67.681804 
L 466.552448 61.517946 
L 505.573427 71.414845 
L 544.594406 44.415409 
L 583.615385 43.2 
L 622.636364 59.781647 
" style="fill:none;stroke:#dc3545;stroke-linecap:square;stroke-width:25;"/>
   </g>
  </g>
 </g>
 <defs>
  <clipPath id="p36cddaee1e">
   <rect height="277.2" width="558" x="90" y="43.2"/>
  </clipPath>
 </defs>
</svg>
