<?xml version="1.0" encoding="utf-8" standalone="no"?>
<!DOCTYPE svg PUBLIC "-//W3C//DTD SVG 1.1//EN"
  "http://www.w3.org/Graphics/SVG/1.1/DTD/svg11.dtd">
<svg height="360pt" version="1.1" viewBox="0 0 720 360" width="720pt" xmlns="http://www.w3.org/2000/svg" xmlns:xlink="http://www.w3.org/1999/xlink">
 <metadata>
  <rdf:RDF xmlns:cc="http://creativecommons.org/ns#" xmlns:dc="http://purl.org/dc/elements/1.1/" xmlns:rdf="http://www.w3.org/1999/02/22-rdf-syntax-ns#">
   <cc:Work>
    <dc:type rdf:resource="http://purl.org/dc/dcmitype/StillImage"/>
    <dc:date>2021-07-29T13:25:23.654853</dc:date>
    <dc:format>image/svg+xml</dc:format>
    <dc:creator>
     <cc:Agent>
      <dc:title>Matplotlib v3.4.2, https://matplotlib.org/</dc:title>
     </cc:Agent>
    </dc:creator>
   </cc:Work>
  </rdf:RDF>
 </metadata>
 <defs>
  <style type="text/css">*{stroke-linecap:butt;stroke-linejoin:round;}</style>
 </defs>
 <g id="figure_1">
  <g id="patch_1">
   <path d="M 0 360 
L 720 360 
L 720 0 
L 0 0 
z
" style="fill:none;"/>
  </g>
  <g id="axes_1">
   <g id="matplotlib.axis_1"/>
   <g id="matplotlib.axis_2"/>
   <g id="PolyCollection_1">
    <defs>
     <path d="M 115.363636 -240.845364 
L 115.363636 -39.6 
L 154.384615 -39.6 
L 193.405594 -39.6 
L 232.426573 -39.6 
L 271.447552 -39.6 
L 310.468531 -39.6 
L 349.48951 -39.6 
L 388.51049 -39.6 
L 427.531469 -39.6 
L 466.552448 -39.6 
L 505.573427 -39.6 
L 544.594406 -39.6 
L 583.615385 -39.6 
L 622.636364 -39.6 
L 622.636364 -309.609934 
L 622.636364 -309.609934 
L 583.615385 -316.8 
L 544.594406 -307.774172 
L 505.573427 -289.951987 
L 466.552448 -279.013907 
L 427.531469 -269.223179 
L 388.51049 -283.832781 
L 349.48951 -282.761921 
L 310.468531 -258.97351 
L 271.447552 -267.693377 
L 232.426573 -262.262583 
L 193.405594 -260.044371 
L 154.384615 -251.248013 
L 115.363636 -240.845364 
z
" id="m612d4e5b5a" style="stroke:#dc3545;stroke-opacity:0.3;"/>
    </defs>
    <g clip-path="url(#p592760a7f2)">
     <use style="fill:#dc3545;fill-opacity:0.3;stroke:#dc3545;stroke-opacity:0.3;" x="0" xlink:href="#m612d4e5b5a" y="360"/>
    </g>
   </g>
   <g id="line2d_1">
    <path clip-path="url(#p592760a7f2)" d="M 115.363636 119.154636 
L 154.384615 108.751987 
L 193.405594 99.955629 
L 232.426573 97.737417 
L 271.447552 92.306623 
L 310.468531 101.02649 
L 349.48951 77.238079 
L 388.51049 76.167219 
L 427.531469 90.776821 
L 466.552448 80.986093 
L 505.573427 70.048013 
L 544.594406 52.225828 
L 583.615385 43.2 
L 622.636364 50.390066 
" style="fill:none;stroke:#dc3545;stroke-linecap:square;stroke-width:25;"/>
   </g>
  </g>
 </g>
 <defs>
  <clipPath id="p592760a7f2">
   <rect height="277.2" width="558" x="90" y="43.2"/>
  </clipPath>
 </defs>
</svg>
