<?xml version="1.0" encoding="utf-8" standalone="no"?>
<!DOCTYPE svg PUBLIC "-//W3C//DTD SVG 1.1//EN"
  "http://www.w3.org/Graphics/SVG/1.1/DTD/svg11.dtd">
<svg height="360pt" version="1.1" viewBox="0 0 720 360" width="720pt" xmlns="http://www.w3.org/2000/svg" xmlns:xlink="http://www.w3.org/1999/xlink">
 <metadata>
  <rdf:RDF xmlns:cc="http://creativecommons.org/ns#" xmlns:dc="http://purl.org/dc/elements/1.1/" xmlns:rdf="http://www.w3.org/1999/02/22-rdf-syntax-ns#">
   <cc:Work>
    <dc:type rdf:resource="http://purl.org/dc/dcmitype/StillImage"/>
    <dc:date>2021-05-30T14:15:45.930545</dc:date>
    <dc:format>image/svg+xml</dc:format>
    <dc:creator>
     <cc:Agent>
      <dc:title>Matplotlib v3.4.2, https://matplotlib.org/</dc:title>
     </cc:Agent>
    </dc:creator>
   </cc:Work>
  </rdf:RDF>
 </metadata>
 <defs>
  <style type="text/css">*{stroke-linecap:butt;stroke-linejoin:round;}</style>
 </defs>
 <g id="figure_1">
  <g id="patch_1">
   <path d="M 0 360 
L 720 360 
L 720 0 
L 0 0 
z
" style="fill:none;"/>
  </g>
  <g id="axes_1">
   <g id="matplotlib.axis_1"/>
   <g id="matplotlib.axis_2"/>
   <g id="PolyCollection_1">
    <defs>
     <path d="M 115.363636 -200.762791 
L 115.363636 -39.6 
L 154.384615 -39.6 
L 193.405594 -39.6 
L 232.426573 -39.6 
L 271.447552 -39.6 
L 310.468531 -39.6 
L 349.48951 -39.6 
L 388.51049 -39.6 
L 427.531469 -39.6 
L 466.552448 -39.6 
L 505.573427 -39.6 
L 544.594406 -39.6 
L 583.615385 -39.6 
L 622.636364 -39.6 
L 622.636364 -220.102326 
L 622.636364 -220.102326 
L 583.615385 -194.316279 
L 544.594406 -155.637209 
L 505.573427 -232.995349 
L 466.552448 -278.12093 
L 427.531469 -284.567442 
L 388.51049 -303.906977 
L 349.48951 -316.8 
L 310.468531 -316.8 
L 271.447552 -303.906977 
L 232.426573 -245.888372 
L 193.405594 -213.655814 
L 154.384615 -200.762791 
L 115.363636 -200.762791 
z
" id="mabb2e54b7c" style="stroke:#dc3545;stroke-opacity:0.3;"/>
    </defs>
    <g clip-path="url(#pb4f2b52bd0)">
     <use style="fill:#dc3545;fill-opacity:0.3;stroke:#dc3545;stroke-opacity:0.3;" x="0" xlink:href="#mabb2e54b7c" y="360"/>
    </g>
   </g>
   <g id="line2d_1">
    <path clip-path="url(#pb4f2b52bd0)" d="M 115.363636 159.237209 
L 154.384615 159.237209 
L 193.405594 146.344186 
L 232.426573 114.111628 
L 271.447552 56.093023 
L 310.468531 43.2 
L 349.48951 43.2 
L 388.51049 56.093023 
L 427.531469 75.432558 
L 466.552448 81.87907 
L 505.573427 127.004651 
L 544.594406 204.362791 
L 583.615385 165.683721 
L 622.636364 139.897674 
" style="fill:none;stroke:#dc3545;stroke-linecap:square;stroke-width:25;"/>
   </g>
  </g>
 </g>
 <defs>
  <clipPath id="pb4f2b52bd0">
   <rect height="277.2" width="558" x="90" y="43.2"/>
  </clipPath>
 </defs>
</svg>
