<?xml version="1.0" encoding="utf-8" standalone="no"?>
<!DOCTYPE svg PUBLIC "-//W3C//DTD SVG 1.1//EN"
  "http://www.w3.org/Graphics/SVG/1.1/DTD/svg11.dtd">
<svg height="360pt" version="1.1" viewBox="0 0 720 360" width="720pt" xmlns="http://www.w3.org/2000/svg" xmlns:xlink="http://www.w3.org/1999/xlink">
 <metadata>
  <rdf:RDF xmlns:cc="http://creativecommons.org/ns#" xmlns:dc="http://purl.org/dc/elements/1.1/" xmlns:rdf="http://www.w3.org/1999/02/22-rdf-syntax-ns#">
   <cc:Work>
    <dc:type rdf:resource="http://purl.org/dc/dcmitype/StillImage"/>
    <dc:date>2021-07-31T09:04:20.316286</dc:date>
    <dc:format>image/svg+xml</dc:format>
    <dc:creator>
     <cc:Agent>
      <dc:title>Matplotlib v3.4.2, https://matplotlib.org/</dc:title>
     </cc:Agent>
    </dc:creator>
   </cc:Work>
  </rdf:RDF>
 </metadata>
 <defs>
  <style type="text/css">*{stroke-linecap:butt;stroke-linejoin:round;}</style>
 </defs>
 <g id="figure_1">
  <g id="patch_1">
   <path d="M 0 360 
L 720 360 
L 720 0 
L 0 0 
z
" style="fill:none;"/>
  </g>
  <g id="axes_1">
   <g id="matplotlib.axis_1"/>
   <g id="matplotlib.axis_2"/>
   <g id="PolyCollection_1">
    <defs>
     <path d="M 115.363636 -113.419565 
L 115.363636 -39.6 
L 154.384615 -39.6 
L 193.405594 -39.6 
L 232.426573 -39.6 
L 271.447552 -39.6 
L 310.468531 -39.6 
L 349.48951 -39.6 
L 388.51049 -39.6 
L 427.531469 -39.6 
L 466.552448 -39.6 
L 505.573427 -39.6 
L 544.594406 -39.6 
L 583.615385 -39.6 
L 622.636364 -39.6 
L 622.636364 -307.007609 
L 622.636364 -307.007609 
L 583.615385 -297.215217 
L 544.594406 -316.8 
L 505.573427 -308.51413 
L 466.552448 -270.097826 
L 427.531469 -223.395652 
L 388.51049 -189.498913 
L 349.48951 -156.355435 
L 310.468531 -140.536957 
L 271.447552 -85.548913 
L 232.426573 -57.678261 
L 193.405594 -83.28913 
L 154.384615 -98.354348 
L 115.363636 -113.419565 
z
" id="m9b8a26ff4b" style="stroke:#dc3545;stroke-opacity:0.3;"/>
    </defs>
    <g clip-path="url(#pa22fe63451)">
     <use style="fill:#dc3545;fill-opacity:0.3;stroke:#dc3545;stroke-opacity:0.3;" x="0" xlink:href="#m9b8a26ff4b" y="360"/>
    </g>
   </g>
   <g id="line2d_1">
    <path clip-path="url(#pa22fe63451)" d="M 115.363636 246.580435 
L 154.384615 261.645652 
L 193.405594 276.71087 
L 232.426573 302.321739 
L 271.447552 274.451087 
L 310.468531 219.463043 
L 349.48951 203.644565 
L 388.51049 170.501087 
L 427.531469 136.604348 
L 466.552448 89.902174 
L 505.573427 51.48587 
L 544.594406 43.2 
L 583.615385 62.784783 
L 622.636364 52.992391 
" style="fill:none;stroke:#dc3545;stroke-linecap:square;stroke-width:25;"/>
   </g>
  </g>
 </g>
 <defs>
  <clipPath id="pa22fe63451">
   <rect height="277.2" width="558" x="90" y="43.2"/>
  </clipPath>
 </defs>
</svg>
