<?xml version="1.0" encoding="utf-8" standalone="no"?>
<!DOCTYPE svg PUBLIC "-//W3C//DTD SVG 1.1//EN"
  "http://www.w3.org/Graphics/SVG/1.1/DTD/svg11.dtd">
<svg height="360pt" version="1.1" viewBox="0 0 720 360" width="720pt" xmlns="http://www.w3.org/2000/svg" xmlns:xlink="http://www.w3.org/1999/xlink">
 <metadata>
  <rdf:RDF xmlns:cc="http://creativecommons.org/ns#" xmlns:dc="http://purl.org/dc/elements/1.1/" xmlns:rdf="http://www.w3.org/1999/02/22-rdf-syntax-ns#">
   <cc:Work>
    <dc:type rdf:resource="http://purl.org/dc/dcmitype/StillImage"/>
    <dc:date>2021-08-06T13:30:27.762524</dc:date>
    <dc:format>image/svg+xml</dc:format>
    <dc:creator>
     <cc:Agent>
      <dc:title>Matplotlib v3.4.2, https://matplotlib.org/</dc:title>
     </cc:Agent>
    </dc:creator>
   </cc:Work>
  </rdf:RDF>
 </metadata>
 <defs>
  <style type="text/css">*{stroke-linecap:butt;stroke-linejoin:round;}</style>
 </defs>
 <g id="figure_1">
  <g id="patch_1">
   <path d="M 0 360 
L 720 360 
L 720 0 
L 0 0 
z
" style="fill:none;"/>
  </g>
  <g id="axes_1">
   <g id="matplotlib.axis_1"/>
   <g id="matplotlib.axis_2"/>
   <g id="PolyCollection_1">
    <defs>
     <path d="M 115.363636 -217.099259 
L 115.363636 -39.6 
L 154.384615 -39.6 
L 193.405594 -39.6 
L 232.426573 -39.6 
L 271.447552 -39.6 
L 310.468531 -39.6 
L 349.48951 -39.6 
L 388.51049 -39.6 
L 427.531469 -39.6 
L 466.552448 -39.6 
L 505.573427 -39.6 
L 544.594406 -39.6 
L 583.615385 -39.6 
L 622.636364 -39.6 
L 622.636364 -154.358519 
L 622.636364 -154.358519 
L 583.615385 -212.08 
L 544.594406 -214.361481 
L 505.573427 -244.933333 
L 466.552448 -233.297778 
L 427.531469 -271.17037 
L 388.51049 -316.8 
L 349.48951 -311.096296 
L 310.468531 -279.383704 
L 271.447552 -302.426667 
L 232.426573 -307.217778 
L 193.405594 -274.136296 
L 154.384615 -262.728889 
L 115.363636 -217.099259 
z
" id="m5e0e607497" style="stroke:#dc3545;stroke-opacity:0.3;"/>
    </defs>
    <g clip-path="url(#pecf0a3162e)">
     <use style="fill:#dc3545;fill-opacity:0.3;stroke:#dc3545;stroke-opacity:0.3;" x="0" xlink:href="#m5e0e607497" y="360"/>
    </g>
   </g>
   <g id="line2d_1">
    <path clip-path="url(#pecf0a3162e)" d="M 115.363636 142.900741 
L 154.384615 97.271111 
L 193.405594 85.863704 
L 232.426573 52.782222 
L 271.447552 57.573333 
L 310.468531 80.616296 
L 349.48951 48.903704 
L 388.51049 43.2 
L 427.531469 88.82963 
L 466.552448 126.702222 
L 505.573427 115.066667 
L 544.594406 145.638519 
L 583.615385 147.92 
L 622.636364 205.641481 
" style="fill:none;stroke:#dc3545;stroke-linecap:square;stroke-width:25;"/>
   </g>
  </g>
 </g>
 <defs>
  <clipPath id="pecf0a3162e">
   <rect height="277.2" width="558" x="90" y="43.2"/>
  </clipPath>
 </defs>
</svg>
