<?xml version="1.0" encoding="utf-8" standalone="no"?>
<!DOCTYPE svg PUBLIC "-//W3C//DTD SVG 1.1//EN"
  "http://www.w3.org/Graphics/SVG/1.1/DTD/svg11.dtd">
<svg height="360pt" version="1.1" viewBox="0 0 720 360" width="720pt" xmlns="http://www.w3.org/2000/svg" xmlns:xlink="http://www.w3.org/1999/xlink">
 <metadata>
  <rdf:RDF xmlns:cc="http://creativecommons.org/ns#" xmlns:dc="http://purl.org/dc/elements/1.1/" xmlns:rdf="http://www.w3.org/1999/02/22-rdf-syntax-ns#">
   <cc:Work>
    <dc:type rdf:resource="http://purl.org/dc/dcmitype/StillImage"/>
    <dc:date>2021-08-06T09:08:15.988513</dc:date>
    <dc:format>image/svg+xml</dc:format>
    <dc:creator>
     <cc:Agent>
      <dc:title>Matplotlib v3.4.2, https://matplotlib.org/</dc:title>
     </cc:Agent>
    </dc:creator>
   </cc:Work>
  </rdf:RDF>
 </metadata>
 <defs>
  <style type="text/css">*{stroke-linecap:butt;stroke-linejoin:round;}</style>
 </defs>
 <g id="figure_1">
  <g id="patch_1">
   <path d="M 0 360 
L 720 360 
L 720 0 
L 0 0 
z
" style="fill:none;"/>
  </g>
  <g id="axes_1">
   <g id="matplotlib.axis_1"/>
   <g id="matplotlib.axis_2"/>
   <g id="PolyCollection_1">
    <defs>
     <path d="M 115.363636 -196.964879 
L 115.363636 -39.6 
L 154.384615 -39.6 
L 193.405594 -39.6 
L 232.426573 -39.6 
L 271.447552 -39.6 
L 310.468531 -39.6 
L 349.48951 -39.6 
L 388.51049 -39.6 
L 427.531469 -39.6 
L 466.552448 -39.6 
L 505.573427 -39.6 
L 544.594406 -39.6 
L 583.615385 -39.6 
L 622.636364 -39.6 
L 622.636364 -285.40134 
L 622.636364 -285.40134 
L 583.615385 -315.685255 
L 544.594406 -310.111528 
L 505.573427 -316.8 
L 466.552448 -309.182574 
L 427.531469 -301.936729 
L 388.51049 -288.373995 
L 349.48951 -276.669169 
L 310.468531 -269.051743 
L 271.447552 -255.674799 
L 232.426573 -250.472654 
L 193.405594 -235.795174 
L 154.384615 -208.483914 
L 115.363636 -196.964879 
z
" id="m0bc3c39d4d" style="stroke:#dc3545;stroke-opacity:0.3;"/>
    </defs>
    <g clip-path="url(#p175b46eeb9)">
     <use style="fill:#dc3545;fill-opacity:0.3;stroke:#dc3545;stroke-opacity:0.3;" x="0" xlink:href="#m0bc3c39d4d" y="360"/>
    </g>
   </g>
   <g id="line2d_1">
    <path clip-path="url(#p175b46eeb9)" d="M 115.363636 163.035121 
L 154.384615 151.516086 
L 193.405594 124.204826 
L 232.426573 109.527346 
L 271.447552 104.325201 
L 310.468531 90.948257 
L 349.48951 83.330831 
L 388.51049 71.626005 
L 427.531469 58.063271 
L 466.552448 50.817426 
L 505.573427 43.2 
L 544.594406 49.888472 
L 583.615385 44.314745 
L 622.636364 74.59866 
" style="fill:none;stroke:#dc3545;stroke-linecap:square;stroke-width:25;"/>
   </g>
  </g>
 </g>
 <defs>
  <clipPath id="p175b46eeb9">
   <rect height="277.2" width="558" x="90" y="43.2"/>
  </clipPath>
 </defs>
</svg>
