<?xml version="1.0" encoding="utf-8" standalone="no"?>
<!DOCTYPE svg PUBLIC "-//W3C//DTD SVG 1.1//EN"
  "http://www.w3.org/Graphics/SVG/1.1/DTD/svg11.dtd">
<svg height="360pt" version="1.1" viewBox="0 0 720 360" width="720pt" xmlns="http://www.w3.org/2000/svg" xmlns:xlink="http://www.w3.org/1999/xlink">
 <metadata>
  <rdf:RDF xmlns:cc="http://creativecommons.org/ns#" xmlns:dc="http://purl.org/dc/elements/1.1/" xmlns:rdf="http://www.w3.org/1999/02/22-rdf-syntax-ns#">
   <cc:Work>
    <dc:type rdf:resource="http://purl.org/dc/dcmitype/StillImage"/>
    <dc:date>2021-07-18T19:29:47.451437</dc:date>
    <dc:format>image/svg+xml</dc:format>
    <dc:creator>
     <cc:Agent>
      <dc:title>Matplotlib v3.4.2, https://matplotlib.org/</dc:title>
     </cc:Agent>
    </dc:creator>
   </cc:Work>
  </rdf:RDF>
 </metadata>
 <defs>
  <style type="text/css">*{stroke-linecap:butt;stroke-linejoin:round;}</style>
 </defs>
 <g id="figure_1">
  <g id="patch_1">
   <path d="M 0 360 
L 720 360 
L 720 0 
L 0 0 
z
" style="fill:none;"/>
  </g>
  <g id="axes_1">
   <g id="matplotlib.axis_1"/>
   <g id="matplotlib.axis_2"/>
   <g id="PolyCollection_1">
    <defs>
     <path d="M 115.363636 -120.337864 
L 115.363636 -39.6 
L 154.384615 -39.6 
L 193.405594 -39.6 
L 232.426573 -39.6 
L 271.447552 -39.6 
L 310.468531 -39.6 
L 349.48951 -39.6 
L 388.51049 -39.6 
L 427.531469 -39.6 
L 466.552448 -39.6 
L 505.573427 -39.6 
L 544.594406 -39.6 
L 583.615385 -39.6 
L 622.636364 -39.6 
L 622.636364 -281.140777 
L 622.636364 -281.140777 
L 583.615385 -316.8 
L 544.594406 -292.578641 
L 505.573427 -259.61068 
L 466.552448 -238.080583 
L 427.531469 -215.204854 
L 388.51049 -188.965049 
L 349.48951 -167.434951 
L 310.468531 -145.232039 
L 271.447552 -137.831068 
L 232.426573 -130.430097 
L 193.405594 -122.356311 
L 154.384615 -126.393204 
L 115.363636 -120.337864 
z
" id="m8c883b90cf" style="stroke:#dc3545;stroke-opacity:0.3;"/>
    </defs>
    <g clip-path="url(#p6c82333cdd)">
     <use style="fill:#dc3545;fill-opacity:0.3;stroke:#dc3545;stroke-opacity:0.3;" x="0" xlink:href="#m8c883b90cf" y="360"/>
    </g>
   </g>
   <g id="line2d_1">
    <path clip-path="url(#p6c82333cdd)" d="M 115.363636 239.662136 
L 154.384615 233.606796 
L 193.405594 237.643689 
L 232.426573 229.569903 
L 271.447552 222.168932 
L 310.468531 214.767961 
L 349.48951 192.565049 
L 388.51049 171.034951 
L 427.531469 144.795146 
L 466.552448 121.919417 
L 505.573427 100.38932 
L 544.594406 67.421359 
L 583.615385 43.2 
L 622.636364 78.859223 
" style="fill:none;stroke:#dc3545;stroke-linecap:square;stroke-width:25;"/>
   </g>
  </g>
 </g>
 <defs>
  <clipPath id="p6c82333cdd">
   <rect height="277.2" width="558" x="90" y="43.2"/>
  </clipPath>
 </defs>
</svg>
