<?xml version="1.0" encoding="utf-8" standalone="no"?>
<!DOCTYPE svg PUBLIC "-//W3C//DTD SVG 1.1//EN"
  "http://www.w3.org/Graphics/SVG/1.1/DTD/svg11.dtd">
<svg height="360pt" version="1.1" viewBox="0 0 720 360" width="720pt" xmlns="http://www.w3.org/2000/svg" xmlns:xlink="http://www.w3.org/1999/xlink">
 <metadata>
  <rdf:RDF xmlns:cc="http://creativecommons.org/ns#" xmlns:dc="http://purl.org/dc/elements/1.1/" xmlns:rdf="http://www.w3.org/1999/02/22-rdf-syntax-ns#">
   <cc:Work>
    <dc:type rdf:resource="http://purl.org/dc/dcmitype/StillImage"/>
    <dc:date>2021-08-05T19:26:23.950797</dc:date>
    <dc:format>image/svg+xml</dc:format>
    <dc:creator>
     <cc:Agent>
      <dc:title>Matplotlib v3.4.2, https://matplotlib.org/</dc:title>
     </cc:Agent>
    </dc:creator>
   </cc:Work>
  </rdf:RDF>
 </metadata>
 <defs>
  <style type="text/css">*{stroke-linecap:butt;stroke-linejoin:round;}</style>
 </defs>
 <g id="figure_1">
  <g id="patch_1">
   <path d="M 0 360 
L 720 360 
L 720 0 
L 0 0 
z
" style="fill:none;"/>
  </g>
  <g id="axes_1">
   <g id="matplotlib.axis_1"/>
   <g id="matplotlib.axis_2"/>
   <g id="PolyCollection_1">
    <defs>
     <path d="M 115.363636 -219.221239 
L 115.363636 -39.6 
L 154.384615 -39.6 
L 193.405594 -39.6 
L 232.426573 -39.6 
L 271.447552 -39.6 
L 310.468531 -39.6 
L 349.48951 -39.6 
L 388.51049 -39.6 
L 427.531469 -39.6 
L 466.552448 -39.6 
L 505.573427 -39.6 
L 544.594406 -39.6 
L 583.615385 -39.6 
L 622.636364 -39.6 
L 622.636364 -199.323894 
L 622.636364 -199.323894 
L 583.615385 -229.033628 
L 544.594406 -257.380531 
L 505.573427 -248.113274 
L 466.552448 -282.729204 
L 427.531469 -263.649558 
L 388.51049 -316.8 
L 349.48951 -294.722124 
L 310.468531 -299.628319 
L 271.447552 -312.166372 
L 232.426573 -303.171681 
L 193.405594 -290.088496 
L 154.384615 -251.656637 
L 115.363636 -219.221239 
z
" id="m157b04d2ca" style="stroke:#dc3545;stroke-opacity:0.3;"/>
    </defs>
    <g clip-path="url(#p156f6f8b18)">
     <use style="fill:#dc3545;fill-opacity:0.3;stroke:#dc3545;stroke-opacity:0.3;" x="0" xlink:href="#m157b04d2ca" y="360"/>
    </g>
   </g>
   <g id="line2d_1">
    <path clip-path="url(#p156f6f8b18)" d="M 115.363636 140.778761 
L 154.384615 108.343363 
L 193.405594 69.911504 
L 232.426573 56.828319 
L 271.447552 47.833628 
L 310.468531 60.371681 
L 349.48951 65.277876 
L 388.51049 43.2 
L 427.531469 96.350442 
L 466.552448 77.270796 
L 505.573427 111.886726 
L 544.594406 102.619469 
L 583.615385 130.966372 
L 622.636364 160.676106 
" style="fill:none;stroke:#dc3545;stroke-linecap:square;stroke-width:25;"/>
   </g>
  </g>
 </g>
 <defs>
  <clipPath id="p156f6f8b18">
   <rect height="277.2" width="558" x="90" y="43.2"/>
  </clipPath>
 </defs>
</svg>
