<?xml version="1.0" encoding="utf-8" standalone="no"?>
<!DOCTYPE svg PUBLIC "-//W3C//DTD SVG 1.1//EN"
  "http://www.w3.org/Graphics/SVG/1.1/DTD/svg11.dtd">
<svg height="360pt" version="1.1" viewBox="0 0 720 360" width="720pt" xmlns="http://www.w3.org/2000/svg" xmlns:xlink="http://www.w3.org/1999/xlink">
 <metadata>
  <rdf:RDF xmlns:cc="http://creativecommons.org/ns#" xmlns:dc="http://purl.org/dc/elements/1.1/" xmlns:rdf="http://www.w3.org/1999/02/22-rdf-syntax-ns#">
   <cc:Work>
    <dc:type rdf:resource="http://purl.org/dc/dcmitype/StillImage"/>
    <dc:date>2021-07-16T18:02:50.819207</dc:date>
    <dc:format>image/svg+xml</dc:format>
    <dc:creator>
     <cc:Agent>
      <dc:title>Matplotlib v3.4.2, https://matplotlib.org/</dc:title>
     </cc:Agent>
    </dc:creator>
   </cc:Work>
  </rdf:RDF>
 </metadata>
 <defs>
  <style type="text/css">*{stroke-linecap:butt;stroke-linejoin:round;}</style>
 </defs>
 <g id="figure_1">
  <g id="patch_1">
   <path d="M 0 360 
L 720 360 
L 720 0 
L 0 0 
z
" style="fill:none;"/>
  </g>
  <g id="axes_1">
   <g id="matplotlib.axis_1"/>
   <g id="matplotlib.axis_2"/>
   <g id="PolyCollection_1">
    <defs>
     <path d="M 115.363636 -130.578462 
L 115.363636 -39.6 
L 154.384615 -39.6 
L 193.405594 -39.6 
L 232.426573 -39.6 
L 271.447552 -39.6 
L 310.468531 -39.6 
L 349.48951 -39.6 
L 388.51049 -39.6 
L 427.531469 -39.6 
L 466.552448 -39.6 
L 505.573427 -39.6 
L 544.594406 -39.6 
L 583.615385 -39.6 
L 622.636364 -39.6 
L 622.636364 -294.055385 
L 622.636364 -294.055385 
L 583.615385 -228.664615 
L 544.594406 -272.732308 
L 505.573427 -316.8 
L 466.552448 -272.732308 
L 427.531469 -278.418462 
L 388.51049 -292.633846 
L 349.48951 -248.566154 
L 310.468531 -245.723077 
L 271.447552 -211.606154 
L 232.426573 -171.803077 
L 193.405594 -149.058462 
L 154.384615 -146.215385 
L 115.363636 -130.578462 
z
" id="mb9d8a66551" style="stroke:#dc3545;stroke-opacity:0.3;"/>
    </defs>
    <g clip-path="url(#p52b9f22011)">
     <use style="fill:#dc3545;fill-opacity:0.3;stroke:#dc3545;stroke-opacity:0.3;" x="0" xlink:href="#mb9d8a66551" y="360"/>
    </g>
   </g>
   <g id="line2d_1">
    <path clip-path="url(#p52b9f22011)" d="M 115.363636 229.421538 
L 154.384615 213.784615 
L 193.405594 210.941538 
L 232.426573 188.196923 
L 271.447552 148.393846 
L 310.468531 114.276923 
L 349.48951 111.433846 
L 388.51049 67.366154 
L 427.531469 81.581538 
L 466.552448 87.267692 
L 505.573427 43.2 
L 544.594406 87.267692 
L 583.615385 131.335385 
L 622.636364 65.944615 
" style="fill:none;stroke:#dc3545;stroke-linecap:square;stroke-width:25;"/>
   </g>
  </g>
 </g>
 <defs>
  <clipPath id="p52b9f22011">
   <rect height="277.2" width="558" x="90" y="43.2"/>
  </clipPath>
 </defs>
</svg>
