<?xml version="1.0" encoding="utf-8" standalone="no"?>
<!DOCTYPE svg PUBLIC "-//W3C//DTD SVG 1.1//EN"
  "http://www.w3.org/Graphics/SVG/1.1/DTD/svg11.dtd">
<svg height="360pt" version="1.1" viewBox="0 0 720 360" width="720pt" xmlns="http://www.w3.org/2000/svg" xmlns:xlink="http://www.w3.org/1999/xlink">
 <metadata>
  <rdf:RDF xmlns:cc="http://creativecommons.org/ns#" xmlns:dc="http://purl.org/dc/elements/1.1/" xmlns:rdf="http://www.w3.org/1999/02/22-rdf-syntax-ns#">
   <cc:Work>
    <dc:type rdf:resource="http://purl.org/dc/dcmitype/StillImage"/>
    <dc:date>2021-07-29T09:07:43.741565</dc:date>
    <dc:format>image/svg+xml</dc:format>
    <dc:creator>
     <cc:Agent>
      <dc:title>Matplotlib v3.4.2, https://matplotlib.org/</dc:title>
     </cc:Agent>
    </dc:creator>
   </cc:Work>
  </rdf:RDF>
 </metadata>
 <defs>
  <style type="text/css">*{stroke-linecap:butt;stroke-linejoin:round;}</style>
 </defs>
 <g id="figure_1">
  <g id="patch_1">
   <path d="M 0 360 
L 720 360 
L 720 0 
L 0 0 
z
" style="fill:none;"/>
  </g>
  <g id="axes_1">
   <g id="matplotlib.axis_1"/>
   <g id="matplotlib.axis_2"/>
   <g id="PolyCollection_1">
    <defs>
     <path d="M 115.363636 -142.295265 
L 115.363636 -39.6 
L 154.384615 -39.6 
L 193.405594 -39.6 
L 232.426573 -39.6 
L 271.447552 -39.6 
L 310.468531 -39.6 
L 349.48951 -39.6 
L 388.51049 -39.6 
L 427.531469 -39.6 
L 466.552448 -39.6 
L 505.573427 -39.6 
L 544.594406 -39.6 
L 583.615385 -39.6 
L 622.636364 -39.6 
L 622.636364 -202.522563 
L 622.636364 -202.522563 
L 583.615385 -261.977716 
L 544.594406 -316.027855 
L 505.573427 -316.8 
L 466.552448 -292.86351 
L 427.531469 -295.952089 
L 388.51049 -253.484123 
L 349.48951 -209.471866 
L 310.468531 -152.333148 
L 271.447552 -137.662396 
L 232.426573 -139.97883 
L 193.405594 -143.839554 
L 154.384615 -177.813928 
L 115.363636 -142.295265 
z
" id="m0a7e52c890" style="stroke:#dc3545;stroke-opacity:0.3;"/>
    </defs>
    <g clip-path="url(#p63cc9b0d1c)">
     <use style="fill:#dc3545;fill-opacity:0.3;stroke:#dc3545;stroke-opacity:0.3;" x="0" xlink:href="#m0a7e52c890" y="360"/>
    </g>
   </g>
   <g id="line2d_1">
    <path clip-path="url(#p63cc9b0d1c)" d="M 115.363636 217.704735 
L 154.384615 182.186072 
L 193.405594 216.160446 
L 232.426573 220.02117 
L 271.447552 222.337604 
L 310.468531 207.666852 
L 349.48951 150.528134 
L 388.51049 106.515877 
L 427.531469 64.047911 
L 466.552448 67.13649 
L 505.573427 43.2 
L 544.594406 43.972145 
L 583.615385 98.022284 
L 622.636364 157.477437 
" style="fill:none;stroke:#dc3545;stroke-linecap:square;stroke-width:25;"/>
   </g>
  </g>
 </g>
 <defs>
  <clipPath id="p63cc9b0d1c">
   <rect height="277.2" width="558" x="90" y="43.2"/>
  </clipPath>
 </defs>
</svg>
