<?xml version="1.0" encoding="utf-8" standalone="no"?>
<!DOCTYPE svg PUBLIC "-//W3C//DTD SVG 1.1//EN"
  "http://www.w3.org/Graphics/SVG/1.1/DTD/svg11.dtd">
<!-- Created with matplotlib (https://matplotlib.org/) -->
<svg height="360pt" version="1.1" viewBox="0 0 720 360" width="720pt" xmlns="http://www.w3.org/2000/svg" xmlns:xlink="http://www.w3.org/1999/xlink">
 <metadata>
  <rdf:RDF xmlns:cc="http://creativecommons.org/ns#" xmlns:dc="http://purl.org/dc/elements/1.1/" xmlns:rdf="http://www.w3.org/1999/02/22-rdf-syntax-ns#">
   <cc:Work>
    <dc:type rdf:resource="http://purl.org/dc/dcmitype/StillImage"/>
    <dc:date>2021-05-16T10:12:53.150986</dc:date>
    <dc:format>image/svg+xml</dc:format>
    <dc:creator>
     <cc:Agent>
      <dc:title>Matplotlib v3.3.2, https://matplotlib.org/</dc:title>
     </cc:Agent>
    </dc:creator>
   </cc:Work>
  </rdf:RDF>
 </metadata>
 <defs>
  <style type="text/css">*{stroke-linecap:butt;stroke-linejoin:round;}</style>
 </defs>
 <g id="figure_1">
  <g id="patch_1">
   <path d="M 0 360 
L 720 360 
L 720 0 
L 0 0 
z
" style="fill:none;"/>
  </g>
  <g id="axes_1">
   <g id="matplotlib.axis_1"/>
   <g id="matplotlib.axis_2"/>
   <g id="PolyCollection_1">
    <defs>
     <path d="M 115.363636 -119.141613 
L 115.363636 -45 
L 154.384615 -45 
L 193.405594 -45 
L 232.426573 -45 
L 271.447552 -45 
L 310.468531 -45 
L 349.48951 -45 
L 388.51049 -45 
L 427.531469 -45 
L 466.552448 -45 
L 505.573427 -45 
L 544.594406 -45 
L 583.615385 -45 
L 622.636364 -45 
L 622.636364 -60.932559 
L 622.636364 -60.932559 
L 583.615385 -64.24527 
L 544.594406 -69.450958 
L 505.573427 -71.501683 
L 466.552448 -74.972142 
L 427.531469 -77.969356 
L 388.51049 -82.701799 
L 349.48951 -87.276494 
L 310.468531 -93.586419 
L 271.447552 -98.792107 
L 232.426573 -109.203482 
L 193.405594 -111.569704 
L 154.384615 -114.566918 
L 115.363636 -119.141613 
z
" id="m11566781b7" style="stroke:#dc3545;stroke-opacity:0.3;"/>
    </defs>
    <g clip-path="url(#pb13e52830e)">
     <use style="fill:#dc3545;fill-opacity:0.3;stroke:#dc3545;stroke-opacity:0.3;" x="0" xlink:href="#m11566781b7" y="360"/>
    </g>
   </g>
   <g id="line2d_1">
    <path clip-path="url(#pb13e52830e)" d="M 115.363636 240.858387 
L 154.384615 245.433082 
L 193.405594 248.430296 
L 232.426573 250.796518 
L 271.447552 261.207893 
L 310.468531 266.413581 
L 349.48951 272.723506 
L 388.51049 277.298201 
L 427.531469 282.030644 
L 466.552448 285.027858 
L 505.573427 288.498317 
L 544.594406 290.549042 
L 583.615385 295.75473 
L 622.636364 299.067441 
" style="fill:none;stroke:#dc3545;stroke-linecap:square;stroke-width:25;"/>
   </g>
  </g>
 </g>
 <defs>
  <clipPath id="pb13e52830e">
   <rect height="271.8" width="558" x="90" y="43.2"/>
  </clipPath>
 </defs>
</svg>
