<?xml version="1.0" encoding="utf-8" standalone="no"?>
<!DOCTYPE svg PUBLIC "-//W3C//DTD SVG 1.1//EN"
  "http://www.w3.org/Graphics/SVG/1.1/DTD/svg11.dtd">
<svg height="360pt" version="1.1" viewBox="0 0 720 360" width="720pt" xmlns="http://www.w3.org/2000/svg" xmlns:xlink="http://www.w3.org/1999/xlink">
 <metadata>
  <rdf:RDF xmlns:cc="http://creativecommons.org/ns#" xmlns:dc="http://purl.org/dc/elements/1.1/" xmlns:rdf="http://www.w3.org/1999/02/22-rdf-syntax-ns#">
   <cc:Work>
    <dc:type rdf:resource="http://purl.org/dc/dcmitype/StillImage"/>
    <dc:date>2021-07-28T13:26:26.472463</dc:date>
    <dc:format>image/svg+xml</dc:format>
    <dc:creator>
     <cc:Agent>
      <dc:title>Matplotlib v3.4.2, https://matplotlib.org/</dc:title>
     </cc:Agent>
    </dc:creator>
   </cc:Work>
  </rdf:RDF>
 </metadata>
 <defs>
  <style type="text/css">*{stroke-linecap:butt;stroke-linejoin:round;}</style>
 </defs>
 <g id="figure_1">
  <g id="patch_1">
   <path d="M 0 360 
L 720 360 
L 720 0 
L 0 0 
z
" style="fill:none;"/>
  </g>
  <g id="axes_1">
   <g id="matplotlib.axis_1"/>
   <g id="matplotlib.axis_2"/>
   <g id="PolyCollection_1">
    <defs>
     <path d="M 115.363636 -167.231655 
L 115.363636 -39.6 
L 154.384615 -39.6 
L 193.405594 -39.6 
L 232.426573 -39.6 
L 271.447552 -39.6 
L 310.468531 -39.6 
L 349.48951 -39.6 
L 388.51049 -39.6 
L 427.531469 -39.6 
L 466.552448 -39.6 
L 505.573427 -39.6 
L 544.594406 -39.6 
L 583.615385 -39.6 
L 622.636364 -39.6 
L 622.636364 -298.851799 
L 622.636364 -298.851799 
L 583.615385 -298.851799 
L 544.594406 -277.579856 
L 505.573427 -276.915108 
L 466.552448 -300.181295 
L 427.531469 -316.8 
L 388.51049 -302.840288 
L 349.48951 -287.551079 
L 310.468531 -270.267626 
L 271.447552 -242.348201 
L 232.426573 -226.394245 
L 193.405594 -200.469065 
L 154.384615 -178.532374 
L 115.363636 -167.231655 
z
" id="m07ca1a589b" style="stroke:#dc3545;stroke-opacity:0.3;"/>
    </defs>
    <g clip-path="url(#pe7390eab91)">
     <use style="fill:#dc3545;fill-opacity:0.3;stroke:#dc3545;stroke-opacity:0.3;" x="0" xlink:href="#m07ca1a589b" y="360"/>
    </g>
   </g>
   <g id="line2d_1">
    <path clip-path="url(#pe7390eab91)" d="M 115.363636 192.768345 
L 154.384615 181.467626 
L 193.405594 159.530935 
L 232.426573 133.605755 
L 271.447552 117.651799 
L 310.468531 89.732374 
L 349.48951 72.448921 
L 388.51049 57.159712 
L 427.531469 43.2 
L 466.552448 59.818705 
L 505.573427 83.084892 
L 544.594406 82.420144 
L 583.615385 61.148201 
L 622.636364 61.148201 
" style="fill:none;stroke:#dc3545;stroke-linecap:square;stroke-width:25;"/>
   </g>
  </g>
 </g>
 <defs>
  <clipPath id="pe7390eab91">
   <rect height="277.2" width="558" x="90" y="43.2"/>
  </clipPath>
 </defs>
</svg>
