<?xml version="1.0" encoding="utf-8" standalone="no"?>
<!DOCTYPE svg PUBLIC "-//W3C//DTD SVG 1.1//EN"
  "http://www.w3.org/Graphics/SVG/1.1/DTD/svg11.dtd">
<svg height="360pt" version="1.1" viewBox="0 0 720 360" width="720pt" xmlns="http://www.w3.org/2000/svg" xmlns:xlink="http://www.w3.org/1999/xlink">
 <metadata>
  <rdf:RDF xmlns:cc="http://creativecommons.org/ns#" xmlns:dc="http://purl.org/dc/elements/1.1/" xmlns:rdf="http://www.w3.org/1999/02/22-rdf-syntax-ns#">
   <cc:Work>
    <dc:type rdf:resource="http://purl.org/dc/dcmitype/StillImage"/>
    <dc:date>2021-05-25T13:27:58.590329</dc:date>
    <dc:format>image/svg+xml</dc:format>
    <dc:creator>
     <cc:Agent>
      <dc:title>Matplotlib v3.4.2, https://matplotlib.org/</dc:title>
     </cc:Agent>
    </dc:creator>
   </cc:Work>
  </rdf:RDF>
 </metadata>
 <defs>
  <style type="text/css">*{stroke-linecap:butt;stroke-linejoin:round;}</style>
 </defs>
 <g id="figure_1">
  <g id="patch_1">
   <path d="M 0 360 
L 720 360 
L 720 0 
L 0 0 
z
" style="fill:none;"/>
  </g>
  <g id="axes_1">
   <g id="matplotlib.axis_1"/>
   <g id="matplotlib.axis_2"/>
   <g id="PolyCollection_1">
    <defs>
     <path d="M 115.363636 -53.961626 
L 115.363636 -39.6 
L 154.384615 -39.6 
L 193.405594 -39.6 
L 232.426573 -39.6 
L 271.447552 -39.6 
L 310.468531 -39.6 
L 349.48951 -39.6 
L 388.51049 -39.6 
L 427.531469 -39.6 
L 466.552448 -39.6 
L 505.573427 -39.6 
L 544.594406 -39.6 
L 583.615385 -39.6 
L 622.636364 -39.6 
L 622.636364 -312.951909 
L 622.636364 -312.951909 
L 583.615385 -314.120079 
L 544.594406 -314.601091 
L 505.573427 -315.150818 
L 466.552448 -315.494398 
L 427.531469 -316.112841 
L 388.51049 -316.8 
L 349.48951 -47.983342 
L 310.468531 -48.326921 
L 271.447552 -49.082796 
L 232.426573 -50.250967 
L 193.405594 -51.144274 
L 154.384615 -52.656024 
L 115.363636 -53.961626 
z
" id="m9a3359b702" style="stroke:#dc3545;stroke-opacity:0.3;"/>
    </defs>
    <g clip-path="url(#pd06cd98c78)">
     <use style="fill:#dc3545;fill-opacity:0.3;stroke:#dc3545;stroke-opacity:0.3;" x="0" xlink:href="#m9a3359b702" y="360"/>
    </g>
   </g>
   <g id="line2d_1">
    <path clip-path="url(#pd06cd98c78)" d="M 115.363636 306.038374 
L 154.384615 307.343976 
L 193.405594 308.855726 
L 232.426573 309.749033 
L 271.447552 310.917204 
L 310.468531 311.673079 
L 349.48951 312.016658 
L 388.51049 43.2 
L 427.531469 43.887159 
L 466.552448 44.505602 
L 505.573427 44.849182 
L 544.594406 45.398909 
L 583.615385 45.879921 
L 622.636364 47.048091 
" style="fill:none;stroke:#dc3545;stroke-linecap:square;stroke-width:25;"/>
   </g>
  </g>
 </g>
 <defs>
  <clipPath id="pd06cd98c78">
   <rect height="277.2" width="558" x="90" y="43.2"/>
  </clipPath>
 </defs>
</svg>
