<?xml version="1.0" encoding="utf-8" standalone="no"?>
<!DOCTYPE svg PUBLIC "-//W3C//DTD SVG 1.1//EN"
  "http://www.w3.org/Graphics/SVG/1.1/DTD/svg11.dtd">
<svg height="360pt" version="1.1" viewBox="0 0 720 360" width="720pt" xmlns="http://www.w3.org/2000/svg" xmlns:xlink="http://www.w3.org/1999/xlink">
 <metadata>
  <rdf:RDF xmlns:cc="http://creativecommons.org/ns#" xmlns:dc="http://purl.org/dc/elements/1.1/" xmlns:rdf="http://www.w3.org/1999/02/22-rdf-syntax-ns#">
   <cc:Work>
    <dc:type rdf:resource="http://purl.org/dc/dcmitype/StillImage"/>
    <dc:date>2021-08-02T09:02:06.331840</dc:date>
    <dc:format>image/svg+xml</dc:format>
    <dc:creator>
     <cc:Agent>
      <dc:title>Matplotlib v3.4.2, https://matplotlib.org/</dc:title>
     </cc:Agent>
    </dc:creator>
   </cc:Work>
  </rdf:RDF>
 </metadata>
 <defs>
  <style type="text/css">*{stroke-linecap:butt;stroke-linejoin:round;}</style>
 </defs>
 <g id="figure_1">
  <g id="patch_1">
   <path d="M 0 360 
L 720 360 
L 720 0 
L 0 0 
z
" style="fill:none;"/>
  </g>
  <g id="axes_1">
   <g id="matplotlib.axis_1"/>
   <g id="matplotlib.axis_2"/>
   <g id="PolyCollection_1">
    <defs>
     <path d="M 115.363636 -212.028452 
L 115.363636 -39.6 
L 154.384615 -39.6 
L 193.405594 -39.6 
L 232.426573 -39.6 
L 271.447552 -39.6 
L 310.468531 -39.6 
L 349.48951 -39.6 
L 388.51049 -39.6 
L 427.531469 -39.6 
L 466.552448 -39.6 
L 505.573427 -39.6 
L 544.594406 -39.6 
L 583.615385 -39.6 
L 622.636364 -39.6 
L 622.636364 -316.8 
L 622.636364 -316.8 
L 583.615385 -289.792469 
L 544.594406 -261.956485 
L 505.573427 -245.276987 
L 466.552448 -245.553138 
L 427.531469 -233.733891 
L 388.51049 -238.759833 
L 349.48951 -245.111297 
L 310.468531 -248.590795 
L 271.447552 -250.523849 
L 232.426573 -234.562343 
L 193.405594 -225.946444 
L 154.384615 -226.277824 
L 115.363636 -212.028452 
z
" id="ma09a02aaeb" style="stroke:#dc3545;stroke-opacity:0.3;"/>
    </defs>
    <g clip-path="url(#p2684f73339)">
     <use style="fill:#dc3545;fill-opacity:0.3;stroke:#dc3545;stroke-opacity:0.3;" x="0" xlink:href="#ma09a02aaeb" y="360"/>
    </g>
   </g>
   <g id="line2d_1">
    <path clip-path="url(#p2684f73339)" d="M 115.363636 147.971548 
L 154.384615 133.722176 
L 193.405594 134.053556 
L 232.426573 125.437657 
L 271.447552 109.476151 
L 310.468531 111.409205 
L 349.48951 114.888703 
L 388.51049 121.240167 
L 427.531469 126.266109 
L 466.552448 114.446862 
L 505.573427 114.723013 
L 544.594406 98.043515 
L 583.615385 70.207531 
L 622.636364 43.2 
" style="fill:none;stroke:#dc3545;stroke-linecap:square;stroke-width:25;"/>
   </g>
  </g>
 </g>
 <defs>
  <clipPath id="p2684f73339">
   <rect height="277.2" width="558" x="90" y="43.2"/>
  </clipPath>
 </defs>
</svg>
