<?xml version="1.0" encoding="utf-8" standalone="no"?>
<!DOCTYPE svg PUBLIC "-//W3C//DTD SVG 1.1//EN"
  "http://www.w3.org/Graphics/SVG/1.1/DTD/svg11.dtd">
<svg height="360pt" version="1.1" viewBox="0 0 720 360" width="720pt" xmlns="http://www.w3.org/2000/svg" xmlns:xlink="http://www.w3.org/1999/xlink">
 <metadata>
  <rdf:RDF xmlns:cc="http://creativecommons.org/ns#" xmlns:dc="http://purl.org/dc/elements/1.1/" xmlns:rdf="http://www.w3.org/1999/02/22-rdf-syntax-ns#">
   <cc:Work>
    <dc:type rdf:resource="http://purl.org/dc/dcmitype/StillImage"/>
    <dc:date>2021-06-22T13:24:47.170925</dc:date>
    <dc:format>image/svg+xml</dc:format>
    <dc:creator>
     <cc:Agent>
      <dc:title>Matplotlib v3.4.2, https://matplotlib.org/</dc:title>
     </cc:Agent>
    </dc:creator>
   </cc:Work>
  </rdf:RDF>
 </metadata>
 <defs>
  <style type="text/css">*{stroke-linecap:butt;stroke-linejoin:round;}</style>
 </defs>
 <g id="figure_1">
  <g id="patch_1">
   <path d="M 0 360 
L 720 360 
L 720 0 
L 0 0 
z
" style="fill:none;"/>
  </g>
  <g id="axes_1">
   <g id="matplotlib.axis_1"/>
   <g id="matplotlib.axis_2"/>
   <g id="PolyCollection_1">
    <defs>
     <path d="M 115.363636 -264.776471 
L 115.363636 -39.6 
L 154.384615 -39.6 
L 193.405594 -39.6 
L 232.426573 -39.6 
L 271.447552 -39.6 
L 310.468531 -39.6 
L 349.48951 -39.6 
L 388.51049 -39.6 
L 427.531469 -39.6 
L 466.552448 -39.6 
L 505.573427 -39.6 
L 544.594406 -39.6 
L 583.615385 -39.6 
L 622.636364 -39.6 
L 622.636364 -218.188235 
L 622.636364 -218.188235 
L 583.615385 -202.076471 
L 544.594406 -192.370588 
L 505.573427 -174.511765 
L 466.552448 -166.747059 
L 427.531469 -212.752941 
L 388.51049 -207.317647 
L 349.48951 -183.635294 
L 310.468531 -178.588235 
L 271.447552 -173.152941 
L 232.426573 -237.211765 
L 193.405594 -316.8 
L 154.384615 -269.047059 
L 115.363636 -264.776471 
z
" id="m656630725e" style="stroke:#dc3545;stroke-opacity:0.3;"/>
    </defs>
    <g clip-path="url(#paaaf78ea7c)">
     <use style="fill:#dc3545;fill-opacity:0.3;stroke:#dc3545;stroke-opacity:0.3;" x="0" xlink:href="#m656630725e" y="360"/>
    </g>
   </g>
   <g id="line2d_1">
    <path clip-path="url(#paaaf78ea7c)" d="M 115.363636 95.223529 
L 154.384615 90.952941 
L 193.405594 43.2 
L 232.426573 122.788235 
L 271.447552 186.847059 
L 310.468531 181.411765 
L 349.48951 176.364706 
L 388.51049 152.682353 
L 427.531469 147.247059 
L 466.552448 193.252941 
L 505.573427 185.488235 
L 544.594406 167.629412 
L 583.615385 157.923529 
L 622.636364 141.811765 
" style="fill:none;stroke:#dc3545;stroke-linecap:square;stroke-width:25;"/>
   </g>
  </g>
 </g>
 <defs>
  <clipPath id="paaaf78ea7c">
   <rect height="277.2" width="558" x="90" y="43.2"/>
  </clipPath>
 </defs>
</svg>
