<?xml version="1.0" encoding="utf-8" standalone="no"?>
<!DOCTYPE svg PUBLIC "-//W3C//DTD SVG 1.1//EN"
  "http://www.w3.org/Graphics/SVG/1.1/DTD/svg11.dtd">
<svg height="360pt" version="1.1" viewBox="0 0 720 360" width="720pt" xmlns="http://www.w3.org/2000/svg" xmlns:xlink="http://www.w3.org/1999/xlink">
 <metadata>
  <rdf:RDF xmlns:cc="http://creativecommons.org/ns#" xmlns:dc="http://purl.org/dc/elements/1.1/" xmlns:rdf="http://www.w3.org/1999/02/22-rdf-syntax-ns#">
   <cc:Work>
    <dc:type rdf:resource="http://purl.org/dc/dcmitype/StillImage"/>
    <dc:date>2021-05-21T13:25:39.465701</dc:date>
    <dc:format>image/svg+xml</dc:format>
    <dc:creator>
     <cc:Agent>
      <dc:title>Matplotlib v3.4.2, https://matplotlib.org/</dc:title>
     </cc:Agent>
    </dc:creator>
   </cc:Work>
  </rdf:RDF>
 </metadata>
 <defs>
  <style type="text/css">*{stroke-linecap:butt;stroke-linejoin:round;}</style>
 </defs>
 <g id="figure_1">
  <g id="patch_1">
   <path d="M 0 360 
L 720 360 
L 720 0 
L 0 0 
z
" style="fill:none;"/>
  </g>
  <g id="axes_1">
   <g id="matplotlib.axis_1"/>
   <g id="matplotlib.axis_2"/>
   <g id="PolyCollection_1">
    <defs>
     <path d="M 115.363636 -120.085482 
L 115.363636 -39.6 
L 154.384615 -39.6 
L 193.405594 -39.6 
L 232.426573 -39.6 
L 271.447552 -39.6 
L 310.468531 -39.6 
L 349.48951 -39.6 
L 388.51049 -39.6 
L 427.531469 -39.6 
L 466.552448 -39.6 
L 505.573427 -39.6 
L 544.594406 -39.6 
L 583.615385 -39.6 
L 622.636364 -39.6 
L 622.636364 -312.800721 
L 622.636364 -312.800721 
L 583.615385 -316.8 
L 544.594406 -294.304058 
L 505.573427 -305.052119 
L 466.552448 -284.805771 
L 427.531469 -231.815329 
L 388.51049 -199.571145 
L 349.48951 -170.076465 
L 310.468531 -151.579802 
L 271.447552 -156.828855 
L 232.426573 -123.084941 
L 193.405594 -119.585573 
L 154.384615 -127.334175 
L 115.363636 -120.085482 
z
" id="md7cf65283f" style="stroke:#dc3545;stroke-opacity:0.3;"/>
    </defs>
    <g clip-path="url(#p018366b60b)">
     <use style="fill:#dc3545;fill-opacity:0.3;stroke:#dc3545;stroke-opacity:0.3;" x="0" xlink:href="#md7cf65283f" y="360"/>
    </g>
   </g>
   <g id="line2d_1">
    <path clip-path="url(#p018366b60b)" d="M 115.363636 239.914518 
L 154.384615 232.665825 
L 193.405594 240.414427 
L 232.426573 236.915059 
L 271.447552 203.171145 
L 310.468531 208.420198 
L 349.48951 189.923535 
L 388.51049 160.428855 
L 427.531469 128.184671 
L 466.552448 75.194229 
L 505.573427 54.947881 
L 544.594406 65.695942 
L 583.615385 43.2 
L 622.636364 47.199279 
" style="fill:none;stroke:#dc3545;stroke-linecap:square;stroke-width:25;"/>
   </g>
  </g>
 </g>
 <defs>
  <clipPath id="p018366b60b">
   <rect height="277.2" width="558" x="90" y="43.2"/>
  </clipPath>
 </defs>
</svg>
