<?xml version="1.0" encoding="utf-8" standalone="no"?>
<!DOCTYPE svg PUBLIC "-//W3C//DTD SVG 1.1//EN"
  "http://www.w3.org/Graphics/SVG/1.1/DTD/svg11.dtd">
<svg height="360pt" version="1.1" viewBox="0 0 720 360" width="720pt" xmlns="http://www.w3.org/2000/svg" xmlns:xlink="http://www.w3.org/1999/xlink">
 <metadata>
  <rdf:RDF xmlns:cc="http://creativecommons.org/ns#" xmlns:dc="http://purl.org/dc/elements/1.1/" xmlns:rdf="http://www.w3.org/1999/02/22-rdf-syntax-ns#">
   <cc:Work>
    <dc:type rdf:resource="http://purl.org/dc/dcmitype/StillImage"/>
    <dc:date>2021-07-26T09:06:18.170769</dc:date>
    <dc:format>image/svg+xml</dc:format>
    <dc:creator>
     <cc:Agent>
      <dc:title>Matplotlib v3.4.2, https://matplotlib.org/</dc:title>
     </cc:Agent>
    </dc:creator>
   </cc:Work>
  </rdf:RDF>
 </metadata>
 <defs>
  <style type="text/css">*{stroke-linecap:butt;stroke-linejoin:round;}</style>
 </defs>
 <g id="figure_1">
  <g id="patch_1">
   <path d="M 0 360 
L 720 360 
L 720 0 
L 0 0 
z
" style="fill:none;"/>
  </g>
  <g id="axes_1">
   <g id="matplotlib.axis_1"/>
   <g id="matplotlib.axis_2"/>
   <g id="PolyCollection_1">
    <defs>
     <path d="M 115.363636 -285.153181 
L 115.363636 -39.6 
L 154.384615 -39.6 
L 193.405594 -39.6 
L 232.426573 -39.6 
L 271.447552 -39.6 
L 310.468531 -39.6 
L 349.48951 -39.6 
L 388.51049 -39.6 
L 427.531469 -39.6 
L 466.552448 -39.6 
L 505.573427 -39.6 
L 544.594406 -39.6 
L 583.615385 -39.6 
L 622.636364 -39.6 
L 622.636364 -309.686724 
L 622.636364 -309.686724 
L 583.615385 -314.259544 
L 544.594406 -316.8 
L 505.573427 -295.823095 
L 466.552448 -284.499921 
L 427.531469 -284.935428 
L 388.51049 -266.208641 
L 349.48951 -261.200314 
L 310.468531 -285.29835 
L 271.447552 -305.621995 
L 232.426573 -303.226709 
L 193.405594 -300.105577 
L 154.384615 -284.717675 
L 115.363636 -285.153181 
z
" id="maeb00f7ada" style="stroke:#dc3545;stroke-opacity:0.3;"/>
    </defs>
    <g clip-path="url(#pbbafe195a8)">
     <use style="fill:#dc3545;fill-opacity:0.3;stroke:#dc3545;stroke-opacity:0.3;" x="0" xlink:href="#maeb00f7ada" y="360"/>
    </g>
   </g>
   <g id="line2d_1">
    <path clip-path="url(#pbbafe195a8)" d="M 115.363636 74.846819 
L 154.384615 75.282325 
L 193.405594 59.894423 
L 232.426573 56.773291 
L 271.447552 54.378005 
L 310.468531 74.70165 
L 349.48951 98.799686 
L 388.51049 93.791359 
L 427.531469 75.064572 
L 466.552448 75.500079 
L 505.573427 64.176905 
L 544.594406 43.2 
L 583.615385 45.740456 
L 622.636364 50.313276 
" style="fill:none;stroke:#dc3545;stroke-linecap:square;stroke-width:25;"/>
   </g>
  </g>
 </g>
 <defs>
  <clipPath id="pbbafe195a8">
   <rect height="277.2" width="558" x="90" y="43.2"/>
  </clipPath>
 </defs>
</svg>
