<?xml version="1.0" encoding="utf-8" standalone="no"?>
<!DOCTYPE svg PUBLIC "-//W3C//DTD SVG 1.1//EN"
  "http://www.w3.org/Graphics/SVG/1.1/DTD/svg11.dtd">
<svg height="360pt" version="1.1" viewBox="0 0 720 360" width="720pt" xmlns="http://www.w3.org/2000/svg" xmlns:xlink="http://www.w3.org/1999/xlink">
 <metadata>
  <rdf:RDF xmlns:cc="http://creativecommons.org/ns#" xmlns:dc="http://purl.org/dc/elements/1.1/" xmlns:rdf="http://www.w3.org/1999/02/22-rdf-syntax-ns#">
   <cc:Work>
    <dc:type rdf:resource="http://purl.org/dc/dcmitype/StillImage"/>
    <dc:date>2021-07-16T18:02:49.267357</dc:date>
    <dc:format>image/svg+xml</dc:format>
    <dc:creator>
     <cc:Agent>
      <dc:title>Matplotlib v3.4.2, https://matplotlib.org/</dc:title>
     </cc:Agent>
    </dc:creator>
   </cc:Work>
  </rdf:RDF>
 </metadata>
 <defs>
  <style type="text/css">*{stroke-linecap:butt;stroke-linejoin:round;}</style>
 </defs>
 <g id="figure_1">
  <g id="patch_1">
   <path d="M 0 360 
L 720 360 
L 720 0 
L 0 0 
z
" style="fill:none;"/>
  </g>
  <g id="axes_1">
   <g id="matplotlib.axis_1"/>
   <g id="matplotlib.axis_2"/>
   <g id="PolyCollection_1">
    <defs>
     <path d="M 115.363636 -110.374468 
L 115.363636 -39.6 
L 154.384615 -39.6 
L 193.405594 -39.6 
L 232.426573 -39.6 
L 271.447552 -39.6 
L 310.468531 -39.6 
L 349.48951 -39.6 
L 388.51049 -39.6 
L 427.531469 -39.6 
L 466.552448 -39.6 
L 505.573427 -39.6 
L 544.594406 -39.6 
L 583.615385 -39.6 
L 622.636364 -39.6 
L 622.636364 -299.106383 
L 622.636364 -299.106383 
L 583.615385 -316.8 
L 544.594406 -307.953191 
L 505.573427 -278.46383 
L 466.552448 -248.974468 
L 427.531469 -207.689362 
L 388.51049 -192.944681 
L 349.48951 -175.251064 
L 310.468531 -154.608511 
L 271.447552 -92.680851 
L 232.426573 -92.680851 
L 193.405594 -92.680851 
L 154.384615 -98.578723 
L 115.363636 -110.374468 
z
" id="me4a20ed9fa" style="stroke:#dc3545;stroke-opacity:0.3;"/>
    </defs>
    <g clip-path="url(#pc13f0356a3)">
     <use style="fill:#dc3545;fill-opacity:0.3;stroke:#dc3545;stroke-opacity:0.3;" x="0" xlink:href="#me4a20ed9fa" y="360"/>
    </g>
   </g>
   <g id="line2d_1">
    <path clip-path="url(#pc13f0356a3)" d="M 115.363636 249.625532 
L 154.384615 261.421277 
L 193.405594 267.319149 
L 232.426573 267.319149 
L 271.447552 267.319149 
L 310.468531 205.391489 
L 349.48951 184.748936 
L 388.51049 167.055319 
L 427.531469 152.310638 
L 466.552448 111.025532 
L 505.573427 81.53617 
L 544.594406 52.046809 
L 583.615385 43.2 
L 622.636364 60.893617 
" style="fill:none;stroke:#dc3545;stroke-linecap:square;stroke-width:25;"/>
   </g>
  </g>
 </g>
 <defs>
  <clipPath id="pc13f0356a3">
   <rect height="277.2" width="558" x="90" y="43.2"/>
  </clipPath>
 </defs>
</svg>
