<?xml version="1.0" encoding="utf-8" standalone="no"?>
<!DOCTYPE svg PUBLIC "-//W3C//DTD SVG 1.1//EN"
  "http://www.w3.org/Graphics/SVG/1.1/DTD/svg11.dtd">
<svg height="360pt" version="1.1" viewBox="0 0 720 360" width="720pt" xmlns="http://www.w3.org/2000/svg" xmlns:xlink="http://www.w3.org/1999/xlink">
 <metadata>
  <rdf:RDF xmlns:cc="http://creativecommons.org/ns#" xmlns:dc="http://purl.org/dc/elements/1.1/" xmlns:rdf="http://www.w3.org/1999/02/22-rdf-syntax-ns#">
   <cc:Work>
    <dc:type rdf:resource="http://purl.org/dc/dcmitype/StillImage"/>
    <dc:date>2021-07-03T19:32:23.403120</dc:date>
    <dc:format>image/svg+xml</dc:format>
    <dc:creator>
     <cc:Agent>
      <dc:title>Matplotlib v3.4.2, https://matplotlib.org/</dc:title>
     </cc:Agent>
    </dc:creator>
   </cc:Work>
  </rdf:RDF>
 </metadata>
 <defs>
  <style type="text/css">*{stroke-linecap:butt;stroke-linejoin:round;}</style>
 </defs>
 <g id="figure_1">
  <g id="patch_1">
   <path d="M 0 360 
L 720 360 
L 720 0 
L 0 0 
z
" style="fill:none;"/>
  </g>
  <g id="axes_1">
   <g id="matplotlib.axis_1"/>
   <g id="matplotlib.axis_2"/>
   <g id="PolyCollection_1">
    <defs>
     <path d="M 115.363636 -123.436098 
L 115.363636 -39.6 
L 154.384615 -39.6 
L 193.405594 -39.6 
L 232.426573 -39.6 
L 271.447552 -39.6 
L 310.468531 -39.6 
L 349.48951 -39.6 
L 388.51049 -39.6 
L 427.531469 -39.6 
L 466.552448 -39.6 
L 505.573427 -39.6 
L 544.594406 -39.6 
L 583.615385 -39.6 
L 622.636364 -39.6 
L 622.636364 -185.637073 
L 622.636364 -185.637073 
L 583.615385 -214.033171 
L 544.594406 -255.95122 
L 505.573427 -243.781463 
L 466.552448 -285.699512 
L 427.531469 -303.278049 
L 388.51049 -316.8 
L 349.48951 -312.743415 
L 310.468531 -288.403902 
L 271.447552 -255.95122 
L 232.426573 -238.372683 
L 193.405594 -185.637073 
L 154.384615 -158.593171 
L 115.363636 -123.436098 
z
" id="m1deaadaa68" style="stroke:#dc3545;stroke-opacity:0.3;"/>
    </defs>
    <g clip-path="url(#p1014cba5d6)">
     <use style="fill:#dc3545;fill-opacity:0.3;stroke:#dc3545;stroke-opacity:0.3;" x="0" xlink:href="#m1deaadaa68" y="360"/>
    </g>
   </g>
   <g id="line2d_1">
    <path clip-path="url(#p1014cba5d6)" d="M 115.363636 236.563902 
L 154.384615 201.406829 
L 193.405594 174.362927 
L 232.426573 121.627317 
L 271.447552 104.04878 
L 310.468531 71.596098 
L 349.48951 47.256585 
L 388.51049 43.2 
L 427.531469 56.721951 
L 466.552448 74.300488 
L 505.573427 116.218537 
L 544.594406 104.04878 
L 583.615385 145.966829 
L 622.636364 174.362927 
" style="fill:none;stroke:#dc3545;stroke-linecap:square;stroke-width:25;"/>
   </g>
  </g>
 </g>
 <defs>
  <clipPath id="p1014cba5d6">
   <rect height="277.2" width="558" x="90" y="43.2"/>
  </clipPath>
 </defs>
</svg>
