<?xml version="1.0" encoding="utf-8" standalone="no"?>
<!DOCTYPE svg PUBLIC "-//W3C//DTD SVG 1.1//EN"
  "http://www.w3.org/Graphics/SVG/1.1/DTD/svg11.dtd">
<svg height="360pt" version="1.1" viewBox="0 0 720 360" width="720pt" xmlns="http://www.w3.org/2000/svg" xmlns:xlink="http://www.w3.org/1999/xlink">
 <metadata>
  <rdf:RDF xmlns:cc="http://creativecommons.org/ns#" xmlns:dc="http://purl.org/dc/elements/1.1/" xmlns:rdf="http://www.w3.org/1999/02/22-rdf-syntax-ns#">
   <cc:Work>
    <dc:type rdf:resource="http://purl.org/dc/dcmitype/StillImage"/>
    <dc:date>2021-07-02T13:22:22.509506</dc:date>
    <dc:format>image/svg+xml</dc:format>
    <dc:creator>
     <cc:Agent>
      <dc:title>Matplotlib v3.4.2, https://matplotlib.org/</dc:title>
     </cc:Agent>
    </dc:creator>
   </cc:Work>
  </rdf:RDF>
 </metadata>
 <defs>
  <style type="text/css">*{stroke-linecap:butt;stroke-linejoin:round;}</style>
 </defs>
 <g id="figure_1">
  <g id="patch_1">
   <path d="M 0 360 
L 720 360 
L 720 0 
L 0 0 
z
" style="fill:none;"/>
  </g>
  <g id="axes_1">
   <g id="matplotlib.axis_1"/>
   <g id="matplotlib.axis_2"/>
   <g id="PolyCollection_1">
    <defs>
     <path d="M 115.363636 -101.800976 
L 115.363636 -39.6 
L 154.384615 -39.6 
L 193.405594 -39.6 
L 232.426573 -39.6 
L 271.447552 -39.6 
L 310.468531 -39.6 
L 349.48951 -39.6 
L 388.51049 -39.6 
L 427.531469 -39.6 
L 466.552448 -39.6 
L 505.573427 -39.6 
L 544.594406 -39.6 
L 583.615385 -39.6 
L 622.636364 -39.6 
L 622.636364 -214.033171 
L 622.636364 -214.033171 
L 583.615385 -255.95122 
L 544.594406 -243.781463 
L 505.573427 -285.699512 
L 466.552448 -303.278049 
L 427.531469 -316.8 
L 388.51049 -312.743415 
L 349.48951 -288.403902 
L 310.468531 -255.95122 
L 271.447552 -238.372683 
L 232.426573 -185.637073 
L 193.405594 -158.593171 
L 154.384615 -123.436098 
L 115.363636 -101.800976 
z
" id="m5b5a9a0f7d" style="stroke:#dc3545;stroke-opacity:0.3;"/>
    </defs>
    <g clip-path="url(#p4a5589b785)">
     <use style="fill:#dc3545;fill-opacity:0.3;stroke:#dc3545;stroke-opacity:0.3;" x="0" xlink:href="#m5b5a9a0f7d" y="360"/>
    </g>
   </g>
   <g id="line2d_1">
    <path clip-path="url(#p4a5589b785)" d="M 115.363636 258.199024 
L 154.384615 236.563902 
L 193.405594 201.406829 
L 232.426573 174.362927 
L 271.447552 121.627317 
L 310.468531 104.04878 
L 349.48951 71.596098 
L 388.51049 47.256585 
L 427.531469 43.2 
L 466.552448 56.721951 
L 505.573427 74.300488 
L 544.594406 116.218537 
L 583.615385 104.04878 
L 622.636364 145.966829 
" style="fill:none;stroke:#dc3545;stroke-linecap:square;stroke-width:25;"/>
   </g>
  </g>
 </g>
 <defs>
  <clipPath id="p4a5589b785">
   <rect height="277.2" width="558" x="90" y="43.2"/>
  </clipPath>
 </defs>
</svg>
