<?xml version="1.0" encoding="utf-8" standalone="no"?>
<!DOCTYPE svg PUBLIC "-//W3C//DTD SVG 1.1//EN"
  "http://www.w3.org/Graphics/SVG/1.1/DTD/svg11.dtd">
<!-- Created with matplotlib (https://matplotlib.org/) -->
<svg height="360pt" version="1.1" viewBox="0 0 720 360" width="720pt" xmlns="http://www.w3.org/2000/svg" xmlns:xlink="http://www.w3.org/1999/xlink">
 <metadata>
  <rdf:RDF xmlns:cc="http://creativecommons.org/ns#" xmlns:dc="http://purl.org/dc/elements/1.1/" xmlns:rdf="http://www.w3.org/1999/02/22-rdf-syntax-ns#">
   <cc:Work>
    <dc:type rdf:resource="http://purl.org/dc/dcmitype/StillImage"/>
    <dc:date>2021-05-16T10:12:54.300926</dc:date>
    <dc:format>image/svg+xml</dc:format>
    <dc:creator>
     <cc:Agent>
      <dc:title>Matplotlib v3.3.2, https://matplotlib.org/</dc:title>
     </cc:Agent>
    </dc:creator>
   </cc:Work>
  </rdf:RDF>
 </metadata>
 <defs>
  <style type="text/css">*{stroke-linecap:butt;stroke-linejoin:round;}</style>
 </defs>
 <g id="figure_1">
  <g id="patch_1">
   <path d="M 0 360 
L 720 360 
L 720 0 
L 0 0 
z
" style="fill:none;"/>
  </g>
  <g id="axes_1">
   <g id="matplotlib.axis_1"/>
   <g id="matplotlib.axis_2"/>
   <g id="PolyCollection_1">
    <defs>
     <path d="M 115.363636 -260.33913 
L 115.363636 -45 
L 154.384615 -45 
L 193.405594 -45 
L 232.426573 -45 
L 271.447552 -45 
L 310.468531 -45 
L 349.48951 -45 
L 388.51049 -45 
L 427.531469 -45 
L 466.552448 -45 
L 505.573427 -45 
L 544.594406 -45 
L 583.615385 -45 
L 622.636364 -45 
L 622.636364 -236.704348 
L 622.636364 -236.704348 
L 583.615385 -274.782609 
L 544.594406 -316.8 
L 505.573427 -311.547826 
L 466.552448 -299.730435 
L 427.531469 -297.104348 
L 388.51049 -286.6 
L 349.48951 -295.791304 
L 310.468531 -290.53913 
L 271.447552 -281.347826 
L 232.426573 -266.904348 
L 193.405594 -264.278261 
L 154.384615 -273.469565 
L 115.363636 -260.33913 
z
" id="mc156abbdc8" style="stroke:#dc3545;stroke-opacity:0.3;"/>
    </defs>
    <g clip-path="url(#p778e15e8c7)">
     <use style="fill:#dc3545;fill-opacity:0.3;stroke:#dc3545;stroke-opacity:0.3;" x="0" xlink:href="#mc156abbdc8" y="360"/>
    </g>
   </g>
   <g id="line2d_1">
    <path clip-path="url(#p778e15e8c7)" d="M 115.363636 99.66087 
L 154.384615 86.530435 
L 193.405594 95.721739 
L 232.426573 93.095652 
L 271.447552 78.652174 
L 310.468531 69.46087 
L 349.48951 64.208696 
L 388.51049 73.4 
L 427.531469 62.895652 
L 466.552448 60.269565 
L 505.573427 48.452174 
L 544.594406 43.2 
L 583.615385 85.217391 
L 622.636364 123.295652 
" style="fill:none;stroke:#dc3545;stroke-linecap:square;stroke-width:25;"/>
   </g>
  </g>
 </g>
 <defs>
  <clipPath id="p778e15e8c7">
   <rect height="271.8" width="558" x="90" y="43.2"/>
  </clipPath>
 </defs>
</svg>
