<?xml version="1.0" encoding="utf-8" standalone="no"?>
<!DOCTYPE svg PUBLIC "-//W3C//DTD SVG 1.1//EN"
  "http://www.w3.org/Graphics/SVG/1.1/DTD/svg11.dtd">
<svg height="360pt" version="1.1" viewBox="0 0 720 360" width="720pt" xmlns="http://www.w3.org/2000/svg" xmlns:xlink="http://www.w3.org/1999/xlink">
 <metadata>
  <rdf:RDF xmlns:cc="http://creativecommons.org/ns#" xmlns:dc="http://purl.org/dc/elements/1.1/" xmlns:rdf="http://www.w3.org/1999/02/22-rdf-syntax-ns#">
   <cc:Work>
    <dc:type rdf:resource="http://purl.org/dc/dcmitype/StillImage"/>
    <dc:date>2021-06-21T23:05:59.148621</dc:date>
    <dc:format>image/svg+xml</dc:format>
    <dc:creator>
     <cc:Agent>
      <dc:title>Matplotlib v3.4.2, https://matplotlib.org/</dc:title>
     </cc:Agent>
    </dc:creator>
   </cc:Work>
  </rdf:RDF>
 </metadata>
 <defs>
  <style type="text/css">*{stroke-linecap:butt;stroke-linejoin:round;}</style>
 </defs>
 <g id="figure_1">
  <g id="patch_1">
   <path d="M 0 360 
L 720 360 
L 720 0 
L 0 0 
z
" style="fill:none;"/>
  </g>
  <g id="axes_1">
   <g id="matplotlib.axis_1"/>
   <g id="matplotlib.axis_2"/>
   <g id="PolyCollection_1">
    <defs>
     <path d="M 115.363636 -206.706383 
L 115.363636 -39.6 
L 154.384615 -39.6 
L 193.405594 -39.6 
L 232.426573 -39.6 
L 271.447552 -39.6 
L 310.468531 -39.6 
L 349.48951 -39.6 
L 388.51049 -39.6 
L 427.531469 -39.6 
L 466.552448 -39.6 
L 505.573427 -39.6 
L 544.594406 -39.6 
L 583.615385 -39.6 
L 622.636364 -39.6 
L 622.636364 -197.531915 
L 622.636364 -197.531915 
L 583.615385 -193.6 
L 544.594406 -316.144681 
L 505.573427 -316.8 
L 466.552448 -309.591489 
L 427.531469 -309.591489 
L 388.51049 -299.761702 
L 349.48951 -301.07234 
L 310.468531 -308.93617 
L 271.447552 -202.774468 
L 232.426573 -209.32766 
L 193.405594 -216.53617 
L 154.384615 -208.017021 
L 115.363636 -206.706383 
z
" id="ma9170d75ca" style="stroke:#dc3545;stroke-opacity:0.3;"/>
    </defs>
    <g clip-path="url(#p0c08fb0072)">
     <use style="fill:#dc3545;fill-opacity:0.3;stroke:#dc3545;stroke-opacity:0.3;" x="0" xlink:href="#ma9170d75ca" y="360"/>
    </g>
   </g>
   <g id="line2d_1">
    <path clip-path="url(#p0c08fb0072)" d="M 115.363636 153.293617 
L 154.384615 151.982979 
L 193.405594 143.46383 
L 232.426573 150.67234 
L 271.447552 157.225532 
L 310.468531 51.06383 
L 349.48951 58.92766 
L 388.51049 60.238298 
L 427.531469 50.408511 
L 466.552448 50.408511 
L 505.573427 43.2 
L 544.594406 43.855319 
L 583.615385 166.4 
L 622.636364 162.468085 
" style="fill:none;stroke:#dc3545;stroke-linecap:square;stroke-width:25;"/>
   </g>
  </g>
 </g>
 <defs>
  <clipPath id="p0c08fb0072">
   <rect height="277.2" width="558" x="90" y="43.2"/>
  </clipPath>
 </defs>
</svg>
