<?xml version="1.0" encoding="utf-8" standalone="no"?>
<!DOCTYPE svg PUBLIC "-//W3C//DTD SVG 1.1//EN"
  "http://www.w3.org/Graphics/SVG/1.1/DTD/svg11.dtd">
<svg height="360pt" version="1.1" viewBox="0 0 720 360" width="720pt" xmlns="http://www.w3.org/2000/svg" xmlns:xlink="http://www.w3.org/1999/xlink">
 <metadata>
  <rdf:RDF xmlns:cc="http://creativecommons.org/ns#" xmlns:dc="http://purl.org/dc/elements/1.1/" xmlns:rdf="http://www.w3.org/1999/02/22-rdf-syntax-ns#">
   <cc:Work>
    <dc:type rdf:resource="http://purl.org/dc/dcmitype/StillImage"/>
    <dc:date>2021-06-02T14:55:34.782153</dc:date>
    <dc:format>image/svg+xml</dc:format>
    <dc:creator>
     <cc:Agent>
      <dc:title>Matplotlib v3.4.2, https://matplotlib.org/</dc:title>
     </cc:Agent>
    </dc:creator>
   </cc:Work>
  </rdf:RDF>
 </metadata>
 <defs>
  <style type="text/css">*{stroke-linecap:butt;stroke-linejoin:round;}</style>
 </defs>
 <g id="figure_1">
  <g id="patch_1">
   <path d="M 0 360 
L 720 360 
L 720 0 
L 0 0 
z
" style="fill:none;"/>
  </g>
  <g id="axes_1">
   <g id="matplotlib.axis_1"/>
   <g id="matplotlib.axis_2"/>
   <g id="PolyCollection_1">
    <defs>
     <path d="M 115.363636 -302.210526 
L 115.363636 -39.6 
L 154.384615 -39.6 
L 193.405594 -39.6 
L 232.426573 -39.6 
L 271.447552 -39.6 
L 310.468531 -39.6 
L 349.48951 -39.6 
L 388.51049 -39.6 
L 427.531469 -39.6 
L 466.552448 -39.6 
L 505.573427 -39.6 
L 544.594406 -39.6 
L 583.615385 -39.6 
L 622.636364 -39.6 
L 622.636364 -185.494737 
L 622.636364 -185.494737 
L 583.615385 -156.315789 
L 544.594406 -112.547368 
L 505.573427 -97.957895 
L 466.552448 -68.778947 
L 427.531469 -83.368421 
L 388.51049 -97.957895 
L 349.48951 -258.442105 
L 310.468531 -302.210526 
L 271.447552 -316.8 
L 232.426573 -316.8 
L 193.405594 -302.210526 
L 154.384615 -302.210526 
L 115.363636 -302.210526 
z
" id="mce26f4a256" style="stroke:#dc3545;stroke-opacity:0.3;"/>
    </defs>
    <g clip-path="url(#p2ba5f0be14)">
     <use style="fill:#dc3545;fill-opacity:0.3;stroke:#dc3545;stroke-opacity:0.3;" x="0" xlink:href="#mce26f4a256" y="360"/>
    </g>
   </g>
   <g id="line2d_1">
    <path clip-path="url(#p2ba5f0be14)" d="M 115.363636 57.789474 
L 154.384615 57.789474 
L 193.405594 57.789474 
L 232.426573 43.2 
L 271.447552 43.2 
L 310.468531 57.789474 
L 349.48951 101.557895 
L 388.51049 262.042105 
L 427.531469 276.631579 
L 466.552448 291.221053 
L 505.573427 262.042105 
L 544.594406 247.452632 
L 583.615385 203.684211 
L 622.636364 174.505263 
" style="fill:none;stroke:#dc3545;stroke-linecap:square;stroke-width:25;"/>
   </g>
  </g>
 </g>
 <defs>
  <clipPath id="p2ba5f0be14">
   <rect height="277.2" width="558" x="90" y="43.2"/>
  </clipPath>
 </defs>
</svg>
