<?xml version="1.0" encoding="utf-8" standalone="no"?>
<!DOCTYPE svg PUBLIC "-//W3C//DTD SVG 1.1//EN"
  "http://www.w3.org/Graphics/SVG/1.1/DTD/svg11.dtd">
<svg height="360pt" version="1.1" viewBox="0 0 720 360" width="720pt" xmlns="http://www.w3.org/2000/svg" xmlns:xlink="http://www.w3.org/1999/xlink">
 <metadata>
  <rdf:RDF xmlns:cc="http://creativecommons.org/ns#" xmlns:dc="http://purl.org/dc/elements/1.1/" xmlns:rdf="http://www.w3.org/1999/02/22-rdf-syntax-ns#">
   <cc:Work>
    <dc:type rdf:resource="http://purl.org/dc/dcmitype/StillImage"/>
    <dc:date>2021-06-21T13:25:18.032261</dc:date>
    <dc:format>image/svg+xml</dc:format>
    <dc:creator>
     <cc:Agent>
      <dc:title>Matplotlib v3.4.2, https://matplotlib.org/</dc:title>
     </cc:Agent>
    </dc:creator>
   </cc:Work>
  </rdf:RDF>
 </metadata>
 <defs>
  <style type="text/css">*{stroke-linecap:butt;stroke-linejoin:round;}</style>
 </defs>
 <g id="figure_1">
  <g id="patch_1">
   <path d="M 0 360 
L 720 360 
L 720 0 
L 0 0 
z
" style="fill:none;"/>
  </g>
  <g id="axes_1">
   <g id="matplotlib.axis_1"/>
   <g id="matplotlib.axis_2"/>
   <g id="PolyCollection_1">
    <defs>
     <path d="M 115.363636 -69.037168 
L 115.363636 -39.6 
L 154.384615 -39.6 
L 193.405594 -39.6 
L 232.426573 -39.6 
L 271.447552 -39.6 
L 310.468531 -39.6 
L 349.48951 -39.6 
L 388.51049 -39.6 
L 427.531469 -39.6 
L 466.552448 -39.6 
L 505.573427 -39.6 
L 544.594406 -39.6 
L 583.615385 -39.6 
L 622.636364 -39.6 
L 622.636364 -267.738053 
L 622.636364 -267.738053 
L 583.615385 -316.8 
L 544.594406 -297.175221 
L 505.573427 -277.550442 
L 466.552448 -238.300885 
L 427.531469 -201.504425 
L 388.51049 -145.083186 
L 349.48951 -115.646018 
L 310.468531 -54.318584 
L 271.447552 -56.771681 
L 232.426573 -61.677876 
L 193.405594 -61.677876 
L 154.384615 -64.130973 
L 115.363636 -69.037168 
z
" id="mc41e1a6ae5" style="stroke:#dc3545;stroke-opacity:0.3;"/>
    </defs>
    <g clip-path="url(#p317236a006)">
     <use style="fill:#dc3545;fill-opacity:0.3;stroke:#dc3545;stroke-opacity:0.3;" x="0" xlink:href="#mc41e1a6ae5" y="360"/>
    </g>
   </g>
   <g id="line2d_1">
    <path clip-path="url(#p317236a006)" d="M 115.363636 290.962832 
L 154.384615 295.869027 
L 193.405594 298.322124 
L 232.426573 298.322124 
L 271.447552 303.228319 
L 310.468531 305.681416 
L 349.48951 244.353982 
L 388.51049 214.916814 
L 427.531469 158.495575 
L 466.552448 121.699115 
L 505.573427 82.449558 
L 544.594406 62.824779 
L 583.615385 43.2 
L 622.636364 92.261947 
" style="fill:none;stroke:#dc3545;stroke-linecap:square;stroke-width:25;"/>
   </g>
  </g>
 </g>
 <defs>
  <clipPath id="p317236a006">
   <rect height="277.2" width="558" x="90" y="43.2"/>
  </clipPath>
 </defs>
</svg>
