<?xml version="1.0" encoding="utf-8" standalone="no"?>
<!DOCTYPE svg PUBLIC "-//W3C//DTD SVG 1.1//EN"
  "http://www.w3.org/Graphics/SVG/1.1/DTD/svg11.dtd">
<svg height="360pt" version="1.1" viewBox="0 0 720 360" width="720pt" xmlns="http://www.w3.org/2000/svg" xmlns:xlink="http://www.w3.org/1999/xlink">
 <metadata>
  <rdf:RDF xmlns:cc="http://creativecommons.org/ns#" xmlns:dc="http://purl.org/dc/elements/1.1/" xmlns:rdf="http://www.w3.org/1999/02/22-rdf-syntax-ns#">
   <cc:Work>
    <dc:type rdf:resource="http://purl.org/dc/dcmitype/StillImage"/>
    <dc:date>2021-07-30T19:31:31.493520</dc:date>
    <dc:format>image/svg+xml</dc:format>
    <dc:creator>
     <cc:Agent>
      <dc:title>Matplotlib v3.4.2, https://matplotlib.org/</dc:title>
     </cc:Agent>
    </dc:creator>
   </cc:Work>
  </rdf:RDF>
 </metadata>
 <defs>
  <style type="text/css">*{stroke-linecap:butt;stroke-linejoin:round;}</style>
 </defs>
 <g id="figure_1">
  <g id="patch_1">
   <path d="M 0 360 
L 720 360 
L 720 0 
L 0 0 
z
" style="fill:none;"/>
  </g>
  <g id="axes_1">
   <g id="matplotlib.axis_1"/>
   <g id="matplotlib.axis_2"/>
   <g id="PolyCollection_1">
    <defs>
     <path d="M 115.363636 -98.517661 
L 115.363636 -39.6 
L 154.384615 -39.6 
L 193.405594 -39.6 
L 232.426573 -39.6 
L 271.447552 -39.6 
L 310.468531 -39.6 
L 349.48951 -39.6 
L 388.51049 -39.6 
L 427.531469 -39.6 
L 466.552448 -39.6 
L 505.573427 -39.6 
L 544.594406 -39.6 
L 583.615385 -39.6 
L 622.636364 -39.6 
L 622.636364 -299.074056 
L 622.636364 -299.074056 
L 583.615385 -316.8 
L 544.594406 -310.216078 
L 505.573427 -253.661876 
L 466.552448 -246.233861 
L 427.531469 -266.998538 
L 388.51049 -244.883313 
L 349.48951 -226.482095 
L 310.468531 -174.485993 
L 271.447552 -160.305238 
L 232.426573 -169.252619 
L 193.405594 -149.332034 
L 154.384615 -107.633861 
L 115.363636 -98.517661 
z
" id="m5671b3ddd9" style="stroke:#dc3545;stroke-opacity:0.3;"/>
    </defs>
    <g clip-path="url(#p859b3345d0)">
     <use style="fill:#dc3545;fill-opacity:0.3;stroke:#dc3545;stroke-opacity:0.3;" x="0" xlink:href="#m5671b3ddd9" y="360"/>
    </g>
   </g>
   <g id="line2d_1">
    <path clip-path="url(#p859b3345d0)" d="M 115.363636 261.482339 
L 154.384615 252.366139 
L 193.405594 210.667966 
L 232.426573 190.747381 
L 271.447552 199.694762 
L 310.468531 185.514007 
L 349.48951 133.517905 
L 388.51049 115.116687 
L 427.531469 93.001462 
L 466.552448 113.766139 
L 505.573427 106.338124 
L 544.594406 49.783922 
L 583.615385 43.2 
L 622.636364 60.925944 
" style="fill:none;stroke:#dc3545;stroke-linecap:square;stroke-width:25;"/>
   </g>
  </g>
 </g>
 <defs>
  <clipPath id="p859b3345d0">
   <rect height="277.2" width="558" x="90" y="43.2"/>
  </clipPath>
 </defs>
</svg>
