<?xml version="1.0" encoding="utf-8" standalone="no"?>
<!DOCTYPE svg PUBLIC "-//W3C//DTD SVG 1.1//EN"
  "http://www.w3.org/Graphics/SVG/1.1/DTD/svg11.dtd">
<svg height="360pt" version="1.1" viewBox="0 0 720 360" width="720pt" xmlns="http://www.w3.org/2000/svg" xmlns:xlink="http://www.w3.org/1999/xlink">
 <metadata>
  <rdf:RDF xmlns:cc="http://creativecommons.org/ns#" xmlns:dc="http://purl.org/dc/elements/1.1/" xmlns:rdf="http://www.w3.org/1999/02/22-rdf-syntax-ns#">
   <cc:Work>
    <dc:type rdf:resource="http://purl.org/dc/dcmitype/StillImage"/>
    <dc:date>2021-06-01T14:53:33.965684</dc:date>
    <dc:format>image/svg+xml</dc:format>
    <dc:creator>
     <cc:Agent>
      <dc:title>Matplotlib v3.4.2, https://matplotlib.org/</dc:title>
     </cc:Agent>
    </dc:creator>
   </cc:Work>
  </rdf:RDF>
 </metadata>
 <defs>
  <style type="text/css">*{stroke-linecap:butt;stroke-linejoin:round;}</style>
 </defs>
 <g id="figure_1">
  <g id="patch_1">
   <path d="M 0 360 
L 720 360 
L 720 0 
L 0 0 
z
" style="fill:none;"/>
  </g>
  <g id="axes_1">
   <g id="matplotlib.axis_1"/>
   <g id="matplotlib.axis_2"/>
   <g id="PolyCollection_1">
    <defs>
     <path d="M 115.363636 -82.074194 
L 115.363636 -39.6 
L 154.384615 -39.6 
L 193.405594 -39.6 
L 232.426573 -39.6 
L 271.447552 -39.6 
L 310.468531 -39.6 
L 349.48951 -39.6 
L 388.51049 -39.6 
L 427.531469 -39.6 
L 466.552448 -39.6 
L 505.573427 -39.6 
L 544.594406 -39.6 
L 583.615385 -39.6 
L 622.636364 -39.6 
L 622.636364 -169.258065 
L 622.636364 -169.258065 
L 583.615385 -173.729032 
L 544.594406 -198.319355 
L 505.573427 -202.790323 
L 466.552448 -218.43871 
L 427.531469 -305.622581 
L 388.51049 -316.8 
L 349.48951 -269.854839 
L 310.468531 -278.796774 
L 271.447552 -249.735484 
L 232.426573 -236.322581 
L 193.405594 -191.612903 
L 154.384615 -91.016129 
L 115.363636 -82.074194 
z
" id="m08ab631dc0" style="stroke:#dc3545;stroke-opacity:0.3;"/>
    </defs>
    <g clip-path="url(#p21b14efe19)">
     <use style="fill:#dc3545;fill-opacity:0.3;stroke:#dc3545;stroke-opacity:0.3;" x="0" xlink:href="#m08ab631dc0" y="360"/>
    </g>
   </g>
   <g id="line2d_1">
    <path clip-path="url(#p21b14efe19)" d="M 115.363636 277.925806 
L 154.384615 268.983871 
L 193.405594 168.387097 
L 232.426573 123.677419 
L 271.447552 110.264516 
L 310.468531 81.203226 
L 349.48951 90.145161 
L 388.51049 43.2 
L 427.531469 54.377419 
L 466.552448 141.56129 
L 505.573427 157.209677 
L 544.594406 161.680645 
L 583.615385 186.270968 
L 622.636364 190.741935 
" style="fill:none;stroke:#dc3545;stroke-linecap:square;stroke-width:25;"/>
   </g>
  </g>
 </g>
 <defs>
  <clipPath id="p21b14efe19">
   <rect height="277.2" width="558" x="90" y="43.2"/>
  </clipPath>
 </defs>
</svg>
