<?xml version="1.0" encoding="utf-8" standalone="no"?>
<!DOCTYPE svg PUBLIC "-//W3C//DTD SVG 1.1//EN"
  "http://www.w3.org/Graphics/SVG/1.1/DTD/svg11.dtd">
<svg height="360pt" version="1.1" viewBox="0 0 720 360" width="720pt" xmlns="http://www.w3.org/2000/svg" xmlns:xlink="http://www.w3.org/1999/xlink">
 <metadata>
  <rdf:RDF xmlns:cc="http://creativecommons.org/ns#" xmlns:dc="http://purl.org/dc/elements/1.1/" xmlns:rdf="http://www.w3.org/1999/02/22-rdf-syntax-ns#">
   <cc:Work>
    <dc:type rdf:resource="http://purl.org/dc/dcmitype/StillImage"/>
    <dc:date>2021-07-18T19:29:48.351937</dc:date>
    <dc:format>image/svg+xml</dc:format>
    <dc:creator>
     <cc:Agent>
      <dc:title>Matplotlib v3.4.2, https://matplotlib.org/</dc:title>
     </cc:Agent>
    </dc:creator>
   </cc:Work>
  </rdf:RDF>
 </metadata>
 <defs>
  <style type="text/css">*{stroke-linecap:butt;stroke-linejoin:round;}</style>
 </defs>
 <g id="figure_1">
  <g id="patch_1">
   <path d="M 0 360 
L 720 360 
L 720 0 
L 0 0 
z
" style="fill:none;"/>
  </g>
  <g id="axes_1">
   <g id="matplotlib.axis_1"/>
   <g id="matplotlib.axis_2"/>
   <g id="PolyCollection_1">
    <defs>
     <path d="M 115.363636 -245.844369 
L 115.363636 -39.6 
L 154.384615 -39.6 
L 193.405594 -39.6 
L 232.426573 -39.6 
L 271.447552 -39.6 
L 310.468531 -39.6 
L 349.48951 -39.6 
L 388.51049 -39.6 
L 427.531469 -39.6 
L 466.552448 -39.6 
L 505.573427 -39.6 
L 544.594406 -39.6 
L 583.615385 -39.6 
L 622.636364 -39.6 
L 622.636364 -230.23413 
L 622.636364 -230.23413 
L 583.615385 -204.690102 
L 544.594406 -197.121502 
L 505.573427 -203.744027 
L 466.552448 -208.001365 
L 427.531469 -210.83959 
L 388.51049 -213.677816 
L 349.48951 -254.832082 
L 310.468531 -316.8 
L 271.447552 -314.434812 
L 232.426573 -306.393174 
L 193.405594 -292.675085 
L 154.384615 -267.131058 
L 115.363636 -245.844369 
z
" id="m7d1e225678" style="stroke:#dc3545;stroke-opacity:0.3;"/>
    </defs>
    <g clip-path="url(#p886a6cdc04)">
     <use style="fill:#dc3545;fill-opacity:0.3;stroke:#dc3545;stroke-opacity:0.3;" x="0" xlink:href="#m7d1e225678" y="360"/>
    </g>
   </g>
   <g id="line2d_1">
    <path clip-path="url(#p886a6cdc04)" d="M 115.363636 114.155631 
L 154.384615 92.868942 
L 193.405594 67.324915 
L 232.426573 53.606826 
L 271.447552 45.565188 
L 310.468531 43.2 
L 349.48951 105.167918 
L 388.51049 146.322184 
L 427.531469 149.16041 
L 466.552448 151.998635 
L 505.573427 156.255973 
L 544.594406 162.878498 
L 583.615385 155.309898 
L 622.636364 129.76587 
" style="fill:none;stroke:#dc3545;stroke-linecap:square;stroke-width:25;"/>
   </g>
  </g>
 </g>
 <defs>
  <clipPath id="p886a6cdc04">
   <rect height="277.2" width="558" x="90" y="43.2"/>
  </clipPath>
 </defs>
</svg>
