<?xml version="1.0" encoding="utf-8" standalone="no"?>
<!DOCTYPE svg PUBLIC "-//W3C//DTD SVG 1.1//EN"
  "http://www.w3.org/Graphics/SVG/1.1/DTD/svg11.dtd">
<svg height="360pt" version="1.1" viewBox="0 0 720 360" width="720pt" xmlns="http://www.w3.org/2000/svg" xmlns:xlink="http://www.w3.org/1999/xlink">
 <metadata>
  <rdf:RDF xmlns:cc="http://creativecommons.org/ns#" xmlns:dc="http://purl.org/dc/elements/1.1/" xmlns:rdf="http://www.w3.org/1999/02/22-rdf-syntax-ns#">
   <cc:Work>
    <dc:type rdf:resource="http://purl.org/dc/dcmitype/StillImage"/>
    <dc:date>2021-07-19T19:31:19.266627</dc:date>
    <dc:format>image/svg+xml</dc:format>
    <dc:creator>
     <cc:Agent>
      <dc:title>Matplotlib v3.4.2, https://matplotlib.org/</dc:title>
     </cc:Agent>
    </dc:creator>
   </cc:Work>
  </rdf:RDF>
 </metadata>
 <defs>
  <style type="text/css">*{stroke-linecap:butt;stroke-linejoin:round;}</style>
 </defs>
 <g id="figure_1">
  <g id="patch_1">
   <path d="M 0 360 
L 720 360 
L 720 0 
L 0 0 
z
" style="fill:none;"/>
  </g>
  <g id="axes_1">
   <g id="matplotlib.axis_1"/>
   <g id="matplotlib.axis_2"/>
   <g id="PolyCollection_1">
    <defs>
     <path d="M 115.363636 -120.204255 
L 115.363636 -39.6 
L 154.384615 -39.6 
L 193.405594 -39.6 
L 232.426573 -39.6 
L 271.447552 -39.6 
L 310.468531 -39.6 
L 349.48951 -39.6 
L 388.51049 -39.6 
L 427.531469 -39.6 
L 466.552448 -39.6 
L 505.573427 -39.6 
L 544.594406 -39.6 
L 583.615385 -39.6 
L 622.636364 -39.6 
L 622.636364 -313.851064 
L 622.636364 -313.851064 
L 583.615385 -300.089362 
L 544.594406 -272.565957 
L 505.573427 -276.497872 
L 466.552448 -316.8 
L 427.531469 -287.310638 
L 388.51049 -263.719149 
L 349.48951 -247.991489 
L 310.468531 -244.059574 
L 271.447552 -222.434043 
L 232.426573 -197.859574 
L 193.405594 -161.489362 
L 154.384615 -156.574468 
L 115.363636 -120.204255 
z
" id="mf2f06302cf" style="stroke:#dc3545;stroke-opacity:0.3;"/>
    </defs>
    <g clip-path="url(#peacbf4bc0e)">
     <use style="fill:#dc3545;fill-opacity:0.3;stroke:#dc3545;stroke-opacity:0.3;" x="0" xlink:href="#mf2f06302cf" y="360"/>
    </g>
   </g>
   <g id="line2d_1">
    <path clip-path="url(#peacbf4bc0e)" d="M 115.363636 239.795745 
L 154.384615 203.425532 
L 193.405594 198.510638 
L 232.426573 162.140426 
L 271.447552 137.565957 
L 310.468531 115.940426 
L 349.48951 112.008511 
L 388.51049 96.280851 
L 427.531469 72.689362 
L 466.552448 43.2 
L 505.573427 83.502128 
L 544.594406 87.434043 
L 583.615385 59.910638 
L 622.636364 46.148936 
" style="fill:none;stroke:#dc3545;stroke-linecap:square;stroke-width:25;"/>
   </g>
  </g>
 </g>
 <defs>
  <clipPath id="peacbf4bc0e">
   <rect height="277.2" width="558" x="90" y="43.2"/>
  </clipPath>
 </defs>
</svg>
