<?xml version="1.0" encoding="utf-8" standalone="no"?>
<!DOCTYPE svg PUBLIC "-//W3C//DTD SVG 1.1//EN"
  "http://www.w3.org/Graphics/SVG/1.1/DTD/svg11.dtd">
<svg height="360pt" version="1.1" viewBox="0 0 720 360" width="720pt" xmlns="http://www.w3.org/2000/svg" xmlns:xlink="http://www.w3.org/1999/xlink">
 <metadata>
  <rdf:RDF xmlns:cc="http://creativecommons.org/ns#" xmlns:dc="http://purl.org/dc/elements/1.1/" xmlns:rdf="http://www.w3.org/1999/02/22-rdf-syntax-ns#">
   <cc:Work>
    <dc:type rdf:resource="http://purl.org/dc/dcmitype/StillImage"/>
    <dc:date>2021-07-23T09:04:45.789111</dc:date>
    <dc:format>image/svg+xml</dc:format>
    <dc:creator>
     <cc:Agent>
      <dc:title>Matplotlib v3.4.2, https://matplotlib.org/</dc:title>
     </cc:Agent>
    </dc:creator>
   </cc:Work>
  </rdf:RDF>
 </metadata>
 <defs>
  <style type="text/css">*{stroke-linecap:butt;stroke-linejoin:round;}</style>
 </defs>
 <g id="figure_1">
  <g id="patch_1">
   <path d="M 0 360 
L 720 360 
L 720 0 
L 0 0 
z
" style="fill:none;"/>
  </g>
  <g id="axes_1">
   <g id="matplotlib.axis_1"/>
   <g id="matplotlib.axis_2"/>
   <g id="PolyCollection_1">
    <defs>
     <path d="M 115.363636 -138.04486 
L 115.363636 -39.6 
L 154.384615 -39.6 
L 193.405594 -39.6 
L 232.426573 -39.6 
L 271.447552 -39.6 
L 310.468531 -39.6 
L 349.48951 -39.6 
L 388.51049 -39.6 
L 427.531469 -39.6 
L 466.552448 -39.6 
L 505.573427 -39.6 
L 544.594406 -39.6 
L 583.615385 -39.6 
L 622.636364 -39.6 
L 622.636364 -316.8 
L 622.636364 -316.8 
L 583.615385 -282.257944 
L 544.594406 -285.71215 
L 505.573427 -286.575701 
L 466.552448 -275.349533 
L 427.531469 -246.852336 
L 388.51049 -209.719626 
L 349.48951 -190.721495 
L 310.468531 -182.085981 
L 271.447552 -176.041121 
L 232.426573 -173.450467 
L 193.405594 -154.452336 
L 154.384615 -149.271028 
L 115.363636 -138.04486 
z
" id="m15b1995904" style="stroke:#dc3545;stroke-opacity:0.3;"/>
    </defs>
    <g clip-path="url(#p2d2262f0bc)">
     <use style="fill:#dc3545;fill-opacity:0.3;stroke:#dc3545;stroke-opacity:0.3;" x="0" xlink:href="#m15b1995904" y="360"/>
    </g>
   </g>
   <g id="line2d_1">
    <path clip-path="url(#p2d2262f0bc)" d="M 115.363636 221.95514 
L 154.384615 210.728972 
L 193.405594 205.547664 
L 232.426573 186.549533 
L 271.447552 183.958879 
L 310.468531 177.914019 
L 349.48951 169.278505 
L 388.51049 150.280374 
L 427.531469 113.147664 
L 466.552448 84.650467 
L 505.573427 73.424299 
L 544.594406 74.28785 
L 583.615385 77.742056 
L 622.636364 43.2 
" style="fill:none;stroke:#dc3545;stroke-linecap:square;stroke-width:25;"/>
   </g>
  </g>
 </g>
 <defs>
  <clipPath id="p2d2262f0bc">
   <rect height="277.2" width="558" x="90" y="43.2"/>
  </clipPath>
 </defs>
</svg>
