<?xml version="1.0" encoding="utf-8" standalone="no"?>
<!DOCTYPE svg PUBLIC "-//W3C//DTD SVG 1.1//EN"
  "http://www.w3.org/Graphics/SVG/1.1/DTD/svg11.dtd">
<svg height="360pt" version="1.1" viewBox="0 0 720 360" width="720pt" xmlns="http://www.w3.org/2000/svg" xmlns:xlink="http://www.w3.org/1999/xlink">
 <metadata>
  <rdf:RDF xmlns:cc="http://creativecommons.org/ns#" xmlns:dc="http://purl.org/dc/elements/1.1/" xmlns:rdf="http://www.w3.org/1999/02/22-rdf-syntax-ns#">
   <cc:Work>
    <dc:type rdf:resource="http://purl.org/dc/dcmitype/StillImage"/>
    <dc:date>2021-07-03T19:32:19.154436</dc:date>
    <dc:format>image/svg+xml</dc:format>
    <dc:creator>
     <cc:Agent>
      <dc:title>Matplotlib v3.4.2, https://matplotlib.org/</dc:title>
     </cc:Agent>
    </dc:creator>
   </cc:Work>
  </rdf:RDF>
 </metadata>
 <defs>
  <style type="text/css">*{stroke-linecap:butt;stroke-linejoin:round;}</style>
 </defs>
 <g id="figure_1">
  <g id="patch_1">
   <path d="M 0 360 
L 720 360 
L 720 0 
L 0 0 
z
" style="fill:none;"/>
  </g>
  <g id="axes_1">
   <g id="matplotlib.axis_1"/>
   <g id="matplotlib.axis_2"/>
   <g id="PolyCollection_1">
    <defs>
     <path d="M 115.363636 -104.598621 
L 115.363636 -39.6 
L 154.384615 -39.6 
L 193.405594 -39.6 
L 232.426573 -39.6 
L 271.447552 -39.6 
L 310.468531 -39.6 
L 349.48951 -39.6 
L 388.51049 -39.6 
L 427.531469 -39.6 
L 466.552448 -39.6 
L 505.573427 -39.6 
L 544.594406 -39.6 
L 583.615385 -39.6 
L 622.636364 -39.6 
L 622.636364 -249.889655 
L 622.636364 -249.889655 
L 583.615385 -314.888276 
L 544.594406 -293.85931 
L 505.573427 -316.8 
L 466.552448 -299.594483 
L 427.531469 -301.506207 
L 388.51049 -274.742069 
L 349.48951 -265.183448 
L 310.468531 -175.332414 
L 271.447552 -165.773793 
L 232.426573 -114.157241 
L 193.405594 -100.775172 
L 154.384615 -95.04 
L 115.363636 -104.598621 
z
" id="m774c0ebebd" style="stroke:#dc3545;stroke-opacity:0.3;"/>
    </defs>
    <g clip-path="url(#p55eae1a12e)">
     <use style="fill:#dc3545;fill-opacity:0.3;stroke:#dc3545;stroke-opacity:0.3;" x="0" xlink:href="#m774c0ebebd" y="360"/>
    </g>
   </g>
   <g id="line2d_1">
    <path clip-path="url(#p55eae1a12e)" d="M 115.363636 255.401379 
L 154.384615 264.96 
L 193.405594 259.224828 
L 232.426573 245.842759 
L 271.447552 194.226207 
L 310.468531 184.667586 
L 349.48951 94.816552 
L 388.51049 85.257931 
L 427.531469 58.493793 
L 466.552448 60.405517 
L 505.573427 43.2 
L 544.594406 66.14069 
L 583.615385 45.111724 
L 622.636364 110.110345 
" style="fill:none;stroke:#dc3545;stroke-linecap:square;stroke-width:25;"/>
   </g>
  </g>
 </g>
 <defs>
  <clipPath id="p55eae1a12e">
   <rect height="277.2" width="558" x="90" y="43.2"/>
  </clipPath>
 </defs>
</svg>
