<?xml version="1.0" encoding="utf-8" standalone="no"?>
<!DOCTYPE svg PUBLIC "-//W3C//DTD SVG 1.1//EN"
  "http://www.w3.org/Graphics/SVG/1.1/DTD/svg11.dtd">
<svg height="360pt" version="1.1" viewBox="0 0 720 360" width="720pt" xmlns="http://www.w3.org/2000/svg" xmlns:xlink="http://www.w3.org/1999/xlink">
 <metadata>
  <rdf:RDF xmlns:cc="http://creativecommons.org/ns#" xmlns:dc="http://purl.org/dc/elements/1.1/" xmlns:rdf="http://www.w3.org/1999/02/22-rdf-syntax-ns#">
   <cc:Work>
    <dc:type rdf:resource="http://purl.org/dc/dcmitype/StillImage"/>
    <dc:date>2021-07-17T13:25:11.414968</dc:date>
    <dc:format>image/svg+xml</dc:format>
    <dc:creator>
     <cc:Agent>
      <dc:title>Matplotlib v3.4.2, https://matplotlib.org/</dc:title>
     </cc:Agent>
    </dc:creator>
   </cc:Work>
  </rdf:RDF>
 </metadata>
 <defs>
  <style type="text/css">*{stroke-linecap:butt;stroke-linejoin:round;}</style>
 </defs>
 <g id="figure_1">
  <g id="patch_1">
   <path d="M 0 360 
L 720 360 
L 720 0 
L 0 0 
z
" style="fill:none;"/>
  </g>
  <g id="axes_1">
   <g id="matplotlib.axis_1"/>
   <g id="matplotlib.axis_2"/>
   <g id="PolyCollection_1">
    <defs>
     <path d="M 115.363636 -80.558311 
L 115.363636 -39.6 
L 154.384615 -39.6 
L 193.405594 -39.6 
L 232.426573 -39.6 
L 271.447552 -39.6 
L 310.468531 -39.6 
L 349.48951 -39.6 
L 388.51049 -39.6 
L 427.531469 -39.6 
L 466.552448 -39.6 
L 505.573427 -39.6 
L 544.594406 -39.6 
L 583.615385 -39.6 
L 622.636364 -39.6 
L 622.636364 -286.812665 
L 622.636364 -286.812665 
L 583.615385 -278.035884 
L 544.594406 -311.680211 
L 505.573427 -308.023219 
L 466.552448 -316.8 
L 427.531469 -305.829024 
L 388.51049 -291.201055 
L 349.48951 -264.870712 
L 310.468531 -242.197361 
L 271.447552 -174.177309 
L 232.426573 -154.429551 
L 193.405594 -135.413193 
L 154.384615 -120.785224 
L 115.363636 -80.558311 
z
" id="m366905c47b" style="stroke:#dc3545;stroke-opacity:0.3;"/>
    </defs>
    <g clip-path="url(#p7076a43ac9)">
     <use style="fill:#dc3545;fill-opacity:0.3;stroke:#dc3545;stroke-opacity:0.3;" x="0" xlink:href="#m366905c47b" y="360"/>
    </g>
   </g>
   <g id="line2d_1">
    <path clip-path="url(#p7076a43ac9)" d="M 115.363636 279.441689 
L 154.384615 239.214776 
L 193.405594 224.586807 
L 232.426573 205.570449 
L 271.447552 185.822691 
L 310.468531 117.802639 
L 349.48951 95.129288 
L 388.51049 68.798945 
L 427.531469 54.170976 
L 466.552448 43.2 
L 505.573427 51.976781 
L 544.594406 48.319789 
L 583.615385 81.964116 
L 622.636364 73.187335 
" style="fill:none;stroke:#dc3545;stroke-linecap:square;stroke-width:25;"/>
   </g>
  </g>
 </g>
 <defs>
  <clipPath id="p7076a43ac9">
   <rect height="277.2" width="558" x="90" y="43.2"/>
  </clipPath>
 </defs>
</svg>
