<?xml version="1.0" encoding="utf-8" standalone="no"?>
<!DOCTYPE svg PUBLIC "-//W3C//DTD SVG 1.1//EN"
  "http://www.w3.org/Graphics/SVG/1.1/DTD/svg11.dtd">
<svg height="360pt" version="1.1" viewBox="0 0 720 360" width="720pt" xmlns="http://www.w3.org/2000/svg" xmlns:xlink="http://www.w3.org/1999/xlink">
 <metadata>
  <rdf:RDF xmlns:cc="http://creativecommons.org/ns#" xmlns:dc="http://purl.org/dc/elements/1.1/" xmlns:rdf="http://www.w3.org/1999/02/22-rdf-syntax-ns#">
   <cc:Work>
    <dc:type rdf:resource="http://purl.org/dc/dcmitype/StillImage"/>
    <dc:date>2021-06-15T12:40:52.025122</dc:date>
    <dc:format>image/svg+xml</dc:format>
    <dc:creator>
     <cc:Agent>
      <dc:title>Matplotlib v3.4.2, https://matplotlib.org/</dc:title>
     </cc:Agent>
    </dc:creator>
   </cc:Work>
  </rdf:RDF>
 </metadata>
 <defs>
  <style type="text/css">*{stroke-linecap:butt;stroke-linejoin:round;}</style>
 </defs>
 <g id="figure_1">
  <g id="patch_1">
   <path d="M 0 360 
L 720 360 
L 720 0 
L 0 0 
z
" style="fill:none;"/>
  </g>
  <g id="axes_1">
   <g id="matplotlib.axis_1"/>
   <g id="matplotlib.axis_2"/>
   <g id="PolyCollection_1">
    <defs>
     <path d="M 115.363636 -145.737678 
L 115.363636 -39.6 
L 154.384615 -39.6 
L 193.405594 -39.6 
L 232.426573 -39.6 
L 271.447552 -39.6 
L 310.468531 -39.6 
L 349.48951 -39.6 
L 388.51049 -39.6 
L 427.531469 -39.6 
L 466.552448 -39.6 
L 505.573427 -39.6 
L 544.594406 -39.6 
L 583.615385 -39.6 
L 622.636364 -39.6 
L 622.636364 -262.319756 
L 622.636364 -262.319756 
L 583.615385 -243.689206 
L 544.594406 -285.749084 
L 505.573427 -315.388595 
L 466.552448 -308.331568 
L 427.531469 -304.661914 
L 388.51049 -314.824033 
L 349.48951 -316.8 
L 310.468531 -307.202444 
L 271.447552 -242.2778 
L 232.426573 -171.707536 
L 193.405594 -166.626477 
L 154.384615 -161.827699 
L 115.363636 -145.737678 
z
" id="m5c590a98ce" style="stroke:#dc3545;stroke-opacity:0.3;"/>
    </defs>
    <g clip-path="url(#pe2aa1afeb9)">
     <use style="fill:#dc3545;fill-opacity:0.3;stroke:#dc3545;stroke-opacity:0.3;" x="0" xlink:href="#m5c590a98ce" y="360"/>
    </g>
   </g>
   <g id="line2d_1">
    <path clip-path="url(#pe2aa1afeb9)" d="M 115.363636 214.262322 
L 154.384615 198.172301 
L 193.405594 193.373523 
L 232.426573 188.292464 
L 271.447552 117.7222 
L 310.468531 52.797556 
L 349.48951 43.2 
L 388.51049 45.175967 
L 427.531469 55.338086 
L 466.552448 51.668432 
L 505.573427 44.611405 
L 544.594406 74.250916 
L 583.615385 116.310794 
L 622.636364 97.680244 
" style="fill:none;stroke:#dc3545;stroke-linecap:square;stroke-width:25;"/>
   </g>
  </g>
 </g>
 <defs>
  <clipPath id="pe2aa1afeb9">
   <rect height="277.2" width="558" x="90" y="43.2"/>
  </clipPath>
 </defs>
</svg>
