<?xml version="1.0" encoding="utf-8" standalone="no"?>
<!DOCTYPE svg PUBLIC "-//W3C//DTD SVG 1.1//EN"
  "http://www.w3.org/Graphics/SVG/1.1/DTD/svg11.dtd">
<svg height="360pt" version="1.1" viewBox="0 0 720 360" width="720pt" xmlns="http://www.w3.org/2000/svg" xmlns:xlink="http://www.w3.org/1999/xlink">
 <metadata>
  <rdf:RDF xmlns:cc="http://creativecommons.org/ns#" xmlns:dc="http://purl.org/dc/elements/1.1/" xmlns:rdf="http://www.w3.org/1999/02/22-rdf-syntax-ns#">
   <cc:Work>
    <dc:type rdf:resource="http://purl.org/dc/dcmitype/StillImage"/>
    <dc:date>2021-06-14T13:26:52.179367</dc:date>
    <dc:format>image/svg+xml</dc:format>
    <dc:creator>
     <cc:Agent>
      <dc:title>Matplotlib v3.4.2, https://matplotlib.org/</dc:title>
     </cc:Agent>
    </dc:creator>
   </cc:Work>
  </rdf:RDF>
 </metadata>
 <defs>
  <style type="text/css">*{stroke-linecap:butt;stroke-linejoin:round;}</style>
 </defs>
 <g id="figure_1">
  <g id="patch_1">
   <path d="M 0 360 
L 720 360 
L 720 0 
L 0 0 
z
" style="fill:none;"/>
  </g>
  <g id="axes_1">
   <g id="matplotlib.axis_1"/>
   <g id="matplotlib.axis_2"/>
   <g id="PolyCollection_1">
    <defs>
     <path d="M 115.363636 -200.444444 
L 115.363636 -39.6 
L 154.384615 -39.6 
L 193.405594 -39.6 
L 232.426573 -39.6 
L 271.447552 -39.6 
L 310.468531 -39.6 
L 349.48951 -39.6 
L 388.51049 -39.6 
L 427.531469 -39.6 
L 466.552448 -39.6 
L 505.573427 -39.6 
L 544.594406 -39.6 
L 583.615385 -39.6 
L 622.636364 -39.6 
L 622.636364 -258.622222 
L 622.636364 -258.622222 
L 583.615385 -238.088889 
L 544.594406 -214.133333 
L 505.573427 -210.711111 
L 466.552448 -224.4 
L 427.531469 -262.044444 
L 388.51049 -292.844444 
L 349.48951 -292.844444 
L 310.468531 -282.577778 
L 271.447552 -316.8 
L 232.426573 -309.955556 
L 193.405594 -272.311111 
L 154.384615 -220.977778 
L 115.363636 -200.444444 
z
" id="m617dda93e5" style="stroke:#dc3545;stroke-opacity:0.3;"/>
    </defs>
    <g clip-path="url(#pb997341e4f)">
     <use style="fill:#dc3545;fill-opacity:0.3;stroke:#dc3545;stroke-opacity:0.3;" x="0" xlink:href="#m617dda93e5" y="360"/>
    </g>
   </g>
   <g id="line2d_1">
    <path clip-path="url(#pb997341e4f)" d="M 115.363636 159.555556 
L 154.384615 139.022222 
L 193.405594 87.688889 
L 232.426573 50.044444 
L 271.447552 43.2 
L 310.468531 77.422222 
L 349.48951 67.155556 
L 388.51049 67.155556 
L 427.531469 97.955556 
L 466.552448 135.6 
L 505.573427 149.288889 
L 544.594406 145.866667 
L 583.615385 121.911111 
L 622.636364 101.377778 
" style="fill:none;stroke:#dc3545;stroke-linecap:square;stroke-width:25;"/>
   </g>
  </g>
 </g>
 <defs>
  <clipPath id="pb997341e4f">
   <rect height="277.2" width="558" x="90" y="43.2"/>
  </clipPath>
 </defs>
</svg>
