<?xml version="1.0" encoding="utf-8" standalone="no"?>
<!DOCTYPE svg PUBLIC "-//W3C//DTD SVG 1.1//EN"
  "http://www.w3.org/Graphics/SVG/1.1/DTD/svg11.dtd">
<svg height="360pt" version="1.1" viewBox="0 0 720 360" width="720pt" xmlns="http://www.w3.org/2000/svg" xmlns:xlink="http://www.w3.org/1999/xlink">
 <metadata>
  <rdf:RDF xmlns:cc="http://creativecommons.org/ns#" xmlns:dc="http://purl.org/dc/elements/1.1/" xmlns:rdf="http://www.w3.org/1999/02/22-rdf-syntax-ns#">
   <cc:Work>
    <dc:type rdf:resource="http://purl.org/dc/dcmitype/StillImage"/>
    <dc:date>2021-08-06T09:08:15.277862</dc:date>
    <dc:format>image/svg+xml</dc:format>
    <dc:creator>
     <cc:Agent>
      <dc:title>Matplotlib v3.4.2, https://matplotlib.org/</dc:title>
     </cc:Agent>
    </dc:creator>
   </cc:Work>
  </rdf:RDF>
 </metadata>
 <defs>
  <style type="text/css">*{stroke-linecap:butt;stroke-linejoin:round;}</style>
 </defs>
 <g id="figure_1">
  <g id="patch_1">
   <path d="M 0 360 
L 720 360 
L 720 0 
L 0 0 
z
" style="fill:none;"/>
  </g>
  <g id="axes_1">
   <g id="matplotlib.axis_1"/>
   <g id="matplotlib.axis_2"/>
   <g id="PolyCollection_1">
    <defs>
     <path d="M 115.363636 -170.65098 
L 115.363636 -39.6 
L 154.384615 -39.6 
L 193.405594 -39.6 
L 232.426573 -39.6 
L 271.447552 -39.6 
L 310.468531 -39.6 
L 349.48951 -39.6 
L 388.51049 -39.6 
L 427.531469 -39.6 
L 466.552448 -39.6 
L 505.573427 -39.6 
L 544.594406 -39.6 
L 583.615385 -39.6 
L 622.636364 -39.6 
L 622.636364 -273.317647 
L 622.636364 -273.317647 
L 583.615385 -250.368627 
L 544.594406 -215.341176 
L 505.573427 -316.8 
L 466.552448 -267.278431 
L 427.531469 -196.015686 
L 388.51049 -194.807843 
L 349.48951 -194.807843 
L 310.468531 -199.035294 
L 271.447552 -174.878431 
L 232.426573 -98.784314 
L 193.405594 -119.921569 
L 154.384615 -141.662745 
L 115.363636 -170.65098 
z
" id="md3efdf56d2" style="stroke:#dc3545;stroke-opacity:0.3;"/>
    </defs>
    <g clip-path="url(#p696caec0f4)">
     <use style="fill:#dc3545;fill-opacity:0.3;stroke:#dc3545;stroke-opacity:0.3;" x="0" xlink:href="#md3efdf56d2" y="360"/>
    </g>
   </g>
   <g id="line2d_1">
    <path clip-path="url(#p696caec0f4)" d="M 115.363636 189.34902 
L 154.384615 218.337255 
L 193.405594 240.078431 
L 232.426573 261.215686 
L 271.447552 185.121569 
L 310.468531 160.964706 
L 349.48951 165.192157 
L 388.51049 165.192157 
L 427.531469 163.984314 
L 466.552448 92.721569 
L 505.573427 43.2 
L 544.594406 144.658824 
L 583.615385 109.631373 
L 622.636364 86.682353 
" style="fill:none;stroke:#dc3545;stroke-linecap:square;stroke-width:25;"/>
   </g>
  </g>
 </g>
 <defs>
  <clipPath id="p696caec0f4">
   <rect height="277.2" width="558" x="90" y="43.2"/>
  </clipPath>
 </defs>
</svg>
