<?xml version="1.0" encoding="utf-8" standalone="no"?>
<!DOCTYPE svg PUBLIC "-//W3C//DTD SVG 1.1//EN"
  "http://www.w3.org/Graphics/SVG/1.1/DTD/svg11.dtd">
<svg height="360pt" version="1.1" viewBox="0 0 720 360" width="720pt" xmlns="http://www.w3.org/2000/svg" xmlns:xlink="http://www.w3.org/1999/xlink">
 <metadata>
  <rdf:RDF xmlns:cc="http://creativecommons.org/ns#" xmlns:dc="http://purl.org/dc/elements/1.1/" xmlns:rdf="http://www.w3.org/1999/02/22-rdf-syntax-ns#">
   <cc:Work>
    <dc:type rdf:resource="http://purl.org/dc/dcmitype/StillImage"/>
    <dc:date>2021-06-23T13:23:40.425864</dc:date>
    <dc:format>image/svg+xml</dc:format>
    <dc:creator>
     <cc:Agent>
      <dc:title>Matplotlib v3.4.2, https://matplotlib.org/</dc:title>
     </cc:Agent>
    </dc:creator>
   </cc:Work>
  </rdf:RDF>
 </metadata>
 <defs>
  <style type="text/css">*{stroke-linecap:butt;stroke-linejoin:round;}</style>
 </defs>
 <g id="figure_1">
  <g id="patch_1">
   <path d="M 0 360 
L 720 360 
L 720 0 
L 0 0 
z
" style="fill:none;"/>
  </g>
  <g id="axes_1">
   <g id="matplotlib.axis_1"/>
   <g id="matplotlib.axis_2"/>
   <g id="PolyCollection_1">
    <defs>
     <path d="M 115.363636 -82.583544 
L 115.363636 -39.6 
L 154.384615 -39.6 
L 193.405594 -39.6 
L 232.426573 -39.6 
L 271.447552 -39.6 
L 310.468531 -39.6 
L 349.48951 -39.6 
L 388.51049 -39.6 
L 427.531469 -39.6 
L 466.552448 -39.6 
L 505.573427 -39.6 
L 544.594406 -39.6 
L 583.615385 -39.6 
L 622.636364 -39.6 
L 622.636364 -202.762025 
L 622.636364 -202.762025 
L 583.615385 -239.605063 
L 544.594406 -259.781013 
L 505.573427 -316.8 
L 466.552448 -305.396203 
L 427.531469 -283.465823 
L 388.51049 -264.167089 
L 349.48951 -243.991139 
L 310.468531 -215.043038 
L 271.447552 -179.077215 
L 232.426573 -111.531646 
L 193.405594 -101.882278 
L 154.384615 -93.987342 
L 115.363636 -82.583544 
z
" id="mfb6fa1fafc" style="stroke:#dc3545;stroke-opacity:0.3;"/>
    </defs>
    <g clip-path="url(#p4ecb886fad)">
     <use style="fill:#dc3545;fill-opacity:0.3;stroke:#dc3545;stroke-opacity:0.3;" x="0" xlink:href="#mfb6fa1fafc" y="360"/>
    </g>
   </g>
   <g id="line2d_1">
    <path clip-path="url(#p4ecb886fad)" d="M 115.363636 277.416456 
L 154.384615 266.012658 
L 193.405594 258.117722 
L 232.426573 248.468354 
L 271.447552 180.922785 
L 310.468531 144.956962 
L 349.48951 116.008861 
L 388.51049 95.832911 
L 427.531469 76.534177 
L 466.552448 54.603797 
L 505.573427 43.2 
L 544.594406 100.218987 
L 583.615385 120.394937 
L 622.636364 157.237975 
" style="fill:none;stroke:#dc3545;stroke-linecap:square;stroke-width:25;"/>
   </g>
  </g>
 </g>
 <defs>
  <clipPath id="p4ecb886fad">
   <rect height="277.2" width="558" x="90" y="43.2"/>
  </clipPath>
 </defs>
</svg>
