<?xml version="1.0" encoding="utf-8" standalone="no"?>
<!DOCTYPE svg PUBLIC "-//W3C//DTD SVG 1.1//EN"
  "http://www.w3.org/Graphics/SVG/1.1/DTD/svg11.dtd">
<svg height="360pt" version="1.1" viewBox="0 0 720 360" width="720pt" xmlns="http://www.w3.org/2000/svg" xmlns:xlink="http://www.w3.org/1999/xlink">
 <metadata>
  <rdf:RDF xmlns:cc="http://creativecommons.org/ns#" xmlns:dc="http://purl.org/dc/elements/1.1/" xmlns:rdf="http://www.w3.org/1999/02/22-rdf-syntax-ns#">
   <cc:Work>
    <dc:type rdf:resource="http://purl.org/dc/dcmitype/StillImage"/>
    <dc:date>2021-07-30T19:31:30.658143</dc:date>
    <dc:format>image/svg+xml</dc:format>
    <dc:creator>
     <cc:Agent>
      <dc:title>Matplotlib v3.4.2, https://matplotlib.org/</dc:title>
     </cc:Agent>
    </dc:creator>
   </cc:Work>
  </rdf:RDF>
 </metadata>
 <defs>
  <style type="text/css">*{stroke-linecap:butt;stroke-linejoin:round;}</style>
 </defs>
 <g id="figure_1">
  <g id="patch_1">
   <path d="M 0 360 
L 720 360 
L 720 0 
L 0 0 
z
" style="fill:none;"/>
  </g>
  <g id="axes_1">
   <g id="matplotlib.axis_1"/>
   <g id="matplotlib.axis_2"/>
   <g id="PolyCollection_1">
    <defs>
     <path d="M 115.363636 -316.8 
L 115.363636 -39.6 
L 154.384615 -39.6 
L 193.405594 -39.6 
L 232.426573 -39.6 
L 271.447552 -39.6 
L 310.468531 -39.6 
L 349.48951 -39.6 
L 388.51049 -39.6 
L 427.531469 -39.6 
L 466.552448 -39.6 
L 505.573427 -39.6 
L 544.594406 -39.6 
L 583.615385 -39.6 
L 622.636364 -39.6 
L 622.636364 -187.23913 
L 622.636364 -187.23913 
L 583.615385 -223.395652 
L 544.594406 -214.356522 
L 505.573427 -172.173913 
L 466.552448 -154.095652 
L 427.531469 -136.017391 
L 388.51049 -151.082609 
L 349.48951 -163.134783 
L 310.468531 -133.004348 
L 271.447552 -148.069565 
L 232.426573 -139.030435 
L 193.405594 -163.134783 
L 154.384615 -205.317391 
L 115.363636 -316.8 
z
" id="m59c859ecc0" style="stroke:#dc3545;stroke-opacity:0.3;"/>
    </defs>
    <g clip-path="url(#p5216f38cfd)">
     <use style="fill:#dc3545;fill-opacity:0.3;stroke:#dc3545;stroke-opacity:0.3;" x="0" xlink:href="#m59c859ecc0" y="360"/>
    </g>
   </g>
   <g id="line2d_1">
    <path clip-path="url(#p5216f38cfd)" d="M 115.363636 43.2 
L 154.384615 154.682609 
L 193.405594 196.865217 
L 232.426573 220.969565 
L 271.447552 211.930435 
L 310.468531 226.995652 
L 349.48951 196.865217 
L 388.51049 208.917391 
L 427.531469 223.982609 
L 466.552448 205.904348 
L 505.573427 187.826087 
L 544.594406 145.643478 
L 583.615385 136.604348 
L 622.636364 172.76087 
" style="fill:none;stroke:#dc3545;stroke-linecap:square;stroke-width:25;"/>
   </g>
  </g>
 </g>
 <defs>
  <clipPath id="p5216f38cfd">
   <rect height="277.2" width="558" x="90" y="43.2"/>
  </clipPath>
 </defs>
</svg>
