<?xml version="1.0" encoding="utf-8" standalone="no"?>
<!DOCTYPE svg PUBLIC "-//W3C//DTD SVG 1.1//EN"
  "http://www.w3.org/Graphics/SVG/1.1/DTD/svg11.dtd">
<svg height="360pt" version="1.1" viewBox="0 0 720 360" width="720pt" xmlns="http://www.w3.org/2000/svg" xmlns:xlink="http://www.w3.org/1999/xlink">
 <metadata>
  <rdf:RDF xmlns:cc="http://creativecommons.org/ns#" xmlns:dc="http://purl.org/dc/elements/1.1/" xmlns:rdf="http://www.w3.org/1999/02/22-rdf-syntax-ns#">
   <cc:Work>
    <dc:type rdf:resource="http://purl.org/dc/dcmitype/StillImage"/>
    <dc:date>2021-06-22T20:56:52.706323</dc:date>
    <dc:format>image/svg+xml</dc:format>
    <dc:creator>
     <cc:Agent>
      <dc:title>Matplotlib v3.4.2, https://matplotlib.org/</dc:title>
     </cc:Agent>
    </dc:creator>
   </cc:Work>
  </rdf:RDF>
 </metadata>
 <defs>
  <style type="text/css">*{stroke-linecap:butt;stroke-linejoin:round;}</style>
 </defs>
 <g id="figure_1">
  <g id="patch_1">
   <path d="M 0 360 
L 720 360 
L 720 0 
L 0 0 
z
" style="fill:none;"/>
  </g>
  <g id="axes_1">
   <g id="matplotlib.axis_1"/>
   <g id="matplotlib.axis_2"/>
   <g id="PolyCollection_1">
    <defs>
     <path d="M 115.363636 -316.8 
L 115.363636 -39.6 
L 154.384615 -39.6 
L 193.405594 -39.6 
L 232.426573 -39.6 
L 271.447552 -39.6 
L 310.468531 -39.6 
L 349.48951 -39.6 
L 388.51049 -39.6 
L 427.531469 -39.6 
L 466.552448 -39.6 
L 505.573427 -39.6 
L 544.594406 -39.6 
L 583.615385 -39.6 
L 622.636364 -39.6 
L 622.636364 -246.523944 
L 622.636364 -246.523944 
L 583.615385 -227.002817 
L 544.594406 -227.002817 
L 505.573427 -234.811268 
L 466.552448 -254.332394 
L 427.531469 -230.907042 
L 388.51049 -215.290141 
L 349.48951 -246.523944 
L 310.468531 -266.04507 
L 271.447552 -289.470423 
L 232.426573 -289.470423 
L 193.405594 -277.757746 
L 154.384615 -277.757746 
L 115.363636 -316.8 
z
" id="mc3a2d6f343" style="stroke:#dc3545;stroke-opacity:0.3;"/>
    </defs>
    <g clip-path="url(#pcc0fc043fb)">
     <use style="fill:#dc3545;fill-opacity:0.3;stroke:#dc3545;stroke-opacity:0.3;" x="0" xlink:href="#mc3a2d6f343" y="360"/>
    </g>
   </g>
   <g id="line2d_1">
    <path clip-path="url(#pcc0fc043fb)" d="M 115.363636 43.2 
L 154.384615 82.242254 
L 193.405594 82.242254 
L 232.426573 70.529577 
L 271.447552 70.529577 
L 310.468531 93.95493 
L 349.48951 113.476056 
L 388.51049 144.709859 
L 427.531469 129.092958 
L 466.552448 105.667606 
L 505.573427 125.188732 
L 544.594406 132.997183 
L 583.615385 132.997183 
L 622.636364 113.476056 
" style="fill:none;stroke:#dc3545;stroke-linecap:square;stroke-width:25;"/>
   </g>
  </g>
 </g>
 <defs>
  <clipPath id="pcc0fc043fb">
   <rect height="277.2" width="558" x="90" y="43.2"/>
  </clipPath>
 </defs>
</svg>
