<?xml version="1.0" encoding="utf-8" standalone="no"?>
<!DOCTYPE svg PUBLIC "-//W3C//DTD SVG 1.1//EN"
  "http://www.w3.org/Graphics/SVG/1.1/DTD/svg11.dtd">
<svg height="360pt" version="1.1" viewBox="0 0 720 360" width="720pt" xmlns="http://www.w3.org/2000/svg" xmlns:xlink="http://www.w3.org/1999/xlink">
 <metadata>
  <rdf:RDF xmlns:cc="http://creativecommons.org/ns#" xmlns:dc="http://purl.org/dc/elements/1.1/" xmlns:rdf="http://www.w3.org/1999/02/22-rdf-syntax-ns#">
   <cc:Work>
    <dc:type rdf:resource="http://purl.org/dc/dcmitype/StillImage"/>
    <dc:date>2021-05-26T13:50:44.129092</dc:date>
    <dc:format>image/svg+xml</dc:format>
    <dc:creator>
     <cc:Agent>
      <dc:title>Matplotlib v3.4.2, https://matplotlib.org/</dc:title>
     </cc:Agent>
    </dc:creator>
   </cc:Work>
  </rdf:RDF>
 </metadata>
 <defs>
  <style type="text/css">*{stroke-linecap:butt;stroke-linejoin:round;}</style>
 </defs>
 <g id="figure_1">
  <g id="patch_1">
   <path d="M 0 360 
L 720 360 
L 720 0 
L 0 0 
z
" style="fill:none;"/>
  </g>
  <g id="axes_1">
   <g id="matplotlib.axis_1"/>
   <g id="matplotlib.axis_2"/>
   <g id="PolyCollection_1">
    <defs>
     <path d="M 115.363636 -287.855422 
L 115.363636 -39.6 
L 154.384615 -39.6 
L 193.405594 -39.6 
L 232.426573 -39.6 
L 271.447552 -39.6 
L 310.468531 -39.6 
L 349.48951 -39.6 
L 388.51049 -39.6 
L 427.531469 -39.6 
L 466.552448 -39.6 
L 505.573427 -39.6 
L 544.594406 -39.6 
L 583.615385 -39.6 
L 622.636364 -39.6 
L 622.636364 -170.963855 
L 622.636364 -170.963855 
L 583.615385 -179.86988 
L 544.594406 -191.00241 
L 505.573427 -137.566265 
L 466.552448 -146.472289 
L 427.531469 -146.472289 
L 388.51049 -174.303614 
L 349.48951 -219.946988 
L 310.468531 -250.004819 
L 271.447552 -291.195181 
L 232.426573 -316.8 
L 193.405594 -313.460241 
L 154.384615 -295.648193 
L 115.363636 -287.855422 
z
" id="m17cbb8b04d" style="stroke:#dc3545;stroke-opacity:0.3;"/>
    </defs>
    <g clip-path="url(#pf0b4d107fb)">
     <use style="fill:#dc3545;fill-opacity:0.3;stroke:#dc3545;stroke-opacity:0.3;" x="0" xlink:href="#m17cbb8b04d" y="360"/>
    </g>
   </g>
   <g id="line2d_1">
    <path clip-path="url(#pf0b4d107fb)" d="M 115.363636 72.144578 
L 154.384615 64.351807 
L 193.405594 46.539759 
L 232.426573 43.2 
L 271.447552 68.804819 
L 310.468531 109.995181 
L 349.48951 140.053012 
L 388.51049 185.696386 
L 427.531469 213.527711 
L 466.552448 213.527711 
L 505.573427 222.433735 
L 544.594406 168.99759 
L 583.615385 180.13012 
L 622.636364 189.036145 
" style="fill:none;stroke:#dc3545;stroke-linecap:square;stroke-width:25;"/>
   </g>
  </g>
 </g>
 <defs>
  <clipPath id="pf0b4d107fb">
   <rect height="277.2" width="558" x="90" y="43.2"/>
  </clipPath>
 </defs>
</svg>
