<?xml version="1.0" encoding="utf-8" standalone="no"?>
<!DOCTYPE svg PUBLIC "-//W3C//DTD SVG 1.1//EN"
  "http://www.w3.org/Graphics/SVG/1.1/DTD/svg11.dtd">
<svg height="360pt" version="1.1" viewBox="0 0 720 360" width="720pt" xmlns="http://www.w3.org/2000/svg" xmlns:xlink="http://www.w3.org/1999/xlink">
 <metadata>
  <rdf:RDF xmlns:cc="http://creativecommons.org/ns#" xmlns:dc="http://purl.org/dc/elements/1.1/" xmlns:rdf="http://www.w3.org/1999/02/22-rdf-syntax-ns#">
   <cc:Work>
    <dc:type rdf:resource="http://purl.org/dc/dcmitype/StillImage"/>
    <dc:date>2021-05-17T10:41:11.186355</dc:date>
    <dc:format>image/svg+xml</dc:format>
    <dc:creator>
     <cc:Agent>
      <dc:title>Matplotlib v3.4.2, https://matplotlib.org/</dc:title>
     </cc:Agent>
    </dc:creator>
   </cc:Work>
  </rdf:RDF>
 </metadata>
 <defs>
  <style type="text/css">*{stroke-linecap:butt;stroke-linejoin:round;}</style>
 </defs>
 <g id="figure_1">
  <g id="patch_1">
   <path d="M 0 360 
L 720 360 
L 720 0 
L 0 0 
z
" style="fill:none;"/>
  </g>
  <g id="axes_1">
   <g id="matplotlib.axis_1"/>
   <g id="matplotlib.axis_2"/>
   <g id="PolyCollection_1">
    <defs>
     <path d="M 115.363636 -229.966265 
L 115.363636 -39.6 
L 154.384615 -39.6 
L 193.405594 -39.6 
L 232.426573 -39.6 
L 271.447552 -39.6 
L 310.468531 -39.6 
L 349.48951 -39.6 
L 388.51049 -39.6 
L 427.531469 -39.6 
L 466.552448 -39.6 
L 505.573427 -39.6 
L 544.594406 -39.6 
L 583.615385 -39.6 
L 622.636364 -39.6 
L 622.636364 -219.946988 
L 622.636364 -219.946988 
L 583.615385 -250.004819 
L 544.594406 -291.195181 
L 505.573427 -316.8 
L 466.552448 -313.460241 
L 427.531469 -295.648193 
L 388.51049 -287.855422 
L 349.48951 -251.118072 
L 310.468531 -247.778313 
L 271.447552 -228.853012 
L 232.426573 -236.645783 
L 193.405594 -251.118072 
L 154.384615 -248.891566 
L 115.363636 -229.966265 
z
" id="mef80e51ffa" style="stroke:#dc3545;stroke-opacity:0.3;"/>
    </defs>
    <g clip-path="url(#p5636c16a6c)">
     <use style="fill:#dc3545;fill-opacity:0.3;stroke:#dc3545;stroke-opacity:0.3;" x="0" xlink:href="#mef80e51ffa" y="360"/>
    </g>
   </g>
   <g id="line2d_1">
    <path clip-path="url(#p5636c16a6c)" d="M 115.363636 130.033735 
L 154.384615 111.108434 
L 193.405594 108.881928 
L 232.426573 123.354217 
L 271.447552 131.146988 
L 310.468531 112.221687 
L 349.48951 108.881928 
L 388.51049 72.144578 
L 427.531469 64.351807 
L 466.552448 46.539759 
L 505.573427 43.2 
L 544.594406 68.804819 
L 583.615385 109.995181 
L 622.636364 140.053012 
" style="fill:none;stroke:#dc3545;stroke-linecap:square;stroke-width:25;"/>
   </g>
  </g>
 </g>
 <defs>
  <clipPath id="p5636c16a6c">
   <rect height="277.2" width="558" x="90" y="43.2"/>
  </clipPath>
 </defs>
</svg>
