<?xml version="1.0" encoding="utf-8" standalone="no"?>
<!DOCTYPE svg PUBLIC "-//W3C//DTD SVG 1.1//EN"
  "http://www.w3.org/Graphics/SVG/1.1/DTD/svg11.dtd">
<svg height="360pt" version="1.1" viewBox="0 0 720 360" width="720pt" xmlns="http://www.w3.org/2000/svg" xmlns:xlink="http://www.w3.org/1999/xlink">
 <metadata>
  <rdf:RDF xmlns:cc="http://creativecommons.org/ns#" xmlns:dc="http://purl.org/dc/elements/1.1/" xmlns:rdf="http://www.w3.org/1999/02/22-rdf-syntax-ns#">
   <cc:Work>
    <dc:type rdf:resource="http://purl.org/dc/dcmitype/StillImage"/>
    <dc:date>2021-05-31T14:27:30.545102</dc:date>
    <dc:format>image/svg+xml</dc:format>
    <dc:creator>
     <cc:Agent>
      <dc:title>Matplotlib v3.4.2, https://matplotlib.org/</dc:title>
     </cc:Agent>
    </dc:creator>
   </cc:Work>
  </rdf:RDF>
 </metadata>
 <defs>
  <style type="text/css">*{stroke-linecap:butt;stroke-linejoin:round;}</style>
 </defs>
 <g id="figure_1">
  <g id="patch_1">
   <path d="M 0 360 
L 720 360 
L 720 0 
L 0 0 
z
" style="fill:none;"/>
  </g>
  <g id="axes_1">
   <g id="matplotlib.axis_1"/>
   <g id="matplotlib.axis_2"/>
   <g id="PolyCollection_1">
    <defs>
     <path d="M 115.363636 -231.507692 
L 115.363636 -39.6 
L 154.384615 -39.6 
L 193.405594 -39.6 
L 232.426573 -39.6 
L 271.447552 -39.6 
L 310.468531 -39.6 
L 349.48951 -39.6 
L 388.51049 -39.6 
L 427.531469 -39.6 
L 466.552448 -39.6 
L 505.573427 -39.6 
L 544.594406 -39.6 
L 583.615385 -39.6 
L 622.636364 -39.6 
L 622.636364 -129.156923 
L 622.636364 -129.156923 
L 583.615385 -73.716923 
L 544.594406 -65.187692 
L 505.573427 -73.716923 
L 466.552448 -90.775385 
L 427.531469 -129.156923 
L 388.51049 -154.744615 
L 349.48951 -214.449231 
L 310.468531 -227.243077 
L 271.447552 -265.624615 
L 232.426573 -316.8 
L 193.405594 -291.212308 
L 154.384615 -248.566154 
L 115.363636 -231.507692 
z
" id="m112ae9bcd1" style="stroke:#dc3545;stroke-opacity:0.3;"/>
    </defs>
    <g clip-path="url(#p9956a7853e)">
     <use style="fill:#dc3545;fill-opacity:0.3;stroke:#dc3545;stroke-opacity:0.3;" x="0" xlink:href="#m112ae9bcd1" y="360"/>
    </g>
   </g>
   <g id="line2d_1">
    <path clip-path="url(#p9956a7853e)" d="M 115.363636 128.492308 
L 154.384615 111.433846 
L 193.405594 68.787692 
L 232.426573 43.2 
L 271.447552 94.375385 
L 310.468531 132.756923 
L 349.48951 145.550769 
L 388.51049 205.255385 
L 427.531469 230.843077 
L 466.552448 269.224615 
L 505.573427 286.283077 
L 544.594406 294.812308 
L 583.615385 286.283077 
L 622.636364 230.843077 
" style="fill:none;stroke:#dc3545;stroke-linecap:square;stroke-width:25;"/>
   </g>
  </g>
 </g>
 <defs>
  <clipPath id="p9956a7853e">
   <rect height="277.2" width="558" x="90" y="43.2"/>
  </clipPath>
 </defs>
</svg>
