<?xml version="1.0" encoding="utf-8" standalone="no"?>
<!DOCTYPE svg PUBLIC "-//W3C//DTD SVG 1.1//EN"
  "http://www.w3.org/Graphics/SVG/1.1/DTD/svg11.dtd">
<svg height="360pt" version="1.1" viewBox="0 0 720 360" width="720pt" xmlns="http://www.w3.org/2000/svg" xmlns:xlink="http://www.w3.org/1999/xlink">
 <metadata>
  <rdf:RDF xmlns:cc="http://creativecommons.org/ns#" xmlns:dc="http://purl.org/dc/elements/1.1/" xmlns:rdf="http://www.w3.org/1999/02/22-rdf-syntax-ns#">
   <cc:Work>
    <dc:type rdf:resource="http://purl.org/dc/dcmitype/StillImage"/>
    <dc:date>2021-07-15T19:30:15.161395</dc:date>
    <dc:format>image/svg+xml</dc:format>
    <dc:creator>
     <cc:Agent>
      <dc:title>Matplotlib v3.4.2, https://matplotlib.org/</dc:title>
     </cc:Agent>
    </dc:creator>
   </cc:Work>
  </rdf:RDF>
 </metadata>
 <defs>
  <style type="text/css">*{stroke-linecap:butt;stroke-linejoin:round;}</style>
 </defs>
 <g id="figure_1">
  <g id="patch_1">
   <path d="M 0 360 
L 720 360 
L 720 0 
L 0 0 
z
" style="fill:none;"/>
  </g>
  <g id="axes_1">
   <g id="matplotlib.axis_1"/>
   <g id="matplotlib.axis_2"/>
   <g id="PolyCollection_1">
    <defs>
     <path d="M 115.363636 -60.744828 
L 115.363636 -39.6 
L 154.384615 -39.6 
L 193.405594 -39.6 
L 232.426573 -39.6 
L 271.447552 -39.6 
L 310.468531 -39.6 
L 349.48951 -39.6 
L 388.51049 -39.6 
L 427.531469 -39.6 
L 466.552448 -39.6 
L 505.573427 -39.6 
L 544.594406 -39.6 
L 583.615385 -39.6 
L 622.636364 -39.6 
L 622.636364 -299.710345 
L 622.636364 -299.710345 
L 583.615385 -301.448276 
L 544.594406 -316.8 
L 505.573427 -315.931034 
L 466.552448 -298.841379 
L 427.531469 -279.144828 
L 388.51049 -227.296552 
L 349.48951 -136.924138 
L 310.468531 -124.758621 
L 271.447552 -95.503448 
L 232.426573 -86.524138 
L 193.405594 -79.282759 
L 154.384615 -63.641379 
L 115.363636 -60.744828 
z
" id="m8004220068" style="stroke:#dc3545;stroke-opacity:0.3;"/>
    </defs>
    <g clip-path="url(#peaf5cd05ec)">
     <use style="fill:#dc3545;fill-opacity:0.3;stroke:#dc3545;stroke-opacity:0.3;" x="0" xlink:href="#m8004220068" y="360"/>
    </g>
   </g>
   <g id="line2d_1">
    <path clip-path="url(#peaf5cd05ec)" d="M 115.363636 299.255172 
L 154.384615 296.358621 
L 193.405594 280.717241 
L 232.426573 273.475862 
L 271.447552 264.496552 
L 310.468531 235.241379 
L 349.48951 223.075862 
L 388.51049 132.703448 
L 427.531469 80.855172 
L 466.552448 61.158621 
L 505.573427 44.068966 
L 544.594406 43.2 
L 583.615385 58.551724 
L 622.636364 60.289655 
" style="fill:none;stroke:#dc3545;stroke-linecap:square;stroke-width:25;"/>
   </g>
  </g>
 </g>
 <defs>
  <clipPath id="peaf5cd05ec">
   <rect height="277.2" width="558" x="90" y="43.2"/>
  </clipPath>
 </defs>
</svg>
