<?xml version="1.0" encoding="utf-8" standalone="no"?>
<!DOCTYPE svg PUBLIC "-//W3C//DTD SVG 1.1//EN"
  "http://www.w3.org/Graphics/SVG/1.1/DTD/svg11.dtd">
<svg height="360pt" version="1.1" viewBox="0 0 720 360" width="720pt" xmlns="http://www.w3.org/2000/svg" xmlns:xlink="http://www.w3.org/1999/xlink">
 <metadata>
  <rdf:RDF xmlns:cc="http://creativecommons.org/ns#" xmlns:dc="http://purl.org/dc/elements/1.1/" xmlns:rdf="http://www.w3.org/1999/02/22-rdf-syntax-ns#">
   <cc:Work>
    <dc:type rdf:resource="http://purl.org/dc/dcmitype/StillImage"/>
    <dc:date>2021-07-23T09:04:46.439849</dc:date>
    <dc:format>image/svg+xml</dc:format>
    <dc:creator>
     <cc:Agent>
      <dc:title>Matplotlib v3.4.2, https://matplotlib.org/</dc:title>
     </cc:Agent>
    </dc:creator>
   </cc:Work>
  </rdf:RDF>
 </metadata>
 <defs>
  <style type="text/css">*{stroke-linecap:butt;stroke-linejoin:round;}</style>
 </defs>
 <g id="figure_1">
  <g id="patch_1">
   <path d="M 0 360 
L 720 360 
L 720 0 
L 0 0 
z
" style="fill:none;"/>
  </g>
  <g id="axes_1">
   <g id="matplotlib.axis_1"/>
   <g id="matplotlib.axis_2"/>
   <g id="PolyCollection_1">
    <defs>
     <path d="M 115.363636 -316.444843 
L 115.363636 -39.6 
L 154.384615 -39.6 
L 193.405594 -39.6 
L 232.426573 -39.6 
L 271.447552 -39.6 
L 310.468531 -39.6 
L 349.48951 -39.6 
L 388.51049 -39.6 
L 427.531469 -39.6 
L 466.552448 -39.6 
L 505.573427 -39.6 
L 544.594406 -39.6 
L 583.615385 -39.6 
L 622.636364 -39.6 
L 622.636364 -283.770404 
L 622.636364 -283.770404 
L 583.615385 -271.162332 
L 544.594406 -259.264574 
L 505.573427 -264.591928 
L 466.552448 -265.479821 
L 427.531469 -279.686099 
L 388.51049 -268.853812 
L 349.48951 -267.610762 
L 310.468531 -273.826009 
L 271.447552 -287.499552 
L 232.426573 -285.013453 
L 193.405594 -316.8 
L 154.384615 -315.024215 
L 115.363636 -316.444843 
z
" id="m23268bbba7" style="stroke:#dc3545;stroke-opacity:0.3;"/>
    </defs>
    <g clip-path="url(#pa12091fab5)">
     <use style="fill:#dc3545;fill-opacity:0.3;stroke:#dc3545;stroke-opacity:0.3;" x="0" xlink:href="#m23268bbba7" y="360"/>
    </g>
   </g>
   <g id="line2d_1">
    <path clip-path="url(#pa12091fab5)" d="M 115.363636 43.555157 
L 154.384615 44.975785 
L 193.405594 43.2 
L 232.426573 74.986547 
L 271.447552 72.500448 
L 310.468531 86.173991 
L 349.48951 92.389238 
L 388.51049 91.146188 
L 427.531469 80.313901 
L 466.552448 94.520179 
L 505.573427 95.408072 
L 544.594406 100.735426 
L 583.615385 88.837668 
L 622.636364 76.229596 
" style="fill:none;stroke:#dc3545;stroke-linecap:square;stroke-width:25;"/>
   </g>
  </g>
 </g>
 <defs>
  <clipPath id="pa12091fab5">
   <rect height="277.2" width="558" x="90" y="43.2"/>
  </clipPath>
 </defs>
</svg>
