<?xml version="1.0" encoding="utf-8" standalone="no"?>
<!DOCTYPE svg PUBLIC "-//W3C//DTD SVG 1.1//EN"
  "http://www.w3.org/Graphics/SVG/1.1/DTD/svg11.dtd">
<svg height="360pt" version="1.1" viewBox="0 0 720 360" width="720pt" xmlns="http://www.w3.org/2000/svg" xmlns:xlink="http://www.w3.org/1999/xlink">
 <metadata>
  <rdf:RDF xmlns:cc="http://creativecommons.org/ns#" xmlns:dc="http://purl.org/dc/elements/1.1/" xmlns:rdf="http://www.w3.org/1999/02/22-rdf-syntax-ns#">
   <cc:Work>
    <dc:type rdf:resource="http://purl.org/dc/dcmitype/StillImage"/>
    <dc:date>2021-06-09T13:32:53.762055</dc:date>
    <dc:format>image/svg+xml</dc:format>
    <dc:creator>
     <cc:Agent>
      <dc:title>Matplotlib v3.4.2, https://matplotlib.org/</dc:title>
     </cc:Agent>
    </dc:creator>
   </cc:Work>
  </rdf:RDF>
 </metadata>
 <defs>
  <style type="text/css">*{stroke-linecap:butt;stroke-linejoin:round;}</style>
 </defs>
 <g id="figure_1">
  <g id="patch_1">
   <path d="M 0 360 
L 720 360 
L 720 0 
L 0 0 
z
" style="fill:none;"/>
  </g>
  <g id="axes_1">
   <g id="matplotlib.axis_1"/>
   <g id="matplotlib.axis_2"/>
   <g id="PolyCollection_1">
    <defs>
     <path d="M 115.363636 -169.735878 
L 115.363636 -39.6 
L 154.384615 -39.6 
L 193.405594 -39.6 
L 232.426573 -39.6 
L 271.447552 -39.6 
L 310.468531 -39.6 
L 349.48951 -39.6 
L 388.51049 -39.6 
L 427.531469 -39.6 
L 466.552448 -39.6 
L 505.573427 -39.6 
L 544.594406 -39.6 
L 583.615385 -39.6 
L 622.636364 -39.6 
L 622.636364 -215.230534 
L 622.636364 -215.230534 
L 583.615385 -232.687786 
L 544.594406 -268.131298 
L 505.573427 -316.8 
L 466.552448 -311.509924 
L 427.531469 -307.80687 
L 388.51049 -305.69084 
L 349.48951 -280.827481 
L 310.468531 -275.008397 
L 271.447552 -235.332824 
L 232.426573 -194.599237 
L 193.405594 -182.961069 
L 154.384615 -177.141985 
L 115.363636 -169.735878 
z
" id="m695e8bdef4" style="stroke:#dc3545;stroke-opacity:0.3;"/>
    </defs>
    <g clip-path="url(#pe4ca47f4f6)">
     <use style="fill:#dc3545;fill-opacity:0.3;stroke:#dc3545;stroke-opacity:0.3;" x="0" xlink:href="#m695e8bdef4" y="360"/>
    </g>
   </g>
   <g id="line2d_1">
    <path clip-path="url(#pe4ca47f4f6)" d="M 115.363636 190.264122 
L 154.384615 182.858015 
L 193.405594 177.038931 
L 232.426573 165.400763 
L 271.447552 124.667176 
L 310.468531 84.991603 
L 349.48951 79.172519 
L 388.51049 54.30916 
L 427.531469 52.19313 
L 466.552448 48.490076 
L 505.573427 43.2 
L 544.594406 91.868702 
L 583.615385 127.312214 
L 622.636364 144.769466 
" style="fill:none;stroke:#dc3545;stroke-linecap:square;stroke-width:25;"/>
   </g>
  </g>
 </g>
 <defs>
  <clipPath id="pe4ca47f4f6">
   <rect height="277.2" width="558" x="90" y="43.2"/>
  </clipPath>
 </defs>
</svg>
