<?xml version="1.0" encoding="utf-8" standalone="no"?>
<!DOCTYPE svg PUBLIC "-//W3C//DTD SVG 1.1//EN"
  "http://www.w3.org/Graphics/SVG/1.1/DTD/svg11.dtd">
<svg height="360pt" version="1.1" viewBox="0 0 720 360" width="720pt" xmlns="http://www.w3.org/2000/svg" xmlns:xlink="http://www.w3.org/1999/xlink">
 <metadata>
  <rdf:RDF xmlns:cc="http://creativecommons.org/ns#" xmlns:dc="http://purl.org/dc/elements/1.1/" xmlns:rdf="http://www.w3.org/1999/02/22-rdf-syntax-ns#">
   <cc:Work>
    <dc:type rdf:resource="http://purl.org/dc/dcmitype/StillImage"/>
    <dc:date>2021-06-24T11:19:53.141707</dc:date>
    <dc:format>image/svg+xml</dc:format>
    <dc:creator>
     <cc:Agent>
      <dc:title>Matplotlib v3.4.2, https://matplotlib.org/</dc:title>
     </cc:Agent>
    </dc:creator>
   </cc:Work>
  </rdf:RDF>
 </metadata>
 <defs>
  <style type="text/css">*{stroke-linecap:butt;stroke-linejoin:round;}</style>
 </defs>
 <g id="figure_1">
  <g id="patch_1">
   <path d="M 0 360 
L 720 360 
L 720 0 
L 0 0 
z
" style="fill:none;"/>
  </g>
  <g id="axes_1">
   <g id="matplotlib.axis_1"/>
   <g id="matplotlib.axis_2"/>
   <g id="PolyCollection_1">
    <defs>
     <path d="M 115.363636 -95.04 
L 115.363636 -39.6 
L 154.384615 -39.6 
L 193.405594 -39.6 
L 232.426573 -39.6 
L 271.447552 -39.6 
L 310.468531 -39.6 
L 349.48951 -39.6 
L 388.51049 -39.6 
L 427.531469 -39.6 
L 466.552448 -39.6 
L 505.573427 -39.6 
L 544.594406 -39.6 
L 583.615385 -39.6 
L 622.636364 -39.6 
L 622.636364 -316.8 
L 622.636364 -316.8 
L 583.615385 -280.477241 
L 544.594406 -244.154483 
L 505.573427 -224.4 
L 466.552448 -175.332414 
L 427.531469 -161.313103 
L 388.51049 -152.391724 
L 349.48951 -109.696552 
L 310.468531 -99.50069 
L 271.447552 -100.137931 
L 232.426573 -102.686897 
L 193.405594 -96.951724 
L 154.384615 -98.226207 
L 115.363636 -95.04 
z
" id="ma93abe7e20" style="stroke:#dc3545;stroke-opacity:0.3;"/>
    </defs>
    <g clip-path="url(#pe83a2f1e5e)">
     <use style="fill:#dc3545;fill-opacity:0.3;stroke:#dc3545;stroke-opacity:0.3;" x="0" xlink:href="#ma93abe7e20" y="360"/>
    </g>
   </g>
   <g id="line2d_1">
    <path clip-path="url(#pe83a2f1e5e)" d="M 115.363636 264.96 
L 154.384615 261.773793 
L 193.405594 263.048276 
L 232.426573 257.313103 
L 271.447552 259.862069 
L 310.468531 260.49931 
L 349.48951 250.303448 
L 388.51049 207.608276 
L 427.531469 198.686897 
L 466.552448 184.667586 
L 505.573427 135.6 
L 544.594406 115.845517 
L 583.615385 79.522759 
L 622.636364 43.2 
" style="fill:none;stroke:#dc3545;stroke-linecap:square;stroke-width:25;"/>
   </g>
  </g>
 </g>
 <defs>
  <clipPath id="pe83a2f1e5e">
   <rect height="277.2" width="558" x="90" y="43.2"/>
  </clipPath>
 </defs>
</svg>
